<?xml version="1.0" encoding="UTF-8" standalone="no"?>
<svg xmlns:ffdec="https://www.free-decompiler.com/flash" xmlns:xlink="http://www.w3.org/1999/xlink" ffdec:objectType="shape" height="10.75px" width="64.2px" xmlns="http://www.w3.org/2000/svg">
  <g transform="matrix(1.0, 0.0, 0.0, 1.0, 30.6, 5.45)">
    <path d="M2.75 -4.35 L2.75 2.6 6.75 2.6 7.1 2.75 7.25 3.1 7.25 4.6 7.1 4.95 6.75 5.1 0.4 5.1 0.05 4.95 -0.1 4.6 -0.1 -4.35 0.05 -4.7 0.4 -4.85 2.25 -4.85 2.6 -4.7 2.75 -4.35 M8.05 -4.9 L11.4 -4.9 13.25 -4.7 Q15.1 -4.15 15.85 -2.1 L15.85 -2.05 16.1 0.2 Q16.1 2.75 14.75 4.05 L14.75 4.1 13.3 4.95 13.25 4.95 11.5 5.1 8.05 5.1 7.7 4.95 7.55 4.6 7.55 -4.4 7.7 -4.75 8.05 -4.9 M12.75 -1.95 L12.15 -2.3 10.7 -2.35 10.4 -2.35 10.4 2.6 11.25 2.6 12.25 2.55 12.25 2.5 Q12.85 2.35 13.1 1.65 L13.1 1.6 13.25 0.1 Q13.25 -1.4 12.7 -1.95 L12.75 -1.95 M17.15 -4.9 L23.85 -4.9 24.2 -4.75 24.35 -4.4 24.35 -2.85 24.2 -2.5 Q24.05 -2.35 23.85 -2.35 L19.5 -2.35 19.5 -1.4 23.5 -1.4 23.85 -1.25 24.0 -0.9 24.0 0.65 23.85 1.0 23.5 1.15 19.5 1.15 19.5 2.6 24.05 2.6 Q24.25 2.6 24.4 2.75 L24.55 3.1 24.55 4.6 24.4 4.95 24.05 5.1 17.15 5.1 16.8 4.95 16.65 4.6 16.65 -4.4 16.8 -4.75 17.15 -4.9 M25.2 -4.75 L25.55 -4.9 28.9 -4.9 30.75 -4.7 Q32.6 -4.15 33.35 -2.1 L33.35 -2.05 33.6 0.2 Q33.6 2.75 32.25 4.05 L32.25 4.1 30.8 4.95 30.75 4.95 29.0 5.1 25.55 5.1 25.2 4.95 25.05 4.6 25.05 -4.4 25.2 -4.75 M28.2 -2.35 L27.9 -2.35 27.9 2.6 28.75 2.6 29.75 2.55 29.75 2.5 Q30.35 2.35 30.6 1.65 L30.6 1.6 30.75 0.1 Q30.75 -1.4 30.2 -1.95 L30.25 -1.95 29.65 -2.3 28.2 -2.35 M-27.8 -4.7 L-25.9 -5.05 Q-24.25 -5.05 -23.2 -4.35 -21.95 -3.55 -21.9 -1.8 L-22.0 -1.45 Q-22.15 -1.3 -22.35 -1.3 L-24.2 -1.25 -24.55 -1.35 -24.75 -1.65 -25.05 -2.3 -25.1 -2.35 -25.9 -2.55 -26.85 -2.3 -26.9 -2.15 -26.8 -2.0 -25.3 -1.45 -23.25 -0.75 -23.25 -0.8 Q-21.65 0.05 -21.65 2.0 -21.65 2.95 -22.2 3.75 L-22.15 3.75 Q-22.7 4.55 -23.6 4.95 L-23.6 4.9 -25.75 5.3 Q-29.6 5.3 -30.0 1.75 L-29.9 1.4 -29.55 1.2 -27.75 1.0 -27.4 1.1 -27.2 1.45 Q-27.0 2.75 -25.75 2.75 L-24.85 2.55 -24.8 2.5 Q-24.5 2.35 -24.5 2.0 -24.55 1.7 -25.0 1.55 L-26.4 1.15 Q-28.0 0.75 -28.65 0.2 L-28.7 0.2 Q-29.65 -0.75 -29.65 -2.05 -29.65 -2.95 -29.15 -3.6 -28.7 -4.35 -27.85 -4.7 L-27.8 -4.7 M-21.0 -4.75 L-20.65 -4.9 -18.8 -4.9 -18.45 -4.75 -18.3 -4.4 -18.3 -1.35 -15.75 -1.35 -15.75 -4.4 -15.6 -4.75 -15.25 -4.9 -13.4 -4.9 -13.05 -4.75 -12.9 -4.4 -12.9 4.6 -13.05 4.95 -13.4 5.1 -15.25 5.1 -15.6 4.95 -15.75 4.6 -15.75 1.15 -18.3 1.15 -18.3 4.6 -18.45 4.95 -18.8 5.1 -20.65 5.1 -21.0 4.95 -21.15 4.6 -21.15 -4.4 -21.0 -4.75 M-11.6 -4.9 L-9.75 -4.9 Q-9.55 -4.9 -9.4 -4.75 L-9.25 -4.4 -9.25 4.6 -9.4 4.95 Q-9.55 5.1 -9.75 5.1 L-11.6 5.1 -11.95 4.95 -12.1 4.6 -12.1 -4.4 -11.95 -4.75 -11.6 -4.9 M-5.7 -1.4 L-1.7 -1.4 -1.35 -1.25 -1.2 -0.9 -1.2 0.65 -1.35 1.0 -1.7 1.15 -5.7 1.15 -5.7 2.6 -1.15 2.6 Q-0.95 2.6 -0.8 2.75 L-0.65 3.1 -0.65 4.6 -0.8 4.95 -1.15 5.1 -8.05 5.1 -8.4 4.95 -8.55 4.6 -8.55 -4.4 -8.4 -4.75 -8.05 -4.9 -1.35 -4.9 Q-1.15 -4.9 -1.0 -4.75 L-0.85 -4.4 -0.85 -2.85 -1.0 -2.5 Q-1.15 -2.35 -1.35 -2.35 L-5.7 -2.35 -5.7 -1.4" fill="#000000" fill-rule="evenodd" stroke="none"/>
    <path d="M2.15 -4.75 L2.15 2.2 6.15 2.2 6.5 2.35 6.65 2.7 6.65 4.2 6.5 4.55 6.15 4.7 -0.2 4.7 -0.55 4.55 -0.7 4.2 -0.7 -4.75 -0.55 -5.1 -0.2 -5.25 1.65 -5.25 2.0 -5.1 2.15 -4.75 M9.8 -2.75 L9.8 2.2 10.65 2.2 11.65 2.15 11.65 2.1 Q12.25 1.95 12.5 1.25 L12.5 1.2 12.65 -0.3 Q12.65 -1.8 12.1 -2.35 L12.15 -2.35 11.55 -2.7 10.1 -2.75 9.8 -2.75 M7.45 -5.3 L10.8 -5.3 12.65 -5.1 Q14.5 -4.55 15.25 -2.5 L15.25 -2.45 15.5 -0.2 Q15.5 2.35 14.15 3.65 L14.15 3.7 12.7 4.55 12.65 4.55 10.9 4.7 7.45 4.7 7.1 4.55 6.95 4.2 6.95 -4.8 7.1 -5.15 7.45 -5.3 M18.9 -1.8 L22.9 -1.8 23.25 -1.65 23.4 -1.3 23.4 0.25 23.25 0.6 22.9 0.75 18.9 0.75 18.9 2.2 23.45 2.2 Q23.65 2.2 23.8 2.35 L23.95 2.7 23.95 4.2 23.8 4.55 23.45 4.7 16.55 4.7 16.2 4.55 16.05 4.2 16.05 -4.8 16.2 -5.15 16.55 -5.3 23.25 -5.3 23.6 -5.15 23.75 -4.8 23.75 -3.25 23.6 -2.9 Q23.45 -2.75 23.25 -2.75 L18.9 -2.75 18.9 -1.8 M24.95 -5.3 L28.3 -5.3 30.15 -5.1 Q32.0 -4.55 32.75 -2.5 L32.75 -2.45 33.0 -0.2 Q33.0 2.35 31.65 3.65 L31.65 3.7 30.2 4.55 30.15 4.55 28.4 4.7 24.95 4.7 24.6 4.55 24.45 4.2 24.45 -4.8 24.6 -5.15 24.95 -5.3 M27.3 -2.75 L27.3 2.2 28.15 2.2 29.15 2.15 29.15 2.1 Q29.75 1.95 30.0 1.25 L30.0 1.2 30.15 -0.3 Q30.15 -1.8 29.6 -2.35 L29.65 -2.35 29.05 -2.7 27.6 -2.75 27.3 -2.75 M-28.45 -5.1 L-28.4 -5.1 -26.5 -5.45 Q-24.85 -5.45 -23.8 -4.75 -22.55 -3.95 -22.5 -2.2 L-22.6 -1.85 Q-22.75 -1.7 -22.95 -1.7 L-24.8 -1.65 -25.15 -1.75 -25.35 -2.05 -25.65 -2.7 -25.7 -2.75 -26.5 -2.95 -27.45 -2.7 -27.5 -2.55 -27.4 -2.4 -25.9 -1.85 -23.85 -1.15 -23.85 -1.2 Q-22.25 -0.35 -22.25 1.6 -22.25 2.55 -22.8 3.35 L-22.75 3.35 Q-23.3 4.15 -24.2 4.55 L-24.2 4.5 Q-25.1 4.9 -26.35 4.9 -30.2 4.9 -30.6 1.35 L-30.5 1.0 -30.15 0.8 -28.35 0.6 -28.0 0.7 -27.8 1.05 Q-27.6 2.35 -26.35 2.35 L-25.45 2.15 -25.4 2.1 Q-25.1 1.95 -25.1 1.6 -25.15 1.3 -25.6 1.15 L-27.0 0.75 Q-28.6 0.35 -29.25 -0.2 L-29.3 -0.2 Q-30.25 -1.15 -30.25 -2.45 -30.25 -3.35 -29.75 -4.0 -29.3 -4.75 -28.45 -5.1 M-21.25 -5.3 L-19.4 -5.3 -19.05 -5.15 -18.9 -4.8 -18.9 -1.75 -16.35 -1.75 -16.35 -4.8 -16.2 -5.15 -15.85 -5.3 -14.0 -5.3 -13.65 -5.15 -13.5 -4.8 -13.5 4.2 -13.65 4.55 -14.0 4.7 -15.85 4.7 -16.2 4.55 -16.35 4.2 -16.35 0.75 -18.9 0.75 -18.9 4.2 -19.05 4.55 -19.4 4.7 -21.25 4.7 -21.6 4.55 -21.75 4.2 -21.75 -4.8 -21.6 -5.15 -21.25 -5.3 M-10.35 -5.3 L-10.0 -5.15 -9.85 -4.8 -9.85 4.2 -10.0 4.55 -10.35 4.7 -12.2 4.7 -12.55 4.55 -12.7 4.2 -12.7 -4.8 -12.55 -5.15 -12.2 -5.3 -10.35 -5.3 M-9.0 -5.15 L-8.65 -5.3 -1.95 -5.3 -1.6 -5.15 -1.45 -4.8 -1.45 -3.25 -1.6 -2.9 Q-1.75 -2.75 -1.95 -2.75 L-6.3 -2.75 -6.3 -1.8 -2.3 -1.8 -1.95 -1.65 -1.8 -1.3 -1.8 0.25 -1.95 0.6 -2.3 0.75 -6.3 0.75 -6.3 2.2 -1.75 2.2 Q-1.55 2.2 -1.4 2.35 L-1.25 2.7 -1.25 4.2 -1.4 4.55 -1.75 4.7 -8.65 4.7 -9.0 4.55 -9.15 4.2 -9.15 -4.8 -9.0 -5.15" fill="#000000" fill-rule="evenodd" stroke="none"/>
    <path d="M9.3 -3.25 L9.3 2.7 10.65 2.7 11.75 2.6 Q12.65 2.4 12.95 1.35 L13.15 -0.3 Q13.15 -2.1 12.45 -2.75 L11.6 -3.2 10.1 -3.25 9.3 -3.25 M14.75 -2.35 L15.0 -0.2 Q15.0 2.1 13.8 3.3 L12.5 4.05 10.9 4.2 7.45 4.2 7.45 -4.8 10.8 -4.8 12.5 -4.65 Q14.1 -4.15 14.75 -2.35" fill="url(#gradient0)" fill-rule="evenodd" stroke="none"/>
    <path d="M18.4 -1.3 L22.9 -1.3 22.9 0.25 18.4 0.25 18.4 2.7 23.45 2.7 23.45 4.2 16.55 4.2 16.55 -4.8 23.25 -4.8 23.25 -3.25 18.4 -3.25 18.4 -1.3" fill="url(#gradient1)" fill-rule="evenodd" stroke="none"/>
    <path d="M28.3 -4.8 L30.0 -4.65 Q31.6 -4.15 32.25 -2.35 L32.5 -0.2 Q32.5 2.1 31.3 3.3 L30.0 4.05 28.4 4.2 24.95 4.2 24.95 -4.8 28.3 -4.8 M26.8 -3.25 L26.8 2.7 28.15 2.7 29.25 2.6 Q30.15 2.4 30.45 1.35 L30.65 -0.3 Q30.65 -2.1 29.95 -2.75 29.6 -3.05 29.1 -3.2 L27.6 -3.25 26.8 -3.25" fill="url(#gradient2)" fill-rule="evenodd" stroke="none"/>
    <path d="M-26.5 -3.45 Q-27.3 -3.45 -27.75 -3.1 L-28.0 -2.55 -27.75 -2.0 Q-27.4 -1.75 -26.05 -1.4 L-24.1 -0.75 Q-22.75 -0.05 -22.75 1.6 -22.75 2.4 -23.2 3.05 -23.65 3.75 -24.4 4.05 L-26.35 4.4 Q-29.75 4.4 -30.1 1.3 L-28.3 1.1 Q-28.0 2.85 -26.35 2.85 L-25.2 2.55 Q-24.6 2.25 -24.6 1.6 -24.6 0.95 -25.45 0.65 L-26.9 0.25 Q-28.35 -0.1 -28.95 -0.6 -29.75 -1.35 -29.75 -2.45 -29.75 -3.2 -29.35 -3.75 L-28.25 -4.65 -26.5 -4.95 Q-25.0 -4.95 -24.1 -4.35 -23.05 -3.65 -23.0 -2.2 L-24.85 -2.15 Q-24.95 -2.85 -25.4 -3.15 -25.75 -3.45 -26.5 -3.45" fill="url(#gradient3)" fill-rule="evenodd" stroke="none"/>
    <path d="M-15.85 -4.8 L-14.0 -4.8 -14.0 4.2 -15.85 4.2 -15.85 0.25 -19.4 0.25 -19.4 4.2 -21.25 4.2 -21.25 -4.8 -19.4 -4.8 -19.4 -1.25 -15.85 -1.25 -15.85 -4.8" fill="url(#gradient4)" fill-rule="evenodd" stroke="none"/>
    <path d="M-10.35 -4.8 L-10.35 4.2 -12.2 4.2 -12.2 -4.8 -10.35 -4.8" fill="url(#gradient5)" fill-rule="evenodd" stroke="none"/>
    <path d="M-2.3 -1.3 L-2.3 0.25 -6.8 0.25 -6.8 2.7 -1.75 2.7 -1.75 4.2 -8.65 4.2 -8.65 -4.8 -1.95 -4.8 -1.95 -3.25 -6.8 -3.25 -6.8 -1.3 -2.3 -1.3" fill="url(#gradient6)" fill-rule="evenodd" stroke="none"/>
    <path d="M6.15 4.2 L-0.2 4.2 -0.2 -4.75 1.65 -4.75 1.65 2.7 6.15 2.7 6.15 4.2" fill="url(#gradient7)" fill-rule="evenodd" stroke="none"/>
  </g>
  <defs>
    <linearGradient gradientTransform="matrix(0.0, 0.0055, -0.0046, 0.0, 11.25, -0.3)" gradientUnits="userSpaceOnUse" id="gradient0" spreadMethod="pad" x1="-819.2" x2="819.2">
      <stop offset="0.0" stop-color="#819afe"/>
      <stop offset="1.0" stop-color="#b4dafe"/>
    </linearGradient>
    <linearGradient gradientTransform="matrix(0.0, 0.0055, -0.0042, 0.0, 20.0, -0.3)" gradientUnits="userSpaceOnUse" id="gradient1" spreadMethod="pad" x1="-819.2" x2="819.2">
      <stop offset="0.0" stop-color="#819afe"/>
      <stop offset="1.0" stop-color="#b4dafe"/>
    </linearGradient>
    <linearGradient gradientTransform="matrix(0.0, 0.0055, -0.0046, 0.0, 28.75, -0.3)" gradientUnits="userSpaceOnUse" id="gradient2" spreadMethod="pad" x1="-819.2" x2="819.2">
      <stop offset="0.0" stop-color="#819afe"/>
      <stop offset="1.0" stop-color="#b4dafe"/>
    </linearGradient>
    <linearGradient gradientTransform="matrix(0.0, 0.0057, -0.0045, 0.0, -26.4, -0.3)" gradientUnits="userSpaceOnUse" id="gradient3" spreadMethod="pad" x1="-819.2" x2="819.2">
      <stop offset="0.0" stop-color="#819afe"/>
      <stop offset="1.0" stop-color="#b4dafe"/>
    </linearGradient>
    <linearGradient gradientTransform="matrix(0.0, 0.0055, -0.0044, 0.0, -17.6, -0.3)" gradientUnits="userSpaceOnUse" id="gradient4" spreadMethod="pad" x1="-819.2" x2="819.2">
      <stop offset="0.0" stop-color="#819afe"/>
      <stop offset="1.0" stop-color="#b4dafe"/>
    </linearGradient>
    <linearGradient gradientTransform="matrix(0.0, 0.0055, -0.0011, 0.0, -11.25, -0.3)" gradientUnits="userSpaceOnUse" id="gradient5" spreadMethod="pad" x1="-819.2" x2="819.2">
      <stop offset="0.0" stop-color="#819afe"/>
      <stop offset="1.0" stop-color="#b4dafe"/>
    </linearGradient>
    <linearGradient gradientTransform="matrix(0.0, 0.0055, -0.0042, 0.0, -5.2, -0.3)" gradientUnits="userSpaceOnUse" id="gradient6" spreadMethod="pad" x1="-819.2" x2="819.2">
      <stop offset="0.0" stop-color="#819afe"/>
      <stop offset="1.0" stop-color="#b4dafe"/>
    </linearGradient>
    <linearGradient gradientTransform="matrix(0.0, 0.0055, -0.0039, 0.0, 3.0, -0.3)" gradientUnits="userSpaceOnUse" id="gradient7" spreadMethod="pad" x1="-819.2" x2="819.2">
      <stop offset="0.0" stop-color="#819afe"/>
      <stop offset="1.0" stop-color="#b4dafe"/>
    </linearGradient>
  </defs>
</svg>
