<?xml version="1.0" encoding="UTF-8" standalone="no"?>
<svg xmlns:ffdec="https://www.free-decompiler.com/flash" xmlns:xlink="http://www.w3.org/1999/xlink" ffdec:objectType="shape" height="33.55px" width="25.55px" xmlns="http://www.w3.org/2000/svg">
  <g transform="matrix(1.0, 0.0, 0.0, 1.0, 13.2, 15.05)">
    <path d="M7.65 -13.45 L9.45 -12.6 Q10.8 -10.35 11.4 -7.8 12.55 -3.05 11.05 2.85 L10.9 3.2 Q10.6 3.75 9.0 2.1 L8.75 1.85 7.85 0.8 6.0 -1.45 4.35 -8.7 4.5 -1.65 2.3 0.55 Q1.5 0.9 0.85 1.65 -3.45 4.5 -8.15 3.05 L-8.45 2.95 Q-11.55 -4.55 -10.9 -10.7 -10.95 -11.15 -10.6 -11.8 -10.5 -12.15 -8.85 -12.55 L-2.4 -13.8 7.65 -13.45" fill="url(#gradient0)" fill-rule="evenodd" stroke="none"/>
    <path d="M5.5 -14.95 L7.65 -13.45 -2.4 -13.8 -8.85 -12.55 -4.9 -15.0 5.5 -14.95" fill="url(#gradient1)" fill-rule="evenodd" stroke="none"/>
    <path d="M4.5 -1.65 L4.35 -8.7 6.0 -1.45 5.2 -1.65 5.0 -1.7 4.65 -1.65 4.5 -1.65" fill="url(#gradient2)" fill-rule="evenodd" stroke="none"/>
    <path d="M2.3 0.55 L4.5 -1.65 4.65 -1.65 5.0 -1.7 5.2 -1.65 6.0 -1.45 7.85 0.8 Q7.05 0.15 6.05 0.15 L2.3 0.55" fill="url(#gradient3)" fill-rule="evenodd" stroke="none"/>
    <path d="M10.9 3.25 L10.85 5.45 8.95 2.15 9.0 2.1 Q10.6 3.75 10.9 3.2 L10.9 3.25" fill="url(#gradient4)" fill-rule="evenodd" stroke="none"/>
    <path d="M10.85 5.45 L10.65 8.1 Q9.05 11.35 10.05 15.65 L5.4 15.65 -0.1 15.65 Q-1.25 12.9 -1.35 9.7 -1.6 5.4 0.1 2.65 L0.85 1.65 Q1.5 0.9 2.3 0.55 L6.05 0.15 Q7.05 0.15 7.85 0.8 L8.75 1.85 8.95 2.1 8.95 2.15 10.85 5.45 M-0.25 5.95 L5.05 5.2 5.25 2.1 5.05 5.2 -0.25 5.95 M8.75 10.35 L5.0 10.2 Q4.95 7.65 5.05 5.2 L9.65 5.35 5.05 5.2 Q4.95 7.65 5.0 10.2 L8.75 10.35 M0.65 11.1 L5.0 10.2 5.4 15.65 5.0 10.2 0.65 11.1" fill="url(#gradient5)" fill-rule="evenodd" stroke="none"/>
    <path d="M8.75 1.85 L9.0 2.1 8.95 2.1 8.75 1.85" fill="url(#gradient6)" fill-rule="evenodd" stroke="none"/>
    <path d="M8.95 2.15 L8.95 2.1 9.0 2.1 8.95 2.15" fill="url(#gradient7)" fill-rule="evenodd" stroke="none"/>
    <path d="M-8.45 2.95 L-8.15 3.05 Q-3.45 4.5 0.85 1.65 L0.1 2.65 Q-1.6 5.4 -1.35 9.7 -1.25 12.9 -0.1 15.65 L-4.6 15.65 -4.65 13.65 Q-4.55 11.05 -6.3 7.35 L-9.75 2.55 -8.45 2.95" fill="url(#gradient8)" fill-rule="evenodd" stroke="none"/>
    <path d="M10.65 8.1 Q11.3 9.6 11.7 13.6 11.85 14.85 12.35 15.65 L10.05 15.65 Q9.05 11.35 10.65 8.1" fill="url(#gradient9)" fill-rule="evenodd" stroke="none"/>
    <path d="M-10.9 -10.7 Q-11.55 -4.55 -8.45 2.95 L-9.75 2.55 -10.95 1.95 Q-13.6 -4.1 -13.15 -8.3 L-10.9 -10.7" fill="url(#gradient10)" fill-rule="evenodd" stroke="none"/>
    <path d="M-6.3 7.35 Q-4.55 11.05 -4.65 13.65 L-4.6 15.65 -9.1 15.65 Q-6.75 13.1 -6.3 7.35" fill="url(#gradient11)" fill-rule="evenodd" stroke="none"/>
    <path d="M7.65 -13.45 L9.45 -12.6 Q10.8 -10.35 11.4 -7.8 12.55 -3.05 11.05 2.85 L10.95 3.25 10.95 3.3 10.9 3.25 10.85 5.45 10.65 8.1 Q11.3 9.6 11.7 13.6 11.85 14.85 12.35 15.65 M5.5 -14.95 L7.65 -13.45 -2.4 -13.8 -8.85 -12.55 Q-10.5 -12.15 -10.6 -11.8 -10.95 -11.15 -10.9 -10.7 L-13.15 -8.3 Q-13.6 -4.1 -10.95 1.95 L-9.75 2.55 -6.3 7.35 Q-6.75 13.1 -9.1 15.65 M-8.45 2.95 L-8.15 3.05 Q-3.45 4.5 0.85 1.65 1.5 0.9 2.3 0.55 L4.5 -1.65 4.35 -8.7 6.0 -1.45 7.85 0.8 8.75 1.85 9.0 2.1 Q10.6 3.75 10.9 3.2 L11.05 2.85 M7.25 -14.95 L5.5 -14.95 -4.9 -15.0 -8.85 -12.55 M6.0 -1.45 L5.2 -1.65 5.0 -1.7 4.65 -1.65 4.5 -1.65 M10.9 3.2 L10.9 3.25 M-4.9 -15.0 L-11.4 -15.05 M-8.45 2.95 L-9.75 2.55" fill="none" stroke="#000000" stroke-linecap="round" stroke-linejoin="round" stroke-width="0.05"/>
    <path d="M5.4 15.65 L5.75 18.5 M5.4 15.65 L5.0 10.2 0.65 11.1 M9.65 5.35 L5.05 5.2 Q4.95 7.65 5.0 10.2 L8.75 10.35 M5.25 2.1 L5.05 5.2 -0.25 5.95" fill="none" stroke="#111111" stroke-linecap="round" stroke-linejoin="round" stroke-width="0.05"/>
  </g>
  <defs>
    <radialGradient cx="0" cy="0" gradientTransform="matrix(0.025, 0.0, 0.0, 0.025, 2.4, -13.85)" gradientUnits="userSpaceOnUse" id="gradient0" r="819.2" spreadMethod="pad">
      <stop offset="0.0" stop-color="#9d9d9d"/>
      <stop offset="1.0" stop-color="#3c3c3c"/>
    </radialGradient>
    <radialGradient cx="0" cy="0" gradientTransform="matrix(0.0154, 0.0, 0.0, 0.0154, -4.15, -14.15)" gradientUnits="userSpaceOnUse" id="gradient1" r="819.2" spreadMethod="pad">
      <stop offset="0.0" stop-color="#1e1e1e"/>
      <stop offset="1.0" stop-color="#000000"/>
    </radialGradient>
    <radialGradient cx="0" cy="0" gradientTransform="matrix(0.0055, 0.0, 0.0, 0.0066, 4.8, -3.35)" gradientUnits="userSpaceOnUse" id="gradient2" r="819.2" spreadMethod="pad">
      <stop offset="0.0" stop-color="#1e1e1e"/>
      <stop offset="1.0" stop-color="#000000"/>
    </radialGradient>
    <radialGradient cx="0" cy="0" gradientTransform="matrix(0.004, 0.0, 0.0, 0.004, 5.0, 1.75)" gradientUnits="userSpaceOnUse" id="gradient3" r="819.2" spreadMethod="pad">
      <stop offset="0.0" stop-color="#3c3c3c"/>
      <stop offset="1.0" stop-color="#090909"/>
    </radialGradient>
    <radialGradient cx="0" cy="0" gradientTransform="matrix(0.0028, 0.0, 0.0, 0.0028, 10.0, 5.25)" gradientUnits="userSpaceOnUse" id="gradient4" r="819.2" spreadMethod="pad">
      <stop offset="0.0" stop-color="#3c3c3c"/>
      <stop offset="1.0" stop-color="#090909"/>
    </radialGradient>
    <radialGradient cx="0" cy="0" fx="-3.2" fy="0" gradientTransform="matrix(0.0182, 0.0, 0.0, 0.0182, 4.75, 14.5)" gradientUnits="userSpaceOnUse" id="gradient5" r="819.2" spreadMethod="pad">
      <stop offset="0.0" stop-color="#3c3c3c"/>
      <stop offset="1.0" stop-color="#090909"/>
    </radialGradient>
    <radialGradient cx="0" cy="0" gradientTransform="matrix(0.0196, 0.0, 0.0, 0.0233, -4.65, 7.4)" gradientUnits="userSpaceOnUse" id="gradient6" r="819.2" spreadMethod="pad">
      <stop offset="0.0" stop-color="#595959"/>
      <stop offset="1.0" stop-color="#373737"/>
    </radialGradient>
    <radialGradient cx="0" cy="0" gradientTransform="matrix(0.0196, 0.0, 0.0, 0.0233, -4.65, 7.4)" gradientUnits="userSpaceOnUse" id="gradient7" r="819.2" spreadMethod="pad">
      <stop offset="0.0" stop-color="#a07345"/>
      <stop offset="1.0" stop-color="#522e2e"/>
    </radialGradient>
    <radialGradient cx="0" cy="0" fx="-3.2" fy="0" gradientTransform="matrix(0.0196, 0.0, 0.0, 0.0233, -3.75, 17.6)" gradientUnits="userSpaceOnUse" id="gradient8" r="819.2" spreadMethod="pad">
      <stop offset="0.0" stop-color="#555555"/>
      <stop offset="1.0" stop-color="#151515"/>
    </radialGradient>
    <radialGradient cx="0" cy="0" fx="-3.2" fy="0" gradientTransform="matrix(0.0061, 0.0, 0.0, 0.0073, 11.05, 14.05)" gradientUnits="userSpaceOnUse" id="gradient9" r="819.2" spreadMethod="pad">
      <stop offset="0.0" stop-color="#555555"/>
      <stop offset="1.0" stop-color="#151515"/>
    </radialGradient>
    <radialGradient cx="0" cy="0" gradientTransform="matrix(0.0099, 0.0, 0.0, 0.0117, -11.3, -1.05)" gradientUnits="userSpaceOnUse" id="gradient10" r="819.2" spreadMethod="pad">
      <stop offset="0.0" stop-color="#1e1e1e"/>
      <stop offset="1.0" stop-color="#000000"/>
    </radialGradient>
    <radialGradient cx="0" cy="0" fx="-3.2" fy="0" gradientTransform="matrix(0.0104, 0.0, 0.0, 0.0104, -7.75, 15.25)" gradientUnits="userSpaceOnUse" id="gradient11" r="819.2" spreadMethod="pad">
      <stop offset="0.0" stop-color="#555555"/>
      <stop offset="1.0" stop-color="#151515"/>
    </radialGradient>
  </defs>
</svg>
