<?xml version="1.0" encoding="UTF-8" standalone="no"?>
<svg xmlns:ffdec="https://www.free-decompiler.com/flash" xmlns:xlink="http://www.w3.org/1999/xlink" ffdec:objectType="shape" height="25.8px" width="10.9px" xmlns="http://www.w3.org/2000/svg">
  <g transform="matrix(1.0, 0.0, 0.0, 1.0, 6.35, 17.45)">
    <path d="M4.25 -16.15 L4.55 -15.45 4.55 7.35 4.25 8.05 Q3.95 8.35 3.55 8.35 L-0.15 8.35 Q-0.55 8.35 -0.85 8.05 L-1.15 7.35 -1.65 7.35 Q-2.05 7.35 -2.35 7.05 L-2.65 6.35 -2.65 -8.3 -3.1 -8.8 -3.5 -8.8 -3.95 -9.1 -6.05 -11.35 -6.35 -12.05 -6.05 -12.75 -1.75 -17.15 -1.05 -17.45 2.05 -17.45 2.75 -17.15 3.05 -16.45 3.55 -16.45 Q3.95 -16.45 4.25 -16.15" fill="#000000" fill-rule="evenodd" stroke="none"/>
  </g>
</svg>
