<?xml version="1.0" encoding="UTF-8" standalone="no"?>
<svg xmlns:ffdec="https://www.free-decompiler.com/flash" xmlns:xlink="http://www.w3.org/1999/xlink" ffdec:objectType="shape" height="25.7px" width="27.8px" xmlns="http://www.w3.org/2000/svg">
  <g transform="matrix(1.0, 0.0, 0.0, 1.0, 13.95, 12.2)">
    <path d="M13.8 -10.0 L7.75 -9.65 Q3.45 -8.45 2.9 -6.3 -0.6 -8.65 -9.1 -6.75 L-7.6 -8.9 -4.5 -8.75 Q-3.35 -10.3 -1.2 -11.25 0.15 -12.3 2.05 -11.5 3.1 -12.45 4.45 -12.15 6.3 -11.5 6.25 -10.85 L13.6 -10.6 13.8 -10.0" fill="url(#gradient0)" fill-rule="evenodd" stroke="none"/>
    <path d="M8.15 -5.6 L11.65 -7.65 11.75 -7.7 13.15 -6.55 11.65 -4.65 8.15 -5.6" fill="url(#gradient1)" fill-rule="evenodd" stroke="none"/>
    <path d="M-1.45 7.05 Q-1.1 9.55 -0.9 12.6 -2.55 12.35 -3.6 11.6 L-5.65 13.35 Q-11.15 14.05 -13.9 11.45 L-13.7 8.05 -11.05 9.05 Q-9.75 6.9 -13.95 4.7 L-13.4 2.2 Q-10.0 6.5 -1.45 7.05" fill="url(#gradient2)" fill-rule="evenodd" stroke="none"/>
    <path d="M-12.2 -1.15 Q-3.7 -9.6 -1.45 7.05 -10.0 6.5 -13.4 2.2 L-12.2 -1.15" fill="url(#gradient3)" fill-rule="evenodd" stroke="none"/>
    <path d="M9.95 4.35 L8.75 6.85 Q5.05 8.8 1.75 7.2 L0.75 3.6 Q1.25 4.15 2.45 4.35 6.2 5.25 9.95 4.35" fill="url(#gradient4)" fill-rule="evenodd" stroke="none"/>
    <path d="M-9.1 -6.75 Q-0.6 -8.65 2.9 -6.3 3.45 -8.45 7.75 -9.65 L13.8 -10.0 13.8 -9.95 Q13.95 -9.2 13.6 -8.65 L11.75 -7.7 11.65 -7.65 8.15 -5.6 Q4.1 -3.0 1.35 0.1 L1.0 0.5 Q0.4 1.5 0.35 2.25 0.2 3.1 0.75 3.6 L1.75 7.2 Q5.05 8.8 8.75 6.85 L9.95 4.35 10.35 4.25 12.0 3.7 Q13.95 4.9 12.15 7.35 7.55 10.7 2.05 12.6 L-0.45 12.65 -0.9 12.6 Q-1.1 9.55 -1.45 7.05 -3.7 -9.6 -12.2 -1.15 -11.0 -3.95 -9.1 -6.75" fill="url(#gradient5)" fill-rule="evenodd" stroke="none"/>
    <path d="M13.8 -10.0 L13.6 -10.6 6.25 -10.85 Q6.3 -11.5 4.45 -12.15 3.1 -12.45 2.05 -11.5 0.15 -12.3 -1.2 -11.25 -3.35 -10.3 -4.5 -8.75 L-7.6 -8.9 -9.1 -6.75 Q-11.0 -3.95 -12.2 -1.15 L-13.4 2.2 -13.95 4.7 Q-9.75 6.9 -11.05 9.05 L-13.7 8.05 -13.9 11.45 Q-11.15 14.05 -5.65 13.35 L-3.6 11.6 Q-2.55 12.35 -0.9 12.6 L-0.45 12.65 2.05 12.6 Q7.55 10.7 12.15 7.35 13.95 4.9 12.0 3.7 L10.35 4.25 9.95 4.35 Q6.2 5.25 2.45 4.35 1.25 4.15 0.75 3.6 0.2 3.1 0.35 2.25 0.4 1.5 1.0 0.5 L1.35 0.1 Q4.1 -3.0 8.15 -5.6 L11.65 -7.65 11.75 -7.7 13.6 -8.65 Q13.95 -9.2 13.8 -9.95 L13.8 -10.0 M-1.45 7.05 Q-1.1 9.55 -0.9 12.6 M11.75 -7.7 L13.15 -6.55 11.65 -4.65 8.15 -5.6 M-1.45 7.05 Q-10.0 6.5 -13.4 2.2" fill="none" stroke="#000000" stroke-linecap="round" stroke-linejoin="round" stroke-width="0.05"/>
  </g>
  <defs>
    <radialGradient cx="0" cy="0" gradientTransform="matrix(0.0159, 0.0, 0.0, 0.0159, 0.9, -9.4)" gradientUnits="userSpaceOnUse" id="gradient0" r="819.2" spreadMethod="pad">
      <stop offset="0.0" stop-color="#463939"/>
      <stop offset="1.0" stop-color="#1b1010"/>
    </radialGradient>
    <radialGradient cx="0" cy="0" gradientTransform="matrix(0.0046, 0.0, 0.0, 0.0046, 11.75, -5.75)" gradientUnits="userSpaceOnUse" id="gradient1" r="819.2" spreadMethod="pad">
      <stop offset="0.0" stop-color="#463939"/>
      <stop offset="1.0" stop-color="#1b1010"/>
    </radialGradient>
    <radialGradient cx="0" cy="0" gradientTransform="matrix(0.0059, 0.0, 0.0, 0.0112, -9.1, 8.5)" gradientUnits="userSpaceOnUse" id="gradient2" r="819.2" spreadMethod="pad">
      <stop offset="0.0" stop-color="#262626"/>
      <stop offset="1.0" stop-color="#1e1515"/>
    </radialGradient>
    <radialGradient cx="0" cy="0" gradientTransform="matrix(0.0129, 0.0, 0.0, 0.0129, -7.25, -1.4)" gradientUnits="userSpaceOnUse" id="gradient3" r="819.2" spreadMethod="pad">
      <stop offset="0.0" stop-color="#463939"/>
      <stop offset="1.0" stop-color="#1b1010"/>
    </radialGradient>
    <radialGradient cx="0" cy="0" gradientTransform="matrix(0.0075, 0.0, 0.0, 0.0075, 6.5, 5.75)" gradientUnits="userSpaceOnUse" id="gradient4" r="819.2" spreadMethod="pad">
      <stop offset="0.0" stop-color="#463939"/>
      <stop offset="1.0" stop-color="#1b1010"/>
    </radialGradient>
    <radialGradient cx="0" cy="0" gradientTransform="matrix(0.0216, 0.0, 0.0, 0.0216, -0.05, 0.65)" gradientUnits="userSpaceOnUse" id="gradient5" r="819.2" spreadMethod="pad">
      <stop offset="0.0" stop-color="#c13e3e"/>
      <stop offset="1.0" stop-color="#351717"/>
    </radialGradient>
  </defs>
</svg>
