<?xml version="1.0" encoding="UTF-8" standalone="no"?>
<svg xmlns:ffdec="https://www.free-decompiler.com/flash" xmlns:xlink="http://www.w3.org/1999/xlink" ffdec:objectType="shape" height="28.6px" width="29.0px" xmlns="http://www.w3.org/2000/svg">
  <g transform="matrix(1.0, 0.0, 0.0, 1.0, 13.5, 13.15)">
    <path d="M14.4 -6.0 L7.5 -3.8 -2.1 -5.3 -2.15 -5.35 -2.25 -5.4 -9.0 -9.85 -9.2 -10.4 -9.1 -13.15 -6.9 -12.8 -6.4 -12.75 -4.5 -10.3 Q5.3 -6.1 10.9 -8.3 L12.25 -10.0 14.4 -9.7 14.4 -6.15 14.4 -6.0" fill="url(#gradient0)" fill-rule="evenodd" stroke="none"/>
    <path d="M7.5 -3.8 L14.4 -6.0 14.4 2.1 7.95 4.1 7.5 -3.8" fill="url(#gradient1)" fill-rule="evenodd" stroke="none"/>
    <path d="M12.25 -10.0 L10.9 -8.3 Q5.3 -6.1 -4.5 -10.3 L-6.4 -12.75 12.25 -10.0" fill="url(#gradient2)" fill-rule="evenodd" stroke="none"/>
    <path d="M7.95 4.1 L14.4 2.1 14.4 7.5 8.55 9.7 8.25 9.6 7.95 4.1" fill="url(#gradient3)" fill-rule="evenodd" stroke="none"/>
    <path d="M14.4 7.5 L14.4 11.35 8.55 13.65 8.5 13.6 8.25 9.6 8.55 9.7 14.4 7.5" fill="url(#gradient4)" fill-rule="evenodd" stroke="none"/>
    <path d="M-2.1 -5.3 L7.5 -3.8 7.95 4.1 7.9 4.1 2.2 2.5 2.15 2.5 2.05 1.85 2.0 2.4 2.0 2.45 2.0 2.6 -3.75 2.95 -4.2 2.6 -2.15 -5.3 -2.1 -5.3" fill="url(#gradient5)" fill-rule="evenodd" stroke="none"/>
    <path d="M2.75 7.3 L2.75 7.2 2.15 2.6 2.2 2.5 7.9 4.1 7.95 4.1 8.25 9.6 2.75 7.3" fill="url(#gradient6)" fill-rule="evenodd" stroke="none"/>
    <path d="M2.2 2.5 L2.15 2.6 2.15 2.5 2.2 2.5" fill="url(#gradient7)" fill-rule="evenodd" stroke="none"/>
    <path d="M2.0 2.6 L1.35 5.95 1.25 6.25 1.0 6.85 -5.75 8.65 -4.2 2.6 -3.75 2.95 2.0 2.6" fill="url(#gradient8)" fill-rule="evenodd" stroke="none"/>
    <path d="M0.8 7.45 L-0.6 11.5 -6.75 13.45 -6.95 13.3 -5.75 8.75 -5.75 8.65 1.0 6.85 0.8 7.45" fill="url(#gradient9)" fill-rule="evenodd" stroke="none"/>
    <path d="M4.25 12.15 L2.9 8.45 2.75 7.3 8.25 9.6 8.5 13.6 4.25 12.15" fill="url(#gradient10)" fill-rule="evenodd" stroke="none"/>
    <path d="M8.55 14.95 L5.25 14.95 4.25 12.15 8.5 13.6 8.5 13.65 8.55 14.95" fill="url(#gradient11)" fill-rule="evenodd" stroke="none"/>
    <path d="M14.4 11.35 L14.4 14.95 8.55 14.95 8.5 13.65 8.55 13.65 14.4 11.35" fill="url(#gradient12)" fill-rule="evenodd" stroke="none"/>
    <path d="M-9.0 -9.85 L-2.25 -5.4 -2.15 -5.35 -2.15 -5.3 -4.2 2.6 -10.7 -2.65 -11.6 -3.3 -9.05 -9.6 -9.0 -9.85" fill="url(#gradient13)" fill-rule="evenodd" stroke="none"/>
    <path d="M-4.2 2.6 L-5.75 8.65 -6.0 8.7 -12.0 3.65 -12.1 3.5 -12.1 3.35 -13.5 2.35 -10.7 -2.65 -4.2 2.6" fill="url(#gradient14)" fill-rule="evenodd" stroke="none"/>
    <path d="M-5.75 8.75 L-6.0 8.7 -5.75 8.65 -5.75 8.75 M-12.0 3.65 L-12.15 3.6 -12.1 3.5 -12.0 3.65" fill="url(#gradient15)" fill-rule="evenodd" stroke="none"/>
    <path d="M-6.0 8.7 L-5.75 8.75 -6.95 13.3 -12.3 8.65 -13.1 7.85 -12.15 3.6 -12.0 3.65 -6.0 8.7" fill="url(#gradient16)" fill-rule="evenodd" stroke="none"/>
    <path d="M-6.95 13.4 L-6.95 13.3 -6.75 13.45 -6.95 13.4" fill="url(#gradient17)" fill-rule="evenodd" stroke="none"/>
    <path d="M-7.35 14.95 L-12.7 14.95 -12.3 8.65 -6.95 13.3 -6.95 13.4 -7.35 14.95" fill="url(#gradient18)" fill-rule="evenodd" stroke="none"/>
    <path d="M-0.6 11.5 L-1.75 14.95 -7.35 14.95 -6.95 13.4 -6.75 13.45 -0.6 11.5" fill="url(#gradient19)" fill-rule="evenodd" stroke="none"/>
    <path d="M14.4 -9.7 L15.5 -9.55 M7.5 -3.8 L14.4 -6.0 14.4 -6.15 M14.4 -9.7 L12.25 -10.0 -6.4 -12.75 M-6.9 -12.8 L-9.1 -13.15 -9.2 -10.4 -9.0 -9.85 -2.25 -5.4 M-2.15 -5.35 L-2.1 -5.3 7.5 -3.8 M7.95 4.1 L14.4 2.1 15.25 1.85 M14.4 11.35 L15.4 10.95 M5.25 14.95 L4.25 12.15 2.9 8.45 2.75 7.3 2.75 7.2 2.15 2.6 2.0 2.6 1.35 5.95 1.25 6.25 0.8 7.45 -0.6 11.5 -1.75 14.95 M-12.7 14.95 L-12.75 15.45 M14.4 7.5 L15.4 7.1 M14.4 7.5 L8.55 9.7 8.25 9.6 2.75 7.3 M8.5 13.6 L8.55 13.65 14.4 11.35 M7.9 4.1 L7.95 4.1 M2.15 2.6 L2.15 2.5 2.0 2.45 2.0 2.6 -3.75 2.95 -4.2 2.6 -10.7 -2.65 -13.5 2.35 -12.1 3.35 -12.1 3.5 -12.0 3.65 -6.0 8.7 -5.75 8.65 1.0 6.85 1.25 6.25 M2.0 2.45 L2.0 2.4 2.05 1.85 2.15 2.5 2.2 2.5 7.9 4.1 M1.0 6.85 L0.8 7.45 M8.5 13.6 L4.25 12.15 M-9.0 -9.85 L-9.05 -9.6 -11.6 -3.3 -10.7 -2.65 M-9.2 -10.4 L-9.25 -10.05 -9.0 -9.85 M-12.15 3.6 L-13.1 7.85 -12.3 8.65 -6.95 13.3 -6.75 13.45 -0.6 11.5 M-12.1 3.35 L-12.6 3.1 -12.1 3.5 -12.15 3.6 M-12.3 8.65 L-12.7 14.95" fill="none" stroke="#000000" stroke-linecap="round" stroke-linejoin="round" stroke-width="0.05"/>
  </g>
  <defs>
    <radialGradient cx="0" cy="0" gradientTransform="matrix(0.0237, 0.0, 0.0, 0.0237, 4.25, -11.5)" gradientUnits="userSpaceOnUse" id="gradient0" r="819.2" spreadMethod="pad">
      <stop offset="0.0" stop-color="#404040"/>
      <stop offset="1.0" stop-color="#000000"/>
    </radialGradient>
    <radialGradient cx="0" cy="0" gradientTransform="matrix(0.0078, 0.0, 0.0, 0.0078, 12.0, 0.1)" gradientUnits="userSpaceOnUse" id="gradient1" r="819.2" spreadMethod="pad">
      <stop offset="0.0" stop-color="#404040"/>
      <stop offset="1.0" stop-color="#000000"/>
    </radialGradient>
    <radialGradient cx="0" cy="0" gradientTransform="matrix(-6.0E-4, 0.005, -0.0109, -0.0013, 3.15, -8.0)" gradientUnits="userSpaceOnUse" id="gradient2" r="819.2" spreadMethod="pad">
      <stop offset="0.0" stop-color="#404040"/>
      <stop offset="1.0" stop-color="#000000"/>
    </radialGradient>
    <radialGradient cx="0" cy="0" gradientTransform="matrix(0.0078, 0.0, 0.0, 0.0078, 13.0, 8.85)" gradientUnits="userSpaceOnUse" id="gradient3" r="819.2" spreadMethod="pad">
      <stop offset="0.0" stop-color="#404040"/>
      <stop offset="1.0" stop-color="#000000"/>
    </radialGradient>
    <radialGradient cx="0" cy="0" gradientTransform="matrix(0.0078, 0.0, 0.0, 0.0078, 13.75, 14.0)" gradientUnits="userSpaceOnUse" id="gradient4" r="819.2" spreadMethod="pad">
      <stop offset="0.0" stop-color="#404040"/>
      <stop offset="1.0" stop-color="#000000"/>
    </radialGradient>
    <radialGradient cx="0" cy="0" gradientTransform="matrix(0.0098, 0.0, 0.0, 0.0098, 3.4, 0.15)" gradientUnits="userSpaceOnUse" id="gradient5" r="819.2" spreadMethod="pad">
      <stop offset="0.0" stop-color="#404040"/>
      <stop offset="1.0" stop-color="#000000"/>
    </radialGradient>
    <radialGradient cx="0" cy="0" gradientTransform="matrix(0.0071, 0.0, 0.0, 0.0071, 4.75, 4.9)" gradientUnits="userSpaceOnUse" id="gradient6" r="819.2" spreadMethod="pad">
      <stop offset="0.0" stop-color="#404040"/>
      <stop offset="1.0" stop-color="#000000"/>
    </radialGradient>
    <radialGradient cx="0" cy="0" gradientTransform="matrix(0.0071, 0.0, 0.0, 0.0071, 4.75, 4.9)" gradientUnits="userSpaceOnUse" id="gradient7" r="819.2" spreadMethod="pad">
      <stop offset="0.0" stop-color="#3c4044"/>
      <stop offset="1.0" stop-color="#130e14"/>
    </radialGradient>
    <radialGradient cx="0" cy="0" gradientTransform="matrix(0.0081, 0.0, 0.0, 0.0081, -0.1, 5.25)" gradientUnits="userSpaceOnUse" id="gradient8" r="819.2" spreadMethod="pad">
      <stop offset="0.0" stop-color="#404040"/>
      <stop offset="1.0" stop-color="#000000"/>
    </radialGradient>
    <radialGradient cx="0" cy="0" gradientTransform="matrix(0.0073, 0.0, 0.0, 0.0073, -2.5, 9.25)" gradientUnits="userSpaceOnUse" id="gradient9" r="819.2" spreadMethod="pad">
      <stop offset="0.0" stop-color="#404040"/>
      <stop offset="1.0" stop-color="#000000"/>
    </radialGradient>
    <radialGradient cx="0" cy="0" gradientTransform="matrix(0.0068, 0.0, 0.0, 0.0068, 4.65, 9.5)" gradientUnits="userSpaceOnUse" id="gradient10" r="819.2" spreadMethod="pad">
      <stop offset="0.0" stop-color="#404040"/>
      <stop offset="1.0" stop-color="#000000"/>
    </radialGradient>
    <radialGradient cx="0" cy="0" gradientTransform="matrix(0.0039, 0.0, 0.0, 0.0039, 5.5, 14.0)" gradientUnits="userSpaceOnUse" id="gradient11" r="819.2" spreadMethod="pad">
      <stop offset="0.0" stop-color="#404040"/>
      <stop offset="1.0" stop-color="#000000"/>
    </radialGradient>
    <radialGradient cx="0" cy="0" gradientTransform="matrix(0.0061, 0.0, 0.0, 0.0061, 14.4, 17.25)" gradientUnits="userSpaceOnUse" id="gradient12" r="819.2" spreadMethod="pad">
      <stop offset="0.0" stop-color="#404040"/>
      <stop offset="1.0" stop-color="#000000"/>
    </radialGradient>
    <radialGradient cx="0" cy="0" gradientTransform="matrix(0.0095, 0.0, 0.0, 0.0095, -8.35, -1.9)" gradientUnits="userSpaceOnUse" id="gradient13" r="819.2" spreadMethod="pad">
      <stop offset="0.0" stop-color="#404040"/>
      <stop offset="1.0" stop-color="#000000"/>
    </radialGradient>
    <radialGradient cx="0" cy="0" gradientTransform="matrix(0.0091, 0.0, 0.0, 0.0091, -11.85, 5.5)" gradientUnits="userSpaceOnUse" id="gradient14" r="819.2" spreadMethod="pad">
      <stop offset="0.0" stop-color="#404040"/>
      <stop offset="1.0" stop-color="#000000"/>
    </radialGradient>
    <radialGradient cx="0" cy="0" gradientTransform="matrix(0.0083, 0.0, 0.0, 0.0083, -13.25, 13.5)" gradientUnits="userSpaceOnUse" id="gradient15" r="819.2" spreadMethod="pad">
      <stop offset="0.0" stop-color="#82868e"/>
      <stop offset="1.0" stop-color="#48432f"/>
    </radialGradient>
    <radialGradient cx="0" cy="0" gradientTransform="matrix(0.0083, 0.0, 0.0, 0.0083, -13.25, 13.5)" gradientUnits="userSpaceOnUse" id="gradient16" r="819.2" spreadMethod="pad">
      <stop offset="0.0" stop-color="#404040"/>
      <stop offset="1.0" stop-color="#000000"/>
    </radialGradient>
    <radialGradient cx="0" cy="0" gradientTransform="matrix(0.0052, 0.0, 0.0, 0.0052, -3.25, 13.65)" gradientUnits="userSpaceOnUse" id="gradient17" r="819.2" spreadMethod="pad">
      <stop offset="0.0" stop-color="#3c4044"/>
      <stop offset="1.0" stop-color="#130e14"/>
    </radialGradient>
    <radialGradient cx="0" cy="0" gradientTransform="matrix(0.007, 0.0, 0.0, 0.007, -12.85, 17.0)" gradientUnits="userSpaceOnUse" id="gradient18" r="819.2" spreadMethod="pad">
      <stop offset="0.0" stop-color="#404040"/>
      <stop offset="1.0" stop-color="#000000"/>
    </radialGradient>
    <radialGradient cx="0" cy="0" gradientTransform="matrix(0.0052, 0.0, 0.0, 0.0052, -3.25, 13.65)" gradientUnits="userSpaceOnUse" id="gradient19" r="819.2" spreadMethod="pad">
      <stop offset="0.0" stop-color="#404040"/>
      <stop offset="1.0" stop-color="#000000"/>
    </radialGradient>
  </defs>
</svg>
