<?xml version="1.0" encoding="UTF-8" standalone="no"?>
<svg xmlns:ffdec="https://www.free-decompiler.com/flash" xmlns:xlink="http://www.w3.org/1999/xlink" ffdec:objectType="shape" height="30.35px" width="27.6px" xmlns="http://www.w3.org/2000/svg">
  <g transform="matrix(1.0, 0.0, 0.0, 1.0, 14.1, 15.15)">
    <path d="M8.4 -8.5 L11.55 -8.8 11.1 -6.7 8.05 -6.25 8.4 -8.5" fill="url(#gradient0)" fill-rule="evenodd" stroke="none"/>
    <path d="M-0.25 -10.2 Q3.1 -8.3 8.4 -8.5 L8.05 -6.25 Q2.5 -5.85 -1.3 -8.95 L-1.35 -9.3 -0.25 -10.2" fill="url(#gradient1)" fill-rule="evenodd" stroke="none"/>
    <path d="M8.4 -8.5 L8.7 -10.6 11.5 -10.25 10.65 -10.1 11.55 -8.8 8.4 -8.5" fill="url(#gradient2)" fill-rule="evenodd" stroke="none"/>
    <path d="M8.7 -10.6 L8.4 -8.5 Q3.1 -8.3 -0.25 -10.2 L-1.65 -11.2 -2.05 -13.7 Q2.5 -11.5 8.7 -10.6" fill="url(#gradient3)" fill-rule="evenodd" stroke="none"/>
    <path d="M8.05 -6.25 L11.1 -6.7 8.55 5.25 6.3 5.9 Q8.2 0.25 8.05 -6.25" fill="url(#gradient4)" fill-rule="evenodd" stroke="none"/>
    <path d="M6.3 5.9 Q4.05 6.1 1.0 4.85 -0.55 -2.6 -1.3 -8.95 2.5 -5.85 8.05 -6.25 8.2 0.25 6.3 5.9" fill="url(#gradient5)" fill-rule="evenodd" stroke="none"/>
    <path d="M5.45 11.8 Q11.3 10.7 10.35 7.55 12.2 10.15 12.15 13.9 L5.1 14.45 5.45 11.8" fill="url(#gradient6)" fill-rule="evenodd" stroke="none"/>
    <path d="M-13.3 12.0 Q-0.45 12.95 5.45 11.8 L5.1 14.45 Q-4.65 14.95 -14.1 13.9 L-13.3 12.0" fill="url(#gradient7)" fill-rule="evenodd" stroke="none"/>
    <path d="M8.55 5.25 L8.5 5.6 10.35 7.55 Q11.3 10.7 5.45 11.8 L6.3 5.9 8.55 5.25" fill="url(#gradient8)" fill-rule="evenodd" stroke="none"/>
    <path d="M11.5 -10.25 L8.7 -10.6 Q10.1 -12.85 9.3 -15.15 L13.4 -15.15 12.0 -10.4 11.5 -10.25" fill="url(#gradient9)" fill-rule="evenodd" stroke="none"/>
    <path d="M8.7 -10.6 Q2.5 -11.5 -2.05 -13.7 L-2.25 -15.15 9.3 -15.15 Q10.1 -12.85 8.7 -10.6" fill="url(#gradient10)" fill-rule="evenodd" stroke="none"/>
    <path d="M6.3 5.9 L5.45 11.8 Q-0.45 12.95 -13.3 12.0 -11.15 7.7 -6.75 7.1 -1.8 8.7 1.0 5.5 L1.0 4.85 Q4.05 6.1 6.3 5.9" fill="url(#gradient11)" fill-rule="evenodd" stroke="none"/>
    <path d="M-2.05 -13.7 L-1.65 -11.2 -0.25 -10.2 Q3.1 -8.3 8.4 -8.5 L11.55 -8.8 10.65 -10.1 11.5 -10.25 12.0 -10.4 13.4 -15.15 M-2.25 -15.15 L-2.05 -13.7 M11.1 -6.7 L11.55 -8.8 M10.35 7.55 L8.5 5.6 8.55 5.25 6.3 5.9 Q4.05 6.1 1.0 4.85 L1.0 5.5 Q-1.8 8.7 -6.75 7.1 -11.15 7.7 -13.3 12.0 L-14.1 13.9 Q-4.65 14.95 5.1 14.45 L12.15 13.9 12.75 15.2 M10.35 7.55 Q12.2 10.15 12.15 13.9 L13.5 13.9 M8.55 5.25 L11.1 -6.7 M-1.3 -8.95 Q-0.55 -2.6 1.0 4.85 M-1.3 -8.95 L-1.35 -9.3 -0.25 -10.2" fill="none" stroke="#000000" stroke-linecap="round" stroke-linejoin="round" stroke-width="0.05"/>
  </g>
  <defs>
    <radialGradient cx="0" cy="0" gradientTransform="matrix(0.0041, 0.0, 0.0, 0.0041, 7.15, -7.5)" gradientUnits="userSpaceOnUse" id="gradient0" r="819.2" spreadMethod="pad">
      <stop offset="0.0" stop-color="#262626"/>
      <stop offset="1.0" stop-color="#000000"/>
    </radialGradient>
    <radialGradient cx="0" cy="0" gradientTransform="matrix(0.0089, 0.0, 0.0, 0.0089, 0.9, -8.1)" gradientUnits="userSpaceOnUse" id="gradient1" r="819.2" spreadMethod="pad">
      <stop offset="0.0" stop-color="#4b2323"/>
      <stop offset="1.0" stop-color="#0d0f0b"/>
    </radialGradient>
    <radialGradient cx="0" cy="0" gradientTransform="matrix(0.0027, 0.0, 0.0, 0.0027, 7.0, -10.25)" gradientUnits="userSpaceOnUse" id="gradient2" r="819.2" spreadMethod="pad">
      <stop offset="0.0" stop-color="#262626"/>
      <stop offset="1.0" stop-color="#000000"/>
    </radialGradient>
    <radialGradient cx="0" cy="0" gradientTransform="matrix(0.0107, 0.0, 0.0, 0.0107, -0.1, -11.6)" gradientUnits="userSpaceOnUse" id="gradient3" r="819.2" spreadMethod="pad">
      <stop offset="0.0" stop-color="#404040"/>
      <stop offset="1.0" stop-color="#040404"/>
    </radialGradient>
    <radialGradient cx="0" cy="0" gradientTransform="matrix(0.0113, 0.0, 0.0, 0.0113, 8.4, 1.0)" gradientUnits="userSpaceOnUse" id="gradient4" r="819.2" spreadMethod="pad">
      <stop offset="0.0" stop-color="#262626"/>
      <stop offset="1.0" stop-color="#000000"/>
    </radialGradient>
    <radialGradient cx="0" cy="0" gradientTransform="matrix(0.0194, 0.0, 0.0, 0.0194, -1.0, -4.35)" gradientUnits="userSpaceOnUse" id="gradient5" r="819.2" spreadMethod="pad">
      <stop offset="0.0" stop-color="#623737"/>
      <stop offset="1.0" stop-color="#000000"/>
    </radialGradient>
    <radialGradient cx="0" cy="0" gradientTransform="matrix(0.0068, 0.0, 0.0, 0.0068, 7.15, 12.75)" gradientUnits="userSpaceOnUse" id="gradient6" r="819.2" spreadMethod="pad">
      <stop offset="0.0" stop-color="#262626"/>
      <stop offset="1.0" stop-color="#000000"/>
    </radialGradient>
    <radialGradient cx="0" cy="0" gradientTransform="matrix(0.0303, 0.0, 0.0, 0.0303, -11.35, 15.9)" gradientUnits="userSpaceOnUse" id="gradient7" r="819.2" spreadMethod="pad">
      <stop offset="0.0" stop-color="#404040"/>
      <stop offset="1.0" stop-color="#040404"/>
    </radialGradient>
    <radialGradient cx="0" cy="0" gradientTransform="matrix(0.0074, 0.0, 0.0, 0.0074, 6.15, 9.0)" gradientUnits="userSpaceOnUse" id="gradient8" r="819.2" spreadMethod="pad">
      <stop offset="0.0" stop-color="#5a1d1d"/>
      <stop offset="1.0" stop-color="#351717"/>
    </radialGradient>
    <radialGradient cx="0" cy="0" gradientTransform="matrix(0.0057, 0.0, 0.0, 0.0057, 10.25, -11.75)" gradientUnits="userSpaceOnUse" id="gradient9" r="819.2" spreadMethod="pad">
      <stop offset="0.0" stop-color="#5a1d1d"/>
      <stop offset="1.0" stop-color="#351717"/>
    </radialGradient>
    <radialGradient cx="0" cy="0" gradientTransform="matrix(0.0163, 0.0, 0.0, 0.0163, -0.5, -12.6)" gradientUnits="userSpaceOnUse" id="gradient10" r="819.2" spreadMethod="pad">
      <stop offset="0.0" stop-color="#b53939"/>
      <stop offset="1.0" stop-color="#170b0b"/>
    </radialGradient>
    <radialGradient cx="0" cy="0" gradientTransform="matrix(0.022, 0.0, 0.0, 0.022, -6.0, 12.75)" gradientUnits="userSpaceOnUse" id="gradient11" r="819.2" spreadMethod="pad">
      <stop offset="0.0" stop-color="#b53939"/>
      <stop offset="1.0" stop-color="#170b0b"/>
    </radialGradient>
  </defs>
</svg>
