<?xml version="1.0" encoding="UTF-8" standalone="no"?>
<svg xmlns:ffdec="https://www.free-decompiler.com/flash" xmlns:xlink="http://www.w3.org/1999/xlink" ffdec:objectType="shape" height="26.45px" width="17.5px" xmlns="http://www.w3.org/2000/svg">
  <g transform="matrix(1.0, 0.0, 0.0, 1.0, 8.05, 18.1)">
    <path d="M5.45 -16.25 L7.1 -15.15 7.05 -15.15 Q9.45 -13.15 9.45 -9.65 9.5 -6.2 6.4 -3.6 L6.35 -3.55 1.6 -0.1 1.7 -0.15 Q0.6 0.8 0.05 1.85 L6.75 1.85 Q7.15 1.85 7.45 2.15 L7.75 2.85 8.25 2.85 Q8.65 2.85 8.95 3.15 L9.25 3.85 9.25 7.35 8.95 8.05 8.25 8.35 -5.15 8.35 -5.8 8.1 -6.15 7.45 -6.15 7.35 -6.65 7.35 -7.3 7.1 -7.65 6.45 -7.75 4.5 Q-7.75 -0.65 -4.8 -3.95 L-4.8 -4.0 0.25 -8.05 Q2.15 -9.45 2.25 -10.65 L2.1 -11.55 1.6 -11.6 Q-0.9 -11.6 -2.4 -9.3 L-2.85 -8.95 -3.4 -8.9 -3.9 -9.15 -4.7 -9.9 -4.9 -9.9 -5.4 -10.15 -7.7 -12.3 -8.05 -12.9 -7.9 -13.55 Q-6.4 -16.2 -3.2 -17.4 L-3.3 -17.3 Q-1.85 -18.1 0.1 -18.1 3.3 -18.1 5.45 -16.25" fill="#000000" fill-rule="evenodd" stroke="none"/>
  </g>
</svg>
