<?xml version="1.0" encoding="UTF-8" standalone="no"?>
<svg xmlns:ffdec="https://www.free-decompiler.com/flash" xmlns:xlink="http://www.w3.org/1999/xlink" ffdec:objectType="shape" height="23.45px" width="14.0px" xmlns="http://www.w3.org/2000/svg">
  <g transform="matrix(1.0, 0.0, 0.0, 1.0, 7.0, 11.75)">
    <path d="M4.95 -10.05 Q7.0 -8.3 7.0 -5.3 7.0 -2.3 4.3 0.0 L-0.45 3.45 Q-2.9 5.65 -2.9 8.2 L6.8 8.2 6.8 11.7 -6.6 11.7 -6.7 9.85 Q-6.7 5.1 -4.0 2.0 -3.05 0.85 0.85 -1.9 3.3 -3.65 3.3 -5.3 3.3 -8.25 0.15 -8.25 -2.85 -8.25 -4.7 -5.55 L-7.0 -7.7 Q-5.65 -10.05 -2.8 -11.1 -1.55 -11.75 0.15 -11.75 3.05 -11.75 4.95 -10.05" fill="#9966cc" fill-rule="evenodd" stroke="none"/>
  </g>
</svg>
