<?xml version="1.0" encoding="UTF-8" standalone="no"?>
<svg xmlns:ffdec="https://www.free-decompiler.com/flash" xmlns:xlink="http://www.w3.org/1999/xlink" ffdec:objectType="shape" height="32.6px" width="48.85px" xmlns="http://www.w3.org/2000/svg">
  <g transform="matrix(1.0, 0.0, 0.0, 1.0, 11.8, 9.45)">
    <path d="M17.35 -8.8 L17.45 -8.4 23.25 19.1 4.9 19.4 -0.5 4.7 -7.6 4.7 -11.3 -1.7 17.35 -8.8" fill="url(#gradient0)" fill-rule="evenodd" stroke="none"/>
    <path d="M17.35 -8.8 L18.0 -8.95 M17.35 -8.8 L-11.3 -1.7" fill="none" stroke="#000000" stroke-linecap="round" stroke-linejoin="round" stroke-width="1.0"/>
    <path d="M-11.3 -1.7 L-7.6 4.7 -0.5 4.7 4.9 19.4 23.25 19.1 17.45 -8.4 M4.9 19.4 L5.5 21.05 M2.75 19.4 L4.9 19.4 M23.25 19.1 L36.55 18.85 M24.0 22.65 L23.25 19.1" fill="none" stroke="#000000" stroke-linecap="round" stroke-linejoin="round" stroke-width="1.0"/>
  </g>
  <defs>
    <linearGradient gradientTransform="matrix(0.0168, -0.0063, 0.0068, 0.0181, 7.95, 7.95)" gradientUnits="userSpaceOnUse" id="gradient0" spreadMethod="pad" x1="-819.2" x2="819.2">
      <stop offset="0.0" stop-color="#fdde68"/>
      <stop offset="0.5098039215686274" stop-color="#aa7b11"/>
      <stop offset="0.5568627450980392" stop-color="#e9ab1f"/>
      <stop offset="1.0" stop-color="#f8d687"/>
    </linearGradient>
  </defs>
</svg>
