<?xml version="1.0" encoding="UTF-8" standalone="no"?>
<svg xmlns:ffdec="https://www.free-decompiler.com/flash" xmlns:xlink="http://www.w3.org/1999/xlink" ffdec:objectType="shape" height="20.7px" width="20.7px" xmlns="http://www.w3.org/2000/svg">
  <g transform="matrix(1.0, 0.0, 0.0, 1.0, 10.3, 10.05)">
    <path d="M7.0 -6.7 Q9.9 -3.8 9.9 0.3 9.9 4.4 7.0 7.25 4.15 10.15 0.05 10.15 -4.05 10.15 -6.95 7.25 -9.8 4.4 -9.8 0.3 -9.8 -3.8 -6.95 -6.7 -4.05 -9.55 0.05 -9.55 4.15 -9.55 7.0 -6.7" fill="url(#gradient0)" fill-rule="evenodd" stroke="none"/>
    <path d="M7.0 -6.7 Q9.9 -3.8 9.9 0.3 9.9 4.4 7.0 7.25 4.15 10.15 0.05 10.15 -4.05 10.15 -6.95 7.25 -9.8 4.4 -9.8 0.3 -9.8 -3.8 -6.95 -6.7 -4.05 -9.55 0.05 -9.55 4.15 -9.55 7.0 -6.7 Z" fill="none" stroke="#000000" stroke-linecap="round" stroke-linejoin="round" stroke-width="1.0"/>
  </g>
  <defs>
    <linearGradient gradientTransform="matrix(0.012, 0.0, 0.0, 0.012, 0.0, 0.3)" gradientUnits="userSpaceOnUse" id="gradient0" spreadMethod="pad" x1="-819.2" x2="819.2">
      <stop offset="0.0" stop-color="#fdde68"/>
      <stop offset="0.5098039215686274" stop-color="#aa7b11"/>
      <stop offset="0.5568627450980392" stop-color="#e9ab1f"/>
      <stop offset="1.0" stop-color="#f8d687"/>
    </linearGradient>
  </defs>
</svg>
