<?xml version="1.0" encoding="UTF-8" standalone="no"?>
<svg xmlns:ffdec="https://www.free-decompiler.com/flash" xmlns:xlink="http://www.w3.org/1999/xlink" ffdec:objectType="shape" height="203.45px" width="203.45px" xmlns="http://www.w3.org/2000/svg">
  <g transform="matrix(1.0, 0.0, 0.0, 1.0, 101.7, 101.7)">
    <path d="M78.55 -64.85 L78.5 -64.8 78.55 -64.8 -46.3 59.9 -46.75 59.45 -59.4 46.8 -59.8 46.35 64.95 -78.4 78.55 -64.85" fill="url(#gradient0)" fill-rule="evenodd" stroke="none"/>
    <path d="M78.55 -64.85 L64.95 -78.4 101.75 -101.7 78.55 -64.85" fill="url(#gradient1)" fill-rule="evenodd" stroke="none"/>
    <path d="M-59.4 46.8 L-46.75 59.45 -35.15 74.25 -34.7 74.2 Q-33.0 74.1 -31.8 75.25 -30.7 76.4 -30.7 78.2 -30.7 79.85 -31.85 81.0 -33.0 82.1 -34.7 82.2 -36.4 82.1 -37.55 81.0 -38.7 79.85 -38.7 78.2 L-38.7 78.15 -38.65 77.75 -54.55 65.6 -65.55 54.6 -77.7 38.75 -78.1 38.75 -78.15 38.75 Q-79.8 38.75 -80.95 37.6 -82.1 36.45 -82.2 34.7 -82.1 33.05 -80.95 31.95 -79.85 30.75 -78.2 30.7 -76.35 30.7 -75.2 31.85 -74.05 33.0 -74.15 34.75 L-74.15 35.2 -59.4 46.8" fill="url(#gradient2)" fill-rule="evenodd" stroke="none"/>
    <path d="M-83.3 89.0 L-82.7 90.7 -82.6 91.0 Q-82.45 91.85 -82.45 92.8 -82.45 96.45 -85.1 99.1 -87.75 101.75 -91.4 101.75 -95.1 101.75 -97.7 99.15 L-98.35 98.4 -99.1 97.75 Q-101.75 95.1 -101.7 91.45 -101.75 87.75 -99.15 85.1 -96.45 82.45 -92.75 82.5 L-90.95 82.65 Q-89.9 82.85 -88.95 83.35 -87.6 84.0 -86.45 85.1 L-85.8 85.85 -85.05 86.5 Q-83.95 87.6 -83.3 89.0" fill="url(#gradient3)" fill-rule="evenodd" stroke="none"/>
    <path d="M-54.55 65.6 L-81.95 90.45 -83.3 89.0 Q-83.95 87.6 -85.05 86.5 L-85.8 85.85 -86.45 85.1 Q-87.6 84.0 -88.95 83.35 -89.9 82.85 -90.95 82.65 L-65.55 54.6 -54.55 65.6" fill="url(#gradient4)" fill-rule="evenodd" stroke="none"/>
  </g>
  <defs>
    <linearGradient gradientTransform="matrix(0.0099, 0.0099, 0.0806, -0.0806, 12.15, -1.8)" gradientUnits="userSpaceOnUse" id="gradient0" spreadMethod="pad" x1="-819.2" x2="819.2">
      <stop offset="0.0" stop-color="#c8c8c8"/>
      <stop offset="0.1450980392156863" stop-color="#ffffff"/>
      <stop offset="0.27450980392156865" stop-color="#d1d1d1"/>
      <stop offset="1.0" stop-color="#3c3c3c"/>
    </linearGradient>
    <linearGradient gradientTransform="matrix(0.0099, 0.0099, 0.0806, -0.0806, 31.25, -20.9)" gradientUnits="userSpaceOnUse" id="gradient1" spreadMethod="pad" x1="-819.2" x2="819.2">
      <stop offset="0.0" stop-color="#c8c8c8"/>
      <stop offset="0.1450980392156863" stop-color="#ffffff"/>
      <stop offset="0.27450980392156865" stop-color="#d1d1d1"/>
      <stop offset="1.0" stop-color="#3c3c3c"/>
    </linearGradient>
    <radialGradient cx="0" cy="0" gradientTransform="matrix(0.0269, 0.0269, 0.0269, -0.0269, -53.3, 58.15)" gradientUnits="userSpaceOnUse" id="gradient2" r="819.2" spreadMethod="pad">
      <stop offset="0.0" stop-color="#fbfaf2"/>
      <stop offset="0.6980392156862745" stop-color="#bab3a3"/>
      <stop offset="1.0" stop-color="#bdb79f"/>
    </radialGradient>
    <radialGradient cx="0" cy="0" gradientTransform="matrix(0.0102, 0.0102, 0.0102, -0.0102, -93.5, 93.65)" gradientUnits="userSpaceOnUse" id="gradient3" r="819.2" spreadMethod="pad">
      <stop offset="0.0" stop-color="#fbfaf2"/>
      <stop offset="0.6980392156862745" stop-color="#bab3a3"/>
      <stop offset="1.0" stop-color="#bdb79f"/>
    </radialGradient>
    <linearGradient gradientTransform="matrix(0.0222, 0.0, 0.0, 0.0219, -72.75, 72.5)" gradientUnits="userSpaceOnUse" id="gradient4" spreadMethod="pad" x1="-819.2" x2="819.2">
      <stop offset="0.0" stop-color="#444444"/>
      <stop offset="1.0" stop-color="#000000"/>
      <stop offset="1.0" stop-color="#020202"/>
    </linearGradient>
  </defs>
</svg>
