<?xml version="1.0" encoding="UTF-8" standalone="no"?>
<svg xmlns:ffdec="https://www.free-decompiler.com/flash" xmlns:xlink="http://www.w3.org/1999/xlink" ffdec:objectType="shape" height="630.45px" width="380.15px" xmlns="http://www.w3.org/2000/svg">
  <g transform="matrix(1.0, 0.0, 0.0, 1.0, 230.15, 390.9)">
    <path d="M150.0 -50.65 Q150.0 28.1 94.35 83.75 38.7 139.4 -40.05 139.4 -118.8 139.4 -174.5 83.75 -230.15 28.1 -230.15 -50.65 -230.15 -129.4 -174.5 -185.05 -118.8 -240.7 -40.05 -240.7 38.7 -240.7 94.35 -185.05 150.0 -129.4 150.0 -50.65" fill="url(#gradient0)" fill-rule="evenodd" stroke="none"/>
    <path d="M-4.1 -256.15 L-33.15 -111.15 26.95 -281.9 -30.6 -107.85 45.35 -252.4 -28.5 -103.6 46.1 -198.85 34.6 -180.75 -26.8 -98.65 -8.8 -112.8 -16.5 -100.7 -25.65 -93.1 -20.05 -95.15 -42.5 -59.95 -56.45 -87.3 -56.0 -87.3 -56.55 -87.55 -60.35 -95.0 -55.35 -93.15 -62.45 -99.1 -67.7 -109.35 -54.2 -98.7 -79.85 -133.2 -88.0 -149.2 -52.5 -103.65 -150.9 -301.35 -50.35 -107.9 -107.7 -282.2 -47.85 -111.2 -76.7 -256.35 -45.0 -113.5 -57.15 -249.8 -42.0 -114.65 -40.35 -252.75 -38.95 -114.65 -23.65 -249.7 -36.0 -113.45 -4.1 -256.15" fill="url(#gradient1)" fill-rule="evenodd" stroke="none"/>
    <path d="M10.9 -22.1 L22.95 -7.9 -25.35 -46.05 120.25 130.05 -27.1 -41.4 67.5 119.45 -29.45 -37.7 47.0 145.05 -32.35 -34.85 23.05 162.6 -35.6 -33.15 -11.85 120.4 -39.1 -32.6 -31.25 171.55 -42.75 -33.15 -59.65 162.6 -46.35 -34.9 -87.35 145.0 -49.8 -37.7 -133.8 171.95 -52.95 -41.45 -123.05 66.8 -112.75 46.7 -55.7 -46.0 -74.1 -28.6 -67.25 -42.0 -58.0 -51.3 -64.05 -48.15 -44.05 -87.15 -23.5 -62.9 -24.05 -62.8 -23.35 -62.65 -17.7 -56.05 -23.75 -56.95 -14.65 -52.4 -6.95 -43.3 -24.2 -51.2 10.9 -22.1" fill="url(#gradient2)" fill-rule="evenodd" stroke="none"/>
  </g>
  <defs>
    <radialGradient cx="0" cy="0" gradientTransform="matrix(0.2345, 0.0, 0.0, 0.2345, -40.1, -50.65)" gradientUnits="userSpaceOnUse" id="gradient0" r="819.2" spreadMethod="pad">
      <stop offset="0.0" stop-color="#ffffff" stop-opacity="0.4"/>
      <stop offset="0.8549019607843137" stop-color="#ffffff" stop-opacity="0.0"/>
    </radialGradient>
    <radialGradient cx="0" cy="0" gradientTransform="matrix(0.1908, 0.0, 0.0, 0.3743, -40.5, -84.3)" gradientUnits="userSpaceOnUse" id="gradient1" r="819.2" spreadMethod="pad">
      <stop offset="0.0" stop-color="#ffffff" stop-opacity="0.2"/>
      <stop offset="1.0" stop-color="#ffffff" stop-opacity="0.0"/>
    </radialGradient>
    <radialGradient cx="0" cy="0" gradientTransform="matrix(-0.2193, 0.0366, -0.0616, -0.3691, -42.35, -62.8)" gradientUnits="userSpaceOnUse" id="gradient2" r="819.2" spreadMethod="pad">
      <stop offset="0.0" stop-color="#ffffff" stop-opacity="0.8"/>
      <stop offset="1.0" stop-color="#ffffff" stop-opacity="0.0"/>
    </radialGradient>
  </defs>
</svg>
