<?xml version="1.0" encoding="UTF-8" standalone="no"?>
<svg xmlns:ffdec="https://www.free-decompiler.com/flash" xmlns:xlink="http://www.w3.org/1999/xlink" ffdec:objectType="shape" height="590.7px" width="380.15px" xmlns="http://www.w3.org/2000/svg">
  <g transform="matrix(1.0, 0.0, 0.0, 1.0, 370.15, 316.8)">
    <path d="M-45.65 -146.9 Q10.0 -91.25 10.0 -12.5 10.0 66.25 -45.65 121.9 -101.3 177.55 -180.05 177.55 -258.8 177.55 -314.5 121.9 -370.15 66.25 -370.15 -12.5 -370.15 -91.25 -314.5 -146.9 -258.8 -202.55 -180.05 -202.55 -101.3 -202.55 -45.65 -146.9" fill="url(#gradient0)" fill-rule="evenodd" stroke="none"/>
    <path d="M-155.55 -202.2 L-184.15 -40.5 -115.9 -214.8 -181.4 -36.1 -89.1 -167.1 -178.9 -31.05 -163.85 -42.05 -190.95 -7.5 -206.4 -23.9 -205.9 -23.85 -206.75 -24.2 -215.95 -33.95 Q-211.15 -31.8 -206.3 -29.5 L-232.5 -51.5 -249.8 -69.8 -206.05 -34.7 -311.6 -160.8 -205.2 -39.3 -302.45 -193.7 -203.75 -43.1 -267.55 -176.3 -201.8 -46.05 -248.1 -174.7 -199.35 -47.85 -233.65 -181.65 -196.6 -48.6 -217.6 -182.8 -193.55 -48.2 -201.5 -193.8 -190.35 -46.6 -179.9 -226.2 -187.2 -44.1 -155.55 -202.2" fill="url(#gradient1)" fill-rule="evenodd" stroke="none"/>
    <path d="M-210.8 -2.55 L-202.75 -12.6 -208.3 -8.95 -192.9 -49.55 -170.55 -27.2 -171.05 -27.1 -170.35 -27.0 -164.25 -20.9 -170.2 -21.25 -160.95 -17.6 -152.55 -9.2 -170.05 -15.5 -133.1 10.3 -120.05 23.35 -170.6 -10.25 -11.95 151.85 -171.85 -5.55 -64.05 146.05 -173.75 -1.6 -81.35 173.3 -176.25 1.45 -121.45 145.35 -179.2 3.45 -140.75 154.05 -182.55 4.35 -161.85 156.1 -186.15 4.0 -182.75 200.2 -189.85 2.65 -211.3 185.15 -193.45 0.2 -253.6 216.15 -196.9 -3.3 -253.8 110.55 -245.85 89.75 -200.0 -7.55 -216.05 11.4 -210.8 -2.55" fill="url(#gradient2)" fill-rule="evenodd" stroke="none"/>
  </g>
  <defs>
    <radialGradient cx="0" cy="0" gradientTransform="matrix(0.2345, 0.0, 0.0, 0.2345, -180.1, -12.5)" gradientUnits="userSpaceOnUse" id="gradient0" r="819.2" spreadMethod="pad">
      <stop offset="0.0" stop-color="#ffffff" stop-opacity="0.4"/>
      <stop offset="0.8549019607843137" stop-color="#ffffff" stop-opacity="0.0"/>
    </radialGradient>
    <radialGradient cx="0" cy="0" gradientTransform="matrix(0.1734, -0.0465, 0.0969, 0.3616, -190.1, -18.9)" gradientUnits="userSpaceOnUse" id="gradient1" r="819.2" spreadMethod="pad">
      <stop offset="0.0" stop-color="#ffffff" stop-opacity="0.2"/>
      <stop offset="1.0" stop-color="#ffffff" stop-opacity="0.0"/>
    </radialGradient>
    <radialGradient cx="0" cy="0" gradientTransform="matrix(-0.2085, 0.0559, -0.0969, -0.3616, -188.75, -25.45)" gradientUnits="userSpaceOnUse" id="gradient2" r="819.2" spreadMethod="pad">
      <stop offset="0.0" stop-color="#ffffff" stop-opacity="0.8"/>
      <stop offset="1.0" stop-color="#ffffff" stop-opacity="0.0"/>
    </radialGradient>
  </defs>
</svg>
