<?xml version="1.0" encoding="UTF-8" standalone="no"?>
<svg xmlns:ffdec="https://www.free-decompiler.com/flash" xmlns:xlink="http://www.w3.org/1999/xlink" ffdec:objectType="shape" height="613.2px" width="613.2px" xmlns="http://www.w3.org/2000/svg">
  <g transform="matrix(1.0, 0.0, 0.0, 1.0, 306.6, 306.6)">
    <path d="M134.45 -134.4 Q190.1 -78.75 190.1 0.0 190.1 78.75 134.45 134.4 78.8 190.05 0.05 190.05 -78.7 190.05 -134.4 134.4 -190.05 78.75 -190.05 0.0 -190.05 -78.75 -134.4 -134.4 -78.7 -190.05 0.05 -190.05 78.8 -190.05 134.45 -134.4" fill="url(#gradient0)" fill-rule="evenodd" stroke="none"/>
    <path d="M3.05 -30.35 L60.15 -300.65 8.9 -29.15 117.65 -283.1 14.45 -26.85 170.65 -254.7 19.4 -23.55 217.05 -216.55 23.6 -19.3 255.1 -170.0 26.9 -14.35 283.4 -117.0 29.2 -8.8 300.8 -59.45 30.35 -2.95 306.6 0.4 30.35 3.05 300.65 60.2 29.15 8.9 283.1 117.65 26.85 14.45 254.7 170.65 23.55 19.4 216.55 217.05 19.35 23.65 170.05 255.15 14.4 26.95 117.0 283.4 8.85 29.25 59.45 300.8 3.0 30.4 -0.35 306.6 -3.0 30.4 -60.15 300.65 -8.85 29.2 -117.65 283.1 -14.4 26.9 -170.65 254.7 -19.35 23.6 -217.05 216.55 -23.6 19.35 -255.1 170.05 -26.9 14.4 -283.4 117.0 Q-156.3 62.95 -29.2 8.85 L-300.8 59.5 -30.35 3.0 -306.6 -0.35 -30.35 -3.0 -300.65 -60.15 -29.15 -8.85 -283.1 -117.65 -26.85 -14.4 -254.7 -170.65 -23.55 -19.35 -216.55 -217.05 -19.3 -23.6 -170.0 -255.1 -14.35 -26.9 -117.0 -283.4 -8.8 -29.2 -59.45 -300.8 -2.95 -30.35 0.4 -306.6 3.05 -30.35" fill="url(#gradient1)" fill-rule="evenodd" stroke="none"/>
  </g>
  <defs>
    <radialGradient cx="0" cy="0" gradientTransform="matrix(0.2345, 0.0, 0.0, 0.2345, 0.0, 0.0)" gradientUnits="userSpaceOnUse" id="gradient0" r="819.2" spreadMethod="pad">
      <stop offset="0.0" stop-color="#ffffff" stop-opacity="0.4"/>
      <stop offset="0.8549019607843137" stop-color="#ffffff" stop-opacity="0.0"/>
    </radialGradient>
    <radialGradient cx="0" cy="0" gradientTransform="matrix(0.3743, 0.0, 0.0, 0.3743, 0.0, 0.0)" gradientUnits="userSpaceOnUse" id="gradient1" r="819.2" spreadMethod="pad">
      <stop offset="0.0" stop-color="#ffffff" stop-opacity="0.2"/>
      <stop offset="1.0" stop-color="#ffffff" stop-opacity="0.0"/>
    </radialGradient>
  </defs>
</svg>
