<?xml version="1.0" encoding="UTF-8" standalone="no"?>
<svg xmlns:ffdec="https://www.free-decompiler.com/flash" xmlns:xlink="http://www.w3.org/1999/xlink" ffdec:objectType="shape" height="23.45px" width="14.0px" xmlns="http://www.w3.org/2000/svg">
  <g transform="matrix(1.0, 0.0, 0.0, 1.0, 7.05, 17.1)">
    <path d="M6.95 -10.65 Q6.95 -7.65 4.25 -5.35 L-0.5 -1.9 Q-2.95 0.3 -2.95 2.85 L6.75 2.85 6.75 6.35 -6.65 6.35 -6.75 4.5 Q-6.75 -0.25 -4.05 -3.35 -3.1 -4.5 0.8 -7.25 3.25 -9.0 3.25 -10.65 3.25 -13.6 0.1 -13.6 -2.9 -13.6 -4.75 -10.9 L-7.05 -13.05 Q-5.7 -15.4 -2.85 -16.45 L0.1 -17.1 Q3.0 -17.1 4.9 -15.4 6.95 -13.65 6.95 -10.65" fill="url(#gradient0)" fill-rule="evenodd" stroke="none"/>
  </g>
  <defs>
    <linearGradient gradientTransform="matrix(0.0, 0.0147, -0.134, 0.0, 84.95, -5.1)" gradientUnits="userSpaceOnUse" id="gradient0" spreadMethod="pad" x1="-819.2" x2="819.2">
      <stop offset="0.0" stop-color="#ffffff" stop-opacity="0.0"/>
      <stop offset="1.0" stop-color="#ffffff" stop-opacity="0.49019608"/>
    </linearGradient>
  </defs>
</svg>
