<?xml version="1.0" encoding="UTF-8" standalone="no"?>
<svg xmlns:ffdec="https://www.free-decompiler.com/flash" xmlns:xlink="http://www.w3.org/1999/xlink" ffdec:objectType="shape" height="183.35px" width="154.3px" xmlns="http://www.w3.org/2000/svg">
  <g transform="matrix(1.0, 0.0, 0.0, 1.0, 77.15, 91.65)">
    <path d="M-28.65 56.9 Q-38.2 47.5 -45.2 36.0 -61.15 9.75 -63.75 -27.55 L-62.85 -29.15 Q-55.5 -33.1 -48.8 -37.0 -37.4 -43.65 -27.9 -50.25 L-27.85 -50.3 Q-10.9 -62.15 0.0 -73.95 10.9 -62.35 27.95 -50.55 L28.1 -50.5 Q37.8 -43.75 49.55 -37.0 55.9 -33.35 62.8 -29.65 L63.65 -28.05 Q61.0 9.55 44.85 36.0 37.9 47.3 28.55 56.6 L27.65 55.65 28.45 56.7 Q16.2 68.75 -0.2 77.4 -16.45 68.9 -28.55 57.05 L-27.5 55.65 -28.65 56.9" fill="url(#gradient0)" fill-rule="evenodd" stroke="none"/>
    <path d="M28.55 56.6 Q37.9 47.3 44.85 36.0 61.0 9.55 63.65 -28.05 L62.8 -29.65 Q55.9 -33.35 49.55 -37.0 37.8 -43.75 28.1 -50.5 L27.95 -50.55 Q10.9 -62.35 0.0 -73.95 -10.9 -62.15 -27.85 -50.3 L-27.9 -50.25 Q-37.4 -43.65 -48.8 -37.0 -55.5 -33.1 -62.85 -29.15 L-63.75 -27.55 Q-61.15 9.75 -45.2 36.0 -38.2 47.5 -28.65 56.9 L-28.55 57.05 Q-16.45 68.9 -0.2 77.4 16.2 68.75 28.45 56.7 L28.55 56.6 M76.1 -37.9 L77.15 -35.95 Q74.25 5.65 57.6 36.0 38.1 71.55 -0.2 91.7 -38.5 71.65 -57.9 36.0 -74.3 5.85 -77.15 -35.45 L-76.1 -37.4 Q-24.95 -64.6 0.0 -91.65 24.9 -65.1 76.1 -37.9" fill="url(#gradient1)" fill-rule="evenodd" stroke="none"/>
    <path d="M-27.55 55.65 L-28.7 56.9 Q-38.25 47.5 -45.25 36.0 L44.8 36.0 Q37.85 47.3 28.5 56.6 L27.6 55.65 28.4 56.7 Q16.15 68.75 -0.25 77.4 -16.5 68.9 -28.6 57.05 L-27.55 55.65 M27.9 -50.55 L28.05 -50.5 Q37.75 -43.75 49.5 -37.0 L-48.85 -37.0 Q-37.45 -43.65 -27.95 -50.25 L-27.9 -50.3 Q-10.95 -62.15 -0.05 -73.95 10.85 -62.35 27.9 -50.55" fill="#000000" fill-opacity="0.101960786" fill-rule="evenodd" stroke="none"/>
    <path d="M30.45 -27.1 Q32.8 -24.1 32.5 -19.9 L31.65 -9.2 Q31.25 -5.3 28.55 -2.55 25.85 0.1 22.4 0.15 18.85 0.1 16.5 -2.55 14.1 -5.3 14.25 -9.2 L14.65 -19.9 Q14.8 -24.1 17.55 -27.1 20.4 -30.25 24.2 -30.25 27.95 -30.25 30.45 -27.1 M11.65 -30.1 L10.75 0.15 6.9 0.15 7.3 -20.75 -0.35 -4.75 Q-2.65 -8.85 -8.1 -20.75 L-7.7 0.15 -11.6 0.15 -12.5 -30.05 -12.45 -30.1 -8.3 -30.1 -0.45 -12.85 7.45 -30.05 11.65 -30.1 M19.35 -5.45 Q20.65 -3.9 22.65 -3.9 24.55 -3.9 26.1 -5.45 27.6 -7.0 27.8 -9.2 L28.55 -19.9 Q28.75 -22.25 27.4 -23.85 25.95 -25.6 23.95 -25.55 21.85 -25.6 20.3 -23.85 18.7 -22.25 18.6 -19.9 L18.1 -9.2 Q18.0 -7.0 19.35 -5.45 M28.75 7.15 L27.05 7.15 Q23.35 7.15 21.9 7.75 19.25 8.8 19.1 12.05 L18.9 15.4 24.35 15.4 24.1 18.65 18.75 18.65 18.65 19.9 Q18.55 22.15 19.55 23.6 20.6 25.15 22.85 25.15 L27.35 25.15 27.05 28.75 22.6 28.7 Q19.4 28.7 17.15 26.4 14.9 24.0 15.05 20.6 L15.4 12.05 Q15.55 8.45 18.2 5.8 20.85 3.1 24.3 3.15 L29.05 3.15 28.75 7.15 M44.6 5.0 Q46.3 6.7 46.55 9.3 L42.8 9.3 Q42.15 7.0 39.95 7.05 L37.75 7.05 Q36.3 7.0 35.25 8.2 34.15 9.3 34.0 10.85 33.85 12.1 34.55 13.4 35.3 14.6 36.4 14.6 L39.6 14.6 Q41.8 14.6 43.45 16.45 45.5 18.55 45.1 21.8 44.7 24.65 42.5 26.75 40.35 28.75 37.6 28.75 L35.55 28.75 Q33.2 28.75 31.55 27.2 29.8 25.65 29.55 23.25 L33.1 23.25 Q33.25 24.0 34.1 24.75 34.85 25.35 35.75 25.35 L38.1 25.35 Q39.35 25.3 40.45 24.25 41.5 23.1 41.7 21.8 41.8 20.6 41.1 19.5 40.3 18.2 39.25 18.2 L36.0 18.2 Q33.4 17.95 31.8 15.85 30.2 13.7 30.45 10.85 30.7 7.8 32.95 5.55 35.2 3.2 38.15 3.2 L40.35 3.2 Q42.8 3.2 44.6 5.0 M45.6 -25.15 L40.5 -25.15 39.35 -13.95 44.5 -13.95 Q46.6 -14.0 48.25 -15.75 49.7 -17.5 50.05 -19.95 50.35 -22.2 48.95 -23.65 47.55 -25.2 45.6 -25.15 M46.1 -29.9 Q49.95 -29.9 52.3 -26.75 54.5 -23.7 54.0 -19.4 53.3 -14.85 50.4 -12.3 52.95 -12.15 52.35 -7.4 L51.35 0.15 47.55 0.15 48.5 -7.3 Q48.8 -10.15 46.7 -10.15 L39.0 -10.15 37.95 0.15 34.15 0.15 36.9 -29.95 46.1 -29.9 M1.0 24.6 L-6.1 10.85 -5.85 28.75 -9.4 28.75 -10.05 2.9 -6.25 2.9 0.95 17.6 8.2 2.95 12.1 2.9 11.25 28.75 7.65 28.75 8.05 10.85 1.0 24.6 M-15.4 5.9 Q-12.9 8.5 -12.75 12.1 L-12.2 28.75 -15.7 28.75 -16.1 19.95 -25.05 19.95 -24.45 28.75 -27.95 28.75 -29.25 12.1 Q-29.55 8.5 -27.25 5.9 -25.0 3.2 -21.5 3.2 -18.0 3.2 -15.4 5.9 M-16.2 16.75 L-16.4 12.1 Q-16.5 10.1 -17.9 8.65 -19.35 7.15 -21.25 7.2 -23.2 7.15 -24.45 8.65 -25.75 10.1 -25.55 12.1 L-25.25 16.75 -16.2 16.75 M-34.15 -29.95 L-24.9 -29.9 Q-21.15 -29.9 -18.25 -26.75 -15.45 -23.7 -15.3 -19.4 -15.15 -14.85 -17.6 -12.3 -15.05 -12.15 -14.85 -7.4 L-14.55 0.15 -18.3 0.15 -18.65 -7.3 Q-18.85 -10.15 -20.95 -10.15 L-28.65 -10.15 -27.9 0.15 -31.7 0.15 -34.15 -29.95 M-24.65 -25.15 L-29.7 -25.15 -28.9 -13.95 -23.8 -13.95 Q-21.7 -14.0 -20.35 -15.75 -19.2 -17.5 -19.25 -19.95 -19.45 -22.2 -21.05 -23.65 -22.75 -25.2 -24.65 -25.15 M-54.9 -19.35 Q-55.55 -23.6 -53.25 -26.6 -51.0 -29.8 -47.15 -29.75 -43.4 -29.8 -40.4 -26.6 -37.45 -23.6 -37.05 -19.35 L-35.25 0.15 -39.0 0.15 -40.05 -10.15 -49.8 -10.15 -48.5 0.15 -52.25 0.15 -54.9 -19.35 M-50.0 -23.35 Q-51.25 -21.7 -50.95 -19.35 L-50.3 -13.9 -40.45 -13.9 -41.0 -19.35 Q-41.3 -21.7 -42.9 -23.35 -44.6 -25.15 -46.6 -25.05 -48.75 -25.15 -50.0 -23.35 M-40.3 6.85 Q-42.25 6.8 -43.4 8.25 -44.55 9.7 -44.3 11.7 L-43.25 20.8 Q-43.05 22.6 -41.6 23.95 -40.15 25.25 -38.35 25.25 -36.3 25.25 -35.3 23.85 -34.25 22.45 -34.4 20.3 L-38.25 20.3 -38.6 17.1 -31.15 17.1 -30.85 20.8 Q-30.6 24.05 -32.7 26.45 -34.8 28.75 -38.0 28.75 -41.2 28.75 -43.8 26.45 -46.4 24.05 -46.8 20.8 L-47.95 11.7 Q-48.45 8.05 -46.35 5.45 -44.2 2.85 -40.7 2.85 -37.3 2.85 -34.6 5.45 -31.95 8.05 -31.6 11.7 L-35.2 11.7 Q-35.45 9.7 -36.95 8.25 -38.4 6.8 -40.3 6.85" fill="#333333" fill-rule="evenodd" stroke="none"/>
  </g>
  <defs>
    <radialGradient cx="0" cy="0" gradientTransform="matrix(0.0696, 0.0, 0.0, 0.0749, 6.6, 28.5)" gradientUnits="userSpaceOnUse" id="gradient0" r="819.2" spreadMethod="pad">
      <stop offset="0.0" stop-color="#fbfaf2"/>
      <stop offset="0.6980392156862745" stop-color="#bab3a3"/>
      <stop offset="1.0" stop-color="#bdb79f"/>
    </radialGradient>
    <linearGradient gradientTransform="matrix(0.001, 0.073, -0.1037, 0.0016, 13.6, 9.5)" gradientUnits="userSpaceOnUse" id="gradient1" spreadMethod="pad" x1="-819.2" x2="819.2">
      <stop offset="0.0" stop-color="#c8c8c8"/>
      <stop offset="0.1450980392156863" stop-color="#ffffff"/>
      <stop offset="0.27450980392156865" stop-color="#d1d1d1"/>
      <stop offset="1.0" stop-color="#3c3c3c"/>
    </linearGradient>
  </defs>
</svg>
