<?xml version="1.0" encoding="UTF-8" standalone="no"?>
<svg xmlns:ffdec="https://www.free-decompiler.com/flash" xmlns:xlink="http://www.w3.org/1999/xlink" ffdec:objectType="shape" height="22.6px" width="299.6px" xmlns="http://www.w3.org/2000/svg">
  <g transform="matrix(1.0, 0.0, 0.0, 1.0, 149.0, 149.8)">
    <path d="M129.35 -149.8 L129.35 -143.7 Q129.7 -144.15 130.55 -144.5 L132.25 -144.9 Q134.85 -144.9 136.45 -143.1 138.05 -141.3 138.05 -138.6 138.05 -135.45 136.45 -133.65 134.85 -131.85 132.1 -131.85 L130.35 -132.2 Q129.5 -132.55 129.05 -133.0 L128.25 -131.85 127.15 -131.85 127.15 -149.8 129.35 -149.8 M116.7 -149.8 L116.7 -132.1 114.5 -132.1 114.5 -133.05 Q113.35 -131.9 111.1 -131.9 108.75 -131.9 107.3 -133.55 105.85 -135.25 105.85 -138.05 105.85 -140.9 107.5 -142.9 109.2 -144.9 111.55 -144.9 113.5 -144.9 114.5 -143.95 L114.5 -149.8 116.7 -149.8 M112.2 -143.0 Q110.4 -143.0 109.3 -141.65 108.15 -140.35 108.15 -138.3 108.15 -133.75 112.3 -133.75 L113.55 -134.05 114.5 -134.8 114.5 -141.75 Q113.65 -143.0 112.2 -143.0 M104.0 -138.15 L94.95 -138.15 Q94.95 -135.95 96.15 -134.75 97.25 -133.75 98.9 -133.75 100.8 -133.75 102.1 -134.85 L103.05 -133.25 Q102.5 -132.75 101.45 -132.35 100.1 -131.85 98.45 -131.85 96.1 -131.85 94.45 -133.45 92.6 -135.25 92.6 -138.25 92.6 -141.35 94.5 -143.2 96.2 -144.9 98.5 -144.9 101.2 -144.9 102.7 -143.35 104.2 -141.9 104.2 -139.5 L104.0 -138.15 M96.1 -142.05 Q95.15 -141.15 95.0 -139.8 L101.95 -139.8 Q101.95 -141.1 101.1 -142.05 100.2 -143.0 98.6 -143.0 97.1 -143.0 96.1 -142.05 M82.55 -141.45 L82.55 -132.1 80.35 -132.1 80.35 -149.8 82.55 -149.8 82.55 -143.25 Q83.0 -143.95 84.0 -144.4 85.0 -144.9 86.05 -144.9 88.05 -144.9 89.15 -143.55 90.3 -142.25 90.3 -140.0 L90.3 -132.1 88.05 -132.1 88.05 -140.0 Q88.05 -141.4 87.4 -142.2 86.7 -143.0 85.45 -143.0 L83.8 -142.55 82.55 -141.45 M145.3 -129.95 Q144.85 -128.75 143.45 -127.95 142.05 -127.2 140.35 -127.2 L140.35 -129.15 Q141.75 -129.15 142.75 -129.8 143.75 -130.45 143.75 -131.4 L143.4 -133.45 139.05 -144.65 141.3 -144.65 145.0 -134.95 148.3 -144.65 150.6 -144.65 145.3 -129.95 M134.55 -141.8 Q133.4 -143.0 131.45 -143.0 L130.3 -142.65 129.35 -142.05 129.35 -134.8 Q129.35 -134.6 130.2 -134.15 L131.45 -133.75 Q133.75 -133.75 134.7 -134.85 135.7 -135.9 135.7 -138.5 135.7 -140.6 134.55 -141.8 M67.05 -149.0 Q67.45 -148.6 67.45 -148.05 67.45 -147.45 67.05 -147.05 L66.9 -146.9 66.1 -146.65 Q65.65 -146.65 65.3 -146.9 L65.1 -147.05 Q64.7 -147.45 64.7 -148.05 64.7 -148.6 65.1 -149.0 65.5 -149.4 66.1 -149.4 L67.05 -149.0 M45.55 -149.8 L45.55 -143.7 Q45.9 -144.15 46.75 -144.5 L48.45 -144.9 Q51.05 -144.9 52.65 -143.1 54.25 -141.3 54.25 -138.6 54.25 -135.45 52.65 -133.65 51.05 -131.85 48.3 -131.85 L46.55 -132.2 45.25 -133.0 44.45 -131.85 43.35 -131.85 43.35 -149.8 45.55 -149.8 M59.1 -149.8 L59.1 -136.05 Q59.1 -135.0 59.65 -134.45 60.25 -133.85 61.2 -133.85 L61.2 -131.85 Q56.85 -131.85 56.85 -135.65 L56.85 -149.8 59.1 -149.8 M20.2 -149.4 Q25.5 -149.4 27.05 -146.9 27.7 -145.85 27.7 -144.4 27.7 -138.6 21.1 -138.6 L19.35 -138.7 19.35 -132.1 17.0 -132.1 17.0 -149.25 20.2 -149.4 M6.4 -149.8 L6.4 -132.1 4.2 -132.1 4.2 -133.05 Q3.05 -131.9 0.8 -131.9 -1.55 -131.9 -3.0 -133.55 -4.45 -135.25 -4.45 -138.05 -4.45 -140.9 -2.8 -142.9 -1.1 -144.9 1.25 -144.9 3.2 -144.9 4.2 -143.95 L4.2 -149.8 6.4 -149.8 M40.3 -144.65 L40.3 -132.1 38.1 -132.1 38.1 -133.85 Q37.7 -133.1 36.6 -132.45 35.45 -131.85 34.35 -131.85 32.3 -131.85 31.2 -133.05 30.1 -134.25 30.1 -136.4 L30.1 -144.65 32.35 -144.65 32.35 -136.65 Q32.35 -133.75 34.85 -133.75 35.95 -133.75 36.9 -134.35 37.8 -135.0 38.1 -135.85 L38.1 -144.65 40.3 -144.65 M25.3 -144.15 Q25.3 -146.2 23.4 -146.9 L20.65 -147.3 19.35 -147.15 19.35 -140.8 20.9 -140.7 Q25.3 -140.7 25.3 -144.15 M1.9 -143.0 Q0.1 -143.0 -1.0 -141.65 -2.15 -140.35 -2.15 -138.3 -2.15 -133.75 2.0 -133.75 L3.25 -134.05 Q4.0 -134.4 4.2 -134.8 L4.2 -141.75 Q3.35 -143.0 1.9 -143.0 M73.95 -144.9 Q75.35 -144.9 77.4 -144.0 L76.8 -141.95 Q75.45 -143.0 74.1 -143.0 73.35 -143.0 72.8 -142.65 72.25 -142.25 72.25 -141.7 72.25 -140.5 73.6 -139.85 L75.2 -139.15 Q76.65 -138.45 77.35 -137.6 78.0 -136.75 78.0 -135.45 78.0 -133.8 76.8 -132.8 75.65 -131.85 73.55 -131.85 71.55 -131.85 69.8 -132.85 L70.6 -134.95 Q72.45 -133.75 73.6 -133.75 75.65 -133.75 75.65 -135.45 75.65 -136.7 73.65 -137.6 L71.6 -138.65 70.7 -139.5 70.1 -140.5 69.9 -141.6 Q69.9 -143.15 71.0 -144.0 72.15 -144.9 73.95 -144.9 M63.15 -144.65 L67.1 -144.65 67.1 -132.1 64.85 -132.1 64.85 -142.8 63.15 -142.8 63.15 -144.65 M50.75 -141.8 Q49.6 -143.0 47.65 -143.0 L46.5 -142.65 45.55 -142.05 45.55 -134.8 Q45.55 -134.6 46.4 -134.15 47.2 -133.75 47.65 -133.75 49.95 -133.75 50.9 -134.85 51.9 -135.9 51.9 -138.5 51.9 -140.6 50.75 -141.8 M-42.1 -143.95 L-42.1 -149.8 -39.9 -149.8 -39.9 -132.1 -42.1 -132.1 -42.1 -133.05 Q-43.25 -131.9 -45.5 -131.9 -47.85 -131.9 -49.3 -133.55 -50.75 -135.25 -50.75 -138.05 -50.75 -140.9 -49.1 -142.9 -47.4 -144.9 -45.05 -144.9 -43.1 -144.9 -42.1 -143.95 M-47.3 -141.65 Q-48.45 -140.35 -48.45 -138.3 -48.45 -133.75 -44.3 -133.75 -43.75 -133.75 -43.05 -134.05 -42.3 -134.4 -42.1 -134.8 L-42.1 -141.75 Q-42.95 -143.0 -44.4 -143.0 -46.2 -143.0 -47.3 -141.65 M-55.5 -142.05 Q-56.4 -143.0 -58.0 -143.0 -59.5 -143.0 -60.5 -142.05 -61.45 -141.15 -61.6 -139.8 L-54.65 -139.8 Q-54.65 -141.1 -55.5 -142.05 M-53.9 -143.35 Q-52.4 -141.9 -52.4 -139.5 L-52.6 -138.15 -61.65 -138.15 Q-61.65 -135.95 -60.45 -134.75 -59.35 -133.75 -57.7 -133.75 -55.8 -133.75 -54.5 -134.85 L-53.55 -133.25 Q-54.1 -132.75 -55.15 -132.35 -56.5 -131.85 -58.15 -131.85 -60.5 -131.85 -62.15 -133.45 -64.0 -135.25 -64.0 -138.25 -64.0 -141.35 -62.1 -143.2 -60.4 -144.9 -58.1 -144.9 -55.4 -144.9 -53.9 -143.35 M-68.9 -141.9 Q-69.9 -143.0 -72.05 -143.0 L-73.2 -142.7 -74.3 -141.95 -74.3 -134.65 Q-74.1 -134.3 -73.4 -134.0 L-72.1 -133.75 Q-67.95 -133.75 -67.95 -138.45 -67.95 -140.8 -68.9 -141.9 M-65.6 -138.35 Q-65.6 -135.5 -67.1 -133.65 -68.6 -131.85 -71.4 -131.85 L-73.1 -132.15 Q-74.05 -132.45 -74.3 -132.8 L-74.3 -127.2 -76.5 -127.2 -76.5 -144.65 -74.3 -144.65 -74.3 -143.6 Q-73.05 -144.9 -71.25 -144.9 -68.55 -144.9 -67.05 -143.2 -65.6 -141.55 -65.6 -138.35 M-78.9 -138.4 Q-78.9 -135.35 -80.4 -133.6 -81.95 -131.85 -84.55 -131.85 -87.25 -131.85 -88.75 -133.65 -90.25 -135.4 -90.25 -138.4 -90.25 -141.3 -88.65 -143.1 -87.1 -144.9 -84.55 -144.9 -81.85 -144.9 -80.35 -143.15 -78.9 -141.45 -78.9 -138.4 M-9.75 -142.2 Q-10.35 -143.0 -11.75 -143.0 -12.55 -143.0 -13.35 -142.55 L-14.65 -141.45 -14.65 -132.1 -16.85 -132.1 -16.85 -144.65 -15.35 -144.65 -14.65 -143.05 Q-13.55 -144.9 -11.05 -144.9 -6.9 -144.9 -6.9 -139.85 L-6.9 -132.1 -9.15 -132.1 -9.15 -139.4 Q-9.15 -141.4 -9.75 -142.2 M-19.4 -131.9 L-21.4 -132.25 Q-22.1 -132.65 -22.4 -133.55 -23.7 -131.85 -26.45 -131.85 -27.95 -131.85 -29.0 -132.95 -30.1 -134.0 -30.1 -135.6 -30.1 -137.5 -28.45 -138.85 -26.75 -140.15 -24.2 -140.15 L-22.6 -139.85 Q-22.6 -142.9 -25.3 -142.9 -27.4 -142.9 -28.5 -141.75 L-29.45 -143.65 -27.7 -144.5 -25.55 -144.9 Q-22.85 -144.9 -21.6 -143.65 -20.35 -142.4 -20.35 -139.7 L-20.35 -135.2 Q-20.35 -133.55 -19.4 -133.0 L-19.4 -131.9 M-24.05 -138.5 Q-25.75 -138.5 -26.8 -137.65 -27.9 -136.75 -27.9 -135.6 -27.9 -133.6 -25.6 -133.6 -23.9 -133.6 -22.6 -135.25 L-22.6 -138.25 -24.05 -138.5 M-94.1 -149.8 L-94.1 -136.05 Q-94.1 -135.0 -93.55 -134.45 -92.95 -133.85 -92.0 -133.85 L-92.0 -131.85 Q-96.35 -131.85 -96.35 -135.65 L-96.35 -149.8 -94.1 -149.8 M-144.75 -149.4 Q-141.15 -149.4 -139.05 -147.2 L-138.75 -146.9 Q-136.95 -144.75 -136.95 -141.4 -136.95 -132.1 -145.55 -132.1 L-149.0 -132.1 -149.0 -149.25 -144.75 -149.4 M-129.3 -143.0 Q-130.8 -143.0 -131.8 -142.05 -132.75 -141.15 -132.9 -139.8 L-125.95 -139.8 Q-125.95 -141.1 -126.8 -142.05 -127.7 -143.0 -129.3 -143.0 M-123.9 -138.15 L-132.95 -138.15 Q-132.95 -135.95 -131.75 -134.75 -130.65 -133.75 -129.0 -133.75 -127.1 -133.75 -125.8 -134.85 L-124.85 -133.25 Q-125.4 -132.75 -126.45 -132.35 -127.8 -131.85 -129.45 -131.85 -131.8 -131.85 -133.45 -133.45 -135.3 -135.25 -135.3 -138.25 -135.3 -141.35 -133.4 -143.2 -131.7 -144.9 -129.4 -144.9 -126.7 -144.9 -125.2 -143.35 -123.7 -141.9 -123.7 -139.5 L-123.9 -138.15 M-139.45 -141.2 Q-139.45 -145.75 -142.45 -146.9 L-144.9 -147.3 -146.65 -147.15 -146.65 -134.35 -144.7 -134.2 Q-142.25 -134.2 -140.85 -136.05 -139.45 -137.9 -139.45 -141.2 M-87.0 -141.85 Q-87.9 -140.6 -87.9 -138.4 -87.9 -133.7 -84.55 -133.7 -83.0 -133.7 -82.1 -134.95 -81.25 -136.2 -81.25 -138.4 -81.25 -143.05 -84.55 -143.05 -86.1 -143.05 -87.0 -141.85 M-99.05 -138.15 L-108.1 -138.15 Q-108.1 -135.95 -106.9 -134.75 -105.8 -133.75 -104.15 -133.75 -102.25 -133.75 -100.95 -134.85 L-100.0 -133.25 -101.6 -132.35 Q-102.95 -131.85 -104.6 -131.85 -106.95 -131.85 -108.6 -133.45 -110.45 -135.25 -110.45 -138.25 -110.45 -141.35 -108.55 -143.2 -106.85 -144.9 -104.55 -144.9 -101.85 -144.9 -100.35 -143.35 -98.85 -141.9 -98.85 -139.5 L-99.05 -138.15 M-106.95 -142.05 Q-107.9 -141.15 -108.05 -139.8 L-101.1 -139.8 Q-101.1 -141.1 -101.95 -142.05 -102.85 -143.0 -104.45 -143.0 -105.95 -143.0 -106.95 -142.05 M-117.45 -131.85 L-122.8 -144.7 -120.35 -144.7 -117.05 -135.9 -113.65 -144.7 -111.35 -144.7 -116.85 -131.85 -117.45 -131.85" fill="#ffffff" fill-rule="evenodd" stroke="none"/>
  </g>
</svg>
