<?xml version="1.0" encoding="UTF-8" standalone="no"?>
<svg xmlns:ffdec="https://www.free-decompiler.com/flash" xmlns:xlink="http://www.w3.org/1999/xlink" ffdec:objectType="shape" height="640.4px" width="856.6px" xmlns="http://www.w3.org/2000/svg">
  <g transform="matrix(1.0, 0.0, 0.0, 1.0, 30.5, 37.9)">
    <path d="M802.85 -6.15 L802.85 578.15 -6.55 578.15 -6.55 -6.15 802.85 -6.15" fill="url(#gradient0)" fill-rule="evenodd" stroke="none"/>
    <path d="M716.65 -15.65 Q711.5 -6.35 705.1 2.0 L695.25 13.95 Q690.35 19.8 688.4 23.65 685.85 28.75 685.85 34.65 685.85 39.85 687.35 48.3 688.05 52.45 689.05 56.4 695.7 51.6 702.1 47.35 L700.0 41.8 Q697.4 34.05 697.4 31.35 697.4 12.8 709.65 -3.45 726.1 -25.3 759.0 -30.8 L768.9 -31.35 Q804.4 -31.35 818.45 -6.9 826.1 6.45 826.1 23.9 826.1 30.85 823.25 45.45 819.55 64.85 813.2 81.1 L810.1 88.6 Q813.35 90.15 814.75 93.45 816.15 96.65 815.65 100.35 815.65 112.75 802.45 112.75 798.75 112.75 796.1 111.75 781.45 129.25 761.75 129.25 750.65 129.25 740.8 127.65 737.6 132.75 735.1 138.95 727.9 156.7 727.9 178.2 727.9 183.85 729.4 191.1 731.7 202.1 736.75 210.95 751.6 237.05 785.4 237.05 L788.05 237.0 Q791.95 233.75 796.1 233.75 L800.8 234.15 Q805.7 231.7 808.2 227.3 811.05 222.4 810.4 216.95 810.4 211.8 807.65 203.5 804.55 194.05 799.5 185.9 785.9 164.15 766.7 164.15 758.9 164.15 754.1 171.1 750.75 175.9 750.75 178.45 750.75 181.85 753.0 184.35 755.8 187.55 761.2 187.55 L766.15 185.9 Q764.2 186.3 761.2 184.8 758.35 183.35 757.9 182.05 761.6 173.25 766.7 173.25 775.85 173.25 777.65 179.15 778.6 182.1 777.7 185.6 777.7 190.6 774.35 194.7 770.3 199.65 763.4 199.65 750.45 199.65 744.5 189.25 742.6 185.95 741.7 182.0 741.1 179.55 741.1 178.45 741.1 170.65 748.3 163.05 756.05 154.8 765.6 154.8 794.85 154.8 808.8 186.95 813.4 197.6 815.7 210.6 817.3 219.45 817.3 224.65 817.6 230.5 813.75 236.0 L811.25 238.95 Q815.5 242.55 818.35 248.7 821.85 256.25 822.25 264.25 L822.55 268.55 Q822.55 271.85 821.2 274.2 817.1 281.3 800.5 281.3 787.05 281.3 781.6 268.4 779.9 264.35 779.15 259.4 778.8 256.75 778.8 254.9 778.8 250.85 780.65 246.85 742.55 245.1 728.0 214.9 720.5 199.4 720.5 178.75 720.5 176.25 720.8 173.2 L718.35 178.7 Q705.4 205.4 676.2 205.4 665.35 205.4 656.15 202.55 652.95 209.85 649.9 217.4 652.55 218.6 653.95 221.2 655.3 223.65 655.3 226.6 655.3 229.95 652.95 232.2 650.75 234.3 647.9 234.3 L643.65 233.8 Q630.35 270.35 620.4 312.95 L617.9 312.95 Q617.9 310.55 616.8 304.9 615.7 299.25 615.7 296.45 615.7 276.2 633.7 232.85 L635.85 227.75 Q635.25 226.35 635.25 224.95 635.25 221.65 637.45 219.25 638.75 217.85 640.5 217.15 644.4 208.45 648.7 199.65 632.75 192.05 622.6 174.45 617.0 164.75 613.85 153.1 L611.85 143.25 Q611.85 132.45 615.35 124.55 609.7 129.35 604.6 134.05 604.1 136.25 601.95 138.3 599.55 140.5 598.1 140.5 L597.7 140.5 586.85 151.5 584.85 151.25 583.7 151.4 Q583.0 151.3 583.0 147.95 583.0 146.2 590.15 138.9 L589.05 138.3 588.5 137.4 Q587.95 136.9 587.95 133.65 587.95 125.4 595.35 125.4 599.55 125.4 602.0 127.5 L606.5 123.35 Q619.25 111.7 633.25 99.95 628.8 98.5 627.55 96.0 627.0 94.85 627.0 91.0 626.75 88.4 627.55 86.1 629.2 81.65 634.7 81.65 640.25 81.65 641.85 85.6 642.4 86.95 642.4 90.2 L642.3 92.45 Q651.85 84.6 661.95 76.7 L672.6 68.55 Q670.75 63.0 669.5 57.15 666.6 60.65 661.3 63.3 652.5 67.65 643.5 67.65 621.3 67.65 608.05 41.75 603.9 33.65 601.15 23.9 L599.2 15.65 Q599.2 5.35 606.9 -3.6 617.3 -15.65 636.9 -15.65 658.25 -15.65 667.4 0.8 669.85 5.25 671.1 9.8 672.2 6.2 673.6 2.85 684.45 -23.35 706.75 -23.35 709.35 -23.35 711.9 -20.85 L716.65 -15.65 M640.2 7.4 Q645.7 7.4 649.9 13.3 L652.95 18.2 Q654.7 21.1 655.85 22.25 656.4 21.7 657.65 21.3 658.6 20.45 658.6 17.05 658.6 12.35 653.0 6.35 646.25 -0.8 637.45 -0.8 621.7 -0.8 616.35 7.45 614.65 10.1 614.2 13.35 614.05 14.25 614.05 16.5 614.05 19.05 615.55 24.2 617.5 31.1 620.95 36.85 631.15 53.9 649.55 53.9 658.9 53.9 662.65 47.25 L665.2 41.6 Q666.05 39.75 667.0 38.5 L666.95 37.9 666.85 33.55 666.9 32.25 Q661.55 42.35 656.95 42.35 635.55 42.35 629.2 34.7 627.15 32.25 626.9 29.25 L627.0 26.4 Q627.0 19.2 629.8 14.0 633.3 7.4 640.2 7.4 M599.75 22.55 Q599.75 28.05 599.2 26.1 L595.85 26.45 Q595.35 26.45 595.35 23.1 595.35 19.65 596.6 19.5 597.3 19.45 598.65 20.05 599.75 17.05 599.75 22.55 M570.9 72.05 Q570.9 75.25 568.2 77.85 565.35 80.55 561.55 80.55 L554.95 79.45 Q554.1 78.35 554.1 72.85 554.1 62.15 561.55 62.15 568.6 62.15 570.45 66.8 570.9 67.95 570.9 72.05 M622.6 144.35 Q622.6 147.25 626.05 154.85 630.25 164.05 636.4 172.05 644.7 182.8 654.2 188.6 659.75 177.7 665.9 166.65 L665.2 166.65 Q654.85 166.65 650.65 157.55 648.45 152.8 648.45 147.65 647.4 143.25 648.45 141.1 650.3 137.2 660.8 137.2 666.6 137.2 669.6 148.2 669.6 151.6 668.0 152.95 666.05 154.0 665.2 154.8 673.45 151.95 673.45 148.75 673.45 146.9 671.95 142.45 670.15 137.15 667.5 132.5 660.05 119.35 650.65 119.35 631.0 119.35 624.85 131.45 622.95 135.25 622.55 140.0 622.4 142.4 622.6 144.35 M643.5 107.8 Q667.6 107.8 677.85 128.1 680.55 133.45 681.95 138.95 691.15 123.75 700.25 110.45 686.45 99.35 677.9 81.7 L676.55 78.75 671.25 82.35 Q651.45 95.95 635.05 108.6 L643.5 107.8 M578.05 187.8 Q578.05 182.55 580.75 178.8 584.0 174.35 589.85 174.35 600.05 174.35 604.2 183.75 606.3 188.5 606.35 193.6 L606.1 196.3 Q605.7 199.2 604.75 201.65 601.9 209.25 595.35 209.25 585.55 209.25 580.85 198.55 579.35 195.15 578.55 191.15 L578.05 187.8 M398.35 93.4 L400.65 96.5 Q399.4 99.6 398.4 101.15 396.7 103.85 392.7 105.6 L387.95 101.45 Q386.1 99.6 386.1 98.15 386.1 95.05 388.25 93.2 390.15 91.55 392.7 91.55 396.25 91.55 398.35 93.4 M268.65 73.4 Q267.9 70.65 267.95 67.15 L268.1 63.8 Q268.1 58.65 271.95 52.3 276.25 45.1 281.3 45.1 293.05 45.1 297.0 55.25 299.0 60.35 298.65 66.0 298.65 82.2 279.65 82.2 270.85 82.2 268.65 73.4 M98.5 191.0 Q99.0 192.7 99.0 196.9 98.75 196.9 98.25 198.3 97.1 199.65 93.75 199.65 90.45 199.65 89.3 198.9 L86.05 196.9 85.5 195.85 Q84.95 195.2 84.95 191.95 84.95 188.8 85.1 188.65 L86.05 187.0 Q86.4 187.0 87.35 186.45 88.3 185.9 91.55 185.9 96.95 185.9 98.5 191.0 M2.45 322.55 Q2.45 325.75 2.25 326.3 1.8 327.55 1.65 328.35 L0.05 329.2 Q-1.15 330.0 -4.4 330.0 -13.05 330.0 -15.75 325.75 -16.75 324.15 -16.75 320.9 -16.75 317.45 -14.55 315.1 -12.0 312.4 -7.4 312.4 -0.5 312.4 1.65 317.2 2.45 319.0 2.45 322.55 M36.3 355.0 Q36.3 358.2 35.95 359.15 L35.2 361.6 33.05 362.3 Q31.3 363.0 28.05 363.0 L21.15 361.6 20.6 360.15 Q20.05 359.1 20.05 355.85 20.05 352.75 22.3 350.15 24.8 347.3 28.3 347.3 33.15 347.3 35.2 350.85 36.3 352.8 36.3 355.0 M17.85 392.25 Q20.9 399.8 21.7 407.8 21.7 422.1 10.7 422.1 -4.6 422.1 -10.7 413.85 -14.0 409.4 -14.0 403.95 -14.0 393.15 -12.35 387.85 -9.1 377.3 0.8 377.3 11.85 377.3 17.85 392.25 M120.95 382.3 Q132.05 365.5 143.85 351.1 172.35 316.3 199.35 301.95 L200.75 301.55 Q202.1 301.8 202.1 305.25 202.1 307.5 197.5 313.1 L184.95 327.05 Q160.25 353.7 143.8 375.5 L157.0 374.55 Q190.5 374.55 211.3 393.55 220.9 391.25 229.9 391.6 L231.3 391.2 Q232.65 391.45 232.65 394.9 L226.85 395.95 Q221.4 396.75 215.95 398.25 222.4 405.35 227.45 414.55 234.7 427.75 238.1 444.05 240.35 454.6 240.35 461.7 240.35 466.5 237.65 474.25 234.35 483.6 228.85 491.45 213.7 513.15 189.75 513.15 167.05 513.15 154.1 496.5 L154.25 497.2 Q153.7 500.5 150.4 503.25 L143.8 502.7 Q143.8 502.35 143.0 501.65 142.15 501.0 142.15 497.75 142.15 496.2 145.2 494.9 148.2 493.6 148.2 491.4 151.05 493.1 152.4 494.15 150.5 491.35 148.8 488.15 147.25 485.25 146.0 482.1 145.85 485.9 142.25 489.25 137.85 493.35 130.9 493.35 119.85 493.35 113.95 483.8 L113.85 483.6 101.25 500.3 Q90.7 514.4 83.7 524.95 L78.6 532.9 80.55 540.7 Q84.0 546.55 88.25 551.95 113.85 584.45 153.15 584.1 L154.25 585.75 Q154.25 587.15 151.1 588.85 147.6 590.7 143.8 590.7 108.0 590.7 84.25 562.2 85.35 571.3 85.5 577.75 85.5 586.45 79.55 593.2 71.35 602.5 55.0 602.5 19.85 602.5 5.35 590.7 -4.1 583.05 -4.1 570.9 -4.1 568.75 -8.2 563.05 L-17.3 550.55 Q-30.5 530.85 -30.5 512.85 -30.5 496.7 -23.85 482.7 -14.0 462.0 6.3 462.0 26.65 462.0 42.1 472.5 50.9 434.55 64.4 397.9 80.75 353.55 99.25 324.55 120.7 291.0 142.15 282.95 96.95 334.25 71.3 397.15 74.95 390.5 80.55 390.5 89.05 390.5 93.3 398.05 L95.1 401.9 Q98.9 397.65 103.05 394.05 111.4 386.85 120.95 382.3 M134.5 388.15 Q119.1 409.75 106.0 433.0 107.8 434.9 107.8 438.35 107.8 440.75 105.55 443.35 103.2 446.05 100.65 446.05 L98.9 446.05 Q82.8 476.45 70.5 509.55 72.65 514.4 74.55 519.8 L75.6 522.75 Q90.25 497.25 110.0 472.55 L110.0 472.15 Q110.0 459.35 122.7 457.4 135.05 443.3 147.4 432.0 153.85 420.7 166.15 416.45 L169.7 413.85 Q184.85 403.1 198.8 397.55 181.6 385.0 157.0 385.0 145.0 385.0 134.5 388.15 M270.35 206.8 Q272.5 210.45 272.5 213.1 271.7 215.15 270.85 216.2 269.35 218.05 265.9 218.05 261.2 218.05 258.6 213.7 256.85 210.8 256.85 208.7 256.85 205.55 257.0 205.4 L257.95 203.75 Q258.3 203.75 259.4 202.95 260.45 202.1 263.7 202.1 267.65 202.1 270.35 206.8 M262.9 493.35 Q262.9 497.3 259.05 501.6 254.6 506.55 248.6 506.55 243.05 506.55 241.45 500.55 240.95 498.6 240.85 496.2 L240.9 493.9 Q240.9 480.95 253.0 480.95 259.55 480.95 261.85 487.05 263.05 490.1 262.9 493.35 M268.65 461.0 L268.1 458.4 Q268.1 452.75 271.45 448.9 274.9 444.95 280.2 444.95 292.55 444.95 295.4 453.85 296.3 456.75 296.2 460.6 L295.9 465.0 Q295.9 468.55 292.9 471.6 289.65 474.9 285.15 474.9 275.7 474.9 270.95 466.65 269.5 464.05 268.65 461.0 M207.0 433.4 Q192.6 422.55 173.95 420.8 165.4 427.6 157.0 436.15 L152.5 440.7 Q150.75 450.1 150.95 459.5 150.95 462.6 152.15 468.0 154.0 476.05 157.65 482.65 168.65 502.7 191.95 502.7 210.4 502.7 221.25 485.15 227.0 475.85 229.35 464.45 L229.35 463.35 226.6 466.4 Q225.2 468.05 223.85 468.85 220.1 471.05 209.25 471.05 189.5 471.05 183.25 462.0 181.3 459.15 180.95 455.75 L180.95 452.9 Q180.95 449.35 183.75 447.15 185.8 445.5 187.55 445.5 L197.45 446.05 Q197.45 446.9 198.4 449.35 199.35 451.85 199.35 452.65 195.7 454.3 190.3 454.3 191.8 456.25 191.0 459.6 191.4 462.0 199.35 462.0 L220.8 461.45 Q220.8 461.1 221.65 460.8 222.45 460.55 222.45 457.3 222.45 451.75 218.4 445.4 214.25 438.9 207.0 433.4 M204.5 402.25 Q193.85 406.7 183.35 413.85 188.95 414.05 205.65 427.4 222.05 440.55 227.7 448.8 L228.8 448.25 Q225.95 430.9 215.7 415.5 210.65 407.95 204.5 402.25 M212.55 529.35 Q218.2 523.6 224.65 523.6 234.95 523.6 243.1 537.65 247.15 544.65 249.15 551.65 249.15 557.55 246.45 560.6 242.15 565.4 230.7 565.4 216.55 565.4 210.4 553.45 208.45 549.65 207.55 545.1 207.05 542.4 207.05 540.9 207.05 534.95 212.55 529.35 M177.65 544.2 L178.2 545.65 Q178.75 546.75 178.75 550.0 L178.2 554.1 176.15 554.95 Q174.05 555.75 170.75 555.75 167.2 555.75 165.6 554.7 L163.35 552.45 Q164.6 545.75 171.05 543.1 L177.65 544.2 M196.35 565.95 Q196.35 562.6 197.5 560.95 199.45 558.25 204.85 558.25 211.45 558.25 211.45 564.3 211.45 571.3 202.65 573.65 L197.55 569.05 Q196.35 567.8 196.35 565.95 M293.15 527.7 Q293.15 520.75 300.9 514.85 309.6 508.2 322.85 508.2 333.35 508.2 336.95 519.25 338.8 524.75 338.5 530.45 338.5 536.25 334.75 540.4 329.3 546.4 317.35 546.4 311.35 546.4 306.75 544.75 309.05 551.0 309.1 557.7 309.1 572.05 297.5 577.0 289.95 580.25 272.5 580.25 263.2 580.25 258.55 569.3 257.1 565.75 256.3 561.55 255.75 558.8 255.75 557.7 255.75 554.85 257.7 550.55 259.95 545.65 263.7 541.5 273.55 530.45 287.9 530.45 L293.7 531.2 Q293.15 529.4 293.15 527.7 M107.85 403.25 Q91.75 417.75 81.2 443.85 75.1 459.05 71.5 476.8 81.75 451.25 95.55 425.2 101.6 413.8 107.85 403.25 M134.8 459.05 Q138.85 461.5 141.75 467.15 141.05 463.6 141.05 461.7 140.7 456.95 141.15 452.3 L134.8 459.05 M71.25 397.3 L71.25 397.35 71.2 397.4 71.25 397.35 71.25 397.3 71.3 397.15 71.25 397.3 M68.95 403.05 Q65.9 410.75 63.2 418.6 54.1 444.9 47.4 476.55 53.95 482.15 59.5 489.9 L60.9 481.15 Q65.05 457.15 73.4 437.3 76.65 429.5 80.5 422.65 73.3 422.6 70.15 415.0 68.45 410.8 68.45 406.7 68.45 404.95 68.95 403.05 M50.6 429.25 Q50.6 432.6 48.45 435.15 45.8 438.35 40.95 438.35 L34.65 436.7 Q34.1 437.25 34.1 431.75 34.1 430.6 35.9 428.45 38.5 425.35 43.45 422.65 50.6 428.2 50.6 429.25 M4.1 471.6 Q-9.9 471.6 -16.75 489.7 -21.15 501.35 -21.15 512.6 -21.15 516.7 -19.85 523.8 -17.95 533.8 -14.45 542.05 -4.05 566.5 16.75 566.5 35.05 566.5 42.4 555.75 44.75 552.35 45.7 548.15 L46.2 544.2 Q46.2 538.05 41.8 529.35 40.45 526.65 38.95 524.65 36.9 539.2 35.2 554.65 L33.55 554.65 Q32.45 542.0 32.45 536.5 32.45 529.1 33.5 519.7 31.4 518.65 29.15 518.65 20.15 518.65 17.3 525.1 15.85 528.35 16.2 532.1 16.2 535.7 18.6 541.3 21.4 547.75 25.55 551.9 L25.7 553.3 Q25.15 554.65 21.7 554.65 13.45 554.65 10.7 543.55 9.85 540.05 9.65 535.75 L9.6 531.85 Q9.6 526.25 9.75 524.75 10.15 520.75 11.85 518.15 16.25 511.5 31.6 511.5 L34.5 511.8 Q36.15 499.95 39.2 485.4 24.45 471.6 4.1 471.6 M63.85 528.5 Q56.75 549.7 51.15 572.0 L48.95 572.0 Q48.4 575.0 48.4 569.5 48.4 565.4 48.75 560.95 L48.25 561.6 Q37.0 576.25 6.85 576.95 11.75 581.85 18.8 584.3 29.2 587.95 47.0 587.95 59.95 587.95 66.3 583.6 58.35 584.2 56.3 579.75 55.55 578.1 55.55 572.0 55.55 561.3 66.85 538.85 L63.85 528.5 M52.5 536.55 Q54.75 526.0 58.35 514.1 52.35 500.3 44.5 490.95 42.35 502.35 40.5 514.45 45.8 518.35 49.55 527.55 51.35 531.95 52.5 536.55 M69.25 549.7 Q62.15 564.35 62.15 573.65 62.15 577.55 63.1 579.35 63.85 580.75 66.55 583.0 L66.55 583.4 Q69.2 581.5 70.65 578.75 72.15 575.85 72.1 572.3 L71.75 568.95 Q71.05 559.2 69.25 549.7 M159.2 559.35 L160.65 559.75 Q162.15 560.3 162.5 561.0 164.55 560.55 160.0 562.75 153.4 565.95 152.05 567.6 L142.7 567.6 Q147.75 567.4 153.15 564.0 L159.2 559.35 M137.2 554.4 Q137.2 559.9 136.1 559.9 L135.1 560.75 Q133.7 561.55 130.35 561.55 L123.75 559.9 122.95 558.15 Q122.1 556.8 122.1 553.55 122.1 550.4 122.25 550.25 L123.2 548.6 125.05 548.05 Q126.55 547.5 129.8 547.5 135.15 547.5 136.7 550.65 137.2 551.7 137.2 554.4 M601.45 493.3 Q602.85 497.35 602.5 501.85 602.5 509.0 593.15 511.5 585.9 511.5 582.9 503.7 581.95 501.2 581.55 498.15 L581.35 495.25 Q581.35 490.4 582.9 488.15 584.9 485.35 589.85 485.35 598.65 485.35 601.45 493.3 M537.0 437.3 Q538.15 439.45 538.15 441.35 L537.6 445.5 537.35 445.65 537.5 446.05 Q537.35 446.6 534.05 446.6 L530.4 446.45 527.15 445.5 526.6 444.45 Q526.05 443.8 526.05 440.55 526.05 439.55 529.1 437.4 532.1 435.3 532.1 432.85 535.35 434.3 537.0 437.3 M777.65 21.55 Q779.4 25.65 778.8 30.25 L778.8 31.6 Q781.95 30.55 784.9 30.05 L783.85 26.1 Q781.45 19.35 776.65 18.15 L775.9 18.55 Q776.95 19.9 777.65 21.55 M776.65 42.4 Q772.25 53.25 760.3 53.35 750.55 62.9 741.45 72.75 748.05 75.6 755.7 75.6 772.95 75.6 781.0 57.2 785.05 48.0 785.65 38.2 785.65 34.05 785.0 30.55 L778.65 36.15 778.1 37.65 Q777.55 40.2 776.65 42.4 M796.05 48.2 Q793.8 57.6 790.0 65.55 778.7 89.35 759.0 89.35 744.1 89.35 732.2 83.1 724.55 91.85 717.45 100.8 731.55 110.0 751.3 110.0 L753.5 109.95 Q759.55 106.1 767.1 101.9 777.65 96.0 787.0 92.05 794.15 82.95 799.5 69.35 804.65 56.15 807.45 40.15 809.3 29.35 809.3 24.2 809.3 -15.65 767.5 -15.65 736.45 -15.65 721.45 5.8 716.55 12.75 713.95 21.2 712.25 26.9 712.25 29.7 712.25 32.7 714.45 39.2 L726.85 31.55 Q734.75 26.9 741.75 23.3 745.3 15.55 756.05 13.9 762.1 4.95 772.2 4.95 787.45 4.95 793.95 19.5 797.75 28.05 797.75 38.2 797.75 41.15 796.05 48.2 M741.3 38.1 L719.6 51.05 720.35 52.4 720.75 52.25 Q732.8 52.25 735.65 61.85 L736.2 64.2 Q743.3 56.45 749.9 50.5 746.0 47.85 743.35 42.9 742.15 40.65 741.3 38.1 M692.7 68.05 Q693.9 71.1 695.25 74.0 701.5 87.25 710.7 95.6 715.85 88.55 721.0 82.15 710.05 81.55 705.1 76.65 701.8 73.4 701.8 69.3 701.8 66.6 709.0 60.7 L707.65 58.5 Q700.05 63.25 692.7 68.05 M706.6 115.05 Q694.1 132.05 683.35 149.85 683.1 155.0 679.55 159.8 677.65 162.35 675.15 164.0 L671.6 170.5 Q666.05 180.9 660.9 192.0 668.95 195.25 677.85 195.25 701.2 195.25 711.75 169.95 715.1 161.85 716.75 152.1 717.75 146.05 717.75 143.0 717.75 130.85 708.4 117.7 L708.75 116.4 706.6 115.05 M726.25 143.55 L726.25 143.95 Q729.2 132.95 732.3 128.15 L733.65 126.25 Q728.25 125.0 723.3 123.25 724.15 125.55 724.75 128.4 726.35 135.7 726.25 143.55 M760.8 109.05 Q766.55 107.85 771.75 105.1 765.9 106.5 760.8 109.05 M762.3 296.45 Q762.3 301.45 761.9 302.35 761.1 304.15 757.35 304.15 750.65 304.15 745.5 301.95 744.95 301.65 744.95 296.15 744.95 292.7 747.8 290.7 750.2 289.0 753.5 289.0 762.3 289.0 762.3 296.45 M797.2 250.8 Q793.2 250.45 792.65 250.8 792.25 251.05 792.25 254.9 792.25 265.9 808.75 267.0 809.3 269.5 809.3 264.0 809.3 260.05 806.05 255.75 802.3 250.8 797.2 250.8 M715.05 261.5 Q716.3 264.7 715.55 268.4 715.55 273.7 713.35 279.15 710.25 286.8 704.55 286.8 697.75 286.8 691.85 280.2 686.95 274.8 686.95 271.95 686.95 266.3 691.85 260.8 696.85 255.2 702.35 255.2 712.5 255.2 715.05 261.5" fill="#000000" fill-opacity="0.15294118" fill-rule="evenodd" stroke="none"/>
    <path d="M115.0 -18.9 Q122.55 -18.9 127.5 -6.3 130.0 0.05 131.0 6.85 131.0 14.55 129.05 18.2 125.9 24.1 117.0 24.1 109.1 24.1 100.55 12.65 L100.45 12.55 98.9 14.65 Q96.35 17.4 93.0 18.6 L87.0 13.1 Q87.0 9.35 88.55 7.75 90.1 6.1 95.0 4.6 L95.8 5.3 95.4 4.6 Q93.5 1.1 93.5 0.6 93.5 -4.4 97.05 -9.9 102.8 -18.9 115.0 -18.9 M157.1 -6.95 L157.0 -7.8 157.0 -10.4 Q157.0 -14.35 158.95 -17.85 162.1 -23.4 169.0 -23.4 176.55 -23.4 179.5 -17.2 181.0 -14.0 181.0 -10.4 181.0 -6.4 179.5 -2.85 176.7 3.75 169.8 4.1 171.2 8.05 171.0 12.35 L170.55 16.6 Q176.85 9.6 187.0 9.6 L188.8 9.65 188.6 8.2 Q187.75 5.8 187.2 3.2 186.5 -0.05 186.5 -1.15 186.5 -7.1 192.05 -15.4 199.05 -25.9 209.0 -25.9 219.5 -25.9 224.55 -13.9 227.05 -7.85 227.5 -1.15 227.5 4.35 222.6 13.15 218.0 21.35 212.0 23.7 213.55 26.25 214.65 29.1 216.0 32.75 216.0 34.85 216.0 45.1 209.55 56.65 204.55 65.45 198.05 68.9 L198.35 69.85 Q200.5 75.95 200.5 79.1 200.5 81.8 198.45 87.0 195.95 93.25 192.05 98.6 181.0 113.6 165.0 113.6 L161.1 113.4 161.45 119.75 Q162.25 134.55 162.55 165.4 162.85 195.1 163.5 206.1 164.9 230.0 165.7 266.0 L176.0 271.5 181.0 267.15 Q188.1 261.6 191.0 261.6 197.75 261.6 200.55 266.7 202.0 269.4 202.0 272.35 202.0 275.75 199.5 279.2 197.9 281.35 195.85 282.5 L208.3 289.65 209.0 289.6 Q214.3 289.6 215.9 294.25 224.0 299.35 228.0 302.6 227.5 304.1 225.0 305.1 L216.35 301.0 Q215.9 303.95 214.05 305.65 212.05 307.6 209.0 307.6 204.45 307.6 202.55 303.65 201.5 301.45 201.5 299.1 201.5 296.35 202.65 294.0 193.05 288.95 181.55 282.6 177.5 281.55 175.65 279.3 L165.85 273.8 166.25 302.5 Q169.0 307.7 169.0 312.6 169.0 317.6 166.4 322.3 L166.5 344.85 Q166.5 362.1 153.0 362.1 143.8 362.1 139.05 353.1 136.0 347.3 136.0 342.6 136.0 336.15 136.4 327.1 133.35 324.3 130.5 320.05 127.75 315.95 125.65 311.2 L124.1 307.25 Q118.0 305.9 115.05 300.25 113.85 297.9 113.3 295.05 113.0 293.4 113.0 292.35 113.0 287.65 116.55 284.15 120.15 280.6 125.0 280.6 133.05 280.6 137.05 287.2 L138.6 290.25 Q140.5 262.55 140.5 248.1 140.5 244.8 138.7 212.15 134.9 215.6 129.0 215.6 120.3 215.6 114.95 211.4 116.0 213.65 116.0 216.35 116.0 220.4 112.5 224.65 108.45 229.6 103.0 229.6 94.2 229.6 91.5 224.25 90.65 222.55 90.5 220.4 L90.5 218.35 Q90.5 214.2 94.05 210.2 98.15 205.6 104.0 205.6 108.25 205.6 111.1 207.2 110.25 205.95 109.55 204.5 107.9 201.0 107.25 196.7 L107.0 192.85 Q107.0 188.0 111.0 181.7 116.8 172.6 127.0 172.6 132.65 172.6 136.7 175.75 134.75 136.3 134.55 97.4 129.7 96.55 127.45 92.15 126.0 89.25 126.0 86.1 126.0 73.6 137.0 73.6 L137.2 73.6 Q138.25 71.05 139.7 69.5 140.1 65.2 141.05 61.15 142.2 56.2 144.2 52.4 L142.5 51.1 Q142.0 53.1 142.0 48.1 142.0 44.95 143.75 44.15 L147.0 43.6 149.85 45.2 Q154.65 41.05 161.75 40.0 162.2 34.45 163.85 29.25 158.45 35.1 151.0 35.1 138.45 35.1 133.5 24.6 131.9 21.25 131.3 17.15 131.0 15.1 131.0 13.35 131.0 4.35 133.05 0.65 137.5 -7.4 152.0 -7.4 L157.1 -6.95 M273.0 22.85 L272.0 26.6 Q269.5 28.1 267.0 28.6 261.0 23.45 261.0 23.1 261.0 19.45 267.0 16.6 273.0 22.15 273.0 22.85 M245.0 5.6 Q240.5 4.3 240.5 0.6 L246.0 0.1 Q248.0 -1.9 248.0 3.1 248.0 6.05 247.25 5.85 L245.0 5.6 M254.0 42.85 Q254.0 47.25 250.5 49.65 249.2 50.55 247.7 51.05 L249.65 54.15 Q251.9 58.5 252.5 63.1 252.5 69.8 248.1 78.2 241.05 91.6 227.0 91.6 215.4 91.6 210.55 84.2 209.05 81.85 208.35 79.05 L208.0 76.6 Q208.0 75.1 209.55 70.7 211.55 65.0 214.55 60.15 222.55 47.2 234.05 45.8 L233.9 44.1 234.0 42.35 Q234.0 38.1 237.5 35.65 240.4 33.6 244.0 33.6 250.75 33.6 253.05 37.95 254.0 39.8 254.0 42.85 M272.0 94.35 Q272.0 90.75 274.5 87.55 277.65 83.6 283.0 83.6 289.6 83.6 292.45 88.7 294.0 91.5 294.0 94.35 294.0 97.05 291.5 101.15 288.15 106.6 283.0 106.6 275.45 106.6 273.0 100.75 272.2 98.9 272.05 96.6 L272.0 94.35 M241.0 104.1 Q253.55 104.1 258.5 113.95 261.0 118.9 261.0 124.35 261.0 126.2 258.55 131.5 L257.75 133.25 259.5 135.3 Q261.0 137.75 261.0 140.6 261.0 144.05 259.05 146.65 257.05 149.2 253.45 150.1 258.0 151.7 258.0 158.1 258.0 160.6 256.8 162.3 L266.5 184.1 Q265.5 187.1 263.0 188.1 255.05 178.45 249.6 165.6 244.15 165.5 242.55 162.0 242.0 160.85 242.0 157.85 242.0 155.45 242.7 153.75 236.8 158.6 231.0 158.6 226.5 158.6 223.0 157.1 L222.7 157.5 Q215.6 167.0 207.0 175.6 L205.5 174.6 217.05 152.55 216.0 151.1 Q213.0 146.55 213.0 142.85 213.0 139.8 214.35 134.15 216.05 127.1 218.95 121.15 227.2 104.1 241.0 104.1 M239.0 186.1 Q241.5 187.1 243.5 190.1 L242.0 194.1 Q241.0 194.6 239.0 195.1 L235.65 194.25 Q234.5 193.55 234.5 190.35 234.5 187.2 236.0 186.55 236.9 186.15 239.0 186.1 M265.0 168.1 Q259.5 163.2 259.5 161.85 259.5 159.9 262.25 158.55 265.0 157.25 265.0 155.1 272.0 160.25 272.0 160.6 272.0 163.45 265.0 168.1 M279.0 155.1 Q281.5 156.1 282.5 159.1 280.8 161.65 279.0 162.1 L276.3 162.0 Q275.5 161.9 275.5 158.85 L276.0 155.6 Q279.0 155.6 279.0 155.1 M269.5 196.1 Q272.0 198.0 272.0 200.6 L270.0 201.1 Q270.0 199.6 268.0 196.6 L269.5 196.1 M276.5 181.6 L275.0 182.6 Q272.0 181.6 271.5 180.1 273.95 178.45 276.65 179.65 277.05 177.6 278.55 176.15 280.65 174.1 284.0 174.1 289.5 174.1 289.5 181.6 289.5 189.1 283.0 189.1 278.45 189.1 277.05 185.5 276.5 184.2 276.5 181.6 M115.45 44.1 Q118.7 50.15 119.5 56.85 L119.35 59.15 120.5 60.6 Q119.75 63.65 119.35 64.1 L117.2 65.45 Q115.75 68.2 113.55 71.15 107.35 79.35 98.8 80.8 99.15 83.75 99.0 86.85 99.0 91.2 94.5 95.05 90.4 98.6 87.0 98.6 80.3 98.6 73.35 85.95 L71.0 86.6 Q65.0 81.5 65.0 81.1 65.0 77.65 69.8 75.2 70.55 71.2 73.55 67.65 L75.5 65.6 Q74.5 62.15 74.5 58.6 74.5 50.6 77.95 43.65 83.75 32.1 97.0 32.1 109.1 32.1 115.45 44.1 M74.55 27.95 Q76.0 30.0 76.0 32.35 76.0 36.6 71.55 39.15 68.15 41.1 65.0 41.1 56.5 41.1 56.5 32.6 56.5 30.25 57.55 28.15 59.65 24.1 65.0 24.1 71.8 24.1 74.55 27.95 M63.0 67.1 L61.5 68.35 Q60.0 69.6 57.0 69.6 54.0 69.6 53.0 68.9 52.0 67.85 50.5 67.1 50.0 67.6 50.0 62.6 50.0 60.25 51.65 58.15 53.65 55.6 57.0 55.6 61.25 55.6 63.05 58.8 64.0 60.6 64.0 62.6 64.0 67.6 63.0 67.1 M63.5 120.1 Q63.5 123.2 62.7 124.35 L61.5 125.6 Q61.0 126.1 59.0 126.6 54.5 121.45 54.5 120.35 54.5 117.2 56.0 116.55 56.9 116.15 59.0 116.1 L62.2 116.6 Q63.5 117.0 63.5 120.1 M71.0 106.65 Q73.8 102.6 79.0 102.6 85.0 102.6 87.55 107.3 89.0 109.95 89.0 112.6 89.0 115.75 87.0 118.65 84.85 121.7 81.2 122.4 80.95 123.35 80.5 123.1 77.5 124.6 75.0 125.1 L70.25 121.3 Q68.5 119.7 68.5 118.1 68.5 116.9 69.3 115.7 69.0 114.3 69.0 112.6 69.0 109.6 71.0 106.65 M55.0 135.1 Q57.5 136.1 58.5 139.1 57.5 140.6 53.0 143.6 L51.0 143.5 Q50.5 143.4 50.5 140.35 50.5 137.1 52.0 136.05 L55.0 135.1 M53.0 135.6 L49.4 134.35 Q48.0 133.35 48.0 130.1 48.0 126.9 49.55 125.85 L53.0 124.6 Q57.25 126.3 58.0 133.1 55.5 134.6 53.0 135.6 M34.0 124.1 Q36.0 125.1 31.0 125.1 27.9 125.1 27.5 124.4 27.5 123.35 27.0 122.6 26.0 125.35 26.0 120.35 26.0 117.2 27.75 116.55 L31.0 116.1 Q33.5 117.1 35.5 120.1 L34.0 124.1 M130.5 124.6 Q130.5 128.75 127.45 132.15 123.85 136.1 118.0 136.1 110.15 136.1 107.05 130.65 105.5 127.85 105.5 124.6 105.5 120.25 108.0 117.15 111.3 113.1 118.0 113.1 125.05 113.1 128.45 118.65 130.2 121.5 130.5 124.6 M87.0 187.1 Q87.0 183.45 93.0 180.6 99.0 186.15 99.0 186.85 L98.0 190.6 Q95.5 192.1 93.0 192.6 87.0 187.45 87.0 187.1 M113.1 264.65 Q110.4 268.6 105.0 268.6 98.4 268.6 96.05 263.9 95.0 261.75 95.0 258.6 95.0 255.5 97.1 252.55 99.9 248.6 105.0 248.6 111.0 248.6 113.55 253.3 115.0 255.95 115.0 258.6 115.0 261.85 113.1 264.65 M76.05 214.15 Q73.85 216.1 71.0 216.1 63.5 216.1 63.5 209.1 63.5 205.45 66.05 203.15 68.25 201.1 71.0 201.1 78.5 201.1 78.5 208.85 78.5 212.05 76.05 214.15 M69.0 338.6 Q75.0 344.15 75.0 344.85 L74.0 348.6 Q71.5 350.1 69.0 350.6 63.0 345.45 63.0 345.1 63.0 341.45 69.0 338.6 M65.5 359.6 L67.0 362.6 Q66.6 363.75 64.55 365.15 62.45 366.6 61.0 366.6 58.5 365.6 57.0 364.1 57.0 361.1 62.0 358.6 L65.5 359.6 M59.0 375.6 L61.45 375.8 62.55 373.7 Q64.8 370.6 69.0 370.6 77.0 370.6 78.0 378.35 78.0 381.25 76.05 383.6 73.85 386.25 70.0 386.55 69.95 388.6 69.05 390.6 L73.5 392.1 74.5 395.1 Q72.8 397.65 69.0 398.6 66.5 397.6 65.0 396.1 L65.05 395.75 Q62.45 397.6 59.0 397.6 52.25 397.6 49.45 392.5 48.0 389.8 48.0 386.85 48.0 383.2 50.05 380.1 53.0 375.6 59.0 375.6 M85.0 325.1 Q85.0 321.45 91.0 318.6 97.0 324.15 97.0 324.85 L96.0 328.6 Q93.5 330.1 91.0 330.6 L85.0 325.1 M103.0 331.6 Q112.55 331.6 115.45 345.3 116.95 352.25 116.5 359.6 116.5 365.25 113.55 371.65 111.6 375.8 109.0 378.15 L110.9 383.75 116.95 404.15 Q120.35 415.95 122.0 420.1 L121.0 421.1 Q112.95 409.85 105.45 392.5 L100.9 381.1 Q95.75 381.1 91.95 378.95 L89.4 384.9 Q90.95 386.0 92.0 387.6 92.0 388.95 90.8 390.6 89.4 392.6 87.0 393.6 L85.85 393.2 76.25 415.75 Q59.0 456.35 47.5 481.1 L46.0 481.1 57.65 447.9 Q65.05 427.05 71.0 412.4 76.55 398.65 82.05 387.35 82.2 385.0 83.55 384.25 L88.0 375.75 Q85.6 373.1 84.05 369.2 81.5 362.95 81.5 355.6 81.5 351.6 88.5 342.2 96.4 331.6 103.0 331.6 M119.0 380.6 Q119.0 378.8 122.0 376.3 125.0 373.8 125.0 374.6 128.1 375.85 129.0 378.6 127.0 381.6 123.0 384.6 L120.05 384.1 Q119.0 383.7 119.0 380.6 M138.0 380.85 Q138.0 373.7 141.55 369.6 145.45 365.1 153.0 365.1 159.0 365.1 161.55 371.7 163.0 375.35 163.0 378.85 163.0 383.4 160.0 387.2 156.5 391.6 151.0 391.6 143.45 391.6 140.0 386.5 138.0 383.55 138.0 380.85 M279.0 259.1 Q284.5 264.15 284.5 264.6 284.5 267.65 284.2 269.1 L283.5 272.1 282.25 272.85 Q281.0 273.6 278.0 273.6 L272.5 272.6 Q272.0 272.35 272.0 267.35 272.0 265.7 274.2 263.15 276.35 260.6 279.0 259.1 M205.0 211.1 L200.25 207.25 Q198.5 205.55 198.5 204.1 198.5 201.9 200.65 199.8 202.85 197.55 205.0 198.1 211.5 203.4 211.5 204.35 211.5 209.35 210.5 209.6 L205.0 211.1 M194.0 242.6 Q188.15 242.6 186.05 238.65 185.0 236.7 185.0 234.1 185.0 232.1 186.65 229.65 189.35 225.6 195.0 225.6 200.2 225.6 202.1 229.95 203.0 232.0 203.0 234.85 203.0 237.85 200.55 240.15 197.95 242.6 194.0 242.6 M222.65 283.65 L223.5 282.6 Q227.0 282.6 227.0 282.1 L230.2 282.6 Q231.5 283.0 231.5 286.1 231.5 289.0 231.2 288.9 230.65 288.75 230.5 289.1 228.8 291.65 227.0 292.1 224.65 291.5 223.8 290.85 222.5 289.85 222.5 286.6 222.5 283.75 222.65 283.65 M240.45 303.05 Q241.0 303.6 241.0 306.6 241.0 311.6 240.5 309.6 L240.3 310.5 Q239.95 311.5 239.0 312.1 236.5 311.1 235.0 309.6 237.25 302.85 239.5 302.1 L240.45 303.05 M230.0 315.6 Q233.0 315.6 233.0 315.1 236.2 316.35 237.25 318.45 L237.55 318.15 Q239.75 316.1 243.0 316.1 246.0 316.1 247.55 318.95 248.5 320.75 248.5 322.35 248.5 328.1 242.0 328.1 L236.5 327.1 236.0 326.15 Q235.5 325.55 235.5 322.6 235.5 321.5 235.9 320.6 234.3 321.75 233.0 322.1 L230.3 322.0 Q229.5 321.9 229.5 318.85 L230.0 315.6 M205.0 318.6 Q205.0 321.6 203.55 324.65 201.0 330.1 195.0 330.1 188.4 330.1 186.05 324.65 185.0 322.15 185.0 318.6 185.0 315.5 187.1 312.55 189.9 308.6 195.0 308.6 201.0 308.6 203.55 313.3 205.0 315.95 205.0 318.6 M201.0 394.1 L202.7 394.55 Q204.55 395.15 205.5 396.1 204.7 398.55 203.0 399.1 199.5 398.6 198.5 397.1 L198.5 394.6 Q201.0 394.6 201.0 394.1 M189.0 389.95 Q190.0 391.7 190.0 394.85 190.0 400.4 185.55 402.45 188.0 405.25 190.9 409.5 195.5 416.25 203.0 428.6 L202.0 430.1 Q195.65 427.05 188.05 415.2 183.45 408.0 179.35 403.6 L179.0 403.6 Q170.65 403.6 168.55 399.25 167.85 397.85 167.85 396.1 L168.0 394.35 Q168.0 390.0 171.55 387.65 174.55 385.6 179.0 385.6 186.55 385.6 189.0 389.95 M269.0 340.1 Q264.75 338.4 264.0 336.1 267.0 334.6 267.0 334.1 L268.7 334.55 Q270.55 335.15 271.5 336.1 270.5 339.1 269.0 340.1 M281.5 350.1 Q284.5 352.35 286.0 354.6 284.65 354.95 282.65 353.35 281.0 352.05 280.0 350.6 L281.5 350.1 M171.0 410.6 Q174.1 411.85 175.0 414.6 174.1 417.35 171.0 418.6 168.5 417.6 167.0 416.1 167.0 414.8 168.05 413.15 169.3 411.3 171.0 410.6 M180.0 416.6 Q182.5 419.1 182.5 421.1 L181.0 422.1 Q176.5 420.6 176.5 417.1 L180.0 416.6 M176.7 436.55 Q178.55 437.15 179.5 438.1 178.7 440.55 177.0 441.1 173.5 440.6 172.5 439.1 L172.5 436.6 Q175.0 436.6 175.0 436.1 L176.7 436.55 M171.6 439.2 Q172.3 442.55 172.0 446.35 L171.95 447.7 173.55 449.65 Q179.55 456.95 181.0 460.1 L180.0 463.1 Q182.0 464.6 177.0 464.6 176.15 464.6 165.65 453.55 L164.0 453.6 Q159.9 453.6 157.4 452.35 L158.0 453.6 155.2 458.1 Q153.95 459.6 152.0 459.6 L148.0 458.6 Q146.75 458.0 146.45 457.65 146.0 457.25 146.0 454.1 146.0 450.6 147.15 450.0 L152.0 449.6 154.65 449.95 154.05 448.9 Q153.4 447.4 153.4 445.5 L153.5 443.6 Q153.5 439.6 157.1 436.15 160.75 432.6 165.0 432.6 170.2 432.6 171.6 439.2 M164.9 476.65 Q162.35 479.4 159.0 480.6 L153.0 475.1 Q153.0 474.25 154.65 472.05 157.0 469.0 161.0 466.6 167.0 471.8 167.0 472.85 167.0 474.25 164.9 476.65 M193.0 473.6 Q196.2 474.85 198.0 477.6 198.0 478.95 196.8 480.6 195.4 482.6 193.0 483.6 190.0 482.6 188.5 481.1 188.0 483.1 188.0 478.1 188.0 474.95 189.75 474.15 L193.0 473.6 M144.25 419.3 Q142.5 417.7 142.5 416.1 142.5 413.85 144.65 411.7 146.85 409.4 149.0 410.1 155.5 415.05 155.5 416.35 155.5 421.35 154.5 421.6 L149.0 423.1 144.25 419.3 M114.0 420.1 Q117.15 420.1 118.25 421.55 118.9 422.35 119.5 424.1 L119.5 427.1 Q117.5 429.1 110.0 429.1 L109.25 428.25 Q108.5 427.35 108.5 424.35 108.5 420.85 109.4 420.35 L114.0 420.1 M102.8 399.75 Q104.0 400.9 104.0 404.35 L103.5 408.1 102.25 408.85 Q101.0 409.6 98.0 409.6 101.35 412.1 102.0 418.85 102.0 420.6 101.45 422.05 L101.5 422.1 100.8 423.3 98.55 425.65 Q95.85 427.6 93.0 427.6 86.4 427.6 84.55 423.25 84.0 421.95 84.0 418.35 84.0 414.55 86.05 411.65 88.55 408.1 93.0 408.1 L93.4 408.1 92.5 407.1 Q92.0 409.1 92.0 404.1 92.0 402.85 93.3 401.35 L91.0 399.1 Q91.0 395.45 97.0 392.6 103.0 398.15 103.0 398.85 L102.8 399.75 M64.5 419.1 L63.0 421.6 56.5 422.1 56.0 422.0 Q55.5 421.85 55.5 418.85 L56.0 415.6 60.0 415.1 63.5 416.1 64.5 419.1 M48.5 427.1 Q51.85 427.1 53.5 428.1 53.0 429.6 51.0 430.6 48.5 429.6 48.5 427.1" fill="#000000" fill-opacity="0.18039216" fill-rule="evenodd" stroke="none"/>
    <path d="M87.8 -6.7 L87.4 -7.4 Q85.5 -10.9 85.5 -11.4 85.5 -16.4 89.05 -21.9 94.8 -30.9 107.0 -30.9 114.55 -30.9 119.5 -18.3 122.0 -11.95 123.0 -5.15 L122.95 -2.75 Q122.7 3.15 121.05 6.2 117.9 12.1 109.0 12.1 101.1 12.1 92.55 0.65 L92.5 0.55 92.45 0.55 90.9 2.65 Q88.35 5.4 85.0 6.6 L79.0 1.1 Q79.0 -2.65 80.55 -4.25 82.1 -5.9 87.0 -7.4 L87.8 -6.7 M161.0 -35.4 Q168.55 -35.4 171.5 -29.2 173.0 -26.0 173.0 -22.4 173.0 -18.4 171.5 -14.85 168.7 -8.25 161.8 -7.9 163.2 -3.95 163.0 0.35 L162.55 4.6 Q168.85 -2.4 179.0 -2.4 L180.8 -2.35 180.75 -2.65 180.6 -3.8 Q179.75 -6.2 179.2 -8.8 178.5 -12.05 178.5 -13.15 178.5 -19.1 184.05 -27.4 191.05 -37.9 201.0 -37.9 211.5 -37.9 216.55 -25.9 219.05 -19.85 219.5 -13.15 219.5 -7.65 214.6 1.15 210.0 9.35 204.0 11.7 205.55 14.25 206.65 17.1 208.0 20.75 208.0 22.85 208.0 33.1 201.55 44.65 196.55 53.45 190.05 56.9 L190.35 57.85 Q192.5 63.95 192.5 67.1 192.5 69.8 190.45 75.0 187.95 81.25 184.05 86.6 173.0 101.6 157.0 101.6 L153.1 101.4 153.45 107.75 Q154.25 122.55 154.55 153.4 154.85 183.1 155.5 194.1 156.9 218.0 157.7 254.0 L168.0 259.5 Q169.75 257.7 173.0 255.15 180.1 249.6 183.0 249.6 189.75 249.6 192.55 254.7 194.0 257.4 194.0 260.35 194.0 263.75 191.5 267.2 189.9 269.35 187.85 270.5 L200.3 277.65 201.0 277.6 Q206.3 277.6 207.9 282.25 216.0 287.35 220.0 290.6 219.5 292.1 217.0 293.1 L208.35 289.0 Q207.9 291.95 206.05 293.65 204.05 295.6 201.0 295.6 196.45 295.6 194.55 291.65 193.5 289.45 193.5 287.1 193.5 284.35 194.65 282.0 L173.55 270.6 Q169.5 269.55 167.65 267.3 L157.85 261.8 158.25 290.5 Q161.0 295.7 161.0 300.6 161.0 305.6 158.4 310.3 L158.5 332.85 Q158.5 350.1 145.0 350.1 135.8 350.1 131.05 341.1 128.0 335.3 128.0 330.6 128.0 324.15 128.4 315.1 125.35 312.3 122.5 308.05 119.75 303.95 117.65 299.2 L116.1 295.25 Q110.0 293.9 107.05 288.25 105.85 285.9 105.3 283.05 105.0 281.4 105.0 280.35 105.0 275.65 108.55 272.15 112.15 268.6 117.0 268.6 125.05 268.6 129.05 275.2 L129.55 276.05 130.6 278.25 130.8 275.3 Q132.5 249.75 132.5 236.1 132.5 232.8 130.7 200.15 126.9 203.6 121.0 203.6 112.3 203.6 106.95 199.4 108.0 201.65 108.0 204.35 108.0 208.4 104.5 212.65 100.45 217.6 95.0 217.6 86.2 217.6 83.5 212.25 82.65 210.55 82.5 208.4 L82.5 206.35 Q82.5 202.2 86.05 198.2 90.15 193.6 96.0 193.6 98.8 193.6 100.95 194.3 L103.1 195.2 Q102.25 193.95 101.55 192.5 99.9 189.0 99.25 184.7 L99.0 180.85 Q99.0 176.0 103.0 169.7 108.8 160.6 119.0 160.6 124.65 160.6 128.7 163.75 126.75 124.3 126.55 85.4 121.7 84.55 119.45 80.15 118.0 77.25 118.0 74.1 118.0 61.6 129.0 61.6 L129.2 61.6 Q130.25 59.05 131.7 57.5 132.1 53.2 133.05 49.15 134.2 44.2 136.2 40.4 135.2 39.8 134.5 39.1 134.0 41.1 134.0 36.1 134.0 32.95 135.75 32.15 L139.0 31.6 141.85 33.2 Q146.65 29.05 153.75 28.0 154.2 22.45 155.85 17.25 150.45 23.1 143.0 23.1 130.45 23.1 125.5 12.6 123.9 9.25 123.3 5.15 123.0 3.1 123.0 1.35 123.0 -0.85 123.15 -2.75 L123.15 -2.8 Q123.5 -8.6 125.05 -11.35 129.5 -19.4 144.0 -19.4 L149.1 -18.95 149.0 -19.8 149.0 -22.4 Q149.0 -26.35 150.95 -29.85 154.1 -35.4 161.0 -35.4 M239.25 -6.15 L237.0 -6.4 Q232.5 -7.7 232.5 -11.4 L238.0 -11.9 Q240.0 -13.9 240.0 -8.9 240.0 -5.95 239.25 -6.15 M246.0 30.85 Q246.0 35.25 242.5 37.65 241.2 38.55 239.7 39.05 L241.65 42.15 Q243.9 46.5 244.5 51.1 244.5 57.8 240.1 66.2 233.05 79.6 219.0 79.6 207.4 79.6 202.55 72.2 201.05 69.85 200.35 67.05 L200.0 64.6 Q200.0 63.1 201.55 58.7 203.55 53.0 206.55 48.15 214.55 35.2 226.05 33.8 225.9 33.0 225.9 32.1 L226.0 30.35 Q226.0 26.1 229.5 23.65 232.4 21.6 236.0 21.6 242.75 21.6 245.05 25.95 246.0 27.8 246.0 30.85 M264.0 14.6 Q261.5 16.1 259.0 16.6 253.0 11.45 253.0 11.1 253.0 7.45 259.0 4.6 265.0 10.15 265.0 10.85 L264.0 14.6 M265.0 88.75 Q264.2 86.9 264.05 84.6 L264.0 82.35 Q264.0 78.75 266.5 75.55 269.65 71.6 275.0 71.6 281.6 71.6 284.45 76.7 286.0 79.5 286.0 82.35 286.0 85.05 283.5 89.15 280.15 94.6 275.0 94.6 267.45 94.6 265.0 88.75 M210.95 109.15 Q219.2 92.1 233.0 92.1 245.55 92.1 250.5 101.95 253.0 106.9 253.0 112.35 253.0 114.2 250.55 119.5 L249.75 121.25 Q250.75 122.1 251.5 123.3 253.0 125.75 253.0 128.6 253.0 132.05 251.05 134.65 249.05 137.2 245.45 138.1 250.0 139.7 250.0 146.1 250.0 148.6 248.8 150.3 L258.5 172.1 Q257.5 175.1 255.0 176.1 247.05 166.45 241.6 153.6 236.15 153.5 234.55 150.0 234.0 148.85 234.0 145.85 234.0 143.45 234.7 141.75 228.8 146.6 223.0 146.6 218.5 146.6 215.0 145.1 L214.7 145.5 Q207.6 155.0 199.0 163.6 L197.5 162.6 209.05 140.55 208.0 139.1 Q205.0 134.55 205.0 130.85 205.0 127.8 206.35 122.15 208.05 115.1 210.95 109.15 M190.5 192.1 Q190.5 189.9 192.65 187.8 194.85 185.55 197.0 186.1 203.5 191.4 203.5 192.35 203.5 197.35 202.5 197.6 L197.0 199.1 192.25 195.25 Q190.5 193.55 190.5 192.1 M235.5 178.1 L234.0 182.1 231.0 183.1 227.65 182.25 Q226.5 181.55 226.5 178.35 226.5 175.2 228.0 174.55 L231.0 174.1 Q233.5 175.1 235.5 178.1 M257.0 143.1 Q264.0 148.25 264.0 148.6 264.0 151.45 257.0 156.1 251.5 151.2 251.5 149.85 251.5 147.9 254.25 146.55 257.0 145.25 257.0 143.1 M268.0 143.6 Q271.0 143.6 271.0 143.1 273.5 144.1 274.5 147.1 272.8 149.65 271.0 150.1 L268.3 150.0 Q267.5 149.9 267.5 146.85 L268.0 143.6 M267.0 170.6 Q264.0 169.6 263.5 168.1 265.95 166.45 268.65 167.65 269.05 165.6 270.55 164.15 272.65 162.1 276.0 162.1 281.5 162.1 281.5 169.6 281.5 177.1 275.0 177.1 270.45 177.1 269.05 173.5 268.5 172.2 268.5 169.6 L267.0 170.6 M260.0 184.6 L261.5 184.1 Q264.0 186.0 264.0 188.6 L262.0 189.1 Q262.0 187.6 260.0 184.6 M111.35 47.15 L112.5 48.6 111.35 52.1 Q110.6 52.95 109.2 53.45 107.75 56.2 105.55 59.15 99.35 67.35 90.8 68.8 91.15 71.75 91.0 74.85 91.0 79.2 86.5 83.05 82.4 86.6 79.0 86.6 72.3 86.6 65.35 73.95 L63.0 74.6 Q57.0 69.5 57.0 69.1 57.0 65.65 61.8 63.2 62.55 59.2 65.55 55.65 L67.5 53.6 Q66.5 50.15 66.5 46.6 66.5 38.6 69.95 31.65 75.75 20.1 89.0 20.1 101.1 20.1 107.45 32.1 110.7 38.15 111.5 44.85 L111.35 47.15 M68.0 20.35 Q68.0 24.6 63.55 27.15 60.15 29.1 57.0 29.1 48.5 29.1 48.5 20.6 48.5 18.25 49.55 16.15 51.65 12.1 57.0 12.1 63.8 12.1 66.55 15.95 68.0 18.0 68.0 20.35 M55.05 46.8 Q56.0 48.6 56.0 50.6 56.0 55.6 55.0 55.1 L53.5 56.35 Q52.0 57.6 49.0 57.6 46.0 57.6 45.0 56.9 44.0 55.85 42.5 55.1 42.0 55.6 42.0 50.6 42.0 48.25 43.65 46.15 45.65 43.6 49.0 43.6 53.25 43.6 55.05 46.8 M71.0 90.6 Q77.0 90.6 79.55 95.3 81.0 97.95 81.0 100.6 81.0 103.75 79.0 106.65 76.85 109.7 73.2 110.4 72.95 111.35 72.5 111.1 69.5 112.6 67.0 113.1 L62.25 109.3 Q60.5 107.7 60.5 106.1 60.5 104.9 61.3 103.7 61.0 102.3 61.0 100.6 61.0 97.6 63.0 94.65 65.8 90.6 71.0 90.6 M55.5 108.1 Q55.5 111.2 54.7 112.35 L53.5 113.6 Q53.0 114.1 51.0 114.6 46.5 109.45 46.5 108.35 46.5 105.2 48.0 104.55 L51.0 104.1 54.2 104.6 Q55.5 105.0 55.5 108.1 M50.0 121.1 Q47.5 122.6 45.0 123.6 L41.4 122.35 Q40.0 121.35 40.0 118.1 40.0 114.9 41.55 113.85 L45.0 112.6 Q49.25 114.3 50.0 121.1 M47.0 123.1 Q49.5 124.1 50.5 127.1 49.5 128.6 45.0 131.6 L43.0 131.5 Q42.5 131.4 42.5 128.35 42.5 125.1 44.0 124.05 L45.0 123.65 47.0 123.1 M27.5 108.1 L26.0 112.1 Q28.0 113.1 23.0 113.1 19.9 113.1 19.5 112.4 19.5 111.35 19.0 110.6 18.0 113.35 18.0 108.35 18.0 105.2 19.75 104.55 L23.0 104.1 Q25.5 105.1 27.5 108.1 M63.0 189.1 Q70.5 189.1 70.5 196.85 70.5 200.05 68.05 202.15 65.85 204.1 63.0 204.1 55.5 204.1 55.5 197.1 55.5 193.45 58.05 191.15 60.25 189.1 63.0 189.1 M120.45 106.65 Q122.2 109.5 122.5 112.6 122.5 116.75 119.45 120.15 115.85 124.1 110.0 124.1 102.15 124.1 99.05 118.65 97.5 115.85 97.5 112.6 97.5 108.25 100.0 105.15 103.3 101.1 110.0 101.1 117.05 101.1 120.45 106.65 M90.0 178.6 Q87.5 180.1 85.0 180.6 L79.0 175.1 Q79.0 171.45 85.0 168.6 91.0 174.15 91.0 174.85 L90.0 178.6 M89.1 240.55 Q91.9 236.6 97.0 236.6 103.0 236.6 105.55 241.3 107.0 243.95 107.0 246.6 107.0 249.85 105.1 252.65 102.4 256.6 97.0 256.6 90.4 256.6 88.05 251.9 87.0 249.75 87.0 246.6 87.0 243.5 89.1 240.55 M67.0 332.85 L66.0 336.6 Q63.5 338.1 61.0 338.6 55.0 333.45 55.0 333.1 55.0 329.45 61.0 326.6 67.0 332.15 67.0 332.85 M80.5 330.2 Q88.4 319.6 95.0 319.6 104.55 319.6 107.45 333.3 108.95 340.25 108.5 347.6 108.5 353.25 105.55 359.65 103.6 363.8 101.0 366.15 L102.9 371.75 108.95 392.15 Q112.35 403.95 114.0 408.1 L113.0 409.1 Q104.95 397.85 97.45 380.5 L92.9 369.1 Q87.75 369.1 83.95 366.95 L81.4 372.9 Q82.95 374.0 84.0 375.6 84.0 376.95 82.8 378.6 81.4 380.6 79.0 381.6 L77.85 381.2 68.25 403.75 Q51.0 444.35 39.5 469.1 L38.0 469.1 49.65 435.9 Q57.05 415.05 63.0 400.4 68.55 386.65 74.05 375.35 74.2 373.0 75.55 372.25 L80.0 363.75 Q77.6 361.1 76.05 357.2 73.5 350.95 73.5 343.6 73.5 339.6 80.5 330.2 M70.0 366.35 Q70.0 369.25 68.05 371.6 65.85 374.25 62.0 374.55 61.95 376.6 61.05 378.6 L65.5 380.1 66.5 383.1 Q64.8 385.65 61.0 386.6 58.5 385.6 57.0 384.1 L57.05 383.75 Q54.45 385.6 51.0 385.6 44.25 385.6 41.45 380.5 40.0 377.8 40.0 374.85 40.0 371.2 42.05 368.1 45.0 363.6 51.0 363.6 L53.45 363.8 Q53.8 362.75 54.55 361.7 56.8 358.6 61.0 358.6 69.0 358.6 70.0 366.35 M53.0 354.6 Q50.5 353.6 49.0 352.1 49.0 349.1 54.0 346.6 L57.5 347.6 59.0 350.6 Q58.6 351.75 56.55 353.15 54.45 354.6 53.0 354.6 M89.0 312.85 L88.0 316.6 Q85.5 318.1 83.0 318.6 77.0 313.45 77.0 313.1 77.0 309.45 83.0 306.6 89.0 312.15 89.0 312.85 M121.0 366.6 Q119.0 369.6 115.0 372.6 L112.05 372.1 Q111.0 371.7 111.0 368.6 111.0 366.8 114.0 364.3 117.0 361.8 117.0 362.6 120.1 363.85 121.0 366.6 M85.3 389.35 L83.0 387.1 Q83.0 383.45 89.0 380.6 95.0 386.15 95.0 386.85 L94.8 387.75 Q96.0 388.9 96.0 392.35 L95.5 396.1 94.25 396.85 Q93.0 397.6 90.0 397.6 93.35 400.1 94.0 406.85 94.0 408.6 93.45 410.05 L93.5 410.1 92.8 411.3 Q91.95 412.6 90.55 413.65 87.85 415.6 85.0 415.6 78.4 415.6 76.55 411.25 76.0 409.95 76.0 406.35 76.0 402.55 78.05 399.65 80.55 396.1 85.0 396.1 L85.4 396.1 84.5 395.1 Q84.0 397.1 84.0 392.1 84.0 390.85 85.3 389.35 M153.55 359.7 Q155.0 363.35 155.0 366.85 155.0 371.4 152.0 375.2 148.5 379.6 143.0 379.6 135.45 379.6 132.0 374.5 130.0 371.55 130.0 368.85 130.0 361.7 133.55 357.6 137.45 353.1 145.0 353.1 151.0 353.1 153.55 359.7 M159.85 384.1 L160.0 382.35 Q160.0 378.0 163.55 375.65 166.55 373.6 171.0 373.6 178.55 373.6 181.0 377.95 182.0 379.7 182.0 382.85 182.0 388.4 177.55 390.45 180.0 393.25 182.9 397.5 187.5 404.25 195.0 416.6 L194.0 418.1 Q187.65 415.05 180.05 403.2 175.45 396.0 171.35 391.6 L171.0 391.6 Q162.65 391.6 160.55 387.25 159.85 385.85 159.85 384.1 M276.2 257.1 L275.5 260.1 274.25 260.85 Q273.0 261.6 270.0 261.6 L264.5 260.6 Q264.0 260.35 264.0 255.35 264.0 253.7 266.2 251.15 268.35 248.6 271.0 247.1 276.5 252.15 276.5 252.6 L276.2 257.1 M194.1 217.95 Q195.0 220.0 195.0 222.85 195.0 225.85 192.55 228.15 189.95 230.6 186.0 230.6 180.15 230.6 178.05 226.65 177.0 224.7 177.0 222.1 177.0 220.1 178.65 217.65 181.35 213.6 187.0 213.6 192.2 213.6 194.1 217.95 M215.5 270.6 Q219.0 270.6 219.0 270.1 L222.2 270.6 Q223.5 271.0 223.5 274.1 223.5 277.0 223.2 276.9 222.65 276.75 222.5 277.1 220.8 279.65 219.0 280.1 216.65 279.5 215.8 278.85 214.5 277.85 214.5 274.6 214.5 271.75 214.65 271.65 L215.5 270.6 M232.45 291.05 Q233.0 291.6 233.0 294.6 233.0 299.6 232.5 297.6 L232.3 298.5 Q231.95 299.5 231.0 300.1 228.5 299.1 227.0 297.6 229.25 290.85 231.5 290.1 L232.45 291.05 M239.55 306.95 Q240.5 308.75 240.5 310.35 240.5 316.1 234.0 316.1 L228.5 315.1 228.0 314.15 Q227.5 313.55 227.5 310.6 227.5 309.5 227.9 308.6 226.3 309.75 225.0 310.1 L222.3 310.0 Q221.5 309.9 221.5 306.85 L222.0 303.6 Q225.0 303.6 225.0 303.1 228.2 304.35 229.25 306.45 L229.55 306.15 Q231.75 304.1 235.0 304.1 238.0 304.1 239.55 306.95 M197.0 306.6 Q197.0 309.6 195.55 312.65 193.0 318.1 187.0 318.1 180.4 318.1 178.05 312.65 177.0 310.15 177.0 306.6 177.0 303.5 179.1 300.55 181.9 296.6 187.0 296.6 193.0 296.6 195.55 301.3 197.0 303.95 197.0 306.6 M194.7 382.55 Q196.55 383.15 197.5 384.1 196.7 386.55 195.0 387.1 191.5 386.6 190.5 385.1 L190.5 382.6 Q193.0 382.6 193.0 382.1 L194.7 382.55 M256.0 324.1 Q259.0 322.6 259.0 322.1 L260.7 322.55 Q262.55 323.15 263.5 324.1 262.5 327.1 261.0 328.1 256.75 326.4 256.0 324.1 M278.0 342.6 Q276.65 342.95 274.65 341.35 273.0 340.05 272.0 338.6 L273.5 338.1 Q276.5 340.35 278.0 342.6 M168.5 405.1 L172.0 404.6 Q174.5 407.1 174.5 409.1 L173.0 410.1 Q168.5 408.6 168.5 405.1 M167.0 402.6 Q166.1 405.35 163.0 406.6 160.5 405.6 159.0 404.1 159.0 402.8 160.05 401.15 161.3 399.3 163.0 398.6 166.1 399.85 167.0 402.6 M164.5 424.6 Q167.0 424.6 167.0 424.1 L168.7 424.55 Q170.55 425.15 171.5 426.1 170.7 428.55 169.0 429.1 165.5 428.6 164.5 427.1 L164.5 424.6 M165.55 437.65 Q171.55 444.95 173.0 448.1 L172.0 451.1 Q174.0 452.6 169.0 452.6 168.15 452.6 157.65 441.55 L156.0 441.6 Q151.9 441.6 149.4 440.35 L150.0 441.6 147.2 446.1 Q145.95 447.6 144.0 447.6 L140.0 446.6 Q138.75 446.0 138.45 445.65 138.0 445.25 138.0 442.1 138.0 438.6 139.15 438.0 L144.0 437.6 146.65 437.95 146.05 436.9 Q145.4 435.4 145.4 433.5 L145.5 431.6 Q145.5 427.6 149.1 424.15 152.75 420.6 157.0 420.6 162.2 420.6 163.6 427.2 164.3 430.55 164.0 434.35 L163.95 435.7 165.55 437.65 M190.0 465.6 Q190.0 466.95 188.8 468.6 L187.05 470.45 185.0 471.6 Q182.0 470.6 180.5 469.1 180.0 471.1 180.0 466.1 180.0 462.95 181.75 462.15 L185.0 461.6 Q186.1 462.05 187.05 462.65 188.8 463.8 190.0 465.6 M146.5 409.6 L141.0 411.1 136.25 407.3 Q134.5 405.7 134.5 404.1 134.5 401.85 136.65 399.7 138.85 397.4 141.0 398.1 147.5 403.05 147.5 404.35 147.5 409.35 146.5 409.6 M106.0 408.1 Q109.15 408.1 110.25 409.55 110.9 410.35 111.5 412.1 L111.5 415.1 Q109.5 417.1 102.0 417.1 L101.25 416.25 Q100.5 415.35 100.5 412.35 100.5 408.85 101.4 408.35 L106.0 408.1 M159.0 460.85 Q159.0 462.25 156.9 464.65 154.35 467.4 151.0 468.6 L145.0 463.1 Q145.0 462.25 146.65 460.05 149.0 457.0 153.0 454.6 159.0 459.8 159.0 460.85 M55.5 404.1 L56.5 407.1 55.0 409.6 48.5 410.1 48.0 410.0 Q47.5 409.85 47.5 406.85 L48.0 403.6 52.0 403.1 55.5 404.1 M40.5 415.1 Q43.85 415.1 45.5 416.1 45.0 417.6 43.0 418.6 40.5 417.6 40.5 415.1" fill="url(#gradient1)" fill-rule="evenodd" stroke="none"/>
  </g>
  <defs>
    <radialGradient cx="0" cy="0" gradientTransform="matrix(0.6063, 0.0, 0.0, 0.6151, 398.15, 286.0)" gradientUnits="userSpaceOnUse" id="gradient0" r="819.2" spreadMethod="pad">
      <stop offset="0.0" stop-color="#673232"/>
      <stop offset="1.0" stop-color="#241717"/>
    </radialGradient>
    <radialGradient cx="0" cy="0" gradientTransform="matrix(0.4438, 0.0, 0.0, 0.4438, 152.0, 322.1)" gradientUnits="userSpaceOnUse" id="gradient1" r="819.2" spreadMethod="pad">
      <stop offset="0.0" stop-color="#d38434"/>
      <stop offset="1.0" stop-color="#712828"/>
    </radialGradient>
  </defs>
</svg>
