<?xml version="1.0" encoding="UTF-8" standalone="no"?>
<svg xmlns:ffdec="https://www.free-decompiler.com/flash" xmlns:xlink="http://www.w3.org/1999/xlink" ffdec:objectType="shape" height="27.1px" width="17.55px" xmlns="http://www.w3.org/2000/svg">
  <g transform="matrix(1.0, 0.0, 0.0, 1.0, 7.95, 18.1)">
    <path d="M5.45 -15.2 L5.5 -15.15 Q8.35 -12.9 8.3 -9.7 8.3 -6.85 6.75 -5.15 9.6 -3.2 9.6 1.1 9.6 3.95 7.35 6.35 4.75 9.0 0.75 9.0 -2.9 9.0 -6.0 6.9 L-6.25 6.65 -7.5 5.9 -7.8 5.55 -7.95 5.05 -7.95 1.6 -7.7 0.95 Q-7.5 0.7 -7.1 0.65 L-6.45 0.75 Q-3.25 2.5 -0.75 2.55 0.65 2.55 1.6 1.6 2.4 0.8 2.45 0.0 2.45 -1.05 1.95 -1.75 L0.6 -1.95 -1.45 -1.95 Q-1.85 -1.95 -2.15 -2.25 L-2.45 -2.95 -2.95 -2.95 Q-3.35 -2.95 -3.65 -3.25 L-3.95 -3.95 -3.95 -7.5 -3.65 -8.2 -2.95 -8.5 -0.95 -8.5 Q-0.05 -8.5 0.6 -9.05 L0.65 -9.05 Q1.2 -9.7 1.2 -10.6 L1.0 -11.7 0.8 -11.7 -1.0 -11.35 -3.2 -10.55 -3.85 -10.55 -4.4 -10.9 -4.6 -11.5 -4.6 -11.6 -4.7 -11.55 -5.35 -11.55 Q-5.7 -11.65 -5.9 -11.9 L-6.1 -12.5 -6.1 -15.85 -5.95 -16.35 -5.55 -16.7 Q-3.05 -18.1 -0.65 -18.1 2.05 -18.1 3.55 -16.6 4.65 -16.15 5.45 -15.2" fill="#000000" fill-rule="evenodd" stroke="none"/>
  </g>
</svg>
