<?xml version="1.0" encoding="UTF-8" standalone="no"?>
<svg xmlns:ffdec="https://www.free-decompiler.com/flash" xmlns:xlink="http://www.w3.org/1999/xlink" ffdec:objectType="shape" height="42.25px" width="349.8px" xmlns="http://www.w3.org/2000/svg">
  <g transform="matrix(1.0, 0.0, 0.0, 1.0, -7.65, -519.35)">
    <path d="M220.65 521.9 L218.9 522.2 Q218.75 521.6 218.25 521.2 217.75 520.85 217.0 520.85 215.85 520.85 215.2 521.55 214.5 522.3 214.5 523.7 214.5 525.25 215.2 526.0 215.85 526.75 216.95 526.75 L218.05 526.55 219.0 526.05 219.0 524.95 217.0 524.95 217.0 523.5 220.75 523.5 220.75 526.9 219.2 527.85 217.1 528.25 Q215.75 528.25 214.75 527.7 213.75 527.1 213.25 526.05 212.7 525.0 212.7 523.8 212.7 522.45 213.3 521.4 213.85 520.35 214.95 519.8 215.75 519.35 217.0 519.35 218.6 519.35 219.5 520.05 220.4 520.7 220.65 521.9 M221.95 526.4 Q221.95 525.85 222.2 525.45 L222.9 524.85 225.8 524.05 225.8 523.9 225.55 523.2 224.7 523.0 224.0 523.15 223.6 523.8 222.1 523.5 Q222.35 522.6 222.95 522.15 L224.8 521.75 226.45 522.0 227.2 522.65 Q227.4 523.05 227.4 524.15 L227.5 527.25 227.75 528.1 226.15 528.1 226.0 527.6 225.9 527.4 225.0 528.05 224.0 528.25 Q223.05 528.25 222.5 527.7 221.95 527.2 221.95 526.4 M208.95 522.05 L208.45 523.5 207.7 523.2 Q207.35 523.2 207.1 523.4 206.85 523.6 206.75 524.1 206.6 524.6 206.6 526.2 L206.6 528.1 204.95 528.1 204.95 521.9 206.45 521.9 206.45 522.75 207.2 521.95 207.9 521.75 208.95 522.05 M203.7 524.95 Q203.7 526.4 202.8 527.3 201.9 528.25 200.5 528.25 L198.85 527.85 Q198.1 527.45 197.7 526.7 197.3 525.95 197.3 524.9 197.3 524.1 197.7 523.3 198.1 522.55 198.85 522.15 199.55 521.75 200.5 521.75 201.9 521.75 202.8 522.65 203.7 523.55 203.7 524.95 M240.9 524.45 L243.35 524.45 Q243.35 523.75 243.0 523.35 242.65 523.0 242.15 523.0 241.6 523.0 241.25 523.4 240.9 523.8 240.9 524.45 M242.05 521.75 Q243.4 521.75 244.25 522.65 245.05 523.55 245.0 525.45 L240.85 525.45 Q240.9 526.2 241.25 526.6 241.65 527.0 242.2 527.0 L242.85 526.8 243.25 526.1 244.9 526.4 Q244.6 527.3 243.9 527.75 L242.2 528.25 Q240.6 528.25 239.8 527.2 239.2 526.35 239.2 525.05 239.2 523.5 240.0 522.6 240.8 521.75 242.05 521.75 M237.15 522.0 L237.85 522.85 238.05 524.1 238.05 528.1 236.4 528.1 236.4 524.55 Q236.4 523.6 236.2 523.35 236.0 523.0 235.5 523.0 L234.85 523.2 234.45 523.85 Q234.3 524.25 234.3 525.1 L234.3 528.1 232.65 528.1 232.55 523.5 232.3 523.15 231.8 523.0 231.1 523.2 Q230.8 523.4 230.65 523.8 L230.55 528.1 228.9 528.1 228.9 521.9 230.4 521.9 230.4 522.75 Q231.2 521.75 232.35 521.75 L233.4 522.0 234.1 522.75 235.0 522.0 236.0 521.75 237.15 522.0 M223.9 525.65 Q223.55 525.9 223.55 526.25 223.55 526.6 223.85 526.85 L224.5 527.1 225.35 526.8 225.75 526.25 225.8 525.1 223.9 525.65 M178.05 519.5 L181.45 528.1 179.6 528.1 178.85 526.15 175.4 526.15 174.7 528.1 172.85 528.1 176.2 519.5 178.05 519.5 M177.1 521.5 L175.95 524.7 178.3 524.7 177.1 521.5 M169.45 521.9 L166.85 528.95 166.45 529.8 166.0 530.25 165.35 530.55 164.5 530.65 163.6 530.55 163.45 529.25 164.15 529.3 165.0 529.0 165.4 528.1 163.05 521.9 164.8 521.9 166.25 526.3 167.75 521.9 169.45 521.9 M201.6 523.55 Q201.15 523.1 200.5 523.1 199.85 523.1 199.4 523.55 198.95 524.05 198.95 525.0 198.95 525.9 199.4 526.4 199.85 526.9 200.5 526.9 201.15 526.9 201.6 526.4 202.0 525.9 202.0 525.0 202.0 524.05 201.6 523.55 M192.85 523.2 L192.45 523.85 Q192.3 524.25 192.3 525.1 L192.3 528.1 190.65 528.1 190.55 523.5 190.3 523.15 189.8 523.0 189.1 523.2 Q188.8 523.4 188.65 523.8 L188.55 528.1 186.9 528.1 186.9 521.9 188.4 521.9 188.4 522.75 Q189.2 521.75 190.35 521.75 L191.4 522.0 192.1 522.75 193.0 522.0 194.0 521.75 195.15 522.0 195.85 522.85 196.05 524.1 196.05 528.1 194.4 528.1 194.4 524.55 Q194.4 523.6 194.2 523.35 194.0 523.0 193.5 523.0 L192.85 523.2 M186.3 522.05 L185.8 523.5 Q185.4 523.2 185.05 523.2 184.7 523.2 184.45 523.4 184.2 523.6 184.1 524.1 183.95 524.6 183.95 526.2 L183.95 528.1 182.3 528.1 182.3 521.9 183.8 521.9 183.8 522.75 184.55 521.95 185.25 521.75 186.3 522.05 M195.5 556.65 L195.5 559.5 194.6 559.5 194.6 554.3 195.4 554.3 195.4 555.05 Q195.95 554.2 197.05 554.2 L197.9 554.35 198.5 554.8 198.75 555.45 198.8 559.5 197.95 559.5 197.95 556.35 197.85 555.55 197.5 555.1 196.85 554.95 Q196.3 554.95 195.9 555.3 195.5 555.65 195.5 556.65 M200.95 555.05 Q201.5 554.2 202.6 554.2 L203.45 554.35 204.05 554.8 204.3 555.45 204.35 559.5 203.5 559.5 203.5 556.35 203.4 555.55 203.05 555.1 202.4 554.95 Q201.85 554.95 201.45 555.3 201.05 555.65 201.05 556.65 L201.05 559.5 200.15 559.5 200.15 554.3 200.95 554.3 200.95 555.05 M185.65 553.35 L184.4 553.2 182.9 553.2 182.9 558.65 184.45 558.65 185.55 558.5 186.2 558.15 186.75 557.25 186.9 555.85 Q186.9 554.75 186.55 554.15 186.2 553.55 185.65 553.35 M186.75 552.95 L187.6 554.2 187.9 555.9 187.7 557.35 187.2 558.35 186.55 559.0 185.7 559.4 181.95 559.5 181.95 552.35 185.7 552.45 186.75 552.95 M191.2 554.2 Q192.25 554.2 192.9 554.9 193.55 555.6 193.55 556.9 L193.55 557.15 189.65 557.15 Q189.7 558.0 190.15 558.45 190.6 558.9 191.25 558.9 L192.05 558.65 192.6 557.85 193.5 557.95 Q193.3 558.75 192.7 559.2 192.15 559.6 191.25 559.6 190.1 559.6 189.45 558.9 188.75 558.2 188.75 556.95 188.75 555.65 189.45 554.9 190.1 554.2 191.2 554.2 M189.7 556.4 L192.6 556.4 Q192.55 555.75 192.3 555.45 191.85 554.9 191.2 554.9 190.6 554.9 190.2 555.35 189.75 555.75 189.7 556.4 M175.25 554.3 L176.3 558.3 177.5 554.3 178.35 554.3 176.7 559.5 175.8 559.5 174.8 555.5 173.75 559.5 172.8 559.5 171.25 554.3 172.15 554.3 173.25 558.4 174.35 554.3 175.25 554.3 M163.95 555.75 L163.85 556.8 163.85 559.5 162.95 559.5 162.95 554.3 163.75 554.3 163.75 555.1 164.3 554.35 164.85 554.2 Q165.3 554.2 165.75 554.5 L165.45 555.3 164.8 555.1 164.3 555.3 Q164.05 555.45 163.95 555.75 M168.45 554.9 Q167.85 554.9 167.45 555.35 167.0 555.75 166.95 556.4 L169.85 556.4 Q169.8 555.75 169.55 555.45 169.1 554.9 168.45 554.9 M170.15 554.9 Q170.8 555.6 170.8 556.9 L170.8 557.15 166.9 557.15 Q166.95 558.0 167.4 558.45 167.85 558.9 168.5 558.9 L169.3 558.65 169.85 557.85 170.75 557.95 Q170.55 558.75 169.95 559.2 169.4 559.6 168.5 559.6 167.35 559.6 166.7 558.9 166.0 558.2 166.0 556.95 166.0 555.65 166.7 554.9 167.35 554.2 168.45 554.2 169.5 554.2 170.15 554.9 M236.8 552.5 L236.8 554.3 237.7 554.3 237.7 555.0 236.8 555.0 236.8 558.05 236.85 558.5 237.0 558.7 237.3 558.75 237.7 558.7 237.8 559.5 237.15 559.55 236.4 559.4 236.05 559.0 Q235.9 558.75 235.9 558.0 L235.9 555.0 235.3 555.0 235.3 554.3 235.9 554.3 235.9 553.05 236.8 552.5 M235.2 554.5 L234.9 555.3 234.25 555.1 233.75 555.3 Q233.5 555.45 233.4 555.75 L233.3 556.8 233.3 559.5 232.4 559.5 232.4 554.3 233.2 554.3 233.2 555.1 Q233.5 554.55 233.75 554.35 L234.3 554.2 Q234.75 554.2 235.2 554.5 M241.65 552.35 L241.65 553.35 240.75 553.35 240.75 552.35 241.65 552.35 M239.45 552.35 L239.45 553.35 238.55 553.35 238.55 552.35 239.45 552.35 M239.45 554.3 L239.45 559.5 238.55 559.5 238.55 554.3 239.45 554.3 M241.65 554.3 L241.65 559.8 241.4 561.1 Q241.05 561.6 240.35 561.6 L239.65 561.5 239.8 560.75 240.2 560.85 Q240.5 560.85 240.6 560.65 L240.75 559.75 240.75 554.3 241.65 554.3 M225.4 552.35 L225.4 559.5 224.5 559.5 224.5 553.5 222.45 559.5 221.6 559.5 219.5 553.4 219.5 559.5 218.6 559.5 218.6 552.35 220.0 552.35 222.05 558.45 224.15 552.35 225.4 552.35 M226.7 555.8 L227.1 554.9 Q227.35 554.55 227.85 554.4 L229.05 554.2 230.15 554.35 Q230.55 554.5 230.75 554.75 L231.0 555.35 231.1 558.9 231.35 559.5 230.4 559.5 230.25 558.85 229.3 559.45 228.35 559.6 Q227.5 559.6 227.0 559.2 226.55 558.8 226.55 558.15 L226.75 557.45 227.2 556.95 Q227.45 556.75 227.8 556.65 L230.15 556.2 230.15 556.0 229.95 555.2 Q229.6 554.9 228.9 554.9 228.3 554.9 228.0 555.15 227.7 555.35 227.55 555.9 L226.7 555.8 M227.95 557.4 L227.6 557.7 227.5 558.1 227.75 558.7 228.55 558.95 229.45 558.7 230.05 558.1 230.15 557.2 230.15 556.9 227.95 557.4 M205.7 552.35 L206.6 552.35 206.6 553.35 205.7 553.35 205.7 552.35 M206.6 554.3 L206.6 559.5 205.7 559.5 205.7 554.3 206.6 554.3 M209.6 554.2 L210.7 554.35 211.35 554.85 211.65 555.65 210.8 555.75 210.45 555.15 209.7 554.9 208.8 555.1 Q208.55 555.3 208.55 555.6 L208.65 555.9 209.0 556.15 211.1 556.75 Q211.45 556.9 211.65 557.2 L211.85 558.0 211.6 558.8 210.85 559.4 209.75 559.6 Q208.75 559.6 208.25 559.2 207.7 558.8 207.55 557.95 L208.45 557.8 Q208.5 558.35 208.85 558.6 L209.75 558.9 210.65 558.65 210.95 558.05 210.7 557.6 208.45 556.9 207.9 556.4 207.7 555.7 Q207.7 555.35 207.85 555.05 L208.3 554.55 Q208.5 554.4 208.85 554.3 L209.6 554.2 M214.15 559.5 L213.95 560.4 213.3 560.9 213.1 560.55 213.5 560.2 213.65 559.5 213.15 559.5 213.15 558.5 214.15 558.5 214.15 559.5 M251.05 524.95 Q251.55 525.35 251.55 526.15 251.55 527.0 250.85 527.65 250.1 528.25 248.7 528.25 247.45 528.25 246.7 527.75 245.95 527.2 245.75 526.3 L247.4 526.05 247.8 526.8 248.7 527.05 249.65 526.8 249.9 526.4 249.75 526.05 246.7 525.05 Q245.95 524.55 245.95 523.65 245.95 522.85 246.6 522.3 247.25 521.75 248.6 521.75 L250.5 522.15 Q251.1 522.55 251.35 523.4 L249.8 523.65 249.4 523.1 248.6 522.9 247.7 523.1 247.5 523.45 247.65 523.75 249.2 524.2 Q250.5 524.5 251.05 524.95 M274.6 556.25 L276.75 559.5 275.7 559.5 273.95 556.85 273.35 557.45 273.35 559.5 272.45 559.5 272.45 552.35 273.35 552.35 273.35 556.4 275.4 554.3 276.55 554.3 274.6 556.25 M281.3 554.9 Q281.95 555.6 281.95 556.9 L281.95 557.15 278.05 557.15 Q278.1 558.0 278.55 558.45 279.0 558.9 279.65 558.9 L280.45 558.65 281.0 557.85 281.9 557.95 Q281.7 558.75 281.1 559.2 L279.65 559.6 Q278.5 559.6 277.85 558.9 277.15 558.2 277.15 556.95 277.15 555.65 277.85 554.9 278.5 554.2 279.6 554.2 280.65 554.2 281.3 554.9 M278.6 555.35 Q278.15 555.75 278.1 556.4 L281.0 556.4 Q280.95 555.75 280.7 555.45 280.25 554.9 279.6 554.9 279.0 554.9 278.6 555.35 M264.45 555.2 Q264.1 554.9 263.4 554.9 L262.5 555.15 Q262.2 555.35 262.05 555.9 L261.2 555.8 261.6 554.9 Q261.85 554.55 262.35 554.4 L263.55 554.2 264.65 554.35 Q265.05 554.5 265.25 554.75 L265.5 555.35 265.6 558.9 265.85 559.5 264.9 559.5 264.75 558.85 263.8 559.45 262.85 559.6 Q262.0 559.6 261.5 559.2 261.05 558.8 261.05 558.15 L261.25 557.45 261.7 556.95 Q261.95 556.75 262.3 556.65 L264.65 556.2 264.65 556.0 264.45 555.2 M267.8 556.65 L267.8 559.5 266.9 559.5 266.9 554.3 267.7 554.3 267.7 555.05 Q268.25 554.2 269.35 554.2 L270.2 554.35 270.8 554.8 271.05 555.45 271.1 559.5 270.25 559.5 270.25 556.35 270.15 555.55 269.8 555.1 269.15 554.95 Q268.6 554.95 268.2 555.3 267.8 555.65 267.8 556.65 M264.65 557.2 L264.65 556.9 262.45 557.4 262.1 557.7 262.0 558.1 262.25 558.7 263.05 558.95 263.95 558.7 264.55 558.1 264.65 557.2 M283.0 554.3 L283.8 554.3 283.8 555.05 Q284.35 554.2 285.45 554.2 L286.3 554.35 286.9 554.8 287.15 555.45 287.2 559.5 286.35 559.5 286.35 556.35 286.25 555.55 285.9 555.1 285.25 554.95 Q284.7 554.95 284.3 555.3 283.9 555.65 283.9 556.65 L283.9 559.5 283.0 559.5 283.0 554.3 M257.3 552.35 L254.5 559.5 253.5 559.5 250.75 552.35 251.75 552.35 254.0 558.7 256.35 552.35 257.3 552.35 M258.9 556.8 L258.9 559.5 258.0 559.5 258.0 554.3 258.8 554.3 258.8 555.1 259.35 554.35 259.9 554.2 260.8 554.5 260.5 555.3 259.85 555.1 259.35 555.3 259.0 555.75 258.9 556.8 M243.8 555.05 Q244.35 554.2 245.45 554.2 L246.3 554.35 246.9 554.8 247.15 555.45 247.2 559.5 246.35 559.5 246.35 556.35 246.25 555.55 245.9 555.1 245.25 554.95 Q244.7 554.95 244.3 555.3 243.9 555.65 243.9 556.65 L243.9 559.5 243.0 559.5 243.0 554.3 243.8 554.3 243.8 555.05 M315.25 554.2 Q315.95 554.2 316.45 554.55 L317.2 555.5 317.45 556.85 317.2 558.3 316.35 559.3 315.2 559.6 314.4 559.45 313.85 558.95 313.85 561.5 312.95 561.5 312.95 554.3 313.75 554.3 313.75 555.0 314.4 554.4 315.25 554.2 M314.2 555.4 Q313.75 555.95 313.75 556.95 313.75 557.95 314.15 558.4 314.55 558.9 315.15 558.9 315.75 558.9 316.15 558.4 316.55 557.9 316.55 556.85 316.55 555.85 316.15 555.4 315.75 554.9 315.2 554.9 314.6 554.9 314.2 555.4 M319.3 555.0 L319.95 554.4 320.8 554.2 Q321.5 554.2 322.0 554.55 L322.75 555.5 323.0 556.85 322.75 558.3 321.9 559.3 320.75 559.6 319.95 559.45 319.4 558.95 319.4 561.5 318.5 561.5 318.5 554.3 319.3 554.3 319.3 555.0 M319.75 555.4 Q319.3 555.95 319.3 556.95 319.3 557.95 319.7 558.4 320.1 558.9 320.7 558.9 321.3 558.9 321.7 558.4 322.1 557.9 322.1 556.85 322.1 555.85 321.7 555.4 321.3 554.9 320.75 554.9 320.15 554.9 319.75 555.4 M307.25 554.3 L307.25 559.5 306.35 559.5 306.35 554.3 307.25 554.3 M306.35 552.35 L307.25 552.35 307.25 553.35 306.35 553.35 306.35 552.35 M303.85 555.25 Q303.6 554.95 303.05 554.95 L302.35 555.15 Q302.0 555.35 301.85 555.7 301.7 556.05 301.7 556.65 L301.7 559.5 300.8 559.5 300.8 552.35 301.7 552.35 301.7 554.9 Q302.3 554.2 303.25 554.2 L304.25 554.45 304.85 555.05 305.05 556.2 305.05 559.5 304.15 559.5 304.15 556.2 Q304.15 555.55 303.85 555.25 M310.75 552.35 L311.65 552.35 311.65 553.35 310.75 553.35 310.75 552.35 M311.65 554.3 L311.65 559.5 310.75 559.5 310.75 554.3 311.65 554.3 M309.4 552.35 L309.4 559.5 308.55 559.5 308.55 552.35 309.4 552.35 M297.95 553.25 L295.2 553.2 295.2 555.75 297.05 555.75 Q298.0 555.75 298.35 555.4 298.75 555.05 298.75 554.45 L298.55 553.65 297.95 553.25 M298.05 552.4 Q298.6 552.5 298.95 552.75 L299.5 553.45 299.75 554.4 Q299.75 555.35 299.15 555.95 298.55 556.6 297.05 556.6 L295.2 556.6 295.2 559.5 294.25 559.5 294.25 552.35 298.05 552.4 M288.8 559.5 L288.8 558.5 289.8 558.5 289.8 559.5 289.6 560.4 288.95 560.9 288.75 560.55 289.15 560.2 289.3 559.5 288.8 559.5 M66.65 519.5 L66.65 528.1 65.15 528.1 65.15 527.2 64.25 528.0 63.2 528.25 Q62.1 528.25 61.35 527.4 60.6 526.5 60.6 524.95 60.6 523.4 61.35 522.55 62.1 521.75 63.2 521.75 64.25 521.75 65.0 522.6 L65.0 519.5 66.65 519.5 M59.65 525.45 L55.5 525.45 Q55.55 526.2 55.9 526.6 56.3 527.0 56.85 527.0 L57.5 526.8 57.9 526.1 59.55 526.4 Q59.25 527.3 58.55 527.75 57.85 528.25 56.85 528.25 55.25 528.25 54.45 527.2 53.85 526.35 53.85 525.05 53.85 523.5 54.65 522.6 55.45 521.75 56.7 521.75 58.05 521.75 58.9 522.65 59.7 523.55 59.65 525.45 M57.65 523.35 Q57.3 523.0 56.8 523.0 56.25 523.0 55.9 523.4 55.55 523.8 55.55 524.45 L58.0 524.45 Q58.0 523.75 57.65 523.35 M53.0 524.95 Q53.0 526.5 52.2 527.4 51.45 528.25 50.4 528.25 L49.45 528.05 48.55 527.35 48.55 530.45 46.9 530.45 46.9 521.9 48.45 521.9 48.45 522.8 49.25 522.05 Q49.75 521.75 50.4 521.75 51.45 521.75 52.25 522.6 53.0 523.45 53.0 524.95 M50.9 523.5 Q50.5 523.05 49.95 523.05 49.35 523.05 48.95 523.5 48.55 523.95 48.55 524.9 48.55 525.95 48.95 526.45 49.4 526.95 49.95 526.95 50.55 526.95 50.95 526.5 51.3 526.0 51.3 524.95 51.3 524.0 50.9 523.5 M42.45 521.75 Q43.85 521.75 44.75 522.65 45.65 523.55 45.65 524.95 45.65 526.4 44.75 527.3 43.85 528.25 42.45 528.25 41.6 528.25 40.8 527.85 40.05 527.45 39.65 526.7 39.25 525.95 39.25 524.9 39.25 524.1 39.65 523.3 40.05 522.55 40.8 522.15 41.5 521.75 42.45 521.75 M43.55 523.55 Q43.1 523.1 42.45 523.1 41.8 523.1 41.35 523.55 40.9 524.05 40.9 525.0 40.9 525.9 41.35 526.4 41.8 526.9 42.45 526.9 43.1 526.9 43.55 526.4 43.95 525.9 43.95 525.0 43.95 524.05 43.55 523.55 M76.7 524.15 L76.8 527.25 77.05 528.1 75.45 528.1 75.3 527.6 75.2 527.4 74.3 528.05 73.3 528.25 Q72.35 528.25 71.8 527.7 71.25 527.2 71.25 526.4 71.25 525.85 71.5 525.45 71.75 525.05 72.2 524.85 L75.1 524.05 75.1 523.9 74.85 523.2 74.0 523.0 73.3 523.15 72.9 523.8 71.4 523.5 Q71.65 522.6 72.25 522.15 L74.1 521.75 75.75 522.0 76.5 522.65 Q76.7 523.05 76.7 524.15 M79.95 525.3 L79.95 528.1 78.3 528.1 78.3 521.9 79.85 521.9 79.85 522.8 Q80.65 521.75 81.9 521.75 L82.9 521.95 Q83.35 522.15 83.55 522.45 L83.9 523.15 83.95 528.1 82.35 528.1 82.35 524.9 82.2 523.6 81.9 523.15 81.3 523.0 Q80.9 523.0 80.55 523.25 80.2 523.45 80.1 523.85 79.95 524.25 79.95 525.3 M73.2 525.65 Q72.85 525.9 72.85 526.25 72.85 526.6 73.15 526.85 73.4 527.1 73.8 527.1 L74.65 526.8 75.05 526.25 75.1 525.1 73.2 525.65 M62.25 524.85 Q62.25 525.85 62.55 526.3 62.95 526.95 63.65 526.95 64.25 526.95 64.65 526.45 65.05 525.95 65.05 525.0 65.05 523.95 64.65 523.45 64.25 523.0 63.65 523.0 63.05 523.0 62.65 523.45 62.25 523.95 62.25 524.85 M37.9 519.5 L37.9 528.1 36.25 528.1 36.25 519.5 37.9 519.5 M12.45 519.65 L13.75 520.45 14.6 521.85 14.85 523.9 14.6 525.7 13.7 527.25 Q13.25 527.65 12.45 527.9 L10.95 528.1 7.65 528.1 7.65 519.5 12.45 519.65 M16.65 522.6 Q17.45 521.75 18.7 521.75 20.05 521.75 20.9 522.65 21.7 523.55 21.65 525.45 L17.5 525.45 Q17.55 526.2 17.9 526.6 18.3 527.0 18.85 527.0 L19.5 526.8 19.9 526.1 21.55 526.4 Q21.25 527.3 20.55 527.75 19.85 528.25 18.85 528.25 17.25 528.25 16.45 527.2 15.85 526.35 15.85 525.05 15.85 523.5 16.65 522.6 M20.0 524.45 Q20.0 523.75 19.65 523.35 19.3 523.0 18.8 523.0 18.25 523.0 17.9 523.4 17.55 523.8 17.55 524.45 L20.0 524.45 M13.1 523.8 L12.9 522.3 12.4 521.45 Q12.1 521.15 11.6 521.05 L9.4 520.95 9.4 526.65 11.75 526.55 12.45 526.2 12.9 525.4 13.1 523.8 M30.8 525.45 Q30.85 526.2 31.2 526.6 31.6 527.0 32.15 527.0 L32.8 526.8 33.2 526.1 34.85 526.4 Q34.55 527.3 33.85 527.75 33.15 528.25 32.15 528.25 30.55 528.25 29.75 527.2 29.15 526.35 29.15 525.05 29.15 523.5 29.95 522.6 30.75 521.75 32.0 521.75 33.35 521.75 34.2 522.65 35.0 523.55 34.95 525.45 L30.8 525.45 M31.2 523.4 Q30.85 523.8 30.85 524.45 L33.3 524.45 Q33.3 523.75 32.95 523.35 32.6 523.0 32.1 523.0 31.55 523.0 31.2 523.4 M28.65 521.9 L26.15 528.1 24.65 528.1 22.15 521.9 23.9 521.9 25.4 526.1 26.95 521.9 28.65 521.9 M39.85 554.9 Q40.1 554.55 40.6 554.4 L41.8 554.2 42.9 554.35 Q43.3 554.5 43.5 554.75 L43.75 555.35 43.85 558.9 44.1 559.5 43.15 559.5 43.0 558.85 42.05 559.45 41.1 559.6 Q40.25 559.6 39.75 559.2 39.3 558.8 39.3 558.15 L39.5 557.45 Q39.65 557.1 39.95 556.95 L40.55 556.65 42.9 556.2 42.9 556.0 42.7 555.2 Q42.35 554.9 41.65 554.9 L40.75 555.15 Q40.45 555.35 40.3 555.9 L39.45 555.8 39.85 554.9 M32.6 552.35 L32.6 557.2 32.4 558.6 31.7 559.35 30.6 559.6 Q29.65 559.6 29.15 559.1 28.65 558.55 28.7 557.45 L29.55 557.35 Q29.6 558.15 29.85 558.45 30.1 558.8 30.6 558.8 L31.2 558.6 31.6 558.15 31.7 557.25 31.7 552.35 32.6 552.35 M34.9 554.3 L34.95 558.1 35.3 558.65 36.0 558.85 36.75 558.65 37.2 558.1 37.35 557.1 37.35 554.3 38.25 554.3 38.25 559.5 37.45 559.5 37.45 558.75 Q36.85 559.6 35.8 559.6 L34.95 559.45 34.35 559.0 Q34.15 558.75 34.1 558.35 L34.05 554.3 34.9 554.3 M21.5 555.05 Q22.05 554.2 23.15 554.2 L24.0 554.35 24.6 554.8 24.85 555.45 24.9 559.5 24.05 559.5 24.05 556.35 23.95 555.55 23.6 555.1 22.95 554.95 Q22.4 554.95 22.0 555.3 21.6 555.65 21.6 556.65 L21.6 559.5 20.7 559.5 20.7 554.3 21.5 554.3 21.5 555.05 M40.25 558.1 L40.5 558.7 41.3 558.95 42.2 558.7 42.8 558.1 42.9 557.2 42.9 556.9 40.7 557.4 40.35 557.7 40.25 558.1 M11.35 555.25 L14.5 559.5 13.25 559.5 10.7 555.9 9.55 557.0 9.55 559.5 8.6 559.5 8.6 552.35 9.55 552.35 9.55 555.9 13.1 552.35 14.35 552.35 11.35 555.25 M18.5 552.35 L19.4 552.35 19.4 553.35 18.5 553.35 18.5 552.35 M17.05 554.2 L17.95 554.5 17.65 555.3 17.0 555.1 16.5 555.3 Q16.25 555.45 16.15 555.75 L16.05 556.8 16.05 559.5 15.15 559.5 15.15 554.3 15.95 554.3 15.95 555.1 Q16.25 554.55 16.5 554.35 L17.05 554.2 M19.4 554.3 L19.4 559.5 18.5 559.5 18.5 554.3 19.4 554.3 M71.5 555.35 L71.6 558.9 71.85 559.5 70.9 559.5 70.75 558.85 69.8 559.45 68.85 559.6 Q68.0 559.6 67.5 559.2 67.05 558.8 67.05 558.15 L67.25 557.45 67.7 556.95 Q67.95 556.75 68.3 556.65 L70.65 556.2 70.65 556.0 70.45 555.2 Q70.1 554.9 69.4 554.9 68.8 554.9 68.5 555.15 68.2 555.35 68.05 555.9 L67.2 555.8 67.6 554.9 Q67.85 554.55 68.35 554.4 L69.55 554.2 70.65 554.35 Q71.05 554.5 71.25 554.75 L71.5 555.35 M73.7 554.3 L73.7 555.05 Q74.25 554.2 75.35 554.2 L76.2 554.35 76.8 554.8 77.05 555.45 77.1 559.5 76.25 559.5 76.25 556.35 76.15 555.55 75.8 555.1 75.15 554.95 Q74.6 554.95 74.2 555.3 73.8 555.65 73.8 556.65 L73.8 559.5 72.9 559.5 72.9 554.3 73.7 554.3 M79.35 553.35 L78.45 553.35 78.45 552.35 79.35 552.35 79.35 553.35 M79.35 554.3 L79.35 559.5 78.45 559.5 78.45 554.3 79.35 554.3 M62.7 552.35 L62.7 554.9 Q63.3 554.2 64.25 554.2 L65.25 554.45 65.85 555.05 66.05 556.2 66.05 559.5 65.15 559.5 65.15 556.2 Q65.15 555.55 64.85 555.25 64.6 554.95 64.05 554.95 L63.35 555.15 62.85 555.7 Q62.7 556.05 62.7 556.65 L62.7 559.5 61.8 559.5 61.8 552.35 62.7 552.35 M68.45 557.4 L68.1 557.7 68.0 558.1 68.25 558.7 69.05 558.95 69.95 558.7 70.55 558.1 70.65 557.2 70.65 556.9 68.45 557.4 M80.65 555.45 L81.5 554.5 Q82.1 554.2 82.75 554.2 83.6 554.2 84.15 554.65 84.65 555.05 84.8 555.85 L83.95 555.95 83.55 555.2 Q83.25 554.9 82.8 554.9 82.1 554.9 81.7 555.4 81.3 555.85 81.3 556.9 81.3 557.95 81.7 558.4 82.1 558.9 82.75 558.9 L83.6 558.6 84.05 557.6 84.9 557.7 Q84.75 558.6 84.2 559.1 83.6 559.6 82.75 559.6 81.7 559.6 81.05 558.9 80.4 558.25 80.4 556.95 80.4 556.1 80.65 555.45 M51.7 555.4 Q51.3 555.9 51.3 556.8 51.3 557.85 51.7 558.3 52.1 558.75 52.7 558.75 53.3 558.75 53.7 558.3 54.1 557.85 54.1 556.85 54.1 555.9 53.7 555.4 53.3 554.9 52.7 554.9 52.1 554.9 51.7 555.4 M52.6 554.2 Q53.55 554.2 54.15 554.95 L54.15 554.3 54.95 554.3 54.95 558.8 54.7 560.5 53.9 561.3 52.6 561.6 Q51.65 561.6 51.1 561.2 50.55 560.75 50.55 559.95 L51.4 560.05 51.7 560.65 52.6 560.9 53.55 560.65 54.0 559.95 54.05 558.8 Q53.45 559.5 52.6 559.5 51.55 559.5 50.95 558.75 50.35 557.95 50.35 556.9 50.35 556.15 50.65 555.5 L51.4 554.55 Q51.95 554.2 52.6 554.2 M57.15 552.35 L57.15 554.9 Q57.7 554.2 58.55 554.2 L59.45 554.4 60.15 554.95 60.6 555.75 60.75 556.85 Q60.75 558.15 60.1 558.9 59.45 559.6 58.5 559.6 57.6 559.6 57.05 558.85 L57.05 559.5 56.25 559.5 56.25 552.35 57.15 552.35 M57.05 556.85 Q57.05 557.8 57.3 558.2 57.75 558.9 58.45 558.9 59.0 558.9 59.45 558.4 59.85 557.9 59.85 556.9 59.85 555.9 59.45 555.4 59.05 554.9 58.5 554.9 57.9 554.9 57.5 555.4 57.05 555.9 57.05 556.85 M46.05 556.65 L46.05 559.5 45.15 559.5 45.15 554.3 45.95 554.3 45.95 555.05 Q46.5 554.2 47.6 554.2 L48.45 554.35 49.05 554.8 49.3 555.45 49.35 559.5 48.5 559.5 48.5 556.35 48.4 555.55 48.05 555.1 47.4 554.95 Q46.85 554.95 46.45 555.3 46.05 555.65 46.05 556.65 M151.45 519.5 L151.45 528.1 149.95 528.1 149.95 527.2 149.05 528.0 148.0 528.25 Q146.9 528.25 146.15 527.4 145.4 526.5 145.4 524.95 145.4 523.4 146.15 522.55 146.9 521.75 148.0 521.75 149.05 521.75 149.8 522.6 L149.8 519.5 151.45 519.5 M158.05 519.5 L158.05 522.6 Q158.8 521.75 159.85 521.75 161.0 521.75 161.7 522.55 162.45 523.4 162.45 524.9 162.45 526.5 161.7 527.4 160.95 528.25 159.85 528.25 L158.8 528.0 157.9 527.2 157.9 528.1 156.4 528.1 156.4 519.5 158.05 519.5 M123.4 519.5 L123.4 521.05 121.75 521.05 121.75 519.5 123.4 519.5 M133.4 519.5 L133.4 522.65 Q134.2 521.75 135.3 521.75 L136.35 521.95 137.0 522.5 137.35 523.2 137.4 528.1 135.8 528.1 135.7 523.55 135.35 523.15 134.75 523.0 134.0 523.2 133.55 523.8 Q133.4 524.2 133.4 525.0 L133.4 528.1 131.75 528.1 131.75 519.5 133.4 519.5 M140.35 524.45 L142.8 524.45 Q142.8 523.75 142.45 523.35 142.1 523.0 141.6 523.0 141.05 523.0 140.7 523.4 140.35 523.8 140.35 524.45 M141.5 521.75 Q142.85 521.75 143.7 522.65 144.5 523.55 144.45 525.45 L140.3 525.45 Q140.35 526.2 140.7 526.6 141.1 527.0 141.65 527.0 L142.3 526.8 142.7 526.1 144.35 526.4 Q144.05 527.3 143.35 527.75 142.65 528.25 141.65 528.25 140.05 528.25 139.25 527.2 138.65 526.35 138.65 525.05 138.65 523.5 139.45 522.6 140.25 521.75 141.5 521.75 M129.85 524.95 Q130.35 525.35 130.35 526.15 130.35 527.0 129.65 527.65 128.9 528.25 127.5 528.25 126.25 528.25 125.5 527.75 124.75 527.2 124.55 526.3 L126.2 526.05 126.6 526.8 127.5 527.05 128.45 526.8 128.7 526.4 128.55 526.05 125.5 525.05 Q124.75 524.55 124.75 523.65 124.75 522.85 125.4 522.3 126.05 521.75 127.4 521.75 128.65 521.75 129.3 522.15 129.9 522.55 130.15 523.4 L128.6 523.65 128.2 523.1 127.4 522.9 126.5 523.1 126.3 523.45 126.45 523.75 128.0 524.2 Q129.3 524.5 129.85 524.95 M123.4 521.9 L123.4 528.1 121.75 528.1 121.75 521.9 123.4 521.9 M158.4 523.45 Q158.05 523.9 158.05 524.85 158.05 525.8 158.35 526.3 158.75 526.95 159.45 526.95 160.0 526.95 160.4 526.5 160.8 526.0 160.8 525.0 160.8 523.95 160.4 523.45 160.0 523.0 159.4 523.0 158.8 523.0 158.4 523.45 M147.05 524.85 Q147.05 525.85 147.35 526.3 147.75 526.95 148.45 526.95 149.05 526.95 149.45 526.45 149.85 525.95 149.85 525.0 149.85 523.95 149.45 523.45 149.05 523.0 148.45 523.0 147.85 523.0 147.45 523.45 147.05 523.95 147.05 524.85 M120.05 519.5 L120.05 528.1 118.4 528.1 118.4 519.5 120.05 519.5 M112.65 519.5 L112.65 522.6 Q113.4 521.75 114.45 521.75 115.6 521.75 116.3 522.55 117.05 523.4 117.05 524.9 117.05 526.5 116.3 527.4 115.55 528.25 114.45 528.25 L113.4 528.0 112.5 527.2 112.5 528.1 111.0 528.1 111.0 519.5 112.65 519.5 M91.35 519.5 L91.35 528.1 89.85 528.1 89.85 527.2 88.95 528.0 87.9 528.25 Q86.8 528.25 86.05 527.4 85.3 526.5 85.3 524.95 85.3 523.4 86.05 522.55 86.8 521.75 87.9 521.75 88.95 521.75 89.7 522.6 L89.7 519.5 91.35 519.5 M97.85 522.8 L98.65 522.05 Q99.15 521.75 99.8 521.75 100.85 521.75 101.65 522.6 102.4 523.45 102.4 524.95 102.4 526.5 101.6 527.4 100.85 528.25 99.8 528.25 L98.85 528.05 Q98.4 527.85 97.95 527.35 L97.95 530.45 96.3 530.45 96.3 521.9 97.85 521.9 97.85 522.8 M98.35 523.5 Q97.95 523.95 97.95 524.9 97.95 525.95 98.35 526.45 98.8 526.95 99.35 526.95 99.95 526.95 100.35 526.5 100.7 526.0 100.7 524.95 100.7 524.0 100.3 523.5 99.9 523.05 99.35 523.05 98.75 523.05 98.35 523.5 M86.95 524.85 Q86.95 525.85 87.25 526.3 87.65 526.95 88.35 526.95 88.95 526.95 89.35 526.45 89.75 525.95 89.75 525.0 89.75 523.95 89.35 523.45 88.95 523.0 88.35 523.0 87.75 523.0 87.35 523.45 86.95 523.95 86.95 524.85 M114.0 523.0 Q113.4 523.0 113.0 523.45 112.65 523.9 112.65 524.85 112.65 525.8 112.95 526.3 113.35 526.95 114.05 526.95 114.6 526.95 115.0 526.5 115.4 526.0 115.4 525.0 115.4 523.95 115.0 523.45 114.6 523.0 114.0 523.0 M109.35 521.9 L109.35 528.1 107.8 528.1 107.8 527.15 106.9 527.95 105.75 528.25 104.6 527.95 103.9 527.2 103.7 525.8 103.7 521.9 105.3 521.9 105.4 526.35 105.75 526.8 106.35 527.0 107.1 526.75 107.55 526.2 107.7 521.9 109.35 521.9 M113.8 554.3 L111.8 559.5 111.0 559.5 109.05 554.3 109.95 554.3 111.4 558.45 112.9 554.3 113.8 554.3 M115.45 554.3 L115.45 559.5 114.55 559.5 114.55 554.3 115.45 554.3 M115.45 552.35 L115.45 553.35 114.55 553.35 114.55 552.35 115.45 552.35 M119.45 554.4 L120.05 554.9 120.05 552.35 120.95 552.35 120.95 559.5 120.1 559.5 120.1 558.85 Q119.65 559.6 118.65 559.6 L117.55 559.3 Q117.0 558.95 116.75 558.3 116.45 557.7 116.45 556.9 116.45 556.15 116.7 555.5 116.95 554.85 117.5 554.55 118.0 554.2 118.65 554.2 L119.45 554.4 M118.7 554.9 Q118.15 554.9 117.75 555.4 117.35 555.9 117.35 556.9 117.35 557.9 117.75 558.4 118.2 558.9 118.75 558.9 119.35 558.9 119.75 558.45 120.15 557.95 120.15 557.0 120.15 555.9 119.75 555.4 119.3 554.9 118.7 554.9 M101.5 554.15 Q101.15 553.55 100.6 553.35 L99.35 553.2 97.85 553.2 97.85 558.65 99.4 558.65 100.5 558.5 101.15 558.15 101.7 557.25 101.85 555.85 Q101.85 554.75 101.5 554.15 M102.85 555.9 L102.65 557.35 102.15 558.35 101.5 559.0 100.65 559.4 96.9 559.5 96.9 552.35 100.65 552.45 101.7 552.95 Q102.3 553.45 102.55 554.2 L102.85 555.9 M105.15 555.15 Q104.85 555.35 104.7 555.9 L103.85 555.8 104.25 554.9 Q104.5 554.55 105.0 554.4 L106.2 554.2 107.3 554.35 107.9 554.75 108.15 555.35 108.25 558.9 108.5 559.5 107.55 559.5 107.4 558.85 106.45 559.45 105.5 559.6 Q104.65 559.6 104.15 559.2 103.7 558.8 103.7 558.15 L103.9 557.45 104.35 556.95 104.95 556.65 107.3 556.2 107.3 556.0 107.1 555.2 Q106.75 554.9 106.05 554.9 L105.15 555.15 M107.3 556.9 L105.1 557.4 104.75 557.7 104.65 558.1 104.9 558.7 105.7 558.95 106.6 558.7 107.2 558.1 107.3 557.2 107.3 556.9 M86.55 556.65 L86.55 559.5 85.65 559.5 85.65 552.35 86.55 552.35 86.55 554.9 Q87.15 554.2 88.1 554.2 L89.1 554.45 89.7 555.05 89.9 556.2 89.9 559.5 89.0 559.5 89.0 556.2 Q89.0 555.55 88.7 555.25 88.45 554.95 87.9 554.95 L87.2 555.15 86.7 555.7 Q86.55 556.05 86.55 556.65 M92.45 559.5 L92.25 560.4 Q92.05 560.75 91.6 560.9 L91.4 560.55 91.8 560.2 91.95 559.5 91.45 559.5 91.45 558.5 92.45 558.5 92.45 559.5 M154.3 554.2 L155.15 554.35 Q155.55 554.55 155.75 554.8 L156.0 555.45 156.05 559.5 155.2 559.5 155.2 556.35 155.1 555.55 154.75 555.1 154.1 554.95 Q153.55 554.95 153.15 555.3 152.75 555.65 152.75 556.65 L152.75 559.5 151.85 559.5 151.85 554.3 152.65 554.3 152.65 555.05 Q153.2 554.2 154.3 554.2 M158.15 554.55 Q158.65 554.2 159.3 554.2 L160.1 554.4 160.7 554.9 160.7 552.35 161.6 552.35 161.6 559.5 160.75 559.5 160.75 558.85 Q160.3 559.6 159.3 559.6 L158.2 559.3 Q157.65 558.95 157.4 558.3 157.1 557.7 157.1 556.9 157.1 556.15 157.35 555.5 157.6 554.85 158.15 554.55 M159.35 554.9 Q158.8 554.9 158.4 555.4 158.0 555.9 158.0 556.9 158.0 557.9 158.4 558.4 158.85 558.9 159.4 558.9 160.0 558.9 160.4 558.45 160.8 557.95 160.8 557.0 160.8 555.9 160.4 555.4 159.95 554.9 159.35 554.9 M147.75 553.1 L147.4 554.45 146.6 556.55 149.05 556.55 147.75 553.1 M148.3 552.35 L151.25 559.5 150.15 559.5 149.3 557.35 146.35 557.35 145.55 559.5 144.55 559.5 147.3 552.35 148.3 552.35 M133.7 554.3 L133.7 555.1 Q134.0 554.55 134.25 554.35 L134.8 554.2 135.7 554.5 135.4 555.3 134.75 555.1 134.25 555.3 133.9 555.75 133.8 556.8 133.8 559.5 132.9 559.5 132.9 554.3 133.7 554.3 M139.05 554.5 L138.75 555.3 138.1 555.1 137.6 555.3 Q137.35 555.45 137.25 555.75 L137.15 556.8 137.15 559.5 136.25 559.5 136.25 554.3 137.05 554.3 137.05 555.1 Q137.35 554.55 137.6 554.35 137.85 554.2 138.15 554.2 138.6 554.2 139.05 554.5 M125.9 553.25 Q126.85 552.2 128.35 552.2 129.35 552.2 130.15 552.7 130.95 553.15 131.35 554.0 131.8 554.85 131.8 555.95 L131.35 557.9 Q130.9 558.75 130.1 559.2 L128.35 559.6 126.55 559.15 Q125.75 558.65 125.35 557.8 124.95 556.95 124.95 556.0 124.95 554.25 125.9 553.25 M128.35 553.05 Q127.35 553.05 126.65 553.7 125.9 554.4 125.9 556.05 125.9 557.3 126.6 558.05 127.3 558.8 128.35 558.8 129.4 558.8 130.1 558.05 130.8 557.3 130.8 555.95 L130.5 554.4 129.65 553.4 Q129.05 553.05 128.35 553.05 M140.85 559.5 L140.65 560.4 140.0 560.9 139.8 560.55 140.2 560.2 140.35 559.5 139.85 559.5 139.85 558.5 140.85 558.5 140.85 559.5 M356.2 555.45 Q355.75 554.9 355.1 554.9 354.5 554.9 354.1 555.35 353.65 555.75 353.6 556.4 L356.5 556.4 Q356.45 555.75 356.2 555.45 M356.8 554.9 Q357.45 555.6 357.45 556.9 L357.45 557.15 353.55 557.15 Q353.6 558.0 354.05 558.45 354.5 558.9 355.15 558.9 L355.95 558.65 356.5 557.85 357.4 557.95 Q357.2 558.75 356.6 559.2 356.05 559.6 355.15 559.6 354.0 559.6 353.35 558.9 352.65 558.2 352.65 556.95 352.65 555.65 353.35 554.9 354.0 554.2 355.1 554.2 356.15 554.2 356.8 554.9 M348.3 552.35 L348.3 554.9 Q348.9 554.2 349.85 554.2 L350.85 554.45 351.45 555.05 351.65 556.2 351.65 559.5 350.75 559.5 350.75 556.2 Q350.75 555.55 350.45 555.25 350.2 554.95 349.65 554.95 L348.95 555.15 348.45 555.7 Q348.3 556.05 348.3 556.65 L348.3 559.5 347.4 559.5 347.4 552.35 348.3 552.35 M345.65 552.5 L345.65 554.3 346.55 554.3 346.55 555.0 345.65 555.0 345.65 558.05 345.7 558.5 345.85 558.7 346.15 558.75 346.55 558.7 346.65 559.5 346.0 559.55 345.25 559.4 344.9 559.0 Q344.75 558.75 344.75 558.0 L344.75 555.0 344.15 555.0 344.15 554.3 344.75 554.3 344.75 553.05 345.65 552.5 M335.75 554.95 Q335.2 554.95 334.8 555.3 334.4 555.65 334.4 556.65 L334.4 559.5 333.5 559.5 333.5 554.3 334.3 554.3 334.3 555.05 Q334.85 554.2 335.95 554.2 L336.8 554.35 337.4 554.8 337.65 555.45 337.7 559.5 336.85 559.5 336.85 556.35 336.75 555.55 336.4 555.1 335.75 554.95 M341.15 554.2 Q342.25 554.2 342.9 554.9 343.6 555.6 343.6 556.85 L343.3 558.4 342.4 559.3 341.15 559.6 Q340.05 559.6 339.4 558.9 338.75 558.2 338.75 556.9 338.75 555.45 339.55 554.75 340.2 554.2 341.15 554.2 M341.15 554.9 Q340.5 554.9 340.05 555.4 339.65 555.9 339.65 556.9 339.65 557.9 340.05 558.4 340.5 558.9 341.15 558.9 341.8 558.9 342.25 558.4 342.7 557.9 342.7 556.9 342.7 555.9 342.25 555.4 341.8 554.9 341.15 554.9 M327.9 555.9 L331.45 552.35 332.7 552.35 329.7 555.25 332.85 559.5 331.6 559.5 329.05 555.9 327.9 557.0 327.9 559.5 326.95 559.5 326.95 552.35 327.9 552.35 327.9 555.9" fill="#825353" fill-rule="evenodd" stroke="none"/>
  </g>
</svg>
