<?xml version="1.0" encoding="UTF-8" standalone="no"?>
<svg xmlns:ffdec="https://www.free-decompiler.com/flash" xmlns:xlink="http://www.w3.org/1999/xlink" ffdec:objectType="shape" height="24.1px" width="14.05px" xmlns="http://www.w3.org/2000/svg">
  <g transform="matrix(1.0, 0.0, 0.0, 1.0, 7.0, 12.05)">
    <path d="M5.75 -5.65 Q5.75 -2.45 3.45 -0.9 7.05 0.65 7.05 5.15 7.05 7.6 5.05 9.7 2.75 12.05 -0.8 12.05 -4.15 12.05 -7.0 10.1 L-7.0 6.65 Q-3.55 8.6 -0.8 8.6 1.0 8.6 2.25 7.35 3.4 6.2 3.4 5.05 3.4 3.2 2.25 2.15 1.15 1.1 -0.95 1.1 L-3.0 1.1 -3.0 -2.45 -1.0 -2.45 Q0.35 -2.45 1.25 -3.3 2.15 -4.2 2.15 -5.55 2.15 -6.95 1.35 -7.75 0.5 -8.65 -0.75 -8.65 L-2.85 -8.25 -5.15 -7.45 -5.15 -10.8 Q-2.85 -12.05 -0.7 -12.05 1.95 -12.05 3.25 -10.35 5.75 -8.4 5.75 -5.65" fill="#9966cc" fill-rule="evenodd" stroke="none"/>
  </g>
</svg>
