<?xml version="1.0" encoding="UTF-8" standalone="no"?>
<svg xmlns:ffdec="https://www.free-decompiler.com/flash" xmlns:xlink="http://www.w3.org/1999/xlink" ffdec:objectType="shape" height="24.1px" width="14.05px" xmlns="http://www.w3.org/2000/svg">
  <g transform="matrix(1.0, 0.0, 0.0, 1.0, 6.95, 17.1)">
    <path d="M2.2 -10.6 Q2.2 -12.0 1.4 -12.8 0.55 -13.7 -0.7 -13.7 L-2.8 -13.3 -5.1 -12.5 -5.1 -15.85 Q-2.8 -17.1 -0.65 -17.1 2.0 -17.1 3.3 -15.4 5.8 -13.45 5.8 -10.7 5.8 -7.5 3.5 -5.95 7.1 -4.4 7.1 0.1 7.1 2.55 5.1 4.65 2.8 7.0 -0.75 7.0 -4.1 7.0 -6.95 5.05 L-6.95 1.6 Q-3.5 3.55 -0.75 3.55 1.05 3.55 2.3 2.3 3.45 1.15 3.45 0.0 3.45 -1.85 2.3 -2.9 1.2 -3.95 -0.9 -3.95 L-2.95 -3.95 -2.95 -7.5 -0.95 -7.5 Q0.4 -7.5 1.3 -8.35 2.2 -9.25 2.2 -10.6" fill="url(#gradient0)" fill-rule="evenodd" stroke="none"/>
  </g>
  <defs>
    <linearGradient gradientTransform="matrix(0.0, 0.0147, -0.134, 0.0, 61.95, -5.1)" gradientUnits="userSpaceOnUse" id="gradient0" spreadMethod="pad" x1="-819.2" x2="819.2">
      <stop offset="0.0" stop-color="#ffffff" stop-opacity="0.0"/>
      <stop offset="1.0" stop-color="#ffffff" stop-opacity="0.49019608"/>
    </linearGradient>
  </defs>
</svg>
