<?xml version="1.0" encoding="UTF-8" standalone="no"?>
<svg xmlns:ffdec="https://www.free-decompiler.com/flash" xmlns:xlink="http://www.w3.org/1999/xlink" ffdec:objectType="shape" height="25.8px" width="20.2px" xmlns="http://www.w3.org/2000/svg">
  <g transform="matrix(1.0, 0.0, 0.0, 1.0, 9.45, 17.45)">
    <path d="M6.5 -16.15 L6.8 -15.45 6.8 -4.7 8.25 -4.7 8.95 -4.4 9.25 -3.7 9.75 -3.7 10.45 -3.4 10.75 -2.7 10.75 0.8 10.45 1.5 9.75 1.8 6.8 1.8 6.8 7.35 6.5 8.05 5.8 8.35 2.15 8.35 1.45 8.05 Q1.15 7.75 1.15 7.35 L0.65 7.35 Q0.25 7.35 -0.05 7.05 L-0.35 6.35 -0.35 1.8 -6.95 1.8 -7.65 1.5 -7.95 0.8 -8.45 0.8 -9.15 0.5 -9.45 -0.2 -9.45 -3.45 -9.25 -4.0 0.05 -17.0 0.4 -17.35 0.85 -17.45 4.3 -17.45 5.0 -17.15 5.3 -16.45 5.8 -16.45 6.5 -16.15" fill="#000000" fill-rule="evenodd" stroke="none"/>
  </g>
</svg>
