<?xml version="1.0" encoding="UTF-8" standalone="no"?>
<svg xmlns:ffdec="https://www.free-decompiler.com/flash" xmlns:xlink="http://www.w3.org/1999/xlink" ffdec:objectType="shape" height="26.45px" width="17.3px" xmlns="http://www.w3.org/2000/svg">
  <g transform="matrix(1.0, 0.0, 0.0, 1.0, 7.55, 17.45)">
    <path d="M8.65 -15.45 L8.65 -12.1 8.35 -11.4 Q8.05 -11.1 7.65 -11.1 L0.2 -11.1 0.2 -9.1 Q3.15 -8.8 5.25 -7.05 L7.2 -5.65 Q9.75 -3.3 9.75 0.25 9.75 4.25 6.85 6.75 4.25 9.0 0.55 9.0 -2.6 9.0 -5.4 7.9 L-5.85 7.5 -6.0 7.2 -6.9 6.9 -7.35 6.5 -7.55 5.95 -7.55 2.35 -7.35 1.75 -6.8 1.4 -6.15 1.45 Q-3.55 2.45 -1.3 2.45 0.25 2.45 1.4 1.6 L1.45 1.55 Q2.6 0.7 2.6 -0.75 2.6 -1.6 2.1 -2.5 L0.35 -2.65 -4.45 -2.65 Q-4.85 -2.65 -5.15 -2.95 L-5.45 -3.65 -5.95 -3.65 Q-6.35 -3.65 -6.65 -3.95 L-6.95 -4.65 -6.95 -16.45 -6.65 -17.15 -5.95 -17.45 6.15 -17.45 6.85 -17.15 7.15 -16.45 7.65 -16.45 8.35 -16.15 8.65 -15.45" fill="#000000" fill-rule="evenodd" stroke="none"/>
  </g>
</svg>
