<?xml version="1.0" encoding="UTF-8" standalone="no"?>
<svg xmlns:ffdec="https://www.free-decompiler.com/flash" xmlns:xlink="http://www.w3.org/1999/xlink" ffdec:objectType="shape" height="127.0px" width="829.25px" xmlns="http://www.w3.org/2000/svg">
  <g transform="matrix(1.0, 0.0, 0.0, 1.0, 409.75, 57.85)">
    <path d="M-69.35 69.15 L-71.95 69.15 -70.0 67.15 Q-62.6 59.7 -58.5 57.25 L-69.35 69.15 M-65.4 -57.85 L-55.95 -57.85 Q-63.8 -45.15 -82.4 -16.6 -118.85 39.25 -130.5 61.5 -123.95 50.95 -112.25 38.95 -99.4 25.75 -94.0 25.75 -92.7 25.75 -91.75 27.75 -91.0 29.25 -91.0 30.0 -91.0 31.15 -96.85 41.1 -103.2 51.9 -103.75 53.25 -107.0 53.25 -107.0 51.0 -107.0 49.15 -102.9 42.25 L-98.5 35.25 -98.5 34.75 Q-102.95 38.25 -119.05 57.15 L-129.5 69.15 -139.75 69.15 -139.75 69.0 Q-139.75 61.5 -110.05 13.8 L-75.25 -40.5 Q-114.4 1.45 -169.25 69.15 L-173.55 69.15 Q-157.15 40.9 -123.7 3.6 -110.2 -11.45 -88.5 -33.95 L-65.4 -57.85 M-156.85 -57.85 L-149.55 -57.85 Q-173.0 -32.2 -205.1 6.55 -238.65 47.05 -257.9 69.15 L-264.75 69.15 Q-227.2 14.25 -156.85 -57.85 M-260.6 -57.85 L-253.45 -57.85 Q-283.05 -28.85 -315.75 9.25 L-348.15 48.95 Q-359.05 62.25 -365.5 69.15 L-368.45 69.15 Q-329.55 11.15 -260.6 -57.85 M-252.5 -57.85 L-244.7 -57.85 Q-258.95 -37.9 -286.25 -2.5 L-342.2 69.15 -349.25 69.15 -322.45 34.15 Q-267.7 -36.5 -252.5 -57.85 M-347.45 -57.85 L-342.05 -57.85 Q-349.05 -46.6 -362.45 -26.4 L-408.0 41.75 -409.35 41.5 Q-409.75 41.3 -409.75 39.75 -409.75 33.8 -379.0 -12.35 -360.05 -40.8 -347.45 -57.85 M345.15 -57.85 L354.3 -57.85 335.4 -36.35 Q279.75 24.75 268.25 38.0 286.7 21.35 313.2 2.15 339.75 -17.15 367.0 -33.75 L369.75 -31.0 Q369.75 -29.65 362.05 -21.25 L344.05 -1.6 Q316.05 29.75 307.25 50.0 313.35 46.1 326.45 34.85 L350.55 14.25 Q381.85 -11.75 394.5 -11.75 L397.25 -11.25 Q397.75 -11.5 397.75 -9.0 397.75 -8.0 383.55 7.9 367.6 25.7 364.0 30.75 L361.75 30.75 Q361.0 31.75 361.0 29.25 361.0 24.8 369.5 15.0 374.1 9.7 382.25 0.75 L382.0 0.25 Q375.05 4.5 340.7 32.05 310.25 56.5 307.0 56.5 304.8 56.5 302.8 53.85 301.25 51.7 301.25 50.85 301.25 38.0 346.75 -13.25 L347.25 -14.0 Q329.5 -2.2 285.6 34.3 L245.25 68.25 Q243.0 68.25 241.0 67.25 240.75 67.5 240.75 65.0 240.75 57.45 300.8 -9.2 L345.15 -57.85 M163.0 -57.85 L172.8 -57.85 156.25 -35.25 91.5 51.75 91.0 52.25 192.35 -22.25 240.95 -57.85 251.85 -57.85 Q244.25 -51.4 236.0 -45.5 L172.5 0.25 Q145.75 19.8 86.35 69.15 L65.15 69.15 Q77.55 52.4 103.0 20.05 141.3 -28.6 163.0 -57.85 M139.6 -57.85 L151.65 -57.85 Q89.5 -1.5 23.4 69.15 L18.75 69.15 Q95.3 -14.8 139.6 -57.85 M1.7 -57.85 L7.75 -57.85 Q6.15 -55.2 1.95 -49.75 -5.0 -40.8 -8.0 -38.75 L-8.25 -38.35 Q-8.5 -38.3 -8.5 -39.85 -2.1 -52.4 1.7 -57.85 M26.2 -57.85 L34.7 -57.85 15.45 -35.45 Q-51.6 42.25 -74.0 69.15 L-81.85 69.15 Q-63.75 44.45 -18.75 -7.05 L26.2 -57.85 M-297.45 39.2 Q-321.85 59.7 -336.0 69.0 -311.55 46.3 -298.9 35.7 -275.1 15.75 -258.5 7.25 -268.15 14.5 -297.45 39.2 M-395.75 34.25 Q-397.5 34.5 -397.75 33.75 -395.0 23.75 -384.2 10.0 -379.65 4.15 -364.75 -12.25 -369.5 -5.1 -382.7 10.55 -394.0 24.9 -395.75 34.25 M384.2 33.75 Q384.5 34.0 384.5 35.85 384.5 37.15 374.7 48.25 364.7 59.7 358.0 65.75 L356.65 65.5 Q356.25 65.3 356.25 63.75 356.25 61.6 366.55 48.0 377.55 33.5 382.0 33.5 L384.2 33.75 M365.5 65.75 L363.5 65.25 Q370.15 59.75 389.15 41.45 407.55 24.85 419.5 20.25 415.2 23.75 393.7 42.9 377.05 57.75 365.5 65.75 M144.6 38.0 Q145.25 38.2 145.25 39.75 145.25 41.5 131.65 54.65 L116.55 69.15 109.6 69.15 Q113.35 63.75 125.1 53.1 133.8 45.15 143.0 37.75 L144.6 38.0 M156.6 43.2 Q157.25 43.5 157.25 45.1 157.25 46.0 149.15 53.8 140.25 62.4 138.0 66.5 L135.75 66.5 Q135.25 67.5 135.25 65.0 135.25 60.75 142.4 53.3 148.45 47.05 155.0 42.75 L156.6 43.2" fill="#ffffff" fill-opacity="0.34117648" fill-rule="evenodd" stroke="none"/>
  </g>
</svg>
