<?xml version="1.0" encoding="UTF-8" standalone="no"?>
<svg xmlns:ffdec="https://www.free-decompiler.com/flash" xmlns:xlink="http://www.w3.org/1999/xlink" ffdec:objectType="shape" height="95.0px" width="758.6px" xmlns="http://www.w3.org/2000/svg">
  <g transform="matrix(1.0, 0.0, 0.0, 1.0, 379.2, 48.35)">
    <path d="M-73.2 -47.85 L-73.2 46.15 -378.7 46.15 -378.7 -47.85 -73.2 -47.85" fill="url(#gradient0)" fill-rule="evenodd" stroke="none"/>
    <path d="M57.65 46.15 L-57.25 46.15 -57.25 -47.85 57.65 -47.85 57.65 46.15" fill="url(#gradient1)" fill-rule="evenodd" stroke="none"/>
    <path d="M378.9 -47.85 L378.9 46.15 73.4 46.15 73.4 -47.85 378.9 -47.85" fill="url(#gradient2)" fill-rule="evenodd" stroke="none"/>
    <path d="M378.9 -47.85 L378.9 46.15 73.4 46.15 73.4 -47.85 378.9 -47.85 M57.65 46.15 L-57.25 46.15 -57.25 -47.85 57.65 -47.85 57.65 46.15 M-73.2 -47.85 L-73.2 46.15 -378.7 46.15 -378.7 -47.85 -73.2 -47.85 Z" fill="none" stroke="#000000" stroke-linecap="round" stroke-linejoin="round" stroke-width="1.0"/>
    <path d="M378.9 -47.85 L378.9 46.15 73.4 46.15 73.4 -47.85 378.9 -47.85 M57.65 46.15 L-57.25 46.15 -57.25 -47.85 57.65 -47.85 57.65 46.15 M-73.2 -47.85 L-73.2 46.15 -378.7 46.15 -378.7 -47.85 -73.2 -47.85" fill="#000000" fill-opacity="0.39215687" fill-rule="evenodd" stroke="none"/>
  </g>
  <defs>
    <linearGradient gradientTransform="matrix(0.0, -0.0574, 0.1865, 0.0, -225.95, -0.85)" gradientUnits="userSpaceOnUse" id="gradient0" spreadMethod="pad" x1="-819.2" x2="819.2">
      <stop offset="0.0" stop-color="#8c8c8c"/>
      <stop offset="0.06274509803921569" stop-color="#7b7b7b"/>
      <stop offset="0.13333333333333333" stop-color="#a2a2a2"/>
      <stop offset="0.8784313725490196" stop-color="#808080"/>
      <stop offset="0.9411764705882353" stop-color="#e6e6e6"/>
      <stop offset="1.0" stop-color="#aeaeae"/>
    </linearGradient>
    <linearGradient gradientTransform="matrix(0.0, -0.0574, 0.0701, 0.0, 0.2, -0.85)" gradientUnits="userSpaceOnUse" id="gradient1" spreadMethod="pad" x1="-819.2" x2="819.2">
      <stop offset="0.0" stop-color="#8c8c8c"/>
      <stop offset="0.06274509803921569" stop-color="#7b7b7b"/>
      <stop offset="0.13333333333333333" stop-color="#a2a2a2"/>
      <stop offset="0.8784313725490196" stop-color="#808080"/>
      <stop offset="0.9411764705882353" stop-color="#e6e6e6"/>
      <stop offset="1.0" stop-color="#aeaeae"/>
    </linearGradient>
    <linearGradient gradientTransform="matrix(0.0, -0.0574, 0.1865, 0.0, 226.15, -0.85)" gradientUnits="userSpaceOnUse" id="gradient2" spreadMethod="pad" x1="-819.2" x2="819.2">
      <stop offset="0.0" stop-color="#8c8c8c"/>
      <stop offset="0.06274509803921569" stop-color="#7b7b7b"/>
      <stop offset="0.13333333333333333" stop-color="#a2a2a2"/>
      <stop offset="0.8784313725490196" stop-color="#808080"/>
      <stop offset="0.9411764705882353" stop-color="#e6e6e6"/>
      <stop offset="1.0" stop-color="#aeaeae"/>
    </linearGradient>
  </defs>
</svg>
