<?xml version="1.0" encoding="UTF-8" standalone="no"?>
<svg xmlns:ffdec="https://www.free-decompiler.com/flash" xmlns:xlink="http://www.w3.org/1999/xlink" ffdec:objectType="shape" height="158.4px" width="790.25px" xmlns="http://www.w3.org/2000/svg">
  <g transform="matrix(1.0, 0.0, 0.0, 1.0, 384.0, 108.25)">
    <path d="M49.6 -53.85 L59.5 -53.85 38.3 -29.55 Q-6.85 22.3 -26.5 50.15 L-33.65 50.15 Q-27.8 37.8 -7.15 12.0 L-9.0 10.25 Q-9.0 8.65 -7.35 6.85 -5.5 4.85 -2.75 4.25 L-2.0 5.65 Q7.8 -6.4 20.45 -21.0 34.3 -36.95 49.6 -53.85 M17.25 -37.75 Q18.5 -36.5 18.5 -34.35 L18.25 -33.25 17.75 -32.5 16.0 -32.75 15.75 -32.55 Q15.5 -32.7 15.5 -34.25 15.5 -36.75 16.0 -37.75 L17.25 -37.75 M37.25 -18.75 Q35.75 -16.5 32.75 -16.5 L31.7 -17.35 Q31.25 -17.9 31.25 -19.5 31.25 -19.9 32.65 -20.55 34.0 -21.2 34.0 -23.0 35.75 -22.3 36.4 -20.95 L37.25 -18.75 M30.25 -6.5 L32.5 -2.75 31.75 -1.5 29.25 -1.5 Q28.25 -0.5 28.25 -3.0 28.25 -6.5 30.25 -6.5 M63.5 -12.0 Q63.5 -10.5 52.95 4.65 40.15 22.95 35.75 30.75 41.7 23.0 45.25 18.9 51.75 11.5 55.0 11.5 L57.0 11.85 58.25 12.75 58.5 15.35 Q58.5 18.4 53.5 26.5 47.9 35.5 47.75 36.0 L47.5 36.5 Q49.15 35.65 50.75 34.75 52.7 33.25 54.0 33.25 57.0 33.25 58.5 34.75 59.5 35.8 59.5 37.0 59.5 39.4 53.25 42.3 47.85 44.75 46.0 44.75 41.35 44.75 39.25 39.75 38.1 40.95 31.4 50.15 L18.05 50.15 Q18.3 48.7 18.95 47.25 L22.75 40.0 22.75 39.5 14.75 50.15 8.85 50.15 11.15 46.75 Q19.95 33.75 29.0 21.25 55.55 -15.5 60.0 -15.5 63.5 -15.5 63.5 -12.0 M48.75 -20.25 Q48.15 -18.45 46.0 -17.75 43.15 -19.35 42.75 -21.0 L43.45 -21.9 45.5 -22.25 Q47.4 -22.25 48.75 -20.25 M3.75 -42.85 Q-19.65 -11.65 -25.0 -3.5 -35.5 12.8 -57.0 50.15 L-67.7 50.15 Q-65.65 45.9 -61.95 39.55 L-53.5 25.5 Q-56.0 28.25 -60.7 35.65 -65.75 42.7 -72.0 46.75 -74.8 46.0 -75.5 43.9 L-75.75 40.85 -75.55 38.7 Q-77.65 39.65 -79.25 39.4 -80.7 39.15 -81.5 38.25 -81.75 38.25 -85.85 44.0 -90.4 49.75 -93.0 49.75 -97.0 49.75 -99.0 45.75 L-102.1 50.15 -113.5 50.15 Q-113.3 48.45 -107.25 36.0 -107.25 34.75 -108.5 34.5 -109.75 34.25 -109.75 33.0 -109.75 25.55 -97.3 10.75 -82.85 -4.8 -79.0 -9.25 -75.75 -6.55 -75.75 -6.1 -75.75 -4.15 -82.3 5.6 L-91.25 19.0 Q-89.5 19.85 -86.2 20.2 -84.5 20.4 -84.5 22.0 -84.5 24.25 -89.75 35.5 L-89.5 35.75 Q-86.75 31.7 -84.35 28.8 -79.8 23.25 -77.0 23.25 -74.1 23.25 -73.25 25.4 -72.85 26.55 -73.0 27.85 -73.0 29.1 -74.0 30.1 -75.0 31.1 -75.0 32.35 L-74.05 33.1 Q-68.2 16.65 -41.9 -20.35 -29.8 -37.35 -17.05 -53.85 L-9.9 -53.85 -21.95 -37.4 Q-56.7 10.35 -68.5 35.25 -37.25 -8.5 -19.7 -31.85 -9.95 -44.8 -2.45 -53.85 L11.95 -53.85 3.75 -42.85 M135.45 -53.85 L146.45 -53.85 127.75 -30.9 Q83.65 22.8 62.95 50.15 L53.95 50.15 Q65.95 29.05 106.8 -20.05 L117.0 -32.2 Q112.8 -32.9 110.5 -35.55 108.5 -37.8 108.5 -40.0 108.5 -45.5 116.5 -45.5 121.9 -45.5 123.55 -44.5 124.85 -43.8 125.0 -41.65 L135.45 -53.85 M151.0 -3.5 Q156.75 -3.5 155.75 1.1 155.75 10.0 145.0 10.0 142.7 10.0 141.45 8.25 L136.4 13.95 Q126.4 24.7 124.5 27.75 128.0 30.45 128.0 31.1 128.0 32.55 125.05 34.5 122.35 36.25 121.25 36.25 119.15 36.25 115.75 34.0 L102.95 50.15 84.8 50.15 Q137.25 -26.1 161.1 -53.85 L175.35 -53.85 Q166.2 -41.2 145.7 -16.35 100.65 38.2 97.0 43.25 102.7 37.55 121.0 16.85 137.35 -1.0 141.0 -1.0 142.4 -1.0 143.35 -0.25 146.75 -3.5 151.0 -3.5 M201.75 -17.0 Q202.0 -16.25 199.5 -16.25 L197.75 -16.75 197.5 -16.35 Q197.25 -16.3 197.25 -17.85 197.25 -20.0 200.5 -20.0 201.75 -18.75 201.75 -17.0 M220.0 -21.75 Q220.9 -21.75 221.7 -20.75 L223.0 -19.0 Q224.25 -19.5 227.0 -21.75 L228.0 -20.8 Q237.85 -34.55 252.35 -53.85 L257.7 -53.85 253.6 -48.9 229.2 -19.45 229.75 -18.25 Q229.0 -14.5 229.25 -12.25 L228.85 -11.2 Q228.4 -10.75 226.75 -10.75 222.7 -10.75 219.55 -14.5 L217.25 -18.25 217.5 -21.25 220.0 -21.75 M243.45 -53.85 L249.9 -53.85 Q227.1 -32.8 194.5 2.7 167.1 32.55 149.75 50.15 L146.2 50.15 167.5 25.75 Q165.25 25.65 163.8 24.7 L161.25 22.5 162.05 20.75 162.0 20.75 Q158.45 20.75 157.25 18.4 156.75 17.4 156.75 15.75 156.75 9.5 166.0 9.5 169.35 9.5 169.5 13.75 169.5 16.1 167.5 18.3 L167.0 18.85 Q168.45 19.85 169.55 21.2 L170.4 22.45 Q187.05 3.6 199.1 -9.25 221.75 -33.45 243.45 -53.85 M279.85 -26.2 Q278.6 -25.15 278.0 -25.0 275.0 -27.5 275.0 -28.1 275.0 -30.6 281.0 -33.0 283.7 -33.0 284.5 -31.25 L285.0 -28.75 284.4 -27.6 Q283.85 -27.0 282.25 -27.0 280.85 -27.0 279.85 -26.2 M298.75 -26.0 Q298.75 -24.95 273.9 2.95 261.85 16.45 253.0 26.9 L253.0 27.1 Q253.0 29.6 250.45 29.95 L246.35 34.85 247.25 35.75 Q246.55 38.25 243.25 38.7 238.1 45.05 234.75 49.75 242.3 43.15 265.55 19.05 286.45 -1.75 292.0 -1.75 295.75 -1.75 295.75 2.1 295.75 3.95 283.35 15.5 L267.75 30.25 277.6 21.45 Q286.6 13.5 288.0 13.5 291.6 13.5 291.75 17.75 291.75 19.7 277.55 32.05 262.9 44.75 259.0 44.75 257.55 44.75 254.75 41.25 L245.55 50.15 227.3 50.15 Q234.5 40.55 246.0 26.9 L246.0 26.85 Q246.0 25.2 247.5 24.55 L248.2 24.3 Q262.8 6.95 278.75 -10.75 263.15 1.65 239.8 23.0 L210.3 50.15 209.05 50.15 Q230.3 30.15 284.25 -19.0 L290.4 -23.25 Q296.0 -27.5 297.5 -27.5 298.75 -28.5 298.75 -26.0 M313.65 -6.3 Q315.0 -7.2 319.0 -8.75 L321.75 -6.0 Q321.75 -5.45 319.0 -3.0 321.35 -1.7 323.75 0.0 323.5 1.65 321.5 2.25 L321.5 2.85 Q321.5 8.0 315.0 8.0 L311.5 7.5 Q311.0 7.35 311.0 4.85 311.0 2.5 313.65 2.2 L315.35 1.95 Q314.1 1.5 313.05 0.75 311.0 -0.75 311.0 -2.25 311.0 -4.6 313.65 -6.3 M366.75 -51.1 Q366.75 -49.7 365.65 -48.45 364.55 -47.2 363.0 -47.0 L360.65 -47.2 Q360.0 -47.45 360.0 -49.1 360.0 -50.65 361.55 -52.5 L362.95 -53.85 365.6 -53.85 Q366.75 -53.15 366.75 -51.1 M351.3 -51.05 L351.25 -48.25 Q350.6 -44.0 347.0 -44.0 345.45 -44.0 345.05 -44.35 L344.0 -45.25 343.75 -48.25 Q343.75 -50.2 345.95 -51.25 347.6 -52.0 349.5 -52.0 351.15 -52.0 351.3 -51.05 M348.4 -27.75 Q343.55 -27.95 341.5 -30.25 340.25 -31.65 340.25 -33.25 340.25 -35.6 342.55 -38.5 345.5 -42.25 350.0 -42.25 354.25 -42.25 355.3 -39.3 L355.5 -36.1 Q355.5 -35.0 352.65 -31.4 355.85 -33.5 359.0 -33.5 362.35 -33.5 363.5 -29.25 363.5 -26.75 361.0 -24.3 357.35 -20.75 350.0 -20.25 349.6 -19.4 349.85 -18.35 L350.25 -15.75 Q350.25 -14.75 348.55 -13.45 346.9 -12.25 346.0 -12.25 344.3 -12.25 343.0 -14.95 342.0 -17.05 342.0 -18.0 342.0 -20.25 347.05 -26.25 L348.4 -27.75 M338.75 -41.1 Q338.75 -39.95 337.0 -38.5 335.5 -37.25 335.0 -37.25 L330.75 -37.5 330.25 -40.1 Q330.25 -41.45 331.85 -42.85 333.5 -44.35 336.0 -45.0 338.75 -42.5 338.75 -41.1 M337.5 -34.0 L337.5 -33.5 Q335.5 -35.0 335.5 -36.25 L336.25 -36.25 Q337.5 -35.0 337.5 -34.0 M406.25 -32.1 Q406.25 -30.35 384.25 -4.65 358.55 25.4 350.25 37.25 L350.25 37.5 360.9 26.55 Q369.95 17.5 373.0 17.5 376.5 17.5 376.5 21.0 376.5 24.0 363.5 36.75 365.4 37.55 368.5 39.5 365.65 44.75 362.0 44.75 359.9 44.75 358.35 43.75 L356.0 42.0 349.35 50.15 333.4 50.15 Q337.95 43.0 345.95 31.85 357.5 15.85 367.25 3.5 L367.75 2.75 Q359.7 9.8 341.25 27.55 326.2 42.0 317.0 50.15 L311.4 50.15 311.25 50.0 Q311.25 45.65 350.15 10.25 386.35 -22.75 403.0 -35.25 406.25 -32.65 406.25 -32.1 M295.75 32.25 Q295.75 34.1 293.5 36.75 290.95 39.75 288.25 39.75 280.7 39.75 278.8 38.05 278.25 37.55 278.25 35.75 278.25 33.05 280.5 30.5 283.4 27.25 288.5 27.25 296.1 27.25 295.75 32.25 M239.75 13.35 Q239.75 14.55 237.0 16.75 234.25 14.0 234.25 13.25 234.25 12.8 235.65 12.45 237.0 12.1 237.0 10.25 239.75 12.7 239.75 13.35 M218.25 39.25 Q216.35 39.25 209.6 41.0 L203.0 42.75 Q198.85 42.75 198.0 40.2 L198.0 37.35 Q198.0 32.65 200.8 28.75 204.4 23.75 211.0 23.75 215.75 23.75 218.25 31.75 L218.25 39.25 M209.25 31.0 L208.0 31.5 211.25 32.5 Q211.25 32.0 210.7 31.45 210.1 30.85 209.25 31.0 M191.0 19.25 Q193.6 19.25 194.5 23.1 L194.0 25.0 191.0 26.0 188.0 23.25 Q188.0 19.25 191.0 19.25 M166.25 19.75 L166.05 19.55 165.95 19.65 166.25 19.75 M9.0 16.75 Q14.35 16.75 13.5 21.35 13.5 23.1 11.25 25.5 8.7 28.25 6.0 28.25 3.55 28.25 1.7 26.05 0.25 24.25 0.25 23.0 0.25 20.55 3.75 18.5 6.7 16.75 9.0 16.75 M-372.0 -9.25 L-375.25 -9.0 Q-376.0 -8.5 -376.0 -11.0 -376.0 -12.9 -373.95 -14.8 -371.6 -16.9 -369.0 -16.0 -372.0 -9.85 -372.0 -9.25 M-367.0 -18.1 Q-367.0 -20.75 -364.0 -21.0 -360.5 -18.45 -360.5 -17.85 -360.5 -15.0 -363.5 -15.0 L-363.5 -13.75 Q-363.5 -11.3 -366.05 -6.55 -368.5 -2.05 -370.5 -0.25 L-366.9 -7.3 Q-364.6 -12.15 -364.5 -15.15 L-366.5 -15.5 Q-366.5 -16.25 -367.0 -18.1 M-351.8 -40.5 Q-350.4 -42.0 -349.0 -42.0 -346.1 -42.0 -345.25 -39.05 L-345.0 -35.85 -345.5 -32.5 -345.4 -31.85 Q-345.45 -31.25 -347.0 -31.25 -351.75 -31.25 -353.0 -38.25 -353.0 -39.15 -351.8 -40.5 M-357.0 -38.0 Q-355.15 -37.25 -354.75 -36.0 L-356.0 -34.0 -358.25 -34.25 -358.6 -34.05 Q-359.0 -34.2 -359.0 -35.75 L-358.75 -37.75 -357.0 -38.0 M-151.8 -105.9 L-156.1 -105.9 -154.0 -108.25 -152.4 -108.0 Q-151.75 -107.8 -151.75 -106.25 L-151.8 -105.9 M-231.75 -53.85 L-228.75 -53.85 -256.4 -15.3 Q-279.2 16.2 -297.3 39.95 -297.0 40.55 -297.0 41.0 -297.0 43.05 -299.45 44.8 -300.9 45.8 -302.05 46.15 L-305.15 50.15 -307.65 50.15 -305.05 46.0 -306.75 45.65 -311.25 45.0 Q-311.75 43.75 -311.75 41.25 -311.75 35.25 -303.5 35.25 -301.1 35.25 -299.3 37.1 -283.05 12.25 -260.0 -17.95 L-231.75 -53.85 M-198.8 -53.85 L-188.3 -53.85 -198.75 -39.95 Q-240.4 15.35 -269.05 50.15 L-274.65 50.15 Q-266.25 33.6 -223.9 -21.55 L-210.6 -38.7 -213.0 -39.0 Q-217.85 -39.0 -233.25 -22.0 L-253.5 1.25 -254.5 1.25 Q-242.65 -20.4 -233.1 -34.4 -226.3 -44.35 -218.45 -53.85 L-210.05 -53.85 -211.2 -52.3 Q-210.1 -53.0 -209.0 -53.0 L-207.15 -52.65 -206.25 -51.75 Q-206.0 -50.25 -206.0 -46.0 L-204.95 -46.0 -198.8 -53.85 M-177.25 -53.85 L-168.1 -53.85 Q-176.45 -41.65 -196.2 -14.7 -229.25 30.35 -242.6 50.15 L-251.1 50.15 -247.55 44.3 Q-236.75 26.95 -220.15 3.3 -193.2 -35.05 -177.25 -53.85 M-319.85 -53.85 L-313.9 -53.85 Q-325.5 -38.8 -340.7 -19.65 -371.6 19.3 -382.0 33.0 L-383.45 32.75 Q-384.0 32.55 -384.0 31.0 -384.0 27.6 -373.2 12.3 -363.3 -1.75 -348.05 -20.55 -331.7 -40.75 -319.85 -53.85 M-277.4 -53.85 L-265.95 -53.85 Q-316.4 34.95 -324.25 50.15 L-330.65 50.15 Q-327.7 43.5 -323.15 34.7 L-334.65 50.15 -341.25 50.15 Q-325.15 29.65 -313.0 15.4 L-310.65 11.0 Q-297.3 -13.4 -281.25 -41.25 L-305.05 -12.05 -305.7 -11.0 -318.2 9.65 -314.75 6.75 Q-314.5 5.35 -314.5 7.85 -314.5 9.2 -315.4 11.15 -316.4 13.25 -316.5 14.25 L-318.0 15.0 -320.35 14.75 -320.85 14.05 -343.15 50.15 -357.65 50.15 Q-354.75 43.9 -348.2 34.2 -349.25 35.0 -350.75 35.25 L-350.9 35.1 -357.6 44.75 Q-356.6 44.0 -355.75 43.75 -357.0 47.5 -358.0 49.0 -359.95 50.5 -360.0 48.1 L-361.5 50.15 -368.15 50.15 -332.45 -3.75 Q-311.9 -34.5 -298.4 -53.85 L-281.0 -53.85 -287.3 -42.45 -277.4 -53.85 M-144.0 -34.5 L-148.0 -34.75 -148.25 -35.2 -148.5 -37.0 -148.0 -39.25 Q-148.5 -39.75 -146.0 -39.75 -143.25 -39.75 -142.5 -37.5 -142.5 -36.0 -144.0 -34.5 M-154.95 -17.8 Q-154.75 -17.55 -154.75 -15.5 L-155.0 -13.25 Q-155.5 -13.25 -157.0 -12.25 -159.25 -14.65 -159.25 -15.35 L-159.0 -17.75 Q-159.5 -18.25 -157.0 -18.25 -155.25 -18.25 -154.95 -17.8 M-147.5 -5.45 Q-147.25 -5.35 -147.25 -3.85 L-147.75 -2.0 Q-148.25 -2.0 -150.0 -1.0 L-152.0 -2.25 Q-150.45 -5.05 -148.5 -5.75 L-147.5 -5.45 M-85.3 -31.5 Q-82.45 -34.5 -77.5 -34.5 -73.1 -34.5 -71.5 -30.45 L-70.75 -26.1 Q-70.75 -23.65 -72.5 -21.25 -74.85 -18.0 -79.1 -18.0 -82.8 -18.0 -85.5 -22.5 -86.85 -24.75 -87.5 -27.0 -87.5 -29.2 -85.3 -31.5 M-104.8 -20.8 Q-104.0 -19.8 -104.0 -18.85 -104.0 -17.35 -106.2 -15.55 -108.15 -14.0 -108.75 -14.0 -111.0 -14.0 -113.0 -15.0 L-113.25 -18.0 Q-112.35 -22.25 -108.0 -22.25 -105.9 -22.25 -104.8 -20.8 M-28.25 -53.85 L-21.65 -53.85 -34.0 -40.6 -34.15 -40.45 -34.0 -39.6 Q-34.0 -37.35 -36.55 -34.75 -38.9 -32.3 -41.75 -31.85 L-60.25 -10.5 -62.05 -10.35 Q-62.5 -10.3 -62.5 -11.85 -62.5 -13.1 -53.2 -24.7 L-46.85 -32.45 Q-48.65 -33.3 -49.55 -35.05 -50.35 -36.7 -50.25 -38.6 -50.25 -41.2 -48.2 -43.5 -45.55 -46.5 -40.5 -46.5 -37.7 -46.5 -36.05 -45.05 L-31.95 -49.75 -28.25 -53.85 M-122.5 -53.85 L-115.5 -53.85 -146.5 -15.0 -175.55 26.15 Q-185.0 39.65 -193.3 50.15 L-200.5 50.15 Q-188.05 29.75 -152.5 -15.9 L-122.5 -53.85 M-121.0 18.0 Q-126.1 18.0 -125.25 12.25 -125.25 10.55 -124.05 8.45 -122.4 5.45 -119.5 5.75 L-116.5 6.25 Q-115.75 6.35 -115.75 8.85 -115.75 10.45 -116.7 12.3 -117.9 14.5 -118.25 16.75 L-118.85 17.4 Q-119.5 18.0 -121.0 18.0 M-152.95 38.55 Q-152.5 39.6 -152.5 40.75 L-155.35 46.7 -149.5 40.15 Q-139.85 30.0 -136.5 28.75 -136.25 28.5 -136.0 28.55 -135.5 28.7 -135.5 30.25 -135.5 30.9 -151.35 50.15 L-160.3 50.15 -161.45 49.05 Q-165.25 45.2 -165.25 43.0 -165.25 41.6 -162.7 39.3 -159.65 36.5 -156.0 36.5 -153.85 36.5 -152.95 38.55 M-124.75 36.1 Q-124.75 39.0 -128.5 39.0 L-131.75 38.5 Q-132.25 38.75 -132.25 36.25 -132.25 32.15 -128.5 33.0 L-125.5 33.5 -125.1 34.15 Q-124.75 34.65 -124.75 36.1 M-198.0 13.0 Q-198.0 13.5 -204.5 23.5 L-204.5 23.75 Q-202.4 22.9 -199.15 20.05 -196.75 18.0 -193.5 18.0 L-190.75 18.5 -190.35 19.15 Q-190.0 19.65 -190.0 21.1 -190.0 22.35 -200.25 29.75 -210.9 37.5 -214.25 37.5 -216.45 37.5 -217.7 35.9 -219.05 34.2 -218.0 32.25 -222.8 36.95 -233.55 50.15 L-240.7 50.15 -237.0 45.55 -227.05 33.3 Q-214.7 18.75 -201.0 10.25 L-198.0 13.0 M-260.75 7.0 L-261.85 8.55 Q-263.2 10.0 -265.1 10.0 -270.25 10.0 -270.25 6.1 -270.25 2.75 -266.5 2.75 -264.4 2.75 -262.5 4.6 -261.1 5.95 -260.75 7.0 M-266.5 17.25 L-267.25 18.5 -270.0 18.25 Q-270.5 19.6 -270.5 17.1 -270.5 15.55 -269.75 15.45 L-269.0 15.5 Q-266.5 15.9 -266.5 17.25 M-287.75 5.15 Q-288.7 6.0 -290.5 6.0 L-293.5 5.5 Q-294.0 5.75 -294.0 3.25 -294.0 1.55 -292.3 0.25 -290.9 -0.75 -290.0 -0.75 -288.1 -0.75 -285.75 2.75 L-287.75 5.15 M-301.0 34.5 L-304.5 32.0 Q-304.5 30.45 -302.45 29.45 -299.85 28.15 -298.75 26.25 -298.0 27.0 -298.0 29.6 -298.0 32.15 -298.3 32.7 -298.7 33.4 -301.0 34.5 M-346.0 30.0 L-346.7 32.0 Q-338.1 19.45 -323.9 1.65 -311.35 -19.2 -297.5 -41.0 -307.3 -28.2 -347.1 29.65 L-346.0 30.0" fill="url(#gradient0)" fill-rule="evenodd" stroke="none"/>
  </g>
  <defs>
    <linearGradient gradientTransform="matrix(0.0, 0.0967, -0.4823, 0.0, 11.15, -29.05)" gradientUnits="userSpaceOnUse" id="gradient0" spreadMethod="pad" x1="-819.2" x2="819.2">
      <stop offset="0.0" stop-color="#000000" stop-opacity="0.13333334"/>
      <stop offset="1.0" stop-color="#000000" stop-opacity="0.24313726"/>
    </linearGradient>
  </defs>
</svg>
