<?xml version="1.0" encoding="UTF-8" standalone="no"?>
<svg xmlns:ffdec="https://www.free-decompiler.com/flash" xmlns:xlink="http://www.w3.org/1999/xlink" ffdec:objectType="shape" height="23.45px" width="13.8px" xmlns="http://www.w3.org/2000/svg">
  <g transform="matrix(1.0, 0.0, 0.0, 1.0, 6.9, 11.75)">
    <path d="M-1.4 -3.45 Q2.3 -3.45 4.65 -1.25 6.9 0.85 6.9 3.95 6.9 7.5 4.35 9.7 2.0 11.7 -1.3 11.7 -4.25 11.7 -6.9 10.65 L-6.9 7.05 Q-4.1 8.15 -1.65 8.15 0.25 8.15 1.65 7.05 3.25 5.9 3.25 3.95 3.25 2.35 1.95 0.65 0.75 0.05 -1.5 0.05 L-6.3 0.05 -6.3 -11.75 5.8 -11.75 5.8 -8.4 -2.65 -8.4 -2.65 -3.45 -1.4 -3.45" fill="#9966cc" fill-rule="evenodd" stroke="none"/>
  </g>
</svg>
