<?xml version="1.0" encoding="UTF-8" standalone="no"?>
<svg xmlns:ffdec="https://www.free-decompiler.com/flash" xmlns:xlink="http://www.w3.org/1999/xlink" ffdec:objectType="shape" height="614.35px" width="1037.45px" xmlns="http://www.w3.org/2000/svg">
  <g transform="matrix(1.0, 0.0, 0.0, 1.0, 476.0, 223.6)">
    <path d="M-475.5 -107.1 L-475.5 -223.6 549.4 -223.6 549.4 390.75 -475.5 390.75 -475.5 389.25 -475.5 -107.1" fill="url(#gradient0)" fill-rule="evenodd" stroke="none"/>
    <path d="M-475.5 389.25 L-475.5 -107.1" fill="none" stroke="#000000" stroke-linecap="round" stroke-linejoin="round" stroke-width="1.0"/>
    <path d="M56.5 -11.15 Q40.9 -31.05 40.95 -59.1 40.95 -84.95 54.1 -103.85 98.45 -146.75 134.2 -103.85 147.35 -84.95 147.35 -59.1 147.35 -31.05 131.8 -11.15 116.15 8.75 94.15 8.75 72.1 8.75 56.5 -11.15" fill="url(#gradient1)" fill-rule="evenodd" stroke="none"/>
    <path d="M549.75 275.25 L-472.9 275.25 -472.9 -53.25 549.75 -53.25 549.75 275.25" fill="url(#gradient2)" fill-rule="evenodd" stroke="none"/>
    <path d="M18.35 -36.45 Q19.4 -39.85 23.05 -41.8 31.2 -46.1 61.55 -46.1 77.15 -46.1 101.15 -42.7 L138.0 -37.8 142.95 -38.15 117.15 -53.25 138.25 -53.25 Q140.6 -48.8 161.95 -45.9 187.05 -42.45 215.1 -44.9 226.9 -45.85 253.7 -40.0 282.05 -33.85 288.55 -33.85 L305.5 -43.25 Q306.15 -45.05 306.15 -46.85 306.15 -49.15 306.6 -48.6 L307.5 -47.65 309.3 -45.35 323.75 -53.25 435.65 -53.25 435.8 -52.75 Q434.6 -50.4 428.3 -50.4 427.8 -50.45 408.2 -46.1 L384.3 -49.25 Q361.55 -52.4 351.7 -52.35 342.25 -52.4 330.05 -44.5 L321.55 -38.65 Q317.2 -35.65 315.15 -35.0 313.05 -34.35 309.6 -32.6 312.65 -22.9 336.1 -18.45 363.05 -13.3 425.6 -13.3 443.95 -13.3 456.4 -16.45 468.85 -19.65 478.35 -19.6 539.85 -19.65 539.85 11.95 540.1 14.95 539.95 17.35 539.75 21.65 537.85 25.0 531.85 34.85 510.25 34.85 501.75 34.85 456.9 20.4 L411.2 5.25 Q403.15 2.75 382.0 2.65 353.95 2.5 345.55 1.75 324.9 -0.05 314.35 -6.9 303.1 -14.2 301.45 -27.95 L300.85 -27.6 Q292.2 -22.4 289.55 -22.4 283.35 -22.4 276.2 -23.8 L260.7 -26.9 Q234.9 -31.5 189.2 -31.45 L173.55 -31.85 Q165.85 -32.3 159.25 -33.55 159.2 -32.0 159.0 -31.95 158.55 -31.8 158.3 -31.05 L139.3 -30.7 Q124.35 -30.7 100.3 -34.2 76.15 -37.8 62.2 -37.8 29.25 -37.8 24.85 -35.1 23.1 -34.1 23.4 -31.45 L23.6 -28.25 58.7 -23.1 Q95.1 -17.6 112.7 -11.5 136.65 -3.3 136.65 8.65 136.65 13.1 130.5 13.15 126.7 13.1 113.85 7.7 94.35 -0.55 83.8 -4.25 34.1 -21.6 -22.2 -21.6 -32.05 -21.6 -40.55 -13.0 L-55.85 5.9 Q-66.2 18.5 -77.05 24.65 -92.15 33.25 -113.3 33.3 -121.6 33.25 -127.55 30.1 -133.55 26.85 -133.55 22.45 -133.6 9.9 -91.35 -6.85 L-87.4 -8.2 Q-100.7 -10.45 -114.0 -18.6 -117.15 -20.5 -126.85 -27.2 -133.5 -31.8 -136.9 -33.05 L-133.95 -36.5 Q-157.05 -32.75 -177.75 -26.35 -185.3 -24.05 -198.35 -18.3 -211.9 -13.75 -231.6 -13.7 L-234.5 -13.85 Q-233.65 -10.45 -233.6 -5.15 -233.65 -3.15 -228.35 0.35 -220.6 5.4 -219.0 6.8 -218.65 4.65 -218.65 8.65 -218.65 10.85 -221.65 12.4 -223.1 13.2 -224.65 13.55 L-228.5 8.8 Q-233.5 2.95 -239.45 -2.15 -255.65 -16.05 -275.4 -21.85 L-275.15 -20.0 Q-275.2 -16.25 -278.1 -11.15 -282.8 -2.95 -284.1 0.1 -281.05 3.2 -267.65 10.7 L-253.55 18.25 Q-262.65 22.6 -263.5 22.6 -274.9 22.6 -285.15 13.05 -288.75 9.7 -291.25 6.0 -293.45 2.95 -293.45 1.95 -293.45 -4.3 -288.8 -12.7 L-284.1 -21.2 Q-284.15 -22.1 -285.45 -24.3 L-285.45 -24.35 Q-323.1 -32.0 -338.85 -38.35 -355.1 -44.85 -359.85 -53.25 L-346.0 -53.25 Q-342.35 -49.3 -339.65 -48.05 -335.0 -45.95 -310.25 -40.6 L-283.45 -35.0 Q-254.65 -27.2 -245.3 -23.7 -236.9 -24.85 -229.3 -27.15 L-228.95 -27.5 Q-245.95 -34.3 -266.45 -40.85 -272.85 -43.55 -275.5 -46.65 -277.8 -49.35 -278.3 -53.25 L-271.3 -53.25 Q-263.4 -41.4 -241.5 -33.9 -225.2 -28.3 -215.65 -28.3 -212.35 -28.3 -178.9 -34.7 -142.6 -41.75 -126.6 -46.1 -135.5 -49.35 -157.5 -51.75 L-172.65 -53.25 -29.8 -53.25 -30.55 -50.95 Q-30.55 -46.85 -33.85 -42.1 -27.6 -36.35 1.0 -31.55 L17.65 -29.15 Q17.65 -34.5 18.35 -36.45 M466.4 -53.15 L466.25 -53.25 467.4 -53.25 466.4 -53.15 M481.0 -40.55 Q481.0 -42.45 484.65 -44.95 488.3 -47.4 490.3 -46.85 490.05 -44.5 488.35 -41.4 486.6 -38.45 485.0 -37.4 L482.0 -37.4 481.55 -37.8 Q481.0 -38.2 481.0 -40.55 M418.5 -10.55 Q429.75 -5.1 462.5 4.7 504.1 17.05 524.85 17.1 527.55 17.05 528.9 7.2 528.85 -1.8 514.1 -7.85 497.7 -14.65 471.4 -13.7 L418.5 -10.55 M-432.8 -44.1 L-445.4 -48.35 Q-450.7 -50.5 -454.15 -53.25 L-419.8 -53.25 -415.0 -49.0 Q-410.2 -43.95 -399.85 -28.45 -390.15 -14.05 -383.7 -8.0 -373.6 1.3 -362.05 1.3 -357.85 1.3 -345.3 -1.85 -332.8 -5.05 -331.3 -5.05 -331.0 -5.05 -269.85 31.9 -269.85 37.2 -275.5 37.2 -282.35 37.2 -290.3 33.75 -295.05 31.7 -305.75 26.2 -329.15 15.1 -359.6 15.15 -401.55 15.1 -428.5 27.2 -436.65 30.75 -443.1 35.4 L-448.35 39.2 Q-450.65 39.2 -453.3 37.6 L-453.65 36.9 Q-454.0 36.35 -453.95 34.05 -454.0 22.2 -429.4 12.5 -408.1 4.15 -383.5 2.1 -394.3 -4.1 -403.7 -13.3 -414.2 -23.6 -415.75 -31.05 -417.5 -39.2 -432.8 -44.1 M-241.25 -53.25 L-196.85 -53.25 -222.3 -50.4 -241.25 -53.25 M-108.0 -49.6 L-108.75 -49.7 Q-107.3 -47.3 -107.3 -44.5 -107.3 -41.6 -111.25 -40.25 -113.9 -39.35 -123.65 -38.0 L-127.0 -37.55 Q-107.35 -23.95 -103.0 -21.6 -101.8 -21.0 -80.75 -18.35 -71.6 -17.25 -65.95 -15.95 -38.0 -26.25 -27.85 -31.45 -44.5 -31.95 -44.5 -41.35 -44.5 -43.95 -43.9 -44.9 L-41.8 -47.25 Q-68.6 -47.9 -76.45 -50.5 -83.6 -52.8 -92.45 -52.75 -98.2 -52.8 -108.0 -49.6 M-59.45 -0.65 Q-65.95 -0.7 -87.3 8.5 -98.6 13.3 -114.65 20.65 L-107.1 21.4 Q-89.5 21.4 -73.05 10.95 -67.95 7.6 -62.95 3.25 L-58.55 -0.65 -59.45 -0.65 M-328.65 8.8 Q-330.75 6.35 -334.3 7.6 L-336.0 8.4 -328.65 8.8" fill="url(#gradient3)" fill-rule="evenodd" stroke="none"/>
    <path d="M7.35 -82.4 Q4.85 -73.8 2.0 -68.0 -3.6 -57.15 -14.25 -57.15 -24.55 -57.15 -25.85 -70.55 L-25.75 -72.0 -36.1 -78.5 -41.85 -81.75 -48.05 -82.3 Q-50.25 -79.85 -52.2 -79.15 -52.6 -75.35 -55.8 -71.3 -59.3 -67.0 -62.1 -67.0 -68.9 -67.0 -71.3 -69.05 -72.8 -70.3 -73.15 -73.45 -73.5 -76.85 -74.6 -77.95 -76.7 -80.05 -82.7 -80.0 L-99.4 -81.5 Q-101.05 -79.65 -103.3 -79.65 -105.05 -79.65 -106.35 -80.75 L-107.3 -80.4 Q-107.95 -81.0 -108.65 -80.8 -108.75 -78.9 -109.35 -78.3 L-110.6 -77.25 Q-115.1 -76.6 -116.2 -80.1 -116.6 -81.2 -116.6 -84.9 -116.6 -91.9 -109.3 -91.9 L-107.8 -91.6 -106.65 -91.9 Q-105.0 -91.9 -103.6 -91.1 -103.2 -91.4 -103.0 -90.85 L-98.65 -93.8 Q-88.2 -100.55 -81.4 -100.55 -71.25 -100.55 -69.8 -95.25 -69.35 -93.6 -69.7 -91.1 L-69.75 -90.75 -65.95 -88.1 -64.65 -87.5 -61.45 -87.5 Q-60.3 -87.5 -59.1 -86.7 L-58.75 -86.7 -52.8 -85.55 -52.75 -85.5 -52.65 -85.6 -52.8 -87.7 Q-52.8 -90.85 -48.8 -92.65 -45.5 -94.25 -41.5 -94.2 -37.9 -94.25 -32.75 -90.75 L-30.85 -93.45 Q-28.45 -97.4 -24.85 -97.4 -20.55 -97.4 -18.85 -94.1 L-17.55 -89.5 -18.2 -87.1 Q-17.9 -86.8 -18.0 -86.5 -18.3 -85.95 -20.35 -85.95 -20.9 -85.95 -24.85 -90.7 -26.15 -89.65 -26.6 -87.85 L-26.9 -86.1 -20.65 -79.8 Q-17.3 -82.8 -14.9 -82.8 -12.9 -82.8 -10.7 -81.1 -8.7 -79.4 -8.25 -79.25 -4.8 -84.6 -3.15 -90.2 -1.55 -93.05 6.35 -93.05 10.45 -93.05 11.75 -91.6 L13.25 -88.55 Q15.85 -84.35 33.3 -85.15 31.05 -83.85 31.3 -83.45 L23.3 -83.95 14.1 -83.15 7.35 -82.4 M156.6 -91.5 Q165.45 -91.5 168.8 -84.6 L170.55 -76.45 Q177.8 -76.25 180.05 -80.65 181.25 -83.0 182.05 -83.7 183.7 -85.15 187.2 -85.15 191.45 -85.15 193.85 -81.6 195.5 -79.1 195.5 -76.85 195.5 -74.6 195.3 -74.65 194.9 -74.8 194.8 -74.5 L193.85 -72.5 Q192.45 -72.7 190.8 -74.65 189.25 -76.45 187.5 -76.45 185.85 -76.5 184.8 -75.2 L182.8 -72.3 Q179.4 -68.2 169.9 -68.15 168.7 -68.2 163.0 -72.45 L155.95 -77.65 Q155.15 -72.3 149.05 -68.95 140.5 -65.25 135.35 -62.25 L130.85 -62.55 Q129.65 -62.95 129.7 -65.55 129.7 -67.6 130.15 -69.0 L129.75 -69.5 126.7 -73.7 Q125.3 -73.7 112.9 -68.65 99.9 -63.45 97.8 -63.05 L98.75 -59.5 Q97.75 -57.55 97.8 -57.15 93.25 -59.1 92.8 -63.25 92.5 -65.65 92.45 -70.55 101.3 -73.65 114.05 -74.1 107.4 -78.85 107.4 -82.95 107.4 -86.35 115.15 -93.05 122.25 -99.35 124.05 -99.35 133.0 -99.35 140.05 -86.7 142.2 -82.8 143.9 -78.2 144.6 -91.5 156.6 -91.5 M404.3 -87.5 L404.25 -87.5 404.3 -87.5 Q405.55 -87.25 405.55 -83.3 405.55 -79.65 402.75 -77.8 399.75 -75.85 395.6 -77.25 396.1 -74.65 395.8 -72.75 395.05 -69.0 390.6 -68.95 387.05 -69.0 385.7 -76.1 384.95 -79.65 384.95 -83.15 384.95 -84.85 391.6 -93.1 399.1 -102.5 403.9 -102.5 412.35 -102.5 415.95 -99.1 418.5 -96.6 419.2 -91.1 419.5 -84.6 420.2 -81.45 L420.9 -79.1 Q421.5 -87.95 438.45 -87.9 443.5 -87.95 446.5 -85.6 450.7 -84.45 452.2 -81.6 453.65 -78.85 454.2 -78.35 454.95 -77.65 456.2 -77.3 L456.15 -77.7 455.75 -80.0 456.05 -81.2 459.05 -81.6 Q459.6 -80.95 460.15 -80.95 L460.4 -78.2 460.25 -76.4 461.4 -75.7 Q461.3 -74.2 461.0 -73.45 460.6 -72.3 458.95 -72.15 L457.05 -68.55 Q452.8 -61.45 446.45 -61.45 442.3 -61.5 440.85 -63.35 440.35 -64.0 439.35 -67.55 437.6 -73.45 427.25 -73.7 L425.35 -71.1 Q421.85 -67.4 417.2 -67.4 411.5 -67.4 410.05 -70.25 409.15 -72.05 409.8 -76.65 410.45 -81.6 409.95 -83.4 409.0 -86.8 404.3 -87.5 M425.8 -73.8 L424.4 -74.15 Q424.9 -73.7 425.5 -73.3 L425.8 -73.8 M-414.0 -97.95 Q-410.95 -100.95 -409.75 -100.95 -397.9 -100.95 -394.95 -89.5 L-394.25 -85.9 -392.95 -82.4 Q-391.95 -80.45 -389.8 -80.4 -385.25 -80.45 -383.45 -84.35 -381.75 -88.3 -377.85 -88.3 L-377.35 -88.25 Q-372.0 -95.15 -359.25 -98.55 -355.45 -98.55 -351.55 -92.8 -347.65 -87.1 -345.95 -87.1 -344.3 -87.15 -341.3 -88.7 -338.3 -90.3 -336.65 -90.3 -335.05 -90.3 -332.05 -88.6 L-331.3 -88.7 Q-329.6 -88.7 -327.7 -85.8 L-327.35 -85.55 -327.45 -85.4 -326.05 -82.85 Q-323.7 -78.05 -323.7 -76.65 -324.05 -73.7 -324.0 -71.3 L-324.65 -70.55 Q-325.35 -69.8 -327.35 -69.75 -328.65 -69.8 -330.4 -72.2 -335.35 -73.05 -337.25 -74.2 L-342.25 -77.05 -344.6 -76.85 Q-353.65 -76.9 -356.1 -81.35 -356.6 -82.3 -357.5 -85.4 -358.25 -87.95 -359.25 -89.1 -360.75 -88.4 -361.9 -86.25 L-363.9 -82.55 Q-366.6 -78.65 -373.55 -80.95 L-373.55 -79.8 Q-373.55 -77.4 -374.25 -75.3 L-374.25 -74.3 Q-374.9 -70.9 -377.35 -70.05 L-377.6 -69.75 Q-381.7 -65.45 -387.15 -65.4 -394.95 -65.45 -399.0 -70.7 L-401.6 -74.4 Q-402.85 -76.1 -404.25 -76.1 -405.6 -76.1 -416.4 -68.55 -424.85 -68.6 -426.15 -77.75 L-426.75 -77.1 -427.65 -71.65 Q-428.55 -65.4 -431.7 -65.4 -438.05 -65.4 -439.6 -71.7 -440.5 -74.9 -440.0 -78.2 -440.0 -82.0 -435.95 -89.5 -431.1 -98.6 -425.7 -98.55 -424.05 -98.6 -421.55 -96.75 -419.1 -95.05 -417.4 -95.0 -417.1 -95.05 -414.0 -97.95" fill="url(#gradient4)" fill-rule="evenodd" stroke="none"/>
    <path d="M2.0 -33.9 Q4.85 -30.0 7.35 -24.15 L14.1 -23.6 23.3 -23.0 31.3 -23.35 Q31.05 -23.1 33.3 -22.2 15.85 -22.75 13.25 -19.9 L11.75 -17.8 Q10.45 -16.85 6.35 -16.85 -1.55 -16.85 -3.15 -18.75 -4.8 -22.6 -8.25 -26.25 L-10.7 -24.95 Q-12.9 -23.85 -14.9 -23.85 -17.3 -23.85 -20.65 -25.9 L-26.9 -21.55 -26.6 -20.35 Q-26.15 -19.15 -24.85 -18.45 -20.9 -21.7 -20.35 -21.7 -18.3 -21.7 -18.0 -21.3 -17.9 -21.1 -18.2 -20.9 L-17.55 -19.25 -18.85 -16.1 Q-20.55 -13.85 -24.85 -13.85 -28.45 -13.85 -30.85 -16.55 L-32.75 -18.4 Q-37.9 -16.05 -41.5 -16.05 -45.5 -16.05 -48.8 -17.1 -52.8 -18.35 -52.8 -20.5 L-52.65 -21.9 -52.75 -22.0 -52.8 -21.95 -58.75 -21.15 -59.1 -21.15 Q-60.3 -20.6 -61.45 -20.6 L-64.65 -20.6 -65.95 -20.25 -69.75 -18.4 -69.7 -18.15 Q-69.35 -16.45 -69.8 -15.3 -71.25 -11.7 -81.4 -11.7 -88.2 -11.7 -98.65 -16.25 -101.1 -17.35 -103.0 -18.35 -103.2 -17.95 -103.6 -18.15 -105.0 -17.65 -106.65 -17.65 L-107.8 -17.8 -109.3 -17.65 Q-116.6 -17.65 -116.6 -22.4 -116.6 -24.95 -116.2 -25.65 -115.1 -28.05 -110.6 -27.6 -110.3 -27.25 -109.35 -26.95 -108.75 -26.5 -108.65 -25.15 -107.95 -25.1 -107.3 -25.45 L-106.35 -25.2 Q-105.05 -26.0 -103.3 -25.95 -101.05 -26.0 -99.4 -24.75 L-82.7 -25.75 Q-76.7 -25.75 -74.6 -27.15 -73.5 -27.9 -73.15 -30.2 -72.8 -32.4 -71.3 -33.25 -68.9 -34.65 -62.1 -34.6 -59.3 -34.65 -55.8 -31.65 -52.6 -28.95 -52.2 -26.35 -50.25 -25.85 -48.05 -24.15 L-41.85 -24.55 -36.1 -26.75 -25.75 -31.15 -25.85 -32.2 Q-24.55 -41.4 -14.25 -41.35 -3.6 -41.35 2.0 -33.9 M92.45 -32.2 Q92.5 -35.55 92.8 -37.15 93.25 -40.0 97.8 -41.35 97.75 -41.1 98.75 -39.75 L97.8 -37.3 Q99.9 -37.05 112.9 -33.5 125.3 -30.05 126.7 -30.05 L129.75 -32.9 130.15 -33.25 Q129.7 -34.25 129.7 -35.6 129.65 -37.4 130.85 -37.65 L135.35 -37.85 Q140.5 -35.85 149.05 -33.3 155.15 -31.05 155.95 -27.4 156.25 -27.5 163.0 -30.9 168.7 -33.85 169.9 -33.85 179.4 -33.85 182.8 -31.0 L184.8 -29.0 Q185.85 -28.15 187.5 -28.15 189.25 -28.2 190.8 -29.4 192.45 -30.75 193.85 -30.85 L194.8 -29.5 195.3 -29.4 Q195.5 -29.45 195.5 -27.85 195.5 -26.4 193.85 -24.65 191.45 -22.25 187.2 -22.2 183.7 -22.25 182.05 -23.2 181.25 -23.7 180.05 -25.3 177.8 -28.35 170.55 -28.15 L168.8 -22.55 Q165.45 -17.9 156.6 -17.9 144.6 -17.95 143.9 -27.0 142.2 -23.85 140.05 -21.15 133.0 -12.5 124.05 -12.5 122.25 -12.55 115.15 -16.85 107.4 -21.45 107.4 -23.75 107.4 -26.55 114.05 -29.75 101.3 -30.1 92.45 -32.2 M390.6 -33.3 Q395.05 -33.3 395.8 -30.7 396.1 -29.4 395.6 -27.6 399.75 -28.6 402.75 -27.25 405.55 -26.0 405.55 -23.45 405.55 -20.8 404.25 -20.6 409.0 -21.1 409.95 -23.4 410.45 -24.65 409.8 -28.05 409.15 -31.2 410.05 -32.4 411.5 -34.35 417.2 -34.35 421.85 -34.35 425.35 -31.8 L427.25 -30.05 Q437.6 -30.25 439.35 -34.25 440.35 -36.7 440.85 -37.1 442.3 -38.4 446.45 -38.4 452.8 -38.45 457.05 -33.55 L458.95 -31.1 Q460.6 -31.0 461.0 -30.2 461.3 -29.75 461.4 -28.7 L460.25 -28.15 460.4 -27.0 Q460.4 -25.3 460.15 -25.05 459.6 -25.1 459.05 -24.65 L456.05 -24.9 455.75 -25.75 456.15 -27.3 456.2 -27.6 454.2 -26.85 Q453.65 -26.55 452.2 -24.65 450.7 -22.7 446.5 -21.9 443.5 -20.35 438.45 -20.35 421.5 -20.35 420.9 -26.35 L420.2 -24.75 Q419.5 -22.6 419.2 -18.15 418.5 -14.4 415.95 -12.7 412.35 -10.4 403.9 -10.35 399.1 -10.4 391.6 -16.8 384.95 -22.45 384.95 -23.6 384.95 -26.0 385.7 -28.4 387.05 -33.3 390.6 -33.3 M425.8 -30.0 L425.5 -30.35 424.4 -29.7 425.8 -30.0 M-431.7 -35.7 Q-428.55 -35.7 -427.65 -31.4 L-426.75 -27.75 -426.15 -27.3 Q-424.85 -33.6 -416.4 -33.55 -405.6 -28.45 -404.25 -28.4 -402.85 -28.45 -401.6 -29.6 L-399.0 -32.1 Q-394.95 -35.7 -387.15 -35.7 -381.7 -35.7 -377.6 -32.7 L-377.35 -32.55 Q-374.9 -31.95 -374.25 -29.6 L-374.25 -28.95 Q-373.55 -27.55 -373.55 -25.9 L-373.55 -25.05 Q-366.6 -26.7 -363.9 -24.0 L-361.9 -21.5 Q-360.75 -20.0 -359.25 -19.5 -358.25 -20.35 -357.5 -22.05 L-356.1 -24.75 Q-353.65 -27.85 -344.6 -27.85 L-342.25 -27.75 -337.25 -29.7 Q-335.35 -30.5 -330.4 -31.05 -328.65 -32.75 -327.35 -32.7 -325.35 -32.75 -324.65 -32.2 L-324.0 -31.65 Q-324.05 -30.05 -323.7 -28.05 -323.7 -27.05 -326.05 -23.75 L-327.45 -22.05 -327.35 -21.95 -327.7 -21.8 Q-329.6 -19.8 -331.3 -19.8 L-332.05 -19.85 Q-335.05 -18.7 -336.65 -18.7 -338.3 -18.7 -341.3 -19.8 -344.3 -20.9 -345.95 -20.9 -347.65 -20.9 -351.55 -17.0 -355.45 -13.05 -359.25 -13.05 -372.0 -15.4 -377.35 -20.1 L-377.85 -20.05 Q-381.75 -20.05 -383.45 -22.75 -385.25 -25.45 -389.8 -25.45 -391.95 -25.5 -392.95 -24.15 L-394.25 -21.7 -394.95 -19.25 Q-397.9 -11.45 -409.75 -11.4 -410.95 -11.4 -414.0 -13.45 L-417.4 -15.5 Q-419.1 -15.5 -421.55 -14.3 -424.05 -13.05 -425.7 -13.05 -431.1 -13.05 -435.95 -19.25 -440.0 -24.4 -440.0 -27.0 -440.5 -29.25 -439.6 -31.4 -438.05 -35.7 -431.7 -35.7" fill="url(#gradient5)" fill-rule="evenodd" stroke="none"/>
    <path d="M73.75 -53.25 L5.75 -53.25 Q7.9 -57.9 14.35 -62.25 24.1 -68.95 34.95 -68.95 46.25 -69.0 61.95 -60.6 69.35 -56.7 73.75 -53.25 M196.9 -72.1 Q222.05 -85.55 231.05 -85.55 233.95 -85.55 260.75 -73.05 290.75 -60.7 309.5 -60.65 336.85 -60.7 354.15 -69.1 358.35 -71.2 363.95 -74.95 367.95 -77.65 369.35 -77.65 370.4 -77.65 384.35 -74.25 399.5 -70.55 402.2 -68.95 416.2 -60.7 427.85 -60.65 L457.05 -65.8 Q463.7 -65.8 477.0 -61.45 482.4 -61.5 492.45 -66.35 502.45 -71.35 514.9 -71.3 522.45 -71.35 529.55 -66.7 535.5 -69.2 546.15 -72.1 551.75 -72.15 555.65 -65.15 559.25 -62.3 560.8 -56.75 L561.45 -53.25 165.4 -53.25 Q167.35 -55.05 170.75 -55.15 179.95 -63.1 196.9 -72.1 M-416.3 -64.45 L-403.05 -72.7 Q-384.35 -84.8 -374.55 -84.75 -371.45 -84.75 -365.45 -81.75 L-353.0 -75.3 Q-334.4 -65.85 -318.7 -65.8 -313.15 -65.85 -309.95 -67.15 -305.4 -69.05 -291.1 -70.55 -288.65 -70.8 -282.05 -72.7 -275.8 -74.5 -274.15 -74.5 -265.65 -74.5 -259.05 -70.15 -252.5 -65.85 -243.05 -65.8 -228.55 -65.85 -206.85 -73.3 -185.2 -80.85 -181.75 -80.8 -155.95 -70.7 -145.55 -54.75 L-145.55 -53.25 -475.5 -53.25 -473.7 -55.4 Q-464.35 -65.8 -448.35 -65.8 -443.95 -65.85 -439.55 -63.2 -435.25 -60.7 -427.2 -60.65 -423.15 -60.7 -416.3 -64.45" fill="url(#gradient6)" fill-rule="evenodd" stroke="none"/>
    <path d="M34.95 -38.15 Q24.1 -38.15 14.35 -43.25 7.9 -46.55 5.75 -50.05 L73.75 -50.05 Q69.35 -47.45 61.95 -44.5 46.25 -38.15 34.95 -38.15 M196.9 -35.7 Q179.95 -42.6 170.75 -48.65 167.35 -48.7 165.4 -50.05 L561.45 -50.05 560.8 -47.4 Q559.25 -43.2 555.65 -41.0 551.75 -35.7 546.15 -35.7 535.5 -37.95 529.55 -39.85 522.45 -36.35 514.9 -36.35 502.45 -36.35 492.45 -40.1 482.4 -43.85 477.0 -43.8 463.7 -40.55 457.05 -40.55 L427.85 -44.4 Q416.2 -44.45 402.2 -38.15 399.5 -36.95 384.35 -34.1 L369.35 -31.5 Q367.95 -31.55 363.95 -33.55 358.35 -36.45 354.15 -38.0 336.85 -44.45 309.5 -44.4 290.75 -44.45 260.75 -35.0 233.95 -25.55 231.05 -25.5 222.05 -25.5 196.9 -35.7 M-448.35 -40.55 Q-464.35 -40.55 -473.7 -48.45 L-475.5 -50.05 -145.55 -50.05 -145.55 -48.9 Q-155.95 -36.8 -181.75 -29.15 -185.2 -29.15 -206.85 -34.8 -228.55 -40.55 -243.05 -40.55 -252.5 -40.55 -259.05 -37.2 -265.65 -33.9 -274.15 -33.9 L-282.05 -35.3 -291.1 -36.9 Q-305.4 -38.05 -309.95 -39.5 -313.15 -40.55 -318.7 -40.55 -334.4 -40.55 -353.0 -33.35 L-365.45 -28.4 Q-371.45 -26.15 -374.55 -26.15 -384.35 -26.15 -403.05 -35.3 L-416.3 -41.55 Q-423.15 -44.45 -427.2 -44.4 -435.25 -44.45 -439.55 -42.5 -443.95 -40.55 -448.35 -40.55" fill="url(#gradient7)" fill-rule="evenodd" stroke="none"/>
    <path d="M72.3 -50.8 L167.85 -55.25 168.1 -47.0 Q224.95 -17.65 378.9 138.1 174.4 7.1 13.8 124.05 L72.3 -50.8" fill="url(#gradient8)" fill-rule="evenodd" stroke="none"/>
    <path d="M-44.7 -53.35 L4.55 -51.4 -106.45 88.2 -128.8 -50.05 -44.7 -53.35" fill="url(#gradient9)" fill-rule="evenodd" stroke="none"/>
    <path d="M72.3 -51.75 L72.3 -50.8" fill="none" stroke="#000000" stroke-linecap="round" stroke-linejoin="round" stroke-width="1.0"/>
  </g>
  <defs>
    <linearGradient gradientTransform="matrix(0.0, -0.375, 0.6256, 0.0, 44.9, 58.1)" gradientUnits="userSpaceOnUse" id="gradient0" spreadMethod="pad" x1="-819.2" x2="819.2">
      <stop offset="0.0" stop-color="#ffffff"/>
      <stop offset="0.6980392156862745" stop-color="#f7d85e"/>
      <stop offset="1.0" stop-color="#cb4e4e"/>
    </linearGradient>
    <radialGradient cx="0" cy="0" gradientTransform="matrix(0.0678, 0.0, 0.0, 0.085, 94.2, -59.2)" gradientUnits="userSpaceOnUse" id="gradient1" r="819.2" spreadMethod="pad">
      <stop offset="0.0" stop-color="#ffffff"/>
      <stop offset="0.1568627450980392" stop-color="#ffff66"/>
      <stop offset="0.5490196078431373" stop-color="#ffcc00" stop-opacity="0.6"/>
      <stop offset="1.0" stop-color="#ffcc00" stop-opacity="0.0"/>
    </radialGradient>
    <linearGradient gradientTransform="matrix(0.0, 0.2014, -0.6242, 0.0, 38.4, 110.15)" gradientUnits="userSpaceOnUse" id="gradient2" spreadMethod="pad" x1="-819.2" x2="819.2">
      <stop offset="0.0" stop-color="#433d34"/>
      <stop offset="0.2549019607843137" stop-color="#2e3252"/>
    </linearGradient>
    <linearGradient gradientTransform="matrix(7.0E-4, -0.0651, 0.6072, 0.0095, 42.75, -6.55)" gradientUnits="userSpaceOnUse" id="gradient3" spreadMethod="pad" x1="-819.2" x2="819.2">
      <stop offset="0.0" stop-color="#ffffff" stop-opacity="0.0"/>
      <stop offset="1.0" stop-color="#ffffff" stop-opacity="0.09019608"/>
    </linearGradient>
    <linearGradient gradientTransform="matrix(5.0E-4, 0.035, -0.55, 0.0115, 10.5, -81.05)" gradientUnits="userSpaceOnUse" id="gradient4" spreadMethod="pad" x1="-819.2" x2="819.2">
      <stop offset="0.0" stop-color="#ffffff"/>
      <stop offset="1.0" stop-color="#ffffff" stop-opacity="0.0"/>
    </linearGradient>
    <linearGradient gradientTransform="matrix(5.0E-4, -0.0239, -0.55, -0.0078, 10.5, -24.95)" gradientUnits="userSpaceOnUse" id="gradient5" spreadMethod="pad" x1="-819.2" x2="819.2">
      <stop offset="0.0" stop-color="#ffffff" stop-opacity="0.2"/>
      <stop offset="1.0" stop-color="#ffffff" stop-opacity="0.0"/>
    </linearGradient>
    <linearGradient gradientTransform="matrix(0.0, 0.0197, -0.6329, 0.0, 43.0, -69.5)" gradientUnits="userSpaceOnUse" id="gradient6" spreadMethod="pad" x1="-819.2" x2="819.2">
      <stop offset="0.0" stop-color="#864d13"/>
      <stop offset="1.0" stop-color="#292530"/>
    </linearGradient>
    <linearGradient gradientTransform="matrix(0.0, -0.015, -0.6329, 0.0, 43.0, -37.8)" gradientUnits="userSpaceOnUse" id="gradient7" spreadMethod="pad" x1="-819.2" x2="819.2">
      <stop offset="0.0" stop-color="#864d13" stop-opacity="0.3529412"/>
      <stop offset="1.0" stop-color="#292530" stop-opacity="0.3529412"/>
    </linearGradient>
    <linearGradient gradientTransform="matrix(0.0279, 0.1556, -0.2117, 0.0535, 182.65, 54.5)" gradientUnits="userSpaceOnUse" id="gradient8" spreadMethod="pad" x1="-819.2" x2="819.2">
      <stop offset="0.0" stop-color="#ffff66" stop-opacity="0.101960786"/>
      <stop offset="0.4549019607843137" stop-color="#ffcc00" stop-opacity="0.0"/>
    </linearGradient>
    <linearGradient gradientTransform="matrix(-0.0832, 0.043, -0.0282, -0.0768, -61.3, -10.0)" gradientUnits="userSpaceOnUse" id="gradient9" spreadMethod="pad" x1="-819.2" x2="819.2">
      <stop offset="0.0" stop-color="#ffff66" stop-opacity="0.101960786"/>
      <stop offset="0.4549019607843137" stop-color="#ffcc00" stop-opacity="0.0"/>
    </linearGradient>
  </defs>
</svg>
