<?xml version="1.0" encoding="UTF-8" standalone="no"?>
<svg xmlns:ffdec="https://www.free-decompiler.com/flash" xmlns:xlink="http://www.w3.org/1999/xlink" ffdec:objectType="shape" height="402.1px" width="790.2px" xmlns="http://www.w3.org/2000/svg">
  <g transform="matrix(1.0, 0.0, 0.0, 1.0, 394.5, 186.4)">
    <path d="M100.65 -6.35 L100.65 22.15 94.65 22.15 94.65 -6.35 100.65 -6.35" fill="url(#gradient0)" fill-rule="evenodd" stroke="none"/>
    <path d="M186.65 -7.65 L189.65 -7.65 189.65 4.65 186.65 4.65 186.65 -7.65" fill="url(#gradient1)" fill-rule="evenodd" stroke="none"/>
    <path d="M233.65 -12.05 L233.65 -3.85 231.65 -3.85 231.65 -12.05 233.65 -12.05" fill="url(#gradient2)" fill-rule="evenodd" stroke="none"/>
    <path d="M-210.95 50.15 L-210.95 114.15 -233.95 114.15 -233.95 50.15 -210.95 50.15" fill="url(#gradient3)" fill-rule="evenodd" stroke="none"/>
    <path d="M-43.4 13.65 L-43.4 52.7 -52.9 52.7 -52.9 13.65 -43.4 13.65" fill="url(#gradient4)" fill-rule="evenodd" stroke="none"/>
    <path d="M100.65 -6.35 L100.65 22.15 94.65 22.15 94.65 -6.35 100.65 -6.35 M186.65 -7.65 L186.65 4.65 189.65 4.65 189.65 -7.65 M233.65 -12.05 L233.65 -3.85 231.65 -3.85 231.65 -12.05 M-43.4 13.65 L-43.4 52.7 -52.9 52.7 -52.9 13.65 -43.4 13.65 M-210.95 50.15 L-210.95 114.15 -233.95 114.15 -233.95 50.15 -210.95 50.15 Z" fill="none" stroke="#000000" stroke-linecap="round" stroke-linejoin="round" stroke-width="1.0"/>
    <path d="M189.65 -5.05 L189.65 13.45 186.65 13.45 186.65 -5.05 189.65 -5.05" fill="url(#gradient5)" fill-rule="evenodd" stroke="none"/>
    <path d="M233.65 -6.55 L233.65 4.95 231.65 4.95 231.65 -6.55 233.65 -6.55" fill="url(#gradient6)" fill-rule="evenodd" stroke="none"/>
    <path d="M100.65 2.45 L100.65 30.95 94.65 30.95 94.65 2.45 100.65 2.45" fill="url(#gradient7)" fill-rule="evenodd" stroke="none"/>
    <path d="M-43.4 22.45 L-43.4 61.5 -52.9 61.5 -52.9 22.45 -43.4 22.45" fill="url(#gradient8)" fill-rule="evenodd" stroke="none"/>
    <path d="M-210.95 58.95 L-210.95 122.95 -233.95 122.95 -233.95 58.95 -210.95 58.95" fill="url(#gradient9)" fill-rule="evenodd" stroke="none"/>
    <path d="M189.65 -5.05 L189.65 13.45 186.65 13.45 186.65 -5.05 189.65 -5.05 M233.65 -6.55 L233.65 4.95 231.65 4.95 231.65 -6.55 233.65 -6.55 M100.65 2.45 L100.65 30.95 94.65 30.95 94.65 2.45 100.65 2.45 M-43.4 22.45 L-43.4 61.5 -52.9 61.5 -52.9 22.45 -43.4 22.45 M-210.95 58.95 L-210.95 122.95 -233.95 122.95 -233.95 58.95 -210.95 58.95 Z" fill="none" stroke="#000000" stroke-linecap="round" stroke-linejoin="round" stroke-width="1.0"/>
    <path d="M254.6 -3.1 L254.6 -0.05 254.4 -0.05 253.65 0.05 253.25 -2.95 254.0 -3.05 254.6 -3.1" fill="#ffffff" fill-rule="evenodd" stroke="none"/>
    <path d="M254.5 -13.55 L254.6 -13.55 254.6 -10.45 254.5 -13.55 M283.65 54.15 L291.75 57.6 291.65 57.6 286.45 55.9 283.65 54.95 283.65 54.15" fill="#00cccc" fill-rule="evenodd" stroke="none"/>
    <path d="M264.85 -85.4 L309.05 -92.55 308.2 -82.25 265.85 -77.25 264.85 -85.4 M385.05 -81.8 L384.95 -81.9 Q381.25 -88.05 343.1 -84.6 L343.7 -93.85 Q377.65 -96.5 384.95 -91.55 L385.65 -91.0 385.05 -81.8" fill="#fefe67" fill-rule="evenodd" stroke="none"/>
    <path d="M307.0 -108.55 L307.0 -185.9 311.1 -185.9 311.1 -108.95 307.0 -108.55" fill="url(#gradient10)" fill-rule="evenodd" stroke="none"/>
    <path d="M294.7 -107.15 L294.7 -163.35 298.8 -163.35 298.8 -107.6 294.7 -107.15" fill="url(#gradient11)" fill-rule="evenodd" stroke="none"/>
    <path d="M311.1 -108.95 Q358.7 -113.55 379.85 -106.7 382.6 -105.8 384.95 -104.7 388.1 -103.2 390.4 -101.35 L392.15 -101.0 392.15 -29.65 Q390.8 -31.35 384.95 -32.5 360.2 -37.4 254.6 -33.05 L254.6 -100.65 255.3 -100.65 258.45 -101.75 Q277.95 -105.05 294.7 -107.15 L298.8 -107.6 307.0 -108.55 311.1 -108.95 M265.85 -77.25 L308.2 -82.25 309.05 -92.55 264.85 -85.4 264.85 -77.15 265.85 -77.25 M385.05 -81.8 L385.65 -91.0 384.95 -91.55 Q377.65 -96.5 343.7 -93.85 L343.1 -84.6 Q381.25 -88.05 384.95 -81.9 L385.05 -81.8" fill="url(#gradient12)" fill-rule="evenodd" stroke="none"/>
    <path d="M254.6 -13.55 L254.6 -33.05 Q360.2 -37.4 384.95 -32.5 390.8 -31.35 392.15 -29.65 L392.15 73.2 384.95 72.6 366.5 70.8 342.9 67.7 Q313.95 64.35 291.75 57.6 L283.65 54.15 283.9 7.5 283.9 2.85 267.5 1.85 267.4 2.05 266.95 2.85 266.0 47.6 Q259.9 44.55 254.6 41.1 L254.6 0.1 254.6 -0.05 254.6 -3.1 254.6 -10.45 254.6 -13.55" fill="url(#gradient13)" fill-rule="evenodd" stroke="none"/>
    <path d="M254.5 -13.55 L254.6 -10.45 Q-61.2 2.0 -349.6 103.9 -369.3 110.85 -388.85 118.25 L-387.8 93.65 Q-82.8 -4.3 254.5 -13.55" fill="url(#gradient14)" fill-rule="evenodd" stroke="none"/>
    <path d="M379.85 -106.7 L379.85 -137.65 384.95 -137.65 384.95 -104.7 Q382.6 -105.8 379.85 -106.7" fill="url(#gradient15)" fill-rule="evenodd" stroke="none"/>
    <path d="M291.75 57.6 Q313.95 64.35 342.9 67.7 L366.5 70.8 384.95 72.6 392.15 73.2 392.15 110.8 392.15 212.9 Q207.7 195.7 66.95 145.75 110.15 123.2 157.7 103.9 178.05 95.65 199.15 88.0 240.6 72.9 285.1 60.15 L291.75 57.6 M291.55 58.3 L285.15 60.15 285.1 60.15 285.15 60.15 291.55 58.3 M199.15 88.0 Q238.45 98.2 276.75 103.9 335.65 112.7 392.15 110.8 335.65 112.7 276.75 103.9 238.45 98.2 199.15 88.0" fill="url(#gradient16)" fill-rule="evenodd" stroke="none"/>
    <path d="M392.15 212.9 L392.15 215.2 -45.55 215.2 Q6.4 177.3 66.95 145.75 207.7 195.7 392.15 212.9" fill="url(#gradient17)" fill-rule="evenodd" stroke="none"/>
    <path d="M266.95 2.85 L267.4 2.05 267.5 1.85 283.9 2.85 283.9 7.5 270.8 6.2 266.95 2.85" fill="url(#gradient18)" fill-rule="evenodd" stroke="none"/>
    <path d="M266.0 47.6 L266.95 2.85 270.8 6.2 270.8 46.2 270.8 46.7 266.7 47.5 266.4 47.5 266.0 47.6" fill="url(#gradient19)" fill-rule="evenodd" stroke="none"/>
    <path d="M283.9 7.5 L283.65 54.15 270.8 46.7 270.8 46.2 270.8 6.2 283.9 7.5" fill="url(#gradient20)" fill-rule="evenodd" stroke="none"/>
    <path d="M254.6 0.1 L254.6 41.1 Q259.9 44.55 266.0 47.6 L266.4 47.5 266.7 47.5 270.8 46.7 283.65 54.15 283.65 54.95 286.45 55.9 285.1 60.15 Q240.6 72.9 199.15 88.0 178.05 95.65 157.7 103.9 110.15 123.2 66.95 145.75 6.4 177.3 -45.55 215.2 L-387.8 215.2 -387.8 210.6 Q-281.7 149.3 -161.5 103.9 28.45 32.15 253.65 0.05 L254.4 -0.05 254.6 0.1" fill="url(#gradient21)" fill-rule="evenodd" stroke="none"/>
    <path d="M285.1 60.15 L286.45 55.9 291.65 57.6 291.75 57.6 285.1 60.15" fill="url(#gradient22)" fill-rule="evenodd" stroke="none"/>
    <path d="M253.25 -2.95 L253.65 0.05 Q28.45 32.15 -161.5 103.9 -281.7 149.3 -387.8 210.6 L-388.15 180.25 Q-303.35 137.6 -210.6 103.9 0.8 27.1 253.25 -2.95" fill="url(#gradient23)" fill-rule="evenodd" stroke="none"/>
    <path d="M307.0 -108.55 L307.0 -185.9 311.1 -185.9 311.1 -108.95 Q358.7 -113.55 379.85 -106.7 L379.85 -137.65 384.95 -137.65 384.95 -104.7 Q388.1 -103.2 390.4 -101.35 L392.15 -101.75 395.2 -101.75 M294.7 -107.15 L294.7 -163.35 298.8 -163.35 298.8 -107.6 307.0 -108.55 311.1 -108.95 M258.45 -101.75 L255.65 -101.75 M255.3 -100.65 L258.45 -101.75 Q277.95 -105.05 294.7 -107.15 L298.8 -107.6 M254.6 -100.65 L254.6 -101.75 M264.85 -85.4 L309.05 -92.55 308.2 -82.25 265.85 -77.25 264.85 -77.15 264.85 -85.4 M254.5 -13.55 L254.6 -13.55 254.6 -33.05 254.6 -100.65 M254.6 -13.55 L254.6 -10.45 254.6 -3.1 254.6 -0.05 254.6 0.1 254.6 41.1 Q259.9 44.55 266.0 47.6 L266.95 2.85 267.4 2.05 M267.5 1.85 L283.9 2.85 283.9 7.5 283.65 54.15 270.8 46.7 266.7 47.5 M291.75 57.6 Q313.95 64.35 342.9 67.7 L366.5 70.8 384.95 72.6 392.15 73.2 392.15 -29.65 Q390.8 -31.35 384.95 -32.5 360.2 -37.4 254.6 -33.05 M254.6 -10.45 Q-61.2 2.0 -349.6 103.9 -369.3 110.85 -388.85 118.25 L-387.8 93.65 Q-82.8 -4.3 254.5 -13.55 M254.6 -3.1 L254.0 -3.05 253.25 -2.95 Q0.8 27.1 -210.6 103.9 -303.35 137.6 -388.15 180.25 L-387.8 210.6 Q-281.7 149.3 -161.5 103.9 28.45 32.15 253.65 0.05 L254.4 -0.05 254.6 -0.05 M392.15 -101.75 L392.15 -101.0 393.15 -100.75 M390.4 -101.35 L392.15 -101.0 392.15 -29.65 M379.85 -106.7 Q382.6 -105.8 384.95 -104.7 M385.05 -81.8 L384.95 -81.9 Q381.25 -88.05 343.1 -84.6 L343.7 -93.85 Q377.65 -96.5 384.95 -91.55 L385.65 -91.0 385.05 -81.8 M392.15 212.9 L392.15 215.2 M-45.55 215.2 L-387.8 215.2 -387.8 210.6 -394.0 214.2 M266.95 2.85 L270.8 6.2 283.9 7.5 M270.8 46.2 L270.8 6.2 M286.45 55.9 L283.65 54.95 283.65 54.15 M286.45 55.9 L291.65 57.6 291.75 57.6 M285.1 60.15 L285.15 60.15 291.55 58.3 M66.95 145.75 Q110.15 123.2 157.7 103.9 178.05 95.65 199.15 88.0 240.6 72.9 285.1 60.15 M392.15 110.8 Q335.65 112.7 276.75 103.9 238.45 98.2 199.15 88.0 M66.95 145.75 Q207.7 195.7 392.15 212.9 M254.6 0.1 L254.4 -0.05 M-388.15 180.25 L-390.9 181.35 M-45.55 215.2 Q6.4 177.3 66.95 145.75" fill="none" stroke="#000000" stroke-linecap="round" stroke-linejoin="round" stroke-width="1.0"/>
    <path d="M392.15 73.6 L391.05 73.6 391.15 72.75 392.15 72.85 392.15 73.6" fill="url(#gradient24)" fill-rule="evenodd" stroke="none"/>
    <path d="M250.05 7.4 L250.05 8.8 235.7 0.45 237.75 0.25 250.05 7.4" fill="url(#gradient25)" fill-rule="evenodd" stroke="none"/>
    <path d="M219.0 21.2 L191.7 5.35 194.7 5.05 222.05 20.9 219.0 21.2" fill="url(#gradient26)" fill-rule="evenodd" stroke="none"/>
    <path d="M139.1 45.15 L97.05 20.75 103.05 20.1 145.2 44.55 139.1 45.15" fill="url(#gradient27)" fill-rule="evenodd" stroke="none"/>
    <path d="M7.35 85.75 L-50.35 52.3 -40.75 51.35 16.9 84.8 7.35 85.75" fill="url(#gradient28)" fill-rule="evenodd" stroke="none"/>
    <path d="M-136.5 163.15 L-231.0 108.3 -211.85 100.95 -207.15 103.9 Q-158.4 134.65 -113.3 160.85 L-136.5 163.15" fill="url(#gradient29)" fill-rule="evenodd" stroke="none"/>
    <path d="M266.05 -42.4 Q274.5 -70.1 286.5 -70.1 298.45 -70.1 306.95 -42.4 315.4 -14.7 315.4 24.45 315.4 37.4 314.5 49.15 L312.4 49.0 Q282.4 45.0 258.6 26.0 L257.6 24.45 Q257.6 9.0 258.9 -4.7 260.95 -25.65 266.05 -42.4" fill="url(#gradient30)" fill-rule="evenodd" stroke="none"/>
    <path d="M385.4 -45.0 Q394.3 -17.6 394.35 21.15 394.3 39.7 392.25 55.65 L392.15 56.55 334.65 49.15 Q333.35 36.0 333.35 21.15 333.3 -17.6 342.25 -45.0 351.2 -72.4 363.85 -72.4 376.15 -72.4 384.95 -46.25 L385.4 -45.0" fill="url(#gradient31)" fill-rule="evenodd" stroke="none"/>
  </g>
  <defs>
    <linearGradient gradientTransform="matrix(0.0037, 0.0, 0.0, 0.0174, 97.65, 7.9)" gradientUnits="userSpaceOnUse" id="gradient0" spreadMethod="pad" x1="-819.2" x2="819.2">
      <stop offset="0.0" stop-color="#ed8f34"/>
      <stop offset="0.33725490196078434" stop-color="#aaaaaa"/>
      <stop offset="0.44313725490196076" stop-color="#a6a6a6"/>
      <stop offset="0.47843137254901963" stop-color="#ffffff"/>
      <stop offset="0.6745098039215687" stop-color="#bfbfbf"/>
      <stop offset="1.0" stop-color="#595959"/>
    </linearGradient>
    <linearGradient gradientTransform="matrix(0.0029, 3.0E-4, -0.0011, 0.0114, 188.15, -4.65)" gradientUnits="userSpaceOnUse" id="gradient1" spreadMethod="pad" x1="-819.2" x2="819.2">
      <stop offset="0.0" stop-color="#ed8f34"/>
      <stop offset="0.33725490196078434" stop-color="#aaaaaa"/>
      <stop offset="0.44313725490196076" stop-color="#a6a6a6"/>
      <stop offset="0.47843137254901963" stop-color="#ffffff"/>
      <stop offset="0.6745098039215687" stop-color="#bfbfbf"/>
      <stop offset="1.0" stop-color="#595959"/>
    </linearGradient>
    <linearGradient gradientTransform="matrix(0.0021, 0.0068, -0.0031, 9.0E-4, 232.7, -9.65)" gradientUnits="userSpaceOnUse" id="gradient2" spreadMethod="pad" x1="-819.2" x2="819.2">
      <stop offset="0.0" stop-color="#ed8f34"/>
      <stop offset="0.33725490196078434" stop-color="#aaaaaa"/>
      <stop offset="0.44313725490196076" stop-color="#a6a6a6"/>
      <stop offset="0.47843137254901963" stop-color="#ffffff"/>
      <stop offset="0.6745098039215687" stop-color="#bfbfbf"/>
      <stop offset="1.0" stop-color="#595959"/>
    </linearGradient>
    <linearGradient gradientTransform="matrix(0.014, 0.0, 0.0, 0.0391, -222.45, 82.15)" gradientUnits="userSpaceOnUse" id="gradient3" spreadMethod="pad" x1="-819.2" x2="819.2">
      <stop offset="0.0" stop-color="#ed8f34"/>
      <stop offset="0.18823529411764706" stop-color="#a6a6a6"/>
      <stop offset="0.2901960784313726" stop-color="#c8c8c8"/>
      <stop offset="0.33725490196078434" stop-color="#ffffff"/>
      <stop offset="0.4470588235294118" stop-color="#cccccc"/>
      <stop offset="0.6745098039215687" stop-color="#bfbfbf"/>
      <stop offset="1.0" stop-color="#595959"/>
    </linearGradient>
    <linearGradient gradientTransform="matrix(0.0058, 0.0, 0.0, 0.0238, -48.15, 33.15)" gradientUnits="userSpaceOnUse" id="gradient4" spreadMethod="pad" x1="-819.2" x2="819.2">
      <stop offset="0.0" stop-color="#ed8f34"/>
      <stop offset="0.18823529411764706" stop-color="#a6a6a6"/>
      <stop offset="0.2901960784313726" stop-color="#c8c8c8"/>
      <stop offset="0.33725490196078434" stop-color="#ffffff"/>
      <stop offset="0.4470588235294118" stop-color="#cccccc"/>
      <stop offset="0.6745098039215687" stop-color="#bfbfbf"/>
      <stop offset="1.0" stop-color="#595959"/>
    </linearGradient>
    <linearGradient gradientTransform="matrix(8.0E-4, 0.0114, -0.0026, 2.0E-4, 188.15, 4.2)" gradientUnits="userSpaceOnUse" id="gradient5" spreadMethod="pad" x1="-819.2" x2="819.2">
      <stop offset="0.1568627450980392" stop-color="#000000" stop-opacity="0.6509804"/>
      <stop offset="0.47843137254901963" stop-color="#000000" stop-opacity="0.07058824"/>
      <stop offset="1.0" stop-color="#000000" stop-opacity="0.0"/>
    </linearGradient>
    <linearGradient gradientTransform="matrix(0.0, 0.079, -0.2854, 0.0, -0.15, 58.2)" gradientUnits="userSpaceOnUse" id="gradient6" spreadMethod="pad" x1="-819.2" x2="819.2">
      <stop offset="0.0" stop-color="#000000" stop-opacity="0.4509804"/>
      <stop offset="1.0" stop-color="#000000" stop-opacity="0.0"/>
    </linearGradient>
    <linearGradient gradientTransform="matrix(0.0, 0.0174, -0.0037, 0.0, 97.65, 16.7)" gradientUnits="userSpaceOnUse" id="gradient7" spreadMethod="pad" x1="-819.2" x2="819.2">
      <stop offset="0.1568627450980392" stop-color="#000000" stop-opacity="0.6509804"/>
      <stop offset="0.47843137254901963" stop-color="#000000" stop-opacity="0.07058824"/>
      <stop offset="0.615686274509804" stop-color="#000000" stop-opacity="0.0"/>
      <stop offset="0.8352941176470589" stop-color="#000000" stop-opacity="0.53333336"/>
    </linearGradient>
    <linearGradient gradientTransform="matrix(0.0, 0.0238, -0.0058, 0.0, -48.15, 41.95)" gradientUnits="userSpaceOnUse" id="gradient8" spreadMethod="pad" x1="-819.2" x2="819.2">
      <stop offset="0.1568627450980392" stop-color="#000000" stop-opacity="0.6509804"/>
      <stop offset="0.47843137254901963" stop-color="#000000" stop-opacity="0.07058824"/>
      <stop offset="0.615686274509804" stop-color="#000000" stop-opacity="0.0"/>
      <stop offset="0.8352941176470589" stop-color="#000000" stop-opacity="0.53333336"/>
    </linearGradient>
    <linearGradient gradientTransform="matrix(7.0E-4, 0.0393, -0.0147, 3.0E-4, -222.5, 90.95)" gradientUnits="userSpaceOnUse" id="gradient9" spreadMethod="pad" x1="-819.2" x2="819.2">
      <stop offset="0.1568627450980392" stop-color="#000000" stop-opacity="0.6509804"/>
      <stop offset="0.47843137254901963" stop-color="#000000" stop-opacity="0.07058824"/>
      <stop offset="0.615686274509804" stop-color="#000000" stop-opacity="0.0"/>
      <stop offset="0.8352941176470589" stop-color="#000000" stop-opacity="0.53333336"/>
    </linearGradient>
    <linearGradient gradientTransform="matrix(0.0, 0.0472, -0.0025, 0.0, 309.05, -147.25)" gradientUnits="userSpaceOnUse" id="gradient10" spreadMethod="pad" x1="-819.2" x2="819.2">
      <stop offset="0.0" stop-color="#595959"/>
      <stop offset="1.0" stop-color="#2b2b2b"/>
    </linearGradient>
    <linearGradient gradientTransform="matrix(0.0, 0.0343, -0.0025, 0.0, 296.7, -135.25)" gradientUnits="userSpaceOnUse" id="gradient11" spreadMethod="pad" x1="-819.2" x2="819.2">
      <stop offset="0.0" stop-color="#595959"/>
      <stop offset="1.0" stop-color="#2b2b2b"/>
    </linearGradient>
    <radialGradient cx="0" cy="0" gradientTransform="matrix(0.0037, 0.2028, -0.1157, 0.0021, 292.5, -77.3)" gradientUnits="userSpaceOnUse" id="gradient12" r="819.2" spreadMethod="pad">
      <stop offset="0.0" stop-color="#b96f4f"/>
      <stop offset="0.6588235294117647" stop-color="#592626"/>
      <stop offset="1.0" stop-color="#9c5a7c"/>
    </radialGradient>
    <radialGradient cx="0" cy="0" fx="6.4" fy="0" gradientTransform="matrix(0.0, 0.221, -0.1269, 0.0, 276.1, -8.6)" gradientUnits="userSpaceOnUse" id="gradient13" r="819.2" spreadMethod="pad">
      <stop offset="0.0" stop-color="#563a21"/>
      <stop offset="0.7294117647058823" stop-color="#1a1a1a"/>
      <stop offset="1.0" stop-color="#3d476d"/>
    </radialGradient>
    <radialGradient cx="0" cy="0" gradientTransform="matrix(0.0184, 0.1879, -0.9408, 0.0922, 24.6, 101.15)" gradientUnits="userSpaceOnUse" id="gradient14" r="819.2" spreadMethod="pad">
      <stop offset="0.5019607843137255" stop-color="#e49445"/>
      <stop offset="0.5686274509803921" stop-color="#595959"/>
      <stop offset="0.6039215686274509" stop-color="#ffffff"/>
      <stop offset="0.6352941176470588" stop-color="#ac8853"/>
      <stop offset="0.6588235294117647" stop-color="#a2a2a2"/>
      <stop offset="0.6784313725490196" stop-color="#fadec2"/>
      <stop offset="0.7137254901960784" stop-color="#efa254"/>
    </radialGradient>
    <linearGradient gradientTransform="matrix(0.0, 0.0201, -0.0031, 0.0, 382.4, -121.2)" gradientUnits="userSpaceOnUse" id="gradient15" spreadMethod="pad" x1="-819.2" x2="819.2">
      <stop offset="0.0" stop-color="#595959"/>
      <stop offset="1.0" stop-color="#2b2b2b"/>
    </linearGradient>
    <radialGradient cx="0" cy="0" gradientTransform="matrix(0.496, 0.0, 0.0, 0.4958, 379.7, 342.2)" gradientUnits="userSpaceOnUse" id="gradient16" r="819.2" spreadMethod="pad">
      <stop offset="0.39215686274509803" stop-color="#605342"/>
      <stop offset="1.0" stop-color="#3e2828"/>
    </radialGradient>
    <radialGradient cx="0" cy="0" fx="9.600000000000001" fy="0" gradientTransform="matrix(0.496, 0.0, 0.0, 0.4958, 379.7, 342.2)" gradientUnits="userSpaceOnUse" id="gradient17" r="819.2" spreadMethod="pad">
      <stop offset="0.39215686274509803" stop-color="#605342"/>
      <stop offset="1.0" stop-color="#3e2828"/>
    </radialGradient>
    <linearGradient gradientTransform="matrix(1.0E-4, -0.0033, 0.0104, 2.0E-4, 275.45, 4.65)" gradientUnits="userSpaceOnUse" id="gradient18" spreadMethod="pad" x1="-819.2" x2="819.2">
      <stop offset="0.0" stop-color="#111111"/>
      <stop offset="1.0" stop-color="#000000"/>
    </linearGradient>
    <linearGradient gradientTransform="matrix(-0.001, 0.0273, -0.0033, -1.0E-4, 268.85, 25.3)" gradientUnits="userSpaceOnUse" id="gradient19" spreadMethod="pad" x1="-819.2" x2="819.2">
      <stop offset="0.0" stop-color="#333333"/>
      <stop offset="1.0" stop-color="#444444"/>
    </linearGradient>
    <linearGradient gradientTransform="matrix(6.0E-4, -0.0291, 0.0085, 2.0E-4, 277.2, 30.2)" gradientUnits="userSpaceOnUse" id="gradient20" spreadMethod="pad" x1="-819.2" x2="819.2">
      <stop offset="0.0" stop-color="#817565"/>
      <stop offset="1.0" stop-color="#444444"/>
    </linearGradient>
    <radialGradient cx="0" cy="0" gradientTransform="matrix(0.7936, 0.0, 0.0, 0.7933, 232.95, 22.2)" gradientUnits="userSpaceOnUse" id="gradient21" r="819.2" spreadMethod="pad">
      <stop offset="0.0" stop-color="#654d3d"/>
      <stop offset="0.2823529411764706" stop-color="#475659"/>
      <stop offset="1.0" stop-color="#3e2828"/>
    </radialGradient>
    <radialGradient cx="0" cy="0" gradientTransform="matrix(0.2209, 0.0, 0.0, 0.2208, 351.0, 199.65)" gradientUnits="userSpaceOnUse" id="gradient22" r="819.2" spreadMethod="pad">
      <stop offset="0.44313725490196076" stop-color="#35455b"/>
      <stop offset="1.0" stop-color="#2b1e1a"/>
    </radialGradient>
    <radialGradient cx="0" cy="0" gradientTransform="matrix(0.5379, 0.0, 0.0, 0.5376, -14.35, 302.25)" gradientUnits="userSpaceOnUse" id="gradient23" r="819.2" spreadMethod="pad">
      <stop offset="0.0" stop-color="#b54a4a"/>
      <stop offset="1.0" stop-color="#35350f"/>
    </radialGradient>
    <linearGradient gradientTransform="matrix(0.0611, 0.0142, -0.0066, 0.0275, 389.1, 90.55)" gradientUnits="userSpaceOnUse" id="gradient24" spreadMethod="pad" x1="-819.2" x2="819.2">
      <stop offset="0.0" stop-color="#000000" stop-opacity="0.3019608"/>
      <stop offset="1.0" stop-color="#000000" stop-opacity="0.0"/>
    </linearGradient>
    <linearGradient gradientTransform="matrix(0.1167, 0.0678, -0.288, 0.0288, 97.4, 79.3)" gradientUnits="userSpaceOnUse" id="gradient25" spreadMethod="pad" x1="-819.2" x2="819.2">
      <stop offset="0.0" stop-color="#000000" stop-opacity="0.3019608"/>
      <stop offset="1.0" stop-color="#000000" stop-opacity="0.0"/>
    </linearGradient>
    <linearGradient gradientTransform="matrix(0.0176, 0.0097, -0.0024, 4.0E-4, 206.85, 13.1)" gradientUnits="userSpaceOnUse" id="gradient26" spreadMethod="pad" x1="-819.2" x2="819.2">
      <stop offset="0.0" stop-color="#000000" stop-opacity="0.3019608"/>
      <stop offset="1.0" stop-color="#000000" stop-opacity="0.0"/>
    </linearGradient>
    <linearGradient gradientTransform="matrix(0.0257, 0.0149, -0.0037, 4.0E-4, 121.05, 32.6)" gradientUnits="userSpaceOnUse" id="gradient27" spreadMethod="pad" x1="-819.2" x2="819.2">
      <stop offset="0.0" stop-color="#000000" stop-opacity="0.3019608"/>
      <stop offset="1.0" stop-color="#000000" stop-opacity="0.0"/>
    </linearGradient>
    <linearGradient gradientTransform="matrix(0.0352, 0.0204, -0.0059, 6.0E-4, -16.8, 68.5)" gradientUnits="userSpaceOnUse" id="gradient28" spreadMethod="pad" x1="-819.2" x2="819.2">
      <stop offset="0.0" stop-color="#000000" stop-opacity="0.3019608"/>
      <stop offset="1.0" stop-color="#000000" stop-opacity="0.0"/>
    </linearGradient>
    <linearGradient gradientTransform="matrix(0.0587, 0.0336, -0.0145, 0.0017, -172.25, 134.55)" gradientUnits="userSpaceOnUse" id="gradient29" spreadMethod="pad" x1="-819.2" x2="819.2">
      <stop offset="0.0" stop-color="#000000" stop-opacity="0.3019608"/>
      <stop offset="1.0" stop-color="#000000" stop-opacity="0.0"/>
    </linearGradient>
    <radialGradient cx="0" cy="0" gradientTransform="matrix(0.1499, 0.0, 0.0, 0.1477, 286.9, -68.25)" gradientUnits="userSpaceOnUse" id="gradient30" r="819.2" spreadMethod="pad">
      <stop offset="0.0" stop-color="#ffcf36" stop-opacity="0.14117648"/>
      <stop offset="1.0" stop-color="#ffcd34" stop-opacity="0.0"/>
    </radialGradient>
    <radialGradient cx="0" cy="0" gradientTransform="matrix(0.1597, 0.0, 0.0, 0.1573, 360.7, -68.55)" gradientUnits="userSpaceOnUse" id="gradient31" r="819.2" spreadMethod="pad">
      <stop offset="0.0" stop-color="#ffcf36" stop-opacity="0.14117648"/>
      <stop offset="1.0" stop-color="#ffcd34" stop-opacity="0.0"/>
    </radialGradient>
  </defs>
</svg>
