<?xml version="1.0" encoding="UTF-8" standalone="no"?>
<svg xmlns:ffdec="https://www.free-decompiler.com/flash" xmlns:xlink="http://www.w3.org/1999/xlink" ffdec:objectType="shape" height="38.05px" width="34.75px" xmlns="http://www.w3.org/2000/svg">
  <g transform="matrix(1.0, 0.0, 0.0, 1.0, -81.9, 17.6)">
    <path d="M84.15 9.8 Q82.6 6.25 82.45 2.25 81.85 -8.85 90.45 -14.45 94.5 -17.25 99.1 -17.1 L102.05 -7.75 Q99.85 -7.5 98.1 -5.7 94.8 -2.85 95.0 2.0 94.95 3.8 95.6 5.35 L84.15 9.8 M115.75 -2.4 L116.15 1.6 Q116.1 6.95 113.5 11.5 111.8 14.25 109.65 16.2 L107.65 9.95 110.0 7.55 Q111.7 4.9 111.75 1.7 L111.45 -0.7 115.75 -2.4" fill="url(#gradient0)" fill-rule="evenodd" stroke="none"/>
    <path d="M99.1 -17.1 Q101.75 -17.2 104.6 -16.1 110.15 -14.05 113.4 -8.45 115.1 -5.6 115.75 -2.4 L111.45 -0.7 Q111.05 -2.6 109.9 -4.2 107.85 -7.15 104.7 -7.75 103.25 -8.1 102.05 -7.75 L99.1 -17.1 M109.65 16.2 Q107.6 17.75 105.15 18.75 98.1 21.55 91.6 17.8 86.5 14.85 84.15 9.8 L95.6 5.35 Q96.4 7.75 98.5 9.5 101.4 11.85 105.0 11.05 106.45 10.75 107.65 9.95 L109.65 16.2" fill="url(#gradient1)" fill-rule="evenodd" stroke="none"/>
    <path d="M84.15 9.8 Q82.6 6.25 82.45 2.25 81.85 -8.85 90.45 -14.45 94.5 -17.25 99.1 -17.1 101.75 -17.2 104.6 -16.1 110.15 -14.05 113.4 -8.45 115.1 -5.6 115.75 -2.4 L116.15 1.6 Q116.1 6.95 113.5 11.5 111.8 14.25 109.65 16.2 107.6 17.75 105.15 18.75 98.1 21.55 91.6 17.8 86.5 14.85 84.15 9.8 M95.6 5.35 Q94.95 3.8 95.0 2.0 94.8 -2.85 98.1 -5.7 99.85 -7.5 102.05 -7.75 103.25 -8.1 104.7 -7.75 107.85 -7.15 109.9 -4.2 111.05 -2.6 111.45 -0.7 L111.75 1.7 Q111.7 4.9 110.0 7.55 L107.65 9.95 Q106.45 10.75 105.0 11.05 101.4 11.85 98.5 9.5 96.4 7.75 95.6 5.35 Z" fill="none" stroke="#000000" stroke-linecap="round" stroke-linejoin="round" stroke-width="1.0"/>
  </g>
  <defs>
    <radialGradient cx="0" cy="0" gradientTransform="matrix(0.0228, 0.0, 0.0, 0.0249, 100.55, 2.0)" gradientUnits="userSpaceOnUse" id="gradient0" r="819.2" spreadMethod="pad">
      <stop offset="0.611764705882353" stop-color="#aeaeae"/>
      <stop offset="0.7764705882352941" stop-color="#ffffff"/>
      <stop offset="1.0" stop-color="#b8a79c"/>
    </radialGradient>
    <radialGradient cx="0" cy="0" gradientTransform="matrix(0.0228, 0.0, 0.0, 0.0249, 100.55, 2.0)" gradientUnits="userSpaceOnUse" id="gradient1" r="819.2" spreadMethod="pad">
      <stop offset="0.611764705882353" stop-color="#833030"/>
      <stop offset="0.7764705882352941" stop-color="#d83838"/>
      <stop offset="1.0" stop-color="#7a1f1f"/>
    </radialGradient>
  </defs>
</svg>
