<?xml version="1.0" encoding="UTF-8" standalone="no"?>
<svg xmlns:ffdec="https://www.free-decompiler.com/flash" xmlns:xlink="http://www.w3.org/1999/xlink" ffdec:objectType="shape" height="515.8px" width="817.6px" xmlns="http://www.w3.org/2000/svg">
  <g transform="matrix(1.0, 0.0, 0.0, 1.0, 406.6, 254.75)">
    <path d="M-392.0 -7.9 L386.2 -7.9 386.2 211.2 -392.0 211.2 -392.0 -7.9" fill="url(#gradient0)" fill-rule="evenodd" stroke="none"/>
    <path d="M-392.0 -7.9 L-392.0 -208.9 386.2 -208.9 386.2 -7.9 -392.0 -7.9" fill="url(#gradient1)" fill-rule="evenodd" stroke="none"/>
    <path d="M32.5 -105.5 Q32.5 -106.25 34.0 -107.5 36.05 -107.15 36.5 -105.75 36.0 -105.0 35.0 -104.5 L32.5 -105.5 M155.0 -77.0 Q157.35 -76.2 157.75 -75.0 157.55 -74.35 156.45 -73.6 155.2 -72.75 154.0 -72.75 L153.3 -73.2 Q153.0 -73.5 153.0 -75.0 153.0 -77.5 155.0 -77.0 M243.05 -162.4 L241.25 -162.75 240.5 -165.0 242.5 -165.25 Q243.5 -166.25 243.5 -163.75 243.5 -162.3 243.05 -162.4 M272.5 -168.25 Q271.55 -168.45 270.5 -170.0 271.0 -170.5 272.25 -170.5 272.75 -171.85 272.75 -169.35 L272.65 -167.95 272.5 -168.25 M167.0 -113.0 L166.65 -113.25 Q166.5 -113.35 166.5 -114.85 L167.0 -116.25 168.5 -116.25 169.5 -114.75 168.75 -112.75 167.0 -113.0 M236.75 -124.5 Q233.8 -126.5 234.25 -127.75 234.85 -128.35 236.05 -128.45 237.25 -128.55 238.0 -128.0 237.75 -127.25 237.75 -125.75 237.4 -125.75 236.75 -124.5 M198.5 -88.0 L197.25 -88.0 Q196.5 -88.75 196.0 -90.25 196.75 -91.0 198.5 -91.0 199.25 -92.0 199.25 -89.5 L199.15 -88.1 198.5 -88.0 M336.0 -178.75 Q337.5 -178.75 339.0 -178.0 338.5 -177.25 336.0 -177.25 L336.0 -178.75 M361.5 -149.0 Q362.5 -148.0 362.5 -146.75 361.75 -146.0 360.0 -146.0 359.75 -146.75 359.75 -148.75 L361.5 -149.0 M335.55 -136.45 Q334.25 -136.45 333.5 -137.0 334.9 -138.05 337.0 -137.0 336.8 -136.45 335.55 -136.45 M-369.9 -174.35 Q-370.35 -174.3 -370.35 -175.85 L-370.1 -177.0 -368.35 -177.5 Q-366.85 -176.75 -366.6 -176.0 L-368.1 -174.5 -369.9 -174.35 M-341.6 -61.25 L-341.6 -63.25 -339.35 -63.5 Q-338.35 -62.75 -337.85 -62.0 -338.85 -60.5 -340.6 -60.5 L-341.6 -61.25 M-371.6 -40.25 L-372.1 -38.75 Q-375.6 -38.75 -375.6 -40.75 L-371.6 -40.25 M-210.6 -169.75 Q-211.35 -170.5 -211.35 -172.75 -210.6 -173.25 -209.35 -173.25 -208.0 -172.25 -207.6 -171.0 L-207.85 -170.25 -210.6 -169.75 M-289.85 -179.0 Q-290.8 -177.55 -292.6 -177.25 L-292.85 -179.5 -291.85 -180.0 Q-290.35 -179.75 -289.85 -179.0 M-317.85 -182.85 L-318.85 -183.0 Q-319.8 -183.4 -320.35 -185.0 L-319.35 -185.5 Q-317.6 -186.75 -317.6 -184.25 -317.6 -182.8 -317.85 -182.85 M-295.6 -160.0 L-295.85 -159.6 Q-296.1 -159.55 -296.1 -161.1 -296.1 -163.5 -293.6 -163.5 L-292.6 -161.25 -293.1 -159.75 -295.6 -160.0 M-9.5 -194.0 L-6.5 -194.5 Q-5.25 -193.75 -5.0 -193.0 -5.45 -191.65 -7.75 -191.25 -9.5 -191.95 -9.5 -194.0 M-40.1 -179.75 L-42.35 -180.75 Q-42.15 -181.35 -41.35 -181.55 -40.5 -181.8 -39.6 -181.25 L-40.1 -179.75 M-137.85 -137.75 L-138.1 -137.55 -138.35 -139.25 Q-138.35 -140.85 -137.55 -141.05 L-136.35 -141.0 Q-135.35 -140.0 -135.35 -138.75 L-136.1 -137.5 -137.85 -137.75 M-83.85 -93.75 Q-86.1 -94.05 -86.1 -96.25 L-84.35 -96.5 Q-82.6 -97.5 -82.6 -95.0 -82.6 -93.55 -82.85 -93.6 L-83.85 -93.75 M-156.85 -57.75 Q-155.6 -57.25 -155.1 -56.5 -155.1 -55.25 -156.1 -54.25 L-157.85 -54.25 -158.4 -54.5 Q-158.6 -54.6 -158.6 -56.1 -158.6 -58.6 -156.85 -57.75 M-37.85 -66.75 Q-39.45 -65.15 -40.6 -65.0 -41.35 -66.1 -41.35 -67.25 -40.7 -68.25 -39.35 -68.25 -38.1 -67.5 -37.85 -66.75" fill="#ffffff" fill-rule="evenodd" stroke="none"/>
    <path d="M28.55 -84.8 L29.0 -84.0 27.0 -81.0 24.75 -81.25 24.2 -81.5 Q24.0 -81.6 24.0 -83.1 L24.5 -84.75 26.6 -85.0 28.55 -84.8 M7.4 -57.4 Q6.75 -57.95 6.75 -58.75 8.4 -58.75 9.25 -58.25 9.0 -57.5 8.0 -57.0 L7.4 -57.4 M130.25 -59.0 L130.0 -58.25 Q129.0 -57.5 127.0 -57.5 L126.35 -57.75 Q126.25 -57.8 126.25 -59.35 126.25 -61.85 128.0 -61.75 129.55 -61.15 130.25 -59.0 M103.0 -90.75 L102.75 -90.35 Q102.5 -90.3 102.5 -91.85 102.5 -93.35 102.8 -93.4 L103.5 -93.5 104.25 -93.5 Q105.25 -92.75 105.5 -92.0 104.75 -90.75 104.75 -90.5 L103.0 -90.75 M275.25 -192.25 Q274.85 -191.05 274.0 -190.75 L272.0 -192.0 Q272.15 -192.85 273.5 -193.5 L275.25 -192.25 M223.75 -168.75 Q225.4 -168.75 226.25 -168.25 226.0 -167.5 225.0 -167.0 L224.4 -167.4 Q223.75 -167.95 223.75 -168.75 M202.55 -186.2 L201.75 -185.75 200.0 -185.75 Q199.25 -186.5 199.25 -188.75 200.0 -189.5 201.5 -189.5 202.75 -190.5 202.75 -188.0 202.75 -186.45 202.55 -186.2 M218.95 -133.9 Q220.1 -132.6 219.75 -130.75 219.0 -130.25 218.0 -130.0 L215.65 -130.4 Q215.0 -130.8 215.0 -132.5 L215.25 -134.5 215.4 -134.75 217.0 -135.0 Q218.0 -135.0 218.95 -133.9 M224.0 -102.0 L223.75 -104.0 225.25 -104.25 226.25 -102.75 Q225.75 -102.0 224.0 -102.0 M347.0 -182.25 L344.5 -183.5 344.5 -185.0 347.5 -185.5 349.0 -184.0 Q348.25 -182.85 347.0 -182.25 M341.5 -158.5 L340.5 -158.75 Q341.25 -161.0 341.25 -162.25 L343.5 -162.5 Q344.5 -161.75 344.75 -161.0 344.6 -160.1 343.3 -159.45 L341.5 -158.5 M-342.85 -190.0 Q-345.95 -189.85 -346.25 -190.75 L-346.35 -193.75 Q-346.85 -194.25 -344.35 -194.25 -342.8 -194.25 -342.4 -193.05 L-342.1 -191.25 -342.85 -190.0 M-327.85 -42.75 L-327.6 -44.75 -325.85 -45.0 Q-324.3 -44.4 -323.85 -43.0 L-324.85 -41.0 -327.1 -41.25 -327.45 -41.05 Q-327.85 -41.2 -327.85 -42.75 M-255.85 -175.75 L-256.1 -175.55 -256.35 -177.25 Q-256.35 -179.75 -254.85 -179.25 -253.35 -179.0 -252.6 -178.25 L-254.1 -175.5 -255.85 -175.75 M-260.85 -133.0 L-264.45 -134.05 Q-265.4 -134.55 -266.1 -136.0 L-265.05 -137.45 Q-264.45 -138.0 -262.85 -138.0 -262.25 -138.0 -261.2 -136.85 L-259.85 -135.25 -260.85 -133.0 M-319.4 -74.1 Q-320.8 -74.3 -321.1 -74.75 L-321.1 -76.25 -318.6 -76.25 -317.85 -74.75 -318.1 -74.0 -319.4 -74.1 M-201.05 -39.0 Q-201.35 -39.15 -201.35 -40.75 L-201.3 -42.1 Q-201.2 -41.85 -201.1 -42.0 -199.85 -42.25 -199.85 -42.5 -197.8 -42.15 -197.35 -40.75 -198.25 -39.4 -199.85 -38.75 L-201.05 -39.0 M-61.85 -174.0 L-61.95 -173.6 -62.1 -175.1 Q-62.1 -177.25 -60.6 -177.25 -58.85 -175.75 -58.6 -175.0 L-59.1 -173.75 -61.85 -174.0 M-90.35 -157.25 L-92.35 -159.5 -89.6 -159.75 Q-88.85 -161.1 -88.85 -158.6 -88.85 -157.05 -89.15 -157.1 L-90.35 -157.25 M-143.6 -79.5 Q-142.35 -79.0 -141.6 -78.25 L-142.85 -77.0 Q-144.1 -77.5 -144.6 -79.0 -144.35 -79.5 -143.6 -79.5 M-94.1 -43.5 L-94.35 -43.3 -94.6 -45.0 Q-94.6 -46.55 -94.1 -46.7 L-92.85 -46.75 -91.5 -46.65 Q-91.1 -46.6 -91.1 -45.1 L-91.35 -44.0 -91.85 -43.25 -94.1 -43.5 M-66.85 -86.75 L-67.1 -86.35 Q-67.35 -86.3 -67.35 -87.85 -67.35 -90.35 -65.85 -89.5 -63.35 -89.1 -63.35 -87.75 L-64.1 -86.5 -66.85 -86.75" fill="#af6161" fill-rule="evenodd" stroke="none"/>
    <path d="M317.0 -160.0 Q326.0 -160.0 339.05 -143.1 345.55 -134.7 350.5 -126.25 357.2 -126.25 360.95 -130.45 L363.5 -133.8 Q364.95 -135.6 366.25 -136.25 364.6 -140.65 360.65 -146.1 358.0 -149.7 358.0 -154.25 358.0 -160.45 363.0 -165.55 370.25 -173.0 385.5 -173.0 391.9 -173.0 396.5 -170.85 L396.5 -172.35 Q396.5 -174.1 396.95 -174.65 397.25 -175.05 398.5 -175.25 399.4 -173.9 400.1 -171.15 400.65 -169.05 401.65 -167.25 L402.5 -166.3 Q406.0 -162.1 406.0 -158.35 406.0 -155.0 404.5 -150.5 L403.25 -150.5 403.35 -154.6 Q403.4 -158.25 402.45 -160.75 401.75 -162.55 400.55 -163.9 401.0 -157.65 401.0 -147.0 401.0 -134.0 399.55 -124.65 398.8 -119.75 396.3 -109.85 392.45 -94.65 391.25 -74.75 397.2 -76.95 401.8 -85.25 403.95 -89.25 405.35 -93.75 406.55 -97.55 406.5 -99.25 L408.5 -100.25 410.15 -98.0 Q411.0 -96.6 411.0 -95.0 411.0 -93.05 409.3 -89.15 407.4 -84.7 404.5 -80.75 398.25 -72.3 391.0 -70.5 L390.8 -64.9 390.75 -63.0 Q389.75 -63.0 389.75 -62.25 L387.25 -62.5 387.1 -64.9 387.0 -70.0 Q380.8 -70.0 373.4 -78.25 L367.0 -86.5 Q356.5 -84.25 354.0 -84.25 350.35 -84.25 347.4 -88.7 345.65 -91.3 342.55 -98.7 339.45 -106.15 337.4 -109.35 334.05 -114.6 329.75 -115.75 L329.3 -115.3 Q329.0 -115.0 329.0 -113.5 L332.4 -108.15 Q335.75 -102.85 335.75 -98.5 L335.7 -93.95 Q335.35 -91.25 333.75 -91.25 327.6 -91.25 322.45 -93.1 317.35 -95.0 314.75 -95.0 302.25 -95.0 301.5 -87.6 L301.45 -82.55 Q301.2 -80.25 299.0 -80.25 288.75 -80.25 285.75 -87.8 284.95 -89.8 283.8 -93.8 282.65 -97.05 280.5 -98.25 277.4 -96.95 277.5 -94.2 278.2 -91.1 277.75 -89.75 L277.1 -89.3 277.25 -88.75 276.5 -88.0 275.5 -88.3 Q273.35 -89.2 272.75 -92.05 272.5 -93.25 272.5 -97.35 L272.55 -102.05 Q272.75 -104.15 274.0 -105.25 274.55 -105.75 275.5 -106.15 279.2 -107.75 288.85 -107.75 289.3 -107.75 290.5 -109.45 292.1 -111.7 293.45 -112.95 298.75 -117.75 308.25 -116.0 304.9 -122.05 298.8 -128.3 295.25 -131.95 295.25 -137.35 295.25 -144.15 300.55 -151.25 307.05 -160.0 317.0 -160.0 M275.15 -98.75 L274.45 -99.1 274.7 -97.5 275.15 -98.75 M-354.2 -162.55 Q-347.65 -169.75 -330.0 -169.75 -308.45 -169.75 -304.95 -155.95 -303.85 -151.5 -304.45 -144.8 L-304.95 -139.6 -302.7 -137.35 -301.65 -136.45 -294.0 -136.75 Q-289.25 -136.75 -287.25 -129.3 -286.45 -126.35 -284.8 -112.85 -283.45 -101.6 -281.0 -96.45 -277.4 -89.0 -270.1 -89.0 -268.4 -89.0 -266.45 -91.3 L-262.3 -96.05 Q-255.65 -102.45 -243.75 -100.0 L-243.5 -100.05 Q-243.25 -100.1 -243.25 -101.6 -243.25 -102.55 -245.2 -105.85 L-249.5 -113.2 Q-255.75 -124.55 -255.75 -133.1 -255.75 -137.8 -249.0 -141.5 -239.85 -146.5 -221.75 -146.5 -218.45 -146.5 -216.55 -142.3 -215.25 -139.55 -215.25 -137.85 L-219.0 -125.5 Q-219.0 -124.05 -215.5 -119.5 -212.05 -115.0 -211.0 -115.0 -204.25 -115.0 -201.45 -116.1 -197.35 -117.7 -193.75 -118.25 -194.9 -122.05 -196.15 -125.05 -196.75 -127.0 -196.75 -131.0 L-196.75 -134.75 Q-196.0 -136.75 -191.5 -136.75 -181.75 -136.75 -175.3 -129.5 L-172.45 -125.9 Q-169.4 -123.05 -167.2 -113.9 -165.9 -112.3 -165.0 -110.1 -163.75 -107.15 -163.05 -102.75 L-162.25 -96.5 -162.25 -89.0 -164.0 -88.25 -164.5 -89.1 -164.95 -87.6 Q-167.0 -84.05 -175.75 -81.75 L-176.5 -82.5 -169.3 -90.2 Q-167.75 -92.0 -167.75 -94.5 -167.75 -100.4 -169.75 -108.65 -172.2 -111.5 -176.25 -113.5 -177.25 -111.0 -177.25 -109.6 -177.25 -108.35 -176.25 -106.8 -175.25 -105.25 -175.25 -104.0 -175.25 -100.9 -176.95 -99.8 -177.65 -99.4 -180.75 -98.75 -186.25 -97.65 -186.25 -89.85 -186.25 -86.15 -187.5 -85.0 -189.4 -83.25 -196.0 -83.25 -203.6 -83.25 -207.25 -84.7 -210.15 -85.85 -211.7 -88.5 L-214.6 -93.8 Q-216.8 -97.2 -221.0 -99.75 -224.25 -94.8 -224.25 -93.0 -224.25 -91.15 -221.25 -85.8 -218.25 -80.45 -218.25 -79.1 -218.25 -77.3 -220.1 -75.8 L-223.75 -73.0 Q-216.25 -50.5 -216.25 -46.0 -216.25 -44.4 -216.8 -42.2 -217.9 -37.75 -220.45 -34.05 -228.75 -22.25 -249.0 -22.25 -256.7 -22.25 -264.3 -29.4 -269.6 -34.35 -273.0 -40.5 L-277.8 -36.0 Q-282.05 -32.25 -285.0 -32.25 -304.55 -32.25 -307.5 -47.5 -308.45 -52.4 -307.7 -59.4 L-306.75 -67.75 Q-306.75 -68.9 -322.7 -88.05 -338.55 -107.0 -339.0 -107.0 -345.0 -107.0 -346.7 -103.0 -347.25 -101.75 -347.3 -100.25 L-347.25 -98.85 Q-347.25 -90.7 -340.75 -80.2 L-336.3 -73.15 Q-334.25 -69.65 -334.25 -67.75 L-333.8 -64.2 Q-333.55 -61.8 -334.5 -60.25 -337.3 -55.75 -351.85 -55.75 -357.55 -55.75 -362.5 -61.35 L-365.75 -65.25 Q-367.4 -67.0 -368.6 -67.0 -370.05 -67.0 -373.8 -65.5 -377.55 -64.0 -380.5 -64.0 -384.75 -64.0 -386.3 -66.4 -387.05 -67.6 -388.0 -70.15 -392.1 -72.7 -394.25 -81.0 -396.0 -87.7 -396.0 -94.1 -396.0 -105.25 -393.2 -114.75 -388.3 -131.5 -376.5 -131.5 L-374.8 -131.3 -372.0 -134.0 -371.95 -134.0 Q-368.6 -139.45 -362.05 -144.8 L-359.1 -147.2 Q-359.1 -148.25 -358.75 -149.0 -358.2 -158.2 -354.2 -162.55 M-378.15 -127.1 L-377.3 -128.2 -378.3 -128.1 -378.15 -127.1" fill="url(#gradient2)" fill-rule="evenodd" stroke="none"/>
    <path d="M177.4 -232.9 L177.8 -233.7 Q179.7 -237.65 182.85 -240.95 186.05 -244.35 189.9 -246.6 197.05 -250.75 206.5 -250.75 220.55 -250.75 228.0 -246.6 231.45 -244.65 233.5 -241.8 235.65 -238.75 236.15 -234.55 L236.25 -232.9 236.25 -229.0 235.9 -226.15 236.4 -225.35 Q238.8 -221.5 240.85 -221.5 244.1 -221.5 249.75 -225.5 255.75 -229.75 259.75 -230.25 L259.35 -232.9 Q258.75 -236.95 258.75 -239.25 258.75 -243.35 261.7 -246.6 263.25 -248.3 265.55 -249.75 273.4 -254.75 287.5 -254.75 294.25 -254.75 300.05 -246.95 L302.55 -243.1 306.0 -243.25 Q312.9 -243.25 313.9 -232.9 L314.05 -229.5 Q314.05 -225.2 313.3 -220.0 L312.5 -215.5 Q312.5 -211.0 315.75 -206.55 318.5 -202.85 322.4 -201.5 332.6 -208.25 333.0 -208.25 336.25 -208.25 337.0 -203.5 337.0 -202.15 334.5 -199.05 332.85 -197.0 331.4 -196.15 330.9 -194.2 328.55 -192.3 325.75 -190.0 323.5 -190.0 309.7 -190.0 294.5 -222.75 291.9 -220.8 277.75 -211.0 L275.5 -209.35 Q271.5 -206.35 271.5 -205.0 271.5 -202.9 274.45 -200.45 L275.5 -199.65 280.9 -195.85 Q290.25 -189.2 290.25 -182.5 290.25 -180.95 289.05 -180.35 L285.8 -179.15 Q280.15 -176.85 275.5 -169.1 L275.0 -168.25 Q273.85 -163.95 272.4 -161.2 270.35 -157.4 266.0 -155.55 265.9 -153.15 263.8 -151.25 L261.7 -149.85 Q259.85 -149.0 257.5 -149.0 237.0 -149.0 231.35 -159.4 229.5 -162.8 229.35 -167.25 229.25 -169.6 229.5 -172.25 229.25 -177.8 225.8 -180.0 223.6 -181.35 218.35 -181.9 212.85 -182.45 211.05 -183.4 207.75 -185.1 207.75 -189.85 207.75 -195.4 211.25 -202.2 L214.75 -209.0 Q214.75 -211.0 209.75 -215.0 193.85 -215.0 191.5 -207.0 190.75 -204.5 191.4 -201.45 L192.25 -198.75 Q192.25 -196.4 188.75 -193.4 185.25 -190.4 185.25 -189.75 185.25 -187.55 186.75 -181.55 188.25 -175.5 188.25 -173.25 L188.1 -168.1 Q187.7 -165.65 186.05 -164.25 182.1 -161.0 166.75 -161.0 156.6 -161.0 152.15 -156.1 L149.45 -152.75 Q148.05 -151.25 146.25 -151.25 129.5 -151.25 122.45 -160.55 118.95 -165.2 118.75 -170.1 118.75 -172.1 121.75 -181.0 116.65 -194.25 109.0 -194.25 103.6 -194.25 102.45 -189.65 101.85 -187.15 102.5 -184.25 L102.75 -184.25 102.75 -182.75 102.05 -182.35 Q101.45 -182.0 100.0 -182.0 97.5 -182.0 95.8 -183.8 L95.0 -183.0 Q92.25 -185.75 92.25 -191.5 92.25 -209.5 99.5 -209.5 116.05 -209.5 124.95 -199.45 127.45 -196.65 128.95 -193.9 L133.25 -190.75 Q134.6 -190.75 161.75 -200.25 L155.55 -210.5 Q153.75 -214.1 153.75 -219.0 153.75 -224.15 156.0 -226.85 161.15 -233.0 176.25 -229.25 176.25 -230.4 177.4 -232.9 M315.75 -199.55 L315.8 -199.6 315.8 -199.65 315.75 -199.55" fill="url(#gradient3)" fill-rule="evenodd" stroke="none"/>
    <path d="M295.9 -212.9 L324.6 -222.4 327.75 -212.9 295.9 -212.9 M-357.7 62.15 L-390.0 62.15 -390.0 89.8 -393.6 92.95 -390.0 92.85 -390.0 95.75 -392.0 95.85 -392.0 98.95 -392.15 99.0 -406.6 55.2 -344.55 55.2 Q-351.6 58.7 -357.7 62.15" fill="#000000" fill-rule="evenodd" stroke="none"/>
    <path d="M204.45 -16.85 L312.2 -16.85 312.2 38.15 308.0 35.05 258.6 16.05 204.45 -16.85" fill="url(#gradient4)" fill-rule="evenodd" stroke="none"/>
    <path d="M293.5 37.95 L302.85 40.05 307.0 40.95 361.8 48.9 313.45 123.7 282.6 109.3 273.35 108.75 255.9 98.3 236.1 92.7 210.95 79.75 205.8 79.5 202.4 76.2 Q208.35 67.5 204.9 58.95 L199.95 57.45 199.4 57.55 187.35 43.0 Q190.4 37.1 191.4 31.25 192.8 22.8 193.95 8.45 L207.75 11.25 211.0 17.7 222.6 20.7 222.85 20.75 230.75 22.8 236.1 24.1 253.05 28.35 261.7 30.5 275.5 33.8 280.15 34.9 293.5 37.95" fill="url(#gradient5)" fill-rule="evenodd" stroke="none"/>
    <path d="M-290.85 67.1 L-290.9 77.45 Q-291.55 89.7 -298.8 102.1 -305.55 107.2 -324.05 111.7 L-329.95 122.4 -330.9 122.75 Q-340.35 129.7 -349.85 134.6 -361.9 140.75 -374.1 143.55 L-376.25 144.0 -377.2 144.2 -379.65 144.65 -380.45 144.75 -383.55 144.9 -394.35 112.25 -394.35 99.6 -392.35 99.5 -391.15 99.0 -391.0 98.95 Q-322.75 70.9 -290.85 67.1" fill="url(#gradient6)" fill-rule="evenodd" stroke="none"/>
    <path d="M157.95 -6.2 L158.2 -6.8 166.7 -3.9 162.85 5.45 157.35 3.15 157.95 -6.2" fill="url(#gradient7)" fill-rule="evenodd" stroke="none"/>
    <path d="M185.5 -5.15 L187.8 -3.7 175.0 40.9 166.7 37.5 176.75 -4.25 185.5 -5.15" fill="url(#gradient8)" fill-rule="evenodd" stroke="none"/>
    <path d="M-390.0 89.8 L-390.0 62.15 -357.7 62.15 Q-368.95 68.55 -376.95 74.95 -387.1 81.8 -386.85 85.4 -386.75 86.75 -390.0 89.8" fill="url(#gradient9)" fill-rule="evenodd" stroke="none"/>
    <path d="M327.75 -212.9 L324.6 -222.4 295.9 -212.9 M348.75 151.2 L327.2 203.7 50.6 90.15 M-386.65 138.6 L-387.45 138.65 M-377.2 144.2 L-338.7 260.55 12.1 144.5" fill="none" stroke="#000000" stroke-linecap="round" stroke-linejoin="round" stroke-width="1.0"/>
    <path d="M-377.6 -8.5 L-377.45 -9.4 Q-377.4 -9.75 -375.85 -9.75 -302.35 -8.5 -293.1 -8.5 -291.6 -8.5 -291.35 -7.75 -300.85 -4.55 -308.45 0.85 -315.1 5.65 -315.1 7.85 L-314.85 9.55 Q-316.6 9.05 -316.6 8.1 -310.5 -5.15 -309.1 -5.25 L-318.55 -4.8 Q-328.95 -4.35 -341.35 -4.5 L-339.95 -3.65 Q-339.35 -3.1 -339.35 -1.5 -339.35 -0.65 -346.2 1.75 L-361.35 6.8 Q-383.35 14.35 -383.35 18.85 -383.35 25.2 -381.15 27.65 -386.35 23.25 -386.35 18.75 -386.35 13.1 -372.8 7.65 -367.3 5.45 -343.35 -1.75 -350.1 -6.65 -354.25 -8.05 L-360.6 -8.25 -366.65 -6.15 Q-371.05 -4.95 -376.6 -5.5 -376.6 -6.25 -377.6 -8.5 M-216.6 -8.25 Q-218.35 -5.6 -225.35 -0.75 -223.25 0.6 -215.85 2.7 -209.35 4.55 -207.85 6.25 L-213.05 9.1 Q-209.55 12.9 -204.25 16.05 -195.2 21.45 -183.6 23.6 -181.45 22.75 -178.85 22.75 -165.6 22.75 -164.85 23.05 -164.6 23.15 -164.6 23.8 -164.55 24.35 -163.95 24.85 -158.95 24.35 -151.2 22.5 -140.75 20.0 -134.85 20.0 -124.45 20.0 -118.4 24.3 -117.85 22.0 -115.6 20.45 -113.15 18.8 -107.5 17.4 L-95.8 14.8 Q-87.9 12.9 -81.85 10.5 -91.85 6.5 -91.85 4.1 -91.85 1.55 -88.2 -0.85 L-85.55 -2.3 Q-80.8 -5.65 -68.85 -11.75 -66.6 -11.5 -66.35 -10.75 -69.85 -7.25 -77.9 -4.3 L-78.9 -3.9 -76.6 -3.5 -76.35 -2.75 Q-78.65 -0.45 -84.2 1.55 L-84.55 1.7 Q-80.9 4.15 -72.1 8.25 -82.6 15.5 -96.95 23.05 L-96.9 23.0 Q-83.7 13.05 -76.6 9.5 L-74.85 8.75 -82.3 4.85 -86.4 2.4 Q-89.4 3.5 -89.6 3.75 -88.7 5.1 -84.95 7.15 L-80.35 9.75 Q-85.25 13.6 -94.75 17.15 -107.95 22.05 -113.35 24.75 -98.7 34.7 -94.9 38.35 -89.6 43.55 -89.6 49.85 -89.6 56.0 -122.55 61.65 L-131.1 63.05 -124.75 63.8 -118.9 65.65 Q-109.5 68.25 -82.85 68.25 -63.85 68.25 -46.3 70.9 -35.7 72.5 -27.9 74.9 -28.6 73.75 -28.6 72.35 -28.6 67.7 -19.85 64.55 -14.45 62.6 0.1 59.7 15.45 56.65 21.8 54.6 32.7 51.05 35.75 46.0 32.0 42.0 18.7 39.1 L-7.5 34.25 Q-7.0 33.75 -7.0 33.5 6.7 34.95 17.5 37.05 38.5 41.15 38.5 46.75 38.5 54.25 15.55 61.4 L-3.3 66.65 Q-14.25 69.6 -18.25 71.25 L-19.0 72.0 Q-17.85 72.85 -12.45 73.45 L-5.35 74.0 Q-0.55 74.0 24.75 70.1 35.1 66.5 41.0 66.5 L46.0 66.9 56.3 65.55 56.25 65.0 Q56.25 59.0 70.5 55.55 83.9 52.25 105.0 52.25 112.1 52.25 121.05 53.55 117.35 51.95 114.25 49.0 118.4 46.05 126.8 44.1 131.05 43.05 143.0 41.15 165.05 37.55 171.5 32.0 176.75 27.35 183.25 23.8 182.0 24.6 180.8 25.6 L174.0 32.0 Q168.1 37.4 146.0 41.6 L129.25 44.75 Q120.45 46.6 116.5 48.5 164.0 49.25 173.0 50.0 183.1 50.0 192.4 47.05 197.75 45.35 207.85 40.65 217.65 36.0 223.6 34.2 233.25 31.25 244.0 31.25 L261.7 31.95 269.75 32.65 275.5 33.35 Q289.2 35.15 292.75 38.25 L293.0 40.5 279.0 40.0 275.5 40.35 Q272.0 40.95 267.85 42.8 266.0 43.65 261.7 45.95 L255.95 49.0 Q239.55 58.0 229.0 58.0 L216.85 54.0 Q204.35 50.0 197.1 50.0 174.3 50.3 159.6 52.65 L167.25 51.25 153.8 51.8 140.05 54.65 131.95 55.5 136.5 56.5 155.0 53.5 Q146.9 55.1 141.75 57.5 L140.5 58.25 Q158.0 67.2 187.8 72.55 206.15 75.85 253.25 82.5 L254.0 84.0 Q253.4 85.85 247.0 86.5 L235.0 86.75 221.8 84.2 Q214.45 82.9 191.25 82.25 181.55 81.2 160.95 73.2 141.85 65.75 133.0 65.75 L100.0 74.75 89.45 74.55 Q90.15 76.05 90.0 77.75 89.75 78.5 88.25 78.75 83.6 76.2 80.1 75.05 76.45 73.85 70.0 73.35 84.8 78.5 89.75 82.5 87.7 85.25 84.0 85.25 80.85 85.25 45.5 75.75 27.65 75.75 6.65 87.65 L-7.15 95.8 Q-13.75 99.5 -17.0 99.5 -23.75 99.5 -25.3 97.45 L-25.35 97.35 Q-37.4 101.1 -61.4 106.55 -86.0 112.1 -103.25 114.85 -120.0 117.5 -129.85 117.5 L-147.75 115.15 -149.7 114.85 Q-164.0 112.75 -183.35 112.75 L-185.0 112.75 -184.15 113.65 -183.15 114.85 Q-182.3 116.0 -181.6 117.3 -180.85 118.75 -180.85 119.1 -180.85 123.45 -196.1 127.75 -210.2 131.75 -220.85 131.75 -223.1 131.75 -234.35 129.5 -228.9 126.75 -210.95 123.7 -192.3 120.6 -189.1 119.25 -193.0 115.75 -196.75 115.75 -200.6 115.75 -202.8 116.45 L-207.95 118.0 Q-216.35 119.75 -240.85 120.15 L-248.8 122.45 -254.35 123.85 -234.35 125.0 Q-234.35 125.5 -233.1 127.0 -237.5 130.25 -246.35 128.0 -260.6 128.0 -279.05 130.15 L-303.85 132.25 Q-318.1 132.25 -318.1 125.75 -318.1 123.9 -315.85 120.1 -313.6 116.3 -313.6 115.25 L-313.6 114.85 Q-313.7 113.55 -314.4 112.5 -317.6 111.15 -320.1 109.5 -325.85 109.75 -339.55 114.85 L-339.7 114.9 Q-354.25 120.25 -355.6 120.25 -365.65 120.25 -367.85 115.5 L-368.1 114.85 Q-368.5 113.55 -368.4 112.05 L-368.1 110.25 Q-368.1 102.65 -365.6 98.25 -363.0 93.7 -356.45 90.1 -350.8 87.0 -338.3 82.65 L-308.85 72.75 -307.9 72.9 Q-301.15 69.25 -294.85 69.25 -291.7 69.25 -290.6 71.05 -290.1 71.85 -290.1 73.1 -290.1 73.5 -305.35 82.05 -320.6 91.25 -320.6 95.0 -320.6 99.15 -318.6 101.4 L-316.0 103.55 -314.05 104.6 -312.95 105.1 -313.85 104.25 Q-317.6 100.5 -317.6 97.5 -317.6 91.4 -308.85 87.75 -302.2 85.0 -287.8 82.8 L-262.2 79.25 Q-252.5 77.65 -245.85 75.7 L-242.35 73.0 Q-247.25 72.4 -250.4 70.4 -253.85 68.2 -253.85 65.75 -253.85 55.15 -236.15 48.7 -229.8 46.4 -218.5 43.65 L-199.1 39.0 Q-199.35 38.45 -199.95 37.85 -202.3 37.45 -203.8 36.1 L-204.9 34.85 Q-210.4 32.35 -220.95 29.3 L-231.8 25.95 Q-235.55 31.65 -253.35 33.0 -261.4 33.6 -275.15 33.5 L-298.35 33.25 -354.85 35.25 Q-370.7 35.25 -379.35 29.05 -376.75 30.5 -371.85 31.0 -366.55 31.5 -351.45 31.2 -327.1 30.75 -315.85 30.75 L-272.85 32.75 Q-256.75 32.75 -247.25 29.2 -244.65 28.2 -240.15 25.95 -238.05 24.9 -236.35 24.15 -240.35 22.2 -240.35 20.35 -240.35 18.3 -238.15 16.2 -241.0 13.8 -245.0 12.05 -239.65 13.15 -236.3 14.65 -234.4 13.3 -231.65 11.95 L-216.6 5.4 -217.35 3.75 -216.6 3.75 -216.05 5.1 -214.85 4.5 -214.35 4.25 -220.7 2.15 -226.35 0.0 Q-225.55 -1.85 -221.7 -5.05 -217.95 -8.25 -216.6 -8.25 M-73.0 23.2 Q-69.9 22.0 -59.85 22.0 L-16.7 24.1 Q-25.0 24.8 -50.35 24.0 L-69.85 24.25 Q-60.8 26.8 -29.1 28.4 -2.7 29.75 20.75 29.75 L30.25 29.25 32.0 29.0 -9.4 24.55 41.1 28.25 Q66.5 28.25 92.75 18.5 L93.0 17.75 Q88.7 16.4 78.35 15.25 L59.6 13.35 Q36.5 10.85 36.5 6.35 36.5 3.45 38.25 1.8 39.3 0.75 43.25 -1.25 39.8 1.6 38.75 2.9 37.5 4.45 37.5 6.25 37.5 10.2 62.55 13.1 L81.7 15.3 Q91.55 16.6 94.5 18.0 92.1 20.5 89.25 21.75 L115.8 17.1 Q138.6 13.0 148.0 13.0 158.4 13.0 167.4 14.75 L170.4 15.4 Q162.9 15.0 152.6 15.0 143.85 15.0 127.0 17.65 L93.5 23.5 Q45.55 32.0 21.0 32.0 7.3 33.1 -11.4 32.75 -48.7 32.1 -74.85 25.0 -74.65 23.9 -73.0 23.2 M-32.85 93.25 Q-69.75 89.25 -101.1 89.25 -122.2 89.25 -167.75 95.15 -213.25 101.0 -222.85 101.0 -241.75 101.0 -248.6 95.25 -251.85 92.55 -251.85 88.85 -251.85 85.7 -250.85 83.0 L-261.7 84.85 Q-280.85 87.9 -288.15 89.55 -302.75 92.85 -310.1 97.5 -308.25 99.3 -302.2 101.9 -297.6 103.85 -297.6 106.0 -297.6 107.3 -298.6 108.3 L-298.85 108.55 Q-277.45 111.75 -231.3 111.75 -207.7 107.5 -183.35 107.5 -164.0 107.5 -149.55 110.0 -135.15 112.5 -125.35 112.5 -106.1 112.5 -71.6 103.9 L-34.1 93.5 -32.85 93.25 M-9.5 85.5 L-2.2 81.75 -13.25 81.75 -13.4 81.7 Q-11.05 83.5 -9.5 85.5 M-119.05 25.9 Q-125.1 22.25 -135.35 22.25 -139.4 22.25 -151.45 24.65 L-163.85 27.0 -172.9 26.7 Q-178.2 28.05 -184.9 31.25 L-192.85 35.3 Q-190.35 37.4 -190.35 39.5 -190.35 43.6 -198.0 47.05 -203.35 49.5 -215.55 52.7 -230.9 56.75 -234.65 57.95 -244.3 61.15 -247.1 64.5 L-247.35 65.25 Q-237.25 66.2 -233.35 68.15 L-232.7 68.5 Q-220.4 64.35 -196.95 61.85 L-167.9 59.3 -173.6 58.0 Q-174.1 59.0 -174.1 56.5 -174.1 52.95 -149.2 45.15 L-135.7 41.2 -169.85 56.25 -161.1 58.65 -146.3 57.1 Q-115.3 53.75 -96.1 47.75 -95.85 49.1 -95.85 46.6 -95.85 43.25 -107.2 35.7 -117.8 28.65 -118.55 26.35 L-119.05 25.9 M-69.05 79.85 L-143.0 64.7 Q-159.05 66.6 -170.35 66.25 L-170.35 66.75 Q-206.1 67.15 -221.1 73.75 -226.45 76.05 -231.7 80.35 L-240.85 87.75 Q-239.7 88.1 -239.45 88.75 -239.2 89.5 -238.75 89.7 -236.65 90.75 -222.75 90.75 -211.45 90.75 -165.0 84.9 -118.6 79.0 -101.85 79.0 -84.0 79.0 -69.05 79.85 M-185.9 24.8 Q-196.5 22.45 -204.4 17.55 -210.35 13.85 -213.85 9.55 L-231.4 18.55 -231.1 19.2 -230.85 20.95 -219.8 24.7 -205.65 29.1 Q-198.45 31.5 -194.65 33.95 -193.15 32.8 -190.45 29.4 -187.85 26.15 -185.9 24.8 M-305.45 9.8 Q-311.1 10.2 -313.9 9.75 L-302.75 9.55 -305.45 9.8 M-267.35 121.5 Q-267.6 122.5 -267.6 120.1 -291.9 119.3 -306.6 115.2 -306.7 117.75 -310.85 124.5 -304.6 125.75 -298.85 125.75 L-263.45 123.3 Q-266.15 122.45 -267.35 121.5 M-326.05 88.8 Q-323.45 85.25 -319.8 81.8 L-336.35 89.1 Q-359.2 100.1 -361.6 107.5 L-361.6 113.25 -358.1 113.5 Q-353.15 113.5 -340.4 108.15 -332.5 104.8 -326.5 103.55 -329.1 99.65 -329.1 94.85 -329.1 92.95 -326.05 88.8 M261.7 45.65 L271.25 40.0 272.25 39.25 261.7 38.65 253.45 37.95 242.75 37.0 Q234.7 37.0 217.8 41.7 206.8 44.75 199.25 47.5 L198.25 48.0 Q206.15 49.65 218.95 53.4 227.7 56.0 232.1 56.0 242.5 56.0 256.75 48.4 L261.7 45.65 M222.65 16.75 L233.5 18.25 233.5 18.5 Q201.25 17.0 189.45 20.9 L188.25 21.3 Q200.1 16.0 212.5 16.0 L222.65 16.75 M193.55 20.7 L193.35 20.55 Q196.95 21.9 200.9 23.7 209.3 27.55 222.25 34.25 208.15 30.9 201.25 26.8 198.9 25.4 196.75 23.55 L193.55 20.7 M103.5 62.0 Q97.0 62.0 79.0 64.25 L79.05 64.65 Q79.45 65.0 81.0 65.0 101.85 65.0 103.9 64.45 104.4 64.3 104.55 63.65 104.75 63.05 106.5 62.5 L108.0 62.25 103.5 62.0" fill="url(#gradient10)" fill-rule="evenodd" stroke="none"/>
    <path d="M-69.05 114.85 Q-107.45 126.05 -141.35 134.6 -364.7 191.1 -391.9 134.6 -396.05 126.05 -395.65 114.85 -395.4 106.85 -392.8 97.5 L-393.15 96.3 Q-409.45 91.7 -332.8 77.5 -192.25 94.3 -111.8 98.55 L-27.85 102.5 Q-49.1 109.05 -69.05 114.85" fill="url(#gradient11)" fill-rule="evenodd" stroke="none"/>
    <path d="M-20.05 101.1 L-52.95 111.05" fill="none" stroke="#000000" stroke-linecap="round" stroke-linejoin="round" stroke-width="1.0"/>
    <path d="M390.2 -90.65 L395.2 -90.85 390.2 -48.35 390.2 -90.65 M390.2 43.2 L393.2 59.2 390.2 58.45 390.2 43.2" fill="#999999" fill-rule="evenodd" stroke="none"/>
    <path d="M312.15 -87.4 L354.15 -92.4 329.95 36.15 324.75 38.35 320.25 37.15 310.4 34.6 311.2 31.2 312.15 -87.4" fill="url(#gradient12)" fill-rule="evenodd" stroke="none"/>
    <path d="M283.2 -86.25 L303.3 -92.15 306.2 33.5 Q294.9 30.65 283.05 27.95 L283.2 27.2 283.2 -86.25" fill="url(#gradient13)" fill-rule="evenodd" stroke="none"/>
    <path d="M377.8 -90.1 L390.2 -90.65 390.2 -48.35 390.2 -34.9 377.8 -90.1" fill="url(#gradient14)" fill-rule="evenodd" stroke="none"/>
    <path d="M390.2 152.9 Q391.1 162.9 390.2 173.4 L390.2 152.9" fill="url(#gradient15)" fill-rule="evenodd" stroke="none"/>
    <path d="M160.5 68.2 L162.2 87.25 Q159.8 100.85 159.2 114.85 158.75 124.6 159.2 134.6 160.7 169.95 173.05 208.0 L10.0 137.5 Q10.35 136.05 10.3 134.6 10.0 125.2 -5.75 114.85 -15.0 108.8 -29.6 102.4 L27.95 78.1 Q57.3 69.15 133.9 69.75 L153.7 70.0 160.5 68.2" fill="url(#gradient16)" fill-rule="evenodd" stroke="none"/>
    <path d="M160.5 68.2 L255.15 43.2 308.2 45.2 313.45 43.05 319.15 52.65 Q285.05 126.5 307.6 200.4 295.1 163.7 256.3 134.6 242.5 124.25 225.4 114.85 198.05 99.85 162.2 87.25 L160.5 68.2" fill="url(#gradient17)" fill-rule="evenodd" stroke="none"/>
    <path d="M390.2 23.55 L390.2 43.2 390.2 58.45 390.2 152.9 Q384.95 94.85 319.15 52.65 L320.0 40.3 324.75 38.35 329.95 36.15 344.2 30.2 390.2 23.55" fill="url(#gradient18)" fill-rule="evenodd" stroke="none"/>
    <path d="M320.0 40.3 L319.15 52.65 313.45 43.05 320.0 40.3" fill="url(#gradient19)" fill-rule="evenodd" stroke="none"/>
    <path d="M96.65 215.2 L-33.25 215.2 -20.25 184.95 42.1 189.2 96.65 215.2" fill="url(#gradient20)" fill-rule="evenodd" stroke="none"/>
    <path d="M186.9 215.2 L173.7 215.2 173.05 208.0 186.9 215.2" fill="url(#gradient21)" fill-rule="evenodd" stroke="none"/>
    <path d="M323.15 215.2 L307.8 215.2 308.6 203.65 323.15 215.2" fill="url(#gradient22)" fill-rule="evenodd" stroke="none"/>
    <path d="M173.7 215.2 L96.65 215.2 42.1 189.2 -20.25 184.95 10.0 137.5 173.05 208.0 173.7 215.2" fill="url(#gradient23)" fill-rule="evenodd" stroke="none"/>
    <path d="M307.8 215.2 L186.9 215.2 173.05 208.0 Q160.7 169.95 159.2 134.6 158.75 124.6 159.2 114.85 159.8 100.85 162.2 87.25 198.05 99.85 225.4 114.85 242.5 124.25 256.3 134.6 295.1 163.7 307.6 200.4 L307.95 201.55 308.6 203.65 307.8 215.2" fill="url(#gradient24)" fill-rule="evenodd" stroke="none"/>
    <path d="M390.2 173.4 L390.2 215.2 323.15 215.2 308.6 203.65 307.95 201.55 307.6 200.4 Q285.05 126.5 319.15 52.65 384.95 94.85 390.2 152.9 L390.2 173.4" fill="url(#gradient25)" fill-rule="evenodd" stroke="none"/>
    <path d="M-33.25 215.2 L-392.0 215.2 -392.0 93.2 -391.5 91.2 Q-383.15 96.45 -382.7 99.6 -381.85 105.45 -370.0 111.1 L-363.3 114.85 Q-293.6 150.15 -88.5 114.85 L-36.05 105.1 -29.6 102.4 Q-15.0 108.8 -5.75 114.85 10.0 125.2 10.3 134.6 10.35 136.05 10.0 137.5 L-20.25 184.95 -33.25 215.2" fill="url(#gradient26)" fill-rule="evenodd" stroke="none"/>
    <path d="M262.65 -89.4 L283.2 -86.25 283.2 27.2 283.05 27.95 275.5 26.2 261.7 23.15 255.35 21.8 262.65 -89.4" fill="url(#gradient27)" fill-rule="evenodd" stroke="none"/>
    <path d="M303.3 -92.15 L312.15 -87.4 311.2 31.2 310.4 34.6 306.2 33.5 303.3 -92.15" fill="url(#gradient28)" fill-rule="evenodd" stroke="none"/>
    <path d="M354.15 -92.4 L377.8 -90.1 390.2 -34.9 390.2 23.55 344.2 30.2 329.95 36.15 354.15 -92.4" fill="url(#gradient29)" fill-rule="evenodd" stroke="none"/>
    <path d="M157.15 -4.85 L157.15 -5.85 160.15 -20.85 166.15 -20.85 166.15 -3.85 157.15 -4.85" fill="url(#gradient30)" fill-rule="evenodd" stroke="none"/>
    <path d="M219.8 -12.85 Q223.6 -31.8 221.35 -55.25 227.65 -66.6 225.15 -83.85 L229.55 -87.0 232.5 17.1 224.35 15.5 224.1 15.2 219.8 -12.85" fill="url(#gradient31)" fill-rule="evenodd" stroke="none"/>
    <path d="M229.55 -87.0 L234.45 -84.2 237.95 18.2 232.5 17.1 229.55 -87.0" fill="url(#gradient32)" fill-rule="evenodd" stroke="none"/>
    <path d="M213.5 -54.35 L215.65 -56.35 216.15 -55.85 221.35 -55.25 Q223.6 -31.8 219.8 -12.85 L213.5 -54.35" fill="url(#gradient33)" fill-rule="evenodd" stroke="none"/>
    <path d="M179.0 -41.65 L180.15 -52.85 189.15 -52.85 189.1 -51.8 179.0 -41.65" fill="url(#gradient34)" fill-rule="evenodd" stroke="none"/>
    <path d="M189.1 -51.8 L188.15 -29.15 177.05 -23.4 179.0 -41.65 189.1 -51.8" fill="url(#gradient35)" fill-rule="evenodd" stroke="none"/>
    <path d="M188.15 -29.15 L187.15 -5.85 175.2 -5.85 177.05 -23.4 188.15 -29.15" fill="url(#gradient36)" fill-rule="evenodd" stroke="none"/>
    <path d="M213.5 -54.35 L219.8 -12.85 Q218.15 -4.5 215.3 3.0 L198.7 -19.95 Q199.9 -29.75 199.15 -40.85 L213.5 -54.35" fill="url(#gradient37)" fill-rule="evenodd" stroke="none"/>
    <path d="M234.45 -84.2 L262.65 -89.4 255.35 21.8 237.95 18.2 234.45 -84.2" fill="url(#gradient38)" fill-rule="evenodd" stroke="none"/>
    <path d="M215.3 3.0 Q218.15 -4.5 219.8 -12.85 L224.1 15.2 224.35 15.5 224.15 15.45 212.15 13.2 212.85 9.0 212.75 9.0 215.3 3.0" fill="#2e2d31" fill-rule="evenodd" stroke="none"/>
    <path d="M198.7 -19.95 L215.3 3.0 212.75 9.0 191.3 5.55 Q196.95 -5.9 198.7 -19.95" fill="url(#gradient39)" fill-rule="evenodd" stroke="none"/>
    <path d="M-392.0 93.2 L-392.0 11.5 -389.0 10.1 Q-363.9 3.05 -335.0 19.1 L-334.0 19.1 -325.0 33.1 Q-306.05 30.45 -298.0 35.1 -287.25 51.0 -290.0 60.1 L-289.55 62.2 Q-368.05 78.45 -391.5 91.2 L-392.0 93.2" fill="url(#gradient40)" fill-rule="evenodd" stroke="none"/>
    <path d="M-289.55 62.2 L-289.05 62.1" fill="none" stroke="#000000" stroke-linecap="round" stroke-linejoin="round" stroke-width="1.0"/>
    <path d="M363.25 81.85 Q363.25 84.1 361.25 86.05 358.95 88.25 355.5 88.25 350.35 88.25 348.55 85.3 L347.75 82.25 Q347.75 79.45 350.8 77.25 353.95 75.0 358.0 75.0 363.75 75.0 363.25 81.85 M365.8 111.25 Q364.7 113.5 363.5 113.5 357.25 113.5 357.25 108.0 357.25 106.35 358.25 105.0 359.55 103.25 362.0 103.25 367.0 103.25 366.75 107.85 366.75 109.25 365.8 111.25 M389.0 145.0 L387.1 144.55 Q389.5 151.9 390.45 159.95 391.25 166.85 391.25 180.85 391.25 191.35 389.7 195.95 387.4 202.7 380.15 206.75 364.65 215.4 307.5 219.0 L307.5 219.5 259.5 220.5 259.2 220.5 Q258.15 222.5 254.0 222.5 245.45 222.5 240.4 221.0 239.2 226.2 238.0 228.0 234.3 227.2 233.35 225.15 233.0 224.4 233.0 222.1 237.25 192.5 237.25 189.5 237.25 176.65 233.85 166.65 231.65 160.1 226.4 151.35 220.65 141.8 218.9 137.4 L217.9 134.6 Q215.5 127.2 215.5 118.6 215.5 116.55 215.65 114.85 L215.9 112.5 213.5 110.0 213.9 108.7 Q214.4 108.0 216.0 108.0 L217.25 108.05 Q217.95 106.65 219.0 106.0 220.0 107.1 220.5 108.7 225.75 110.15 232.35 114.85 241.25 121.2 252.55 133.4 L253.65 134.6 Q261.95 143.7 268.95 152.95 272.05 149.0 275.5 149.0 281.4 149.0 305.85 140.65 331.15 131.95 343.0 131.25 L359.0 131.25 Q370.3 133.65 384.85 135.15 389.55 135.9 391.5 137.05 393.75 138.45 393.75 141.1 393.75 143.15 391.75 144.25 390.35 145.0 389.0 145.0 M257.0 71.0 Q260.0 71.0 260.0 74.5 L259.75 76.75 259.65 77.4 Q259.5 78.0 258.0 78.0 L253.75 77.75 Q253.0 77.25 253.0 74.75 253.0 73.9 254.25 72.55 255.65 71.0 257.0 71.0 M276.25 85.0 Q276.25 83.65 278.75 81.3 281.7 78.5 285.0 78.5 289.6 78.5 289.5 83.85 289.5 85.95 288.0 88.75 286.3 92.0 284.25 92.0 279.95 92.0 277.7 88.8 276.25 86.7 276.25 85.0 M163.05 80.55 Q163.5 80.75 163.5 82.25 163.5 83.9 155.85 114.85 L155.7 115.5 151.2 134.6 149.9 140.4 148.65 146.55 Q147.25 153.65 147.0 157.25 146.05 157.25 146.0 157.95 L146.0 158.0 Q143.75 155.5 142.0 146.3 L142.0 146.2 Q141.15 141.85 140.4 136.1 L126.95 129.1 148.95 84.35 149.5 84.0 Q155.95 79.8 160.35 78.25 L162.5 80.75 163.0 80.55 163.05 80.55 M165.5 77.25 L162.7 79.4 162.65 79.4 162.05 79.85 160.5 78.2 Q161.35 77.85 162.15 77.65 L162.2 77.65 165.5 77.25 M197.3 162.5 Q194.65 164.5 193.0 164.5 191.1 164.5 190.0 161.2 189.25 158.95 189.25 157.6 189.25 153.25 194.0 153.25 199.35 153.25 200.0 159.0 200.0 160.45 197.3 162.5 M181.0 170.75 L183.0 172.0 183.25 173.5 182.0 175.0 179.75 175.0 178.95 174.55 Q178.75 174.3 178.75 172.75 178.75 171.2 179.9 170.9 L181.0 170.75 M275.5 120.0 Q274.4 121.75 273.0 121.75 270.25 121.75 268.25 120.75 268.25 118.1 270.3 115.7 272.25 113.5 274.0 113.5 L275.5 113.75 276.2 114.3 Q276.5 114.9 276.5 117.0 276.5 118.4 275.5 120.0 M46.5 77.0 L47.4 77.85 Q47.75 78.4 47.75 80.0 47.75 82.3 38.05 107.4 L35.15 114.85 28.6 130.8 29.95 134.6 31.5 138.7 Q37.05 136.35 42.0 134.6 57.65 129.0 67.0 129.1 71.7 129.1 73.7 134.6 76.95 143.5 73.25 166.75 73.2 167.0 90.85 173.3 89.75 172.2 89.75 171.75 89.75 170.6 91.0 169.1 92.8 166.9 96.0 166.75 99.25 169.25 99.25 169.85 99.25 171.1 97.55 172.95 96.35 174.2 95.0 174.8 L115.85 182.15 Q72.35 169.0 70.75 169.0 67.45 169.0 57.15 163.45 50.2 161.35 38.75 155.05 49.6 164.05 39.3 156.45 29.0 148.8 23.65 145.95 18.25 143.1 7.85 160.4 L8.45 155.05 Q7.1 154.4 6.75 153.25 7.05 151.6 8.45 150.95 8.0 142.2 3.9 134.6 1.75 130.65 -1.4 127.05 L-1.95 126.4 Q-2.7 128.0 -4.0 128.5 L-5.5 128.0 Q-5.75 129.35 -5.75 126.85 -5.75 125.2 -4.9 125.1 L-2.75 125.5 -11.2 114.85 Q-16.05 108.4 -20.0 102.0 L-19.5 101.25 -18.75 101.25 Q-18.2 101.25 -16.8 102.3 L-16.35 101.65 -16.5 100.1 Q-16.5 98.85 -11.0 95.3 -5.1 91.5 3.05 87.75 24.85 77.75 41.5 77.75 L45.55 78.1 46.5 77.0 M47.55 121.55 L48.0 121.0 48.25 120.75 50.0 120.5 Q51.55 120.5 52.0 121.2 L52.5 122.5 Q52.5 124.0 51.0 125.5 L48.0 125.25 Q47.5 125.5 47.5 123.0 L47.55 121.55 M84.75 108.25 L84.6 110.0 Q84.45 110.15 84.25 110.25 L83.0 110.75 81.65 110.3 Q81.25 110.0 81.25 108.35 81.25 106.75 81.75 106.45 L83.0 106.25 84.35 106.5 Q84.75 106.7 84.75 108.25 M121.25 130.0 L121.5 132.6 Q121.5 133.55 120.6 134.6 L120.0 135.25 Q118.45 136.75 116.85 136.75 L114.5 136.0 113.7 135.55 Q113.55 135.4 113.55 134.6 L113.5 133.75 Q113.5 133.4 115.05 131.9 116.9 130.15 118.5 129.5 L121.25 130.0 M106.0 163.25 Q106.0 161.4 109.0 160.0 112.75 162.65 112.75 163.1 L112.25 165.0 Q111.0 165.75 109.0 166.0 L106.0 163.25 M94.3 203.75 Q91.85 205.75 91.0 205.75 L89.15 205.4 88.0 204.5 Q87.25 204.75 87.25 202.25 87.25 201.15 89.05 199.3 90.95 197.25 92.5 197.25 96.25 197.25 96.75 201.1 96.75 201.8 94.3 203.75 M75.25 206.5 Q74.0 207.25 73.0 207.5 70.5 205.15 70.5 204.35 70.5 202.4 70.8 202.0 71.2 201.5 73.0 201.5 74.8 201.5 75.2 201.95 75.5 202.3 75.5 204.25 L75.25 206.5 M64.85 220.25 Q61.15 220.25 59.55 219.4 57.45 221.25 52.75 223.75 44.2 228.25 39.5 228.25 19.0 228.25 -9.0 221.75 -19.4 219.35 -27.0 216.9 -34.1 214.6 -34.1 213.85 -34.1 211.5 -32.1 206.3 L-30.6 202.6 -35.6 205.0 -36.1 204.25 Q-33.75 200.7 -19.85 194.5 -7.45 189.0 -6.0 189.0 -3.8 189.0 12.3 196.1 29.9 203.85 35.25 205.25 41.9 207.0 55.05 208.95 65.55 211.4 68.5 218.0 67.75 220.25 64.85 220.25 M49.0 217.75 Q52.9 215.65 54.95 214.7 L50.75 213.15 49.0 217.75 M-84.6 114.1 Q-84.6 111.25 -81.85 111.25 -80.2 111.25 -79.1 113.05 -78.45 114.15 -78.35 114.85 L-78.35 115.1 Q-78.35 116.65 -79.3 117.45 L-80.85 118.5 Q-83.9 116.55 -84.45 114.85 L-84.6 114.1 M-114.15 106.95 Q-113.35 107.3 -113.35 108.85 -113.35 109.85 -114.6 111.4 -115.75 112.9 -116.85 113.5 -119.35 111.1 -119.35 110.35 -119.35 109.45 -117.6 108.5 -115.85 107.5 -115.85 106.5 L-114.15 106.95 M-112.6 120.75 Q-112.35 120.0 -109.85 120.0 -106.85 120.0 -106.85 123.5 L-107.1 125.75 -107.2 126.4 Q-107.35 127.0 -108.85 127.0 -110.6 127.0 -112.6 126.0 -112.85 125.85 -112.85 123.35 L-112.6 120.75 M-81.8 133.75 L-81.6 134.6 -81.6 135.85 -81.85 138.5 -82.35 138.9 -84.35 139.25 -86.85 138.75 Q-87.1 139.0 -87.1 136.5 -87.1 135.3 -86.6 134.6 -85.8 133.5 -83.85 133.5 L-81.8 133.75 M-146.65 134.6 Q-144.85 136.4 -144.85 136.75 -144.85 138.25 -145.15 138.55 L-145.95 139.4 Q-146.5 139.85 -147.6 140.0 L-152.2 136.1 Q-153.8 137.6 -155.85 138.75 L-156.85 138.25 -155.55 134.6 -155.1 133.5 -157.85 131.0 -157.85 128.75 Q-158.35 128.0 -155.85 128.0 -154.6 128.0 -152.45 129.55 -150.45 128.0 -147.6 128.75 -148.2 130.65 -149.15 132.3 L-146.65 134.6 M-123.6 139.0 L-124.1 140.5 -124.85 141.25 -127.85 141.0 Q-128.1 141.25 -128.1 138.75 -128.1 137.15 -127.35 136.65 L-125.85 136.25 Q-124.3 136.85 -123.6 139.0 M-145.85 156.0 L-146.85 158.0 Q-149.35 157.7 -150.35 156.25 -150.35 155.7 -149.45 154.95 L-147.85 154.0 Q-146.3 154.6 -145.85 156.0 M-98.1 161.05 Q-99.45 162.5 -101.85 162.5 -103.3 162.5 -103.75 162.15 L-105.1 161.25 Q-105.6 161.5 -105.6 159.0 -105.6 157.1 -103.1 156.0 -101.45 155.25 -100.35 155.25 -97.1 155.25 -97.1 158.75 -97.1 159.95 -98.1 161.05 M-104.35 178.1 L-104.6 179.25 -106.85 180.75 Q-110.6 178.6 -110.6 177.85 L-110.5 176.1 Q-110.0 174.85 -107.85 175.25 -104.35 177.5 -104.35 178.1 M-16.0 116.0 Q-14.45 116.6 -14.0 118.0 -14.45 119.4 -16.0 120.0 L-18.0 118.75 Q-18.0 116.8 -16.0 116.0 M-24.0 145.75 Q-22.75 146.25 -21.75 147.75 -22.35 149.6 -24.0 150.25 -25.8 149.65 -26.25 148.25 -25.9 146.25 -24.0 145.75 M-9.0 144.5 Q-4.35 144.5 -4.5 148.75 -6.1 154.5 -10.0 154.5 -16.35 154.5 -15.25 149.85 -15.25 148.3 -13.45 146.5 -11.45 144.5 -9.0 144.5 M-71.4 121.45 Q-70.85 121.75 -70.85 123.35 -70.85 124.85 -71.0 124.95 L-71.35 125.25 -71.85 126.0 -74.6 125.75 Q-74.85 126.0 -74.85 123.5 -74.85 121.9 -74.2 121.4 L-72.85 121.0 -71.4 121.45 M-49.1 128.25 Q-49.35 129.25 -49.35 126.75 -49.35 125.15 -48.45 124.8 L-46.85 124.5 Q-44.75 125.35 -44.35 126.5 -44.35 128.45 -46.85 129.5 L-49.1 128.25 M-43.45 142.35 Q-38.4 140.0 -36.85 140.0 -45.2 147.35 -48.85 148.75 L-50.6 147.5 Q-49.3 145.05 -43.45 142.35 M-53.6 176.85 Q-53.6 179.4 -54.1 180.25 -55.2 182.0 -58.85 182.0 -63.85 182.0 -63.1 177.35 -63.1 175.0 -61.65 174.25 -60.75 173.75 -58.35 173.75 -53.6 173.75 -53.6 176.85 M-16.65 169.65 Q-18.1 171.85 -20.0 172.25 -23.0 171.05 -23.0 168.0 -23.0 166.3 -22.05 165.0 -20.9 163.5 -19.0 163.5 -15.5 163.5 -15.5 167.0 -15.5 167.95 -16.65 169.65 M-295.2 39.3 Q-294.85 39.45 -294.85 41.0 -294.85 45.45 -310.2 50.05 -317.9 52.35 -325.85 53.75 -328.45 53.75 -329.6 53.0 -326.65 50.05 -314.6 45.1 -304.3 40.9 -297.35 39.0 L-295.6 39.5 Q-295.4 39.25 -295.2 39.3 M-321.35 36.25 Q-321.35 40.6 -347.6 49.5 L-353.35 49.25 Q-354.1 49.75 -354.1 47.25 -354.1 44.75 -341.4 38.25 -329.1 32.0 -325.85 32.0 -323.35 32.0 -322.1 34.05 -321.35 35.25 -321.35 36.25 M-269.1 133.0 L-270.35 134.6 Q-271.25 135.75 -271.85 135.75 L-274.1 135.4 -275.45 134.6 -275.6 134.5 Q-275.85 134.35 -275.85 131.85 -275.85 131.2 -274.85 130.0 -273.8 128.75 -272.85 128.75 -270.5 128.75 -269.1 133.0 M-295.85 128.75 Q-295.85 126.8 -293.85 126.0 -292.3 126.6 -291.85 128.0 -292.3 129.4 -293.85 130.0 L-295.85 128.75 M-301.85 154.25 Q-302.85 155.75 -303.85 156.0 -306.85 154.9 -306.85 152.1 L-306.6 150.5 Q-307.35 150.0 -304.85 150.0 -303.25 150.0 -302.5 151.8 -302.1 152.75 -301.85 154.25 M-317.85 157.3 Q-317.1 157.45 -317.1 159.0 -317.1 160.45 -317.3 160.2 -317.7 159.7 -317.85 159.75 -319.6 159.15 -319.6 157.75 L-318.6 157.5 Q-318.2 157.25 -317.85 157.3 M-322.35 183.85 Q-322.35 185.3 -322.55 185.55 L-323.1 186.5 Q-323.85 186.5 -325.85 187.5 L-327.65 186.9 Q-328.35 186.4 -328.35 184.75 -328.35 183.65 -326.85 182.5 -325.5 181.5 -324.85 181.5 L-322.65 181.75 Q-322.35 182.0 -322.35 183.85 M-286.85 180.75 Q-283.85 177.6 -283.85 177.25 -282.0 178.0 -281.6 179.25 L-284.85 182.0 -286.85 180.75 M-257.85 160.5 L-258.85 162.0 -261.85 161.75 Q-262.1 161.6 -262.1 159.1 -262.1 157.5 -261.35 157.2 L-259.85 157.0 Q-257.85 157.8 -257.85 160.5 M-254.9 164.55 Q-255.1 164.3 -255.1 162.75 -255.1 161.2 -253.95 160.9 L-252.85 160.75 Q-250.5 161.55 -250.1 162.75 L-250.1 163.5 Q-251.1 165.0 -254.1 165.0 -254.45 164.65 -254.9 164.55 M-269.05 172.7 L-268.35 173.5 -268.35 176.5 Q-268.85 176.5 -270.85 177.5 L-272.65 176.9 Q-273.35 176.4 -273.35 174.75 -273.35 172.95 -273.05 172.7 L-270.85 172.5 -269.05 172.7 M-258.6 197.75 L-258.1 200.35 Q-258.1 202.1 -259.9 203.75 -261.75 205.5 -263.85 205.5 -267.0 205.5 -266.6 201.25 -266.6 199.45 -265.05 198.1 -263.5 196.75 -261.85 197.25 L-258.6 197.75 M-245.85 187.1 Q-245.85 183.0 -242.35 183.0 -239.9 183.0 -238.65 184.8 -237.85 185.95 -237.85 186.85 -237.85 188.15 -239.4 189.55 -241.05 191.0 -242.85 191.0 -245.35 191.0 -245.85 189.2 L-245.85 187.1 M-172.4 114.85 L-172.1 113.75 Q-172.35 113.25 -169.85 113.25 -168.15 113.25 -166.8 114.85 L-166.35 115.5 -167.45 117.55 Q-168.35 118.75 -169.85 118.75 L-172.6 116.0 -172.4 114.85 M-182.15 123.45 L-185.85 124.25 Q-188.2 122.9 -189.1 121.0 -185.05 118.75 -181.85 118.75 -180.35 118.75 -180.2 119.1 -180.2 119.65 -179.85 120.0 L-179.7 119.6 -179.6 121.1 Q-179.6 122.8 -182.15 123.45 M-201.3 134.6 L-201.35 133.6 -201.1 131.0 -197.85 130.5 -194.85 131.0 -194.6 131.25 Q-194.35 131.4 -194.35 132.85 -194.35 133.9 -194.85 134.6 -196.1 136.25 -200.1 136.25 L-201.0 135.6 -201.3 134.6 M-188.1 142.0 Q-186.8 139.75 -184.85 139.75 -182.15 139.75 -181.1 142.0 L-180.6 144.25 Q-180.6 148.75 -185.0 148.75 -189.85 148.75 -189.1 145.0 -189.1 143.75 -188.1 142.0 M-231.35 143.0 Q-230.7 143.3 -230.55 143.45 -230.35 143.7 -230.35 145.25 -230.35 147.75 -231.1 146.5 L-232.9 146.65 Q-233.35 146.65 -233.35 145.1 L-233.2 143.5 -232.85 143.0 -231.35 143.0 M-215.1 148.05 Q-214.6 148.2 -214.6 149.75 -214.6 151.2 -214.85 151.15 L-215.85 151.0 Q-217.1 152.6 -217.1 150.1 -217.1 148.55 -216.8 148.35 L-216.35 148.25 -215.6 148.25 -215.1 148.05 M-223.55 168.0 Q-223.35 168.1 -223.35 169.6 L-223.6 170.75 -224.1 171.5 -225.85 171.25 Q-226.35 172.25 -226.35 169.75 L-226.1 167.75 -224.35 167.75 -223.55 168.0 M-226.85 180.2 L-226.35 181.5 Q-226.35 183.0 -227.85 184.5 L-230.85 184.25 Q-231.35 184.5 -231.35 182.0 L-231.3 180.55 -230.85 180.0 Q-231.35 179.5 -228.85 179.5 -227.3 179.5 -226.85 180.2 M-184.85 166.25 L-185.85 166.75 Q-187.4 166.0 -187.85 163.25 L-186.85 163.0 Q-184.85 163.35 -184.85 166.25 M-198.4 175.05 Q-196.55 173.0 -193.35 173.0 -188.8 173.0 -187.4 175.9 -186.65 177.4 -186.85 179.1 -186.85 184.75 -193.5 184.75 -197.95 184.75 -199.35 181.75 -200.05 180.25 -199.85 178.75 -199.85 176.7 -198.4 175.05 M-167.85 194.5 Q-167.85 194.35 -166.35 193.75 -164.85 193.15 -164.85 191.0 -161.35 193.5 -161.35 194.1 -161.35 196.85 -164.85 198.0 L-167.35 195.8 Q-167.85 195.3 -167.85 194.5 M-295.6 200.75 L-295.1 203.0 -296.3 204.6 Q-297.25 205.75 -298.35 205.75 L-301.35 205.25 Q-301.6 205.5 -301.6 203.0 L-301.35 200.75 -298.35 200.25 -295.6 200.75 M-341.85 22.0 Q-341.85 23.1 -342.55 25.0 -343.6 27.75 -345.35 27.75 -347.85 27.75 -349.4 27.05 -350.95 26.35 -351.6 24.95 L-351.85 21.85 Q-351.85 20.05 -350.4 18.55 -348.85 17.0 -346.85 17.0 -343.85 17.0 -342.55 19.35 -341.85 20.65 -341.85 22.0 M-352.85 35.5 L-355.1 34.25 Q-355.35 35.25 -355.35 32.75 L-355.35 32.65 Q-355.3 31.15 -354.45 30.8 L-352.85 30.5 -351.6 31.1 -351.55 31.15 Q-350.6 31.75 -350.35 32.5 -350.35 34.45 -352.85 35.5 M-360.6 31.75 L-360.95 32.25 Q-361.35 32.75 -362.85 32.75 -365.35 32.75 -365.85 31.25 -366.35 32.6 -366.35 30.1 -366.35 26.8 -362.85 27.5 L-360.75 27.95 Q-360.35 28.2 -360.35 29.85 L-360.6 31.75 M-369.6 59.5 Q-368.25 58.5 -366.85 58.5 -363.95 58.5 -362.85 60.65 -362.35 61.75 -362.35 63.1 -362.35 65.25 -364.15 66.5 -365.5 67.5 -366.85 67.5 -372.25 67.5 -371.35 62.85 -371.35 60.8 -369.6 59.5 M-361.35 96.25 Q-358.7 96.25 -358.15 97.85 L-358.1 99.75 Q-358.1 101.5 -358.45 102.05 -359.4 103.45 -362.85 103.75 -365.6 101.3 -365.6 100.6 -365.6 98.55 -363.9 97.25 -362.6 96.25 -361.35 96.25 M-342.35 106.5 Q-342.85 107.5 -342.85 105.0 -342.85 101.85 -339.85 102.25 -338.6 102.75 -337.85 105.0 L-338.25 106.3 Q-338.75 107.0 -340.35 107.0 L-342.35 106.5 M-347.85 126.5 Q-348.6 125.75 -348.6 124.25 -347.85 123.5 -346.35 123.5 L-345.1 125.0 Q-345.6 126.5 -347.85 126.5 M-364.0 134.6 L-364.75 134.95 Q-362.45 138.9 -362.1 140.25 L-362.05 140.9 Q-362.3 141.5 -363.85 141.5 -366.6 141.5 -368.95 136.35 L-372.1 136.75 Q-374.25 136.75 -374.85 135.0 L-374.25 134.6 -370.45 132.4 -370.6 132.0 -370.35 130.0 -368.35 129.75 Q-368.0 129.75 -366.95 131.35 L-365.85 131.25 Q-361.7 131.25 -361.1 133.0 -362.25 133.8 -364.0 134.6 M-335.35 147.75 Q-334.1 148.5 -333.6 150.0 L-334.1 151.5 -334.85 152.25 -337.85 151.25 Q-338.1 152.25 -338.1 149.75 -338.1 148.15 -337.2 147.8 L-335.35 147.75 M-371.65 154.95 L-370.6 156.0 -370.45 155.6 Q-370.35 155.55 -370.35 157.1 -370.35 158.7 -371.35 159.05 L-373.85 159.5 -375.65 158.9 Q-376.35 158.4 -376.35 156.75 -376.35 154.95 -376.05 154.7 L-373.85 154.5 Q-372.3 154.5 -371.65 154.95 M-364.85 190.75 Q-362.5 190.75 -361.3 192.75 -360.6 193.95 -360.6 195.0 -360.6 198.25 -364.35 198.25 -367.5 198.25 -368.1 196.65 L-368.1 194.75 Q-368.1 190.75 -364.85 190.75 M-353.85 156.0 Q-354.1 157.5 -355.85 158.75 L-358.85 158.5 Q-359.6 158.75 -359.6 156.25 -359.6 155.65 -358.2 155.05 -356.85 154.5 -356.85 153.25 -354.5 154.7 -353.85 156.0" fill="#000000" fill-opacity="0.13333334" fill-rule="evenodd" stroke="none"/>
    <path d="M70.6 -104.75 Q73.2 -104.75 74.05 -107.35 74.9 -110.0 76.75 -110.0 81.55 -110.0 85.0 -102.35 L87.5 -94.55 87.3 -93.6 86.9 -93.2 87.15 -92.15 Q87.8 -89.15 88.9 -87.35 91.45 -82.95 98.8 -80.4 101.05 -79.6 103.75 -79.0 L103.8 -80.1 Q103.8 -81.7 103.3 -81.6 102.2 -81.1 101.0 -81.1 100.55 -81.1 99.25 -81.75 L99.05 -83.25 Q99.05 -84.4 100.5 -85.85 102.0 -87.35 103.25 -87.35 108.75 -87.35 111.85 -80.35 L113.35 -75.7 Q115.35 -73.1 116.0 -65.5 116.0 -63.25 113.5 -59.85 110.65 -56.0 107.55 -56.0 97.2 -56.0 90.25 -66.0 L85.5 -72.85 Q82.85 -76.0 79.85 -76.0 71.6 -76.0 69.05 -71.9 67.8 -69.9 67.8 -65.3 67.8 -61.15 69.3 -57.45 70.8 -53.7 70.8 -52.9 70.8 -48.15 60.75 -45.0 53.1 -42.6 47.75 -42.6 44.1 -42.6 40.6 -43.8 L36.8 -45.0 Q35.55 -43.15 33.7 -41.3 30.0 -37.6 25.5 -37.6 19.75 -37.6 17.25 -42.85 15.65 -46.2 14.8 -54.35 13.85 -63.05 12.85 -65.85 10.9 -71.1 6.1 -71.1 1.55 -71.1 -0.35 -62.75 L-1.35 -54.25 Q-1.35 -51.1 0.35 -46.6 L2.0 -41.65 Q2.0 -39.2 -0.6 -35.6 -3.55 -31.45 -7.0 -31.1 -14.75 -30.35 -19.85 -25.95 L-23.1 -23.05 Q-24.75 -21.75 -26.5 -21.75 -30.65 -21.75 -33.3 -23.0 -35.95 -24.25 -36.75 -24.25 -40.25 -24.25 -42.25 -22.25 -43.6 -20.85 -43.6 -19.8 -42.55 -16.3 -42.25 -14.35 L-42.25 -14.1 Q-42.85 -14.45 -43.4 -15.15 L-44.1 -14.75 Q-45.15 -13.25 -45.55 -13.25 -49.9 -13.25 -51.85 -25.25 -51.85 -31.7 -48.35 -34.2 -45.9 -35.95 -40.3 -36.25 L-31.4 -37.1 Q-26.85 -38.3 -25.35 -42.35 L-18.1 -61.5 -10.15 -82.15 Q-3.35 -97.6 1.75 -97.6 9.85 -97.6 13.65 -94.05 16.15 -91.75 17.75 -86.3 19.5 -80.35 20.95 -78.55 23.8 -75.0 30.25 -75.0 44.55 -81.9 44.55 -82.25 L43.25 -89.35 Q43.25 -90.15 44.2 -92.4 45.5 -95.45 47.5 -98.0 53.55 -105.75 63.25 -105.75 L70.6 -104.75" fill="url(#gradient41)" fill-rule="evenodd" stroke="none"/>
    <path d="M6.3 -2.9 L5.9 -0.9 Q3.2 9.75 -9.65 17.75 -25.9 27.9 -48.9 27.95 -71.9 27.9 -88.15 17.75 -101.0 9.75 -103.65 -0.9 L-104.05 -2.9 -104.35 -5.85 6.6 -5.85 6.3 -2.9" fill="url(#gradient42)" fill-rule="evenodd" stroke="none"/>
    <path d="M-80.5 -13.65 L-68.5 -13.65 -68.5 -15.9 -63.0 -15.9 -63.0 -13.65 -55.5 -13.65 -55.5 -18.9 -41.5 -18.9 -41.5 -13.65 -38.5 -13.65 -38.5 -17.4 -27.5 -17.4 -27.5 -13.65 -17.5 -13.65 -26.5 -7.6 -70.5 -7.6 -80.5 -13.65" fill="url(#gradient43)" fill-rule="evenodd" stroke="none"/>
    <path d="M-70.5 -5.6 L-26.5 -5.6 -17.5 0.05 -27.5 0.05 -27.5 3.6 -38.5 3.6 -38.5 0.05 -41.5 0.05 -41.5 5.0 -55.5 5.0 -55.5 0.05 -63.0 0.05 -63.0 2.2 -68.5 2.2 -68.5 0.05 -80.5 0.05 -70.5 -5.6" fill="url(#gradient44)" fill-rule="evenodd" stroke="none"/>
    <path d="M-49.5 -25.6 L-49.0 -25.6 Q-47.35 -24.35 -47.35 -24.05 -47.35 -23.6 -49.0 -22.35 -50.6 -23.55 -50.6 -24.1 L-50.6 -24.15 Q-50.55 -24.75 -50.1 -25.2 L-49.5 -25.6 M-43.95 -16.45 L-43.5 -16.6 Q-42.35 -16.15 -42.35 -14.85 L-43.5 -14.35 -44.05 -14.45 -44.35 -14.45 Q-44.6 -14.55 -44.6 -15.35 -44.6 -16.15 -43.95 -16.45" fill="#ffcc00" fill-rule="evenodd" stroke="none"/>
    <path d="M-49.0 -22.35 Q-47.35 -23.6 -47.35 -24.05 -47.35 -24.35 -49.0 -25.6 L-49.5 -25.6 -48.0 -26.5 Q-46.5 -25.25 -46.5 -24.9 -46.5 -24.25 -47.1 -23.4 -47.85 -22.3 -49.0 -22.35 M-49.0 -21.0 Q-47.5 -21.0 -47.1 -19.8 L-47.0 -18.5 Q-47.0 -16.1 -48.5 -16.1 -51.05 -16.1 -50.6 -19.0 -50.6 -21.0 -49.0 -21.0 M-44.05 -14.45 L-43.5 -14.35 -42.35 -14.85 Q-42.35 -16.15 -43.5 -16.6 L-43.95 -16.45 -44.0 -16.55 Q-44.0 -17.8 -43.5 -17.5 -44.25 -18.25 -40.85 -15.75 L-40.85 -15.35 -41.25 -15.35 -41.25 -15.05 Q-41.25 -14.3 -41.7 -13.9 L-42.5 -13.35 -44.0 -13.5 -44.05 -14.45 M-40.6 -15.2 Q-40.05 -15.8 -39.5 -15.6 L-37.85 -14.05 Q-37.85 -13.6 -39.5 -12.35 -41.1 -13.65 -41.1 -14.1 -41.1 -14.7 -40.6 -15.2 M-54.0 -13.0 L-55.1 -13.0 -55.5 -13.1 -55.6 -13.9 Q-55.6 -15.15 -54.5 -15.1 -53.8 -14.85 -53.35 -14.1 -53.7 -13.25 -54.0 -13.0 M-27.95 -13.25 L-28.5 -13.25 Q-29.25 -13.55 -29.25 -14.25 -29.05 -14.6 -28.25 -14.6 -27.75 -15.3 -27.75 -14.05 -27.75 -13.3 -27.95 -13.25 M-32.25 -14.75 L-33.25 -15.0 Q-33.75 -15.5 -33.75 -16.1 -33.75 -16.95 -33.45 -17.15 L-32.25 -17.25 Q-31.45 -17.25 -30.75 -16.25 -31.65 -14.75 -32.25 -14.75" fill="#b75c04" fill-rule="evenodd" stroke="none"/>
    <path d="M313.95 45.1 L314.7 44.65 Q295.95 43.25 275.5 44.55 M314.7 44.65 Q341.9 28.8 383.95 24.1" fill="none" stroke="#000000" stroke-linecap="round" stroke-linejoin="round" stroke-width="1.0"/>
    <path d="M275.5 -88.15 L283.1 -87.05 303.0 -91.9 311.0 -87.4 354.0 -91.9 382.5 -89.4 M284.0 -86.9 L283.1 -87.05" fill="none" stroke="#29211b" stroke-linecap="round" stroke-linejoin="round" stroke-width="1.0"/>
    <path d="M157.1 -5.9 L160.5 -21.4 165.5 -20.4 166.4 -5.9 M198.0 -41.9 L215.5 -55.9 221.4 -55.4 221.5 -56.4 M225.5 -83.4 L229.0 -86.9 233.5 -83.4 M222.0 -55.4 Q227.9 -68.6 225.5 -82.9 M180.0 -53.4 L189.5 -53.4 186.65 -9.9 M174.75 -9.9 L179.5 -53.4 M264.0 -89.9 L275.5 -88.15 M233.5 -84.4 L264.5 -89.4 M198.5 -40.9 Q200.65 -17.65 193.0 3.6 M213.0 12.6 Q224.3 -19.05 221.4 -55.4 M-383.0 9.1 Q-343.05 4.65 -325.0 33.1 M-325.0 34.1 Q-290.3 24.05 -289.0 61.1" fill="none" stroke="#29211b" stroke-linecap="round" stroke-linejoin="round" stroke-width="1.0"/>
    <path d="M275.5 44.55 L261.7 45.75 Q212.55 50.9 154.35 71.05 L156.95 71.1 M154.35 71.05 L153.95 71.05 Q22.85 68.1 -23.0 101.1" fill="none" stroke="#000000" stroke-linecap="round" stroke-linejoin="round" stroke-width="1.0"/>
  </g>
  <defs>
    <linearGradient gradientTransform="matrix(0.0162, 0.1759, -0.4832, 0.0444, -2.9, 101.65)" gradientUnits="userSpaceOnUse" id="gradient0" spreadMethod="pad" x1="-819.2" x2="819.2">
      <stop offset="0.0" stop-color="#4a3853"/>
      <stop offset="0.4745098039215686" stop-color="#253c52"/>
      <stop offset="0.8235294117647058" stop-color="#323047"/>
    </linearGradient>
    <radialGradient cx="0" cy="0" gradientTransform="matrix(0.5989, 0.0, 0.0, 0.5989, -20.0, -64.0)" gradientUnits="userSpaceOnUse" id="gradient1" r="819.2" spreadMethod="pad">
      <stop offset="0.0" stop-color="#303058"/>
      <stop offset="0.6666666666666666" stop-color="#312332"/>
      <stop offset="1.0" stop-color="#0d0c0e"/>
    </radialGradient>
    <linearGradient gradientTransform="matrix(-0.0044, 0.1251, -0.4919, -0.0173, 8.2, -115.85)" gradientUnits="userSpaceOnUse" id="gradient2" spreadMethod="pad" x1="-819.2" x2="819.2">
      <stop offset="0.0" stop-color="#9d8eb5"/>
      <stop offset="1.0" stop-color="#611652" stop-opacity="0.0"/>
    </linearGradient>
    <linearGradient gradientTransform="matrix(-0.0044, 0.1251, -0.4919, -0.0173, 153.7, -156.85)" gradientUnits="userSpaceOnUse" id="gradient3" spreadMethod="pad" x1="-819.2" x2="819.2">
      <stop offset="0.0" stop-color="#9d8eb5"/>
      <stop offset="1.0" stop-color="#611652" stop-opacity="0.0"/>
    </linearGradient>
    <linearGradient gradientTransform="matrix(0.0272, -0.0767, 0.1069, 0.0379, 246.9, 30.75)" gradientUnits="userSpaceOnUse" id="gradient4" spreadMethod="pad" x1="-819.2" x2="819.2">
      <stop offset="0.0" stop-color="#000000" stop-opacity="0.023529412"/>
      <stop offset="0.9882352941176471" stop-color="#000000" stop-opacity="0.32156864"/>
    </linearGradient>
    <linearGradient gradientTransform="matrix(0.0255, -0.0773, 0.1077, 0.0355, 246.05, 31.35)" gradientUnits="userSpaceOnUse" id="gradient5" spreadMethod="pad" x1="-819.2" x2="819.2">
      <stop offset="0.0" stop-color="#000000" stop-opacity="0.023529412"/>
      <stop offset="0.9882352941176471" stop-color="#000000" stop-opacity="0.32156864"/>
    </linearGradient>
    <linearGradient gradientTransform="matrix(-0.005, -0.0282, 0.0617, -0.0109, -341.95, 114.2)" gradientUnits="userSpaceOnUse" id="gradient6" spreadMethod="pad" x1="-819.2" x2="819.2">
      <stop offset="0.0" stop-color="#000000" stop-opacity="0.023529412"/>
      <stop offset="0.9882352941176471" stop-color="#000000" stop-opacity="0.32156864"/>
    </linearGradient>
    <linearGradient gradientTransform="matrix(0.0272, -0.0767, 0.1069, 0.0379, 247.75, 18.6)" gradientUnits="userSpaceOnUse" id="gradient7" spreadMethod="pad" x1="-819.2" x2="819.2">
      <stop offset="0.0" stop-color="#000000" stop-opacity="0.023529412"/>
      <stop offset="0.9882352941176471" stop-color="#000000" stop-opacity="0.32156864"/>
    </linearGradient>
    <linearGradient gradientTransform="matrix(0.0272, -0.0767, 0.1069, 0.0379, 245.9, 27.75)" gradientUnits="userSpaceOnUse" id="gradient8" spreadMethod="pad" x1="-819.2" x2="819.2">
      <stop offset="0.0" stop-color="#000000" stop-opacity="0.023529412"/>
      <stop offset="0.9882352941176471" stop-color="#000000" stop-opacity="0.32156864"/>
    </linearGradient>
    <linearGradient gradientTransform="matrix(0.0197, 0.0, 0.0, 0.0169, -373.85, 75.95)" gradientUnits="userSpaceOnUse" id="gradient9" spreadMethod="pad" x1="-819.2" x2="819.2">
      <stop offset="0.0" stop-color="#000000" stop-opacity="0.023529412"/>
      <stop offset="0.9882352941176471" stop-color="#000000" stop-opacity="0.32156864"/>
    </linearGradient>
    <linearGradient gradientTransform="matrix(-0.0016, 0.0904, -0.4147, -0.0073, -47.25, 62.75)" gradientUnits="userSpaceOnUse" id="gradient10" spreadMethod="pad" x1="-819.2" x2="819.2">
      <stop offset="0.0" stop-color="#ffffff" stop-opacity="0.0"/>
      <stop offset="1.0" stop-color="#ffffff" stop-opacity="0.15294118"/>
    </linearGradient>
    <radialGradient cx="0" cy="0" gradientTransform="matrix(-0.0077, 0.0798, -0.3681, -0.0355, -194.95, 84.0)" gradientUnits="userSpaceOnUse" id="gradient11" r="819.2" spreadMethod="pad">
      <stop offset="0.16470588235294117" stop-color="#776c60" stop-opacity="0.0"/>
      <stop offset="0.8627450980392157" stop-color="#807568" stop-opacity="0.7529412"/>
    </radialGradient>
    <radialGradient cx="0" cy="0" gradientTransform="matrix(0.1372, 0.0, 0.0, 0.1372, 325.1, -74.05)" gradientUnits="userSpaceOnUse" id="gradient12" r="819.2" spreadMethod="pad">
      <stop offset="0.0" stop-color="#3c3c3c"/>
      <stop offset="0.7058823529411765" stop-color="#332822"/>
      <stop offset="1.0" stop-color="#404d6a"/>
    </radialGradient>
    <radialGradient cx="0" cy="0" gradientTransform="matrix(0.1271, 0.0, 0.0, 0.1271, 288.1, -69.05)" gradientUnits="userSpaceOnUse" id="gradient13" r="819.2" spreadMethod="pad">
      <stop offset="0.0" stop-color="#3c3c3c"/>
      <stop offset="0.7058823529411765" stop-color="#332822"/>
      <stop offset="1.0" stop-color="#404d6a"/>
    </radialGradient>
    <radialGradient cx="0" cy="0" gradientTransform="matrix(0.0629, 0.0, 0.0, 0.0629, 384.1, -86.05)" gradientUnits="userSpaceOnUse" id="gradient14" r="819.2" spreadMethod="pad">
      <stop offset="0.0" stop-color="#3c3c3c"/>
      <stop offset="0.7058823529411765" stop-color="#332822"/>
      <stop offset="1.0" stop-color="#404d6a"/>
    </radialGradient>
    <radialGradient cx="0" cy="0" gradientTransform="matrix(0.1264, 0.0, 0.0, 0.1264, 343.1, 123.0)" gradientUnits="userSpaceOnUse" id="gradient15" r="819.2" spreadMethod="pad">
      <stop offset="0.0" stop-color="#3c3c3c"/>
      <stop offset="0.7058823529411765" stop-color="#332822"/>
      <stop offset="0.9803921568627451" stop-color="#693a70"/>
    </radialGradient>
    <radialGradient cx="0" cy="0" gradientTransform="matrix(0.1849, 0.0, 0.0, 0.1849, 71.0, 96.0)" gradientUnits="userSpaceOnUse" id="gradient16" r="819.2" spreadMethod="pad">
      <stop offset="0.0" stop-color="#3c3c3c"/>
      <stop offset="0.9137254901960784" stop-color="#332822"/>
    </radialGradient>
    <radialGradient cx="0" cy="0" gradientTransform="matrix(0.1939, 0.0, 0.0, 0.1939, 250.05, 56.0)" gradientUnits="userSpaceOnUse" id="gradient17" r="819.2" spreadMethod="pad">
      <stop offset="0.0" stop-color="#3c3c3c"/>
      <stop offset="0.9137254901960784" stop-color="#332822"/>
    </radialGradient>
    <radialGradient cx="0" cy="0" gradientTransform="matrix(0.1707, 0.0, 0.0, 0.1707, 370.1, 35.0)" gradientUnits="userSpaceOnUse" id="gradient18" r="819.2" spreadMethod="pad">
      <stop offset="0.0" stop-color="#3c3c3c"/>
      <stop offset="0.9137254901960784" stop-color="#332822"/>
    </radialGradient>
    <radialGradient cx="0" cy="0" gradientTransform="matrix(0.0118, 0.0, 0.0, 0.0118, 318.1, 43.0)" gradientUnits="userSpaceOnUse" id="gradient19" r="819.2" spreadMethod="pad">
      <stop offset="0.0" stop-color="#3c3c3c"/>
      <stop offset="0.9137254901960784" stop-color="#332822"/>
    </radialGradient>
    <radialGradient cx="0" cy="0" gradientTransform="matrix(0.0923, 0.0, 0.0, 0.0923, 42.0, 208.05)" gradientUnits="userSpaceOnUse" id="gradient20" r="819.2" spreadMethod="pad">
      <stop offset="0.0" stop-color="#3c3c3c"/>
      <stop offset="0.9137254901960784" stop-color="#332822"/>
    </radialGradient>
    <radialGradient cx="0" cy="0" gradientTransform="matrix(0.0108, 0.0, 0.0, 0.0108, 178.05, 215.05)" gradientUnits="userSpaceOnUse" id="gradient21" r="819.2" spreadMethod="pad">
      <stop offset="0.0" stop-color="#3c3c3c"/>
      <stop offset="0.9137254901960784" stop-color="#332822"/>
    </radialGradient>
    <radialGradient cx="0" cy="0" gradientTransform="matrix(0.0144, 0.0, 0.0, 0.0144, 312.1, 211.05)" gradientUnits="userSpaceOnUse" id="gradient22" r="819.2" spreadMethod="pad">
      <stop offset="0.0" stop-color="#3c3c3c"/>
      <stop offset="0.9137254901960784" stop-color="#332822"/>
    </radialGradient>
    <radialGradient cx="0" cy="0" gradientTransform="matrix(0.1314, 0.0, 0.0, 0.1314, 71.0, 183.0)" gradientUnits="userSpaceOnUse" id="gradient23" r="819.2" spreadMethod="pad">
      <stop offset="0.0" stop-color="#3c3c3c"/>
      <stop offset="0.9137254901960784" stop-color="#332822"/>
    </radialGradient>
    <radialGradient cx="0" cy="0" fx="-22.400000000000002" fy="0" gradientTransform="matrix(0.1819, 0.0, 0.0, 0.1819, 239.05, 179.0)" gradientUnits="userSpaceOnUse" id="gradient24" r="819.2" spreadMethod="pad">
      <stop offset="0.0" stop-color="#3c3c3c"/>
      <stop offset="0.9137254901960784" stop-color="#332822"/>
    </radialGradient>
    <radialGradient cx="0" cy="0" gradientTransform="matrix(0.1264, 0.0, 0.0, 0.1264, 342.1, 116.0)" gradientUnits="userSpaceOnUse" id="gradient25" r="819.2" spreadMethod="pad">
      <stop offset="0.0" stop-color="#3c3c3c"/>
      <stop offset="0.9137254901960784" stop-color="#332822"/>
    </radialGradient>
    <radialGradient cx="0" cy="0" gradientTransform="matrix(0.6838, 0.0, 0.0, 0.2005, -236.05, 120.05)" gradientUnits="userSpaceOnUse" id="gradient26" r="819.2" spreadMethod="pad">
      <stop offset="0.0" stop-color="#9b8e7d"/>
      <stop offset="0.4235294117647059" stop-color="#362f2c"/>
      <stop offset="0.5529411764705883" stop-color="#332822"/>
    </radialGradient>
    <radialGradient cx="0" cy="0" gradientTransform="matrix(0.1013, 0.0, 0.0, 0.1013, 280.1, -55.0)" gradientUnits="userSpaceOnUse" id="gradient27" r="819.2" spreadMethod="pad">
      <stop offset="0.0" stop-color="#383047"/>
      <stop offset="0.7058823529411765" stop-color="#222134"/>
      <stop offset="1.0" stop-color="#404d6a"/>
    </radialGradient>
    <radialGradient cx="0" cy="0" gradientTransform="matrix(0.1168, 0.0, 0.0, 0.1168, 306.1, -61.0)" gradientUnits="userSpaceOnUse" id="gradient28" r="819.2" spreadMethod="pad">
      <stop offset="0.0" stop-color="#383047"/>
      <stop offset="0.7058823529411765" stop-color="#222134"/>
      <stop offset="1.0" stop-color="#404d6a"/>
    </radialGradient>
    <radialGradient cx="0" cy="0" gradientTransform="matrix(0.1356, 0.0, 0.0, 0.1356, 371.1, -67.05)" gradientUnits="userSpaceOnUse" id="gradient29" r="819.2" spreadMethod="pad">
      <stop offset="0.0" stop-color="#383047"/>
      <stop offset="0.7058823529411765" stop-color="#222134"/>
      <stop offset="1.0" stop-color="#404d6a"/>
    </radialGradient>
    <radialGradient cx="0" cy="0" gradientTransform="matrix(0.0201, 0.0, 0.0, 0.0201, 163.05, -20.0)" gradientUnits="userSpaceOnUse" id="gradient30" r="819.2" spreadMethod="pad">
      <stop offset="0.0" stop-color="#3c3c3c"/>
      <stop offset="0.7058823529411765" stop-color="#332822"/>
      <stop offset="1.0" stop-color="#404d6a"/>
    </radialGradient>
    <radialGradient cx="0" cy="0" gradientTransform="matrix(0.0909, 0.0, 0.0, 0.0909, 225.05, -57.0)" gradientUnits="userSpaceOnUse" id="gradient31" r="819.2" spreadMethod="pad">
      <stop offset="0.0" stop-color="#3c3c3c"/>
      <stop offset="0.7058823529411765" stop-color="#332822"/>
      <stop offset="1.0" stop-color="#404d6a"/>
    </radialGradient>
    <radialGradient cx="0" cy="0" gradientTransform="matrix(0.0786, 0.0, 0.0, 0.0786, 233.05, -46.0)" gradientUnits="userSpaceOnUse" id="gradient32" r="819.2" spreadMethod="pad">
      <stop offset="0.0" stop-color="#383047"/>
      <stop offset="0.7058823529411765" stop-color="#222134"/>
      <stop offset="1.0" stop-color="#404d6a"/>
    </radialGradient>
    <radialGradient cx="0" cy="0" gradientTransform="matrix(0.0421, 0.0, 0.0, 0.0421, 219.05, -22.0)" gradientUnits="userSpaceOnUse" id="gradient33" r="819.2" spreadMethod="pad">
      <stop offset="0.0" stop-color="#383047"/>
      <stop offset="0.7058823529411765" stop-color="#222134"/>
      <stop offset="1.0" stop-color="#404d6a"/>
    </radialGradient>
    <radialGradient cx="0" cy="0" gradientTransform="matrix(0.0427, 0.0, 0.0, 0.0109, 184.05, -49.0)" gradientUnits="userSpaceOnUse" id="gradient34" r="819.2" spreadMethod="pad">
      <stop offset="0.0" stop-color="#383047"/>
      <stop offset="0.7058823529411765" stop-color="#222134"/>
      <stop offset="1.0" stop-color="#404d6a"/>
    </radialGradient>
    <radialGradient cx="0" cy="0" gradientTransform="matrix(0.0464, 0.0, 0.0, 0.0203, 185.05, -38.0)" gradientUnits="userSpaceOnUse" id="gradient35" r="819.2" spreadMethod="pad">
      <stop offset="0.0" stop-color="#383047"/>
      <stop offset="0.7058823529411765" stop-color="#222134"/>
      <stop offset="1.0" stop-color="#404d6a"/>
    </radialGradient>
    <radialGradient cx="0" cy="0" gradientTransform="matrix(0.0222, 0.0, 0.0, 0.0222, 181.05, -23.0)" gradientUnits="userSpaceOnUse" id="gradient36" r="819.2" spreadMethod="pad">
      <stop offset="0.0" stop-color="#3c3c3c"/>
      <stop offset="0.7058823529411765" stop-color="#332822"/>
      <stop offset="1.0" stop-color="#404d6a"/>
    </radialGradient>
    <radialGradient cx="0" cy="0" gradientTransform="matrix(0.0732, 0.0, 0.0, 0.0732, 204.05, -40.0)" gradientUnits="userSpaceOnUse" id="gradient37" r="819.2" spreadMethod="pad">
      <stop offset="0.0" stop-color="#3c3c3c"/>
      <stop offset="0.7058823529411765" stop-color="#332822"/>
      <stop offset="1.0" stop-color="#404d6a"/>
    </radialGradient>
    <radialGradient cx="0" cy="0" gradientTransform="matrix(0.11, 0.0, 0.0, 0.11, 248.05, -68.05)" gradientUnits="userSpaceOnUse" id="gradient38" r="819.2" spreadMethod="pad">
      <stop offset="0.0" stop-color="#3c3c3c"/>
      <stop offset="0.7058823529411765" stop-color="#332822"/>
      <stop offset="1.0" stop-color="#404d6a"/>
    </radialGradient>
    <radialGradient cx="0" cy="0" fx="22.400000000000002" fy="0" gradientTransform="matrix(0.0084, -0.0413, 0.0261, 0.0053, 210.05, -20.0)" gradientUnits="userSpaceOnUse" id="gradient39" r="819.2" spreadMethod="pad">
      <stop offset="0.0" stop-color="#4b2c2c"/>
      <stop offset="0.7058823529411765" stop-color="#222134"/>
      <stop offset="1.0" stop-color="#404d6a"/>
    </radialGradient>
    <radialGradient cx="0" cy="0" gradientTransform="matrix(0.0155, 0.0646, -0.1297, 0.0312, -360.1, 23.0)" gradientUnits="userSpaceOnUse" id="gradient40" r="819.2" spreadMethod="pad">
      <stop offset="0.0" stop-color="#3c3c3c"/>
      <stop offset="0.788235294117647" stop-color="#332822"/>
      <stop offset="1.0" stop-color="#344865"/>
    </radialGradient>
    <radialGradient cx="0" cy="0" gradientTransform="matrix(0.2135, 0.0, 0.0, 0.1366, -48.0, -20.0)" gradientUnits="userSpaceOnUse" id="gradient41" r="819.2" spreadMethod="pad">
      <stop offset="0.0" stop-color="#1e1e1e" stop-opacity="0.5019608"/>
      <stop offset="1.0" stop-color="#000000" stop-opacity="0.0"/>
    </radialGradient>
    <radialGradient cx="0" cy="0" gradientTransform="matrix(0.0717, 0.0, 0.0, 0.0425, -48.9, -6.75)" gradientUnits="userSpaceOnUse" id="gradient42" r="819.2" spreadMethod="pad">
      <stop offset="0.0" stop-color="#ffcc00" stop-opacity="0.34117648"/>
      <stop offset="1.0" stop-color="#d85905" stop-opacity="0.0"/>
    </radialGradient>
    <linearGradient gradientTransform="matrix(0.0, -0.0069, 0.0385, 0.0, -49.0, -13.25)" gradientUnits="userSpaceOnUse" id="gradient43" spreadMethod="pad" x1="-819.2" x2="819.2">
      <stop offset="0.0" stop-color="#000000" stop-opacity="0.2"/>
      <stop offset="1.0" stop-color="#32232d" stop-opacity="0.73333335"/>
    </linearGradient>
    <linearGradient gradientTransform="matrix(0.0, 0.0065, 0.0385, 0.0, -49.0, -0.3)" gradientUnits="userSpaceOnUse" id="gradient44" spreadMethod="pad" x1="-819.2" x2="819.2">
      <stop offset="0.0" stop-color="#000000" stop-opacity="0.0627451"/>
      <stop offset="1.0" stop-color="#46313e" stop-opacity="0.28235295"/>
    </linearGradient>
  </defs>
</svg>
