<?xml version="1.0" encoding="UTF-8" standalone="no"?>
<svg xmlns:ffdec="https://www.free-decompiler.com/flash" xmlns:xlink="http://www.w3.org/1999/xlink" ffdec:objectType="shape" height="180.15px" width="354.2px" xmlns="http://www.w3.org/2000/svg">
  <g transform="matrix(1.0, 0.0, 0.0, 1.0, 339.75, 34.4)">
    <path d="M-324.85 -4.1 Q-326.7 -4.6 -327.7 -3.5 -328.75 -2.35 -329.0 0.4 L-326.05 8.05 -325.5 7.9 -319.75 17.85 -325.5 7.9 -326.05 8.05 -329.0 0.4 Q-328.75 -2.35 -327.7 -3.5 -326.7 -4.6 -324.85 -4.1 L-322.1 -2.65 -321.3 -2.2 -320.95 -1.75 Q-319.0 0.7 -318.25 3.15 -317.85 4.45 -317.8 5.8 L-318.65 6.0 Q-316.2 8.7 -316.5 11.35 -312.2 9.5 -305.9 9.6 L-305.7 11.9 -305.5 14.6 -305.7 11.9 -305.0 9.6 -304.25 9.85 -303.4 10.45 -302.05 11.4 -300.15 12.75 -302.45 15.3 -305.5 14.6 -313.5 16.4 -319.75 17.85 -318.5 18.6 -303.05 24.55 -299.0 26.1 -291.5 37.1 -291.95 37.65 -288.15 43.35 Q-288.55 46.95 -289.8 46.35 L-293.25 39.25 -293.75 39.85 -300.0 33.1 -320.0 32.1 Q-329.55 33.1 -328.65 24.6 L-332.1 28.95 -334.0 22.6 -333.75 22.35 Q-333.7 16.25 -337.35 10.15 -337.55 -2.6 -333.75 -5.4 L-328.75 -6.5 -328.75 -6.65 -328.1 -6.35 -324.55 -4.9 -324.85 -4.1 M-325.5 7.9 L-318.65 6.0 -325.5 7.9 M-319.0 -19.15 L-301.5 -9.8 Q-321.8 -10.3 -339.75 -14.75 L-319.0 -19.15" fill="url(#gradient0)" fill-rule="evenodd" stroke="none"/>
    <path d="M-324.85 -4.1 L-324.55 -4.9 -328.1 -6.35 -327.5 -8.25 -319.75 -4.15 -320.25 -3.15 -319.0 -2.65 -317.75 2.85 -318.25 3.15 -317.75 2.85 -304.75 8.75 -304.75 8.8 -305.0 9.6 -305.7 11.9 -305.9 9.6 Q-312.2 9.5 -316.5 11.35 -316.2 8.7 -318.65 6.0 L-317.8 5.8 Q-317.85 4.45 -318.25 3.15 -319.0 0.7 -320.95 -1.75 L-321.3 -2.2 -322.1 -2.65 -324.85 -4.1 M-303.05 24.55 L-318.5 18.6 -319.75 17.85 -313.5 16.4 -305.8 18.05 -303.05 24.55 M-324.55 -4.9 L-320.25 -3.15 -324.55 -4.9" fill="url(#gradient1)" fill-rule="evenodd" stroke="none"/>
    <path d="M-302.05 11.4 L-303.4 10.45 -302.5 9.1 -223.0 -34.4 -301.5 10.6 -302.05 11.4" fill="url(#gradient2)" fill-rule="evenodd" stroke="none"/>
    <path d="M-319.75 17.85 L-325.5 7.9 -326.05 8.05 -329.0 0.4 Q-328.75 -2.35 -327.7 -3.5 -326.7 -4.6 -324.85 -4.1 L-322.1 -2.65 -321.3 -2.2 -320.95 -1.75 Q-319.0 0.7 -318.25 3.15 -317.85 4.45 -317.8 5.8 L-318.65 6.0 -325.5 7.9 M-319.75 17.85 L-313.5 16.4 -305.5 14.6 -305.7 11.9 -305.9 9.6 Q-312.2 9.5 -316.5 11.35 -316.2 8.7 -318.65 6.0" fill="none" stroke="url(#gradient3)" stroke-linecap="round" stroke-linejoin="round" stroke-width="0.05"/>
    <path d="M-324.55 -4.9 L-328.1 -6.35 -327.5 -8.25 -319.75 -4.15 -320.25 -3.15 -324.55 -4.9 M-328.75 -6.5 L-333.75 -5.4 Q-337.55 -2.6 -337.35 10.15 -333.7 16.25 -333.75 22.35 M-319.0 -19.15 L-339.75 -14.75 Q-321.8 -10.3 -301.5 -9.8 L-319.0 -19.15 M-318.25 3.15 L-317.75 2.85 -319.0 -2.65 -320.25 -3.15 M-303.4 10.45 L-302.05 11.4 -300.15 12.75 -302.45 15.3 -305.5 14.6 M-303.4 10.45 L-304.25 9.85 M-305.0 9.6 L-305.7 11.9 M-317.75 2.85 L-304.75 8.75 -304.75 8.8 -305.0 9.6" fill="none" stroke="url(#gradient4)" stroke-linecap="round" stroke-linejoin="round" stroke-width="0.05"/>
    <path d="M-222.5 -34.4 Q-232.9 14.3 -207.0 30.6" fill="none" stroke="url(#gradient5)" stroke-linecap="round" stroke-linejoin="round" stroke-width="0.05"/>
    <path d="M-301.5 10.6 L-223.0 -34.4" fill="none" stroke="url(#gradient6)" stroke-linecap="round" stroke-linejoin="round" stroke-width="0.05"/>
    <path d="M-223.0 -34.4 L-302.5 9.1" fill="none" stroke="url(#gradient7)" stroke-linecap="round" stroke-linejoin="round" stroke-width="0.05"/>
    <path d="M-20.25 88.1 L-20.25 88.05 -19.7 87.95 -20.25 88.1" fill="#00ff33" fill-rule="evenodd" stroke="none"/>
    <path d="M0.25 119.35 L5.4 119.65 5.2 119.8 -32.9 145.35 -33.05 145.75 -41.1 144.15 -4.1 119.1 -2.45 119.2 -1.85 119.25 -1.45 119.25 0.2 119.35 0.25 119.35" fill="url(#gradient8)" fill-rule="evenodd" stroke="none"/>
    <path d="M-22.25 66.8 L12.85 57.75 14.45 74.75 2.7 79.95 0.95 81.0 -2.75 83.2 -3.1 83.4 -4.65 84.35 -17.7 92.1 -18.25 92.2 -22.65 66.9 -22.25 66.8" fill="url(#gradient9)" fill-rule="evenodd" stroke="none"/>
    <path d="M0.95 81.0 L2.75 117.05 0.25 119.35 0.2 119.35 -1.45 119.25 -1.85 119.25 -2.45 119.2 -3.05 119.15 -4.65 84.35 -3.1 83.4 -2.75 83.2 0.95 81.0" fill="url(#gradient10)" fill-rule="evenodd" stroke="none"/>
    <path d="M-22.25 66.8 L12.85 57.75 14.45 74.75 2.7 79.95 0.95 81.0 2.75 117.05 0.25 119.35 0.2 119.35 M-3.05 119.15 L-4.65 84.35 -17.7 92.1 M-18.25 92.2 L-22.65 66.9 M-20.25 88.05 L-20.25 88.1 M-3.1 83.4 L-4.65 84.35 M0.95 81.0 L-2.75 83.2" fill="none" stroke="#000000" stroke-linecap="round" stroke-linejoin="round" stroke-width="0.05"/>
  </g>
  <defs>
    <linearGradient gradientTransform="matrix(0.0051, 0.0416, -0.0271, 0.0033, -314.2, 14.9)" gradientUnits="userSpaceOnUse" id="gradient0" spreadMethod="pad" x1="-819.2" x2="819.2">
      <stop offset="0.0" stop-color="#293acd" stop-opacity="0.6901961"/>
      <stop offset="1.0" stop-color="#2d47b0" stop-opacity="0.0"/>
    </linearGradient>
    <linearGradient gradientTransform="matrix(0.0035, 0.0218, -0.0125, 0.002, -315.3, 8.15)" gradientUnits="userSpaceOnUse" id="gradient1" spreadMethod="pad" x1="-819.2" x2="819.2">
      <stop offset="0.0" stop-color="#1a2377" stop-opacity="0.6901961"/>
      <stop offset="1.0" stop-color="#242953" stop-opacity="0.2"/>
    </linearGradient>
    <linearGradient gradientTransform="matrix(0.0491, 0.0, 0.0, 0.028, -263.2, -11.5)" gradientUnits="userSpaceOnUse" id="gradient2" spreadMethod="pad" x1="-819.2" x2="819.2">
      <stop offset="0.0" stop-color="#1a2377" stop-opacity="0.6901961"/>
      <stop offset="1.0" stop-color="#242953" stop-opacity="0.2"/>
    </linearGradient>
    <linearGradient gradientTransform="matrix(0.0315, 0.0, 0.0, 0.04, -313.95, 13.65)" gradientUnits="userSpaceOnUse" id="gradient3" spreadMethod="pad" x1="-819.2" x2="819.2">
      <stop offset="0.0" stop-color="#6f9fe6" stop-opacity="0.6901961"/>
      <stop offset="1.0" stop-color="#009bdd" stop-opacity="0.36078432"/>
    </linearGradient>
    <linearGradient gradientTransform="matrix(0.0315, 0.0, 0.0, 0.04, -313.95, 13.65)" gradientUnits="userSpaceOnUse" id="gradient4" spreadMethod="pad" x1="-819.2" x2="819.2">
      <stop offset="0.0" stop-color="#6f9fe6" stop-opacity="0.6901961"/>
      <stop offset="1.0" stop-color="#009bdd" stop-opacity="0.36078432"/>
    </linearGradient>
    <linearGradient gradientTransform="matrix(0.0272, 0.0, 0.0, 0.0467, -200.25, 3.85)" gradientUnits="userSpaceOnUse" id="gradient5" spreadMethod="pad" x1="-819.2" x2="819.2">
      <stop offset="0.0" stop-color="#6f9fe6" stop-opacity="0.6901961"/>
      <stop offset="1.0" stop-color="#009bdd" stop-opacity="0.36078432"/>
    </linearGradient>
    <linearGradient gradientTransform="matrix(0.0479, 0.0, 0.0, 0.0275, -262.25, -11.9)" gradientUnits="userSpaceOnUse" id="gradient6" spreadMethod="pad" x1="-819.2" x2="819.2">
      <stop offset="0.0" stop-color="#6f9fe6" stop-opacity="0.6901961"/>
      <stop offset="1.0" stop-color="#009bdd" stop-opacity="0.36078432"/>
    </linearGradient>
    <linearGradient gradientTransform="matrix(0.0485, 0.0, 0.0, 0.0266, -262.75, -12.65)" gradientUnits="userSpaceOnUse" id="gradient7" spreadMethod="pad" x1="-819.2" x2="819.2">
      <stop offset="0.0" stop-color="#6f9fe6" stop-opacity="0.6901961"/>
      <stop offset="1.0" stop-color="#009bdd" stop-opacity="0.36078432"/>
    </linearGradient>
    <linearGradient gradientTransform="matrix(-0.0284, 0.0, 0.0, 0.0163, -17.85, 132.4)" gradientUnits="userSpaceOnUse" id="gradient8" spreadMethod="pad" x1="-819.2" x2="819.2">
      <stop offset="0.0" stop-color="#000000" stop-opacity="0.2509804"/>
      <stop offset="1.0" stop-color="#000000" stop-opacity="0.0"/>
    </linearGradient>
    <radialGradient cx="0" cy="0" gradientTransform="matrix(0.0357, 0.0, 0.0, 0.0357, -1.55, 68.2)" gradientUnits="userSpaceOnUse" id="gradient9" r="819.2" spreadMethod="pad">
      <stop offset="0.0" stop-color="#7a6d52"/>
      <stop offset="1.0" stop-color="#3a3837"/>
    </radialGradient>
    <radialGradient cx="0" cy="0" gradientTransform="matrix(0.0235, 0.0, 0.0, 0.0235, 1.0, 103.85)" gradientUnits="userSpaceOnUse" id="gradient10" r="819.2" spreadMethod="pad">
      <stop offset="0.0" stop-color="#7a6d52"/>
      <stop offset="0.803921568627451" stop-color="#3a3837"/>
      <stop offset="1.0" stop-color="#1e1e1e"/>
    </radialGradient>
  </defs>
</svg>
