<?xml version="1.0" encoding="UTF-8" standalone="no"?>
<svg xmlns:ffdec="https://www.free-decompiler.com/flash" xmlns:xlink="http://www.w3.org/1999/xlink" ffdec:objectType="shape" height="161.85px" width="28.35px" xmlns="http://www.w3.org/2000/svg">
  <g transform="matrix(1.0, 0.0, 0.0, 1.0, 17.55, 54.85)">
    <path d="M6.45 64.05 L6.5 64.15 Q9.8 64.25 10.6 64.75 L10.6 65.55 10.5 66.9 Q11.25 67.15 10.0 67.15 L6.55 67.05 Q5.25 67.05 7.8 66.3 10.7 65.5 9.1 65.25 L6.55 65.15 Q6.35 66.0 5.25 66.65 3.1 68.0 2.35 68.75 0.0 68.55 -0.25 68.15 1.5 66.05 4.0 65.0 L3.8 64.4 Q3.75 64.1 4.5 64.1 L6.4 64.15 6.45 64.05 M4.0 69.65 Q4.0 69.2 6.3 67.8 L6.55 68.15 6.55 70.5 6.05 71.0 4.5 70.6 4.15 70.45 Q4.0 70.4 4.0 69.65 M4.0 70.85 L4.0 74.3 3.35 74.65 1.0 74.65 1.2 73.85 -0.3 74.95 -4.75 76.85 -5.1 76.85 -5.05 77.55 Q-5.05 78.9 -7.25 79.85 L-11.75 81.8 -12.0 81.4 Q-7.95 77.0 -5.3 77.0 L-5.15 76.85 -6.1 76.75 Q-5.6 75.9 -2.6 74.0 L-1.75 73.5 -2.7 72.7 Q-3.3 71.8 -3.0 71.0 L-3.3 70.75 Q-4.75 72.2 -5.8 74.9 L-6.25 75.3 -6.65 74.9 -8.65 76.45 Q-10.3 77.7 -10.8 77.85 L-12.25 77.75 Q-12.25 76.65 -12.75 75.2 L-12.85 75.3 -13.25 79.5 -13.35 79.9 -14.75 79.75 Q-14.3 78.3 -14.0 75.75 L-14.85 75.8 -16.25 75.75 Q-16.25 78.65 -16.4 79.9 -17.25 79.4 -17.3 75.5 L-17.55 75.3 -17.3 75.15 -17.15 70.1 -16.65 70.1 Q-16.3 71.5 -16.25 74.55 -14.95 73.85 -13.8 73.6 L-13.6 69.55 -13.1 69.55 -13.0 69.85 -12.5 69.85 -12.5 69.9 Q-11.95 69.3 -11.15 69.25 L-9.65 69.75 Q-11.1 70.1 -11.95 71.55 -10.8 75.15 -10.65 77.05 -10.25 76.05 -9.05 75.15 -8.0 74.35 -7.1 74.2 -8.1 72.2 -8.1 67.75 L-8.0 66.5 -7.5 66.5 Q-6.6 69.25 -6.6 72.65 L-6.5 72.75 -2.5 68.5 Q-5.1 67.4 -4.05 67.15 L-3.9 66.75 Q-1.55 67.0 -1.15 68.1 L-0.5 69.85 -0.5 72.75 0.5 72.25 1.0 72.05 Q1.5 71.95 1.5 72.7 2.05 71.1 3.0 70.75 L4.0 70.85 M6.15 75.5 L5.9 75.8 Q5.4 75.75 4.0 74.55 L4.5 73.75 Q5.4 74.3 6.05 75.5 L6.15 75.5 M0.9 94.1 L1.0 94.85 Q1.0 95.5 -0.6 97.75 L-2.25 97.25 Q-0.75 94.9 0.75 94.25 L0.9 94.1 M1.5 104.85 Q1.5 105.4 0.55 107.0 L0.25 107.0 Q0.0 106.6 0.0 105.85 0.0 104.1 1.25 104.0 L1.5 104.85 M-2.0 69.75 L-1.9 71.6 -1.6 71.75 Q-1.35 70.25 -2.0 69.55 L-2.0 69.75 M-2.6 77.8 Q-2.5 77.75 -2.5 78.55 -2.5 79.8 -2.65 79.35 -3.55 79.25 -3.8 78.85 L-2.75 78.0 -2.6 77.8" fill="#312c24" fill-rule="evenodd" stroke="none"/>
    <path d="M0.0 -54.35 L0.0 -52.85" fill="none" stroke="#000000" stroke-linecap="round" stroke-linejoin="round" stroke-width="1.0"/>
  </g>
</svg>
