<?xml version="1.0" encoding="UTF-8" standalone="no"?>
<svg xmlns:ffdec="https://www.free-decompiler.com/flash" xmlns:xlink="http://www.w3.org/1999/xlink" ffdec:objectType="shape" height="23.45px" width="13.8px" xmlns="http://www.w3.org/2000/svg">
  <g transform="matrix(1.0, 0.0, 0.0, 1.0, 6.55, 16.45)">
    <path d="M7.25 -0.75 Q7.25 2.8 4.7 5.0 2.35 7.0 -0.95 7.0 -3.9 7.0 -6.55 5.95 L-6.55 2.35 Q-3.75 3.45 -1.3 3.45 0.6 3.45 2.0 2.35 3.6 1.2 3.6 -0.75 3.6 -2.35 2.3 -4.05 1.1 -4.65 -1.15 -4.65 L-5.95 -4.65 -5.95 -16.45 6.15 -16.45 6.15 -13.1 -2.3 -13.1 -2.3 -8.15 -1.05 -8.15 Q2.65 -8.15 5.0 -5.95 7.25 -3.85 7.25 -0.75" fill="url(#gradient0)" fill-rule="evenodd" stroke="none"/>
  </g>
  <defs>
    <linearGradient gradientTransform="matrix(0.0, 0.0147, -0.134, 0.0, 15.95, -5.1)" gradientUnits="userSpaceOnUse" id="gradient0" spreadMethod="pad" x1="-819.2" x2="819.2">
      <stop offset="0.0" stop-color="#ffffff" stop-opacity="0.0"/>
      <stop offset="1.0" stop-color="#ffffff" stop-opacity="0.49019608"/>
    </linearGradient>
  </defs>
</svg>
