<?xml version="1.0" encoding="UTF-8" standalone="no"?>
<svg xmlns:ffdec="https://www.free-decompiler.com/flash" xmlns:xlink="http://www.w3.org/1999/xlink" ffdec:objectType="shape" height="481.75px" width="903.05px" xmlns="http://www.w3.org/2000/svg">
  <g transform="matrix(1.0, 0.0, 0.0, 1.0, 433.5, 203.25)">
    <path d="M-31.4 -83.15 Q-13.25 -80.05 2.8 -88.65 18.8 -97.2 30.0 -102.5 L37.85 -102.2 48.05 -101.2 53.05 -95.65 Q57.95 -90.1 89.3 -86.2 120.65 -82.3 136.7 -76.5 L113.35 -68.05 Q92.65 -60.5 88.1 -60.5 54.7 -59.35 44.05 -55.25 42.15 -56.45 37.5 -57.45 L23.1 -60.35 16.6 -61.8 16.45 -61.85 Q7.95 -63.9 -0.75 -66.5 -5.4 -67.85 -20.25 -76.65 L-31.4 -83.15 M17.25 -65.95 L17.5 -65.8 17.5 -65.85 17.25 -65.95" fill="url(#gradient0)" fill-rule="evenodd" stroke="none"/>
    <path d="M196.85 28.95 Q155.0 30.1 104.0 30.1 -107.2 30.1 -221.25 24.4 -325.5 19.15 -366.95 8.15 -385.6 3.2 -394.3 -3.55 -401.75 -9.3 -403.0 -17.35 -403.85 -22.75 -401.85 -33.25 -399.5 -45.4 -399.5 -50.9 -399.5 -74.4 -397.1 -90.05 -393.35 -111.25 -390.1 -135.0 L-397.5 -134.35 -390.6 -137.15 -393.0 -137.25 -389.6 -138.5 -389.5 -139.35 -387.5 -139.75 -387.55 -139.4 Q-384.2 -140.95 -381.8 -142.8 -380.05 -144.15 -376.5 -148.05 -373.95 -150.85 -371.2 -151.95 -367.35 -153.5 -360.0 -153.45 L-356.7 -153.4 -356.75 -152.85 -345.55 -153.0 Q-311.35 -144.85 -283.65 -134.65 L-270.45 -136.25 -254.0 -138.5 -220.0 -131.85 Q-209.6 -131.9 -200.05 -126.75 -197.55 -125.4 -192.7 -122.0 L-168.55 -111.6 Q-147.9 -102.7 -138.4 -99.2 L-138.45 -99.1 Q-135.75 -99.25 -128.5 -100.7 -120.5 -102.4 -118.0 -102.4 -106.9 -102.4 -73.7 -94.2 -61.05 -91.1 -50.9 -88.0 -42.7 -87.35 -38.55 -84.65 L-35.0 -85.0 -32.3 -83.65 -32.2 -83.6 -31.4 -83.15 -20.25 -76.65 Q-5.4 -67.85 -0.75 -66.5 7.95 -63.9 16.45 -61.85 L16.6 -61.8 23.1 -60.35 37.5 -57.45 Q42.15 -56.45 44.05 -55.25 L44.6 -54.9 Q46.05 -53.7 46.4 -51.25 66.35 -40.75 96.95 -26.4 L149.8 -1.65 Q178.7 12.25 196.8 23.0 L196.85 28.95 M-35.5 -78.0 L-32.15 -78.2 -34.45 -79.65 -35.5 -78.0" fill="url(#gradient1)" fill-rule="evenodd" stroke="none"/>
    <path d="M136.7 -76.5 L144.0 -79.0 147.85 -79.0 148.8 -79.4 Q184.0 -94.2 208.0 -109.45 L215.75 -114.0 215.0 -114.0 215.0 -114.45 220.85 -115.75 224.1 -116.6 227.0 -116.3 239.75 -115.25 Q248.4 -115.3 256.95 -122.15 262.1 -126.3 273.55 -137.25 285.25 -147.35 298.3 -152.4 310.5 -157.15 325.75 -158.6 354.8 -165.95 378.75 -165.95 387.5 -165.95 389.5 -164.7 L389.5 -162.2 388.1 -161.9 388.0 -159.05 Q388.0 -156.55 391.45 -146.45 L399.0 -123.5 Q410.0 -87.1 410.0 -56.3 410.0 -53.65 410.95 -38.9 411.65 -28.8 410.55 -22.75 407.5 -5.35 386.0 4.7 359.35 17.15 296.95 23.3 264.95 26.4 221.6 28.1 L216.25 35.55 206.05 28.65 Q201.65 25.85 196.8 23.0 178.7 12.25 149.8 -1.65 L96.95 -26.4 Q66.35 -40.75 46.4 -51.25 46.05 -53.7 44.6 -54.9 L44.05 -55.25 Q54.7 -59.35 88.1 -60.5 92.65 -60.5 113.35 -68.05 L136.7 -76.5" fill="url(#gradient2)" fill-rule="evenodd" stroke="none"/>
    <path d="M206.05 28.65 L196.85 28.95 196.8 23.0 Q201.65 25.85 206.05 28.65 M17.25 -65.95 L17.5 -65.85 17.5 -65.8 17.25 -65.95" fill="#333333" fill-rule="evenodd" stroke="none"/>
    <path d="M-35.5 -78.0 L-34.45 -79.65 -32.15 -78.2 -35.5 -78.0" fill="#000000" fill-rule="evenodd" stroke="none"/>
    <path d="M221.6 28.1 Q235.9 38.35 237.0 47.15 236.0 48.35 232.5 48.8 225.7 42.3 216.25 35.55 L221.6 28.1" fill="#515151" fill-rule="evenodd" stroke="none"/>
    <path d="M112.15 -16.75 Q121.85 -14.75 127.5 -14.75 135.75 -14.75 159.45 -21.0 L183.0 -27.65 Q195.4 -30.65 205.4 -32.3 L205.65 -32.35 222.35 -34.3 Q231.7 -34.85 244.35 -33.05 257.65 -31.2 267.4 -31.4 L267.45 -31.4 276.35 -31.95 Q290.6 -33.2 310.0 -37.2 329.15 -41.15 379.4 -56.6 L398.2 -62.3 402.45 -63.5 Q424.9 -70.0 430.0 -70.0 438.65 -70.0 444.2 -67.45 L446.0 -67.5 Q457.9 -67.5 460.15 -37.95 461.25 -23.15 460.0 -8.1 460.0 11.8 449.35 30.15 L452.5 28.0 453.0 27.4 Q453.5 27.3 453.5 29.9 453.5 31.15 443.6 38.9 L441.75 41.35 442.75 39.55 437.3 43.65 Q443.8 64.15 444.45 100.65 444.75 118.45 443.7 148.05 442.5 180.65 442.5 189.25 L442.65 208.5 Q442.6 215.1 441.7 219.55 440.8 223.8 437.65 232.9 L428.5 259.0 421.25 259.0 Q422.2 260.1 424.5 261.5 L414.6 265.2 Q406.05 267.75 391.4 269.5 349.85 274.5 252.0 274.5 L151.0 272.5 142.0 270.5 134.45 268.45 Q129.4 267.0 126.5 267.0 -50.45 267.0 -65.8 272.75 -67.15 273.25 -69.05 274.85 -70.5 276.1 -73.85 276.7 L-127.0 278.5 Q-332.55 278.5 -350.7 250.25 -389.15 239.7 -407.6 221.45 -418.05 211.2 -421.95 198.5 -424.5 190.35 -424.5 179.5 -424.5 155.9 -420.25 122.65 -418.75 111.0 -417.05 102.1 -426.15 88.0 -430.1 71.15 -433.5 56.75 -433.5 30.1 -433.5 0.25 -427.95 -17.65 -420.95 -40.05 -401.25 -64.0 L-403.0 -66.25 -400.5 -64.9 -398.0 -67.9 -395.55 -67.9 Q-395.0 -67.9 -395.0 -65.4 -395.0 -64.2 -396.35 -61.5 L-394.55 -59.75 Q-388.3 -53.45 -382.7 -50.15 L-382.15 -49.85 -381.65 -49.5 -377.0 -47.2 Q-355.65 -37.6 -313.25 -37.6 -302.45 -37.6 -295.4 -38.85 -291.5 -39.5 -285.0 -41.55 -272.35 -45.5 -253.0 -45.5 -221.9 -45.5 -173.1 -34.9 L-170.7 -34.35 -164.35 -32.9 -139.85 -27.65 Q-123.5 -24.35 -115.5 -24.3 L25.0 -27.65 Q59.9 -27.65 91.7 -21.2 L112.15 -16.75 M-152.0 268.8 L-152.0 268.0 -168.0 269.0 -152.0 268.8 M-409.5 113.8 L-410.3 118.5 -402.45 119.85 -409.25 112.6 -409.5 113.8" fill="url(#gradient3)" fill-rule="evenodd" stroke="none"/>
    <path d="M119.75 -14.0 L119.5 -15.5 Q120.25 -16.25 126.0 -17.0 L136.25 -17.0 136.9 -16.75 Q137.5 -16.5 137.5 -15.0 137.5 -13.4 137.3 -12.75 141.55 -3.25 147.3 5.65 151.3 11.8 158.65 21.85 164.6 30.45 167.15 37.0 170.5 45.75 170.5 56.5 170.5 71.85 160.6 86.8 154.95 95.25 138.75 112.2 123.15 128.45 116.9 138.5 107.0 154.45 107.0 171.6 107.0 183.35 110.05 191.75 113.0 199.8 122.25 214.0 L121.95 215.4 Q121.6 216.25 120.0 216.25 116.45 216.25 113.5 213.85 L111.0 213.75 Q108.1 215.45 102.1 217.15 90.15 220.5 74.0 220.5 L53.1 219.65 43.6 217.55 44.0 218.25 43.0 219.75 42.1 219.6 Q40.05 225.7 38.0 229.5 36.5 227.6 35.4 224.95 L36.0 229.75 36.25 230.5 Q28.75 228.0 28.75 203.5 28.75 188.55 31.85 172.8 33.45 164.7 35.55 159.35 37.55 143.6 53.0 129.7 64.25 119.6 91.3 104.6 120.15 88.6 129.45 81.2 146.75 67.35 146.75 52.5 146.75 31.05 133.5 10.15 L124.4 -3.15 Q120.25 -9.25 120.25 -12.0 120.25 -12.9 120.5 -13.6 L119.75 -14.0" fill="url(#gradient4)" fill-rule="evenodd" stroke="none"/>
    <path d="M30.05 4.6 Q32.75 6.6 32.75 7.75 32.75 8.4 30.65 11.4 28.5 14.4 28.5 16.75 28.5 20.2 36.5 24.3 46.15 29.3 47.75 31.25 31.75 45.35 -2.05 50.7 -35.65 56.0 -107.85 56.0 -120.25 56.0 -131.15 52.05 -141.1 48.4 -141.1 45.25 -141.1 40.7 -134.4 36.75 -130.55 34.55 -119.6 30.3 -109.05 26.25 -104.8 23.6 -98.1 19.35 -98.1 14.35 -98.1 10.9 -100.85 8.0 -84.45 5.3 -66.75 0.8 L-44.85 -5.0 Q-2.45 -6.95 19.0 -0.45 26.15 1.75 30.05 4.6" fill="url(#gradient5)" fill-rule="evenodd" stroke="none"/>
    <path d="M253.8 -35.85 L236.0 -34.9 228.9 -38.55 213.8 -46.35 Q227.25 -58.5 251.95 -66.9 282.3 -56.7 308.95 -64.9 L309.3 -64.05 Q346.55 -89.95 388.95 -97.9 L408.95 -69.9 402.15 42.6 396.3 40.85 370.75 33.35 352.95 28.1 344.3 21.25 329.7 9.7 328.95 9.1 301.0 16.1 299.7 14.9 272.45 -10.65 272.65 -11.95 301.0 -33.9 276.45 -36.5 273.0 -36.9 264.55 -36.4 253.8 -35.85" fill="url(#gradient6)" fill-rule="evenodd" stroke="none"/>
    <path d="M276.45 -36.5 L301.0 -33.9 272.65 -11.95 272.45 -10.65 270.5 -11.1 276.45 -36.5 M264.85 44.95 L263.65 53.8 Q263.05 48.9 257.35 45.25 255.35 43.95 252.7 42.85 250.55 41.9 248.0 41.1 L252.85 41.85 252.7 42.85 257.65 44.0 264.85 44.95" fill="url(#gradient7)" fill-rule="evenodd" stroke="none"/>
    <path d="M272.45 -10.65 L299.7 14.9 287.7 136.4 Q262.0 118.45 235.5 91.2 L263.65 53.8 264.85 44.95 272.45 -10.65 M344.3 21.25 L352.95 28.1 370.75 33.35 348.5 166.1 Q331.0 161.35 313.1 151.95 L344.3 21.25 M396.3 40.85 L402.15 42.6 394.3 170.55 Q381.8 171.55 369.15 170.1 L396.3 40.85" fill="url(#gradient8)" fill-rule="evenodd" stroke="none"/>
    <path d="M228.9 -38.55 L236.0 -34.9 253.8 -35.85 236.8 42.0 224.2 43.0 228.9 -38.55 M264.55 -36.4 L273.0 -36.9 276.45 -36.5 270.5 -11.1 257.65 44.0 252.7 42.85 252.85 41.85 264.55 -36.4" fill="url(#gradient9)" fill-rule="evenodd" stroke="none"/>
    <path d="M299.7 14.9 L301.0 16.1 328.95 9.1 329.7 9.7 300.55 144.8 Q294.15 140.9 287.7 136.4 L299.7 14.9 M370.75 33.35 L396.3 40.85 369.15 170.1 Q358.9 168.95 348.5 166.1 L370.75 33.35" fill="url(#gradient10)" fill-rule="evenodd" stroke="none"/>
    <path d="M329.7 9.7 L344.3 21.25 313.1 151.95 Q306.85 148.65 300.55 144.8 L329.7 9.7" fill="url(#gradient11)" fill-rule="evenodd" stroke="none"/>
    <path d="M228.9 -38.55 L224.2 43.0 223.0 43.1 Q198.6 40.1 183.75 16.3 216.2 -11.9 212.95 -45.9 L213.8 -46.35 228.9 -38.55 M236.8 42.0 L253.8 -35.85 264.55 -36.4 252.85 41.85 248.0 41.1 236.8 42.0 M270.5 -11.1 L272.45 -10.65 264.85 44.95 257.65 44.0 270.5 -11.1" fill="url(#gradient12)" fill-rule="evenodd" stroke="none"/>
    <path d="M-395.6 29.9 L-402.45 -82.6 -382.45 -110.6 Q-340.05 -102.65 -302.8 -76.75 L-302.45 -77.6 Q-275.8 -69.4 -245.45 -79.6 -220.75 -71.2 -207.25 -59.05 L-222.4 -51.25 -229.5 -47.6 -247.3 -48.55 -258.0 -49.1 -266.5 -49.6 -269.95 -49.2 -294.5 -46.6 -266.1 -24.65 -265.95 -23.35 -293.2 2.2 -294.5 3.4 -322.45 -3.6 -323.15 -3.0 -337.8 8.55 -346.45 15.4 -364.2 20.65 -389.75 28.15 -395.6 29.9" fill="url(#gradient13)" fill-rule="evenodd" stroke="none"/>
    <path d="M-281.2 123.7 Q-287.65 128.2 -294.0 132.1 L-323.15 -3.0 -322.45 -3.6 -294.5 3.4 -293.2 2.2 -281.2 123.7 M-341.95 153.4 Q-352.4 156.25 -362.65 157.4 L-389.75 28.15 -364.2 20.65 -341.95 153.4" fill="url(#gradient14)" fill-rule="evenodd" stroke="none"/>
    <path d="M-207.25 -59.05 L-206.45 -58.6 Q-209.7 -24.6 -177.25 3.6 -192.1 27.4 -216.5 30.4 L-217.65 30.3 -222.4 -51.25 -207.25 -59.05 M-230.25 29.3 L-241.5 28.4 -246.3 29.15 -258.0 -49.1 -247.3 -48.55 -230.25 29.3 M-265.95 -23.35 L-264.0 -23.8 -251.15 31.3 -258.35 32.25 -265.95 -23.35" fill="url(#gradient15)" fill-rule="evenodd" stroke="none"/>
    <path d="M-217.65 30.3 L-230.25 29.3 -247.3 -48.55 -229.5 -47.6 -222.4 -51.25 -217.65 30.3 M-269.95 -49.2 L-266.5 -49.6 -258.0 -49.1 -246.3 29.15 -246.15 30.15 -251.15 31.3 -264.0 -23.8 -269.95 -49.2" fill="url(#gradient16)" fill-rule="evenodd" stroke="none"/>
    <path d="M-241.5 28.4 L-246.15 30.15 Q-248.85 31.25 -250.85 32.55 -256.55 36.2 -257.15 41.1 L-258.35 32.25 -251.15 31.3 -246.15 30.15 -246.3 29.15 -241.5 28.4 M-265.95 -23.35 L-266.1 -24.65 -294.5 -46.6 -269.95 -49.2 -264.0 -23.8 -265.95 -23.35" fill="url(#gradient17)" fill-rule="evenodd" stroke="none"/>
    <path d="M-257.15 41.1 L-229.0 78.5 Q-255.5 105.75 -281.2 123.7 L-293.2 2.2 -265.95 -23.35 -258.35 32.25 -257.15 41.1 M-306.6 139.25 Q-324.5 148.65 -341.95 153.4 L-364.2 20.65 -346.45 15.4 -337.8 8.55 -306.6 139.25 M-362.65 157.4 Q-375.3 158.85 -387.75 157.85 L-395.6 29.9 -389.75 28.15 -362.65 157.4" fill="url(#gradient18)" fill-rule="evenodd" stroke="none"/>
    <path d="M-294.0 132.1 Q-300.35 135.95 -306.6 139.25 L-337.8 8.55 -323.15 -3.0 -294.0 132.1" fill="url(#gradient19)" fill-rule="evenodd" stroke="none"/>
    <path d="M30.65 11.4 Q28.5 14.4 28.5 16.75 28.5 20.2 36.5 24.3 46.15 29.3 47.75 31.25 31.75 45.35 -2.05 50.7 -35.65 56.0 -107.85 56.0 -120.25 56.0 -131.15 52.05 -141.1 48.4 -141.1 45.25 -141.1 40.7 -134.4 36.75 -130.55 34.55 -119.6 30.3 -109.05 26.25 -104.8 23.6 -98.1 19.35 -98.1 14.35 -98.1 10.9 -100.85 8.0 -84.45 5.3 -66.75 0.8 L-44.85 -5.0 Q-2.45 -6.95 19.0 -0.45 26.15 1.75 30.05 4.6 32.75 6.6 32.75 7.75 32.75 8.4 30.65 11.4" fill="url(#gradient20)" fill-rule="evenodd" stroke="none"/>
    <path d="M36.0 229.75 L36.25 230.5 35.75 230.3 36.0 229.75" fill="url(#gradient21)" fill-rule="evenodd" stroke="none"/>
    <path d="M35.75 230.3 Q28.75 227.15 28.75 203.5 28.75 188.55 31.85 172.8 33.45 164.7 35.55 159.35 37.55 143.6 53.0 129.7 64.25 119.6 91.3 104.6 120.15 88.6 129.45 81.2 146.75 67.35 146.75 52.5 146.75 31.05 133.5 10.15 L124.4 -3.15 Q120.25 -9.25 120.25 -12.0 120.25 -12.9 120.5 -13.6 L119.75 -14.0 119.5 -15.5 Q120.25 -16.25 126.0 -17.0 L136.25 -17.0 136.9 -16.75 Q137.5 -16.5 137.5 -15.0 137.5 -13.4 137.3 -12.75 141.55 -3.25 147.3 5.65 151.3 11.8 158.65 21.85 164.6 30.45 167.15 37.0 170.5 45.75 170.5 56.5 170.5 71.85 160.6 86.8 154.95 95.25 138.75 112.2 123.15 128.45 116.9 138.5 107.0 154.45 107.0 171.6 107.0 183.35 110.05 191.75 113.0 199.8 122.25 214.0 L121.95 215.4 Q121.6 216.25 120.0 216.25 116.45 216.25 113.5 213.85 L111.0 213.75 Q108.1 215.45 102.1 217.15 90.15 220.5 74.0 220.5 L53.1 219.65 43.6 217.55 44.0 218.25 43.0 219.75 42.1 219.6 Q40.05 225.7 38.0 229.5 36.5 227.6 35.4 224.95 L36.0 229.75 35.75 230.3" fill="url(#gradient22)" fill-rule="evenodd" stroke="none"/>
    <path d="M129.85 -9.1 Q133.4 -13.7 137.25 -16.25 134.45 -12.95 131.65 -8.25 L130.7 -6.65 129.75 -8.9 129.85 -9.1 M115.45 92.9 L115.7 92.75 115.5 93.0 115.45 92.9 M110.7 99.95 L111.25 99.75 Q110.8 100.1 110.3 100.55 L110.7 99.95 M25.45 2.1 Q26.8 2.3 27.25 2.75 10.7 9.3 -15.9 16.95 L-49.0 26.6 -50.85 27.25 -50.9 27.2 -51.85 27.5 -52.85 28.0 -36.85 27.0 Q-23.45 27.0 -15.0 29.25 -6.55 31.5 -3.85 31.5 L28.0 30.25 Q13.2 26.4 11.4 25.5 9.55 24.55 9.0 23.1 8.5 21.9 8.5 19.1 8.5 12.4 13.25 11.75 L11.85 13.65 Q11.0 14.75 11.0 16.25 11.0 20.25 14.5 22.1 16.65 23.25 22.15 24.1 27.8 24.95 29.75 25.85 33.25 27.45 33.25 31.0 L33.5 32.65 Q33.65 33.55 33.0 34.0 31.35 35.25 22.0 35.25 -2.05 35.25 -11.95 32.25 L-17.65 30.2 Q-20.35 29.25 -23.75 29.25 -46.55 29.25 -71.75 36.35 -67.85 38.7 -61.7 43.15 L-58.65 45.35 Q-57.0 44.7 -54.2 44.3 L-35.55 43.1 Q1.05 41.7 24.0 36.75 L26.25 37.75 Q24.2 45.25 4.55 47.65 L-22.8 49.2 -28.85 48.5 -32.15 49.4 -52.85 49.5 -51.6 50.4 -58.85 49.5 Q-62.05 49.5 -63.2 50.6 -69.4 45.75 -77.85 38.15 L-82.55 39.65 Q-90.35 42.2 -103.15 46.75 -113.05 50.0 -118.35 50.0 -124.3 50.0 -126.15 47.05 -127.1 45.55 -126.85 44.0 -126.85 37.05 -120.85 35.05 -117.1 33.8 -104.55 33.65 -89.65 33.45 -80.3 31.9 -64.5 29.3 -50.6 22.0 -48.5 20.95 -39.8 18.5 L-39.35 17.75 Q-50.8 14.05 -51.95 11.65 L-78.35 14.0 Q-85.5 14.0 -88.1 12.95 L-91.35 10.5 Q-91.35 9.0 -90.85 8.5 L-88.15 10.65 Q-85.95 12.0 -83.25 12.0 L-57.4 9.9 -51.75 9.4 Q-50.7 6.25 -45.8 2.35 -39.15 -3.0 -31.85 -4.25 -29.35 -3.75 -28.85 -3.0 L-40.65 3.45 Q-45.7 6.45 -47.95 9.05 L-26.85 7.75 Q-16.15 7.75 -11.1 9.45 L-7.05 6.45 -10.85 9.5 -9.25 10.2 -7.8 11.15 Q22.9 2.75 24.25 2.0 L25.45 2.1 M-20.0 10.5 L-47.05 11.35 -39.1 14.55 Q-36.9 15.7 -36.6 17.6 L-30.7 16.0 Q-19.2 12.95 -14.2 10.95 L-20.0 10.5 M-12.95 11.2 L-15.5 13.25 -10.65 11.95 Q-11.65 11.5 -12.95 11.2 M-30.85 19.5 L-34.6 19.75 Q-36.15 19.75 -38.95 20.55 L-40.7 21.75 -31.85 19.75 -30.85 19.5 M-120.6 41.25 L-121.1 42.0 Q-120.6 43.5 -118.0 43.5 -111.55 43.5 -97.1 38.5 L-93.85 38.0 Q-104.85 38.0 -104.85 37.25 -114.35 38.1 -117.35 39.05 -118.75 39.5 -120.6 41.25" fill="url(#gradient23)" fill-rule="evenodd" stroke="none"/>
    <path d="M115.5 93.0 Q119.35 93.0 122.35 94.2 140.2 85.45 148.8 79.85 154.15 73.05 159.45 66.6 160.75 60.45 162.25 57.0 L162.5 56.25 Q157.05 56.95 153.5 58.7 150.45 60.25 149.0 60.25 L147.95 60.2 148.0 58.1 147.3 52.3 150.9 48.75 Q159.0 41.05 159.0 39.35 159.0 38.2 155.4 33.35 L153.7 31.05 Q152.7 32.35 150.25 33.75 151.2 30.15 151.45 27.9 L149.5 25.0 149.5 24.75 150.25 24.75 150.55 24.8 Q147.95 21.4 138.65 13.1 L136.6 11.25 135.2 6.35 141.4 11.15 Q154.5 21.55 154.5 26.35 L154.5 27.1 Q158.2 30.35 164.0 38.1 164.0 42.3 153.0 52.75 L152.5 53.5 157.05 51.9 Q161.45 50.25 163.0 50.25 167.5 50.25 167.75 54.1 167.75 58.8 165.1 65.1 162.95 70.3 159.6 75.0 156.75 83.4 147.0 95.85 136.3 109.5 122.75 121.75 L120.85 121.7 Q120.25 121.6 120.25 120.0 120.25 118.9 123.85 113.5 120.9 115.8 116.5 117.8 L108.0 121.1 109.75 125.65 Q114.5 138.05 114.5 140.35 114.5 148.05 107.1 156.95 107.9 157.8 108.5 159.0 109.75 161.5 109.75 164.25 109.75 166.2 108.75 168.0 107.2 170.75 104.0 170.75 99.9 170.75 97.75 166.55 97.9 170.1 100.8 174.7 L107.5 183.95 Q115.95 194.95 117.1 202.5 L116.0 204.75 114.05 209.05 110.0 212.25 Q102.4 217.75 98.0 217.75 91.15 217.75 84.7 214.3 L79.0 210.5 Q79.0 209.75 80.0 209.0 L85.5 212.1 Q89.8 214.25 93.25 214.25 103.75 214.25 113.0 203.1 113.0 199.95 110.05 195.15 L103.65 186.05 Q95.95 175.6 94.55 168.85 L86.65 174.7 Q65.8 189.25 37.75 201.25 L37.75 202.25 Q37.75 204.75 38.7 208.95 L40.75 218.0 Q41.45 218.7 39.35 218.75 36.9 211.55 34.65 202.5 L33.15 196.55 34.1 195.85 34.0 191.25 Q34.0 181.6 36.75 170.55 38.35 164.15 40.45 159.35 41.8 151.75 47.7 145.85 52.15 141.45 60.7 136.7 72.15 126.35 83.7 117.25 96.1 107.5 103.95 103.05 L105.95 99.75 106.0 99.7 106.0 99.1 106.2 97.6 Q111.65 95.3 115.45 92.9 L115.5 93.0 M110.3 100.55 Q105.0 108.7 105.0 112.6 L105.8 115.15 Q116.85 109.1 125.5 102.75 124.05 97.5 116.1 97.5 L112.05 97.9 110.7 99.95 110.3 100.55 M125.25 95.8 L127.25 97.6 Q130.0 100.6 130.0 102.5 L129.7 105.15 134.35 98.8 139.75 91.6 Q133.05 94.7 125.25 95.8 M67.75 133.1 L67.7 133.1 67.65 133.15 67.75 133.1 67.65 133.15 67.7 133.1 67.75 133.1 95.2 120.5 100.6 117.85 100.5 117.0 Q100.5 111.7 102.3 106.8 L67.75 133.1 M49.9 186.9 L48.85 187.0 Q42.75 187.0 40.8 175.85 38.9 185.35 38.2 193.2 39.9 192.15 41.95 191.0 L49.9 186.9 M51.25 186.15 L68.75 176.75 Q107.75 154.95 107.75 137.25 103.85 128.2 102.1 123.05 L86.9 127.75 Q66.75 134.25 57.25 141.7 43.75 152.3 43.75 169.0 43.75 173.6 45.5 178.5 47.7 184.55 51.25 186.15 M103.85 160.55 L100.45 163.85 100.75 166.25 100.75 167.0 Q106.25 168.05 106.25 164.1 106.25 162.3 104.25 160.85 L103.85 160.55" fill="url(#gradient24)" fill-rule="evenodd" stroke="none"/>
    <path d="M97.75 164.25 Q97.75 163.65 98.65 162.95 99.6 162.25 100.5 162.25 L100.75 161.85 Q101.0 161.8 101.0 163.35 L100.75 164.5 Q100.0 165.0 98.25 165.0 L97.75 164.25 M105.25 197.75 Q105.0 198.5 104.0 199.0 100.75 196.85 100.75 196.1 100.75 193.5 103.5 191.75 105.25 194.4 105.25 197.75 M-122.6 44.0 Q-122.6 45.5 -122.75 45.4 -123.05 45.15 -123.1 45.25 -125.1 44.95 -125.1 42.75 L-123.6 42.5 -123.1 42.3 Q-122.6 42.45 -122.6 44.0 M-113.6 52.25 L-114.85 53.25 -116.65 53.2 Q-117.1 53.1 -117.1 51.5 L-116.85 50.0 -115.85 49.75 Q-114.35 50.0 -113.6 50.75 L-113.6 52.25" fill="#ffffff" fill-rule="evenodd" stroke="none"/>
    <path d="M95.0 140.25 Q94.5 141.6 94.5 139.1 94.5 137.55 95.25 137.45 L96.0 137.5 Q98.05 137.85 98.5 139.25 L97.0 140.5 95.0 140.25" fill="#708f55" fill-opacity="0.33333334" fill-rule="evenodd" stroke="none"/>
    <path d="M122.3 118.75 Q120.95 120.25 118.75 120.25 114.5 120.25 114.5 116.85 114.5 116.0 115.7 114.7 117.25 113.1 119.75 112.25 L123.25 112.75 123.5 115.35 Q123.5 117.35 122.3 118.75" fill="#708f55" fill-opacity="0.6627451" fill-rule="evenodd" stroke="none"/>
    <path d="M76.35 -38.0 L78.0 -38.25 Q80.25 -38.25 81.25 -22.75 L81.0 -20.5 Q81.5 -19.75 79.0 -19.75 76.45 -19.75 74.8 -21.5 73.5 -22.9 73.5 -24.1 73.5 -25.3 74.55 -30.0 75.75 -35.2 76.0 -37.75 L76.35 -38.0 M59.25 -27.5 L59.5 -26.75 56.0 -24.0 Q53.95 -24.8 53.5 -27.5 53.65 -27.75 53.4 -28.2 L55.0 -28.5 Q58.25 -28.5 59.25 -27.5 M72.0 -13.5 Q74.0 -13.5 75.25 -12.25 L74.0 -10.0 Q73.0 -10.0 70.0 -11.0 L69.75 -13.0 70.15 -13.25 72.0 -13.5 M107.25 -28.25 Q107.25 -26.95 106.45 -23.95 105.6 -20.65 105.5 -19.25 L104.5 -18.5 102.25 -18.5 Q102.25 -20.0 101.25 -24.1 101.25 -27.25 104.0 -29.75 L106.55 -29.85 Q107.25 -29.8 107.25 -28.25 M83.0 -29.75 Q83.35 -29.75 88.6 -27.0 90.05 -27.0 90.25 -27.8 90.6 -28.85 91.0 -29.0 93.75 -26.5 93.75 -25.1 93.75 -22.55 91.0 -21.25 87.95 -22.3 81.5 -27.0 L81.25 -28.5 Q81.5 -28.85 81.4 -29.4 81.45 -29.75 83.0 -29.75 M84.5 -10.5 Q83.75 -9.75 82.0 -9.75 81.5 -10.5 81.5 -12.0 81.5 -13.65 82.05 -14.05 L83.5 -14.25 Q84.5 -13.25 84.5 -10.5 M100.9 -12.65 Q102.55 -15.15 104.0 -16.0 L105.45 -15.75 Q106.0 -15.55 106.0 -14.0 106.0 -12.7 105.4 -10.9 104.75 -9.1 104.75 -8.0 104.85 -7.25 102.35 -7.25 L100.0 -7.5 Q99.25 -6.5 99.25 -9.0 99.25 -10.25 100.9 -12.65 M112.0 -17.75 L110.25 -17.5 109.4 -17.95 Q109.25 -18.1 109.25 -19.75 109.25 -22.15 111.0 -22.75 L113.5 -21.5 Q113.5 -20.75 112.0 -17.75 M111.0 -7.75 L112.95 -7.7 Q113.75 -7.55 113.75 -6.0 113.75 -5.25 112.7 -3.2 111.55 -1.05 110.5 0.0 L108.5 0.0 Q108.25 -1.25 108.25 -3.75 108.25 -6.2 111.0 -7.75 M141.4 -19.45 L143.0 -19.75 Q145.15 -19.75 146.5 -18.75 L146.75 -18.0 Q146.25 -16.5 142.0 -16.5 141.25 -17.25 141.25 -18.75 141.5 -19.0 141.4 -19.45 M155.25 -21.1 Q155.25 -23.8 156.05 -24.5 157.45 -25.75 163.0 -25.75 L164.65 -25.4 164.75 -24.5 Q159.3 -18.15 157.0 -17.25 155.7 -18.15 155.45 -18.7 155.25 -19.2 155.25 -21.1 M237.75 -55.35 Q237.5 -55.3 237.5 -56.85 237.5 -58.45 239.5 -62.95 242.1 -68.9 245.5 -70.0 246.25 -71.35 246.25 -68.85 246.25 -66.85 243.1 -61.85 239.95 -56.75 238.0 -55.75 L237.75 -55.35 M186.0 -30.5 Q188.15 -30.5 189.5 -29.5 L189.5 -28.0 Q188.5 -26.75 186.0 -26.75 184.35 -26.75 183.9 -27.1 183.75 -27.2 183.5 -28.0 L184.1 -29.8 Q184.45 -30.5 186.0 -30.5 M182.65 -26.6 Q182.55 -26.25 181.0 -26.25 L179.3 -26.45 177.75 -27.0 177.5 -27.25 Q177.25 -27.4 177.25 -28.85 177.25 -29.6 178.5 -31.4 179.75 -33.2 180.5 -33.5 180.9 -33.0 182.75 -27.5 L182.65 -26.6 M168.5 -37.0 L172.75 -32.25 Q172.75 -31.15 170.1 -27.55 167.55 -24.1 167.0 -24.0 165.0 -24.8 165.0 -27.1 165.0 -29.6 166.0 -36.5 L168.5 -37.0 M179.25 -16.25 L180.5 -16.25 Q182.0 -16.25 182.25 -15.05 182.25 -13.6 182.5 -13.25 181.9 -11.45 180.0 -10.5 L178.0 -10.9 Q177.5 -11.2 177.5 -12.85 177.5 -14.45 178.1 -15.2 L179.25 -16.25 M169.0 -19.0 L169.0 -13.75 Q169.5 -13.0 167.0 -13.0 165.75 -13.0 164.8 -14.2 164.0 -15.2 164.0 -15.75 164.0 -16.95 165.15 -18.8 166.2 -20.4 167.0 -21.0 168.55 -20.4 169.0 -19.0 M166.5 -8.0 Q165.75 -6.75 165.75 -6.5 L162.25 -7.25 Q162.0 -8.0 162.0 -9.5 163.5 -10.25 165.5 -10.25 166.5 -9.25 166.5 -8.0 M308.0 -57.25 Q309.6 -57.25 310.25 -56.65 L311.0 -55.5 311.25 -54.75 310.0 -53.25 307.0 -53.25 306.75 -53.5 Q306.5 -53.65 306.5 -55.1 L306.75 -56.75 306.55 -57.0 308.0 -57.25 M252.5 -67.25 Q253.5 -68.25 253.5 -65.75 249.1 -60.1 247.25 -59.0 L246.7 -59.25 Q246.5 -59.35 246.5 -60.85 246.5 -61.75 248.3 -64.0 250.4 -66.6 252.5 -67.25 M257.0 -59.75 L256.75 -59.35 Q256.5 -59.3 256.5 -60.85 256.5 -63.35 258.0 -62.5 L260.25 -61.25 Q259.75 -59.75 257.0 -59.75 M357.05 -102.05 L356.75 -97.75 Q356.75 -92.25 356.55 -91.1 355.95 -87.4 353.0 -83.0 L351.8 -83.25 Q351.5 -83.4 351.5 -85.0 L352.4 -93.1 Q353.25 -100.5 353.25 -104.25 L355.5 -104.5 Q357.05 -104.5 357.05 -102.05 M376.55 -99.95 Q377.4 -101.35 378.5 -101.75 L379.2 -101.1 Q379.5 -100.65 379.5 -99.1 379.5 -97.5 376.5 -89.0 L374.75 -89.0 374.25 -92.0 374.3 -92.7 374.25 -93.25 Q374.25 -99.2 376.5 -100.0 L376.55 -99.95 M368.65 -107.5 Q369.0 -106.9 369.0 -105.1 368.15 -100.8 367.65 -97.25 369.05 -101.5 370.5 -102.0 L371.4 -101.15 Q371.75 -100.6 371.75 -99.0 371.75 -97.75 370.7 -93.45 369.65 -88.9 369.5 -87.0 369.25 -86.25 368.0 -85.75 366.85 -86.7 366.45 -88.6 L365.0 -87.75 Q364.25 -88.4 363.55 -91.2 363.0 -93.65 363.0 -95.0 363.0 -98.1 364.15 -102.6 365.45 -107.6 367.0 -109.0 L368.65 -107.5 M371.25 -78.0 L370.75 -76.75 368.25 -76.75 367.9 -76.55 Q367.5 -76.7 367.5 -78.25 L367.75 -79.75 Q368.25 -80.25 369.5 -80.25 370.75 -79.5 371.25 -78.0 M363.4 -91.8 L363.5 -90.0 Q363.5 -83.9 360.0 -82.75 L358.8 -83.0 Q358.5 -83.15 358.5 -84.75 358.5 -86.2 359.25 -88.3 360.35 -91.5 362.5 -92.25 363.0 -91.85 363.4 -91.8 M349.75 -81.0 Q349.25 -80.25 347.25 -80.0 L346.1 -81.85 Q345.5 -82.95 345.5 -84.5 345.5 -87.4 347.5 -87.75 L348.55 -84.35 Q349.05 -82.25 349.75 -81.0 M361.5 -81.1 Q361.5 -79.6 360.95 -78.3 L360.0 -76.25 358.25 -76.0 Q357.5 -77.1 357.5 -78.6 357.5 -80.75 360.5 -82.25 361.5 -83.6 361.5 -81.1 M343.0 -59.75 Q342.0 -59.0 340.25 -58.75 L339.5 -61.0 341.5 -61.25 Q342.75 -60.5 343.0 -59.75 M358.25 -40.35 Q358.25 -37.45 356.85 -32.05 355.15 -25.5 353.0 -24.0 L352.25 -24.35 350.75 -19.9 Q348.75 -14.0 347.75 -12.5 L346.0 -12.75 345.75 -12.35 Q345.5 -12.3 345.5 -13.85 345.5 -16.9 346.3 -20.5 347.75 -26.75 351.0 -28.75 L351.4 -28.6 Q352.65 -39.3 354.5 -48.25 L356.5 -48.25 Q358.25 -44.3 358.25 -40.35 M363.5 -37.75 Q363.5 -36.4 362.55 -32.6 361.45 -28.15 361.25 -26.5 L360.5 -25.75 358.25 -25.75 357.6 -26.0 Q357.5 -26.05 357.5 -27.6 357.5 -30.45 358.55 -33.8 359.95 -38.45 362.5 -39.25 363.5 -40.25 363.5 -37.75 M364.25 -21.85 Q363.25 -17.75 363.25 -15.5 362.75 -15.5 362.75 -14.75 L361.0 -15.0 Q360.75 -15.75 360.75 -17.25 360.75 -21.7 363.5 -23.0 364.25 -24.35 364.25 -21.85 M367.25 -22.25 L369.5 -22.5 Q370.75 -21.0 370.75 -18.35 370.75 -14.7 368.75 -11.5 L366.5 -11.75 366.25 -14.0 Q366.25 -16.5 367.25 -22.25 M372.5 -7.0 Q372.5 -8.75 375.5 -10.25 376.5 -11.25 376.5 -8.75 376.5 -7.2 375.8 -5.8 L374.75 -3.75 372.75 -4.0 Q372.5 -4.5 372.5 -7.0 M368.75 12.0 Q368.75 13.5 366.75 15.5 L364.5 15.25 Q364.25 15.1 364.25 12.6 364.25 11.05 365.15 10.6 L366.0 10.25 Q368.3 10.65 368.75 12.0 M363.7 146.45 L363.75 153.5 Q363.75 157.65 365.3 162.2 365.6 165.3 360.0 168.0 L358.3 167.55 Q357.75 167.2 357.75 165.6 357.75 149.05 362.0 140.25 363.45 142.35 363.7 146.45 M351.0 159.55 Q351.5 159.7 351.5 161.25 351.5 163.75 350.5 173.25 L349.75 174.5 347.5 174.25 Q347.25 172.75 347.25 168.6 347.25 164.65 347.45 163.7 348.05 161.25 350.5 159.75 L351.0 159.55 M343.75 153.55 Q344.25 153.7 344.25 155.25 L343.5 168.75 Q342.75 168.75 342.75 169.5 L340.35 169.1 Q339.25 168.65 339.25 167.0 339.25 165.4 340.4 160.55 341.8 154.7 343.25 153.75 L343.75 153.55 M328.25 164.75 Q329.65 161.9 331.25 160.75 L331.75 163.75 Q331.25 165.2 329.25 165.5 L328.25 164.75 M356.75 180.35 L356.5 183.75 355.5 184.5 353.25 184.5 353.25 177.75 Q353.75 174.75 355.5 174.75 356.75 176.65 356.75 180.35 M247.2 90.35 Q247.5 90.3 247.5 91.85 L246.95 97.7 Q246.55 102.3 247.0 105.0 L246.5 105.75 Q243.5 104.95 243.5 96.35 243.5 92.05 246.0 90.5 L247.2 90.35 M213.5 31.25 Q213.5 33.75 212.5 44.0 212.0 44.75 210.25 45.0 209.5 43.5 209.5 39.35 209.5 31.5 212.5 29.75 L213.0 29.55 Q213.5 29.7 213.5 31.25 M207.4 36.6 L207.5 38.75 Q207.5 40.55 207.3 40.95 L206.0 42.25 Q203.5 39.75 203.5 38.75 203.5 37.55 203.7 37.25 204.2 36.4 206.5 35.75 L207.4 36.6 M222.65 33.05 Q223.6 27.7 226.5 26.75 L227.0 26.55 Q227.5 26.7 227.5 28.25 227.5 29.85 224.75 43.25 L223.0 43.25 Q222.25 41.0 222.25 38.75 222.15 35.8 222.65 33.05 M229.05 38.95 Q230.85 36.25 232.5 35.75 L233.0 35.55 Q233.5 35.7 233.5 37.25 230.5 42.6 228.25 44.0 L227.7 43.7 Q227.5 43.6 227.5 42.1 227.5 41.25 229.05 38.95 M239.5 47.0 Q239.15 48.15 238.0 48.5 L236.1 48.65 Q235.5 48.65 235.5 47.1 235.5 45.15 238.5 44.0 L239.5 47.0 M187.0 23.0 Q186.75 24.35 186.75 21.85 186.75 20.95 187.65 19.75 188.9 18.1 190.75 18.25 190.25 19.0 190.25 22.0 L189.75 23.25 187.0 23.0 M195.25 35.75 L195.5 35.55 Q195.75 35.7 195.75 37.25 195.75 39.75 194.5 40.75 L193.25 40.5 Q192.5 41.5 192.5 39.0 192.5 38.05 195.25 35.75 M197.5 28.85 Q197.5 22.1 201.0 24.0 L199.5 33.0 198.25 33.0 Q197.5 30.75 197.5 28.85 M201.5 56.1 Q201.5 52.15 206.25 49.5 206.5 49.9 206.95 49.95 207.25 50.25 207.25 51.75 207.25 53.35 202.25 58.0 L201.7 57.7 Q201.5 57.6 201.5 56.1 M241.5 122.25 Q241.5 118.65 244.5 117.75 L245.0 117.55 Q245.5 117.7 245.5 119.25 L245.1 122.35 Q244.8 123.95 245.25 125.25 L244.5 126.0 242.0 126.0 Q241.5 124.5 241.5 122.25 M207.7 153.55 Q208.5 153.65 208.5 155.25 208.5 155.8 207.25 156.6 205.65 157.6 204.75 159.5 L202.95 159.45 Q202.5 159.35 202.5 157.75 202.5 154.5 205.0 153.5 L207.7 153.55 M271.35 123.05 Q271.75 123.65 271.75 125.35 271.75 127.15 268.75 137.0 L267.0 137.0 Q266.25 133.65 266.25 129.85 266.25 124.95 270.0 122.25 271.1 122.7 271.35 123.05 M263.75 104.85 L263.75 113.1 Q262.85 121.0 258.25 122.25 257.25 120.25 257.25 118.1 L257.25 117.7 256.4 121.5 Q255.0 127.1 255.0 128.25 L254.75 129.0 251.75 129.25 Q251.25 129.35 251.25 126.85 251.25 123.8 252.3 119.7 253.8 113.7 256.5 112.5 256.95 112.9 257.45 112.8 L257.6 111.45 Q258.6 105.2 262.0 103.25 L263.35 103.3 Q263.75 103.35 263.75 104.85 M256.85 100.2 Q257.25 100.5 257.25 102.0 257.25 103.1 255.7 106.85 254.1 110.75 254.0 111.75 L252.25 112.0 Q251.75 111.25 251.75 109.75 251.75 108.8 253.25 105.15 254.9 101.15 256.25 99.75 L256.85 100.2 M251.3 103.4 Q251.5 103.75 251.5 105.35 251.5 107.85 250.25 111.75 L249.0 112.25 Q247.25 110.8 247.25 108.0 247.25 107.0 247.95 105.45 248.9 103.3 250.5 102.75 L251.3 103.4 M130.25 44.85 L130.0 47.5 129.0 48.0 127.9 47.4 Q127.75 47.05 127.75 45.25 L128.5 40.75 129.25 40.75 Q130.25 42.75 130.25 44.85 M105.4 45.95 L103.0 48.0 101.75 47.5 Q103.8 42.85 107.0 44.0 L105.4 45.95 M145.75 60.25 Q143.5 59.95 142.95 58.55 142.75 58.05 142.75 56.25 142.75 53.6 145.25 47.75 146.25 52.25 146.25 54.85 L146.0 59.75 145.75 60.25 M45.5 34.85 Q45.5 37.35 44.5 45.75 43.75 45.75 43.75 46.5 L41.5 46.25 41.5 38.75 Q42.3 36.35 42.75 30.0 L44.5 30.0 Q45.5 32.0 45.5 34.85 M58.9 46.6 Q59.25 46.55 59.25 48.1 59.25 48.7 58.25 50.0 L56.5 51.75 55.5 51.25 Q55.5 50.7 56.2 49.35 57.15 47.55 58.5 47.0 L58.9 46.6 M6.5 45.75 L7.0 45.55 Q7.5 45.7 7.5 47.25 7.5 50.15 5.0 52.25 L3.8 52.0 Q3.5 51.85 3.5 50.25 3.5 48.85 4.5 47.4 5.45 46.0 6.5 45.75 M17.0 40.35 Q17.5 40.3 17.5 41.85 17.5 44.35 16.25 49.75 L15.0 50.25 Q13.9 49.35 13.7 48.75 13.5 48.25 13.5 46.35 13.5 43.2 13.7 42.5 14.25 40.6 16.5 40.75 L17.0 40.35 M30.25 42.75 L30.95 43.2 Q31.5 43.5 31.5 45.0 31.5 47.5 30.5 50.25 30.0 51.0 28.25 51.25 L27.6 50.6 27.5 48.6 Q27.5 45.05 30.25 42.75 M23.0 48.5 L25.25 49.75 Q24.75 51.25 22.0 51.25 21.5 52.6 21.5 50.1 21.5 48.55 22.25 48.45 L23.0 48.5 M16.55 56.95 L16.5 55.35 Q16.5 53.75 17.1 53.5 17.45 53.35 18.25 53.5 L19.5 55.0 Q19.5 56.5 18.75 57.25 L17.0 57.25 16.55 56.95 M-354.35 -52.0 Q-353.35 -50.0 -353.35 -46.75 -353.35 -45.25 -355.35 -40.75 L-357.35 -40.75 Q-357.35 -44.5 -355.85 -52.0 L-354.35 -52.0 M-369.35 -54.5 Q-368.1 -53.55 -368.1 -51.1 L-369.1 -39.5 -369.85 -38.25 Q-372.75 -38.55 -373.4 -39.95 -373.6 -40.35 -373.6 -42.25 -373.6 -44.75 -371.6 -54.25 L-369.35 -54.5 M-374.95 -34.55 L-375.1 -36.25 Q-375.1 -38.1 -374.9 -38.3 L-372.85 -38.5 Q-368.95 -38.5 -368.35 -36.75 L-371.1 -34.5 -370.35 -34.75 -368.35 -33.5 -368.85 -31.85 Q-369.65 -30.4 -371.85 -30.5 L-372.5 -30.75 -372.6 -32.35 Q-372.6 -33.3 -372.2 -33.85 L-374.85 -34.75 -374.95 -34.55 M-331.6 -45.25 Q-329.1 -34.75 -329.1 -29.1 -329.1 -26.7 -330.35 -25.75 L-332.35 -25.75 Q-332.6 -28.75 -333.6 -35.5 L-333.8 -40.15 Q-333.55 -44.15 -331.6 -45.25 M-325.6 -48.75 Q-323.6 -36.75 -323.6 -34.5 L-323.6 -34.35 Q-323.35 -33.35 -323.35 -32.0 L-323.8 -31.6 Q-324.0 -30.35 -324.35 -29.25 L-325.6 -29.25 -325.85 -31.2 -326.05 -31.35 Q-326.35 -31.8 -326.35 -33.5 L-326.3 -34.5 -327.1 -41.6 -326.6 -48.75 -325.6 -48.75 M-342.8 -42.65 Q-342.35 -42.05 -342.35 -40.5 L-343.6 -26.25 -344.15 -26.0 -344.1 -25.0 Q-344.1 -22.75 -344.35 -21.25 L-345.1 -20.5 Q-348.6 -22.8 -348.6 -24.25 L-348.95 -28.0 -349.1 -27.75 -351.85 -28.75 Q-351.4 -30.05 -350.85 -35.75 L-349.35 -35.75 Q-348.65 -33.6 -348.6 -31.05 -347.95 -32.7 -346.35 -33.25 L-346.2 -35.7 Q-345.75 -42.05 -343.6 -43.5 L-342.8 -42.65 M-342.45 -34.35 Q-341.85 -37.05 -339.35 -38.0 -338.6 -39.35 -338.6 -36.85 -338.6 -29.0 -340.1 -22.25 L-341.85 -22.25 Q-342.6 -25.6 -342.6 -29.75 L-342.45 -34.35 M-353.35 -37.75 L-353.35 -33.25 -354.85 -32.0 -356.15 -33.45 Q-356.35 -33.95 -356.35 -35.85 L-356.35 -37.9 Q-356.05 -38.75 -354.35 -39.25 -353.6 -38.5 -353.35 -37.75 M-313.35 -53.25 Q-311.35 -48.75 -311.35 -46.1 -311.35 -45.5 -312.7 -42.9 -314.1 -40.3 -314.1 -39.5 L-316.35 -39.75 -316.35 -51.75 Q-314.85 -53.25 -313.35 -53.25 M-267.2 -49.05 L-267.7 -48.9 -267.35 -49.25 -267.2 -49.05 M-151.1 -32.35 Q-151.1 -30.45 -151.3 -29.95 -151.55 -29.4 -152.85 -28.5 -155.6 -31.1 -155.6 -32.0 -155.6 -33.4 -154.65 -34.75 -153.65 -36.15 -152.35 -36.5 -151.1 -35.0 -151.1 -32.35 M-102.35 -7.25 L-101.6 -7.25 -100.6 -4.25 -100.6 2.5 Q-101.1 2.5 -101.1 3.25 L-102.85 3.0 -103.1 -1.1 -102.35 -7.25 M-97.6 -15.25 L-98.1 -11.0 -99.65 -11.05 Q-99.85 -11.1 -99.85 -12.75 -99.85 -15.25 -97.6 -15.25 M-93.35 -0.75 L-93.6 -4.5 Q-93.6 -6.95 -92.65 -10.85 -91.55 -15.3 -90.35 -15.75 -89.1 -12.0 -89.1 -10.1 -89.1 -6.15 -91.35 -0.75 L-93.35 -0.75 M-81.55 -4.6 Q-81.35 -4.2 -81.35 -2.6 -81.35 -0.5 -83.85 2.0 L-85.05 1.75 Q-85.35 1.6 -85.35 0.0 -85.35 -4.15 -82.35 -5.25 L-81.55 -4.6 M-73.85 -1.6 Q-73.85 0.85 -74.35 0.75 -76.35 2.25 -76.35 -0.25 -76.35 -2.75 -75.85 -2.75 L-74.35 -2.75 Q-73.85 -4.1 -73.85 -1.6 M-69.1 -0.75 L-70.85 -0.75 Q-71.6 -1.5 -71.6 -4.1 -71.6 -7.05 -70.15 -11.75 -68.6 -16.6 -67.35 -17.25 -66.1 -15.35 -66.1 -12.0 -66.1 -7.0 -69.1 -0.75 M-58.4 96.5 L-58.35 99.1 Q-58.35 100.7 -59.05 101.55 L-60.85 103.25 Q-64.35 100.95 -64.35 99.5 -64.35 97.7 -62.35 96.55 L-60.35 95.75 Q-58.65 95.75 -58.4 96.5 M-115.6 8.25 L-117.6 9.0 Q-118.1 8.25 -118.1 7.5 -117.35 6.75 -116.6 6.75 L-115.6 8.25 M-116.6 20.25 Q-115.35 21.5 -115.35 23.25 L-117.6 24.0 Q-118.1 25.0 -118.1 22.5 -118.1 20.25 -116.6 20.25 M-108.35 17.0 Q-112.85 16.75 -112.35 9.75 -113.1 9.5 -110.6 9.5 -109.7 9.5 -107.6 16.25 L-108.35 17.0 M-124.95 15.6 Q-124.6 15.55 -124.6 17.1 -124.6 19.6 -125.35 28.75 -126.1 28.75 -126.1 29.5 L-128.35 29.25 -128.35 20.25 -127.6 18.2 Q-127.0 16.8 -125.35 16.0 L-124.95 15.6 M-18.5 162.0 Q-18.5 162.75 -22.25 166.5 L-24.5 166.25 -24.75 163.25 Q-24.75 160.85 -22.0 159.25 L-18.5 162.0 M-290.6 89.75 L-291.1 87.1 -290.85 86.0 -287.35 85.75 -286.6 87.75 Q-287.05 89.1 -290.6 89.75 M-291.55 194.0 Q-291.35 194.1 -291.35 195.6 -291.35 197.15 -291.9 197.95 L-292.85 199.0 -294.6 199.25 Q-295.35 200.25 -295.35 197.75 -294.85 195.1 -292.35 193.75 L-291.55 194.0 M-195.6 132.0 L-195.85 132.75 -197.1 133.5 -198.9 133.45 Q-199.35 133.35 -199.35 131.75 L-199.1 129.75 -197.35 129.75 Q-195.85 131.25 -195.6 132.0 M-352.6 150.5 L-352.35 152.75 -354.85 154.0 -356.05 153.55 Q-356.35 153.25 -356.35 151.6 -356.35 150.0 -355.9 149.7 L-354.85 149.5 Q-353.35 149.75 -352.6 150.5" fill="#3c482f" fill-rule="evenodd" stroke="none"/>
    <path d="M171.0 72.3 L166.35 71.4 166.25 71.0 Q161.65 70.65 156.4 69.2 151.9 68.0 148.0 68.0 L143.8 68.4 Q143.5 67.6 143.5 66.75 L142.3 66.65 142.25 66.25 Q142.5 66.0 142.4 65.55 142.5 65.25 144.0 65.25 152.7 65.25 161.15 67.3 168.3 69.05 171.0 71.0 L171.0 72.3" fill="#75754f" fill-rule="evenodd" stroke="none"/>
    <path d="M171.0 72.3 L172.25 72.75 172.5 72.35 172.75 73.05 Q173.5 73.5 173.5 74.25 L172.75 75.5 171.5 75.4 171.0 75.75 Q169.15 77.0 168.0 77.0 165.9 77.0 164.7 76.3 L162.25 74.95 Q155.45 74.6 150.25 72.65 146.25 71.15 143.95 70.8 142.95 72.0 140.85 72.0 L137.5 71.25 141.0 66.5 142.3 66.65 143.5 66.75 Q143.5 67.6 143.8 68.4 L148.0 68.0 Q151.9 68.0 156.4 69.2 161.65 70.65 166.25 71.0 L166.35 71.4 171.0 72.3" fill="#525136" fill-rule="evenodd" stroke="none"/>
    <path d="M226.15 -40.55 Q226.4 -41.0 228.0 -41.0 228.75 -41.0 237.3 -35.9 L242.2 -32.85 255.35 -34.1 255.75 -34.25 Q263.65 -36.75 268.5 -36.75 274.5 -36.75 277.55 -34.4 L282.0 -34.5 Q290.4 -34.5 293.65 -32.15 L297.0 -33.75 298.75 -32.25 295.6 -29.0 295.5 -28.0 270.75 -8.6 Q272.0 -5.35 272.0 -1.5 268.0 47.5 260.5 47.5 256.15 47.5 253.5 45.25 251.5 43.5 251.5 41.85 251.5 40.3 256.15 17.95 261.25 -6.5 262.25 -13.25 L262.25 -22.0 Q252.75 -21.2 249.05 -25.05 L249.0 -25.1 248.0 -25.0 Q245.15 -25.0 240.0 -27.7 L237.5 -27.75 237.15 -28.0 Q236.8 -28.25 236.75 -29.5 L236.4 -29.7 Q227.8 -34.85 226.0 -39.5 L226.15 -40.55 M271.5 -22.5 L269.75 -22.95 269.75 -20.8 270.75 -22.0 271.5 -22.5 M345.0 49.0 Q349.1 49.0 350.45 49.75 352.0 50.55 352.0 53.1 L351.5 55.0 Q351.5 56.0 349.0 56.0 346.75 56.0 345.3 54.7 344.55 54.05 343.0 51.75 L343.0 49.5 343.25 49.25 345.0 49.0 M326.75 72.1 L327.0 70.25 329.5 69.75 331.25 70.25 332.25 71.75 331.75 73.25 Q331.0 74.0 327.75 74.0 L326.95 73.7 Q326.75 73.6 326.75 72.1 M288.75 33.0 Q288.75 35.65 287.75 39.0 286.4 43.5 284.25 43.5 280.2 43.5 278.5 41.05 277.5 39.65 277.5 38.0 277.5 34.9 279.25 31.25 281.45 26.5 285.0 26.5 289.35 26.5 288.75 33.0 M254.5 0.5 Q255.0 0.6 255.0 3.1 255.0 6.0 251.5 6.0 L248.5 5.5 Q248.0 5.35 248.0 2.85 248.0 1.2 249.5 0.55 L251.5 0.0 254.5 0.5 M243.85 32.0 L241.0 31.25 Q240.75 30.75 240.75 28.25 240.75 24.75 244.0 24.75 247.35 24.75 247.5 29.0 L247.45 30.5 Q247.15 30.8 247.0 31.25 246.35 32.0 243.85 32.0 M271.0 84.5 Q272.15 84.5 275.25 88.0 274.5 90.6 272.0 91.5 268.5 89.5 268.5 87.25 L268.75 85.0 269.2 84.75 271.0 84.5 M297.0 100.25 Q299.75 102.7 299.75 103.35 L299.5 106.0 297.0 106.75 Q294.25 104.3 294.25 103.25 294.25 102.8 295.65 102.45 297.0 102.1 297.0 100.25" fill="#000000" fill-opacity="0.3019608" fill-rule="evenodd" stroke="none"/>
    <path d="M7.1 -3.6 Q4.25 0.2 -1.15 -1.95 -6.55 -4.1 -13.35 -5.5 L-38.35 -4.25 Q-39.6 -4.25 -42.95 -3.25 -46.35 -2.25 -47.6 -2.25 -55.65 -2.25 -56.9 -3.5 -57.55 -4.1 -56.9 -6.55 L-58.85 -6.25 Q-64.45 -6.25 -66.1 -7.5 L-66.1 -9.0 -58.8 -10.3 -59.2 -10.55 Q-60.1 -11.25 -60.1 -12.0 -60.1 -14.85 -55.9 -15.75 L-47.35 -16.25 Q-35.75 -14.0 -33.25 -14.0 L-28.6 -14.6 Q-28.85 -15.55 -28.6 -16.85 -28.6 -19.1 -26.4 -21.0 -24.1 -23.0 -21.0 -23.0 -16.6 -23.0 -16.75 -18.0 L-17.2 -16.9 -16.55 -17.0 -15.55 -17.2 -11.0 -19.0 Q4.2 -19.0 20.0 -11.95 36.25 -4.7 36.25 3.0 36.25 8.25 32.0 8.25 30.65 8.25 26.65 5.35 20.7 1.05 17.05 -1.0 12.3 -3.7 7.1 -3.6 M319.5 -37.5 L319.95 -37.65 330.5 -41.5 Q331.0 -41.1 331.5 -41.05 L331.75 -39.25 Q331.75 -37.7 330.9 -36.25 L329.5 -34.0 326.75 -36.75 Q318.75 -32.0 313.75 -30.25 L311.85 -30.45 Q311.25 -30.7 311.25 -32.35 311.25 -33.7 313.75 -36.5 L317.5 -41.0 317.6 -41.1 318.0 -41.75 317.3 -41.3 Q307.1 -35.35 306.75 -35.25 304.2 -35.6 303.75 -37.0 306.3 -40.3 317.25 -46.95 326.95 -52.9 332.0 -55.0 L333.45 -54.75 Q334.0 -54.55 334.0 -53.0 334.0 -51.4 327.65 -45.3 L320.0 -38.0 319.5 -37.5 M368.5 -50.75 L367.75 -49.5 365.0 -49.75 364.75 -49.35 Q364.5 -49.3 364.5 -50.85 364.5 -53.35 366.0 -52.5 368.05 -52.15 368.5 -50.75 M330.25 -29.85 Q330.25 -31.85 331.5 -33.25 332.85 -34.75 335.0 -34.75 340.0 -34.75 339.75 -29.75 339.75 -28.15 338.5 -26.8 337.1 -25.25 335.0 -25.25 331.45 -25.25 330.5 -27.4 330.05 -28.5 330.25 -29.85 M325.0 191.0 Q322.95 191.0 321.8 189.0 321.0 187.65 321.0 186.75 321.0 181.35 327.0 182.0 330.0 182.85 330.0 185.85 330.0 187.75 328.75 189.25 327.35 191.0 325.0 191.0 M67.25 69.6 Q67.25 66.95 69.45 66.6 L75.25 66.75 73.65 71.35 Q73.05 72.1 70.0 72.75 67.25 70.1 67.25 69.6 M-97.6 -3.85 Q-97.6 4.45 -100.3 8.65 -102.15 11.5 -107.95 15.25 -115.5 20.15 -119.85 24.2 -127.9 31.7 -135.35 43.75 L-136.6 43.5 -131.35 35.25 Q-135.95 38.35 -140.85 40.25 -142.6 40.0 -143.1 39.25 -130.9 30.55 -111.6 16.0 -106.85 12.35 -102.9 4.15 L-98.35 -5.0 Q-97.6 -6.35 -97.6 -3.85 M-72.85 -26.25 Q-71.15 -25.55 -70.75 -24.2 L-70.1 -22.0 Q-70.05 -21.2 -70.15 -20.85 -70.3 -20.25 -71.85 -20.25 L-73.55 -20.45 -74.85 -21.0 -75.1 -23.6 Q-75.1 -25.2 -74.35 -25.75 L-72.85 -26.25 M-283.85 167.35 Q-283.85 164.0 -280.85 164.0 -277.75 164.0 -276.25 166.9 L-274.85 170.75 -275.0 172.15 Q-275.3 173.0 -276.85 173.0 -282.35 173.0 -283.65 170.35 -284.3 168.95 -283.85 167.35 M-375.35 134.85 L-375.6 136.75 -375.95 137.15 -377.85 137.5 -382.85 136.75 -383.1 133.0 Q-381.85 131.75 -379.35 131.75 L-375.85 132.25 -375.35 134.85" fill="#000000" fill-opacity="0.14117648" fill-rule="evenodd" stroke="none"/>
    <path d="M33.5 -101.25 Q35.1 -101.25 37.75 -66.0 37.75 -62.6 36.5 -60.75 L34.5 -60.75 Q33.85 -64.8 33.4 -72.35 L33.35 -73.15 33.0 -73.0 Q30.95 -74.5 30.1 -77.2 L29.8 -78.25 29.0 -76.05 Q26.85 -69.75 24.35 -69.75 L20.5 -70.5 20.25 -72.5 Q20.25 -74.45 23.25 -79.25 L23.25 -80.0 Q21.55 -79.3 17.45 -75.35 13.55 -71.6 11.5 -71.0 11.15 -70.6 10.75 -70.55 10.0 -70.45 10.0 -72.0 10.0 -73.7 16.85 -81.15 L16.65 -81.2 Q16.0 -81.45 16.0 -83.1 16.0 -84.7 16.55 -85.55 L16.7 -85.7 18.0 -87.25 16.2 -86.1 Q1.55 -76.95 -3.0 -74.75 L-3.75 -74.45 Q-4.5 -74.45 -4.5 -76.0 L3.0 -83.5 0.5 -84.5 0.25 -84.3 Q0.0 -84.45 0.0 -86.0 21.25 -99.75 26.5 -101.0 L28.25 -100.5 Q29.0 -99.0 29.0 -96.05 L32.25 -101.25 33.5 -101.25 M157.4 -50.05 Q157.0 -50.2 157.0 -51.75 157.0 -55.6 167.4 -66.45 176.05 -75.5 181.5 -79.5 L182.25 -80.25 181.4 -79.85 Q171.7 -75.55 152.35 -64.8 L122.0 -48.0 Q120.75 -48.5 120.0 -49.25 126.45 -54.65 142.7 -64.15 L170.0 -79.75 170.0 -80.25 169.85 -80.15 Q158.3 -75.2 139.7 -67.9 119.8 -60.05 115.0 -58.75 L111.65 -58.95 Q110.75 -59.2 110.75 -60.85 110.75 -61.05 141.1 -73.55 179.95 -90.75 220.0 -113.0 L221.45 -112.55 Q222.0 -112.2 222.0 -110.6 222.0 -108.1 217.8 -93.15 214.55 -81.45 211.7 -72.75 L212.0 -71.0 211.5 -68.9 238.55 -91.6 238.7 -91.7 238.65 -91.7 238.0 -92.25 Q238.6 -97.35 246.65 -104.85 L254.15 -111.6 260.25 -117.0 Q258.25 -115.95 253.75 -112.1 L253.7 -112.1 Q249.25 -108.35 247.0 -107.25 L245.65 -107.3 Q245.25 -107.35 245.25 -108.85 245.25 -110.95 270.55 -131.0 295.45 -150.75 296.5 -150.75 L298.15 -150.5 306.5 -151.0 Q314.9 -151.0 316.75 -149.55 317.35 -149.1 317.25 -148.5 L317.0 -147.85 Q317.7 -145.55 312.15 -144.9 311.45 -144.55 310.4 -144.35 L306.4 -143.2 306.9 -136.85 307.5 -135.6 307.2 -129.85 307.3 -126.45 308.25 -91.75 Q307.85 -90.5 306.0 -89.75 304.2 -91.55 303.0 -95.5 300.0 -90.0 297.0 -90.0 L292.45 -97.65 Q291.0 -98.7 291.0 -99.25 L291.15 -99.85 288.75 -104.1 Q288.75 -112.2 293.75 -130.75 287.45 -118.8 283.6 -112.4 276.85 -101.2 269.0 -93.25 L266.75 -93.25 266.1 -93.5 Q266.0 -93.55 266.0 -95.1 L266.05 -95.6 266.1 -96.1 265.55 -95.65 Q252.3 -84.7 246.0 -79.0 L243.75 -79.25 243.2 -79.5 Q243.0 -79.6 243.0 -81.1 243.0 -82.5 245.05 -84.05 L245.1 -84.1 247.55 -85.75 245.0 -84.3 241.7 -82.1 231.85 -75.15 Q227.15 -71.95 223.3 -69.8 198.45 -36.25 193.0 -36.25 191.75 -36.25 191.0 -37.1 190.25 -38.0 189.0 -38.0 187.45 -38.0 187.25 -38.35 L187.0 -39.25 Q191.2 -44.1 199.6 -55.45 200.1 -58.85 202.9 -66.3 205.55 -73.5 207.65 -76.15 208.7 -83.4 211.5 -96.25 L211.5 -97.5 210.9 -96.8 Q186.95 -69.5 157.75 -50.25 L157.4 -50.05 M278.25 -118.0 L266.55 -104.65 Q264.0 -101.6 262.2 -99.05 L264.25 -100.35 Q266.35 -101.5 267.85 -101.5 L268.0 -101.5 Q270.9 -107.45 278.0 -117.25 L278.25 -118.0 M270.75 -122.0 L253.6 -104.3 266.8 -115.45 270.75 -121.5 270.75 -122.0 M191.0 -82.75 L188.6 -80.2 191.5 -82.75 191.0 -82.75 M254.0 -95.0 L254.0 -94.75 251.25 -92.5 250.75 -92.0 Q252.0 -92.2 253.6 -93.8 255.2 -95.4 254.0 -95.0 M247.55 -85.75 L248.0 -86.0 247.55 -85.75 M-335.35 -150.25 Q-325.85 -150.25 -309.6 -144.5 L-301.7 -141.5 -301.35 -141.5 Q-299.2 -141.5 -293.7 -139.6 L-288.35 -137.75 Q-288.05 -137.75 -275.95 -113.4 -263.2 -87.7 -257.1 -74.25 -257.05 -73.35 -257.15 -72.95 -257.3 -72.25 -258.85 -72.25 -260.55 -72.25 -282.6 -105.05 L-288.65 -114.05 -291.6 -114.25 Q-291.25 -113.1 -289.05 -109.95 -287.05 -107.05 -286.85 -105.5 L-287.85 -104.0 Q-297.65 -107.0 -307.4 -114.8 L-314.6 -120.95 Q-318.6 -124.4 -321.1 -126.0 L-313.8 -109.3 Q-307.6 -95.5 -307.6 -93.0 L-307.85 -91.5 -308.85 -90.0 Q-315.25 -99.05 -325.45 -118.15 -336.35 -138.6 -343.6 -149.5 -343.85 -150.0 -341.35 -150.0 L-337.95 -146.8 -338.1 -148.1 Q-338.1 -149.85 -337.65 -150.1 L-335.35 -150.25 M-213.35 -131.25 L-212.6 -131.25 -211.5 -127.5 -210.85 -126.85 Q-210.85 -126.15 -211.0 -125.65 -208.2 -114.55 -206.85 -99.45 L-204.85 -69.7 -204.75 -68.5 Q-202.5 -63.55 -201.35 -59.25 L-201.9 -58.2 Q-202.4 -57.75 -204.0 -57.75 L-233.2 -101.45 -234.25 -102.95 -235.3 -104.4 -234.4 -103.25 -243.65 -117.2 -243.65 -117.25 -250.45 -127.45 Q-248.25 -122.55 -244.4 -116.75 L-254.85 -130.85 -254.8 -134.1 -255.6 -135.35 Q-255.6 -137.15 -254.7 -137.6 L-254.6 -139.25 -253.6 -139.25 -253.55 -138.45 -253.4 -137.1 -251.85 -134.75 -251.7 -134.75 Q-252.7 -136.5 -253.1 -138.5 -251.2 -139.25 -247.35 -139.25 -238.55 -139.25 -223.9 -133.2 -216.2 -130.0 -213.05 -128.35 L-213.35 -131.25 M-234.2 -103.0 L-234.4 -103.25 -234.2 -103.0 M-206.9 -77.3 L-207.6 -77.25 -206.2 -72.5 -205.9 -70.95 -205.35 -69.8 -206.0 -72.7 -206.9 -77.3 M-121.25 -90.7 L-120.0 -88.75 -121.15 -90.85 -121.25 -90.7 M-107.1 -60.25 Q-115.5 -66.1 -123.8 -76.0 -128.65 -81.75 -138.35 -94.25 -138.35 -95.75 -136.85 -96.5 L-136.45 -96.1 -136.35 -96.0 -133.85 -94.0 -135.9 -96.55 -136.0 -96.65 Q-136.85 -97.55 -136.85 -98.0 L-136.75 -99.0 Q-135.55 -98.5 -133.85 -98.5 -128.4 -98.5 -120.1 -102.15 -114.75 -95.7 -105.6 -77.5 L-92.35 -49.0 -92.6 -46.75 -92.6 -46.7 Q-92.65 -45.45 -92.3 -43.9 L-91.85 -42.0 Q-91.85 -40.95 -93.15 -38.25 L-95.35 -33.0 -95.85 -32.25 -98.6 -32.5 -98.7 -36.0 -98.85 -36.1 -100.1 -37.0 Q-98.6 -43.8 -102.1 -52.2 -103.3 -55.05 -105.25 -58.45 L-106.85 -59.75 -106.7 -60.05 -106.45 -60.5 -106.7 -60.95 -107.1 -60.25 M-94.3 -45.7 L-94.8 -45.55 -94.7 -45.2 -94.3 -45.7" fill="#000000" fill-opacity="0.050980393" fill-rule="evenodd" stroke="none"/>
    <path d="M-162.6 -180.5 L-163.1 -179.75 -163.15 -179.75 -162.6 -180.5" fill="url(#gradient25)" fill-rule="evenodd" stroke="none"/>
    <path d="M-354.3 -157.25 Q-351.9 -152.65 -350.8 -151.4 -348.45 -148.75 -344.85 -148.75 -340.4 -148.75 -337.8 -146.0 -336.4 -144.5 -334.1 -139.85 -332.0 -135.55 -330.0 -133.75 -326.85 -131.0 -321.6 -131.0 -301.85 -131.0 -301.85 -135.0 -301.85 -135.65 -305.7 -140.2 -309.6 -144.7 -309.6 -146.6 -309.6 -165.75 -296.85 -165.75 -294.7 -165.75 -289.2 -163.75 L-283.85 -161.75 Q-282.2 -161.75 -280.85 -163.45 -279.85 -164.8 -279.85 -165.5 L-282.35 -170.95 Q-284.85 -176.3 -284.85 -179.0 -284.85 -181.55 -280.35 -185.05 -275.5 -188.75 -270.85 -188.75 -255.6 -188.75 -248.1 -181.3 -242.85 -176.1 -242.85 -170.0 -242.85 -163.0 -246.35 -157.2 -249.85 -151.4 -249.85 -146.0 -249.85 -141.6 -244.55 -136.4 -239.65 -131.6 -233.4 -131.5 L-231.85 -132.75 Q-224.85 -132.75 -224.85 -128.35 -224.85 -127.1 -225.85 -124.95 -226.85 -122.85 -226.85 -121.6 -226.85 -114.95 -225.9 -112.3 -223.45 -105.5 -215.0 -105.5 -213.2 -105.5 -208.6 -106.75 L-208.45 -106.55 -208.35 -108.25 Q-208.35 -108.5 -209.35 -108.55 -210.8 -109.1 -212.35 -111.5 L-212.6 -113.75 Q-213.35 -114.4 -211.7 -114.45 -211.25 -115.0 -209.85 -115.0 -205.2 -115.0 -202.65 -110.75 -200.85 -107.85 -200.85 -105.5 -200.85 -100.9 -202.6 -99.45 -203.8 -98.5 -210.75 -95.5 L-210.35 -94.7 -210.35 -92.6 Q-210.35 -90.1 -213.9 -87.75 -218.35 -84.75 -225.6 -84.75 -238.8 -84.75 -244.1 -90.95 -247.45 -94.85 -249.0 -104.6 -250.65 -114.75 -253.25 -118.3 -257.8 -124.5 -269.75 -124.5 -270.85 -124.5 -274.6 -123.25 -274.3 -121.35 -268.3 -110.45 -262.6 -100.05 -262.6 -96.25 -262.6 -90.4 -266.65 -88.3 -271.1 -86.0 -284.35 -86.0 -297.25 -86.0 -300.1 -89.5 L-301.55 -91.9 Q-302.3 -93.0 -304.35 -93.0 -305.6 -93.0 -313.05 -89.6 -320.5 -86.25 -328.1 -86.25 -335.8 -86.25 -339.7 -96.05 -342.35 -102.7 -342.35 -109.5 -355.15 -112.7 -360.05 -114.9 L-363.35 -116.25 Q-371.7 -116.25 -373.05 -112.95 L-373.6 -110.3 Q-373.95 -108.8 -375.1 -108.25 -380.85 -107.6 -384.2 -122.5 -386.6 -133.05 -386.6 -141.1 -386.6 -146.25 -386.2 -147.25 -385.15 -150.0 -381.0 -150.95 -382.1 -152.15 -382.1 -153.0 -382.1 -156.35 -378.35 -160.5 -373.7 -165.75 -366.85 -165.75 -361.75 -165.75 -358.6 -163.1 -356.45 -161.3 -354.3 -157.25" fill="url(#gradient26)" fill-rule="evenodd" stroke="none"/>
    <path d="M-163.15 -179.75 Q-166.35 -181.9 -166.35 -183.85 L-166.35 -184.75 -163.85 -190.75 Q-160.25 -196.75 -154.85 -196.75 -149.4 -196.75 -145.2 -190.6 L-142.55 -186.4 Q-141.3 -184.5 -140.35 -184.5 -139.4 -184.5 -137.8 -185.75 L-134.85 -188.15 Q-130.75 -191.2 -127.35 -189.0 -129.4 -195.0 -122.55 -199.4 -116.6 -203.25 -109.35 -203.25 -101.5 -203.25 -97.65 -196.95 -96.45 -194.95 -95.8 -192.55 L-95.35 -190.35 -95.4 -187.55 Q-93.95 -186.95 -91.35 -185.25 -87.15 -182.5 -83.35 -182.5 -81.35 -182.5 -80.8 -183.95 -80.15 -185.6 -77.85 -186.0 -74.85 -183.2 -74.85 -182.5 -74.85 -181.0 -76.85 -178.8 -79.35 -176.0 -82.85 -176.0 -86.75 -176.0 -91.3 -178.5 L-95.85 -181.0 -96.8 -180.85 Q-98.45 -177.25 -101.85 -177.25 -103.4 -177.25 -104.6 -177.9 L-104.95 -178.1 Q-107.5 -178.55 -110.25 -181.1 -111.95 -182.7 -113.25 -184.25 -117.75 -184.25 -120.15 -181.95 -121.6 -180.55 -123.15 -176.85 -124.7 -173.2 -126.1 -171.8 -128.45 -169.5 -132.85 -169.5 -138.25 -169.5 -140.0 -173.8 -140.85 -175.95 -140.85 -180.5 L-141.0 -180.5 Q-141.85 -180.5 -142.55 -180.85 -150.1 -179.05 -153.05 -183.45 L-155.05 -187.15 Q-156.15 -189.0 -157.75 -189.0 -159.05 -189.0 -160.45 -188.25 -160.8 -186.1 -162.6 -180.5 L-163.15 -179.75 M-146.15 -186.5 L-146.45 -186.05 -145.7 -185.5 -146.15 -186.5" fill="url(#gradient27)" fill-rule="evenodd" stroke="none"/>
    <path d="M249.25 -111.85 Q248.8 -112.7 248.8 -117.75 248.8 -122.35 249.35 -123.5 251.05 -126.9 257.8 -127.0 256.55 -130.75 256.55 -134.85 256.55 -138.3 259.3 -142.8 262.95 -148.75 268.55 -148.75 278.25 -148.75 282.2 -143.85 284.9 -140.5 285.7 -133.0 286.6 -124.35 287.6 -122.15 289.8 -117.25 296.55 -117.25 302.35 -117.25 305.85 -120.8 L311.4 -128.6 Q315.05 -133.9 319.75 -136.45 326.45 -140.0 337.55 -140.0 341.7 -140.0 344.4 -137.6 347.1 -135.25 348.05 -135.25 L356.55 -135.5 Q354.0 -141.6 347.45 -150.9 343.3 -156.75 343.3 -164.0 343.3 -168.15 346.8 -171.5 351.5 -176.0 360.55 -176.0 369.15 -176.0 373.25 -170.55 374.35 -178.65 381.85 -184.0 393.1 -192.0 417.05 -192.0 447.95 -192.0 461.6 -171.0 466.1 -164.05 468.2 -155.5 469.55 -150.05 469.55 -146.25 467.3 -133.2 464.4 -125.7 465.05 -125.25 465.05 -123.85 465.05 -118.15 459.1 -111.5 452.45 -104.0 444.55 -104.0 435.8 -104.0 431.8 -109.45 429.35 -112.85 427.55 -121.5 425.65 -130.35 423.5 -133.55 419.8 -139.0 411.55 -139.0 397.05 -139.0 392.8 -132.8 391.45 -130.75 391.25 -128.15 L391.3 -125.25 Q391.3 -119.9 396.3 -112.45 401.3 -105.0 401.3 -101.25 401.3 -97.7 394.05 -90.75 386.0 -83.0 379.05 -83.0 369.3 -83.0 363.25 -86.75 358.95 -89.45 355.45 -95.0 L350.25 -103.25 Q347.1 -107.0 342.3 -107.0 334.85 -107.0 330.3 -101.55 327.05 -97.6 327.05 -94.75 327.05 -93.5 328.05 -90.4 329.05 -87.35 329.05 -86.1 329.05 -83.35 325.05 -79.0 320.65 -74.25 316.55 -74.25 310.2 -74.25 307.4 -77.55 305.9 -79.3 304.3 -84.75 302.8 -89.85 300.55 -91.95 297.1 -95.25 289.55 -95.25 285.75 -95.25 283.6 -92.75 282.05 -90.95 282.05 -89.35 282.05 -86.7 284.95 -82.2 287.8 -77.7 287.8 -75.1 287.8 -74.0 283.3 -69.5 284.0 -68.45 285.45 -63.5 286.8 -58.7 286.8 -57.85 286.8 -53.15 281.55 -47.0 L278.45 -43.9 Q273.15 -39.5 266.55 -39.5 259.85 -39.5 256.5 -41.25 254.8 -42.15 253.5 -43.9 L252.65 -45.1 Q250.85 -48.05 249.5 -49.0 246.95 -50.75 241.55 -50.75 233.6 -50.75 229.8 -58.25 227.55 -62.75 227.55 -66.5 227.55 -67.15 229.05 -70.2 230.55 -73.25 230.55 -74.75 230.55 -75.75 225.55 -81.5 223.35 -81.5 220.75 -78.05 L219.4 -76.05 Q220.1 -75.2 220.55 -73.75 L219.3 -71.5 Q215.25 -71.5 214.15 -74.45 213.8 -75.4 213.8 -78.25 213.8 -80.35 223.85 -86.55 234.7 -93.25 241.55 -93.25 244.75 -93.25 246.15 -90.1 247.0 -88.2 247.6 -83.25 248.2 -78.2 248.95 -76.35 250.25 -73.25 253.3 -73.25 262.8 -73.25 264.8 -80.6 264.8 -84.4 258.7 -91.25 252.55 -98.1 252.55 -99.75 252.55 -100.5 256.3 -104.25 249.75 -111.0 249.25 -111.85 M217.55 -79.75 L217.35 -78.7 218.15 -79.95 217.55 -79.75 M375.85 -161.55 L375.3 -161.5 375.3 -161.25 375.85 -161.55" fill="url(#gradient28)" fill-rule="evenodd" stroke="none"/>
    <path d="M264.75 99.75 L264.65 99.6 264.75 99.5 264.75 99.75 M271.2 107.2 L272.25 107.25 272.75 107.25 273.85 110.25 271.2 107.2" fill="#000000" fill-opacity="0.34117648" fill-rule="evenodd" stroke="none"/>
    <path d="M77.0 -23.0 Q80.0 -23.0 86.25 -16.1 86.25 -14.45 85.0 -13.5 84.05 -12.75 83.0 -12.75 77.7 -12.75 75.25 -15.85 73.75 -17.7 73.75 -19.25 73.75 -23.0 77.0 -23.0 M100.25 -15.5 L99.75 -14.45 Q99.35 -14.0 97.75 -14.0 94.9 -14.0 92.05 -17.6 89.75 -20.55 89.75 -21.5 89.75 -23.15 90.3 -23.6 L92.0 -24.25 100.25 -16.25 100.25 -15.5 M98.8 -9.95 Q99.2 -10.5 101.0 -10.5 102.7 -10.5 103.75 -8.3 104.5 -6.7 104.5 -5.5 L103.0 -3.5 Q99.6 -3.8 98.8 -5.2 98.5 -5.7 98.5 -7.5 98.5 -9.5 98.8 -9.95 M114.75 -15.25 L114.75 -14.5 114.0 -13.25 Q112.1 -14.15 110.9 -15.05 L110.0 -15.0 Q107.45 -15.0 105.0 -17.8 103.0 -20.05 103.0 -20.75 103.0 -21.5 103.25 -22.25 L103.45 -22.8 105.0 -23.0 Q106.8 -23.0 109.3 -20.25 L110.95 -18.25 111.5 -18.25 Q113.35 -18.25 114.75 -15.25 M109.0 -4.25 Q109.95 -4.25 112.8 -1.8 L116.5 1.5 Q116.5 3.0 115.0 4.5 111.8 3.4 109.4 1.65 106.75 -0.25 106.75 -1.75 L107.0 -3.75 107.25 -4.0 109.0 -4.25 M236.75 -58.5 Q238.5 -61.25 239.5 -61.25 247.75 -58.6 249.25 -54.0 L249.45 -52.3 Q249.5 -51.75 248.0 -51.75 241.2 -51.75 239.1 -53.55 238.1 -54.4 236.75 -58.5 M250.75 -57.1 L248.25 -59.5 Q248.5 -60.95 248.8 -61.3 249.3 -62.0 251.0 -62.0 253.75 -62.0 255.0 -57.0 255.5 -56.0 253.0 -56.0 252.0 -56.0 250.75 -57.1 M379.0 -76.85 L375.25 -76.5 Q368.85 -76.5 363.05 -80.25 358.25 -83.35 358.25 -84.85 358.25 -90.5 367.5 -90.5 371.35 -90.5 376.65 -86.95 381.95 -83.45 384.0 -79.5 382.75 -77.6 379.0 -76.85 M358.0 -27.75 L383.75 -0.25 383.25 2.75 Q382.25 3.5 379.75 3.5 374.3 3.5 363.75 -10.2 360.35 -14.7 357.0 -19.75 354.25 -23.95 354.25 -24.25 354.25 -25.4 355.3 -26.5 356.45 -27.75 358.0 -27.75 M350.2 -20.25 L352.0 -20.5 Q353.0 -20.5 357.7 -16.3 362.65 -11.95 363.25 -10.0 L362.0 -7.75 Q360.8 -8.05 355.4 -12.0 349.5 -16.3 349.5 -17.75 L349.75 -20.0 350.2 -20.25 M376.75 19.0 L375.45 20.65 Q374.6 21.75 374.0 21.75 370.8 21.75 367.5 19.75 364.0 17.65 364.0 15.25 364.0 12.0 367.0 12.0 367.8 12.0 371.9 14.7 376.3 17.6 376.75 19.0 M359.5 167.0 Q359.5 163.5 363.0 163.5 369.1 163.5 376.75 173.75 375.85 176.5 372.0 176.5 369.45 176.5 364.25 171.9 359.5 167.65 359.5 167.0 M338.55 165.15 Q338.95 164.75 340.5 164.75 346.05 164.75 356.35 173.4 364.4 180.2 368.0 185.0 367.25 188.0 365.0 188.0 360.7 188.0 350.1 178.85 341.05 171.05 337.75 166.5 L338.55 165.15 M228.75 54.75 L230.9 54.5 234.1 64.2 232.65 64.4 232.75 64.75 234.25 64.6 240.6 83.8 240.55 83.8 Q238.9 85.0 238.45 86.0 L232.3 79.1 235.9 98.85 213.8 75.0 214.0 74.65 226.5 72.5 220.75 66.05 222.75 65.85 222.55 65.5 222.45 65.5 220.55 65.75 220.45 65.75 212.3 56.5 220.95 55.6 223.1 57.95 229.4 57.45 228.75 54.75 M192.85 62.15 L200.25 60.35 206.9 78.7 192.85 62.15 M250.0 65.15 L251.65 70.05 Q245.95 76.3 245.55 77.6 L239.8 70.95 246.55 70.6 244.1 67.1 250.0 65.15 M211.5 160.5 Q211.5 161.0 209.0 161.0 207.55 161.0 205.85 159.55 204.3 158.25 204.0 157.25 L204.05 155.85 Q204.4 155.0 206.0 155.0 209.0 155.0 211.5 160.0 L211.5 160.5 M245.25 106.1 Q245.25 102.75 248.0 102.75 248.6 102.75 253.0 106.7 257.85 111.0 258.25 113.0 258.5 114.25 256.0 114.25 252.1 114.25 248.3 110.25 L245.25 106.1 M247.25 123.0 L249.0 122.75 Q250.75 122.75 254.25 127.75 L253.9 129.15 Q253.45 130.0 251.85 130.0 248.0 130.0 247.0 127.7 246.75 127.1 246.75 125.1 L247.0 123.25 247.25 123.0 M260.5 116.5 Q264.85 116.5 279.75 138.0 279.75 141.75 276.5 141.75 273.2 141.75 264.55 131.15 256.5 121.3 256.5 120.25 256.5 116.5 260.5 116.5 M130.0 45.0 Q131.3 45.0 132.8 47.15 L135.0 50.75 134.5 52.25 134.0 53.0 Q129.05 51.6 127.25 46.75 127.85 45.0 130.0 45.0 M149.25 63.75 L149.5 64.5 Q144.05 61.1 143.5 60.0 L143.5 59.75 144.25 59.75 Q145.8 59.75 147.3 60.95 148.75 62.15 149.25 63.75 M46.0 44.0 Q50.75 44.0 57.0 54.25 L56.75 55.0 Q50.3 53.95 46.4 51.35 43.0 49.05 43.0 46.75 43.0 46.0 43.5 44.5 L46.0 44.0 M28.0 48.0 Q29.15 48.0 31.35 51.3 33.5 54.5 33.5 56.0 L33.35 57.05 Q33.1 57.5 31.5 57.5 28.95 57.5 27.0 54.4 25.5 52.0 25.5 51.0 25.5 49.0 25.8 48.55 26.2 48.0 28.0 48.0 M7.75 57.75 Q3.8 55.0 2.25 52.25 2.25 51.5 2.75 50.75 2.0 50.5 4.5 50.5 5.85 50.5 8.75 55.75 L7.75 57.75 M-366.6 -36.85 Q-366.6 -36.25 -368.35 -33.5 -370.15 -30.75 -370.6 -30.75 L-378.1 -31.75 -373.6 -36.35 Q-370.9 -39.1 -368.85 -39.25 L-366.95 -38.8 Q-366.6 -38.55 -366.6 -36.85 M-369.1 -29.0 Q-366.2 -30.25 -357.85 -30.25 L-353.55 -29.65 Q-351.15 -29.05 -350.6 -28.5 -350.1 -29.5 -350.1 -27.0 -350.1 -26.55 -350.25 -26.15 L-349.85 -26.25 -348.05 -24.75 -340.55 -29.9 Q-332.0 -36.0 -324.85 -42.25 -321.85 -41.45 -321.85 -38.35 -321.85 -36.7 -323.15 -34.65 -316.85 -43.05 -315.15 -43.9 L-314.85 -44.0 -313.9 -43.9 Q-312.55 -43.6 -311.65 -42.2 -310.85 -41.0 -310.85 -40.1 -310.85 -36.7 -318.3 -28.65 -325.2 -21.15 -327.85 -20.25 L-330.6 -23.0 Q-330.6 -24.5 -324.4 -32.95 -327.95 -28.7 -336.4 -23.0 -350.6 -13.5 -357.85 -13.5 L-359.3 -13.75 Q-364.65 -11.25 -366.85 -11.25 -371.25 -11.25 -370.6 -15.1 -370.6 -19.05 -360.85 -22.8 L-364.35 -22.75 Q-369.65 -22.75 -370.85 -24.35 L-371.1 -26.25 Q-371.1 -28.15 -369.1 -29.0 M-240.85 -44.0 L-240.05 -43.9 -239.15 -43.75 Q-238.65 -43.65 -238.45 -43.0 L-242.0 -43.05 -241.05 -43.9 -240.85 -44.0 M-92.85 -7.25 Q-91.6 -6.75 -90.6 -5.25 L-90.6 3.0 -91.1 4.25 Q-94.15 3.85 -94.9 1.05 -95.1 0.2 -95.1 -3.1 -95.1 -5.7 -92.85 -7.25 M-71.1 -4.0 L-69.85 -4.5 Q-67.15 -2.7 -65.85 -1.0 -66.3 0.4 -67.85 1.0 -71.35 0.0 -71.35 -2.85 L-71.1 -4.0 M-98.1 14.25 Q-101.2 13.65 -102.0 10.2 L-103.35 4.5 -103.2 3.95 -101.35 3.75 Q-100.05 3.75 -98.7 7.8 -97.65 11.0 -97.35 13.5 L-98.1 14.25 M-117.6 24.5 L-116.85 26.0 -117.25 27.3 Q-117.75 28.0 -119.35 28.0 L-121.35 27.5 Q-121.6 27.15 -122.15 26.85 -122.6 26.4 -122.6 24.85 -122.6 23.3 -121.7 23.2 L-120.85 23.25 -117.6 24.5 M-113.6 15.85 L-113.5 14.1 Q-113.0 12.85 -110.85 13.25 -108.3 15.25 -108.1 16.75 L-109.85 18.75 -113.1 18.5 Q-113.6 18.35 -113.6 15.85 M-127.1 26.05 Q-126.6 26.2 -126.6 27.75 -126.6 29.15 -134.85 39.0 L-137.1 39.0 Q-137.45 38.65 -137.9 38.7 -138.1 38.6 -138.1 37.1 -138.1 35.5 -134.7 31.1 -131.3 26.7 -129.35 25.75 L-127.6 26.25 -127.1 26.05 M-65.25 101.1 Q-65.25 99.55 -64.1 99.1 -63.0 98.9 -63.0 98.75 -59.75 101.7 -59.75 103.75 -59.75 107.15 -62.0 108.75 -65.25 102.25 -65.25 101.1 M-22.0 163.0 Q-19.85 164.45 -18.7 168.65 L-17.25 174.75 Q-17.75 176.2 -19.75 176.5 -24.25 171.05 -24.25 166.0 -24.25 163.55 -22.0 163.0" fill="#000000" fill-opacity="0.2" fill-rule="evenodd" stroke="none"/>
    <path d="M-88.85 -160.0 Q-80.35 -150.45 -80.35 -137.0 -80.35 -123.55 -88.85 -114.05 -97.35 -104.5 -109.35 -104.5 -121.35 -104.5 -129.85 -114.05 -138.35 -123.55 -138.35 -137.0 -138.35 -150.45 -129.85 -160.0 -121.35 -169.5 -109.35 -169.5 -97.35 -169.5 -88.85 -160.0" fill="url(#gradient29)" fill-rule="evenodd" stroke="none"/>
    <path d="M246.2 44.6 L243.2 44.6 243.2 50.85 246.2 50.85 246.2 44.6 M249.7 42.85 L249.7 39.1 246.7 39.1 246.7 42.85 249.7 42.85 M235.4 57.35 L248.1 20.75 254.85 58.2 247.35 57.85 246.6 54.3 246.65 53.6 242.85 53.45 242.85 54.15 242.25 57.65 235.4 57.35 M252.2 52.6 L249.45 52.6 249.45 55.35 252.2 55.35 252.2 52.6" fill="url(#gradient30)" fill-rule="evenodd" stroke="none"/>
    <path d="M249.7 42.85 L246.7 42.85 246.7 39.1 249.7 39.1 249.7 42.85 M252.2 52.6 L252.2 55.35 249.45 55.35 249.45 52.6 252.2 52.6 M212.95 48.1 L212.95 51.35 209.95 51.35 209.95 48.1 212.95 48.1 M199.7 66.1 L197.45 66.1 197.45 63.6 199.7 63.6 199.7 66.1 M226.2 55.6 L229.7 55.6 229.7 58.6 226.2 58.6 226.2 55.6" fill="#d3ca78" fill-rule="evenodd" stroke="none"/>
    <path d="M246.2 44.6 L246.2 50.85 243.2 50.85 243.2 44.6 246.2 44.6 M215.45 47.35 L215.45 43.6 218.45 43.6 218.45 47.35 215.45 47.35 M215.2 39.35 L216.45 39.35 216.45 41.35 215.2 41.35 215.2 39.35 M220.9 62.8 L231.5 63.85 231.55 64.2 230.05 64.05 232.05 70.75 225.5 70.3 228.05 63.85 220.85 63.15 220.9 62.8 M226.7 48.35 L226.7 51.1 224.7 51.1 224.7 48.35 226.7 48.35 M197.45 59.6 L197.45 62.1 195.7 62.1 195.7 59.6 197.45 59.6 M222.95 61.85 L220.7 61.85 220.7 60.1 222.95 60.1 222.95 61.85" fill="#2c2621" fill-rule="evenodd" stroke="none"/>
    <path d="M254.85 58.2 L255.0 58.95 247.5 58.6 247.35 57.85 254.85 58.2 M242.15 58.3 L235.2 57.95 235.4 57.35 242.25 57.65 242.15 58.3" fill="url(#gradient31)" fill-rule="evenodd" stroke="none"/>
    <path d="M247.5 58.6 L248.5 63.45 241.55 61.6 242.15 58.3 242.25 57.65 242.85 54.15 242.85 53.45 246.65 53.6 246.6 54.3 247.35 57.85 247.5 58.6" fill="url(#gradient32)" fill-rule="evenodd" stroke="none"/>
    <path d="M215.2 39.35 L215.2 41.35 216.45 41.35 216.45 39.35 215.2 39.35 M215.45 47.35 L218.45 47.35 218.45 43.6 215.45 43.6 215.45 47.35 M212.95 48.1 L209.95 48.1 209.95 51.35 212.95 51.35 212.95 48.1 M222.9 49.15 L219.2 56.2 207.4 54.45 207.0 54.1 216.25 31.5 222.9 49.15" fill="url(#gradient33)" fill-rule="evenodd" stroke="none"/>
    <path d="M226.25 42.35 L228.2 41.95 233.05 63.95 231.5 63.85 220.9 62.8 218.8 62.6 221.05 56.5 219.2 56.2 222.9 49.15 223.3 50.25 226.25 42.35 M226.7 48.35 L224.7 48.35 224.7 51.1 226.7 51.1 226.7 48.35 M222.95 61.85 L222.95 60.1 220.7 60.1 220.7 61.85 222.95 61.85 M226.2 55.6 L226.2 58.6 229.7 58.6 229.7 55.6 226.2 55.6 M220.85 63.15 L228.05 63.85 225.5 70.3 224.6 72.5 215.45 71.65 218.65 62.9 218.75 62.9 220.75 63.15 220.85 63.15 M232.05 70.75 L230.05 64.05 231.55 64.2 233.1 64.35 235.15 73.55 232.85 73.3 232.05 70.75" fill="url(#gradient34)" fill-rule="evenodd" stroke="none"/>
    <path d="M228.2 41.95 L226.25 42.35 227.55 38.8 228.2 41.95" fill="url(#gradient35)" fill-rule="evenodd" stroke="none"/>
    <path d="M197.45 59.6 L195.7 59.6 195.7 62.1 197.45 62.1 197.45 59.6 M199.7 66.1 L199.7 63.6 197.45 63.6 197.45 66.1 199.7 66.1 M193.0 66.3 L198.1 50.6 201.35 68.0 193.0 66.3" fill="url(#gradient36)" fill-rule="evenodd" stroke="none"/>
    <path d="M39.4 -17.8 Q39.4 -16.3 37.5 -13.05 L34.05 -13.3 33.8 -15.4 34.3 -20.15 38.7 -20.4 Q39.4 -20.15 39.4 -17.8 M50.7 -26.0 L52.4 -25.8 53.05 -25.05 53.3 -24.3 52.35 -23.0 49.75 -23.0 49.4 -22.8 Q49.0 -22.95 49.0 -24.45 L49.05 -25.7 49.5 -25.65 49.3 -25.85 50.7 -26.0 M270.45 -53.2 Q270.95 -52.75 270.95 -51.15 270.95 -49.55 266.0 -47.85 262.9 -49.85 262.9 -50.55 262.9 -54.15 268.85 -53.75 L270.45 -53.2 M288.8 -7.6 Q288.8 -9.95 291.25 -9.85 L293.65 -8.9 Q292.65 -5.4 289.0 -4.35 288.8 -5.2 288.8 -7.6 M301.95 -3.9 Q302.3 -5.2 302.3 -2.85 L302.2 -1.9 301.75 -1.15 299.95 -0.95 298.65 -1.3 Q297.9 -0.45 297.9 -2.85 297.9 -5.2 299.8 -4.6 L301.95 -3.9 M401.65 -56.65 Q401.1 -57.05 401.1 -58.65 401.1 -60.5 402.35 -62.2 403.5 -63.85 404.55 -63.85 406.25 -63.85 406.65 -63.25 406.95 -62.8 406.95 -60.9 406.95 -58.5 403.25 -56.15 L401.65 -56.65 M335.8 -5.9 Q335.8 -4.4 333.9 -2.85 332.25 -1.5 331.3 -1.5 329.0 -1.5 327.75 -2.85 327.75 -4.4 329.5 -6.95 331.3 -9.6 332.7 -9.6 335.55 -9.6 335.8 -5.9 M403.0 -37.5 Q402.6 -36.1 399.45 -36.1 398.5 -37.05 398.5 -38.95 L399.95 -39.4 Q402.65 -38.75 403.0 -37.5 M381.15 -32.05 Q381.15 -30.6 380.8 -30.15 L380.2 -29.55 379.75 -28.85 376.9 -29.05 376.4 -31.9 376.45 -33.3 376.9 -33.8 Q378.8 -33.8 378.8 -34.2 L380.8 -33.85 Q381.15 -33.65 381.15 -32.05 M362.05 16.6 L362.3 18.6 Q362.3 21.0 361.8 21.1 361.0 21.1 361.0 21.85 L358.15 21.45 Q357.65 21.1 357.65 18.75 L357.7 17.35 358.15 16.85 358.35 16.6 360.05 16.35 362.05 16.6 M332.7 147.45 Q332.35 148.75 330.8 149.35 L329.4 149.15 Q328.9 148.95 328.9 147.45 328.9 145.9 329.4 145.45 L330.8 144.95 Q332.0 145.35 332.7 147.45 M325.85 159.2 Q325.85 160.95 323.85 162.8 321.8 164.7 319.75 164.7 315.75 164.7 314.8 163.05 L314.65 161.25 Q314.65 159.45 317.45 157.35 320.1 155.3 321.9 155.3 324.05 155.3 325.15 157.1 325.85 158.25 325.85 159.2 M309.45 8.75 L309.4 10.15 Q309.1 10.05 308.95 10.3 L307.3 10.3 Q307.05 9.5 307.05 7.7 L308.75 7.45 Q309.45 6.4 309.45 8.75 M233.8 113.6 Q232.9 115.05 231.2 116.25 L228.55 113.6 Q228.55 110.7 231.2 111.15 233.15 112.4 233.8 113.6 M233.55 134.5 Q236.55 134.5 236.55 137.85 236.55 139.65 235.25 141.4 233.65 143.55 231.2 143.55 L228.1 143.05 Q227.6 143.3 227.6 140.95 227.6 139.3 230.3 136.8 232.7 134.5 233.55 134.5 M200.6 125.0 L201.15 125.85 201.4 128.0 199.25 128.95 Q196.7 127.4 196.15 125.85 L196.85 125.0 Q197.25 124.65 198.75 124.65 200.25 124.65 200.6 125.0 M183.45 164.2 L183.9 166.35 Q183.9 168.2 181.5 170.5 179.2 172.65 177.65 172.65 174.95 172.65 173.65 170.25 172.9 168.8 172.9 167.55 172.9 165.65 174.6 164.45 175.9 163.5 177.15 163.5 L183.45 164.2 M242.55 178.45 Q242.95 178.65 242.95 180.25 L242.7 182.0 Q242.15 182.0 241.5 183.2 L238.65 182.95 Q238.2 182.5 238.2 180.1 238.2 178.6 239.0 178.25 L240.55 178.1 242.55 178.45 M323.8 135.45 L323.55 137.15 Q324.75 137.6 322.4 137.6 318.9 137.6 317.15 136.8 L317.15 132.5 317.95 131.55 Q318.5 131.1 320.0 131.1 323.2 131.1 323.8 135.45 M282.5 169.05 Q283.1 169.25 283.1 170.75 283.1 172.1 281.45 173.65 279.95 175.0 279.15 175.0 L275.35 174.55 275.35 169.65 281.05 168.85 282.5 169.05 M291.25 161.1 L293.15 161.55 Q293.65 161.8 293.65 163.4 L293.55 165.15 Q293.75 165.85 291.4 165.85 L289.0 165.65 Q288.3 165.75 288.3 163.4 288.3 161.9 289.5 161.45 L291.25 161.1 M127.75 22.05 L129.65 22.4 Q130.15 22.65 130.15 24.2 L130.1 25.8 130.15 25.75 133.7 26.2 134.15 29.8 Q134.15 31.1 133.2 32.55 132.0 34.4 130.15 34.4 L126.35 33.95 Q126.1 33.45 126.1 31.1 L126.5 26.8 Q125.4 25.95 125.4 24.1 125.4 22.55 126.2 22.25 L127.75 22.05 M108.05 24.3 L107.1 26.2 104.95 26.0 Q104.25 26.95 104.25 24.55 104.25 23.05 104.85 22.75 L106.15 22.4 Q107.6 23.0 108.05 24.3 M86.45 13.4 Q86.9 13.35 86.9 14.8 86.9 16.25 86.65 16.3 L86.2 16.35 Q84.05 16.1 84.05 14.0 L85.95 13.75 86.45 13.4 M99.6 73.7 Q101.35 73.7 101.65 74.05 101.85 74.35 101.85 76.2 L101.75 78.45 99.6 79.3 Q97.25 77.1 97.25 76.35 97.25 74.5 97.55 74.15 97.9 73.7 99.6 73.7 M83.8 89.85 Q83.4 91.3 80.75 91.3 80.35 92.6 80.35 90.25 L80.6 88.9 81.7 88.7 83.8 89.85 M84.05 93.2 L84.3 92.85 Q84.55 92.8 84.55 94.25 L84.3 95.35 82.85 95.55 82.65 93.45 84.05 93.2 M110.85 79.15 Q110.55 80.0 109.0 80.0 L105.4 79.6 103.55 77.5 Q105.3 73.25 107.55 73.25 110.9 73.25 110.9 76.45 L110.85 79.15 M61.95 22.4 Q61.5 22.4 61.0 23.15 L58.9 23.15 Q58.85 23.0 58.4 22.9 58.15 22.85 58.15 21.45 L58.65 19.95 Q60.8 19.55 62.2 20.4 L61.95 22.4 M15.65 86.45 Q14.8 87.5 14.8 87.85 L13.15 87.6 Q12.55 88.55 12.55 86.2 12.55 85.5 12.9 84.3 L14.45 84.3 Q15.15 84.95 15.65 86.45 M48.8 88.55 L49.0 86.65 50.7 86.45 Q52.9 88.05 53.3 88.9 L52.35 90.8 49.5 90.6 Q48.8 90.95 48.8 88.55 M70.65 98.4 L69.55 99.6 Q68.4 99.0 68.4 97.95 69.95 97.95 70.65 98.4 M59.85 112.1 L60.3 114.45 60.05 116.95 Q61.5 117.65 59.1 117.65 L54.5 117.4 Q54.25 116.95 54.25 114.55 54.25 110.55 57.2 111.6 L59.85 112.1 M28.6 111.3 Q28.85 111.35 28.85 112.8 L28.1 114.35 26.0 114.1 Q25.65 113.4 25.65 111.35 L27.65 111.15 28.6 111.3 M154.1 132.85 Q154.1 134.35 152.45 137.35 150.5 140.95 148.4 140.95 144.2 140.95 141.7 138.35 139.75 136.35 139.75 134.4 139.75 132.8 144.2 130.15 148.15 127.75 148.9 127.75 153.9 127.75 154.1 132.85 M182.5 201.6 Q181.65 202.85 179.55 203.3 L177.95 202.95 Q177.4 202.75 177.4 201.25 177.4 199.95 178.05 199.55 178.85 199.05 181.65 199.0 181.65 199.5 182.5 201.6 M-340.2 -75.75 Q-340.45 -75.7 -340.45 -77.15 -340.45 -78.6 -340.1 -78.55 L-339.25 -78.45 -339.0 -78.45 Q-338.3 -77.75 -338.05 -77.05 L-339.95 -76.1 -340.2 -75.75 M-354.9 -78.85 L-354.9 -78.3 Q-354.8 -77.75 -356.25 -77.75 -359.8 -77.75 -361.8 -80.75 L-361.55 -83.35 -358.95 -83.8 Q-356.3 -83.8 -354.9 -78.85 M-352.9 -67.65 L-351.25 -67.05 Q-350.75 -66.5 -350.55 -65.75 -350.7 -65.2 -351.7 -64.55 -352.7 -63.85 -353.4 -63.85 L-355.3 -65.05 Q-355.3 -66.7 -352.9 -67.65 M-374.75 -79.05 Q-374.75 -80.95 -372.6 -80.95 -370.8 -79.4 -370.5 -77.5 L-371.2 -76.35 -374.05 -76.55 -374.4 -77.2 Q-374.75 -77.65 -374.75 -79.05 M-386.25 -77.3 Q-385.05 -76.75 -384.15 -75.4 -384.6 -73.7 -386.25 -73.0 L-388.15 -74.2 -388.25 -73.85 -388.4 -75.25 Q-388.4 -76.75 -387.7 -77.1 L-386.25 -77.3 M-398.25 -53.55 Q-398.25 -55.9 -397.3 -58.9 L-394.7 -59.1 -392.1 -58.65 Q-391.85 -58.65 -391.85 -56.25 -391.85 -51.35 -397.3 -52.1 L-397.75 -51.9 Q-398.25 -52.05 -398.25 -53.55 M-371.2 -69.35 L-367.85 -68.75 Q-367.25 -69.1 -367.25 -66.7 -367.25 -65.35 -367.4 -65.3 L-367.85 -64.8 -370.7 -64.35 -373.35 -64.8 -373.55 -66.95 Q-373.55 -68.75 -373.25 -69.05 L-371.2 -69.35 M-353.4 -13.05 Q-353.75 -11.75 -354.35 -11.25 L-356.35 -11.5 Q-357.05 -10.55 -357.05 -12.9 L-356.8 -14.7 -355.3 -14.95 Q-353.75 -14.35 -353.4 -13.05 M-273.95 -66.95 Q-273.3 -66.5 -272.75 -64.8 -273.25 -63.4 -275.35 -63.4 -275.7 -63.75 -276.3 -65.55 -275.8 -66.95 -273.95 -66.95 M-258.4 -53.55 L-258.95 -53.9 Q-259.55 -54.45 -259.55 -55.2 L-257.2 -54.7 -258.4 -53.55 M-253.65 -62.7 Q-251.35 -61.85 -251.35 -60.8 -252.15 -59.6 -254.45 -59.6 -255.3 -60.3 -255.3 -61.75 -253.65 -62.45 -253.65 -62.7 M-313.0 -65.55 L-311.95 -65.75 Q-310.4 -65.1 -310.05 -63.85 L-311.0 -61.95 -313.1 -62.2 -313.2 -62.15 Q-313.55 -61.1 -314.35 -59.8 -316.0 -57.2 -317.65 -57.2 -320.75 -57.2 -321.35 -58.75 -321.6 -59.55 -321.3 -60.55 -321.3 -62.1 -319.3 -64.35 -317.2 -66.7 -315.25 -66.7 -313.6 -66.7 -313.2 -66.1 L-313.0 -65.55 M-300.4 -16.5 Q-300.4 -15.05 -301.6 -13.75 -303.25 -12.05 -306.1 -12.55 -307.8 -15.15 -307.8 -16.85 -307.8 -17.3 -306.2 -19.1 -304.55 -20.9 -303.5 -21.6 -300.4 -18.5 -300.4 -16.5 M-228.35 -14.0 Q-226.85 -13.4 -226.2 -11.5 L-226.65 -10.05 -227.4 -9.7 -230.45 -9.35 Q-230.75 -9.7 -231.15 -9.6 -231.4 -9.7 -231.4 -11.15 L-229.85 -12.05 Q-228.35 -12.8 -228.35 -14.0 M-210.9 -21.25 Q-210.9 -19.1 -216.1 -16.6 -219.45 -17.05 -219.45 -20.05 -219.45 -22.7 -217.35 -24.0 -216.0 -24.8 -214.7 -24.8 -212.4 -24.8 -211.4 -23.0 L-210.9 -21.25 M-187.0 -30.0 Q-187.4 -28.2 -188.8 -27.9 L-191.15 -28.1 Q-191.9 -28.35 -191.9 -29.9 -191.9 -32.3 -189.75 -32.15 -187.35 -31.85 -187.0 -30.0 M-153.65 -17.55 L-151.85 -17.25 -151.5 -16.35 -151.5 -14.95 -153.15 -14.25 -155.15 -14.25 Q-155.8 -14.4 -155.8 -15.9 -155.8 -17.5 -155.6 -17.6 L-153.65 -17.55 M-138.55 -4.85 Q-137.85 -4.15 -137.6 -3.4 L-138.3 -2.25 Q-140.45 -2.5 -140.45 -4.6 L-138.55 -4.85 M-122.0 -3.85 Q-121.85 -5.8 -118.85 -5.8 L-118.5 -5.5 Q-117.2 -5.35 -116.25 -3.85 -115.5 -2.6 -115.5 -1.9 -115.5 1.05 -119.8 1.75 -122.65 1.75 -123.95 -1.3 L-122.0 -3.85 M-130.15 -7.7 Q-130.15 -8.7 -129.3 -9.9 -128.5 -11.05 -127.75 -11.25 -125.85 -10.3 -125.85 -7.95 -126.6 -6.8 -127.75 -6.5 L-130.15 -7.7 M-50.45 82.4 Q-50.45 83.85 -50.75 84.1 L-51.4 84.55 -55.55 85.25 Q-56.25 84.75 -56.25 82.4 L-55.8 80.35 Q-53.4 80.35 -53.4 79.8 L-50.45 82.4 M-2.95 69.8 Q-2.95 72.55 -6.5 73.7 L-10.45 73.7 Q-10.9 73.6 -10.9 71.25 -10.9 68.9 -8.55 67.8 L-5.55 66.95 Q-2.95 69.15 -2.95 69.8 M-11.15 96.75 Q-6.85 96.75 -7.45 100.8 -8.75 107.55 -12.1 107.55 -14.15 107.55 -15.65 105.2 -16.85 103.4 -16.85 102.35 -16.85 100.6 -15.45 98.9 -13.75 96.75 -11.15 96.75 M-105.45 20.15 L-105.2 21.85 Q-105.2 23.6 -105.95 25.75 -106.85 28.35 -108.05 28.35 -112.35 28.35 -113.4 26.25 -113.95 25.15 -113.6 24.1 -113.6 22.35 -112.5 21.05 -111.0 19.25 -108.05 19.7 L-105.45 20.15 M-142.5 6.65 Q-142.5 8.1 -142.9 8.5 L-143.65 9.1 -145.35 9.35 Q-145.8 10.65 -145.8 8.3 -145.8 7.2 -143.2 5.55 -142.5 4.25 -142.5 6.65 M-157.1 2.7 Q-157.1 5.3 -161.6 6.5 L-163.15 6.3 Q-163.6 5.95 -164.2 5.8 -164.55 5.3 -164.55 2.95 -165.3 0.1 -160.65 0.35 L-157.1 2.7 M-159.7 23.35 Q-158.25 23.95 -157.8 25.25 -158.05 26.0 -159.0 27.4 L-161.85 26.45 Q-162.3 27.75 -162.3 25.4 -162.3 23.9 -161.35 23.55 L-159.7 23.35 M-124.2 69.35 L-125.15 71.1 -126.8 70.85 Q-127.5 71.8 -127.5 69.45 -127.5 67.95 -126.65 67.75 L-125.6 67.8 Q-124.65 68.6 -124.2 69.35 M-101.4 87.85 Q-101.4 89.8 -103.05 92.15 -104.95 94.85 -107.2 94.85 -111.35 94.85 -110.75 89.85 -110.75 88.1 -109.2 86.45 -107.4 84.55 -104.7 84.55 -101.4 84.55 -101.4 87.85 M-107.55 102.35 L-109.6 103.05 Q-109.8 104.35 -109.8 102.0 L-109.7 100.7 -109.45 100.9 -108.75 100.9 -107.55 102.35 M-147.25 111.7 Q-147.95 111.7 -148.4 113.05 -150.85 112.65 -151.75 111.3 L-152.45 109.25 -152.1 108.25 Q-151.8 107.8 -150.3 107.8 -148.9 107.8 -147.25 111.7 M-154.1 163.5 Q-154.25 164.2 -155.9 165.65 -158.05 165.4 -158.75 164.7 -159.0 165.65 -159.0 163.25 -159.0 161.8 -157.9 161.5 L-156.85 161.35 Q-154.5 161.65 -154.1 163.5 M-105.65 154.35 Q-105.65 156.1 -107.55 157.95 -109.15 159.45 -109.8 159.45 -114.0 159.45 -114.35 155.2 -114.35 153.95 -113.15 152.7 -111.6 151.05 -108.85 151.05 -105.65 151.05 -105.65 154.35 M-3.2 130.6 Q-1.7 130.6 -1.4 130.9 L-1.05 131.65 -0.8 132.5 Q-1.3 133.9 -2.7 134.3 L-4.95 134.1 Q-5.55 133.85 -5.55 132.25 L-5.1 130.85 Q-5.55 130.6 -3.2 130.6 M-55.1 173.1 Q-54.15 173.95 -54.15 174.55 -54.15 176.3 -58.15 179.9 -61.5 177.85 -61.5 177.15 -61.5 171.95 -58.65 171.95 -56.45 171.95 -55.1 173.1 M-10.05 177.65 Q-10.35 178.7 -12.1 178.95 -13.75 178.55 -13.75 176.3 L-11.6 176.2 -10.05 177.65 M-36.8 165.4 Q-38.7 165.1 -38.7 163.0 -37.6 162.0 -36.3 163.25 L-36.8 165.4 M-240.3 35.7 Q-240.15 35.9 -240.1 35.7 L-240.1 35.1 -238.65 34.9 Q-238.25 34.9 -234.15 37.5 L-233.9 39.65 -234.4 40.0 -236.3 40.35 Q-240.35 40.35 -240.35 37.05 L-240.3 35.7 M-215.85 59.85 L-215.85 57.95 -213.75 57.7 -212.55 59.1 -213.0 59.9 Q-213.65 60.55 -214.9 60.55 L-215.85 59.85 M-228.55 54.0 Q-228.1 53.4 -226.9 53.4 L-226.2 54.95 -226.65 55.65 Q-228.55 55.25 -228.55 54.0 M-223.6 83.1 Q-221.35 83.1 -220.05 85.5 -219.2 87.15 -219.2 88.2 -219.2 91.05 -223.1 91.05 L-225.95 90.6 Q-226.45 90.95 -226.45 88.55 -226.2 83.1 -223.6 83.1 M-193.8 53.75 Q-195.7 53.35 -195.7 52.1 -194.55 51.1 -193.3 52.35 L-193.8 53.75 M-309.9 29.35 Q-308.45 27.4 -306.85 27.4 -304.3 27.4 -303.3 29.3 L-302.8 31.35 Q-302.8 33.5 -304.0 35.6 -305.4 38.0 -307.3 38.0 -311.6 38.0 -311.2 32.15 -311.2 31.0 -309.9 29.35 M-319.4 46.9 Q-320.05 48.2 -321.3 48.8 L-322.75 48.3 Q-323.2 49.25 -323.2 46.9 -323.2 45.45 -322.25 45.15 L-321.3 45.0 Q-319.9 45.8 -319.4 46.9 M-320.0 80.5 Q-322.85 85.95 -323.2 85.95 -329.25 85.95 -329.15 80.85 -329.15 76.55 -324.15 76.55 -321.35 76.55 -320.4 78.45 L-320.0 80.5 M-267.3 68.75 Q-267.05 69.45 -267.05 70.85 L-267.75 72.05 Q-270.7 71.7 -272.25 70.15 L-272.1 68.45 Q-271.7 67.8 -270.15 67.8 -268.5 67.8 -267.3 68.75 M-255.75 104.25 Q-256.0 104.25 -257.45 104.95 L-259.1 103.75 Q-259.1 102.0 -257.45 101.65 -255.75 102.3 -255.75 104.25 M-244.15 113.4 L-243.85 113.85 Q-243.55 114.1 -243.55 115.5 -243.55 116.85 -243.7 116.95 L-244.15 117.65 -245.6 118.15 -248.15 118.6 -250.4 117.9 Q-250.65 118.15 -250.65 115.75 -250.65 112.4 -247.1 112.9 L-244.15 113.4 M-274.65 111.7 L-274.75 112.45 -277.15 113.6 -279.05 112.45 Q-279.05 110.75 -277.15 109.8 -274.8 110.75 -274.65 111.7 M-300.9 115.5 Q-301.15 115.5 -302.55 116.45 L-303.8 116.25 Q-304.2 116.05 -304.2 114.55 -304.2 113.1 -303.75 112.95 L-302.55 112.9 Q-300.9 113.6 -300.9 115.5 M-297.55 135.0 Q-298.25 136.4 -299.8 136.9 L-300.65 136.85 Q-300.9 136.8 -300.9 135.35 L-300.65 134.3 Q-299.8 134.3 -299.8 134.05 -298.3 134.3 -297.55 135.0 M-218.95 148.0 Q-218.5 148.9 -218.5 150.1 -218.5 152.3 -218.7 152.9 -219.15 153.9 -220.75 153.9 -227.15 153.9 -226.45 149.85 -226.45 146.05 -222.65 146.05 -219.95 146.05 -218.95 148.0 M-353.35 49.3 Q-352.9 50.3 -352.9 51.4 -352.9 52.75 -354.95 54.05 L-358.0 55.65 Q-361.1 53.6 -361.1 52.95 -361.1 50.9 -359.2 49.05 -357.5 47.35 -356.25 47.35 -354.2 47.35 -353.35 49.3 M-373.7 3.95 Q-373.35 4.0 -373.35 5.45 L-373.55 6.5 -374.05 7.2 -376.2 7.0 Q-376.65 7.95 -376.65 5.55 -376.65 4.1 -376.1 3.95 L-375.0 3.9 -373.7 3.95 M-348.4 94.6 Q-348.9 96.1 -349.6 96.75 L-351.7 96.75 Q-352.05 96.4 -352.45 96.5 -352.65 96.4 -352.65 95.0 -352.65 93.55 -351.6 93.05 L-350.55 92.7 Q-349.3 93.25 -348.4 94.6 M-360.6 111.5 Q-361.1 112.9 -361.8 113.6 L-363.95 113.6 Q-364.3 113.25 -364.7 113.35 -364.9 113.25 -364.9 111.85 -364.9 110.35 -363.8 109.9 L-362.75 109.7 Q-361.45 110.25 -360.6 111.5 M-378.65 111.7 L-380.35 111.5 -380.55 110.75 -378.65 109.8 -377.1 111.45 -378.65 111.7" fill="#000000" fill-opacity="0.2" fill-rule="evenodd" stroke="none"/>
  </g>
  <defs>
    <radialGradient cx="0" cy="0" fx="16.0" fy="0" gradientTransform="matrix(0.1111, 0.0, 0.0, 0.1111, 49.0, -41.0)" gradientUnits="userSpaceOnUse" id="gradient0" r="819.2" spreadMethod="pad">
      <stop offset="0.0" stop-color="#29404e" stop-opacity="0.47058824"/>
      <stop offset="1.0" stop-color="#4a7159" stop-opacity="0.67058825"/>
    </radialGradient>
    <radialGradient cx="0" cy="0" gradientTransform="matrix(-0.0195, 0.1132, -0.3661, -0.0632, -170.05, -114.05)" gradientUnits="userSpaceOnUse" id="gradient1" r="819.2" spreadMethod="pad">
      <stop offset="0.0" stop-color="#355b3d" stop-opacity="0.7529412"/>
      <stop offset="1.0" stop-color="#485a36" stop-opacity="0.93333334"/>
    </radialGradient>
    <radialGradient cx="0" cy="0" gradientTransform="matrix(0.3159, 0.0, 0.0, 0.3159, 226.05, -110.05)" gradientUnits="userSpaceOnUse" id="gradient2" r="819.2" spreadMethod="pad">
      <stop offset="0.0" stop-color="#3d544f" stop-opacity="0.5921569"/>
      <stop offset="1.0" stop-color="#304738" stop-opacity="0.9411765"/>
      <stop offset="1.0" stop-color="#304738" stop-opacity="0.77254903"/>
    </radialGradient>
    <radialGradient cx="0" cy="0" gradientTransform="matrix(0.0056, 0.2502, -0.6084, 0.0135, 10.0, 56.05)" gradientUnits="userSpaceOnUse" id="gradient3" r="819.2" spreadMethod="pad">
      <stop offset="0.0" stop-color="#8db564"/>
      <stop offset="0.9882352941176471" stop-color="#43523f"/>
    </radialGradient>
    <linearGradient gradientTransform="matrix(-0.0708, 0.1464, -0.0572, -0.0277, 110.85, 118.65)" gradientUnits="userSpaceOnUse" id="gradient4" spreadMethod="pad" x1="-819.2" x2="819.2">
      <stop offset="0.0" stop-color="#9dc1ef"/>
      <stop offset="1.0" stop-color="#708f55"/>
    </linearGradient>
    <linearGradient gradientTransform="matrix(0.0067, -0.0459, 0.1117, 0.0162, -45.15, 27.6)" gradientUnits="userSpaceOnUse" id="gradient5" spreadMethod="pad" x1="-819.2" x2="819.2">
      <stop offset="0.0" stop-color="#9dc1ef"/>
      <stop offset="1.0" stop-color="#708f55"/>
    </linearGradient>
    <radialGradient cx="0" cy="0" gradientTransform="matrix(0.1519, 0.0, 0.0, 0.1519, 337.95, -55.0)" gradientUnits="userSpaceOnUse" id="gradient6" r="819.2" spreadMethod="pad">
      <stop offset="0.0" stop-color="#8db564"/>
      <stop offset="0.9882352941176471" stop-color="#43523f"/>
    </radialGradient>
    <linearGradient gradientTransform="matrix(-0.0103, 0.0629, -0.0549, -0.009, 247.6, 10.35)" gradientUnits="userSpaceOnUse" id="gradient7" spreadMethod="pad" x1="-819.2" x2="819.2">
      <stop offset="0.0" stop-color="#3d492e"/>
      <stop offset="0.2196078431372549" stop-color="#4e3f32"/>
      <stop offset="0.5372549019607843" stop-color="#3f3027"/>
      <stop offset="0.9882352941176471" stop-color="#6f8c55"/>
    </linearGradient>
    <linearGradient gradientTransform="matrix(-0.0293, 0.0716, -0.1025, -0.042, 333.6, 79.5)" gradientUnits="userSpaceOnUse" id="gradient8" spreadMethod="pad" x1="-819.2" x2="819.2">
      <stop offset="0.0" stop-color="#566f44"/>
      <stop offset="0.2196078431372549" stop-color="#534335"/>
      <stop offset="0.5372549019607843" stop-color="#5f483a"/>
      <stop offset="0.9882352941176471" stop-color="#59704a"/>
    </linearGradient>
    <linearGradient gradientTransform="matrix(-0.0103, 0.0629, -0.0549, -0.009, 247.6, 10.35)" gradientUnits="userSpaceOnUse" id="gradient9" spreadMethod="pad" x1="-819.2" x2="819.2">
      <stop offset="0.0" stop-color="#3d492e"/>
      <stop offset="0.2196078431372549" stop-color="#3e3128"/>
      <stop offset="0.5372549019607843" stop-color="#241b17"/>
      <stop offset="0.9882352941176471" stop-color="#6f8c55"/>
    </linearGradient>
    <linearGradient gradientTransform="matrix(-0.0293, 0.0716, -0.1025, -0.042, 333.6, 79.5)" gradientUnits="userSpaceOnUse" id="gradient10" spreadMethod="pad" x1="-819.2" x2="819.2">
      <stop offset="0.0" stop-color="#566f44"/>
      <stop offset="0.2196078431372549" stop-color="#43342c"/>
      <stop offset="0.5372549019607843" stop-color="#392b24"/>
      <stop offset="0.9882352941176471" stop-color="#59704a"/>
    </linearGradient>
    <linearGradient gradientTransform="matrix(-0.0293, 0.0716, -0.1025, -0.042, 333.6, 79.5)" gradientUnits="userSpaceOnUse" id="gradient11" spreadMethod="pad" x1="-819.2" x2="819.2">
      <stop offset="0.0" stop-color="#566f44"/>
      <stop offset="0.2196078431372549" stop-color="#725949"/>
      <stop offset="0.5372549019607843" stop-color="#967061"/>
      <stop offset="0.9882352941176471" stop-color="#59704a"/>
    </linearGradient>
    <linearGradient gradientTransform="matrix(-0.0103, 0.0629, -0.0549, -0.009, 247.6, 10.35)" gradientUnits="userSpaceOnUse" id="gradient12" spreadMethod="pad" x1="-819.2" x2="819.2">
      <stop offset="0.0" stop-color="#3d492e"/>
      <stop offset="0.2196078431372549" stop-color="#4e3f32"/>
      <stop offset="0.5372549019607843" stop-color="#3f3027"/>
      <stop offset="0.7607843137254902" stop-color="#6f8c55"/>
    </linearGradient>
    <radialGradient cx="0" cy="0" gradientTransform="matrix(-0.1519, 0.0, 0.0, 0.1519, -331.45, -67.7)" gradientUnits="userSpaceOnUse" id="gradient13" r="819.2" spreadMethod="pad">
      <stop offset="0.0" stop-color="#8db564"/>
      <stop offset="0.9882352941176471" stop-color="#43523f"/>
    </radialGradient>
    <linearGradient gradientTransform="matrix(0.0293, 0.0716, 0.1025, -0.042, -327.1, 66.8)" gradientUnits="userSpaceOnUse" id="gradient14" spreadMethod="pad" x1="-819.2" x2="819.2">
      <stop offset="0.0" stop-color="#566f44"/>
      <stop offset="0.2196078431372549" stop-color="#43342c"/>
      <stop offset="0.5372549019607843" stop-color="#392b24"/>
      <stop offset="0.9882352941176471" stop-color="#59704a"/>
    </linearGradient>
    <linearGradient gradientTransform="matrix(0.0103, 0.0629, 0.0549, -0.009, -241.1, -2.35)" gradientUnits="userSpaceOnUse" id="gradient15" spreadMethod="pad" x1="-819.2" x2="819.2">
      <stop offset="0.0" stop-color="#3d492e"/>
      <stop offset="0.2196078431372549" stop-color="#4e3f32"/>
      <stop offset="0.5372549019607843" stop-color="#3f3027"/>
      <stop offset="0.7607843137254902" stop-color="#6f8c55"/>
    </linearGradient>
    <linearGradient gradientTransform="matrix(0.0103, 0.0629, 0.0549, -0.009, -241.1, -2.35)" gradientUnits="userSpaceOnUse" id="gradient16" spreadMethod="pad" x1="-819.2" x2="819.2">
      <stop offset="0.0" stop-color="#3d492e"/>
      <stop offset="0.2196078431372549" stop-color="#3e3128"/>
      <stop offset="0.5372549019607843" stop-color="#241b17"/>
      <stop offset="0.9882352941176471" stop-color="#6f8c55"/>
    </linearGradient>
    <linearGradient gradientTransform="matrix(0.0103, 0.0629, 0.0549, -0.009, -241.1, -2.35)" gradientUnits="userSpaceOnUse" id="gradient17" spreadMethod="pad" x1="-819.2" x2="819.2">
      <stop offset="0.0" stop-color="#3d492e"/>
      <stop offset="0.2196078431372549" stop-color="#4e3f32"/>
      <stop offset="0.5372549019607843" stop-color="#3f3027"/>
      <stop offset="0.9882352941176471" stop-color="#6f8c55"/>
    </linearGradient>
    <linearGradient gradientTransform="matrix(0.0293, 0.0716, 0.1025, -0.042, -327.1, 66.8)" gradientUnits="userSpaceOnUse" id="gradient18" spreadMethod="pad" x1="-819.2" x2="819.2">
      <stop offset="0.0" stop-color="#566f44"/>
      <stop offset="0.2196078431372549" stop-color="#534335"/>
      <stop offset="0.5372549019607843" stop-color="#5f483a"/>
      <stop offset="0.9882352941176471" stop-color="#59704a"/>
    </linearGradient>
    <linearGradient gradientTransform="matrix(0.0293, 0.0716, 0.1025, -0.042, -327.1, 66.8)" gradientUnits="userSpaceOnUse" id="gradient19" spreadMethod="pad" x1="-819.2" x2="819.2">
      <stop offset="0.0" stop-color="#566f44"/>
      <stop offset="0.2196078431372549" stop-color="#725949"/>
      <stop offset="0.5372549019607843" stop-color="#967061"/>
      <stop offset="0.9882352941176471" stop-color="#59704a"/>
    </linearGradient>
    <radialGradient cx="0" cy="0" gradientTransform="matrix(0.1635, 0.0, 0.0, 0.1172, -39.95, 51.0)" gradientUnits="userSpaceOnUse" id="gradient20" r="819.2" spreadMethod="pad">
      <stop offset="0.0" stop-color="#3c3ccc" stop-opacity="0.043137256"/>
      <stop offset="1.0" stop-color="#101a67" stop-opacity="0.8"/>
    </radialGradient>
    <radialGradient cx="0" cy="0" fx="-169.60000000000002" fy="0" gradientTransform="matrix(0.2125, 0.0, 0.0, 0.2125, 146.0, 96.0)" gradientUnits="userSpaceOnUse" id="gradient21" r="819.2" spreadMethod="pad">
      <stop offset="0.0" stop-color="#3c3ccc" stop-opacity="0.043137256"/>
      <stop offset="1.0" stop-color="#4545a0" stop-opacity="0.5411765"/>
    </radialGradient>
    <radialGradient cx="0" cy="0" gradientTransform="matrix(0.2125, 0.0, 0.0, 0.2125, 105.0, 136.0)" gradientUnits="userSpaceOnUse" id="gradient22" r="819.2" spreadMethod="pad">
      <stop offset="0.0" stop-color="#3c3ccc" stop-opacity="0.043137256"/>
      <stop offset="1.0" stop-color="#101a67" stop-opacity="0.8"/>
    </radialGradient>
    <linearGradient gradientTransform="matrix(0.0038, -0.1449, 0.1799, 0.0047, 19.1, 99.4)" gradientUnits="userSpaceOnUse" id="gradient23" spreadMethod="pad" x1="-819.2" x2="819.2">
      <stop offset="0.0" stop-color="#ffffff" stop-opacity="0.4627451"/>
      <stop offset="1.0" stop-color="#ffffff" stop-opacity="0.0"/>
    </linearGradient>
    <linearGradient gradientTransform="matrix(-0.0141, -0.2936, 0.0862, -0.0041, 92.85, 211.75)" gradientUnits="userSpaceOnUse" id="gradient24" spreadMethod="pad" x1="-819.2" x2="819.2">
      <stop offset="0.0" stop-color="#ffffff" stop-opacity="0.4627451"/>
      <stop offset="1.0" stop-color="#ffffff" stop-opacity="0.0"/>
    </linearGradient>
    <linearGradient gradientTransform="matrix(-0.0099, 0.1185, -0.4738, -0.0395, 5.3, -156.15)" gradientUnits="userSpaceOnUse" id="gradient25" spreadMethod="pad" x1="-819.2" x2="819.2">
      <stop offset="0.0" stop-color="#ffffff" stop-opacity="0.4627451"/>
      <stop offset="1.0" stop-color="#ffffff" stop-opacity="0.0"/>
    </linearGradient>
    <linearGradient gradientTransform="matrix(-0.0054, 0.0652, -0.1146, -0.0095, -292.65, -137.05)" gradientUnits="userSpaceOnUse" id="gradient26" spreadMethod="pad" x1="-819.2" x2="819.2">
      <stop offset="0.0" stop-color="#ffffff" stop-opacity="0.4627451"/>
      <stop offset="1.0" stop-color="#ffffff" stop-opacity="0.0"/>
    </linearGradient>
    <linearGradient gradientTransform="matrix(-0.0018, 0.0217, -0.0556, -0.0046, -120.35, -186.3)" gradientUnits="userSpaceOnUse" id="gradient27" spreadMethod="pad" x1="-819.2" x2="819.2">
      <stop offset="0.0" stop-color="#ffffff" stop-opacity="0.4627451"/>
      <stop offset="1.0" stop-color="#ffffff" stop-opacity="0.0"/>
    </linearGradient>
    <linearGradient gradientTransform="matrix(-0.008, 0.1, -0.1518, -0.0121, 341.95, -115.8)" gradientUnits="userSpaceOnUse" id="gradient28" spreadMethod="pad" x1="-819.2" x2="819.2">
      <stop offset="0.0" stop-color="#ffffff" stop-opacity="0.4627451"/>
      <stop offset="1.0" stop-color="#ffffff" stop-opacity="0.0"/>
    </linearGradient>
    <radialGradient cx="0" cy="0" gradientTransform="matrix(0.04, 0.0, 0.0, 0.04, -109.35, -137.0)" gradientUnits="userSpaceOnUse" id="gradient29" r="819.2" spreadMethod="pad">
      <stop offset="0.10196078431372549" stop-color="#ffffff"/>
      <stop offset="0.47058823529411764" stop-color="#fff280" stop-opacity="0.4117647"/>
      <stop offset="1.0" stop-color="#fff280" stop-opacity="0.0"/>
    </radialGradient>
    <linearGradient gradientTransform="matrix(8.0E-4, -0.0227, 0.0118, 4.0E-4, 245.75, 39.3)" gradientUnits="userSpaceOnUse" id="gradient30" spreadMethod="pad" x1="-819.2" x2="819.2">
      <stop offset="0.0" stop-color="#4e4732"/>
      <stop offset="1.0" stop-color="#dc944e"/>
    </linearGradient>
    <linearGradient gradientTransform="matrix(0.0, -0.0286, 0.0121, 0.0, 245.1, 44.2)" gradientUnits="userSpaceOnUse" id="gradient31" spreadMethod="pad" x1="-819.2" x2="819.2">
      <stop offset="0.0" stop-color="#4e4732"/>
      <stop offset="1.0" stop-color="#dc944e"/>
    </linearGradient>
    <linearGradient gradientTransform="matrix(2.0E-4, -0.006, 0.0043, 1.0E-4, 245.15, 58.4)" gradientUnits="userSpaceOnUse" id="gradient32" spreadMethod="pad" x1="-819.2" x2="819.2">
      <stop offset="0.0" stop-color="#4e4732"/>
      <stop offset="1.0" stop-color="#dc944e"/>
    </linearGradient>
    <linearGradient gradientTransform="matrix(5.0E-4, -0.015, 0.0096, 3.0E-4, 215.25, 43.8)" gradientUnits="userSpaceOnUse" id="gradient33" spreadMethod="pad" x1="-819.2" x2="819.2">
      <stop offset="0.0" stop-color="#4e4732"/>
      <stop offset="1.0" stop-color="#dc944e"/>
    </linearGradient>
    <linearGradient gradientTransform="matrix(7.0E-4, -0.0191, 0.012, 4.0E-4, 225.8, 57.5)" gradientUnits="userSpaceOnUse" id="gradient34" spreadMethod="pad" x1="-819.2" x2="819.2">
      <stop offset="0.0" stop-color="#4e4732"/>
      <stop offset="1.0" stop-color="#dc944e"/>
    </linearGradient>
    <linearGradient gradientTransform="matrix(-0.0047, -0.0422, 0.0379, -0.0041, 223.55, 58.35)" gradientUnits="userSpaceOnUse" id="gradient35" spreadMethod="pad" x1="-819.2" x2="819.2">
      <stop offset="0.0" stop-color="#4e4732"/>
      <stop offset="1.0" stop-color="#dc944e"/>
    </linearGradient>
    <linearGradient gradientTransform="matrix(0.0, -0.0106, 0.0051, 0.0, 197.15, 59.35)" gradientUnits="userSpaceOnUse" id="gradient36" spreadMethod="pad" x1="-819.2" x2="819.2">
      <stop offset="0.0" stop-color="#4e4732"/>
      <stop offset="1.0" stop-color="#dc944e"/>
    </linearGradient>
  </defs>
</svg>
