<?xml version="1.0" encoding="UTF-8" standalone="no"?>
<svg xmlns:ffdec="https://www.free-decompiler.com/flash" xmlns:xlink="http://www.w3.org/1999/xlink" ffdec:objectType="shape" height="111.5px" width="120.5px" xmlns="http://www.w3.org/2000/svg">
  <g transform="matrix(1.0, 0.0, 0.0, 1.0, -128.25, 64.25)">
    <path d="M146.1 -36.85 Q148.0 -43.85 150.25 -48.45 157.75 -64.25 172.5 -64.25 187.35 -64.25 197.05 -54.25 200.6 -50.6 202.7 -46.3 204.5 -42.65 204.5 -40.35 204.5 -37.75 202.15 -30.2 199.75 -22.6 199.75 -21.25 199.75 -20.9 202.0 -17.55 204.35 -14.0 205.0 -14.0 206.25 -14.0 210.25 -15.25 L215.5 -16.5 Q223.05 -16.5 223.55 -8.7 223.8 -4.75 222.5 -0.6 222.5 1.35 225.2 2.55 L231.15 4.45 Q239.75 7.0 239.75 12.35 L239.75 12.6 Q243.9 13.5 246.3 15.75 248.75 18.05 248.75 20.6 248.75 23.1 246.75 26.25 L244.5 26.25 245.25 21.0 Q245.25 19.5 242.05 17.75 240.75 17.05 239.5 16.65 239.4 17.75 237.0 17.75 235.3 17.05 233.65 16.05 L227.9 16.55 Q225.55 16.95 224.3 17.65 L222.45 18.75 219.5 19.25 Q215.95 19.25 214.05 18.0 L210.75 14.95 Q205.4 9.95 191.0 8.0 179.55 6.4 176.85 2.1 175.8 0.45 175.7 -2.2 L175.75 -7.1 Q175.75 -11.15 179.7 -16.7 L180.15 -17.4 Q184.5 -23.4 184.5 -24.35 182.25 -33.5 177.5 -33.5 169.65 -33.5 166.35 -30.1 164.3 -27.95 163.15 -22.6 162.0 -17.05 160.5 -15.15 157.8 -11.75 151.0 -11.75 140.8 -11.75 136.8 -16.2 135.75 -17.35 135.25 -18.7 132.25 -20.8 130.3 -25.8 128.95 -29.4 128.45 -33.1 L128.25 -34.6 Q128.25 -37.95 129.25 -41.0 130.8 -45.75 134.0 -45.75 136.75 -45.75 136.75 -42.25 134.0 -38.25 134.0 -36.25 L134.2 -34.0 134.8 -31.75 Q136.15 -28.0 139.0 -28.0 141.35 -28.0 144.4 -30.9 L146.1 -36.85" fill="url(#gradient0)" fill-rule="evenodd" stroke="none"/>
    <path d="M175.5 36.0 L169.75 36.25 170.0 38.85 Q170.0 45.25 162.0 45.25 144.5 45.25 144.5 33.85 144.5 31.75 146.1 30.3 146.8 29.65 149.65 28.0 154.95 24.85 155.5 19.75 155.25 18.5 152.75 18.5 150.3 18.5 148.2 20.4 146.1 22.25 143.0 22.25 135.1 22.25 134.75 16.9 134.65 15.2 135.3 13.1 L136.0 11.25 Q134.25 7.85 133.0 4.5 L133.25 4.25 135.0 4.0 Q141.1 4.0 142.0 14.25 L142.75 15.25 Q143.6 14.1 147.4 12.85 150.6 11.75 151.5 11.75 156.25 11.75 159.5 14.8 162.25 17.35 162.25 20.0 162.25 21.85 159.15 25.0 154.35 29.7 151.5 34.0 155.6 38.1 160.5 38.5 163.25 36.4 163.25 35.25 163.25 30.25 172.5 30.25 177.4 30.25 179.55 32.8 181.3 34.85 180.75 37.25 181.25 37.25 181.25 38.0 183.4 37.8 185.65 36.25 187.75 34.75 189.85 34.75 194.35 34.75 197.25 40.75 L196.5 46.0 Q196.5 46.75 196.0 47.25 195.5 46.75 194.45 41.75 193.6 37.75 190.75 37.75 188.15 37.75 186.9 40.0 185.65 42.25 181.0 42.25 177.5 42.25 176.6 39.15 L176.15 37.0 Q175.95 36.0 175.5 36.0" fill="url(#gradient1)" fill-rule="evenodd" stroke="none"/>
  </g>
  <defs>
    <radialGradient cx="0" cy="0" gradientTransform="matrix(0.1344, 0.0756, -0.0493, 0.0877, 234.0, 27.0)" gradientUnits="userSpaceOnUse" id="gradient0" r="819.2" spreadMethod="pad">
      <stop offset="0.0" stop-color="#b7aaa6" stop-opacity="0.8901961"/>
      <stop offset="1.0" stop-color="#b9b0a4" stop-opacity="0.0"/>
    </radialGradient>
    <radialGradient cx="0" cy="0" gradientTransform="matrix(0.0654, 0.0327, -0.0213, 0.0425, 193.0, 39.0)" gradientUnits="userSpaceOnUse" id="gradient1" r="819.2" spreadMethod="pad">
      <stop offset="0.0" stop-color="#b7aaa6" stop-opacity="0.8901961"/>
      <stop offset="1.0" stop-color="#b9b0a4" stop-opacity="0.0"/>
    </radialGradient>
  </defs>
</svg>
