<?xml version="1.0" encoding="UTF-8" standalone="no"?>
<svg xmlns:ffdec="https://www.free-decompiler.com/flash" xmlns:xlink="http://www.w3.org/1999/xlink" ffdec:objectType="shape" height="27.1px" width="18.4px" xmlns="http://www.w3.org/2000/svg">
  <g transform="matrix(1.0, 0.0, 0.0, 1.0, 8.75, 18.1)">
    <path d="M7.95 -15.4 L7.95 -12.0 7.75 -11.4 7.25 -11.05 6.65 -11.05 3.65 -11.65 Q1.25 -11.6 -0.2 -9.2 L-0.2 -9.15 -0.6 -8.4 0.45 -8.5 Q3.2 -8.5 4.75 -6.95 6.05 -6.4 6.9 -5.2 9.65 -2.7 9.65 0.75 9.65 4.15 7.35 6.6 L7.3 6.6 Q4.9 9.0 1.7 9.0 -1.35 9.0 -3.4 7.25 -5.7 6.1 -7.1 3.3 -8.75 -0.05 -8.75 -4.75 -8.75 -10.1 -6.2 -13.7 -3.25 -18.1 2.2 -18.1 3.6 -18.1 5.8 -17.35 L6.3 -16.95 6.45 -16.6 7.3 -16.35 7.8 -15.95 7.95 -15.4 M1.9 -2.0 Q0.85 -2.0 -0.2 -1.3 L-1.25 -0.25 Q-1.1 1.15 -0.3 2.45 L-0.25 2.5 0.25 2.55 Q1.15 2.55 1.85 1.8 2.6 0.95 2.6 -0.3 2.6 -1.3 2.25 -1.95 L1.9 -2.0" fill="#000000" fill-rule="evenodd" stroke="none"/>
  </g>
</svg>
