<?xml version="1.0" encoding="UTF-8" standalone="no"?>
<svg xmlns:ffdec="https://www.free-decompiler.com/flash" xmlns:xlink="http://www.w3.org/1999/xlink" ffdec:objectType="shape" height="508.7px" width="804.65px" xmlns="http://www.w3.org/2000/svg">
  <g transform="matrix(1.0, 0.0, 0.0, 1.0, 410.85, 260.95)">
    <path d="M-169.95 -50.95 L-166.75 -49.95 Q-152.7 -45.55 -146.75 -42.8 -137.55 -38.55 -136.65 -34.1 -135.3 -26.9 -131.6 -15.95 -127.6 -4.05 -124.3 1.35 L-115.15 16.4 -115.1 16.45 -112.15 21.25 -110.6 23.65 Q-102.55 36.35 -95.7 45.45 -90.2 52.7 -85.15 58.15 -70.05 74.5 -58.85 74.5 L-55.65 74.15 Q-51.5 83.8 -44.1 98.15 L-44.05 98.2 Q-38.05 109.85 -29.95 124.55 L-19.25 138.6 -29.75 132.25 -43.65 123.3 Q-56.2 114.75 -61.6 108.9 -70.3 99.5 -90.4 78.65 L-98.1 70.65 -108.85 59.75 -117.05 49.0 -120.35 44.6 -127.85 34.6 Q-142.95 14.0 -152.5 -2.65 -162.1 -19.25 -166.1 -31.9 L-168.45 -43.65 -169.95 -50.95 M-325.3 -15.65 L-326.4 -12.1 Q-326.4 6.7 -310.9 46.0 L-304.85 60.75 -304.95 60.65 -309.35 56.65 Q-313.0 58.55 -315.05 63.2 -316.9 67.45 -315.95 69.55 -312.9 71.1 -312.25 71.25 L-306.9 71.75 Q-303.55 71.75 -303.4 70.4 -303.85 69.0 -303.6 69.0 L-303.1 67.35 -303.05 64.95 Q-294.45 84.6 -286.55 97.9 -279.8 109.15 -267.55 126.1 -253.5 145.6 -239.5 162.2 -202.2 206.5 -185.9 206.5 -182.45 206.5 -182.45 205.7 L-183.15 204.85 Q-199.1 193.45 -223.2 165.0 -246.75 137.2 -269.3 103.55 -293.1 68.0 -307.3 38.5 -323.1 5.55 -323.1 -12.35 L-322.9 -15.65 -325.3 -15.65 M-345.7 -150.4 L-348.35 -156.15 Q-354.65 -170.25 -357.45 -181.9 -346.55 -172.35 -335.6 -170.8 -326.8 -150.55 -304.95 -110.65 L-304.9 -110.55 -304.7 -110.15 Q-276.75 -59.15 -265.35 -41.25 -259.1 -31.45 -245.4 -13.1 L-237.6 -2.85 Q-245.55 -9.95 -261.8 -28.8 L-269.45 -37.85 Q-287.35 -59.35 -303.85 -82.4 -331.75 -121.25 -345.7 -150.4 M31.4 173.25 L32.5 174.95 18.85 161.65 18.95 161.15 17.5 160.3 Q-3.45 138.8 -19.8 115.95 -27.95 104.55 -34.6 93.3 -27.85 98.0 -20.2 99.7 L-19.35 99.85 -12.35 100.65 Q-5.35 116.6 3.05 132.25 18.95 161.85 31.4 173.25 M155.3 71.65 L157.3 64.6 Q153.2 71.05 146.95 82.35 L144.1 87.45 141.6 92.05 124.15 123.5 Q101.35 162.85 79.45 183.4 L86.05 184.5 Q112.1 155.75 130.85 124.35 147.55 96.4 155.3 71.65 M91.85 81.1 Q90.3 83.25 89.0 87.15 87.2 92.55 86.0 101.3 82.9 123.3 82.2 126.2 80.9 132.2 73.05 152.9 65.7 172.15 65.7 173.8 65.7 176.35 66.2 177.25 L66.6 177.65 69.4 178.2 69.55 178.2 70.35 177.15 Q74.8 170.45 84.7 142.4 95.7 111.3 95.7 103.1 95.7 88.8 91.85 81.1 M279.3 82.1 Q290.65 53.45 301.4 36.3 288.1 53.15 274.15 79.55 L262.7 101.7 Q255.85 115.0 250.6 123.95 235.8 149.4 217.95 168.25 195.6 191.9 163.35 211.2 L161.15 208.15 Q160.05 209.8 160.05 211.2 L162.55 213.55 Q163.95 214.7 166.65 215.05 204.0 195.5 227.55 172.05 246.85 152.85 259.9 127.55 265.8 116.1 279.3 82.1 M269.25 -155.45 L269.95 -156.1 Q278.75 -164.1 299.2 -179.3 312.55 -189.2 339.95 -217.95 L355.7 -234.95 353.65 -134.45 Q353.65 -97.45 368.75 51.15 372.65 87.75 374.8 145.0 L377.35 217.1 356.1 217.8 166.75 220.05 67.1 221.25 -58.0 222.75 Q-89.75 222.75 -186.3 219.55 L-186.35 219.55 -193.75 219.3 -334.65 213.4 -369.45 208.6 -393.65 205.15 Q-395.7 217.25 -398.75 217.25 -404.4 217.25 -405.45 207.5 L-405.65 203.75 -405.6 200.65 -405.35 197.15 Q-405.35 180.15 -404.85 176.65 -403.6 167.35 -398.7 163.2 L-396.55 161.7 Q-390.75 167.15 -390.75 168.55 L-390.85 175.4 -390.2 175.45 Q-386.85 175.45 -385.85 174.35 -385.5 173.25 -385.25 173.25 L-384.7 169.1 Q-389.1 92.1 -389.1 86.6 -389.1 49.55 -386.6 11.85 -382.1 -56.0 -381.4 -70.1 L-374.2 -142.1 -373.2 -151.8 Q-370.7 -177.1 -369.3 -194.7 L-368.65 -193.9 Q-367.75 -180.4 -355.2 -153.1 L-353.65 -149.7 -352.45 -147.2 -352.45 -147.1 -352.4 -147.05 Q-338.25 -117.35 -317.35 -85.05 -294.35 -49.55 -273.4 -26.8 -256.55 -8.55 -244.4 -2.4 L-245.85 -1.65 Q-247.2 -0.4 -247.2 3.3 -247.2 6.8 -246.6 7.6 L-244.75 9.05 Q-241.65 9.05 -239.3 8.25 L-237.6 7.4 -236.5 4.1 Q-236.5 2.0 -237.8 0.1 L-235.4 0.55 -235.2 0.2 Q-219.8 19.95 -204.45 37.0 -142.15 106.15 -103.95 106.15 L-100.35 105.95 Q-100.65 105.35 -100.1 104.5 L-102.1 103.25 Q-151.8 71.95 -191.75 29.95 L-194.15 27.4 Q-210.75 9.6 -226.65 -11.2 -238.5 -26.75 -249.95 -44.0 -263.3 -64.1 -293.05 -116.55 L-293.3 -116.95 -292.7 -116.75 Q-281.1 -112.2 -255.55 -104.7 L-217.15 -93.25 Q-198.85 -87.25 -196.6 -83.85 -192.55 -77.5 -189.3 -65.45 L-194.95 -66.25 Q-200.45 -66.25 -199.9 -65.15 -197.65 -61.05 -187.5 -56.95 L-187.2 -56.85 -186.4 -52.8 Q-181.65 -28.7 -177.65 -20.05 -172.95 -10.05 -164.8 4.25 L-164.75 4.35 -159.9 12.7 Q-146.7 34.95 -133.15 54.25 L-129.9 58.8 Q-119.95 76.3 -110.15 89.15 -104.7 96.35 -98.6 103.2 -88.2 115.0 -75.95 125.85 -60.15 139.9 -41.25 152.35 -39.85 151.65 -39.05 150.55 L-38.5 149.6 -52.7 136.8 Q-24.7 159.55 2.6 163.6 15.5 177.4 25.0 184.55 L25.6 185.0 Q35.3 192.2 41.25 192.2 44.0 192.2 45.15 191.05 56.25 202.1 67.1 202.1 72.6 202.1 69.55 200.45 69.05 199.65 69.4 198.6 70.1 196.7 70.1 193.85 L68.0 190.15 61.9 179.8 58.6 174.25 Q62.35 165.1 66.8 147.5 73.4 121.5 73.4 112.2 L71.6 102.8 Q78.75 102.2 83.85 91.9 L86.25 86.35 86.3 86.25 88.0 80.55 Q89.45 77.95 95.5 74.6 98.4 72.95 107.65 68.65 121.95 61.95 123.75 58.0 L128.25 59.5 Q118.25 89.65 118.25 90.75 118.25 94.2 119.35 94.45 119.9 94.6 120.45 94.05 125.7 87.55 130.1 79.85 L132.95 74.55 Q138.5 63.75 142.55 50.75 145.4 41.65 148.35 28.9 L152.9 8.5 Q157.95 -12.35 169.2 -28.25 177.5 -39.9 190.65 -50.6 L203.5 -60.65 201.3 -51.65 Q195.3 -27.45 185.9 6.45 176.15 41.7 166.35 74.9 L166.35 74.95 160.05 95.95 Q160.05 99.3 160.9 99.4 L163.35 99.55 Q180.95 68.75 207.6 -50.05 207.6 -55.1 208.25 -60.1 L208.95 -64.8 209.3 -65.1 Q217.25 -72.05 217.25 -78.35 217.25 -78.8 215.35 -80.45 L213.75 -81.9 Q221.05 -100.8 237.15 -119.55 L239.4 -122.2 245.2 -128.6 Q247.2 -113.7 247.2 -111.35 247.2 -100.65 245.5 -88.0 243.8 -75.4 240.35 -60.85 235.7 -41.35 225.2 -8.5 215.2 22.7 211.4 36.1 L211.35 36.2 210.1 40.65 Q203.2 66.1 203.2 81.4 203.2 85.6 203.4 86.5 203.65 87.45 204.85 88.25 209.25 86.05 209.55 86.05 213.3 67.9 222.15 39.2 L238.15 -11.55 Q251.5 -55.35 255.75 -86.5 L255.75 -86.75 Q257.55 -100.25 257.65 -111.35 L257.65 -112.45 256.55 -129.8 Q256.05 -137.2 258.2 -141.95 L258.35 -142.25 261.2 -145.15 Q266.8 -151.15 269.25 -155.45 M-42.35 55.55 Q-21.7 57.75 -17.25 65.35 -16.2 67.1 -15.1 71.8 -14.15 75.85 -12.35 77.8 -11.05 79.2 -8.45 83.75 L-3.6 91.75 -3.55 91.8 -3.1 93.3 Q-13.7 77.25 -14.0 77.25 -19.5 77.25 -18.95 78.35 L-19.45 80.0 -19.5 83.3 -17.4 88.55 Q-29.7 76.85 -39.15 62.8 L-43.4 56.2 -42.35 55.55 M-90.75 130.65 Q-92.1 132.6 -92.1 134.45 -92.1 142.05 -82.75 143.25 L-78.75 139.2 Q-76.15 136.05 -76.15 133.1 -76.15 129.85 -76.7 128.75 L-77.25 127.3 -83.85 126.2 Q-88.6 127.45 -90.75 130.65 M-73.4 14.55 Q-69.9 36.2 -62.0 54.95 L-74.55 41.75 Q-91.75 23.4 -102.4 8.6 L-100.85 9.05 Q-88.75 12.7 -73.4 14.55" fill="url(#gradient0)" fill-rule="evenodd" stroke="none"/>
    <path d="M304.4 -129.95 Q304.95 -128.35 305.0 -126.3 L304.95 -124.3 Q304.95 -120.85 302.2 -116.05 299.4 -111.1 297.0 -111.1 289.15 -111.1 285.5 -116.0 283.25 -118.95 283.25 -121.55 283.25 -124.45 287.7 -129.5 292.45 -135.0 296.45 -135.0 302.65 -135.0 304.4 -129.95 M237.6 -167.75 Q238.15 -166.1 238.15 -164.45 L235.4 -161.15 230.45 -161.15 228.75 -162.2 Q228.25 -162.65 228.25 -166.1 228.25 -169.45 230.75 -170.15 L233.2 -170.5 237.6 -167.75 M197.7 -111.6 Q197.15 -112.25 197.15 -115.5 197.15 -119.45 198.4 -120.3 199.35 -121.0 203.75 -121.0 207.3 -121.0 208.8 -119.4 209.35 -118.8 210.1 -116.6 210.1 -113.05 207.05 -110.0 L198.25 -110.55 197.7 -111.6 M176.0 -19.65 L179.85 -20.05 Q186.2 -20.05 198.15 5.3 203.85 17.35 213.4 41.8 L212.85 43.45 Q214.2 45.1 208.7 45.1 202.15 45.1 190.85 20.95 182.4 2.9 175.45 -18.4 176.0 -18.95 176.0 -19.65 M226.6 -28.3 Q227.15 -26.65 227.15 -25.0 L224.4 -21.7 219.45 -21.7 Q218.1 -22.4 217.75 -22.75 217.25 -23.2 217.25 -26.65 217.25 -30.0 219.75 -30.7 L222.2 -31.05 226.6 -28.3 M321.45 -41.25 Q321.45 -38.05 321.1 -37.1 L320.35 -34.65 318.7 -33.25 Q317.05 -31.9 313.75 -31.9 310.45 -31.9 309.35 -32.65 308.25 -33.8 306.6 -34.65 L306.05 -41.25 Q306.05 -44.05 307.75 -46.2 309.85 -48.95 313.75 -48.95 318.45 -48.95 320.4 -45.4 321.45 -43.45 321.45 -41.25 M364.95 26.2 Q362.55 30.8 357.2 30.8 349.25 30.8 346.0 22.15 344.95 19.4 344.55 16.05 L344.3 12.9 Q344.3 1.9 354.2 1.9 360.95 1.9 364.4 10.4 366.55 15.7 366.55 19.5 366.55 23.2 364.95 26.2 M328.6 20.05 Q328.6 16.0 329.45 15.25 330.2 14.55 334.4 14.55 337.85 14.55 338.6 15.3 L339.9 17.3 Q340.45 14.3 340.45 19.8 340.45 23.65 339.5 24.2 L334.4 24.45 330.0 23.35 Q329.65 23.9 329.3 23.75 328.6 23.5 328.6 20.05 M342.85 83.3 Q344.35 82.75 347.6 82.75 353.15 82.75 354.75 86.15 355.3 87.35 355.3 90.2 L355.25 93.5 Q354.9 94.1 354.75 95.15 L353.6 96.55 Q352.05 97.9 348.7 97.9 344.15 97.9 341.6 93.95 339.9 91.25 339.9 89.35 339.9 86.05 340.05 85.8 L341.0 83.85 342.85 83.3 M357.55 167.8 Q361.6 161.7 368.2 161.7 374.25 161.7 376.5 167.8 377.65 170.9 377.55 174.35 377.55 183.4 366.0 183.4 354.75 183.4 354.75 174.35 354.75 172.05 357.55 167.8 M334.55 165.8 Q336.05 168.55 336.05 171.6 336.05 181.5 323.95 181.5 315.45 181.5 313.25 177.25 312.65 176.15 312.65 172.4 312.65 166.5 316.55 163.3 319.85 160.6 324.75 160.6 331.7 160.6 334.55 165.8 M267.55 82.3 Q266.2 80.55 265.65 78.45 265.35 77.3 265.35 76.45 265.35 62.4 279.95 62.4 289.6 62.4 292.05 68.0 293.3 70.85 292.6 74.25 292.6 77.95 290.9 81.7 288.1 87.7 282.15 87.7 271.8 87.7 267.55 82.3 M320.35 84.95 Q320.35 87.5 317.2 91.3 313.95 95.15 311.55 95.15 306.2 95.15 304.5 90.1 303.85 88.1 303.85 84.4 303.85 81.7 306.15 79.5 308.5 77.25 311.55 77.25 320.35 77.25 320.35 84.95 M179.45 31.1 L190.55 56.65 190.55 57.75 Q183.4 49.6 176.6 34.1 169.15 15.8 164.45 6.3 L166.1 5.75 Q172.3 14.8 179.45 31.1 M160.6 105.6 Q159.45 105.6 158.35 106.2 157.3 106.8 157.3 107.25 151.5 104.75 149.6 103.35 147.65 101.95 147.65 100.1 147.65 95.75 154.55 92.95 161.7 98.4 161.7 99.8 161.7 105.3 160.6 105.6 M111.1 137.2 L108.9 141.6 103.95 141.05 Q103.55 141.6 103.15 141.45 102.3 141.2 102.3 137.75 L102.35 134.5 Q102.7 134.2 102.85 133.35 106.7 133.35 106.7 132.8 110.1 134.15 111.1 137.2 M-331.7 -104.2 Q-330.2 -105.05 -326.95 -105.05 -319.8 -105.05 -319.8 -98.15 -319.8 -94.95 -321.4 -92.4 -323.4 -89.35 -326.95 -89.35 -332.15 -89.35 -333.6 -93.15 -334.1 -94.4 -334.1 -97.6 -334.1 -100.1 -333.55 -103.4 -333.2 -103.4 -331.7 -104.2 M-324.7 -37.45 Q-323.85 -35.55 -323.4 -33.2 L-323.1 -31.05 Q-323.1 -27.4 -324.75 -24.5 -326.95 -20.6 -331.35 -20.6 -337.75 -20.6 -339.45 -28.35 -340.3 -32.2 -339.9 -36.3 -339.9 -39.15 -338.3 -41.2 -336.5 -43.45 -333.55 -43.45 -327.5 -43.45 -324.7 -37.45 M-265.4 -55.4 L-263.15 -55.0 Q-259.6 -39.4 -255.5 -17.05 L-248.6 20.9 Q-239.95 66.9 -229.9 96.8 L-231.55 98.45 Q-242.7 89.55 -255.05 30.8 -260.05 7.05 -263.25 -16.25 -266.45 -39.35 -266.45 -51.7 -266.45 -55.2 -265.4 -55.4 M-247.2 -35.2 L-245.85 -35.2 Q-240.25 -11.15 -228.5 30.5 -217.3 70.15 -212.45 88.3 -209.8 90.7 -209.8 91.3 -209.8 96.8 -210.35 96.25 L-210.35 96.8 -210.6 96.25 Q-212.35 96.45 -213.65 99.0 L-219.7 95.0 Q-221.65 93.45 -221.65 91.85 -221.65 90.9 -218.6 89.5 -215.6 88.15 -215.6 85.5 L-214.55 86.4 Q-220.8 69.95 -230.65 38.5 -247.2 -14.45 -247.2 -32.45 L-247.2 -35.2 M-173.6 -58.2 L-172.15 -58.3 Q-165.4 -58.3 -162.9 -53.1 -161.7 -50.6 -161.7 -47.3 -161.7 -45.45 -163.35 -42.4 -165.8 -37.95 -169.95 -37.95 L-170.7 -37.95 -161.45 22.6 Q-153.15 75.85 -149.3 105.05 L-149.3 105.6 Q-153.7 82.8 -162.05 30.05 -168.85 -13.0 -173.5 -38.25 -178.25 -39.3 -179.8 -43.15 -180.85 -45.75 -180.4 -48.95 -180.4 -52.55 -179.85 -53.9 -178.7 -56.95 -175.45 -57.85 L-175.45 -59.4 -173.8 -59.4 -173.6 -58.2 M-41.25 61.6 Q-40.15 61.45 -40.15 64.9 -40.15 68.2 -40.7 68.4 L-42.9 69.0 -44.55 69.0 Q-46.75 66.8 -46.75 64.05 -45.9 62.4 -42.35 62.4 -41.8 61.65 -41.25 61.6 M-26.1 96.2 Q-25.55 97.1 -25.0 99.0 -25.0 102.3 -28.3 105.6 L-34.65 105.05 Q-34.65 104.7 -35.2 104.0 -35.75 103.35 -35.75 100.1 L-35.6 96.85 Q-35.0 96.55 -34.65 95.7 L-34.2 95.15 Q-33.8 94.6 -30.5 94.6 -27.05 94.6 -26.1 96.2 M-127.85 25.55 Q-127.85 36.85 -129.5 61.3 -129.5 78.95 -123.5 123.55 -116.6 174.55 -116.05 182.3 -133.9 149.15 -133.9 90.75 -130.6 46.75 -129.5 25.55 L-127.85 25.55 M-146.0 45.65 Q-139.6 45.65 -137.8 50.85 -137.2 52.5 -137.2 56.65 -137.2 59.25 -139.0 63.05 -141.0 67.35 -143.25 67.35 -151.85 67.35 -154.05 61.85 -154.75 60.15 -154.7 58.05 L-154.55 56.35 Q-154.55 51.9 -152.65 49.05 -150.4 45.65 -146.0 45.65 M-47.85 129.5 L-47.9 132.8 Q-48.25 133.4 -48.4 134.45 -48.95 134.45 -54.45 137.2 L-59.9 132.45 Q-61.05 131.2 -61.05 129.5 -61.05 128.75 -60.0 128.35 L-57.75 127.6 Q-54.45 126.3 -54.45 121.8 L-49.7 125.95 Q-47.85 127.9 -47.85 129.5 M-73.55 170.95 Q-74.3 181.15 -75.6 187.8 L-77.25 187.8 Q-77.25 185.4 -78.05 179.9 -78.9 174.4 -78.9 171.6 -78.9 160.05 -78.5 158.1 -77.35 152.75 -72.3 155.1 L-73.55 170.95 M-249.5 115.6 Q-247.95 120.65 -247.75 126.2 -247.75 127.75 -249.5 131.2 -251.75 135.55 -254.35 135.55 -267.75 135.55 -272.55 126.75 -274.95 122.35 -274.7 117.95 -274.7 114.2 -271.45 110.55 -267.05 105.6 -259.3 105.6 -252.6 105.6 -249.5 115.6 M-270.3 142.7 Q-266.8 142.7 -265.7 144.3 L-264.8 147.1 Q-264.8 150.15 -268.1 153.45 L-274.7 152.9 -275.1 151.85 Q-275.55 151.2 -275.55 147.95 L-275.45 144.85 Q-275.0 144.8 -274.7 143.8 L-274.15 143.25 Q-273.6 142.7 -270.3 142.7 M-178.8 121.45 Q-179.3 121.3 -179.3 117.95 L-178.75 113.85 -173.25 112.75 -169.4 113.85 -167.2 117.15 -168.3 120.45 -170.0 121.15 -177.1 121.8 Q-177.9 121.15 -178.8 121.45" fill="#000000" fill-opacity="0.13333334" fill-rule="evenodd" stroke="none"/>
    <path d="M149.75 -18.25 Q152.4 -27.85 165.55 -42.9 172.45 -50.75 188.4 -64.4 L208.15 -81.55 Q211.75 -99.35 211.75 -106.95 211.75 -111.65 237.1 -140.6 L242.75 -147.0 Q241.7 -155.3 241.7 -157.0 241.7 -160.0 298.65 -210.35 355.3 -260.4 357.5 -260.4 L360.95 -259.95 Q363.05 -260.95 366.0 -260.95 387.65 -260.95 389.7 -134.0 390.75 -70.45 387.45 -6.6 387.45 2.1 388.45 10.95 L390.65 27.35 Q393.8 51.2 393.8 81.65 L391.75 143.05 Q389.65 206.15 389.65 217.25 389.65 227.25 389.15 230.55 387.75 240.35 382.5 240.35 L379.5 239.6 Q377.35 240.5 374.6 241.25 361.45 244.8 327.05 246.2 296.15 247.45 228.3 247.7 L62.4 247.75 Q30.35 247.75 -31.15 246.4 L-191.65 240.95 Q-358.95 232.8 -398.55 218.5 -410.85 214.05 -410.85 209.0 -410.85 204.95 -410.15 204.3 -409.55 203.75 -405.65 203.75 L-405.45 207.5 Q-404.4 217.25 -398.75 217.25 L-398.05 217.1 Q-395.5 215.85 -393.65 205.15 L-369.45 208.6 -334.65 213.4 -193.75 219.3 -186.35 219.55 -186.3 219.55 Q-89.75 222.75 -58.0 222.75 L67.1 221.25 166.75 220.05 356.1 217.8 Q369.75 217.8 377.45 220.3 L377.35 217.1 374.8 145.0 Q372.65 87.75 368.75 51.15 353.65 -97.45 353.65 -134.45 L355.7 -234.95 339.95 -217.95 Q312.55 -189.2 299.2 -179.3 278.75 -164.1 269.95 -156.1 L269.25 -155.45 Q266.8 -151.15 261.2 -145.15 L258.35 -142.25 258.2 -141.95 Q256.05 -137.2 256.55 -129.8 L257.65 -112.45 Q257.65 -75.45 238.15 -11.55 L222.15 39.2 Q213.3 67.9 209.55 86.05 209.25 86.05 204.85 88.25 203.65 87.45 203.4 86.5 203.2 85.6 203.2 81.4 203.2 66.1 210.1 40.65 213.25 28.85 225.2 -8.5 235.7 -41.35 240.35 -60.85 247.2 -89.9 247.2 -111.35 247.2 -113.7 245.2 -128.6 L239.4 -122.2 237.15 -119.55 Q221.05 -100.8 213.75 -81.9 L215.35 -80.45 Q217.25 -78.8 217.25 -78.35 217.25 -72.05 209.3 -65.1 L208.95 -64.8 Q207.6 -57.45 207.6 -50.05 180.95 68.75 163.35 99.55 L160.9 99.4 Q160.05 99.3 160.05 95.95 L166.35 74.95 166.35 74.9 Q176.15 41.7 185.9 6.45 197.15 -33.95 203.5 -60.65 L190.65 -50.6 Q177.5 -39.9 169.2 -28.25 157.95 -12.35 152.9 8.5 L148.35 28.9 Q145.4 41.65 142.55 50.75 138.5 63.75 132.95 74.55 L130.1 79.85 Q125.7 87.55 120.45 94.05 119.9 94.6 119.35 94.45 118.25 94.2 118.25 90.75 118.25 89.65 128.25 59.5 L129.65 55.25 Q142.4 16.7 146.55 0.8 147.65 -3.5 148.35 -9.6 149.0 -15.45 149.75 -18.25 M301.4 36.3 Q290.65 53.45 279.3 82.1 265.8 116.1 259.9 127.55 246.85 152.85 227.55 172.05 204.0 195.5 166.65 215.05 163.95 214.7 162.55 213.55 L160.05 211.2 Q160.05 209.8 161.15 208.15 L163.35 211.2 Q195.6 191.9 217.95 168.25 235.8 149.4 250.6 123.95 255.85 115.0 262.7 101.7 L274.15 79.55 Q288.1 53.15 301.4 36.3 M99.45 55.35 Q103.45 53.85 117.7 50.05 124.0 55.45 124.0 56.9 L123.75 58.0 Q121.95 61.95 107.65 68.65 98.4 72.95 95.5 74.6 89.45 77.95 88.0 80.55 L86.3 86.25 86.25 86.35 83.85 91.9 Q78.75 102.2 71.6 102.8 L73.4 112.2 Q73.4 121.5 66.8 147.5 62.35 165.1 58.6 174.25 L61.9 179.8 68.0 190.15 70.1 193.85 Q70.1 196.7 69.4 198.6 69.05 199.65 69.55 200.45 72.6 202.1 67.1 202.1 56.25 202.1 45.15 191.05 44.0 192.2 41.25 192.2 29.45 192.2 2.6 163.6 -24.7 159.55 -52.7 136.8 L-38.5 149.6 -39.05 150.55 Q-39.85 151.65 -41.25 152.35 -60.15 139.9 -75.95 125.85 -88.2 115.0 -98.6 103.2 -104.7 96.35 -110.15 89.15 -119.95 76.3 -129.9 58.8 L-133.15 54.25 Q-146.7 34.95 -159.9 12.7 -171.65 -7.2 -177.65 -20.05 -181.65 -28.7 -186.4 -52.8 L-187.2 -56.85 -187.5 -56.95 Q-197.65 -61.05 -199.9 -65.15 -200.45 -66.25 -194.95 -66.25 L-189.3 -65.45 Q-192.55 -77.5 -196.6 -83.85 -198.85 -87.25 -217.15 -93.25 L-255.55 -104.7 Q-281.1 -112.2 -292.7 -116.75 L-293.3 -116.95 Q-263.35 -64.2 -249.95 -44.0 -221.95 -1.9 -191.75 29.95 -151.0 72.8 -100.1 104.5 -100.65 105.35 -100.35 105.95 L-103.95 106.15 Q-142.15 106.15 -204.45 37.0 -219.8 19.95 -235.2 0.2 L-235.4 0.55 -237.8 0.1 Q-236.5 2.0 -236.5 4.1 L-237.6 7.4 -239.3 8.25 Q-241.65 9.05 -244.75 9.05 L-246.6 7.6 Q-247.2 6.8 -247.2 3.3 -247.2 -0.4 -245.85 -1.65 L-244.4 -2.4 Q-256.55 -8.55 -273.4 -26.8 -294.35 -49.55 -317.35 -85.05 -339.15 -118.8 -353.65 -149.7 -367.65 -179.55 -368.65 -193.9 L-369.3 -194.7 Q-370.7 -177.1 -373.2 -151.8 L-374.2 -142.1 -381.4 -70.1 Q-382.1 -56.0 -386.6 11.85 -389.1 49.55 -389.1 86.6 -389.1 92.1 -384.7 169.1 L-385.25 173.25 Q-385.5 173.25 -385.85 174.35 -386.85 175.45 -390.2 175.45 L-390.85 175.4 -390.75 168.55 Q-390.75 167.15 -396.55 161.7 L-398.7 163.2 Q-401.65 152.3 -403.1 131.7 -404.65 109.8 -404.25 87.7 -404.25 52.1 -401.3 10.5 -397.6 -42.2 -396.55 -75.6 -395.5 -123.25 -390.2 -157.3 -389.3 -163.5 -388.4 -176.8 -387.45 -191.1 -386.55 -197.8 -385.3 -207.65 -382.85 -215.45 -388.8 -226.0 -392.95 -236.75 -392.95 -246.65 -383.6 -246.65 -378.4 -246.65 -326.4 -202.4 -326.4 -201.8 -329.2 -199.0 L-333.0 -194.95 -326.65 -186.45 Q-322.55 -180.9 -322.55 -178.75 -322.55 -176.15 -324.25 -173.8 L-324.9 -173.0 -305.0 -137.75 -304.7 -137.75 -276.15 -124.75 Q-246.95 -111.55 -241.45 -110.55 L-217.05 -106.2 Q-204.45 -103.6 -192.2 -99.0 -181.4 -94.9 -173.3 -64.9 L-172.2 -60.8 -158.95 -56.65 -150.0 -56.15 -140.45 -56.55 Q-129.2 -55.75 -124.85 -41.8 -116.6 -14.55 -111.65 -5.75 L-108.85 -1.05 Q-90.1 -0.85 -79.95 1.4 -69.55 3.65 -64.9 8.8 -61.55 12.45 -58.9 21.2 -55.25 33.3 -52.8 38.5 -48.6 47.75 -43.45 56.2 L-43.4 56.2 Q-32.5 74.15 -17.4 88.55 L-19.5 83.3 -19.45 80.0 -18.95 78.35 Q-19.5 77.25 -14.0 77.25 -13.7 77.25 -3.1 93.3 L-3.55 91.8 -3.6 91.75 -8.45 83.75 Q-11.05 79.2 -12.35 77.8 -14.15 75.85 -15.1 71.8 -16.2 67.1 -17.25 65.35 -21.7 57.75 -42.35 55.55 L-42.35 52.25 -42.15 52.1 -42.35 51.7 Q-42.35 51.15 -39.05 51.15 -19.3 51.15 -11.5 59.25 -9.2 61.65 -7.2 65.75 L-5.2 69.55 -3.3 69.55 0.2 75.75 6.65 83.1 Q13.1 90.25 18.95 95.15 L17.5 98.75 Q16.55 100.45 15.2 101.2 L34.45 133.6 53.0 164.75 56.5 146.15 Q61.15 120.05 62.15 100.2 60.65 99.0 59.5 97.25 57.2 93.75 57.2 91.0 57.2 87.45 57.7 86.95 L59.4 86.6 Q59.85 87.15 59.45 88.2 59.0 89.4 59.2 89.9 59.55 90.9 62.4 91.55 L62.4 89.9 62.95 86.6 Q63.25 86.6 62.45 86.35 L65.7 86.05 Q67.0 86.05 68.95 92.35 L70.1 92.4 Q73.15 88.0 76.3 80.05 79.85 71.05 81.65 67.9 85.85 60.55 99.45 55.35 M91.85 81.1 Q95.7 88.8 95.7 103.1 95.7 111.3 84.7 142.4 74.8 170.45 70.35 177.15 L69.55 178.2 69.4 178.2 66.6 177.65 66.2 177.25 Q65.7 176.35 65.7 173.8 65.7 172.15 73.05 152.9 80.9 132.2 82.2 126.2 82.9 123.3 86.0 101.3 87.2 92.55 89.0 87.15 90.3 83.25 91.85 81.1 M155.3 71.65 Q147.55 96.4 130.85 124.35 112.1 155.75 86.05 184.5 L79.45 183.4 Q101.35 162.85 124.15 123.5 L141.6 92.05 144.1 87.45 146.95 82.35 Q153.2 71.05 157.3 64.6 L155.3 71.65 M18.95 161.15 L18.85 161.65 32.5 174.95 31.4 173.25 Q18.95 161.85 3.05 132.25 -5.35 116.6 -12.35 100.65 -24.4 100.35 -34.6 93.3 -27.95 104.55 -19.8 115.95 -3.45 138.8 17.5 160.3 L18.95 161.15 M-357.45 -181.9 Q-348.45 -144.6 -303.85 -82.4 -287.35 -59.35 -269.45 -37.85 L-261.8 -28.8 Q-245.55 -9.95 -237.6 -2.85 L-245.4 -13.1 Q-259.1 -31.45 -265.35 -41.25 -276.8 -59.2 -304.9 -110.55 -326.75 -150.55 -335.6 -170.8 -346.55 -172.35 -357.45 -181.9 M-325.3 -15.65 L-322.9 -15.65 -323.1 -12.35 Q-323.1 5.55 -307.3 38.5 -293.1 68.0 -269.3 103.55 -246.75 137.2 -223.2 165.0 -199.1 193.45 -183.15 204.85 L-182.45 205.7 Q-182.45 206.5 -185.9 206.5 -202.2 206.5 -239.5 162.2 -253.5 145.6 -267.55 126.1 -279.8 109.15 -286.55 97.9 -294.45 84.6 -303.05 64.95 L-303.1 67.35 -303.6 69.0 Q-303.85 69.0 -303.4 70.4 -303.55 71.75 -306.9 71.75 L-312.25 71.25 Q-312.9 71.1 -315.95 69.55 -316.9 67.45 -315.05 63.2 -313.0 58.55 -309.35 56.65 L-304.95 60.65 -304.85 60.75 -310.9 46.0 Q-326.4 6.7 -326.4 -12.1 L-325.3 -15.65 M-169.95 -50.95 L-168.45 -43.65 -166.1 -31.9 Q-158.1 -6.65 -127.85 34.6 L-108.85 59.75 -98.1 70.65 -90.4 78.65 Q-70.3 99.5 -61.6 108.9 -53.6 117.6 -29.75 132.25 L-19.25 138.6 -29.95 124.55 Q-48.1 91.65 -55.65 74.15 L-58.85 74.5 Q-70.05 74.5 -85.15 58.15 -90.2 52.7 -95.7 45.45 -102.55 36.35 -110.6 23.65 L-112.15 21.25 -124.3 1.35 Q-127.6 -4.05 -131.6 -15.95 -135.3 -26.9 -136.65 -34.1 -137.55 -38.55 -146.75 -42.8 -152.7 -45.55 -166.75 -49.95 L-169.95 -50.95 M-73.4 14.55 Q-88.75 12.7 -100.85 9.05 L-102.4 8.6 Q-91.75 23.4 -74.55 41.75 L-62.0 54.95 Q-69.9 36.2 -73.4 14.55 M-92.1 134.45 Q-92.1 132.6 -90.75 130.65 -88.6 127.45 -83.85 126.2 L-77.25 127.3 -76.7 128.75 Q-76.15 129.85 -76.15 133.1 -76.15 136.05 -78.75 139.2 L-82.75 143.25 Q-92.1 142.05 -92.1 134.45" fill="url(#gradient1)" fill-rule="evenodd" stroke="none"/>
    <path d="M149.75 -18.25 Q152.4 -27.85 165.55 -42.9 172.45 -50.75 188.4 -64.4 L208.15 -81.55 Q211.75 -99.35 211.75 -106.95 211.75 -111.65 237.1 -140.6 L242.75 -147.0 Q241.7 -155.3 241.7 -157.0 241.7 -160.0 298.65 -210.35 355.3 -260.4 357.5 -260.4 L360.95 -259.95 Q363.05 -260.95 366.0 -260.95 387.65 -260.95 389.7 -134.0 390.75 -70.45 387.45 -6.6 387.45 2.1 388.45 10.95 L390.65 27.35 Q393.8 51.2 393.8 81.65 L391.75 143.05 Q389.65 206.15 389.65 217.25 389.65 227.25 389.15 230.55 387.75 240.35 382.5 240.35 L379.5 239.6 Q377.35 240.5 374.6 241.25 361.45 244.8 327.05 246.2 296.15 247.45 228.3 247.7 L62.4 247.75 Q30.35 247.75 -31.15 246.4 L-191.65 240.95 Q-358.95 232.8 -398.55 218.5 -410.85 214.05 -410.85 209.0 -410.85 204.95 -410.15 204.3 -409.55 203.75 -405.65 203.75 L-405.6 200.65 -405.35 197.15 Q-405.35 180.15 -404.85 176.65 -403.6 167.35 -398.7 163.2 -401.65 152.3 -403.1 131.7 -404.65 109.8 -404.25 87.7 -404.25 52.1 -401.3 10.5 -397.6 -42.2 -396.55 -75.6 -395.5 -123.25 -390.2 -157.3 -389.3 -163.5 -388.4 -176.8 -387.45 -191.1 -386.55 -197.8 -385.3 -207.65 -382.85 -215.45 -388.8 -226.0 -392.95 -236.75 -392.95 -246.65 -383.6 -246.65 -378.4 -246.65 -326.4 -202.4 -326.4 -201.8 -329.2 -199.0 L-333.0 -194.95 -326.65 -186.45 Q-322.55 -180.9 -322.55 -178.75 -322.55 -176.15 -324.25 -173.8 L-324.9 -173.0 -305.0 -137.75 -304.7 -137.75 -276.15 -124.75 Q-246.95 -111.55 -241.45 -110.55 L-217.05 -106.2 Q-204.45 -103.6 -192.2 -99.0 -181.4 -94.9 -173.3 -64.9 L-172.2 -60.8 -158.95 -56.65 -150.0 -56.15 -140.45 -56.55 Q-129.2 -55.75 -124.85 -41.8 -116.6 -14.55 -111.65 -5.75 L-108.85 -1.05 Q-90.1 -0.85 -79.95 1.4 -69.55 3.65 -64.9 8.8 -61.55 12.45 -58.9 21.2 -55.25 33.3 -52.8 38.5 -48.6 47.75 -43.45 56.2 L-43.4 56.2 -42.35 55.55 -42.35 52.25 -42.15 52.1 -42.35 51.7 Q-42.35 51.15 -39.05 51.15 -19.3 51.15 -11.5 59.25 -9.2 61.65 -7.2 65.75 L-5.2 69.55 -3.3 69.55 0.2 75.75 6.65 83.1 Q13.1 90.25 18.95 95.15 L17.5 98.75 Q16.55 100.45 15.2 101.2 L34.45 133.6 53.0 164.75 56.5 146.15 Q61.15 120.05 62.15 100.2 60.65 99.0 59.5 97.25 57.2 93.75 57.2 91.0 57.2 87.45 57.7 86.95 L59.4 86.6 Q59.85 87.15 59.45 88.2 59.0 89.4 59.2 89.9 59.55 90.9 62.4 91.55 L62.4 89.9 62.95 86.6 Q63.25 86.6 62.45 86.35 L65.7 86.05 Q67.0 86.05 68.95 92.35 L70.1 92.4 Q73.15 88.0 76.3 80.05 79.85 71.05 81.65 67.9 85.85 60.55 99.45 55.35 103.45 53.85 117.7 50.05 124.0 55.45 124.0 56.9 L123.75 58.0 128.25 59.5 129.65 55.25 Q142.4 16.7 146.55 0.8 147.65 -3.5 148.35 -9.6 149.0 -15.45 149.75 -18.25 M377.35 217.1 L356.1 217.8 Q369.75 217.8 377.45 220.3 L377.35 217.1 M-352.0 -146.2 L-351.6 -145.4 -352.0 -146.2 -352.45 -147.2 -352.45 -147.1 -352.4 -147.05 -352.0 -146.2 M-353.05 -148.45 L-352.45 -147.2 -353.05 -148.45 M-38.85 63.25 L-39.15 62.8 -39.3 62.55 -39.7 62.0 -39.3 62.55 -39.15 62.8 -38.85 63.25 M-293.15 -116.7 L-293.05 -116.55 -293.15 -116.7 M-120.1 45.0 L-120.35 44.6 -120.65 44.25 -120.1 45.0 M-397.15 216.4 L-398.3 217.2 -398.05 217.1 -397.15 216.4" fill="url(#gradient2)" fill-rule="evenodd" stroke="none"/>
  </g>
  <defs>
    <radialGradient cx="0" cy="0" gradientTransform="matrix(0.7402, 0.0, 0.0, 0.7402, 82.8, 209.3)" gradientUnits="userSpaceOnUse" id="gradient0" r="819.2" spreadMethod="pad">
      <stop offset="0.0" stop-color="#b88361"/>
      <stop offset="1.0" stop-color="#51321e"/>
    </radialGradient>
    <radialGradient cx="0" cy="0" gradientTransform="matrix(0.6918, 0.0, 0.0, 0.6918, 26.15, 139.5)" gradientUnits="userSpaceOnUse" id="gradient1" r="819.2" spreadMethod="pad">
      <stop offset="0.0" stop-color="#684b39"/>
      <stop offset="1.0" stop-color="#120b07"/>
    </radialGradient>
    <radialGradient cx="0" cy="0" gradientTransform="matrix(0.6614, 0.0, 0.0, 0.6614, 21.8, 43.6)" gradientUnits="userSpaceOnUse" id="gradient2" r="819.2" spreadMethod="pad">
      <stop offset="0.11372549019607843" stop-color="#7592a4"/>
      <stop offset="0.34509803921568627" stop-color="#7591a3" stop-opacity="0.52156866"/>
      <stop offset="0.6352941176470588" stop-color="#738c9c" stop-opacity="0.0"/>
    </radialGradient>
  </defs>
</svg>
