<?xml version="1.0" encoding="UTF-8" standalone="no"?>
<svg xmlns:ffdec="https://www.free-decompiler.com/flash" xmlns:xlink="http://www.w3.org/1999/xlink" ffdec:objectType="shape" height="49.75px" width="394.25px" xmlns="http://www.w3.org/2000/svg">
  <g transform="matrix(1.0, 0.0, 0.0, 1.0, -30.9, -484.3)">
    <path d="M388.75 533.05 Q376.45 533.05 376.45 520.75 L376.45 496.6 Q376.45 484.3 388.75 484.3 L412.85 484.3 Q425.15 484.3 425.15 496.6 L425.15 520.75 Q425.15 533.05 412.85 533.05 L388.75 533.05" fill="#bf8040" fill-rule="evenodd" stroke="none"/>
    <path d="M279.25 485.3 L303.35 485.3 Q315.65 485.3 315.65 497.6 L315.65 521.75 Q315.65 534.05 303.35 534.05 L279.25 534.05 Q266.95 534.05 266.95 521.75 L266.95 497.6 Q266.95 485.3 279.25 485.3" fill="#6633cc" fill-rule="evenodd" stroke="none"/>
    <path d="M207.95 521.75 L207.95 497.6 Q207.95 485.3 220.25 485.3 L244.35 485.3 Q256.65 485.3 256.65 497.6 L256.65 521.75 Q256.65 534.05 244.35 534.05 L220.25 534.05 Q207.95 534.05 207.95 521.75" fill="#ffcc00" fill-rule="evenodd" stroke="none"/>
    <path d="M198.2 497.6 L198.2 521.75 Q198.2 534.05 185.9 534.05 L161.8 534.05 Q149.45 534.05 149.45 521.75 L149.45 497.6 Q149.45 485.3 161.8 485.3 L185.9 485.3 Q198.2 485.3 198.2 497.6" fill="#3c5e80" fill-rule="evenodd" stroke="none"/>
    <path d="M101.7 485.3 L125.8 485.3 Q138.1 485.3 138.1 497.6 L138.1 521.75 Q138.1 534.05 125.8 534.05 L101.7 534.05 Q89.35 534.05 89.35 521.75 L89.35 497.6 Q89.35 485.3 101.7 485.3" fill="#99ff00" fill-rule="evenodd" stroke="none"/>
    <path d="M43.2 485.3 L67.3 485.3 Q79.6 485.3 79.6 497.6 L79.6 521.75 Q79.6 534.05 67.3 534.05 L43.2 534.05 Q30.9 534.05 30.9 521.75 L30.9 497.6 Q30.9 485.3 43.2 485.3" fill="#b52828" fill-rule="evenodd" stroke="none"/>
  </g>
</svg>
