<?xml version="1.0" encoding="UTF-8" standalone="no"?>
<svg xmlns:ffdec="https://www.free-decompiler.com/flash" xmlns:xlink="http://www.w3.org/1999/xlink" ffdec:objectType="shape" height="24.1px" width="14.9px" xmlns="http://www.w3.org/2000/svg">
  <g transform="matrix(1.0, 0.0, 0.0, 1.0, 7.45, 12.05)">
    <path d="M-3.75 -0.2 Q-2.15 -2.45 0.75 -2.45 3.55 -2.45 4.9 -0.55 7.45 1.7 7.45 4.8 7.45 7.8 5.4 9.95 3.3 12.05 0.5 12.05 -3.8 12.05 -5.9 7.9 -7.45 4.75 -7.45 0.3 -7.45 -4.7 -5.1 -8.1 -2.4 -12.05 2.5 -12.05 L5.75 -11.35 5.75 -7.95 2.45 -8.6 Q-0.5 -8.6 -2.25 -5.65 -3.75 -3.15 -3.75 -0.2 M3.05 2.05 Q2.2 1.05 0.7 1.05 -0.65 1.05 -1.95 1.9 -2.95 2.55 -3.5 3.5 -3.4 5.4 -2.35 7.05 -1.25 8.6 0.55 8.6 1.9 8.6 2.9 7.5 3.9 6.4 3.9 4.75 3.9 3.05 3.05 2.05" fill="#9966cc" fill-rule="evenodd" stroke="none"/>
  </g>
</svg>
