<?xml version="1.0" encoding="UTF-8" standalone="no"?>
<svg xmlns:ffdec="https://www.free-decompiler.com/flash" xmlns:xlink="http://www.w3.org/1999/xlink" ffdec:objectType="shape" height="60.0px" width="60.0px" xmlns="http://www.w3.org/2000/svg">
  <g transform="matrix(1.0, 0.0, 0.0, 1.0, 30.0, 30.0)">
    <path d="M27.0 -14.85 Q26.95 -20.95 24.1 -24.05 L24.05 -24.1 Q20.95 -27.0 14.85 -27.0 L-14.85 -27.0 Q-27.0 -27.0 -27.0 -14.85 L-27.0 14.9 Q-27.0 27.0 -14.85 27.0 L14.85 27.0 Q20.95 27.0 24.05 24.1 L24.1 24.1 Q26.95 20.95 27.0 14.9 L27.0 -14.85 M14.85 -30.0 Q30.0 -30.0 30.0 -14.85 L30.0 14.9 Q30.0 30.0 14.85 30.0 L-14.85 30.0 Q-30.0 30.0 -30.0 14.9 L-30.0 -14.85 Q-30.0 -30.0 -14.85 -30.0 L14.85 -30.0" fill="#ffffff" fill-rule="evenodd" stroke="none"/>
  </g>
</svg>
