<?xml version="1.0" encoding="UTF-8" standalone="no"?>
<svg xmlns:ffdec="https://www.free-decompiler.com/flash" xmlns:xlink="http://www.w3.org/1999/xlink" ffdec:objectType="shape" height="54.0px" width="54.0px" xmlns="http://www.w3.org/2000/svg">
  <g transform="matrix(1.0, 0.0, 0.0, 1.0, 27.0, 27.0)">
    <path d="M24.05 -24.1 L24.1 -24.05 Q26.95 -20.95 27.0 -14.85 L27.0 14.9 Q26.95 20.95 24.1 24.1 L24.05 24.1 Q20.95 27.0 14.85 27.0 L-14.85 27.0 Q-27.0 27.0 -27.0 14.9 L-27.0 -14.85 Q-27.0 -27.0 -14.85 -27.0 L14.85 -27.0 Q20.95 -27.0 24.05 -24.1" fill="url(#gradient0)" fill-rule="evenodd" stroke="none"/>
    <path d="M19.65 -20.05 Q22.0 -17.45 22.0 -12.4 L22.0 12.4 Q22.0 17.45 19.65 20.05 L19.6 20.1 Q17.05 22.5 12.1 22.5 L-12.1 22.5 Q-22.0 22.5 -22.0 12.4 L-22.0 -12.4 Q-22.0 -22.5 -12.1 -22.5 L12.1 -22.5 Q17.05 -22.5 19.6 -20.05 L19.65 -20.05" fill="url(#gradient1)" fill-rule="evenodd" stroke="none"/>
  </g>
  <defs>
    <radialGradient cx="0" cy="0" gradientTransform="matrix(0.0416, 0.0, 0.0, 0.0416, 0.0, 0.0)" gradientUnits="userSpaceOnUse" id="gradient0" r="819.2" spreadMethod="pad">
      <stop offset="0.0" stop-color="#000000" stop-opacity="0.0"/>
      <stop offset="1.0" stop-color="#000000" stop-opacity="0.16078432"/>
    </radialGradient>
    <linearGradient gradientTransform="matrix(0.0, 0.0275, -0.0269, 0.0, 0.0, 0.0)" gradientUnits="userSpaceOnUse" id="gradient1" spreadMethod="pad" x1="-819.2" x2="819.2">
      <stop offset="0.0" stop-color="#ffffff" stop-opacity="0.5803922"/>
      <stop offset="0.26666666666666666" stop-color="#ffffff" stop-opacity="0.09019608"/>
      <stop offset="0.7411764705882353" stop-color="#ffffff" stop-opacity="0.0"/>
      <stop offset="1.0" stop-color="#ffffff" stop-opacity="0.0"/>
    </linearGradient>
  </defs>
</svg>
