<?xml version="1.0" encoding="UTF-8" standalone="no"?>
<svg xmlns:ffdec="https://www.free-decompiler.com/flash" xmlns:xlink="http://www.w3.org/1999/xlink" ffdec:objectType="shape" height="19.9px" width="18.2px" xmlns="http://www.w3.org/2000/svg">
  <g transform="matrix(1.0, 0.0, 0.0, 1.0, 9.1, 9.9)">
    <path d="M4.5 -9.9 Q6.9 -9.95 8.05 -8.5 9.05 -7.25 9.1 -4.9 L9.1 4.95 Q9.05 7.3 8.05 8.6 6.9 9.95 4.5 10.0 L-4.55 10.0 -6.15 9.8 Q-8.75 9.1 -9.1 5.95 L-9.1 -5.9 Q-8.75 -9.05 -6.15 -9.75 L-4.55 -9.9 4.5 -9.9 M0.9 -2.3 L0.1 -1.1 -0.65 -2.35 -2.35 -4.9 -4.65 -4.9 -0.95 0.35 -4.95 6.0 -2.7 6.0 0.15 1.7 3.0 6.0 5.25 6.0 1.2 0.25 4.95 -4.9 2.75 -4.9 0.9 -2.3 2.75 -4.9 4.95 -4.9 1.2 0.25 5.25 6.0 3.0 6.0 0.15 1.7 -2.7 6.0 -4.95 6.0 -0.95 0.35 -4.65 -4.9 -2.35 -4.9 -0.65 -2.35 0.1 -1.1 0.9 -2.3" fill="#000000" fill-rule="evenodd" stroke="none"/>
  </g>
</svg>
