<?xml version="1.0" encoding="UTF-8" standalone="no"?>
<svg xmlns:ffdec="https://www.free-decompiler.com/flash" xmlns:xlink="http://www.w3.org/1999/xlink" ffdec:objectType="shape" height="47.2px" width="385.45px" xmlns="http://www.w3.org/2000/svg">
  <g transform="matrix(1.0, 0.0, 0.0, 1.0, -39.15, -486.25)">
    <path d="M307.05 489.1 L307.55 489.1 312.05 524.1 271.1 528.95 271.05 528.6 307.05 489.1 M235.45 500.75 Q233.8 502.35 233.8 504.6 233.8 506.85 235.45 508.5 237.2 510.1 239.55 510.1 241.9 510.1 243.6 508.5 245.35 506.85 245.35 504.6 245.35 502.35 243.6 500.75 241.9 499.1 239.55 499.1 237.2 499.1 235.45 500.75 M231.8 496.55 Q235.0 493.35 239.55 493.35 244.1 493.35 247.3 496.55 250.55 499.75 250.55 504.3 250.55 508.85 247.3 512.05 244.1 515.3 239.55 515.3 235.0 515.3 231.8 512.05 L230.4 510.4 Q228.6 507.75 228.6 504.3 228.6 499.75 231.8 496.55 M226.65 519.1 Q224.7 521.05 221.95 521.05 219.2 521.05 217.25 519.1 215.3 517.2 215.3 514.4 215.3 511.65 217.25 509.7 219.2 507.75 221.95 507.8 224.7 507.75 226.65 509.7 L228.0 511.65 Q228.6 512.9 228.6 514.4 228.6 517.2 226.65 519.1 M229.75 528.0 Q229.75 524.65 232.1 522.3 234.45 519.9 237.85 519.9 241.2 519.9 243.55 522.3 245.9 524.65 245.9 528.0 245.9 529.85 245.15 531.45 L230.5 531.45 Q229.75 529.85 229.75 528.0 M107.15 512.95 L88.85 498.4 95.15 491.2 109.65 507.45 Q115.55 496.25 127.2 486.75 L134.8 498.1 Q122.45 504.35 113.8 512.1 L132.9 533.45 110.3 515.45 104.45 522.2 Q105.3 517.65 107.0 513.35 L107.15 512.95 M45.6 523.95 L62.45 507.1 67.9 527.95 45.6 523.95 M53.05 495.25 L49.05 509.5 39.2 497.95 39.15 497.35 39.15 497.3 53.05 495.25 M169.15 523.95 L165.1 523.95 Q159.3 523.95 159.3 518.2 L159.3 513.55 169.15 513.55 169.15 523.95 M165.1 495.65 L169.15 495.65 169.15 506.65 159.3 506.65 159.3 501.45 Q159.3 495.65 165.1 495.65 M188.2 513.55 L188.2 518.2 Q188.15 523.95 182.4 523.95 L178.35 523.95 178.35 513.55 188.2 513.55 M182.4 495.65 Q188.15 495.65 188.2 501.45 L188.2 506.65 178.35 506.65 178.35 495.65 182.4 495.65 M424.6 491.25 L424.6 506.65 Q423.3 507.25 421.65 507.25 421.05 507.25 420.6 507.8 420.2 508.3 419.55 508.3 418.1 508.3 417.7 507.2 L417.55 506.0 Q417.55 502.8 420.55 502.25 416.55 500.2 416.55 497.1 416.55 491.25 424.05 491.25 L424.6 491.25 M408.9 492.6 Q408.9 495.25 408.05 496.3 406.7 498.0 402.5 498.0 401.95 498.0 399.9 500.65 397.9 503.3 397.15 503.3 L397.0 503.3 394.95 503.65 395.15 504.95 395.75 505.45 398.0 504.8 Q401.8 504.8 402.15 509.1 402.15 514.55 400.75 517.0 L400.9 518.1 Q400.9 519.0 399.75 520.3 398.2 522.05 396.0 522.05 393.1 522.05 392.2 520.75 L391.95 520.0 389.2 519.9 385.2 524.7 386.65 525.55 Q389.9 527.6 391.5 527.75 L402.85 528.25 Q403.35 526.65 405.65 523.8 408.0 520.9 410.1 520.0 411.85 517.75 414.05 517.75 419.75 517.75 419.05 523.6 L419.05 524.4 Q419.4 526.0 419.05 527.65 L418.95 528.15 419.6 528.1 419.6 531.1 381.55 531.1 381.55 528.1 378.15 528.1 378.2 527.75 378.05 527.6 378.05 508.35 380.25 506.9 Q381.15 504.0 384.55 500.8 389.15 496.45 389.15 491.35 L389.25 488.35 Q390.05 486.25 394.0 486.25 398.35 486.25 401.15 490.5 L401.7 490.0 Q403.55 488.55 404.75 488.55 407.15 488.55 407.4 490.0 408.9 490.55 408.9 492.6 M410.05 489.3 L408.05 489.25 Q407.8 489.35 407.8 488.1 L408.05 487.05 409.3 486.8 Q410.3 486.8 410.8 487.8 410.8 488.65 410.05 489.3 M384.5 487.8 Q388.05 487.8 387.75 491.1 387.75 492.0 387.2 493.0 386.5 494.3 385.4 494.3 382.65 494.3 381.7 492.75 381.25 492.05 381.25 491.0 L381.5 489.9 Q381.75 488.6 383.0 488.2 383.65 487.8 384.5 487.8 M384.65 518.65 L384.65 518.75 384.7 518.7 384.65 518.65 M413.05 511.75 Q413.05 508.05 416.55 508.05 419.9 508.05 420.05 511.75 420.05 515.55 416.55 515.55 414.1 515.55 413.3 513.7 L413.05 511.75" fill="#000000" fill-opacity="0.6313726" fill-rule="evenodd" stroke="none"/>
    <path d="M307.05 489.1 L271.05 528.6" fill="none" stroke="#666600" stroke-linecap="round" stroke-linejoin="round" stroke-width="0.05"/>
  </g>
</svg>
