<?xml version="1.0" encoding="UTF-8" standalone="no"?>
<svg xmlns:ffdec="https://www.free-decompiler.com/flash" xmlns:xlink="http://www.w3.org/1999/xlink" ffdec:objectType="shape" height="24.1px" width="14.9px" xmlns="http://www.w3.org/2000/svg">
  <g transform="matrix(1.0, 0.0, 0.0, 1.0, 7.75, 17.1)">
    <path d="M7.15 -0.25 Q7.15 2.75 5.1 4.9 3.0 7.0 0.2 7.0 -4.1 7.0 -6.2 2.85 -7.75 -0.3 -7.75 -4.75 -7.75 -9.75 -5.4 -13.15 -2.7 -17.1 2.2 -17.1 3.45 -17.1 5.45 -16.4 L5.45 -13.0 2.15 -13.65 Q-0.8 -13.65 -2.55 -10.7 -4.05 -8.2 -4.05 -5.25 -2.45 -7.5 0.45 -7.5 3.25 -7.5 4.6 -5.6 7.15 -3.35 7.15 -0.25 M2.75 -3.0 Q1.9 -4.0 0.4 -4.0 -0.95 -4.0 -2.25 -3.15 -3.25 -2.5 -3.8 -1.55 -3.7 0.35 -2.65 2.0 -1.55 3.55 0.25 3.55 1.6 3.55 2.6 2.45 3.6 1.35 3.6 -0.3 3.6 -2.0 2.75 -3.0" fill="url(#gradient0)" fill-rule="evenodd" stroke="none"/>
  </g>
  <defs>
    <linearGradient gradientTransform="matrix(0.0, 0.0147, -0.134, 0.0, -8.55, -5.1)" gradientUnits="userSpaceOnUse" id="gradient0" spreadMethod="pad" x1="-819.2" x2="819.2">
      <stop offset="0.0" stop-color="#ffffff" stop-opacity="0.0"/>
      <stop offset="1.0" stop-color="#ffffff" stop-opacity="0.49019608"/>
    </linearGradient>
  </defs>
</svg>
