<?xml version="1.0" encoding="UTF-8" standalone="no"?>
<svg xmlns:ffdec="https://www.free-decompiler.com/flash" xmlns:xlink="http://www.w3.org/1999/xlink" ffdec:objectType="shape" height="416.1px" width="764.2px" xmlns="http://www.w3.org/2000/svg">
  <g transform="matrix(1.0, 0.0, 0.0, 1.0, 382.35, 208.55)">
    <path d="M-381.35 -206.9 L-381.35 -207.05 381.35 -207.05 381.35 207.05 -381.35 207.05 -381.35 -206.9" fill="url(#gradient0)" fill-rule="evenodd" stroke="none"/>
    <path d="M381.35 -207.05 L381.35 207.05 -381.35 207.05 -381.35 -206.9" fill="none" stroke="#000000" stroke-linecap="round" stroke-linejoin="round" stroke-width="1.0"/>
    <path d="M279.35 -208.55 L313.55 -208.55 Q293.85 -186.85 238.75 -136.95 L246.0 -137.5 Q252.3 -137.5 254.5 -132.8 255.5 -130.65 255.5 -127.5 255.5 -124.05 250.95 -120.0 245.9 -115.5 240.0 -115.5 231.2 -115.5 228.5 -120.6 227.65 -122.2 227.5 -124.25 L227.5 -126.25 227.55 -126.85 218.75 -119.0 195.75 -98.5 206.25 -105.7 Q194.5 -96.75 182.15 -86.5 143.95 -52.9 101.5 -16.45 103.5 -14.3 103.5 -10.5 103.5 -6.85 100.95 -4.55 98.75 -2.5 96.0 -2.5 90.5 -2.5 87.6 -4.55 L74.0 7.0 Q49.25 28.05 11.0 64.6 -36.95 110.35 -51.6 123.65 -87.9 156.65 -119.75 180.15 -129.1 187.05 -138.5 193.5 -137.65 194.35 -136.95 195.55 -135.5 198.05 -135.5 200.0 -135.5 202.05 -136.95 204.55 L-137.6 205.55 -152.05 205.55 Q-152.9 204.6 -153.35 203.35 L-156.85 205.55 -173.7 205.55 Q-93.35 129.35 -26.1 66.4 -96.25 110.6 -152.5 152.0 -161.85 158.9 -181.5 174.7 -179.95 176.0 -179.05 177.85 -177.6 180.8 -178.0 184.25 -178.0 186.65 -178.6 188.55 -176.45 189.55 -175.1 191.55 -173.5 193.9 -173.5 196.0 -173.5 199.7 -176.0 202.05 -178.6 204.5 -183.0 204.5 -190.05 204.5 -191.95 199.8 -192.55 198.3 -192.6 196.4 L-192.55 195.5 Q-199.0 195.1 -201.9 191.25 L-219.35 205.55 -265.9 205.55 Q-251.7 189.2 -231.35 166.6 -231.35 164.95 -231.0 163.25 L-231.1 159.4 Q-231.0 156.8 -229.95 155.05 -227.15 150.1 -216.35 150.0 -155.05 82.35 -109.0 34.5 L-109.0 33.5 Q-144.05 63.05 -244.75 162.35 L-288.7 205.55 -328.1 205.55 -323.7 200.4 Q-329.7 197.8 -331.0 196.9 -332.5 195.85 -332.5 194.0 -332.5 190.1 -326.0 187.5 -319.5 192.55 -319.5 193.75 -319.5 194.85 -319.65 195.8 -311.0 186.05 -299.6 174.4 -308.7 173.7 -311.55 168.55 -313.2 165.5 -312.5 162.0 -312.5 158.15 -310.0 154.55 -306.55 149.5 -300.0 149.5 -292.15 149.5 -289.05 155.35 -287.5 158.3 -287.5 161.75 L-287.5 162.25 Q-230.1 105.45 -117.8 9.75 -44.25 -52.95 53.05 -132.35 98.25 -169.2 146.95 -208.55 L164.7 -208.55 Q161.85 -204.5 154.55 -196.2 L155.05 -195.3 Q156.0 -193.25 156.0 -190.0 156.0 -184.95 153.05 -178.1 148.55 -167.5 140.0 -167.5 133.85 -167.5 130.6 -170.4 L125.55 -165.2 Q98.35 -136.95 27.75 -65.95 -55.45 17.75 -89.15 52.15 -153.95 118.35 -187.5 155.5 L-188.5 156.5 Q-69.25 83.8 16.05 27.05 79.8 -32.3 130.05 -78.05 123.75 -78.6 121.95 -82.6 120.95 -84.95 121.5 -87.75 121.5 -91.7 123.45 -94.55 125.45 -97.4 129.0 -98.2 127.8 -101.15 128.0 -104.25 128.0 -109.35 131.5 -114.0 136.05 -120.0 144.0 -120.0 154.05 -120.0 158.0 -112.3 159.75 -108.9 159.95 -105.2 L185.25 -127.85 183.5 -129.55 Q182.0 -131.55 182.0 -134.0 182.0 -143.5 190.0 -143.5 195.8 -143.5 197.4 -138.65 249.75 -185.1 279.35 -208.55 M14.0 -151.5 L13.5 -152.45 Q13.0 -153.05 13.0 -156.0 13.0 -156.55 15.3 -159.5 17.85 -162.85 20.0 -164.5 22.9 -163.35 23.45 -162.85 25.0 -161.5 25.0 -158.25 25.0 -155.1 23.25 -153.55 L20.0 -151.5 14.0 -151.5 M1.0 -139.5 Q1.0 -136.8 -1.0 -133.5 -3.7 -129.0 -8.25 -129.0 L-14.5 -130.5 -15.0 -132.2 Q-15.5 -133.55 -15.5 -136.5 -15.5 -137.7 -13.8 -139.6 -11.0 -142.8 -5.0 -145.0 L0.5 -144.0 Q1.0 -144.5 1.0 -139.5 M37.65 -14.45 Q38.0 -14.25 38.0 -11.25 38.0 -8.25 37.7 -8.1 37.25 -8.5 37.0 -8.0 L34.55 -8.05 Q34.0 -8.3 34.0 -11.5 L34.05 -14.35 Q34.35 -14.35 34.5 -15.0 L36.5 -15.0 37.65 -14.45 M320.55 -80.05 Q322.5 -76.95 322.5 -74.0 322.5 -68.45 316.95 -65.05 312.75 -62.5 309.0 -62.5 301.15 -62.5 298.05 -68.05 297.1 -69.85 296.7 -72.0 L296.5 -74.0 Q296.5 -78.15 299.55 -81.55 303.15 -85.5 309.0 -85.5 317.05 -85.5 320.55 -80.05 M375.55 -208.55 L381.85 -208.55 381.85 -194.2 Q372.25 -183.3 354.65 -165.2 331.85 -141.7 262.1 -72.35 188.9 0.4 151.85 38.25 91.3 100.25 60.0 136.5 L59.0 137.5 Q96.75 106.0 142.7 71.05 198.6 28.5 248.45 -5.0 331.35 -60.75 381.85 -81.35 L381.85 -28.6 370.8 -19.2 Q288.95 50.5 256.0 86.0 262.9 81.65 309.95 49.9 323.35 40.85 332.3 35.0 331.15 34.35 329.5 34.0 L327.95 33.45 Q327.5 33.25 327.5 30.25 327.5 28.8 333.65 22.4 339.95 15.85 348.8 8.15 368.5 -9.0 381.85 -15.6 L381.85 -0.75 Q380.75 -0.95 379.85 -1.3 L364.5 12.05 349.95 24.5 350.0 24.5 Q352.35 24.5 356.9 27.5 361.45 30.5 362.5 30.5 370.0 30.5 379.4 25.5 380.65 24.8 381.85 24.25 L381.85 43.2 Q379.75 43.65 377.85 44.35 373.85 45.75 367.9 49.5 361.95 53.25 358.05 54.65 351.5 57.0 342.5 57.0 339.55 57.0 323.15 68.7 L287.65 94.5 Q234.85 132.0 217.0 132.0 206.15 132.0 203.05 126.4 202.05 124.6 201.9 122.4 L202.0 120.25 Q202.0 119.05 202.35 117.6 L185.2 130.3 Q179.45 134.5 173.85 138.65 175.8 138.0 178.0 138.0 185.25 138.0 189.5 154.75 189.5 169.0 175.0 169.0 163.7 169.0 161.0 162.9 160.15 161.0 160.25 158.55 L160.5 156.25 Q160.5 152.9 164.55 146.55 L166.3 144.15 Q134.35 167.35 105.25 187.3 L90.0 197.7 90.0 198.25 Q90.0 202.25 87.4 205.55 L63.2 205.55 62.55 204.55 61.7 202.4 58.95 205.55 49.6 205.55 62.95 189.45 Q81.75 167.45 86.0 163.5 L87.5 162.0 Q62.75 176.25 19.55 205.55 L-5.1 205.55 Q-7.6 203.9 -9.0 201.4 -10.25 199.15 -10.5 196.35 L-10.5 193.75 Q-10.5 182.7 -2.1 166.15 L-16.2 178.15 -49.05 205.55 -69.9 205.55 -46.1 185.65 -27.35 170.5 Q-31.2 168.6 -33.05 164.3 -34.1 161.85 -34.4 158.8 L-34.5 156.0 Q-34.75 152.0 -33.05 148.45 -29.75 141.5 -20.0 141.5 -11.35 141.5 -7.6 148.45 -6.3 150.85 -5.8 153.15 L18.6 133.6 Q27.85 120.95 40.05 106.45 40.5 100.65 45.05 95.0 49.55 89.3 56.75 87.25 83.1 57.7 119.8 21.45 164.65 -22.9 234.5 -86.65 L339.5 -182.0 341.0 -183.5 Q314.45 -171.95 290.8 -159.55 328.85 -182.4 375.55 -208.55 M356.05 -102.0 Q358.0 -99.2 358.0 -96.0 358.0 -91.5 354.55 -88.5 351.1 -85.5 346.0 -85.5 337.65 -85.5 335.05 -90.2 334.0 -92.05 334.0 -95.5 334.0 -106.5 346.0 -106.5 352.9 -106.5 356.05 -102.0 M342.5 -27.5 Q325.8 -17.4 164.4 98.1 L131.65 121.5 Q138.35 121.75 141.05 127.05 142.5 129.9 142.5 133.0 141.0 144.5 135.0 144.5 124.65 144.5 121.05 138.55 119.95 136.65 119.6 134.25 L119.5 132.0 Q119.5 131.0 119.65 130.1 L79.0 159.05 Q98.65 147.0 116.0 138.0 L118.95 138.5 Q120.0 138.9 120.0 142.0 120.0 143.45 112.1 151.4 L93.2 169.85 77.4 185.6 Q83.0 186.15 86.25 189.35 L170.2 126.9 220.9 88.95 Q237.6 69.2 269.15 39.15 303.15 6.75 341.5 -26.0 L342.5 -27.5 M327.2 86.4 Q328.5 87.1 328.5 90.25 328.5 95.5 291.1 128.65 259.9 156.25 240.0 171.5 L236.0 170.5 Q235.0 173.25 235.0 168.25 235.0 165.9 267.7 134.55 303.15 100.6 324.0 85.5 325.25 86.0 327.2 86.4 M381.85 124.25 L381.85 145.05 380.75 142.75 Q378.5 138.5 378.5 136.0 378.5 130.35 381.05 125.6 L381.85 124.25 M381.85 59.55 L381.85 92.7 362.2 120.35 322.45 174.85 323.95 177.1 Q326.0 180.8 326.0 184.25 L325.85 186.1 Q329.25 183.65 332.5 181.5 L324.0 190.5 322.45 192.55 Q320.75 194.55 318.7 195.75 L308.4 205.55 301.2 205.55 310.85 197.5 306.05 196.75 299.4 205.55 282.0 205.55 282.0 205.5 Q282.0 190.75 334.7 121.05 L372.5 71.85 381.85 59.55 M362.0 190.25 Q362.0 185.8 367.45 180.55 369.65 178.4 372.2 177.0 371.5 175.4 371.5 173.5 L381.85 152.25 381.85 203.5 381.5 203.5 Q370.2 203.5 365.0 197.05 363.35 195.0 362.5 192.55 362.0 191.0 362.0 190.25 M349.55 191.0 Q351.0 193.4 351.0 196.25 351.0 198.65 348.05 203.0 L346.1 205.55 333.9 205.55 Q331.95 204.35 331.05 202.45 330.25 200.9 330.3 198.95 L330.5 197.25 Q330.5 186.5 340.0 186.5 346.8 186.5 349.55 191.0 M184.95 189.35 Q186.5 192.3 186.5 195.75 186.5 200.95 184.25 205.55 L152.25 205.55 152.1 204.7 152.0 202.25 Q152.0 195.45 158.95 189.5 165.95 183.5 174.0 183.5 181.85 183.5 184.95 189.35 M281.6 183.35 Q283.8 187.8 283.0 192.75 283.0 199.45 278.65 205.55 L241.35 205.55 Q240.0 203.25 239.4 200.55 239.0 198.75 239.0 197.5 239.0 190.7 243.45 184.05 249.85 174.5 262.0 174.5 269.65 174.5 274.55 176.75 283.1 167.85 290.7 163.2 299.35 157.9 304.5 159.5 L281.45 183.05 281.6 183.35 M8.0 123.5 Q-1.4 123.5 -4.85 116.15 -6.0 113.8 -6.35 110.95 L-6.5 108.25 Q-6.5 102.85 -2.9 98.55 1.25 93.5 8.0 93.5 16.0 93.5 20.05 100.45 22.5 104.75 22.5 108.0 22.5 112.3 19.55 116.95 15.45 123.5 8.0 123.5 M220.8 205.55 L200.9 205.55 201.0 204.75 Q201.0 195.0 211.0 195.0 217.75 195.0 220.05 199.35 221.0 201.2 221.0 204.25 L220.8 205.55 M240.5 205.55 L240.3 205.55 240.5 205.5 240.5 205.55 M-359.5 -157.5 Q-359.5 -154.85 -375.3 -140.3 -379.1 -136.8 -382.35 -133.95 L-382.35 -152.2 Q-343.95 -195.65 -329.7 -208.55 L-316.05 -208.55 -316.0 -207.0 Q-316.0 -202.95 -337.75 -181.4 -359.5 -159.85 -359.5 -157.5 M-374.0 -116.0 L-374.5 -116.55 Q-375.0 -116.8 -375.0 -119.75 -375.0 -122.0 -351.55 -147.5 -328.05 -173.0 -326.0 -173.0 -318.9 -173.0 -315.55 -166.8 -313.5 -163.05 -313.5 -160.0 -314.8 -151.6 -318.05 -143.55 -321.7 -134.45 -326.3 -130.5 -322.1 -128.0 -319.05 -123.05 -317.05 -119.85 -315.85 -116.0 -315.0 -113.3 -315.0 -112.5 -315.0 -109.15 -317.55 -103.45 -321.4 -95.0 -328.0 -95.0 -345.1 -95.0 -351.45 -105.1 -354.7 -110.2 -354.5 -115.75 -354.5 -121.5 -352.0 -125.6 -349.35 -129.95 -344.35 -131.7 -345.55 -133.4 -346.5 -136.0 L-368.0 -115.5 -374.0 -116.0 M-357.55 -65.9 Q-356.5 -63.95 -356.5 -61.75 -356.5 -58.45 -359.05 -56.6 -361.25 -55.0 -364.25 -55.0 L-370.5 -56.5 -371.0 -58.2 Q-371.5 -59.55 -371.5 -62.5 -371.5 -64.85 -369.55 -67.05 -367.3 -69.5 -364.0 -69.5 -359.4 -69.5 -357.55 -65.9 M-336.95 -57.35 Q-295.45 -97.4 -224.6 -156.6 L-216.05 -163.7 Q-219.5 -165.55 -221.0 -169.35 -222.5 -173.05 -222.0 -177.25 -222.0 -184.0 -220.55 -188.55 -217.3 -198.5 -208.0 -198.5 -198.75 -198.5 -195.45 -188.55 -194.5 -185.5 -194.1 -181.85 -177.75 -195.3 -161.25 -208.55 L-146.05 -208.55 Q-188.5 -171.85 -215.0 -147.5 -241.2 -123.45 -312.05 -51.1 -374.25 12.5 -375.5 12.5 -379.7 12.5 -382.35 11.5 L-382.35 -6.85 Q-372.15 -23.4 -336.95 -57.35 M-252.05 -206.55 Q-248.9 -208.5 -245.0 -208.5 -238.05 -208.5 -235.1 -203.4 -233.5 -200.6 -233.5 -197.75 -233.5 -192.35 -238.1 -189.55 -241.45 -187.5 -245.0 -187.5 -253.0 -187.5 -255.55 -192.6 -256.5 -194.55 -256.5 -198.25 -256.5 -203.85 -252.05 -206.55 M-169.1 -151.15 Q-167.5 -148.25 -167.5 -146.25 -167.5 -143.85 -171.05 -139.5 -174.65 -135.0 -177.0 -135.0 -187.85 -135.0 -190.45 -139.1 -191.8 -141.2 -191.0 -143.75 -191.0 -148.45 -186.05 -152.05 -181.35 -155.5 -176.0 -155.5 -171.55 -155.5 -169.1 -151.15 M-268.0 -138.0 Q-268.9 -135.25 -272.0 -134.0 L-276.0 -136.5 Q-276.0 -137.8 -274.95 -139.45 -273.7 -141.3 -272.0 -142.0 -268.9 -140.75 -268.0 -138.0 M-280.6 -27.9 Q-294.4 -11.45 -312.7 7.1 -354.7 49.65 -382.35 65.35 L-382.35 52.65 Q-377.8 47.25 -371.15 40.15 L-374.5 39.0 Q-375.0 38.75 -375.0 33.75 -375.0 27.0 -367.0 27.0 -362.7 27.0 -360.7 29.05 L-341.6 9.6 Q-291.85 -40.25 -274.0 -52.5 -267.5 -47.2 -267.5 -46.25 -267.5 -43.5 -280.6 -27.9 M-259.05 -25.5 Q-258.0 -25.1 -258.0 -22.0 -258.0 -18.85 -280.1 1.9 -301.7 22.2 -306.5 24.5 -307.25 23.75 -308.3 23.55 -309.0 23.05 -309.0 20.0 -309.0 11.5 -262.0 -26.0 L-259.05 -25.5 M-205.05 -48.05 Q-201.35 -55.0 -192.0 -55.0 -181.45 -55.0 -177.45 -47.6 -175.5 -43.95 -175.5 -39.25 -175.5 -27.25 -187.4 -25.0 -192.25 -14.5 -209.05 4.95 -215.3 12.2 -226.3 24.1 L-236.5 35.5 Q-235.0 35.5 -223.6 29.0 -212.25 22.5 -210.0 22.5 -205.1 22.5 -201.75 25.2 -129.9 -40.7 -32.0 -124.0 L-29.05 -123.5 Q-28.0 -123.1 -28.0 -120.0 -28.0 -113.45 -163.85 9.45 L-195.6 38.2 -195.5 40.0 Q-195.5 50.15 -210.5 62.6 -216.8 67.8 -223.35 71.1 -230.1 74.5 -234.5 74.5 -235.2 74.5 -238.75 78.15 -243.8 83.45 -247.05 86.25 -251.7 90.3 -256.35 92.95 L-381.7 205.55 -382.35 205.55 -382.35 205.5 Q-355.1 174.85 -322.15 141.1 -325.0 140.6 -326.75 139.5 L-332.3 145.45 -355.35 170.15 -355.0 170.5 -355.0 173.5 -356.1 175.55 Q-357.05 176.5 -360.25 176.5 L-361.2 176.25 -363.4 178.5 Q-373.1 188.4 -382.35 197.05 L-382.35 184.5 -368.75 170.35 -367.0 168.55 -366.95 167.5 Q-366.65 166.95 -366.5 166.0 -366.2 166.0 -365.55 165.5 -365.15 165.15 -363.5 165.05 -345.0 146.45 -329.75 133.8 L-329.5 132.0 Q-329.5 122.5 -320.0 122.5 -317.8 122.5 -316.1 123.1 -309.1 118.0 -303.0 114.5 L-313.15 125.0 Q-312.2 125.9 -311.6 127.2 -311.05 128.3 -310.8 129.6 -295.2 113.85 -278.4 97.5 -285.75 95.65 -290.05 87.3 -292.8 81.9 -293.5 76.0 -293.5 71.15 -289.0 61.0 L-288.5 59.5 Q-298.45 59.5 -301.7 55.5 -303.5 53.35 -303.5 48.5 -303.5 44.8 -292.3 29.75 -280.45 13.75 -265.05 -2.45 -246.9 -21.65 -231.15 -32.95 -216.7 -43.4 -206.0 -45.75 L-205.05 -48.05 M-138.05 -134.55 Q-136.4 -136.5 -134.0 -136.5 -130.7 -136.5 -129.05 -132.55 -128.0 -130.05 -128.0 -128.0 -128.0 -120.0 -134.0 -120.0 -139.0 -120.0 -140.0 -123.6 -140.5 -125.45 -140.0 -127.75 -140.0 -132.2 -138.05 -134.55 M-121.55 -73.9 Q-120.5 -71.95 -120.5 -69.75 -120.5 -66.75 -123.05 -64.55 -125.35 -62.5 -128.0 -62.5 -133.5 -62.5 -135.05 -65.7 -135.5 -66.7 -135.5 -69.5 -135.5 -77.5 -128.0 -77.5 -123.4 -77.5 -121.55 -73.9 M-17.8 -92.1 Q-17.0 -91.6 -17.0 -88.25 -17.0 -85.0 -18.55 -82.7 -19.1 -81.9 -22.0 -79.0 -30.0 -83.7 -30.0 -85.5 -30.0 -89.15 -22.0 -93.0 -18.5 -92.55 -17.8 -92.1 M-49.0 38.0 Q-49.5 39.5 -52.0 42.5 -56.5 42.0 -58.0 40.5 -58.5 42.5 -58.5 37.5 -58.5 34.25 -56.7 33.65 L-53.0 33.5 Q-49.85 35.4 -49.0 38.0 M-22.0 121.0 Q-13.0 121.0 -13.0 128.0 -13.0 131.7 -15.55 134.05 -17.7 136.0 -20.0 136.0 -26.75 136.0 -27.0 126.0 L-26.85 123.05 Q-26.3 122.8 -26.0 122.0 L-25.5 121.5 Q-25.0 121.0 -22.0 121.0 M-382.35 32.0 L-382.35 24.75 -380.85 25.9 Q-379.65 27.1 -379.5 29.0 L-382.0 32.0 -382.35 32.0 M-382.35 90.65 L-382.35 81.25 -381.6 81.5 Q-381.0 82.05 -381.0 85.75 -381.0 88.65 -381.35 89.15 L-382.35 90.65 M-346.95 85.45 Q-345.5 87.8 -345.5 90.0 -345.5 91.4 -346.95 94.55 -348.75 98.5 -351.0 98.5 -361.5 98.5 -364.05 94.4 -365.3 92.3 -364.5 89.75 -364.5 81.5 -355.0 81.5 -349.45 81.5 -346.95 85.45 M-382.35 144.4 L-382.35 134.75 -374.7 128.9 -323.5 91.5 -342.65 110.0 Q-355.75 122.5 -366.6 131.7 -374.6 138.5 -382.35 144.4" fill="url(#gradient1)" fill-rule="evenodd" stroke="none"/>
  </g>
  <defs>
    <radialGradient cx="0" cy="0" gradientTransform="matrix(0.6823, 0.0, 0.0, 0.6823, -8.0, 194.0)" gradientUnits="userSpaceOnUse" id="gradient0" r="819.2" spreadMethod="pad">
      <stop offset="0.0" stop-color="#c28181"/>
      <stop offset="1.0" stop-color="#431b1b"/>
    </radialGradient>
    <linearGradient gradientTransform="matrix(-0.0058, 0.2628, -0.471, -0.0103, 0.35, -1.5)" gradientUnits="userSpaceOnUse" id="gradient1" spreadMethod="pad" x1="-819.2" x2="819.2">
      <stop offset="0.0" stop-color="#000000" stop-opacity="0.0627451"/>
      <stop offset="1.0" stop-color="#000000" stop-opacity="0.36078432"/>
    </linearGradient>
  </defs>
</svg>
