<?xml version="1.0" encoding="UTF-8" standalone="no"?>
<svg xmlns:ffdec="https://www.free-decompiler.com/flash" xmlns:xlink="http://www.w3.org/1999/xlink" ffdec:objectType="shape" height="25.8px" width="17.85px" xmlns="http://www.w3.org/2000/svg">
  <g transform="matrix(1.0, 0.0, 0.0, 1.0, 6.95, 17.45)">
    <path d="M10.9 -15.45 L10.9 -12.3 10.65 -11.65 6.2 -6.4 Q3.45 -3.15 2.1 -0.65 0.4 2.55 0.4 5.65 L0.5 7.25 0.4 7.8 0.05 8.2 -0.5 8.35 -4.15 8.35 -4.8 8.1 -5.15 7.5 -5.15 7.35 -5.65 7.35 -6.3 7.1 -6.65 6.5 -6.8 4.65 Q-6.8 0.8 -4.75 -3.2 L-4.75 -3.25 Q-3.6 -5.85 -0.85 -9.2 L-0.85 -9.25 0.75 -11.1 -4.45 -11.1 Q-4.85 -11.1 -5.15 -11.4 L-5.45 -12.1 -5.95 -12.1 Q-6.35 -12.1 -6.65 -12.4 L-6.95 -13.1 -6.95 -16.45 -6.65 -17.15 -5.95 -17.45 8.4 -17.45 9.1 -17.15 9.4 -16.45 9.9 -16.45 10.6 -16.15 10.9 -15.45" fill="#000000" fill-rule="evenodd" stroke="none"/>
  </g>
</svg>
