<?xml version="1.0" encoding="UTF-8" standalone="no"?>
<svg xmlns:ffdec="https://www.free-decompiler.com/flash" xmlns:xlink="http://www.w3.org/1999/xlink" ffdec:objectType="shape" height="41.35px" width="33.7px" xmlns="http://www.w3.org/2000/svg">
  <g transform="matrix(1.0, 0.0, 0.0, 1.0, 17.35, 21.15)">
    <path d="M-14.7 -19.45 L14.55 -19.45 14.55 20.2 -14.7 20.2 -14.7 -19.45" fill="url(#gradient0)" fill-rule="evenodd" stroke="none"/>
    <path d="M10.75 -18.6 L11.65 -19.45 Q12.25 -20.0 13.15 -20.0 14.65 -20.0 14.65 -18.4 14.65 -17.6 13.05 -16.55 L12.9 -16.5 Q16.35 -16.25 16.35 -13.8 16.35 -13.5 14.35 -11.75 L14.4 -11.55 Q14.4 -10.65 13.75 -9.65 12.85 -8.35 11.3 -8.35 L10.3 -8.4 10.25 -8.4 10.2 -8.4 Q8.9 -8.6 7.9 -9.25 L5.95 -9.1 Q5.3 -6.8 3.5 -6.8 1.15 -6.8 -0.15 -7.8 -2.65 -8.0 -4.1 -8.85 -3.75 -8.3 -3.8 -6.9 L-4.65 -2.3 Q-0.35 0.9 -0.35 1.7 -0.35 3.1 -2.6 3.1 -8.8 3.1 -8.8 0.9 L-4.8 -9.35 -4.75 -9.35 -5.2 -9.8 -6.05 -9.75 Q-7.95 -9.75 -9.1 -10.3 -12.4 -10.55 -13.0 -13.2 L-13.1 -13.3 -13.05 -13.55 -13.05 -13.6 Q-15.0 -14.0 -15.0 -15.95 L-14.75 -16.6 Q-16.15 -17.2 -16.15 -18.9 -16.15 -20.55 -14.75 -20.55 -13.0 -20.55 -12.7 -19.1 -10.65 -21.15 -8.6 -21.15 L-6.6 -20.8 -3.5 -21.0 1.15 -19.5 Q7.5 -21.1 9.35 -21.1 11.2 -21.1 10.65 -18.85 10.55 -18.75 10.75 -18.6 M6.3 -11.25 L6.8 -11.4 6.3 -11.35 6.3 -11.25 M15.8 5.8 Q15.8 6.3 15.15 6.7 L13.85 7.75 14.5 9.1 Q14.5 10.9 13.0 14.0 L12.9 14.25 Q14.75 14.4 14.75 15.65 12.65 18.75 11.5 18.75 10.4 18.75 10.1 18.3 9.85 17.85 9.3 17.85 8.0 19.25 5.75 19.25 5.3 19.9 4.3 19.9 L2.6 19.5 Q1.65 19.5 1.35 19.15 1.0 18.75 -0.5 18.75 -2.3 18.75 -3.1 19.5 L-7.75 19.15 -8.3 19.65 Q-8.7 20.15 -10.25 20.15 -13.2 20.15 -14.25 17.25 -14.25 16.15 -12.85 15.4 -14.4 14.75 -14.8 11.85 -14.8 11.25 -14.35 11.25 L-14.05 11.55 -17.35 5.55 -17.25 4.8 -16.5 4.6 Q-15.15 4.6 -12.3 10.1 L-11.45 11.85 Q-10.55 11.9 -10.65 12.3 L-10.8 13.25 -10.55 13.7 Q-8.95 15.05 2.2 15.05 L7.45 9.8 Q12.95 4.5 14.35 4.5 15.75 4.5 15.8 5.8 M-4.25 6.05 Q-3.0 6.05 -2.1 6.75 -1.4 7.3 -1.4 7.7 -1.4 9.15 -3.4 9.15 L-3.85 9.15 -4.4 9.55 Q-10.0 9.55 -11.05 7.55 -11.05 7.05 -9.6 6.2 -8.05 5.3 -6.7 5.3 -5.5 5.3 -4.45 6.05 L-4.25 6.05" fill="#000000" fill-opacity="0.6509804" fill-rule="evenodd" stroke="none"/>
  </g>
  <defs>
    <radialGradient cx="0" cy="0" gradientTransform="matrix(0.019, 0.0, 0.0, 0.0301, -0.05, 0.4)" gradientUnits="userSpaceOnUse" id="gradient0" r="819.2" spreadMethod="pad">
      <stop offset="0.0" stop-color="#895b8a"/>
      <stop offset="1.0" stop-color="#653434"/>
    </radialGradient>
  </defs>
</svg>
