<?xml version="1.0" encoding="UTF-8" standalone="no"?>
<svg xmlns:ffdec="https://www.free-decompiler.com/flash" xmlns:xlink="http://www.w3.org/1999/xlink" ffdec:objectType="shape" height="44.95px" width="46.65px" xmlns="http://www.w3.org/2000/svg">
  <g transform="matrix(1.0, 0.0, 0.0, 1.0, 18.1, 19.45)">
    <path d="M-14.7 -19.45 L14.55 -19.45 14.55 20.2 -14.7 20.2 -14.7 -19.45" fill="url(#gradient0)" fill-rule="evenodd" stroke="none"/>
    <path d="M5.0 -15.6 L4.8 -16.75 Q4.8 -18.6 6.0 -18.6 7.4 -18.6 7.75 -17.85 L6.05 -17.25 Q6.7 -13.75 16.25 -8.85 L15.35 -8.9 Q18.65 -8.3 20.5 -6.75 18.65 -3.85 13.0 -3.85 10.95 -3.85 9.15 -4.55 8.45 -3.85 6.75 -3.85 2.5 -3.85 1.6 -4.75 1.5 -4.8 1.5 -5.8 1.5 -6.65 2.3 -7.5 3.1 -8.3 4.25 -8.45 2.55 -10.65 1.75 -12.85 1.75 -14.75 3.0 -15.85 3.05 -14.1 3.25 -13.35 L3.5 -13.0 3.9 -14.45 Q4.15 -15.15 5.0 -15.6 M5.25 -12.5 Q4.95 -10.65 8.0 -10.0 L14.55 -9.05 Q10.9 -9.65 8.05 -11.75 6.35 -13.05 5.55 -14.35 L5.25 -12.5 M1.55 -4.25 Q1.55 -3.25 -0.75 -1.25 -3.65 1.25 -7.25 1.25 -9.45 1.25 -11.0 0.5 L-11.95 1.65 Q-13.35 3.85 -13.35 6.25 -13.35 7.55 -11.85 10.85 -11.85 11.5 -12.45 11.6 -13.1 11.7 -13.1 12.3 -13.1 14.05 -10.75 20.35 L-11.0 23.25 -12.0 23.55 Q-14.55 18.85 -18.1 5.5 -18.1 3.4 -16.2 0.5 -15.15 -1.15 -13.8 -2.1 -14.6 -3.5 -14.75 -5.0 -14.75 -5.95 -14.0 -7.05 L-12.75 -8.8 Q-13.9 -9.0 -14.15 -9.3 -14.55 -9.75 -13.75 -11.0 L-13.35 -11.1 Q-12.6 -11.1 -12.8 -10.7 L-13.1 -10.0 -12.3 -9.9 -11.5 -10.0 Q-11.15 -10.0 -10.9 -9.7 L-8.0 -9.5 -3.4 -10.0 Q-4.8 -8.5 -6.75 -8.5 L-10.3 -8.55 -10.0 -7.3 Q-9.6 -4.6 -8.15 -4.6 -0.6 -4.6 -0.6 -12.3 L-0.8 -14.0 -2.5 -11.25 -2.5 -11.6 -2.25 -12.0 Q-4.9 -10.85 -6.15 -10.85 -12.75 -10.85 -16.85 -16.9 -16.85 -18.15 -16.5 -17.75 L-13.25 -15.3 Q-9.95 -13.35 -5.85 -13.35 -2.5 -13.35 -1.3 -14.9 -1.7 -15.3 -2.25 -15.35 -1.7 -16.25 -0.85 -16.25 L-0.6 -15.85 Q0.3 -16.95 1.0 -17.0 L-0.25 -14.95 0.25 -13.05 0.75 -9.85 Q0.75 -5.75 -5.5 -3.1 L-5.25 -2.75 Q-2.35 -2.75 0.5 -5.6 1.55 -5.1 1.55 -4.25 M8.95 -7.4 Q10.95 -6.55 13.1 -6.25 L14.8 -6.35 16.0 -6.75 8.5 -7.75 8.95 -7.4 M15.2 -2.45 L16.25 -2.5 Q16.75 -1.85 16.75 -1.0 L16.75 -0.75 Q16.25 -0.85 16.25 -1.25 14.5 -0.25 13.5 3.55 12.8 6.15 12.8 7.85 12.8 11.2 13.35 14.0 16.05 16.65 22.25 15.25 19.55 17.3 16.5 17.3 L14.2 17.0 14.65 18.2 Q18.3 26.7 28.0 22.8 L28.3 22.7 Q28.55 22.75 28.55 23.55 28.55 24.15 26.0 25.5 15.7 25.5 12.3 17.8 L11.4 15.15 10.8 14.3 Q9.55 12.25 9.55 9.6 9.55 -3.65 14.5 -3.0 L15.2 -2.45 M0.3 4.3 Q-0.5 4.3 -1.7 3.5 L-2.85 2.4 Q-2.85 2.0 -1.6 0.55 -0.35 -0.85 0.0 -0.85 0.9 -0.85 2.8 1.3 2.8 2.15 1.8 3.25 0.85 4.3 0.3 4.3 M0.75 12.8 L-1.45 12.2 Q-2.95 11.65 -3.5 11.8 L-4.95 11.8 Q-5.25 11.75 -5.25 11.0 -5.25 10.1 -3.85 9.0 -2.35 7.8 -0.75 7.8 2.75 7.8 5.0 10.0 3.6 12.8 0.75 12.8 M-13.1 -14.35 Q-9.65 -12.15 -7.5 -12.25 L-4.75 -12.5 Q-6.8 -12.75 -13.25 -14.5 L-13.1 -14.35 M-11.3 -3.3 L-10.9 -3.4 -11.5 -3.5 -11.3 -3.3" fill="#000000" fill-opacity="0.6509804" fill-rule="evenodd" stroke="none"/>
  </g>
  <defs>
    <radialGradient cx="0" cy="0" gradientTransform="matrix(0.019, 0.0, 0.0, 0.0301, -0.05, 0.4)" gradientUnits="userSpaceOnUse" id="gradient0" r="819.2" spreadMethod="pad">
      <stop offset="0.0" stop-color="#ffcc00"/>
      <stop offset="1.0" stop-color="#745425"/>
    </radialGradient>
  </defs>
</svg>
