<?xml version="1.0" encoding="UTF-8" standalone="no"?>
<svg xmlns:ffdec="https://www.free-decompiler.com/flash" xmlns:xlink="http://www.w3.org/1999/xlink" ffdec:objectType="shape" height="42.1px" width="32.75px" xmlns="http://www.w3.org/2000/svg">
  <g transform="matrix(1.0, 0.0, 0.0, 1.0, 17.5, 19.45)">
    <path d="M14.55 20.2 L-14.7 20.2 -14.7 -19.45 14.55 -19.45 14.55 20.2" fill="url(#gradient0)" fill-rule="evenodd" stroke="none"/>
    <path d="M7.15 -10.55 Q7.85 -9.95 7.85 -9.3 7.85 -7.15 4.25 -6.9 L4.5 -6.0 Q4.15 -5.3 3.75 -5.3 L3.75 -5.2 Q3.75 -3.9 2.95 -2.75 1.7 -1.05 -0.75 -1.05 -1.85 -1.05 -2.05 -3.3 -2.05 -3.85 -0.85 -5.3 0.45 -6.9 1.25 -6.9 L2.55 -6.6 Q2.3 -7.55 2.4 -9.15 2.4 -11.3 5.25 -11.3 6.4 -11.3 7.15 -10.55 M2.15 -12.25 L-0.65 -11.65 -0.65 -11.5 -7.0 -11.8 -7.75 -11.65 -7.75 -11.15 -7.8 -10.75 -8.15 -10.85 -8.5 -10.1 -7.1 -10.3 Q-4.4 -10.3 -3.8 -9.75 -3.55 -9.55 -3.55 -8.5 -3.55 -7.85 -4.25 -7.15 -5.1 -6.3 -6.25 -6.3 -8.9 -6.3 -9.4 -8.2 L-12.65 -0.85 Q-11.7 3.05 -11.0 9.45 L-10.3 15.4 Q-9.05 16.0 -6.65 16.0 L-4.15 12.1 Q-2.8 10.25 2.25 9.75 L3.25 9.5 3.95 9.6 7.0 9.5 Q8.75 9.5 13.25 19.4 13.25 20.5 12.5 20.5 12.2 20.5 10.95 18.95 L10.7 19.25 9.85 20.0 Q8.0 20.0 6.15 16.85 5.75 16.85 5.3 17.15 L6.15 18.4 Q6.15 20.15 4.0 21.35 1.65 22.65 -2.2 22.65 -9.5 22.65 -7.25 20.0 -7.85 19.35 -9.6 19.55 L-9.05 22.1 -9.5 22.6 Q-10.75 22.6 -11.4 19.75 -12.55 19.7 -12.75 18.75 L-12.55 17.4 -14.55 5.2 -14.7 5.65 Q-15.8 9.5 -17.0 11.5 -17.5 10.95 -17.5 10.15 -17.5 6.25 -13.9 -2.35 L-13.45 -3.35 -12.4 -6.7 Q-10.6 -12.2 -9.25 -13.75 -8.65 -13.65 -8.65 -13.15 L-8.65 -13.1 Q-7.05 -14.5 -1.25 -14.5 3.9 -14.5 8.5 -12.5 11.75 -11.1 12.65 -9.65 L12.75 -9.65 Q14.0 -9.65 14.15 -7.05 L14.1 -3.0 Q14.15 -1.5 14.7 0.5 15.25 2.45 15.25 3.65 15.25 5.25 14.5 5.25 14.05 5.25 13.4 3.8 L13.85 11.0 Q13.85 13.95 12.5 14.75 11.85 13.65 11.85 11.65 L11.9 8.25 11.4 1.9 Q11.15 -1.25 10.15 -4.55 9.55 -6.5 7.55 -10.65 4.6 -12.25 2.15 -12.25 M1.25 4.0 L0.0 5.1 Q-3.55 5.1 -2.8 3.9 -2.8 3.15 -1.45 2.5 -0.1 1.85 1.5 1.85 2.35 1.85 2.35 2.7 L1.25 4.0 M3.5 2.9 Q3.5 1.5 5.0 1.5 5.65 1.5 6.35 3.0 6.35 4.25 4.85 4.25 3.65 4.25 3.5 2.9" fill="#000000" fill-opacity="0.6509804" fill-rule="evenodd" stroke="none"/>
  </g>
  <defs>
    <radialGradient cx="0" cy="0" gradientTransform="matrix(0.019, 0.0, 0.0, 0.0301, -0.05, 0.4)" gradientUnits="userSpaceOnUse" id="gradient0" r="819.2" spreadMethod="pad">
      <stop offset="0.0" stop-color="#b63030"/>
      <stop offset="1.0" stop-color="#4a2424"/>
    </radialGradient>
  </defs>
</svg>
