<?xml version="1.0" encoding="UTF-8" standalone="no"?>
<svg xmlns:ffdec="https://www.free-decompiler.com/flash" xmlns:xlink="http://www.w3.org/1999/xlink" ffdec:objectType="shape" height="43.05px" width="32.5px" xmlns="http://www.w3.org/2000/svg">
  <g transform="matrix(1.0, 0.0, 0.0, 1.0, 16.25, 22.85)">
    <path d="M14.55 20.2 L-14.7 20.2 -14.7 -19.45 14.55 -19.45 14.55 20.2" fill="url(#gradient0)" fill-rule="evenodd" stroke="none"/>
    <path d="M12.45 -13.25 L13.55 -10.75 Q13.4 -12.25 12.3 -14.15 L12.45 -13.25 M3.25 -13.4 Q3.25 -11.15 1.05 -10.6 L-6.85 -10.25 Q-11.85 -10.25 -13.05 -8.15 -13.7 -7.0 -13.75 -5.1 L-14.35 -5.1 Q-14.5 -4.4 -14.5 -5.65 -14.5 -13.25 1.05 -12.0 L1.3 -12.2 1.55 -13.1 -0.2 -15.5 -1.1 -15.25 -1.7 -16.05 -2.25 -15.6 Q-3.75 -16.6 -3.75 -17.85 L-3.35 -18.8 Q-2.95 -20.35 -2.2 -20.75 L-0.5 -21.05 Q2.2 -22.85 4.0 -22.85 9.4 -22.85 13.25 -17.5 16.25 -13.3 16.25 -10.55 16.25 -6.5 10.55 -2.6 3.6 2.2 -7.0 0.3 L-7.85 1.3 -9.35 5.05 -8.35 5.05 Q-1.15 5.05 5.0 3.0 L11.75 0.8 Q12.25 0.1 12.25 1.35 12.25 2.5 9.45 3.7 L11.0 4.8 12.75 2.55 Q13.8 1.35 15.25 1.3 15.75 0.8 15.75 2.05 15.75 2.9 12.0 7.55 10.1 7.15 8.7 5.8 L7.5 4.45 6.0 4.9 Q4.8 6.5 -1.5 12.5 -4.05 12.5 -6.35 9.7 L-8.4 6.9 -10.0 6.8 Q-10.25 7.25 -10.25 6.0 L-10.1 5.5 -11.0 5.5 -11.1 3.25 -11.5 2.55 -11.4 5.85 Q-11.55 7.8 -13.6 7.8 -14.3 7.8 -14.15 8.0 -13.75 8.6 -13.75 9.15 -13.75 11.0 -10.85 14.8 -11.1 15.55 -11.5 16.0 -16.25 14.45 -16.25 9.0 -16.25 4.55 -13.8 0.65 -13.7 -0.6 -13.0 -1.65 L-13.0 -1.9 Q-13.0 -3.4 -11.35 -5.2 -9.5 -7.3 -7.0 -7.75 -3.5 -8.2 8.1 -10.9 8.55 -11.8 8.55 -12.85 6.75 -17.25 3.5 -17.25 2.75 -17.25 1.4 -16.4 L3.25 -13.4 M10.3 -5.25 L10.05 -4.9 12.4 -7.0 10.3 -5.25 M11.25 11.5 Q12.75 11.5 14.0 13.0 15.0 14.25 15.0 15.15 15.0 16.75 11.25 16.75 10.1 18.25 9.5 18.3 L7.4 18.15 Q7.25 18.05 7.25 18.5 6.3 18.25 6.3 17.35 6.3 16.5 7.6 15.65 L9.75 13.8 10.65 11.9 Q10.8 11.5 11.25 11.5 M1.9 5.95 L-5.5 7.0 -5.95 7.0 -2.75 10.25 0.85 6.8 1.9 5.95 M-1.8 -3.9 L-2.9 -4.0 -3.05 -4.0 -3.6 -3.75 -3.75 -3.6 -3.65 -3.6 -2.5 -3.85 -1.8 -3.9" fill="#000000" fill-opacity="0.6509804" fill-rule="evenodd" stroke="none"/>
  </g>
  <defs>
    <radialGradient cx="0" cy="0" gradientTransform="matrix(0.019, 0.0, 0.0, 0.0301, -0.05, 0.4)" gradientUnits="userSpaceOnUse" id="gradient0" r="819.2" spreadMethod="pad">
      <stop offset="0.0" stop-color="#858bc7"/>
      <stop offset="1.0" stop-color="#30558b"/>
    </radialGradient>
  </defs>
</svg>
