<?xml version="1.0" encoding="UTF-8" standalone="no"?>
<svg xmlns:ffdec="https://www.free-decompiler.com/flash" xmlns:xlink="http://www.w3.org/1999/xlink" ffdec:objectType="shape" height="46.05px" width="40.35px" xmlns="http://www.w3.org/2000/svg">
  <g transform="matrix(1.0, 0.0, 0.0, 1.0, 21.1, 22.5)">
    <path d="M14.55 20.2 L-14.7 20.2 -14.7 -19.45 14.55 -19.45 14.55 20.2" fill="url(#gradient0)" fill-rule="evenodd" stroke="none"/>
    <path d="M15.5 -14.05 Q18.75 -12.6 19.25 -11.85 18.65 -11.0 18.0 -11.0 L17.3 -11.0 17.8 -9.25 17.8 -6.5 18.0 -6.6 19.05 -5.25 Q19.05 -4.85 13.8 -2.65 L13.8 -2.5 Q13.8 -1.05 13.1 -0.4 L11.3 0.7 10.5 1.55 Q9.4 2.05 9.1 1.55 L9.0 1.55 Q8.55 1.0 8.55 0.4 L9.45 -0.85 3.2 1.6 Q3.8 1.7 4.0 2.0 3.45 2.35 2.55 4.2 1.95 5.35 -1.3 5.75 L0.3 11.8 1.0 11.05 6.95 15.95 Q9.75 18.2 14.05 20.25 L14.25 20.55 Q14.75 21.25 13.5 21.25 4.7 18.75 1.45 16.45 2.6 20.55 3.75 23.55 1.7 22.95 0.55 20.85 -0.45 18.5 -1.25 17.55 -1.7 19.4 -3.0 22.0 L-5.0 21.8 -4.5 9.6 -4.7 7.45 -5.95 7.55 -5.85 8.8 -5.85 12.9 Q-5.85 18.7 -6.75 22.3 L-7.35 22.3 Q-7.65 20.15 -7.35 13.75 -7.15 8.65 -7.7 5.65 L-16.75 8.65 -16.75 9.3 -16.95 8.75 -20.85 9.8 -21.1 8.75 -17.5 7.4 -18.45 4.45 -19.35 4.8 -18.45 4.35 -18.75 2.8 -18.5 1.55 -17.75 1.55 -16.9 3.4 Q-10.0 -1.1 -7.3 -7.9 L-5.15 -14.55 Q-3.85 -18.55 -2.25 -21.1 -1.75 -21.8 -1.75 -20.55 L-1.8 -19.5 Q1.25 -21.3 9.5 -22.5 10.55 -22.5 11.25 -22.0 L11.3 -21.4 Q11.3 -20.4 9.3 -19.55 L11.25 -16.5 Q12.05 -15.55 15.5 -14.05 M7.2 4.85 Q7.5 4.85 7.5 5.6 L7.5 5.75 8.8 6.8 6.05 9.25 Q4.55 7.85 4.55 6.8 4.55 5.75 5.9 5.6 L6.5 5.0 7.2 4.85 M-2.0 3.55 L-1.8 4.15 -1.6 3.4 -2.0 3.55 M-2.2 3.6 L-2.6 3.75 -2.6 3.8 -2.6 3.95 -2.2 3.6 M-3.0 16.0 L-2.85 16.0 Q-2.25 14.0 -2.6 13.0 L-3.0 16.0" fill="#000000" fill-opacity="0.6509804" fill-rule="evenodd" stroke="none"/>
  </g>
  <defs>
    <radialGradient cx="0" cy="0" gradientTransform="matrix(0.019, 0.0, 0.0, 0.0301, -0.05, 0.4)" gradientUnits="userSpaceOnUse" id="gradient0" r="819.2" spreadMethod="pad">
      <stop offset="0.0" stop-color="#fa7bfb"/>
      <stop offset="1.0" stop-color="#d234e4"/>
    </radialGradient>
  </defs>
</svg>
