<?xml version="1.0" encoding="UTF-8" standalone="no"?>
<svg xmlns:ffdec="https://www.free-decompiler.com/flash" xmlns:xlink="http://www.w3.org/1999/xlink" ffdec:objectType="shape" height="39.65px" width="32.95px" xmlns="http://www.w3.org/2000/svg">
  <g transform="matrix(1.0, 0.0, 0.0, 1.0, 18.35, 19.45)">
    <path d="M14.55 -19.45 L14.55 20.2 -14.7 20.2 -14.7 -19.45 14.55 -19.45" fill="url(#gradient0)" fill-rule="evenodd" stroke="none"/>
    <path d="M13.6 -17.15 Q14.6 -15.35 14.5 -14.2 14.8 -13.75 14.0 -13.85 L14.0 -13.75 Q13.75 -12.45 7.2 -13.35 L6.2 -9.95 8.95 0.45 Q8.8 1.1 6.0 2.9 L3.9 6.95 3.7 7.05 2.7 7.0 Q2.7 5.35 1.75 3.6 L0.2 2.2 -0.85 2.2 Q-2.8 1.85 -2.65 0.1 -2.45 -0.85 -0.95 -1.5 0.3 -2.15 1.25 -2.0 1.75 -1.9 1.95 -1.4 L2.55 -1.6 Q5.7 -2.3 5.85 -2.8 L4.15 -12.3 Q3.7 -13.35 3.75 -13.85 L3.8 -14.25 3.75 -14.65 4.3 -15.05 5.15 -15.75 6.6 -16.65 7.35 -17.4 Q8.95 -18.95 9.8 -19.1 L10.85 -19.4 Q12.3 -19.15 13.6 -17.15 M5.35 11.3 Q0.5 11.3 -3.35 13.5 L-4.9 14.5 Q-6.05 14.1 -6.05 13.25 -6.05 12.5 -5.2 11.7 -4.35 10.8 -3.45 10.8 L-3.05 11.3 -1.4 10.25 Q1.75 8.45 4.8 8.45 7.0 8.45 7.75 8.9 L8.15 9.3 Q9.15 9.6 9.85 11.2 L9.5 11.7 5.35 11.3 M-12.5 -11.4 Q-20.05 -12.5 -17.85 -14.15 -17.65 -15.05 -14.5 -17.3 -11.2 -19.6 -9.9 -19.4 -1.15 -18.1 -0.3 -13.85 -3.4 -10.05 -12.5 -11.4" fill="#000000" fill-opacity="0.6509804" fill-rule="evenodd" stroke="none"/>
  </g>
  <defs>
    <radialGradient cx="0" cy="0" gradientTransform="matrix(0.019, 0.0, 0.0, 0.0301, -0.05, 0.4)" gradientUnits="userSpaceOnUse" id="gradient0" r="819.2" spreadMethod="pad">
      <stop offset="0.0" stop-color="#949b4a"/>
      <stop offset="1.0" stop-color="#4a5247"/>
    </radialGradient>
  </defs>
</svg>
