<?xml version="1.0" encoding="UTF-8" standalone="no"?>
<svg xmlns:ffdec="https://www.free-decompiler.com/flash" xmlns:xlink="http://www.w3.org/1999/xlink" ffdec:objectType="shape" height="38.2px" width="39.65px" xmlns="http://www.w3.org/2000/svg">
  <g transform="matrix(1.0, 0.0, 0.0, 1.0, 17.4, 19.8)">
    <path d="M20.1 -18.0 Q22.3 -16.5 22.25 -15.4 22.25 -13.05 16.2 -8.65 12.05 -10.85 7.3 -7.15 L7.25 -6.9 6.6 -6.7 Q5.3 -6.7 5.1 -7.75 L5.05 -7.75 5.05 -7.95 5.05 -8.0 5.0 -9.25 Q4.75 -10.0 4.85 -11.15 L4.5 -13.9 Q4.5 -14.6 4.75 -15.15 L4.45 -15.65 Q4.45 -16.65 7.75 -18.15 11.15 -19.8 13.75 -19.8 17.35 -19.8 20.1 -18.0 M4.75 -2.15 Q4.15 -3.4 4.1 -3.7 L5.0 -3.85 6.3 -2.4 6.55 -2.4 7.95 -0.4 Q7.95 0.65 6.2 2.6 4.25 4.7 2.4 4.7 L1.55 4.7 1.3 5.25 0.95 5.65 -0.35 9.6 -1.25 10.0 Q-2.95 10.0 -3.9 7.5 L-8.0 4.15 Q-10.3 3.85 -10.25 1.95 -8.75 -1.6 -7.55 -2.4 L-7.05 -2.4 -6.85 -3.6 Q-8.0 -8.35 -12.05 -11.4 L-14.6 -13.15 -15.65 -13.8 -16.1 -14.0 Q-16.95 -14.05 -16.9 -14.3 L-16.9 -14.75 Q-17.35 -15.15 -17.4 -15.45 L-17.3 -16.05 -17.4 -16.3 Q-17.4 -16.75 -16.25 -17.25 L-14.6 -17.75 -10.2 -18.5 Q-7.75 -18.55 -5.3 -17.25 L-4.3 -16.65 -4.15 -16.3 -4.0 -16.3 Q-3.65 -15.6 -3.65 -14.45 -3.65 -12.35 -4.0 -8.1 L-4.3 -2.15 -4.35 -2.15 -3.65 -1.1 Q-3.7 -0.65 -3.15 0.05 L-0.6 1.1 0.15 1.4 1.3 1.85 1.5 1.85 Q3.55 0.05 4.8 -0.15 L5.25 0.15 5.65 -0.15 4.85 -2.15 4.75 -2.15 M0.25 15.2 L-1.0 15.0 -1.1 15.05 -1.1 15.1 Q-1.05 15.5 -1.75 15.5 L-2.25 15.5 -4.15 16.25 -5.5 16.75 -7.75 18.4 Q-10.4 18.4 -9.8 16.55 -9.8 15.15 -9.1 14.95 L-9.0 14.95 Q-8.0 13.6 -5.0 13.4 -3.25 11.65 -2.6 11.65 -2.15 11.6 -1.5 12.45 -0.9 13.2 0.55 13.3 L0.75 13.05 Q1.7 12.0 2.6 12.0 3.25 12.0 5.9 14.05 L7.6 15.45 Q7.75 14.4 9.2 14.4 11.0 14.4 10.95 16.35 10.95 17.9 9.4 17.9 8.15 17.9 7.75 17.3 L7.6 17.3 Q4.2 17.3 1.8 16.2 L0.25 15.2" fill="#000000" fill-opacity="0.6509804" fill-rule="evenodd" stroke="none"/>
  </g>
</svg>
