<?xml version="1.0" encoding="UTF-8" standalone="no"?>
<svg xmlns:ffdec="https://www.free-decompiler.com/flash" xmlns:xlink="http://www.w3.org/1999/xlink" ffdec:objectType="shape" height="40.1px" width="29.25px" xmlns="http://www.w3.org/2000/svg">
  <g transform="matrix(1.0, 0.0, 0.0, 1.0, 14.7, 19.45)">
    <path d="M14.55 20.2 L-14.7 20.2 -14.7 -19.45 14.55 -19.45 14.55 20.2" fill="url(#gradient0)" fill-rule="evenodd" stroke="none"/>
    <path d="M5.65 -13.7 L5.65 -13.6 5.65 -12.95 Q5.4 -11.65 4.4 -10.95 3.35 -10.2 2.0 -10.45 0.7 -10.75 0.05 -11.6 L-0.65 -12.4 -0.7 -12.4 Q-1.45 -13.4 -1.15 -14.6 -0.9 -15.85 0.15 -16.4 L0.2 -16.4 1.3 -16.85 2.95 -16.95 Q4.2 -16.8 4.95 -15.9 5.75 -15.0 5.65 -13.7 M2.2 -9.8 L3.1 -9.6 Q4.9 -9.25 4.65 -7.55 L4.65 -6.7 2.7 10.1 3.75 10.75 Q6.1 11.55 5.95 15.05 L5.95 15.2 5.95 15.95 5.75 17.7 Q5.65 21.7 2.9 20.3 L-7.65 14.8 -8.75 13.85 Q-10.4 12.6 -9.5 10.1 L-9.1 8.7 Q-8.55 6.5 -7.3 6.55 L-5.9 6.6 -5.2 6.75 -2.7 -4.8 -3.1 -4.95 -4.2 -5.75 Q-5.25 -6.35 -4.8 -7.8 L-4.65 -8.55 Q-4.3 -10.15 -3.3 -10.05 L-2.15 -10.1 1.55 -9.85 2.2 -9.8" fill="#232532" fill-rule="evenodd" stroke="none"/>
    <path d="M3.6 -16.3 Q4.1 -15.75 4.05 -14.85 3.85 -14.05 3.25 -13.6 2.5 -13.1 1.55 -13.25 L1.6 -13.25 Q0.65 -13.5 0.2 -14.15 L0.05 -14.35 Q-0.35 -14.95 -0.15 -15.6 L-0.15 -15.65 Q0.0 -16.35 0.55 -16.7 L0.8 -16.85 2.15 -17.05 2.2 -17.05 Q3.05 -16.95 3.6 -16.35 L3.6 -16.3 M2.3 -9.7 L3.0 -9.4 3.05 -8.75 3.05 -8.65 1.0 8.8 1.1 9.35 1.5 9.8 2.6 10.5 2.8 10.6 Q4.45 11.3 4.35 14.0 L4.15 15.75 4.15 15.85 Q4.1 17.25 3.7 17.75 3.4 17.9 2.75 17.55 L2.75 17.6 -7.75 12.05 Q-9.25 11.2 -8.55 9.15 L-8.55 9.1 -8.15 7.7 -7.5 6.35 -6.9 6.4 -6.75 6.45 -5.55 6.75 -5.0 6.75 -4.55 6.45 -4.3 6.0 -1.65 -6.1 -1.7 -6.8 -2.2 -7.25 -3.3 -7.75 -3.4 -7.75 Q-4.1 -8.0 -3.85 -8.75 L-3.85 -8.8 -3.65 -9.55 -3.35 -10.3 -3.15 -10.25 -2.8 -10.2 0.9 -9.95 1.15 -10.0 1.35 -9.95 2.3 -9.7" fill="url(#gradient1)" fill-rule="evenodd" stroke="none"/>
    <path d="M3.6 -16.3 L3.6 -16.35 Q3.05 -16.95 2.2 -17.05 L2.15 -17.05 0.8 -16.85 0.55 -16.7 Q0.0 -16.35 -0.15 -15.65 L-0.15 -15.6 Q-0.35 -14.95 0.05 -14.35 L0.2 -14.15 Q0.65 -13.5 1.6 -13.25 L1.55 -13.25 Q2.5 -13.1 3.25 -13.6 3.85 -14.05 4.05 -14.85 4.1 -15.75 3.6 -16.3 M0.2 -17.65 Q1.05 -18.3 2.35 -18.05 3.6 -17.9 4.35 -17.0 5.15 -16.1 5.05 -14.8 4.8 -13.5 3.8 -12.8 2.75 -12.05 1.4 -12.3 -0.05 -12.6 -0.65 -13.65 L-0.7 -13.65 Q-1.45 -14.65 -1.15 -15.85 -0.9 -17.1 0.15 -17.65 L0.2 -17.65 M2.3 -9.7 L1.35 -9.95 1.15 -10.0 0.9 -9.95 -2.8 -10.2 -3.15 -10.25 -3.35 -10.3 -3.65 -9.55 -3.85 -8.8 -3.85 -8.75 Q-4.1 -8.0 -3.4 -7.75 L-3.3 -7.75 -2.2 -7.25 -1.7 -6.8 -1.65 -6.1 -4.3 6.0 -4.55 6.45 -5.0 6.75 -5.55 6.75 -6.75 6.45 -6.9 6.4 -7.5 6.35 -8.15 7.7 -8.55 9.1 -8.55 9.15 Q-9.25 11.2 -7.75 12.05 L2.75 17.6 2.75 17.55 Q3.4 17.9 3.7 17.75 4.1 17.25 4.15 15.85 L4.15 15.75 4.35 14.0 Q4.45 11.3 2.8 10.6 L2.6 10.5 1.5 9.8 1.1 9.35 1.0 8.8 3.05 -8.65 3.05 -8.75 3.0 -9.4 2.3 -9.7 M2.5 -10.7 Q4.35 -10.35 4.05 -8.55 L2.0 8.95 3.15 9.65 Q5.55 10.5 5.35 14.1 L5.15 15.85 Q5.05 19.85 2.3 18.45 L-8.25 12.95 Q-10.55 11.7 -9.5 8.85 L-9.1 7.45 Q-8.4 4.6 -6.5 5.5 L-5.3 5.8 -2.6 -6.35 -3.7 -6.8 Q-5.35 -7.35 -4.8 -9.05 L-4.65 -9.8 Q-4.2 -11.75 -2.75 -11.2 L0.95 -10.95 1.6 -10.9 2.5 -10.7" fill="#ffffff" fill-rule="evenodd" stroke="none"/>
  </g>
  <defs>
    <radialGradient cx="0" cy="0" gradientTransform="matrix(0.0301, 0.0, 0.0, 0.0301, -0.05, 0.4)" gradientUnits="userSpaceOnUse" id="gradient0" r="819.2" spreadMethod="pad">
      <stop offset="0.0" stop-color="#5f7bed"/>
      <stop offset="1.0" stop-color="#1d2530"/>
    </radialGradient>
    <radialGradient cx="0" cy="0" gradientTransform="matrix(0.0339, 0.0, 0.0, 0.0339, -1.25, -8.2)" gradientUnits="userSpaceOnUse" id="gradient1" r="819.2" spreadMethod="pad">
      <stop offset="0.0" stop-color="#3cd9ff"/>
      <stop offset="1.0" stop-color="#0e46c7"/>
    </radialGradient>
  </defs>
</svg>
