<?xml version="1.0" encoding="UTF-8" standalone="no"?>
<svg xmlns:ffdec="https://www.free-decompiler.com/flash" xmlns:xlink="http://www.w3.org/1999/xlink" ffdec:objectType="shape" height="68.55px" width="37.45px" xmlns="http://www.w3.org/2000/svg">
  <g transform="matrix(1.0, 0.0, 0.0, 1.0, 17.65, 41.85)">
    <path d="M14.55 20.2 L-14.7 20.2 -14.7 -19.45 14.55 -19.45 14.55 20.2" fill="url(#gradient0)" fill-rule="evenodd" stroke="none"/>
    <path d="M14.75 -41.85 Q18.95 -41.85 19.8 -34.95 L19.75 -28.0 19.25 5.85 Q19.85 10.45 19.25 14.55 18.1 22.4 12.5 22.65 L11.95 23.65 Q10.05 26.85 8.4 26.7 7.45 26.6 6.45 24.1 L4.95 20.65 Q4.1 19.6 0.45 18.65 -2.45 17.9 -2.55 16.35 -7.35 14.3 -11.95 5.6 -13.45 3.5 -13.8 1.95 -17.7 -2.8 -17.65 -3.7 -17.65 -4.3 -17.35 -4.5 L-17.05 -5.2 Q-16.75 -6.7 -14.4 -9.3 -11.5 -12.5 -9.25 -12.3 L-8.85 -12.15 -8.5 -12.15 Q-7.4 -12.05 -6.1 -4.65 -4.9 -4.1 -4.95 -2.9 -5.0 -2.3 -6.05 -0.9 -7.15 0.45 -7.6 0.4 -10.15 0.2 -10.35 -3.65 L-10.35 -3.8 -10.7 -4.8 Q-10.85 -3.05 -13.3 -2.95 L-12.95 -2.2 -11.65 -0.2 -10.7 1.3 -8.3 5.0 -7.8 5.45 Q-5.6 7.1 -2.4 10.2 L-0.95 11.7 8.45 4.2 8.65 2.15 Q8.65 1.15 9.0 -1.3 L8.6 -9.9 Q8.6 -14.55 9.1 -29.05 9.1 -41.85 14.75 -41.85 M5.65 -18.0 Q4.15 -11.05 0.2 -11.4 -4.6 -11.85 -4.45 -15.05 -4.4 -17.0 -1.7 -18.65 0.85 -20.35 3.15 -20.1 6.2 -19.85 5.65 -18.0 M8.75 7.0 L8.35 7.25 8.75 7.1 8.75 7.0" fill="#000000" fill-opacity="0.6509804" fill-rule="evenodd" stroke="none"/>
  </g>
  <defs>
    <radialGradient cx="0" cy="0" gradientTransform="matrix(0.0301, 0.0, 0.0, 0.0301, -0.05, 0.4)" gradientUnits="userSpaceOnUse" id="gradient0" r="819.2" spreadMethod="pad">
      <stop offset="0.0" stop-color="#9e9ec7"/>
      <stop offset="1.0" stop-color="#3e5b43"/>
    </radialGradient>
  </defs>
</svg>
