<?xml version="1.0" encoding="UTF-8" standalone="no"?>
<svg xmlns:ffdec="https://www.free-decompiler.com/flash" xmlns:xlink="http://www.w3.org/1999/xlink" ffdec:objectType="shape" height="54.85px" width="47.1px" xmlns="http://www.w3.org/2000/svg">
  <g transform="matrix(1.0, 0.0, 0.0, 1.0, 26.8, 29.4)">
    <path d="M18.3 -13.9 Q20.25 -13.9 20.3 -12.15 20.3 -11.45 16.5 -10.8 L16.5 -10.75 Q16.5 -8.25 14.8 -4.9 13.6 -2.75 12.25 -1.35 L12.25 -1.3 Q12.25 0.35 10.7 0.4 L7.05 0.3 7.4 5.7 Q11.45 6.3 13.3 6.85 L14.25 6.15 Q16.05 6.15 15.85 8.3 16.55 10.75 15.75 12.75 14.25 16.15 7.9 16.55 L7.95 17.45 7.4 21.55 6.5 25.35 5.95 25.45 Q5.55 25.45 5.1 16.55 0.5 16.2 -5.45 13.2 -12.8 9.55 -12.8 5.65 -12.8 4.0 -10.75 4.0 L-10.65 4.0 Q-10.2 3.55 -9.25 3.6 L-4.25 4.15 1.5 4.85 4.55 5.3 4.15 0.1 Q-2.4 -0.45 -8.4 -2.1 -18.35 -4.75 -18.35 -8.55 L-18.25 -9.1 -21.45 -10.0 Q-26.8 -11.6 -26.8 -13.0 -26.8 -14.55 -25.7 -14.55 -20.4 -12.35 -16.6 -11.8 -16.25 -12.6 -14.7 -12.6 -14.05 -12.25 -13.0 -12.0 L1.0 -12.8 1.9 -12.8 Q0.2 -19.9 -2.55 -28.2 -2.55 -29.4 -1.4 -29.4 3.0 -29.4 5.5 -12.95 L15.45 -13.3 Q16.75 -13.3 18.3 -13.9 M6.15 -8.55 L6.45 -5.95 6.7 -3.25 7.75 -3.05 10.35 -3.15 Q10.55 -5.25 12.0 -9.25 L9.9 -9.35 8.7 -8.9 6.15 -8.55 M2.9 -8.35 Q-0.35 -8.2 -5.0 -8.2 L-9.85 -8.65 -13.45 -8.5 -13.5 -8.5 3.65 -3.95 2.9 -8.35 M10.85 9.35 L7.65 9.25 7.8 12.3 Q8.75 12.2 11.1 9.35 L10.85 9.35 M4.75 9.05 L-4.75 7.75 -6.9 7.8 Q-5.85 8.55 -0.7 10.35 2.6 11.45 4.9 11.95 L4.75 9.05" fill="#000000" fill-opacity="0.6509804" fill-rule="evenodd" stroke="none"/>
  </g>
</svg>
