<?xml version="1.0" encoding="UTF-8" standalone="no"?>
<svg xmlns:ffdec="https://www.free-decompiler.com/flash" xmlns:xlink="http://www.w3.org/1999/xlink" ffdec:objectType="shape" height="45.65px" width="34.95px" xmlns="http://www.w3.org/2000/svg">
  <g transform="matrix(1.0, 0.0, 0.0, 1.0, 17.35, 21.4)">
    <path d="M17.5 -18.1 L15.5 10.3 16.85 10.8 17.25 12.1 Q17.25 13.05 15.7 14.0 L15.25 14.3 15.0 18.15 15.05 19.1 14.9 19.55 14.75 22.3 Q14.4 22.9 13.15 22.9 11.45 22.9 10.6 21.1 L6.15 21.6 5.05 22.9 4.0 21.7 -5.8 21.9 Q-8.85 21.9 -12.1 19.4 L-13.55 24.25 Q-15.0 23.55 -16.25 19.0 -17.35 14.9 -17.35 11.9 -17.35 0.85 -14.75 0.85 -12.75 0.85 -11.95 4.3 L-11.1 6.15 Q-12.15 -3.4 -12.15 -6.35 L-12.15 -6.65 Q-13.0 -7.5 -14.05 -9.6 -14.05 -11.15 -11.9 -13.2 -9.75 -15.35 -8.1 -15.35 -4.65 -15.35 -4.65 -12.5 -4.65 -11.05 -6.05 -9.0 -8.0 -6.1 -11.15 -6.1 -11.1 -3.5 -10.35 1.3 -9.7 6.0 -9.6 9.7 L-8.8 11.1 Q-7.05 13.75 -3.9 15.15 L-4.0 14.05 Q-4.0 10.85 -3.65 9.1 L-3.75 8.05 Q-3.75 6.15 -0.7 5.0 L4.5 3.1 6.3 3.35 Q6.75 3.25 6.75 4.5 6.75 5.55 3.05 7.1 -0.3 8.55 -1.5 9.3 L-0.95 12.1 -0.4 16.2 4.25 16.6 5.35 16.5 Q5.6 12.55 7.45 8.75 L7.8 8.0 7.4 3.4 7.4 3.25 6.6 2.8 Q4.8 1.7 4.15 1.0 L4.25 0.75 4.8 0.75 7.3 2.05 7.0 -2.3 Q5.6 -2.85 4.8 -3.5 L5.15 -3.6 6.95 -3.0 6.75 -6.6 Q4.7 -6.95 3.4 -8.4 L4.25 -8.5 6.65 -8.15 6.55 -11.4 2.1 -11.15 1.95 -5.75 2.15 -5.5 Q3.35 -5.2 3.9 -4.0 3.4 -2.9 1.0 -1.75 L-1.0 0.75 Q-2.5 0.25 -5.55 0.1 -5.8 0.25 -5.8 -1.0 -5.8 -2.5 -4.0 -4.35 -2.05 -6.35 0.0 -6.35 L0.1 -6.35 -0.6 -15.35 Q-0.6 -17.35 0.1 -17.95 1.35 -19.1 6.05 -19.1 7.5 -19.1 9.6 -14.8 9.6 -12.6 7.4 -11.7 L7.6 -7.95 10.25 -7.15 10.35 -6.75 8.05 -6.5 7.65 -6.5 7.85 -2.65 10.35 -1.35 7.9 -2.0 8.1 2.55 9.8 3.5 11.5 -1.85 Q12.15 -4.7 13.0 -13.8 13.95 -21.4 15.75 -21.4 18.1 -21.4 17.5 -18.1 M8.15 3.6 L8.35 6.9 9.55 4.1 8.15 3.6" fill="#000000" fill-opacity="0.6509804" fill-rule="evenodd" stroke="none"/>
  </g>
</svg>
