<?xml version="1.0" encoding="UTF-8" standalone="no"?>
<svg xmlns:ffdec="https://www.free-decompiler.com/flash" xmlns:xlink="http://www.w3.org/1999/xlink" ffdec:objectType="shape" height="70.75px" width="38.5px" xmlns="http://www.w3.org/2000/svg">
  <g transform="matrix(1.0, 0.0, 0.0, 1.0, 18.75, 45.5)">
    <path d="M15.0 -36.25 Q15.0 -34.6 11.65 -27.0 L8.9 -20.95 9.35 -20.8 10.95 -23.1 Q13.05 -25.8 14.25 -25.8 L15.85 -25.15 Q16.1 -25.5 16.1 -24.25 L15.75 -22.9 Q17.25 -24.5 18.25 -24.65 L19.75 -23.1 Q19.75 -22.0 16.95 -18.65 L15.15 -16.6 Q15.75 -15.45 15.5 -13.3 14.8 -9.75 14.8 -8.75 L15.35 -4.55 15.85 3.85 17.25 3.35 Q18.9 3.35 18.9 5.1 15.8 22.8 14.8 22.8 13.2 22.8 12.15 22.3 12.0 21.15 12.0 18.65 L10.35 18.65 10.0 21.65 Q9.85 22.15 8.6 22.15 8.15 22.15 5.8 18.1 L11.0 0.15 10.85 -0.6 7.3 3.1 Q3.8 6.5 2.1 7.35 L1.45 8.3 Q-0.05 10.4 -1.5 11.25 -2.75 10.4 -2.75 8.5 L-2.5 6.9 Q-5.45 5.9 -8.45 3.35 L-8.5 8.15 -5.05 19.5 Q-6.05 20.3 -7.05 20.15 -7.7 22.15 -8.6 22.15 -10.65 22.15 -12.4 16.25 L-13.75 17.85 -13.95 18.85 Q-14.95 22.95 -16.75 25.25 -18.85 23.9 -18.75 21.65 -18.65 6.4 -18.15 -1.0 -17.85 -4.95 -17.95 -10.9 -18.05 -15.7 -17.7 -17.3 -17.25 -19.75 -15.3 -20.75 -14.1 -21.35 -12.0 -21.55 -13.85 -28.05 -15.85 -38.1 L-15.5 -40.5 -15.1 -40.5 Q-12.25 -34.95 -10.2 -26.35 L-9.25 -21.75 -8.6 -21.75 -3.45 -21.95 Q-4.55 -29.35 -4.55 -32.05 L-4.0 -39.25 -3.25 -45.5 -2.9 -45.5 -3.15 -43.25 Q-3.15 -40.35 -2.0 -27.4 L-1.5 -22.0 0.6 -22.0 3.95 -21.85 Q10.15 -38.05 13.15 -38.05 14.9 -38.05 15.0 -36.25 M10.75 -15.15 Q10.75 -15.8 11.35 -16.85 L1.5 -6.75 Q-0.75 -6.75 -0.75 -8.55 L-0.35 -9.7 -0.5 -9.65 Q-1.6 -11.25 -2.75 -17.65 L-8.5 -18.15 -7.0 -11.55 -7.6 -10.9 -8.1 -11.6 -8.2 -7.5 Q-7.3 -6.65 -6.5 -5.25 -4.8 -2.3 -4.8 0.35 -5.2 1.0 -5.95 1.1 -1.75 4.25 0.75 4.25 1.45 4.25 6.1 0.6 L4.5 0.5 Q4.25 0.25 4.25 -1.0 4.25 -2.75 6.25 -5.0 7.8 -6.7 9.4 -7.5 10.35 -11.35 11.5 -13.8 L11.0 -13.8 10.75 -15.15 M1.85 -17.45 L-1.0 -17.55 Q-0.5 -12.55 -0.05 -10.6 L2.35 -17.45 1.85 -17.45 M3.75 14.75 Q2.65 16.3 -3.0 17.1 L-4.25 16.5 Q-3.45 14.8 -1.9 13.7 -0.7 12.85 0.0 12.85 2.35 12.85 3.75 14.75 M-9.8 -15.0 L-11.05 -18.45 -11.65 -18.5 -11.5 -14.75 Q-11.35 -15.05 -10.1 -15.05 L-9.8 -15.0 M-14.8 -16.1 L-15.5 -8.0 -15.4 -2.4 -14.15 -2.35 -13.95 -2.65 -15.35 -4.55 -15.25 -5.85 Q-15.5 -6.1 -14.25 -6.1 L-13.45 -5.4 -14.8 -16.25 -14.8 -16.1" fill="#000000" fill-opacity="0.6509804" fill-rule="evenodd" stroke="none"/>
  </g>
</svg>
