<?xml version="1.0" encoding="UTF-8" standalone="no"?>
<svg xmlns:ffdec="https://www.free-decompiler.com/flash" xmlns:xlink="http://www.w3.org/1999/xlink" ffdec:objectType="shape" height="58.65px" width="38.45px" xmlns="http://www.w3.org/2000/svg">
  <g transform="matrix(1.0, 0.0, 0.0, 1.0, 18.4, 33.5)">
    <path d="M18.25 -27.85 Q18.1 -21.05 18.4 -18.9 L19.6 -10.35 Q20.0 -9.8 19.8 -8.8 L20.05 -4.15 Q20.05 -0.05 15.05 21.9 15.5 22.5 14.25 22.5 11.75 22.5 11.75 20.5 L12.55 7.25 12.75 3.1 12.25 3.1 11.1 2.45 Q8.65 2.1 7.95 0.6 L7.9 0.6 6.4 1.05 6.75 3.25 Q6.75 5.35 4.9 8.5 4.35 9.55 4.85 11.3 4.7 12.55 0.65 12.55 L-1.0 12.25 -1.1 11.05 Q0.3 8.25 0.25 6.1 L-0.2 2.55 Q-1.85 3.75 -5.3 5.85 L-7.4 4.65 -5.45 11.35 Q-3.3 18.95 -1.6 23.55 -2.3 24.55 -3.0 24.55 -4.25 24.55 -5.45 22.25 L-6.3 20.1 -6.45 20.85 -6.35 22.75 Q-6.2 25.15 -8.1 25.15 L-8.85 24.7 -9.1 24.8 Q-9.8 24.8 -11.4 23.4 -12.0 23.4 -11.95 23.9 -11.9 24.4 -12.55 24.4 -15.9 24.4 -18.4 14.1 -18.4 12.85 -17.25 12.35 L-17.1 8.0 Q-17.1 -13.4 -15.75 -25.55 -14.55 -24.2 -14.55 -22.65 -11.4 -22.85 -11.25 -19.1 -11.65 -14.4 -11.5 -12.75 L-11.0 -9.1 -4.35 -6.0 Q0.25 -3.85 2.7 -2.55 L2.85 -2.6 Q8.9 -6.65 12.6 -8.75 L10.9 -12.55 Q8.35 -17.6 8.35 -18.4 8.35 -19.0 8.95 -19.5 9.5 -20.0 9.5 -20.65 L8.15 -23.45 Q6.8 -26.15 6.8 -26.9 6.8 -29.0 8.6 -29.0 9.8 -29.0 10.85 -26.65 L12.15 -23.4 12.25 -23.3 Q12.5 -25.5 13.45 -28.9 14.8 -33.5 16.0 -33.5 18.05 -33.5 18.25 -27.85 M1.25 20.65 L-0.6 20.35 Q-0.85 20.3 -0.85 19.05 -0.85 17.75 1.4 16.8 3.2 16.0 4.5 16.0 7.65 16.0 8.25 18.65 8.25 20.65 1.25 20.65 M-6.3 20.1 L-6.55 19.5 -6.5 19.9 -6.3 20.1" fill="#000000" fill-opacity="0.6509804" fill-rule="evenodd" stroke="none"/>
  </g>
</svg>
