<?xml version="1.0" encoding="UTF-8" standalone="no"?>
<svg xmlns:ffdec="https://www.free-decompiler.com/flash" xmlns:xlink="http://www.w3.org/1999/xlink" ffdec:objectType="shape" height="27.1px" width="18.3px" xmlns="http://www.w3.org/2000/svg">
  <g transform="matrix(1.0, 0.0, 0.0, 1.0, 8.2, 18.1)">
    <path d="M5.45 -16.55 L5.5 -16.5 5.75 -16.3 6.95 -15.55 7.0 -15.5 Q9.3 -13.7 9.3 -10.25 9.35 -7.3 6.55 -5.05 L8.45 -3.35 Q10.1 -1.3 10.1 1.4 10.1 4.35 8.05 6.55 5.65 9.0 1.7 9.0 -1.9 9.0 -4.1 7.1 L-6.1 5.6 Q-8.2 3.45 -8.2 0.4 -8.2 -2.3 -6.3 -4.45 L-6.25 -4.5 -6.25 -4.55 -4.6 -6.05 Q-7.45 -8.3 -7.4 -11.25 -7.4 -14.7 -5.05 -16.5 L-5.05 -16.55 Q-3.1 -18.1 0.2 -18.1 3.5 -18.1 5.45 -16.55 M1.7 -11.8 L0.25 -11.55 0.2 -11.5 Q-0.35 -10.95 -0.35 -10.25 -0.25 -9.8 0.4 -9.1 L1.4 -10.0 1.45 -10.0 2.3 -11.25 2.2 -11.75 1.7 -11.8 M2.4 1.95 L2.45 1.9 Q3.05 1.2 3.05 0.4 2.95 -0.8 1.65 -1.95 -1.05 -0.35 -1.15 1.4 L-0.7 2.65 0.2 2.75 Q1.55 2.75 2.4 1.95" fill="#000000" fill-rule="evenodd" stroke="none"/>
  </g>
</svg>
