<?xml version="1.0" encoding="UTF-8" standalone="no"?>
<svg xmlns:ffdec="https://www.free-decompiler.com/flash" xmlns:xlink="http://www.w3.org/1999/xlink" ffdec:objectType="shape" height="24.1px" width="14.8px" xmlns="http://www.w3.org/2000/svg">
  <g transform="matrix(1.0, 0.0, 0.0, 1.0, 7.4, 12.05)">
    <path d="M2.0 -8.35 L0.0 -8.75 -2.0 -8.35 Q-3.05 -7.45 -3.05 -6.2 -3.05 -5.35 -1.9 -4.25 L0.0 -2.8 1.9 -4.25 Q3.1 -5.35 3.1 -6.2 3.1 -7.45 2.0 -8.35 M6.6 -6.2 Q6.6 -3.15 3.0 -1.0 5.05 0.2 5.95 1.3 7.4 3.1 7.4 5.45 7.4 8.0 5.6 9.9 3.5 12.05 0.0 12.05 -3.55 12.05 -5.6 9.95 -7.4 8.1 -7.4 5.45 -7.4 3.05 -5.7 1.15 -5.05 0.2 -3.0 -1.0 -6.6 -3.15 -6.6 -6.2 -6.6 -9.15 -4.65 -10.7 -2.9 -12.05 0.0 -12.05 2.9 -12.05 4.65 -10.7 6.6 -9.15 6.6 -6.2 M3.85 5.45 Q3.85 3.05 0.0 0.85 -3.85 3.0 -3.85 5.45 -3.85 6.6 -2.95 7.6 -1.85 8.8 0.0 8.8 1.85 8.8 2.95 7.65 3.85 6.65 3.85 5.45" fill="#9966cc" fill-rule="evenodd" stroke="none"/>
  </g>
</svg>
