<?xml version="1.0" encoding="UTF-8" standalone="no"?>
<svg xmlns:ffdec="https://www.free-decompiler.com/flash" xmlns:xlink="http://www.w3.org/1999/xlink" ffdec:objectType="shape" height="70.0px" width="139.0px" xmlns="http://www.w3.org/2000/svg">
  <g transform="matrix(1.0, 0.0, 0.0, 1.0, 69.5, 35.0)">
    <path d="M15.5 -35.0 L15.5 35.0 2.5 35.0 2.5 -35.0 15.5 -35.0 M33.5 -35.0 L33.5 35.0 20.5 35.0 20.5 -35.0 33.5 -35.0 M69.5 -35.0 L69.5 35.0 56.5 35.0 56.5 -35.0 69.5 -35.0 M51.5 -35.0 L51.5 35.0 38.5 35.0 38.5 -35.0 51.5 -35.0 M-56.5 -35.0 L-56.5 35.0 -69.5 35.0 -69.5 -35.0 -56.5 -35.0 M-20.5 -35.0 L-20.5 35.0 -33.5 35.0 -33.5 -35.0 -20.5 -35.0 M-2.5 -35.0 L-2.5 35.0 -15.5 35.0 -15.5 -35.0 -2.5 -35.0 M-38.5 -35.0 L-38.5 35.0 -51.5 35.0 -51.5 -35.0 -38.5 -35.0" fill="#000000" fill-rule="evenodd" stroke="none"/>
  </g>
</svg>
