<?xml version="1.0" encoding="UTF-8" standalone="no"?>
<svg xmlns:ffdec="https://www.free-decompiler.com/flash" xmlns:xlink="http://www.w3.org/1999/xlink" ffdec:objectType="shape" height="24.1px" width="14.8px" xmlns="http://www.w3.org/2000/svg">
  <g transform="matrix(1.0, 0.0, 0.0, 1.0, 7.2, 17.1)">
    <path d="M0.2 -13.8 Q-1.1 -13.8 -1.8 -13.4 -2.85 -12.5 -2.85 -11.25 -2.85 -10.4 -1.7 -9.3 -0.75 -8.35 0.2 -7.85 L2.1 -9.3 Q3.3 -10.4 3.3 -11.25 3.3 -12.5 2.2 -13.4 L0.2 -13.8 M4.85 -15.75 Q6.8 -14.2 6.8 -11.25 6.8 -8.2 3.2 -6.05 5.25 -4.85 6.15 -3.75 7.6 -1.95 7.6 0.4 7.6 2.95 5.8 4.85 3.7 7.0 0.2 7.0 -3.35 7.0 -5.4 4.9 -7.2 3.05 -7.2 0.4 -7.2 -2.0 -5.5 -3.9 -4.85 -4.85 -2.8 -6.05 -6.4 -8.2 -6.4 -11.25 -6.4 -14.2 -4.45 -15.75 -2.7 -17.1 0.2 -17.1 3.1 -17.1 4.85 -15.75 M4.05 0.4 Q4.05 -2.0 0.2 -4.2 -3.65 -2.05 -3.65 0.4 -3.65 1.55 -2.75 2.55 -1.65 3.75 0.2 3.75 2.05 3.75 3.15 2.6 4.05 1.6 4.05 0.4" fill="url(#gradient0)" fill-rule="evenodd" stroke="none"/>
  </g>
  <defs>
    <linearGradient gradientTransform="matrix(0.0, 0.0147, -0.134, 0.0, -53.55, -5.1)" gradientUnits="userSpaceOnUse" id="gradient0" spreadMethod="pad" x1="-819.2" x2="819.2">
      <stop offset="0.0" stop-color="#ffffff" stop-opacity="0.0"/>
      <stop offset="1.0" stop-color="#ffffff" stop-opacity="0.49019608"/>
    </linearGradient>
  </defs>
</svg>
