<?xml version="1.0" encoding="UTF-8" standalone="no"?>
<svg xmlns:ffdec="https://www.free-decompiler.com/flash" xmlns:xlink="http://www.w3.org/1999/xlink" ffdec:objectType="shape" height="10.0px" width="193.9px" xmlns="http://www.w3.org/2000/svg">
  <g transform="matrix(1.0, 0.0, 0.0, 1.0, 96.95, 11.1)">
    <path d="M29.15 -1.1 L-29.15 -1.1 -29.15 -11.1 29.15 -11.1 29.15 -1.1" fill="#ffcc00" fill-rule="evenodd" stroke="none"/>
    <path d="M-96.95 -11.1 L-38.65 -11.1 -38.65 -1.1 -96.95 -1.1 -96.95 -11.1" fill="#00cc00" fill-rule="evenodd" stroke="none"/>
    <path d="M38.65 -11.1 L96.95 -11.1 96.95 -1.1 38.65 -1.1 38.65 -11.1" fill="#ff0000" fill-rule="evenodd" stroke="none"/>
    <path d="M29.15 -1.1 L-29.15 -1.1 -29.15 -11.1 29.15 -11.1 29.15 -1.1 M38.65 -11.1 L96.95 -11.1 96.95 -1.1 38.65 -1.1 38.65 -11.1 M-96.95 -11.1 L-38.65 -11.1 -38.65 -1.1 -96.95 -1.1 -96.95 -11.1" fill="url(#gradient0)" fill-rule="evenodd" stroke="none"/>
  </g>
  <defs>
    <linearGradient gradientTransform="matrix(0.0, 0.0061, -0.1183, 0.0, 0.0, -6.1)" gradientUnits="userSpaceOnUse" id="gradient0" spreadMethod="pad" x1="-819.2" x2="819.2">
      <stop offset="0.0196078431372549" stop-color="#000000" stop-opacity="0.14117648"/>
      <stop offset="0.3176470588235294" stop-color="#000000" stop-opacity="0.0"/>
      <stop offset="0.6666666666666666" stop-color="#000000" stop-opacity="0.0"/>
      <stop offset="0.9803921568627451" stop-color="#000000" stop-opacity="0.2"/>
    </linearGradient>
  </defs>
</svg>
