<?xml version="1.0" encoding="UTF-8" standalone="no"?>
<svg xmlns:ffdec="https://www.free-decompiler.com/flash" xmlns:xlink="http://www.w3.org/1999/xlink" ffdec:objectType="shape" height="27.15px" width="18.25px" xmlns="http://www.w3.org/2000/svg">
  <g transform="matrix(1.0, 0.0, 0.0, 1.0, 8.5, 18.15)">
    <path d="M1.4 -11.35 L1.2 -11.65 0.75 -11.7 Q-0.15 -11.7 -0.8 -10.95 -1.55 -10.15 -1.55 -8.85 -1.55 -7.7 -1.05 -6.95 L-0.9 -6.95 Q0.25 -6.95 1.3 -7.6 L1.25 -7.55 Q1.95 -8.05 2.3 -8.65 2.2 -10.15 1.4 -11.35 M9.75 -4.25 Q9.75 1.7 7.45 5.1 4.65 9.0 -0.85 9.0 -3.3 9.0 -5.5 7.85 L-5.9 7.5 -5.95 7.3 -7.0 6.85 -7.4 6.5 -7.55 5.95 -7.55 2.55 -7.35 1.95 -6.8 1.6 -6.15 1.65 -2.35 2.5 Q0.85 2.4 2.0 -0.6 L0.6 -0.5 Q-2.15 -0.5 -4.1 -2.2 -5.35 -2.8 -6.35 -3.9 -8.5 -6.3 -8.5 -9.9 -8.5 -13.3 -6.2 -15.7 L-6.2 -15.75 Q-3.85 -18.15 -0.7 -18.15 2.35 -18.15 4.4 -16.35 6.75 -15.2 8.15 -12.3 9.75 -9.0 9.75 -4.25" fill="#000000" fill-rule="evenodd" stroke="none"/>
  </g>
</svg>
