<?xml version="1.0" encoding="UTF-8" standalone="no"?>
<svg xmlns:ffdec="https://www.free-decompiler.com/flash" xmlns:xlink="http://www.w3.org/1999/xlink" ffdec:objectType="shape" height="31.0px" width="31.0px" xmlns="http://www.w3.org/2000/svg">
  <g transform="matrix(1.0, 0.0, 0.0, 1.0, 15.5, 15.5)">
    <path d="M-15.0 -15.0 L15.0 -15.0 15.0 15.0 -15.0 15.0 -15.0 -15.0" fill="url(#gradient0)" fill-rule="evenodd" stroke="none"/>
    <path d="M-15.0 -15.0 L15.0 -15.0 15.0 15.0 -15.0 15.0 -15.0 -15.0 Z" fill="none" stroke="#000000" stroke-linecap="round" stroke-linejoin="round" stroke-width="1.0"/>
    <path d="M1.45 -14.55 Q3.5 -9.2 2.5 -2.5 0.4 -10.25 -5.15 -14.55 L1.45 -14.55 M12.4 -0.65 L6.15 3.15 13.9 10.25 7.65 12.8 2.05 5.35 -8.45 11.2 -10.35 9.25 0.05 3.45 -4.0 -0.95 0.5 -1.8 3.95 1.6 9.2 -1.0 12.4 -0.65" fill="#ffffff" fill-opacity="0.6" fill-rule="evenodd" stroke="none"/>
  </g>
  <defs>
    <linearGradient gradientTransform="matrix(-6.0E-4, -0.0188, 0.0188, -6.0E-4, 0.0, 0.0)" gradientUnits="userSpaceOnUse" id="gradient0" spreadMethod="pad" x1="-819.2" x2="819.2">
      <stop offset="0.0" stop-color="#aa1111"/>
      <stop offset="1.0" stop-color="#350606"/>
    </linearGradient>
  </defs>
</svg>
