<?xml version="1.0" encoding="UTF-8" standalone="no"?>
<svg xmlns:ffdec="https://www.free-decompiler.com/flash" xmlns:xlink="http://www.w3.org/1999/xlink" ffdec:objectType="shape" height="24.15px" width="14.75px" xmlns="http://www.w3.org/2000/svg">
  <g transform="matrix(1.0, 0.0, 0.0, 1.0, 7.4, 12.1)">
    <path d="M3.4 -3.4 Q3.35 -5.3 2.35 -6.85 1.2 -8.65 -0.65 -8.65 -2.0 -8.65 -2.95 -7.6 -3.95 -6.5 -3.95 -4.8 -3.95 -3.05 -3.05 -2.0 -2.15 -0.9 -0.8 -0.9 0.6 -0.9 1.9 -1.7 2.95 -2.4 3.4 -3.4 M7.35 -0.2 Q7.35 5.4 5.2 8.55 2.7 12.05 -2.25 12.05 -4.45 12.05 -6.45 11.0 L-6.45 7.6 Q-4.05 8.55 -2.25 8.55 3.7 8.55 3.7 0.3 2.1 2.55 -0.8 2.55 -3.6 2.55 -5.5 0.45 -7.4 -1.65 -7.4 -4.85 -7.4 -7.85 -5.4 -10.0 -3.35 -12.1 -0.6 -12.1 3.8 -12.1 5.85 -7.85 7.35 -4.7 7.35 -0.2" fill="#9966cc" fill-rule="evenodd" stroke="none"/>
  </g>
</svg>
