<?xml version="1.0" encoding="UTF-8" standalone="no"?>
<svg xmlns:ffdec="https://www.free-decompiler.com/flash" xmlns:xlink="http://www.w3.org/1999/xlink" ffdec:objectType="shape" height="36.4px" width="36.7px" xmlns="http://www.w3.org/2000/svg">
  <g transform="matrix(1.0, 0.0, 0.0, 1.0, 18.35, 18.2)">
    <path d="M17.75 -11.1 L6.45 0.0 17.1 10.8 Q17.65 11.35 17.7 12.2 17.65 13.0 17.1 13.6 L13.4 17.2 Q12.8 17.8 12.0 17.8 11.2 17.8 10.6 17.2 L0.0 6.45 -11.3 17.6 Q-11.9 18.15 -12.7 18.2 -13.55 18.15 -14.1 17.6 L-17.75 13.9 Q-18.35 13.3 -18.35 12.5 -18.35 11.7 -17.75 11.1 L-6.45 -0.05 -17.05 -10.8 Q-17.65 -11.4 -17.65 -12.2 -17.65 -13.05 -17.05 -13.6 L-13.4 -17.25 Q-12.8 -17.85 -12.0 -17.85 -11.2 -17.85 -10.6 -17.25 L0.05 -6.45 11.35 -17.6 Q11.9 -18.2 12.75 -18.2 13.55 -18.2 14.15 -17.6 L17.8 -13.9 Q18.35 -13.35 18.35 -12.5 18.35 -11.7 17.75 -11.1" fill="#000000" fill-rule="evenodd" stroke="none"/>
    <path d="M17.35 -12.5 L17.05 -11.8 5.05 0.0 16.4 11.5 16.7 12.2 16.4 12.9 12.7 16.5 12.0 16.8 11.3 16.5 0.0 5.05 -12.0 16.9 Q-12.3 17.15 -12.7 17.2 -13.15 17.15 -13.4 16.9 L-17.05 13.2 -17.35 12.5 -17.05 11.8 -5.05 -0.05 -16.35 -11.5 -16.65 -12.2 -16.35 -12.9 -12.7 -16.55 -12.0 -16.85 -11.3 -16.55 0.05 -5.05 12.05 -16.9 12.75 -17.2 Q13.15 -17.2 13.45 -16.9 L17.1 -13.2 17.35 -12.5" fill="#912222" fill-rule="evenodd" stroke="none"/>
  </g>
</svg>
