<?xml version="1.0" encoding="UTF-8" standalone="no"?>
<svg xmlns:ffdec="https://www.free-decompiler.com/flash" xmlns:xlink="http://www.w3.org/1999/xlink" ffdec:objectType="shape" height="24.15px" width="14.75px" xmlns="http://www.w3.org/2000/svg">
  <g transform="matrix(1.0, 0.0, 0.0, 1.0, 7.5, 17.15)">
    <path d="M7.25 -5.25 Q7.25 0.35 5.1 3.5 2.6 7.0 -2.35 7.0 -4.55 7.0 -6.55 5.95 L-6.55 2.55 Q-4.15 3.5 -2.35 3.5 3.6 3.5 3.6 -4.75 2.0 -2.5 -0.9 -2.5 -3.7 -2.5 -5.6 -4.6 -7.5 -6.7 -7.5 -9.9 -7.5 -12.9 -5.5 -15.05 -3.45 -17.15 -0.7 -17.15 3.7 -17.15 5.75 -12.9 7.25 -9.75 7.25 -5.25 M2.25 -11.9 Q1.1 -13.7 -0.75 -13.7 -2.1 -13.7 -3.05 -12.65 -4.05 -11.55 -4.05 -9.85 -4.05 -8.1 -3.15 -7.05 -2.25 -5.95 -0.9 -5.95 0.5 -5.95 1.8 -6.75 2.85 -7.45 3.3 -8.45 3.25 -10.35 2.25 -11.9" fill="url(#gradient0)" fill-rule="evenodd" stroke="none"/>
  </g>
  <defs>
    <linearGradient gradientTransform="matrix(0.0, 0.0147, -0.134, 0.0, -77.05, -5.1)" gradientUnits="userSpaceOnUse" id="gradient0" spreadMethod="pad" x1="-819.2" x2="819.2">
      <stop offset="0.0" stop-color="#ffffff" stop-opacity="0.0"/>
      <stop offset="1.0" stop-color="#ffffff" stop-opacity="0.49019608"/>
    </linearGradient>
  </defs>
</svg>
