<?xml version="1.0" encoding="UTF-8" standalone="no"?>
<svg xmlns:ffdec="https://www.free-decompiler.com/flash" xmlns:xlink="http://www.w3.org/1999/xlink" ffdec:objectType="shape" height="27.1px" width="22.4px" xmlns="http://www.w3.org/2000/svg">
  <g transform="matrix(1.0, 0.0, 0.0, 1.0, 10.65, 18.1)">
    <path d="M2.5 -11.45 L1.3 -11.65 Q-0.85 -11.6 -2.2 -9.4 L-2.2 -9.45 Q-3.5 -7.2 -3.5 -4.05 -3.5 -0.9 -2.2 1.35 L-1.45 2.35 -0.2 2.55 Q1.95 2.5 3.25 0.35 4.6 -1.9 4.6 -5.05 4.6 -8.2 3.25 -10.4 L3.25 -10.45 2.5 -11.45 M11.75 -4.05 Q11.75 1.35 9.4 4.8 L9.4 4.75 Q6.6 9.0 1.3 9.0 -2.4 9.0 -4.85 6.95 -6.9 5.85 -8.3 3.75 -10.65 0.35 -10.65 -5.05 -10.65 -10.45 -8.3 -13.85 -5.5 -18.1 -0.2 -18.1 3.5 -18.1 5.95 -16.05 7.95 -15.0 9.4 -12.85 11.75 -9.4 11.75 -4.05" fill="#000000" fill-rule="evenodd" stroke="none"/>
  </g>
</svg>
