<?xml version="1.0" encoding="UTF-8" standalone="no"?>
<svg xmlns:ffdec="https://www.free-decompiler.com/flash" xmlns:xlink="http://www.w3.org/1999/xlink" ffdec:objectType="shape" height="31.0px" width="31.0px" xmlns="http://www.w3.org/2000/svg">
  <g transform="matrix(1.0, 0.0, 0.0, 1.0, 15.5, 15.5)">
    <path d="M15.0 15.0 L-15.0 15.0 -15.0 -15.0 15.0 -15.0 15.0 15.0" fill="url(#gradient0)" fill-rule="evenodd" stroke="none"/>
    <path d="M15.0 15.0 L-15.0 15.0 -15.0 -15.0 15.0 -15.0 15.0 15.0 Z" fill="none" stroke="#000000" stroke-linecap="round" stroke-linejoin="round" stroke-width="1.0"/>
    <path d="M6.4 -1.95 L-5.1 -5.15 -5.75 -4.25 -6.35 -3.05 4.45 0.35 2.25 3.15 -7.45 -0.35 Q-8.0 1.6 -7.6 3.2 -6.9 6.2 -3.35 7.8 1.2 9.85 5.5 8.55 L2.75 14.65 -2.9 14.65 -6.05 13.25 -8.2 11.9 Q-12.35 8.9 -13.3 4.55 -14.1 1.2 -12.75 -2.2 L-15.0 -3.05 -13.1 -5.15 -11.55 -4.7 -11.15 -5.4 -10.35 -6.6 -12.35 -7.15 -10.55 -9.15 -8.7 -8.75 Q-6.35 -11.4 -3.1 -12.75 1.85 -15.15 8.3 -14.25 11.75 -13.9 14.35 -12.65 L14.35 -11.65 11.35 -7.9 Q9.75 -9.85 6.0 -10.4 2.45 -11.05 -0.45 -9.65 -2.15 -8.95 -3.45 -7.45 L8.55 -4.6 6.4 -1.95" fill="#ffffff" fill-opacity="0.6" fill-rule="evenodd" stroke="none"/>
  </g>
  <defs>
    <linearGradient gradientTransform="matrix(-6.0E-4, -0.0188, 0.0188, -6.0E-4, 0.0, 0.0)" gradientUnits="userSpaceOnUse" id="gradient0" spreadMethod="pad" x1="-819.2" x2="819.2">
      <stop offset="0.0" stop-color="#ffcc00"/>
      <stop offset="1.0" stop-color="#a33507"/>
    </linearGradient>
  </defs>
</svg>
