<?xml version="1.0" encoding="UTF-8" standalone="no"?>
<svg xmlns:ffdec="https://www.free-decompiler.com/flash" xmlns:xlink="http://www.w3.org/1999/xlink" ffdec:objectType="shape" height="24.1px" width="18.9px" xmlns="http://www.w3.org/2000/svg">
  <g transform="matrix(1.0, 0.0, 0.0, 1.0, 9.45, 12.05)">
    <path d="M0.0 -8.6 Q-2.7 -8.6 -4.35 -5.9 -5.8 -3.45 -5.8 0.0 -5.8 3.45 -4.35 5.9 -2.7 8.6 0.0 8.6 2.7 8.6 4.3 5.9 5.8 3.45 5.8 0.0 5.8 -3.45 4.3 -5.9 2.7 -8.6 0.0 -8.6 M7.25 -8.25 Q9.45 -5.0 9.45 0.0 9.45 5.05 7.25 8.25 4.75 12.05 0.0 12.05 -4.75 12.05 -7.3 8.25 -9.45 5.05 -9.45 0.0 -9.45 -5.05 -7.3 -8.25 -4.75 -12.05 0.0 -12.05 4.75 -12.05 7.25 -8.25" fill="#9966cc" fill-rule="evenodd" stroke="none"/>
  </g>
</svg>
