<?xml version="1.0" encoding="UTF-8" standalone="no"?>
<svg xmlns:ffdec="https://www.free-decompiler.com/flash" xmlns:xlink="http://www.w3.org/1999/xlink" ffdec:objectType="shape" height="24.1px" width="18.9px" xmlns="http://www.w3.org/2000/svg">
  <g transform="matrix(1.0, 0.0, 0.0, 1.0, 9.65, 17.1)">
    <path d="M9.25 -5.05 Q9.25 0.0 7.05 3.2 4.55 7.0 -0.2 7.0 -4.95 7.0 -7.5 3.2 -9.65 0.0 -9.65 -5.05 -9.65 -10.1 -7.5 -13.3 -4.95 -17.1 -0.2 -17.1 4.55 -17.1 7.05 -13.3 9.25 -10.05 9.25 -5.05 M4.1 -10.95 Q2.5 -13.65 -0.2 -13.65 -2.9 -13.65 -4.55 -10.95 -6.0 -8.5 -6.0 -5.05 -6.0 -1.6 -4.55 0.85 -2.9 3.55 -0.2 3.55 2.5 3.55 4.1 0.85 5.6 -1.6 5.6 -5.05 5.6 -8.5 4.1 -10.95" fill="url(#gradient0)" fill-rule="evenodd" stroke="none"/>
  </g>
  <defs>
    <linearGradient gradientTransform="matrix(0.0, 0.0147, -0.134, 0.0, -100.55, -5.1)" gradientUnits="userSpaceOnUse" id="gradient0" spreadMethod="pad" x1="-819.2" x2="819.2">
      <stop offset="0.0" stop-color="#ffffff" stop-opacity="0.0"/>
      <stop offset="1.0" stop-color="#ffffff" stop-opacity="0.49019608"/>
    </linearGradient>
  </defs>
</svg>
