<?xml version="1.0" encoding="UTF-8" standalone="no"?>
<svg xmlns:ffdec="https://www.free-decompiler.com/flash" xmlns:xlink="http://www.w3.org/1999/xlink" ffdec:objectType="shape" height="16.45px" width="44.1px" xmlns="http://www.w3.org/2000/svg">
  <g transform="matrix(1.0, 0.0, 0.0, 1.0, 22.05, 8.2)">
    <path d="M1.4 -5.8 L1.4 -1.6 5.6 -1.6 5.95 -1.45 6.1 -1.1 6.1 0.85 5.95 1.2 5.6 1.35 1.4 1.35 1.4 5.55 1.25 5.9 0.9 6.05 -1.1 6.05 -1.45 5.9 -1.6 5.55 -1.6 1.35 -5.75 1.35 -6.1 1.2 -6.25 0.85 -6.25 -1.1 -6.1 -1.45 -5.75 -1.6 -1.6 -1.6 -1.6 -5.8 -1.45 -6.15 -1.1 -6.3 0.9 -6.3 1.25 -6.15 1.4 -5.8" fill="#000000" fill-rule="evenodd" stroke="none"/>
    <path d="M21.55 7.75 L-21.55 7.75 -21.55 -7.7 21.55 -7.7 21.55 7.75 Z" fill="none" stroke="#000000" stroke-linecap="round" stroke-linejoin="round" stroke-width="1.0"/>
  </g>
</svg>
