<?xml version="1.0" encoding="UTF-8" standalone="no"?>
<svg xmlns:ffdec="https://www.free-decompiler.com/flash" xmlns:xlink="http://www.w3.org/1999/xlink" ffdec:objectType="shape" height="212.0px" width="803.75px" xmlns="http://www.w3.org/2000/svg">
  <g transform="matrix(1.0, 0.0, 0.0, 1.0, 395.0, 107.75)">
    <path d="M1.75 -37.85 Q1.75 -37.25 -5.9 -30.1 -14.55 -21.9 -17.0 -18.75 L-17.75 -18.0 Q-1.6 -27.25 8.0 -30.75 L10.75 -28.0 Q10.75 -27.2 3.3 -19.1 -4.3 -10.85 -4.75 -7.0 L3.25 -5.25 Q2.75 -4.65 2.7 -3.7 L2.45 -2.55 Q1.65 -1.5 -5.0 -1.5 -11.35 -1.5 -10.75 -6.1 -10.75 -7.45 -9.45 -11.25 -8.15 -15.15 -7.25 -16.25 L-6.75 -17.0 Q-11.0 -14.55 -15.05 -12.35 -23.05 -8.0 -25.0 -8.0 -29.0 -8.0 -28.0 -12.25 -28.0 -15.35 -21.55 -23.2 -15.5 -30.55 -12.25 -32.5 -31.45 -21.45 -58.75 -1.4 L-101.75 30.0 -102.75 29.25 Q-54.85 -14.65 -1.0 -42.5 -0.15 -41.65 0.85 -39.85 L1.75 -37.85 M39.0 -9.75 Q38.1 -9.75 -19.0 28.25 3.5 25.25 16.9 12.95 L27.7 1.65 Q34.35 -5.4 40.2 -9.75 L39.0 -9.75 M47.25 -13.9 Q34.65 -2.5 28.1 3.95 12.75 19.05 12.75 23.1 -0.9 27.9 -18.05 35.6 -52.5 51.0 -70.0 66.5 -73.5 66.15 -73.5 62.85 -73.5 60.8 -58.0 48.2 L-40.25 34.0 Q-45.05 32.25 -51.6 30.85 -55.75 29.5 -55.75 25.75 -55.75 17.25 -40.5 17.25 -32.1 17.25 -33.25 21.1 -33.25 22.35 -36.25 27.5 -36.6 28.0 -34.1 28.0 -9.25 8.0 20.8 -15.35 81.1 -62.25 108.0 -79.0 111.0 -76.45 111.0 -75.85 111.0 -72.55 95.65 -57.85 87.5 -50.1 61.95 -27.2 L65.4 -30.95 Q72.6 -39.0 89.8 -60.25 L89.25 -60.25 Q81.6 -60.25 44.6 -30.0 24.45 -13.55 -10.25 16.25 L-10.75 16.75 Q4.45 6.25 14.8 -0.2 34.15 -12.25 42.75 -12.25 44.5 -12.25 47.25 -13.9 M87.0 -0.75 L93.0 -1.25 90.5 -1.25 87.0 -0.75 Q67.65 2.1 43.0 13.9 25.5 22.25 11.5 31.75 14.25 31.75 14.5 32.25 5.4 36.75 3.75 36.75 L1.85 36.55 1.25 35.75 Q2.2 33.65 11.3 27.4 21.45 20.4 34.0 13.9 68.9 -4.25 93.5 -4.25 L95.45 -3.95 96.5 -3.25 Q97.5 -4.25 97.5 -1.75 97.5 -0.65 92.4 1.25 85.2 3.7 81.15 5.25 64.75 11.45 64.75 18.1 64.75 21.15 67.75 22.6 L68.05 22.75 Q78.2 15.75 91.85 8.0 L129.8 -20.65 126.75 -24.45 114.0 -41.75 115.5 -41.75 Q121.65 -36.15 129.05 -25.6 L131.6 -22.0 139.8 -28.25 Q197.25 -71.7 231.0 -94.0 232.55 -93.4 233.0 -92.0 176.2 -48.35 138.25 3.25 L138.0 4.0 Q148.05 1.1 160.0 -6.5 161.5 -7.5 161.5 -5.0 143.6 9.5 137.0 9.5 134.3 9.5 132.75 8.25 131.5 7.25 131.5 6.0 131.5 2.1 140.45 -9.05 136.45 -12.8 132.0 -18.0 L121.7 -10.1 Q94.85 10.7 74.15 25.25 L79.5 27.25 79.5 27.5 74.25 28.25 70.35 27.9 51.0 40.75 49.75 40.15 Q49.25 39.65 49.25 38.0 49.25 37.0 50.15 35.75 51.15 34.4 52.5 34.0 L52.9 33.95 Q53.35 34.05 53.5 34.5 53.25 35.25 51.5 36.0 L51.0 38.25 66.75 26.75 65.55 26.0 55.5 32.25 Q59.55 28.85 64.6 25.2 L63.0 23.25 Q62.0 21.7 61.65 19.75 L61.5 18.0 Q61.5 7.75 85.75 -0.25 L87.0 -0.75 M140.75 -9.5 L140.7 -9.35 Q147.85 -18.25 160.55 -31.65 175.1 -47.0 190.25 -61.5 173.55 -50.05 133.55 -19.2 L140.75 -9.5 M196.75 -14.0 Q196.75 -12.55 193.75 -10.3 190.7 -8.0 188.5 -8.0 L185.0 -8.75 184.75 -11.0 Q184.75 -13.2 188.3 -15.3 191.75 -17.4 194.0 -16.75 L196.75 -14.0 M236.0 -7.0 L235.85 -5.5 Q235.6 -5.35 235.5 -4.75 L232.5 -3.75 231.75 -4.6 Q231.0 -5.3 231.0 -6.75 L231.25 -8.25 Q232.4 -9.0 235.25 -9.0 236.0 -9.5 236.0 -7.0 M248.0 -67.0 Q252.75 -56.8 255.2 -40.05 L258.55 -16.0 Q272.95 -26.6 290.4 -38.2 327.3 -62.7 369.0 -86.0 372.0 -83.45 372.0 -82.85 372.0 -81.55 354.75 -68.65 L354.75 -68.5 Q354.75 -66.45 345.65 -46.3 353.55 -49.5 357.0 -49.5 360.5 -49.5 360.5 -46.0 360.5 -44.1 339.6 -33.1 L329.8 -13.0 330.0 -13.0 332.15 -12.6 338.15 -17.2 Q349.4 -25.65 359.5 -32.4 391.45 -53.75 405.0 -53.75 408.75 -53.75 408.75 -50.25 408.75 -43.35 354.75 0.75 L354.5 1.0 377.3 -13.45 Q399.1 -26.75 403.0 -26.75 407.75 -26.75 407.75 -22.85 407.75 -20.15 381.4 -2.15 351.75 17.65 345.25 22.5 L344.75 23.0 372.15 11.15 Q398.2 0.0 402.0 0.0 406.0 0.0 406.0 4.25 406.0 7.05 369.2 23.0 331.75 39.25 322.5 39.25 316.0 41.0 308.6 41.0 307.7 41.0 304.3 43.3 L300.0 46.0 297.0 43.25 Q297.0 39.35 337.1 4.8 L389.0 -39.25 390.0 -40.0 Q376.05 -33.7 341.3 -7.8 L309.25 16.75 Q305.9 16.75 304.75 14.75 L304.25 12.75 Q285.1 44.8 278.65 57.3 265.0 83.7 261.0 103.5 260.0 104.25 257.0 104.25 256.5 104.1 256.5 101.6 256.5 74.9 303.5 -1.5 L315.55 -20.65 308.75 -17.0 Q266.6 11.75 264.85 11.75 263.6 11.75 263.2 10.65 262.75 9.5 261.5 9.5 257.85 9.5 222.4 35.75 L187.25 62.0 Q185.15 62.0 182.5 61.0 182.0 60.5 182.0 58.0 182.0 53.3 211.1 28.65 L211.2 28.6 Q210.5 28.0 210.5 27.6 L210.75 25.0 214.0 24.5 215.85 24.7 Q228.1 14.45 240.5 4.75 239.1 5.0 233.5 8.9 227.9 12.75 226.0 13.0 224.75 12.5 224.0 11.75 237.75 -0.65 256.95 -14.8 254.75 -22.8 251.25 -40.8 247.0 -62.5 247.0 -65.75 247.0 -68.25 248.0 -67.0 M261.35 -10.65 L272.7 -19.25 272.0 -19.25 Q270.95 -19.25 260.65 -11.95 L247.5 -2.75 247.5 -2.5 Q254.15 -5.2 261.35 -10.65 M324.5 -19.75 L307.75 6.5 Q313.4 0.4 324.75 -20.0 L324.5 -19.75 M340.75 -58.35 L325.5 -47.35 254.25 3.75 254.0 4.0 Q295.6 -20.5 309.5 -28.2 318.75 -33.3 326.3 -37.2 333.5 -48.05 340.75 -58.35 M-342.55 -57.75 Q-342.0 -57.55 -342.0 -56.0 -342.0 -54.65 -345.45 -47.0 -348.75 -39.7 -349.0 -39.5 L-352.0 -39.75 Q-352.0 -40.5 -352.5 -42.75 -352.5 -44.2 -351.45 -46.05 L-349.25 -50.25 -349.25 -50.75 -361.15 -38.3 Q-368.45 -30.85 -373.5 -27.25 L-374.1 -26.6 Q-374.75 -26.3 -374.75 -27.85 -374.75 -36.25 -346.75 -68.25 -350.15 -62.65 -360.4 -48.85 -369.15 -37.0 -372.75 -30.0 L-372.5 -29.75 Q-368.7 -33.05 -358.95 -44.1 -350.8 -53.25 -344.0 -58.0 L-342.55 -57.75 M-380.2 -27.3 Q-389.7 -16.35 -392.75 -11.5 L-394.75 -11.25 Q-395.0 -9.85 -395.0 -12.35 -395.0 -15.15 -384.2 -27.0 -374.4 -37.7 -368.75 -42.25 -371.35 -37.45 -380.2 -27.3 M-353.5 -27.0 L-346.5 -23.0 -346.9 -21.6 -340.3 -28.75 Q-285.3 -87.5 -269.0 -87.5 -265.5 -87.5 -265.5 -84.0 -265.5 -83.35 -273.55 -74.7 -282.3 -65.25 -287.0 -62.0 L-288.65 -64.6 Q-288.85 -65.25 -287.75 -66.25 -302.3 -55.3 -319.2 -38.95 L-319.25 -38.75 -319.45 -38.7 -319.95 -38.25 -320.0 -38.0 -320.1 -38.1 Q-330.0 -28.55 -340.65 -17.2 L-364.45 8.2 Q-378.35 22.75 -390.0 33.25 L-391.7 33.0 Q-392.25 32.8 -392.25 31.25 -392.25 30.35 -376.6 12.0 -362.4 -4.65 -348.15 -20.2 L-350.0 -20.0 -354.5 -20.5 Q-354.5 -22.0 -355.25 -26.5 L-355.1 -26.95 -353.5 -27.0 M-291.5 -34.0 L-291.45 -35.45 -291.0 -36.0 Q-291.5 -36.5 -289.0 -36.5 -286.6 -36.5 -285.0 -33.75 -283.75 -31.6 -283.75 -30.0 L-284.05 -28.95 Q-284.4 -28.5 -286.0 -28.5 -288.25 -28.5 -290.05 -31.0 -291.5 -33.0 -291.5 -34.0 M-285.0 -18.25 L-283.4 -18.0 Q-282.75 -17.8 -282.75 -16.25 -282.75 -14.85 -282.9 -14.75 L-283.25 -14.0 Q-284.0 -14.0 -284.0 -13.25 L-286.75 -13.5 Q-286.75 -14.25 -287.25 -16.1 -287.25 -17.7 -286.5 -18.0 L-285.0 -18.25 M-180.5 -85.0 Q-180.5 -82.05 -214.7 -45.7 -258.0 0.3 -267.75 11.75 -263.65 8.75 -256.65 2.5 L-244.45 -8.15 Q-228.5 -21.35 -213.0 -27.25 -209.75 -24.7 -209.75 -24.1 -209.75 -21.55 -228.95 0.05 -248.25 21.8 -259.0 31.25 -262.25 28.8 -262.25 28.1 -262.25 24.5 -246.45 7.35 L-228.75 -11.25 Q-245.75 0.65 -268.2 21.05 -301.3 51.1 -308.0 56.75 L-310.75 54.0 Q-310.75 53.0 -294.1 30.9 -275.05 5.6 -255.75 -18.0 -198.2 -88.5 -184.0 -88.5 -180.5 -88.5 -180.5 -85.0 M-206.75 -21.1 Q-206.75 -22.95 -205.3 -23.35 L-203.0 -23.75 -199.75 -23.25 Q-199.25 -23.5 -199.25 -21.0 L-199.3 -19.5 -199.75 -18.75 -199.45 -18.5 -201.0 -18.25 -206.25 -18.5 Q-206.25 -19.25 -206.75 -21.1 M-107.25 -54.85 Q-107.25 -52.7 -134.35 -27.0 -166.55 3.45 -175.0 13.0 L-175.5 13.5 -161.65 1.9 Q-151.15 -6.75 -147.5 -6.75 -143.25 -6.75 -143.25 -3.25 -143.25 -2.25 -165.25 22.25 L-165.25 22.5 Q-145.75 8.75 -142.0 8.75 -139.3 8.75 -137.8 10.8 -136.75 12.15 -136.75 13.0 -136.75 13.7 -142.3 20.9 -148.5 28.95 -152.0 31.0 L-155.0 28.25 Q-155.0 26.65 -154.35 25.65 L-153.0 23.75 -152.75 23.0 Q-155.55 24.75 -167.5 34.2 -178.85 42.75 -182.0 42.75 -188.75 42.75 -188.0 37.75 -188.0 36.4 -184.95 32.95 L-180.0 27.25 -191.6 36.5 Q-200.6 43.75 -202.0 43.75 -205.75 43.75 -205.75 40.25 -205.75 35.35 -201.45 30.65 -195.1 24.5 -191.0 19.25 -195.65 23.65 -211.6 40.2 -225.45 54.55 -234.0 62.0 L-235.45 61.75 Q-236.0 61.55 -236.0 60.0 -236.0 59.4 -219.4 41.0 -200.05 19.6 -181.3 0.25 -124.1 -58.75 -111.0 -58.75 -107.25 -58.75 -107.25 -54.85 M-94.35 -25.95 L-101.55 -18.2 Q-115.6 -2.85 -131.35 16.4 -128.8 15.7 -127.0 14.75 L-125.4 15.2 Q-124.75 15.5 -124.75 17.1 -124.75 18.85 -126.5 20.5 -128.15 22.0 -129.5 22.0 L-132.5 21.5 Q-133.0 21.75 -133.0 19.25 L-132.9 18.3 Q-144.95 33.0 -158.0 50.0 L-161.0 49.0 Q-135.35 9.45 -107.8 -20.85 -73.45 -58.6 -30.0 -89.25 -28.75 -88.75 -27.75 -87.25 -58.0 -63.35 -86.55 -34.05 L-83.5 -34.5 Q-82.25 -35.5 -82.25 -33.0 -82.25 -31.15 -85.75 -28.8 -89.15 -26.45 -93.0 -25.5 L-94.35 -25.95 M-53.75 -29.0 Q-48.15 -33.85 -38.7 -44.4 L-23.15 -61.45 Q-4.65 -80.5 6.0 -77.0 -56.55 -27.05 -98.75 24.25 -99.5 25.6 -99.5 23.1 -99.5 16.05 -78.35 -5.6 -65.55 -18.75 -53.75 -29.0 M-160.5 -35.35 Q-189.1 -8.9 -236.0 37.0 -235.25 37.0 -231.5 34.75 L-230.75 34.75 -239.15 40.95 Q-245.1 45.35 -247.0 47.25 L-250.0 46.25 Q-250.25 47.25 -250.25 44.75 -250.25 42.2 -228.8 21.25 -208.1 1.1 -178.6 -25.35 -104.85 -91.45 -77.25 -107.75 -116.45 -76.15 -160.5 -35.35 M-313.25 19.25 L-315.0 20.5 -316.45 20.45 Q-316.75 20.4 -316.75 18.85 L-316.25 14.75 -314.5 14.75 Q-313.85 15.75 -313.25 19.25 M-338.4 9.8 Q-337.75 10.45 -337.75 12.1 -337.75 14.85 -345.75 25.25 -345.5 25.5 -343.0 24.25 L-342.1 24.05 Q-341.25 24.2 -341.25 25.75 -341.25 29.5 -350.0 33.5 L-353.25 33.0 Q-353.5 33.25 -353.5 30.75 -353.5 29.05 -352.05 26.25 -350.3 22.9 -350.0 21.75 -355.1 25.85 -364.95 38.2 -374.45 50.1 -381.75 55.5 -382.25 55.15 -382.6 55.05 L-382.75 53.25 Q-382.75 46.75 -354.0 12.55 -332.85 -12.6 -319.75 -26.25 -337.0 -4.75 -370.0 37.5 L-370.0 37.75 Q-361.7 28.2 -356.95 23.3 -348.75 14.8 -340.0 9.0 -338.7 9.55 -338.4 9.8 M-327.75 19.25 Q-327.75 20.6 -329.45 23.8 -331.15 26.9 -332.5 28.25 L-333.75 28.25 Q-334.5 29.25 -334.5 26.75 -334.5 25.1 -331.7 21.15 -329.15 17.5 -329.75 15.5 L-328.75 15.5 Q-327.75 17.0 -327.75 19.25 M228.0 1.75 Q229.5 1.75 229.7 2.05 L230.25 2.75 Q227.35 5.6 226.0 8.5 221.5 6.6 221.5 6.0 221.5 5.15 222.95 3.75 225.0 1.75 228.0 1.75 M124.5 27.75 Q124.5 29.75 122.75 31.5 L121.0 31.25 Q120.5 32.6 120.5 30.1 120.5 28.7 121.05 27.25 L121.75 24.75 123.5 24.75 Q124.5 25.75 124.5 27.75 M99.25 27.75 Q100.0 28.9 101.5 30.0 L101.0 30.5 99.0 30.25 Q98.5 28.75 98.5 28.0 L99.25 27.75 M70.65 23.85 L81.6 15.65 Q75.25 19.75 69.6 23.4 L70.65 23.85 M35.75 40.0 Q35.75 41.35 34.55 43.0 33.05 45.0 31.0 45.0 27.75 45.0 26.0 43.25 26.75 40.7 28.05 39.65 30.1 38.0 34.5 38.5 L35.15 38.3 Q35.75 38.45 35.75 40.0" fill="url(#gradient0)" fill-rule="evenodd" stroke="none"/>
  </g>
  <defs>
    <linearGradient gradientTransform="matrix(0.0, 0.1294, -0.4906, 0.0, 6.9, -1.75)" gradientUnits="userSpaceOnUse" id="gradient0" spreadMethod="pad" x1="-819.2" x2="819.2">
      <stop offset="0.0" stop-color="#000000" stop-opacity="0.13333334"/>
      <stop offset="1.0" stop-color="#000000" stop-opacity="0.24313726"/>
    </linearGradient>
  </defs>
</svg>
