<?xml version="1.0" encoding="UTF-8" standalone="no"?>
<svg xmlns:ffdec="https://www.free-decompiler.com/flash" xmlns:xlink="http://www.w3.org/1999/xlink" ffdec:objectType="shape" height="30.0px" width="30.0px" xmlns="http://www.w3.org/2000/svg">
  <g transform="matrix(1.0, 0.0, 0.0, 1.0, 15.0, 15.0)">
    <path d="M10.65 -10.6 L12.15 -8.9 Q13.75 -6.75 14.45 -4.2 15.0 -2.2 15.0 0.0 L14.85 2.6 14.85 2.65 14.75 3.2 14.75 3.35 Q14.3 5.35 13.25 7.2 12.2 9.0 10.65 10.6 L8.35 12.55 Q4.65 15.0 0.0 15.0 -4.7 15.0 -8.3 12.55 L-10.6 10.6 -12.7 8.0 -13.4 6.8 -13.6 6.4 -14.3 4.6 -14.4 4.15 -14.75 2.4 -15.0 0.0 Q-15.05 -6.2 -10.6 -10.6 -6.25 -15.05 0.0 -15.0 6.2 -15.05 10.65 -10.6" fill="#2f2f2f" fill-rule="evenodd" stroke="none"/>
  </g>
</svg>
