<?xml version="1.0" encoding="UTF-8" standalone="no"?>
<svg xmlns:ffdec="https://www.free-decompiler.com/flash" xmlns:xlink="http://www.w3.org/1999/xlink" ffdec:objectType="shape" height="30.0px" width="30.0px" xmlns="http://www.w3.org/2000/svg">
  <g transform="matrix(1.0, 0.0, 0.0, 1.0, 15.0, 15.0)">
    <path d="M11.8 -0.05 Q11.75 -4.7 8.3 -8.05 4.9 -11.35 0.0 -11.35 -4.9 -11.35 -8.4 -8.05 -11.8 -4.7 -11.75 -0.05 -11.8 4.65 -8.4 8.0 -4.9 11.35 0.0 11.35 4.9 11.35 8.3 8.0 11.75 4.65 11.8 -0.05 M10.65 -10.6 L12.15 -8.9 Q13.75 -6.75 14.45 -4.2 15.0 -2.2 15.0 0.0 L14.85 2.6 14.85 2.65 14.75 3.2 14.75 3.35 Q14.3 5.35 13.25 7.2 12.2 9.0 10.65 10.6 L8.35 12.55 Q4.65 15.0 0.0 15.0 -4.7 15.0 -8.3 12.55 L-10.6 10.6 -12.7 8.0 -13.4 6.8 -13.6 6.4 -14.3 4.6 -14.4 4.15 -14.75 2.4 -15.0 0.0 Q-15.05 -6.2 -10.6 -10.6 -6.25 -15.05 0.0 -15.0 6.2 -15.05 10.65 -10.6" fill="url(#gradient0)" fill-rule="evenodd" stroke="none"/>
    <path d="M11.8 -0.05 Q11.75 4.65 8.3 8.0 4.9 11.35 0.0 11.35 -4.9 11.35 -8.4 8.0 -11.8 4.65 -11.75 -0.05 -11.8 -4.7 -8.4 -8.05 -4.9 -11.35 0.0 -11.35 4.9 -11.35 8.3 -8.05 11.75 -4.7 11.8 -0.05" fill="url(#gradient1)" fill-rule="evenodd" stroke="none"/>
  </g>
  <defs>
    <radialGradient cx="0" cy="0" gradientTransform="matrix(0.0195, 0.0, 0.0, 0.0195, 0.35, 0.3)" gradientUnits="userSpaceOnUse" id="gradient0" r="819.2" spreadMethod="pad">
      <stop offset="0.4117647058823529" stop-color="#000000" stop-opacity="0.0"/>
      <stop offset="0.7450980392156863" stop-color="#000000" stop-opacity="0.2"/>
      <stop offset="1.0" stop-color="#000000" stop-opacity="0.7529412"/>
    </radialGradient>
    <radialGradient cx="0" cy="0" gradientTransform="matrix(0.0, 0.0107, -0.0244, 0.0, 0.5, -8.5)" gradientUnits="userSpaceOnUse" id="gradient1" r="819.2" spreadMethod="pad">
      <stop offset="0.0" stop-color="#ffffff" stop-opacity="0.3019608"/>
      <stop offset="0.5098039215686274" stop-color="#ffffff" stop-opacity="0.13333334"/>
      <stop offset="1.0" stop-color="#ffffff" stop-opacity="0.0"/>
    </radialGradient>
  </defs>
</svg>
