<?xml version="1.0" encoding="UTF-8" standalone="no"?>
<svg xmlns:ffdec="https://www.free-decompiler.com/flash" xmlns:xlink="http://www.w3.org/1999/xlink" ffdec:objectType="shape" height="338.25px" width="814.45px" xmlns="http://www.w3.org/2000/svg">
  <g transform="matrix(1.0, 0.0, 0.0, 1.0, 403.25, 183.1)">
    <path d="M206.05 98.55 L196.85 99.4 196.8 82.8 206.05 98.55 M17.5 -85.3 L17.25 -85.4 17.5 -85.3" fill="#333333" fill-rule="evenodd" stroke="none"/>
    <path d="M-32.15 -92.45 L-35.5 -92.35 -34.45 -93.3 -32.15 -92.45" fill="#000000" fill-rule="evenodd" stroke="none"/>
    <path d="M221.6 97.1 Q235.9 125.9 237.0 150.5 236.0 154.0 232.5 155.15 225.7 137.0 216.25 118.1 L221.6 97.1" fill="#515151" fill-rule="evenodd" stroke="none"/>
    <path d="M-31.4 -95.35 Q-13.25 -93.55 2.8 -98.5 18.8 -103.5 30.0 -106.55 L37.85 -106.35 48.05 -105.8 53.05 -102.55 Q57.95 -99.35 89.3 -97.1 120.65 -94.85 136.7 -91.5 L113.35 -86.6 Q92.65 -82.25 88.1 -82.25 54.7 -81.6 44.05 -79.2 42.15 -79.9 37.5 -80.45 L23.1 -82.15 16.6 -83.0 16.45 -83.0 -0.75 -85.7 Q-5.4 -86.5 -20.25 -91.55 L-31.4 -95.35" fill="url(#gradient0)" fill-rule="evenodd" stroke="none"/>
    <path d="M-401.8 -66.65 Q-399.5 -73.55 -399.5 -76.65 -399.5 -90.25 -397.1 -99.3 -393.35 -111.6 -390.1 -125.35 L-397.5 -124.95 -390.6 -126.6 -393.0 -126.65 -389.6 -127.35 -389.5 -127.85 -387.5 -128.1 -387.55 -127.85 Q-384.2 -128.75 -381.8 -129.85 L-376.5 -132.9 Q-373.95 -134.55 -371.2 -135.15 L-360.0 -136.05 -356.7 -136.0 -356.75 -135.65 -345.55 -135.75 Q-311.35 -131.05 -283.65 -125.15 L-270.45 -126.05 -254.0 -127.35 -220.0 -123.5 Q-209.6 -123.55 -200.05 -120.55 L-192.7 -117.8 -168.55 -111.8 Q-147.9 -106.65 -138.4 -104.6 L-138.45 -104.55 -128.5 -105.5 -118.0 -106.45 Q-106.9 -106.5 -73.7 -101.75 L-50.9 -98.15 Q-42.7 -97.75 -38.55 -96.2 L-35.0 -96.4 -32.3 -95.65 -32.2 -95.6 -31.4 -95.35 -20.25 -91.55 Q-5.4 -86.5 -0.75 -85.7 L16.45 -83.0 16.6 -83.0 23.1 -82.15 37.5 -80.45 Q42.15 -79.9 44.05 -79.2 L44.6 -79.0 Q46.05 -78.3 46.4 -76.9 61.2 -72.4 81.9 -66.65 L-401.8 -66.65 M-32.15 -92.45 L-34.45 -93.3 -35.5 -92.35 -32.15 -92.45" fill="url(#gradient1)" fill-rule="evenodd" stroke="none"/>
    <path d="M136.7 -91.5 L144.0 -92.9 147.85 -92.9 148.8 -93.15 Q184.0 -101.75 208.0 -110.55 L215.75 -113.2 215.0 -113.2 215.0 -113.45 220.85 -114.2 224.1 -114.65 227.0 -114.5 239.75 -113.9 Q248.4 -113.95 256.95 -117.9 262.1 -120.3 273.55 -126.65 285.25 -132.5 298.3 -135.4 310.5 -138.15 325.75 -139.0 354.8 -143.25 378.75 -143.25 L389.5 -142.5 389.5 -141.05 388.1 -140.9 388.0 -139.25 Q388.0 -137.8 391.45 -131.95 L399.0 -118.7 Q410.0 -97.65 410.0 -79.8 410.0 -78.25 410.95 -69.75 L411.2 -66.65 89.0 -66.65 81.9 -66.65 Q61.2 -72.4 46.4 -76.9 46.05 -78.3 44.6 -79.0 L44.05 -79.2 Q54.7 -81.6 88.1 -82.25 92.65 -82.25 113.35 -86.6 L136.7 -91.5" fill="url(#gradient2)" fill-rule="evenodd" stroke="none"/>
    <path d="M196.85 99.4 Q155.0 102.65 104.0 102.7 -107.2 102.65 -221.25 86.65 -325.5 72.0 -366.95 41.05 -385.6 27.1 -394.3 8.15 -401.75 -8.05 -403.0 -30.6 -403.7 -43.4 -402.4 -66.65 L-401.8 -66.65 81.9 -66.65 89.0 -66.65 90.45 -64.7 96.95 -56.1 149.8 13.45 Q178.7 52.6 196.8 82.8 L196.85 99.4" fill="url(#gradient3)" fill-rule="evenodd" stroke="none"/>
    <path d="M411.2 -66.65 L411.2 -64.7 Q411.1 -53.9 410.55 -45.75 407.5 3.15 386.0 31.45 359.35 66.4 296.95 83.5 264.95 92.35 221.6 97.1 L216.25 118.1 Q211.5 108.4 206.05 98.55 L196.8 82.8 Q178.7 52.6 149.8 13.45 L96.95 -56.1 90.45 -64.7 89.0 -66.65 411.2 -66.65" fill="url(#gradient4)" fill-rule="evenodd" stroke="none"/>
    <path d="M-306.85 -44.0 L-308.1 -44.0 -307.8 -44.1 -306.85 -44.0 M-233.0 -44.0 L-234.0 -44.0 -233.8 -44.1 -233.0 -44.0" fill="#000000" fill-opacity="0.2" fill-rule="evenodd" stroke="none"/>
    <path d="M155.0 -87.5 L153.65 -85.85 154.8 -83.9 153.55 -82.0 Q149.5 -82.0 148.4 -84.45 148.05 -85.3 148.05 -87.65 148.05 -89.45 158.1 -94.6 168.95 -100.25 175.8 -100.25 179.0 -100.25 180.4 -97.6 181.25 -96.05 181.85 -91.85 182.45 -87.65 183.2 -86.05 184.5 -83.45 187.55 -83.45 197.05 -83.5 199.05 -89.65 199.05 -92.85 192.95 -98.55 186.8 -104.3 186.8 -105.7 186.8 -106.35 190.55 -109.45 184.0 -115.15 183.5 -115.85 183.05 -116.55 183.05 -120.8 183.05 -124.65 183.6 -125.6 185.3 -128.5 192.05 -128.55 190.8 -131.7 190.8 -135.15 190.8 -138.05 193.55 -141.8 197.2 -146.8 202.8 -146.8 212.5 -146.8 216.45 -142.7 219.15 -139.9 219.95 -133.6 220.85 -126.35 221.85 -124.5 224.05 -120.4 230.8 -120.4 236.6 -120.4 240.1 -123.35 L245.65 -129.9 Q249.3 -134.35 254.0 -136.5 260.7 -139.5 271.8 -139.45 275.95 -139.5 278.65 -137.45 281.35 -135.5 282.3 -135.5 L290.8 -135.7 Q288.25 -140.8 281.7 -148.6 277.55 -153.55 277.55 -159.6 277.55 -163.1 281.05 -165.9 285.75 -169.7 294.8 -169.65 303.4 -169.7 307.5 -165.1 308.6 -171.9 316.1 -176.4 327.35 -183.1 351.3 -183.1 382.2 -183.1 395.85 -165.45 400.35 -159.65 402.45 -152.45 403.8 -147.9 403.8 -144.7 401.55 -133.75 398.65 -127.45 399.3 -127.1 399.3 -125.9 399.3 -121.15 393.35 -115.55 386.7 -109.3 378.8 -109.25 370.05 -109.3 366.05 -113.85 363.6 -116.7 361.8 -123.95 359.9 -131.4 357.75 -134.05 354.05 -138.65 345.8 -138.65 331.3 -138.65 327.05 -133.4 325.7 -131.7 325.5 -129.5 L325.55 -127.1 Q325.55 -122.6 330.55 -116.35 335.55 -110.1 335.55 -106.95 335.55 -104.0 328.3 -98.15 321.5 -92.7 315.55 -91.8 313.65 -93.45 310.9 -94.95 305.6 -97.95 301.75 -97.95 296.95 -97.95 294.65 -96.65 292.0 -98.7 289.7 -101.7 L284.5 -108.65 Q281.35 -111.8 276.55 -111.8 269.1 -111.8 264.55 -107.2 261.3 -103.9 261.3 -101.5 261.3 -100.5 262.3 -97.85 263.3 -95.3 263.3 -94.25 263.3 -91.95 259.3 -88.3 254.9 -84.3 250.8 -84.3 244.45 -84.3 241.65 -87.05 240.15 -88.55 238.55 -93.1 237.05 -97.4 234.8 -99.15 231.35 -101.95 223.8 -101.9 220.0 -101.9 217.85 -99.8 216.3 -98.3 216.3 -96.95 216.3 -94.75 219.2 -90.95 222.05 -87.2 222.05 -85.0 222.05 -84.1 217.55 -80.3 218.25 -79.45 219.7 -75.3 L221.05 -70.55 Q221.05 -67.9 218.7 -64.7 L215.8 -61.45 212.7 -58.85 187.75 -58.85 186.9 -59.85 Q185.1 -62.35 183.75 -63.1 181.2 -64.6 175.8 -64.6 L173.9 -64.7 Q167.35 -65.4 164.05 -70.9 161.8 -74.7 161.8 -77.8 161.8 -78.35 163.3 -80.9 164.8 -83.5 164.8 -84.7 164.8 -85.55 159.8 -90.4 157.6 -90.4 155.0 -87.5 M151.6 -88.05 L152.4 -89.1 151.8 -88.9 151.6 -88.05 M183.05 -73.45 Q182.75 -73.15 182.5 -71.95 L185.0 -69.9 Q186.25 -69.0 187.25 -69.0 189.75 -69.0 189.25 -69.85 188.0 -74.05 185.25 -74.05 183.55 -74.05 183.05 -73.45 M173.75 -73.4 Q172.75 -73.4 171.0 -71.1 172.35 -67.65 173.35 -66.95 175.45 -65.45 182.25 -65.45 183.75 -65.45 183.7 -65.9 L183.5 -67.3 Q182.0 -71.2 173.75 -73.4 M309.55 -157.3 L310.1 -157.55 309.55 -157.5 309.55 -157.3" fill="url(#gradient5)" fill-rule="evenodd" stroke="none"/>
    <path d="M-379.15 -130.7 Q-378.1 -133.0 -373.95 -133.8 -375.05 -134.8 -375.05 -135.5 -375.05 -138.35 -371.3 -141.8 -366.65 -146.25 -359.8 -146.2 -354.7 -146.2 -351.55 -144.0 -349.4 -142.5 -347.25 -139.1 -344.85 -135.25 -343.75 -134.2 -341.4 -132.0 -337.8 -131.95 -333.35 -131.95 -330.75 -129.65 -329.35 -128.4 -327.05 -124.5 -324.95 -120.9 -322.95 -119.35 -319.8 -117.05 -314.55 -117.05 -294.8 -117.05 -294.8 -120.4 -294.8 -121.0 -298.65 -124.8 -302.55 -128.6 -302.55 -130.15 -302.55 -146.25 -289.8 -146.2 -287.65 -146.25 -282.15 -144.55 L-276.8 -142.85 Q-275.15 -142.85 -273.8 -144.3 -272.8 -145.45 -272.8 -146.0 L-275.3 -150.6 Q-277.8 -155.1 -277.8 -157.35 -277.8 -159.5 -273.3 -162.4 -268.45 -165.55 -263.8 -165.5 -248.55 -165.55 -241.05 -159.25 -235.8 -154.9 -235.8 -149.8 -235.8 -143.9 -239.3 -139.05 -242.8 -134.2 -242.8 -129.65 -242.8 -125.95 -237.5 -121.6 -232.6 -117.6 -226.35 -117.5 L-224.8 -118.55 Q-217.8 -118.55 -217.8 -114.85 -217.8 -113.8 -218.8 -112.0 -219.8 -110.25 -219.8 -109.2 -219.8 -103.6 -218.85 -101.4 -216.4 -95.7 -207.95 -95.65 L-201.55 -96.7 -201.4 -96.55 -201.3 -98.0 -202.3 -98.25 Q-203.75 -98.7 -205.3 -100.7 L-205.55 -102.6 Q-206.3 -103.15 -204.65 -103.2 -204.2 -103.65 -202.8 -103.65 -198.15 -103.65 -195.6 -100.1 -193.8 -97.65 -193.8 -95.65 -193.8 -91.8 -195.55 -90.6 -196.75 -89.8 -203.7 -87.3 L-203.3 -86.6 -203.3 -84.85 Q-203.3 -82.75 -206.85 -80.8 -211.3 -78.3 -218.55 -78.25 -231.75 -78.25 -237.05 -83.45 -240.4 -86.75 -241.95 -94.9 -243.6 -103.45 -246.2 -106.4 -250.75 -111.65 -262.7 -111.6 L-267.55 -110.55 Q-267.25 -109.0 -261.25 -99.8 -255.55 -91.1 -255.55 -87.9 -255.55 -83.0 -259.6 -81.25 -264.05 -79.3 -277.3 -79.3 -290.2 -79.3 -293.05 -82.25 L-294.5 -84.25 Q-295.25 -85.2 -297.3 -85.2 -298.55 -85.2 -306.0 -82.35 -313.45 -79.55 -321.05 -79.5 -328.75 -79.55 -332.65 -87.75 -335.3 -93.35 -335.3 -99.05 -348.1 -101.75 -353.0 -103.55 L-356.3 -104.7 Q-364.65 -104.7 -366.0 -101.9 L-366.55 -99.7 Q-366.9 -98.45 -368.05 -98.0 -373.8 -97.45 -377.15 -109.95 -379.55 -118.8 -379.55 -125.55 -379.55 -129.85 -379.15 -130.7" fill="url(#gradient6)" fill-rule="evenodd" stroke="none"/>
    <path d="M-155.55 -158.6 L-156.05 -157.95 -156.1 -158.0 -155.55 -158.6" fill="url(#gradient7)" fill-rule="evenodd" stroke="none"/>
    <path d="M-85.15 -149.2 Q-77.2 -141.2 -77.2 -129.9 -77.2 -118.6 -85.15 -110.65 -93.1 -102.65 -104.25 -102.65 -115.45 -102.65 -123.4 -110.65 -131.35 -118.6 -131.3 -129.9 -131.35 -141.2 -123.4 -149.2 -115.45 -157.15 -104.25 -157.15 -93.1 -157.15 -85.15 -149.2" fill="url(#gradient8)" fill-rule="evenodd" stroke="none"/>
  </g>
  <defs>
    <radialGradient cx="0" cy="0" fx="16.0" fy="0" gradientTransform="matrix(0.1111, 0.0, 0.0, 0.0643, 49.0, -71.0)" gradientUnits="userSpaceOnUse" id="gradient0" r="819.2" spreadMethod="pad">
      <stop offset="0.0" stop-color="#29404e" stop-opacity="0.47058824"/>
      <stop offset="1.0" stop-color="#4a7159" stop-opacity="0.67058825"/>
    </radialGradient>
    <radialGradient cx="0" cy="0" gradientTransform="matrix(-0.0195, 0.0655, -0.3661, -0.0366, -170.05, -113.2)" gradientUnits="userSpaceOnUse" id="gradient1" r="819.2" spreadMethod="pad">
      <stop offset="0.0" stop-color="#355b3d" stop-opacity="0.7529412"/>
      <stop offset="1.0" stop-color="#485a36" stop-opacity="0.93333334"/>
    </radialGradient>
    <radialGradient cx="0" cy="0" gradientTransform="matrix(0.3159, 0.0, 0.0, 0.1828, 226.05, -110.9)" gradientUnits="userSpaceOnUse" id="gradient2" r="819.2" spreadMethod="pad">
      <stop offset="0.0" stop-color="#3d544f" stop-opacity="0.5921569"/>
      <stop offset="1.0" stop-color="#304738" stop-opacity="0.9411765"/>
      <stop offset="1.0" stop-color="#304738" stop-opacity="0.77254903"/>
    </radialGradient>
    <radialGradient cx="0" cy="0" gradientTransform="matrix(-0.0195, 0.3181, -0.3661, -0.1775, -170.05, -302.15)" gradientUnits="userSpaceOnUse" id="gradient3" r="819.2" spreadMethod="pad">
      <stop offset="0.0" stop-color="#355b3d" stop-opacity="0.7529412"/>
      <stop offset="1.0" stop-color="#485a36" stop-opacity="0.93333334"/>
    </radialGradient>
    <radialGradient cx="0" cy="0" gradientTransform="matrix(0.3159, 0.0, 0.0, 0.8875, 226.05, -291.0)" gradientUnits="userSpaceOnUse" id="gradient4" r="819.2" spreadMethod="pad">
      <stop offset="0.0" stop-color="#3d544f" stop-opacity="0.5921569"/>
      <stop offset="1.0" stop-color="#304738" stop-opacity="0.9411765"/>
      <stop offset="1.0" stop-color="#304738" stop-opacity="0.77254903"/>
    </radialGradient>
    <linearGradient gradientTransform="matrix(-0.008, 0.0839, -0.1518, -0.0101, 276.2, -119.15)" gradientUnits="userSpaceOnUse" id="gradient5" spreadMethod="pad" x1="-819.2" x2="819.2">
      <stop offset="0.0" stop-color="#ffffff" stop-opacity="0.4627451"/>
      <stop offset="1.0" stop-color="#ffffff" stop-opacity="0.0"/>
    </linearGradient>
    <linearGradient gradientTransform="matrix(-0.0054, 0.0547, -0.1146, -0.008, -285.6, -122.15)" gradientUnits="userSpaceOnUse" id="gradient6" spreadMethod="pad" x1="-819.2" x2="819.2">
      <stop offset="0.0" stop-color="#ffffff" stop-opacity="0.4627451"/>
      <stop offset="1.0" stop-color="#ffffff" stop-opacity="0.0"/>
    </linearGradient>
    <linearGradient gradientTransform="matrix(-0.0099, 0.0994, -0.4738, -0.0331, 12.35, -138.2)" gradientUnits="userSpaceOnUse" id="gradient7" spreadMethod="pad" x1="-819.2" x2="819.2">
      <stop offset="0.0" stop-color="#ffffff" stop-opacity="0.4627451"/>
      <stop offset="1.0" stop-color="#ffffff" stop-opacity="0.0"/>
    </linearGradient>
    <radialGradient cx="0" cy="0" gradientTransform="matrix(0.0373, 0.0, 0.0, 0.0335, -104.25, -129.9)" gradientUnits="userSpaceOnUse" id="gradient8" r="819.2" spreadMethod="pad">
      <stop offset="0.10196078431372549" stop-color="#ffffff"/>
      <stop offset="0.47058823529411764" stop-color="#fff280" stop-opacity="0.4117647"/>
      <stop offset="1.0" stop-color="#fff280" stop-opacity="0.0"/>
    </radialGradient>
  </defs>
</svg>
