<?xml version="1.0" encoding="UTF-8" standalone="no"?>
<svg xmlns:ffdec="https://www.free-decompiler.com/flash" xmlns:xlink="http://www.w3.org/1999/xlink" ffdec:objectType="shape" height="315.85px" width="780.45px" xmlns="http://www.w3.org/2000/svg">
  <g transform="matrix(1.0, 0.0, 0.0, 1.0, 385.95, 157.65)">
    <path d="M385.45 -156.15 L385.45 157.2 385.45 158.2 -385.45 158.2 -385.45 157.2 -385.45 -156.15 385.45 -156.15" fill="url(#gradient0)" fill-rule="evenodd" stroke="none"/>
    <path d="M-385.45 -156.15 L-385.45 -157.15 385.45 -157.15 385.45 -156.15 385.45 157.2 M-385.45 157.2 L-385.45 -156.15" fill="none" stroke="#000000" stroke-linecap="round" stroke-linejoin="round" stroke-width="1.0"/>
    <path d="M12.9 -155.1 L73.15 -155.1 Q83.05 -143.15 83.05 -126.75 83.05 -109.0 71.35 -96.35 59.6 -83.75 43.05 -83.75 26.45 -83.75 14.75 -96.35 3.0 -109.0 3.0 -126.75 3.0 -143.15 12.9 -155.1" fill="url(#gradient1)" fill-rule="evenodd" stroke="none"/>
    <path d="M385.7 -123.05 L385.7 85.0 -383.5 85.0 -383.5 -123.05 385.7 -123.05" fill="url(#gradient2)" fill-rule="evenodd" stroke="none"/>
    <path d="M91.25 -109.0 L77.0 -108.75 Q65.75 -108.75 47.65 -111.0 29.5 -113.25 19.0 -113.25 -5.75 -113.25 -9.1 -111.55 -10.4 -110.9 -10.2 -109.25 L-10.05 -107.2 16.35 -103.95 Q43.75 -100.45 57.0 -96.6 75.0 -91.4 75.0 -83.85 75.0 -81.0 70.35 -81.0 67.5 -81.0 57.85 -84.45 43.2 -89.65 35.25 -92.0 -2.15 -103.0 -44.5 -103.0 -51.9 -103.0 -58.3 -97.55 L-69.8 -85.6 Q-77.55 -77.6 -85.75 -73.7 -97.1 -68.25 -113.0 -68.25 -119.25 -68.25 -123.75 -70.25 -128.25 -72.3 -128.25 -75.1 -128.25 -83.05 -96.5 -93.65 L-93.5 -94.5 Q-103.5 -95.95 -113.55 -101.1 L-123.2 -106.55 Q-128.2 -109.45 -130.75 -110.25 L-128.5 -112.4 Q-145.9 -110.05 -161.5 -106.0 -167.15 -104.55 -177.0 -100.9 -187.15 -98.0 -202.0 -98.0 L-204.15 -98.1 Q-203.5 -95.95 -203.5 -92.6 -203.5 -91.3 -199.55 -89.1 -193.7 -85.9 -192.5 -85.0 -192.25 -86.35 -192.25 -83.85 -192.25 -82.45 -194.5 -81.45 L-196.75 -80.75 -199.65 -83.75 Q-203.4 -87.45 -207.9 -90.7 -220.05 -99.5 -234.95 -103.15 L-234.75 -102.0 Q-234.75 -99.6 -236.95 -96.4 L-241.5 -89.25 Q-239.2 -87.3 -229.1 -82.55 L-218.5 -77.75 Q-225.35 -75.0 -226.0 -75.0 -234.55 -75.0 -242.25 -81.05 -244.95 -83.15 -246.85 -85.5 -248.5 -87.45 -248.5 -88.1 -248.5 -92.05 -245.0 -97.35 L-241.5 -102.75 Q-241.5 -103.3 -242.5 -104.7 -270.8 -109.6 -282.65 -113.6 -294.85 -117.7 -298.45 -123.05 L-288.0 -123.05 Q-285.25 -120.55 -283.25 -119.75 -279.75 -118.4 -261.15 -115.05 L-241.0 -111.5 Q-219.35 -106.55 -212.3 -104.3 -205.95 -105.05 -200.25 -106.5 L-200.0 -106.75 Q-212.75 -111.05 -228.2 -115.2 -233.0 -116.9 -235.0 -118.85 -236.75 -120.55 -237.1 -123.05 L-231.85 -123.05 Q-225.9 -115.55 -209.45 -110.8 -197.15 -107.25 -190.0 -107.25 -187.5 -107.25 -162.35 -111.3 -135.05 -115.75 -123.0 -118.5 -129.7 -120.55 -146.25 -122.1 L-157.65 -123.05 -50.2 -123.05 -50.75 -121.6 Q-50.75 -119.0 -53.25 -116.0 -48.55 -112.35 -27.05 -109.3 L-14.5 -107.75 Q-14.5 -111.15 -14.0 -112.4 -13.2 -114.55 -10.45 -115.8 -4.3 -118.5 18.5 -118.5 30.25 -118.5 48.3 -116.35 L76.0 -113.25 79.75 -113.5 Q68.9 -118.8 60.35 -123.05 L76.2 -123.05 Q77.95 -120.25 94.0 -118.4 112.9 -116.2 134.0 -117.75 142.9 -118.35 163.05 -114.65 184.35 -110.75 189.25 -110.75 L202.0 -116.7 Q202.5 -117.85 202.5 -119.0 202.5 -120.45 202.8 -120.1 203.4 -119.45 203.5 -119.5 L204.85 -118.05 215.7 -123.05 299.9 -123.05 300.0 -122.75 Q299.1 -121.25 294.35 -121.25 L279.25 -118.5 261.25 -120.5 236.75 -122.5 Q229.65 -122.5 220.45 -117.5 L214.05 -113.8 Q210.8 -111.9 209.25 -111.5 L205.1 -109.95 Q207.4 -103.85 225.0 -101.0 245.3 -97.75 292.35 -97.75 306.15 -97.75 315.5 -99.75 324.85 -101.75 332.0 -101.75 378.25 -101.75 378.25 -81.75 L378.35 -78.35 Q378.2 -75.6 376.75 -73.5 372.25 -67.25 356.0 -67.25 349.6 -67.25 315.85 -76.4 L281.5 -86.0 Q275.45 -87.6 259.55 -87.65 238.45 -87.75 232.1 -88.2 216.6 -89.35 208.65 -93.7 200.2 -98.3 198.95 -107.0 L198.5 -106.8 Q192.0 -103.5 190.0 -103.5 L179.95 -104.4 168.3 -106.35 Q148.9 -109.25 114.5 -109.25 L102.75 -109.5 92.0 -110.55 91.8 -109.55 Q91.45 -109.45 91.25 -109.0 M322.9 -123.05 L323.8 -123.05 323.0 -123.0 322.9 -123.05 M320.1 -86.35 Q351.4 -78.5 367.0 -78.5 369.0 -78.5 370.0 -84.75 370.0 -90.45 358.9 -94.3 346.55 -98.6 326.75 -98.0 L287.0 -96.0 Q295.45 -92.55 320.1 -86.35 M339.5 -115.55 Q338.2 -113.65 337.0 -113.0 L334.75 -113.0 334.4 -113.25 Q334.0 -113.5 334.0 -115.0 334.0 -116.2 336.75 -117.8 339.5 -119.35 341.0 -119.0 340.8 -117.5 339.5 -115.55 M-339.95 -120.35 Q-336.3 -117.15 -328.55 -107.35 -321.25 -98.2 -316.4 -94.4 -308.8 -88.5 -300.1 -88.5 -296.95 -88.5 -287.5 -90.5 L-277.0 -92.5 -230.75 -69.1 Q-230.75 -65.75 -235.0 -65.75 -240.15 -65.75 -246.15 -67.95 -249.7 -69.25 -257.75 -72.75 -275.35 -79.75 -298.25 -79.75 -329.8 -79.75 -350.1 -72.1 -356.2 -69.85 -361.05 -66.9 L-365.0 -64.5 Q-366.75 -64.5 -368.75 -65.5 L-369.0 -65.95 -369.25 -67.75 Q-369.25 -75.25 -350.75 -81.4 -334.75 -86.7 -316.25 -88.0 -324.35 -91.9 -331.45 -97.75 -339.35 -104.25 -340.5 -109.0 -341.8 -114.15 -353.3 -117.25 L-362.8 -119.95 Q-366.8 -121.3 -369.4 -123.05 L-343.55 -123.05 Q-341.75 -121.9 -339.95 -120.35 M-195.0 -121.25 L-209.25 -123.05 -175.85 -123.05 -195.0 -121.25 M-280.5 -84.0 L-275.0 -83.75 Q-276.55 -85.3 -279.25 -84.5 L-280.5 -84.0 M-48.75 -109.25 Q-61.25 -109.55 -61.25 -115.5 -61.25 -117.15 -60.8 -117.75 L-59.25 -119.25 Q-79.4 -119.65 -85.3 -121.3 -90.65 -122.75 -97.35 -122.75 -101.65 -122.75 -109.0 -120.75 L-109.55 -120.8 Q-108.5 -119.3 -108.5 -117.5 -108.5 -115.65 -111.45 -114.8 L-120.8 -113.4 -123.3 -113.1 Q-108.55 -104.45 -105.25 -103.0 -104.35 -102.6 -88.55 -100.95 L-77.35 -99.4 Q-56.35 -105.95 -48.75 -109.25 M-114.0 -76.25 L-108.35 -75.75 Q-95.1 -75.75 -82.75 -82.4 -78.9 -84.5 -75.15 -87.25 L-71.8 -89.75 -72.5 -89.75 Q-77.4 -89.75 -93.45 -83.95 L-114.0 -76.25" fill="url(#gradient3)" fill-rule="evenodd" stroke="none"/>
    <path d="M113.25 -137.75 Q112.0 -137.75 111.2 -136.95 L109.7 -135.1 Q107.15 -132.5 100.0 -132.5 99.1 -132.5 94.8 -135.2 L89.5 -138.5 Q88.9 -135.1 84.3 -133.0 77.9 -130.65 74.0 -128.75 L70.65 -128.95 Q69.75 -129.2 69.75 -130.85 69.75 -132.15 70.1 -133.0 L69.8 -133.35 67.5 -136.0 Q66.45 -136.0 57.1 -132.8 47.35 -129.5 45.75 -129.25 L46.5 -127.0 Q45.75 -125.75 45.75 -125.5 42.35 -126.75 42.0 -129.4 41.8 -130.9 41.75 -134.0 48.4 -135.95 58.0 -136.25 53.0 -139.25 53.0 -141.85 53.0 -144.0 58.8 -148.25 64.15 -152.25 65.5 -152.25 72.25 -152.25 77.55 -144.25 79.15 -141.75 80.45 -138.85 81.0 -147.25 90.0 -147.25 96.65 -147.25 99.15 -142.9 L100.5 -137.75 Q105.95 -137.6 107.65 -140.4 L109.15 -142.35 Q110.4 -143.25 113.0 -143.25 116.2 -143.25 118.0 -141.0 119.25 -139.4 119.25 -138.0 L119.1 -136.6 118.75 -136.5 118.0 -135.25 Q116.95 -135.35 115.7 -136.6 114.55 -137.75 113.25 -137.75 M280.55 -142.15 Q279.85 -144.3 276.25 -144.75 277.25 -144.6 277.25 -142.1 277.25 -139.75 275.15 -138.6 272.9 -137.35 269.75 -138.25 270.15 -136.6 269.9 -135.4 269.35 -133.0 266.0 -133.0 263.35 -133.0 262.3 -137.5 261.75 -139.75 261.75 -142.0 261.75 -143.05 266.75 -148.3 272.4 -154.25 276.0 -154.25 282.35 -154.25 285.05 -152.1 287.0 -150.5 287.5 -147.0 287.75 -142.9 288.25 -140.9 288.45 -140.1 288.8 -139.4 289.25 -145.0 302.0 -145.0 305.8 -145.0 308.05 -143.5 311.2 -142.8 312.35 -141.0 313.45 -139.25 313.85 -138.95 314.4 -138.5 315.35 -138.25 L315.3 -138.55 315.0 -140.0 315.25 -140.75 317.5 -141.0 Q317.9 -140.6 318.3 -140.6 318.5 -140.4 318.5 -138.85 L318.4 -137.7 319.25 -137.25 318.95 -135.85 Q318.65 -135.1 317.4 -135.0 L316.0 -132.75 Q312.8 -128.25 308.0 -128.25 304.9 -128.25 303.8 -129.45 303.45 -129.85 302.65 -132.1 301.35 -135.8 293.6 -136.0 L292.15 -134.35 Q289.5 -132.0 286.0 -132.0 281.75 -132.0 280.65 -133.8 279.95 -134.95 280.45 -137.85 280.95 -141.0 280.55 -142.15 M292.5 -136.05 L291.45 -136.25 292.25 -135.75 292.5 -136.05 M-344.85 -150.6 Q-343.0 -149.5 -341.75 -149.5 L-339.2 -151.35 Q-336.9 -153.25 -336.0 -153.25 -327.05 -153.25 -324.85 -146.0 L-324.3 -143.7 -323.35 -141.5 Q-322.6 -140.25 -321.0 -140.25 -317.55 -140.25 -316.2 -142.75 -314.9 -145.25 -312.0 -145.25 L-311.6 -145.2 Q-307.55 -149.6 -298.0 -151.75 -295.15 -151.75 -292.2 -148.1 -289.25 -144.5 -288.0 -144.5 -286.75 -144.5 -284.5 -145.5 -282.25 -146.5 -281.0 -146.5 -279.8 -146.5 -277.5 -145.4 L-277.0 -145.5 Q-275.7 -145.5 -274.25 -143.65 L-274.0 -143.5 -274.05 -143.4 -273.05 -141.8 Q-271.25 -138.75 -271.25 -137.85 L-271.5 -134.5 -272.0 -134.0 Q-272.5 -133.5 -274.0 -133.5 -274.95 -133.5 -276.3 -135.05 -280.0 -135.6 -281.45 -136.3 L-285.2 -138.1 -287.0 -138.0 Q-293.8 -138.0 -295.65 -140.85 L-296.7 -143.4 Q-297.25 -145.0 -298.0 -145.75 -299.15 -145.3 -300.0 -143.95 L-301.5 -141.6 Q-303.5 -139.1 -308.75 -140.6 L-308.75 -139.85 Q-308.75 -138.35 -309.25 -137.0 L-309.3 -136.4 Q-309.75 -134.25 -311.6 -133.65 L-311.8 -133.5 Q-314.9 -130.75 -319.0 -130.75 -324.85 -130.75 -327.9 -134.1 L-329.85 -136.45 Q-330.8 -137.5 -331.85 -137.5 -332.85 -137.5 -341.0 -132.75 -347.35 -132.75 -348.3 -138.55 L-348.75 -138.15 -349.45 -134.7 Q-350.1 -130.75 -352.5 -130.75 -357.25 -130.75 -358.45 -134.75 -359.1 -136.75 -358.75 -138.85 -358.75 -141.25 -355.7 -146.0 -352.05 -151.75 -348.0 -151.75 -346.75 -151.75 -344.85 -150.6 M-41.95 -148.9 L-41.0 -146.0 -41.5 -144.5 Q-41.25 -144.3 -41.35 -144.1 -41.55 -143.75 -43.1 -143.75 L-46.5 -146.75 Q-47.45 -146.1 -47.8 -144.95 L-48.05 -143.85 -43.3 -139.85 Q-40.8 -141.75 -39.0 -141.75 -37.5 -141.75 -35.85 -140.7 L-34.0 -139.5 Q-31.4 -142.9 -30.15 -146.45 -28.95 -148.25 -23.0 -148.25 -19.9 -148.25 -18.95 -147.35 L-17.8 -145.4 Q-15.85 -142.75 -2.75 -143.25 -4.4 -142.4 -4.25 -142.15 L-10.25 -142.5 -17.2 -142.0 -22.25 -141.5 Q-24.15 -136.05 -26.3 -132.4 -30.5 -125.5 -38.5 -125.5 -46.25 -125.5 -47.25 -134.0 L-47.15 -134.9 -54.95 -139.05 -59.25 -141.1 -63.9 -141.45 Q-65.55 -139.9 -67.05 -139.45 -67.35 -137.05 -69.75 -134.5 -72.4 -131.75 -74.5 -131.75 -79.6 -131.75 -81.4 -133.05 -82.55 -133.85 -82.8 -135.85 -83.05 -138.0 -83.9 -138.7 -85.45 -140.0 -90.0 -140.0 L-102.55 -140.95 Q-103.8 -139.75 -105.5 -139.75 -106.8 -139.75 -107.75 -140.45 L-108.5 -140.25 -109.5 -140.5 Q-109.55 -139.3 -110.05 -138.9 L-111.0 -138.25 Q-114.35 -137.85 -115.2 -140.05 -115.5 -140.75 -115.5 -143.1 -115.5 -147.5 -110.0 -147.5 L-108.85 -147.35 -108.0 -147.5 Q-106.75 -147.5 -105.7 -147.0 -105.4 -147.2 -105.25 -146.85 L-102.0 -148.75 Q-94.1 -153.0 -89.0 -153.0 -81.35 -153.0 -80.3 -149.65 -79.95 -148.6 -80.2 -147.0 L-80.25 -146.8 -77.4 -145.1 -76.4 -144.75 -74.0 -144.75 -72.2 -144.25 -72.0 -144.25 -67.5 -143.5 -67.45 -143.45 -67.4 -143.5 -67.5 -144.85 Q-67.5 -146.85 -64.5 -148.0 -62.0 -149.0 -59.0 -149.0 -56.3 -149.0 -52.4 -146.8 L-51.0 -148.5 Q-49.2 -151.0 -46.5 -151.0 -43.25 -151.0 -41.95 -148.9" fill="url(#gradient4)" fill-rule="evenodd" stroke="none"/>
    <path d="M100.5 -107.15 L99.15 -103.6 Q96.65 -100.65 90.0 -100.65 81.0 -100.65 80.45 -106.4 79.15 -104.4 77.55 -102.7 72.25 -97.25 65.5 -97.25 64.15 -97.25 58.8 -99.95 53.0 -102.9 53.0 -104.35 53.0 -106.15 58.0 -108.15 48.4 -108.4 41.75 -109.7 41.8 -111.85 42.0 -112.85 42.35 -114.65 45.75 -115.5 45.75 -115.35 46.5 -114.5 L45.75 -112.95 57.1 -110.5 67.5 -108.35 69.8 -110.15 70.1 -110.35 Q69.75 -111.0 69.75 -111.85 69.75 -113.0 70.65 -113.15 L74.0 -113.3 Q77.9 -112.0 84.3 -110.4 88.9 -108.95 89.5 -106.65 L94.8 -108.9 Q99.1 -110.75 100.0 -110.75 107.15 -110.75 109.7 -108.95 L111.2 -107.7 Q112.0 -107.15 113.25 -107.15 114.55 -107.15 115.7 -107.95 116.95 -108.8 118.0 -108.85 L118.75 -108.0 119.1 -107.95 119.25 -106.95 Q119.25 -106.0 118.0 -104.9 116.2 -103.4 113.0 -103.4 110.4 -103.4 109.15 -104.0 108.55 -104.3 107.65 -105.35 105.95 -107.25 100.5 -107.15 M261.75 -104.25 Q261.75 -105.8 262.3 -107.3 263.35 -110.4 266.0 -110.4 269.35 -110.4 269.9 -108.75 270.15 -107.95 269.75 -106.8 L275.15 -106.55 Q277.25 -105.8 277.25 -104.15 277.25 -102.5 276.3 -102.35 279.85 -102.7 280.55 -104.15 280.95 -104.95 280.45 -107.05 279.95 -109.05 280.65 -109.85 281.75 -111.1 286.0 -111.05 289.5 -111.1 292.15 -109.45 L293.6 -108.35 Q301.35 -108.5 302.65 -111.0 L303.8 -112.8 Q304.9 -113.65 308.0 -113.65 312.8 -113.65 316.0 -110.55 L317.4 -109.0 Q318.65 -108.95 318.95 -108.45 L319.25 -107.5 318.4 -107.15 318.5 -106.4 Q318.5 -105.35 318.3 -105.2 L317.5 -104.9 315.25 -105.1 315.0 -105.6 315.3 -106.6 315.35 -106.8 313.85 -106.3 Q313.45 -106.1 312.35 -104.9 311.2 -103.7 308.05 -103.2 305.8 -102.2 302.0 -102.2 289.25 -102.2 288.8 -106.0 L288.25 -105.0 Q287.75 -103.65 287.5 -100.8 287.0 -98.45 285.05 -97.35 282.35 -95.9 276.0 -95.85 272.4 -95.9 266.75 -99.95 261.75 -103.55 261.75 -104.25 M292.5 -108.3 L292.25 -108.5 291.45 -108.15 292.5 -108.3 M-349.45 -109.2 L-348.75 -106.85 -348.3 -106.6 Q-347.35 -110.6 -341.0 -110.55 -332.85 -107.35 -331.85 -107.3 -330.8 -107.35 -329.85 -108.05 L-327.9 -109.65 Q-324.85 -111.95 -319.0 -111.9 -314.9 -111.95 -311.8 -110.05 L-311.6 -109.9 Q-309.75 -109.55 -309.3 -108.05 L-309.25 -107.65 Q-308.75 -106.75 -308.75 -105.7 L-308.75 -105.2 Q-303.5 -106.2 -301.5 -104.5 L-300.0 -102.9 Q-299.15 -102.0 -298.0 -101.65 -297.25 -102.2 -296.7 -103.3 L-295.65 -105.0 Q-293.8 -106.95 -287.0 -106.95 L-285.2 -106.9 -281.45 -108.15 -276.3 -109.0 Q-274.95 -110.05 -274.0 -110.05 L-272.0 -109.7 -271.5 -109.35 -271.25 -107.05 Q-271.25 -106.45 -273.05 -104.35 L-274.05 -103.3 -274.0 -103.2 -274.25 -103.1 Q-275.7 -101.85 -277.0 -101.85 L-277.5 -101.9 Q-279.8 -101.15 -281.0 -101.15 -282.25 -101.15 -284.5 -101.85 L-288.0 -102.55 Q-289.25 -102.55 -292.2 -100.05 -295.15 -97.6 -298.0 -97.55 -307.55 -99.05 -311.6 -102.05 L-312.0 -102.0 Q-314.9 -102.0 -316.2 -103.7 -317.55 -105.45 -321.0 -105.45 -322.6 -105.45 -323.35 -104.6 L-324.3 -103.05 -324.85 -101.5 Q-327.05 -96.55 -336.0 -96.55 -336.9 -96.55 -339.2 -97.85 L-341.75 -99.1 Q-343.0 -99.15 -344.85 -98.35 -346.75 -97.6 -348.0 -97.55 -352.05 -97.6 -355.7 -101.5 -358.75 -104.75 -358.75 -106.4 -359.1 -107.85 -358.45 -109.2 -357.25 -111.95 -352.5 -111.9 -350.1 -111.9 -349.45 -109.2 M-72.0 -102.7 L-72.2 -102.7 Q-73.1 -102.35 -74.0 -102.35 L-76.4 -102.35 -77.4 -102.1 -80.25 -100.95 -80.2 -100.8 Q-79.95 -99.75 -80.3 -99.0 -81.35 -96.75 -89.0 -96.7 -94.1 -96.7 -102.0 -99.6 L-105.25 -100.9 Q-105.4 -100.7 -105.7 -100.8 L-108.0 -100.5 -108.85 -100.6 -110.0 -100.5 Q-115.5 -100.5 -115.5 -103.5 -115.5 -105.1 -115.2 -105.55 -114.35 -107.1 -111.0 -106.8 L-110.05 -106.35 Q-109.55 -106.1 -109.5 -105.25 L-108.5 -105.45 -107.75 -105.3 Q-106.8 -105.8 -105.5 -105.75 -103.8 -105.8 -102.55 -104.95 L-90.0 -105.6 Q-85.45 -105.6 -83.9 -106.5 -83.05 -107.0 -82.8 -108.45 -82.55 -109.8 -81.4 -110.35 -79.6 -111.25 -74.5 -111.25 -72.4 -111.25 -69.75 -109.35 -67.35 -107.65 -67.05 -106.0 -65.55 -105.7 -63.9 -104.6 L-59.25 -104.85 -54.95 -106.25 -47.15 -109.05 -47.25 -109.7 Q-46.25 -115.55 -38.5 -115.5 -30.5 -115.5 -26.3 -110.8 -24.15 -108.3 -22.25 -104.6 L-17.2 -104.25 -10.25 -103.9 -4.25 -104.1 Q-4.4 -103.95 -2.75 -103.4 -15.85 -103.75 -17.8 -101.9 L-18.95 -100.6 Q-19.9 -100.0 -23.0 -99.95 -28.95 -99.95 -30.15 -101.2 -31.4 -103.65 -34.0 -105.95 L-35.85 -105.1 Q-37.5 -104.4 -39.0 -104.4 -40.8 -104.45 -43.3 -105.7 -44.95 -104.6 -48.05 -102.95 L-47.8 -102.2 Q-47.45 -101.45 -46.5 -101.0 L-43.1 -103.05 -41.35 -102.8 Q-41.25 -102.65 -41.5 -102.55 L-41.0 -101.5 -41.95 -99.5 Q-43.25 -98.1 -46.5 -98.1 -49.2 -98.1 -51.0 -99.8 L-52.4 -100.95 Q-56.3 -99.45 -59.0 -99.45 -62.0 -99.45 -64.5 -100.15 -67.5 -100.95 -67.5 -102.3 L-67.4 -103.2 -67.45 -103.25 -67.5 -103.2 -72.0 -102.7" fill="url(#gradient5)" fill-rule="evenodd" stroke="none"/>
    <path d="M100.65 -124.25 Q107.6 -129.3 120.3 -135.0 139.25 -143.5 146.0 -143.5 148.2 -143.5 168.35 -135.6 190.9 -127.75 205.0 -127.75 225.6 -127.75 238.6 -133.1 241.75 -134.4 245.95 -136.8 248.95 -138.5 250.0 -138.5 L261.3 -136.35 Q272.7 -134.0 274.75 -133.0 285.25 -127.75 294.0 -127.75 L316.0 -131.0 Q321.0 -131.0 331.0 -128.25 335.05 -128.25 342.6 -131.35 350.15 -134.5 359.5 -134.5 365.2 -134.5 370.55 -131.55 375.0 -133.15 383.0 -135.0 387.2 -135.0 390.15 -130.55 392.85 -128.75 394.0 -125.25 L394.5 -123.05 96.6 -123.05 Q98.1 -124.15 100.65 -124.25 M27.7 -123.05 L-23.45 -123.05 Q-21.85 -126.0 -17.0 -128.75 -9.65 -133.0 -1.5 -133.0 7.0 -133.0 18.8 -127.7 24.35 -125.2 27.7 -123.05 M-365.0 -131.0 Q-361.7 -131.0 -358.4 -129.35 -355.15 -127.75 -349.1 -127.75 -346.05 -127.75 -340.9 -130.15 L-330.95 -135.35 Q-316.85 -143.0 -309.5 -143.0 -307.15 -143.0 -302.65 -141.1 -296.85 -138.5 -293.3 -137.0 -279.3 -131.0 -267.5 -131.0 -263.3 -131.0 -260.9 -131.85 -257.5 -133.05 -246.75 -134.0 -244.9 -134.15 -239.95 -135.35 L-234.0 -136.5 Q-227.6 -136.5 -222.65 -133.75 -217.7 -131.0 -210.6 -131.0 -199.7 -131.0 -183.4 -135.75 -167.1 -140.5 -164.5 -140.5 -145.1 -134.1 -137.25 -124.0 L-137.25 -123.05 -385.45 -123.05 -384.1 -124.4 Q-377.05 -131.0 -365.0 -131.0" fill="url(#gradient6)" fill-rule="evenodd" stroke="none"/>
    <path d="M100.65 -120.1 Q98.1 -120.2 96.6 -121.0 L394.5 -121.0 394.0 -119.35 Q392.85 -116.7 390.15 -115.3 387.2 -111.95 383.0 -111.95 375.0 -113.35 370.55 -114.55 365.2 -112.35 359.5 -112.3 350.15 -112.35 342.6 -114.7 335.05 -117.1 331.0 -117.05 321.0 -115.0 316.0 -115.0 L294.0 -117.45 Q285.25 -117.45 274.75 -113.45 272.7 -112.7 261.3 -110.9 L250.0 -109.25 Q248.95 -109.3 245.95 -110.55 241.75 -112.4 238.6 -113.4 225.6 -117.45 205.0 -117.45 190.9 -117.45 168.35 -111.5 148.2 -105.5 146.0 -105.45 139.25 -105.5 120.3 -111.95 107.6 -116.3 100.65 -120.1 M27.7 -121.0 Q24.35 -119.4 18.8 -117.5 7.0 -113.45 -1.5 -113.45 -9.65 -113.45 -17.0 -116.7 -21.85 -118.8 -23.45 -121.0 L27.7 -121.0 M-365.0 -115.0 Q-377.05 -115.0 -384.1 -120.0 L-385.45 -121.0 -137.25 -121.0 -137.25 -120.3 Q-145.1 -112.65 -164.5 -107.75 -167.1 -107.75 -183.4 -111.35 -199.7 -115.0 -210.6 -115.0 -217.7 -115.0 -222.65 -112.9 -227.6 -110.8 -234.0 -110.8 L-239.95 -111.65 -246.75 -112.7 Q-257.5 -113.45 -260.9 -114.35 L-267.5 -115.0 Q-279.3 -115.0 -293.3 -110.4 L-302.65 -107.3 Q-307.15 -105.85 -309.5 -105.85 -316.85 -105.85 -330.95 -111.65 L-340.9 -115.6 Q-346.05 -117.45 -349.1 -117.45 -355.15 -117.45 -358.4 -116.25 -361.7 -115.0 -365.0 -115.0" fill="url(#gradient7)" fill-rule="evenodd" stroke="none"/>
    <path d="M98.45 -124.3 L98.65 -119.1 Q141.45 -100.45 257.2 -1.85 103.4 -84.8 -17.4 -10.75 L26.6 -121.5 98.45 -124.3" fill="url(#gradient8)" fill-rule="evenodd" stroke="none"/>
    <path d="M-24.35 -121.85 L-107.85 -33.45 -124.65 -121.0 -61.4 -123.1 -24.35 -121.85" fill="url(#gradient9)" fill-rule="evenodd" stroke="none"/>
    <path d="M26.6 -121.5 L26.6 -122.1" fill="none" stroke="#000000" stroke-linecap="round" stroke-linejoin="round" stroke-width="1.0"/>
  </g>
  <defs>
    <linearGradient gradientTransform="matrix(0.0, -0.1919, 0.4705, 0.0, 6.0, -12.0)" gradientUnits="userSpaceOnUse" id="gradient0" spreadMethod="pad" x1="-819.2" x2="819.2">
      <stop offset="0.5058823529411764" stop-color="#ffffff"/>
      <stop offset="0.8705882352941177" stop-color="#f7d85e"/>
      <stop offset="1.0" stop-color="#cb4e4e"/>
    </linearGradient>
    <radialGradient cx="0" cy="0" gradientTransform="matrix(0.051, 0.0, 0.0, 0.0538, 43.05, -126.8)" gradientUnits="userSpaceOnUse" id="gradient1" r="819.2" spreadMethod="pad">
      <stop offset="0.0" stop-color="#ffffff"/>
      <stop offset="0.1568627450980392" stop-color="#ffff66"/>
      <stop offset="0.5490196078431373" stop-color="#ffcc00" stop-opacity="0.6"/>
      <stop offset="1.0" stop-color="#ffcc00" stop-opacity="0.0"/>
    </radialGradient>
    <linearGradient gradientTransform="matrix(0.0, 0.1276, -0.4695, 0.0, 1.1, -19.55)" gradientUnits="userSpaceOnUse" id="gradient2" spreadMethod="pad" x1="-819.2" x2="819.2">
      <stop offset="0.0" stop-color="#433d34"/>
      <stop offset="0.2549019607843137" stop-color="#2e3252"/>
    </linearGradient>
    <linearGradient gradientTransform="matrix(5.0E-4, -0.0413, 0.4567, 0.006, 4.4, -93.45)" gradientUnits="userSpaceOnUse" id="gradient3" spreadMethod="pad" x1="-819.2" x2="819.2">
      <stop offset="0.0" stop-color="#ffffff" stop-opacity="0.0"/>
      <stop offset="1.0" stop-color="#ffffff" stop-opacity="0.09019608"/>
    </linearGradient>
    <linearGradient gradientTransform="matrix(4.0E-4, 0.0222, -0.4137, 0.0073, -19.9, -140.65)" gradientUnits="userSpaceOnUse" id="gradient4" spreadMethod="pad" x1="-819.2" x2="819.2">
      <stop offset="0.0" stop-color="#ffffff"/>
      <stop offset="1.0" stop-color="#ffffff" stop-opacity="0.0"/>
    </linearGradient>
    <linearGradient gradientTransform="matrix(4.0E-4, -0.0151, -0.4137, -0.005, -19.9, -105.15)" gradientUnits="userSpaceOnUse" id="gradient5" spreadMethod="pad" x1="-819.2" x2="819.2">
      <stop offset="0.0" stop-color="#ffffff" stop-opacity="0.2"/>
      <stop offset="1.0" stop-color="#ffffff" stop-opacity="0.0"/>
    </linearGradient>
    <linearGradient gradientTransform="matrix(0.0, 0.0125, -0.476, 0.0, 4.55, -133.3)" gradientUnits="userSpaceOnUse" id="gradient6" spreadMethod="pad" x1="-819.2" x2="819.2">
      <stop offset="0.0" stop-color="#864d13"/>
      <stop offset="1.0" stop-color="#292530"/>
    </linearGradient>
    <linearGradient gradientTransform="matrix(0.0, -0.0095, -0.476, 0.0, 4.55, -113.25)" gradientUnits="userSpaceOnUse" id="gradient7" spreadMethod="pad" x1="-819.2" x2="819.2">
      <stop offset="0.0" stop-color="#864d13" stop-opacity="0.3529412"/>
      <stop offset="1.0" stop-color="#292530" stop-opacity="0.3529412"/>
    </linearGradient>
    <linearGradient gradientTransform="matrix(0.021, 0.0985, -0.1593, 0.0339, 109.6, -54.8)" gradientUnits="userSpaceOnUse" id="gradient8" spreadMethod="pad" x1="-819.2" x2="819.2">
      <stop offset="0.0" stop-color="#ffff66" stop-opacity="0.101960786"/>
      <stop offset="0.4549019607843137" stop-color="#ffcc00" stop-opacity="0.0"/>
    </linearGradient>
    <linearGradient gradientTransform="matrix(-0.0626, 0.0273, -0.0212, -0.0486, -73.9, -95.65)" gradientUnits="userSpaceOnUse" id="gradient9" spreadMethod="pad" x1="-819.2" x2="819.2">
      <stop offset="0.0" stop-color="#ffff66" stop-opacity="0.101960786"/>
      <stop offset="0.4549019607843137" stop-color="#ffcc00" stop-opacity="0.0"/>
    </linearGradient>
  </defs>
</svg>
