<?xml version="1.0" encoding="UTF-8" standalone="no"?>
<svg xmlns:ffdec="https://www.free-decompiler.com/flash" xmlns:xlink="http://www.w3.org/1999/xlink" ffdec:objectType="shape" height="147.7px" width="785.35px" xmlns="http://www.w3.org/2000/svg">
  <g transform="matrix(1.0, 0.0, 0.0, 1.0, 395.7, 164.55)">
    <path d="M389.65 -164.55 L389.65 -16.85 -395.7 -16.85 -395.7 -164.55 389.65 -164.55" fill="url(#gradient0)" fill-rule="evenodd" stroke="none"/>
    <path d="M154.6 -144.55 Q154.3 -144.8 154.3 -146.0 154.3 -147.95 156.35 -147.55 158.7 -146.95 159.1 -146.0 L157.8 -144.85 Q156.55 -144.2 155.35 -144.2 L154.6 -144.55 M75.3 -110.65 Q73.0 -110.9 73.05 -112.65 L74.8 -112.85 Q76.55 -113.65 76.55 -111.65 76.55 -110.55 76.3 -110.55 L75.3 -110.65 M0.6 -79.75 L0.05 -79.95 Q-0.15 -80.05 -0.15 -81.2 -0.15 -83.15 1.6 -82.5 L3.4 -81.5 Q3.4 -80.55 2.4 -79.75 L0.6 -79.75 M120.2 -90.7 Q121.45 -90.15 121.7 -89.55 120.1 -88.3 118.95 -88.2 118.15 -89.05 118.15 -89.9 118.8 -90.7 120.2 -90.7 M200.9 -156.25 L200.25 -156.2 198.95 -156.2 Q198.2 -156.8 197.7 -157.95 198.45 -158.55 200.25 -158.55 201.0 -159.3 201.0 -157.35 L200.9 -156.25 M358.95 -106.2 Q358.2 -106.8 357.7 -107.95 358.45 -108.55 360.25 -108.55 361.0 -109.3 361.0 -107.35 L360.9 -106.25 360.25 -106.2 358.95 -106.2 M-375.1 -118.75 L-375.6 -117.6 Q-379.15 -117.6 -379.15 -119.15 L-375.1 -118.75 M-341.05 -135.8 Q-342.05 -134.65 -343.8 -134.65 L-344.8 -135.2 -344.8 -136.8 -342.55 -136.95 -341.05 -135.8 M-184.8 -86.8 L-182.55 -86.95 -181.05 -85.8 Q-182.05 -84.65 -183.8 -84.65 L-184.8 -85.2 -184.8 -86.8 M-41.85 -139.9 Q-41.2 -140.7 -39.8 -140.7 L-38.3 -139.55 Q-39.9 -138.3 -41.05 -138.2 -41.85 -139.05 -41.85 -139.9 M-83.45 -161.65 Q-83.45 -160.55 -83.7 -160.55 L-84.7 -160.65 Q-87.0 -160.9 -86.95 -162.65 L-85.2 -162.85 Q-83.45 -163.65 -83.45 -161.65 M-156.6 -131.5 Q-156.6 -130.55 -157.6 -129.75 L-159.4 -129.75 -159.95 -129.95 Q-160.15 -130.05 -160.15 -131.2 -160.15 -133.15 -158.4 -132.5 -157.15 -132.1 -156.6 -131.5" fill="#ffffff" fill-rule="evenodd" stroke="none"/>
    <path d="M103.85 -158.3 L103.6 -158.0 Q103.3 -158.0 103.35 -159.2 103.35 -160.35 103.65 -160.4 L104.35 -160.45 105.1 -160.45 106.35 -159.3 105.6 -158.1 103.85 -158.3 M96.0 -105.95 L95.2 -105.0 92.45 -105.2 92.2 -104.9 Q91.95 -104.85 91.95 -106.05 91.95 -108.0 93.45 -107.35 95.95 -107.05 96.0 -105.95 M128.05 -132.3 L127.4 -132.5 Q127.3 -132.55 127.3 -133.75 127.3 -135.7 129.1 -135.6 130.65 -135.15 131.35 -133.5 L131.1 -132.85 Q130.1 -132.3 128.05 -132.3 M28.75 -153.65 L29.15 -153.05 27.15 -150.7 24.9 -150.9 24.35 -151.05 Q24.1 -151.15 24.1 -152.35 L24.65 -153.65 26.75 -153.8 28.75 -153.65 M15.0 -99.5 Q16.0 -99.0 17.0 -98.55 L15.75 -97.55 Q14.5 -97.95 14.0 -99.1 14.2 -99.5 15.0 -99.5 M8.0 -131.9 L7.35 -132.2 Q6.7 -132.65 6.75 -133.25 L9.25 -132.85 Q9.0 -132.3 8.0 -131.9 M263.35 -109.2 Q263.35 -110.35 263.65 -110.4 L264.35 -110.45 265.1 -110.45 266.35 -109.3 265.6 -108.1 263.85 -108.3 263.6 -108.0 Q263.3 -108.0 263.35 -109.2 M187.15 -100.7 L184.9 -100.9 184.35 -101.05 Q184.1 -101.15 184.1 -102.35 L184.65 -103.65 186.75 -103.8 188.75 -103.65 Q188.9 -103.3 189.15 -103.05 L187.15 -100.7 M166.75 -83.25 L169.25 -82.85 Q169.0 -82.3 168.0 -81.9 L167.35 -82.2 Q166.7 -82.65 166.75 -83.25 M-324.1 -146.95 L-321.6 -146.95 -320.85 -145.8 -321.1 -145.2 -322.4 -145.3 Q-323.85 -145.45 -324.1 -145.8 L-324.1 -146.95 M-327.9 -119.4 L-330.15 -119.55 -330.55 -119.4 Q-330.95 -119.55 -330.95 -120.75 L-330.7 -122.3 -328.9 -122.5 Q-327.35 -122.05 -326.9 -120.95 L-327.9 -119.4 M-203.25 -119.15 L-203.25 -120.25 Q-203.15 -120.05 -203.05 -120.15 -201.8 -120.35 -201.75 -120.55 -199.7 -120.25 -199.25 -119.15 -200.15 -118.1 -201.75 -117.6 L-203.0 -117.8 Q-203.3 -117.95 -203.25 -119.15 M-164.1 -96.95 L-161.6 -96.95 -160.85 -95.8 -161.1 -95.2 -162.4 -95.3 Q-163.85 -95.45 -164.1 -95.8 L-164.1 -96.95 M-68.05 -156.05 Q-68.05 -158.0 -66.55 -157.35 -64.05 -157.05 -64.0 -155.95 L-64.8 -155.0 -67.55 -155.2 -67.8 -154.9 Q-68.05 -154.85 -68.05 -156.05 M-143.0 -148.55 L-144.25 -147.55 Q-145.5 -147.95 -146.0 -149.1 -145.8 -149.5 -145.0 -149.5 -143.75 -149.15 -143.0 -148.55 M-92.45 -123.8 Q-92.05 -123.75 -92.0 -122.6 L-92.3 -121.7 -92.8 -121.1 -95.05 -121.3 -95.3 -121.15 -95.55 -122.5 Q-95.55 -123.7 -95.05 -123.8 L-93.8 -123.85 -92.45 -123.8 M-41.75 -70.55 Q-39.7 -70.25 -39.25 -69.15 -40.15 -68.1 -41.75 -67.6 L-43.0 -67.8 Q-43.3 -67.95 -43.25 -69.15 L-43.25 -70.25 Q-43.15 -70.05 -43.05 -70.15 -41.8 -70.35 -41.75 -70.55" fill="#af6161" fill-rule="evenodd" stroke="none"/>
  </g>
  <defs>
    <radialGradient cx="0" cy="0" gradientTransform="matrix(0.6044, 0.0, 0.0, 0.7686, -20.3, -82.5)" gradientUnits="userSpaceOnUse" id="gradient0" r="819.2" spreadMethod="pad">
      <stop offset="0.0" stop-color="#303058"/>
      <stop offset="0.6666666666666666" stop-color="#312332"/>
      <stop offset="1.0" stop-color="#0d0c0e"/>
    </radialGradient>
  </defs>
</svg>
