<?xml version="1.0" encoding="UTF-8" standalone="no"?>
<svg xmlns:ffdec="https://www.free-decompiler.com/flash" xmlns:xlink="http://www.w3.org/1999/xlink" ffdec:objectType="shape" height="37.45px" width="135.25px" xmlns="http://www.w3.org/2000/svg">
  <g transform="matrix(1.0, 0.0, 0.0, 1.0, 67.65, 18.75)">
    <path d="M11.8 -8.4 L11.85 -8.2 11.9 -7.7 11.9 -6.5 11.7 -5.55 12.0 -5.35 Q13.3 -4.15 14.45 -4.15 16.25 -4.15 19.35 -5.35 22.65 -6.75 24.9 -6.9 L24.65 -7.7 24.5 -8.4 24.4 -9.0 Q39.4 -28.45 54.4 -9.0 L54.65 -8.4 54.8 -7.7 54.9 -6.65 Q54.9 -5.3 54.5 -3.65 L54.05 -2.25 Q54.05 -0.85 55.85 0.55 57.35 1.7 59.5 2.15 L65.35 0.05 Q67.15 0.05 67.6 1.5 L66.2 2.95 64.45 3.85 Q64.2 4.45 62.9 5.05 61.35 5.75 60.1 5.75 52.45 5.75 44.1 -4.55 L34.85 -0.85 33.6 -0.3 Q31.35 0.65 31.4 1.05 31.35 1.7 33.0 2.5 L33.6 2.7 36.6 3.9 Q41.75 6.0 41.75 8.15 41.7 8.6 41.05 8.8 L39.3 9.2 Q36.15 9.9 33.6 12.35 L33.3 12.6 31.9 14.8 Q30.75 16.0 28.35 16.6 28.3 17.35 27.15 18.0 L25.95 18.35 23.65 18.7 Q12.3 18.65 9.2 15.4 8.15 14.3 8.1 12.9 L8.2 11.35 Q8.05 9.55 6.15 8.9 L2.0 8.35 -2.0 7.85 Q-3.85 7.3 -3.85 5.8 -3.85 4.05 -1.9 1.95 L0.0 -0.2 Q0.0 -0.8 -2.75 -2.05 -11.55 -2.1 -12.8 0.45 -13.25 1.2 -12.9 2.15 L-12.4 3.05 Q-12.4 3.75 -14.35 4.7 -16.3 5.65 -16.3 5.85 L-15.45 8.4 Q-14.6 10.3 -14.6 11.05 L-14.7 12.65 Q-14.95 13.4 -15.85 13.85 -18.05 14.85 -26.5 14.85 -32.1 14.85 -34.55 16.4 L-36.05 17.5 Q-36.85 17.95 -37.8 18.0 -47.1 17.95 -51.0 15.05 -52.95 13.55 -53.05 12.05 -53.05 11.4 -51.35 8.6 -54.2 4.45 -58.4 4.45 -61.4 4.45 -62.05 5.85 -62.4 6.65 -62.0 7.6 L-61.85 7.6 -61.85 8.05 -62.25 8.2 -63.4 8.3 Q-64.8 8.25 -65.7 7.7 L-66.15 8.0 Q-67.65 7.1 -67.65 5.3 -67.7 -0.35 -63.65 -0.35 -54.55 -0.4 -49.6 2.8 -48.25 3.7 -47.4 4.55 L-45.0 5.55 -29.25 2.55 -32.7 -0.65 Q-33.7 -1.8 -33.7 -3.35 -33.7 -4.95 -32.45 -5.8 -29.6 -7.75 -21.25 -6.55 L-20.6 -7.7 -20.4 -7.95 -20.0 -8.4 -19.4 -9.0 Q-11.7 -28.35 11.65 -9.0 L11.8 -8.4" fill="url(#gradient0)" fill-rule="evenodd" stroke="none"/>
  </g>
  <defs>
    <linearGradient gradientTransform="matrix(-0.0016, 0.0253, -0.0821, -0.005, 0.25, -0.35)" gradientUnits="userSpaceOnUse" id="gradient0" spreadMethod="pad" x1="-819.2" x2="819.2">
      <stop offset="0.0" stop-color="#ffffff" stop-opacity="0.101960786"/>
      <stop offset="1.0" stop-color="#ffffff" stop-opacity="0.0"/>
    </linearGradient>
  </defs>
</svg>
