<?xml version="1.0" encoding="UTF-8" standalone="no"?>
<svg xmlns:ffdec="https://www.free-decompiler.com/flash" xmlns:xlink="http://www.w3.org/1999/xlink" ffdec:objectType="shape" height="101.7px" width="790.7px" xmlns="http://www.w3.org/2000/svg">
  <g transform="matrix(1.0, 0.0, 0.0, 1.0, 390.65, 118.55)">
    <path d="M23.7 -55.65 Q95.1 -112.7 122.9 -75.25 151.7 -49.45 199.3 -47.0 266.65 -73.3 288.85 -109.5 311.85 -148.9 400.05 -16.85 L-0.65 -29.7 -1.6 -28.85 1.15 -27.9 13.35 -23.85 -0.6 -23.65 -2.4 -19.1 -9.55 -23.6 -171.35 -21.75 -320.5 -23.8 -390.65 -21.1 Q-369.95 -90.15 -346.15 -113.35 -313.8 -119.0 -294.45 -107.95 -282.6 -79.2 -237.05 -65.45 -199.75 -69.0 -176.3 -79.7 -140.0 -72.3 -78.35 -53.45 L-70.55 -51.05 Q-23.2 -42.45 20.45 -53.0 L23.7 -55.65" fill="url(#gradient0)" fill-rule="evenodd" stroke="none"/>
  </g>
  <defs>
    <linearGradient gradientTransform="matrix(0.0, -0.062, 0.4826, 0.0, 4.9, -52.9)" gradientUnits="userSpaceOnUse" id="gradient0" spreadMethod="pad" x1="-819.2" x2="819.2">
      <stop offset="0.0" stop-color="#000000" stop-opacity="0.3019608"/>
      <stop offset="1.0" stop-color="#000000" stop-opacity="0.68235296"/>
    </linearGradient>
  </defs>
</svg>
