<?xml version="1.0" encoding="UTF-8" standalone="no"?>
<svg xmlns:ffdec="https://www.free-decompiler.com/flash" xmlns:xlink="http://www.w3.org/1999/xlink" ffdec:objectType="shape" height="53.6px" width="134.45px" xmlns="http://www.w3.org/2000/svg">
  <g transform="matrix(1.0, 0.0, 0.0, 1.0, 67.2, 26.8)">
    <path d="M15.2 -13.5 Q15.2 -15.2 19.15 -16.55 24.55 -18.35 35.2 -18.35 37.1 -18.4 38.25 -16.85 39.0 -15.85 39.0 -15.2 L36.8 -10.75 Q36.8 -10.2 38.85 -8.55 40.85 -6.95 41.5 -6.95 L47.1 -7.3 51.65 -8.1 50.2 -10.55 Q49.85 -11.3 49.9 -12.75 L49.9 -14.05 Q50.3 -14.8 52.95 -14.8 58.7 -14.8 62.5 -12.15 L64.15 -10.85 Q65.95 -9.85 67.25 -6.55 L65.75 -4.6 Q64.3 -5.65 61.9 -6.35 61.3 -5.45 61.35 -4.95 61.3 -4.5 61.9 -3.95 62.5 -3.4 62.5 -2.95 62.5 -1.8 61.5 -1.4 L59.3 -1.05 Q56.05 -0.65 56.05 2.2 56.05 3.55 55.3 4.0 L50.3 4.65 43.7 4.1 Q42.0 3.65 41.1 2.7 L39.4 0.8 Q38.1 -0.45 35.6 -1.4 33.7 0.4 33.7 1.05 33.7 1.75 35.5 3.7 37.25 5.6 37.25 6.1 37.2 6.75 36.15 7.3 L34.0 8.35 Q38.4 16.5 38.4 18.15 L38.1 19.5 Q37.45 21.15 35.95 22.5 31.05 26.8 19.15 26.8 14.65 26.75 10.2 24.2 7.05 22.4 5.1 20.15 L2.25 21.8 Q-0.25 23.15 -2.0 23.15 -13.5 23.1 -15.2 17.6 -15.75 15.8 -15.3 13.3 L-14.75 10.25 Q-14.8 9.8 -24.15 2.85 L-33.7 -4.0 Q-37.25 -4.0 -38.25 -2.55 L-38.6 -1.55 -38.55 -1.05 Q-38.6 1.9 -34.75 5.75 L-32.1 8.3 Q-30.95 9.55 -30.95 10.25 L-30.65 11.55 Q-30.55 12.4 -31.1 13.0 -32.75 14.6 -41.3 14.6 -44.65 14.6 -47.55 12.55 L-48.15 12.15 -49.45 11.15 Q-50.4 10.5 -51.1 10.5 L-54.2 11.05 -58.1 11.6 Q-60.6 11.6 -61.5 10.75 L-62.55 9.4 Q-64.95 8.45 -66.2 5.45 -67.25 3.0 -67.2 0.7 -67.25 -3.4 -65.6 -6.85 -63.0 -12.35 -57.0 -12.85 L-55.75 -12.9 -54.8 -12.85 -53.1 -13.8 Q-51.35 -15.6 -48.15 -17.3 L-47.3 -17.75 -45.55 -18.6 -45.35 -19.3 Q-45.05 -22.65 -42.65 -24.2 -38.8 -26.8 -28.4 -26.8 -15.75 -26.8 -13.7 -21.8 -13.1 -20.2 -13.4 -17.75 L-13.7 -15.85 -12.4 -15.05 -11.8 -14.7 -7.3 -14.8 Q-4.5 -14.85 -3.3 -12.1 -2.85 -11.05 -1.9 -6.15 -1.1 -2.05 0.35 -0.15 2.45 2.55 6.75 2.55 7.75 2.55 8.9 1.7 L11.35 -0.05 Q15.25 -2.4 22.25 -1.45 L22.4 -1.5 22.55 -2.05 21.4 -3.6 18.9 -6.25 Q15.2 -10.4 15.2 -13.5 M-56.8 -11.65 L-56.75 -11.3 -56.25 -11.7 -56.8 -11.65" fill="url(#gradient0)" fill-rule="evenodd" stroke="none"/>
  </g>
  <defs>
    <linearGradient gradientTransform="matrix(-0.0026, 0.0455, -0.2891, -0.0063, 170.3, -7.2)" gradientUnits="userSpaceOnUse" id="gradient0" spreadMethod="pad" x1="-819.2" x2="819.2">
      <stop offset="0.0" stop-color="#ffffff" stop-opacity="0.2627451"/>
      <stop offset="1.0" stop-color="#ffffff" stop-opacity="0.0"/>
    </linearGradient>
  </defs>
</svg>
