<?xml version="1.0" encoding="UTF-8" standalone="no"?>
<svg xmlns:ffdec="https://www.free-decompiler.com/flash" xmlns:xlink="http://www.w3.org/1999/xlink" ffdec:objectType="shape" height="415.1px" width="1083.2px" xmlns="http://www.w3.org/2000/svg">
  <g transform="matrix(1.0, 0.0, 0.0, 1.0, 500.75, 188.45)">
    <path d="M-500.75 -81.35 L-473.85 -78.65 -437.5 -74.9 Q-425.4 -73.7 21.2 -71.2 344.75 -73.05 349.45 -73.7 368.3 -76.2 387.15 -77.4 408.4 -78.8 420.35 -80.95 427.0 -82.1 436.25 -84.2 446.2 -86.0 455.4 -88.3 467.5 -85.8 477.95 -83.0 L490.5 -80.95 497.9 -79.3 515.35 -73.85 527.35 -69.95 531.75 -68.95 Q541.55 -67.1 565.8 -65.3 L582.45 -63.8 582.45 226.65 -500.75 226.65 -500.75 -81.35" fill="#264037" fill-rule="evenodd" stroke="none"/>
    <path d="M582.45 -63.8 L565.8 -65.3 Q541.55 -67.1 531.75 -68.95 L527.35 -69.95 515.35 -73.85 497.9 -79.3 490.5 -80.95 477.95 -83.0 Q467.5 -85.8 455.4 -88.3 446.2 -86.0 436.25 -84.2 427.0 -82.1 420.35 -80.95 408.4 -78.8 387.15 -77.4 368.3 -76.2 349.45 -73.7 344.75 -73.05 21.2 -71.2 -425.4 -73.7 -437.5 -74.9 L-473.85 -78.65 -500.75 -81.35 -500.75 -188.45 582.45 -188.45 582.45 -63.8" fill="#73c0c8" fill-rule="evenodd" stroke="none"/>
  </g>
</svg>
