<?xml version="1.0" encoding="UTF-8" standalone="no"?>
<svg xmlns:ffdec="https://www.free-decompiler.com/flash" xmlns:xlink="http://www.w3.org/1999/xlink" ffdec:objectType="shape" height="364.95px" width="1079.95px" xmlns="http://www.w3.org/2000/svg">
  <g transform="matrix(1.0, 0.0, 0.0, 1.0, 528.5, 118.9)">
    <path d="M103.0 -109.95 L103.0 -73.4 97.5 -73.4 97.5 -109.95 103.0 -109.95" fill="url(#gradient0)" fill-rule="evenodd" stroke="none"/>
    <path d="M43.0 -109.95 L43.0 -73.4 37.5 -73.4 37.5 -109.95 43.0 -109.95" fill="url(#gradient1)" fill-rule="evenodd" stroke="none"/>
    <path d="M157.5 -109.95 L163.0 -109.95 163.0 -73.4 157.5 -73.4 157.5 -109.95" fill="url(#gradient2)" fill-rule="evenodd" stroke="none"/>
    <path d="M283.0 -109.95 L283.0 -73.4 277.5 -73.4 277.5 -109.95 283.0 -109.95" fill="url(#gradient3)" fill-rule="evenodd" stroke="none"/>
    <path d="M223.0 -109.95 L223.0 -73.4 217.5 -73.4 217.5 -109.95 223.0 -109.95" fill="url(#gradient4)" fill-rule="evenodd" stroke="none"/>
    <path d="M463.0 -109.95 L463.0 -73.4 457.5 -73.4 457.5 -109.95 463.0 -109.95" fill="url(#gradient5)" fill-rule="evenodd" stroke="none"/>
    <path d="M343.0 -109.95 L343.0 -73.4 337.5 -73.4 337.5 -109.95 343.0 -109.95" fill="url(#gradient6)" fill-rule="evenodd" stroke="none"/>
    <path d="M403.0 -109.95 L403.0 -73.4 397.5 -73.4 397.5 -109.95 403.0 -109.95" fill="url(#gradient7)" fill-rule="evenodd" stroke="none"/>
    <path d="M523.0 -109.95 L523.0 -73.4 517.5 -73.4 517.5 -109.95 523.0 -109.95" fill="url(#gradient8)" fill-rule="evenodd" stroke="none"/>
    <path d="M-497.0 -109.95 L-497.0 -73.4 -502.5 -73.4 -502.5 -109.95 -497.0 -109.95" fill="url(#gradient9)" fill-rule="evenodd" stroke="none"/>
    <path d="M-377.0 -109.95 L-377.0 -73.4 -382.5 -73.4 -382.5 -109.95 -377.0 -109.95" fill="url(#gradient10)" fill-rule="evenodd" stroke="none"/>
    <path d="M-437.0 -109.95 L-437.0 -73.4 -442.5 -73.4 -442.5 -109.95 -437.0 -109.95" fill="url(#gradient11)" fill-rule="evenodd" stroke="none"/>
    <path d="M-197.0 -109.95 L-197.0 -73.4 -202.5 -73.4 -202.5 -109.95 -197.0 -109.95" fill="url(#gradient12)" fill-rule="evenodd" stroke="none"/>
    <path d="M-317.0 -109.95 L-317.0 -73.4 -322.5 -73.4 -322.5 -109.95 -317.0 -109.95" fill="url(#gradient13)" fill-rule="evenodd" stroke="none"/>
    <path d="M-257.0 -109.95 L-257.0 -73.4 -262.5 -73.4 -262.5 -109.95 -257.0 -109.95" fill="url(#gradient14)" fill-rule="evenodd" stroke="none"/>
    <path d="M-17.0 -109.95 L-17.0 -73.4 -22.5 -73.4 -22.5 -109.95 -17.0 -109.95" fill="url(#gradient15)" fill-rule="evenodd" stroke="none"/>
    <path d="M-137.0 -109.95 L-137.0 -73.4 -142.5 -73.4 -142.5 -109.95 -137.0 -109.95" fill="url(#gradient16)" fill-rule="evenodd" stroke="none"/>
    <path d="M-82.5 -109.95 L-77.0 -109.95 -77.0 -73.4 -82.5 -73.4 -82.5 -109.95" fill="url(#gradient17)" fill-rule="evenodd" stroke="none"/>
    <path d="M103.0 -109.95 L103.0 -73.4 97.5 -73.4 97.5 -109.95 103.0 -109.95 M43.0 -109.95 L43.0 -73.4 37.5 -73.4 37.5 -109.95 43.0 -109.95 M157.5 -109.95 L163.0 -109.95 163.0 -73.4 157.5 -73.4 157.5 -109.95 M283.0 -109.95 L283.0 -73.4 277.5 -73.4 277.5 -109.95 283.0 -109.95 M223.0 -109.95 L223.0 -73.4 217.5 -73.4 217.5 -109.95 223.0 -109.95 M463.0 -109.95 L463.0 -73.4 457.5 -73.4 457.5 -109.95 463.0 -109.95 M343.0 -109.95 L343.0 -73.4 337.5 -73.4 337.5 -109.95 343.0 -109.95 M403.0 -109.95 L403.0 -73.4 397.5 -73.4 397.5 -109.95 403.0 -109.95 M523.0 -109.95 L523.0 -73.4 517.5 -73.4 517.5 -109.95 523.0 -109.95 M-497.0 -109.95 L-497.0 -73.4 -502.5 -73.4 -502.5 -109.95 -497.0 -109.95 M-377.0 -109.95 L-377.0 -73.4 -382.5 -73.4 -382.5 -109.95 -377.0 -109.95 M-437.0 -109.95 L-437.0 -73.4 -442.5 -73.4 -442.5 -109.95 -437.0 -109.95 M-197.0 -109.95 L-197.0 -73.4 -202.5 -73.4 -202.5 -109.95 -197.0 -109.95 M-317.0 -109.95 L-317.0 -73.4 -322.5 -73.4 -322.5 -109.95 -317.0 -109.95 M-257.0 -109.95 L-257.0 -73.4 -262.5 -73.4 -262.5 -109.95 -257.0 -109.95 M-17.0 -109.95 L-17.0 -73.4 -22.5 -73.4 -22.5 -109.95 -17.0 -109.95 M-137.0 -109.95 L-137.0 -73.4 -142.5 -73.4 -142.5 -109.95 -137.0 -109.95 M-82.5 -109.95 L-77.0 -109.95 -77.0 -73.4 -82.5 -73.4 -82.5 -109.95 Z" fill="none" stroke="#000000" stroke-linecap="round" stroke-linejoin="round" stroke-width="1.0"/>
    <path d="M535.5 -71.4 L535.5 188.25 -493.35 188.25 -493.35 -71.4 535.5 -71.4" fill="url(#gradient18)" fill-rule="evenodd" stroke="none"/>
    <path d="M535.5 -107.25 L-493.35 -107.25 -493.35 -113.05 535.5 -113.05 535.5 -107.25" fill="url(#gradient19)" fill-rule="evenodd" stroke="none"/>
    <path d="M-493.35 -71.4 L-493.35 -75.85 535.5 -75.85 535.5 -71.65 535.5 -71.4 -493.35 -71.4" fill="url(#gradient20)" fill-rule="evenodd" stroke="none"/>
    <path d="M535.5 -107.25 L-493.35 -107.25 -493.35 -113.05 535.5 -113.05 535.5 -107.25 M-493.35 -71.4 L-493.35 -75.85 535.5 -75.85 535.5 -71.65 M535.5 -71.4 L535.5 188.25 -493.35 188.25 -493.35 -71.4 535.5 -71.4 M-493.35 -81.85 L-493.35 -96.25" fill="none" stroke="#000000" stroke-linecap="round" stroke-linejoin="round" stroke-width="1.0"/>
    <path d="M6.35 -13.35 L0.95 -35.2 Q0.55 -36.65 -1.2 -36.6 -3.1 -36.65 -2.7 -35.2 L2.25 -13.3 Q2.65 -11.5 4.75 -11.5 6.75 -11.5 6.35 -13.35 M20.55 -34.4 L24.1 -23.95 Q30.55 -5.2 21.05 -2.35 32.9 -0.1 39.7 19.4 L52.15 55.5 Q59.45 76.6 56.5 88.2 52.6 103.05 31.75 102.95 -4.7 102.8 -10.75 55.5 L-15.35 19.6 Q-17.9 0.1 -7.2 -2.2 -17.95 -4.95 -20.45 -23.65 L-21.8 -34.1 Q-22.3 -37.75 -21.7 -40.5 -19.85 -50.8 -4.65 -50.85 3.05 -50.95 10.05 -47.3 17.35 -43.45 20.55 -34.4 M7.55 9.95 L18.95 59.6 Q19.65 62.9 22.45 62.95 25.1 62.9 24.3 59.6 L12.05 9.85 Q11.45 7.6 9.35 7.6 7.05 7.6 7.55 9.95 M-187.35 -48.4 L-218.05 -2.45 -179.7 -48.45 -159.95 -48.65 -183.5 -2.55 -152.0 -48.75 -136.85 -48.9 -225.55 99.35 -262.85 99.3 -204.2 -0.6 -279.2 99.25 -311.35 99.0 -203.5 -48.25 -187.35 -48.4 M-92.55 -49.25 L-128.85 99.85 -162.1 99.7 -140.0 1.55 -178.45 99.6 -206.4 99.5 -135.65 -48.9 -115.55 -49.1 -123.05 -3.65 -108.15 -49.2 -92.55 -49.25 M-47.75 -34.8 L-47.75 59.6 Q-47.75 62.8 -45.0 62.85 -42.5 62.85 -42.55 59.6 L-44.25 -34.8 Q-44.3 -36.25 -45.95 -36.25 -47.8 -36.25 -47.75 -34.8 M-23.85 -32.45 L-13.15 57.15 Q-10.75 77.4 -19.4 89.75 -28.6 102.7 -44.6 102.65 -60.9 102.55 -70.3 89.8 -79.05 77.85 -76.95 57.45 L-68.0 -31.95 Q-66.2 -50.3 -45.95 -50.45 -26.1 -50.7 -23.85 -32.45 M-74.95 26.8 L-107.55 26.85 -102.85 6.15 -72.85 6.1 -74.95 26.8" fill="url(#gradient21)" fill-rule="evenodd" stroke="none"/>
    <path d="M11.45 -47.85 L5.95 -47.85 -21.95 -72.4 -16.45 -72.4 11.45 -47.85" fill="url(#gradient22)" fill-rule="evenodd" stroke="none"/>
    <path d="M71.45 -47.85 L65.95 -47.85 38.05 -72.4 43.55 -72.4 71.45 -47.85" fill="url(#gradient23)" fill-rule="evenodd" stroke="none"/>
    <path d="M98.05 -72.4 L103.55 -72.4 131.45 -47.85 125.95 -47.85 98.05 -72.4" fill="url(#gradient24)" fill-rule="evenodd" stroke="none"/>
    <path d="M218.05 -72.4 L223.55 -72.4 251.45 -47.85 245.95 -47.85 218.05 -72.4" fill="url(#gradient25)" fill-rule="evenodd" stroke="none"/>
    <path d="M191.45 -47.85 L185.95 -47.85 158.05 -72.4 163.55 -72.4 191.45 -47.85" fill="url(#gradient26)" fill-rule="evenodd" stroke="none"/>
    <path d="M311.45 -47.85 L305.95 -47.85 278.05 -72.4 283.55 -72.4 311.45 -47.85" fill="url(#gradient27)" fill-rule="evenodd" stroke="none"/>
    <path d="M398.05 -72.4 L403.55 -72.4 431.45 -47.85 425.95 -47.85 398.05 -72.4" fill="url(#gradient28)" fill-rule="evenodd" stroke="none"/>
    <path d="M338.05 -72.4 L343.55 -72.4 371.45 -47.85 365.95 -47.85 338.05 -72.4" fill="url(#gradient29)" fill-rule="evenodd" stroke="none"/>
    <path d="M458.05 -72.4 L463.55 -72.4 491.45 -47.85 485.95 -47.85 458.05 -72.4" fill="url(#gradient30)" fill-rule="evenodd" stroke="none"/>
    <path d="M518.05 -72.4 L523.55 -72.4 551.45 -47.85 545.95 -47.85 518.05 -72.4" fill="url(#gradient31)" fill-rule="evenodd" stroke="none"/>
    <path d="M-501.95 -72.4 L-496.45 -72.4 -468.55 -47.85 -474.05 -47.85 -501.95 -72.4" fill="url(#gradient32)" fill-rule="evenodd" stroke="none"/>
    <path d="M-441.95 -72.4 L-436.45 -72.4 -408.55 -47.85 -414.05 -47.85 -441.95 -72.4" fill="url(#gradient33)" fill-rule="evenodd" stroke="none"/>
    <path d="M-381.95 -72.4 L-376.45 -72.4 -348.55 -47.85 -354.05 -47.85 -381.95 -72.4" fill="url(#gradient34)" fill-rule="evenodd" stroke="none"/>
    <path d="M-261.95 -72.4 L-256.45 -72.4 -228.55 -47.85 -234.05 -47.85 -261.95 -72.4" fill="url(#gradient35)" fill-rule="evenodd" stroke="none"/>
    <path d="M-321.95 -72.4 L-316.45 -72.4 -288.55 -47.85 -294.05 -47.85 -321.95 -72.4" fill="url(#gradient36)" fill-rule="evenodd" stroke="none"/>
    <path d="M-201.95 -72.4 L-196.45 -72.4 -168.55 -47.85 -174.05 -47.85 -201.95 -72.4" fill="url(#gradient37)" fill-rule="evenodd" stroke="none"/>
    <path d="M-141.95 -72.4 L-136.45 -72.4 -108.55 -47.85 -114.05 -47.85 -141.95 -72.4" fill="url(#gradient38)" fill-rule="evenodd" stroke="none"/>
    <path d="M-48.55 -47.85 L-54.05 -47.85 -81.95 -72.4 -76.45 -72.4 -48.55 -47.85" fill="url(#gradient39)" fill-rule="evenodd" stroke="none"/>
    <path d="M126.1 -56.45 L124.9 -58.1 Q122.45 -60.4 116.75 -62.05 L110.65 -63.3 105.45 -63.65 Q99.9 -63.7 97.65 -62.05 96.3 -61.05 96.7 -59.75 96.95 -59.0 97.9 -58.1 100.35 -55.85 106.05 -54.2 L112.9 -52.8 117.3 -52.55 Q122.9 -52.55 125.1 -54.2 126.5 -55.2 126.1 -56.45 M126.0 -63.9 Q132.95 -61.35 136.4 -58.1 138.15 -56.5 138.65 -55.05 139.4 -52.7 136.9 -50.85 132.75 -47.85 122.4 -47.8 L113.9 -48.35 Q107.7 -49.05 101.5 -50.85 98.8 -51.6 96.5 -52.45 89.8 -54.95 86.4 -58.1 84.65 -59.75 84.2 -61.2 83.75 -62.65 84.55 -63.9 85.0 -64.7 86.0 -65.4 88.8 -67.45 94.55 -68.1 L100.45 -68.4 109.65 -67.8 Q115.45 -67.1 121.35 -65.4 L126.0 -63.9" fill="url(#gradient40)" fill-rule="evenodd" stroke="none"/>
    <path d="M94.55 -68.1 L94.1 -71.7 M96.5 -52.45 L126.45 187.65 M310.75 -71.7 L494.35 187.65 M-334.85 -71.7 L-528.0 187.65 M-140.9 187.65 L-106.9 -71.7" fill="none" stroke="#000000" stroke-linecap="round" stroke-linejoin="round" stroke-opacity="0.23137255" stroke-width="1.0"/>
    <path d="M87.5 -89.35 Q88.45 -86.3 90.9 -83.85 94.85 -79.9 100.45 -79.9 103.0 -79.9 105.25 -80.75 L109.05 -69.85 Q105.05 -68.4 100.45 -68.4 90.1 -68.4 82.8 -75.75 78.25 -80.3 76.55 -85.95 L87.5 -89.35 M113.35 -97.4 Q112.4 -100.5 109.95 -102.95 106.0 -106.9 100.45 -106.9 L96.3 -106.3 92.5 -117.2 Q96.2 -118.4 100.45 -118.4 110.8 -118.45 118.15 -111.1 122.7 -106.55 124.4 -100.85 L113.35 -97.4" fill="url(#gradient41)" fill-rule="evenodd" stroke="none"/>
    <path d="M96.3 -106.3 Q93.3 -105.35 90.9 -102.95 86.95 -99.0 86.95 -93.4 86.95 -91.3 87.5 -89.35 L76.55 -85.95 Q75.45 -89.45 75.45 -93.4 75.45 -103.75 82.8 -111.1 87.1 -115.45 92.5 -117.2 L96.3 -106.3 M105.25 -80.75 Q107.85 -81.75 109.95 -83.85 113.95 -87.85 113.95 -93.4 113.95 -95.55 113.35 -97.4 L124.4 -100.85 Q125.45 -97.35 125.45 -93.4 125.45 -83.1 118.15 -75.75 114.05 -71.65 109.05 -69.85 L105.25 -80.75" fill="url(#gradient42)" fill-rule="evenodd" stroke="none"/>
    <path d="M96.3 -106.3 Q93.3 -105.35 90.9 -102.95 86.95 -99.0 86.95 -93.4 86.95 -91.3 87.5 -89.35 88.45 -86.3 90.9 -83.85 94.85 -79.9 100.45 -79.9 103.0 -79.9 105.25 -80.75 107.85 -81.75 109.95 -83.85 113.95 -87.85 113.95 -93.4 113.95 -95.55 113.35 -97.4 112.4 -100.5 109.95 -102.95 106.0 -106.9 100.45 -106.9 L96.3 -106.3 M92.5 -117.2 Q87.1 -115.45 82.8 -111.1 75.45 -103.75 75.45 -93.4 75.45 -89.45 76.55 -85.95 78.25 -80.3 82.8 -75.75 90.1 -68.4 100.45 -68.4 105.05 -68.4 109.05 -69.85 114.05 -71.65 118.15 -75.75 125.45 -83.1 125.45 -93.4 125.45 -97.35 124.4 -100.85 122.7 -106.55 118.15 -111.1 110.8 -118.45 100.45 -118.4 96.2 -118.4 92.5 -117.2 Z" fill="none" stroke="#000000" stroke-linecap="round" stroke-linejoin="round" stroke-width="1.0"/>
    <path d="M536.55 246.05 L-494.3 246.05 -494.3 185.25 536.55 185.25 536.55 246.05" fill="#0d0d0d" fill-rule="evenodd" stroke="none"/>
    <path d="M109.95 -102.95 Q106.0 -106.9 100.45 -106.9 L96.3 -106.3 Q93.3 -105.35 90.9 -102.95 86.95 -99.0 86.95 -93.4 86.95 -91.3 87.5 -89.35 88.45 -86.3 90.9 -83.85 94.85 -79.9 100.45 -79.9 103.0 -79.9 105.25 -80.75 107.85 -81.75 109.95 -83.85 113.95 -87.85 113.95 -93.4 113.95 -95.55 113.35 -97.4 112.4 -100.5 109.95 -102.95 M82.8 -111.1 Q87.1 -115.45 92.5 -117.2 96.2 -118.4 100.45 -118.4 110.8 -118.45 118.15 -111.1 122.7 -106.55 124.4 -100.85 125.45 -97.35 125.45 -93.4 125.45 -83.1 118.15 -75.75 114.05 -71.65 109.05 -69.85 105.05 -68.4 100.45 -68.4 90.1 -68.4 82.8 -75.75 78.25 -80.3 76.55 -85.95 75.45 -89.45 75.45 -93.4 75.45 -103.75 82.8 -111.1" fill="url(#gradient43)" fill-rule="evenodd" stroke="none"/>
  </g>
  <defs>
    <linearGradient gradientTransform="matrix(0.0, -0.0223, 0.0034, 0.0, 100.25, -91.65)" gradientUnits="userSpaceOnUse" id="gradient0" spreadMethod="pad" x1="-819.2" x2="819.2">
      <stop offset="0.0" stop-color="#1e1d27"/>
      <stop offset="0.5098039215686274" stop-color="#2f3137"/>
      <stop offset="1.0" stop-color="#1e1d27"/>
    </linearGradient>
    <linearGradient gradientTransform="matrix(0.0, -0.0223, 0.0034, 0.0, 40.25, -91.65)" gradientUnits="userSpaceOnUse" id="gradient1" spreadMethod="pad" x1="-819.2" x2="819.2">
      <stop offset="0.0" stop-color="#1e1d27"/>
      <stop offset="0.5098039215686274" stop-color="#2f3137"/>
      <stop offset="1.0" stop-color="#1e1d27"/>
    </linearGradient>
    <linearGradient gradientTransform="matrix(0.0, -0.0223, 0.0034, 0.0, 160.25, -91.65)" gradientUnits="userSpaceOnUse" id="gradient2" spreadMethod="pad" x1="-819.2" x2="819.2">
      <stop offset="0.0" stop-color="#1e1d27"/>
      <stop offset="0.5098039215686274" stop-color="#2f3137"/>
      <stop offset="1.0" stop-color="#1e1d27"/>
    </linearGradient>
    <linearGradient gradientTransform="matrix(0.0, -0.0223, 0.0034, 0.0, 280.25, -91.65)" gradientUnits="userSpaceOnUse" id="gradient3" spreadMethod="pad" x1="-819.2" x2="819.2">
      <stop offset="0.0" stop-color="#1e1d27"/>
      <stop offset="0.5098039215686274" stop-color="#2f3137"/>
      <stop offset="1.0" stop-color="#1e1d27"/>
    </linearGradient>
    <linearGradient gradientTransform="matrix(0.0, -0.0223, 0.0034, 0.0, 220.25, -91.65)" gradientUnits="userSpaceOnUse" id="gradient4" spreadMethod="pad" x1="-819.2" x2="819.2">
      <stop offset="0.0" stop-color="#1e1d27"/>
      <stop offset="0.5098039215686274" stop-color="#2f3137"/>
      <stop offset="1.0" stop-color="#1e1d27"/>
    </linearGradient>
    <linearGradient gradientTransform="matrix(0.0, -0.0223, 0.0034, 0.0, 460.25, -91.65)" gradientUnits="userSpaceOnUse" id="gradient5" spreadMethod="pad" x1="-819.2" x2="819.2">
      <stop offset="0.0" stop-color="#1e1d27"/>
      <stop offset="0.5098039215686274" stop-color="#2f3137"/>
      <stop offset="1.0" stop-color="#1e1d27"/>
    </linearGradient>
    <linearGradient gradientTransform="matrix(0.0, -0.0223, 0.0034, 0.0, 340.25, -91.65)" gradientUnits="userSpaceOnUse" id="gradient6" spreadMethod="pad" x1="-819.2" x2="819.2">
      <stop offset="0.0" stop-color="#1e1d27"/>
      <stop offset="0.5098039215686274" stop-color="#2f3137"/>
      <stop offset="1.0" stop-color="#1e1d27"/>
    </linearGradient>
    <linearGradient gradientTransform="matrix(0.0, -0.0223, 0.0034, 0.0, 400.25, -91.65)" gradientUnits="userSpaceOnUse" id="gradient7" spreadMethod="pad" x1="-819.2" x2="819.2">
      <stop offset="0.0" stop-color="#1e1d27"/>
      <stop offset="0.5098039215686274" stop-color="#2f3137"/>
      <stop offset="1.0" stop-color="#1e1d27"/>
    </linearGradient>
    <linearGradient gradientTransform="matrix(0.0, -0.0223, 0.0034, 0.0, 520.25, -91.65)" gradientUnits="userSpaceOnUse" id="gradient8" spreadMethod="pad" x1="-819.2" x2="819.2">
      <stop offset="0.0" stop-color="#1e1d27"/>
      <stop offset="0.5098039215686274" stop-color="#2f3137"/>
      <stop offset="1.0" stop-color="#1e1d27"/>
    </linearGradient>
    <linearGradient gradientTransform="matrix(0.0, -0.0223, 0.0034, 0.0, -499.75, -91.65)" gradientUnits="userSpaceOnUse" id="gradient9" spreadMethod="pad" x1="-819.2" x2="819.2">
      <stop offset="0.0" stop-color="#1e1d27"/>
      <stop offset="0.5098039215686274" stop-color="#2f3137"/>
      <stop offset="1.0" stop-color="#1e1d27"/>
    </linearGradient>
    <linearGradient gradientTransform="matrix(0.0, -0.0223, 0.0034, 0.0, -379.75, -91.65)" gradientUnits="userSpaceOnUse" id="gradient10" spreadMethod="pad" x1="-819.2" x2="819.2">
      <stop offset="0.0" stop-color="#1e1d27"/>
      <stop offset="0.5098039215686274" stop-color="#2f3137"/>
      <stop offset="1.0" stop-color="#1e1d27"/>
    </linearGradient>
    <linearGradient gradientTransform="matrix(0.0, -0.0223, 0.0034, 0.0, -439.75, -91.65)" gradientUnits="userSpaceOnUse" id="gradient11" spreadMethod="pad" x1="-819.2" x2="819.2">
      <stop offset="0.0" stop-color="#1e1d27"/>
      <stop offset="0.5098039215686274" stop-color="#2f3137"/>
      <stop offset="1.0" stop-color="#1e1d27"/>
    </linearGradient>
    <linearGradient gradientTransform="matrix(0.0, -0.0223, 0.0034, 0.0, -199.75, -91.65)" gradientUnits="userSpaceOnUse" id="gradient12" spreadMethod="pad" x1="-819.2" x2="819.2">
      <stop offset="0.0" stop-color="#1e1d27"/>
      <stop offset="0.5098039215686274" stop-color="#2f3137"/>
      <stop offset="1.0" stop-color="#1e1d27"/>
    </linearGradient>
    <linearGradient gradientTransform="matrix(0.0, -0.0223, 0.0034, 0.0, -319.75, -91.65)" gradientUnits="userSpaceOnUse" id="gradient13" spreadMethod="pad" x1="-819.2" x2="819.2">
      <stop offset="0.0" stop-color="#1e1d27"/>
      <stop offset="0.5098039215686274" stop-color="#2f3137"/>
      <stop offset="1.0" stop-color="#1e1d27"/>
    </linearGradient>
    <linearGradient gradientTransform="matrix(0.0, -0.0223, 0.0034, 0.0, -259.75, -91.65)" gradientUnits="userSpaceOnUse" id="gradient14" spreadMethod="pad" x1="-819.2" x2="819.2">
      <stop offset="0.0" stop-color="#1e1d27"/>
      <stop offset="0.5098039215686274" stop-color="#2f3137"/>
      <stop offset="1.0" stop-color="#1e1d27"/>
    </linearGradient>
    <linearGradient gradientTransform="matrix(0.0, -0.0223, 0.0034, 0.0, -19.75, -91.65)" gradientUnits="userSpaceOnUse" id="gradient15" spreadMethod="pad" x1="-819.2" x2="819.2">
      <stop offset="0.0" stop-color="#1e1d27"/>
      <stop offset="0.5098039215686274" stop-color="#2f3137"/>
      <stop offset="1.0" stop-color="#1e1d27"/>
    </linearGradient>
    <linearGradient gradientTransform="matrix(0.0, -0.0223, 0.0034, 0.0, -139.75, -91.65)" gradientUnits="userSpaceOnUse" id="gradient16" spreadMethod="pad" x1="-819.2" x2="819.2">
      <stop offset="0.0" stop-color="#1e1d27"/>
      <stop offset="0.5098039215686274" stop-color="#2f3137"/>
      <stop offset="1.0" stop-color="#1e1d27"/>
    </linearGradient>
    <linearGradient gradientTransform="matrix(0.0, -0.0223, 0.0034, 0.0, -79.75, -91.65)" gradientUnits="userSpaceOnUse" id="gradient17" spreadMethod="pad" x1="-819.2" x2="819.2">
      <stop offset="0.0" stop-color="#1e1d27"/>
      <stop offset="0.5098039215686274" stop-color="#2f3137"/>
      <stop offset="1.0" stop-color="#1e1d27"/>
    </linearGradient>
    <radialGradient cx="0" cy="0" gradientTransform="matrix(0.7127, 0.0, 0.0, 0.6204, 6.9, -27.65)" gradientUnits="userSpaceOnUse" id="gradient18" r="819.2" spreadMethod="pad">
      <stop offset="0.0" stop-color="#42454f"/>
      <stop offset="1.0" stop-color="#2b2225"/>
    </radialGradient>
    <linearGradient gradientTransform="matrix(0.0, -0.0035, 0.628, 0.0, 21.05, -110.15)" gradientUnits="userSpaceOnUse" id="gradient19" spreadMethod="pad" x1="-819.2" x2="819.2">
      <stop offset="0.0" stop-color="#f29915"/>
      <stop offset="0.3607843137254902" stop-color="#79828e"/>
      <stop offset="0.5843137254901961" stop-color="#3c3c3c"/>
      <stop offset="0.792156862745098" stop-color="#ffffff"/>
      <stop offset="1.0" stop-color="#717983"/>
    </linearGradient>
    <linearGradient gradientTransform="matrix(0.0, -0.0027, 0.628, 0.0, 21.05, -73.6)" gradientUnits="userSpaceOnUse" id="gradient20" spreadMethod="pad" x1="-819.2" x2="819.2">
      <stop offset="0.0" stop-color="#f29915"/>
      <stop offset="0.3607843137254902" stop-color="#79828e"/>
      <stop offset="0.5843137254901961" stop-color="#3c3c3c"/>
      <stop offset="0.792156862745098" stop-color="#ffffff"/>
      <stop offset="1.0" stop-color="#717983"/>
    </linearGradient>
    <radialGradient cx="0" cy="0" gradientTransform="matrix(0.2559, 0.0, 0.0, 0.2559, -138.4, 8.65)" gradientUnits="userSpaceOnUse" id="gradient21" r="819.2" spreadMethod="pad">
      <stop offset="0.0" stop-color="#ffffff" stop-opacity="0.16078432"/>
      <stop offset="1.0" stop-color="#ffffff" stop-opacity="0.0"/>
    </radialGradient>
    <linearGradient gradientTransform="matrix(0.017, 0.015, 0.0034, 0.0, -5.3, -60.15)" gradientUnits="userSpaceOnUse" id="gradient22" spreadMethod="pad" x1="-819.2" x2="819.2">
      <stop offset="0.0" stop-color="#000000" stop-opacity="0.3529412"/>
      <stop offset="1.0" stop-color="#000000" stop-opacity="0.0"/>
    </linearGradient>
    <linearGradient gradientTransform="matrix(0.017, 0.015, 0.0034, 0.0, 54.7, -60.15)" gradientUnits="userSpaceOnUse" id="gradient23" spreadMethod="pad" x1="-819.2" x2="819.2">
      <stop offset="0.0" stop-color="#000000" stop-opacity="0.3529412"/>
      <stop offset="1.0" stop-color="#000000" stop-opacity="0.0"/>
    </linearGradient>
    <linearGradient gradientTransform="matrix(0.017, 0.015, 0.0034, 0.0, 114.7, -60.15)" gradientUnits="userSpaceOnUse" id="gradient24" spreadMethod="pad" x1="-819.2" x2="819.2">
      <stop offset="0.0" stop-color="#000000" stop-opacity="0.3529412"/>
      <stop offset="1.0" stop-color="#000000" stop-opacity="0.0"/>
    </linearGradient>
    <linearGradient gradientTransform="matrix(0.017, 0.015, 0.0034, 0.0, 234.7, -60.15)" gradientUnits="userSpaceOnUse" id="gradient25" spreadMethod="pad" x1="-819.2" x2="819.2">
      <stop offset="0.0" stop-color="#000000" stop-opacity="0.3529412"/>
      <stop offset="1.0" stop-color="#000000" stop-opacity="0.0"/>
    </linearGradient>
    <linearGradient gradientTransform="matrix(0.017, 0.015, 0.0034, 0.0, 174.7, -60.15)" gradientUnits="userSpaceOnUse" id="gradient26" spreadMethod="pad" x1="-819.2" x2="819.2">
      <stop offset="0.0" stop-color="#000000" stop-opacity="0.3529412"/>
      <stop offset="1.0" stop-color="#000000" stop-opacity="0.0"/>
    </linearGradient>
    <linearGradient gradientTransform="matrix(0.017, 0.015, 0.0034, 0.0, 294.7, -60.15)" gradientUnits="userSpaceOnUse" id="gradient27" spreadMethod="pad" x1="-819.2" x2="819.2">
      <stop offset="0.0" stop-color="#000000" stop-opacity="0.3529412"/>
      <stop offset="1.0" stop-color="#000000" stop-opacity="0.0"/>
    </linearGradient>
    <linearGradient gradientTransform="matrix(0.017, 0.015, 0.0034, 0.0, 414.7, -60.15)" gradientUnits="userSpaceOnUse" id="gradient28" spreadMethod="pad" x1="-819.2" x2="819.2">
      <stop offset="0.0" stop-color="#000000" stop-opacity="0.3529412"/>
      <stop offset="1.0" stop-color="#000000" stop-opacity="0.0"/>
    </linearGradient>
    <linearGradient gradientTransform="matrix(0.017, 0.015, 0.0034, 0.0, 354.7, -60.15)" gradientUnits="userSpaceOnUse" id="gradient29" spreadMethod="pad" x1="-819.2" x2="819.2">
      <stop offset="0.0" stop-color="#000000" stop-opacity="0.3529412"/>
      <stop offset="1.0" stop-color="#000000" stop-opacity="0.0"/>
    </linearGradient>
    <linearGradient gradientTransform="matrix(0.017, 0.015, 0.0034, 0.0, 474.7, -60.15)" gradientUnits="userSpaceOnUse" id="gradient30" spreadMethod="pad" x1="-819.2" x2="819.2">
      <stop offset="0.0" stop-color="#000000" stop-opacity="0.3529412"/>
      <stop offset="1.0" stop-color="#000000" stop-opacity="0.0"/>
    </linearGradient>
    <linearGradient gradientTransform="matrix(0.017, 0.015, 0.0034, 0.0, 534.7, -60.15)" gradientUnits="userSpaceOnUse" id="gradient31" spreadMethod="pad" x1="-819.2" x2="819.2">
      <stop offset="0.0" stop-color="#000000" stop-opacity="0.3529412"/>
      <stop offset="1.0" stop-color="#000000" stop-opacity="0.0"/>
    </linearGradient>
    <linearGradient gradientTransform="matrix(0.017, 0.015, 0.0034, 0.0, -485.3, -60.15)" gradientUnits="userSpaceOnUse" id="gradient32" spreadMethod="pad" x1="-819.2" x2="819.2">
      <stop offset="0.0" stop-color="#000000" stop-opacity="0.3529412"/>
      <stop offset="1.0" stop-color="#000000" stop-opacity="0.0"/>
    </linearGradient>
    <linearGradient gradientTransform="matrix(0.017, 0.015, 0.0034, 0.0, -425.3, -60.15)" gradientUnits="userSpaceOnUse" id="gradient33" spreadMethod="pad" x1="-819.2" x2="819.2">
      <stop offset="0.0" stop-color="#000000" stop-opacity="0.3529412"/>
      <stop offset="1.0" stop-color="#000000" stop-opacity="0.0"/>
    </linearGradient>
    <linearGradient gradientTransform="matrix(0.017, 0.015, 0.0034, 0.0, -365.3, -60.15)" gradientUnits="userSpaceOnUse" id="gradient34" spreadMethod="pad" x1="-819.2" x2="819.2">
      <stop offset="0.0" stop-color="#000000" stop-opacity="0.3529412"/>
      <stop offset="1.0" stop-color="#000000" stop-opacity="0.0"/>
    </linearGradient>
    <linearGradient gradientTransform="matrix(0.017, 0.015, 0.0034, 0.0, -245.3, -60.15)" gradientUnits="userSpaceOnUse" id="gradient35" spreadMethod="pad" x1="-819.2" x2="819.2">
      <stop offset="0.0" stop-color="#000000" stop-opacity="0.3529412"/>
      <stop offset="1.0" stop-color="#000000" stop-opacity="0.0"/>
    </linearGradient>
    <linearGradient gradientTransform="matrix(0.017, 0.015, 0.0034, 0.0, -305.3, -60.15)" gradientUnits="userSpaceOnUse" id="gradient36" spreadMethod="pad" x1="-819.2" x2="819.2">
      <stop offset="0.0" stop-color="#000000" stop-opacity="0.3529412"/>
      <stop offset="1.0" stop-color="#000000" stop-opacity="0.0"/>
    </linearGradient>
    <linearGradient gradientTransform="matrix(0.017, 0.015, 0.0034, 0.0, -185.3, -60.15)" gradientUnits="userSpaceOnUse" id="gradient37" spreadMethod="pad" x1="-819.2" x2="819.2">
      <stop offset="0.0" stop-color="#000000" stop-opacity="0.3529412"/>
      <stop offset="1.0" stop-color="#000000" stop-opacity="0.0"/>
    </linearGradient>
    <linearGradient gradientTransform="matrix(0.017, 0.015, 0.0034, 0.0, -125.3, -60.15)" gradientUnits="userSpaceOnUse" id="gradient38" spreadMethod="pad" x1="-819.2" x2="819.2">
      <stop offset="0.0" stop-color="#000000" stop-opacity="0.3529412"/>
      <stop offset="1.0" stop-color="#000000" stop-opacity="0.0"/>
    </linearGradient>
    <linearGradient gradientTransform="matrix(0.017, 0.015, 0.0034, 0.0, -65.3, -60.15)" gradientUnits="userSpaceOnUse" id="gradient39" spreadMethod="pad" x1="-819.2" x2="819.2">
      <stop offset="0.0" stop-color="#000000" stop-opacity="0.3529412"/>
      <stop offset="1.0" stop-color="#000000" stop-opacity="0.0"/>
    </linearGradient>
    <linearGradient gradientTransform="matrix(-0.0134, -0.0126, -0.4333, 0.0, 441.4, -58.1)" gradientUnits="userSpaceOnUse" id="gradient40" spreadMethod="pad" x1="-819.2" x2="819.2">
      <stop offset="0.47058823529411764" stop-color="#000000" stop-opacity="0.023529412"/>
      <stop offset="1.0" stop-color="#000000" stop-opacity="0.2509804"/>
    </linearGradient>
    <radialGradient cx="0" cy="0" gradientTransform="matrix(0.0309, 0.0, 0.0, 0.0309, 101.45, -93.4)" gradientUnits="userSpaceOnUse" id="gradient41" r="819.2" spreadMethod="pad">
      <stop offset="0.611764705882353" stop-color="#833030"/>
      <stop offset="0.7764705882352941" stop-color="#d83838"/>
      <stop offset="1.0" stop-color="#7a1f1f"/>
    </radialGradient>
    <radialGradient cx="0" cy="0" gradientTransform="matrix(0.0309, 0.0, 0.0, 0.0309, 101.45, -93.4)" gradientUnits="userSpaceOnUse" id="gradient42" r="819.2" spreadMethod="pad">
      <stop offset="0.611764705882353" stop-color="#aeaeae"/>
      <stop offset="0.7764705882352941" stop-color="#ffffff"/>
      <stop offset="1.0" stop-color="#b8a79c"/>
    </radialGradient>
    <linearGradient gradientTransform="matrix(-0.0041, 0.0303, -0.0303, -0.0041, 100.45, -93.4)" gradientUnits="userSpaceOnUse" id="gradient43" spreadMethod="pad" x1="-819.2" x2="819.2">
      <stop offset="0.0" stop-color="#ffcc00" stop-opacity="0.7137255"/>
      <stop offset="1.0" stop-color="#ffcc00" stop-opacity="0.0"/>
    </linearGradient>
  </defs>
</svg>
