<?xml version="1.0" encoding="UTF-8" standalone="no"?>
<svg xmlns:ffdec="https://www.free-decompiler.com/flash" xmlns:xlink="http://www.w3.org/1999/xlink" ffdec:objectType="shape" height="381.6px" width="1046.45px" xmlns="http://www.w3.org/2000/svg">
  <g transform="matrix(1.0, 0.0, 0.0, 1.0, 523.2, 166.55)">
    <path d="M255.75 -73.3 L414.55 -56.65 487.8 -166.55 523.25 -159.95 523.25 215.05 -523.2 215.05 -523.2 -140.3 -480.55 -144.6 -419.75 -47.6 -419.15 -45.25 -338.8 -65.4 -125.45 -57.45 107.6 -55.5 255.75 -73.3" fill="url(#gradient0)" fill-rule="evenodd" stroke="none"/>
    <path d="M78.25 -3.5 Q78.25 -5.3 80.85 -6.6 83.6 -4.3 83.6 -3.6 83.6 -2.0 83.0 -1.25 L81.85 -0.25 78.7 -2.3 Q78.25 -2.65 78.25 -3.5 M128.25 -39.35 L127.85 -37.5 Q126.35 -36.75 125.35 -36.5 122.35 -39.0 122.35 -39.25 122.35 -41.15 125.35 -42.5 128.25 -39.85 128.25 -39.35 M306.2 -41.3 L306.6 -40.0 Q306.6 -38.5 305.1 -37.0 L302.1 -37.25 301.85 -37.7 Q301.6 -38.05 301.6 -39.5 L301.65 -40.95 302.1 -41.5 302.35 -41.75 304.1 -42.0 Q305.7 -42.0 306.2 -41.3 M353.0 -15.25 Q353.0 -13.3 350.5 -12.25 349.0 -12.75 348.25 -13.5 L348.15 -13.3 Q348.0 -13.45 348.0 -15.0 348.0 -16.6 348.9 -16.95 L350.5 -17.25 Q352.1 -16.6 353.0 -15.25 M368.25 -25.5 L367.75 -23.6 365.35 -22.75 362.35 -25.35 Q362.35 -27.15 365.35 -28.6 L368.25 -25.5 M363.9 5.7 Q364.6 6.85 364.6 7.6 364.6 10.1 364.35 9.0 L363.35 10.5 Q358.75 10.3 358.75 6.85 358.75 6.1 359.1 4.6 L359.55 4.35 361.35 4.1 Q362.95 4.1 363.9 5.7 M365.35 96.0 Q368.85 96.0 369.0 99.85 369.0 103.1 365.25 103.1 L362.1 102.35 Q361.6 102.0 361.6 99.5 361.6 98.4 362.65 97.3 363.8 96.0 365.35 96.0 M370.0 141.5 Q369.5 139.9 369.45 137.95 L369.5 136.25 Q369.5 126.6 379.1 126.6 385.05 126.6 387.5 131.15 388.7 133.45 388.75 136.0 388.75 140.4 385.65 143.4 382.35 146.6 377.1 146.6 371.6 146.6 370.0 141.5 M232.5 142.0 Q232.5 143.55 231.55 145.35 230.3 147.6 228.5 147.6 221.6 147.6 221.6 142.1 221.6 140.1 223.15 138.5 224.75 136.75 227.1 136.75 232.35 136.75 232.5 142.0 M147.85 43.35 L147.6 44.1 Q148.0 44.85 145.5 44.85 L143.35 44.1 Q143.35 42.2 145.1 41.6 147.4 42.0 147.85 43.35 M77.0 59.75 L77.25 60.35 76.9 61.65 Q76.55 62.35 75.0 62.35 73.25 62.35 71.25 61.35 70.75 61.75 70.75 59.25 70.75 57.4 70.95 57.2 L73.0 57.0 Q73.2 57.0 77.0 59.75 M-331.5 -24.35 Q-331.85 -23.25 -333.75 -22.5 L-335.45 -23.05 Q-336.0 -23.45 -336.0 -25.1 -336.0 -26.75 -335.45 -27.2 L-333.75 -27.85 Q-331.5 -26.95 -331.5 -24.35 M-315.0 -39.35 L-315.5 -37.5 -318.0 -36.5 -321.0 -39.25 Q-321.0 -41.05 -318.0 -42.5 L-315.0 -39.35 M-68.1 -40.0 Q-65.2 -40.0 -64.1 -37.8 -63.6 -36.75 -63.6 -35.35 -63.6 -31.35 -68.25 -31.35 -73.25 -31.35 -72.5 -35.35 -72.5 -40.0 -68.1 -40.0 M-70.1 -12.5 Q-72.6 -12.5 -72.25 -13.25 -72.25 -14.0 -72.75 -15.85 -72.75 -18.5 -69.6 -18.5 L-66.85 -18.0 Q-66.35 -18.25 -66.35 -15.75 L-66.4 -14.25 -66.85 -13.5 -67.7 -13.0 Q-68.6 -12.5 -70.1 -12.5 M-66.85 98.0 L-65.85 99.5 -66.35 101.0 -67.15 101.4 -70.35 101.75 -71.05 101.45 Q-71.25 101.35 -71.25 99.85 L-71.0 98.0 -68.6 97.5 -66.85 98.0 M-14.0 121.85 Q-15.9 125.5 -17.75 125.6 -21.0 123.15 -21.0 122.1 L-20.95 120.7 -20.5 120.0 Q-20.25 119.25 -17.75 119.25 -16.95 119.25 -14.0 121.85 M-72.0 117.0 Q-69.75 117.0 -68.6 118.5 -67.85 119.45 -67.85 120.35 -67.85 121.8 -69.1 122.85 -70.35 123.85 -72.0 123.85 -75.5 123.85 -75.5 120.5 -75.5 117.0 -72.0 117.0 M-302.35 65.85 Q-302.35 69.25 -304.85 69.25 -307.1 69.25 -309.1 68.25 L-309.25 66.1 -308.85 63.1 Q-308.6 62.35 -306.1 62.35 -304.7 62.35 -302.35 65.85 M-248.15 94.5 Q-247.15 93.5 -245.85 93.5 -242.35 93.5 -242.35 96.6 -242.35 98.85 -242.55 99.25 -242.9 100.0 -244.6 100.0 -246.85 100.0 -248.85 99.0 -249.1 99.25 -249.1 96.75 -249.1 95.5 -248.15 94.5 M-287.05 114.5 Q-287.6 114.3 -287.6 112.75 -287.6 109.5 -285.35 108.6 -283.6 109.85 -283.1 112.75 -283.5 114.0 -285.35 114.75 L-287.05 114.5 M-178.0 133.3 Q-177.0 135.0 -177.0 136.25 -177.0 137.35 -178.0 139.3 -179.35 141.85 -181.25 141.85 -186.45 141.85 -187.9 139.15 -188.65 137.75 -188.35 136.1 -188.35 134.4 -187.1 132.75 -185.5 130.5 -182.6 130.5 -179.55 130.5 -178.0 133.3 M-356.5 46.85 L-355.5 50.5 Q-355.5 51.95 -356.75 54.25 -358.4 57.25 -360.75 57.25 -366.4 57.25 -368.35 54.0 -369.25 52.5 -369.25 50.25 -369.25 47.9 -367.65 45.85 -365.65 43.35 -362.35 43.35 -358.3 43.35 -356.5 46.85 M-358.75 106.75 Q-358.75 108.85 -360.75 110.8 -362.5 112.5 -363.85 112.5 -369.2 112.5 -370.75 109.75 -371.5 108.35 -371.25 106.75 -371.25 105.0 -370.25 103.4 -368.7 100.75 -365.35 100.75 -361.05 100.75 -359.5 103.6 -358.75 104.95 -358.75 106.75 M-347.6 133.75 Q-344.1 133.75 -344.1 137.25 -344.1 139.75 -344.6 139.5 L-344.7 140.15 Q-344.85 140.75 -346.35 140.75 -348.5 140.75 -350.5 139.75 -351.0 140.0 -351.0 137.5 L-350.5 134.5 Q-350.1 133.75 -347.6 133.75 M-369.25 146.25 Q-369.25 148.75 -369.75 148.85 L-371.25 149.6 -375.5 149.6 Q-376.0 149.5 -376.0 147.0 -376.0 145.6 -374.8 144.35 -373.55 143.1 -372.25 143.1 -369.25 143.1 -369.25 146.25" fill="#000000" fill-opacity="0.34117648" fill-rule="evenodd" stroke="none"/>
  </g>
  <defs>
    <radialGradient cx="0" cy="0" gradientTransform="matrix(0.7989, 0.0, 0.0, 0.8305, -67.7, 132.45)" gradientUnits="userSpaceOnUse" id="gradient0" r="819.2" spreadMethod="pad">
      <stop offset="0.054901960784313725" stop-color="#393443"/>
      <stop offset="0.9137254901960784" stop-color="#0b0706"/>
    </radialGradient>
  </defs>
</svg>
