<?xml version="1.0" encoding="UTF-8" standalone="no"?>
<svg xmlns:ffdec="https://www.free-decompiler.com/flash" xmlns:xlink="http://www.w3.org/1999/xlink" ffdec:objectType="shape" height="393.4px" width="1106.15px" xmlns="http://www.w3.org/2000/svg">
  <g transform="matrix(1.0, 0.0, 0.0, 1.0, 570.45, 136.45)">
    <path d="M319.15 -73.65 Q337.9 -64.25 360.3 -57.4 385.25 -49.7 404.95 -48.45 427.8 -46.95 439.1 -54.5 449.45 -61.45 457.65 -79.8 459.25 -83.5 469.4 -112.0 475.7 -129.7 481.25 -134.25 488.8 -140.4 500.0 -129.5 511.1 -118.65 535.7 -40.1 L535.7 241.3 -514.15 241.3 -567.95 216.4 -567.95 -116.8 Q-534.7 -125.45 -519.1 -128.1 -487.75 -133.4 -482.35 -125.5 -473.95 -113.25 -469.15 -107.7 -460.65 -98.05 -450.0 -91.4 -423.0 -74.65 -370.05 -70.5 -344.35 -68.5 -306.2 -73.35 L-241.3 -83.4 Q-204.7 -89.25 -186.4 -89.05 -161.4 -88.75 -106.45 -67.6 -56.9 -48.5 -19.75 -46.75 32.15 -57.4 159.05 -78.75 287.4 -100.4 295.65 -89.5 300.65 -82.9 319.15 -73.65" fill="url(#gradient0)" fill-rule="evenodd" stroke="none"/>
    <path d="M133.45 -74.1 Q147.75 -45.45 166.7 -31.75 191.2 -14.0 230.6 -14.0 259.7 -14.0 271.95 -22.1 279.05 -26.8 279.05 -32.5 279.05 -36.45 273.8 -44.65 273.1 -40.8 270.2 -38.05 264.6 -32.75 249.85 -32.75 241.8 -32.75 237.3 -43.15 235.05 -48.4 234.4 -54.15 234.4 -59.75 237.75 -63.4 241.85 -67.9 249.85 -67.9 268.1 -67.9 279.65 -52.45 283.65 -47.1 286.1 -40.85 288.05 -35.85 288.05 -33.45 288.05 -23.15 278.2 -15.9 263.3 -4.95 229.15 -4.95 211.1 -4.95 192.9 -10.75 175.8 -16.15 161.55 -25.65 147.5 -35.0 139.45 -46.15 131.1 -57.7 131.1 -68.6 131.1 -72.85 133.45 -74.1 M246.45 -59.35 Q244.45 -59.3 243.85 -57.8 243.4 -56.75 243.4 -53.65 243.4 -50.0 245.35 -47.25 248.25 -43.2 254.6 -43.2 263.55 -43.2 265.05 -46.65 265.45 -47.5 265.65 -49.8 265.8 -51.95 266.45 -52.95 250.2 -59.45 246.45 -59.35 M382.05 -52.65 Q384.6 -50.0 389.0 -50.0 L389.75 -50.0 Q325.1 14.1 287.75 92.4 284.3 99.6 281.1 107.05 L284.75 111.5 Q288.3 116.65 290.05 122.95 291.15 127.0 291.15 129.4 291.15 140.15 280.2 153.2 271.3 163.8 257.35 173.3 247.75 206.55 241.5 242.95 L239.6 243.4 Q237.7 227.5 237.7 222.75 237.7 207.85 246.85 179.85 228.15 190.55 206.2 196.95 179.5 204.7 152.2 204.7 115.15 204.7 97.65 187.0 91.35 180.7 88.25 172.65 85.95 166.65 85.95 161.5 85.95 135.95 106.8 112.65 124.05 93.4 154.15 77.0 178.0 63.95 205.1 55.1 227.8 47.7 236.75 47.7 238.7 47.7 245.1 50.6 252.05 53.75 252.7 55.8 249.35 59.85 247.15 59.35 L243.95 58.35 238.2 57.7 Q215.35 57.7 189.35 68.6 165.75 78.5 144.15 95.25 123.55 111.25 110.95 128.55 98.05 146.25 98.05 159.35 98.05 171.1 107.55 179.85 121.9 193.05 154.1 193.05 178.95 193.05 203.45 185.85 224.9 179.55 243.4 168.55 248.45 165.55 252.95 162.45 L255.0 156.95 Q262.8 136.45 272.6 115.0 L272.5 114.95 Q263.85 107.55 249.85 107.55 225.3 107.55 207.1 118.25 200.15 122.35 195.9 127.0 192.1 131.25 192.1 133.95 192.1 137.2 195.9 138.95 199.05 140.35 203.3 140.35 215.15 140.35 218.45 133.65 220.85 128.75 218.5 121.6 L220.65 120.65 Q222.55 119.7 225.35 119.7 232.25 119.7 233.45 131.1 233.45 139.3 224.15 146.1 215.1 152.7 204.7 152.7 179.75 152.7 179.75 132.75 179.75 128.45 183.3 122.75 187.45 116.0 195.0 110.5 215.2 95.7 249.85 95.7 267.2 95.7 277.7 103.95 286.5 85.3 296.75 65.95 323.15 16.0 347.75 -16.75 367.45 -43.05 382.05 -52.65 M440.8 -37.05 L440.8 -36.1 Q401.35 -28.35 383.75 9.6 372.15 34.6 372.15 65.05 372.15 69.1 374.5 77.8 377.95 90.4 384.35 100.9 403.85 133.0 442.7 133.0 479.35 133.0 495.65 77.4 503.85 49.6 504.65 21.6 504.65 18.8 502.15 10.9 499.1 1.45 494.8 -6.85 482.4 -30.85 467.15 -30.85 446.95 -30.85 432.25 -8.25 427.6 -1.1 424.15 7.4 421.55 13.75 421.55 14.7 421.55 19.3 423.95 23.8 427.4 30.4 434.15 30.4 436.85 30.4 443.65 23.75 L444.6 23.0 Q442.7 23.0 439.85 23.75 434.6 19.1 434.6 18.75 434.6 15.25 437.5 13.1 440.1 11.15 443.65 11.15 452.3 11.15 455.35 16.6 456.9 19.35 456.7 22.55 456.7 28.9 449.55 36.15 442.1 43.7 434.6 43.7 418.95 43.7 412.55 29.55 410.5 25.0 409.65 19.55 409.2 16.55 409.2 14.45 409.2 10.1 412.85 1.25 417.2 -9.15 423.95 -18.25 442.8 -43.7 468.8 -43.7 493.05 -43.7 507.55 -11.55 514.8 4.55 517.25 21.1 517.25 29.5 515.5 43.4 512.55 66.55 506.1 85.55 486.15 144.6 440.3 144.6 404.0 144.6 380.05 113.05 370.85 100.9 365.5 86.5 360.75 73.7 360.75 64.35 360.75 51.9 363.5 37.9 367.1 19.5 374.55 4.55 377.45 -1.3 380.85 -6.4 363.9 16.5 349.05 44.5 333.3 74.15 324.05 101.65 314.45 130.1 314.45 148.65 314.45 176.2 318.65 193.45 326.45 225.3 348.15 232.5 350.55 234.85 345.8 234.85 318.8 234.85 309.75 193.5 306.85 180.3 306.1 164.0 L305.9 148.4 Q305.9 129.75 315.7 100.15 325.6 70.4 341.8 40.4 359.3 8.0 379.2 -15.15 401.5 -41.0 422.95 -50.55 406.25 -38.4 388.65 -16.5 407.8 -37.8 438.4 -41.3 438.4 -40.5 439.4 -39.15 L440.8 -37.05 M280.0 129.65 Q280.0 123.75 276.15 118.75 269.05 136.15 263.1 154.6 L270.2 147.7 Q280.0 137.05 280.0 129.65 M3.1 7.9 Q-28.1 -12.5 -83.9 -12.55 -108.6 1.2 -169.55 27.55 -173.35 29.05 -187.2 33.4 -208.05 39.95 -229.4 45.35 -255.8 52.05 -279.05 56.15 -251.25 66.0 -226.35 79.8 -199.05 94.95 -180.2 112.25 -179.4 108.25 -175.9 100.9 -170.05 88.5 -161.05 77.95 -134.45 46.75 -94.05 46.75 -73.9 46.75 -66.9 56.25 -63.35 61.05 -63.85 66.25 -63.85 66.8 -66.25 71.65 -69.4 77.8 -73.1 83.05 -84.75 99.5 -97.1 99.5 -116.35 99.5 -116.35 91.9 -116.35 81.55 -111.8 77.85 -108.55 75.2 -100.8 75.0 L-87.5 74.1 Q-80.0 72.35 -76.0 65.75 -78.1 63.65 -86.45 58.65 -130.9 58.65 -154.15 86.75 -165.8 100.85 -168.6 115.4 -168.6 126.7 -158.6 133.95 -144.55 144.15 -112.8 144.15 -40.75 144.15 1.0 99.55 14.8 84.75 23.2 67.1 29.45 54.0 29.45 48.65 29.45 37.95 23.15 27.7 16.25 16.5 3.1 7.9 M35.85 28.35 Q41.3 39.65 41.3 49.85 41.3 57.45 33.6 72.75 23.9 92.15 7.8 108.55 -12.8 129.55 -40.25 141.5 -73.55 156.0 -114.7 156.0 -136.0 156.0 -150.7 150.65 -144.15 164.85 -144.15 179.05 -144.15 199.05 -151.85 218.7 -160.4 240.5 -176.7 256.95 L-179.0 256.85 Q-179.75 256.75 -179.75 253.85 -179.75 251.25 -175.6 243.95 L-166.45 227.8 Q-153.15 202.3 -153.15 179.05 -153.15 167.7 -164.45 147.9 -167.35 142.85 -170.6 137.95 -174.4 133.85 -176.75 129.45 -187.85 115.1 -202.75 102.3 -233.35 76.0 -274.9 61.1 -280.45 59.1 -286.2 57.35 L-293.15 58.4 Q-302.75 66.5 -311.7 75.55 -340.45 104.5 -360.3 140.1 -372.7 162.35 -377.35 177.85 L-377.35 189.25 -377.9 189.75 Q-378.15 190.2 -375.25 190.2 -371.9 190.2 -365.65 187.35 -359.5 184.55 -356.25 181.65 L-354.8 181.65 Q-355.95 183.4 -365.3 190.75 -375.45 198.75 -378.1 198.75 -383.75 198.75 -385.25 190.85 -385.75 188.35 -385.8 185.25 L-385.7 182.4 Q-385.7 175.4 -381.65 163.5 -377.15 150.35 -369.05 135.35 -348.9 98.0 -316.1 66.0 L-310.4 60.6 -343.9 62.45 Q-374.45 62.45 -393.6 43.25 -442.9 44.2 -479.45 60.85 -511.15 75.25 -529.6 99.5 -525.0 102.25 -516.3 100.9 L-516.3 103.75 Q-517.2 103.75 -519.0 104.5 -520.8 105.2 -523.45 105.2 -526.75 105.2 -530.1 103.85 -533.1 102.6 -533.9 101.4 -528.7 90.2 -515.85 78.9 -502.5 67.1 -483.75 57.8 -445.25 38.7 -399.6 36.4 -406.75 27.2 -410.7 16.15 -413.95 7.25 -413.95 1.4 -413.95 -19.5 -405.45 -33.75 -388.05 -62.9 -340.1 -62.9 -319.9 -62.9 -309.25 -48.2 -301.6 -37.6 -301.6 -26.35 -301.6 -22.0 -303.9 -15.15 -306.6 -7.15 -311.1 -0.3 -323.35 18.25 -342.0 18.25 -355.05 18.25 -361.6 9.65 -365.95 4.0 -365.95 -1.4 -365.95 -5.8 -361.6 -9.7 -356.35 -14.45 -347.7 -14.45 -339.9 -14.45 -334.85 -9.25 -331.3 -5.6 -331.3 -3.55 -331.3 -0.8 -331.6 -0.15 L-332.25 1.9 -333.05 2.5 Q-333.9 3.05 -336.75 3.05 -339.5 3.05 -341.85 -0.25 -344.25 -3.55 -344.85 -3.55 -351.0 -3.55 -355.75 -1.9 -354.45 3.25 -351.7 5.2 -348.65 7.35 -341.75 7.35 -326.5 7.35 -317.6 -9.3 -314.7 -14.6 -312.9 -21.0 -311.6 -25.5 -311.6 -26.8 -311.6 -37.2 -319.55 -44.7 -328.3 -52.95 -342.45 -52.95 -382.7 -52.95 -397.65 -28.05 -404.9 -15.95 -404.9 0.0 -404.9 6.6 -402.05 14.65 -398.55 24.45 -391.95 32.3 L-388.45 36.1 -387.1 36.1 Q-348.3 36.1 -304.95 48.0 L-298.3 49.9 Q-263.95 21.1 -222.2 3.15 -158.6 -24.2 -82.65 -24.2 L-79.3 -24.15 Q-59.95 -36.65 -49.0 -48.15 -46.9 -47.0 -44.0 -47.0 L-42.15 -47.1 Q-47.1 -36.45 -65.75 -23.7 -12.9 -20.45 16.4 4.0 29.2 14.75 35.85 28.35 M-513.2 -129.2 Q-476.25 -129.2 -463.8 -99.5 -459.85 -90.1 -458.85 -78.55 L-458.6 -67.9 Q-458.6 -64.3 -460.3 -59.25 -462.55 -52.7 -466.65 -47.35 -478.3 -32.3 -500.4 -32.3 -502.15 -32.3 -503.15 -30.5 L-504.85 -26.45 Q-507.55 -20.65 -514.9 -20.65 -545.3 -20.65 -560.5 -43.2 -565.7 -51.0 -568.45 -60.55 -570.45 -67.55 -570.45 -72.2 -570.45 -81.15 -570.1 -84.6 -568.95 -95.4 -564.7 -103.8 -551.9 -129.2 -513.2 -129.2 M-513.45 -72.65 L-530.55 -71.7 -531.0 -71.35 Q-531.5 -71.0 -531.5 -68.15 -531.5 -65.85 -528.35 -61.9 -525.1 -57.8 -520.1 -53.9 -507.4 -44.15 -495.15 -44.15 -481.45 -44.15 -474.5 -56.35 -472.3 -60.25 -471.05 -64.9 -470.25 -68.0 -470.25 -69.1 -470.25 -74.05 -471.3 -80.5 -473.25 -92.25 -477.95 -101.05 -492.75 -128.55 -529.15 -118.25 -548.95 -117.5 -556.6 -98.5 -560.95 -87.8 -560.95 -72.2 -560.95 -56.95 -551.25 -45.5 -538.75 -30.75 -513.2 -27.55 -507.4 -28.1 -504.65 -32.3 -543.6 -46.85 -543.6 -69.1 -543.6 -75.75 -538.95 -80.25 -534.05 -85.0 -526.3 -85.0 -508.4 -85.0 -503.35 -78.0 -501.75 -75.8 -501.6 -73.0 L-501.8 -70.3 Q-501.8 -66.7 -502.3 -63.85 L-505.35 -62.9 Q-508.45 -61.95 -511.3 -61.95 -513.7 -61.95 -513.6 -62.3 -513.35 -62.95 -515.35 -63.4 -517.0 -67.95 -513.95 -71.7 L-513.45 -72.65 M-249.35 42.7 Q-204.0 32.85 -159.75 15.7 -126.05 2.6 -99.2 -12.25 -166.85 -9.9 -222.65 14.55 -254.0 28.25 -280.8 48.55 -265.45 46.2 -249.35 42.7 M-341.05 53.4 L-306.95 51.8 Q-340.8 44.0 -379.55 43.3 -364.0 53.4 -341.05 53.4" fill="#581616" fill-opacity="0.2" fill-rule="evenodd" stroke="none"/>
  </g>
  <defs>
    <radialGradient cx="0" cy="0" gradientTransform="matrix(0.0129, 0.2876, -0.7724, 0.0277, -15.95, 18.0)" gradientUnits="userSpaceOnUse" id="gradient0" r="819.2" spreadMethod="pad">
      <stop offset="0.0" stop-color="#978024"/>
      <stop offset="0.5490196078431373" stop-color="#7c5c2e"/>
      <stop offset="1.0" stop-color="#703232"/>
    </radialGradient>
  </defs>
</svg>
