<?xml version="1.0" encoding="UTF-8" standalone="no"?>
<svg xmlns:ffdec="https://www.free-decompiler.com/flash" xmlns:xlink="http://www.w3.org/1999/xlink" ffdec:objectType="shape" height="70.0px" width="70.0px" xmlns="http://www.w3.org/2000/svg">
  <g transform="matrix(1.0, 0.0, 0.0, 1.0, 35.0, 35.0)">
    <path d="M34.25 -8.45 L34.55 -7.0 35.0 -4.05 4.1 -4.05 4.1 -35.0 Q16.05 -33.75 24.9 -24.9 32.05 -17.7 34.25 -8.45 M34.0 9.55 Q31.65 18.15 24.9 24.9 16.05 33.75 4.1 35.0 L4.1 4.15 35.0 4.15 Q34.7 6.9 34.0 9.55 M-34.25 -8.45 Q-32.1 -17.7 -24.9 -24.9 -16.1 -33.75 -4.1 -35.0 L-4.1 -4.05 -35.0 -4.05 -34.55 -7.0 -34.25 -8.45 M-34.0 9.55 Q-34.7 6.9 -35.0 4.15 L-4.1 4.15 -4.1 35.0 Q-16.1 33.7 -24.9 24.9 -31.65 18.15 -34.0 9.55" fill="url(#gradient0)" fill-rule="evenodd" stroke="none"/>
  </g>
  <defs>
    <radialGradient cx="0" cy="0" gradientTransform="matrix(0.0438, 0.0, 0.0, 0.0438, 0.0, 0.0)" gradientUnits="userSpaceOnUse" id="gradient0" r="819.2" spreadMethod="pad">
      <stop offset="0.611764705882353" stop-color="#ffffff" stop-opacity="0.0"/>
      <stop offset="0.803921568627451" stop-color="#ffffff" stop-opacity="0.21176471"/>
      <stop offset="1.0" stop-color="#ffffff" stop-opacity="0.56078434"/>
    </radialGradient>
  </defs>
</svg>
