<?xml version="1.0" encoding="UTF-8" standalone="no"?>
<svg xmlns:ffdec="https://www.free-decompiler.com/flash" xmlns:xlink="http://www.w3.org/1999/xlink" ffdec:objectType="shape" height="63.6px" width="63.6px" xmlns="http://www.w3.org/2000/svg">
  <g transform="matrix(1.0, 0.0, 0.0, 1.0, 31.8, 31.8)">
    <path d="M22.65 -22.3 Q31.8 -13.05 31.8 0.0 31.8 13.15 22.45 22.45 13.15 31.8 0.0 31.8 -13.15 31.8 -22.5 22.45 -31.8 13.15 -31.8 0.0 -31.8 -13.1 -22.55 -22.4 L-22.5 -22.5 Q-13.15 -31.8 0.0 -31.8 13.15 -31.8 22.45 -22.5 L22.65 -22.3 M0.0 -23.75 Q-9.85 -23.75 -16.8 -16.8 -19.35 -14.2 -21.0 -11.25 -23.75 -6.2 -23.75 0.0 -23.75 9.85 -16.8 16.8 -9.85 23.75 0.0 23.75 9.85 23.75 16.8 16.8 23.75 9.85 23.75 0.0 23.75 -6.15 21.05 -11.15 19.4 -14.2 16.8 -16.8 9.85 -23.75 0.0 -23.75 M21.95 -21.6 L21.75 -21.8 Q12.75 -30.8 0.0 -30.8 -12.75 -30.8 -21.8 -21.8 L-21.85 -21.7 Q-30.8 -12.7 -30.8 0.0 -30.8 12.75 -21.8 21.75 -12.75 30.8 0.0 30.8 12.75 30.8 21.75 21.75 30.8 12.75 30.8 0.0 30.8 -12.6 21.95 -21.6 M17.5 -17.5 Q20.25 -14.75 21.95 -11.6 24.75 -6.4 24.75 0.0 24.75 10.25 17.5 17.5 10.25 24.75 0.0 24.75 -10.25 24.75 -17.5 17.5 -24.75 10.25 -24.75 0.0 -24.75 -6.45 -21.85 -11.7 -20.2 -14.8 -17.5 -17.5 -10.25 -24.75 0.0 -24.75 10.25 -24.75 17.5 -17.5" fill="#000000" fill-rule="evenodd" stroke="none"/>
    <path d="M17.5 -17.5 Q10.25 -24.75 0.0 -24.75 -10.25 -24.75 -17.5 -17.5 -20.2 -14.8 -21.85 -11.7 -24.75 -6.45 -24.75 0.0 -24.75 10.25 -17.5 17.5 -10.25 24.75 0.0 24.75 10.25 24.75 17.5 17.5 24.75 10.25 24.75 0.0 24.75 -6.4 21.95 -11.6 20.25 -14.75 17.5 -17.5 M21.95 -21.6 Q30.8 -12.6 30.8 0.0 30.8 12.75 21.75 21.75 12.75 30.8 0.0 30.8 -12.75 30.8 -21.8 21.75 -30.8 12.75 -30.8 0.0 -30.8 -12.7 -21.85 -21.7 L-21.8 -21.8 Q-12.75 -30.8 0.0 -30.8 12.75 -30.8 21.75 -21.8 L21.95 -21.6" fill="url(#gradient0)" fill-rule="evenodd" stroke="none"/>
  </g>
  <defs>
    <radialGradient cx="0" cy="0" gradientTransform="matrix(0.0379, 0.0, 0.0, 0.0379, 0.0, 0.0)" gradientUnits="userSpaceOnUse" id="gradient0" r="819.2" spreadMethod="pad">
      <stop offset="0.7058823529411765" stop-color="#000000"/>
      <stop offset="0.792156862745098" stop-color="#000000" stop-opacity="0.52156866"/>
      <stop offset="0.9254901960784314" stop-color="#404040" stop-opacity="0.7019608"/>
      <stop offset="1.0" stop-color="#000000" stop-opacity="0.8117647"/>
    </radialGradient>
  </defs>
</svg>
