<?xml version="1.0" encoding="UTF-8" standalone="no"?>
<svg xmlns:ffdec="https://www.free-decompiler.com/flash" xmlns:xlink="http://www.w3.org/1999/xlink" ffdec:objectType="shape" height="125.7px" width="125.7px" xmlns="http://www.w3.org/2000/svg">
  <g transform="matrix(1.0, 0.0, 0.0, 1.0, 62.85, 62.85)">
    <path d="M44.45 -44.45 Q62.85 -26.05 62.85 0.0 62.85 26.05 44.45 44.45 26.05 62.85 0.0 62.85 -26.05 62.85 -44.45 44.45 -62.85 26.05 -62.85 0.0 -62.85 -26.05 -44.45 -44.45 L-43.85 -45.0 Q-25.65 -62.85 0.0 -62.85 25.65 -62.85 43.9 -45.0 L44.45 -44.45 M36.9 -38.65 Q21.6 -54.65 0.0 -54.65 -21.6 -54.65 -36.9 -38.65 -52.2 -22.65 -52.2 0.0 -52.2 22.65 -36.9 38.65 -21.6 54.65 0.0 54.65 21.6 54.65 36.9 38.65 52.2 22.65 52.2 0.0 52.2 -22.65 36.9 -38.65" fill="#ffffff" fill-rule="evenodd" stroke="none"/>
  </g>
</svg>
