<?xml version="1.0" encoding="UTF-8" standalone="no"?>
<svg xmlns:ffdec="https://www.free-decompiler.com/flash" xmlns:xlink="http://www.w3.org/1999/xlink" ffdec:objectType="shape" height="148.0px" width="191.95px" xmlns="http://www.w3.org/2000/svg">
  <g transform="matrix(1.0, 0.0, 0.0, 1.0, 95.95, 35.7)">
    <path d="M33.55 -35.2 L95.5 -35.2 95.5 111.8 33.55 111.8 33.55 -35.2 M-9.95 111.8 L-95.45 111.8 -95.45 -35.2 -9.95 -35.2 -9.95 111.8" fill="#ffffff" fill-rule="evenodd" stroke="none"/>
    <path d="M33.55 -35.2 L95.5 -35.2 95.5 111.8 33.55 111.8 M-9.95 111.8 L-95.45 111.8 -95.45 -35.2 -9.95 -35.2" fill="none" stroke="#990000" stroke-linecap="round" stroke-linejoin="round" stroke-width="1.0"/>
    <path d="M33.55 -35.2 L33.55 111.8 -9.95 111.8 -9.95 -35.2 33.55 -35.2" fill="#ffffff" fill-rule="evenodd" stroke="none"/>
    <path d="M33.55 111.8 L-9.95 111.8 M-9.95 -35.2 L33.55 -35.2" fill="none" stroke="#990000" stroke-linecap="round" stroke-linejoin="round" stroke-width="1.0"/>
  </g>
</svg>
