<?xml version="1.0" encoding="UTF-8" standalone="no"?>
<svg xmlns:ffdec="https://www.free-decompiler.com/flash" xmlns:xlink="http://www.w3.org/1999/xlink" ffdec:objectType="shape" height="14.45px" width="188.15px" xmlns="http://www.w3.org/2000/svg">
  <g transform="matrix(1.0, 0.0, 0.0, 1.0, 94.5, 1.55)">
    <path d="M9.8 -1.35 L11.6 -1.2 12.8 -0.75 13.7 0.35 13.65 0.3 Q14.05 0.95 14.1 1.8 L13.65 3.4 13.2 3.95 14.0 4.7 Q14.5 5.5 14.55 6.55 L14.2 8.15 13.2 9.4 Q12.55 9.85 11.65 10.0 L9.25 10.05 5.95 10.05 5.6 9.9 5.45 9.55 5.45 -0.8 5.6 -1.15 Q5.7 -1.35 5.95 -1.35 L9.8 -1.35 M4.5 -0.8 L4.5 0.9 4.35 1.25 4.05 1.4 -0.75 1.4 -0.75 2.7 3.65 2.7 Q3.85 2.7 4.0 2.85 L4.15 3.25 4.15 5.0 4.0 5.35 3.65 5.5 -0.75 5.5 -0.75 7.25 4.25 7.25 4.55 7.4 4.7 7.8 4.7 9.55 4.55 9.9 4.25 10.05 -3.2 10.05 -3.55 9.9 -3.7 9.55 -3.7 -0.8 -3.55 -1.15 -3.2 -1.35 4.05 -1.35 4.35 -1.15 4.5 -0.8 M18.5 -1.35 L20.6 -1.35 20.85 -1.25 21.05 -1.0 24.95 9.35 24.95 9.65 24.8 9.95 24.5 10.05 22.35 10.05 22.1 9.95 21.9 9.75 21.2 7.7 17.95 7.7 17.3 9.75 17.1 9.95 16.8 10.05 14.75 10.05 14.45 9.95 14.25 9.65 14.25 9.35 18.05 -1.0 18.25 -1.2 18.5 -1.35 M32.05 -1.05 Q32.95 -0.75 33.5 0.15 L33.5 0.2 Q33.95 1.0 33.95 2.1 33.95 3.4 33.2 4.35 L32.05 5.2 32.35 5.5 33.5 7.25 34.7 9.25 34.8 9.6 34.65 9.95 34.3 10.05 31.95 10.05 31.7 10.0 31.5 9.85 30.1 7.55 30.15 7.55 29.15 6.15 29.15 6.1 28.75 5.85 28.7 5.8 28.0 5.7 28.0 9.55 27.85 9.9 27.5 10.05 25.55 10.05 25.2 9.9 25.1 9.55 25.1 -0.8 25.2 -1.15 25.55 -1.35 29.7 -1.35 32.1 -1.05 32.05 -1.05 M41.45 -0.95 L41.55 -0.6 41.55 1.5 42.4 1.5 42.7 1.7 42.85 2.05 42.85 3.6 42.7 3.95 42.4 4.1 41.55 4.1 41.55 6.65 41.6 7.55 42.25 7.4 42.5 7.4 42.75 7.55 42.85 7.85 43.0 9.4 42.95 9.75 42.7 9.95 41.0 10.2 39.95 10.05 39.95 10.0 39.15 9.35 Q38.9 8.95 38.8 8.4 38.7 8.0 38.75 6.9 L38.75 4.1 38.35 4.1 38.0 3.95 37.85 3.6 37.85 2.05 Q37.85 1.8 38.0 1.7 L38.35 1.5 38.75 1.5 38.75 0.55 38.8 0.3 39.0 0.1 40.8 -1.05 41.15 -1.1 41.45 -0.95 M62.95 -1.15 L63.25 -1.35 65.1 -1.35 65.45 -1.15 65.6 -0.8 65.6 3.3 66.95 1.7 67.1 1.55 67.3 1.5 69.6 1.5 Q69.8 1.5 69.95 1.7 L70.1 2.0 69.95 2.4 67.8 4.85 70.2 9.3 70.25 9.65 70.1 9.95 69.8 10.05 67.8 10.05 67.55 10.0 67.4 9.8 65.9 7.05 65.6 7.4 65.6 9.55 65.45 9.9 65.1 10.05 63.25 10.05 Q63.05 10.05 62.95 9.9 L62.8 9.55 62.8 -0.8 62.95 -1.15 M70.55 -1.15 L70.9 -1.35 72.8 -1.35 73.15 -1.15 73.3 -0.8 73.3 1.0 73.15 1.35 72.8 1.5 73.15 1.7 73.3 2.05 73.3 9.55 73.15 9.9 72.8 10.05 70.9 10.05 70.55 9.9 70.4 9.55 70.4 2.05 Q70.4 1.8 70.55 1.7 L70.9 1.5 70.55 1.35 70.4 1.0 70.4 -0.8 70.55 -1.15 M93.55 3.3 L93.65 3.6 93.65 5.25 93.55 5.55 93.35 5.7 86.65 8.8 86.35 8.85 86.05 8.65 85.95 8.35 85.95 6.4 86.05 6.1 Q86.1 5.95 86.3 5.9 L89.75 4.4 86.3 3.0 86.05 2.8 85.95 2.5 85.95 0.5 86.05 0.2 86.35 0.0 86.65 0.0 93.35 3.15 93.55 3.3 M81.05 2.55 Q82.0 3.65 82.05 5.75 82.0 7.85 81.05 9.0 80.0 10.2 78.6 10.2 L77.35 9.95 77.3 9.9 77.0 9.75 77.0 12.4 76.85 12.75 76.5 12.9 74.65 12.9 74.3 12.75 74.15 12.4 74.15 2.05 Q74.15 1.8 74.3 1.7 74.45 1.5 74.65 1.5 L76.4 1.5 76.75 1.7 76.85 1.9 77.1 1.75 Q77.8 1.35 78.6 1.35 80.0 1.35 81.05 2.5 L81.05 2.55 M77.3 4.35 Q76.95 4.8 77.0 5.65 76.95 6.65 77.35 7.2 77.65 7.6 78.1 7.65 L78.85 7.25 79.15 5.75 Q79.15 4.8 78.8 4.35 78.5 3.95 78.1 3.95 77.6 3.95 77.3 4.35 M61.75 4.25 L61.5 4.35 60.2 4.65 Q61.0 4.95 61.4 5.35 62.15 5.95 62.15 7.2 62.15 8.45 61.2 9.35 60.25 10.2 58.45 10.2 56.8 10.2 55.9 9.5 54.9 8.75 54.65 7.55 L54.65 7.25 54.8 7.05 Q54.9 6.95 55.05 6.9 L56.6 6.65 55.95 6.3 55.9 6.3 Q54.85 5.5 54.85 4.15 54.85 2.95 55.75 2.1 L55.8 2.1 Q56.6 1.35 58.3 1.35 59.95 1.35 60.7 1.9 61.6 2.5 61.9 3.7 L61.9 4.0 61.75 4.25 M58.9 3.95 L58.35 3.8 57.65 3.9 59.1 4.35 59.1 4.3 59.2 4.35 59.2 4.3 59.0 4.0 58.9 3.95 M59.3 7.6 L59.35 7.45 58.95 7.35 58.9 7.35 57.4 6.95 57.4 7.0 57.75 7.6 58.45 7.8 59.3 7.6 M49.8 2.6 Q50.95 3.8 51.0 5.75 50.95 7.7 49.8 9.0 48.65 10.2 46.85 10.2 45.75 10.2 44.8 9.7 43.75 9.15 43.25 8.1 L43.3 8.15 Q42.7 7.1 42.7 5.65 42.7 4.55 43.3 3.5 L43.25 3.5 Q43.75 2.4 44.75 1.9 45.7 1.35 46.85 1.35 48.65 1.35 49.8 2.6 M45.65 5.75 Q45.6 6.65 46.0 7.15 46.3 7.55 46.85 7.6 47.35 7.55 47.7 7.15 L47.7 7.1 Q48.1 6.65 48.1 5.75 48.1 4.9 47.7 4.4 47.35 4.0 46.85 4.0 46.3 4.0 46.0 4.4 45.6 4.9 45.65 5.75 M30.85 1.75 L30.85 1.7 30.35 1.45 29.05 1.4 28.0 1.4 28.0 3.0 28.95 3.0 30.6 2.95 30.55 2.95 30.9 2.7 31.0 2.2 30.85 1.75 M18.95 4.95 L20.2 4.95 19.55 3.1 18.95 4.95 M11.05 2.5 L11.2 2.1 11.1 1.7 11.05 1.65 10.65 1.45 10.6 1.45 9.0 1.4 8.35 1.4 8.35 2.75 9.2 2.75 10.5 2.75 11.05 2.5 M11.4 5.9 L11.1 5.7 9.5 5.55 8.35 5.55 8.35 7.25 9.65 7.25 10.95 7.2 11.4 6.95 11.55 6.45 11.45 6.0 11.4 5.9 M-82.3 -1.15 L-81.95 -1.35 -78.8 -1.35 -76.3 -1.15 -76.35 -1.15 Q-75.3 -0.95 -74.65 0.0 -73.95 0.9 -73.95 2.35 -74.0 3.45 -74.35 4.15 L-74.4 4.2 Q-74.75 5.0 -75.35 5.45 L-75.35 5.4 -76.5 6.0 -76.55 6.0 -78.7 6.15 -79.45 6.15 -79.45 9.55 -79.6 9.9 -79.95 10.05 -81.95 10.05 -82.3 9.9 -82.4 9.55 -82.4 -0.8 -82.3 -1.15 M-20.3 -1.2 L-20.0 -1.35 -17.95 -1.35 -17.65 -1.25 -17.45 -1.0 -13.6 9.35 -13.6 9.65 -13.75 9.95 -14.05 10.05 -16.2 10.05 -16.45 9.95 -16.65 9.75 -17.35 7.7 -20.6 7.7 -21.25 9.75 -21.45 9.95 -21.7 10.05 -23.8 10.05 -24.1 9.95 -24.25 9.65 -24.25 9.35 -20.5 -1.0 -20.3 -1.2 M-34.55 -0.5 Q-33.45 0.4 -33.4 2.1 L-33.5 2.5 -33.85 2.65 -35.8 2.75 -36.1 2.65 -36.3 2.35 Q-36.4 1.75 -36.6 1.5 L-37.6 1.25 -38.65 1.5 -38.8 1.75 -38.7 2.0 Q-38.35 2.25 -37.05 2.6 -35.55 2.95 -34.8 3.35 -34.0 3.85 -33.55 4.65 -33.1 5.4 -33.1 6.55 -33.1 7.55 -33.6 8.45 L-33.6 8.5 Q-34.2 9.35 -35.15 9.8 L-35.2 9.85 -37.45 10.25 Q-39.55 10.25 -40.65 9.2 -41.8 8.15 -42.0 6.25 L-41.95 5.95 -41.8 5.75 -41.55 5.65 -39.65 5.45 -39.3 5.55 -39.1 5.85 Q-39.0 6.7 -38.55 7.1 L-37.45 7.4 -36.3 7.1 -36.0 6.55 -36.1 6.25 Q-36.3 6.05 -36.6 5.95 L-36.55 5.95 -38.15 5.5 Q-39.9 5.0 -40.6 4.35 L-40.55 4.35 Q-41.65 3.35 -41.65 1.9 -41.65 0.95 -41.15 0.1 L-41.1 0.1 Q-40.65 -0.7 -39.7 -1.1 L-37.55 -1.55 Q-35.55 -1.55 -34.55 -0.5 M-26.3 -1.15 L-26.35 -1.15 Q-25.3 -0.95 -24.65 0.0 -23.95 0.9 -23.95 2.35 -23.95 3.45 -24.35 4.15 L-24.35 4.2 Q-24.7 5.0 -25.35 5.45 L-25.35 5.4 Q-25.9 5.8 -26.5 6.0 L-26.55 6.0 -28.65 6.15 -29.45 6.15 -29.45 9.55 -29.6 9.9 -29.95 10.05 -31.95 10.05 -32.25 9.9 -32.4 9.55 -32.4 -0.8 -32.25 -1.15 -31.95 -1.35 -28.75 -1.35 -26.3 -1.15 M-5.55 -0.25 Q-4.85 0.5 -4.45 1.9 L-4.45 2.15 -4.55 2.4 -4.8 2.55 -6.75 3.0 -7.0 3.0 -7.2 2.85 -7.35 2.6 Q-7.45 2.0 -7.85 1.7 L-7.9 1.65 Q-8.3 1.3 -8.9 1.3 -9.75 1.3 -10.3 1.95 -10.85 2.7 -10.85 4.3 -10.85 6.05 -10.3 6.8 L-10.25 6.8 Q-9.8 7.4 -8.95 7.4 -8.35 7.4 -7.9 7.05 L-7.2 5.6 -7.1 5.35 -6.9 5.2 -6.6 5.2 -4.7 5.9 -4.4 6.15 -4.4 6.5 Q-4.9 8.4 -6.05 9.35 -7.2 10.2 -8.9 10.2 -11.05 10.2 -12.45 8.65 -13.85 7.1 -13.85 4.45 -13.85 1.65 -12.45 0.05 -11.05 -1.55 -8.8 -1.55 -6.8 -1.55 -5.55 -0.25 M-18.35 4.95 L-19.0 3.1 -19.6 4.95 -18.35 4.95 M-27.1 1.85 L-27.15 1.8 -27.65 1.5 -27.7 1.5 -29.0 1.4 -29.45 1.4 -29.45 3.35 -28.85 3.35 -27.5 3.2 -27.1 2.9 -26.95 2.4 Q-26.95 2.05 -27.1 1.85 M-49.05 4.3 L-48.95 4.35 -48.95 4.3 -49.15 4.0 -49.2 3.95 -49.75 3.8 -50.5 3.9 -49.0 4.35 -49.05 4.3 M-46.25 4.0 L-46.4 4.25 -46.6 4.35 -47.95 4.65 Q-47.15 4.95 -46.75 5.35 -46.0 5.95 -45.95 7.2 -45.95 8.45 -46.9 9.35 -47.85 10.2 -49.65 10.2 -51.3 10.2 -52.25 9.5 -53.2 8.75 -53.5 7.55 L-53.5 7.25 -53.35 7.05 -53.1 6.9 -51.5 6.65 -52.2 6.3 -52.25 6.3 Q-53.3 5.5 -53.25 4.15 -53.3 2.95 -52.35 2.1 -51.55 1.35 -49.8 1.35 -48.2 1.35 -47.4 1.9 -46.55 2.5 -46.25 3.7 L-46.25 4.0 M-48.85 7.6 L-48.8 7.45 -49.2 7.35 -50.75 6.95 -50.7 7.0 -50.4 7.6 -49.65 7.8 -48.85 7.6 M-55.5 4.65 Q-54.7 4.95 -54.3 5.35 -53.55 5.95 -53.55 7.2 -53.55 8.45 -54.5 9.35 -55.45 10.2 -57.25 10.2 -58.9 10.2 -59.8 9.5 -60.8 8.75 -61.05 7.55 L-61.05 7.25 -60.9 7.05 -60.65 6.9 -59.1 6.65 -59.8 6.3 Q-60.85 5.5 -60.85 4.15 -60.85 2.95 -59.95 2.1 L-59.9 2.1 Q-59.1 1.35 -57.4 1.35 -55.75 1.35 -55.0 1.9 -54.1 2.5 -53.8 3.7 L-53.8 4.0 -53.95 4.25 -54.2 4.35 -55.5 4.65 M-58.05 3.9 L-56.6 4.35 -56.6 4.3 -56.5 4.35 -56.5 4.3 -56.7 4.0 -56.8 3.95 Q-57.0 3.8 -57.35 3.8 L-58.05 3.9 M-57.25 7.8 L-56.4 7.6 -56.35 7.45 -56.75 7.35 -56.8 7.35 -58.3 6.95 -58.3 7.0 -58.0 7.6 -57.25 7.8 M-62.0 2.65 Q-61.0 3.8 -61.0 6.35 L-61.15 6.7 -61.5 6.85 -62.15 6.85 -61.55 6.95 -61.3 7.1 -61.15 7.35 -61.15 7.65 Q-61.55 8.9 -62.45 9.55 -63.35 10.2 -64.7 10.2 -66.8 10.2 -67.8 8.75 -68.55 7.6 -68.55 5.8 -68.6 3.7 -67.5 2.55 -66.45 1.35 -64.9 1.35 -63.05 1.35 -62.0 2.65 M-65.4 4.2 L-65.6 4.65 -63.9 4.65 -64.1 4.2 Q-64.4 3.9 -64.75 3.9 -65.15 3.9 -65.4 4.2 M-67.85 2.45 L-68.45 4.15 -68.6 4.35 -68.9 4.45 -69.15 4.4 -69.8 4.15 -70.2 4.3 -70.45 4.8 -70.55 7.2 -70.55 9.55 -70.7 9.9 -71.05 10.05 -72.95 10.05 -73.3 9.9 -73.45 9.55 -73.45 2.05 -73.3 1.7 -72.95 1.5 -71.2 1.5 Q-71.0 1.5 -70.85 1.7 L-70.8 1.75 -70.65 1.65 -70.6 1.65 -69.6 1.35 Q-68.85 1.35 -68.1 1.8 L-67.85 2.05 -67.85 2.45 M-64.65 7.75 L-64.2 7.6 -63.95 7.05 -63.85 6.85 -65.65 6.85 -65.35 7.35 -65.3 7.4 Q-65.1 7.75 -64.65 7.75 M-77.15 1.8 Q-77.4 1.55 -77.65 1.5 L-77.7 1.5 -79.0 1.4 -79.45 1.4 -79.45 3.35 -78.85 3.35 -77.5 3.2 -77.1 2.9 -77.0 2.4 -77.1 1.85 -77.15 1.8 M-87.25 0.0 L-87.0 0.2 -86.9 0.5 -86.9 2.5 -87.0 2.8 -87.2 3.0 -90.65 4.4 -87.2 5.85 -86.95 6.05 -86.9 6.35 -86.9 8.35 -87.0 8.65 -87.25 8.85 -87.55 8.8 -94.25 5.7 -94.45 5.55 -94.5 5.25 -94.5 3.55 -94.45 3.25 -94.25 3.05 -87.55 0.0 -87.25 0.0" fill="#000000" fill-rule="evenodd" stroke="none"/>
    <path d="M11.4 -0.2 L12.25 0.1 12.8 0.8 12.85 0.85 13.1 1.8 12.8 2.85 Q12.5 3.35 12.0 3.55 11.85 3.6 11.75 3.75 11.65 3.85 11.7 4.05 L11.8 4.3 12.05 4.5 Q12.75 4.7 13.2 5.25 13.55 5.8 13.55 6.55 L13.3 7.75 12.65 8.6 Q12.2 8.9 11.55 9.0 L9.25 9.05 6.45 9.05 6.45 -0.3 9.8 -0.3 11.4 -0.2 M31.75 -0.05 Q32.3 0.1 32.65 0.7 L33.0 2.1 Q32.95 3.05 32.45 3.7 L32.5 3.7 Q31.95 4.3 30.9 4.5 30.7 4.5 30.6 4.65 L30.45 4.9 30.5 5.2 30.7 5.4 31.6 6.15 32.65 7.8 33.45 9.05 32.2 9.05 30.95 7.0 29.9 5.45 29.85 5.4 29.15 4.9 27.9 4.7 27.5 4.7 Q27.3 4.7 27.15 4.85 27.0 4.95 27.0 5.2 L27.0 9.05 26.05 9.05 26.05 -0.3 29.7 -0.3 31.75 -0.05 M20.25 -0.3 L23.75 9.05 22.7 9.05 22.0 7.0 21.85 6.75 21.55 6.65 17.6 6.65 17.3 6.75 17.1 7.0 16.45 9.05 15.45 9.05 18.85 -0.3 20.25 -0.3 M72.3 -0.3 L72.3 0.5 71.4 0.5 71.4 -0.3 72.3 -0.3 M64.6 -0.3 L64.6 4.7 64.7 4.95 64.95 5.15 65.25 5.15 65.5 5.0 67.55 2.55 68.5 2.55 66.85 4.45 Q66.7 4.55 66.7 4.75 L66.75 5.05 68.95 9.05 68.1 9.05 66.45 5.95 66.2 5.75 65.9 5.7 Q65.7 5.7 65.6 5.85 L64.75 6.85 Q64.6 6.95 64.6 7.15 L64.6 9.05 63.75 9.05 63.75 -0.3 64.6 -0.3 M91.55 4.2 L91.3 3.95 86.95 2.15 86.95 1.25 92.65 3.9 92.65 4.95 86.95 7.6 86.95 6.7 91.3 4.85 91.6 4.6 91.55 4.2 M77.6 2.6 L78.6 2.4 Q79.55 2.35 80.3 3.2 81.05 4.1 81.05 5.75 81.05 7.4 80.3 8.35 79.55 9.2 78.6 9.2 L77.75 9.0 77.7 9.0 76.85 8.3 76.6 8.15 76.3 8.15 76.1 8.35 76.0 8.6 76.0 11.9 75.15 11.9 75.15 2.55 75.9 2.55 75.9 3.15 76.0 3.45 76.25 3.6 76.6 3.6 76.7 3.55 76.55 3.7 Q76.0 4.35 76.0 5.65 76.0 7.1 76.6 7.85 L76.6 7.8 Q77.15 8.65 78.1 8.65 79.0 8.65 79.6 7.9 80.15 7.2 80.15 5.75 80.15 4.35 79.55 3.7 78.95 2.9 78.1 2.95 77.3 2.9 76.75 3.5 L76.8 3.4 Q77.05 2.95 77.55 2.65 L77.6 2.6 M72.3 2.55 L72.3 9.05 71.4 9.05 71.4 2.55 72.3 2.55 M61.15 7.2 Q61.15 8.0 60.55 8.6 59.85 9.2 58.45 9.2 57.2 9.2 56.5 8.7 L55.8 7.8 56.65 7.7 57.1 8.35 57.1 8.4 Q57.6 8.8 58.45 8.8 59.4 8.8 59.9 8.4 L59.9 8.35 Q60.3 8.0 60.3 7.5 L60.3 7.45 Q60.3 6.9 60.0 6.7 59.75 6.5 59.15 6.35 L59.15 6.4 56.45 5.45 Q55.85 4.95 55.85 4.15 55.85 3.4 56.45 2.9 L56.4 2.9 Q57.0 2.35 58.3 2.4 59.55 2.35 60.2 2.75 L60.8 3.5 60.0 3.65 59.55 3.15 Q59.15 2.75 58.35 2.8 L57.05 3.05 56.95 3.1 Q56.6 3.4 56.6 3.9 L56.6 3.95 56.85 4.6 56.95 4.65 58.85 5.3 Q60.2 5.65 60.75 6.1 61.15 6.45 61.15 7.2 M50.0 5.75 Q49.95 7.25 49.1 8.3 L49.1 8.25 Q48.2 9.2 46.85 9.2 L45.25 8.8 Q44.5 8.4 44.15 7.65 43.7 6.8 43.7 5.65 43.7 4.8 44.15 3.95 44.5 3.15 45.2 2.75 L45.2 2.8 Q45.95 2.35 46.85 2.4 48.2 2.35 49.1 3.3 49.95 4.25 50.0 5.75 M48.45 3.75 Q47.8 3.0 46.85 3.0 45.9 2.95 45.25 3.75 44.65 4.45 44.65 5.75 44.65 7.1 45.25 7.75 L45.25 7.8 Q45.9 8.6 46.85 8.6 47.8 8.55 48.45 7.75 L48.45 7.8 Q49.1 7.1 49.1 5.75 49.1 4.45 48.45 3.75 M40.7 2.4 L41.05 2.55 41.9 2.55 41.9 3.1 41.05 3.1 Q40.85 3.1 40.7 3.25 40.55 3.35 40.55 3.6 L40.55 6.65 40.65 7.9 41.05 8.4 41.6 8.55 41.95 8.5 42.0 9.1 41.0 9.2 40.35 9.1 40.0 8.85 40.0 8.8 39.75 8.25 39.7 6.9 39.7 3.6 39.55 3.25 Q39.4 3.1 39.2 3.1 L38.85 3.1 38.85 2.55 39.2 2.55 39.55 2.4 39.7 2.05 39.7 0.8 40.55 0.3 40.55 2.05 40.7 2.4 M30.55 0.45 L29.05 0.4 27.5 0.4 Q27.3 0.4 27.15 0.55 L27.0 0.9 27.0 3.55 27.15 3.9 27.5 4.05 28.95 4.05 30.85 3.9 30.9 3.9 Q31.45 3.65 31.7 3.2 L31.7 3.25 32.0 2.2 31.6 1.05 Q31.25 0.6 30.55 0.45 M21.35 5.3 L20.0 1.4 19.85 1.15 19.55 1.05 19.25 1.15 19.05 1.4 17.75 5.3 17.75 5.6 17.9 5.85 18.2 5.95 20.9 5.95 21.2 5.85 21.35 5.6 21.35 5.3 M10.75 0.45 L9.0 0.4 7.85 0.4 Q7.65 0.4 7.5 0.55 L7.35 0.9 7.35 3.3 7.5 3.65 7.85 3.8 9.2 3.8 10.6 3.8 10.7 3.8 Q11.35 3.65 11.75 3.2 L11.7 3.2 Q12.15 2.75 12.15 2.1 12.15 1.35 11.8 1.0 11.45 0.55 10.75 0.45 M12.2 5.35 Q11.9 4.85 11.35 4.7 L11.4 4.7 9.5 4.55 7.85 4.55 Q7.65 4.55 7.5 4.7 7.35 4.8 7.35 5.05 L7.35 7.8 7.5 8.15 7.85 8.3 9.65 8.3 11.1 8.25 11.15 8.2 12.15 7.65 12.1 7.65 Q12.55 7.2 12.55 6.45 L12.25 5.45 12.2 5.35 M3.15 4.5 L-1.2 4.5 Q-1.45 4.5 -1.55 4.65 L-1.7 5.0 -1.7 7.8 -1.55 8.15 -1.2 8.3 3.75 8.3 3.75 9.05 -2.7 9.05 -2.7 -0.3 3.55 -0.3 3.55 0.4 -1.2 0.4 Q-1.45 0.4 -1.55 0.55 L-1.7 0.9 -1.7 3.25 -1.55 3.6 -1.2 3.75 3.15 3.75 3.15 4.5 M-76.55 -0.2 L-75.45 0.6 -75.45 0.65 Q-74.95 1.3 -74.95 2.35 -74.95 3.2 -75.25 3.75 L-75.9 4.55 -75.9 4.6 -76.7 5.0 -78.7 5.1 -79.95 5.1 Q-80.15 5.1 -80.3 5.25 L-80.45 5.6 -80.45 9.05 -81.45 9.05 -81.45 -0.3 -78.8 -0.3 -76.55 -0.2 M-35.25 4.25 L-34.4 5.15 Q-34.1 5.7 -34.1 6.55 -34.1 7.25 -34.45 7.95 L-34.45 7.9 Q-34.85 8.55 -35.6 8.9 L-37.45 9.25 Q-39.1 9.25 -40.0 8.45 -40.7 7.75 -40.95 6.6 L-40.0 6.5 -39.2 7.85 Q-38.55 8.4 -37.45 8.45 -36.3 8.45 -35.7 7.9 -35.0 7.3 -35.0 6.55 -35.05 6.0 -35.3 5.6 L-35.35 5.55 Q-35.65 5.25 -36.25 5.0 L-36.3 5.0 -37.9 4.5 -37.95 4.5 Q-39.35 4.15 -39.9 3.6 -40.7 2.9 -40.65 1.9 L-40.3 0.65 Q-39.95 0.1 -39.3 -0.2 L-37.55 -0.5 Q-36.0 -0.5 -35.2 0.25 L-35.15 0.25 Q-34.6 0.8 -34.4 1.65 L-35.4 1.7 Q-35.65 1.0 -36.05 0.7 L-36.05 0.65 Q-36.6 0.25 -37.6 0.25 -38.7 0.25 -39.3 0.7 L-39.35 0.75 Q-39.8 1.15 -39.75 1.75 -39.8 2.25 -39.35 2.75 L-39.3 2.8 -37.3 3.55 -35.25 4.25 M-28.75 -0.3 L-26.6 -0.2 -26.55 -0.2 -25.45 0.6 -25.45 0.65 Q-24.95 1.3 -24.95 2.35 -24.95 3.15 -25.25 3.7 L-25.25 3.75 -25.9 4.55 -25.9 4.6 -26.7 5.0 -28.65 5.1 -29.95 5.1 -30.3 5.25 -30.45 5.6 -30.45 9.05 -31.45 9.05 -31.45 -0.3 -28.75 -0.3 M-18.3 -0.3 L-14.75 9.05 -15.85 9.05 -16.55 7.0 -16.7 6.75 -17.0 6.65 -20.95 6.65 -21.25 6.75 -21.4 7.0 -22.05 9.05 -23.1 9.05 -19.65 -0.3 -18.3 -0.3 M-8.9 0.3 Q-10.2 0.25 -11.0 1.3 L-11.05 1.3 Q-11.85 2.2 -11.8 4.3 -11.8 6.45 -11.05 7.4 L-11.0 7.45 Q-10.25 8.4 -8.95 8.45 -8.0 8.4 -7.25 7.8 L-7.25 7.75 Q-6.7 7.25 -6.4 6.35 L-5.45 6.7 Q-5.9 7.9 -6.65 8.5 L-6.6 8.5 Q-7.55 9.2 -8.9 9.2 -10.65 9.2 -11.75 8.0 -12.9 6.7 -12.85 4.45 -12.9 2.1 -11.75 0.75 -10.6 -0.55 -8.8 -0.5 -7.25 -0.55 -6.25 0.45 -5.85 0.9 -5.55 1.7 L-6.5 1.9 Q-6.75 1.25 -7.25 0.85 L-7.25 0.9 Q-7.95 0.3 -8.9 0.3 M-18.55 1.4 L-18.75 1.15 -19.0 1.05 -19.3 1.15 -19.5 1.4 -20.8 5.3 -20.8 5.6 -20.6 5.85 -20.3 5.95 -17.65 5.95 -17.35 5.85 -17.15 5.6 -17.15 5.3 -18.55 1.4 M-26.4 1.15 L-26.45 1.1 -27.45 0.5 -27.45 0.55 -29.0 0.4 -29.95 0.4 -30.3 0.55 -30.45 0.9 -30.45 3.85 -30.3 4.2 -29.95 4.35 -28.85 4.35 -27.1 4.15 -27.15 4.15 Q-26.6 3.95 -26.25 3.45 -26.0 3.05 -26.0 2.4 -26.0 1.65 -26.4 1.15 M-48.6 3.1 Q-49.0 2.75 -49.75 2.8 -50.7 2.75 -51.1 3.05 L-51.15 3.1 Q-51.55 3.4 -51.55 3.9 L-51.25 4.6 -51.2 4.65 -49.25 5.3 Q-47.9 5.65 -47.35 6.1 -46.95 6.45 -46.95 7.2 -47.0 8.0 -47.6 8.6 L-47.55 8.6 Q-48.3 9.2 -49.65 9.2 -50.95 9.2 -51.65 8.7 L-52.35 7.8 -51.5 7.7 -51.05 8.35 -51.0 8.4 Q-50.5 8.8 -49.65 8.8 -48.75 8.8 -48.2 8.4 L-48.2 8.35 Q-47.8 8.0 -47.8 7.45 -47.85 6.95 -48.1 6.75 -48.3 6.5 -49.0 6.35 L-48.95 6.4 -51.7 5.45 Q-52.3 4.95 -52.3 4.15 -52.3 3.4 -51.7 2.9 -51.1 2.35 -49.8 2.4 L-47.95 2.75 Q-47.6 3.05 -47.35 3.5 L-48.15 3.65 -48.6 3.1 M-54.95 3.5 L-55.7 3.65 -56.2 3.1 Q-56.6 2.75 -57.35 2.8 -58.25 2.75 -58.65 3.05 L-58.75 3.1 Q-59.1 3.4 -59.1 3.9 L-58.8 4.6 -58.75 4.65 -56.85 5.3 Q-55.5 5.65 -54.95 6.1 -54.55 6.45 -54.55 7.2 -54.55 8.0 -55.15 8.6 -55.85 9.2 -57.25 9.2 -58.5 9.2 -59.25 8.7 L-59.95 7.8 -59.1 7.7 -58.6 8.35 -58.6 8.4 Q-58.1 8.8 -57.25 8.8 -56.3 8.8 -55.8 8.35 -55.4 8.0 -55.4 7.45 -55.4 6.95 -55.65 6.75 -55.85 6.5 -56.55 6.35 L-56.55 6.4 -59.25 5.45 Q-59.9 4.95 -59.85 4.15 -59.85 3.4 -59.3 2.9 -58.7 2.35 -57.4 2.4 -56.15 2.35 -55.55 2.75 L-54.95 3.5 M-63.4 3.55 L-63.4 3.5 Q-63.95 2.85 -64.75 2.9 -65.6 2.9 -66.15 3.55 -66.65 4.1 -66.65 5.15 L-66.5 5.5 -66.15 5.65 -63.35 5.65 -63.0 5.5 -62.85 5.15 Q-62.9 4.05 -63.4 3.55 M-62.75 3.3 Q-62.1 4.15 -62.0 5.85 L-66.2 5.85 -66.45 5.9 -66.65 6.1 -66.7 6.35 Q-66.65 7.5 -66.1 8.1 L-66.1 8.05 Q-65.6 8.75 -64.65 8.75 -64.0 8.75 -63.55 8.35 L-63.6 8.35 -63.15 7.75 -62.3 7.85 -63.05 8.75 Q-63.7 9.2 -64.7 9.2 -66.25 9.2 -67.0 8.2 -67.6 7.25 -67.6 5.8 -67.6 4.15 -66.8 3.25 -66.05 2.35 -64.9 2.4 -63.55 2.35 -62.75 3.3 M-69.6 2.4 L-68.95 2.5 -69.2 3.25 -69.8 3.15 Q-70.35 3.15 -70.75 3.45 L-70.8 3.5 Q-71.2 3.8 -71.4 4.55 L-71.4 4.6 -71.55 7.2 -71.55 9.05 -72.45 9.05 -72.45 2.55 -71.7 2.55 -71.7 3.05 -71.6 3.35 -71.3 3.55 -71.0 3.55 -70.75 3.3 -70.1 2.5 -69.6 2.4 M-76.45 1.1 Q-76.9 0.65 -77.45 0.5 L-77.45 0.55 -79.0 0.4 -79.95 0.4 Q-80.15 0.4 -80.3 0.55 L-80.45 0.9 -80.45 3.85 -80.3 4.2 -79.95 4.35 -78.85 4.35 -77.1 4.15 -77.15 4.15 -76.25 3.45 Q-76.0 3.05 -76.0 2.4 -76.0 1.65 -76.4 1.15 L-76.45 1.1 M-87.9 2.15 L-92.15 3.9 -92.45 4.15 -92.45 4.55 -92.2 4.8 -87.9 6.65 -87.9 7.55 Q-90.7 6.25 -93.55 4.9 L-93.55 3.85 -87.9 1.25 -87.9 2.15" fill="#ffffff" fill-rule="evenodd" stroke="none"/>
  </g>
</svg>
