<?xml version="1.0" encoding="UTF-8" standalone="no"?>
<svg xmlns:ffdec="https://www.free-decompiler.com/flash" xmlns:xlink="http://www.w3.org/1999/xlink" ffdec:objectType="shape" height="47.7px" width="178.5px" xmlns="http://www.w3.org/2000/svg">
  <g transform="matrix(1.0, 0.0, 0.0, 1.0, 131.15, 100.85)">
    <path d="M43.5 -88.15 Q45.55 -87.35 46.45 -86.2 47.35 -85.05 47.35 -83.4 47.35 -81.2 45.75 -79.95 44.15 -78.7 41.35 -78.7 L38.85 -78.95 Q37.9 -79.2 36.4 -80.0 L37.7 -82.95 Q39.35 -81.6 41.4 -81.6 43.55 -81.6 43.55 -83.15 43.55 -84.05 42.9 -84.6 42.25 -85.2 40.4 -85.95 36.35 -87.65 36.35 -90.65 36.35 -92.7 37.9 -93.85 39.45 -95.0 41.85 -95.0 44.3 -95.0 46.45 -93.9 L45.4 -91.05 Q44.2 -92.05 42.1 -92.05 40.15 -92.05 40.15 -90.55 40.15 -89.95 40.8 -89.45 41.4 -89.0 43.5 -88.15 M34.45 -87.75 L34.15 -85.7 22.95 -85.7 Q23.05 -83.85 24.2 -82.8 25.4 -81.75 27.4 -81.75 29.9 -81.75 31.2 -83.05 L32.65 -80.25 Q30.7 -78.7 26.85 -78.7 23.3 -78.7 21.2 -80.8 19.1 -82.9 19.1 -86.7 19.1 -90.4 21.4 -92.7 23.7 -95.0 26.9 -95.0 30.3 -95.0 32.35 -92.95 34.45 -90.9 34.45 -87.75 M23.05 -88.5 L30.75 -88.5 Q30.4 -91.9 26.95 -91.9 23.8 -91.9 23.05 -88.5 M16.15 -89.35 L16.15 -79.0 12.5 -79.0 12.5 -88.85 Q12.5 -91.9 9.7 -91.9 L8.15 -91.45 7.05 -90.3 7.05 -79.0 3.4 -79.0 3.4 -89.4 Q3.4 -90.55 2.7 -91.25 1.95 -91.9 0.65 -91.9 L-0.8 -91.4 -2.0 -90.3 -2.0 -79.0 -5.65 -79.0 -5.65 -94.7 -3.15 -94.7 -2.4 -93.3 Q-0.9 -95.0 1.55 -95.0 4.65 -95.0 6.25 -93.3 6.95 -94.05 8.15 -94.5 L10.6 -95.0 Q13.25 -95.0 14.7 -93.45 16.15 -92.0 16.15 -89.35 M-120.9 -100.75 L-112.25 -79.0 -116.5 -79.0 -118.05 -83.35 -125.4 -83.35 -126.9 -79.0 -131.15 -79.0 -122.55 -100.75 -120.9 -100.75 M-89.05 -91.25 Q-89.8 -91.9 -91.1 -91.9 -91.75 -91.9 -92.55 -91.4 -93.4 -90.9 -93.75 -90.3 L-93.75 -79.0 -97.4 -79.0 -97.4 -94.7 -94.9 -94.7 -94.15 -93.3 Q-92.65 -95.0 -90.2 -95.0 -87.1 -95.0 -85.5 -93.3 -84.8 -94.05 -83.6 -94.5 L-81.15 -95.0 Q-78.5 -95.0 -77.05 -93.45 -75.6 -92.0 -75.6 -89.35 L-75.6 -79.0 -79.25 -79.0 -79.25 -88.85 Q-79.25 -91.9 -82.05 -91.9 L-83.6 -91.45 -84.7 -90.3 -84.7 -79.0 -88.35 -79.0 -88.35 -89.4 Q-88.35 -90.55 -89.05 -91.25 M-101.15 -91.3 Q-102.15 -91.9 -103.3 -91.9 -104.6 -91.9 -105.55 -90.75 -106.55 -89.6 -106.55 -87.95 L-106.55 -79.0 -110.2 -79.0 -110.2 -94.7 -106.55 -94.7 -106.55 -93.25 Q-105.0 -95.0 -102.45 -95.0 -100.6 -95.0 -99.6 -94.4 L-101.15 -91.3 M-101.9 -63.7 L-102.45 -62.25 Q-103.05 -62.8 -104.1 -62.8 -105.05 -62.8 -105.05 -62.0 L-104.75 -61.5 -103.4 -60.85 Q-102.35 -60.4 -101.9 -59.85 -101.45 -59.25 -101.45 -58.45 -101.45 -57.35 -102.25 -56.75 -103.1 -56.1 -104.5 -56.1 L-105.75 -56.25 Q-106.2 -56.35 -106.95 -56.75 L-106.3 -58.2 Q-105.45 -57.55 -104.45 -57.55 -103.35 -57.55 -103.35 -58.3 -103.35 -58.75 -103.7 -59.05 L-104.95 -59.75 Q-106.95 -60.55 -106.95 -62.1 -106.95 -63.1 -106.2 -63.65 -105.4 -64.25 -104.2 -64.25 -103.0 -64.25 -101.9 -63.7 M-111.7 -64.25 Q-109.95 -64.25 -108.95 -63.2 -107.9 -62.2 -107.9 -60.65 L-108.05 -59.6 -113.65 -59.6 Q-113.6 -58.65 -113.0 -58.15 -112.4 -57.65 -111.4 -57.65 -110.15 -57.65 -109.5 -58.3 L-108.8 -56.9 Q-109.75 -56.1 -111.7 -56.1 -113.5 -56.1 -114.55 -57.15 -115.55 -58.2 -115.55 -60.1 -115.55 -61.95 -114.4 -63.1 -113.3 -64.25 -111.7 -64.25 M-116.15 -63.95 L-116.95 -62.4 -118.0 -62.7 Q-118.65 -62.7 -119.15 -62.15 -119.65 -61.55 -119.65 -60.7 L-119.65 -56.25 -121.45 -56.25 -121.45 -64.1 -119.65 -64.1 -119.65 -63.4 Q-118.85 -64.25 -117.6 -64.25 L-116.15 -63.95 M-111.65 -62.7 Q-113.2 -62.7 -113.6 -61.0 L-109.75 -61.0 Q-109.95 -62.7 -111.65 -62.7 M-89.6 -61.9 L-89.6 -56.25 -91.4 -56.25 -91.4 -64.1 -90.1 -64.1 -89.75 -63.35 Q-89.0 -64.25 -87.55 -64.25 -86.15 -64.25 -85.35 -63.4 -84.55 -62.55 -84.55 -61.05 L-84.55 -56.25 -86.35 -56.25 -86.35 -60.8 Q-86.35 -61.8 -86.75 -62.25 -87.15 -62.7 -88.0 -62.7 L-88.85 -62.5 -89.6 -61.9 M-83.2 -64.1 L-82.3 -64.1 -82.3 -65.7 -80.45 -66.35 -80.45 -64.1 -78.3 -64.1 -78.3 -62.6 -80.45 -62.6 -80.45 -59.2 -80.2 -58.0 Q-79.9 -57.65 -79.25 -57.65 -78.6 -57.65 -78.05 -58.0 L-78.05 -56.3 -79.85 -56.1 Q-81.0 -56.1 -81.65 -56.75 -82.3 -57.45 -82.3 -58.65 L-82.3 -62.6 -83.2 -62.6 -83.2 -64.1 M-93.9 -63.2 Q-92.85 -62.2 -92.85 -60.65 L-93.0 -59.6 -98.6 -59.6 Q-98.55 -58.65 -97.95 -58.15 -97.35 -57.65 -96.35 -57.65 -95.1 -57.65 -94.45 -58.3 L-93.75 -56.9 Q-94.7 -56.1 -96.65 -56.1 -98.45 -56.1 -99.5 -57.15 -100.5 -58.2 -100.5 -60.1 -100.5 -61.95 -99.35 -63.1 -98.25 -64.25 -96.65 -64.25 -94.9 -64.25 -93.9 -63.2 M-94.7 -61.0 Q-94.9 -62.7 -96.6 -62.7 -98.15 -62.7 -98.55 -61.0 L-94.7 -61.0 M-124.3 -86.25 L-119.15 -86.25 -121.75 -94.2 -124.3 -86.25 M-126.85 -64.25 Q-123.1 -64.25 -123.1 -60.1 -123.1 -58.2 -124.1 -57.15 -125.15 -56.1 -126.95 -56.1 -127.8 -56.1 -128.55 -56.45 L-128.55 -53.15 -130.35 -53.15 -130.35 -64.1 -128.55 -64.1 -128.55 -63.55 Q-127.85 -64.25 -126.85 -64.25 M-127.35 -62.7 Q-128.0 -62.7 -128.55 -62.2 L-128.55 -58.05 Q-128.05 -57.65 -127.35 -57.65 -126.1 -57.65 -125.55 -58.25 -125.0 -58.85 -125.0 -60.15 -125.0 -61.55 -125.55 -62.1 -126.1 -62.7 -127.35 -62.7 M-13.3 -89.15 Q-13.3 -91.9 -16.8 -91.9 -18.9 -91.9 -20.3 -91.25 L-21.05 -94.05 Q-19.2 -95.0 -16.55 -95.0 -13.0 -95.0 -11.3 -93.35 -9.65 -91.7 -9.65 -87.15 L-9.65 -83.8 Q-9.65 -80.65 -8.4 -79.85 -8.85 -79.05 -9.4 -78.9 L-10.65 -78.7 Q-11.45 -78.7 -12.1 -79.3 L-12.95 -80.55 Q-13.45 -79.75 -14.65 -79.2 -15.9 -78.7 -17.25 -78.7 -19.8 -78.7 -21.25 -79.95 -22.7 -81.25 -22.7 -83.55 -22.7 -86.3 -20.65 -87.85 -18.6 -89.35 -14.85 -89.35 L-13.3 -89.15 M-13.3 -86.4 L-14.7 -86.55 Q-19.05 -86.55 -19.05 -83.75 -19.05 -81.6 -16.6 -81.6 -13.3 -81.6 -13.3 -84.9 L-13.3 -86.4 M-29.45 -96.85 Q-30.85 -97.45 -31.85 -97.45 -35.0 -97.45 -36.85 -95.3 -38.65 -93.15 -38.65 -89.55 -38.65 -86.1 -36.85 -84.05 -35.1 -82.0 -32.0 -82.0 -29.95 -82.0 -28.65 -83.15 L-28.65 -87.35 -31.6 -87.35 -31.6 -90.6 -24.85 -90.6 -24.85 -81.0 Q-26.2 -79.9 -28.35 -79.25 L-32.6 -78.65 Q-37.2 -78.65 -39.9 -81.65 -42.65 -84.7 -42.65 -89.65 -42.65 -94.6 -39.7 -97.7 -36.75 -100.85 -31.75 -100.85 -28.25 -100.85 -25.75 -98.7 L-27.35 -95.65 Q-28.0 -96.25 -29.45 -96.85 M-49.95 -90.75 Q-50.95 -89.6 -50.95 -87.95 L-50.95 -79.0 -54.6 -79.0 -54.6 -94.7 -50.95 -94.7 -50.95 -93.25 Q-49.4 -95.0 -46.85 -95.0 -45.0 -95.0 -44.0 -94.4 L-45.55 -91.3 Q-46.55 -91.9 -47.7 -91.9 -49.0 -91.9 -49.95 -90.75 M-57.55 -86.9 Q-57.55 -83.15 -59.6 -80.9 -61.6 -78.7 -65.1 -78.7 -68.7 -78.7 -70.65 -80.95 -72.65 -83.15 -72.65 -86.9 -72.65 -90.45 -70.55 -92.75 -68.5 -95.0 -65.1 -95.0 -61.55 -95.0 -59.55 -92.8 -57.55 -90.65 -57.55 -86.9 M-68.85 -86.9 Q-68.85 -81.7 -65.1 -81.7 -63.4 -81.7 -62.4 -83.05 -61.4 -84.4 -61.4 -86.9 -61.4 -92.0 -65.1 -92.0 -66.8 -92.0 -67.85 -90.65 -68.85 -89.3 -68.85 -86.9" fill="#d99d9d" fill-rule="evenodd" stroke="none"/>
  </g>
</svg>
