<?xml version="1.0" encoding="UTF-8" standalone="no"?>
<svg xmlns:ffdec="https://www.free-decompiler.com/flash" xmlns:xlink="http://www.w3.org/1999/xlink" ffdec:objectType="shape" height="47.6px" width="130.8px" xmlns="http://www.w3.org/2000/svg">
  <g transform="matrix(1.0, 0.0, 0.0, 1.0, 47.6, 184.5)">
    <path d="M81.65 -149.55 Q80.65 -150.15 79.5 -150.15 78.2 -150.15 77.25 -149.0 76.25 -147.85 76.25 -146.2 L76.25 -137.25 72.6 -137.25 72.6 -152.95 76.25 -152.95 76.25 -151.5 Q77.8 -153.25 80.35 -153.25 82.2 -153.25 83.2 -152.65 L81.65 -149.55 M82.3 -174.6 Q81.55 -174.15 81.0 -174.05 L79.7 -173.9 Q78.0 -173.9 77.05 -174.9 76.05 -175.9 76.05 -177.65 76.05 -179.4 77.1 -180.45 78.2 -181.5 80.05 -181.5 81.3 -181.5 82.25 -180.8 L81.55 -179.5 Q80.95 -180.1 79.9 -180.1 78.95 -180.1 78.4 -179.45 77.8 -178.8 77.8 -177.65 77.8 -175.35 80.0 -175.35 80.95 -175.35 81.7 -175.95 L82.3 -174.6 M68.45 -180.15 Q67.55 -180.15 67.55 -179.45 67.55 -179.15 67.85 -178.95 68.15 -178.7 69.1 -178.3 70.1 -177.95 70.5 -177.4 70.95 -176.85 70.95 -176.1 70.95 -175.1 70.2 -174.5 69.4 -173.9 68.15 -173.9 L66.95 -174.05 Q66.5 -174.15 65.8 -174.5 L66.45 -175.9 Q67.2 -175.25 68.15 -175.25 69.15 -175.25 69.15 -176.0 L68.85 -176.65 67.7 -177.3 Q65.8 -178.1 65.8 -179.5 65.8 -180.45 66.5 -180.95 67.25 -181.5 68.35 -181.5 L70.5 -181.0 70.05 -179.65 Q69.45 -180.15 68.45 -180.15 M64.45 -181.35 L64.45 -174.05 62.75 -174.05 62.75 -174.65 Q62.4 -174.35 61.75 -174.15 L60.55 -173.9 Q58.0 -173.9 58.0 -176.6 L58.0 -181.35 59.75 -181.35 59.75 -176.75 Q59.75 -175.35 61.0 -175.35 L62.1 -175.65 62.75 -176.35 62.75 -181.35 64.45 -181.35 M74.35 -183.9 L74.65 -183.2 74.35 -182.5 Q74.05 -182.25 73.65 -182.25 73.25 -182.25 72.95 -182.5 72.65 -182.8 72.65 -183.2 72.65 -183.65 72.95 -183.9 L73.65 -184.2 Q74.05 -184.2 74.35 -183.9 M71.85 -181.35 L74.5 -181.35 74.5 -174.05 72.8 -174.05 72.8 -179.95 71.85 -179.95 71.85 -181.35 M47.5 -180.75 Q48.2 -181.5 49.35 -181.5 50.8 -181.5 51.55 -180.7 51.85 -181.1 52.45 -181.3 L53.55 -181.5 Q54.8 -181.5 55.5 -180.8 56.15 -180.1 56.15 -178.9 L56.15 -174.05 54.45 -174.05 54.45 -178.65 Q54.45 -180.1 53.15 -180.1 L52.4 -179.85 51.9 -179.35 51.9 -174.05 50.2 -174.05 50.2 -178.9 49.9 -179.75 Q49.55 -180.1 48.95 -180.1 L48.25 -179.85 47.7 -179.3 47.7 -174.05 45.95 -174.05 45.95 -181.35 47.15 -181.35 47.5 -180.75 M54.2 -156.2 Q56.6 -153.35 56.6 -148.15 56.6 -143.0 54.05 -139.95 51.5 -136.9 46.8 -136.9 42.5 -136.9 40.2 -139.9 37.85 -142.9 37.85 -148.15 37.85 -152.75 40.4 -155.9 42.9 -159.1 47.1 -159.1 51.75 -159.1 54.2 -156.2 M43.2 -153.65 Q41.85 -151.6 41.85 -148.15 41.85 -144.4 43.1 -142.35 44.4 -140.25 46.8 -140.25 49.65 -140.25 51.15 -142.3 52.65 -144.3 52.65 -148.15 52.65 -155.7 47.1 -155.7 44.55 -155.7 43.2 -153.65 M70.4 -152.65 L68.85 -149.55 Q67.85 -150.15 66.7 -150.15 65.4 -150.15 64.45 -149.0 63.45 -147.85 63.45 -146.2 L63.45 -137.25 59.8 -137.25 59.8 -152.95 63.45 -152.95 63.45 -151.5 Q65.0 -153.25 67.55 -153.25 69.4 -153.25 70.4 -152.65 M29.0 -181.5 Q30.3 -181.5 31.05 -180.7 31.8 -179.95 31.8 -178.55 L31.8 -174.05 30.1 -174.05 30.1 -178.3 Q30.1 -179.2 29.75 -179.65 29.35 -180.1 28.55 -180.1 L27.75 -179.85 27.1 -179.35 27.1 -174.05 25.35 -174.05 25.35 -181.35 26.6 -181.35 26.9 -180.7 Q27.6 -181.5 29.0 -181.5 M22.75 -180.75 Q23.55 -180.0 23.55 -177.85 L23.55 -176.3 Q23.55 -174.85 24.1 -174.45 L23.65 -174.0 23.05 -173.9 Q22.7 -173.9 22.4 -174.2 L22.0 -174.8 21.2 -174.15 20.0 -173.9 Q18.8 -173.9 18.1 -174.5 17.45 -175.1 17.45 -176.2 17.45 -177.45 18.4 -178.15 19.35 -178.9 21.1 -178.9 L21.8 -178.8 Q21.8 -180.1 20.2 -180.1 L18.55 -179.75 18.2 -181.1 20.3 -181.5 Q22.0 -181.5 22.75 -180.75 M21.2 -177.6 Q19.15 -177.6 19.15 -176.25 19.15 -175.25 20.3 -175.25 21.85 -175.25 21.85 -176.8 L21.85 -177.5 21.2 -177.6 M35.6 -179.45 Q35.05 -178.8 35.05 -177.65 35.05 -175.35 37.25 -175.35 L37.85 -175.5 38.35 -175.8 38.35 -179.6 Q37.8 -180.05 37.2 -180.05 36.15 -180.05 35.6 -179.45 M38.35 -184.1 L40.05 -184.5 40.05 -174.05 38.35 -174.05 38.35 -174.5 Q38.1 -174.25 37.6 -174.1 L36.55 -173.9 Q35.05 -173.9 34.15 -174.9 33.3 -175.85 33.3 -177.6 33.3 -179.35 34.3 -180.4 35.3 -181.5 36.8 -181.5 L38.35 -181.15 38.35 -184.1 M8.75 -181.5 L10.3 -181.15 10.3 -184.1 12.0 -184.5 12.0 -174.05 10.3 -174.05 10.3 -174.5 Q10.05 -174.25 9.55 -174.1 L8.5 -173.9 Q7.0 -173.9 6.1 -174.9 5.25 -175.85 5.25 -177.6 5.25 -179.35 6.25 -180.4 7.25 -181.5 8.75 -181.5 M7.55 -179.45 Q7.0 -178.8 7.0 -177.65 7.0 -175.35 9.2 -175.35 L9.8 -175.5 10.3 -175.8 10.3 -179.6 9.15 -180.05 Q8.1 -180.05 7.55 -179.45 M3.0 -180.7 Q3.75 -179.95 3.75 -178.55 L3.75 -174.05 2.05 -174.05 2.05 -178.3 Q2.05 -179.2 1.7 -179.65 1.3 -180.1 0.5 -180.1 L-0.3 -179.85 -0.95 -179.35 -0.95 -174.05 -2.7 -174.05 -2.7 -181.35 -1.45 -181.35 -1.15 -180.7 Q-0.45 -181.5 0.95 -181.5 2.25 -181.5 3.0 -180.7 M7.65 -155.4 Q7.05 -154.75 6.15 -154.75 5.25 -154.75 4.65 -155.4 4.0 -156.0 4.0 -156.9 4.0 -157.75 4.65 -158.4 5.25 -159.0 6.15 -159.0 7.05 -159.0 7.65 -158.4 8.25 -157.75 8.25 -156.9 8.25 -156.0 7.65 -155.4 M2.25 -149.95 L2.25 -152.95 7.95 -152.95 7.95 -137.25 4.25 -137.25 4.25 -149.95 2.25 -149.95 M19.05 -153.25 Q20.85 -153.25 22.3 -152.5 L22.3 -158.8 26.0 -159.65 26.0 -137.25 22.3 -137.25 22.3 -138.2 20.8 -137.3 18.55 -136.95 Q15.25 -136.95 13.4 -139.05 11.5 -141.1 11.5 -144.85 11.5 -148.55 13.65 -150.9 15.8 -153.25 19.05 -153.25 M16.5 -148.8 Q15.3 -147.45 15.3 -144.95 15.3 -140.05 20.0 -140.05 20.55 -140.05 21.3 -140.35 L22.3 -141.0 22.3 -149.2 Q21.15 -150.15 19.85 -150.15 17.7 -150.15 16.5 -148.8 M-17.05 -179.5 Q-17.55 -178.85 -17.55 -177.75 -17.55 -175.3 -15.8 -175.3 -15.0 -175.3 -14.5 -175.95 -14.05 -176.55 -14.05 -177.75 -14.05 -180.1 -15.8 -180.1 -16.6 -180.1 -17.05 -179.5 M-15.8 -181.5 Q-14.1 -181.5 -13.2 -180.5 -12.25 -179.5 -12.25 -177.75 -12.25 -176.0 -13.2 -174.95 -14.15 -173.9 -15.8 -173.9 -17.45 -173.9 -18.4 -174.95 -19.3 -176.0 -19.3 -177.75 -19.3 -179.4 -18.35 -180.45 -17.35 -181.5 -15.8 -181.5 M-10.95 -181.35 L-9.2 -181.35 -9.2 -176.75 Q-9.2 -175.35 -7.95 -175.35 L-6.85 -175.65 Q-6.35 -175.95 -6.2 -176.35 L-6.2 -181.35 -4.5 -181.35 -4.5 -174.05 -6.2 -174.05 -6.2 -174.65 Q-6.55 -174.35 -7.2 -174.15 L-8.4 -173.9 Q-10.95 -173.9 -10.95 -176.6 L-10.95 -181.35 M-22.7 -180.15 Q-23.6 -180.15 -23.6 -179.45 L-23.3 -178.95 -22.05 -178.3 -20.65 -177.4 Q-20.2 -176.85 -20.2 -176.1 -20.2 -175.1 -20.95 -174.5 -21.75 -173.9 -23.0 -173.9 L-24.2 -174.05 Q-24.65 -174.15 -25.35 -174.5 L-24.7 -175.9 Q-23.95 -175.25 -23.0 -175.25 -22.0 -175.25 -22.0 -176.0 -22.0 -176.4 -22.3 -176.65 L-23.45 -177.3 Q-25.35 -178.1 -25.35 -179.5 -25.35 -180.45 -24.65 -180.95 -23.9 -181.5 -22.8 -181.5 -21.65 -181.5 -20.65 -181.0 L-21.1 -179.65 Q-21.7 -180.15 -22.7 -180.15 M-27.9 -152.3 Q-26.05 -153.25 -23.4 -153.25 -19.85 -153.25 -18.15 -151.6 -16.5 -149.95 -16.5 -145.4 L-16.5 -142.05 Q-16.5 -138.9 -15.25 -138.1 -15.7 -137.3 -16.25 -137.15 L-17.5 -136.95 Q-18.3 -136.95 -18.95 -137.55 L-19.8 -138.8 Q-20.3 -138.0 -21.5 -137.45 -22.75 -136.95 -24.1 -136.95 -26.65 -136.95 -28.1 -138.2 -29.55 -139.5 -29.55 -141.8 -29.55 -144.55 -27.5 -146.1 -25.45 -147.6 -21.7 -147.6 L-20.15 -147.4 Q-20.15 -150.15 -23.65 -150.15 L-27.15 -149.5 -27.9 -152.3 M-31.7 -148.8 Q-31.7 -137.25 -42.85 -137.25 L-47.6 -137.25 -47.6 -158.7 -41.9 -158.85 Q-37.2 -158.85 -34.45 -156.1 -31.7 -153.35 -31.7 -148.8 M-10.4 -152.95 L-6.65 -143.35 -2.65 -152.95 1.25 -152.95 -6.0 -136.95 -7.35 -136.95 -14.45 -152.95 -10.4 -152.95 M-43.8 -155.35 L-43.8 -140.7 -41.8 -140.65 Q-38.9 -140.65 -37.3 -142.75 -35.65 -144.8 -35.65 -148.6 -35.65 -155.45 -42.05 -155.45 L-43.8 -155.35 M-20.15 -144.65 L-21.55 -144.8 Q-25.9 -144.8 -25.9 -142.0 -25.9 -139.85 -23.45 -139.85 -20.15 -139.85 -20.15 -143.15 L-20.15 -144.65" fill="#d99d9d" fill-rule="evenodd" stroke="none"/>
  </g>
</svg>
