<?xml version="1.0" encoding="UTF-8" standalone="no"?>
<svg xmlns:ffdec="https://www.free-decompiler.com/flash" xmlns:xlink="http://www.w3.org/1999/xlink" ffdec:objectType="shape" height="169.6px" width="267.95px" xmlns="http://www.w3.org/2000/svg">
  <g transform="matrix(1.0, 0.0, 0.0, 1.0, 135.1, 80.1)">
    <path d="M126.05 -10.35 L127.9 -10.35 127.9 79.2 -135.1 79.2 -135.1 -10.35 -131.35 -10.35 126.05 -10.35" fill="url(#gradient0)" fill-rule="evenodd" stroke="none"/>
    <path d="M-131.35 -10.35 L-131.35 -80.1 126.05 -80.1 126.05 -10.35 -131.35 -10.35" fill="url(#gradient1)" fill-rule="evenodd" stroke="none"/>
    <path d="M34.55 -1.65 Q34.55 1.9 25.3 4.65 L4.95 9.75 -0.55 11.35 Q-0.2 12.3 -0.2 13.3 -0.2 18.05 -6.6 20.1 -10.35 21.3 -19.4 22.15 L-20.0 22.3 -20.7 22.5 Q-23.0 25.25 -24.0 28.45 -5.6 30.4 2.65 32.8 12.1 35.55 15.6 40.5 17.7 39.0 21.2 38.0 L29.2 36.05 Q34.1 34.85 36.65 33.6 L40.7 31.4 39.6 31.5 Q39.3 31.5 39.3 30.0 39.3 28.55 44.85 25.55 L44.85 25.25 44.5 21.85 28.1 22.05 12.8 21.5 13.1 20.55 Q13.3 19.8 11.6 19.0 12.75 15.2 22.35 10.6 30.25 6.8 39.55 5.5 39.0 3.55 38.8 2.25 39.05 1.9 38.95 1.4 L40.45 1.15 Q43.35 1.15 46.55 4.85 L49.15 4.75 Q56.3 4.65 61.8 0.05 L62.4 -0.45 59.6 -0.35 Q49.3 -0.35 34.45 -2.35 L34.55 -1.65 M67.9 -3.5 L75.8 -4.7 82.85 -6.25 89.4 -5.95 89.5 -6.05 Q92.0 -5.85 102.8 -5.9 112.3 -5.1 112.3 -0.35 L112.3 -0.1 Q114.5 1.25 115.65 2.85 123.4 13.35 132.4 19.0 L132.6 19.7 Q132.2 21.1 129.4 21.1 125.0 21.1 119.6 18.9 120.25 20.5 120.25 22.8 120.25 26.65 117.5 29.2 113.75 32.75 105.45 32.75 L97.25 32.0 93.85 34.05 Q96.5 35.3 100.35 35.9 L110.15 37.15 Q116.0 38.0 119.3 39.5 122.6 41.05 126.05 44.95 129.3 48.6 129.75 50.8 L131.55 56.65 Q132.85 60.65 132.85 62.2 132.85 65.5 129.55 67.85 126.25 70.15 121.6 70.15 118.25 70.15 118.25 66.85 118.25 66.55 121.3 64.65 124.3 62.75 124.3 61.75 124.3 52.35 117.9 47.45 113.4 44.0 103.85 42.0 L89.75 38.8 Q87.1 37.85 85.6 36.4 77.55 38.5 76.2 39.75 73.55 42.25 63.85 43.9 65.95 46.85 69.3 49.4 73.6 52.65 83.05 57.15 92.7 61.7 95.85 64.05 101.5 68.25 101.5 73.35 101.5 74.9 100.8 75.6 99.85 76.2 99.35 76.55 L98.2 76.55 Q97.75 76.15 97.8 75.75 L97.95 73.7 Q97.95 69.8 93.3 66.45 90.45 64.4 82.4 60.65 73.95 56.7 70.1 54.15 63.6 49.9 61.0 44.75 L60.8 44.35 47.95 45.8 Q40.15 46.8 33.75 48.65 L31.05 49.55 Q30.4 50.5 30.1 51.55 39.1 54.85 51.45 57.6 62.2 60.05 66.8 61.45 74.8 63.95 80.25 67.55 L77.2 70.5 78.55 70.8 Q90.65 74.5 97.95 80.35 98.9 81.2 96.5 81.2 94.4 81.2 80.3 76.6 L72.5 74.1 Q67.9 77.05 61.75 78.45 L69.35 73.15 Q61.3 70.65 57.0 69.7 40.4 65.9 36.6 64.5 26.1 60.65 25.25 54.95 L20.0 52.7 15.3 53.5 Q12.75 57.1 7.2 60.2 0.3 64.15 -9.75 65.85 -10.15 67.75 -10.9 70.3 -12.65 76.25 -12.9 78.85 -15.75 76.3 -15.75 75.4 -14.35 69.8 -13.7 66.4 L-33.45 67.05 Q-42.35 66.85 -63.7 69.75 L-73.6 71.25 -69.9 75.15 Q-67.0 78.3 -66.65 80.9 -66.5 82.25 -66.75 83.65 -66.6 84.4 -63.9 84.5 L-52.0 84.55 -49.4 85.0 Q-55.8 87.55 -58.15 89.15 L-65.9 89.5 -77.8 71.95 -78.65 72.1 Q-79.75 75.15 -81.9 75.15 -84.15 75.15 -85.0 73.45 -91.35 74.95 -94.05 76.55 -97.85 78.8 -105.6 80.3 -113.0 81.7 -120.15 81.7 -129.35 81.7 -131.45 69.05 -132.1 65.1 -131.95 60.3 L-131.65 56.15 Q-131.65 44.45 -130.7 34.55 -130.5 33.8 -129.05 33.25 -127.45 37.6 -127.05 45.65 -126.9 48.35 -126.85 59.85 -126.75 68.05 -126.1 71.5 -125.15 76.35 -122.55 76.35 L-115.9 76.1 Q-120.25 66.55 -120.8 64.65 -121.1 63.6 -121.1 55.55 -121.1 49.1 -120.6 46.3 -119.8 41.8 -117.2 38.75 -111.3 31.75 -90.25 26.8 -92.0 25.8 -107.95 19.25 -120.55 13.7 -122.6 10.85 -124.15 11.5 -124.95 12.75 L-126.1 14.95 Q-126.75 16.2 -127.65 16.7 L-123.95 10.65 -123.0 9.6 Q-122.85 6.6 -119.65 0.65 -116.25 -5.6 -114.0 -6.75 -112.55 -6.5 -111.85 -5.8 -112.5 -3.65 -116.1 0.2 -112.25 3.85 -108.25 6.2 -101.9 0.75 -83.35 -3.65 -54.5 -10.55 -13.65 -10.55 -2.7 -10.55 20.95 -6.85 44.55 -3.2 60.55 -3.2 L65.6 -3.35 71.6 -9.35 73.35 -8.4 Q70.95 -6.7 67.9 -3.5 M65.2 -0.6 L63.95 0.8 Q60.35 5.05 55.1 6.05 L48.5 7.4 Q50.65 10.55 52.9 15.4 L54.45 18.75 58.6 19.05 71.1 13.4 Q75.2 10.8 77.5 5.7 L78.05 4.3 Q77.65 3.05 77.65 1.65 77.65 -0.8 79.0 -1.9 L65.2 -0.6 M109.3 18.2 L96.4 14.95 Q87.65 12.8 83.5 10.35 81.05 8.95 79.65 7.2 76.1 13.85 74.9 14.8 72.9 16.45 65.75 19.9 L69.75 20.55 Q76.85 19.2 83.8 19.2 87.65 19.2 92.3 23.4 96.95 27.55 99.95 27.55 110.35 27.55 113.55 25.9 115.15 25.1 115.15 23.0 115.15 20.2 109.3 18.2 M107.45 12.05 L103.75 9.35 93.35 1.25 92.25 0.5 91.4 0.45 82.65 1.5 82.55 1.7 Q85.1 4.85 94.4 8.2 100.95 10.6 107.1 11.95 L107.45 12.05 M112.15 1.65 L111.85 1.9 97.35 0.8 104.75 6.95 Q111.8 12.2 121.6 15.4 117.65 12.65 115.95 9.05 114.65 5.25 113.8 3.65 L112.15 1.65 M85.0 24.2 L87.4 24.8 Q86.5 24.2 85.25 24.2 L85.0 24.2 M84.45 28.15 Q85.15 27.25 86.05 27.0 L78.55 24.4 Q67.35 25.1 58.05 28.25 59.6 32.85 60.8 37.6 L61.3 39.2 Q70.25 37.05 83.5 32.75 83.35 32.05 83.35 31.35 83.35 29.55 84.45 28.15 M88.25 27.8 Q88.65 29.35 89.6 30.7 L92.05 29.85 90.6 28.6 88.25 27.8 M65.65 20.95 L63.45 21.0 Q61.2 22.0 58.6 23.15 L56.6 24.05 56.65 24.2 Q61.95 22.25 67.15 21.1 L65.65 20.95 M42.3 14.2 L40.6 9.2 Q22.4 13.65 15.2 18.75 31.3 18.1 43.65 18.35 L42.3 14.2 M48.2 16.35 L48.55 18.5 49.4 18.5 48.2 16.35 M49.0 23.45 L51.3 22.35 50.95 21.6 48.9 21.7 49.0 23.45 M47.85 32.9 Q45.95 38.8 41.2 42.25 L47.95 41.2 Q51.9 41.25 58.75 39.8 L54.75 30.35 54.45 29.55 Q51.9 30.6 47.85 32.9 M18.55 46.45 L26.35 45.05 31.0 44.15 35.0 40.6 37.1 38.75 29.25 41.0 Q21.5 42.9 18.05 46.15 L18.55 46.45 M10.55 47.0 Q10.55 41.8 -19.75 36.1 L-24.5 35.25 Q-24.05 37.85 -22.3 40.25 L-17.0 45.85 -14.2 49.0 -10.9 49.0 10.5 47.6 10.55 47.0 M74.65 68.75 Q58.0 65.1 42.65 60.65 L31.4 57.15 Q34.5 60.4 43.85 62.95 51.15 64.9 61.35 66.5 L73.65 69.6 74.65 68.75 M30.0 -1.3 L-38.35 -3.4 Q-50.1 -3.4 -55.05 -1.5 -57.6 -0.55 -60.5 2.65 -63.15 5.55 -67.6 6.75 L-70.5 7.45 -67.45 7.95 Q-64.05 7.95 -52.15 4.55 -40.2 1.15 -29.2 1.15 -19.25 1.15 -10.3 4.4 -6.25 5.9 -3.85 7.6 L-2.4 7.15 Q2.0 5.85 17.2 2.95 27.5 1.0 30.0 -1.3 M-36.15 -7.35 L9.4 -6.1 Q-4.4 -7.95 -13.65 -7.95 -25.5 -7.95 -36.15 -7.35 M-14.85 11.95 L-19.55 11.25 Q-30.6 11.25 -50.1 16.9 -69.65 22.55 -73.0 22.55 L-81.6 21.9 -75.15 23.25 Q-51.8 23.25 -18.7 15.15 -16.7 13.5 -14.25 12.1 L-14.85 11.95 M-29.3 6.5 Q-42.2 6.5 -53.3 9.5 -64.4 12.45 -67.3 12.45 -72.15 12.45 -76.35 10.9 L-80.0 9.35 Q-82.65 9.35 -92.75 11.6 -92.35 12.1 -92.35 12.9 -92.35 14.05 -83.35 16.4 -74.95 18.6 -72.9 18.6 -70.25 18.6 -49.6 12.2 -36.05 8.0 -27.45 6.6 L-29.3 6.5 M-25.9 41.0 Q-28.25 37.95 -28.25 35.7 L-28.2 34.6 Q-42.3 32.3 -55.75 31.3 -57.15 33.0 -59.65 37.85 -62.7 43.8 -65.65 46.15 -73.2 52.2 -76.95 56.1 -72.55 53.65 -65.9 52.2 -52.6 49.35 -18.85 49.05 L-20.7 46.85 -25.9 41.0 M-25.6 23.7 Q-34.3 25.65 -41.2 26.1 L-45.0 26.6 -27.3 28.1 Q-26.65 25.8 -25.6 23.7 M-65.65 1.9 Q-59.4 -3.85 -52.4 -6.05 -70.7 -4.05 -84.9 0.0 -98.4 3.85 -104.7 8.05 L-101.45 9.3 -99.1 9.05 -96.05 8.2 Q-85.95 5.55 -79.05 5.55 L-77.15 5.85 Q-68.15 3.95 -65.65 1.9 M-60.45 30.95 L-77.75 30.4 Q-92.5 30.4 -107.45 39.5 -112.15 42.4 -113.6 47.25 -114.45 50.0 -114.45 55.8 -111.95 75.15 -108.85 75.15 -105.9 75.15 -99.4 72.55 L-88.1 67.8 -85.25 66.75 Q-84.9 64.6 -83.9 62.75 L-84.75 61.5 Q-84.75 57.7 -74.6 47.35 -62.8 35.3 -60.55 31.1 L-60.45 30.95 M-63.3 61.8 Q-49.45 62.4 -36.2 61.95 -23.7 61.55 -13.45 59.5 -13.85 57.55 -14.75 55.5 L-22.2 55.55 Q-57.5 55.55 -70.55 62.65 L-63.3 61.8 M-3.2 56.85 L2.2 54.85 -10.55 55.45 -9.65 58.7 -3.2 56.85 M-90.45 19.05 Q-95.9 16.0 -95.55 12.2 L-105.1 14.45 -99.6 16.3 -89.3 19.65 -90.45 19.05 M-104.1 10.4 L-105.55 9.9 -107.15 9.95 -107.55 10.3 -108.15 11.5 -104.1 10.4 M-109.9 7.9 L-111.6 6.75 -114.85 3.8 Q-116.0 2.55 -116.7 2.1 L-117.55 2.1 Q-118.5 2.1 -120.1 8.65 L-115.2 8.85 -110.75 9.15 -109.9 7.9 M-111.6 12.2 L-111.15 10.05 -117.5 10.05 -111.6 12.25 -111.6 12.2" fill="url(#gradient2)" fill-rule="evenodd" stroke="none"/>
    <path d="M9.15 -13.7 L22.35 -14.15 16.2 -6.65 -28.6 -6.55 -39.85 -15.1 -20.05 -14.65 -19.6 -18.9 -8.3 -19.35 -6.85 -13.25 0.65 -14.15 2.1 -16.55 9.15 -17.0 9.15 -13.7" fill="url(#gradient3)" fill-rule="evenodd" stroke="none"/>
    <path d="M22.35 -1.0 L9.15 -1.3 9.15 0.95 2.1 0.65 0.65 -1.0 -6.85 -1.6 -8.3 2.55 -19.6 2.25 -20.05 -0.65 -39.85 -0.35 -28.6 -6.1 16.2 -6.05 22.35 -1.0" fill="url(#gradient4)" fill-rule="evenodd" stroke="none"/>
    <path d="M76.75 -57.7 Q82.75 -57.7 85.1 -54.3 86.8 -51.85 86.9 -46.8 86.7 -41.35 86.95 -39.3 87.45 -35.9 90.15 -35.9 93.75 -35.9 95.15 -37.55 96.9 -37.55 98.85 -35.95 100.65 -34.45 102.15 -34.65 102.6 -35.65 103.05 -38.5 104.0 -41.65 108.25 -41.3 L109.25 -45.15 Q110.7 -47.9 115.65 -47.9 121.0 -47.9 123.7 -44.55 125.05 -42.85 125.3 -40.95 L125.25 -39.85 125.3 -39.9 Q128.5 -39.9 127.9 -33.1 127.9 -29.9 127.1 -27.75 127.1 -25.0 125.1 -22.5 122.2 -18.9 116.35 -18.9 112.85 -18.9 109.6 -22.1 106.65 -24.95 105.05 -24.45 104.35 -22.2 101.5 -20.05 98.85 -18.0 97.05 -18.0 89.7 -18.0 86.15 -25.3 L83.6 -30.3 Q82.05 -32.6 79.65 -32.6 L76.2 -32.1 79.55 -27.95 Q81.6 -25.35 81.6 -23.85 81.6 -20.1 79.65 -20.1 75.35 -20.1 72.95 -21.45 L70.2 -22.95 Q69.1 -21.55 65.7 -19.9 62.5 -18.35 61.2 -18.35 56.2 -18.35 54.35 -20.6 53.1 -22.2 53.15 -25.6 L53.0 -30.6 Q52.45 -32.85 49.6 -32.85 48.75 -32.85 48.55 -32.1 L48.5 -31.6 48.5 -31.55 48.45 -31.45 48.25 -31.05 48.15 -31.05 47.15 -30.4 46.6 -30.35 Q45.25 -30.35 44.45 -31.3 L44.05 -32.0 Q43.65 -32.75 43.6 -33.4 L43.55 -33.8 Q43.55 -35.15 44.55 -37.7 45.9 -41.2 48.0 -41.2 L50.65 -40.65 51.4 -40.25 51.6 -40.15 Q53.15 -39.1 54.2 -37.0 55.35 -34.7 55.8 -34.15 56.9 -32.85 58.65 -32.85 L64.95 -33.3 Q65.45 -33.6 65.8 -34.45 63.9 -35.85 62.7 -38.95 61.7 -41.6 61.7 -43.75 61.7 -45.2 63.3 -46.65 65.05 -48.2 67.5 -48.4 67.25 -49.1 67.25 -51.05 67.25 -57.7 76.75 -57.7 M-103.75 -70.1 Q-103.75 -69.15 -105.65 -65.35 -107.55 -61.5 -107.55 -57.6 -107.55 -55.55 -106.7 -53.35 -105.4 -50.05 -102.75 -50.05 -100.2 -50.05 -99.1 -51.85 -98.0 -53.7 -97.05 -53.7 -96.35 -53.7 -95.1 -52.6 -93.85 -51.55 -91.6 -51.55 -89.55 -51.55 -89.55 -53.2 L-90.65 -55.85 Q-91.8 -58.3 -91.8 -60.2 -91.8 -66.3 -82.45 -66.3 -80.15 -66.3 -75.85 -64.15 -76.7 -66.45 -74.5 -68.1 -72.85 -69.35 -70.3 -69.65 L-68.3 -69.8 Q-65.1 -69.8 -63.4 -67.7 -62.1 -66.2 -62.1 -64.55 -62.1 -62.85 -64.55 -58.5 -67.4 -53.55 -69.75 -53.55 -71.1 -53.55 -72.05 -54.5 L-72.2 -55.05 -72.05 -55.9 -70.85 -55.75 -71.35 -56.15 -72.05 -57.0 -72.8 -56.3 Q-73.7 -55.8 -76.8 -55.8 -77.5 -55.8 -78.95 -57.0 -82.8 -57.0 -83.6 -52.55 -83.6 -50.2 -81.4 -47.35 -79.2 -44.5 -79.2 -43.55 -79.2 -41.9 -84.35 -39.4 L-89.55 -36.65 Q-89.55 -35.8 -88.8 -34.4 -88.1 -33.0 -88.1 -32.1 -88.1 -29.4 -91.7 -28.0 -94.7 -26.8 -99.0 -26.8 -107.25 -26.8 -109.75 -34.35 L-111.0 -39.55 Q-111.5 -41.9 -112.25 -41.9 L-114.6 -41.85 Q-114.0 -40.05 -114.15 -38.85 -114.35 -36.5 -117.8 -36.5 -121.75 -36.5 -124.8 -39.9 L-124.85 -39.9 Q-125.25 -39.9 -126.3 -40.5 L-126.3 -41.85 Q-127.8 -44.05 -127.8 -45.65 -127.8 -46.5 -126.85 -47.65 L-126.9 -46.8 Q-126.9 -45.9 -126.4 -44.85 L-127.05 -53.9 -127.55 -61.15 -127.95 -61.1 Q-128.05 -62.15 -128.7 -64.65 -128.7 -73.85 -112.65 -73.85 -108.25 -73.85 -105.7 -72.45 -103.75 -71.35 -103.75 -70.1 M-67.95 -58.6 L-67.5 -59.9 Q-67.5 -63.35 -69.3 -63.35 -71.15 -63.35 -71.15 -62.25 -71.15 -58.65 -70.0 -57.75 -69.65 -57.45 -69.15 -57.45 -68.5 -57.45 -67.95 -58.6" fill="url(#gradient5)" fill-rule="evenodd" stroke="none"/>
    <path d="M43.6 -0.2 L44.05 -0.55 44.45 -0.75 46.6 -1.05 47.15 -1.0 48.15 -0.85 48.25 -0.85 48.45 -0.7 48.5 -0.7 48.55 -0.55 49.6 -0.35 Q52.45 -0.35 53.0 -0.95 L53.15 -2.35 Q53.1 -3.35 54.35 -3.75 L61.2 -4.4 65.7 -3.95 70.2 -3.1 72.95 -3.55 79.65 -3.9 Q81.6 -3.95 81.6 -2.85 81.6 -2.45 79.55 -1.7 L76.2 -0.55 79.65 -0.4 Q82.05 -0.4 83.6 -1.05 L86.15 -2.45 Q89.7 -4.5 97.05 -4.5 L101.5 -3.9 Q104.35 -3.35 105.05 -2.7 106.65 -2.55 109.6 -3.35 112.85 -4.25 116.35 -4.25 122.2 -4.25 125.1 -3.25 127.1 -2.55 127.1 -1.75 127.9 -1.15 127.9 -0.25 128.5 1.65 125.3 1.65 L125.25 1.65 125.3 1.95 Q125.05 2.45 123.7 2.95 121.0 3.85 115.65 3.9 110.7 3.85 109.25 3.1 L108.25 2.05 Q104.0 2.15 103.05 1.25 L102.15 0.15 98.85 0.55 95.15 1.0 90.15 0.5 Q87.45 0.5 86.95 1.45 86.7 2.05 86.9 3.6 86.8 5.0 85.1 5.7 82.75 6.65 76.75 6.65 67.25 6.6 67.25 4.75 67.25 4.2 67.5 4.0 L63.3 3.55 Q61.7 3.1 61.7 2.7 61.7 2.1 62.7 1.4 63.9 0.5 65.8 0.1 65.45 -0.15 64.95 -0.2 L58.65 -0.35 55.8 0.05 Q55.35 0.2 54.2 0.85 53.15 1.4 51.6 1.7 L51.4 1.75 50.65 1.85 48.0 2.0 Q45.9 2.0 44.55 1.05 43.55 0.3 43.55 -0.05 L43.6 -0.2 M-91.7 -1.7 Q-88.1 -1.3 -88.1 -0.55 -88.1 -0.3 -88.8 0.1 L-89.55 0.75 -84.35 1.5 Q-79.2 2.2 -79.2 2.65 -79.2 2.9 -81.4 3.75 -83.6 4.5 -83.6 5.2 -82.8 6.4 -78.95 6.45 L-76.8 6.1 -72.8 6.25 -72.05 6.45 -71.35 6.2 -70.85 6.1 -72.05 6.15 -72.2 5.9 -72.05 5.75 -69.75 5.45 Q-67.4 5.45 -64.55 6.85 -62.1 8.05 -62.1 8.55 -62.1 9.0 -63.4 9.45 L-68.3 10.0 -70.3 10.0 -74.5 9.55 Q-76.7 9.05 -75.85 8.45 L-82.45 9.05 Q-91.8 9.05 -91.8 7.35 -91.8 6.8 -90.65 6.1 L-89.55 5.35 Q-89.55 4.9 -91.6 4.9 L-95.1 5.2 -97.05 5.5 -99.1 5.0 Q-100.2 4.45 -102.75 4.5 -105.4 4.5 -106.7 5.4 -107.55 6.0 -107.55 6.6 -107.55 7.7 -105.65 8.75 -103.75 9.8 -103.75 10.1 -103.75 10.45 -105.7 10.75 L-112.65 11.15 Q-128.7 11.15 -128.7 8.6 L-127.95 7.6 -127.55 7.6 -127.05 5.55 -126.4 3.05 -126.9 3.6 -126.85 3.8 -127.8 3.25 Q-127.8 2.8 -126.3 2.2 L-126.3 1.8 -124.85 1.65 -124.8 1.65 Q-121.75 0.7 -117.8 0.7 -114.35 0.65 -114.15 1.35 -114.0 1.65 -114.6 2.2 L-112.25 2.2 Q-111.5 2.2 -111.0 1.55 L-109.75 0.1 Q-107.25 -2.05 -99.0 -2.05 L-91.7 -1.7 M-69.15 6.55 L-70.0 6.65 Q-71.15 6.9 -71.15 7.9 L-69.3 8.2 Q-67.5 8.2 -67.5 7.25 -67.5 7.15 -67.95 6.9 -68.5 6.55 -69.15 6.55" fill="url(#gradient6)" fill-rule="evenodd" stroke="none"/>
  </g>
  <defs>
    <linearGradient gradientTransform="matrix(0.0, 0.0547, -0.1605, 0.0, -3.6, 34.4)" gradientUnits="userSpaceOnUse" id="gradient0" spreadMethod="pad" x1="-819.2" x2="819.2">
      <stop offset="0.0" stop-color="#ad571f"/>
      <stop offset="0.611764705882353" stop-color="#2d346c"/>
      <stop offset="1.0" stop-color="#445988"/>
    </linearGradient>
    <linearGradient gradientTransform="matrix(0.0022, -0.0493, 0.1587, 0.0069, -2.7, -45.2)" gradientUnits="userSpaceOnUse" id="gradient1" spreadMethod="pad" x1="-819.2" x2="819.2">
      <stop offset="0.0" stop-color="#ffd01a"/>
      <stop offset="1.0" stop-color="#c09bca"/>
    </linearGradient>
    <linearGradient gradientTransform="matrix(-0.0024, -0.06, 0.1622, -0.0064, 0.15, 37.75)" gradientUnits="userSpaceOnUse" id="gradient2" spreadMethod="pad" x1="-819.2" x2="819.2">
      <stop offset="0.0" stop-color="#ffffff" stop-opacity="0.14117648"/>
      <stop offset="1.0" stop-color="#ffffff" stop-opacity="0.0"/>
    </linearGradient>
    <linearGradient gradientTransform="matrix(2.0E-4, -0.0082, 0.0379, 0.0012, -8.8, -12.65)" gradientUnits="userSpaceOnUse" id="gradient3" spreadMethod="pad" x1="-819.2" x2="819.2">
      <stop offset="0.0" stop-color="#51382f"/>
      <stop offset="1.0" stop-color="#de9f10"/>
    </linearGradient>
    <linearGradient gradientTransform="matrix(2.0E-4, 0.0056, 0.0379, -8.0E-4, -8.8, -2.0)" gradientUnits="userSpaceOnUse" id="gradient4" spreadMethod="pad" x1="-819.2" x2="819.2">
      <stop offset="0.0" stop-color="#000000" stop-opacity="0.38039216"/>
      <stop offset="1.0" stop-color="#000000" stop-opacity="0.0"/>
    </linearGradient>
    <linearGradient gradientTransform="matrix(-0.0028, 0.029, -0.1571, -0.0152, -1.1, -41.3)" gradientUnits="userSpaceOnUse" id="gradient5" spreadMethod="pad" x1="-819.2" x2="819.2">
      <stop offset="0.0" stop-color="#ffffff" stop-opacity="0.6117647"/>
      <stop offset="1.0" stop-color="#ffffff" stop-opacity="0.0"/>
    </linearGradient>
    <linearGradient gradientTransform="matrix(-0.0028, -0.0081, -0.1571, 0.0043, -1.1, 2.0)" gradientUnits="userSpaceOnUse" id="gradient6" spreadMethod="pad" x1="-819.2" x2="819.2">
      <stop offset="0.0" stop-color="#ffffff" stop-opacity="0.21176471"/>
      <stop offset="1.0" stop-color="#ffffff" stop-opacity="0.0"/>
    </linearGradient>
  </defs>
</svg>
