<?xml version="1.0" encoding="UTF-8" standalone="no"?>
<svg xmlns:ffdec="https://www.free-decompiler.com/flash" xmlns:xlink="http://www.w3.org/1999/xlink" ffdec:objectType="shape" height="41.1px" width="216.45px" xmlns="http://www.w3.org/2000/svg">
  <g transform="matrix(1.0, 0.0, 0.0, 1.0, 126.1, 164.5)">
    <path d="M89.45 -148.8 Q90.35 -147.6 90.35 -145.9 90.35 -143.65 88.7 -142.35 87.0 -141.05 84.15 -141.05 L81.55 -141.3 Q80.55 -141.6 79.05 -142.4 L80.4 -145.4 Q82.1 -144.05 84.2 -144.05 86.45 -144.05 86.45 -145.65 86.45 -146.55 85.75 -147.15 85.1 -147.75 83.2 -148.55 79.0 -150.3 79.0 -153.4 79.0 -155.5 80.6 -156.7 82.2 -157.85 84.7 -157.85 87.2 -157.85 89.45 -156.75 L88.35 -153.8 Q87.1 -154.85 84.9 -154.85 82.9 -154.85 82.9 -153.3 82.9 -152.65 83.55 -152.15 84.2 -151.65 86.35 -150.8 88.5 -150.0 89.45 -148.8 M46.75 -156.1 Q48.4 -154.4 48.4 -151.3 L48.4 -141.35 44.6 -141.35 44.6 -150.7 Q44.6 -152.8 43.85 -153.75 43.05 -154.7 41.25 -154.7 L39.45 -154.25 Q38.5 -153.75 38.0 -153.05 L38.0 -141.35 34.2 -141.35 34.2 -157.55 36.9 -157.55 37.6 -156.05 Q39.15 -157.85 42.15 -157.85 45.05 -157.85 46.75 -156.1 M57.75 -154.25 Q56.8 -153.75 56.3 -153.05 L56.3 -141.35 52.5 -141.35 52.5 -157.55 55.2 -157.55 55.9 -156.05 Q57.45 -157.85 60.45 -157.85 63.35 -157.85 65.05 -156.1 66.7 -154.4 66.7 -151.3 L66.7 -141.35 62.9 -141.35 62.9 -150.7 Q62.9 -152.8 62.15 -153.75 61.35 -154.7 59.55 -154.7 L57.75 -154.25 M75.3 -163.2 Q75.95 -162.55 75.95 -161.65 75.95 -160.75 75.3 -160.1 74.65 -159.45 73.75 -159.45 72.85 -159.45 72.2 -160.1 71.55 -160.75 71.55 -161.65 71.55 -162.55 72.2 -163.2 72.85 -163.85 73.75 -163.85 74.65 -163.85 75.3 -163.2 M69.75 -157.55 L75.65 -157.55 75.65 -141.35 71.8 -141.35 71.8 -154.45 69.75 -154.45 69.75 -157.55 M10.35 -160.85 Q13.15 -158.0 13.15 -153.3 13.15 -141.35 1.65 -141.35 L-3.3 -141.35 -3.3 -163.5 2.65 -163.7 Q7.5 -163.7 10.35 -160.85 M2.45 -160.2 L0.65 -160.05 0.65 -144.95 2.7 -144.85 Q5.7 -144.85 7.4 -147.0 9.05 -149.2 9.05 -153.05 9.05 -160.2 2.45 -160.2 M17.7 -155.5 Q20.05 -157.85 23.4 -157.85 26.9 -157.85 29.05 -155.75 31.2 -153.65 31.2 -150.4 L30.85 -148.3 19.3 -148.3 Q19.4 -146.35 20.6 -145.3 21.85 -144.2 23.9 -144.2 26.5 -144.2 27.85 -145.55 L29.3 -142.65 Q27.3 -141.05 23.35 -141.05 19.65 -141.05 17.5 -143.2 15.35 -145.4 15.35 -149.3 15.35 -153.1 17.7 -155.5 M23.45 -154.7 Q20.2 -154.7 19.4 -151.15 L27.4 -151.15 Q27.0 -154.7 23.45 -154.7 M-35.0 -157.55 L-31.75 -147.9 -27.8 -157.55 -26.45 -157.55 -22.35 -147.85 -18.85 -157.55 -15.1 -157.55 -21.25 -141.05 -22.6 -141.05 -27.05 -151.0 -31.5 -141.05 -32.9 -141.05 -39.0 -157.55 -35.0 -157.55 M-72.0 -164.5 L-72.0 -141.35 -75.8 -141.35 -75.8 -142.35 -77.35 -141.45 -79.7 -141.05 Q-83.05 -141.05 -85.0 -143.2 -86.95 -145.35 -86.95 -149.2 -86.95 -153.05 -84.7 -155.45 -82.5 -157.85 -79.15 -157.85 -77.3 -157.85 -75.8 -157.1 L-75.8 -163.6 -72.0 -164.5 M-64.4 -156.1 Q-62.85 -157.85 -60.2 -157.85 -58.25 -157.85 -57.25 -157.25 L-58.85 -154.05 Q-59.85 -154.7 -61.05 -154.7 -62.4 -154.7 -63.4 -153.5 -64.4 -152.3 -64.4 -150.6 L-64.4 -141.35 -68.2 -141.35 -68.2 -157.55 -64.4 -157.55 -64.4 -156.1 M-78.3 -154.65 Q-80.6 -154.65 -81.8 -153.25 -83.05 -151.9 -83.05 -149.3 -83.05 -144.25 -78.15 -144.25 L-76.8 -144.55 Q-76.0 -144.9 -75.8 -145.2 L-75.8 -153.7 Q-77.0 -154.65 -78.3 -154.65 M-53.65 -155.5 Q-51.3 -157.85 -47.95 -157.85 -44.45 -157.85 -42.3 -155.75 -40.15 -153.65 -40.15 -150.4 -40.15 -149.7 -40.5 -148.3 L-52.05 -148.3 Q-51.95 -146.35 -50.75 -145.3 -49.5 -144.2 -47.45 -144.2 -44.85 -144.2 -43.5 -145.55 L-42.05 -142.65 Q-44.05 -141.05 -48.0 -141.05 -51.7 -141.05 -53.85 -143.2 -56.0 -145.4 -56.0 -149.3 -56.0 -153.1 -53.65 -155.5 M-47.9 -154.7 Q-51.15 -154.7 -51.95 -151.15 L-43.95 -151.15 Q-44.35 -154.7 -47.9 -154.7 M-51.85 -134.0 L-51.85 -125.8 Q-51.85 -124.4 -51.05 -124.15 -51.45 -123.4 -52.4 -123.4 -53.6 -123.4 -53.6 -125.05 L-53.6 -133.6 -51.85 -134.0 M-56.5 -130.25 Q-55.7 -129.5 -55.7 -127.35 L-55.7 -125.8 Q-55.7 -124.35 -55.15 -123.95 L-55.6 -123.5 -56.2 -123.4 Q-56.55 -123.4 -56.85 -123.7 -57.15 -123.95 -57.25 -124.3 -57.5 -123.9 -58.05 -123.65 L-59.25 -123.4 Q-60.45 -123.4 -61.15 -124.0 -61.7 -124.5 -61.75 -125.3 L-61.8 -125.7 Q-61.8 -126.95 -60.85 -127.65 -59.9 -128.4 -58.15 -128.4 L-57.45 -128.3 Q-57.45 -129.6 -59.05 -129.6 L-60.7 -129.25 -61.05 -130.6 -58.95 -131.0 Q-57.25 -131.0 -56.5 -130.25 M-58.05 -127.1 Q-60.1 -127.1 -60.1 -125.75 -60.1 -124.75 -58.95 -124.75 -57.4 -124.75 -57.4 -126.3 L-57.4 -127.0 -58.05 -127.1 M-46.55 -131.0 Q-45.0 -131.0 -44.0 -130.05 -43.05 -129.1 -43.05 -127.65 L-43.2 -126.7 -48.4 -126.7 Q-48.35 -125.8 -47.8 -125.35 -47.25 -124.85 -46.35 -124.85 -45.15 -124.85 -44.55 -125.45 L-43.9 -124.15 Q-44.8 -123.4 -46.6 -123.4 -48.25 -123.4 -49.25 -124.4 L-49.65 -124.95 Q-50.2 -125.85 -50.2 -127.15 -50.2 -128.85 -49.15 -129.95 -48.05 -131.0 -46.55 -131.0 M-48.35 -127.95 L-44.75 -127.95 Q-44.95 -129.6 -46.55 -129.6 -48.0 -129.6 -48.35 -127.95 M-75.95 -131.0 Q-74.4 -131.0 -73.4 -130.05 -72.45 -129.1 -72.45 -127.65 L-72.6 -126.7 -77.8 -126.7 Q-77.75 -125.8 -77.2 -125.35 -76.65 -124.85 -75.75 -124.85 -74.55 -124.85 -73.95 -125.45 L-73.3 -124.15 Q-74.2 -123.4 -76.0 -123.4 -77.65 -123.4 -78.65 -124.4 -79.6 -125.4 -79.6 -127.15 -79.6 -128.85 -78.55 -129.95 -77.45 -131.0 -75.95 -131.0 M-77.75 -127.95 L-74.15 -127.95 Q-74.35 -129.6 -75.95 -129.6 -77.4 -129.6 -77.75 -127.95 M-64.9 -130.85 L-62.9 -130.85 -62.9 -129.5 -64.9 -129.5 -64.9 -126.3 -64.65 -125.2 Q-64.4 -124.85 -63.8 -124.85 -63.2 -124.85 -62.65 -125.2 L-62.65 -123.6 -64.35 -123.4 Q-65.45 -123.4 -66.05 -124.05 -66.6 -124.65 -66.6 -125.8 L-66.6 -129.5 -67.45 -129.5 -67.45 -130.85 -66.6 -130.85 -66.6 -132.35 -64.9 -133.0 -64.9 -130.85 M-41.7 -130.85 L-40.45 -130.85 -40.15 -130.2 Q-39.45 -131.0 -38.05 -131.0 -36.75 -131.0 -36.0 -130.2 L-35.4 -129.25 Q-35.25 -128.75 -35.25 -128.05 L-35.25 -123.55 -36.95 -123.55 -36.95 -127.8 Q-36.95 -128.7 -37.3 -129.15 -37.7 -129.6 -38.5 -129.6 L-39.3 -129.35 -39.95 -128.85 -39.95 -123.55 -41.7 -123.55 -41.7 -130.85 M-31.45 -130.85 L-29.45 -130.85 -29.45 -129.5 -31.45 -129.5 -31.45 -126.3 -31.2 -125.2 Q-30.95 -124.85 -30.35 -124.85 -29.75 -124.85 -29.2 -125.2 L-29.2 -123.6 -30.9 -123.4 Q-32.0 -123.4 -32.6 -124.05 -33.15 -124.65 -33.15 -125.8 L-33.15 -129.5 -34.0 -129.5 -34.0 -130.85 -33.15 -130.85 -33.15 -132.35 -31.45 -133.0 -31.45 -130.85 M-113.75 -148.85 L-116.4 -157.05 -119.1 -148.85 -113.75 -148.85 M-115.55 -163.85 L-106.65 -141.35 -111.0 -141.35 -112.6 -145.85 -120.2 -145.85 -121.75 -141.35 -126.1 -141.35 -117.3 -163.85 -115.55 -163.85 M-101.8 -157.55 L-101.1 -156.05 Q-99.55 -157.85 -96.55 -157.85 -93.65 -157.85 -91.95 -156.1 -90.3 -154.4 -90.3 -151.3 L-90.3 -141.35 -94.1 -141.35 -94.1 -150.7 Q-94.1 -152.8 -94.85 -153.75 -95.65 -154.7 -97.45 -154.7 L-99.25 -154.25 -100.7 -153.05 -100.7 -141.35 -104.5 -141.35 -104.5 -157.55 -101.8 -157.55 M-92.75 -130.0 Q-92.25 -129.5 -92.0 -128.8 L-91.8 -127.25 Q-91.8 -125.5 -92.75 -124.45 -93.7 -123.4 -95.35 -123.4 -97.0 -123.4 -97.95 -124.45 -98.85 -125.5 -98.85 -127.25 L-98.6 -128.75 -97.9 -129.95 Q-96.9 -131.0 -95.35 -131.0 -93.65 -131.0 -92.75 -130.0 M-99.35 -130.85 L-102.75 -123.4 -103.35 -123.4 -106.65 -130.85 -104.8 -130.85 -103.05 -126.4 -101.15 -130.85 -99.35 -130.85 M-97.1 -127.25 Q-97.1 -124.8 -95.35 -124.8 -94.55 -124.8 -94.05 -125.45 -93.6 -126.05 -93.6 -127.25 -93.6 -129.6 -95.35 -129.6 -96.15 -129.6 -96.6 -129.0 -97.1 -128.35 -97.1 -127.25 M-82.75 -131.0 Q-81.5 -131.0 -80.55 -130.3 L-81.25 -129.0 Q-81.85 -129.6 -82.9 -129.6 -83.85 -129.6 -84.4 -128.95 -85.0 -128.3 -85.0 -127.15 -85.0 -124.85 -82.8 -124.85 -81.85 -124.85 -81.1 -125.45 L-80.5 -124.1 Q-81.25 -123.65 -81.8 -123.55 L-83.1 -123.4 Q-84.8 -123.4 -85.75 -124.4 -86.75 -125.4 -86.75 -127.15 -86.75 -128.9 -85.7 -129.95 -84.6 -131.0 -82.75 -131.0 M-89.15 -133.7 Q-88.75 -133.7 -88.45 -133.4 -88.15 -133.15 -88.15 -132.7 -88.15 -132.3 -88.45 -132.0 -88.75 -131.75 -89.15 -131.75 L-89.85 -132.0 -90.15 -132.7 -89.85 -133.4 -89.15 -133.7 M-88.3 -130.85 L-88.3 -123.55 -90.0 -123.55 -90.0 -129.45 -90.95 -129.45 -90.95 -130.85 -88.3 -130.85" fill="#d99d9d" fill-rule="evenodd" stroke="none"/>
  </g>
</svg>
