<?xml version="1.0" encoding="UTF-8" standalone="no"?>
<svg xmlns:ffdec="https://www.free-decompiler.com/flash" xmlns:xlink="http://www.w3.org/1999/xlink" ffdec:objectType="shape" height="188.3px" width="356.25px" xmlns="http://www.w3.org/2000/svg">
  <g transform="matrix(1.0, 0.0, 0.0, 1.0, 157.8, 87.0)">
    <path d="M64.5 -77.1 L49.05 -81.0 Q49.45 -81.5 50.0 -81.5 57.8 -81.5 69.9 -78.25 71.9 -78.25 73.5 -77.4 L72.2 -77.6 Q85.65 -73.75 104.05 -66.1 119.9 -59.5 132.0 -52.85 144.8 -45.85 148.75 -41.25 L148.75 -40.85 Q148.8 -40.35 147.55 -40.35 146.4 -40.35 138.2 -44.95 125.75 -52.0 117.75 -56.05 L115.0 -57.45 Q114.7 -55.45 112.05 -54.25 109.15 -52.85 104.3 -52.85 102.55 -52.85 101.3 -54.35 L100.3 -56.0 101.25 -56.5 Q103.05 -54.25 104.25 -54.25 106.4 -54.25 109.45 -55.15 112.9 -56.25 113.75 -57.6 L113.15 -58.35 102.2 -63.4 101.65 -63.0 100.75 -61.85 Q100.95 -63.0 101.55 -63.7 89.1 -69.15 76.75 -73.3 L76.55 -72.75 Q76.05 -72.35 75.75 -72.35 L76.25 -73.45 65.4 -76.85 Q63.4 -76.4 61.65 -75.6 L63.25 -74.85 51.5 -76.1 Q42.9 -76.1 37.95 -72.05 34.7 -69.35 34.6 -66.85 L48.05 -61.95 48.15 -62.3 Q48.45 -63.25 49.0 -63.6 50.15 -65.5 52.95 -68.35 L51.15 -65.65 50.25 -63.9 50.75 -63.75 49.8 -61.85 50.55 -62.35 49.55 -61.4 Q62.2 -56.45 75.25 -50.45 74.5 -51.75 74.05 -53.05 74.05 -54.25 75.05 -54.25 L75.3 -54.0 Q75.45 -57.75 76.95 -61.85 78.9 -67.05 82.0 -69.25 L83.25 -68.85 Q79.7 -67.65 77.5 -61.6 75.8 -57.1 75.75 -53.5 L75.75 -53.3 76.7 -49.75 78.0 -49.15 88.15 -44.25 Q89.4 -44.95 89.75 -46.4 90.15 -47.85 89.75 -50.0 L90.05 -50.1 90.5 -47.3 Q90.5 -46.2 89.25 -44.5 L88.8 -43.9 Q98.65 -38.95 107.1 -34.0 L109.75 -34.1 110.0 -34.85 Q110.0 -36.5 108.5 -38.1 107.3 -38.0 107.0 -37.6 L106.75 -37.25 106.75 -36.6 108.75 -36.35 106.25 -36.35 Q106.25 -38.75 107.5 -38.75 109.7 -38.75 110.25 -37.0 110.5 -35.0 110.8 -34.5 L108.5 -33.15 121.85 -24.6 Q141.55 -10.8 144.55 -0.6 L144.5 -0.35 Q141.05 -9.4 121.2 -22.8 L120.8 -23.1 118.2 -23.7 114.0 -24.0 Q106.2 -24.0 105.3 -27.6 105.65 -31.5 104.9 -32.9 L101.25 -34.95 99.5 -35.8 97.65 -36.75 98.55 -36.45 86.7 -42.6 86.5 -42.6 Q81.4 -42.6 77.55 -47.05 L77.4 -47.15 77.55 -46.35 Q77.25 -46.55 76.85 -47.4 L73.05 -49.15 70.7 -49.35 66.95 -50.0 68.5 -50.35 70.65 -50.25 64.8 -52.9 65.7 -50.45 64.25 -51.25 64.25 -53.15 63.1 -53.65 61.75 -52.25 Q60.25 -51.1 59.5 -51.1 L47.75 -59.75 47.75 -60.0 Q38.75 -63.55 30.05 -66.45 L29.55 -50.25 Q29.6 -50.6 30.0 -50.85 L64.7 -36.55 Q84.75 -28.0 88.95 -23.45 108.05 -13.45 123.65 -3.95 L124.0 -4.1 Q125.4 -4.1 125.85 -2.6 L126.0 -2.5 Q128.55 -7.85 129.75 -11.1 L130.05 -11.1 130.25 -10.15 Q130.25 -8.95 127.15 -1.8 L132.05 1.3 132.0 1.55 126.85 -1.05 121.95 9.65 Q113.35 28.1 109.3 34.0 L110.3 34.25 Q113.95 34.25 116.45 32.5 118.75 30.85 119.75 31.0 L120.05 31.3 Q118.6 32.85 114.55 33.65 110.15 34.55 108.5 35.8 107.55 35.1 107.55 33.3 107.55 32.7 116.8 15.45 L125.45 -1.3 124.35 -2.3 124.25 -2.35 118.0 -1.35 112.05 -1.95 110.4 -2.6 105.4 0.5 Q112.4 5.2 118.05 9.8 L118.0 10.05 Q112.8 5.55 105.05 0.7 L101.25 3.0 100.5 2.5 Q102.35 1.1 103.9 0.0 95.1 -5.4 83.2 -11.25 81.7 -10.55 80.55 -9.5 78.3 -7.4 78.3 -5.35 78.3 -5.1 79.25 -3.5 L78.75 -3.35 Q77.75 -5.0 77.75 -5.4 77.75 -8.05 81.25 -11.05 L82.15 -11.75 80.1 -12.75 Q56.6 -24.0 29.75 -33.05 L29.75 -32.85 Q29.55 -32.1 29.5 -31.35 29.25 -31.35 29.25 -30.75 L28.7 -30.8 28.55 -28.0 Q27.1 1.25 27.3 4.5 L27.25 5.25 25.55 5.55 25.5 4.9 22.3 5.0 21.1 4.7 21.3 5.55 20.5 6.25 19.95 4.7 18.35 4.75 Q20.45 7.3 27.25 9.0 L26.8 9.75 Q20.55 7.55 16.55 6.4 15.8 6.05 15.7 5.35 L15.75 3.0 Q15.75 -0.35 16.0 -2.85 L16.75 -2.85 Q17.15 -1.65 17.2 0.5 17.25 2.6 17.65 3.55 L17.95 4.15 19.6 3.75 Q13.55 -13.0 6.5 -28.8 4.6 -29.25 4.75 -31.85 L4.8 -32.5 0.35 -41.9 -12.35 -44.85 -12.05 -44.65 Q-9.1 -42.4 -9.1 -40.85 -9.1 -39.35 -10.4 -37.15 L-8.0 -38.0 Q-9.35 -36.9 -11.45 -35.6 -12.85 -33.8 -14.35 -33.25 L-14.9 -33.6 -17.35 -32.35 -28.75 -26.6 -29.35 -26.75 -15.65 -34.6 -16.0 -35.2 Q-16.75 -36.55 -16.75 -37.0 L-16.5 -37.25 Q-15.15 -36.1 -14.8 -35.05 L-14.3 -35.3 -12.7 -37.4 Q-11.0 -39.9 -11.0 -40.85 -11.0 -41.55 -14.0 -43.8 -15.35 -44.8 -16.05 -45.75 L-93.3 -63.2 -91.9 -58.45 -86.85 -41.0 -87.1 -40.35 Q-89.55 -40.85 -91.7 -41.5 L-91.25 -41.35 Q-91.75 -40.85 -94.0 -40.85 -94.6 -40.85 -96.7 -41.7 -99.1 -42.6 -99.6 -43.35 L-99.6 -45.05 -101.55 -46.6 Q-105.2 -49.85 -106.3 -55.3 L-107.2 -62.1 -110.85 -67.1 -137.25 -72.85 -137.0 -73.25 -112.05 -68.75 -116.25 -74.5 -115.85 -74.6 -111.2 -68.6 -108.05 -67.95 Q-109.05 -71.6 -111.1 -74.0 -111.0 -74.35 -110.25 -74.5 -109.0 -71.95 -107.95 -67.95 L-102.25 -66.85 -105.2 -71.95 -106.85 -72.35 -105.5 -72.4 Q-108.5 -76.9 -112.35 -80.5 L-112.25 -81.1 -111.85 -81.1 Q-107.75 -81.1 -103.2 -72.45 L-97.35 -71.45 -98.1 -74.8 -98.0 -75.35 -97.25 -75.5 -95.75 -71.15 Q-43.9 -62.15 -13.85 -54.8 L-13.25 -57.5 -13.2 -57.65 -14.6 -58.25 -13.0 -59.75 -11.8 -59.75 -11.0 -60.0 -9.85 -59.75 -8.9 -59.75 -8.95 -60.15 -16.75 -73.85 -15.75 -71.85 -15.75 -71.75 -17.85 -74.5 -17.5 -75.25 -16.75 -75.35 Q-14.5 -75.35 -5.95 -59.9 L-1.55 -51.6 -0.9 -51.45 -3.6 -60.75 Q-6.25 -70.3 -9.25 -75.6 L-8.85 -75.6 Q-3.95 -66.65 -0.35 -51.3 L8.5 -48.6 Q9.5 -48.25 9.75 -47.85 L-0.15 -50.35 0.45 -47.7 3.55 -41.9 10.05 -40.25 10.25 -39.6 4.0 -41.05 7.25 -34.85 9.1 -31.2 9.25 -31.35 9.15 -31.05 Q12.6 -23.75 15.5 -14.55 L20.8 3.65 24.0 3.5 25.4 3.6 25.3 1.85 Q24.7 2.7 23.25 3.05 L22.75 3.05 Q24.9 1.1 25.05 0.5 L24.8 -0.1 Q22.9 -0.05 22.7 0.65 L23.05 1.8 23.0 2.05 Q22.25 1.7 22.25 0.85 22.25 0.0 23.5 -0.75 L25.25 -0.6 25.25 -1.85 Q25.25 -10.85 25.8 -22.75 24.55 -22.8 23.75 -23.85 L23.75 -26.5 25.95 -26.2 26.05 -28.45 Q24.75 -34.1 24.75 -41.4 L25.25 -66.6 25.55 -66.6 25.25 -41.3 Q25.25 -38.55 25.85 -34.4 L26.25 -31.8 26.25 -32.35 26.25 -32.55 26.3 -32.65 26.55 -37.3 26.6 -38.0 26.25 -38.25 26.5 -38.75 26.65 -38.65 Q28.0 -59.85 29.55 -66.65 L28.3 -67.05 19.4 -69.8 Q22.9 -61.05 23.85 -49.2 24.3 -34.95 24.75 -27.85 L24.25 -27.85 24.25 -27.25 23.9 -27.85 23.75 -27.85 23.75 -28.9 23.75 -29.1 Q23.8 -43.75 23.35 -49.45 22.45 -61.5 19.05 -69.9 1.45 -75.05 -8.25 -74.85 L-8.35 -75.6 -4.1 -76.0 Q6.8 -76.0 30.25 -68.3 L34.0 -67.05 Q34.1 -70.15 38.7 -73.1 44.45 -76.75 51.25 -76.75 58.3 -76.75 61.6 -75.6 L64.5 -77.1 M49.6 -59.3 L48.45 -59.75 48.3 -59.6 49.6 -59.3 M59.1 -52.1 Q62.0 -52.1 62.45 -53.75 L61.75 -53.85 61.9 -54.15 56.3 -56.55 57.2 -54.25 Q58.15 -52.1 59.1 -52.1 M58.35 -59.1 L57.05 -59.25 Q57.05 -60.05 57.5 -60.75 L58.35 -59.1 M75.25 -53.35 L74.8 -53.35 75.55 -51.55 75.25 -53.1 75.25 -53.35 M78.25 -54.1 Q77.85 -53.7 77.05 -54.85 78.7 -55.75 80.8 -55.75 81.25 -55.75 82.3 -55.0 L82.25 -54.6 80.25 -55.0 Q77.7 -55.0 78.25 -54.1 M29.55 -50.25 L29.1 -39.05 31.25 -39.1 31.55 -40.25 Q31.55 -41.05 30.55 -42.55 29.55 -44.0 29.55 -44.55 L29.75 -45.1 30.05 -45.1 31.75 -45.35 Q39.0 -45.35 52.05 -40.5 L30.75 -49.35 Q30.1 -49.35 30.05 -49.7 30.0 -50.15 29.55 -50.25 M29.05 -38.15 L28.95 -36.5 29.75 -35.05 29.55 -34.0 Q44.35 -32.9 73.5 -17.95 L83.6 -12.6 Q86.95 -14.35 91.0 -13.35 91.8 -13.25 92.55 -12.6 L92.75 -12.35 89.8 -12.5 84.95 -11.9 Q95.6 -6.0 104.25 -0.25 109.45 -4.0 110.75 -4.0 112.0 -4.0 115.65 -2.85 L122.1 -3.45 89.3 -19.8 88.25 -19.6 88.35 -20.3 Q61.55 -33.55 54.05 -36.6 50.9 -37.9 45.1 -39.6 39.25 -41.35 30.05 -45.1 32.3 -41.15 32.3 -40.25 32.25 -38.1 30.0 -38.1 L29.05 -38.15 M29.0 -34.25 L29.25 -35.0 28.95 -35.8 28.85 -34.35 29.0 -34.25 M29.15 -33.05 L28.75 -32.45 28.75 -31.5 28.8 -31.5 29.25 -32.8 29.15 -33.05 M24.25 -24.85 L24.25 -24.1 25.25 -23.5 25.85 -23.55 25.95 -25.7 24.5 -26.0 Q24.25 -25.6 24.25 -24.85 M9.75 -32.1 L11.0 -33.25 12.25 -33.1 Q12.75 -31.75 12.75 -30.5 L12.25 -29.35 Q12.5 -28.85 11.25 -28.85 L9.75 -30.35 Q9.75 -31.35 10.5 -31.75 L11.05 -31.6 Q11.25 -32.55 11.25 -31.3 11.25 -30.55 10.85 -30.65 L10.3 -30.6 11.3 -29.6 11.85 -29.65 Q12.05 -29.7 12.05 -30.5 L11.75 -32.35 11.75 -32.6 10.0 -31.85 9.75 -32.1 M20.05 -17.8 Q20.05 -18.6 20.55 -19.45 21.05 -20.35 21.5 -20.35 23.3 -20.35 23.3 -18.35 23.3 -17.0 22.55 -15.75 20.75 -15.45 20.2 -16.55 20.05 -16.85 20.05 -17.8 M21.3 -19.35 Q20.8 -18.9 20.8 -17.65 L21.0 -16.75 21.25 -16.5 22.3 -16.6 22.55 -18.3 Q22.55 -18.7 21.3 -19.5 L21.3 -19.35 M24.05 -8.25 Q24.8 -7.6 24.8 -6.75 L24.5 -4.35 23.05 -4.75 23.05 -7.35 24.05 -8.25 M24.25 -5.35 L23.8 -7.25 23.8 -5.35 24.25 -5.35 M44.1 -18.1 Q42.95 -18.75 43.25 -19.1 L43.75 -19.1 Q44.55 -19.1 46.25 -17.5 L46.25 -17.25 Q45.2 -17.45 44.1 -18.1 M42.25 -16.35 L40.75 -16.35 Q42.3 -18.1 43.05 -18.1 42.0 -17.0 42.25 -16.35 M57.25 -3.75 Q60.0 0.05 63.3 0.05 72.6 0.05 73.35 -2.6 73.6 -3.4 73.1 -4.95 72.6 -6.55 72.75 -7.1 73.05 -7.1 73.25 -6.75 73.75 -3.9 73.4 -2.3 72.75 0.75 67.25 0.75 59.3 0.75 56.8 -3.15 L55.45 -5.85 Q54.8 -7.1 53.75 -7.1 50.85 -7.1 46.8 -3.25 43.25 0.15 43.25 1.05 43.25 1.25 40.75 2.55 L45.55 -2.95 Q50.35 -7.6 54.55 -7.6 55.05 -7.6 57.25 -3.75 M80.55 -2.6 Q81.4 -2.0 82.25 -0.35 81.65 -0.7 80.25 -2.6 L80.55 -2.6 M86.75 -68.65 Q86.75 -67.25 85.0 -66.35 L84.2 -66.45 Q83.75 -66.6 83.75 -67.4 83.75 -70.3 86.55 -69.6 L86.75 -68.65 M86.25 -68.85 L85.75 -68.85 Q84.7 -68.85 84.3 -68.1 L84.25 -67.5 84.25 -67.35 Q85.6 -67.95 86.25 -68.75 L86.25 -68.85 M85.05 -57.1 L86.5 -53.55 Q87.6 -51.15 89.75 -49.6 L89.55 -49.25 Q88.65 -49.9 86.65 -52.45 84.55 -55.2 84.55 -56.0 84.55 -57.25 84.75 -57.1 L85.05 -57.1 M106.65 -27.2 Q107.4 -26.0 116.35 -26.0 111.7 -28.95 106.65 -31.9 L106.6 -29.2 Q106.4 -27.65 106.65 -27.2 M78.8 -46.45 Q81.35 -43.75 84.7 -43.6 L78.8 -46.45 M100.55 3.0 Q100.55 4.75 99.3 4.75 L86.05 0.5 Q86.45 -0.25 87.25 -0.25 91.25 -0.25 97.3 3.05 98.85 3.4 99.35 2.8 L100.05 1.8 100.55 3.0 M93.05 8.5 Q93.05 5.3 89.05 5.3 L80.55 6.3 Q81.8 7.25 83.2 9.8 83.9 11.05 87.25 11.05 89.4 11.05 91.25 10.25 93.05 9.45 93.05 8.5 M81.5 8.45 Q79.4 5.7 76.25 6.75 75.75 6.55 75.75 6.25 79.25 6.55 79.25 5.3 79.25 4.8 80.4 2.95 81.75 0.8 83.05 0.3 L79.8 5.55 89.5 4.8 Q94.0 4.8 93.75 9.0 93.75 10.6 87.5 11.75 83.95 11.75 81.5 8.45 M109.25 40.55 Q107.9 39.7 107.55 38.8 L108.05 38.75 Q108.8 38.75 108.95 39.35 L109.05 40.25 109.25 40.55 M106.55 73.75 L107.5 73.75 107.55 74.65 Q107.55 75.55 106.25 77.75 L105.25 77.55 Q106.0 75.05 106.05 73.8 L105.85 73.8 106.55 73.75 M93.75 58.05 Q95.0 56.8 95.55 56.8 L94.5 58.25 93.75 58.05 M82.25 86.25 Q69.6 59.15 16.75 44.0 L17.25 43.8 Q45.0 50.85 62.7 63.6 77.25 74.05 82.25 86.05 L82.25 86.25 M53.3 7.25 Q51.55 5.0 48.25 5.0 L44.65 5.25 46.5 4.25 Q54.3 4.25 55.25 10.0 L53.3 16.5 Q53.3 18.95 61.35 25.4 69.65 32.1 75.25 33.55 69.45 32.75 60.8 25.7 52.75 19.1 52.75 16.75 L54.5 10.0 Q54.5 8.75 53.3 7.25 M42.75 7.25 L43.6 6.1 Q43.75 6.8 43.5 7.3 L44.75 7.55 Q44.1 8.05 42.75 7.25 M43.5 36.25 Q59.75 45.45 73.05 57.3 L73.0 57.55 Q48.8 39.85 43.25 36.8 L43.5 36.25 M28.55 12.3 Q32.4 24.85 35.25 36.55 L35.25 36.75 28.25 12.3 28.55 12.3 M18.75 10.75 Q17.7 15.9 16.5 28.85 15.45 36.25 13.4 39.6 L13.75 39.75 13.55 40.05 13.2 39.9 Q12.3 41.2 11.25 41.8 L11.9 39.35 3.35 35.75 Q-0.9 33.95 -4.6 33.1 -12.35 31.3 -44.25 29.05 L-44.0 28.75 -5.65 32.25 Q-2.0 33.0 2.25 34.75 L12.0 39.0 15.15 26.3 Q17.5 17.0 18.25 10.3 L18.75 10.75 M8.75 31.75 Q5.15 29.1 -26.25 18.05 L-26.0 17.75 Q3.5 25.15 8.75 31.5 L8.75 31.75 M-113.85 -81.25 Q-113.45 -81.25 -112.65 -79.85 L-111.85 -78.25 -111.85 -77.85 Q-112.25 -78.55 -113.35 -79.3 -114.3 -80.0 -114.75 -81.1 L-113.85 -81.25 M-108.4 -81.0 L-107.5 -81.25 Q-105.6 -81.25 -105.7 -80.85 L-106.0 -80.35 Q-105.5 -80.35 -105.25 -80.0 L-106.85 -79.85 -108.5 -80.1 -108.75 -80.5 -108.4 -81.0 M-106.85 -62.9 L-93.85 -46.1 -93.85 -45.5 Q-93.95 -45.25 -94.75 -45.25 L-106.45 -61.05 -105.05 -55.75 Q-101.5 -45.65 -88.75 -42.5 L-92.9 -56.35 -92.6 -55.05 Q-91.1 -47.95 -91.1 -46.8 -91.1 -46.0 -91.6 -45.5 L-92.25 -45.35 -91.85 -46.65 Q-91.85 -48.3 -95.25 -63.65 L-99.7 -64.65 Q-97.15 -58.15 -94.5 -49.1 L-95.35 -48.6 -101.15 -64.55 -101.35 -65.0 -107.6 -66.35 -107.3 -64.95 -106.85 -62.9 M-107.65 -66.4 L-109.9 -66.9 -107.3 -63.5 -107.45 -65.0 -107.65 -66.4 M-93.85 -65.15 L-63.1 -58.5 -16.85 -47.05 -17.0 -48.0 Q-16.15 -51.85 -14.55 -53.65 L-45.45 -59.95 -95.35 -69.85 -93.85 -65.15 M-95.65 -65.5 L-97.0 -70.2 -102.7 -71.4 -100.45 -66.5 -95.65 -65.5 M-81.1 -38.0 Q-81.2 -37.8 -81.8 -37.75 -82.4 -37.7 -82.5 -38.0 -82.2 -38.75 -81.35 -38.75 L-81.1 -38.0 M-98.35 -44.25 Q-98.35 -42.95 -96.45 -42.6 L-92.5 -41.75 Q-95.85 -42.85 -98.35 -44.3 L-98.35 -44.25 M-12.65 -56.15 L-12.8 -54.95 -12.35 -55.1 -12.15 -54.4 -8.35 -53.45 -8.35 -53.6 -8.55 -57.35 -9.8 -58.2 -11.85 -57.95 Q-12.55 -57.2 -12.65 -56.15 M-13.5 -50.55 L-15.0 -48.0 Q-15.0 -47.35 -14.05 -46.35 L-0.05 -42.8 -0.4 -43.5 -0.75 -43.5 Q-7.85 -43.5 -7.85 -48.75 -7.85 -50.0 -6.8 -51.95 L-7.6 -52.15 Q-7.75 -49.1 -8.5 -47.35 L-8.4 -52.3 -12.05 -53.1 Q-12.3 -52.4 -13.5 -50.55 M-7.75 -56.9 Q-7.6 -55.2 -7.6 -53.4 L-7.6 -53.25 -6.25 -52.9 -5.6 -53.85 -7.0 -56.45 -7.75 -56.9 M-5.65 -52.75 L-4.95 -52.55 -5.35 -53.3 -5.65 -52.75 M-1.05 -50.6 L-0.1 -48.75 -0.6 -50.5 -1.05 -50.6 M-6.2 -51.8 Q-7.1 -50.3 -7.1 -49.05 -7.1 -47.2 -6.5 -46.4 -5.25 -44.6 -1.0 -44.5 L-0.85 -44.45 -4.35 -51.35 -6.2 -51.8 M-73.6 -3.85 L-73.2 -4.1 Q-73.0 -4.25 -73.0 -5.0 -73.0 -5.4 -76.25 -8.0 -75.35 -7.85 -74.2 -6.8 L-72.35 -5.1 Q-73.8 -2.85 -74.9 -2.85 -76.75 -2.85 -78.25 -5.65 -78.25 -7.0 -76.85 -8.6 -77.6 -6.85 -77.6 -5.6 -77.6 -4.6 -75.1 -3.35 -74.55 -3.35 -73.6 -3.85 M-43.4 -22.45 Q-43.25 -22.4 -43.25 -21.65 -43.25 -21.55 -50.1 -17.0 -57.0 -11.8 -57.0 -8.55 -56.4 -2.25 -54.75 -0.85 L-54.75 -0.6 -57.75 -0.35 -58.1 -5.25 Q-58.1 -10.55 -55.95 -13.25 -53.55 -16.25 -44.0 -22.35 L-43.4 -22.45 M-59.5 -20.85 Q-58.7 -22.35 -57.85 -22.75 -56.6 -21.75 -56.6 -20.85 -56.6 -20.45 -57.45 -19.55 -58.5 -18.45 -59.85 -18.25 L-60.05 -18.15 Q-60.25 -18.2 -60.25 -19.0 -60.25 -19.55 -59.5 -20.85 M-57.5 -21.1 L-58.25 -21.8 Q-58.6 -21.85 -59.1 -20.25 -59.0 -19.85 -58.5 -19.75 -57.8 -20.1 -57.5 -21.1 M-56.1 1.0 Q-59.5 2.35 -59.5 9.5 -59.5 12.15 -53.9 15.05 -48.35 18.0 -48.35 20.75 -48.35 22.45 -50.15 24.2 L-54.15 27.45 Q-60.0 32.1 -60.0 37.9 -60.0 39.45 -57.75 41.2 L-55.5 43.0 Q-55.5 43.4 -66.4 53.05 -77.35 62.7 -77.35 66.75 -77.35 68.4 -74.55 71.1 -71.95 73.55 -69.25 74.8 L-69.0 75.55 Q-69.4 76.3 -70.1 76.3 -76.3 76.3 -79.5 66.9 -79.5 60.25 -58.25 43.75 -58.0 44.25 -58.0 43.0 -58.0 42.6 -59.55 41.05 L-61.1 39.35 Q-61.1 33.2 -55.35 27.25 L-51.4 23.4 Q-49.6 21.6 -49.6 20.6 -49.6 19.25 -55.05 15.85 -60.5 12.4 -60.5 9.35 -60.5 7.1 -59.85 4.3 -58.95 0.25 -57.25 0.25 L-56.35 0.45 -56.1 1.0 M-51.5 59.25 Q-46.8 59.25 -42.5 60.75 -38.25 62.25 -38.25 63.75 -38.25 65.85 -39.0 66.25 L-44.75 66.8 Q-45.7 66.8 -48.65 68.55 -51.65 70.25 -54.0 70.25 -58.2 70.25 -61.5 67.25 -64.25 64.7 -64.25 62.85 L-64.0 62.0 Q-64.75 61.75 -63.5 61.75 -60.55 61.75 -60.25 62.55 L-61.1 62.6 -62.0 62.3 -63.35 62.25 Q-63.6 62.25 -63.6 63.0 -63.6 65.65 -59.75 67.75 -56.4 69.55 -53.8 69.55 -50.75 69.55 -48.5 68.05 -46.2 66.55 -44.25 66.55 -38.75 66.55 -38.75 63.85 -38.75 62.4 -43.5 61.05 -47.9 59.8 -51.75 59.8 -54.25 59.8 -58.25 61.55 -56.85 59.25 -51.5 59.25 M-5.85 66.05 L-6.25 66.05 -5.25 56.3 -4.75 56.75 -5.85 66.05 M-22.5 54.75 Q-21.2 54.75 -20.35 55.75 -19.75 56.45 -19.75 57.05 L-22.75 59.25 -23.75 59.05 -23.1 56.05 -23.25 55.8 Q-24.15 56.95 -25.25 57.05 -24.8 56.05 -23.65 55.3 -22.8 54.75 -22.5 54.75 M-23.1 58.5 L-20.5 57.0 Q-20.75 54.65 -22.35 55.5 L-23.0 58.05 -23.1 58.5" fill="#333333" fill-rule="evenodd" stroke="none"/>
    <path d="M-137.5 -71.15 Q13.7 -53.1 132.5 25.5 L132.5 83.0 -137.5 83.0 -137.5 -71.15" fill="url(#gradient0)" fill-rule="evenodd" stroke="none"/>
    <path d="M-137.5 -71.15 L-137.5 -77.35 Q20.0 -66.4 132.5 -4.8 L132.5 25.5 Q13.7 -53.1 -137.5 -71.15" fill="url(#gradient1)" fill-rule="evenodd" stroke="none"/>
    <path d="M132.5 -4.8 Q148.7 4.05 164.0 14.0 M-137.5 -71.15 L-154.5 -73.0 M-137.5 -77.35 L-147.0 -78.0 M-137.5 -71.15 Q13.7 -53.1 132.5 25.5 166.55 48.0 197.95 75.5 M132.5 -4.8 Q20.0 -66.4 -137.5 -77.35" fill="none" stroke="#000000" stroke-linecap="round" stroke-linejoin="round" stroke-width="1.0"/>
    <path d="M-137.5 -77.35 L-137.5 -86.5 132.5 -86.5 132.5 -4.8 132.5 25.5 132.5 83.0 -137.5 83.0 -137.5 -71.15 -137.5 -77.35 Z" fill="none" stroke="#000000" stroke-linecap="round" stroke-linejoin="round" stroke-width="1.0"/>
    <path d="M19.5 -28.0 Q19.5 -30.35 15.25 -32.9 10.9 -35.5 6.5 -35.5 3.9 -35.5 2.5 -33.5 1.5 -32.05 1.5 -30.5 1.5 -28.9 3.5 -26.35 6.55 -22.5 12.0 -22.5 16.05 -22.5 18.05 -24.65 19.5 -26.15 19.5 -28.0 M11.0 -39.5 Q11.0 -37.8 11.75 -36.85 13.6 -34.5 19.5 -34.5 31.75 -34.5 36.8 -36.35 41.5 -38.1 41.5 -42.0 41.25 -47.0 36.5 -47.0 11.0 -43.15 11.0 -39.5 M62.25 -16.15 L61.5 -15.1 61.55 -15.1 61.6 -15.15 62.25 -16.15 M74.55 -33.0 Q82.0 -28.85 82.0 -27.15 82.0 -26.25 81.0 -24.9 L81.0 -24.4 Q81.0 -23.15 78.6 -21.95 L73.25 -19.55 Q65.5 -15.6 65.5 -7.75 L65.5 -4.45 72.05 0.5 75.5 3.05 Q80.0 5.9 85.85 10.1 L86.25 10.3 Q95.5 15.15 100.9 19.0 L101.05 18.75 103.05 19.8 Q105.95 20.1 108.45 22.65 114.15 25.65 117.1 27.5 L119.3 29.0 Q122.8 31.75 130.35 41.05 L130.5 41.0 Q134.75 41.0 141.3 64.6 141.3 66.65 136.25 70.55 130.1 75.3 123.25 75.3 113.05 75.3 101.9 67.95 L96.5 63.95 96.05 64.0 Q92.85 64.0 88.8 62.25 82.75 59.6 80.0 54.3 78.45 49.95 77.15 47.45 74.75 42.8 71.0 42.8 62.95 42.8 56.85 51.6 54.75 54.65 53.35 58.1 52.2 61.0 52.25 62.0 51.7 63.35 52.1 67.05 52.55 71.1 52.1 73.0 50.8 78.25 42.0 79.6 40.65 81.75 36.75 81.75 32.2 81.75 29.65 77.75 L27.25 77.4 Q19.45 76.35 16.8 74.55 16.15 74.1 15.65 72.65 L14.6 70.15 Q12.7 67.0 6.75 67.0 3.45 67.0 1.0 68.55 -1.45 70.05 -5.55 70.05 -9.25 70.05 -12.85 66.65 -15.2 64.45 -16.35 62.3 L-16.75 62.3 -16.75 62.5 Q-20.9 59.8 -23.65 57.15 -26.2 55.4 -28.85 52.0 L-30.65 49.6 -30.65 49.55 -30.7 49.5 -30.75 49.4 -33.35 45.0 Q-33.35 42.7 -32.95 39.85 L-33.1 37.25 -32.35 29.35 Q-32.35 25.0 -34.2 20.75 L-36.5 15.4 -37.45 15.15 -53.85 12.5 Q-64.75 10.45 -70.3 6.6 -77.75 1.4 -77.75 -8.05 -77.75 -13.6 -73.25 -17.15 -67.7 -21.55 -54.7 -24.0 L-47.8 -26.65 -43.25 -28.15 -40.15 -29.2 Q-37.75 -31.05 -35.15 -31.45 L-34.55 -31.45 -33.1 -32.4 -33.05 -32.45 -28.4 -35.4 Q-23.45 -41.45 -23.1 -47.6 L-23.25 -47.6 -23.6 -47.9 -23.1 -48.25 -23.1 -48.5 Q-23.1 -50.2 -18.0 -54.0 -13.55 -57.25 -10.0 -57.9 L-8.25 -58.1 -8.15 -58.1 -7.75 -58.25 -6.9 -58.4 -6.45 -58.9 -4.5 -59.5 -2.4 -59.25 -1.25 -59.5 Q0.7 -59.5 12.95 -55.85 26.1 -52.0 39.55 -47.25 57.35 -41.0 66.65 -36.5 70.05 -35.45 74.55 -33.0 M-44.6 -26.0 L-42.95 -26.45 -42.75 -26.7 -44.6 -26.0 M-32.45 -31.4 L-32.3 -31.4 -32.05 -31.6 -32.45 -31.4 M-28.85 48.25 L-28.75 48.25 Q-29.65 46.3 -30.0 46.3 L-28.85 48.25" fill="url(#gradient2)" fill-rule="evenodd" stroke="none"/>
    <path d="M35.25 -26.6 L36.25 -26.75 46.2 -22.7 Q56.2 -18.5 59.0 -17.1 59.3 -16.6 58.05 -16.6 41.6 -25.35 35.25 -25.85 L35.25 -26.6 M0.8 -9.1 Q0.8 -7.3 -2.35 -7.25 -3.35 -7.65 -3.35 -9.1 -3.35 -11.3 -1.0 -10.85 L0.5 -10.6 Q0.8 -10.35 0.8 -9.1 M80.55 -23.75 L81.05 -23.85 Q81.5 -24.55 81.5 -23.3 L81.3 -22.75 80.75 -22.6 80.65 -22.4 Q80.5 -22.35 80.5 -23.15 L80.55 -23.75 M64.5 -16.75 L65.25 -16.85 66.25 -16.1 66.0 -15.0 65.8 -14.75 64.75 -14.85 64.5 -16.75 M69.05 -15.1 L68.5 -14.5 67.8 -15.35 69.05 -15.1 M65.8 -10.85 L66.75 -11.0 Q67.7 -11.0 67.75 -8.85 67.7 -9.95 67.05 -8.75 L66.25 0.05 65.75 0.25 65.3 -3.1 65.8 -10.85 M108.55 68.5 L107.0 67.0 Q107.1 66.55 107.75 66.55 L109.55 68.0 Q109.5 68.3 108.55 68.5 M88.5 54.5 L87.55 55.55 Q85.3 53.95 73.6 51.7 L61.05 49.5 64.0 48.25 Q67.8 47.15 75.5 47.3 79.5 47.9 83.65 50.4 87.3 52.55 88.5 54.5 M98.3 61.3 Q98.2 62.25 97.35 62.25 97.05 62.25 93.75 59.5 93.85 58.8 94.75 58.8 96.3 58.8 98.3 61.3 M136.25 58.85 Q136.25 57.3 137.5 57.3 138.45 57.3 139.25 58.0 L137.3 59.75 136.5 59.7 Q136.25 59.65 136.25 58.85 M39.55 0.8 L40.1 0.95 40.25 1.65 39.75 2.0 Q39.0 2.75 39.0 1.5 39.0 1.1 39.25 0.8 L39.55 0.8 M4.55 10.05 Q5.05 9.55 5.5 9.55 6.3 9.55 7.55 10.8 L7.0 11.5 5.0 11.25 Q4.55 10.8 4.55 10.05 M26.4 73.05 Q23.35 73.05 20.15 69.95 L17.0 66.3 Q17.25 66.05 17.75 66.05 19.1 66.05 27.05 72.3 L27.0 73.0 Q27.65 73.05 26.4 73.05 M43.25 69.05 Q44.9 67.75 46.2 63.85 47.4 60.15 48.25 59.75 L47.25 64.35 Q46.2 67.35 43.25 69.05 M-11.5 -56.0 L-10.0 -57.05 -8.35 -57.6 -9.25 -56.45 Q-9.55 -56.15 -10.0 -55.9 L-11.25 -55.6 -11.5 -56.0 M-19.5 -50.75 L-20.25 -50.85 Q-14.05 -55.1 -13.35 -55.1 L-19.5 -50.75 M-73.85 -9.25 Q-73.85 -6.0 -68.6 -0.6 L-69.25 -0.1 Q-72.95 -3.4 -73.9 -4.8 -75.1 -6.55 -75.1 -9.1 -75.1 -12.05 -72.0 -15.6 -70.55 -15.0 -70.35 -14.35 -71.4 -13.75 -72.6 -12.15 -73.85 -10.4 -73.85 -9.25 M-7.85 -44.0 L-7.5 -44.35 Q-6.6 -44.2 -6.6 -43.5 L-6.75 -43.1 Q-7.4 -43.25 -7.85 -44.0 M-12.75 -46.5 L-13.6 -45.85 -15.35 -46.9 Q-15.35 -48.15 -14.5 -47.85 L-12.75 -46.5 M-21.85 -45.35 Q-21.85 -50.35 -17.0 -51.0 -22.2 -48.95 -20.6 -43.0 L-20.75 -42.6 Q-21.85 -43.85 -21.85 -45.35 M-23.85 -39.85 Q-23.5 -40.55 -23.5 -39.3 L-23.6 -38.0 -24.0 -37.75 Q-24.5 -38.1 -24.5 -39.1 L-24.35 -39.85 -23.85 -39.85 M-37.25 -27.25 L-37.75 -27.35 -36.9 -27.7 -45.0 -26.85 Q-38.05 -29.95 -36.95 -30.25 L-28.25 -31.6 Q-27.75 -32.3 -27.75 -31.05 -27.75 -30.1 -31.65 -28.9 L-33.45 -28.4 Q-35.15 -27.7 -37.25 -27.25 M-28.75 -28.6 Q-27.9 -28.0 -27.75 -27.5 L-27.85 -27.1 -28.5 -26.75 -29.45 -26.75 Q-29.75 -26.8 -29.75 -27.6 L-29.6 -28.6 -28.75 -28.6 M-7.75 -12.85 Q-8.25 -12.15 -9.35 -12.0 L-9.75 -12.9 Q-9.75 -14.15 -9.0 -13.75 -7.9 -13.55 -7.75 -12.85 M-29.5 33.55 L-28.75 33.55 Q-28.35 34.25 -28.35 35.4 -28.35 37.3 -28.85 38.8 L-29.25 38.8 Q-29.6 37.35 -29.6 35.4 L-29.5 33.55 M-30.35 25.05 Q-30.1 24.35 -29.5 24.25 -28.25 25.3 -28.25 26.0 -28.25 28.5 -28.75 30.0 L-29.35 30.0 Q-30.05 25.8 -30.35 25.05 M-55.25 2.3 L-54.85 2.3 -54.35 3.05 -55.5 3.5 -55.6 2.85 Q-55.6 1.6 -55.25 2.3" fill="#ffffff" fill-rule="evenodd" stroke="none"/>
    <path d="M44.0 -17.25 L43.05 -18.25 43.55 -18.25 44.85 -17.4 44.3 -17.35 44.3 -17.1 44.0 -17.25" fill="#29242c" fill-rule="evenodd" stroke="none"/>
    <path d="M44.85 -17.4 L45.5 -17.6 52.45 -14.3 52.05 -15.5 52.55 -15.75 53.55 -15.1 53.3 -14.0 53.1 -14.0 57.25 -12.1 Q57.9 -12.1 57.9 -12.6 57.9 -13.1 58.5 -13.1 59.35 -13.1 60.5 -12.1 L61.55 -10.75 Q61.55 -8.9 59.5 -5.5 57.4 -6.35 45.1 -15.65 L44.5 -15.6 Q42.6 -15.6 37.9 -17.4 L32.4 -19.45 Q32.2 -19.2 31.75 -19.1 L31.05 -19.5 31.0 -20.25 31.5 -20.5 32.05 -20.3 32.05 -20.75 34.5 -21.0 Q36.75 -21.0 44.0 -17.25 L44.3 -17.1 44.3 -17.35 44.85 -17.4 M-17.55 -38.65 Q-17.85 -38.7 -17.85 -39.5 -17.85 -40.6 -16.0 -42.6 L-15.75 -42.6 -12.25 -39.85 -12.25 -39.6 -16.6 -38.6 -17.55 -38.65" fill="#685553" fill-rule="evenodd" stroke="none"/>
    <path d="M115.15 41.8 L119.95 58.55 Q117.8 59.8 115.5 59.8 108.95 59.8 106.9 58.45 L109.8 40.9 Q113.85 39.45 115.15 41.8 M63.1 92.1 L75.4 88.05 85.25 88.5 87.3 88.5 91.0 89.0 Q92.4 89.0 93.45 88.45 L99.35 88.3 90.25 100.8 Q76.8 97.05 63.1 92.1 M-33.15 32.6 L-31.65 31.95 -31.85 33.55 -33.15 32.6 M58.0 80.9 L57.85 80.9 57.95 80.85 58.0 80.9 M23.8 7.1 Q25.75 6.4 28.4 10.35 L4.7 50.3 Q23.85 59.2 42.55 65.8 L42.5 66.05 Q39.65 70.15 35.75 71.85 32.5 70.55 28.65 68.4 19.9 62.85 19.0 62.55 14.4 60.85 2.1 57.35 L0.05 56.75 -20.15 42.05 Q-21.85 37.4 -21.85 35.25 -21.85 30.55 -19.6 26.55 L23.8 7.1" fill="url(#gradient3)" fill-rule="evenodd" stroke="none"/>
    <path d="M63.1 92.1 Q76.8 97.05 90.25 100.8" fill="none" stroke="#373737" stroke-linecap="round" stroke-linejoin="round" stroke-width="1.0"/>
    <path d="M-11.05 -76.6 Q13.8 -70.85 29.45 -66.3 L25.1 1.5 Q20.65 3.9 19.45 1.35 L19.3 0.95 -11.05 -76.6" fill="url(#gradient4)" fill-rule="evenodd" stroke="none"/>
    <path d="M128.5 -16.6 L127.25 -17.6 Q84.7 -50.4 29.45 -66.3 13.8 -70.85 -11.05 -76.6 L-11.6 -78.0 65.5 -78.0 Q99.4 -68.3 128.5 -52.25 L128.5 -16.6" fill="url(#gradient5)" fill-rule="evenodd" stroke="none"/>
    <path d="M127.25 -17.6 L128.5 -16.6 128.5 22.35 113.9 39.1 Q111.45 40.75 109.0 35.5 L127.25 -17.6" fill="url(#gradient6)" fill-rule="evenodd" stroke="none"/>
    <path d="M-111.55 -78.0 L-94.75 -78.0 -89.5 -43.5 Q-92.25 -39.45 -95.0 -43.0 L-111.55 -78.0" fill="url(#gradient7)" fill-rule="evenodd" stroke="none"/>
    <path d="M127.25 -17.6 L128.5 -16.6 M128.5 -52.25 Q99.4 -68.3 65.5 -78.0 M-11.6 -78.0 L-11.05 -76.6 Q13.8 -70.85 29.45 -66.3 84.7 -50.4 127.25 -17.6 M19.3 0.95 L-11.05 -76.6 -17.15 -78.0" fill="none" stroke="#373737" stroke-linecap="round" stroke-linejoin="round" stroke-width="1.0"/>
    <path d="M127.25 -17.6 L109.0 35.5 Q111.45 40.75 113.9 39.1 L128.5 22.35 M29.45 -66.3 L25.1 1.5 Q20.65 3.9 19.45 1.35 L19.3 0.95 M-111.55 -78.0 L-95.0 -43.0 Q-92.25 -39.45 -89.5 -43.5 L-94.75 -78.0 M-113.0 -77.0 L-112.7 -78.0" fill="none" stroke="#373737" stroke-linecap="round" stroke-linejoin="round" stroke-width="1.0"/>
    <path d="M71.75 -54.85 Q71.25 -48.5 67.25 -48.5 63.45 -48.5 61.5 -51.65 60.5 -53.2 60.3 -54.8 60.3 -56.7 61.5 -58.35 63.15 -60.75 66.5 -60.75 71.65 -60.75 71.75 -54.85" fill="#696d6f" fill-rule="evenodd" stroke="none"/>
    <path d="M31.05 -63.5 Q28.55 -63.5 28.05 -64.5 27.75 -65.05 28.0 -65.65 28.0 -69.6 31.0 -69.6 33.65 -69.6 33.5 -67.35 33.5 -63.5 31.05 -63.5 M91.0 -52.1 Q91.7 -53.5 93.0 -53.5 95.65 -53.5 95.5 -50.05 95.5 -47.6 93.25 -47.6 91.3 -47.6 90.75 -49.1 90.45 -49.85 90.55 -50.6 90.55 -51.25 91.0 -52.1" fill="#696d6f" fill-opacity="0.99215686" fill-rule="evenodd" stroke="none"/>
    <path d="M25.0 -38.85 Q25.5 -38.85 27.75 -35.15 29.95 -34.7 29.75 -31.05 29.75 -27.1 26.25 -27.1 23.65 -27.1 22.5 -28.95 21.8 -30.05 21.8 -31.0 21.8 -32.1 23.55 -33.65 L24.5 -34.35 24.35 -34.65 Q23.55 -36.8 23.55 -38.5 L25.0 -38.85" fill="#87969f" fill-opacity="0.99215686" fill-rule="evenodd" stroke="none"/>
    <path d="M9.55 -16.85 Q10.55 -27.75 12.0 -27.75 L15.8 -16.05 Q15.8 -13.6 13.0 -13.6 8.9 -13.6 9.55 -16.85" fill="#888888" fill-opacity="0.99215686" fill-rule="evenodd" stroke="none"/>
    <path d="M61.5 -51.65 Q60.5 -53.2 60.3 -54.8 L60.35 -55.2 62.55 -54.75 63.15 -53.5 Q64.05 -52.05 65.25 -52.05 66.6 -52.05 66.9 -53.25 L67.25 -53.25 Q68.7 -53.25 69.35 -53.9 L71.65 -53.75 Q70.9 -48.5 67.25 -48.5 63.45 -48.5 61.55 -51.6 L62.25 -51.0 Q63.05 -51.4 63.1 -51.75 L62.25 -52.5 Q61.5 -52.5 61.5 -51.65 M69.9 -51.65 L70.0 -52.0 69.4 -52.05 Q69.4 -51.75 69.9 -51.65 M67.9 -49.25 Q67.5 -49.25 67.5 -48.8 68.0 -48.8 68.85 -49.6 68.45 -49.25 67.9 -49.25" fill="url(#gradient8)" fill-rule="evenodd" stroke="none"/>
    <path d="M92.4 -47.65 Q91.15 -47.95 90.75 -49.1 90.45 -49.85 90.55 -50.6 90.55 -51.25 91.0 -52.1 91.7 -53.5 93.0 -53.5 95.65 -53.5 95.5 -50.05 95.5 -47.8 93.6 -47.6 L93.65 -47.75 93.0 -48.25 Q92.4 -48.3 92.4 -47.65 M94.6 -49.75 L94.1 -49.75 94.25 -49.15 Q94.85 -49.25 94.85 -49.5 94.85 -50.15 94.6 -49.75 M91.6 -50.65 Q91.9 -50.05 92.75 -50.05 93.75 -50.05 93.75 -51.25 93.9 -52.65 92.75 -52.65 91.5 -52.65 91.5 -51.35 L91.6 -50.65" fill="url(#gradient9)" fill-rule="evenodd" stroke="none"/>
    <path d="M31.4 -66.4 L33.4 -65.95 Q33.2 -64.6 32.5 -64.0 L32.25 -64.25 Q31.75 -64.35 31.75 -63.75 L31.8 -63.6 31.05 -63.5 Q28.55 -63.5 28.05 -64.5 27.75 -65.05 28.0 -65.65 28.0 -66.75 28.25 -67.55 L29.65 -66.95 29.6 -66.75 29.65 -66.05 30.5 -65.8 30.25 -65.25 30.75 -65.0 31.25 -65.5 30.95 -65.8 31.4 -66.4" fill="url(#gradient10)" fill-rule="evenodd" stroke="none"/>
    <path d="M26.15 -34.3 L26.5 -34.65 28.6 -34.8 Q29.9 -33.9 29.75 -31.05 L29.75 -30.3 29.25 -30.65 Q29.25 -30.15 28.9 -30.0 L28.6 -30.0 28.75 -30.35 Q28.8 -32.15 27.5 -32.15 L25.6 -30.3 Q25.6 -28.8 27.1 -28.8 L28.0 -29.4 28.55 -29.9 29.25 -29.25 29.55 -29.35 Q29.1 -27.8 27.65 -27.3 L26.25 -27.1 Q23.65 -27.1 22.5 -28.95 21.8 -30.05 21.8 -31.0 21.8 -31.85 22.9 -33.0 L22.6 -31.75 22.7 -31.25 22.65 -31.25 22.65 -30.9 23.35 -30.75 23.4 -31.0 Q23.4 -31.65 23.25 -31.25 L22.8 -31.25 23.2 -32.1 Q23.45 -30.95 25.0 -30.8 26.25 -31.85 26.25 -33.15 L26.15 -34.3 M27.65 -27.3 L27.85 -27.65 27.6 -28.25 Q27.1 -28.25 27.1 -27.8 L27.25 -27.4 27.65 -27.3" fill="url(#gradient11)" fill-rule="evenodd" stroke="none"/>
    <path d="M12.6 -22.5 L13.75 -22.6 15.75 -16.2 15.25 -16.55 Q14.95 -16.7 14.65 -16.3 L14.35 -15.75 14.5 -15.15 15.25 -15.15 15.8 -15.8 Q15.65 -13.6 13.0 -13.6 8.9 -13.6 9.55 -16.85 9.85 -20.25 10.25 -22.6 L10.95 -22.5 11.0 -22.25 Q10.35 -21.8 10.35 -20.55 10.35 -19.75 10.85 -19.25 9.9 -19.1 9.9 -17.05 L10.0 -15.5 11.2 -15.3 Q11.75 -15.3 12.3 -16.25 L12.75 -17.7 12.7 -18.15 Q13.3 -17.25 13.85 -16.8 L14.0 -17.05 14.25 -17.8 Q14.25 -19.4 13.4 -20.5 L13.45 -21.55 Q13.55 -22.35 12.6 -22.5 M14.15 -14.25 L13.85 -14.55 13.25 -14.5 13.25 -14.0 13.5 -13.8 Q14.05 -13.8 14.15 -14.25" fill="url(#gradient12)" fill-rule="evenodd" stroke="none"/>
    <path d="M61.55 -51.6 L61.5 -51.65 Q61.5 -52.5 62.25 -52.5 L63.1 -51.75 Q63.05 -51.4 62.25 -51.0 L61.55 -51.6 M69.9 -51.65 Q69.4 -51.75 69.4 -52.05 L70.0 -52.0 69.9 -51.65 M29.75 -67.2 Q29.9 -67.55 30.5 -67.55 L31.45 -66.8 31.5 -66.75 31.4 -66.4 30.95 -65.8 30.75 -65.8 30.5 -65.8 29.65 -66.05 29.6 -66.75 29.65 -66.95 29.75 -67.2 M32.5 -64.0 L32.75 -63.75 32.25 -63.25 Q31.85 -63.3 31.8 -63.6 L31.75 -63.75 Q31.75 -64.35 32.25 -64.25 L32.5 -64.0 M27.65 -27.3 L27.25 -27.4 27.1 -27.8 Q27.1 -28.25 27.6 -28.25 L27.85 -27.65 27.65 -27.3 M29.55 -29.35 L29.25 -29.25 28.55 -29.9 28.5 -30.0 28.6 -30.0 28.9 -30.0 Q29.25 -30.15 29.25 -30.65 L29.75 -30.3 29.9 -30.15 29.9 -29.55 29.55 -29.35 M15.75 -16.2 L15.85 -16.05 15.8 -15.8 15.25 -15.15 14.5 -15.15 14.35 -15.75 14.65 -16.3 Q14.95 -16.7 15.25 -16.55 L15.75 -16.2 M14.15 -14.25 Q14.05 -13.8 13.5 -13.8 L13.25 -14.0 13.25 -14.5 13.85 -14.55 14.15 -14.25 M67.9 -49.25 Q68.45 -49.25 68.85 -49.6 68.0 -48.8 67.5 -48.8 67.5 -49.25 67.9 -49.25 M93.6 -47.6 L93.25 -47.25 92.65 -47.25 92.4 -47.65 Q92.4 -48.3 93.0 -48.25 L93.65 -47.75 93.6 -47.6 M94.6 -49.75 Q94.85 -50.15 94.85 -49.5 94.85 -49.25 94.25 -49.15 L94.1 -49.75 94.6 -49.75" fill="#ffffff" fill-rule="evenodd" stroke="none"/>
    <path d="M62.55 -54.75 L62.5 -55.05 Q62.5 -55.6 63.0 -56.5 63.65 -57.65 64.5 -57.65 L64.8 -57.65 64.75 -56.65 Q64.55 -55.7 64.8 -54.9 65.15 -53.4 66.9 -53.25 66.6 -52.05 65.25 -52.05 64.05 -52.05 63.15 -53.5 L62.55 -54.75 M68.6 -62.4 Q68.6 -61.7 67.75 -60.75 L67.0 -60.75 66.85 -61.5 68.0 -63.05 Q68.6 -62.95 68.6 -62.4 M32.0 -69.9 Q31.85 -69.3 31.3 -69.1 L30.6 -68.9 31.0 -67.5 32.35 -67.5 Q32.1 -66.95 31.45 -66.8 L30.5 -67.55 Q29.9 -67.55 29.75 -67.2 L29.45 -67.55 29.25 -68.4 Q29.25 -70.4 31.0 -70.4 31.6 -70.4 32.0 -69.9 M30.5 -65.8 L30.75 -65.8 30.95 -65.8 31.25 -65.5 30.75 -65.0 30.25 -65.25 30.5 -65.8 M26.5 -34.65 L26.15 -34.3 26.0 -34.5 26.0 -35.0 26.0 -35.25 26.5 -34.75 26.5 -34.65 M23.2 -32.1 L22.8 -31.25 23.25 -31.25 Q23.4 -31.65 23.4 -31.0 L23.35 -30.75 22.65 -30.9 22.65 -31.25 22.7 -31.25 22.6 -31.75 22.9 -33.0 23.05 -33.55 23.1 -33.7 23.1 -32.3 23.15 -32.3 23.2 -32.1 M28.55 -29.9 L28.0 -29.4 27.1 -28.8 Q25.6 -28.8 25.6 -30.3 L27.5 -32.15 Q28.8 -32.15 28.75 -30.35 L28.6 -30.0 28.5 -30.0 28.55 -29.9 M23.5 -35.65 L23.5 -36.15 23.85 -36.15 23.9 -35.95 23.5 -35.65 M11.25 -26.75 Q11.75 -26.55 11.75 -25.9 L11.5 -25.4 10.75 -25.5 10.65 -26.15 10.75 -26.75 11.25 -26.75 M10.95 -22.5 L10.85 -22.75 11.0 -23.25 11.6 -23.3 Q12.05 -23.1 12.1 -22.55 L12.0 -22.55 11.0 -22.25 10.95 -22.5 M12.7 -18.15 L12.75 -17.7 12.3 -16.25 Q11.75 -15.3 11.2 -15.3 L10.0 -15.5 9.9 -17.05 Q9.9 -19.1 10.85 -19.25 11.35 -18.75 12.55 -18.55 L12.7 -18.15 M91.6 -50.65 L91.5 -51.35 Q91.5 -52.65 92.75 -52.65 93.9 -52.65 93.75 -51.25 93.75 -50.05 92.75 -50.05 91.9 -50.05 91.6 -50.65" fill="#ffffff" fill-opacity="0.57254905" fill-rule="evenodd" stroke="none"/>
    <path d="M64.8 -57.65 Q65.0 -60.25 66.5 -60.25 70.0 -60.25 69.85 -55.4 69.85 -54.45 69.35 -53.9 68.7 -53.25 67.25 -53.25 L66.9 -53.25 Q65.15 -53.4 64.8 -54.9 64.55 -55.7 64.75 -56.65 L64.8 -57.65 M32.35 -67.5 L31.0 -67.5 30.6 -68.9 31.3 -69.1 Q31.85 -69.3 32.0 -69.9 L32.0 -70.3 33.35 -69.0 Q33.15 -68.05 32.5 -67.5 L32.35 -67.5 M26.15 -34.3 L26.25 -33.15 Q26.25 -31.85 25.0 -30.8 23.45 -30.95 23.2 -32.1 L23.15 -32.3 23.1 -32.3 23.1 -33.7 23.1 -35.3 23.5 -35.65 23.9 -35.95 25.0 -36.3 Q25.85 -36.3 26.0 -35.25 L26.0 -35.0 26.0 -34.5 26.15 -34.3 M12.1 -22.55 L12.6 -22.5 Q13.55 -22.35 13.45 -21.55 L13.4 -20.5 Q14.25 -19.4 14.25 -17.8 L14.0 -17.05 13.85 -16.8 Q13.3 -17.25 12.7 -18.15 L12.55 -18.55 Q11.35 -18.75 10.85 -19.25 10.35 -19.75 10.35 -20.55 10.35 -21.8 11.0 -22.25 L12.0 -22.55 12.1 -22.55" fill="#404040" fill-rule="evenodd" stroke="none"/>
    <path d="M49.0 -63.25 L49.25 -61.85 49.25 -61.75 47.8 -61.85 47.75 -63.9 Q47.75 -66.35 49.25 -70.55 50.55 -74.25 51.55 -75.6 48.25 -66.9 48.25 -63.8 L48.3 -62.5 Q48.55 -62.5 49.0 -63.25 M7.0 -70.1 L7.0 -70.25 Q8.9 -66.2 9.9 -60.2 L10.45 -56.4 11.7 -46.5 12.25 -42.35 11.75 -42.35 11.1 -45.8 7.75 -45.85 8.0 -46.25 11.05 -45.95 10.95 -46.5 Q6.75 -67.7 6.75 -70.05 L7.0 -70.1 M13.75 -57.9 L13.55 -57.35 13.25 -57.35 Q12.75 -59.55 12.25 -60.6 L13.05 -61.1 Q13.75 -59.15 13.75 -57.9 M19.05 -24.1 Q20.05 -20.8 20.65 -15.65 L21.75 -7.25 21.25 -6.85 20.15 -15.45 Q19.5 -21.15 18.75 -24.1 L19.05 -24.1 M109.5 -43.25 L118.6 -39.0 Q125.7 -35.7 127.75 -33.85 124.3 -34.95 117.75 -38.1 110.95 -41.4 109.25 -42.85 L109.5 -43.25 M105.75 -45.85 Q104.5 -45.35 104.0 -44.85 103.75 -45.1 103.75 -45.6 L103.8 -46.3 104.0 -46.1 104.0 -46.25 105.75 -45.85 M132.05 0.8 Q122.6 17.55 118.5 25.25 117.75 26.1 117.75 24.85 117.75 23.65 123.05 14.55 128.6 5.05 132.05 0.8 M-101.35 -77.6 Q-98.2 -69.05 -93.25 -47.6 L-93.5 -47.35 -96.5 -58.3 -98.1 -64.25 -101.75 -77.6 -101.35 -77.6 M-105.5 -75.6 L-105.5 -75.75 Q-102.85 -69.75 -100.75 -63.6 L-101.0 -63.35 Q-105.75 -74.35 -105.75 -75.55 L-105.5 -75.6 M-97.75 -58.0 L-97.75 -57.75 -99.75 -60.5 -99.5 -60.75 -97.75 -58.0" fill="#ffffff" fill-rule="evenodd" stroke="none"/>
    <path d="M108.15 40.3 Q116.7 37.45 115.5 40.75 L113.6 43.75 108.15 40.3 M66.0 87.5 L57.0 87.5 61.85 83.0 66.0 87.5 M17.4 3.45 Q21.55 2.05 20.3 7.55 L-73.2 71.3 Q-56.05 80.95 -36.7 87.5 L-86.0 87.5 -109.2 50.85 17.4 3.45 M-99.55 -43.05 Q-93.25 -44.15 -97.65 -38.45 L-99.55 -43.05" fill="url(#gradient13)" fill-rule="evenodd" stroke="none"/>
    <path d="M-97.65 -38.45 L-148.75 -11.65 -156.75 -24.25 -99.55 -43.05 -97.65 -38.45" fill="url(#gradient14)" fill-rule="evenodd" stroke="none"/>
    <path d="M108.15 40.3 L113.6 43.75 98.9 66.7 66.0 87.5 61.85 83.0 108.15 40.3" fill="url(#gradient15)" fill-rule="evenodd" stroke="none"/>
    <path d="M-156.05 -26.25 L-157.3 -25.15" fill="none" stroke="#373737" stroke-linecap="round" stroke-linejoin="round" stroke-width="1.0"/>
  </g>
  <defs>
    <radialGradient cx="0" cy="0" gradientTransform="matrix(0.2542, 0.0, 0.0, 0.2542, -85.0, 114.0)" gradientUnits="userSpaceOnUse" id="gradient0" r="819.2" spreadMethod="pad">
      <stop offset="0.0" stop-color="#515151"/>
      <stop offset="1.0" stop-color="#2e1d16"/>
    </radialGradient>
    <radialGradient cx="0" cy="0" gradientTransform="matrix(0.1929, 0.0, 0.0, 0.1929, -24.0, 58.0)" gradientUnits="userSpaceOnUse" id="gradient1" r="819.2" spreadMethod="pad">
      <stop offset="0.0" stop-color="#515151"/>
      <stop offset="0.6470588235294118" stop-color="#352d39"/>
      <stop offset="1.0" stop-color="#222222"/>
    </radialGradient>
    <radialGradient cx="0" cy="0" gradientTransform="matrix(-0.0419, 0.0802, -0.1411, -0.0737, 17.0, 3.0)" gradientUnits="userSpaceOnUse" id="gradient2" r="819.2" spreadMethod="pad">
      <stop offset="0.0" stop-color="#6bb6ad" stop-opacity="0.4509804"/>
      <stop offset="0.5019607843137255" stop-color="#5e83c2" stop-opacity="0.0"/>
      <stop offset="0.5529411764705883" stop-color="#000000" stop-opacity="0.0"/>
      <stop offset="1.0" stop-color="#000000" stop-opacity="0.5803922"/>
    </radialGradient>
    <linearGradient gradientTransform="matrix(-0.0135, 0.0392, -0.0887, -0.0306, 42.55, 49.1)" gradientUnits="userSpaceOnUse" id="gradient3" spreadMethod="pad" x1="-819.2" x2="819.2">
      <stop offset="0.0" stop-color="#b7b7b7" stop-opacity="0.37254903"/>
      <stop offset="1.0" stop-color="#83aec0" stop-opacity="0.0"/>
    </linearGradient>
    <linearGradient gradientTransform="matrix(0.0232, -0.0036, 0.0078, 0.0503, 14.25, -38.35)" gradientUnits="userSpaceOnUse" id="gradient4" spreadMethod="pad" x1="-819.2" x2="819.2">
      <stop offset="0.0" stop-color="#ba7a46"/>
      <stop offset="0.17647058823529413" stop-color="#b7b7b7"/>
      <stop offset="0.5098039215686274" stop-color="#5e5e5e"/>
      <stop offset="0.8313725490196079" stop-color="#badbef"/>
      <stop offset="1.0" stop-color="#83aec0"/>
    </linearGradient>
    <linearGradient gradientTransform="matrix(0.0087, -0.0196, 0.0899, 0.0397, 65.15, -62.15)" gradientUnits="userSpaceOnUse" id="gradient5" spreadMethod="pad" x1="-819.2" x2="819.2">
      <stop offset="0.0" stop-color="#ba7a46"/>
      <stop offset="0.17647058823529413" stop-color="#b7b7b7"/>
      <stop offset="0.5098039215686274" stop-color="#5e5e5e"/>
      <stop offset="0.8313725490196079" stop-color="#badbef"/>
      <stop offset="1.0" stop-color="#83aec0"/>
    </linearGradient>
    <linearGradient gradientTransform="matrix(-0.0111, -0.0055, 0.0157, -0.0316, 123.55, 12.8)" gradientUnits="userSpaceOnUse" id="gradient6" spreadMethod="pad" x1="-819.2" x2="819.2">
      <stop offset="0.0" stop-color="#ba7a46"/>
      <stop offset="0.17647058823529413" stop-color="#b7b7b7"/>
      <stop offset="0.5098039215686274" stop-color="#5e5e5e"/>
      <stop offset="0.8313725490196079" stop-color="#badbef"/>
      <stop offset="1.0" stop-color="#83aec0"/>
    </linearGradient>
    <linearGradient gradientTransform="matrix(-0.0103, 0.0037, -0.0102, -0.0288, -97.9, -65.8)" gradientUnits="userSpaceOnUse" id="gradient7" spreadMethod="pad" x1="-819.2" x2="819.2">
      <stop offset="0.0" stop-color="#ba7a46"/>
      <stop offset="0.17647058823529413" stop-color="#b7b7b7"/>
      <stop offset="0.5098039215686274" stop-color="#5e5e5e"/>
      <stop offset="0.8313725490196079" stop-color="#badbef"/>
      <stop offset="1.0" stop-color="#83aec0"/>
    </linearGradient>
    <radialGradient cx="0" cy="0" gradientTransform="matrix(0.0081, 0.0, 0.0, 0.0081, 66.05, -54.6)" gradientUnits="userSpaceOnUse" id="gradient8" r="819.2" spreadMethod="pad">
      <stop offset="0.47843137254901963" stop-color="#000000" stop-opacity="0.0"/>
      <stop offset="1.0" stop-color="#000000" stop-opacity="0.6313726"/>
    </radialGradient>
    <radialGradient cx="0" cy="0" gradientTransform="matrix(0.0037, 0.0, 0.0, 0.0037, 93.0, -50.55)" gradientUnits="userSpaceOnUse" id="gradient9" r="819.2" spreadMethod="pad">
      <stop offset="0.47843137254901963" stop-color="#000000" stop-opacity="0.0"/>
      <stop offset="1.0" stop-color="#000000" stop-opacity="0.6313726"/>
    </radialGradient>
    <radialGradient cx="0" cy="0" gradientTransform="matrix(0.0048, 0.0, 0.0, 0.0048, 30.7, -66.55)" gradientUnits="userSpaceOnUse" id="gradient10" r="819.2" spreadMethod="pad">
      <stop offset="0.47843137254901963" stop-color="#000000" stop-opacity="0.0"/>
      <stop offset="1.0" stop-color="#000000" stop-opacity="0.6313726"/>
    </radialGradient>
    <radialGradient cx="0" cy="0" gradientTransform="matrix(0.0082, 0.0, 0.0, 0.0082, 25.8, -32.95)" gradientUnits="userSpaceOnUse" id="gradient11" r="819.2" spreadMethod="pad">
      <stop offset="0.47843137254901963" stop-color="#000000" stop-opacity="0.0"/>
      <stop offset="1.0" stop-color="#000000" stop-opacity="0.6313726"/>
    </radialGradient>
    <radialGradient cx="0" cy="0" gradientTransform="matrix(0.0089, 0.0, 0.0, 0.0089, 12.65, -20.65)" gradientUnits="userSpaceOnUse" id="gradient12" r="819.2" spreadMethod="pad">
      <stop offset="0.47843137254901963" stop-color="#000000" stop-opacity="0.0"/>
      <stop offset="1.0" stop-color="#000000" stop-opacity="0.6313726"/>
    </radialGradient>
    <radialGradient cx="0" cy="0" gradientTransform="matrix(0.2152, 0.0, 0.0, 0.2152, 16.95, 6.0)" gradientUnits="userSpaceOnUse" id="gradient13" r="819.2" spreadMethod="pad">
      <stop offset="0.00784313725490196" stop-color="#000000" stop-opacity="0.2"/>
      <stop offset="0.7450980392156863" stop-color="#000000" stop-opacity="0.0"/>
    </radialGradient>
    <radialGradient cx="0" cy="0" gradientTransform="matrix(0.0695, 0.0, 0.0, 0.0695, -102.0, -40.0)" gradientUnits="userSpaceOnUse" id="gradient14" r="819.2" spreadMethod="pad">
      <stop offset="0.00784313725490196" stop-color="#000000" stop-opacity="0.2"/>
      <stop offset="0.7450980392156863" stop-color="#000000" stop-opacity="0.0"/>
    </radialGradient>
    <radialGradient cx="0" cy="0" gradientTransform="matrix(0.0714, 0.0, 0.0, 0.0714, 107.95, 47.0)" gradientUnits="userSpaceOnUse" id="gradient15" r="819.2" spreadMethod="pad">
      <stop offset="0.00784313725490196" stop-color="#000000" stop-opacity="0.2"/>
      <stop offset="0.7450980392156863" stop-color="#000000" stop-opacity="0.0"/>
    </radialGradient>
  </defs>
</svg>
