<?xml version="1.0" encoding="UTF-8" standalone="no"?>
<svg xmlns:ffdec="https://www.free-decompiler.com/flash" xmlns:xlink="http://www.w3.org/1999/xlink" ffdec:objectType="shape" height="66.25px" width="240.25px" xmlns="http://www.w3.org/2000/svg">
  <g transform="matrix(1.0, 0.0, 0.0, 1.0, 105.9, 37.1)">
    <path d="M36.4 -25.2 L38.0 -25.0 Q39.95 -25.0 41.2 -26.05 54.8 -21.9 67.65 -16.7 67.5 -16.1 67.5 -15.5 67.5 -14.25 68.25 -12.85 69.25 -11.05 71.25 -10.6 72.55 -10.0 74.5 -10.0 76.95 -10.0 79.2 -11.75 113.8 2.85 134.35 22.05 L130.35 29.15 Q78.75 2.45 35.35 -8.6 L36.4 -25.2 M132.35 -13.8 Q103.2 -31.75 78.0 -36.6 L131.35 -37.1 132.35 -13.8 M-87.2 -36.1 L-3.3 -36.1 4.1 -17.15 Q-39.4 -28.0 -86.85 -33.9 L-87.2 -36.1 M-102.85 -35.75 L-105.9 -36.1 -103.0 -36.1 -102.85 -35.75" fill="#74bff1" fill-rule="evenodd" stroke="none"/>
  </g>
</svg>
