<?xml version="1.0" encoding="UTF-8" standalone="no"?>
<svg xmlns:ffdec="https://www.free-decompiler.com/flash" xmlns:xlink="http://www.w3.org/1999/xlink" ffdec:objectType="shape" height="247.0px" width="168.05px" xmlns="http://www.w3.org/2000/svg">
  <g transform="matrix(1.0, 0.0, 0.0, 1.0, 80.55, 145.0)">
    <path d="M45.7 -90.05 L50.6 -89.95 55.2 -89.85 68.5 -89.55 Q69.05 -89.55 69.85 -87.3 70.85 -84.8 70.85 -82.85 L71.35 -74.05 71.05 -71.75 Q72.2 -65.4 73.25 -55.85 74.55 -43.9 75.3 -31.9 62.7 -23.15 61.2 -16.85 58.1 -20.0 54.0 -20.0 48.0 -20.0 46.55 -14.95 46.0 -13.15 46.0 -5.25 45.55 6.2 46.55 17.15 48.55 39.0 55.75 39.0 67.05 39.0 69.55 30.55 70.35 27.7 70.25 23.5 L70.0 17.75 Q70.0 7.95 68.0 -1.4 L66.95 -5.7 69.75 -5.5 Q71.95 -5.5 74.95 -8.0 74.3 3.3 73.1 14.9 71.25 33.35 68.45 46.55 L68.45 46.7 Q66.55 55.4 64.3 61.9 L64.25 62.05 63.4 64.3 64.5 65.7 Q67.0 69.35 67.0 72.75 67.0 75.0 65.85 76.7 L63.05 80.05 62.0 79.1 Q54.85 73.0 44.0 73.0 L6.45 62.5 Q-31.55 52.0 -36.0 52.0 -36.9 52.0 -41.8 56.8 -47.3 50.2 -52.05 43.55 -58.5 34.45 -58.5 32.6 -58.5 30.0 -56.4 30.0 L-57.75 27.3 -57.8 27.2 -65.0 19.15 Q-65.0 18.3 -64.55 17.9 L-66.35 16.1 Q-57.05 14.1 -46.95 1.95 -42.55 -3.4 -39.4 -9.0 -36.5 -14.15 -36.5 -16.0 -36.5 -16.8 -40.0 -21.35 -43.5 -25.9 -43.5 -26.5 L-42.0 -30.5 Q-40.45 -35.0 -40.1 -38.55 -39.4 -45.25 -42.9 -48.05 L-42.9 -49.4 Q-42.9 -51.1 -43.4 -54.7 L-45.0 -63.85 Q-45.0 -67.7 -42.9 -71.95 -40.3 -77.3 -35.15 -81.3 -24.75 -89.45 -6.7 -90.4 L-5.95 -88.1 Q-0.2 -73.0 18.25 -73.0 35.55 -73.0 44.55 -88.1 L45.7 -90.05 M-34.0 27.3 L-33.9 26.5 -34.15 27.25 -34.0 27.3" fill="#ffffff" fill-rule="evenodd" stroke="none"/>
    <path d="M-6.7 -90.4 Q-8.7 -96.9 -8.0 -103.75 -8.0 -116.5 -4.45 -125.6 3.05 -145.0 24.0 -145.0 38.6 -145.0 46.05 -130.1 51.0 -120.1 51.0 -110.5 51.0 -99.9 45.7 -90.05 L44.55 -88.1 Q35.55 -73.0 18.25 -73.0 -0.2 -73.0 -5.95 -88.1 L-6.7 -90.4 M75.3 -31.9 L80.0 -35.0 Q87.5 -35.0 87.5 -25.75 87.5 -23.0 80.95 -14.6 77.6 -10.3 74.95 -8.0 71.95 -5.5 69.75 -5.5 L66.95 -5.7 68.0 -1.4 Q70.0 7.95 70.0 17.75 L70.25 23.5 Q70.35 27.7 69.55 30.55 67.05 39.0 55.75 39.0 48.55 39.0 46.55 17.15 45.55 6.2 46.0 -5.25 46.0 -13.15 46.55 -14.95 48.0 -20.0 54.0 -20.0 58.1 -20.0 61.2 -16.85 62.7 -23.15 75.3 -31.9 M-66.35 16.1 L-70.0 16.5 Q-77.25 16.5 -79.55 11.05 -80.75 8.25 -80.5 5.0 -80.5 3.45 -78.3 -4.65 -75.55 -14.7 -72.1 -23.45 -61.55 -50.0 -50.0 -50.0 -45.4 -50.0 -42.9 -48.05 -39.4 -45.25 -40.1 -38.55 -40.45 -35.0 -42.0 -30.5 L-43.5 -26.5 Q-43.5 -25.9 -40.0 -21.35 -36.5 -16.8 -36.5 -16.0 -36.5 -14.15 -39.4 -9.0 -42.55 -3.4 -46.95 1.95 -57.05 14.1 -66.35 16.1" fill="#cc9d33" fill-rule="evenodd" stroke="none"/>
    <path d="M63.05 80.05 Q68.0 84.7 68.0 89.5 68.0 96.85 61.05 99.5 54.5 102.0 37.0 102.0 -28.1 102.0 -46.5 91.5 -53.25 87.65 -54.7 81.75 -55.0 80.45 -55.0 72.0 -55.0 70.25 -46.05 61.05 L-41.8 56.8 Q-36.9 52.0 -36.0 52.0 -31.55 52.0 6.45 62.5 L44.0 73.0 Q54.85 73.0 62.0 79.1 L63.05 80.05" fill="#404a59" fill-rule="evenodd" stroke="none"/>
  </g>
</svg>
