<?xml version="1.0" encoding="UTF-8" standalone="no"?>
<svg xmlns:ffdec="https://www.free-decompiler.com/flash" xmlns:xlink="http://www.w3.org/1999/xlink" ffdec:objectType="shape" height="78.5px" width="95.4px" xmlns="http://www.w3.org/2000/svg">
  <g transform="matrix(1.0, 0.0, 0.0, 1.0, 99.75, 165.65)">
    <path d="M-64.95 -161.55 Q-65.9 -161.55 -66.45 -160.9 -67.05 -160.25 -67.05 -159.1 -67.05 -156.8 -64.85 -156.8 -63.9 -156.8 -63.15 -157.4 L-62.55 -156.05 Q-63.3 -155.6 -63.85 -155.5 L-65.15 -155.35 Q-66.85 -155.35 -67.8 -156.35 -68.8 -157.35 -68.8 -159.1 -68.8 -160.85 -67.75 -161.9 -66.65 -162.95 -64.8 -162.95 -63.55 -162.95 -62.6 -162.25 L-63.3 -160.95 Q-63.9 -161.55 -64.95 -161.55 M-70.2 -164.65 Q-70.2 -164.25 -70.5 -163.95 -70.8 -163.7 -71.2 -163.7 L-71.9 -163.95 -72.2 -164.65 -71.9 -165.35 -71.2 -165.65 -70.5 -165.35 Q-70.2 -165.1 -70.2 -164.65 M-78.35 -162.4 Q-77.6 -162.95 -76.5 -162.95 -75.35 -162.95 -74.35 -162.45 L-74.8 -161.1 Q-75.4 -161.6 -76.4 -161.6 -77.3 -161.6 -77.3 -160.9 L-77.0 -160.4 -75.75 -159.75 Q-74.75 -159.4 -74.35 -158.85 -73.9 -158.3 -73.9 -157.55 -73.9 -156.55 -74.65 -155.95 -75.45 -155.35 -76.7 -155.35 L-77.9 -155.5 -79.05 -155.95 -78.4 -157.35 Q-77.65 -156.7 -76.7 -156.7 -75.7 -156.7 -75.7 -157.45 -75.7 -157.85 -76.0 -158.1 L-77.15 -158.75 Q-79.05 -159.55 -79.05 -160.95 -79.05 -161.9 -78.35 -162.4 M-73.0 -162.8 L-70.35 -162.8 -70.35 -155.5 -72.05 -155.5 -72.05 -161.4 -73.0 -161.4 -73.0 -162.8 M-80.4 -155.5 L-82.1 -155.5 -82.1 -156.1 Q-82.45 -155.8 -83.1 -155.6 L-84.3 -155.35 Q-86.85 -155.35 -86.85 -158.05 L-86.85 -162.8 -85.1 -162.8 -85.1 -158.2 Q-85.1 -156.8 -83.85 -156.8 L-82.75 -157.1 -82.1 -157.8 -82.1 -162.8 -80.4 -162.8 -80.4 -155.5 M-47.9 -138.3 L-47.9 -141.4 -44.35 -142.7 -44.35 -138.3 -40.2 -138.3 -40.2 -135.45 -44.35 -135.45 -44.35 -128.85 Q-44.35 -127.2 -43.85 -126.5 -43.35 -125.85 -42.05 -125.85 -40.8 -125.85 -39.7 -126.55 L-39.7 -123.3 -43.2 -122.85 Q-45.45 -122.85 -46.7 -124.15 -47.9 -125.45 -47.9 -127.8 L-47.9 -135.45 -49.65 -135.45 -49.65 -138.3 -47.9 -138.3 M-57.3 -136.95 Q-55.8 -138.6 -53.35 -138.6 -51.55 -138.6 -50.55 -138.05 L-52.05 -135.0 Q-53.0 -135.65 -54.15 -135.65 -55.4 -135.65 -56.35 -134.5 -57.3 -133.4 -57.3 -131.8 L-57.3 -123.15 -60.85 -123.15 -60.85 -138.3 -57.3 -138.3 -57.3 -136.95 M-71.35 -138.6 Q-67.9 -138.6 -66.3 -137.0 -64.65 -135.45 -64.65 -131.05 L-64.65 -127.8 Q-64.65 -124.75 -63.45 -124.0 -63.9 -123.2 -64.4 -123.05 L-65.65 -122.85 Q-66.4 -122.85 -67.05 -123.45 -67.65 -124.0 -67.85 -124.65 -68.35 -123.85 -69.5 -123.35 -70.7 -122.85 -72.05 -122.85 -74.5 -122.85 -75.9 -124.1 -77.3 -125.3 -77.3 -127.55 -77.3 -130.2 -75.3 -131.7 -73.35 -133.2 -69.7 -133.2 L-68.2 -132.95 Q-68.2 -135.65 -71.6 -135.65 -73.6 -135.65 -74.95 -134.95 L-75.7 -137.7 Q-73.9 -138.6 -71.35 -138.6 M-71.35 -125.7 Q-68.2 -125.7 -68.2 -128.85 L-68.2 -130.3 -69.55 -130.45 Q-73.75 -130.45 -73.75 -127.7 -73.75 -125.7 -71.35 -125.7 M-76.3 -101.25 Q-74.8 -102.9 -72.35 -102.9 -70.55 -102.9 -69.55 -102.35 L-71.05 -99.3 Q-72.0 -99.95 -73.15 -99.95 -74.4 -99.95 -75.35 -98.8 -76.3 -97.7 -76.3 -96.1 L-76.3 -87.45 -79.85 -87.45 -79.85 -102.6 -76.3 -102.6 -76.3 -101.25 M-62.5 -102.9 Q-59.05 -102.9 -57.45 -101.3 -55.8 -99.75 -55.8 -95.35 L-55.8 -92.1 Q-55.8 -89.05 -54.6 -88.3 -55.05 -87.5 -55.55 -87.35 L-56.8 -87.15 Q-57.55 -87.15 -58.2 -87.75 -58.8 -88.3 -59.0 -88.95 -59.5 -88.15 -60.65 -87.65 -61.85 -87.15 -63.2 -87.15 -65.65 -87.15 -67.05 -88.4 -68.45 -89.6 -68.45 -91.85 -68.45 -94.5 -66.45 -96.0 -64.5 -97.5 -60.85 -97.5 L-59.35 -97.25 Q-59.35 -99.95 -62.75 -99.95 -64.75 -99.95 -66.1 -99.25 L-66.85 -102.0 Q-65.05 -102.9 -62.5 -102.9 M-48.45 -109.1 L-48.45 -96.8 -43.4 -102.6 -39.15 -102.6 -44.25 -96.85 -38.1 -87.45 -42.3 -87.45 -46.75 -94.3 -48.45 -92.5 -48.45 -87.45 -52.0 -87.45 -52.0 -108.25 -48.45 -109.1 M-15.1 -138.3 L-14.45 -136.9 Q-13.0 -138.6 -10.2 -138.6 -7.45 -138.6 -5.9 -136.95 -4.35 -135.35 -4.35 -132.45 L-4.35 -123.15 -7.9 -123.15 -7.9 -131.9 Q-7.9 -133.85 -8.6 -134.75 -9.35 -135.65 -11.05 -135.65 L-12.7 -135.2 Q-13.6 -134.75 -14.1 -134.1 L-14.1 -123.15 -17.65 -123.15 -17.65 -138.3 -15.1 -138.3 M-22.45 -143.6 Q-21.85 -143.0 -21.85 -142.15 -21.85 -141.3 -22.45 -140.7 -23.05 -140.1 -23.9 -140.1 -24.75 -140.1 -25.35 -140.7 -25.95 -141.3 -25.95 -142.15 -25.95 -143.0 -25.35 -143.6 -24.75 -144.2 -23.9 -144.2 -23.05 -144.2 -22.45 -143.6 M-22.0 -138.3 L-22.0 -123.5 Q-22.0 -120.25 -24.05 -118.7 -26.1 -117.2 -30.35 -117.2 L-30.35 -120.35 Q-27.55 -120.35 -26.55 -121.05 -25.55 -121.7 -25.55 -123.45 L-25.55 -135.4 -28.25 -135.4 -28.25 -138.3 -22.0 -138.3 M-32.7 -143.6 Q-32.1 -143.0 -32.1 -142.15 -32.1 -141.3 -32.7 -140.7 -33.3 -140.1 -34.15 -140.1 -35.0 -140.1 -35.6 -140.7 -36.2 -141.3 -36.2 -142.15 -36.2 -143.0 -35.6 -143.6 -35.0 -144.2 -34.15 -144.2 -33.3 -144.2 -32.7 -143.6 M-32.4 -138.3 L-32.4 -123.15 -36.0 -123.15 -36.0 -135.4 -37.95 -135.4 -37.95 -138.3 -32.4 -138.3 M-29.55 -102.9 Q-26.25 -102.9 -24.25 -100.95 -22.25 -98.95 -22.25 -95.9 -22.25 -95.25 -22.55 -93.95 L-33.4 -93.95 Q-33.3 -92.15 -32.15 -91.15 -31.0 -90.15 -29.05 -90.15 -26.65 -90.15 -25.35 -91.4 L-24.0 -88.7 Q-25.85 -87.15 -29.55 -87.15 -33.05 -87.15 -35.05 -89.2 -37.1 -91.25 -37.1 -94.85 -37.1 -98.45 -34.85 -100.7 -32.65 -102.9 -29.55 -102.9 M-14.5 -99.5 L-15.9 -98.4 -15.9 -87.45 -19.45 -87.45 -19.45 -102.6 -16.9 -102.6 -16.25 -101.2 Q-14.8 -102.9 -12.0 -102.9 -9.25 -102.9 -7.7 -101.25 -6.15 -99.65 -6.15 -96.75 L-6.15 -87.45 -9.7 -87.45 -9.7 -96.2 Q-9.7 -98.15 -10.4 -99.05 -11.15 -99.95 -12.85 -99.95 L-14.5 -99.5 M-97.35 -162.2 Q-96.65 -162.95 -95.5 -162.95 -94.05 -162.95 -93.3 -162.15 -93.0 -162.55 -92.4 -162.75 L-91.3 -162.95 Q-90.05 -162.95 -89.35 -162.25 -88.7 -161.55 -88.7 -160.35 L-88.7 -155.5 -90.4 -155.5 -90.4 -160.1 Q-90.4 -161.55 -91.7 -161.55 L-92.45 -161.3 -92.95 -160.8 -92.95 -155.5 -94.65 -155.5 -94.65 -160.35 Q-94.65 -160.9 -94.95 -161.2 -95.3 -161.55 -95.9 -161.55 L-96.6 -161.3 -97.15 -160.75 -97.15 -155.5 -98.9 -155.5 -98.9 -162.8 -97.7 -162.8 -97.35 -162.2 M-93.4 -143.9 L-88.9 -129.9 -84.5 -143.9 -82.55 -143.9 -78.35 -123.15 -81.9 -123.15 -84.05 -134.3 -88.25 -122.85 -89.55 -122.85 -93.75 -134.3 -95.95 -123.15 -99.5 -123.15 -95.35 -143.9 -93.4 -143.9 M-81.85 -108.2 L-89.95 -87.15 -91.95 -87.15 -99.75 -108.2 -95.7 -108.2 -90.9 -94.2 -85.8 -108.2 -81.85 -108.2 M-25.8 -96.6 Q-26.2 -99.95 -29.5 -99.95 -32.5 -99.95 -33.25 -96.6 L-25.8 -96.6 M-60.7 -94.75 Q-64.9 -94.75 -64.9 -92.0 -64.9 -90.0 -62.5 -90.0 -59.35 -90.0 -59.35 -93.15 L-59.35 -94.6 -60.7 -94.75" fill="#d99d9d" fill-rule="evenodd" stroke="none"/>
  </g>
</svg>
