<?xml version="1.0" encoding="UTF-8" standalone="no"?>
<svg xmlns:ffdec="https://www.free-decompiler.com/flash" xmlns:xlink="http://www.w3.org/1999/xlink" ffdec:objectType="shape" height="172.55px" width="283.35px" xmlns="http://www.w3.org/2000/svg">
  <g transform="matrix(1.0, 0.0, 0.0, 1.0, 125.0, 78.25)">
    <path d="M48.15 -62.6 L49.0 -62.85 Q50.85 -62.85 54.65 -59.3 58.4 -55.75 60.75 -55.75 65.75 -50.7 68.35 -47.15 L70.05 -49.1 Q70.05 -48.35 69.05 -46.85 L68.85 -46.45 70.05 -44.5 Q70.0 -44.1 69.05 -44.0 L68.1 -44.8 68.05 -44.6 67.55 -43.55 67.8 -43.6 Q72.2 -43.6 73.55 -37.6 L74.05 -31.4 Q74.05 -30.35 72.75 -29.6 L73.3 -27.95 Q74.25 -28.8 75.55 -28.6 74.25 -26.8 73.55 -25.1 L74.05 -25.6 Q74.3 -26.1 74.3 -24.85 L73.75 -23.5 73.15 -24.05 72.95 -23.4 73.45 -21.3 74.0 -17.0 Q70.0 -11.1 70.0 -5.6 70.0 -2.2 70.55 0.6 L72.9 6.5 73.6 6.6 Q74.85 6.85 75.55 7.55 L73.1 7.0 73.75 8.75 79.35 12.95 Q86.55 19.2 90.4 24.9 L98.9 29.0 Q109.05 34.45 109.05 38.6 L108.0 42.7 107.9 43.4 108.8 43.85 113.7 41.55 113.45 41.3 110.25 37.3 110.55 37.3 114.35 41.25 120.55 38.15 Q126.25 35.4 131.05 34.3 L131.25 34.75 Q129.2 34.85 126.75 36.7 124.35 38.5 122.1 38.5 118.15 40.2 114.9 41.85 L117.75 45.05 117.75 45.25 Q116.1 44.3 114.25 42.2 L110.1 44.5 Q114.7 46.9 117.55 48.55 117.55 47.85 118.05 47.7 L118.5 47.55 120.95 50.55 Q128.05 55.0 130.0 58.5 L129.55 59.25 Q128.0 57.6 124.0 54.85 128.3 61.35 131.25 68.8 L130.8 69.55 Q127.3 65.0 122.45 57.45 L118.8 51.4 Q114.55 48.7 108.8 45.3 L107.5 46.15 Q107.65 47.4 108.5 48.25 L108.0 48.8 Q107.5 48.55 106.85 46.9 L106.75 46.65 105.3 47.75 104.5 47.75 Q104.25 47.75 104.25 47.0 104.25 46.3 105.75 44.75 L106.55 43.95 101.5 41.0 Q95.55 37.6 90.9 34.7 95.3 37.05 101.65 40.2 L106.8 42.85 107.75 38.6 Q107.75 35.45 91.15 26.0 92.65 28.45 93.55 30.8 L93.5 31.05 Q91.65 28.5 86.35 23.35 L81.05 20.5 81.5 20.05 85.05 22.1 81.25 18.5 75.4 13.05 75.75 14.0 75.75 14.25 74.85 12.55 67.9 5.6 Q68.75 9.5 69.1 14.15 69.35 10.65 70.05 9.8 70.25 10.55 69.75 12.05 69.75 16.35 71.0 25.65 L71.55 25.8 71.65 25.6 71.75 26.35 Q71.75 27.05 71.25 27.35 L71.25 27.55 Q73.45 27.6 73.8 28.05 L73.8 28.5 71.35 28.3 71.9 32.1 79.75 34.9 Q70.5 24.7 70.5 21.0 70.5 20.2 71.0 20.15 L71.55 20.25 72.65 20.9 Q73.25 21.25 71.8 21.8 76.15 29.4 82.25 35.75 L95.25 40.25 Q95.25 41.75 94.0 41.75 L88.5 41.55 Q92.35 44.75 96.75 47.55 L96.75 47.75 Q92.65 47.4 86.0 41.3 82.5 40.85 80.15 39.9 77.05 38.7 74.65 35.9 L74.6 35.85 Q73.95 37.55 73.3 37.55 L72.6 37.55 72.8 39.8 72.75 41.0 72.5 41.55 71.75 37.45 Q71.0 37.3 70.75 37.0 L70.0 35.55 70.55 35.05 70.9 35.8 71.55 36.25 70.9 32.2 70.3 31.85 69.8 31.6 70.05 39.75 70.0 40.25 Q68.9 37.3 67.95 30.95 64.75 30.0 59.8 30.0 59.05 30.0 54.15 27.45 L53.85 27.9 Q94.45 60.05 111.25 70.0 L111.25 70.25 Q93.85 62.2 77.2 48.3 62.85 35.4 53.7 28.15 51.3 32.05 49.25 34.25 L48.75 34.05 Q50.9 31.5 53.3 27.8 L50.05 25.3 50.15 25.3 49.7 25.05 Q45.4 22.7 42.4 21.25 45.2 27.3 47.25 33.55 L47.25 33.75 40.25 20.15 Q38.1 19.15 37.0 18.8 35.05 18.15 29.55 13.95 L28.2 16.75 28.95 20.8 31.3 20.3 37.5 19.8 38.25 20.05 38.25 20.25 29.05 21.5 29.25 24.85 28.75 27.0 28.25 27.05 28.55 25.0 28.3 21.5 Q23.5 21.3 20.75 18.3 L21.55 18.25 Q22.3 18.25 22.95 18.9 L24.2 20.1 Q25.5 21.1 28.2 20.85 L27.6 17.85 27.0 18.75 26.45 18.7 Q26.3 18.6 26.3 17.85 26.3 16.95 26.95 15.1 L25.75 10.95 Q23.2 8.8 22.4 7.75 21.65 10.8 19.9 14.5 19.45 21.95 18.0 25.55 14.85 33.25 3.0 43.7 L12.4 32.5 Q18.0 26.05 18.0 25.35 L18.25 17.7 Q15.9 21.95 12.4 26.9 L10.15 30.05 10.25 30.5 9.9 30.35 7.3 33.7 Q7.65 33.5 8.05 33.25 L8.3 33.15 Q8.55 33.2 8.55 34.0 8.55 34.75 3.8 37.9 -1.65 44.1 -7.25 48.75 L-8.25 48.55 0.2 40.15 Q-9.65 46.15 -30.95 57.85 L-35.85 63.55 -36.25 63.55 -33.75 59.4 -34.5 59.8 Q-42.85 64.9 -47.5 73.05 L-50.85 79.6 Q-52.7 83.45 -54.1 85.5 L-54.75 85.55 Q-52.9 70.3 -38.8 60.8 -52.75 54.75 -62.75 45.8 L-62.35 45.8 Q-44.1 58.6 -38.7 60.75 L-36.0 59.0 -31.75 56.55 Q-28.2 51.75 -24.45 49.3 L-28.25 54.5 4.6 35.3 8.0 31.15 Q1.6 36.85 -23.75 48.55 -14.5 42.15 9.35 29.4 15.2 21.7 18.35 14.75 L18.75 -8.35 14.25 -19.1 14.55 -19.1 18.75 -9.85 18.75 -10.1 18.95 -10.1 Q15.55 -16.1 14.95 -22.25 12.7 -22.35 11.05 -23.5 9.75 -24.45 9.75 -24.9 L10.25 -34.0 11.0 -34.25 15.5 -33.85 15.8 -33.5 Q15.8 -32.75 15.45 -32.4 L11.75 -32.6 11.75 -28.9 Q11.75 -26.55 12.05 -25.8 12.75 -24.25 14.85 -23.9 L14.8 -24.9 Q14.8 -26.9 16.15 -31.45 L16.5 -32.5 16.55 -34.85 Q16.55 -42.75 17.05 -46.6 L17.55 -46.6 Q18.2 -43.7 18.3 -37.3 L19.75 -40.35 19.75 -40.65 Q19.75 -48.5 21.3 -46.85 L21.25 -43.05 23.75 -46.75 23.0 -46.1 22.45 -46.1 Q22.25 -46.15 22.25 -46.9 22.25 -48.35 29.6 -55.2 36.45 -61.65 38.25 -62.6 38.75 -63.3 38.75 -62.05 L37.85 -60.6 Q41.1 -61.95 43.25 -61.85 36.9 -58.7 34.1 -56.6 L32.65 -55.15 32.0 -54.5 31.6 -54.1 Q33.4 -55.25 35.3 -56.0 L41.55 -59.1 37.85 -56.95 40.1 -57.5 Q40.7 -58.6 41.75 -58.6 L41.9 -58.6 Q42.9 -60.1 44.05 -61.25 45.1 -60.05 45.9 -58.1 L46.0 -58.1 49.5 -57.8 Q49.55 -58.55 49.75 -58.6 L50.05 -58.6 50.7 -58.45 49.85 -59.4 Q48.3 -61.05 48.05 -62.1 L48.15 -62.6 M46.4 -56.7 L46.9 -54.85 47.5 -54.75 51.0 -54.85 53.8 -54.7 Q53.25 -55.0 52.65 -55.25 51.0 -55.35 49.9 -56.15 L46.4 -56.7 M45.05 -56.75 L43.5 -56.7 43.55 -56.1 43.5 -55.0 46.0 -54.95 45.45 -56.75 45.05 -56.75 M44.95 -58.05 L44.0 -60.35 42.6 -58.4 43.1 -57.95 44.95 -58.05 M42.55 -49.55 L46.55 -50.6 Q46.8 -51.7 46.3 -53.85 L43.4 -53.6 Q43.1 -51.05 42.45 -50.2 L42.55 -49.55 M41.75 -49.85 L39.5 -50.25 39.5 -51.6 39.3 -51.0 39.1 -50.35 37.3 -45.5 36.75 -45.35 38.15 -49.65 Q36.6 -49.0 33.0 -49.0 L29.65 -49.2 27.4 -47.65 Q23.65 -44.6 21.2 -39.4 L21.0 -33.75 20.5 -33.5 Q20.05 -33.9 19.9 -36.25 L19.05 -33.75 Q18.85 -33.45 18.3 -33.35 18.3 -26.2 19.25 -22.85 19.6 -22.5 18.35 -22.5 16.9 -22.5 16.6 -27.95 16.05 -25.8 16.05 -24.8 L16.1 -23.8 16.55 -23.85 16.3 -22.75 16.15 -22.5 Q16.75 -15.9 20.75 -9.6 22.3 -7.1 24.25 -5.2 24.3 -8.5 26.35 -13.35 28.6 -18.65 32.3 -23.35 37.65 -30.2 43.75 -33.15 L43.15 -41.25 41.5 -41.1 Q39.55 -42.0 39.55 -42.15 39.55 -42.8 40.55 -43.85 41.5 -44.85 42.0 -44.85 L42.8 -44.6 42.25 -48.6 41.55 -48.75 Q40.6 -48.8 42.15 -49.35 L42.05 -49.9 41.75 -49.85 M47.3 -49.75 L42.7 -48.75 43.35 -44.2 Q44.0 -43.75 45.05 -43.6 45.3 -44.3 45.3 -43.05 45.3 -42.3 44.25 -41.7 L43.7 -41.4 44.4 -33.45 Q48.65 -35.35 53.25 -35.35 54.65 -35.35 60.55 -24.95 64.85 -17.45 66.9 -12.0 L67.05 -12.35 Q69.8 -18.6 69.8 -25.4 L69.3 -29.65 Q68.8 -30.1 68.8 -30.3 L69.0 -31.15 68.7 -32.3 68.4 -33.45 Q67.7 -34.65 66.95 -36.5 L65.8 -39.85 Q64.95 -37.65 65.55 -36.0 L65.3 -35.35 Q63.75 -36.1 63.75 -38.5 63.75 -40.2 64.95 -42.45 L64.75 -42.85 Q61.8 -48.5 58.0 -51.85 L58.75 -49.85 Q55.3 -48.6 54.05 -48.6 53.75 -49.25 50.0 -49.5 L49.8 -50.6 Q49.8 -51.55 50.8 -52.45 52.0 -53.6 53.75 -53.6 L55.95 -53.45 55.75 -53.6 50.6 -54.0 47.1 -53.9 47.3 -52.6 47.3 -49.75 M54.8 -56.0 L57.2 -54.55 55.45 -56.1 54.8 -56.0 M54.15 -57.3 L53.8 -57.6 53.95 -57.35 54.15 -57.3 M39.6 -56.2 Q36.4 -55.5 33.6 -54.0 L36.85 -53.8 37.1 -53.65 39.5 -54.4 39.5 -55.85 39.6 -56.2 M39.15 -52.9 L38.15 -52.65 38.85 -51.85 39.15 -52.9 M29.15 -49.3 Q28.35 -49.5 27.9 -49.75 25.75 -47.65 23.9 -44.95 L27.6 -48.2 29.15 -49.3 M19.1 -9.9 L19.15 -8.95 21.85 -2.5 22.05 -2.6 22.7 -0.45 Q25.1 5.7 26.6 10.75 L28.1 12.05 Q29.6 8.45 31.25 8.0 L31.4 7.8 31.55 8.5 Q31.55 9.45 29.8 13.35 33.7 16.2 39.7 19.2 L37.4 15.15 Q30.75 4.2 22.55 -3.6 L23.05 -3.75 23.7 -3.7 Q21.55 -5.85 19.85 -8.6 L19.1 -9.9 M27.75 -13.05 Q24.95 -7.6 25.25 -4.3 31.05 0.75 39.85 0.75 L45.2 0.6 44.1 -25.85 43.85 -31.85 40.2 -29.65 Q34.4 -25.65 32.75 -22.25 L27.75 -13.05 M19.3 -7.0 Q20.05 3.8 20.05 8.0 L20.05 10.4 Q21.9 4.75 21.85 -0.4 L19.3 -7.0 M66.9 -45.4 L67.1 -45.65 66.75 -46.0 66.9 -45.4 M66.25 -46.45 L60.75 -51.35 Q63.15 -48.7 65.2 -45.0 65.45 -45.7 66.25 -46.45 M71.15 -34.9 L71.55 -37.4 Q71.75 -40.2 67.7 -42.1 69.35 -35.35 70.3 -32.15 L71.5 -32.35 Q70.9 -33.4 71.15 -34.9 M72.1 -26.4 L71.95 -27.15 71.6 -29.15 70.7 -28.9 71.05 -25.35 71.05 -25.1 71.55 -25.15 72.1 -26.4 M44.75 -26.05 Q45.05 -9.15 45.55 0.6 53.3 0.05 54.25 -2.1 54.95 -2.1 54.5 -1.35 62.15 -2.95 66.25 -10.6 63.65 -15.1 58.95 -23.9 53.4 -34.35 52.55 -34.35 48.75 -34.35 44.45 -32.2 L44.75 -26.05 M71.25 -24.0 L71.05 -25.1 Q71.0 -17.45 67.55 -10.3 L67.75 -9.55 68.25 -11.35 68.1 -8.4 68.2 -8.0 Q68.65 -10.65 70.0 -13.5 72.0 -17.6 72.0 -18.0 L71.9 -19.55 Q71.05 -20.3 71.05 -22.35 L71.25 -24.0 M68.05 -7.55 L67.95 -5.7 68.0 -5.6 68.15 -7.45 68.05 -7.55 M67.0 -9.25 L66.8 -8.9 Q60.15 3.55 45.75 4.05 L45.75 4.5 45.5 5.05 45.45 4.05 44.5 4.05 Q36.55 4.05 30.6 1.2 33.4 4.5 36.65 10.1 39.55 15.1 42.0 20.3 L50.1 23.85 54.65 25.7 60.05 15.8 55.05 25.85 66.25 30.05 67.65 28.9 Q66.95 24.15 66.35 17.85 65.05 4.4 65.05 -0.5 65.05 -1.8 65.5 -2.25 L66.3 -1.6 66.6 -1.35 Q66.8 -5.2 67.5 -8.45 L67.0 -9.25 M66.3 -1.6 L65.75 -1.5 66.55 0.6 66.6 -1.15 66.3 -1.6 M67.6 -0.1 L68.3 1.0 68.95 2.25 68.8 1.8 Q68.1 -0.65 68.0 -4.5 L67.9 -4.8 67.6 -0.1 M105.25 -20.5 L105.6 -20.35 105.75 -19.55 105.75 -19.5 108.25 -23.7 Q114.0 -32.95 119.05 -36.6 L110.6 -24.05 Q105.7 -16.4 104.25 -11.5 L103.75 -11.35 103.3 -14.0 Q103.3 -15.05 105.25 -18.55 104.8 -18.5 104.8 -18.25 L104.0 -18.15 Q103.75 -18.15 103.75 -18.9 103.75 -19.9 105.25 -20.5 M102.05 -1.1 Q102.5 -0.25 103.75 1.05 97.55 9.3 95.75 10.8 97.1 7.7 102.5 1.55 L101.7 1.55 Q101.5 1.5 101.5 0.75 101.5 -0.5 101.75 -1.1 L102.05 -1.1 M132.8 33.55 L132.0 33.5 Q131.8 34.1 131.8 32.85 131.8 31.8 134.05 31.8 134.0 32.25 132.8 33.55 M88.55 1.05 Q88.25 1.75 88.25 0.5 88.25 -0.1 90.05 -1.6 L90.05 0.55 Q89.75 1.0 88.55 1.05 M85.8 33.8 L85.55 34.25 84.5 34.25 Q84.5 33.8 84.0 33.55 85.35 31.3 87.55 26.3 85.9 32.9 85.8 33.8 M85.55 46.65 Q85.3 46.65 85.3 45.85 85.8 45.0 85.75 44.3 L86.05 44.3 87.05 45.8 Q87.0 46.45 86.5 46.55 L85.55 46.65 M72.95 8.1 L72.4 6.8 72.1 6.7 72.35 7.65 72.95 8.1 M72.0 6.25 L72.2 6.35 71.65 4.95 72.0 6.3 72.0 6.25 M67.55 0.65 L67.35 3.3 67.85 5.4 68.0 5.05 68.75 5.0 70.6 6.35 69.65 4.15 Q68.85 3.25 68.0 1.55 L67.55 0.65 M74.75 22.3 L75.05 22.3 75.5 23.2 74.75 22.3 M45.25 1.8 L39.0 2.05 45.0 2.8 45.35 2.8 45.25 1.8 M45.6 1.8 L45.65 2.8 Q49.35 2.65 52.0 0.75 L49.95 1.25 45.6 1.8 M53.7 27.2 L51.6 26.1 53.45 27.55 53.7 27.2 M49.5 48.0 Q56.4 43.05 68.25 43.05 L58.55 45.3 Q53.55 46.4 50.25 48.55 L49.5 48.0 M57.8 48.25 Q58.3 49.3 58.5 51.15 58.5 53.2 56.95 54.75 54.35 57.2 53.25 59.05 L52.75 59.25 Q52.0 58.75 52.0 57.0 L51.8 56.75 48.5 57.3 Q45.25 57.3 45.25 56.75 49.65 56.5 51.55 55.8 51.05 52.55 48.55 50.25 48.55 49.7 49.75 49.3 52.3 53.75 52.75 55.55 L53.2 50.35 Q53.35 46.75 55.8 46.75 56.95 46.75 57.65 47.95 L59.75 48.55 57.8 48.25 M73.4 34.7 L73.5 34.55 72.0 33.1 72.4 36.1 Q72.95 35.7 73.4 34.7 M69.75 27.55 L69.65 27.55 69.65 27.6 69.75 27.55 M69.95 25.55 L69.45 21.85 69.6 25.5 69.95 25.55 M66.3 30.05 L67.9 30.65 67.75 29.75 66.3 30.05 66.25 30.05 66.3 30.05 M69.7 28.95 L69.8 31.35 70.85 31.75 70.4 28.6 69.7 28.95 M23.0 3.3 L22.85 5.45 Q23.5 7.35 25.25 9.35 L23.0 2.7 23.0 3.3 M27.85 12.65 L27.0 11.95 27.45 13.65 27.7 12.95 27.85 12.65 M18.75 44.3 Q20.1 42.3 22.75 42.3 25.05 42.3 35.7 45.8 45.15 48.85 47.75 50.0 36.35 46.35 32.7 45.45 27.7 44.25 19.0 44.55 L18.75 44.3 M29.75 55.8 Q16.45 53.25 11.55 51.75 L11.75 50.75 12.25 50.75 Q16.15 50.75 29.55 55.25 L29.75 55.8 M5.0 76.75 Q4.75 76.55 4.0 76.3 3.8 76.6 3.8 75.35 3.8 74.85 4.1 74.7 L6.25 73.55 7.5 74.3 Q6.35 76.1 5.0 76.75 M71.05 53.0 L70.05 52.25 Q71.5 50.55 72.5 50.55 73.7 50.55 73.8 51.5 73.4 51.85 71.05 53.0 M57.5 51.1 Q57.5 47.75 55.3 47.75 54.15 47.75 53.75 51.5 L53.75 55.25 Q55.8 55.5 56.85 53.55 57.5 52.35 57.5 51.1 M-104.2 -51.75 L-97.75 -50.6 -96.75 -49.85 Q-101.05 -50.05 -111.5 -52.1 L-112.5 -52.0 Q-108.2 -50.5 -105.65 -49.15 L-102.8 -47.85 -83.8 -46.05 -83.85 -46.8 Q-83.85 -51.75 -81.85 -52.6 -83.1 -49.7 -83.1 -47.35 L-83.0 -46.0 -82.4 -45.95 -83.0 -45.95 Q-81.1 -21.1 -81.1 -14.55 -81.1 -10.55 -82.5 0.15 L-82.9 3.1 -82.5 -1.05 Q-81.95 -7.75 -81.85 -14.55 -81.85 -21.0 -83.8 -46.0 -92.0 -46.25 -120.5 -46.0 -119.05 -43.8 -118.75 -42.35 L-118.75 -42.25 -121.25 -45.75 Q-121.65 -46.65 -120.15 -46.8 L-101.0 -47.1 Q-102.4 -47.2 -107.6 -49.4 -112.9 -51.65 -113.75 -52.6 -114.25 -52.75 -113.0 -52.75 L-104.2 -51.75 M-89.3 -1.35 L-88.75 0.0 -88.75 0.25 -89.35 -0.2 Q-89.65 5.35 -90.25 9.25 -90.75 9.9 -90.75 8.65 L-90.9 -11.25 Q-90.7 -23.3 -88.75 -29.75 -89.3 -24.35 -89.2 -10.3 L-89.3 -1.35 M-42.85 -78.25 Q-42.25 -76.55 -39.7 -63.25 -37.0 -49.1 -37.0 -45.8 -38.85 1.8 -38.85 16.15 -38.85 18.6 -39.7 27.75 -40.6 36.9 -40.6 40.35 L-39.6 55.0 -39.75 55.55 -40.25 55.75 Q-41.5 42.65 -41.5 39.35 -38.0 -34.25 -38.0 -45.85 -38.0 -48.35 -40.3 -62.2 -42.6 -75.95 -43.35 -78.1 L-42.85 -78.25 M-13.25 -20.85 L-14.75 -20.85 -14.5 -21.25 Q-13.35 -21.1 -13.25 -20.85 M-79.75 35.3 Q-82.1 35.3 -86.75 24.3 L-86.35 24.3 -83.55 29.75 Q-81.65 33.0 -77.75 35.05 L-79.75 35.3 M-41.45 70.2 Q-38.6 64.05 -37.0 62.25 L-36.65 61.9 Q-36.35 61.7 -36.35 62.5 -36.35 64.0 -39.5 70.05 -43.3 77.35 -46.85 78.8 -44.25 76.15 -41.45 70.2 M-13.0 54.75 L-12.75 56.6 Q-12.75 57.3 -15.3 59.95 L-19.25 63.55 -17.65 60.0 Q-17.25 59.15 -17.25 57.35 -17.25 55.2 -13.0 54.75 M-32.25 71.5 Q-32.25 70.45 -28.25 64.9 L-23.45 58.8 Q-24.25 61.0 -27.65 65.55 -31.1 70.05 -31.75 72.05 -32.25 72.75 -32.25 71.5 M-15.95 85.55 Q-17.75 83.4 -17.75 81.4 -17.75 70.3 -1.25 49.0 L-8.4 61.6 Q-17.2 77.75 -17.2 81.25 -17.2 82.5 -15.95 85.55 M-83.6 7.85 Q-84.2 11.5 -84.6 12.55 -82.85 13.05 -82.5 13.5 -83.3 14.0 -86.6 14.6 L-93.75 15.3 Q-102.85 15.3 -107.5 14.3 -114.75 12.7 -118.85 12.25 L-119.1 11.25 Q-119.75 10.8 -118.5 10.8 L-106.0 12.0 Q-114.4 9.45 -117.15 8.3 -123.75 5.6 -123.75 3.1 -123.75 2.7 -122.25 1.8 L-121.85 1.8 Q-123.1 2.05 -123.1 3.3 -123.1 7.35 -109.95 10.0 -98.6 12.3 -85.75 12.3 -84.5 12.3 -83.6 7.85 M-90.5 14.5 L-105.25 13.5 -98.0 14.5 -90.5 14.5 M-104.1 31.8 L-103.25 32.05 -109.75 32.8 -113.85 32.75 Q-112.95 29.8 -99.55 29.8 -97.85 29.8 -96.95 31.35 L-95.85 33.5 Q-95.8 32.15 -95.05 30.15 -94.15 27.6 -92.85 26.8 L-92.8 26.6 -92.75 27.35 -94.0 29.55 Q-95.25 31.7 -95.25 34.0 L-95.25 34.25 Q-96.45 33.65 -97.5 31.85 -98.35 30.3 -99.4 30.3 -108.65 30.3 -112.25 32.0 -104.1 32.2 -104.1 31.8" fill="#000000" fill-rule="evenodd" stroke="none"/>
    <path d="M125.0 -75.0 L125.0 75.0 -125.0 75.0 -125.0 -75.0 125.0 -75.0" fill="url(#gradient0)" fill-rule="evenodd" stroke="none"/>
    <path d="M41.0 51.45 L39.85 52.65 Q37.05 55.8 31.85 65.0 26.9 73.8 23.45 77.4 18.05 82.95 11.15 83.0 L11.0 83.0 Q8.35 83.0 6.0 75.85 6.0 75.2 6.85 73.0 L7.05 72.55 7.0 72.5 6.5 71.35 6.65 69.85 6.65 69.75 6.65 69.65 6.7 69.45 Q8.75 58.5 32.8 31.7 L41.0 22.7 41.0 51.45 M8.75 70.0 L8.7 70.0 8.7 70.05 8.75 70.0" fill="url(#gradient1)" fill-rule="evenodd" stroke="none"/>
    <path d="M76.5 -30.05 L77.15 -31.7 78.25 -34.05 78.0 -33.7 76.85 -31.8 Q66.45 -14.85 60.0 -5.5 L57.5 -2.0 56.3 -2.1 Q56.0 -2.6 56.0 -3.05 56.0 -4.2 60.0 -11.1 63.25 -16.75 69.2 -26.25 82.4 -47.5 90.0 -57.6 L90.15 -57.55 90.05 -57.0 Q90.05 -56.25 90.65 -55.45 L89.4 -53.0 91.05 -55.05 92.2 -54.25 86.5 -45.1 78.05 -31.85 77.45 -31.2 76.5 -30.05 M74.55 -25.3 L74.8 -25.35 75.0 -25.5 73.6 -21.55 74.25 -21.45 Q74.55 -21.35 74.55 -20.6 74.55 -19.05 70.4 -12.55 68.45 -8.35 66.05 -6.1 L68.15 -10.5 67.5 -10.5 67.3 -11.6 Q67.3 -13.25 69.7 -17.1 71.55 -20.05 72.8 -21.1 L74.55 -25.3 M47.0 16.35 Q54.15 8.9 60.0 3.5 L66.0 -1.75 66.35 -2.0 Q67.85 -5.7 73.7 -14.55 80.95 -25.45 83.25 -27.75 83.8 -28.25 83.8 -27.0 83.8 -26.35 70.95 -6.0 L72.85 -7.7 81.7 -20.25 86.7 -27.1 87.0 -27.1 87.8 -27.6 87.65 -28.4 Q100.1 -45.3 107.0 -53.35 L107.6 -53.3 Q107.8 -53.3 107.8 -52.55 L107.6 -51.75 112.55 -57.1 125.5 -69.55 126.0 -70.0 126.0 -46.65 125.5 -46.2 125.0 -45.75 124.5 -45.85 Q124.1 -43.0 120.4 -34.55 L115.75 -24.35 117.55 -25.45 120.0 -27.1 119.8 -28.3 Q119.8 -29.35 121.0 -29.6 122.0 -29.15 122.05 -28.6 L122.05 -28.5 125.5 -30.9 126.0 -31.25 126.0 -6.2 125.5 -5.85 110.1 3.85 109.35 4.35 109.3 4.4 104.15 7.75 104.3 9.5 Q104.3 13.0 103.0 13.0 100.2 13.0 99.55 11.75 L99.55 10.85 88.45 18.45 89.3 19.5 88.5 20.8 87.0 20.75 86.7 20.55 86.5 20.8 85.7 20.6 85.0 21.5 84.35 21.4 Q71.1 31.0 60.0 40.35 L53.25 46.25 60.0 51.15 67.5 56.5 70.65 55.95 71.6 55.15 Q89.8 40.2 99.25 31.85 L101.8 29.55 102.45 28.85 104.05 27.1 103.0 27.5 102.2 27.35 Q102.0 27.2 102.0 26.4 L102.5 25.45 Q103.15 24.6 103.75 24.3 104.5 25.45 104.5 26.0 L104.3 26.8 107.55 23.15 108.6 22.0 Q108.3 21.45 108.3 20.75 L109.5 20.0 108.85 19.35 Q109.0 19.15 109.25 19.0 109.95 18.5 110.5 18.5 L111.8 18.6 112.6 17.8 113.0 17.8 Q113.8 17.8 113.85 17.45 L113.8 16.6 Q115.9 14.5 117.95 12.7 121.75 9.35 125.5 6.8 L126.0 6.45 126.0 27.6 125.5 27.9 118.65 32.4 118.5 32.3 117.7 32.45 Q117.35 32.55 117.3 33.25 L111.15 37.1 111.55 37.5 111.3 38.55 110.0 39.25 108.95 38.5 107.3 39.5 101.35 43.15 Q90.4 49.7 82.75 53.6 77.4 56.35 73.7 57.75 L73.65 57.8 72.7 58.55 72.6 58.65 70.4 60.35 Q64.6 64.75 63.5 64.75 L61.8 64.55 Q61.5 64.6 61.5 63.35 L66.55 59.3 Q63.15 59.0 61.95 56.9 L60.0 54.0 59.0 53.25 Q57.8 52.75 54.35 49.8 L51.95 47.75 51.75 47.6 47.5 51.5 47.0 51.4 47.0 49.6 48.9 47.2 47.0 47.65 47.0 16.35 M77.5 -0.85 L76.75 -2.0 75.8 -1.85 75.8 -1.25 Q76.7 -0.45 77.5 -0.85 M95.25 -66.3 Q95.25 -67.75 96.5 -67.75 98.25 -67.75 97.75 -65.25 98.0 -64.75 96.75 -64.75 L95.3 -65.0 95.25 -66.3 M98.55 -61.1 L99.75 -61.25 100.3 -60.5 Q100.2 -59.75 99.05 -59.75 L98.55 -60.1 98.55 -61.1 M115.5 -65.35 L115.0 -64.6 113.8 -64.75 113.55 -65.5 Q113.55 -66.3 113.85 -66.35 L114.5 -66.35 115.5 -65.35 M107.3 -70.75 Q106.25 -70.9 106.25 -72.0 L107.25 -72.1 Q107.75 -72.6 107.75 -71.35 L107.6 -70.65 107.3 -70.75 M103.0 -67.95 Q101.75 -67.35 101.55 -66.5 L101.3 -66.5 Q100.8 -67.1 100.8 -67.6 100.8 -68.85 102.0 -68.6 L103.0 -67.95 M106.3 -56.4 L107.0 -56.75 108.2 -56.05 Q108.55 -55.75 108.55 -54.85 108.0 -54.5 107.0 -54.25 L106.8 -54.3 Q106.75 -52.1 105.0 -52.1 104.1 -52.1 103.05 -52.6 L103.05 -55.25 Q103.8 -56.35 105.0 -56.35 L105.8 -56.2 Q105.8 -55.35 106.05 -55.0 L106.75 -55.0 107.05 -55.75 Q107.05 -57.0 106.75 -56.5 L106.3 -56.4 M111.05 -39.1 L109.5 -39.35 Q107.25 -38.9 107.25 -36.8 107.25 -36.35 108.5 -35.25 L109.9 -36.3 Q111.3 -37.45 111.3 -38.0 111.3 -39.25 111.05 -39.1 M117.05 -2.1 L116.0 -2.75 Q115.25 -3.15 115.25 -1.9 115.25 -0.65 115.5 -1.35 116.95 -1.35 117.05 -2.1 M96.25 -2.9 Q95.55 -2.0 95.55 -1.15 95.55 0.05 95.8 0.5 L97.25 0.75 Q99.0 0.75 99.0 -1.6 98.8 -3.75 97.5 -3.75 96.9 -3.75 96.25 -2.9 M88.8 -19.25 L88.75 -18.4 Q88.75 -17.6 88.9 -17.65 L89.05 -17.85 Q90.3 -17.85 90.75 -18.25 90.75 -18.9 89.75 -19.35 L88.8 -19.25 M125.75 -35.0 L126.0 -34.75 126.0 -33.1 124.8 -33.1 124.5 -33.85 124.55 -34.85 125.5 -34.95 125.75 -35.0 M125.55 -18.0 Q125.0 -20.5 123.25 -20.5 119.3 -20.5 119.3 -15.5 119.3 -13.5 122.25 -13.5 123.75 -13.5 124.75 -15.35 125.55 -16.85 125.55 -18.0 M122.0 1.0 L121.0 0.3 Q121.0 -0.65 122.0 -1.0 L123.0 0.0 122.0 1.0 M123.15 37.15 L123.0 37.5 121.3 37.55 Q120.8 37.6 120.8 36.35 120.8 35.6 121.4 35.45 L122.0 35.3 122.3 35.45 122.25 36.4 123.15 37.15 M117.75 3.85 L117.55 4.8 Q117.75 5.25 116.5 5.25 L115.25 5.0 Q114.75 4.5 114.75 3.85 114.75 3.0 115.05 2.85 L116.25 2.75 Q116.65 2.75 117.55 3.3 117.75 2.6 117.75 3.85 M108.0 23.5 Q107.55 23.5 107.0 24.05 107.0 24.8 107.3 25.25 L108.0 25.5 Q108.85 25.5 109.25 25.0 L109.3 24.35 109.2 23.6 109.05 23.8 108.0 23.5 M87.0 7.5 Q86.7 6.8 86.0 6.5 L85.05 6.55 85.0 7.6 Q85.0 8.85 85.3 8.3 L86.5 8.5 87.0 7.5 M85.15 12.35 Q87.95 11.1 88.55 10.3 87.65 10.3 85.25 11.65 L82.5 13.0 Q82.0 12.8 81.5 12.55 81.15 12.05 80.5 12.05 L79.45 12.2 79.5 11.25 Q80.0 9.0 78.0 9.0 75.0 9.0 75.0 12.1 L75.1 13.55 Q75.45 15.0 77.0 15.0 L78.1 14.8 78.25 15.7 Q78.8 16.8 80.5 16.8 82.8 16.8 82.8 14.4 82.8 13.45 85.15 12.35 M90.5 22.1 Q90.5 20.5 92.0 20.5 93.6 20.5 94.0 22.3 93.45 23.5 92.5 23.5 L90.75 23.25 Q90.5 23.35 90.5 22.1 M89.05 23.75 Q89.8 24.2 89.8 24.85 L89.75 25.55 89.25 25.75 88.55 23.8 89.05 23.75 M97.95 29.5 Q96.1 28.65 95.8 27.55 95.8 27.0 96.75 27.0 L98.5 28.5 98.4 28.7 99.0 28.5 Q99.95 28.5 100.05 30.25 L99.75 30.8 Q100.25 31.05 99.0 31.05 L97.8 30.5 97.95 29.5 M95.75 27.5 Q95.75 28.3 95.3 28.5 L94.5 28.75 92.75 27.4 Q92.75 26.5 92.9 26.35 L94.0 26.25 Q94.7 26.25 95.55 27.0 L95.65 26.8 95.75 27.5 M92.5 29.75 Q92.6 30.05 91.35 30.05 L90.05 29.75 Q89.75 29.85 89.75 28.6 L89.8 27.5 91.25 27.25 Q92.3 27.25 92.75 28.25 L92.5 29.75 M51.3 44.45 L51.3 44.4 50.25 44.05 51.1 44.65 51.3 44.45" fill="url(#gradient2)" fill-rule="evenodd" stroke="none"/>
    <path d="M47.0 51.4 Q46.25 51.25 46.0 51.0 L47.0 49.6 47.0 51.4 M47.0 47.65 Q43.85 48.7 41.0 51.45 L41.0 22.7 47.0 16.35 47.0 47.65" fill="url(#gradient3)" fill-rule="evenodd" stroke="none"/>
    <path d="M87.0 7.5 L86.5 8.5 85.3 8.3 Q85.0 8.85 85.0 7.6 L85.05 6.55 86.0 6.5 Q86.7 6.8 87.0 7.5" fill="#2b1111" fill-rule="evenodd" stroke="none"/>
    <path d="M76.5 -30.05 L77.45 -31.2 78.05 -31.85 Q81.4 -35.75 83.5 -36.85 L84.1 -36.8 Q84.3 -36.8 84.3 -36.05 84.3 -35.35 80.1 -30.75 76.35 -26.65 75.0 -25.5 L74.8 -25.35 74.55 -25.3 74.0 -25.3 Q73.8 -25.3 73.8 -26.05 73.8 -26.8 76.5 -30.05 M92.2 -54.25 L91.05 -55.05 91.0 -55.1 90.65 -55.45 Q90.05 -56.25 90.05 -57.0 L90.15 -57.55 90.3 -58.1 91.75 -58.35 Q93.9 -58.35 93.8 -54.75 94.25 -54.1 93.0 -54.1 L92.2 -54.25 M86.7 -27.1 L85.85 -27.15 Q85.55 -27.2 85.55 -28.0 L85.75 -29.0 86.75 -29.1 Q87.4 -29.1 87.65 -28.4 L87.8 -27.6 87.0 -27.1 86.7 -27.1 M108.3 20.75 L108.05 20.75 107.55 20.3 107.55 19.3 108.75 19.25 108.85 19.35 109.5 20.0 108.3 20.75 M112.6 17.8 L110.8 17.75 Q110.55 17.6 110.55 16.35 110.55 15.05 112.25 15.05 L113.55 15.3 113.8 16.5 113.8 16.6 113.85 17.45 Q113.8 17.8 113.0 17.8 L112.6 17.8 M118.65 32.4 L119.55 33.3 Q119.5 34.05 119.0 34.5 L117.75 34.55 Q117.3 34.6 117.3 33.35 L117.3 33.25 Q117.35 32.55 117.7 32.45 L118.5 32.3 118.65 32.4 M77.5 -0.85 Q76.7 -0.45 75.8 -1.25 L75.8 -1.85 76.75 -2.0 77.5 -0.85 M96.05 -62.75 L97.0 -62.0 Q96.05 -61.15 95.5 -62.0 95.55 -62.75 96.05 -62.75 M100.5 -63.5 L99.5 -62.5 98.5 -63.1 Q98.5 -64.15 99.5 -64.5 L100.5 -63.5 M82.0 -51.5 L81.0 -50.5 Q80.3 -50.75 80.0 -51.1 80.0 -52.15 81.0 -52.5 L82.0 -51.5 M92.0 -60.5 Q91.05 -60.85 91.05 -61.85 91.55 -62.35 92.0 -62.35 93.2 -62.35 93.3 -61.5 93.2 -60.9 92.0 -60.5 M94.5 -59.5 Q95.75 -59.5 95.55 -59.25 L95.75 -58.1 Q95.6 -58.1 95.0 -57.5 L93.8 -57.6 Q93.5 -58.1 93.5 -58.55 L93.75 -59.35 94.5 -59.5 M103.0 -67.95 L103.0 -68.0 103.7 -67.85 Q104.0 -67.75 104.0 -67.0 L103.4 -65.9 102.5 -65.0 101.75 -65.2 Q101.5 -65.35 101.5 -66.15 L101.55 -66.5 Q101.75 -67.35 103.0 -67.95 M106.3 -56.4 L106.75 -56.5 Q107.05 -57.0 107.05 -55.75 L106.75 -55.0 106.05 -55.0 Q105.8 -55.35 105.8 -56.2 L105.8 -56.35 106.3 -56.4 M111.05 -39.1 Q111.3 -39.25 111.3 -38.0 111.3 -37.45 109.9 -36.3 L108.5 -35.25 Q107.25 -36.35 107.25 -36.8 107.25 -38.9 109.5 -39.35 L111.05 -39.1 M87.8 -42.75 L87.75 -41.6 86.5 -41.0 Q85.65 -41.3 85.3 -42.0 86.8 -43.5 87.0 -43.35 L87.8 -42.75 M88.8 -19.25 L89.75 -19.35 Q90.75 -18.9 90.75 -18.25 90.3 -17.85 89.05 -17.85 L88.9 -17.65 Q88.75 -17.6 88.75 -18.4 L88.8 -19.25 M96.25 -2.9 Q96.9 -3.75 97.5 -3.75 98.8 -3.75 99.0 -1.6 99.0 0.75 97.25 0.75 L95.8 0.5 Q95.55 0.05 95.55 -1.15 95.55 -2.0 96.25 -2.9 M117.05 -2.1 Q116.95 -1.35 115.5 -1.35 115.25 -0.65 115.25 -1.9 115.25 -3.15 116.0 -2.75 L117.05 -2.1 M125.55 -18.0 Q125.55 -16.85 124.75 -15.35 123.75 -13.5 122.25 -13.5 119.3 -13.5 119.3 -15.5 119.3 -20.5 123.25 -20.5 125.0 -20.5 125.55 -18.0 M122.3 35.45 Q122.6 32.0 125.0 32.0 127.25 32.0 127.0 34.5 127.0 36.95 124.0 37.75 L123.15 37.15 122.25 36.4 122.3 35.45 M104.5 16.25 L104.55 15.05 105.5 15.0 Q106.5 15.45 106.5 16.75 106.05 17.3 105.5 17.5 104.5 17.15 104.5 16.25 M103.5 21.0 Q102.55 20.75 102.55 20.05 103.55 20.05 104.0 20.5 L103.5 21.0 M108.0 23.5 L109.05 23.8 109.2 23.6 109.3 24.35 109.25 25.0 Q108.85 25.5 108.0 25.5 L107.3 25.25 Q107.0 24.8 107.0 24.05 107.55 23.5 108.0 23.5 M85.15 12.35 Q82.8 13.45 82.8 14.4 82.8 16.8 80.5 16.8 78.8 16.8 78.25 15.7 L78.1 14.8 77.0 15.0 Q75.45 15.0 75.1 13.55 L75.0 12.1 Q75.0 9.0 78.0 9.0 80.0 9.0 79.5 11.25 L79.45 12.2 80.5 12.05 Q81.15 12.05 81.5 12.55 82.0 12.8 82.5 13.0 L85.25 11.65 Q87.65 10.3 88.55 10.3 87.95 11.1 85.15 12.35 M89.8 23.25 L88.5 22.75 Q88.6 21.3 89.75 21.3 L90.25 22.5 89.8 23.25 M98.55 24.0 Q98.45 24.75 97.35 24.75 L96.55 24.3 96.55 23.3 97.75 23.25 98.55 24.0 M99.8 27.8 L98.5 27.75 Q98.05 28.15 98.05 26.9 98.05 26.0 99.75 26.0 100.2 26.45 100.3 27.05 L99.8 27.8 M119.75 40.25 L119.0 41.75 117.5 41.55 Q117.25 41.65 117.25 40.4 L117.5 39.5 118.5 39.25 Q119.2 39.25 119.75 40.25" fill="#4f2020" fill-rule="evenodd" stroke="none"/>
    <path d="M54.45 -76.3 Q55.2 -76.35 58.0 -73.4 L59.55 -71.65 Q60.55 -71.3 62.2 -70.05 61.55 -70.75 61.55 -71.35 61.55 -72.75 62.6 -72.45 65.4 -69.85 65.6 -68.3 L66.3 -67.8 Q65.6 -68.95 65.65 -69.35 65.65 -69.75 65.9 -70.15 L66.95 -70.55 Q69.05 -70.55 70.6 -66.55 72.75 -66.25 74.7 -62.55 75.0 -62.9 75.6 -62.85 L75.8 -62.5 Q76.45 -64.0 77.75 -64.4 78.85 -63.9 78.85 -63.05 78.85 -62.25 78.05 -60.15 L77.9 -59.75 77.9 -59.7 78.95 -59.55 79.0 -59.5 79.4 -59.55 Q80.1 -59.55 80.6 -58.9 80.95 -59.45 81.55 -59.45 82.8 -59.45 83.45 -56.7 83.95 -53.3 84.35 -52.1 L83.95 -51.6 Q84.1 -51.55 84.3 -51.45 84.7 -51.9 85.95 -51.85 L85.6 -50.5 Q87.55 -48.55 87.35 -44.05 L87.3 -43.5 84.25 -32.7 84.05 -32.05 Q80.45 -20.35 79.4 -13.8 79.0 -11.55 79.05 -6.7 79.1 -1.65 78.75 0.8 L77.6 5.15 79.7 8.0 Q83.95 15.05 97.05 28.6 100.2 31.85 113.4 36.25 127.6 41.05 132.6 44.85 138.0 48.95 141.8 55.35 144.3 59.6 145.05 62.85 158.3 64.3 158.35 70.75 158.3 73.2 157.45 74.45 156.15 76.35 152.15 77.5 142.55 80.25 112.25 80.0 L93.55 79.45 93.55 79.7 81.45 79.55 Q78.95 83.0 73.7 83.0 71.9 83.0 69.8 82.15 67.3 83.7 65.7 85.45 L62.4 90.1 Q60.85 92.35 57.9 93.2 54.05 94.3 45.15 94.3 24.85 94.25 20.1 88.5 18.35 86.35 16.2 84.8 L15.05 85.1 4.9 87.45 -9.5 88.5 Q-19.4 88.5 -24.2 86.3 L-34.45 91.6 Q-38.75 91.6 -39.85 87.95 -41.85 86.7 -41.35 83.95 -41.35 78.1 -33.8 71.6 -12.85 30.2 14.1 30.2 16.7 30.2 18.4 31.0 20.6 25.0 23.05 19.5 27.35 9.85 31.2 3.9 L27.9 -3.6 Q21.1 -19.4 21.1 -20.0 21.0 -23.6 23.4 -24.6 L20.7 -26.35 Q15.2 -29.85 15.2 -35.25 15.2 -37.45 18.5 -42.45 L18.85 -43.0 Q18.4 -44.15 18.15 -46.35 17.85 -48.7 17.85 -51.2 17.85 -51.8 18.1 -52.2 L17.85 -54.8 17.9 -56.7 19.25 -56.95 20.7 -56.8 20.85 -57.05 21.0 -56.7 21.7 -56.5 21.7 -57.25 21.95 -58.9 Q22.25 -60.6 23.0 -61.2 L23.9 -58.2 25.7 -60.3 26.0 -60.65 Q26.05 -61.3 27.8 -62.7 37.1 -73.5 45.25 -73.45 L45.3 -73.45 46.85 -74.1 47.5 -74.05 Q47.7 -74.05 47.75 -73.25 47.75 -72.6 44.85 -70.55 47.8 -72.1 49.6 -72.5 50.0 -73.3 50.65 -73.3 L51.65 -73.15 52.55 -73.3 55.55 -71.5 Q53.15 -73.85 53.15 -74.7 53.15 -76.1 53.45 -76.05 L54.45 -76.3 M48.0 -66.65 Q46.3 -65.45 44.2 -64.55 L35.3 -61.55 36.05 -61.1 36.1 -60.4 35.75 -59.85 Q42.2 -64.35 48.7 -65.8 L48.0 -66.65 M72.05 -57.9 L71.2 -58.2 70.8 -58.4 75.05 -54.85 75.15 -55.25 73.7 -57.2 72.05 -57.9 M77.7 -53.8 L77.4 -53.2 Q79.4 -52.1 81.0 -52.1 L82.0 -52.05 Q81.15 -52.95 80.7 -54.05 L80.5 -54.05 Q79.95 -54.05 79.5 -54.3 L79.65 -53.95 Q80.2 -53.25 78.85 -53.2 78.25 -53.2 77.7 -53.8 M24.85 -50.4 L26.55 -52.15 25.85 -52.25 Q25.5 -52.35 25.5 -53.2 25.5 -54.1 26.8 -55.45 L26.5 -55.25 24.8 -52.7 26.05 -51.75 24.8 -51.05 24.85 -50.4 M34.0 -61.15 L33.7 -61.05 32.9 -60.4 34.0 -61.15 M49.1 48.7 L49.3 48.7 49.15 48.25 49.1 48.7" fill="url(#gradient4)" fill-rule="evenodd" stroke="none"/>
    <path d="M17.3 -48.3 L17.3 -49.0 17.5 -50.5 Q17.8 -52.05 18.5 -52.6 L19.3 -49.85 20.95 -51.8 21.25 -52.1 Q21.3 -52.65 22.95 -53.95 31.55 -63.75 39.0 -63.75 L39.05 -63.75 40.5 -64.35 41.1 -64.3 Q41.3 -64.3 41.3 -63.55 41.3 -63.0 38.65 -61.1 41.35 -62.55 43.05 -62.85 43.4 -63.6 44.0 -63.6 L44.9 -63.45 45.75 -63.6 48.55 -61.95 Q46.3 -64.1 46.3 -64.9 46.3 -66.15 46.55 -66.1 L47.5 -66.35 Q48.2 -66.35 50.75 -63.7 L52.2 -62.1 54.65 -60.65 Q54.05 -61.3 54.05 -61.85 54.05 -63.1 55.0 -62.85 57.6 -60.45 57.75 -59.05 L58.45 -58.6 Q57.8 -59.65 57.8 -60.0 L58.05 -60.75 59.0 -61.1 Q60.95 -61.1 62.4 -57.45 64.4 -57.15 66.15 -53.85 L67.0 -54.1 67.2 -53.8 Q67.8 -55.1 69.0 -55.5 70.0 -55.05 70.0 -54.3 70.0 -53.55 69.25 -51.65 L69.1 -51.25 69.15 -51.25 70.1 -51.1 70.15 -51.05 70.5 -51.1 Q71.15 -51.1 71.65 -50.5 71.95 -51.0 72.5 -51.0 73.65 -51.0 74.25 -48.5 74.7 -45.4 75.05 -44.35 L74.7 -43.85 74.3 -43.25 Q73.5 -43.7 72.9 -44.3 72.1 -45.1 71.7 -46.1 L71.5 -46.1 70.6 -46.3 70.75 -46.0 Q71.25 -45.35 70.0 -45.35 69.45 -45.35 68.95 -45.85 L68.7 -45.35 68.0 -44.25 66.5 -44.35 66.25 -45.5 66.5 -46.8 66.6 -47.15 65.25 -48.95 63.7 -49.6 62.95 -49.9 62.6 -50.05 Q58.65 -51.55 57.1 -53.3 L56.75 -53.45 Q54.0 -54.55 52.4 -55.8 L50.95 -56.25 48.15 -55.85 Q45.1 -55.3 43.6 -55.9 42.8 -56.2 42.2 -56.8 L41.55 -57.55 Q40.0 -56.45 38.05 -55.65 L29.85 -52.9 30.5 -52.5 30.55 -51.9 30.25 -51.4 27.1 -48.45 Q23.65 -45.4 22.0 -44.35 L21.75 -44.35 21.1 -44.45 Q20.8 -44.55 20.8 -45.35 L21.05 -46.15 22.0 -47.4 21.75 -47.2 22.0 -47.4 21.05 -46.15 21.75 -47.2 21.05 -46.15 20.15 -44.85 21.3 -44.0 20.15 -43.4 19.7 -43.05 19.7 -42.9 20.15 -39.65 20.3 -37.05 20.25 -36.5 Q20.75 -36.1 19.5 -36.1 18.95 -36.1 18.5 -36.75 L18.45 -36.8 18.4 -36.7 17.5 -36.5 17.1 -36.55 17.1 -36.5 17.25 -35.6 Q16.7 -34.85 15.85 -34.85 15.15 -34.85 14.7 -36.05 14.25 -37.1 14.0 -39.1 13.75 -41.25 13.75 -43.5 L13.95 -44.4 14.05 -44.6 Q14.15 -46.55 15.5 -47.6 L15.8 -47.05 Q16.0 -47.95 16.35 -48.6 L16.5 -48.85 16.65 -48.5 17.15 -47.05 17.35 -47.25 17.3 -48.3 M75.0 -43.75 Q75.4 -44.15 76.55 -44.1 L76.25 -42.85 Q76.15 -42.3 76.3 -41.85 L75.75 -41.35 Q74.8 -42.85 74.8 -43.25 L75.0 -43.75 M28.65 -52.55 L28.35 -52.45 27.65 -51.85 28.65 -52.55 M77.0 -37.0 Q75.95 -34.65 74.25 -26.85 L74.05 -26.55 74.0 -26.5 72.55 -26.6 72.3 -29.25 Q72.3 -31.95 73.45 -34.25 74.8 -36.9 77.0 -37.0" fill="#40382f" fill-rule="evenodd" stroke="none"/>
    <path d="M74.7 -43.85 L75.0 -43.75 74.8 -43.25 Q74.8 -42.85 75.75 -41.35 L76.3 -41.85 Q76.15 -42.3 76.25 -42.85 78.05 -41.1 77.85 -37.0 L77.0 -37.0 Q74.8 -36.9 73.45 -34.25 72.3 -31.95 72.3 -29.25 L72.55 -26.6 74.0 -26.5 74.05 -26.55 Q74.4 -26.35 74.8 -26.1 71.5 -15.45 70.5 -9.5 70.15 -7.45 70.2 -3.05 70.25 1.55 69.9 3.75 69.6 5.85 68.85 7.7 L70.8 10.3 Q74.7 16.75 86.8 29.05 89.7 32.0 101.85 36.0 114.95 40.35 119.55 43.8 124.55 47.55 128.05 53.35 130.4 57.25 131.05 60.2 143.3 61.5 143.3 67.35 143.3 69.6 142.5 70.7 141.3 72.45 137.6 73.5 128.75 76.0 100.8 75.75 L83.55 75.25 83.55 75.5 72.4 75.4 Q70.1 78.5 65.25 78.5 63.6 78.5 61.65 77.75 59.35 79.15 57.85 80.7 L54.8 84.95 Q53.4 87.0 50.65 87.75 47.15 88.75 38.9 88.75 20.2 88.75 15.8 83.5 14.2 81.55 12.2 80.15 L11.15 80.4 1.8 82.55 -11.5 83.5 Q-20.6 83.5 -25.05 81.5 -34.2 86.3 -34.5 86.3 -38.5 86.3 -39.5 83.0 -41.3 81.9 -40.85 79.35 -40.85 74.05 -33.9 68.15 -14.6 30.5 10.25 30.5 L14.25 31.25 Q16.3 25.75 18.55 20.75 22.5 12.0 26.05 6.6 L23.0 -0.25 Q16.75 -14.6 16.75 -15.15 16.7 -18.4 18.85 -19.35 L16.35 -20.9 Q11.3 -24.1 11.3 -29.0 11.3 -31.0 14.35 -35.55 L14.7 -36.05 Q15.15 -34.85 15.85 -34.85 16.7 -34.85 17.25 -35.6 L17.1 -36.5 17.35 -36.5 17.5 -36.5 18.4 -36.7 18.5 -36.75 Q18.95 -36.1 19.5 -36.1 20.75 -36.1 20.25 -36.5 L20.3 -37.05 20.15 -39.65 20.25 -41.55 20.2 -42.8 21.75 -44.35 22.0 -44.35 Q23.65 -45.4 27.1 -48.45 L30.25 -51.4 Q36.2 -55.45 42.2 -56.8 42.8 -56.2 43.6 -55.9 45.1 -55.3 48.15 -55.85 L50.95 -56.25 52.4 -55.8 Q54.0 -54.55 56.75 -53.45 L57.1 -53.3 Q58.65 -51.55 62.6 -50.05 L66.5 -46.8 66.25 -45.5 66.5 -44.35 68.0 -44.25 68.7 -45.35 Q70.5 -44.35 72.0 -44.35 L72.9 -44.3 Q73.5 -43.7 74.3 -43.25 L74.7 -43.85 M42.6 46.9 L42.55 47.35 42.75 47.3 42.6 46.9" fill="url(#gradient5)" fill-rule="evenodd" stroke="none"/>
    <path d="M13.95 -44.4 L13.75 -46.8 13.8 -48.5 15.0 -48.75 16.35 -48.6 Q16.0 -47.95 15.8 -47.05 L15.5 -47.6 Q14.15 -46.55 14.05 -44.6 L13.95 -44.4 M16.65 -48.5 L17.3 -48.3 17.35 -47.25 17.15 -47.05 16.65 -48.5 M20.2 -42.8 L20.25 -41.55 20.15 -39.65 19.7 -42.9 19.7 -43.05 20.15 -43.4 20.2 -42.8 M18.5 -36.75 L18.4 -36.7 18.45 -36.8 18.5 -36.75 M17.5 -36.5 L17.35 -36.5 17.1 -36.5 17.1 -36.55 17.5 -36.5" fill="#655f45" fill-rule="evenodd" stroke="none"/>
    <path d="M77.85 -37.0 L77.8 -36.5 Q77.8 -35.75 75.0 -26.7 L74.25 -26.85 Q75.95 -34.65 77.0 -37.0 L77.85 -37.0" fill="url(#gradient6)" fill-rule="evenodd" stroke="none"/>
    <path d="M75.0 -26.7 L74.8 -26.1 Q74.4 -26.35 74.05 -26.55 L74.25 -26.85 75.0 -26.7 M10.25 30.5 Q12.7 30.5 14.25 31.25 L10.25 30.5" fill="url(#gradient7)" fill-rule="evenodd" stroke="none"/>
    <path d="M55.25 -62.6 Q56.25 -62.6 57.1 -61.45 L57.75 -60.0 Q57.75 -59.5 56.5 -59.5 56.0 -59.5 55.1 -60.6 54.25 -61.65 54.25 -62.0 54.25 -62.6 55.25 -62.6 M48.25 -49.8 L47.0 -49.3 43.7 -47.95 33.5 -48.75 Q31.1 -48.75 30.35 -49.2 29.8 -49.5 28.7 -51.2 L28.65 -51.2 Q28.5 -51.2 28.45 -51.3 L28.4 -51.3 28.35 -51.45 28.25 -52.0 Q28.25 -52.55 29.3 -53.55 L28.55 -53.5 28.45 -53.3 Q28.3 -53.25 28.3 -54.05 28.3 -54.55 29.75 -55.5 30.05 -56.15 30.05 -54.9 L29.75 -53.95 31.5 -55.45 Q34.75 -57.9 35.55 -57.6 L32.85 -54.35 35.5 -54.75 Q38.6 -54.75 40.05 -53.6 L41.65 -56.8 Q43.0 -59.25 44.75 -59.25 46.15 -59.25 47.0 -57.55 48.15 -55.3 48.25 -49.8 M57.2 -50.0 Q55.55 -49.25 55.0 -49.25 49.75 -49.25 49.75 -53.6 49.75 -54.75 52.5 -54.75 56.1 -54.75 59.0 -52.65 L58.75 -52.95 Q57.5 -54.7 57.5 -55.5 57.5 -56.75 58.5 -56.5 60.7 -54.35 63.75 -52.1 L64.0 -51.35 63.75 -51.0 72.25 -45.0 Q72.25 -44.2 71.15 -44.05 L74.8 -43.6 75.05 -42.0 75.55 -40.75 76.25 -37.85 75.7 -37.5 76.0 -34.4 Q76.0 -32.35 75.25 -32.05 73.05 -31.1 70.95 -29.35 72.05 -26.1 72.05 -21.0 72.05 -19.35 71.2 -16.05 70.3 -12.75 70.3 -10.5 L70.1 -10.45 70.75 -7.6 Q70.75 -6.6 69.9 -5.6 L69.25 -4.45 70.25 -5.6 Q70.75 -6.3 70.75 -5.05 L68.65 3.25 68.2 5.3 Q68.4 5.05 68.75 5.05 69.35 12.75 79.8 23.65 83.6 26.05 92.4 30.0 104.3 35.3 110.95 38.6 116.9 39.4 122.2 48.4 L122.4 48.75 Q123.6 49.95 124.85 52.75 L125.5 53.2 126.0 53.6 126.0 63.05 125.5 62.1 Q123.3 57.95 120.45 53.65 L119.75 53.05 Q111.25 45.4 111.25 45.0 L111.3 44.5 112.25 44.3 Q112.7 44.3 114.45 45.4 L111.65 41.9 Q101.2 38.4 100.3 38.25 101.2 38.55 102.1 39.5 103.0 40.45 103.0 41.0 103.0 42.5 101.25 42.5 95.6 42.5 85.5 32.8 76.3 23.95 76.3 22.1 L76.35 21.65 72.6 17.65 Q68.0 12.0 67.8 7.0 66.55 13.35 66.55 19.8 L66.3 20.5 66.3 20.55 64.2 16.05 Q64.05 15.5 64.05 12.75 64.05 8.1 65.7 2.8 66.6 -0.15 67.8 -2.25 L67.55 -2.25 Q67.05 -2.95 67.0 -4.65 58.0 -19.5 53.85 -28.75 L47.1 -27.85 47.0 -27.85 37.75 -27.1 35.85 -27.15 31.95 -18.65 Q27.15 -8.6 26.05 -5.35 L25.75 -5.35 25.55 -9.1 Q25.55 -11.25 29.25 -19.85 33.3 -29.3 35.75 -30.1 L36.15 -29.35 Q40.0 -31.1 47.0 -30.35 L50.5 -29.85 53.6 -29.35 Q54.05 -29.85 54.5 -29.85 57.95 -29.85 62.45 -20.15 65.35 -13.9 67.2 -7.5 67.45 -9.5 68.3 -10.7 68.3 -11.5 68.45 -12.1 L68.3 -13.8 Q68.3 -16.4 70.0 -22.4 L69.05 -28.8 69.3 -30.15 69.3 -30.35 69.65 -30.65 69.85 -30.8 74.0 -34.9 73.3 -40.25 73.0 -41.85 67.3 -43.25 67.3 -44.0 68.5 -44.25 Q66.05 -44.85 63.8 -47.0 61.3 -49.35 61.3 -50.35 L61.35 -50.85 Q60.2 -51.25 59.25 -52.3 L59.25 -52.05 Q59.25 -50.95 57.2 -50.0 M65.65 -52.8 L66.0 -52.85 65.8 -52.9 66.5 -53.0 71.25 -48.6 71.2 -48.1 Q71.1 -47.85 70.35 -47.85 68.1 -47.85 66.6 -49.85 65.5 -51.3 65.5 -52.05 65.5 -52.8 65.65 -52.8 M18.3 -50.0 Q17.5 -47.0 17.75 -45.5 L17.0 -44.85 16.55 -45.3 16.55 -43.95 Q18.0 -42.75 18.0 -38.1 L17.75 -37.35 Q18.25 -37.0 17.0 -37.0 15.75 -37.0 15.5 -38.8 L15.5 -40.75 14.8 -42.9 14.8 -43.0 Q14.1 -43.3 13.9 -44.2 13.3 -44.95 13.3 -46.0 L13.3 -46.15 13.3 -46.35 13.35 -46.45 13.45 -46.8 13.85 -47.3 Q14.15 -48.85 15.5 -49.6 L15.7 -49.5 Q16.05 -50.4 17.75 -50.75 18.3 -51.25 18.3 -50.0 M33.2 -63.35 Q33.5 -63.25 33.5 -62.5 25.6 -52.6 22.55 -50.85 L22.4 -50.65 Q22.25 -50.6 22.25 -51.4 22.25 -52.35 23.55 -54.1 L23.5 -55.1 Q23.5 -57.6 26.75 -59.75 27.3 -60.25 27.3 -59.0 L27.1 -58.25 32.5 -63.5 33.2 -63.35 M23.2 -56.85 Q23.5 -56.75 23.5 -56.0 21.5 -50.15 21.55 -48.5 L20.5 -48.1 Q19.5 -48.45 19.5 -49.5 19.5 -50.6 20.65 -53.5 21.8 -56.5 22.5 -57.0 L23.2 -56.85 M35.9 -60.15 Q35.75 -60.1 35.75 -60.9 35.75 -62.1 37.25 -62.1 L37.75 -61.35 36.8 -60.25 36.0 -60.35 35.9 -60.15 M38.0 -58.3 Q40.8 -60.25 42.05 -60.1 40.95 -57.7 35.55 -55.25 L35.05 -55.6 Q35.3 -56.45 38.0 -58.3 M39.0 -37.1 L37.8 -37.1 Q37.3 -37.75 37.3 -38.4 37.3 -39.45 38.75 -40.85 40.15 -42.25 41.0 -42.25 43.75 -41.75 45.25 -40.5 L44.75 -39.55 40.3 -39.25 39.0 -37.1 M13.0 -25.15 Q13.85 -23.8 14.95 -22.8 L14.75 -24.35 14.8 -25.0 15.75 -25.1 Q16.1 -25.1 17.25 -21.25 L19.75 -12.0 19.55 -10.95 19.45 -10.4 19.25 -10.5 19.0 -10.5 Q14.75 -12.25 14.5 -15.35 14.35 -16.9 14.9 -20.1 10.1 -20.55 10.05 -28.15 10.05 -29.65 10.2 -29.9 10.55 -30.45 12.25 -30.6 12.75 -31.3 12.75 -30.05 12.75 -29.4 12.3 -29.1 11.8 -28.75 11.8 -28.15 11.8 -27.05 13.0 -25.15 M19.75 -7.5 L21.25 -7.0 21.25 -9.5 22.25 -9.6 23.05 -5.85 22.8 -5.6 Q25.55 -2.25 28.5 7.1 L29.0 8.65 32.05 11.25 32.25 11.55 Q30.65 10.55 29.3 9.7 L30.0 12.15 33.5 14.75 33.75 15.05 30.3 13.25 30.9 15.65 Q33.8 17.6 35.75 19.55 L35.75 19.75 31.25 17.05 32.1 20.85 Q36.8 23.95 39.0 26.25 L39.25 26.55 Q36.4 25.2 32.3 22.65 L32.25 23.55 31.65 22.2 21.75 15.45 20.9 17.65 Q24.3 19.1 29.25 22.95 35.3 27.65 40.05 32.75 L40.25 33.05 30.3 25.4 Q25.2 21.65 20.35 18.95 L19.35 21.3 18.85 22.45 28.0 28.2 Q32.25 31.05 34.9 33.4 34.65 31.6 33.75 29.8 L34.55 29.75 Q35.95 30.75 36.0 34.45 L38.05 36.75 38.25 37.05 36.0 35.5 35.65 38.9 35.75 39.0 35.75 39.25 35.6 39.15 Q35.05 41.55 33.9 43.6 40.25 44.1 45.3 46.95 L47.0 47.95 Q50.05 49.9 50.75 51.75 L50.75 52.75 Q48.8 52.4 47.0 51.15 L46.95 51.1 43.3 48.6 Q39.55 46.55 32.45 45.8 L31.25 47.05 31.85 45.75 22.35 45.3 Q21.3 45.3 19.75 46.0 20.85 46.35 21.55 48.55 L18.3 45.75 Q19.3 44.4 19.9 44.2 L27.0 43.5 32.0 43.5 32.8 43.55 Q33.95 40.65 34.5 38.4 L16.9 26.75 Q14.3 32.1 12.5 34.2 L12.55 34.3 Q12.4 35.75 11.0 36.05 10.15 35.75 9.9 35.15 6.3 38.55 -1.05 42.65 L-6.85 45.8 -6.5 45.75 Q-5.0 45.75 -5.05 47.0 -5.1 48.8 -4.75 49.3 -5.05 50.55 -6.0 50.55 -8.85 50.55 -9.2 48.8 -11.85 51.35 -17.85 56.1 -28.6 66.3 -28.6 76.3 -28.6 79.75 -27.85 81.65 L-24.35 81.75 -24.0 82.5 Q-24.35 83.5 -25.0 83.5 L-26.55 83.45 -26.5 83.5 Q-27.35 84.55 -28.05 84.55 -29.85 84.55 -30.7 83.25 L-39.5 82.8 -39.5 83.25 Q-39.5 83.6 -39.85 84.25 L-40.0 84.5 Q-40.85 83.9 -41.4 82.7 L-43.75 82.55 Q-43.75 81.15 -46.1 79.05 -45.4 78.25 -44.2 77.75 -43.95 73.85 -40.05 68.6 -38.7 66.05 -36.55 63.6 -24.85 45.55 -13.45 44.85 L-7.6 40.75 Q-0.95 36.25 -0.5 36.25 0.15 36.25 0.15 36.9 0.15 37.5 0.75 37.5 2.55 37.5 6.2 33.35 9.2 30.0 10.95 28.8 L10.8 27.8 11.75 27.8 12.0 28.25 13.25 29.5 Q13.25 31.25 11.6 33.35 L12.15 33.55 16.05 26.25 11.25 23.3 12.3 23.25 Q14.0 23.25 16.8 24.65 L17.75 22.45 15.25 20.3 15.55 20.3 17.95 21.9 19.25 18.35 16.55 17.0 Q16.75 16.75 17.3 16.75 L19.65 17.2 20.45 14.5 17.75 12.5 18.0 12.25 20.6 13.85 21.25 11.0 18.75 9.5 19.25 9.3 21.4 10.3 21.8 7.65 20.55 6.8 21.05 6.75 21.9 7.1 22.05 5.5 21.0 5.0 20.8 4.6 21.5 4.5 22.15 4.6 22.3 1.35 18.8 -7.1 19.05 -7.5 19.75 -7.5 M36.0 -2.25 Q37.85 -1.15 39.45 0.75 L41.9 3.75 Q43.75 5.7 47.0 5.9 L51.25 5.55 51.5 6.0 Q48.55 7.75 47.5 7.75 L47.0 7.75 Q44.2 7.4 40.65 3.65 36.95 -0.9 35.75 -1.85 L36.0 -2.25 M83.3 42.25 L67.2 44.0 64.8 45.2 64.75 47.25 Q65.1 47.55 63.85 47.55 62.55 47.55 62.55 45.65 L62.6 44.5 62.0 44.55 Q61.05 44.3 61.0 44.0 L62.65 43.55 63.05 41.2 Q63.85 37.25 65.75 36.75 L66.05 36.65 Q66.3 36.7 66.3 37.5 66.3 38.6 65.4 42.1 L65.2 43.0 67.0 42.7 Q70.7 41.35 72.0 41.5 L71.0 42.1 84.5 40.5 86.55 41.8 86.5 42.25 83.3 42.25 M61.8 1.05 Q61.8 2.2 58.0 11.8 54.15 21.45 52.0 25.75 L51.55 25.5 61.55 0.3 Q61.8 -0.15 61.8 1.05 M45.85 33.7 L37.8 20.5 Q38.0 20.0 38.75 20.0 41.15 20.0 46.4 29.85 L47.0 31.0 Q51.3 39.15 53.25 45.5 L53.25 45.75 Q51.0 42.45 47.0 35.65 L45.85 33.7 M24.05 5.35 L24.0 5.25 24.0 5.35 24.05 5.35 M23.2 11.2 Q25.6 12.4 27.7 13.6 L26.4 10.75 23.8 8.95 23.2 11.2 M24.0 6.55 L24.0 7.0 23.95 8.1 25.7 9.15 24.7 6.95 Q24.35 6.7 24.0 6.55 M28.95 18.85 L30.55 19.85 28.5 15.4 22.95 12.05 22.0 14.75 28.95 18.85 M6.75 30.5 L6.8 31.55 5.5 32.05 Q4.3 31.65 4.3 30.85 4.3 30.05 4.7 29.95 L5.5 29.8 6.75 30.5 M35.0 34.85 Q23.75 27.1 18.6 23.1 L17.65 25.15 Q23.8 28.5 34.6 38.0 35.0 36.2 35.0 34.85 M-43.1 80.3 Q-43.85 80.3 -43.65 80.95 L-43.25 81.8 -43.25 82.05 -41.7 81.9 -42.05 80.25 -43.1 80.25 -43.1 80.3 M-10.85 67.8 L-11.25 68.55 -12.5 68.55 Q-12.85 68.15 -12.85 67.05 -12.55 66.75 -11.75 66.75 L-10.85 67.8 M-35.15 70.1 L-39.45 76.75 -39.45 77.05 Q-33.35 77.25 -31.9 79.5 L-31.6 79.95 -31.35 76.3 Q-31.35 71.3 -30.9 69.3 -30.1 65.9 -27.1 61.3 -31.3 64.45 -35.15 70.1 M-39.5 80.3 L-39.5 81.45 -35.25 80.3 -39.5 80.3" fill="#10130f" fill-rule="evenodd" stroke="none"/>
    <path d="M40.0 -40.35 Q40.25 -40.3 40.25 -39.05 40.25 -37.95 39.25 -37.5 L38.25 -37.25 36.0 -37.5 35.8 -38.8 Q35.8 -41.15 38.25 -40.6 L40.0 -40.35 M55.25 -42.25 L55.5 -40.15 Q55.5 -39.35 54.7 -38.3 L55.6 -34.25 56.25 -29.05 56.05 -27.75 Q56.1 -27.35 54.85 -27.35 53.9 -27.35 53.25 -32.6 L52.85 -37.0 Q51.8 -37.05 51.3 -38.0 L51.05 -38.85 Q50.05 -38.0 48.0 -38.0 46.8 -38.0 46.15 -38.7 45.5 -38.25 44.5 -38.25 L43.5 -38.6 43.3 -39.9 Q43.3 -41.6 45.0 -41.6 L45.25 -41.6 45.25 -41.8 Q45.25 -42.85 46.5 -44.6 47.85 -46.5 49.0 -46.5 51.05 -46.5 51.9 -41.9 52.55 -42.8 53.5 -42.5 L55.25 -42.25 M56.0 19.1 Q56.0 17.25 58.0 17.25 59.6 17.25 59.3 18.9 L59.05 20.05 Q59.25 20.5 58.0 20.5 L56.25 20.25 Q56.0 20.35 56.0 19.1 M57.5 26.8 L57.25 27.55 56.5 28.0 55.3 27.95 Q55.0 27.9 55.0 27.1 55.0 26.1 56.5 25.5 57.5 25.95 57.5 26.8" fill="#ffffff" fill-rule="evenodd" stroke="none"/>
    <path d="M50.25 -56.35 L52.75 -55.9 Q53.45 -56.7 54.8 -57.1 L52.3 -59.65 Q51.75 -60.15 51.75 -61.25 51.75 -64.75 55.0 -64.75 61.5 -64.75 68.05 -55.1 71.35 -50.3 73.3 -45.35 L73.95 -44.65 75.25 -44.85 Q79.15 -44.85 78.3 -40.5 73.35 -7.5 69.05 -7.5 L68.1 -7.55 68.3 -6.55 Q68.3 -4.2 67.95 -3.5 L67.75 -3.2 Q69.2 -1.25 70.3 3.4 70.3 4.1 69.0 7.0 L69.45 8.1 82.5 26.9 Q82.5 29.0 80.5 29.0 78.6 29.0 73.55 22.35 75.3 30.75 75.75 36.5 L86.55 40.2 88.65 41.1 Q88.85 40.45 89.35 39.8 90.35 38.55 92.0 38.55 93.4 38.55 96.1 39.95 98.85 41.3 100.3 41.3 L101.4 40.2 Q102.4 39.05 104.0 39.05 105.35 39.05 106.3 39.55 L109.0 40.0 Q114.55 40.0 123.05 52.25 127.35 58.4 130.5 64.6 130.5 65.2 129.4 66.25 128.25 67.3 128.25 68.0 128.25 69.25 129.5 73.35 129.5 76.5 126.5 76.5 124.35 76.5 122.95 73.85 L122.65 73.05 Q122.25 74.95 120.0 75.2 120.95 78.7 121.5 82.25 120.85 88.55 117.5 88.55 116.05 88.55 113.55 79.4 110.6 68.45 109.55 66.55 104.0 56.45 94.6 49.9 L89.15 46.7 Q88.75 47.05 88.3 47.05 L81.9 45.8 Q80.4 45.8 78.15 47.2 75.9 48.55 74.8 48.55 L70.2 48.4 69.3 49.75 Q66.45 54.0 65.0 54.0 L64.7 55.2 Q65.45 54.25 66.75 53.5 70.9 51.0 79.5 51.0 82.8 51.0 82.5 54.0 82.5 55.85 76.8 58.0 71.45 60.05 68.0 60.05 L63.8 59.8 63.65 59.6 57.5 85.0 Q56.25 85.0 56.0 84.0 L56.0 83.0 Q56.0 77.65 56.9 71.65 54.65 66.9 52.75 61.55 L50.0 56.85 Q49.45 57.25 48.5 57.25 42.0 57.25 25.95 50.2 25.0 51.0 24.3 51.0 19.75 51.0 16.35 49.05 13.0 47.2 13.0 44.9 13.0 42.5 15.5 42.5 L18.8 43.55 Q20.85 41.1 23.95 39.1 26.1 37.65 28.05 37.05 27.4 36.3 27.3 35.75 24.5 35.6 23.85 31.15 L23.8 24.25 22.95 25.55 Q22.25 26.5 21.0 26.5 19.75 26.5 19.25 25.5 19.0 25.0 19.0 24.35 22.55 15.5 22.55 13.5 20.75 11.3 20.75 10.4 20.75 10.05 22.3 7.5 23.95 4.8 24.5 4.8 28.9 4.8 32.75 23.5 34.0 29.55 34.9 35.6 L38.4 37.75 Q42.1 40.0 44.6 41.25 48.1 39.5 51.0 39.5 51.65 39.5 52.55 40.15 53.3 40.65 53.8 40.75 56.3 38.9 59.4 35.4 63.1 31.2 65.4 29.4 L64.95 23.75 64.5 23.75 Q60.75 23.75 60.2 21.6 L60.3 18.25 Q59.55 19.35 55.7 26.95 52.7 32.75 51.5 32.75 L49.8 32.05 49.75 30.9 Q51.15 22.6 53.55 14.5 50.9 16.8 50.3 16.8 39.05 16.8 23.75 -6.05 23.75 -9.1 27.75 -17.1 31.95 -25.6 34.3 -25.6 L35.7 -27.55 Q37.2 -29.5 38.5 -29.5 L46.0 -28.5 Q54.35 -28.5 60.75 -20.95 60.4 -23.8 60.3 -27.25 60.2 -29.9 58.5 -37.85 L58.5 -37.9 58.05 -38.85 54.1 -47.75 53.0 -47.6 48.25 -48.1 Q46.55 -50.75 46.55 -52.4 46.55 -56.35 50.25 -56.35 M52.15 -53.1 L50.75 -51.85 53.1 -50.2 Q52.35 -52.1 52.15 -53.1 M29.5 -50.25 Q30.75 -50.25 34.35 -49.1 35.5 -49.1 39.5 -51.35 40.6 -51.35 41.3 -48.5 41.3 -48.05 38.25 -46.25 35.35 -44.5 35.0 -44.5 34.0 -44.5 32.2 -45.95 30.3 -47.55 27.8 -47.75 L27.3 -48.9 27.5 -49.85 29.5 -50.25 M42.85 30.75 Q37.5 25.3 37.5 24.35 37.5 22.75 39.0 22.75 44.1 22.75 50.75 35.85 L50.55 36.5 50.0 37.25 Q48.1 36.1 42.85 30.75 M62.3 45.25 L61.5 46.0 63.65 47.0 63.75 46.75 Q62.7 46.1 62.3 45.25 M3.25 84.85 Q3.25 87.75 0.5 87.75 L-7.05 86.65 Q-11.9 85.5 -14.4 85.5 -17.35 85.5 -24.0 86.8 -28.15 86.8 -27.35 83.35 -18.55 56.25 -11.0 56.25 -7.85 56.25 -7.6 59.4 L-10.7 64.9 Q-13.85 70.2 -13.85 74.25 -13.85 78.55 -5.3 80.9 L0.6 82.55 Q3.25 83.55 3.25 84.85 M-2.0 46.5 Q-2.0 47.4 -4.5 49.0 L-6.0 47.6 Q-6.0 46.2 -3.5 45.0 -2.0 46.25 -2.0 46.5" fill="#000000" fill-opacity="0.36078432" fill-rule="evenodd" stroke="none"/>
  </g>
  <defs>
    <radialGradient cx="0" cy="0" gradientTransform="matrix(0.2574, 0.0, 0.0, 0.2574, 44.5, 50.5)" gradientUnits="userSpaceOnUse" id="gradient0" r="819.2" spreadMethod="pad">
      <stop offset="0.0" stop-color="#65606c"/>
      <stop offset="1.0" stop-color="#1a1117"/>
    </radialGradient>
    <radialGradient cx="0" cy="0" gradientTransform="matrix(0.0587, -0.0231, 0.0499, 0.1264, 69.5, 21.0)" gradientUnits="userSpaceOnUse" id="gradient1" r="819.2" spreadMethod="pad">
      <stop offset="0.0" stop-color="#541212"/>
      <stop offset="1.0" stop-color="#6f2b2b" stop-opacity="0.6431373"/>
    </radialGradient>
    <radialGradient cx="0" cy="0" gradientTransform="matrix(0.1178, 0.0, 0.0, 0.1178, 76.0, 12.5)" gradientUnits="userSpaceOnUse" id="gradient2" r="819.2" spreadMethod="pad">
      <stop offset="0.0" stop-color="#541212" stop-opacity="0.56078434"/>
      <stop offset="1.0" stop-color="#6f2b2b" stop-opacity="0.3019608"/>
    </radialGradient>
    <radialGradient cx="0" cy="0" gradientTransform="matrix(0.0587, -0.0231, 0.0499, 0.1264, 69.5, 21.0)" gradientUnits="userSpaceOnUse" id="gradient3" r="819.2" spreadMethod="pad">
      <stop offset="0.0" stop-color="#541212" stop-opacity="0.56078434"/>
      <stop offset="1.0" stop-color="#6f2b2b" stop-opacity="0.3019608"/>
    </radialGradient>
    <radialGradient cx="0" cy="0" fx="-12.8" fy="0" gradientTransform="matrix(0.2148, 0.0, 0.0, 0.2148, 30.5, 64.5)" gradientUnits="userSpaceOnUse" id="gradient4" r="819.2" spreadMethod="pad">
      <stop offset="0.0" stop-color="#000000"/>
      <stop offset="1.0" stop-color="#1a1117" stop-opacity="0.0"/>
    </radialGradient>
    <radialGradient cx="0" cy="0" gradientTransform="matrix(0.1573, 0.0, 0.0, 0.1573, 58.5, 71.0)" gradientUnits="userSpaceOnUse" id="gradient5" r="819.2" spreadMethod="pad">
      <stop offset="0.0" stop-color="#5b824a"/>
      <stop offset="1.0" stop-color="#514b67"/>
    </radialGradient>
    <radialGradient cx="0" cy="0" gradientTransform="matrix(0.183, 0.0, 0.0, 0.183, 43.5, -40.5)" gradientUnits="userSpaceOnUse" id="gradient6" r="819.2" spreadMethod="pad">
      <stop offset="0.0" stop-color="#5b824a"/>
      <stop offset="1.0" stop-color="#695949"/>
    </radialGradient>
    <radialGradient cx="0" cy="0" gradientTransform="matrix(0.1381, 0.0, 0.0, 0.1381, 51.2, 16.0)" gradientUnits="userSpaceOnUse" id="gradient7" r="819.2" spreadMethod="pad">
      <stop offset="0.0" stop-color="#5b824a"/>
      <stop offset="1.0" stop-color="#695949"/>
    </radialGradient>
  </defs>
</svg>
