<?xml version="1.0" encoding="UTF-8" standalone="no"?>
<svg xmlns:ffdec="https://www.free-decompiler.com/flash" xmlns:xlink="http://www.w3.org/1999/xlink" ffdec:objectType="shape" height="169.05px" width="270.1px" xmlns="http://www.w3.org/2000/svg">
  <g transform="matrix(1.0, 0.0, 0.0, 1.0, 135.95, 84.45)">
    <path d="M25.1 -79.45 L-96.05 -35.05 -89.75 -2.85 82.15 -27.4 27.1 -81.5 25.1 -79.45 M-55.45 38.3 L-55.9 36.6 -55.45 38.3 -47.6 67.85 -42.9 66.6 134.15 68.05 134.15 84.6 -135.95 84.6 -135.95 -84.45 134.15 -84.45 134.15 13.8 133.4 -8.2 -55.45 38.3 M-46.9 70.6 L-47.6 67.85 -46.9 70.6" fill="#000000" fill-opacity="0.56078434" fill-rule="evenodd" stroke="none"/>
    <path d="M-55.9 36.6 L-55.45 38.3 M-47.6 67.85 L-46.9 70.6" fill="none" stroke="#000000" stroke-linecap="round" stroke-linejoin="round" stroke-width="1.0"/>
  </g>
</svg>
