<?xml version="1.0" encoding="UTF-8" standalone="no"?>
<svg xmlns:ffdec="https://www.free-decompiler.com/flash" xmlns:xlink="http://www.w3.org/1999/xlink" ffdec:objectType="shape" height="231.25px" width="140.75px" xmlns="http://www.w3.org/2000/svg">
  <g transform="matrix(1.0, 0.0, 0.0, 1.0, 70.4, 115.65)">
    <path d="M16.85 -115.65 Q32.35 -115.65 40.5 -100.65 L41.5 -93.05 Q43.6 -77.4 43.6 -73.2 43.6 -69.25 42.25 -59.45 40.85 -49.7 40.85 -47.0 40.7 -45.9 40.85 -45.05 L40.35 -43.2 Q38.9 -39.05 40.55 -35.1 43.85 -27.3 59.35 -27.25 L59.55 -27.25 61.0 -25.25 64.9 -21.35 67.1 -19.0 70.35 0.95 Q70.35 2.5 68.7 8.0 66.95 10.9 65.65 14.9 62.85 23.5 62.85 32.65 65.35 42.1 69.2 51.55 68.2 55.25 67.55 60.55 L66.4 73.95 66.0 78.2 Q59.5 89.7 52.6 91.45 45.6 93.25 18.8 101.3 L4.6 105.05 Q4.25 107.5 -5.4 111.05 -17.65 115.6 -33.15 115.6 -43.0 115.6 -48.1 107.85 -50.55 104.15 -51.15 101.25 -55.75 95.25 -62.2 75.35 -66.85 61.05 -70.4 46.7 -70.4 38.9 -69.15 35.3 -68.45 33.3 -66.15 30.55 -61.2 24.55 -59.65 7.65 -59.4 5.0 -60.9 -2.55 -62.4 -9.75 -61.8 -13.4 -61.3 -16.6 -59.2 -18.9 L-56.65 -18.65 Q-45.25 -18.7 -37.45 -29.8 L-34.15 -29.4 Q-23.5 -29.45 -17.95 -43.1 -14.4 -51.9 -14.4 -58.4 -14.4 -60.65 -17.25 -70.5 L-18.85 -76.1 -14.55 -82.85 Q-5.4 -96.8 2.85 -105.15 7.0 -109.4 10.45 -111.65 13.7 -115.65 16.85 -115.65" fill="#000000" fill-opacity="0.5921569" fill-rule="evenodd" stroke="none"/>
  </g>
</svg>
