<?xml version="1.0" encoding="UTF-8" standalone="no"?>
<svg xmlns:ffdec="https://www.free-decompiler.com/flash" xmlns:xlink="http://www.w3.org/1999/xlink" ffdec:objectType="shape" height="90.45px" width="179.15px" xmlns="http://www.w3.org/2000/svg">
  <g transform="matrix(1.0, 0.0, 0.0, 1.0, 89.55, 45.2)">
    <path d="M29.35 -44.3 Q29.35 -43.3 28.3 -41.75 L26.6 -43.05 Q26.6 -44.45 28.8 -45.05 29.35 -45.55 29.35 -44.3 M24.8 -37.0 Q27.4 -33.1 30.0 -31.25 31.55 -30.1 31.55 -28.8 31.55 -28.0 31.25 -27.9 L30.55 -27.8 37.75 -27.3 Q40.1 -26.95 40.1 -25.65 40.1 -24.8 36.0 -21.15 L25.05 -11.35 Q5.85 6.25 -9.45 25.95 L-10.2 25.9 Q-10.4 25.85 -10.4 25.05 -10.4 21.15 10.5 -0.8 29.75 -21.05 34.35 -24.25 L36.1 -25.0 Q30.85 -25.15 26.9 -26.1 22.35 -27.15 22.35 -28.7 22.35 -29.55 24.55 -30.55 23.1 -33.15 23.1 -34.4 23.1 -36.4 24.8 -37.0 M68.55 -30.8 L67.6 -30.75 Q67.15 -31.2 67.05 -31.8 68.2 -32.75 69.05 -32.3 L68.55 -30.8 M44.3 -13.95 Q45.2 -15.15 46.3 -15.55 46.85 -15.2 46.85 -14.45 46.85 -13.1 45.85 -12.0 48.8 -9.6 52.0 -10.1 55.3 -10.6 57.65 -9.45 58.05 -10.95 60.0 -15.3 62.4 -20.85 62.55 -18.3 61.6 -16.45 60.95 -13.3 L59.55 -7.8 Q59.05 -7.5 58.55 -7.3 57.85 -7.55 57.65 -8.25 L57.55 -8.25 Q48.0 -8.25 45.05 -9.8 43.55 -10.6 43.55 -12.5 43.55 -12.95 44.3 -13.95 M73.6 -17.3 L74.3 -17.75 Q75.3 -17.5 75.8 -16.75 L75.05 -16.05 Q74.35 -16.2 73.6 -17.3 M68.3 -19.95 Q68.3 -18.85 67.05 -18.3 L66.05 -19.0 Q66.9 -20.5 67.8 -20.5 L68.05 -20.7 68.3 -19.95 M67.3 -7.0 Q68.25 -6.45 69.05 -5.3 68.7 -4.8 68.05 -4.8 L66.55 -5.0 66.3 -6.5 Q66.7 -7.0 67.3 -7.0 M74.05 -1.8 Q74.05 -1.05 71.85 0.45 73.95 0.6 75.4 1.7 76.6 2.6 76.6 3.45 L76.55 4.45 Q76.15 5.2 74.9 5.2 73.95 5.2 70.85 2.6 L67.8 -0.05 Q62.95 3.1 61.55 3.75 60.55 3.4 60.55 2.05 60.55 0.85 65.0 -1.1 68.95 -2.75 71.55 -3.25 L73.6 -3.0 Q73.6 -2.55 74.05 -1.8 M89.6 -1.5 Q89.6 -0.4 80.65 13.4 70.55 28.9 68.3 33.45 L69.6 33.25 Q69.1 34.1 69.05 35.2 69.8 35.75 68.55 35.75 67.25 35.75 66.55 34.95 L66.1 34.1 Q66.1 31.05 73.7 19.15 77.5 13.1 81.85 6.75 L78.55 8.75 Q76.85 7.7 76.85 7.3 L77.1 5.25 Q77.6 4.95 79.05 5.75 L82.75 2.1 Q86.45 -1.75 88.55 -2.5 L89.3 -2.35 Q89.6 -2.25 89.6 -1.5 M63.2 31.85 Q62.15 29.45 56.2 29.45 49.75 29.45 40.3 31.9 36.55 32.9 22.35 37.35 -2.95 45.25 -18.95 45.25 -29.2 45.25 -34.35 42.95 -37.85 41.35 -40.05 37.85 -42.65 33.7 -43.85 32.75 -46.85 30.45 -53.5 30.45 L-56.6 30.55 Q-50.45 37.25 -50.45 40.25 L-50.7 41.0 Q-50.9 41.45 -51.45 41.5 -55.65 35.9 -60.25 30.95 -66.65 31.9 -71.25 34.85 L-75.65 37.9 Q-77.85 39.25 -79.95 39.25 -83.8 39.25 -89.2 37.75 -89.55 38.05 -89.55 36.8 -89.55 35.3 -87.9 34.7 -84.55 33.5 -82.95 32.45 L-82.7 32.75 Q-82.75 32.95 -85.8 35.45 L-79.3 36.95 Q-78.2 36.95 -76.2 35.55 L-71.75 32.5 Q-67.55 30.0 -62.25 28.9 -68.75 22.2 -76.05 16.8 L-83.3 11.35 Q-85.95 9.0 -85.95 6.8 -85.95 5.85 -84.7 6.5 L-82.3 7.7 Q-66.75 20.25 -58.75 28.3 L-53.2 28.0 Q-45.65 28.0 -42.35 30.35 -40.7 31.5 -38.55 35.5 -36.65 39.1 -33.6 40.6 -29.05 42.95 -19.35 42.95 -8.15 42.95 3.0 40.45 9.7 38.95 21.95 35.0 34.2 31.0 40.9 29.5 52.05 27.0 63.3 27.0 64.85 27.0 66.1 32.7 L65.85 33.75 Q66.3 34.2 65.05 34.2 64.0 34.2 63.7 33.45 L63.2 31.85 M-65.2 -1.25 Q-66.8 -0.45 -67.65 1.3 L-69.1 4.1 Q-70.4 5.75 -74.15 6.5 -72.4 5.0 -70.7 2.5 L-69.1 -0.95 Q-68.7 -1.8 -66.2 -1.8 -65.4 -1.8 -65.2 -1.25 M-55.05 4.95 Q-56.7 4.95 -57.55 2.2 L-57.2 1.5 -56.8 1.5 Q-55.75 1.5 -53.95 4.0 -54.15 4.95 -55.05 4.95" fill="#ffffff" fill-rule="evenodd" stroke="none"/>
  </g>
</svg>
