<?xml version="1.0" encoding="UTF-8" standalone="no"?>
<svg xmlns:ffdec="https://www.free-decompiler.com/flash" xmlns:xlink="http://www.w3.org/1999/xlink" ffdec:objectType="shape" height="112.15px" width="185.9px" xmlns="http://www.w3.org/2000/svg">
  <g transform="matrix(1.0, 0.0, 0.0, 1.0, 92.6, 68.9)">
    <path d="M31.8 -38.9 Q30.0 -36.65 30.0 -35.9 31.3 -34.0 31.3 -32.0 L43.7 -32.5 46.1 -32.25 Q46.75 -31.85 46.75 -30.4 46.75 -29.25 6.0 8.0 5.35 8.0 4.5 7.0 L1.55 10.55 1.25 10.55 Q12.45 -8.15 35.8 -26.85 L36.05 -27.25 Q29.0 -27.45 26.75 -28.15 24.75 -28.8 24.75 -30.4 24.75 -31.55 26.05 -32.85 L23.75 -40.55 Q23.75 -42.75 26.25 -42.75 29.25 -42.75 30.8 -41.0 31.8 -39.85 31.8 -38.9 M80.5 -39.75 L81.35 -39.5 Q81.75 -39.35 81.75 -38.55 81.75 -37.75 80.5 -36.25 78.8 -36.25 78.3 -37.25 78.9 -38.7 80.5 -39.75 M71.65 -35.55 L70.5 -34.0 Q68.75 -35.35 68.75 -35.55 68.75 -36.5 69.3 -37.65 70.0 -39.0 71.0 -39.0 72.5 -39.0 72.5 -37.4 72.5 -36.6 71.65 -35.55 M47.8 -15.0 Q47.1 -12.85 46.05 -12.85 45.05 -12.85 44.0 -13.35 L43.75 -15.05 Q43.75 -16.75 45.75 -16.75 47.8 -16.75 47.8 -15.0 M55.5 -16.1 L64.1 -8.15 Q73.25 -0.25 76.75 -0.25 L81.5 -0.5 85.65 -1.4 90.0 -2.35 Q92.85 -2.35 93.3 0.4 93.3 4.25 73.5 22.25 72.0 20.85 72.0 20.4 72.0 18.2 78.65 11.05 L86.25 3.3 78.5 4.8 Q69.65 4.8 66.9 1.65 65.05 -0.45 66.25 -2.85 L64.3 -2.75 Q61.8 -2.75 57.3 -8.35 L53.3 -14.0 53.55 -15.1 Q54.1 -16.1 55.5 -16.1 M75.05 -22.6 Q74.65 -21.35 73.75 -21.35 73.05 -21.35 72.25 -22.0 L72.15 -21.8 Q72.05 -21.75 72.05 -22.55 72.05 -23.4 72.45 -23.55 L73.75 -23.6 Q74.45 -23.6 75.05 -22.6 M65.55 -23.25 Q65.55 -25.75 67.5 -25.75 69.25 -25.75 69.3 -23.4 69.3 -21.1 67.5 -21.1 67.05 -21.1 65.75 -21.75 L65.55 -23.25 M90.8 -68.0 Q90.8 -66.6 89.0 -63.85 87.65 -63.85 87.0 -64.6 88.7 -69.15 90.25 -68.75 90.8 -69.25 90.8 -68.0 M41.6 27.05 Q39.75 27.05 35.35 29.25 L25.45 34.15 Q9.6 41.25 -8.0 41.25 -9.75 41.25 -9.75 39.4 -9.75 36.6 -4.5 35.75 L5.85 35.25 Q12.3 35.25 26.0 28.65 39.75 22.05 41.5 22.05 44.05 22.05 54.8 25.8 61.75 28.25 64.25 29.5 64.75 28.5 66.5 28.5 67.35 28.5 67.45 28.8 L67.5 30.0 67.5 31.45 Q67.35 32.0 66.55 32.0 L65.4 31.9 64.55 32.05 Q58.6 32.05 49.95 29.55 42.3 27.05 41.6 27.05 M-63.85 -3.75 Q-63.5 -3.65 -63.5 -2.4 L-63.75 -1.5 -65.35 -1.1 Q-66.15 -1.1 -67.0 -1.85 -67.0 -3.3 -65.25 -4.0 L-63.85 -3.75 M-28.15 36.3 Q-22.75 38.25 -22.75 40.5 -22.75 40.95 -23.25 41.55 -23.85 42.25 -24.5 42.25 -32.2 42.25 -40.0 36.9 -43.9 34.2 -46.75 31.5 L-54.35 32.3 -56.0 32.3 Q-55.25 33.4 -55.25 34.0 -55.25 35.25 -55.5 35.0 L-56.5 35.3 -58.6 33.6 Q-58.7 35.8 -63.6 39.3 -69.05 43.25 -73.75 43.25 -83.05 43.25 -88.75 40.8 -91.6 39.55 -92.6 38.25 -92.6 37.6 -91.2 36.4 L-89.85 35.0 Q-89.85 33.0 -86.5 33.0 -84.9 33.0 -83.7 34.5 -82.8 35.6 -82.6 36.55 -80.75 35.05 -78.5 35.05 L-68.0 36.25 Q-67.3 36.25 -63.85 33.5 L-65.35 30.4 Q-65.35 29.55 -64.3 29.0 L-92.5 5.9 Q-92.5 4.55 -89.75 3.0 -86.7 1.25 -83.25 1.25 -79.6 1.25 -74.5 3.05 -69.75 4.75 -69.75 5.5 -69.75 8.2 -73.65 8.2 L-84.75 8.0 -85.35 8.05 Q-83.05 9.2 -70.05 19.55 -63.75 24.55 -60.1 27.9 L-53.0 27.55 Q-44.85 27.55 -42.5 29.0 -39.8 31.6 -35.6 33.8 L-28.15 36.3 M-55.35 0.5 L-55.1 2.0 -56.5 3.3 -57.85 1.9 Q-57.85 0.45 -56.75 0.25 L-55.35 0.5 M-68.5 1.15 Q-68.1 1.8 -68.1 2.35 -68.1 4.05 -70.05 4.05 -72.35 4.05 -72.25 1.85 -72.25 1.35 -71.75 0.75 -71.2 0.05 -70.5 0.05 -69.15 0.05 -68.5 1.15" fill="#ffffff" fill-rule="evenodd" stroke="none"/>
  </g>
</svg>
