<?xml version="1.0" encoding="UTF-8" standalone="no"?>
<svg xmlns:ffdec="https://www.free-decompiler.com/flash" xmlns:xlink="http://www.w3.org/1999/xlink" ffdec:objectType="shape" height="113.5px" width="189.6px" xmlns="http://www.w3.org/2000/svg">
  <g transform="matrix(1.0, 0.0, 0.0, 1.0, 96.75, 70.25)">
    <path d="M34.5 -38.2 Q36.35 -32.85 36.25 -29.75 38.85 -28.6 41.95 -27.65 43.25 -27.3 43.25 -26.55 43.25 -25.0 33.7 -16.45 24.45 -8.15 22.3 -7.25 L21.8 -7.45 Q21.55 -7.6 21.55 -8.35 21.55 -10.4 37.3 -24.5 30.8 -25.35 30.3 -26.7 29.9 -27.65 30.8 -30.75 29.1 -32.4 27.45 -34.5 24.05 -38.7 24.05 -41.4 24.05 -43.85 26.5 -43.85 27.15 -43.85 27.65 -43.3 28.15 -42.75 28.75 -42.75 29.4 -42.75 29.9 -43.3 30.4 -43.85 31.0 -43.85 32.6 -43.85 34.5 -38.2 M79.05 -42.4 L78.8 -41.5 Q78.15 -41.5 78.0 -40.85 L76.5 -41.0 76.3 -42.1 77.05 -43.0 Q77.95 -43.85 78.55 -44.1 79.05 -43.65 79.05 -42.4 M73.25 -37.35 Q72.7 -36.4 72.0 -36.25 70.75 -36.65 70.75 -37.6 70.75 -38.85 72.0 -39.1 72.9 -38.7 73.25 -37.35 M62.5 -21.25 L62.25 -22.75 Q62.25 -25.55 65.0 -25.5 L66.5 -23.9 Q66.5 -23.1 65.55 -21.85 L64.55 -20.75 Q63.45 -20.75 62.5 -21.25 M64.5 -4.5 Q65.75 -4.5 66.0 -3.85 L66.05 -3.5 72.25 -3.1 Q76.25 -3.1 82.0 -6.2 87.75 -9.35 89.75 -9.35 93.15 -9.35 92.8 -6.85 92.8 -2.4 87.85 4.35 81.8 11.9 79.55 15.55 L76.05 21.7 Q74.0 25.15 72.25 26.8 59.05 32.75 55.25 32.75 50.0 32.75 47.4 30.25 L45.75 28.55 Q44.85 27.75 43.75 27.75 36.3 27.75 28.45 31.95 18.8 37.1 10.0 38.75 8.5 37.4 8.5 36.9 8.5 36.25 15.45 33.55 L23.55 30.5 Q23.0 29.5 23.0 28.9 23.0 27.55 33.25 25.3 42.4 23.3 44.0 23.3 47.2 23.3 49.15 25.7 51.05 28.05 52.3 28.05 L54.8 28.0 54.75 26.6 Q54.75 24.25 57.0 24.25 57.65 24.25 58.4 24.75 59.15 25.25 59.75 25.25 67.85 25.25 76.95 12.8 81.7 6.3 86.5 -2.5 L86.55 -2.85 81.75 -0.15 Q78.2 1.8 76.0 1.8 66.15 1.8 65.6 -2.65 64.7 -2.15 62.3 -2.0 L61.95 -2.1 Q61.8 -2.15 61.8 -2.9 61.8 -4.35 64.5 -4.5 M92.75 -66.55 L92.55 -65.6 Q92.8 -65.0 91.55 -65.0 90.45 -65.0 89.5 -65.5 L89.55 -68.1 91.0 -68.5 Q91.75 -68.5 92.3 -67.6 L92.75 -66.55 M88.0 -67.9 Q88.0 -66.75 86.85 -66.0 86.05 -65.5 85.55 -65.5 83.5 -65.5 83.05 -66.5 82.85 -67.05 83.0 -67.65 83.0 -70.25 86.0 -70.25 88.05 -70.25 88.0 -67.9 M87.55 -60.5 L86.0 -60.0 Q84.5 -61.2 84.5 -61.35 84.5 -62.3 86.0 -63.0 87.8 -61.8 87.8 -61.4 L87.55 -60.5 M83.5 -58.1 L82.0 -56.25 Q81.0 -56.4 81.0 -57.5 L81.6 -58.5 82.5 -59.5 Q83.5 -59.05 83.5 -58.1 M-65.0 -5.75 Q-65.0 -6.1 -65.35 -6.85 L-64.65 -7.5 Q-64.0 -7.8 -64.0 -8.35 -63.05 -7.75 -62.6 -7.0 L-63.5 -5.6 -65.0 -5.75 M-57.5 -3.5 L-55.6 -1.9 -55.85 -1.0 -57.4 -0.6 Q-58.15 -0.6 -59.0 -1.35 -58.4 -2.95 -57.5 -3.5 M-7.75 12.0 L-9.0 12.5 -10.5 10.85 -10.35 9.7 -9.25 9.5 Q-7.5 9.5 -7.5 11.0 L-7.75 12.0 M-18.6 15.3 L-26.5 16.0 -27.25 15.95 -29.0 17.5 -30.5 15.85 Q-30.5 15.25 -26.55 10.5 -22.35 5.5 -20.5 4.5 -19.0 5.6 -19.0 6.0 -19.0 6.55 -22.1 10.3 -18.9 9.05 -17.0 9.05 -13.85 9.05 -13.6 12.5 -13.6 14.3 -18.6 15.3 M-24.75 2.5 L-26.0 3.0 Q-28.0 1.9 -28.0 1.35 -28.0 -0.35 -26.0 -0.35 -24.6 0.95 -24.6 1.35 L-24.75 2.5 M-39.0 42.8 Q-40.4 42.8 -46.0 39.55 -51.55 36.25 -56.6 36.25 -58.25 36.25 -58.85 37.35 -59.95 39.25 -60.55 39.75 -64.65 43.25 -82.5 43.25 -90.25 43.25 -94.1 39.5 -96.75 36.95 -96.75 34.35 -96.75 30.25 -87.5 30.25 -85.2 30.25 -84.5 31.3 -84.25 31.7 -84.25 32.5 -84.25 34.2 -86.2 34.55 L-91.75 35.5 -88.65 37.85 Q-87.2 38.55 -82.1 38.55 -66.55 38.55 -61.3 33.8 L-57.5 30.55 Q-54.95 29.05 -50.0 29.05 -45.5 29.05 -40.75 32.3 -36.35 35.35 -36.35 37.55 -36.35 38.2 -35.7 38.9 -35.1 39.65 -35.1 40.25 -35.1 42.8 -39.0 42.8 M-57.1 3.5 Q-57.1 4.05 -57.75 4.8 L-58.75 5.55 Q-65.1 5.55 -65.1 3.35 L-59.5 -0.6 Q-57.95 -0.6 -57.35 1.4 -57.05 2.4 -57.1 3.5 M-57.6 10.8 L-62.35 11.3 Q-67.45 11.3 -72.95 9.65 L-79.1 8.0 -81.0 8.5 Q-76.75 17.3 -63.1 25.35 -63.1 27.5 -64.85 27.5 -68.8 27.5 -75.15 21.95 L-82.6 14.5 Q-85.35 11.5 -86.25 7.75 -86.85 5.15 -90.2 4.25 -93.35 3.4 -93.35 1.75 -93.35 0.25 -88.25 -4.85 -87.1 -4.85 -56.6 8.9 -56.6 10.35 -57.6 10.8" fill="#ffffff" fill-rule="evenodd" stroke="none"/>
  </g>
</svg>
