<?xml version="1.0" encoding="UTF-8" standalone="no"?>
<svg xmlns:ffdec="https://www.free-decompiler.com/flash" xmlns:xlink="http://www.w3.org/1999/xlink" ffdec:objectType="shape" height="102.8px" width="178.2px" xmlns="http://www.w3.org/2000/svg">
  <g transform="matrix(1.0, 0.0, 0.0, 1.0, 90.45, 60.25)">
    <path d="M79.3 -52.35 Q79.3 -50.1 77.0 -50.1 75.25 -50.1 74.75 -51.2 74.5 -51.75 74.55 -52.4 74.55 -54.85 77.0 -54.85 79.4 -54.85 79.3 -52.35 M33.25 -59.35 Q30.5 -55.05 30.5 -53.75 L31.55 -41.0 32.5 -40.35 Q36.5 -37.3 34.5 -33.35 36.75 -31.85 41.35 -30.9 44.5 -30.3 44.5 -28.6 44.5 -27.35 40.6 -23.7 36.1 -19.6 32.5 -19.6 31.2 -19.6 30.75 -20.6 L30.55 -21.75 Q30.55 -24.85 37.8 -26.75 L38.25 -27.1 Q34.9 -28.1 29.7 -32.6 24.75 -36.8 24.75 -38.0 24.75 -38.7 26.05 -40.6 27.4 -42.6 28.0 -42.6 L29.15 -42.2 Q28.65 -46.75 28.5 -53.65 28.5 -54.45 29.9 -56.85 31.5 -59.6 32.75 -60.1 33.25 -60.6 33.25 -59.35 M76.8 -39.95 Q77.5 -40.35 77.5 -40.75 78.8 -40.1 78.8 -38.25 L78.0 -37.6 Q76.05 -38.7 76.05 -39.05 76.05 -39.6 76.8 -39.95 M54.5 -10.6 Q55.8 -10.6 60.55 -8.15 65.25 -5.75 69.0 -5.75 72.55 -5.75 72.45 -3.55 L72.0 0.05 78.0 0.05 81.25 -1.4 Q84.2 -2.75 85.5 -2.75 87.8 -2.75 87.75 -0.4 87.75 5.7 82.4 10.05 L78.7 13.05 Q77.0 14.75 77.0 16.6 77.0 18.15 62.5 26.25 60.75 26.25 60.75 24.4 60.75 24.05 65.05 21.3 69.75 18.3 71.05 14.3 71.5 13.0 76.75 9.3 81.55 5.95 81.3 4.25 L81.25 4.05 77.5 4.75 Q72.0 4.75 62.5 0.25 52.3 -4.6 52.3 -8.55 52.3 -10.6 54.5 -10.6 M85.5 -51.5 Q87.25 -51.5 87.25 -49.35 L86.5 -48.25 Q85.35 -48.0 84.6 -48.7 84.0 -49.3 84.0 -49.85 84.0 -51.5 85.5 -51.5 M47.0 26.3 L47.75 26.45 Q48.05 26.55 48.05 27.3 48.05 28.75 45.75 29.25 L44.75 29.0 Q44.25 28.5 44.25 27.85 44.25 26.2 47.0 26.3 M5.65 16.5 Q2.7 16.5 -1.95 14.5 -6.6 12.5 -7.0 12.5 -7.35 12.5 -8.6 13.25 -9.85 14.0 -13.75 14.0 -15.2 14.0 -15.4 14.8 -15.55 15.55 -16.6 15.55 -19.2 15.55 -19.35 13.65 -20.3 14.3 -22.25 14.55 -23.85 14.55 -24.1 13.45 L-25.5 13.0 Q-23.75 0.3 -23.75 -0.85 -23.75 -1.95 -26.35 -3.35 L-32.05 -6.15 Q-40.35 -10.2 -40.35 -14.35 -40.35 -16.35 -38.5 -16.35 -37.05 -16.35 -35.65 -13.75 -34.05 -10.75 -32.75 -10.1 -31.7 -9.6 -26.85 -8.2 -24.15 -7.45 -22.75 -5.25 -19.65 -0.55 -20.4 1.6 L-21.4 3.65 Q-22.0 5.1 -22.0 6.85 -22.0 7.5 -19.85 8.85 L-19.85 9.7 -19.1 10.6 -18.55 11.6 Q-17.7 11.05 -15.75 11.05 L-11.35 12.0 Q-10.25 12.0 -8.9 10.75 L-7.5 9.5 Q-5.15 9.5 -1.55 11.05 2.05 12.55 7.5 12.55 9.0 12.55 9.0 14.5 9.0 16.5 5.65 16.5 M15.3 8.5 Q15.3 9.05 14.7 9.8 13.9 10.85 12.55 11.0 10.5 9.85 10.5 9.5 10.5 8.55 11.7 7.75 12.9 6.9 14.0 7.05 L15.3 8.5 M-81.25 -3.5 Q-75.9 -3.5 -71.75 -0.45 -67.6 2.55 -66.5 2.55 L-58.8 1.05 Q-57.0 -0.25 -56.0 -0.25 -54.35 -0.25 -53.9 0.95 -53.75 1.25 -53.75 2.25 -53.75 4.55 -55.6 6.75 -58.15 9.75 -62.75 9.75 -64.6 9.75 -70.75 5.5 -77.15 1.1 -80.0 0.75 -69.6 8.8 -69.6 9.5 -69.6 11.5 -72.0 11.5 -78.0 11.5 -85.5 -1.1 -85.5 -3.5 -81.25 -3.5 M-72.5 -5.35 L-72.75 -6.5 -72.5 -7.5 -71.5 -7.75 Q-70.7 -7.75 -70.5 -7.4 L-70.25 -6.75 Q-70.25 -5.9 -71.0 -5.25 L-72.5 -5.35 M-62.25 -1.35 Q-64.1 -1.35 -64.1 -3.1 -64.1 -4.85 -62.5 -4.85 -60.75 -4.85 -60.35 -2.75 L-61.0 -1.95 Q-61.5 -1.35 -62.25 -1.35 M-40.0 8.25 L-41.75 6.9 Q-41.75 6.05 -41.45 5.85 L-40.25 5.75 Q-39.3 5.75 -38.75 6.75 -38.75 7.65 -40.0 8.25 M-32.6 5.35 Q-32.6 7.8 -34.5 7.8 -36.1 7.8 -36.5 5.35 -36.5 3.05 -34.25 3.05 -32.9 3.05 -32.6 4.15 -32.45 4.7 -32.6 5.35 M-37.35 41.0 Q-42.45 41.0 -46.25 38.1 -48.75 36.15 -49.7 34.1 L-55.0 32.3 Q-57.25 32.3 -59.25 36.4 -61.25 40.5 -64.5 40.5 -69.2 40.5 -70.75 39.05 L-71.4 38.3 Q-79.7 38.3 -79.95 39.8 -80.15 41.3 -87.0 41.3 -88.15 41.3 -90.35 39.55 L-90.35 38.8 Q-90.75 38.55 -89.5 38.55 -88.85 38.55 -88.35 39.05 -87.85 39.5 -87.25 39.5 -81.75 39.5 -80.2 38.05 L-79.35 37.0 Q-78.9 36.55 -78.0 36.55 L-71.9 36.7 -71.5 36.3 -70.7 36.85 -70.2 36.95 -70.2 37.05 -67.6 37.55 Q-62.55 37.55 -61.25 33.15 -60.55 30.85 -59.95 30.15 -58.8 28.75 -56.25 28.75 -52.1 28.75 -47.6 30.75 -45.9 31.5 -44.95 32.1 -41.5 28.3 -37.75 28.3 L-23.85 40.5 Q-23.85 42.55 -26.0 42.55 -26.9 42.55 -30.0 41.2 -33.05 39.8 -35.5 39.8 -36.1 39.8 -36.4 40.4 -36.7 41.0 -37.35 41.0" fill="#ffffff" fill-rule="evenodd" stroke="none"/>
  </g>
</svg>
