<?xml version="1.0" encoding="UTF-8" standalone="no"?>
<svg xmlns:ffdec="https://www.free-decompiler.com/flash" xmlns:xlink="http://www.w3.org/1999/xlink" ffdec:objectType="shape" height="90.85px" width="183.55px" xmlns="http://www.w3.org/2000/svg">
  <g transform="matrix(1.0, 0.0, 0.0, 1.0, 100.25, 48.35)">
    <path d="M38.5 -40.9 L38.75 -40.25 Q37.2 -38.35 36.5 -38.1 L35.05 -39.5 Q35.05 -40.85 37.5 -41.25 38.3 -41.25 38.5 -40.9 M33.3 -37.85 Q34.95 -33.8 35.75 -33.1 L35.45 -32.15 Q35.25 -31.75 34.5 -31.75 32.3 -31.75 30.5 -34.0 29.0 -35.85 29.0 -37.0 29.0 -41.25 30.5 -41.25 31.95 -41.25 33.3 -37.85 M78.0 -42.1 Q78.0 -43.15 79.0 -43.5 L80.0 -42.5 79.0 -41.5 Q78.3 -41.75 78.0 -42.1 M54.8 -45.85 Q54.8 -43.6 52.5 -43.6 50.75 -43.6 50.25 -44.7 50.0 -45.25 50.05 -45.9 50.05 -48.35 52.5 -48.35 54.9 -48.35 54.8 -45.85 M43.0 -42.85 Q44.3 -42.85 44.3 -41.1 L44.05 -40.0 Q43.5 -40.0 43.5 -39.6 41.55 -40.8 41.55 -41.25 41.55 -42.85 43.0 -42.85 M70.75 -11.75 L72.0 -11.5 Q72.25 -11.6 72.25 -10.35 L72.05 -9.25 Q72.1 -8.85 70.85 -8.85 L69.55 -9.25 69.25 -10.35 69.3 -11.5 70.75 -11.75 M63.5 -5.25 Q68.0 -5.25 83.3 5.6 83.3 7.65 80.0 10.5 76.7 13.3 74.3 13.3 67.9 19.75 66.25 20.55 70.05 16.6 72.75 12.6 76.4 7.2 78.3 4.8 71.55 0.2 62.0 -3.35 61.8 -2.65 61.8 -3.9 61.8 -5.25 63.5 -5.25 M79.25 -3.0 Q79.25 -4.6 81.0 -4.6 81.8 -4.6 82.25 -2.85 L81.5 -1.75 79.5 -1.85 Q79.25 -1.75 79.25 -3.0 M-97.35 -3.6 Q-97.25 -4.3 -97.25 -3.05 -97.25 -2.35 -98.5 -1.35 L-100.0 -1.35 Q-100.25 -1.4 -100.25 -2.65 L-100.1 -4.0 -98.75 -4.25 Q-98.15 -4.25 -97.35 -3.6 M-92.35 -2.75 L-85.0 -3.1 -83.0 -2.85 Q-83.45 -1.25 -83.2 -0.25 -82.75 1.75 -79.25 1.75 -78.0 1.75 -76.0 -0.25 L-75.1 -0.25 Q-74.8 -0.25 -74.75 0.8 L-71.5 0.55 Q-68.25 1.8 -67.0 1.8 -65.8 1.8 -63.8 0.65 L-62.0 -0.5 -59.45 -0.1 -57.0 0.3 Q-55.35 0.3 -55.35 2.25 -55.35 4.4 -60.6 7.3 -65.5 10.0 -67.85 10.0 -69.0 10.0 -69.6 9.5 -70.0 9.05 -70.0 8.5 -70.0 7.2 -66.35 5.05 L-66.1 5.0 -69.3 3.8 Q-72.2 2.95 -76.05 3.25 -77.5 4.05 -80.5 4.05 -85.1 4.05 -85.1 -0.6 L-86.5 -0.6 -86.5 -0.25 -92.5 0.25 Q-93.75 -0.95 -93.75 -1.3 -93.75 -2.55 -92.35 -2.75 M-81.5 -8.5 Q-81.7 -7.7 -82.5 -7.0 L-83.6 -7.0 -84.0 -7.1 -84.1 -7.9 Q-84.1 -9.8 -82.5 -9.5 -81.7 -9.2 -81.5 -8.5 M-69.5 -4.0 Q-69.7 -3.25 -71.0 -2.85 -72.1 -3.2 -72.1 -4.05 L-72.0 -4.6 Q-71.0 -5.0 -71.0 -5.1 -69.8 -5.0 -69.5 -4.0 M-22.85 36.3 L-22.8 36.1 -22.75 36.85 Q-22.75 38.6 -25.1 38.55 -26.1 37.8 -26.1 37.1 -26.1 35.75 -24.25 35.75 -23.75 35.75 -22.85 36.3 M-27.85 32.3 Q-27.85 33.55 -28.1 33.5 L-29.5 33.8 -31.1 33.5 -31.25 32.35 Q-31.25 31.95 -30.35 31.3 L-29.5 30.55 -27.85 32.3 M-32.6 40.05 Q-33.8 42.5 -36.0 42.5 L-42.8 41.65 -53.0 40.8 -55.35 40.5 Q-55.6 41.1 -55.6 39.85 -55.6 39.1 -51.6 37.05 -47.6 35.0 -46.0 35.0 -44.4 35.0 -43.4 35.9 L-42.55 36.75 Q-41.9 36.75 -40.9 36.15 -39.85 35.5 -39.25 35.5 -36.65 35.5 -34.85 37.2 -33.85 38.15 -32.6 40.05 M-65.5 38.8 L-65.25 39.9 Q-65.25 41.3 -66.5 41.3 L-69.1 41.25 -69.35 39.85 Q-69.35 39.05 -68.6 38.85 L-67.5 38.55 -65.5 38.8 M-45.35 28.75 L-45.0 30.0 Q-45.0 31.0 -47.0 32.0 L-48.5 30.25 Q-48.5 29.15 -46.75 28.5 L-45.35 28.75" fill="#ffffff" fill-rule="evenodd" stroke="none"/>
  </g>
</svg>
