<?xml version="1.0" encoding="UTF-8" standalone="no"?>
<svg xmlns:ffdec="https://www.free-decompiler.com/flash" xmlns:xlink="http://www.w3.org/1999/xlink" ffdec:objectType="shape" height="85.15px" width="177.1px" xmlns="http://www.w3.org/2000/svg">
  <g transform="matrix(1.0, 0.0, 0.0, 1.0, 92.6, 44.85)">
    <path d="M34.75 -43.5 L35.6 -43.35 Q35.8 -43.3 35.8 -42.55 L35.75 -42.0 35.5 -41.6 33.75 -41.5 33.5 -42.5 33.75 -43.5 34.75 -43.5 M37.6 -37.65 Q37.8 -37.5 37.8 -36.75 L37.75 -36.0 37.5 -35.6 36.3 -35.75 Q36.05 -36.1 36.05 -36.65 36.05 -37.85 37.05 -37.85 L37.6 -37.65 M40.8 -37.8 Q40.8 -38.85 42.0 -39.1 43.05 -38.6 43.05 -37.35 L42.5 -36.35 41.0 -36.5 40.8 -37.8 M47.5 -44.85 L49.0 -44.5 Q48.75 -44.1 47.5 -44.1 L47.5 -44.85 M70.75 -4.25 Q71.55 -4.25 72.05 -3.6 L72.0 -2.85 71.0 -2.25 Q69.65 -3.2 69.75 -3.85 70.25 -4.25 70.75 -4.25 M73.55 -6.5 Q73.5 -5.65 72.5 -5.35 L71.6 -5.45 Q71.3 -5.55 71.3 -6.35 71.3 -7.6 72.5 -7.85 73.4 -7.45 73.55 -6.5 M84.5 -1.9 Q84.5 -0.5 82.75 -0.5 L81.25 -0.75 Q81.0 -0.6 81.0 -1.85 81.0 -2.7 81.85 -3.35 82.5 -3.85 83.0 -3.85 84.5 -3.85 84.5 -1.9 M81.5 5.05 Q81.25 5.55 80.0 5.55 L78.8 5.0 Q79.2 2.85 80.75 2.5 81.55 3.3 81.55 4.0 L81.5 5.05 M75.55 19.15 L75.5 20.0 75.0 20.55 73.5 20.5 Q73.3 20.35 73.3 19.1 73.3 17.6 74.5 17.5 75.55 18.0 75.55 19.15 M25.25 5.25 L25.55 7.05 24.5 8.05 Q23.3 7.75 23.3 6.65 L23.55 5.3 25.25 5.25 M13.25 7.0 Q14.7 7.0 18.3 8.25 21.8 9.5 21.8 9.85 21.8 10.3 20.05 11.85 18.15 13.5 17.05 13.5 14.8 13.5 13.55 12.4 L12.25 11.25 Q8.0 11.25 3.8 12.75 -0.35 14.25 -3.5 14.25 L-5.5 13.8 -6.15 12.85 Q-7.0 11.65 -11.1 11.55 L-11.25 12.25 -13.0 12.55 Q-13.25 13.25 -13.25 12.0 L-13.1 11.0 -13.1 10.6 -13.0 9.55 -10.75 9.3 Q-8.25 9.3 -6.7 10.05 L-4.5 10.8 1.4 8.9 Q6.85 7.0 13.25 7.0 M-90.35 -1.25 L-91.0 -0.5 -92.5 -0.5 -92.6 -1.6 Q-92.6 -2.55 -91.5 -3.0 -90.65 -2.65 -90.35 -1.25 M-43.6 -26.7 L-43.35 -22.65 Q-43.35 -20.2 -43.9 -18.25 -39.25 -13.7 -39.25 -9.35 -32.85 -7.8 -28.6 -4.9 -25.0 -2.45 -24.1 0.05 -24.5 1.25 -25.55 1.25 -26.4 1.25 -32.35 -3.6 L-36.5 -4.3 -36.5 -4.1 -37.0 -3.5 -39.0 -3.6 -38.75 -4.75 Q-41.35 -5.65 -42.6 -8.25 -43.8 -10.65 -45.85 -13.5 -46.75 -14.7 -46.75 -17.15 -46.75 -18.35 -46.15 -18.85 -46.8 -22.05 -47.1 -28.3 -47.1 -30.6 -45.5 -30.6 -44.15 -30.6 -43.6 -26.7 M-80.25 -1.1 Q-78.85 -1.1 -78.85 0.4 L-79.0 1.75 Q-79.5 1.75 -79.5 2.05 L-81.0 2.0 -81.1 0.3 -81.0 -1.0 -80.25 -1.1 M-74.85 -2.85 L-75.5 -1.85 -77.5 -2.0 -77.6 -3.3 Q-77.6 -3.9 -75.75 -4.75 L-74.85 -2.85 M-34.25 -14.25 L-34.6 -13.25 -35.5 -13.25 Q-35.75 -13.3 -35.75 -14.1 L-35.5 -15.35 -34.75 -15.35 Q-34.25 -14.65 -34.25 -14.25 M-19.5 3.5 L-20.3 3.35 Q-20.5 3.2 -20.5 2.4 -20.5 1.3 -19.25 1.3 -18.65 1.85 -18.5 2.5 -18.75 3.2 -19.5 3.5 M-18.0 10.3 Q-16.9 10.75 -16.75 12.5 L-18.25 13.05 -19.25 12.8 -19.6 11.85 Q-18.0 11.6 -18.0 10.3 M-20.85 7.8 L-21.5 9.0 -22.75 9.05 Q-23.1 9.1 -23.1 7.85 -23.1 7.05 -22.75 6.95 L-22.0 6.8 -20.85 7.8 M-32.75 34.5 L-32.5 35.6 -32.6 36.3 Q-33.0 37.0 -33.75 37.0 L-34.75 36.75 -35.0 35.75 -34.85 34.55 -32.75 34.5 M-22.75 39.0 Q-23.45 39.95 -24.5 40.3 L-25.85 38.9 -25.6 37.5 Q-25.75 37.25 -24.5 37.25 -23.9 37.25 -22.75 39.0 M-66.85 4.0 Q-66.85 4.5 -67.5 5.05 -68.55 6.0 -70.8 6.0 L-76.5 5.3 Q-80.0 4.5 -80.0 3.35 -80.0 2.0 -77.5 2.0 L-75.1 2.35 Q-75.05 0.8 -73.5 0.8 -72.8 0.8 -71.6 2.55 L-71.6 2.65 -67.1 2.8 Q-66.85 2.75 -66.85 4.0 M-77.5 8.85 Q-77.5 7.5 -76.0 7.5 -74.6 7.5 -74.1 8.55 -74.9 10.5 -75.5 10.5 -76.8 10.5 -77.35 9.55 -77.5 10.1 -77.5 8.85 M-62.75 31.75 Q-62.75 29.75 -61.0 29.75 -59.1 29.75 -59.1 31.5 -59.1 33.75 -61.0 33.75 -63.0 33.75 -62.75 31.75 M-41.85 36.8 Q-41.85 37.2 -42.4 38.15 -43.1 39.3 -44.0 39.75 -45.75 39.25 -45.75 37.75 -45.75 35.75 -44.0 35.75 -41.85 35.75 -41.85 36.8 M-46.5 32.25 L-46.85 31.25 -46.6 30.05 -45.25 30.0 -44.85 30.3 -45.1 31.8 -46.5 32.25 M-55.0 37.5 L-53.85 37.5 Q-53.6 37.55 -53.6 38.35 L-53.75 39.0 -55.0 39.5 -55.7 39.35 Q-56.0 39.2 -56.0 38.4 -56.0 37.65 -55.5 37.5 L-55.0 37.5" fill="#ffffff" fill-rule="evenodd" stroke="none"/>
  </g>
</svg>
