<?xml version="1.0" encoding="UTF-8" standalone="no"?>
<svg xmlns:ffdec="https://www.free-decompiler.com/flash" xmlns:xlink="http://www.w3.org/1999/xlink" ffdec:objectType="shape" height="82.05px" width="83.9px" xmlns="http://www.w3.org/2000/svg">
  <g transform="matrix(1.0, 0.0, 0.0, 1.0, 48.6, 71.0)">
    <path d="M-25.0 -69.85 L-24.85 -70.6 -24.0 -71.0 Q-23.1 -70.35 -22.5 -69.25 -22.9 -68.6 -23.5 -68.5 L-25.0 -69.85 M-21.0 -56.8 L-20.85 -58.1 Q-20.75 -58.5 -19.5 -58.5 -17.85 -58.5 -17.85 -56.55 L-18.0 -55.6 -18.1 -55.3 Q-18.25 -55.0 -19.0 -55.0 -19.9 -55.0 -20.85 -55.5 L-21.0 -56.8 M-12.0 -50.0 L-15.35 -53.35 Q-15.35 -54.5 -14.25 -55.25 -13.35 -55.85 -12.5 -55.85 -9.85 -55.85 -9.75 -52.6 -9.75 -52.05 -10.35 -51.1 -11.1 -50.0 -12.0 -50.0 M-41.35 -31.0 L-41.5 -30.65 Q-41.75 -30.35 -42.5 -30.35 L-43.8 -30.9 Q-44.9 -31.4 -45.25 -31.65 L-45.5 -31.25 -45.65 -31.4 Q-46.35 -30.55 -46.35 -29.55 -46.35 -24.9 -43.3 -18.15 L-37.6 -6.5 -38.85 -6.0 Q-43.0 -10.0 -45.9 -17.35 -48.6 -24.25 -48.6 -29.6 -48.6 -33.15 -46.85 -33.9 L-46.85 -34.1 Q-46.85 -34.65 -46.0 -35.25 -45.1 -35.85 -44.0 -35.85 -42.25 -35.85 -36.5 -31.75 L-36.2 -31.55 -35.5 -31.6 -34.5 -31.0 -34.35 -30.25 -34.35 -30.2 Q-30.75 -27.45 -30.75 -26.5 L-30.8 -25.75 -30.75 -25.75 -30.1 -25.0 Q-30.75 -23.8 -31.5 -23.6 L-32.35 -24.25 -31.85 -25.05 -32.5 -24.85 Q-38.85 -28.3 -38.85 -28.5 -38.85 -29.1 -38.35 -28.85 -37.85 -28.6 -37.85 -29.25 -37.85 -30.0 -42.4 -32.3 -41.6 -31.55 -41.35 -31.0 M-33.25 -2.35 Q-33.0 -2.3 -33.0 -1.5 L-33.35 -0.35 -34.0 0.0 -35.1 -0.1 Q-35.5 0.35 -35.5 -0.85 -35.5 -1.65 -34.0 -2.5 L-33.25 -2.35 M-28.5 4.55 L-28.6 5.0 -29.5 4.8 Q-29.5 4.05 -29.75 3.3 L-28.75 3.05 -28.5 4.55 M33.05 1.4 L34.75 -0.5 Q35.3 0.25 35.3 1.1 L35.25 1.75 34.8 2.3 33.5 2.25 Q33.05 2.65 33.05 1.4 M28.05 3.25 Q28.05 1.55 30.0 1.55 32.5 1.55 32.75 3.65 32.75 6.4 25.5 8.8 18.75 11.05 12.5 11.05 8.6 11.05 7.05 9.75 L18.45 8.15 Q25.1 7.05 29.55 5.05 28.05 3.6 28.05 3.25" fill="#ffffff" fill-rule="evenodd" stroke="none"/>
  </g>
</svg>
