<?xml version="1.0" encoding="UTF-8" standalone="no"?>
<svg xmlns:ffdec="https://www.free-decompiler.com/flash" xmlns:xlink="http://www.w3.org/1999/xlink" ffdec:objectType="shape" height="98.35px" width="81.35px" xmlns="http://www.w3.org/2000/svg">
  <g transform="matrix(1.0, 0.0, 0.0, 1.0, 47.6, 87.35)">
    <path d="M23.85 -80.0 Q17.2 -80.0 -0.85 -73.8 -16.3 -68.5 -22.95 -64.1 L-22.85 -63.5 Q-22.85 -59.35 -25.25 -59.35 -27.8 -59.35 -28.1 -63.15 -28.1 -64.55 -27.2 -65.1 L-27.1 -66.05 Q-27.1 -67.2 -28.3 -70.05 L-29.25 -69.85 -29.25 -70.6 -28.55 -70.6 -29.9 -73.4 Q-32.5 -73.85 -34.25 -77.75 -28.65 -86.1 -24.5 -87.1 L-23.7 -86.95 Q-23.35 -86.85 -23.35 -86.1 -23.35 -85.0 -24.7 -83.15 L-29.0 -77.1 -27.0 -75.1 -27.9 -74.1 Q-27.0 -73.0 -26.15 -70.6 L-25.0 -66.1 -25.15 -65.6 Q-24.3 -65.6 -23.75 -65.25 -21.2 -66.55 -16.35 -68.45 -0.9 -74.45 0.25 -75.0 21.6 -83.0 25.5 -83.0 29.6 -83.0 30.05 -79.35 30.05 -78.7 29.55 -78.05 29.05 -77.35 29.05 -76.75 29.05 -76.3 30.3 -75.2 31.55 -74.05 31.55 -73.5 31.55 -72.65 30.1 -71.6 28.85 -70.75 28.5 -70.75 27.25 -70.75 26.4 -74.25 25.6 -77.8 26.5 -79.25 25.55 -80.0 23.85 -80.0 M30.8 -67.3 L30.75 -66.0 29.5 -65.6 Q28.05 -66.95 28.05 -67.35 28.05 -69.25 29.25 -69.25 30.8 -69.25 30.8 -67.3 M-8.85 -86.75 Q-8.5 -87.25 -8.5 -86.0 -8.5 -84.85 -10.5 -84.85 L-15.05 -85.15 -15.1 -85.65 Q-15.15 -86.1 -15.75 -86.5 -15.15 -87.35 -14.5 -87.35 -10.4 -87.35 -8.85 -86.75 M-17.0 -56.75 Q-16.05 -56.75 -15.75 -55.75 -15.75 -54.9 -16.5 -54.25 L-18.0 -54.35 -18.25 -55.5 -18.0 -56.5 Q-18.25 -56.75 -17.0 -56.75 M-45.0 -30.85 Q-45.5 -30.85 -45.5 -30.5 L-46.75 -30.6 -47.0 -31.75 Q-47.0 -32.75 -45.25 -33.5 -44.85 -34.15 -44.85 -32.9 L-45.0 -30.85 M-46.75 -25.5 L-44.0 -15.75 -44.1 -15.2 -45.0 -15.0 Q-47.15 -15.0 -47.6 -24.6 L-47.5 -25.5 -46.75 -25.5 M-41.35 -33.0 Q-41.35 -34.0 -40.35 -34.25 -39.7 -33.75 -39.25 -32.35 L-39.5 -32.0 -41.0 -31.85 Q-41.0 -32.25 -41.35 -33.0 M-36.15 -30.75 L-35.25 -31.0 Q-33.85 -31.0 -33.85 -29.6 L-34.1 -28.85 Q-34.45 -28.5 -35.0 -28.35 -36.1 -28.7 -36.1 -29.55 L-36.15 -30.75 M-31.5 -27.1 L-32.25 -26.6 -32.5 -27.35 -32.35 -28.25 -31.85 -28.25 Q-31.5 -27.7 -31.5 -27.1 M33.75 0.55 L33.3 1.25 31.25 0.75 Q31.25 0.3 32.0 -0.25 L33.75 0.25 33.75 0.55 M28.75 2.55 L28.3 3.0 27.05 3.0 Q26.8 2.55 26.8 1.55 L27.75 1.5 28.75 2.55 M25.0 4.5 L24.85 5.15 24.3 5.05 23.5 5.15 Q23.3 5.15 23.3 4.35 L23.55 3.8 24.05 3.75 Q25.0 3.25 25.0 4.5 M17.25 7.75 L17.55 7.65 Q17.8 7.7 17.8 8.5 17.8 9.15 12.0 11.0 11.1 11.0 10.25 10.5 10.05 11.1 10.05 9.85 10.05 8.7 13.5 8.15 L17.25 7.75" fill="#ffffff" fill-rule="evenodd" stroke="none"/>
  </g>
</svg>
