<?xml version="1.0" encoding="UTF-8" standalone="no"?>
<svg xmlns:ffdec="https://www.free-decompiler.com/flash" xmlns:xlink="http://www.w3.org/1999/xlink" ffdec:objectType="shape" height="114.6px" width="83.3px" xmlns="http://www.w3.org/2000/svg">
  <g transform="matrix(1.0, 0.0, 0.0, 1.0, 48.5, 102.35)">
    <path d="M4.3 -99.25 Q3.25 -97.6 1.25 -97.6 -2.35 -97.6 -2.35 -99.9 -2.35 -102.35 0.0 -102.35 2.15 -102.35 4.3 -99.25 M21.9 -75.4 Q21.75 -75.0 21.0 -75.0 L16.6 -76.35 Q13.75 -76.35 0.65 -71.3 -13.5 -65.85 -16.25 -65.35 L-16.25 -63.35 -17.85 -65.6 Q-10.85 -69.25 0.45 -73.65 12.9 -78.5 16.5 -78.5 L19.5 -77.45 22.0 -76.1 21.9 -75.4 M25.75 -75.75 Q27.2 -75.75 29.8 -72.75 L30.95 -71.35 31.05 -71.6 Q31.6 -72.6 33.0 -72.6 34.55 -72.6 34.8 -70.5 34.8 -68.75 32.5 -68.75 L32.25 -68.75 Q32.1 -67.95 31.05 -67.1 29.9 -66.1 29.0 -66.1 26.4 -66.1 26.55 -67.65 26.65 -68.45 27.25 -69.35 L26.55 -73.1 25.25 -75.6 25.75 -75.75 M28.05 4.55 Q27.75 4.25 27.75 3.5 L28.75 3.3 Q29.25 2.8 29.25 4.05 29.25 4.8 29.0 4.75 L28.05 4.55 M24.8 8.1 Q24.8 10.3 22.5 10.3 20.75 10.3 20.25 9.2 L20.05 8.0 Q20.05 5.55 22.5 5.55 24.9 5.55 24.8 8.1 M12.0 11.0 L11.5 12.05 10.55 12.25 Q10.05 11.8 10.05 10.75 10.35 10.25 11.25 10.25 L12.0 11.0 M-8.3 -99.75 L-8.0 -99.75 -7.15 -99.55 -6.85 -99.1 Q-6.75 -99.8 -6.75 -98.55 -6.75 -98.3 -8.9 -97.55 -12.05 -96.45 -14.5 -95.15 -23.85 -90.25 -31.0 -79.5 L-33.35 -79.25 -33.6 -80.55 Q-33.6 -82.6 -23.75 -90.9 -16.5 -97.0 -11.75 -98.9 -12.35 -99.45 -12.6 -100.5 -12.6 -102.1 -10.75 -102.1 -8.6 -102.1 -8.3 -99.75 M-27.1 -93.65 Q-27.1 -91.85 -28.85 -91.85 -29.95 -91.85 -31.0 -92.35 L-31.1 -93.5 Q-31.1 -95.1 -29.5 -95.1 L-27.35 -94.85 Q-27.1 -94.9 -27.1 -93.65 M-37.5 -77.6 L-36.7 -77.45 Q-36.35 -77.35 -36.35 -76.6 -36.35 -76.4 -38.0 -74.75 L-39.1 -75.35 -39.25 -76.1 Q-39.25 -76.6 -38.5 -77.2 -37.75 -77.8 -37.5 -77.6 M-27.35 -62.15 L-27.5 -61.6 -28.55 -61.25 -29.35 -61.6 -29.35 -62.6 -27.5 -62.75 Q-27.35 -63.4 -27.35 -62.15 M-22.75 -65.25 Q-21.65 -66.75 -20.5 -67.1 -19.35 -66.65 -19.35 -65.9 -19.35 -65.55 -19.9 -65.0 -20.6 -64.3 -21.5 -64.25 -22.5 -64.6 -22.75 -65.25 M-33.6 -71.25 L-33.85 -72.0 -33.6 -72.85 -33.0 -72.85 Q-31.9 -72.5 -31.75 -71.85 L-32.5 -71.1 -33.6 -71.25 M-32.1 -66.35 L-32.95 -66.3 -33.1 -67.05 Q-33.1 -68.6 -31.85 -68.6 L-31.35 -67.5 -32.1 -66.35 M-46.1 -30.6 Q-45.95 -31.1 -44.75 -31.6 L-43.6 -31.35 -43.35 -29.85 Q-43.9 -29.1 -44.5 -28.85 -45.55 -29.6 -46.1 -30.6 M-47.5 -26.0 Q-46.4 -25.35 -46.0 -24.5 L-46.5 -23.5 Q-48.3 -24.35 -48.5 -25.1 -48.25 -25.75 -47.5 -26.0 M-36.3 -32.8 Q-36.1 -32.8 -36.1 -32.05 L-36.25 -31.5 -36.6 -31.1 -37.55 -31.15 Q-37.85 -31.2 -37.85 -32.0 L-37.6 -32.85 -37.0 -32.85 -36.3 -32.8" fill="#ffffff" fill-rule="evenodd" stroke="none"/>
  </g>
</svg>
