<?xml version="1.0" encoding="UTF-8" standalone="no"?>
<svg xmlns:ffdec="https://www.free-decompiler.com/flash" xmlns:xlink="http://www.w3.org/1999/xlink" ffdec:objectType="shape" height="114.15px" width="70.35px" xmlns="http://www.w3.org/2000/svg">
  <g transform="matrix(1.0, 0.0, 0.0, 1.0, 38.35, 101.75)">
    <path d="M23.75 -76.6 Q24.25 -76.0 24.25 -74.75 23.75 -74.35 23.05 -74.35 22.55 -75.0 22.55 -75.85 22.55 -76.65 22.9 -76.7 L23.75 -76.6 M8.55 -75.1 Q10.55 -75.1 11.0 -74.5 L9.3 -73.5 Q7.25 -73.25 7.35 -73.9 L7.5 -75.1 8.55 -75.1 M31.55 -65.75 L31.25 -65.75 Q31.0 -66.2 31.0 -67.25 L31.05 -68.35 31.55 -68.35 Q32.0 -68.0 32.0 -67.25 32.0 -66.4 31.55 -65.75 M30.55 -70.0 L29.55 -72.6 30.05 -72.75 Q31.35 -71.8 31.55 -70.5 31.5 -70.1 30.55 -70.0 M23.55 10.25 Q23.85 10.6 23.75 12.05 L23.25 12.25 Q23.0 12.75 23.0 11.5 L23.05 10.25 23.55 10.25 M15.25 6.5 Q16.05 7.3 16.05 8.5 L16.0 9.8 15.05 10.0 Q14.8 8.05 14.3 7.0 14.5 6.5 15.25 6.5 M-2.25 -100.85 L-3.25 -100.95 Q-4.1 -101.2 -4.35 -101.5 L-4.25 -101.75 -3.75 -101.75 Q-2.45 -101.75 -2.25 -100.85 M-13.5 -98.25 Q-12.9 -98.25 -12.35 -97.75 L-12.25 -97.35 -12.6 -96.75 -15.25 -97.35 Q-15.25 -98.25 -13.5 -98.25 M-22.25 -92.8 L-23.35 -93.0 -23.6 -94.0 -23.0 -94.1 Q-22.0 -94.75 -22.0 -93.5 -22.0 -92.75 -22.25 -92.8 M-32.75 -85.35 Q-32.75 -85.8 -32.2 -86.2 -31.5 -86.75 -30.5 -86.5 -31.1 -86.15 -31.15 -85.35 -31.25 -84.6 -32.0 -84.35 L-32.6 -84.6 -32.75 -85.35 M-26.75 -54.85 L-27.6 -53.75 -28.5 -53.75 Q-28.75 -53.8 -28.75 -54.6 -28.75 -55.5 -27.25 -56.0 -26.95 -55.7 -26.75 -54.85 M-0.25 -72.1 L0.25 -71.35 Q-1.8 -69.8 -6.15 -67.25 -10.7 -64.6 -11.5 -64.6 -14.35 -64.6 -13.85 -66.9 -13.85 -68.85 -12.75 -69.0 L-9.4 -68.75 Q-8.4 -68.75 -5.0 -70.4 -1.6 -72.1 -0.25 -72.1 M-23.5 -15.85 Q-23.5 -14.6 -25.0 -14.1 L-25.5 -14.35 -23.85 -16.6 Q-23.5 -17.1 -23.5 -15.85 M-37.1 -25.25 L-37.75 -24.6 -38.35 -24.75 -37.35 -26.75 Q-37.1 -26.35 -37.1 -25.25" fill="#ffffff" fill-rule="evenodd" stroke="none"/>
  </g>
</svg>
