<?xml version="1.0" encoding="UTF-8" standalone="no"?>
<svg xmlns:ffdec="https://www.free-decompiler.com/flash" xmlns:xlink="http://www.w3.org/1999/xlink" ffdec:objectType="shape" height="96.6px" width="75.2px" xmlns="http://www.w3.org/2000/svg">
  <g transform="matrix(1.0, 0.0, 0.0, 1.0, 45.0, 89.1)">
    <path d="M16.0 -69.0 L15.05 -69.1 15.0 -69.85 15.05 -70.75 15.55 -70.75 Q16.05 -70.35 16.5 -70.0 L16.0 -69.0 M30.05 -68.35 L29.75 -68.35 29.75 -70.6 30.05 -70.6 Q30.35 -69.45 30.05 -68.35 M16.3 5.5 Q16.3 6.75 16.0 6.8 15.65 6.8 15.5 7.5 L14.05 7.3 14.0 6.15 15.25 3.8 Q16.3 4.75 16.3 5.5 M-25.75 -89.1 Q-25.0 -89.1 -24.85 -88.5 L-24.75 -87.6 Q-24.85 -87.25 -25.1 -86.85 -26.75 -87.95 -26.75 -88.75 -26.4 -89.1 -25.75 -89.1 M-2.35 -66.1 Q-1.35 -65.85 -1.35 -64.6 -1.35 -63.85 -1.5 -63.9 L-2.0 -64.0 -2.8 -64.0 Q-3.0 -64.05 -3.0 -64.85 -3.0 -65.95 -2.35 -66.1 M-40.6 -51.0 L-39.25 -51.1 -38.75 -48.85 -39.1 -48.25 -40.5 -48.35 Q-40.5 -48.75 -40.85 -49.65 L-40.6 -51.0 M-42.85 -28.25 L-42.5 -27.5 Q-42.75 -26.5 -44.0 -26.5 L-45.0 -27.1 Q-45.0 -27.75 -43.75 -28.5 L-42.85 -28.25" fill="#ffffff" fill-rule="evenodd" stroke="none"/>
  </g>
</svg>
