<?xml version="1.0" encoding="UTF-8" standalone="no"?>
<svg xmlns:ffdec="https://www.free-decompiler.com/flash" xmlns:xlink="http://www.w3.org/1999/xlink" ffdec:objectType="shape" height="150.05px" width="182.75px" xmlns="http://www.w3.org/2000/svg">
  <g transform="matrix(1.0, 0.0, 0.0, 1.0, 75.5, 66.75)">
    <path d="M27.5 -56.65 L23.65 -53.3 Q18.0 -48.65 18.0 -41.05 18.0 -39.65 15.05 -33.15 L12.65 -27.5 12.05 -25.65 12.05 -25.5 15.8 -17.8 Q19.5 -9.9 19.5 -2.8 L22.3 11.9 22.05 14.85 24.0 14.5 Q28.25 14.5 32.55 23.7 34.7 28.3 36.0 33.0 36.0 36.7 33.4 40.25 34.9 40.9 36.0 42.0 38.0 44.0 38.0 46.5 38.0 50.05 35.5 51.3 32.1 53.0 21.4 53.0 17.65 53.0 15.35 51.9 8.5 54.05 0.25 54.45 -0.2 56.8 -5.15 62.05 -11.05 68.3 -14.75 68.3 -19.8 68.3 -21.4 65.25 -22.0 64.1 -22.0 61.85 -22.0 58.95 -18.3 54.0 -14.0 48.35 -8.2 47.6 -6.8 44.0 0.2 40.8 L7.25 37.4 Q11.0 35.2 12.5 32.55 13.45 28.95 14.5 26.0 L10.9 28.7 Q-6.05 39.15 -17.25 48.0 -25.6 54.6 -33.8 70.25 L-38.9 79.5 Q-41.4 83.3 -43.5 83.3 -46.6 83.3 -49.0 79.85 L-67.5 80.75 Q-75.5 80.75 -75.5 75.0 -75.5 71.8 -72.55 70.4 -68.1 68.3 -55.25 68.25 -51.55 54.2 -40.15 35.8 -26.5 13.8 -16.3 13.8 -14.8 13.8 -11.6 2.55 L-5.0 -22.2 Q3.4 -52.55 10.05 -57.35 16.35 -66.75 23.75 -66.75 29.1 -66.75 29.25 -61.3 29.25 -58.65 27.5 -56.65 M30.55 -42.65 Q35.65 -55.0 46.5 -55.0 54.1 -55.0 57.05 -44.15 58.55 -38.65 58.5 -32.85 57.45 -26.9 55.85 -22.85 L57.3 -20.75 Q59.85 -16.75 61.3 -12.5 61.3 -6.95 55.05 -2.75 49.0 1.3 41.5 1.3 36.5 1.3 30.85 -1.0 24.05 -3.75 24.05 -7.5 28.45 -14.3 32.35 -18.9 31.0 -20.1 30.0 -21.6 27.55 -25.25 27.55 -29.3 27.55 -35.35 30.55 -42.65 M104.8 48.5 Q101.9 51.3 97.0 51.3 81.6 51.3 76.25 48.05 72.0 45.45 72.0 38.8 70.75 34.25 70.75 33.0 70.75 30.75 72.1 29.05 73.9 26.75 77.5 26.75 84.95 26.75 96.5 33.8 107.25 40.4 107.25 43.0 107.25 46.1 104.8 48.5" fill="url(#gradient0)" fill-rule="evenodd" stroke="none"/>
  </g>
  <defs>
    <radialGradient cx="0" cy="0" gradientTransform="matrix(0.1361, 0.0, 0.0, 0.1361, 31.0, 43.5)" gradientUnits="userSpaceOnUse" id="gradient0" r="819.2" spreadMethod="pad">
      <stop offset="0.0" stop-color="#a9e1ef" stop-opacity="0.56078434"/>
      <stop offset="1.0" stop-color="#5ac0bf" stop-opacity="0.0"/>
    </radialGradient>
  </defs>
</svg>
