<?xml version="1.0" encoding="UTF-8" standalone="no"?>
<svg xmlns:ffdec="https://www.free-decompiler.com/flash" xmlns:xlink="http://www.w3.org/1999/xlink" ffdec:objectType="shape" height="10.25px" width="21.5px" xmlns="http://www.w3.org/2000/svg">
  <g transform="matrix(1.0, 0.0, 0.0, 1.0, 10.75, 5.15)">
    <path d="M8.5 -5.15 Q9.6 -5.15 10.2 -3.95 L10.75 -3.3 10.45 -2.5 Q10.25 -1.55 9.35 -1.6 L3.55 -2.05 Q2.8 -2.05 1.8 -1.35 L1.65 -1.25 Q1.6 0.2 0.0 0.2 -1.6 0.2 -1.8 -0.75 L-2.45 -0.9 Q-6.25 0.85 -7.75 0.85 L-8.2 0.85 -9.0 1.6 Q-10.6 1.6 -10.65 0.7 L-10.75 0.3 Q-10.75 -1.05 -9.7 -1.4 -9.15 -2.05 -8.65 -2.05 -7.55 -2.05 -7.3 -1.1 -3.25 -3.3 -2.0 -3.3 -1.0 -3.3 -0.35 -2.55 L0.25 -3.0 0.25 -3.05 Q0.9 -3.95 2.6 -4.25 L6.95 -4.4 Q7.3 -4.4 8.5 -5.15 M1.25 5.1 Q-3.85 5.1 -2.9 3.4 -2.9 2.2 -2.0 2.25 L1.75 2.6 Q3.3 2.6 4.25 1.45 5.4 1.45 5.4 2.6 5.4 5.1 1.25 5.1" fill="#1a161d" fill-rule="evenodd" stroke="none"/>
  </g>
</svg>
