<?xml version="1.0" encoding="UTF-8" standalone="no"?>
<svg xmlns:ffdec="https://www.free-decompiler.com/flash" xmlns:xlink="http://www.w3.org/1999/xlink" ffdec:objectType="shape" height="229.2px" width="226.85px" xmlns="http://www.w3.org/2000/svg">
  <g transform="matrix(1.0, 0.0, 0.0, 1.0, 110.6, 128.5)">
    <path d="M17.5 -128.5 L17.65 -128.4 Q19.05 -126.9 33.6 -101.95 L34.0 -101.25 33.95 -100.75 32.95 -97.7 Q39.1 -97.15 46.0 -94.95 51.75 -93.1 54.7 -91.05 55.1 -91.5 56.0 -91.5 L58.55 -90.1 57.05 -90.0 Q56.8 -90.65 56.8 -89.4 56.8 -88.25 60.6 -85.9 L66.35 -82.45 66.45 -82.6 66.95 -82.1 69.05 -80.9 Q81.15 -73.4 81.25 -67.55 L81.65 -67.0 Q81.95 -67.85 83.25 -67.85 85.15 -67.85 86.8 -55.6 L86.6 -53.6 Q88.55 -50.25 92.55 -41.35 97.35 -30.65 100.3 -22.6 102.85 -20.7 106.55 -11.85 L107.9 -8.5 Q110.75 -1.25 112.8 6.3 116.25 19.15 116.25 35.35 116.25 44.9 114.25 58.0 112.55 69.05 110.45 75.75 L109.25 79.0 108.5 79.25 Q107.25 78.0 107.25 77.6 L107.6 75.55 95.75 74.75 95.75 74.8 95.0 75.25 92.8 75.25 Q92.6 75.15 92.6 74.5 L92.55 73.85 Q93.5 69.5 93.5 68.25 93.5 51.85 84.05 35.3 74.55 21.6 74.55 19.35 74.55 16.05 76.05 7.3 76.7 3.45 77.3 1.0 75.5 -2.4 71.15 -5.7 68.65 -7.5 66.1 -9.35 63.8 -11.15 63.8 -12.35 L63.8 -12.55 Q59.45 -16.9 58.55 -18.3 L58.4 -18.4 56.8 -19.7 56.0 -19.7 Q53.7 -19.7 51.7 -21.6 L48.45 -17.25 43.25 -5.2 44.4 -2.55 45.45 0.05 46.75 1.55 46.0 1.5 46.1 1.8 46.85 3.8 50.25 8.1 Q52.25 10.75 52.25 13.6 L52.0 15.95 54.0 19.6 Q57.05 25.05 57.05 26.05 57.05 27.55 54.65 34.2 56.3 37.85 56.3 39.95 L55.8 46.35 53.25 52.9 53.5 53.5 Q51.55 66.05 49.4 74.25 50.7 74.3 50.8 74.95 50.95 76.2 51.55 76.8 L51.4 77.7 48.8 77.3 48.55 77.4 46.25 83.75 Q47.5 82.8 47.5 81.25 L48.5 81.0 52.75 81.55 Q52.75 82.0 53.05 82.85 53.05 84.25 51.25 84.95 L45.0 86.1 Q42.85 89.75 40.5 89.75 36.35 88.3 35.3 88.3 32.65 89.75 31.5 89.75 29.35 89.75 28.0 88.55 28.3 90.3 27.05 90.3 L19.25 90.3 Q9.3 104.85 -2.55 99.0 -8.65 96.0 -12.7 90.0 -17.05 89.9 -22.7 89.95 -30.7 90.05 -32.25 88.5 -32.35 89.25 -33.6 90.3 L-37.45 89.85 Q-32.9 93.85 -31.35 95.5 L-31.25 96.15 Q-31.25 96.55 -32.0 96.55 -33.5 96.55 -44.05 89.2 L-43.75 89.75 -43.75 90.3 -45.4 88.2 -55.1 81.25 -54.85 80.4 Q-54.6 79.8 -53.75 79.8 -51.35 81.1 -49.8 81.7 L-50.65 80.3 Q-54.2 76.65 -54.35 74.55 L-54.0 74.35 Q-58.55 66.0 -64.1 54.15 L-69.5 42.4 Q-75.75 31.8 -75.75 27.9 L-75.65 26.95 -75.85 25.85 Q-75.85 23.85 -75.15 23.05 L-74.0 22.1 Q-84.3 21.0 -91.5 14.8 -96.65 10.4 -98.65 4.75 L-103.3 2.6 Q-107.4 0.15 -108.25 -3.25 L-110.6 -13.85 Q-110.6 -19.65 -95.05 -40.45 L-95.1 -41.35 -90.55 -47.0 -83.85 -55.35 Q-83.7 -56.95 -82.25 -57.25 L-82.1 -57.45 -82.45 -58.15 Q-83.75 -59.35 -83.75 -59.9 -83.75 -61.75 -82.0 -61.75 L-80.95 -61.4 -77.55 -65.9 Q-72.2 -72.45 -65.5 -79.1 -47.05 -97.35 -37.5 -97.35 -35.5 -97.35 -32.05 -96.4 L-29.75 -95.75 Q-29.05 -97.1 -27.0 -97.1 L-24.15 -96.6 -21.7 -97.2 -21.75 -97.75 -21.75 -97.95 Q-21.6 -99.8 -19.0 -104.25 -15.75 -109.75 -11.1 -114.65 -8.15 -117.8 -5.05 -120.2 4.6 -127.8 15.45 -128.45 L17.5 -128.5 M49.4 -90.15 Q57.0 -83.0 61.4 -81.5 56.5 -85.75 55.0 -88.1 L49.4 -90.15 M31.95 -94.95 L34.85 -94.7 35.7 -94.6 33.0 -95.1 32.0 -95.0 31.95 -94.95 M82.25 -63.8 L82.35 -63.6 82.25 -64.0 82.25 -63.8 M81.8 -60.1 L81.75 -59.4 Q81.75 -58.0 83.25 -54.4 L83.3 -55.35 84.0 -55.35 84.05 -55.5 Q84.05 -57.3 82.8 -62.1 L82.0 -60.95 81.8 -60.1 M103.75 -7.3 L103.1 -8.85 103.0 -7.05 103.75 -7.3 M52.55 21.9 L52.7 22.8 53.1 22.85 52.55 21.9 M53.25 45.1 L53.05 44.65 52.7 47.0 Q53.25 45.75 53.25 45.1 M4.4 31.85 Q3.75 30.75 2.0 30.75 0.8 30.75 -0.05 31.8 L0.3 32.35 1.7 34.4 2.0 34.05 3.5 35.5 Q3.5 37.9 2.35 44.1 L1.7 47.3 Q2.75 47.65 2.75 48.6 2.75 49.1 0.55 51.45 L1.4 53.35 Q3.25 55.35 4.5 59.5 L4.5 60.05 5.2 59.8 Q5.8 57.15 7.25 53.4 L7.3 51.0 Q7.3 49.9 8.75 47.85 L8.55 46.8 4.25 39.85 Q4.0 37.45 4.05 35.5 4.05 33.35 4.4 31.85 M-52.65 -26.35 L-53.75 -24.9 Q-54.55 -24.15 -56.3 -23.2 L-59.5 -20.8 -53.95 -18.55 Q-43.3 -14.75 -33.8 -6.6 L-33.8 -6.75 Q-35.1 -7.95 -35.0 -9.45 L-34.4 -9.8 -34.35 -9.9 -34.5 -12.05 -48.85 -26.1 -50.85 -28.1 -52.65 -26.35 M-57.75 61.5 L-58.85 59.05 -59.3 58.35 -57.75 61.5" fill="url(#gradient0)" fill-rule="evenodd" stroke="none"/>
  </g>
  <defs>
    <radialGradient cx="0" cy="0" gradientTransform="matrix(0.1727, 0.0, 0.0, 0.1727, 3.0, 10.0)" gradientUnits="userSpaceOnUse" id="gradient0" r="819.2" spreadMethod="pad">
      <stop offset="0.5254901960784314" stop-color="#ffcc00" stop-opacity="0.0"/>
      <stop offset="1.0" stop-color="#ff9900"/>
    </radialGradient>
  </defs>
</svg>
