<?xml version="1.0" encoding="UTF-8" standalone="no"?>
<svg xmlns:ffdec="https://www.free-decompiler.com/flash" xmlns:xlink="http://www.w3.org/1999/xlink" ffdec:objectType="shape" height="229.2px" width="226.85px" xmlns="http://www.w3.org/2000/svg">
  <g transform="matrix(1.0, 0.0, 0.0, 1.0, 110.6, 128.5)">
    <path d="M-20.95 30.4 L-21.45 30.35 -20.8 29.6 -20.45 29.85 -20.95 30.4 M-18.8 41.0 L-18.85 41.05 -18.85 41.0 -18.8 41.0" fill="#006699" fill-rule="evenodd" stroke="none"/>
    <path d="M59.2 -17.95 L82.85 -44.8 82.75 -45.5 Q82.75 -46.8 83.5 -48.45 84.15 -49.85 85.05 -50.4 L87.0 -46.45 Q89.6 -41.25 92.5 -36.0 95.8 -26.55 98.0 -21.45 100.6 -15.4 103.2 -13.2 L102.6 -1.25 Q101.85 9.85 91.45 6.9 81.0 3.95 82.4 2.9 79.0 -4.3 71.15 -10.05 63.2 -15.8 59.2 -17.95" fill="url(#gradient0)" fill-rule="evenodd" stroke="none"/>
    <path d="M-89.75 -46.35 Q-86.85 -49.95 -84.2 -52.1 L-93.2 -39.95 -101.15 -28.5 -97.75 -34.6 -94.8 -39.35 Q-92.2 -43.4 -89.75 -46.35 M-78.45 -55.15 L-76.75 -55.35 Q-71.5 -55.35 -61.1 -45.0 L-51.75 -34.55 Q-51.75 -33.65 -52.1 -32.6 -55.55 -36.5 -62.6 -45.1 L-73.7 -52.05 -78.45 -55.15 M-51.85 -30.25 L-51.9 -29.05 Q-52.2 -26.45 -53.75 -24.9 -55.0 -23.7 -58.55 -22.15 L-61.6 -20.65 Q-46.6 -17.6 -33.8 -6.6 L-29.05 -2.2 Q-24.4 2.45 -20.1 8.25 L-20.5 8.3 Q-22.8 8.3 -32.5 -0.8 -43.35 -10.95 -45.1 -11.95 -48.15 -13.7 -64.35 -17.6 -78.1 -20.9 -78.1 -23.05 L-78.0 -23.6 -77.8 -23.95 -77.0 -24.1 Q-70.2 -24.1 -62.65 -21.8 L-61.55 -22.5 -61.1 -22.1 Q-58.45 -22.1 -54.7 -26.75 L-51.85 -30.25 M-89.1 13.5 L-90.6 12.25 Q-93.3 9.85 -94.85 6.95 -96.1 4.75 -96.1 3.6 L-96.05 3.1 -97.5 3.0 Q-103.35 3.0 -105.75 -2.0 -106.85 -4.35 -106.95 -6.8 -105.95 -4.3 -104.05 -2.05 L-99.4 2.25 Q-100.0 -0.35 -100.0 -3.15 L-99.85 -4.2 Q-100.25 -4.45 -99.0 -4.45 -97.15 -4.45 -95.8 -0.7 L-92.9 7.55 Q-91.4 11.0 -89.1 13.5 M-108.3 -12.85 L-108.35 -12.95 -108.3 -13.05 -108.3 -12.85 M1.25 22.65 L1.75 23.25 Q-0.9 29.3 -3.6 33.4 L-6.4 34.25 -4.25 31.85 -3.5 30.8 Q-4.0 29.7 -4.0 28.8 -4.25 28.5 -3.0 28.5 L-2.05 28.45 -0.7 25.95 1.25 22.65 M-27.15 34.5 L-28.0 34.55 Q-32.15 34.55 -31.85 31.0 -31.85 29.7 -30.1 27.8 -28.9 26.5 -27.5 25.95 L-26.75 24.15 -26.6 24.55 Q-25.95 26.55 -25.75 28.0 L-26.5 28.55 -27.0 29.45 -26.4 29.8 Q-24.45 29.0 -21.0 29.0 -20.3 29.0 -19.85 29.85 L-19.75 29.55 -18.5 29.5 -17.1 29.75 -17.0 30.8 -16.85 30.8 -16.7 30.6 Q-16.6 30.55 -16.6 31.35 -16.6 32.0 -16.95 32.15 L-17.0 32.2 -17.0 32.5 -17.1 37.25 -17.6 37.8 -17.85 37.6 -17.35 35.35 Q-17.15 30.85 -20.95 30.4 L-20.45 29.85 -20.8 29.6 -21.45 30.35 -22.0 30.3 Q-23.3 30.3 -27.15 34.5 M-27.4 22.7 L-29.05 22.25 -28.25 22.0 Q-27.85 22.0 -27.4 22.7 M-0.1 21.1 Q-2.9 19.45 -7.45 13.75 L-11.1 11.8 Q-15.15 9.6 -17.8 8.35 L-19.0 9.05 Q-19.2 9.6 -19.25 8.9 -16.7 6.3 -13.75 6.3 L-0.1 21.1 M-29.25 22.15 Q-30.9 21.55 -32.65 20.3 -36.15 17.75 -43.3 17.75 L-57.9 18.5 -66.3 19.2 -56.85 17.8 Q-47.6 16.05 -43.5 16.05 -35.75 16.05 -29.25 22.15 M-16.05 39.3 L-18.8 41.0 -18.85 41.0 -18.45 39.9 -16.05 39.3" fill="url(#gradient1)" fill-rule="evenodd" stroke="none"/>
    <path d="M-29.05 -2.2 L-28.0 -2.65 Q-25.95 -3.45 -24.25 -3.45 -20.65 -3.45 -12.5 -0.25 L-12.0 -0.25 Q-10.05 -0.25 -4.4 1.15 1.25 2.5 5.0 2.5 L23.25 1.55 33.75 2.05 39.25 1.0 Q42.5 1.0 43.3 2.9 L46.1 1.8 50.05 12.8 Q51.75 16.85 52.7 22.8 55.9 23.15 56.25 27.05 56.25 28.1 55.5 29.3 54.75 30.55 53.55 31.0 L53.75 39.05 Q53.75 40.5 52.25 49.55 52.25 50.8 53.5 53.5 47.85 89.75 40.5 89.75 36.35 88.3 35.3 88.3 32.65 89.75 31.5 89.75 29.35 89.75 28.0 88.55 28.3 90.3 27.05 90.3 L19.25 90.3 Q9.3 104.85 -2.55 99.0 -8.65 96.0 -12.7 90.0 -17.05 89.9 -22.7 89.95 -30.7 90.05 -32.25 88.5 -32.35 89.25 -33.6 90.3 -43.95 90.3 -50.8 77.85 -52.85 74.05 -55.4 67.5 -58.05 60.65 -58.85 59.05 L-67.8 45.2 Q-75.75 32.3 -75.75 27.9 -75.75 23.8 -70.5 20.05 L-69.55 19.45 -66.3 19.2 -57.9 18.5 -43.3 17.75 Q-36.15 17.75 -32.65 20.3 -30.9 21.55 -29.25 22.15 L-29.1 22.3 -29.05 22.25 -27.4 22.7 -26.75 24.15 -27.5 25.95 Q-28.9 26.5 -30.1 27.8 -31.85 29.7 -31.85 31.0 -32.15 34.55 -28.0 34.55 L-27.15 34.5 -27.35 34.75 -27.5 34.75 Q-33.0 34.75 -33.0 40.05 L-33.0 41.55 Q-40.35 50.8 -40.35 52.75 L-39.5 56.2 Q-37.7 59.5 -33.0 59.5 L-32.65 59.5 Q-27.15 67.0 -22.0 67.0 -10.6 67.0 -1.35 49.35 L-1.25 52.05 Q-0.4 56.25 1.5 58.1 1.5 60.05 4.5 60.05 5.05 60.05 5.55 59.5 7.7 59.25 8.75 57.35 9.5 56.0 9.5 54.75 9.25 49.65 8.45 46.4 L8.75 42.25 Q4.0 41.85 4.25 36.75 4.25 35.0 4.8 33.85 4.95 30.75 2.0 30.75 0.4 30.75 -0.6 32.55 L-0.7 32.75 Q0.9 33.2 1.6 34.6 0.15 33.3 -2.5 33.3 L-3.6 33.4 Q-0.9 29.3 1.75 23.25 L1.25 22.65 1.85 21.8 Q1.0 21.8 -0.1 21.1 L-13.75 6.3 Q-16.7 6.3 -19.25 8.9 L-19.25 8.5 -18.95 7.8 -19.45 7.6 -19.5 7.65 -20.1 8.25 Q-24.4 2.45 -29.05 -2.2 M-29.05 22.35 L-29.1 22.3 -29.05 22.35" fill="url(#gradient2)" fill-rule="evenodd" stroke="none"/>
    <path d="M-90.55 -47.0 L-89.75 -46.35 Q-92.2 -43.4 -94.8 -39.35 L-95.1 -41.35 -90.55 -47.0" fill="url(#gradient3)" fill-rule="evenodd" stroke="none"/>
    <path d="M-90.55 -47.0 Q-73.45 -68.3 -64.05 -79.0 L-64.0 -79.0 -56.7 -86.7 -55.35 -88.2 Q-53.2 -88.95 -49.1 -92.15 L-46.5 -94.25 Q-39.65 -96.5 -36.0 -97.2 L-35.5 -96.5 Q-33.45 -94.1 -27.5 -94.1 -23.6 -94.1 -17.15 -95.75 L-17.0 -95.75 Q-15.8 -95.05 -13.85 -94.2 -7.75 -91.6 -0.55 -91.6 3.8 -91.6 10.9 -93.35 18.05 -95.1 28.65 -95.1 37.15 -95.1 47.4 -92.05 L48.5 -91.0 Q58.85 -81.1 63.5 -81.1 65.4 -81.1 66.45 -82.6 L70.0 -78.85 79.4 -68.0 Q81.8 -64.95 83.05 -62.25 81.75 -61.5 81.75 -59.4 81.75 -57.35 85.05 -50.4 84.15 -49.85 83.5 -48.45 82.75 -46.8 82.75 -45.5 L82.85 -44.8 59.2 -17.95 58.4 -18.4 52.9 -23.0 52.85 -23.05 52.0 -22.05 48.45 -17.25 43.25 -5.2 44.4 -2.55 46.1 1.8 43.3 2.9 Q42.5 1.0 39.25 1.0 L33.75 2.05 23.25 1.55 5.0 2.5 Q1.25 2.5 -4.4 1.15 -10.05 -0.25 -12.0 -0.25 L-12.5 -0.25 Q-20.65 -3.45 -24.25 -3.45 -25.95 -3.45 -28.0 -2.65 L-29.05 -2.2 -33.8 -6.6 -34.1 -8.05 -34.5 -12.05 -48.85 -26.1 -51.9 -29.05 -51.85 -30.25 -50.95 -31.35 -52.1 -32.6 Q-51.75 -33.65 -51.75 -34.55 L-61.1 -45.0 Q-71.5 -55.35 -76.75 -55.35 L-78.45 -55.15 -80.65 -56.7 -84.2 -52.1 Q-86.85 -49.95 -89.75 -46.35 L-90.55 -47.0 M31.75 -83.0 Q28.3 -83.0 28.3 -80.25 L31.75 -83.0" fill="url(#gradient4)" fill-rule="evenodd" stroke="none"/>
    <path d="M-3.6 33.4 L-2.5 33.3 Q0.15 33.3 1.6 34.6 3.25 36.1 3.05 39.5 L-1.35 49.35 Q-10.6 67.0 -22.0 67.0 -27.15 67.0 -32.65 59.5 L-33.0 59.5 Q-37.7 59.5 -39.5 56.2 L-40.35 52.75 Q-40.35 50.8 -33.0 41.55 L-33.0 40.05 Q-33.0 34.75 -27.5 34.75 L-27.35 34.75 -27.15 34.5 Q-23.3 30.3 -22.0 30.3 L-21.45 30.35 -20.95 30.4 Q-17.15 30.85 -17.35 35.35 L-17.85 37.6 -18.75 36.5 -18.8 39.95 -18.45 39.9 -18.85 41.0 -18.85 41.05 -18.8 41.0 -16.05 39.3 Q-10.2 37.7 -6.4 34.25 L-3.6 33.4" fill="url(#gradient5)" fill-rule="evenodd" stroke="none"/>
    <path d="M-84.2 -52.1 L-80.65 -56.7 -78.45 -55.15 -73.7 -52.05 -62.6 -45.1 Q-55.55 -36.5 -52.1 -32.6 L-50.95 -31.35 -51.85 -30.25 -54.7 -26.75 Q-58.45 -22.1 -61.1 -22.1 L-61.55 -22.5 -62.65 -21.8 Q-70.2 -24.1 -77.0 -24.1 L-77.8 -23.95 -78.0 -23.6 -78.1 -23.05 Q-78.1 -20.9 -64.35 -17.6 -48.15 -13.7 -45.1 -11.95 -43.35 -10.95 -32.5 -0.8 -22.8 8.3 -20.5 8.3 L-20.1 8.25 -19.5 7.65 -19.45 7.6 -18.95 7.8 -19.25 8.5 -19.25 8.9 Q-19.2 9.6 -19.0 9.05 L-17.8 8.35 Q-15.15 9.6 -11.1 11.8 L-7.45 13.75 Q-2.9 19.45 -0.1 21.1 1.0 21.8 1.85 21.8 L1.25 22.65 -0.7 25.95 -2.05 28.45 -3.0 28.5 Q-4.25 28.5 -4.0 28.8 -4.0 29.7 -3.5 30.8 L-4.25 31.85 -6.4 34.25 Q-10.2 37.7 -16.05 39.3 L-18.45 39.9 -18.8 39.95 -18.75 36.5 -17.85 37.6 -17.6 37.8 -17.1 37.25 -17.0 32.5 -17.0 32.2 -16.95 32.15 Q-16.6 32.0 -16.6 31.35 -16.6 30.55 -16.7 30.6 L-16.85 30.8 -17.0 30.8 -17.1 29.75 -18.5 29.5 -19.75 29.55 -19.85 29.85 Q-20.3 29.0 -21.0 29.0 -24.45 29.0 -26.4 29.8 L-27.0 29.45 -26.5 28.55 -25.75 28.0 Q-25.95 26.55 -26.6 24.55 L-26.75 24.15 -27.4 22.7 Q-27.85 22.0 -28.25 22.0 L-29.05 22.25 -29.1 22.3 -29.25 22.15 Q-35.75 16.05 -43.5 16.05 -47.6 16.05 -56.85 17.8 L-66.3 19.2 -69.55 19.45 -73.5 19.55 Q-83.55 19.55 -89.1 13.5 -91.4 11.0 -92.9 7.55 L-95.8 -0.7 Q-97.15 -4.45 -99.0 -4.45 -100.25 -4.45 -99.85 -4.2 L-100.0 -3.15 Q-100.0 -0.35 -99.4 2.25 L-104.05 -2.05 Q-105.95 -4.3 -106.95 -6.8 -108.15 -9.65 -108.3 -12.85 L-108.3 -13.05 -108.35 -13.85 Q-108.35 -17.5 -101.15 -28.5 L-93.2 -39.95 -84.2 -52.1" fill="url(#gradient6)" fill-rule="evenodd" stroke="none"/>
    <path d="M57.05 -90.0 Q56.8 -90.65 56.8 -89.4 56.8 -88.25 60.6 -85.9 62.9 -84.45 69.05 -80.9 81.25 -73.35 81.25 -67.5 81.05 -67.15 81.0 -66.5 L81.0 -66.35 Q80.3 -66.35 80.3 -66.0 L65.95 -77.7 Q57.15 -84.75 55.0 -88.1 36.15 -95.1 33.0 -95.1 L16.6 -92.8 Q2.25 -90.5 -1.0 -90.5 -6.7 -90.5 -14.85 -92.4 -21.75 -94.05 -24.05 -93.75 L-24.15 -93.75 -29.0 -92.6 -30.3 -93.0 Q-28.4 -90.9 -24.25 -82.5 L-24.75 -82.35 Q-27.6 -87.95 -30.5 -91.25 -21.0 -69.05 -17.6 -60.5 L-17.75 -60.1 -25.8 -75.2 Q-30.95 -84.9 -35.25 -90.6 -31.4 -87.0 -28.1 -81.0 -24.7 -74.1 -22.75 -70.85 L-22.5 -70.85 Q-23.95 -74.3 -27.7 -82.25 -30.95 -89.4 -31.85 -93.55 -34.6 -94.5 -37.25 -94.5 -50.45 -94.5 -72.4 -68.45 -70.55 -67.9 -68.45 -66.75 L-68.25 -66.75 Q-66.65 -66.75 -65.1 -65.5 L-62.85 -63.35 -64.4 -64.05 Q-52.15 -54.9 -34.65 -28.95 L-33.75 -31.15 Q-35.75 -36.05 -36.25 -39.0 L-36.25 -41.6 Q-33.9 -39.15 -31.5 -35.8 L-31.25 -36.3 Q-27.75 -42.55 -23.5 -46.35 -22.6 -47.1 -22.6 -45.85 -22.6 -45.05 -25.2 -37.85 L-27.85 -30.25 -26.1 -27.2 -26.05 -27.15 -25.85 -26.8 -25.65 -26.4 Q-24.75 -27.65 -23.5 -28.35 -22.6 -27.3 -22.6 -25.9 -22.6 -25.1 -22.75 -24.35 -21.75 -24.35 -19.6 -18.5 -15.25 -20.65 -8.95 -22.75 1.2 -26.1 11.5 -28.0 14.25 -28.0 14.75 -27.35 L14.75 -27.25 Q8.7 -26.85 0.6 -24.35 3.0 -24.3 7.75 -21.8 L8.2 -21.75 8.5 -21.45 16.65 -16.4 Q25.15 -10.65 30.95 -5.75 32.65 -5.7 33.25 -5.25 32.35 -3.95 31.5 -3.35 L33.5 -3.5 Q34.05 -7.6 33.7 -17.55 33.95 -25.95 37.55 -28.25 37.8 -28.9 37.8 -27.65 37.0 -23.5 37.0 -22.25 37.0 -20.5 34.3 -2.35 L34.5 -2.25 34.5 -2.6 Q34.5 -3.4 35.45 -3.75 36.3 -6.4 37.55 -11.55 39.15 -18.15 41.05 -21.75 L41.55 -21.85 42.1 -21.7 Q42.3 -21.65 42.3 -20.9 38.05 -8.5 37.5 -6.5 L37.5 -4.0 37.6 -4.0 37.55 -4.9 Q37.55 -5.7 38.55 -5.9 L38.6 -6.05 Q39.3 -8.25 40.5 -9.5 40.85 -9.95 40.95 -9.45 45.25 -22.6 46.95 -27.0 43.35 -28.8 38.95 -31.45 31.0 -36.25 31.0 -38.3 L31.05 -38.85 Q31.8 -39.5 32.75 -39.5 38.25 -39.5 45.0 -35.15 51.4 -31.1 52.55 -27.6 L44.35 -33.4 Q37.1 -38.6 32.25 -38.25 34.45 -35.55 39.05 -32.55 43.5 -29.6 47.5 -28.3 L48.0 -29.25 Q49.15 -29.25 52.1 -25.75 54.95 -22.45 58.0 -22.85 L58.45 -22.4 59.0 -22.85 Q59.9 -23.5 60.75 -23.5 69.65 -23.5 83.4 -53.95 L83.25 -54.25 83.3 -55.35 84.0 -55.35 84.05 -55.5 Q84.05 -58.0 81.55 -66.35 81.55 -67.85 83.25 -67.85 85.15 -67.85 86.8 -55.6 L86.6 -53.6 Q88.55 -50.25 92.55 -41.35 98.95 -27.1 102.05 -17.5 101.9 -16.45 101.0 -16.45 99.3 -16.45 93.15 -31.0 L86.0 -47.9 Q79.8 -37.0 76.85 -31.3 71.55 -21.05 70.5 -14.25 L70.5 -14.0 Q72.65 -16.6 77.2 -24.0 81.5 -31.0 84.5 -34.35 L84.8 -33.25 Q82.05 -23.55 81.75 -21.75 L81.25 -21.85 Q81.9 -28.05 84.0 -32.35 L84.0 -32.75 Q81.8 -29.85 77.4 -22.7 73.4 -16.2 70.5 -12.75 69.55 -13.2 69.55 -13.9 69.55 -16.15 73.75 -26.5 72.0 -24.45 68.9 -19.4 L65.65 -14.2 Q69.5 -10.95 77.25 -5.5 76.55 -4.45 75.85 -4.45 71.95 -4.45 64.75 -11.6 L64.25 -12.1 64.05 -11.85 63.75 -11.85 64.05 -12.25 Q58.3 -18.05 58.3 -18.9 58.3 -19.6 58.7 -19.95 L58.45 -20.1 56.0 -19.7 Q53.4 -19.7 51.2 -22.1 L48.55 -25.5 Q48.05 -21.45 45.55 -15.05 L41.3 -4.75 40.55 -4.8 40.45 -3.75 42.0 -3.2 42.15 -3.4 42.25 -2.65 42.25 -2.6 44.0 -1.25 Q46.05 0.5 46.75 1.55 L45.8 1.3 45.25 1.5 Q47.25 4.55 50.25 8.1 52.25 10.75 52.25 13.6 L52.0 15.95 54.0 19.6 Q57.05 25.05 57.05 26.05 57.05 27.55 54.65 34.2 56.3 37.85 56.3 39.95 L55.8 46.35 Q55.8 47.0 50.85 58.5 48.35 64.3 46.75 68.85 L47.25 68.55 48.55 68.8 48.8 70.0 Q48.8 70.55 46.8 75.55 L49.25 74.25 Q50.7 74.25 50.8 74.95 50.95 76.2 51.55 76.8 L51.4 77.7 48.8 77.3 Q48.05 77.3 45.8 80.2 L42.5 84.3 Q40.55 83.05 40.55 82.75 40.55 80.5 42.65 75.75 42.25 75.25 42.25 74.75 42.25 65.6 47.75 55.55 L51.55 49.1 Q53.25 46.2 53.25 45.1 L53.1 44.7 40.2 45.4 29.8 45.1 29.3 46.15 51.05 47.0 51.15 46.8 51.25 47.55 Q51.25 48.35 47.85 48.25 L43.5 48.0 28.95 46.95 22.05 61.3 21.75 61.3 Q21.5 62.0 21.5 60.75 21.5 59.1 25.7 50.85 L27.8 46.75 26.8 46.55 Q24.75 49.3 22.6 52.9 L15.8 64.25 15.25 64.25 22.4 52.1 Q24.3 48.9 26.15 46.4 L24.8 46.05 22.15 45.05 Q19.25 50.5 18.5 52.1 15.2 59.25 14.5 64.3 L13.55 64.25 Q16.05 54.2 19.3 48.5 L19.5 48.05 13.25 56.25 13.05 54.85 13.1 54.05 11.6 51.7 10.0 56.3 Q7.85 62.05 6.4 64.25 L13.05 79.0 12.8 80.05 Q12.5 80.05 12.5 80.5 6.15 70.55 3.45 65.55 1.75 62.4 0.7 59.55 -0.4 56.65 -0.9 54.05 L-1.1 54.25 -2.15 54.1 -5.7 57.4 Q-12.35 63.5 -16.0 66.05 -14.05 67.05 -13.35 67.55 L-14.5 68.05 Q-22.0 68.05 -40.85 55.0 L-40.45 53.75 -39.35 51.8 Q-40.75 54.55 -30.25 59.3 -22.2 62.95 -17.9 65.1 L-2.65 51.15 Q-2.5 47.45 -1.7 43.45 -0.85 39.0 0.4 36.4 L-1.55 34.1 -3.2 31.45 -6.9 35.8 -4.0 33.8 Q-2.85 34.25 -2.85 35.0 -12.35 47.3 -16.6 47.3 -17.45 47.3 -17.85 46.8 -15.4 43.55 -12.65 40.8 -15.75 42.75 -18.5 42.75 L-18.85 42.75 -18.9 47.4 -17.9 48.3 -17.6 49.0 -17.85 49.8 -23.0 50.25 Q-26.05 50.25 -27.7 48.3 L-28.85 48.25 -28.95 46.2 -29.85 43.8 Q-30.25 43.55 -29.05 43.55 L-29.3 36.4 -29.95 35.7 -34.15 42.35 Q-39.2 49.95 -40.55 53.75 L-40.75 54.3 Q-40.9 54.95 -42.3 55.3 L-38.45 64.1 Q-44.0 57.9 -47.1 48.65 L-51.25 32.75 Q-52.15 33.4 -54.75 39.5 -56.45 42.55 -58.5 44.0 -57.5 44.8 -56.75 46.55 L-56.75 46.75 -59.0 44.5 -58.5 44.0 Q-60.35 45.3 -62.5 45.3 -63.9 45.3 -65.0 44.0 -65.85 42.9 -65.85 42.25 -65.85 40.8 -62.35 37.9 L-63.05 37.25 Q-63.6 36.55 -63.6 35.35 L-63.5 34.05 -62.75 34.05 -61.45 37.15 -60.8 36.65 Q-56.7 33.55 -52.5 31.25 -54.4 30.1 -57.4 26.6 -60.65 23.8 -66.35 24.3 L-66.5 24.35 -65.25 29.05 Q-66.15 28.3 -67.15 25.75 L-67.75 24.05 -68.1 22.25 -69.5 22.3 -69.8 22.3 Q-69.7 23.7 -70.35 23.2 L-71.5 22.25 -71.6 22.25 Q-74.35 22.3 -74.1 25.6 -74.1 28.8 -49.95 77.35 L-46.85 81.0 Q-46.3 81.55 -46.2 83.35 -46.15 84.05 -42.7 84.1 L-37.8 84.05 Q-38.9 82.85 -39.35 80.8 L-38.85 80.75 Q-38.15 80.75 -37.4 82.45 L-36.75 84.05 7.3 83.75 Q3.8 76.8 -1.35 58.5 -1.35 57.3 -0.25 57.3 L0.6 59.45 5.35 72.15 Q7.9 79.0 10.05 83.75 L20.35 83.75 37.4 85.15 42.65 84.95 Q47.5 84.25 47.5 81.25 L48.5 81.0 52.75 81.55 Q52.75 82.0 53.05 82.85 53.05 84.25 51.25 84.95 48.55 85.95 40.4 86.45 31.05 87.0 11.55 87.05 L11.75 87.65 Q11.75 88.05 11.0 88.05 10.25 88.05 9.35 87.05 -10.85 87.05 -41.35 86.5 -33.45 93.2 -31.35 95.5 L-31.25 96.15 Q-31.25 96.55 -32.0 96.55 -33.5 96.55 -44.05 89.2 L-43.75 89.75 -43.75 90.3 -45.4 88.2 -55.1 81.25 -54.85 80.4 Q-54.6 79.8 -53.75 79.8 -51.35 81.1 -49.8 81.7 L-50.65 80.3 Q-54.2 76.65 -54.35 74.55 L-54.0 74.35 Q-58.55 66.0 -64.1 54.15 -75.85 29.05 -75.85 25.85 -75.85 23.85 -75.15 23.05 L-74.0 22.1 Q-84.3 21.0 -91.5 14.8 -96.65 10.4 -98.65 4.75 L-103.3 2.6 Q-107.4 0.15 -108.25 -3.25 L-110.6 -13.85 Q-110.6 -21.7 -81.85 -57.3 -82.35 -57.6 -82.45 -58.15 -83.75 -59.35 -83.75 -59.9 -83.75 -61.75 -82.0 -61.75 L-80.95 -61.4 -77.55 -65.9 -75.45 -68.35 -76.75 -69.1 -76.25 -69.1 -74.9 -69.0 Q-70.6 -74.05 -65.5 -79.1 -47.05 -97.35 -37.5 -97.35 -35.5 -97.35 -32.05 -96.4 L-28.75 -95.5 -20.5 -97.5 -19.75 -97.35 Q-19.5 -97.3 -19.5 -96.5 L-19.65 -96.0 -14.85 -97.1 Q-14.85 -96.75 -15.35 -96.35 -13.75 -95.5 -11.4 -94.85 -8.55 -94.05 -4.95 -93.75 L-0.6 -93.6 Q10.8 -93.6 19.3 -95.75 L29.25 -97.85 Q37.0 -97.85 46.0 -94.95 51.75 -93.1 54.7 -91.05 55.1 -91.5 56.0 -91.5 L58.55 -90.1 57.05 -90.0 M74.0 -65.0 L72.3 -65.0 Q71.8 -65.6 71.8 -66.5 72.55 -67.1 73.25 -67.1 73.75 -67.1 74.5 -66.5 L74.55 -65.75 74.0 -65.0 M79.0 -58.8 Q79.0 -53.15 73.45 -43.7 67.8 -34.05 62.25 -30.75 L62.15 -30.55 Q62.05 -30.5 62.05 -31.3 62.05 -31.75 64.2 -33.6 67.25 -36.25 69.1 -38.35 76.5 -46.7 78.0 -58.35 L77.8 -58.75 Q69.6 -48.1 64.75 -44.0 L64.05 -44.1 64.0 -44.65 Q64.0 -46.1 65.3 -46.1 66.15 -46.1 70.65 -51.6 L78.55 -60.85 Q79.0 -60.1 79.0 -58.8 M13.75 -12.6 Q12.65 -13.3 11.05 -14.55 L10.8 -12.1 10.8 -12.0 10.0 -13.6 Q7.0 -12.3 4.15 -9.95 L22.3 -2.35 22.2 -2.45 22.1 -2.55 19.75 -5.35 20.0 -5.75 22.0 -3.45 22.0 -3.6 22.05 -4.7 23.0 -4.95 Q23.9 -4.95 25.55 -4.2 L25.7 -4.4 25.8 -3.65 25.75 -2.75 24.55 -2.6 22.8 -2.5 23.55 -1.6 Q18.2 -3.4 9.7 -6.7 L9.7 -6.5 Q9.55 -6.3 9.2 -6.2 L7.0 -6.0 0.85 -6.85 0.0 -6.05 Q6.4 -3.65 10.05 -4.0 L10.5 -3.0 Q9.85 -2.0 9.0 -2.0 L5.35 -2.1 Q4.95 -1.85 4.5 -1.85 L3.1 -2.3 -0.6 -2.75 -0.5 -2.5 Q-1.9 -1.1 -4.6 -1.45 L-6.25 -1.7 -6.5 -1.65 -6.65 -1.75 -7.7 -1.95 -8.55 -1.95 Q-8.8 -1.35 -9.25 -0.9 -3.3 0.8 4.35 0.8 L9.15 0.55 20.05 0.0 Q19.55 -0.85 19.55 -1.6 L23.3 -1.5 28.5 -1.6 Q28.3 -2.05 28.25 -2.85 27.45 -3.0 27.25 -3.25 27.75 -3.85 29.1 -4.85 L29.7 -5.25 7.85 -19.7 7.2 -18.8 13.8 -13.0 13.75 -12.6 M6.25 -19.85 L6.5 -20.25 5.95 -19.85 6.15 -19.7 6.25 -19.85 M5.25 -19.35 Q2.25 -17.15 -2.7 -12.8 L-0.55 -11.9 5.6 -19.1 5.25 -19.35 M5.0 -20.65 L5.6 -21.05 2.55 -22.75 5.0 -20.65 M0.0 -24.15 Q-4.15 -22.85 -8.8 -21.0 -14.15 -18.85 -18.2 -16.75 -17.1 -15.6 -17.1 -15.05 -17.1 -14.25 -18.0 -13.85 L-17.95 -13.65 -17.05 -10.9 -13.3 -14.3 -11.85 -15.5 -14.25 -16.5 -14.25 -16.6 -13.75 -16.6 Q-13.05 -16.6 -11.2 -16.0 -5.3 -20.5 1.25 -22.85 L1.5 -22.5 Q0.2 -19.65 -4.9 -14.6 L-5.55 -13.95 -4.35 -13.45 -3.25 -14.5 Q0.5 -17.8 4.3 -20.2 L0.05 -24.0 0.0 -24.15 M3.35 -14.0 L1.15 -11.2 2.35 -10.7 Q7.0 -15.25 8.5 -15.25 L10.5 -14.95 6.7 -18.15 3.35 -14.0 M2.5 -8.45 L6.85 -7.8 3.3 -9.2 2.5 -8.45 M0.45 -10.35 L-0.7 -8.9 0.4 -8.75 1.6 -9.9 0.45 -10.35 M32.65 -0.8 L32.5 -1.0 31.9 -0.75 32.65 -0.8 M65.4 -14.4 L75.0 -30.65 Q81.75 -42.3 85.95 -47.95 L85.35 -49.45 Q83.1 -43.95 77.5 -35.95 68.65 -23.2 61.2 -20.05 61.8 -19.65 61.8 -18.7 61.8 -17.55 65.4 -14.4 M41.0 0.55 L39.45 1.75 43.0 7.0 Q46.5 11.85 49.1 14.05 L49.75 13.45 49.75 13.05 Q49.75 11.4 45.45 4.9 L43.8 2.5 Q41.55 1.85 41.0 0.55 M48.8 16.5 L48.05 16.4 48.55 17.0 48.8 16.5 M45.0 15.55 L45.05 15.3 45.1 15.3 Q43.25 14.15 41.75 12.0 36.85 9.75 26.25 6.45 28.3 15.45 46.75 22.05 35.55 19.45 29.7 13.95 25.65 10.1 25.1 6.1 L22.55 5.3 22.55 4.3 19.75 4.05 Q19.5 4.1 19.4 3.75 L13.7 3.6 10.45 15.55 9.35 19.55 9.55 20.55 9.05 20.55 7.8 25.35 8.0 26.75 7.8 27.75 7.2 27.75 6.85 29.8 6.9 30.25 8.0 29.75 8.25 30.05 6.9 31.1 6.75 34.3 Q6.6 36.25 7.05 37.75 L10.95 21.55 Q12.8 14.3 15.25 9.2 L14.25 6.25 13.75 6.05 Q15.55 4.55 16.55 4.55 17.15 4.55 17.65 4.95 L18.05 4.3 18.25 5.25 18.15 5.6 Q19.35 8.0 18.05 15.6 L18.05 15.7 18.3 15.4 Q18.55 15.2 18.55 16.0 L18.1 17.0 Q18.3 20.05 19.4 23.6 L19.55 23.3 19.75 24.1 19.65 24.4 Q20.5 26.9 21.8 29.6 L22.05 29.3 22.3 30.05 22.2 30.4 Q23.7 33.45 25.55 36.3 31.25 41.0 36.4 42.0 L51.5 43.55 52.75 43.9 51.9 41.45 51.8 41.75 51.0 41.7 Q50.75 41.65 50.75 40.85 50.75 36.45 52.65 31.2 L54.55 25.5 51.8 20.65 51.4 19.9 51.0 22.05 49.5 22.55 Q48.55 21.75 47.4 19.95 L45.0 16.3 45.0 15.55 M41.4 17.95 L39.0 15.5 38.85 15.2 39.55 15.05 Q40.4 15.05 41.95 16.25 43.4 17.45 44.0 18.5 44.6 18.8 43.35 18.8 L42.75 18.7 42.75 19.0 42.3 19.75 Q41.15 18.65 41.25 18.05 L41.4 17.95 M50.05 28.5 L49.3 29.25 48.5 29.25 Q48.25 29.25 48.25 28.5 48.25 27.3 49.55 27.3 L50.05 28.5 M37.95 2.4 Q36.6 2.9 34.95 3.2 L34.5 3.8 33.8 3.35 31.5 3.6 29.25 3.75 28.95 4.35 Q33.55 4.9 37.7 6.45 L39.25 7.1 38.25 3.9 37.95 2.4 M29.25 7.8 L29.5 7.75 31.2 10.25 Q33.0 12.55 35.75 13.8 L35.55 14.25 Q34.25 14.3 31.6 11.8 29.05 9.4 29.05 8.6 L29.25 7.8 M11.75 3.8 L12.1 3.55 7.15 3.3 5.0 3.05 -1.55 2.65 Q-5.5 2.1 -8.95 0.9 L-10.3 0.4 -11.35 0.0 -12.0 0.0 -14.15 -0.2 -13.25 4.05 -15.3 -0.45 -15.7 -0.55 Q-25.1 -0.95 -30.0 -3.7 -25.1 0.3 -21.05 4.6 L-20.25 5.05 Q-18.85 5.1 -16.85 5.9 L-16.7 5.75 Q-14.35 4.05 -14.0 4.05 L-11.8 4.5 Q-8.85 5.75 -7.35 10.8 -5.6 11.9 -2.6 14.6 L-1.15 15.95 Q2.3 19.25 2.95 20.9 3.3 21.25 3.3 21.85 L0.65 26.05 -0.95 28.35 -1.8 29.5 Q-1.0 30.45 0.3 32.35 L1.7 34.4 2.0 34.05 3.5 35.5 Q3.5 37.9 2.35 44.1 L1.7 47.3 Q2.75 47.65 2.75 48.6 2.75 49.1 0.55 51.45 L4.95 61.1 Q5.45 58.1 7.3 53.3 L8.8 49.8 8.55 49.75 8.9 47.35 4.25 39.85 Q4.0 37.45 4.05 35.5 4.1 30.15 6.1 28.35 L6.15 27.75 3.8 27.55 Q3.25 28.4 3.25 30.55 L3.25 30.8 Q1.6 30.35 1.5 28.1 L1.5 27.85 Q1.5 27.3 1.8 26.85 L2.6 25.9 Q3.9 24.9 5.55 25.75 5.55 20.85 2.25 16.2 L1.8 15.6 Q3.1 17.05 5.05 18.05 5.55 16.85 5.45 12.05 5.4 7.65 7.0 5.25 7.75 6.65 7.75 9.65 7.75 12.55 8.15 14.3 L7.3 12.0 7.3 18.5 8.0 18.8 8.7 16.3 13.0 3.6 12.9 3.6 12.0 4.05 11.75 3.8 M7.3 20.55 L7.35 21.3 7.5 20.55 7.3 20.55 M17.45 18.4 L14.0 26.3 Q10.3 35.1 9.7 41.55 L10.25 42.4 Q11.35 39.25 13.15 35.55 L18.75 24.95 18.55 24.2 17.45 18.4 M16.05 12.0 Q10.4 29.05 7.5 38.85 7.95 39.8 8.75 40.5 9.3 35.95 12.1 28.4 14.9 20.9 17.2 17.05 L16.05 12.0 M18.9 26.1 Q18.05 27.95 18.05 29.0 12.6 36.7 10.6 43.05 L11.75 45.3 15.65 38.65 Q18.5 33.45 20.85 30.65 19.8 28.35 19.05 25.85 L18.9 26.1 M19.0 43.05 L21.85 43.35 24.75 40.05 22.95 43.5 27.95 44.05 29.2 42.6 Q24.5 38.25 21.55 32.2 L18.7 39.65 Q15.7 47.6 14.4 52.2 L14.55 53.25 14.55 53.4 Q18.15 48.05 20.85 44.6 L18.8 43.8 18.55 43.5 18.3 43.3 Q18.2 43.05 19.0 43.05 M12.55 46.8 L12.55 47.1 13.9 50.45 Q14.75 47.25 16.5 42.3 19.25 34.45 20.3 32.25 L15.4 41.15 12.35 46.2 12.55 46.8 M29.75 42.05 L30.75 41.05 Q29.0 40.4 27.85 39.65 L29.75 42.05 M29.6 43.0 L28.65 44.1 29.2 44.15 29.75 43.1 29.6 43.0 M30.25 42.25 L30.1 42.45 30.1 42.5 30.25 42.25 M27.2 45.0 L23.5 45.0 26.75 45.55 27.2 45.0 M28.7 45.05 L27.95 45.05 27.3 45.85 28.2 46.0 28.7 45.05 M30.65 43.15 L31.0 43.55 30.8 44.0 30.4 43.7 30.15 44.3 32.1 44.5 45.25 44.3 Q37.15 42.95 33.2 41.85 L31.25 41.25 31.3 41.4 30.65 43.15 M-104.05 -2.05 L-99.4 2.25 Q-100.0 -0.35 -100.0 -3.15 L-99.85 -4.2 Q-100.25 -4.45 -99.0 -4.45 -97.15 -4.45 -95.8 -0.7 L-92.9 7.55 Q-87.65 19.55 -73.5 19.55 -66.15 19.55 -56.85 17.8 -47.6 16.05 -43.5 16.05 -35.6 16.05 -29.05 22.35 L-29.1 22.3 Q-29.0 22.0 -28.25 22.0 -27.45 22.0 -26.6 24.55 -25.95 26.55 -25.75 28.0 L-26.5 28.55 Q-27.5 27.7 -28.15 25.65 L-28.45 24.45 Q-28.8 24.8 -29.5 24.8 -31.15 23.35 -33.55 21.9 -38.3 19.0 -43.55 19.0 -49.0 19.0 -57.2 20.65 L-66.85 22.15 -66.7 23.25 -66.5 23.25 -60.5 24.05 Q-59.35 24.05 -55.95 26.8 L-52.1 30.05 Q-52.55 25.35 -52.25 21.75 L-51.85 21.75 Q-49.9 21.75 -50.25 25.0 -50.45 26.65 -51.0 28.65 -51.0 31.0 -48.75 37.85 -47.7 34.95 -44.35 31.15 -40.15 26.4 -35.35 23.3 -45.05 34.05 -48.45 38.7 L-45.25 47.65 -43.35 52.7 Q-37.45 38.7 -31.2 33.05 -31.7 31.4 -31.85 29.15 L-31.75 28.25 -30.75 28.05 Q-30.25 28.05 -28.4 28.8 -27.55 29.1 -27.0 29.45 L-26.4 29.8 Q-24.45 29.0 -21.0 29.0 -20.3 29.0 -19.85 29.85 L-19.75 29.55 -18.5 29.5 -17.1 29.75 -17.0 30.8 -16.85 30.8 -16.7 30.6 Q-16.6 30.55 -16.6 31.35 -16.6 32.0 -16.95 32.15 L-17.0 32.2 -17.0 32.5 -17.1 37.25 -17.6 37.8 -18.75 36.5 -18.8 39.95 Q-9.0 38.1 -4.25 31.85 L-3.5 30.8 Q-4.0 29.7 -4.0 28.8 -4.25 28.5 -3.0 28.5 L-2.35 28.9 -2.05 28.45 -0.7 25.95 Q0.7 23.35 1.85 21.8 -1.0 21.8 -7.45 13.75 L-11.1 11.8 Q-15.15 9.6 -17.8 8.35 L-19.0 9.05 Q-19.25 9.75 -19.25 8.5 L-18.95 7.8 -19.45 7.6 -19.5 7.65 Q-19.8 8.3 -20.5 8.3 -21.6 8.3 -24.5 6.15 L-23.85 7.35 Q-22.3 10.45 -20.25 12.5 -21.45 11.9 -24.35 7.75 L-26.5 4.55 -32.5 -0.8 -35.0 -3.15 Q-32.75 0.8 -30.25 6.55 L-30.75 6.75 Q-34.45 0.5 -36.7 -4.7 -43.7 -11.15 -45.1 -11.95 L-47.35 -12.9 -47.65 -12.4 Q-44.95 -9.6 -41.9 -4.7 L-36.75 3.5 Q-39.4 1.35 -42.5 -3.95 -45.85 -9.6 -47.85 -12.05 L-50.55 -7.6 -51.15 -6.55 -44.35 2.75 -44.35 3.05 Q-47.55 -0.15 -51.6 -5.75 -53.25 -2.8 -53.75 -0.7 L-53.35 -0.25 -53.35 0.05 -53.85 -0.35 -54.25 -0.35 Q-54.35 0.25 -54.35 -0.75 -56.8 -2.9 -60.85 -7.5 L-61.0 -7.65 Q-62.95 -4.8 -63.35 -2.85 L-63.75 -2.85 Q-64.05 -4.75 -61.6 -8.35 L-65.65 -12.7 -66.1 -12.1 Q-69.5 -7.3 -69.75 -4.35 L-69.75 -4.25 -70.75 -4.35 Q-69.75 -8.0 -67.0 -12.45 L-66.35 -13.4 -68.75 -15.5 -68.75 -15.6 -68.25 -15.6 Q-67.55 -15.6 -65.9 -14.1 L-63.3 -17.35 -64.35 -17.6 Q-78.1 -20.9 -78.1 -23.05 L-78.0 -23.6 -77.8 -23.95 -77.0 -24.1 Q-70.2 -24.1 -62.65 -21.8 L-61.55 -22.5 -61.1 -22.1 Q-59.0 -22.1 -56.25 -24.95 -61.45 -36.6 -69.85 -45.8 L-79.6 -54.85 -79.35 -55.5 -78.95 -55.5 -80.65 -56.7 -93.2 -39.95 Q-108.35 -19.15 -108.35 -13.85 -108.35 -7.15 -104.05 -2.05 M-4.85 -94.35 Q-6.35 -94.35 -7.25 -95.5 L-7.25 -95.6 -6.85 -95.6 Q-6.05 -95.6 -4.85 -94.75 L-4.85 -94.35 M-75.9 -64.25 Q-70.35 -64.15 -61.3 -56.45 L-52.9 -48.45 Q-61.05 -59.55 -73.5 -67.2 L-75.9 -64.25 M-76.25 -63.8 L-78.5 -60.95 -78.6 -60.85 -78.3 -60.8 Q-78.1 -60.8 -78.1 -60.05 L-78.2 -59.85 -73.05 -56.6 Q-64.4 -50.9 -60.0 -46.5 -48.4 -34.35 -47.55 -31.5 -45.25 -29.3 -39.95 -25.2 L-39.5 -25.3 Q-44.15 -32.65 -49.5 -43.4 L-51.95 -47.15 Q-55.4 -49.85 -61.0 -54.9 -68.65 -61.05 -76.25 -63.35 L-76.25 -63.8 M-77.35 -50.6 L-77.35 -48.0 -79.35 -47.35 Q-80.25 -48.25 -80.25 -49.05 -80.25 -49.5 -79.35 -50.25 -78.4 -51.0 -77.75 -51.0 L-77.35 -50.6 M-50.6 -46.15 Q-43.05 -34.65 -37.7 -25.05 -35.65 -24.1 -33.05 -20.25 L-31.4 -17.65 -29.0 -16.65 -25.25 -15.1 -24.9 -15.4 -28.65 -20.35 -29.0 -20.8 -28.75 -19.85 -28.75 -19.75 Q-31.0 -22.6 -34.05 -27.1 L-35.25 -25.25 -35.75 -25.35 -34.85 -28.35 -40.45 -36.9 Q-47.65 -47.4 -56.1 -54.25 L-50.9 -46.6 -49.75 -45.5 -50.6 -46.15 M-57.65 -39.15 L-60.6 -41.6 -61.25 -42.15 -57.05 -38.4 -57.65 -39.15 M-51.75 -31.1 L-51.75 -30.75 Q-58.8 -40.15 -68.6 -47.6 -64.6 -44.05 -61.1 -39.35 -58.65 -36.1 -53.85 -28.1 L-54.5 -27.5 -56.25 -29.2 -55.6 -29.1 Q-55.6 -31.3 -63.35 -39.35 -58.15 -32.25 -56.1 -25.1 L-54.7 -26.75 -50.95 -31.35 -53.95 -34.75 -51.75 -31.1 M-49.3 -29.7 L-53.7 -25.45 Q-57.45 -22.15 -59.5 -20.8 -52.2 -18.15 -44.25 -13.5 -38.25 -10.0 -33.1 -6.1 L-33.2 -6.2 Q-35.15 -7.6 -35.0 -9.45 L-34.4 -9.8 -33.55 -12.25 -32.9 -13.65 -33.5 -14.25 -33.6 -15.0 Q-34.25 -15.6 -33.05 -15.6 -34.1 -16.45 -35.2 -18.3 L-37.25 -19.25 -38.35 -20.0 -35.75 -19.25 -35.8 -19.35 -37.85 -22.35 -44.6 -23.35 Q-48.0 -27.35 -49.25 -29.65 L-49.3 -29.7 M-72.75 -33.35 Q-72.35 -34.35 -71.85 -34.35 -71.5 -35.05 -71.5 -33.8 L-71.75 -33.0 -72.75 -33.35 M-62.75 -29.25 Q-62.75 -29.95 -61.5 -30.6 -60.75 -30.35 -60.5 -30.0 -60.8 -28.85 -62.35 -28.85 L-62.75 -29.25 M-65.15 -13.4 L-61.1 -9.1 -60.5 -9.9 -57.15 -13.8 -58.25 -15.5 -57.85 -15.6 -56.75 -14.15 -55.75 -14.85 -56.5 -13.8 -51.7 -7.25 -50.7 -8.9 -48.2 -12.45 -48.25 -12.5 -48.2 -12.5 -47.8 -13.05 Q-52.25 -14.65 -62.55 -17.15 L-65.15 -13.4 M-60.45 -8.4 L-54.3 -1.3 Q-54.15 -3.15 -52.15 -6.5 L-56.85 -13.3 -60.0 -9.05 -60.45 -8.4 M-24.25 -44.25 Q-28.05 -40.9 -30.75 -35.65 L-31.0 -35.05 -28.45 -31.25 -27.25 -35.45 -24.25 -44.0 -24.25 -44.25 M-32.1 -34.7 L-35.75 -40.35 Q-35.6 -37.4 -33.4 -32.0 L-32.1 -34.7 M-34.15 -28.2 L-33.9 -27.85 -33.75 -28.1 -33.35 -28.1 -33.7 -27.55 -32.2 -25.3 -32.35 -25.6 -32.25 -26.25 -31.85 -26.25 -31.35 -25.6 -33.2 -29.75 -33.3 -30.0 -34.15 -28.2 M-35.0 -26.6 L-34.2 -27.4 -34.4 -27.7 -35.0 -26.6 M-32.6 -30.0 L-30.05 -23.85 -24.2 -15.9 -21.45 -17.55 -22.75 -19.5 Q-26.2 -22.25 -28.5 -22.25 -29.35 -22.25 -29.35 -26.0 L-28.9 -29.45 -31.55 -33.85 -32.95 -30.8 -32.6 -30.0 M-28.6 -27.85 L-28.6 -23.75 -28.0 -23.25 Q-27.35 -23.6 -26.35 -25.25 L-26.5 -25.5 -27.0 -25.5 -27.1 -26.45 -28.35 -28.6 -28.6 -27.85 M-23.55 -27.35 L-24.0 -27.35 Q-24.35 -27.35 -25.3 -25.8 L-24.05 -23.6 Q-23.5 -24.25 -23.35 -25.05 L-23.55 -27.35 M-23.45 -22.5 L-22.1 -20.05 -21.85 -19.9 -23.1 -23.25 -23.45 -22.5 M-29.7 -21.7 L-31.25 -23.85 -29.35 -20.85 -29.7 -21.7 M-26.85 -23.25 Q-26.5 -22.7 -26.0 -22.5 L-24.95 -22.95 -26.0 -24.7 -26.85 -23.25 M-29.5 -13.35 L-29.25 -12.45 -30.5 -13.2 -30.6 -12.95 -28.6 -11.35 -27.75 -12.7 -29.5 -13.35 M-28.4 -15.35 L-30.5 -16.25 -30.35 -15.95 -30.4 -15.75 -29.9 -14.6 -26.95 -13.6 -26.0 -14.5 -28.4 -15.35 M-21.9 -14.6 L-20.15 -14.65 -20.4 -15.5 -21.9 -14.6 M-22.55 -13.65 L-19.25 -8.9 -18.5 -9.6 -18.55 -9.7 -19.75 -13.5 -20.5 -13.5 -22.55 -13.65 M-24.45 -12.85 L-22.85 -12.35 -23.55 -13.5 -24.45 -12.85 M-31.35 -11.05 L-32.35 -8.75 -32.25 -8.6 -31.0 -6.45 -30.85 -6.25 -31.1 -5.95 -31.15 -5.95 -31.35 -5.45 Q-28.35 -3.4 -19.8 -2.0 -22.05 -3.15 -20.25 -4.25 -27.05 -4.95 -28.25 -9.1 L-27.75 -9.55 -27.95 -9.7 -29.0 -8.35 -29.1 -8.1 Q-29.25 -8.0 -29.25 -8.8 L-28.95 -10.45 -30.95 -12.0 -31.35 -11.05 M-20.9 -8.55 Q-22.75 -10.4 -25.7 -11.85 L-27.3 -10.4 -26.75 -10.0 -26.55 -10.15 -26.5 -10.2 -22.2 -8.75 -20.9 -8.55 M-7.2 -14.75 Q-1.25 -19.15 -0.25 -21.75 -5.5 -19.3 -10.2 -15.7 L-7.35 -14.65 -7.2 -14.75 M-6.3 -13.15 L-9.35 -10.0 -8.3 -9.85 -5.15 -12.7 -6.3 -13.15 M-8.6 -12.85 L-13.05 -10.45 -10.9 -10.2 -8.85 -12.5 -8.6 -12.85 M-18.1 -15.1 L-18.6 -15.6 -18.35 -14.9 -18.1 -15.1 M-11.3 -14.85 L-16.0 -10.7 -15.5 -10.75 -13.6 -10.5 -8.25 -13.95 -10.95 -15.1 -11.3 -14.85 M-12.5 -8.3 L-15.65 -8.95 -16.35 -8.5 -16.0 -7.35 -13.5 -7.1 -12.65 -8.15 -12.5 -8.3 M-11.2 -7.9 L-11.95 -6.95 -11.7 -6.9 -10.7 -7.75 -11.2 -7.9 M-16.0 -9.55 L-16.25 -10.0 -16.3 -10.45 -16.8 -10.0 -16.55 -9.2 -16.45 -9.3 -16.0 -9.55 M-18.2 -8.6 L-18.2 -8.65 -18.3 -8.6 -18.2 -8.6 M-15.85 -9.2 L-15.9 -9.35 -16.45 -8.9 -15.85 -9.2 M-2.25 -6.95 L-1.7 -6.7 -1.35 -7.05 -2.1 -7.15 -2.25 -6.95 M-3.6 -12.05 L-4.0 -11.7 -6.4 -9.6 -2.7 -9.15 -1.2 -11.05 -3.6 -12.05 M-6.5 -6.4 L-9.25 -7.25 -9.9 -6.75 -6.5 -6.4 M-2.75 5.25 L-1.85 5.25 Q-0.95 7.4 -0.15 12.05 L0.65 13.95 Q-2.2 9.8 -2.75 8.05 L-2.75 5.25 M-15.25 6.55 Q-12.95 7.65 -9.95 9.5 -10.75 6.3 -13.75 6.3 L-15.25 6.55 M-29.6 30.55 L-29.45 31.6 -27.8 30.55 -29.6 30.55 M-25.75 35.4 Q-25.75 37.25 -26.85 37.25 L-27.3 37.25 -27.35 38.4 -26.75 43.15 -26.65 43.8 Q-24.3 44.3 -21.5 45.8 L-20.8 46.2 -21.1 42.3 -21.25 42.25 Q-21.5 42.35 -21.5 41.1 L-21.35 40.3 -21.1 40.3 Q-20.9 34.6 -21.0 31.75 L-21.0 31.5 Q-24.9 32.4 -26.4 34.7 -25.75 35.2 -25.75 35.4 M-65.1 42.4 Q-65.1 44.55 -61.75 44.55 -58.1 44.55 -55.65 39.95 -55.0 38.8 -53.0 33.05 L-53.5 33.05 Q-57.05 33.05 -61.25 37.55 L-60.5 39.0 -60.85 39.3 -61.95 38.3 -65.1 42.4 M-50.7 25.4 Q-50.55 23.65 -51.6 23.0 L-51.35 27.5 Q-50.8 26.85 -50.7 25.4 M-56.35 49.5 Q-56.25 49.25 -55.85 49.25 -54.25 51.5 -52.1 56.0 L-52.25 56.3 Q-53.6 55.25 -54.9 53.0 -56.15 50.9 -56.35 49.5 M-45.75 69.75 Q-49.35 63.45 -49.35 62.0 L-48.85 61.75 Q-47.2 63.7 -45.25 69.55 L-45.75 69.75 M-43.85 73.8 Q-41.5 75.9 -41.35 77.55 -42.55 77.15 -43.35 75.7 L-44.25 73.8 -43.85 73.8" fill="#1a161d" fill-rule="evenodd" stroke="none"/>
    <path d="M29.5 -87.45 L30.25 -88.0 30.3 -87.85 Q31.7 -88.75 34.25 -88.75 35.15 -88.75 37.05 -75.6 37.05 -73.7 31.5 -71.0 30.75 -71.25 30.5 -71.7 L29.5 -69.4 Q31.05 -58.4 31.05 -56.05 31.05 -54.9 24.7 -47.5 18.25 -40.1 16.0 -38.85 15.45 -39.05 15.2 -39.35 L11.0 -39.25 Q0.2 -39.25 -9.3 -50.9 L-9.5 -50.5 -9.6 -50.25 Q-12.6 -53.9 -16.1 -69.3 L-16.05 -69.75 -16.75 -70.95 -17.6 -70.75 Q-21.6 -70.75 -23.85 -79.0 -25.0 -83.15 -25.35 -87.4 -25.35 -88.75 -21.0 -89.35 L-19.15 -89.35 -18.45 -87.85 Q-19.45 -86.9 -20.55 -86.85 L-23.1 -86.85 Q-22.7 -85.55 -22.65 -83.0 L-22.4 -78.75 Q-21.7 -74.0 -17.15 -71.85 -17.9 -73.75 -18.1 -76.25 -18.55 -76.0 -19.0 -76.0 -21.35 -76.0 -22.0 -82.1 -22.0 -85.6 -20.5 -85.6 -19.45 -85.6 -17.9 -82.8 L-16.85 -80.95 -16.75 -81.0 Q-16.3 -79.8 -16.25 -77.65 L-16.05 -74.05 Q-15.4 -69.55 -10.35 -67.1 L-11.0 -66.5 Q-12.8 -66.85 -14.15 -67.8 L-11.85 -60.8 -9.65 -53.4 Q-6.45 -48.35 5.15 -43.9 10.35 -41.9 15.05 -40.65 L21.9 -47.7 Q29.0 -55.35 29.0 -57.85 L28.05 -66.0 26.3 -62.1 25.05 -62.25 24.8 -64.1 Q24.8 -65.75 30.0 -75.75 L29.5 -80.0 30.0 -80.25 30.3 -81.9 Q30.3 -83.05 29.5 -85.4 30.0 -85.45 29.75 -85.75 L29.5 -87.45 M30.5 -87.25 L31.2 -84.6 Q31.7 -85.1 32.5 -85.1 L33.7 -84.85 33.3 -87.0 30.5 -87.25 M21.75 -81.75 Q19.85 -80.0 18.25 -80.0 14.55 -80.0 12.75 -81.25 11.5 -82.1 11.5 -83.1 11.5 -89.0 16.5 -89.0 23.15 -89.0 23.5 -84.15 23.5 -83.3 21.75 -81.75 M34.5 -77.75 Q34.25 -77.25 33.0 -77.25 32.45 -77.25 31.95 -77.6 L32.0 -75.4 31.15 -73.2 32.55 -74.25 Q34.8 -75.8 34.8 -76.25 L34.6 -79.05 34.5 -77.75 M4.5 -81.45 Q6.25 -79.95 7.25 -76.95 8.3 -73.8 8.3 -70.1 L8.3 -69.95 9.3 -70.6 9.35 -70.95 9.3 -71.0 9.35 -71.0 9.55 -71.7 Q9.9 -72.1 11.25 -72.1 L13.0 -71.85 13.3 -70.6 14.15 -69.95 Q14.95 -69.0 14.5 -68.0 14.75 -67.5 13.5 -67.5 11.95 -67.5 10.0 -68.25 10.5 -67.35 10.5 -65.6 10.5 -63.8 9.5 -62.0 6.5 -62.85 6.05 -66.9 L6.05 -67.05 5.5 -67.0 2.0 -67.1 2.0 -69.35 3.05 -70.9 Q3.05 -72.05 4.75 -76.75 4.75 -78.0 1.85 -79.3 -0.4 -80.35 -0.9 -81.4 L-5.0 -80.5 Q-9.15 -80.5 -9.85 -83.35 -9.85 -84.55 -6.35 -86.25 -2.75 -88.0 0.0 -88.0 3.45 -88.0 3.95 -86.55 4.0 -84.6 4.5 -83.6 L4.5 -81.45" fill="#1a161d" fill-rule="evenodd" stroke="none"/>
    <path d="M16.05 -127.25 Q16.55 -127.25 18.75 -123.1 L18.5 -122.85 Q16.95 -123.7 15.55 -127.1 L16.05 -127.25 M31.55 -93.9 Q31.55 -90.45 31.25 -89.1 L31.25 -89.0 30.3 -90.3 29.85 -91.2 29.75 -93.25 Q29.75 -94.15 30.3 -98.0 L31.25 -98.0 31.55 -94.05 31.55 -93.9 M-15.5 -109.15 L-13.25 -111.95 -13.35 -111.4 -13.3 -110.65 -13.25 -110.85 -12.25 -110.85 Q-11.8 -114.05 -5.3 -118.95 L-7.95 -115.6 -7.45 -115.95 Q4.5 -123.55 8.55 -125.1 -0.6 -120.0 -7.0 -115.65 -2.35 -118.4 -1.25 -118.35 -5.7 -115.2 -9.65 -113.1 L-10.2 -112.2 Q-12.75 -107.95 -13.95 -106.6 -16.1 -104.15 -18.5 -104.0 L-15.5 -109.15 M15.05 -120.85 Q16.7 -120.85 19.05 -113.35 16.35 -114.7 14.5 -120.5 L14.35 -120.75 15.05 -120.85 M11.8 -102.0 Q11.8 -101.3 9.15 -99.5 6.4 -97.65 5.0 -97.75 L3.8 -98.35 11.25 -102.75 Q11.8 -103.25 11.8 -102.0 M13.0 -100.35 Q13.85 -100.65 14.55 -100.1 L13.3 -98.35 Q12.7 -98.45 11.8 -99.25 12.2 -100.05 13.0 -100.35 M18.55 -105.85 Q21.1 -103.6 22.75 -102.5 21.4 -102.7 19.75 -103.65 18.15 -104.6 17.8 -105.35 18.1 -105.85 18.55 -105.85 M-9.7 -93.65 L-10.25 -93.25 -11.75 -93.35 -5.0 -98.55 Q-4.95 -99.85 -3.85 -100.0 L-3.35 -99.95 -0.9 -102.0 Q5.45 -107.4 8.25 -108.85 4.1 -104.85 -1.85 -99.9 0.55 -100.45 5.65 -104.45 8.95 -107.0 15.0 -112.1 16.05 -111.75 16.05 -110.9 3.55 -96.85 -3.0 -96.85 -3.8 -96.85 -4.75 -97.35 L-4.75 -97.55 -7.35 -95.5 -9.7 -93.65 M29.5 -85.4 L28.85 -85.35 Q27.3 -85.35 26.55 -91.5 26.15 -94.6 26.05 -97.85 L26.05 -99.1 25.85 -99.15 26.55 -99.25 Q27.85 -99.25 28.65 -94.15 L29.5 -87.45 29.75 -85.75 Q30.0 -85.45 29.5 -85.4 M22.55 -115.6 L24.55 -110.35 22.25 -113.35 22.25 -115.6 22.55 -115.6 M20.75 -111.1 L21.05 -111.1 Q22.2 -108.05 23.15 -106.3 24.9 -103.15 27.25 -102.75 L27.25 -102.35 Q27.5 -102.0 26.25 -102.0 23.9 -102.0 22.15 -105.85 20.9 -108.75 20.75 -111.1 M12.55 -97.1 Q11.0 -94.9 9.75 -94.35 10.0 -94.95 11.15 -96.0 L12.55 -97.1 M0.0 -95.6 Q-0.2 -95.45 -0.35 -95.45 -0.75 -95.45 -0.75 -96.25 L-0.75 -96.65 Q-0.6 -96.5 -0.1 -96.5 0.8 -96.5 4.05 -99.6 3.15 -98.0 0.0 -95.6 M-7.45 -118.75 L-7.85 -118.45 -9.95 -116.65 -8.6 -118.0 -7.45 -118.75 M-10.75 -102.6 L-6.0 -107.85 Q-3.25 -110.9 -2.25 -110.85 -6.85 -104.95 -10.5 -102.35 L-10.75 -102.6 M-11.2 -106.6 Q-6.45 -111.25 -4.35 -112.6 -11.75 -103.35 -18.25 -99.85 L-11.2 -106.6 M-12.5 -94.8 L-13.0 -89.35 -13.1 -89.0 -14.0 -89.1 -14.1 -91.55 Q-14.1 -94.65 -12.75 -95.35 -12.5 -96.05 -12.5 -94.8 M-16.05 -82.7 L-16.35 -85.85 -15.85 -94.85 -15.35 -94.85 Q-14.25 -86.6 -14.25 -81.0 -14.25 -80.25 -14.4 -80.3 L-15.0 -80.35 -15.15 -80.55 -16.05 -82.7" fill="#9d771e" fill-rule="evenodd" stroke="none"/>
    <path d="M-7.35 -95.5 L-3.9 -93.85 Q-1.0 -92.6 0.25 -92.6 9.9 -92.6 15.4 -96.3 L16.0 -96.7 18.7 -98.85 Q20.15 -100.0 21.25 -100.0 23.85 -100.0 26.05 -90.35 28.25 -80.75 28.85 -80.75 L28.95 -80.75 29.5 -80.05 29.5 -80.0 30.0 -75.75 Q24.8 -65.75 24.8 -64.1 L25.05 -62.25 26.3 -62.1 28.05 -66.0 29.0 -57.85 Q29.0 -55.35 21.9 -47.7 L15.05 -40.65 Q10.35 -41.9 5.15 -43.9 -6.45 -48.35 -9.65 -53.4 L-11.85 -60.8 -14.15 -67.8 Q-12.8 -66.85 -11.0 -66.5 L-10.35 -67.1 Q-15.4 -69.55 -16.05 -74.05 L-16.25 -77.65 Q-16.3 -79.8 -16.75 -81.0 L-16.85 -80.95 -17.9 -82.8 Q-19.45 -85.6 -20.5 -85.6 -22.0 -85.6 -22.0 -82.1 -21.35 -76.0 -19.0 -76.0 -18.55 -76.0 -18.1 -76.25 -17.9 -73.75 -17.15 -71.85 -21.7 -74.0 -22.4 -78.75 L-22.65 -83.0 Q-22.7 -85.55 -23.1 -86.85 L-20.55 -86.85 Q-19.45 -86.9 -18.45 -87.85 L-18.4 -87.75 -16.05 -82.7 -15.15 -80.55 -15.0 -80.15 -15.0 -79.1 -14.65 -79.1 -14.5 -78.35 Q-14.25 -78.6 -14.25 -79.0 L-14.2 -79.3 Q-13.25 -80.8 -13.25 -81.3 -13.25 -85.1 -13.75 -87.5 -13.5 -88.75 -9.7 -93.65 L-7.35 -95.5 M21.75 -81.75 Q23.5 -83.3 23.5 -84.15 23.15 -89.0 16.5 -89.0 11.5 -89.0 11.5 -83.1 11.5 -82.1 12.75 -81.25 14.55 -80.0 18.25 -80.0 19.85 -80.0 21.75 -81.75 M4.5 -81.45 L4.5 -83.6 Q4.0 -84.6 3.95 -86.55 3.45 -88.0 0.0 -88.0 -2.75 -88.0 -6.35 -86.25 -9.85 -84.55 -9.85 -83.35 -9.15 -80.5 -5.0 -80.5 L-0.9 -81.4 Q-0.4 -80.35 1.85 -79.3 4.75 -78.0 4.75 -76.75 3.05 -72.05 3.05 -70.9 L2.0 -69.35 2.0 -67.1 5.5 -67.0 6.05 -67.05 6.05 -66.9 Q6.5 -62.85 9.5 -62.0 10.5 -63.8 10.5 -65.6 10.5 -67.35 10.0 -68.25 11.95 -67.5 13.5 -67.5 14.75 -67.5 14.5 -68.0 14.95 -69.0 14.15 -69.95 L13.3 -70.6 13.0 -71.85 11.25 -72.1 Q9.9 -72.1 9.55 -71.7 L9.35 -71.0 9.3 -71.0 9.35 -70.95 9.3 -70.6 8.3 -69.95 8.3 -70.1 Q8.3 -73.8 7.25 -76.95 6.25 -79.95 4.5 -81.45" fill="url(#gradient7)" fill-rule="evenodd" stroke="none"/>
    <path d="M30.5 -87.25 L33.3 -87.0 33.7 -84.85 32.5 -85.1 Q31.7 -85.1 31.2 -84.6 L30.5 -87.25" fill="url(#gradient8)" fill-rule="evenodd" stroke="none"/>
    <path d="M34.5 -77.75 L34.6 -79.05 34.8 -76.25 Q34.8 -75.8 32.55 -74.25 L31.15 -73.2 32.0 -75.4 31.95 -77.6 Q32.45 -77.25 33.0 -77.25 34.25 -77.25 34.5 -77.75" fill="url(#gradient9)" fill-rule="evenodd" stroke="none"/>
    <path d="M16.05 -127.25 L15.55 -127.1 Q16.95 -123.7 18.5 -122.85 L18.75 -123.1 Q16.55 -127.25 16.05 -127.25 M-5.3 -118.95 L-4.9 -119.3 Q-1.55 -121.8 4.15 -125.7 9.6 -128.1 15.45 -128.45 L17.5 -128.5 17.65 -128.4 Q19.05 -126.9 33.6 -101.95 L34.0 -101.25 33.95 -100.75 Q33.6 -99.25 31.65 -94.15 L31.55 -93.9 31.55 -94.05 31.25 -98.0 30.3 -98.0 Q29.75 -94.15 29.75 -93.25 L29.85 -91.2 30.3 -90.3 29.95 -89.15 29.5 -87.45 28.65 -94.15 Q27.85 -99.25 26.55 -99.25 L25.85 -99.15 26.05 -99.1 26.05 -97.85 Q26.15 -94.6 26.55 -91.5 27.3 -85.35 28.85 -85.35 L29.5 -85.4 Q30.3 -83.05 30.3 -81.9 L30.0 -80.25 29.5 -80.0 29.5 -80.05 28.95 -80.75 28.85 -80.75 Q28.25 -80.75 26.05 -90.35 23.85 -100.0 21.25 -100.0 20.15 -100.0 18.7 -98.85 L16.0 -96.7 15.4 -96.3 Q9.9 -92.6 0.25 -92.6 -1.0 -92.6 -3.9 -93.85 L-7.35 -95.5 -4.75 -97.55 -4.75 -97.35 Q-3.8 -96.85 -3.0 -96.85 3.55 -96.85 16.05 -110.9 16.05 -111.75 15.0 -112.1 8.95 -107.0 5.65 -104.45 0.55 -100.45 -1.85 -99.9 4.1 -104.85 8.25 -108.85 5.45 -107.4 -0.9 -102.0 L-3.35 -99.95 -3.85 -100.0 Q-4.95 -99.85 -5.0 -98.55 L-11.75 -93.35 -10.25 -93.25 -9.7 -93.65 Q-13.5 -88.75 -13.75 -87.5 -13.25 -85.1 -13.25 -81.3 -13.25 -80.8 -14.2 -79.3 L-14.25 -79.0 Q-14.25 -78.6 -14.5 -78.35 L-14.65 -79.1 -15.0 -79.1 -15.0 -80.15 -15.15 -80.55 -15.0 -80.35 -14.4 -80.3 Q-14.25 -80.25 -14.25 -81.0 -14.25 -86.6 -15.35 -94.85 L-15.85 -94.85 -16.35 -85.85 -16.05 -82.7 -18.4 -87.75 -18.45 -87.85 -19.15 -89.35 Q-21.75 -95.1 -21.75 -97.75 L-21.75 -97.95 Q-21.65 -99.35 -20.15 -102.15 L-19.75 -102.35 -19.0 -103.75 -18.85 -104.0 Q-17.5 -106.55 -15.55 -109.1 L-15.5 -109.15 -18.5 -104.0 Q-16.1 -104.15 -13.95 -106.6 -12.75 -107.95 -10.2 -112.2 L-9.65 -113.1 Q-5.7 -115.2 -1.25 -118.35 -2.35 -118.4 -7.0 -115.65 -0.6 -120.0 8.55 -125.1 4.5 -123.55 -7.45 -115.95 L-7.95 -115.6 -5.3 -118.95 M18.55 -105.85 Q18.1 -105.85 17.8 -105.35 18.15 -104.6 19.75 -103.65 21.4 -102.7 22.75 -102.5 21.1 -103.6 18.55 -105.85 M13.0 -100.35 Q12.2 -100.05 11.8 -99.25 12.7 -98.45 13.3 -98.35 L14.55 -100.1 Q13.85 -100.65 13.0 -100.35 M11.8 -102.0 Q11.8 -103.25 11.25 -102.75 L3.8 -98.35 5.0 -97.75 Q6.4 -97.65 9.15 -99.5 11.8 -101.3 11.8 -102.0 M15.05 -120.85 L14.35 -120.75 14.5 -120.5 Q16.35 -114.7 19.05 -113.35 16.7 -120.85 15.05 -120.85 M20.75 -111.1 Q20.9 -108.75 22.15 -105.85 23.9 -102.0 26.25 -102.0 27.5 -102.0 27.25 -102.35 L27.25 -102.75 Q24.9 -103.15 23.15 -106.3 22.2 -108.05 21.05 -111.1 L20.75 -111.1 M22.55 -115.6 L22.25 -115.6 22.25 -113.35 24.55 -110.35 22.55 -115.6 M12.55 -97.1 L11.15 -96.0 Q10.0 -94.95 9.75 -94.35 11.0 -94.9 12.55 -97.1 M0.0 -95.6 Q3.15 -98.0 4.05 -99.6 0.8 -96.5 -0.1 -96.5 -0.6 -96.5 -0.75 -96.65 L-0.75 -96.25 Q-0.75 -95.45 -0.35 -95.45 -0.2 -95.45 0.0 -95.6 M-11.2 -106.6 L-18.25 -99.85 Q-11.75 -103.35 -4.35 -112.6 -6.45 -111.25 -11.2 -106.6 M-10.75 -102.6 L-10.5 -102.35 Q-6.85 -104.95 -2.25 -110.85 -3.25 -110.9 -6.0 -107.85 L-10.75 -102.6 M-12.5 -94.8 Q-12.5 -96.05 -12.75 -95.35 -14.1 -94.65 -14.1 -91.55 L-14.0 -89.1 -13.1 -89.0 -13.0 -89.35 -12.5 -94.8" fill="url(#gradient10)" fill-rule="evenodd" stroke="none"/>
    <path d="M95.75 74.75 L95.75 74.8 95.0 75.25 92.8 75.25 Q92.6 75.15 92.6 74.5 L92.55 73.85 Q93.5 69.5 93.5 68.25 93.5 51.85 84.05 35.3 74.55 21.6 74.55 19.35 74.55 16.05 76.05 7.3 76.8 2.9 77.45 0.35 L78.0 -1.7 75.6 -3.5 Q72.5 -6.05 72.5 -6.9 L72.55 -7.75 Q73.7 -8.0 74.8 -7.25 75.15 -7.4 74.8 -8.75 L75.75 -9.0 Q77.3 -9.0 80.3 -1.5 L80.0 -0.75 79.5 -0.9 79.45 -0.2 79.4 -0.05 79.5 -0.1 80.55 0.0 Q80.55 1.05 81.05 1.8 L81.0 2.05 79.3 0.7 77.25 16.85 Q77.25 18.25 86.9 31.45 96.55 47.05 96.55 60.15 96.55 69.15 95.75 74.75 M103.75 -7.3 L99.9 -15.8 Q97.5 -20.85 97.5 -21.9 97.5 -23.1 99.0 -23.1 101.85 -23.1 106.55 -11.85 L107.9 -8.5 Q110.75 -1.25 112.8 6.3 116.25 19.15 116.25 35.35 116.25 44.9 114.25 58.0 112.55 69.05 110.45 75.75 L109.25 79.0 108.5 79.25 Q107.25 78.0 107.25 77.6 L107.6 75.55 110.0 61.05 Q112.75 44.25 112.75 35.25 112.75 15.65 105.15 -3.9 L103.75 -7.3" fill="#1a161d" fill-rule="evenodd" stroke="none"/>
    <path d="M79.45 -0.2 L103.75 -7.3 105.15 -3.9 Q112.75 15.65 112.75 35.25 112.75 44.25 110.0 61.05 L107.6 75.55 95.75 74.75 Q96.55 69.15 96.55 60.15 96.55 47.05 86.9 31.45 77.25 18.25 77.25 16.85 L79.3 0.7 81.0 2.05 81.05 1.8 Q80.55 1.05 80.55 0.0 L79.5 -0.1 79.4 -0.05 79.45 -0.2" fill="url(#gradient11)" fill-rule="evenodd" stroke="none"/>
    <path d="M43.5 -89.4 Q43.5 -88.25 42.55 -87.35 41.65 -86.5 40.5 -86.5 34.0 -86.5 32.05 -87.65 30.75 -88.4 30.75 -90.8 30.75 -94.75 34.0 -94.75 37.65 -94.75 40.8 -92.5 43.5 -90.6 43.5 -89.4 M80.25 -68.0 Q82.25 -68.0 82.25 -63.1 82.25 -58.95 76.9 -48.4 71.7 -38.25 68.5 -35.35 L67.0 -35.35 66.75 -36.5 72.55 -47.95 Q78.3 -58.95 78.3 -65.9 78.3 -67.65 80.25 -68.0 M69.05 -71.35 Q69.05 -72.1 69.75 -72.9 70.55 -73.75 71.5 -73.75 73.3 -73.75 73.25 -72.0 73.25 -71.3 72.55 -70.5 71.8 -69.6 71.0 -69.6 69.05 -69.6 69.05 -71.35 M28.0 -92.85 Q28.0 -90.4 26.75 -89.85 L20.55 -89.35 Q7.5 -86.25 5.0 -86.25 L3.75 -86.3 Q1.85 -83.45 -5.1 -84.6 L-5.1 -83.5 1.0 -83.0 Q5.3 -83.0 5.25 -74.45 6.25 -72.1 6.25 -69.3 6.25 -66.45 3.9 -63.65 1.5 -60.8 1.5 -55.6 1.5 -53.55 0.6 -52.25 5.35 -48.95 12.3 -43.0 L12.0 -41.6 17.5 -42.25 Q19.2 -41.9 20.3 -40.5 21.25 -39.35 21.25 -38.4 21.25 -37.55 20.15 -36.0 22.5 -33.65 27.0 -25.85 27.0 -18.55 25.25 -14.95 22.0 -8.35 13.45 -6.65 L14.35 -6.35 29.0 -8.0 29.15 -8.0 29.5 -12.5 Q29.5 -14.1 32.55 -20.6 35.55 -27.15 35.55 -27.65 35.55 -28.15 33.2 -30.45 30.8 -32.7 30.8 -34.6 30.8 -35.85 31.75 -37.2 33.1 -39.1 35.5 -39.1 48.8 -39.1 48.8 -27.6 L47.7 -23.4 Q46.3 -18.8 44.55 -14.85 39.35 -2.95 33.7 -2.75 32.75 -2.1 30.75 -1.45 L31.25 -1.5 Q37.5 -1.5 42.3 1.8 46.55 4.7 46.55 7.4 46.55 9.25 45.5 10.8 43.95 13.05 40.75 13.05 34.85 13.05 29.8 9.3 25.5 6.1 25.5 3.85 25.5 2.05 26.75 0.5 L28.4 -0.85 20.5 0.55 20.35 0.6 21.85 1.7 Q23.0 2.95 23.0 5.4 23.0 10.1 19.35 16.7 20.9 18.25 21.25 21.55 21.65 24.75 21.0 28.1 21.0 32.7 24.0 35.8 27.6 39.55 34.5 39.55 37.75 39.55 39.85 40.4 43.65 38.5 45.25 38.5 50.4 38.5 51.0 43.85 22.6 76.0 20.05 76.0 16.4 76.0 14.7 74.35 12.95 75.5 11.4 75.5 9.5 75.5 8.25 74.75 L9.8 81.55 Q9.8 83.2 8.75 84.55 7.4 86.3 5.0 86.3 0.05 86.3 -6.85 74.2 -12.8 78.5 -18.25 78.5 -26.8 78.5 -37.0 71.75 -40.75 69.25 -43.5 66.7 L-44.45 65.75 -43.35 68.3 Q-42.25 70.25 -42.25 70.85 -42.25 74.25 -45.5 74.25 -47.75 74.25 -62.1 50.5 -62.1 49.2 -61.7 48.3 L-64.5 46.8 Q-68.0 44.6 -68.0 43.55 -68.0 41.7 -64.5 40.05 -60.6 38.25 -55.0 38.25 L-53.75 38.4 Q-53.5 37.0 -52.85 36.05 -50.8 33.5 -49.1 30.55 L-49.0 30.3 Q-59.85 31.3 -59.85 26.35 -59.85 24.1 -56.25 22.0 -51.85 19.5 -45.0 19.5 L-37.3 20.0 -41.35 17.3 Q-64.25 10.65 -81.1 3.0 -80.2 1.05 -79.5 1.05 L-77.35 1.5 -76.25 1.25 Q-74.9 1.25 -66.8 3.1 -57.0 5.3 -48.35 8.0 -22.25 16.15 -22.25 23.75 -22.25 24.65 -22.7 25.55 L-20.75 25.5 Q-15.0 25.5 -13.35 29.5 -12.85 30.7 -12.75 32.0 L-3.25 21.3 -3.45 20.35 Q-4.15 17.7 -7.1 16.05 L-13.9 12.1 Q-15.5 13.1 -15.5 13.5 -15.5 15.5 -18.25 15.5 -22.25 15.5 -27.0 6.9 -27.0 5.3 -25.0 5.3 L-22.45 5.4 Q-23.35 4.15 -23.35 3.1 -23.35 -1.05 -19.85 -2.1 -20.9 -2.25 -21.5 -3.15 -24.6 -4.3 -24.6 -5.6 -24.6 -6.75 -22.5 -8.1 L-23.5 -8.3 Q-25.75 -5.35 -26.75 -5.35 -30.6 -5.35 -30.6 -8.1 -29.4 -17.25 -28.0 -22.4 -29.25 -21.75 -31.0 -21.75 -41.1 -21.75 -41.1 -28.8 -41.1 -33.0 -37.85 -34.15 -53.7 -50.95 -70.5 -61.0 L-70.6 -61.75 -69.05 -62.0 Q-56.75 -62.0 -35.55 -34.55 L-35.05 -34.6 Q-36.0 -35.9 -36.0 -36.9 -36.0 -41.5 -31.0 -41.5 -27.7 -41.5 -25.3 -38.9 -21.0 -37.7 -17.1 -32.55 -14.05 -34.1 -9.8 -35.7 -2.1 -38.65 4.95 -40.25 -0.35 -41.8 -4.95 -46.75 -6.95 -48.9 -8.45 -51.3 -11.35 -53.0 -13.25 -57.5 -14.65 -60.75 -15.1 -64.15 L-25.6 -82.0 Q-25.6 -85.1 -22.5 -85.1 -19.85 -85.1 -19.1 -83.85 -18.0 -81.85 -16.85 -81.25 L-16.75 -83.5 Q-16.5 -84.15 -15.75 -84.45 -15.5 -87.35 -14.25 -89.75 -11.5 -95.0 -5.0 -95.0 -0.1 -95.0 2.5 -92.85 L2.75 -92.65 Q4.9 -94.15 9.05 -95.6 17.1 -98.5 22.75 -98.5 27.3 -98.5 28.0 -92.85 M11.25 -62.2 Q10.35 -61.1 9.0 -61.1 6.15 -61.1 6.75 -63.35 6.75 -67.35 9.5 -67.35 12.15 -67.35 12.0 -64.1 12.0 -63.15 11.25 -62.2 M15.3 -49.85 Q14.4 -46.25 11.8 -46.25 7.7 -46.25 6.55 -48.0 6.0 -48.9 6.25 -49.9 6.25 -54.25 11.5 -54.25 15.05 -54.25 15.3 -49.85 M67.2 -45.85 Q67.5 -45.75 67.5 -45.0 67.5 -42.25 63.5 -35.85 59.5 -29.5 57.5 -29.0 L56.3 -29.1 Q56.0 -29.6 56.0 -30.05 56.0 -31.1 59.8 -37.1 63.85 -43.65 66.5 -46.0 L67.2 -45.85 M66.45 -15.4 L65.9 -15.35 Q62.1 -15.35 61.05 -17.05 L60.8 -18.9 Q60.8 -19.6 73.1 -34.5 85.25 -49.25 85.5 -49.25 L90.25 -43.1 88.85 -41.15 Q89.8 -40.75 89.8 -39.4 89.8 -38.65 80.8 -28.0 73.15 -18.95 70.75 -17.4 L73.3 -14.05 Q78.25 -8.25 82.5 -8.25 88.9 -8.25 91.75 -5.75 93.5 -4.25 93.5 -2.55 84.4 16.85 80.4 19.55 82.3 22.05 86.0 29.5 91.3 40.15 91.3 40.85 L91.25 41.5 91.0 41.8 Q88.0 40.05 82.45 30.5 77.3 21.65 77.3 19.9 L77.35 19.65 Q76.0 18.95 76.0 17.15 L77.55 11.35 Q78.5 7.0 78.5 5.75 78.5 -0.1 71.15 -5.7 68.65 -7.5 66.1 -9.35 63.8 -11.15 63.8 -12.35 63.8 -13.7 64.0 -14.1 64.5 -15.1 66.5 -15.25 L66.45 -15.4 M1.5 30.05 Q-1.7 30.05 -2.7 28.75 -5.9 35.0 -9.05 38.35 -7.55 39.45 -7.5 42.0 L-7.5 42.3 -6.5 41.55 Q-5.35 42.8 -4.5 45.55 L-3.25 50.05 Q-3.5 50.5 -4.35 50.55 -7.75 46.4 -7.75 43.1 L-7.75 42.95 Q-8.55 44.7 -11.9 47.55 L-13.35 48.75 -12.25 53.35 -11.4 57.9 Q-3.05 51.5 -2.5 51.5 2.1 51.5 4.5 59.5 L4.15 61.65 5.7 65.8 6.4 61.5 Q7.3 56.6 7.3 51.0 7.3 49.85 8.95 47.55 L10.55 45.0 Q10.55 43.2 8.8 38.7 L8.0 38.75 Q5.15 38.75 4.25 35.05 4.25 32.5 6.65 32.15 L6.2 29.35 1.5 30.05 M-81.25 -51.55 L-93.5 -35.95 Q-105.6 -19.95 -105.75 -14.15 L-95.0 -3.3 -95.1 -1.6 -95.05 -1.3 Q-95.1 -1.0 -95.85 -1.0 -97.7 -1.0 -98.6 -2.5 L-99.1 -2.35 -96.2 0.45 Q-94.1 2.15 -94.1 2.85 -94.1 4.1 -94.35 4.3 L-96.6 4.8 Q-97.8 4.8 -101.75 0.55 -104.8 -2.75 -106.25 -4.75 L-106.9 -5.85 Q-107.85 -6.65 -108.45 -9.1 L-108.55 -9.4 Q-109.85 -12.7 -109.85 -13.9 -109.85 -15.65 -108.9 -16.15 -107.65 -22.85 -98.55 -35.6 -89.0 -49.1 -83.25 -52.35 -84.0 -52.8 -84.0 -53.85 L-83.7 -54.6 -83.85 -55.05 Q-83.85 -57.35 -81.5 -57.35 -68.55 -57.35 -49.5 -35.5 -49.5 -34.9 -49.9 -34.35 -50.25 -33.85 -50.85 -33.6 L-50.6 -33.25 -50.25 -31.75 Q-50.25 -29.7 -55.85 -25.0 -62.2 -19.75 -67.5 -19.75 -70.6 -19.75 -71.75 -21.0 L-74.25 -21.1 Q-74.4 -19.25 -76.5 -19.25 -82.3 -19.25 -86.35 -22.25 -88.4 -23.75 -89.25 -25.25 -89.25 -29.65 -71.4 -29.75 -72.5 -32.35 -73.5 -36.0 -73.5 -38.75 -71.5 -38.75 L-71.1 -38.35 -71.1 -38.5 -69.5 -38.85 Q-68.55 -38.85 -65.8 -34.6 -63.3 -30.75 -62.0 -27.85 L-55.0 -33.95 Q-60.15 -35.85 -70.6 -43.6 -78.05 -49.15 -81.3 -52.05 L-81.25 -51.55 M-26.85 -90.65 Q-30.1 -93.25 -30.1 -94.0 -30.1 -97.1 -27.0 -97.1 -21.35 -97.1 -18.25 -90.4 -18.25 -87.75 -21.0 -87.75 -23.3 -87.75 -26.85 -90.65 M-56.5 -66.1 Q-51.65 -66.1 -44.0 -57.6 -37.45 -50.3 -33.75 -42.85 L-34.85 -42.35 -49.0 -56.2 Q-57.6 -64.35 -57.6 -64.9 L-57.5 -65.85 -56.5 -66.1 M-25.5 -28.45 L-25.45 -28.3 -25.35 -28.4 -25.5 -28.45 M-27.25 27.55 Q-27.25 29.15 -35.9 41.8 L-42.1 50.45 -41.75 51.1 Q-40.35 53.8 -39.2 56.55 -36.7 57.4 -30.95 61.0 -23.3 65.75 -21.75 65.75 L-16.45 61.75 Q-17.25 59.95 -17.7 57.05 L-18.0 51.25 -20.0 51.55 Q-24.55 51.55 -24.6 46.85 -24.6 44.8 -21.25 41.5 -20.55 40.8 -19.8 40.25 L-19.75 40.0 -18.25 38.25 Q-19.45 37.75 -19.1 36.35 -19.1 36.0 -18.1 35.0 -17.1 34.05 -17.1 33.5 L-17.6 30.05 -17.85 29.8 -18.6 30.65 Q-19.25 31.25 -20.0 31.25 -25.0 31.25 -26.25 27.6 L-27.4 26.8 -27.25 27.55" fill="#000000" fill-opacity="0.2627451" fill-rule="evenodd" stroke="none"/>
    <path d="M17.5 -128.5 L17.65 -128.4 Q19.05 -126.9 33.6 -101.95 L34.0 -101.25 33.95 -100.75 32.95 -97.7 Q39.1 -97.15 46.0 -94.95 51.75 -93.1 54.7 -91.05 55.1 -91.5 56.0 -91.5 L58.55 -90.1 57.05 -90.0 Q56.8 -90.65 56.8 -89.4 56.8 -88.25 60.6 -85.9 L66.35 -82.45 66.45 -82.6 66.95 -82.1 69.05 -80.9 Q81.15 -73.4 81.25 -67.55 L81.65 -67.0 Q81.95 -67.85 83.25 -67.85 85.15 -67.85 86.8 -55.6 L86.6 -53.6 Q88.55 -50.25 92.55 -41.35 97.35 -30.65 100.3 -22.6 102.85 -20.7 106.55 -11.85 L107.9 -8.5 Q110.75 -1.25 112.8 6.3 116.25 19.15 116.25 35.35 116.25 44.9 114.25 58.0 112.55 69.05 110.45 75.75 L109.25 79.0 108.5 79.25 Q107.25 78.0 107.25 77.6 L107.6 75.55 95.75 74.75 95.75 74.8 95.0 75.25 92.8 75.25 Q92.6 75.15 92.6 74.5 L92.55 73.85 Q93.5 69.5 93.5 68.25 93.5 51.85 84.05 35.3 74.55 21.6 74.55 19.35 74.55 16.05 76.05 7.3 76.7 3.45 77.3 1.0 75.5 -2.4 71.15 -5.7 68.65 -7.5 66.1 -9.35 63.8 -11.15 63.8 -12.35 L63.8 -12.55 Q59.45 -16.9 58.55 -18.3 L58.4 -18.4 56.8 -19.7 56.0 -19.7 Q53.7 -19.7 51.7 -21.6 L48.45 -17.25 43.25 -5.2 44.4 -2.55 45.45 0.05 46.75 1.55 46.0 1.5 46.1 1.8 46.85 3.8 50.25 8.1 Q52.25 10.75 52.25 13.6 L52.0 15.95 54.0 19.6 Q57.05 25.05 57.05 26.05 57.05 27.55 54.65 34.2 56.3 37.85 56.3 39.95 L55.8 46.35 53.25 52.9 53.5 53.5 Q51.55 66.05 49.4 74.25 50.7 74.3 50.8 74.95 50.95 76.2 51.55 76.8 L51.4 77.7 48.8 77.3 48.55 77.4 46.25 83.75 Q47.5 82.8 47.5 81.25 L48.5 81.0 52.75 81.55 Q52.75 82.0 53.05 82.85 53.05 84.25 51.25 84.95 L45.0 86.1 Q42.85 89.75 40.5 89.75 36.35 88.3 35.3 88.3 32.65 89.75 31.5 89.75 29.35 89.75 28.0 88.55 28.3 90.3 27.05 90.3 L19.25 90.3 Q9.3 104.85 -2.55 99.0 -8.65 96.0 -12.7 90.0 -17.05 89.9 -22.7 89.95 -30.7 90.05 -32.25 88.5 -32.35 89.25 -33.6 90.3 L-37.45 89.85 Q-32.9 93.85 -31.35 95.5 L-31.25 96.15 Q-31.25 96.55 -32.0 96.55 -33.5 96.55 -44.05 89.2 L-43.75 89.75 -43.75 90.3 -45.4 88.2 -55.1 81.25 -54.85 80.4 Q-54.6 79.8 -53.75 79.8 -51.35 81.1 -49.8 81.7 L-50.65 80.3 Q-54.2 76.65 -54.35 74.55 L-54.0 74.35 Q-58.55 66.0 -64.1 54.15 L-69.5 42.4 Q-75.75 31.8 -75.75 27.9 L-75.65 26.95 -75.85 25.85 Q-75.85 23.85 -75.15 23.05 L-74.0 22.1 Q-84.3 21.0 -91.5 14.8 -96.65 10.4 -98.65 4.75 L-103.3 2.6 Q-107.4 0.15 -108.25 -3.25 L-110.6 -13.85 Q-110.6 -19.65 -95.05 -40.45 L-95.1 -41.35 -90.55 -47.0 -83.85 -55.35 Q-83.7 -56.95 -82.25 -57.25 L-82.1 -57.45 -82.45 -58.15 Q-83.75 -59.35 -83.75 -59.9 -83.75 -61.75 -82.0 -61.75 L-80.95 -61.4 -77.55 -65.9 Q-72.2 -72.45 -65.5 -79.1 -47.05 -97.35 -37.5 -97.35 -35.5 -97.35 -32.05 -96.4 L-29.75 -95.75 Q-29.05 -97.1 -27.0 -97.1 L-24.15 -96.6 -21.7 -97.2 -21.75 -97.75 -21.75 -97.95 Q-21.6 -99.8 -19.0 -104.25 -15.75 -109.75 -11.1 -114.65 -8.15 -117.8 -5.05 -120.2 4.6 -127.8 15.45 -128.45 L17.5 -128.5 M49.4 -90.15 Q57.0 -83.0 61.4 -81.5 56.5 -85.75 55.0 -88.1 L49.4 -90.15 M31.95 -94.95 L34.85 -94.7 35.7 -94.6 33.0 -95.1 32.0 -95.0 31.95 -94.95 M82.25 -63.8 L82.35 -63.6 82.25 -64.0 82.25 -63.8 M81.8 -60.1 L81.75 -59.4 Q81.75 -58.0 83.25 -54.4 L83.3 -55.35 84.0 -55.35 84.05 -55.5 Q84.05 -57.3 82.8 -62.1 L82.0 -60.95 81.8 -60.1 M103.75 -7.3 L103.1 -8.85 103.0 -7.05 103.75 -7.3 M52.55 21.9 L52.7 22.8 53.1 22.85 52.55 21.9 M53.25 45.1 L53.05 44.65 52.7 47.0 Q53.25 45.75 53.25 45.1 M4.4 31.85 Q3.75 30.75 2.0 30.75 0.8 30.75 -0.05 31.8 L0.3 32.35 1.7 34.4 2.0 34.05 3.5 35.5 Q3.5 37.9 2.35 44.1 L1.7 47.3 Q2.75 47.65 2.75 48.6 2.75 49.1 0.55 51.45 L1.4 53.35 Q3.25 55.35 4.5 59.5 L4.5 60.05 5.2 59.8 Q5.8 57.15 7.25 53.4 L7.3 51.0 Q7.3 49.9 8.75 47.85 L8.55 46.8 4.25 39.85 Q4.0 37.45 4.05 35.5 4.05 33.35 4.4 31.85 M-52.65 -26.35 L-53.75 -24.9 Q-54.55 -24.15 -56.3 -23.2 L-59.5 -20.8 -53.95 -18.55 Q-43.3 -14.75 -33.8 -6.6 L-33.8 -6.75 Q-35.1 -7.95 -35.0 -9.45 L-34.4 -9.8 -34.35 -9.9 -34.5 -12.05 -48.85 -26.1 -50.85 -28.1 -52.65 -26.35 M-57.75 61.5 L-58.85 59.05 -59.3 58.35 -57.75 61.5" fill="url(#gradient12)" fill-rule="evenodd" stroke="none"/>
  </g>
  <defs>
    <radialGradient cx="0" cy="0" gradientTransform="matrix(0.0516, 0.0, 0.0, 0.0516, 91.0, -9.0)" gradientUnits="userSpaceOnUse" id="gradient0" r="819.2" spreadMethod="pad">
      <stop offset="0.0" stop-color="#ffcc66"/>
      <stop offset="1.0" stop-color="#d89738"/>
    </radialGradient>
    <radialGradient cx="0" cy="0" gradientTransform="matrix(0.1245, 0.0, 0.0, 0.1245, -94.5, -9.5)" gradientUnits="userSpaceOnUse" id="gradient1" r="819.2" spreadMethod="pad">
      <stop offset="0.5372549019607843" stop-color="#3c465e"/>
      <stop offset="1.0" stop-color="#99729e"/>
    </radialGradient>
    <radialGradient cx="0" cy="0" gradientTransform="matrix(0.1129, 0.0, 0.0, 0.1129, 2.5, 8.5)" gradientUnits="userSpaceOnUse" id="gradient2" r="819.2" spreadMethod="pad">
      <stop offset="0.5372549019607843" stop-color="#3c465e"/>
      <stop offset="1.0" stop-color="#99729e"/>
    </radialGradient>
    <radialGradient cx="0" cy="0" gradientTransform="matrix(0.111, 0.0, 0.0, 0.111, -4.8, -48.55)" gradientUnits="userSpaceOnUse" id="gradient3" r="819.2" spreadMethod="pad">
      <stop offset="0.6588235294117647" stop-color="#bfbfbf"/>
      <stop offset="1.0" stop-color="#ffffff"/>
    </radialGradient>
    <radialGradient cx="0" cy="0" gradientTransform="matrix(0.1219, 0.0, 0.0, 0.1219, 4.0, -2.0)" gradientUnits="userSpaceOnUse" id="gradient4" r="819.2" spreadMethod="pad">
      <stop offset="0.6588235294117647" stop-color="#bfbfbf"/>
      <stop offset="1.0" stop-color="#ffffff"/>
    </radialGradient>
    <radialGradient cx="0" cy="0" gradientTransform="matrix(0.0303, 0.0, 0.0, 0.0303, -18.65, 48.65)" gradientUnits="userSpaceOnUse" id="gradient5" r="819.2" spreadMethod="pad">
      <stop offset="0.0" stop-color="#4d4d4d"/>
      <stop offset="1.0" stop-color="#0d0d0d"/>
    </radialGradient>
    <radialGradient cx="0" cy="0" gradientTransform="matrix(0.0906, 0.0, 0.0, 0.0906, -70.0, 4.5)" gradientUnits="userSpaceOnUse" id="gradient6" r="819.2" spreadMethod="pad">
      <stop offset="0.0" stop-color="#ffcc66"/>
      <stop offset="1.0" stop-color="#d89738"/>
    </radialGradient>
    <radialGradient cx="0" cy="0" gradientTransform="matrix(0.0596, 0.0, 0.0, 0.0596, 7.0, -88.0)" gradientUnits="userSpaceOnUse" id="gradient7" r="819.2" spreadMethod="pad">
      <stop offset="0.0" stop-color="#ffcc66"/>
      <stop offset="1.0" stop-color="#d89738"/>
    </radialGradient>
    <radialGradient cx="0" cy="0" gradientTransform="matrix(0.0031, 0.0, 0.0, 0.0031, 31.5, -86.0)" gradientUnits="userSpaceOnUse" id="gradient8" r="819.2" spreadMethod="pad">
      <stop offset="0.0" stop-color="#ffcc66"/>
      <stop offset="1.0" stop-color="#d89738"/>
    </radialGradient>
    <radialGradient cx="0" cy="0" gradientTransform="matrix(0.007, 0.0, 0.0, 0.007, 32.0, -74.0)" gradientUnits="userSpaceOnUse" id="gradient9" r="819.2" spreadMethod="pad">
      <stop offset="0.0" stop-color="#ffcc66"/>
      <stop offset="1.0" stop-color="#d89738"/>
    </radialGradient>
    <radialGradient cx="0" cy="0" gradientTransform="matrix(0.1061, 0.0, 0.0, 0.0525, 2.5, -89.0)" gradientUnits="userSpaceOnUse" id="gradient10" r="819.2" spreadMethod="pad">
      <stop offset="0.0" stop-color="#f3f258"/>
      <stop offset="0.6627450980392157" stop-color="#eeab11" stop-opacity="0.7411765"/>
      <stop offset="1.0" stop-color="#d89738" stop-opacity="0.0"/>
    </radialGradient>
    <radialGradient cx="0" cy="0" gradientTransform="matrix(0.0909, 0.0, 0.0, 0.0909, 96.0, 2.0)" gradientUnits="userSpaceOnUse" id="gradient11" r="819.2" spreadMethod="pad">
      <stop offset="0.0" stop-color="#ffcc66"/>
      <stop offset="1.0" stop-color="#d89738"/>
    </radialGradient>
    <radialGradient cx="0" cy="0" gradientTransform="matrix(0.1727, 0.0, 0.0, 0.1727, 3.0, 10.0)" gradientUnits="userSpaceOnUse" id="gradient12" r="819.2" spreadMethod="pad">
      <stop offset="0.5254901960784314" stop-color="#ffcc00" stop-opacity="0.0"/>
      <stop offset="1.0" stop-color="#ff9900"/>
    </radialGradient>
  </defs>
</svg>
