<?xml version="1.0" encoding="UTF-8" standalone="no"?>
<svg xmlns:ffdec="https://www.free-decompiler.com/flash" xmlns:xlink="http://www.w3.org/1999/xlink" ffdec:objectType="shape" height="163.1px" width="250.0px" xmlns="http://www.w3.org/2000/svg">
  <g transform="matrix(1.0, 0.0, 0.0, 1.0, 125.0, 81.05)">
    <path d="M125.0 75.0 L-125.0 75.0 -125.0 -75.0 125.0 -75.0 125.0 75.0" fill="#b7bdc8" fill-rule="evenodd" stroke="none"/>
    <path d="M-125.0 -75.0 L125.0 -75.0 125.0 75.0 -125.0 75.0 -125.0 -75.0" fill="url(#gradient0)" fill-rule="evenodd" stroke="none"/>
    <path d="M-76.1 -81.05 L54.55 -81.05 Q54.65 -78.55 54.85 -77.45 57.05 -65.9 57.05 -64.15 56.75 -59.9 55.85 -57.4 54.6 -53.85 52.1 -53.8 49.5 -53.85 47.0 -59.8 L46.9 -59.8 Q42.3 -59.8 34.7 -61.4 26.65 -63.2 24.7 -64.85 L21.6 -61.3 Q19.95 -59.5 18.25 -59.5 14.3 -59.5 14.5 -62.65 14.5 -63.35 16.5 -66.75 L14.5 -65.1 Q8.1 -59.25 3.45 -57.75 0.6 -56.75 -3.2 -54.25 -6.3 -52.2 -7.4 -52.2 -11.7 -52.2 -11.5 -55.55 -11.55 -57.5 -1.3 -68.2 L-1.6 -68.3 Q-4.05 -69.15 -7.3 -67.9 -11.2 -66.45 -13.35 -65.75 -19.2 -63.9 -21.6 -63.85 -26.6 -63.85 -28.7 -64.95 L-30.55 -64.0 Q-34.1 -61.9 -46.9 -50.1 -49.3 -50.1 -48.9 -52.2 -48.9 -54.35 -45.3 -58.15 L-39.85 -64.0 Q-41.0 -64.65 -40.9 -66.95 -40.85 -69.25 -42.1 -70.0 L-46.5 -70.95 Q-48.85 -71.45 -49.05 -74.2 -51.55 -72.95 -53.2 -70.85 L-56.75 -66.5 -60.1 -62.25 Q-63.1 -59.25 -67.6 -59.95 L-67.8 -59.95 Q-66.45 -53.55 -66.45 -52.1 -66.45 -51.05 -66.85 -50.45 -67.45 -49.55 -68.8 -49.55 -73.45 -49.55 -75.7 -75.5 L-76.1 -81.05" fill="url(#gradient1)" fill-rule="evenodd" stroke="none"/>
    <path d="M-66.85 -50.45 Q-66.45 -51.05 -66.45 -52.1 -66.45 -53.55 -67.8 -59.95 L-67.6 -59.95 Q-63.1 -59.25 -60.1 -62.25 L-56.75 -66.5 -53.2 -70.85 Q-51.55 -72.95 -49.05 -74.2 -48.85 -71.45 -46.5 -70.95 L-42.1 -70.0 Q-40.85 -69.25 -40.9 -66.95 -41.0 -64.65 -39.85 -64.0 L-45.3 -58.15 Q-48.9 -54.35 -48.9 -52.2 -49.3 -50.1 -46.9 -50.1 -34.1 -61.9 -30.55 -64.0 L-28.7 -64.95 Q-26.6 -63.85 -21.6 -63.85 -19.2 -63.9 -13.35 -65.75 -11.2 -66.45 -7.3 -67.9 -4.05 -69.15 -1.6 -68.3 L-1.3 -68.2 Q-11.55 -57.5 -11.5 -55.55 -11.7 -52.2 -7.4 -52.2 -6.3 -52.2 -3.2 -54.25 0.6 -56.75 3.45 -57.75 8.1 -59.25 14.5 -65.1 L16.5 -66.75 Q14.5 -63.35 14.5 -62.65 14.3 -59.5 18.25 -59.5 19.95 -59.5 21.6 -61.3 L24.7 -64.85 Q26.65 -63.2 34.7 -61.4 42.3 -59.8 46.9 -59.8 L47.0 -59.8 Q49.5 -53.85 52.1 -53.8 54.6 -53.85 55.85 -57.4 56.9 -48.65 56.9 -43.55 L56.9 -43.0 Q59.55 -45.25 61.8 -46.15 63.25 -46.75 64.55 -46.75 70.35 -46.75 71.55 -42.0 71.85 -40.5 71.75 -38.65 L71.55 -36.95 Q71.5 -27.2 66.25 -11.65 64.1 -5.4 61.8 0.05 59.35 5.8 56.7 10.65 52.65 17.9 50.9 27.15 49.8 32.3 48.95 41.2 47.95 48.2 45.85 51.05 L43.95 52.8 45.45 56.45 Q47.5 61.7 49.9 71.3 L52.5 82.05 -48.0 82.05 Q-45.2 43.55 -45.2 40.35 -45.2 39.45 -50.0 31.05 L-56.2 20.35 Q-63.05 12.9 -63.75 11.15 L-67.3 2.25 Q-71.35 -6.35 -75.2 -17.2 -77.8 -24.05 -81.4 -28.4 -83.6 -31.05 -83.6 -35.6 -83.6 -40.05 -82.45 -42.1 -80.55 -45.3 -75.1 -45.3 -69.25 -45.3 -65.35 -42.5 L-65.75 -43.85 -66.8 -50.25 -66.85 -50.45 M-31.15 37.05 L-31.5 36.85 -31.1 37.55 -30.8 37.9 -31.15 37.05" fill="url(#gradient2)" fill-rule="evenodd" stroke="none"/>
    <path d="M-76.1 -81.05 L-75.7 -75.5 -76.65 -78.55 -76.35 -81.05 -76.1 -81.05" fill="#003366" fill-rule="evenodd" stroke="none"/>
    <path d="M-13.2 -16.5 L-13.35 -16.65 Q-13.35 -11.4 -15.25 -11.4 -18.45 -11.4 -17.85 -13.75 -17.9 -16.9 -17.55 -20.05 L-18.75 -19.9 Q-23.7 -19.8 -27.05 -17.8 L-33.7 -17.8 -39.55 -19.2 Q-40.35 -19.5 -40.85 -19.9 L-42.1 -19.4 Q-43.9 -19.45 -45.55 -24.9 L-47.0 -18.65 -47.35 -17.55 Q-47.0 -17.65 -46.55 -17.35 L-47.7 -6.15 -48.05 -6.15 -48.6 -13.1 -48.5 -15.45 Q-49.3 -14.55 -50.3 -14.55 -52.65 -14.6 -52.45 -16.55 -52.35 -17.6 -51.65 -19.4 L-51.65 -19.65 Q-54.45 -13.45 -56.65 -12.65 -56.5 -18.2 -53.05 -26.6 L-50.95 -31.25 Q-51.25 -32.5 -51.15 -34.05 L-53.05 -37.4 -54.35 -40.1 Q-54.35 -44.35 -42.6 -51.35 -37.1 -54.7 -32.75 -56.35 -32.7 -58.2 -30.15 -58.2 L-27.5 -57.95 -24.95 -58.2 Q-21.95 -58.2 -20.05 -55.9 L-17.75 -55.1 Q-16.85 -54.75 -15.25 -52.1 -13.7 -49.55 -13.7 -48.5 -13.7 -47.75 -14.3 -46.8 -15.05 -45.85 -15.65 -45.8 L-16.2 -45.85 Q-16.9 -44.7 -18.7 -43.3 -22.45 -40.45 -28.25 -40.45 L-40.25 -41.1 Q-41.25 -39.75 -45.05 -38.2 L-45.45 -38.05 Q-41.75 -37.95 -41.75 -36.25 L-42.8 -32.5 Q-42.8 -31.7 -43.55 -30.2 L-41.25 -23.1 Q-38.35 -27.95 -37.8 -27.95 L-35.0 -25.9 Q-32.55 -23.9 -28.55 -23.9 -22.9 -23.95 -22.05 -25.25 -21.25 -26.7 -19.2 -26.65 -18.0 -26.65 -16.9 -25.0 L-15.75 -31.45 Q-15.75 -32.75 -17.05 -35.05 -13.8 -43.1 -12.5 -43.05 L-11.75 -42.85 Q-11.15 -43.45 -10.15 -43.85 -11.05 -45.2 -11.0 -46.1 L-5.85 -52.45 5.35 -51.6 Q12.9 -51.6 12.3 -47.4 12.25 -46.1 10.6 -43.85 L12.4 -42.0 Q13.9 -45.6 16.0 -45.6 18.5 -45.6 18.35 -42.7 18.35 -41.85 17.75 -39.95 L19.0 -39.35 Q19.3 -39.95 19.3 -38.55 L19.3 -38.45 Q21.7 -37.65 24.0 -35.5 27.45 -32.35 33.35 -31.15 34.4 -34.2 41.25 -37.15 42.4 -37.2 43.5 -35.05 44.5 -32.95 46.1 -32.95 46.7 -32.95 47.5 -33.55 48.25 -34.2 48.9 -34.2 52.25 -34.2 52.05 -30.15 52.05 -24.85 50.35 -22.7 48.0 -19.8 42.2 -18.8 L42.2 -17.95 Q42.2 -8.1 27.35 -8.1 19.95 -8.1 14.8 -13.6 15.0 -10.85 16.35 -8.55 19.35 -3.55 27.65 -3.55 31.75 -3.55 35.5 -5.45 39.6 -7.65 41.55 -7.85 36.95 -0.6 27.85 -0.6 19.35 -0.65 15.85 -6.15 13.95 -9.15 13.95 -12.3 13.95 -13.6 14.3 -14.2 L12.4 -16.65 Q9.55 -20.95 8.5 -25.5 8.5 -26.35 8.65 -26.95 7.35 -27.7 7.2 -29.5 L1.2 -28.4 -9.25 -26.85 -9.4 -23.85 -9.6 -22.7 -9.95 -21.55 Q-10.35 -20.6 -9.8 -17.25 -9.1 -12.55 -11.1 -11.25 -12.45 -11.85 -12.75 -13.5 L-13.15 -16.4 -13.2 -16.5 M6.8 17.4 Q8.4 18.85 8.95 22.25 9.4 25.15 9.0 28.2 7.15 33.95 3.95 33.95 2.8 33.95 -3.1 18.55 L-2.9 17.05 Q-2.4 15.45 -0.6 15.45 1.65 16.35 3.7 16.35 5.55 16.3 6.8 17.4 M7.3 -33.1 L7.4 -34.55 -2.8 -33.55 -3.0 -33.5 -3.1 -33.55 -6.05 -33.5 Q-8.75 -33.5 -9.2 -34.95 L-9.3 -35.0 -9.2 -30.65 -5.4 -31.85 Q-0.15 -33.2 3.2 -33.2 L7.3 -33.1 M47.45 -38.9 Q49.3 -38.95 49.2 -37.0 49.2 -36.25 48.55 -35.3 47.65 -34.2 46.45 -34.2 44.6 -34.2 44.6 -36.1 44.6 -36.65 45.2 -37.6 46.1 -38.95 47.45 -38.9 M55.45 -1.3 Q55.45 0.25 42.7 20.3 41.2 20.3 40.5 18.15 40.05 16.8 40.05 15.75 40.0 11.7 45.05 5.75 50.05 -0.15 50.05 -2.7 L48.8 -9.9 Q48.75 -14.1 51.7 -14.1 55.1 -14.1 55.45 -1.3 M-34.35 -50.15 L-39.95 -46.95 -36.4 -46.45 Q-31.5 -46.5 -25.95 -48.0 L-22.1 -48.95 -23.85 -50.95 -27.85 -52.55 Q-31.15 -52.0 -34.35 -50.15 M-45.8 -43.5 L-45.5 -43.6 -45.5 -43.65 -45.8 -43.5 M-77.9 -30.55 Q-75.75 -30.6 -70.4 -23.55 -72.6 -28.6 -72.6 -29.8 -72.6 -32.55 -70.2 -32.55 -64.4 -32.55 -59.85 -16.65 -57.65 -8.75 -56.6 -0.55 -56.6 2.35 -59.25 2.35 -61.8 2.35 -63.65 -4.05 L-65.0 -9.5 -66.45 -10.95 -66.95 -11.4 Q-68.8 -13.4 -69.25 -13.4 -69.9 -13.4 -69.85 -12.8 -69.9 -12.3 -70.5 -12.3 -73.9 -12.3 -80.2 -28.0 -80.25 -30.6 -77.9 -30.55 M-14.05 49.4 Q-14.05 50.85 -16.2 54.85 -18.7 59.4 -20.65 59.4 -24.2 59.4 -24.8 55.55 -24.85 53.5 -22.75 50.9 -20.05 47.45 -15.85 47.45 -14.8 47.45 -14.3 48.35 L-14.05 49.4 M25.25 45.7 Q26.9 45.7 29.35 51.45 29.35 53.45 27.4 53.5 23.9 53.45 22.9 48.0 22.9 45.7 25.25 45.7" fill="#000000" fill-opacity="0.5019608" fill-rule="evenodd" stroke="none"/>
    <path d="M-9.6 -22.7 Q-8.25 -22.45 -6.0 -14.85 L-7.0 1.95 Q-7.05 2.4 -5.75 3.5 -4.5 4.55 -3.9 4.55 L5.1 3.5 Q11.35 3.5 12.3 8.85 L6.8 17.4 Q5.55 16.3 3.7 16.35 1.65 16.35 -0.6 15.45 -2.4 15.45 -2.9 17.05 L-3.25 16.55 Q-7.2 10.75 -10.15 10.8 -11.15 10.75 -11.75 11.5 -12.35 12.1 -13.0 12.15 -15.05 12.1 -20.55 4.7 -20.55 2.3 -18.25 1.25 -15.85 0.2 -15.75 -2.1 -15.75 -6.35 -14.4 -8.9 -13.7 -10.3 -13.2 -16.5 L-13.15 -16.4 -12.75 -13.5 Q-12.45 -11.85 -11.1 -11.25 -9.1 -12.55 -9.8 -17.25 -10.35 -20.6 -9.95 -21.55 L-9.6 -22.7" fill="#000000" fill-opacity="0.3529412" fill-rule="evenodd" stroke="none"/>
    <path d="M-39.45 2.45 L-40.55 3.55 Q-43.25 3.5 -43.55 1.15 -43.55 -1.45 -41.1 -1.4 -38.55 -1.45 -38.55 0.5 -38.55 1.2 -39.45 2.45 M44.95 31.7 Q44.95 37.2 42.45 37.25 37.3 37.25 37.1 32.5 37.1 30.45 37.5 29.2 38.4 26.2 41.25 26.2 45.85 26.2 44.95 31.7 M31.05 10.3 Q26.25 10.3 26.7 6.65 26.7 4.3 29.15 4.3 32.3 4.3 32.55 7.55 32.55 10.3 31.05 10.3" fill="#000000" fill-opacity="0.21176471" fill-rule="evenodd" stroke="none"/>
    <path d="M54.8 -77.3 Q55.9 -77.3 56.45 -74.1 L56.35 -70.95 57.05 -69.75 56.45 -69.65 56.3 -69.8 56.05 -64.15 56.25 -66.2 57.05 -66.3 57.15 -65.8 57.25 -68.7 58.05 -68.7 Q59.05 -54.7 59.05 -46.85 L59.05 -46.65 Q60.45 -47.7 61.8 -48.25 63.35 -48.9 64.8 -48.9 66.95 -48.95 73.7 -36.35 L69.7 -27.4 Q65.3 -17.95 64.05 -12.45 63.9 -11.65 64.0 -6.55 64.05 -2.6 62.65 -0.45 L61.8 0.75 54.6 10.95 53.5 10.25 51.15 18.15 Q46.95 34.4 46.15 39.6 45.35 45.1 44.1 56.5 L47.9 73.25 Q49.05 77.9 50.35 82.05 L47.9 82.05 Q46.65 78.6 46.05 75.05 44.3 67.3 43.3 62.2 42.25 68.75 40.8 73.85 L40.95 75.1 Q40.9 76.55 37.75 82.05 L34.05 82.05 38.35 75.3 43.95 36.95 Q45.3 25.6 48.6 16.75 L51.95 5.55 52.7 2.9 52.05 2.8 Q51.75 3.3 51.8 2.0 55.95 -17.5 55.95 -21.2 L55.9 -21.95 Q55.5 -23.35 55.0 -26.5 L54.05 -29.95 54.2 -31.0 53.55 -35.4 Q52.25 -35.9 50.85 -36.8 48.1 -38.6 48.1 -39.55 L48.2 -40.15 48.4 -40.25 Q48.1 -41.05 48.1 -41.65 L48.2 -42.95 49.9 -43.15 Q51.6 -43.15 53.6 -41.8 53.7 -42.5 53.75 -41.25 L53.85 -41.65 54.0 -43.1 Q53.75 -43.45 53.6 -44.2 L53.15 -44.1 52.65 -46.4 52.65 -46.85 52.05 -48.2 Q51.45 -49.65 51.2 -50.55 47.15 -50.85 40.3 -57.25 36.7 -60.65 33.85 -64.1 L31.35 -67.25 Q28.85 -70.15 28.85 -72.5 28.85 -73.9 30.1 -74.15 31.45 -72.2 41.7 -64.45 51.05 -57.35 51.05 -56.0 51.05 -55.3 49.95 -54.5 L51.4 -53.2 53.15 -53.3 53.05 -51.25 53.15 -50.95 Q53.2 -62.7 54.8 -73.8 L54.35 -75.0 Q53.8 -75.55 53.85 -76.25 53.8 -77.55 54.1 -77.1 L54.8 -77.3 M41.55 -54.3 L42.3 -54.4 Q44.6 -54.4 46.4 -48.45 46.35 -47.4 45.55 -46.1 L42.3 -51.5 41.55 -50.85 Q40.85 -50.85 39.15 -51.95 37.4 -53.05 37.05 -53.05 34.25 -53.1 29.3 -50.95 25.1 -49.25 19.5 -48.95 L26.15 -47.7 Q28.1 -47.3 29.05 -46.35 L31.1 -46.65 33.55 -46.5 40.55 -46.85 Q41.65 -46.9 42.55 -45.75 L42.7 -44.95 Q42.55 -44.05 41.6 -43.9 44.1 -43.15 45.6 -40.6 45.6 -39.35 42.15 -38.35 L42.55 -38.2 42.55 -38.15 Q45.35 -37.35 45.55 -35.9 46.15 -33.6 46.15 -32.3 46.15 -31.45 44.7 -29.4 43.75 -30.8 43.75 -32.2 L43.8 -33.3 43.4 -32.65 Q42.55 -31.45 41.95 -31.2 L43.4 -29.8 Q43.4 -28.65 42.6 -28.45 L37.65 -28.35 Q31.15 -28.35 24.9 -29.8 L23.0 -30.3 23.9 -29.3 Q30.75 -21.95 41.05 -24.75 42.1 -24.45 42.1 -23.7 42.1 -22.95 39.7 -22.15 37.4 -21.45 35.55 -21.45 27.55 -21.45 21.4 -28.8 L19.2 -31.85 Q18.45 -32.35 18.2 -32.9 L15.8 -33.55 15.7 -34.2 Q15.7 -35.1 17.4 -35.15 L17.25 -35.35 Q15.55 -35.85 14.75 -36.7 14.15 -37.3 14.1 -38.85 L14.05 -38.85 15.0 -30.65 12.9 -30.5 Q12.2 -29.45 12.0 -25.85 L10.85 -25.15 10.65 -25.55 12.1 -7.75 11.6 -7.6 9.55 -22.7 Q7.95 -35.15 7.95 -37.05 7.9 -42.25 8.2 -46.1 L9.0 -46.1 9.3 -42.55 9.35 -42.85 Q9.95 -44.8 12.9 -45.75 L13.1 -45.65 Q11.4 -47.3 11.75 -48.9 12.2 -49.4 12.7 -49.5 9.5 -50.5 7.85 -52.95 8.25 -55.1 11.25 -54.0 L10.85 -54.8 10.95 -55.65 Q10.65 -56.1 11.9 -56.1 L13.75 -54.65 Q15.3 -53.2 16.85 -53.2 24.0 -53.2 30.6 -54.85 L37.35 -56.6 Q39.1 -56.65 41.45 -54.15 L41.55 -54.3 M57.05 -59.45 L55.45 -43.6 57.4 -45.35 58.35 -46.15 Q56.9 -48.55 57.05 -58.0 L57.05 -59.45 M7.95 -75.85 Q7.95 -75.0 -0.4 -65.7 L-11.4 -53.9 -11.4 -53.7 Q4.0 -61.0 18.0 -68.7 L18.8 -68.55 19.05 -67.65 Q19.05 -67.2 17.25 -64.95 15.45 -62.75 14.6 -62.25 14.25 -63.5 14.6 -63.45 L14.6 -63.85 Q-0.3 -56.5 -7.7 -52.9 L-7.0 -51.75 Q-6.2 -52.8 -5.4 -53.05 L-4.05 -51.55 -5.65 -39.95 -5.65 -39.6 Q-5.7 -39.35 -6.4 -39.35 -7.0 -39.35 -8.45 -40.35 -7.05 -27.1 -6.2 4.75 L-3.05 5.25 11.6 4.7 Q14.1 4.7 13.5 7.0 13.5 10.2 11.65 11.0 L8.95 17.6 Q5.7 25.35 5.6 28.05 5.0 28.05 5.0 28.55 3.3 26.9 1.2 23.8 -1.2 20.35 -2.5 18.9 L-2.3 18.65 Q-6.05 14.75 -13.15 11.65 -18.35 9.3 -18.9 9.05 -21.3 7.75 -21.3 6.45 -21.3 4.0 -19.4 1.5 -17.3 -1.4 -14.05 -2.45 -13.65 -2.8 -13.55 -2.05 L-13.5 -2.3 -12.5 -2.45 Q-12.95 2.75 -7.3 4.5 L-8.35 -16.2 -9.4 -41.05 -10.7 -42.25 -10.75 -42.2 -10.9 -41.95 Q-10.05 -39.85 -9.7 -37.7 -9.2 -34.95 -9.2 -28.65 -9.2 -19.25 -12.2 -11.05 L-12.5 -10.95 Q-12.85 -10.95 -12.85 -11.75 -10.85 -23.5 -10.85 -33.2 -10.85 -36.25 -11.75 -39.5 L-11.8 -39.05 -12.0 -37.8 -12.45 -37.75 -13.75 -34.55 -15.25 -30.45 Q-18.5 -31.7 -20.4 -31.7 -28.9 -31.7 -32.65 -30.65 L-36.3 -29.6 Q-40.5 -29.6 -42.55 -30.6 -40.3 -27.85 -37.05 -25.7 L-37.05 -25.5 Q-42.5 -25.8 -44.9 -30.4 L-46.4 -33.7 -46.45 -33.7 -45.55 -30.0 Q-44.3 -27.45 -40.65 -22.55 -45.3 -25.15 -47.65 -32.85 -49.05 -31.9 -49.3 -31.9 -53.3 -31.9 -51.8 -34.35 -51.8 -35.0 -52.4 -35.0 L-52.8 -35.15 -54.2 -33.0 Q-56.85 -29.0 -58.1 -28.1 L-58.3 -28.75 Q-58.35 -30.75 -56.3 -34.2 -54.45 -37.45 -52.95 -38.4 L-52.0 -38.2 Q-51.7 -38.1 -51.7 -37.3 L-49.65 -38.85 -50.45 -38.8 -51.7 -39.35 -51.3 -39.7 -51.8 -39.45 -51.95 -39.25 Q-52.2 -39.3 -52.2 -40.1 -52.2 -41.15 -44.9 -46.5 -38.05 -51.5 -36.0 -51.85 L-35.4 -52.05 -29.45 -52.95 -29.45 -53.05 -21.35 -53.2 Q-22.15 -52.85 -21.55 -52.05 L-33.4 -50.45 Q-42.6 -44.25 -48.7 -41.0 L-46.1 -41.6 -45.3 -41.7 Q-43.9 -42.5 -43.3 -42.5 -42.8 -42.5 -42.35 -42.1 L-41.6 -42.2 Q-38.85 -43.1 -30.0 -42.15 L-29.5 -42.1 -22.1 -43.85 -20.85 -43.95 -22.35 -45.1 Q-22.4 -46.75 -17.9 -49.4 -19.95 -50.6 -21.3 -51.9 -21.35 -52.95 -20.3 -52.95 -18.55 -52.95 -16.2 -50.9 -15.3 -52.65 -7.5 -61.2 1.55 -71.15 7.45 -76.5 7.95 -77.2 7.95 -75.85 M17.5 -63.55 Q19.5 -63.6 21.2 -61.1 L22.35 -64.25 Q23.4 -66.75 24.85 -66.9 L25.6 -66.85 25.75 -65.95 Q25.75 -64.55 24.7 -61.65 23.45 -58.5 23.25 -56.35 23.5 -55.95 22.25 -55.9 20.85 -55.95 18.7 -59.25 16.8 -62.2 16.6 -63.15 16.2 -63.6 17.5 -63.55 M6.5 -50.35 Q6.5 -48.85 5.85 -46.85 L5.55 -46.65 Q5.2 -46.6 5.2 -47.4 L5.35 -51.15 6.3 -51.35 6.5 -50.35 M31.85 -63.55 L30.1 -62.5 29.8 -62.75 31.1 -64.05 Q31.75 -63.85 31.85 -63.55 M37.7 -44.1 L36.25 -44.2 35.15 -43.55 37.7 -44.1 M39.5 -33.2 L42.2 -34.6 40.75 -35.15 Q38.6 -33.0 30.25 -32.4 L32.15 -32.3 Q37.35 -32.3 39.5 -33.2 M14.25 -44.0 L13.85 -42.55 14.75 -42.55 Q14.7 -43.65 15.1 -44.15 L14.0 -44.9 14.25 -44.0 M0.75 -44.8 Q-0.6 -46.15 -1.2 -48.8 L-2.0 -53.2 -1.0 -53.45 Q0.25 -53.5 0.75 -49.95 L1.15 -45.25 Q0.75 -45.25 0.75 -44.8 M61.8 -45.9 Q60.55 -45.35 59.2 -44.3 56.95 -42.65 55.45 -40.85 L55.85 -36.6 56.85 -36.0 57.05 -35.6 Q57.45 -34.9 56.25 -34.9 L56.05 -34.9 56.15 -33.95 56.85 -34.25 Q59.35 -35.2 61.45 -35.2 L61.8 -35.1 Q63.7 -34.05 63.25 -20.25 64.8 -24.65 67.3 -28.55 70.95 -34.4 70.95 -36.3 70.95 -36.75 64.55 -46.65 63.3 -46.65 61.8 -45.9 M60.8 -32.85 L58.05 -32.85 56.4 -31.95 57.0 -28.05 57.05 -27.9 57.05 -27.75 57.0 -27.8 57.4 -24.9 57.3 -23.95 57.35 -23.8 57.6 -18.3 Q57.6 -16.15 56.55 -11.05 57.1 -8.55 57.1 -6.35 L57.05 -5.35 57.85 -6.9 Q60.6 -12.6 60.6 -15.15 L60.8 -29.6 60.8 -32.85 M53.75 -41.15 Q53.7 -40.2 52.05 -39.45 L51.5 -39.2 53.5 -38.0 53.75 -40.75 53.75 -41.15 M49.4 -35.5 L51.8 -31.35 Q54.15 -31.1 54.1 -28.9 54.1 -26.95 51.05 -26.95 50.0 -26.95 48.4 -28.05 49.25 -30.55 50.35 -31.2 L47.55 -35.5 Q47.55 -35.8 48.9 -37.0 49.4 -36.15 49.4 -35.5 M54.6 -2.25 L54.9 -3.95 54.4 -1.85 54.6 -2.25 M61.35 -6.85 Q59.65 -3.85 56.25 0.6 L56.0 0.6 54.85 5.2 55.95 3.9 Q59.85 -0.55 60.55 -2.1 61.3 -3.8 61.35 -6.85 M6.1 7.65 Q-1.45 7.6 -6.15 6.35 L-6.0 11.5 -6.3 12.15 -6.7 12.15 -7.2 6.0 Q-9.4 5.3 -10.85 4.3 -13.65 2.45 -13.65 0.0 L-13.6 -1.45 -16.65 1.2 Q-19.75 4.1 -19.75 6.45 -19.8 7.65 -14.8 8.8 -9.05 10.05 -6.8 12.75 L-2.05 16.35 Q1.1 18.55 0.9 20.05 L3.75 23.0 Q7.7 11.8 10.8 8.5 L11.0 7.5 6.1 7.65 M6.9 39.15 L8.45 38.95 Q9.95 38.9 14.9 43.3 L15.75 43.9 17.2 44.6 19.55 45.35 20.75 45.25 Q22.15 45.25 24.5 46.55 27.05 47.95 27.1 49.3 L26.4 50.75 26.05 51.2 26.15 51.3 25.9 51.3 25.35 51.65 24.45 51.55 22.75 51.65 Q19.35 51.65 11.05 49.7 L1.65 47.7 Q-5.8 47.7 -12.35 50.6 -16.0 52.25 -21.55 55.4 -21.9 56.1 -21.85 54.85 L-21.8 54.2 -22.65 53.8 Q-22.15 53.3 -15.05 48.1 -14.4 46.4 -10.65 44.9 L-2.8 39.15 Q1.35 40.7 5.6 39.75 L6.8 40.1 6.9 39.15 M12.7 68.6 L12.7 69.85 6.7 69.0 Q3.95 69.0 2.05 70.05 0.15 71.1 -1.2 71.1 -5.35 71.1 -6.55 66.3 -5.9 65.55 -5.4 65.55 -4.55 65.55 -3.85 66.7 -3.2 67.8 -1.5 67.8 3.6 65.85 6.9 65.85 10.8 65.85 12.7 68.6 M-84.85 -45.85 L-83.35 -46.15 -77.2 -45.7 -75.4 -45.6 -74.65 -45.5 -73.3 -45.4 -71.0 -45.5 -73.3 -52.9 Q-77.0 -65.1 -77.0 -69.25 L-76.9 -76.4 Q-76.6 -79.1 -75.8 -81.05 L-74.75 -81.05 -74.95 -73.6 -70.75 -51.95 -71.05 -64.8 Q-71.15 -73.05 -70.2 -77.9 -67.8 -73.15 -67.1 -66.4 L-66.1 -66.9 Q-66.1 -69.25 -65.35 -72.7 -64.6 -76.45 -63.7 -77.45 -63.3 -76.65 -63.3 -74.4 -63.35 -68.05 -64.55 -57.65 L-57.95 -66.5 Q-47.85 -78.95 -43.05 -79.5 L-42.35 -79.45 Q-42.15 -79.4 -42.1 -78.6 -42.15 -78.05 -43.0 -76.6 -43.95 -75.15 -43.95 -74.05 L-43.95 -73.95 Q-40.95 -75.05 -39.1 -75.25 -38.3 -74.4 -37.55 -72.4 -38.25 -72.75 -39.4 -73.95 -42.75 -71.4 -44.05 -71.4 -45.3 -71.4 -45.75 -73.05 -46.1 -74.45 -45.8 -75.45 L-45.6 -75.85 Q-59.7 -64.65 -65.15 -52.4 -65.95 -45.7 -65.9 -43.55 L-66.15 -39.15 -66.6 -38.75 -66.85 -38.9 -66.45 -38.15 Q-63.6 -32.9 -63.15 -30.9 L-62.6 -27.35 Q-58.35 -13.6 -57.1 -8.25 -53.75 5.8 -54.4 16.35 -54.75 21.45 -51.2 28.9 L-45.1 41.05 Q-44.1 43.55 -42.9 51.8 L-42.55 53.2 -41.0 60.5 Q-40.1 62.45 -39.2 66.35 -37.3 75.2 -34.15 77.8 L-29.2 82.05 -34.3 82.05 -38.05 78.9 Q-39.85 77.55 -40.1 74.2 -40.45 70.0 -40.95 69.0 L-41.6 67.15 Q-41.75 75.95 -42.9 82.05 L-44.7 82.05 -44.75 79.15 -44.35 71.8 Q-44.35 62.8 -44.75 58.95 L-45.25 55.55 -45.55 54.4 Q-45.1 61.5 -45.25 68.8 -45.25 72.35 -46.4 82.05 L-49.9 82.05 Q-48.25 71.05 -48.25 63.0 -48.25 54.35 -50.95 43.55 L-53.75 33.35 -53.75 33.3 -57.45 26.2 Q-60.9 19.45 -61.15 14.5 L-61.7 13.65 Q-65.0 8.2 -67.2 6.3 -71.35 2.65 -72.15 -1.5 -72.7 -3.85 -73.1 -8.55 -73.6 -10.75 -72.8 -16.5 -73.05 -21.5 -79.1 -23.8 -83.0 -25.25 -83.95 -27.2 L-84.45 -30.65 Q-85.0 -34.9 -85.0 -37.85 L-84.85 -45.85 M-82.65 -44.05 L-82.8 -43.25 Q-82.8 -28.05 -80.15 -26.95 -72.05 -23.5 -70.8 -19.0 -70.45 -17.6 -70.55 -15.15 L-70.5 -11.3 Q-70.45 -6.05 -69.95 -3.45 -69.15 0.95 -64.75 4.75 -62.6 6.6 -60.8 9.05 -60.55 6.4 -60.55 3.55 -63.25 1.25 -64.3 -4.45 -65.2 -9.3 -64.85 -14.35 -64.85 -14.55 -67.1 -15.7 -69.75 -17.85 -71.75 -23.0 L-73.9 -31.45 Q-73.9 -32.6 -73.55 -32.8 L-69.7 -32.95 -66.25 -32.8 Q-68.25 -38.55 -72.25 -42.15 L-75.7 -42.1 Q-79.2 -42.1 -79.8 -42.7 L-79.9 -43.6 -79.9 -43.65 -82.1 -44.0 -82.65 -44.05 M-7.2 -76.65 Q-3.85 -74.75 -2.9 -72.55 L-2.9 -71.8 -3.8 -71.6 -7.45 -72.95 -10.85 -69.1 Q-13.35 -65.85 -14.45 -65.6 -15.75 -65.35 -22.65 -65.7 -31.5 -65.7 -43.75 -54.05 L-51.95 -45.75 -54.7 -41.35 Q-53.5 -41.05 -53.45 -40.15 L-61.85 -32.3 -63.4 -32.5 -63.6 -33.55 Q-63.6 -36.7 -56.2 -40.8 L-56.05 -41.4 -56.65 -40.75 -55.95 -41.75 Q-53.5 -49.55 -45.4 -62.5 -42.45 -67.25 -41.4 -68.25 L-40.25 -69.2 -38.15 -71.1 Q-33.5 -75.25 -32.45 -75.45 -32.35 -76.15 -32.35 -74.8 L-34.95 -71.35 -34.95 -71.15 -25.15 -73.75 Q-24.4 -74.25 -23.6 -74.85 -18.1 -79.0 -16.35 -79.0 -11.25 -79.0 -7.2 -76.65 M-33.75 -57.15 Q-28.8 -57.9 -26.7 -57.25 -28.05 -56.35 -32.25 -55.5 L-39.2 -54.3 -40.3 -55.1 Q-38.85 -56.35 -33.75 -57.15 M-31.05 -68.4 Q-40.5 -66.2 -43.85 -60.05 L-49.15 -50.6 -44.7 -55.55 Q-32.5 -68.2 -18.9 -68.2 -15.3 -68.2 -11.95 -71.4 L-9.6 -73.75 -15.3 -75.85 Q-16.7 -75.85 -22.25 -72.55 -28.3 -69.05 -31.05 -68.4 M-69.2 -65.1 L-69.05 -61.8 -69.0 -62.55 -69.2 -65.1 M-49.05 -25.6 L-48.95 -25.25 -49.7 -25.45 Q-50.25 -25.45 -51.3 -22.75 L-52.3 -19.65 -52.7 -19.65 Q-52.75 -20.9 -51.8 -23.0 -50.9 -25.1 -49.85 -26.15 -49.05 -26.9 -49.05 -25.6 M-65.75 -31.15 L-65.8 -31.35 Q-67.25 -30.8 -71.6 -30.5 -70.85 -29.3 -68.75 -21.95 -68.4 -20.55 -64.9 -18.05 -63.8 -17.25 -63.15 -16.4 L-64.85 -26.1 Q-65.7 -29.35 -65.75 -31.15 M-60.8 -1.95 Q-61.2 -6.8 -62.25 -12.15 -62.6 -7.2 -62.05 -5.0 -61.65 -3.4 -60.8 -1.95 M-46.85 -22.45 L-47.6 -17.9 Q-48.25 -14.75 -47.45 -12.1 L-48.05 -12.0 Q-48.8 -14.65 -48.8 -18.15 -48.8 -21.6 -47.05 -23.25 -46.85 -23.75 -46.85 -22.45 M-43.05 -19.6 Q-42.0 -19.6 -37.95 -16.1 L-33.75 -12.15 Q-34.0 -11.4 -34.85 -11.4 -39.2 -11.4 -42.05 -18.75 L-44.85 -18.35 Q-44.3 -19.6 -43.05 -19.6 M-20.0 -44.05 L-18.85 -44.2 -18.55 -44.4 -16.65 -45.65 Q-18.25 -45.1 -20.0 -44.05 M-15.2 -37.0 L-15.0 -37.4 -22.35 -36.5 -22.05 -34.05 -22.05 -33.7 -18.55 -33.7 Q-17.1 -33.75 -16.2 -35.0 -15.75 -35.65 -15.2 -37.0 M-31.65 -33.3 L-32.35 -35.15 -32.35 -35.35 Q-37.45 -34.75 -41.65 -32.95 -40.2 -32.2 -38.3 -32.2 -36.65 -32.2 -31.65 -33.3 M-30.75 -35.3 Q-30.8 -34.55 -29.75 -33.7 L-23.35 -33.7 -23.7 -36.3 -30.75 -35.5 -30.75 -35.3 M-33.75 -22.45 Q-30.1 -25.35 -23.7 -25.3 -19.95 -25.35 -19.25 -24.8 L-18.7 -23.85 Q-19.65 -23.15 -20.55 -23.15 -27.45 -23.15 -29.25 -22.4 -31.1 -21.65 -32.05 -21.65 -33.35 -21.65 -33.75 -22.45 M-3.35 42.45 L-2.65 42.25 -2.8 42.2 -3.35 42.45 M-58.6 10.95 L-58.65 12.35 -58.1 13.35 -58.3 6.5 -58.6 10.95" fill="url(#gradient3)" fill-rule="evenodd" stroke="none"/>
    <path d="M41.4 -51.75 Q41.35 -52.35 42.55 -54.05 43.7 -55.85 44.35 -55.8 46.75 -55.8 46.4 -50.5 46.4 -48.2 44.35 -48.2 42.7 -48.25 41.9 -49.9 41.35 -51.05 41.4 -51.75 M23.65 49.75 Q20.0 47.95 19.85 41.65 20.85 30.9 20.15 27.2 L20.15 20.4 Q17.15 25.45 16.7 29.2 L16.1 29.2 16.0 27.25 Q16.0 23.2 22.35 14.4 L22.25 13.45 Q23.65 8.4 23.7 7.1 23.65 1.65 22.25 -7.6 L22.35 -10.55 21.2 -11.9 10.25 -24.55 10.25 -25.6 11.9 -25.6 Q11.9 -25.25 11.5 -24.9 20.2 -16.7 23.9 -12.5 30.4 -5.4 31.25 -0.1 31.35 0.75 31.9 1.7 L34.95 -2.6 Q36.85 -6.5 45.45 -17.6 L49.45 -23.4 49.2 -24.9 Q49.2 -25.6 49.7 -26.35 50.25 -27.2 50.8 -27.2 L51.85 -26.85 55.55 -32.25 56.5 -32.1 56.75 -31.1 Q56.75 -29.95 53.0 -24.9 L53.4 -23.0 53.3 -21.65 Q53.2 -21.25 51.95 -21.2 51.1 -21.25 50.55 -21.65 L49.7 -20.6 49.8 -20.6 Q50.85 -13.25 51.3 -2.1 L52.35 -1.05 Q52.0 -0.1 51.4 0.2 L51.6 15.65 51.45 19.8 Q51.75 20.2 50.55 20.2 49.45 20.2 48.35 18.4 47.4 16.85 47.4 16.1 47.4 8.45 48.8 -19.4 L48.65 -19.25 Q38.9 -7.0 35.45 -0.7 L33.0 2.8 Q34.45 3.55 36.25 7.1 40.15 11.1 40.9 12.25 46.3 20.65 47.85 24.2 48.25 24.85 47.05 24.85 46.4 24.85 39.2 13.4 L41.9 31.25 Q44.55 49.4 44.55 52.6 44.5 53.3 43.3 55.9 43.9 56.1 42.7 56.1 41.6 56.1 37.6 18.95 L37.6 46.4 Q40.2 62.3 40.2 68.4 L40.05 71.55 Q40.25 71.95 39.05 71.95 37.3 71.95 35.85 58.55 L35.8 57.85 35.05 57.05 Q35.05 56.6 35.2 56.25 L35.6 56.2 Q34.65 46.9 34.4 37.85 33.4 26.25 33.25 20.5 33.2 17.1 30.9 5.6 L25.35 13.0 24.35 14.85 23.9 14.85 Q21.7 17.75 20.2 20.3 L20.8 20.3 21.85 35.6 22.65 43.45 Q22.85 44.65 25.2 46.4 27.35 48.05 27.55 50.1 28.25 50.45 27.05 50.45 25.25 50.45 23.95 49.9 L24.6 49.55 Q25.15 48.6 25.15 47.8 L23.8 46.3 Q23.8 47.2 23.2 47.55 L22.5 48.0 Q22.5 48.45 23.65 49.75 M32.2 -18.25 L33.0 -18.15 33.25 -17.2 Q32.85 -15.9 33.05 -15.1 L32.2 -14.7 Q30.75 -15.9 30.75 -16.5 L30.85 -18.0 32.2 -18.25 M48.8 -44.4 L48.65 -45.15 Q48.65 -46.0 49.85 -46.3 50.4 -46.1 51.05 -45.3 51.05 -44.35 49.85 -43.75 L48.8 -44.4 M45.05 -29.8 Q43.85 -30.1 43.9 -31.15 43.85 -32.0 45.05 -32.25 46.55 -31.4 46.6 -30.4 46.05 -30.0 45.05 -29.8 M45.35 -5.1 Q44.95 -4.65 43.7 -4.65 42.4 -4.65 41.8 -6.05 41.35 -7.0 41.4 -7.6 41.35 -8.2 42.15 -9.0 43.0 -9.9 43.7 -9.9 45.2 -9.9 45.55 -6.25 L45.35 -5.1 M51.7 -11.1 Q51.7 -12.05 52.75 -12.45 53.6 -12.1 54.05 -11.1 54.05 -10.55 53.15 -9.6 L51.9 -9.6 51.7 -11.1 M33.9 10.25 Q34.15 13.15 35.1 19.6 L35.2 17.2 Q35.2 13.3 33.9 10.15 L33.9 10.25 M30.65 2.8 L30.8 2.8 29.35 0.25 Q28.15 -3.0 24.65 -7.6 26.0 -1.05 26.05 7.15 L25.95 9.6 30.55 3.45 30.65 2.8 M12.7 65.75 Q12.65 66.45 14.7 75.35 L16.05 82.05 12.4 82.05 12.1 80.7 Q10.15 71.65 10.15 65.95 10.15 63.25 13.7 59.95 17.1 56.7 17.15 55.0 17.1 53.1 16.0 50.45 L15.9 50.2 16.6 50.1 Q18.55 50.1 19.05 56.05 19.05 57.9 15.9 61.25 12.65 64.5 12.7 65.75 M28.4 82.05 L28.4 82.0 Q28.4 81.0 30.1 80.05 31.3 80.35 31.3 81.75 L31.3 82.05 28.4 82.05 M-30.65 -65.2 L-30.65 -65.35 Q-26.95 -61.85 -26.95 -55.05 L-26.75 -49.8 Q-26.15 -47.4 -26.15 -43.55 L-26.25 -42.2 -26.7 -41.8 -27.25 -42.35 -27.9 -40.4 -28.7 -40.4 Q-29.05 -40.85 -29.05 -41.6 -29.05 -45.1 -28.6 -48.55 L-28.65 -51.15 Q-28.65 -52.5 -28.25 -52.55 L-28.0 -52.55 Q-27.55 -55.65 -27.55 -57.3 L-30.9 -65.1 -30.65 -65.2 M-54.75 -11.1 Q-53.7 -10.8 -53.4 -10.0 L-54.2 -8.9 -55.65 -8.9 -55.9 -9.55 Q-55.9 -10.7 -54.75 -11.1 M-43.45 -4.15 L-43.45 -2.8 Q-43.45 -1.7 -44.1 -0.5 -44.8 0.65 -45.3 0.7 -47.9 0.65 -47.9 -1.55 -47.9 -5.35 -45.6 -5.35 -43.85 -5.35 -43.45 -4.15 M-32.7 -30.45 Q-32.7 -32.6 -27.55 -32.55 L-24.65 -32.15 -23.3 -31.75 -23.45 -31.9 -22.1 -31.6 -22.75 -30.9 -23.0 -31.3 -23.45 -30.9 Q-24.7 -30.15 -26.0 -29.75 -25.45 -28.55 -25.1 -26.5 L-25.0 -25.25 -24.3 -22.8 -24.7 -21.95 -24.6 -21.1 -25.1 -15.1 Q-25.55 -15.1 -25.55 -14.7 L-25.7 -14.7 -25.05 -8.9 Q-24.35 -4.15 -24.3 -1.4 -24.3 3.55 -23.15 13.1 -23.15 14.45 -24.1 20.7 -24.1 23.0 -22.65 28.95 -22.65 30.3 -23.25 30.7 L-23.25 30.8 Q-23.9 29.95 -24.85 25.55 L-25.75 20.75 Q-24.7 13.05 -24.7 11.8 -25.65 2.25 -25.55 -2.25 -25.45 -6.2 -26.95 -15.95 L-26.75 -17.45 Q-27.05 -22.3 -28.25 -25.15 -29.55 -28.0 -29.75 -29.3 L-32.35 -29.4 -32.7 -30.45 M-32.9 40.85 L-32.9 39.85 -31.85 39.75 -31.2 40.45 Q-31.55 41.2 -32.45 41.2 L-32.9 40.85 M-47.8 24.35 Q-47.25 24.55 -46.6 25.0 L-46.55 24.75 -46.55 25.5 -47.1 26.75 Q-48.05 26.7 -48.8 26.1 -48.9 26.8 -48.9 25.5 -48.9 24.7 -48.35 24.45 L-47.8 24.35 M-55.9 9.6 Q-56.3 8.95 -56.3 8.35 -56.3 7.2 -55.25 7.0 -54.2 7.3 -54.2 8.2 L-54.35 9.25 Q-54.75 9.25 -54.75 9.7 L-55.9 9.6 M-44.35 38.25 Q-44.2 38.0 -43.3 38.0 -42.3 38.0 -41.6 39.4 -41.1 40.4 -41.1 40.85 -41.15 41.1 -42.55 42.4 -44.45 41.9 -44.45 39.4 L-44.35 38.25" fill="#2b0909" fill-rule="evenodd" stroke="none"/>
    <path d="M23.95 49.9 L23.8 49.9 23.65 49.75 Q22.5 48.45 22.5 48.0 L23.2 47.55 Q23.8 47.2 23.8 46.3 L25.15 47.8 Q25.15 48.6 24.6 49.55 L23.95 49.9 M7.0 42.9 L7.3 44.15 Q7.25 44.85 6.85 45.2 6.3 45.55 6.35 46.2 L6.15 46.8 Q5.5 46.45 5.0 46.45 3.25 46.45 3.35 43.95 L3.5 42.9 5.3 42.6 7.0 42.9 M11.85 44.95 Q11.8 43.9 12.9 42.05 14.2 39.7 16.0 39.7 17.35 39.7 18.55 42.85 18.55 44.65 17.8 46.6 16.6 49.3 14.45 49.35 11.4 49.35 11.85 44.95 M-20.55 48.35 Q-20.55 47.7 -19.35 46.35 -18.1 44.85 -17.05 44.85 -15.3 44.85 -14.25 47.25 -13.75 48.45 -13.6 49.8 -13.6 51.25 -15.45 52.5 L-17.05 53.3 -17.95 54.5 Q-19.25 55.85 -20.45 55.95 L-20.55 56.4 -22.05 56.75 -23.95 56.5 -24.05 55.7 -24.05 52.8 Q-24.05 52.4 -22.85 52.35 L-22.85 52.3 Q-22.9 49.55 -20.5 49.25 L-20.55 48.35 M-11.8 47.3 L-11.75 45.75 Q-11.9 45.45 -10.7 45.5 -10.1 45.5 -9.15 47.0 L-9.35 47.8 -10.2 48.25 Q-11.85 47.95 -11.8 47.3 M-10.7 59.85 Q-10.7 61.1 -12.45 62.15 -13.95 63.0 -15.45 63.1 -14.75 63.55 -14.75 64.8 L-15.05 68.85 Q-14.55 69.4 -14.25 70.4 -13.9 71.65 -13.85 72.9 -13.85 74.55 -14.65 76.6 -15.1 77.8 -15.7 78.55 -14.9 79.25 -14.35 80.95 L-14.1 82.05 -23.35 82.05 Q-23.05 80.75 -21.8 79.65 L-20.5 78.8 Q-22.35 77.5 -22.2 74.15 -22.2 72.15 -20.75 70.3 -19.75 68.95 -18.35 68.4 L-18.3 67.75 Q-18.35 66.4 -17.75 64.7 -17.35 63.4 -16.9 63.05 -18.8 62.65 -18.8 60.95 -18.8 59.0 -18.15 56.7 -17.15 53.25 -15.4 53.25 -12.15 53.25 -11.1 56.45 -10.6 58.1 -10.7 59.85 M-22.2 62.85 Q-20.05 64.0 -20.05 64.05 -20.05 65.4 -20.9 66.55 L-21.7 67.0 Q-23.95 66.95 -23.55 64.4 -23.55 63.65 -22.85 63.3 L-22.2 62.85" fill="#ffffff" fill-opacity="0.19215687" fill-rule="evenodd" stroke="none"/>
  </g>
  <defs>
    <radialGradient cx="0" cy="0" gradientTransform="matrix(0.2574, 0.0, 0.0, 0.2574, -23.6, 148.0)" gradientUnits="userSpaceOnUse" id="gradient0" r="819.2" spreadMethod="pad">
      <stop offset="0.0" stop-color="#7e7767"/>
      <stop offset="1.0" stop-color="#000000"/>
    </radialGradient>
    <radialGradient cx="0" cy="0" gradientTransform="matrix(0.0693, 0.0, 0.0, 0.1453, -4.95, -76.2)" gradientUnits="userSpaceOnUse" id="gradient1" r="819.2" spreadMethod="pad">
      <stop offset="0.0" stop-color="#4a2f2d"/>
      <stop offset="0.6588235294117647" stop-color="#000000"/>
      <stop offset="1.0" stop-color="#383c58"/>
    </radialGradient>
    <radialGradient cx="0" cy="0" gradientTransform="matrix(0.106, 0.0, 0.0, 0.1412, -1.65, -8.6)" gradientUnits="userSpaceOnUse" id="gradient2" r="819.2" spreadMethod="pad">
      <stop offset="0.0" stop-color="#878c51"/>
      <stop offset="0.5254901960784314" stop-color="#1e2318"/>
      <stop offset="1.0" stop-color="#374d59"/>
    </radialGradient>
    <radialGradient cx="0" cy="0" gradientTransform="matrix(0.0995, 0.0, 0.0, 0.1614, -6.15, 0.0)" gradientUnits="userSpaceOnUse" id="gradient3" r="819.2" spreadMethod="pad">
      <stop offset="0.6588235294117647" stop-color="#000000"/>
      <stop offset="1.0" stop-color="#2f3740" stop-opacity="0.92156863"/>
    </radialGradient>
  </defs>
</svg>
