<?xml version="1.0" encoding="UTF-8" standalone="no"?>
<svg xmlns:ffdec="https://www.free-decompiler.com/flash" xmlns:xlink="http://www.w3.org/1999/xlink" ffdec:objectType="shape" height="172.5px" width="270.6px" xmlns="http://www.w3.org/2000/svg">
  <g transform="matrix(1.0, 0.0, 0.0, 1.0, 133.65, 87.65)">
    <path d="M125.0 -75.0 L125.0 75.0 -125.0 75.0 -125.0 -75.0 125.0 -75.0" fill="#b7bdc8" fill-rule="evenodd" stroke="none"/>
    <path d="M126.95 -79.15 L126.95 79.2 -128.5 79.2 -128.5 -79.15 126.95 -79.15" fill="url(#gradient0)" fill-rule="evenodd" stroke="none"/>
    <path d="M44.5 67.2 L44.55 67.4 44.15 68.15 44.5 67.2 M28.45 71.1 L28.1 70.1 Q28.1 67.2 31.65 65.05 34.05 63.55 36.65 63.15 33.7 64.15 31.15 67.15 29.15 69.55 28.45 71.1" fill="#8e9aa4" fill-rule="evenodd" stroke="none"/>
    <path d="M43.05 69.5 L42.35 70.5 Q39.8 73.8 35.25 73.8 L34.15 73.8 Q37.1 73.2 40.05 71.55 41.95 70.5 43.05 69.5" fill="url(#gradient1)" fill-rule="evenodd" stroke="none"/>
    <path d="M-60.3 -37.1 L-60.15 -36.8 -60.0 -36.95 -60.3 -37.1 M28.1 72.8 L27.55 72.55 Q25.5 71.55 24.35 69.2 L22.3 64.1 Q20.65 60.65 17.85 57.85 15.05 55.1 11.3 50.15 6.55 43.95 6.55 41.7 6.55 41.05 7.35 39.35 8.1 37.6 8.1 36.25 8.1 31.4 6.0 29.45 2.55 26.25 -7.75 25.45 L-7.75 25.5 -7.95 26.6 -9.5 27.0 Q-10.3 27.0 -19.5 16.55 L-29.05 5.15 Q-31.95 6.75 -35.3 6.75 -40.7 6.75 -43.55 2.9 -45.75 1.9 -46.55 -0.1 L-49.35 -3.7 -54.0 -10.8 -61.55 -18.45 Q-65.7 -22.55 -65.7 -23.15 -65.7 -23.95 -64.9 -24.2 L-65.0 -27.0 Q-65.0 -29.9 -63.1 -34.8 L-65.8 -38.4 Q-68.55 -42.05 -68.55 -43.25 -68.55 -47.4 -60.1 -47.4 -57.15 -47.4 -53.75 -41.95 -51.3 -43.3 -46.9 -43.3 -40.5 -43.3 -28.5 -27.5 -22.5 -19.55 -17.75 -11.45 -17.75 -9.4 -18.95 -8.05 L-21.5 -6.05 -23.55 -4.1 Q-21.4 -2.6 -18.15 0.45 L-9.6 8.8 Q-9.2 9.15 -8.75 9.6 -4.55 11.5 4.6 15.05 L6.65 15.85 Q7.25 15.05 8.9 15.05 11.3 15.05 16.2 19.85 20.35 23.95 22.7 27.65 24.2 30.0 24.2 33.85 24.2 38.55 24.8 40.4 25.5 42.6 26.2 46.75 27.35 50.35 31.15 53.1 33.7 55.0 38.2 59.1 L42.3 63.1 39.6 62.65 Q38.05 62.65 36.65 63.15 34.05 63.55 31.65 65.05 28.1 67.2 28.1 70.1 L28.45 71.1 Q28.1 71.9 28.1 72.45 L28.1 72.8 M-25.3 1.4 L-25.05 1.15 -25.3 0.95 -25.3 1.4" fill="url(#gradient2)" fill-rule="evenodd" stroke="none"/>
    <path d="M-89.0 -84.3 Q-86.7 -85.6 -85.05 -85.6 -81.0 -85.6 -78.15 -82.1 -75.7 -78.15 -74.7 -77.25 -71.7 -74.65 -70.8 -73.25 -69.75 -71.6 -69.75 -69.1 -69.75 -64.5 -74.95 -64.5 -82.55 -64.5 -91.8 -80.7 -91.8 -82.75 -89.0 -84.3 M-72.65 -71.35 Q-73.45 -73.0 -75.85 -73.0 -77.45 -73.0 -78.55 -71.8 -79.65 -70.7 -79.65 -69.2 -79.1 -65.9 -76.6 -65.9 -75.7 -65.9 -74.1 -67.05 -72.3 -68.35 -72.3 -69.6 L-72.65 -71.35" fill="url(#gradient3)" fill-rule="evenodd" stroke="none"/>
    <path d="M-72.65 -71.35 L-72.3 -69.6 Q-72.3 -68.35 -74.1 -67.05 -75.7 -65.9 -76.6 -65.9 -79.1 -65.9 -79.65 -69.2 -79.65 -70.7 -78.55 -71.8 -77.45 -73.0 -75.85 -73.0 -73.45 -73.0 -72.65 -71.35 M42.3 63.1 Q44.6 63.95 44.55 66.7 L44.5 67.2 44.15 68.15 43.05 69.5 Q41.95 70.5 40.05 71.55 37.1 73.2 34.15 73.8 L32.0 74.05 31.8 74.1 31.25 74.1 31.2 74.1 31.05 74.1 Q28.8 74.1 28.25 73.35 L28.1 72.8 28.1 72.45 Q28.1 71.9 28.45 71.1 29.15 69.55 31.15 67.15 33.7 64.15 36.65 63.15 38.05 62.65 39.6 62.65 L42.3 63.1" fill="#1a1a1a" fill-rule="evenodd" stroke="none"/>
    <path d="M0.9 15.5 L-1.15 14.65 -2.55 17.15 -1.15 19.35 -3.05 18.0 -3.4 18.55 Q-5.85 22.9 -6.55 26.4 L4.1 27.15 Q6.35 27.65 6.75 29.25 L7.15 32.1 Q8.35 33.95 8.75 36.35 L9.15 40.4 Q10.05 39.9 11.45 39.4 14.55 38.25 15.75 38.05 L20.1 36.6 Q21.9 35.95 22.95 35.9 L22.95 35.3 23.15 28.0 23.95 27.9 23.9 27.9 Q22.4 27.9 16.95 23.2 12.9 19.75 10.9 17.1 L8.9 16.6 Q5.6 15.75 0.9 15.5 M0.75 11.4 L-0.25 13.15 0.9 13.4 10.9 14.4 Q13.9 15.05 14.1 16.45 L14.0 16.7 Q15.95 18.2 18.7 20.95 24.5 25.4 25.2 26.85 24.8 27.8 24.1 27.9 24.9 28.85 24.9 29.8 L25.3 36.0 26.2 36.2 26.7 37.1 25.5 38.0 26.0 43.75 25.85 44.65 25.7 45.0 Q28.85 47.2 36.85 55.15 L42.9 61.2 Q45.4 61.2 45.75 64.15 L47.7 66.35 Q47.7 69.9 33.9 77.75 L34.5 76.6 31.05 77.15 Q29.45 77.15 28.15 75.6 L27.3 76.55 25.85 76.5 Q24.4 69.85 11.5 53.8 8.95 50.6 7.8 47.0 7.0 46.45 7.25 45.1 L7.25 45.05 6.85 42.5 6.65 35.1 6.45 35.1 Q4.85 35.1 4.85 32.85 4.85 30.35 4.55 30.15 0.65 27.65 -3.7 28.85 L-6.85 29.25 -6.75 30.5 -6.8 30.85 -7.8 29.2 Q-9.55 28.9 -11.15 28.0 L-11.25 28.0 Q-14.25 28.0 -31.4 5.8 -32.6 6.6 -35.3 7.75 -42.15 7.75 -45.2 6.0 L-45.35 6.0 Q-48.6 6.0 -49.45 -0.3 L-55.2 -7.2 Q-60.55 -14.05 -63.65 -19.25 L-64.55 -18.8 Q-66.75 -20.45 -66.75 -25.75 -66.75 -29.65 -63.55 -34.45 -65.85 -37.35 -69.6 -43.2 -69.6 -44.2 -66.15 -47.05 -62.7 -50.0 -61.25 -50.0 -59.9 -50.0 -55.0 -45.25 L-53.1 -43.4 Q-50.2 -44.4 -46.9 -44.25 L-45.55 -44.0 Q-45.2 -44.4 -45.2 -43.3 -45.2 -42.85 -46.9 -42.85 -48.9 -42.85 -51.45 -41.7 L-50.3 -40.4 -50.5 -39.9 Q-50.8 -39.4 -51.35 -39.4 -51.45 -38.3 -53.7 -37.55 -56.5 -36.65 -57.45 -35.15 L-61.0 -29.85 Q-63.55 -25.05 -63.7 -21.5 L-57.75 -15.05 -57.8 -16.8 Q-57.8 -20.3 -56.3 -24.45 -54.65 -29.05 -52.2 -31.15 -57.5 -23.65 -56.9 -14.2 L-56.85 -14.1 -54.9 -11.95 -54.9 -12.2 Q-53.45 -20.1 -52.05 -19.95 -53.85 -14.6 -54.3 -11.35 L-54.1 -11.1 -48.65 -4.9 Q-47.25 -9.4 -42.05 -14.65 -35.45 -21.4 -31.75 -21.4 L-29.4 -21.3 -28.05 -21.4 -26.55 -21.2 -25.1 -21.15 Q-28.1 -24.05 -31.85 -29.25 L-31.95 -29.25 Q-39.35 -29.25 -44.55 -20.05 -48.85 -12.4 -48.25 -7.95 L-48.75 -7.85 Q-49.4 -15.55 -43.45 -23.4 -37.95 -30.65 -33.1 -30.8 L-37.95 -35.5 Q-41.85 -39.5 -41.85 -42.1 -41.4 -42.6 -40.75 -42.6 L-32.1 -33.15 -18.6 -17.85 -18.4 -17.7 Q-18.35 -17.55 -18.8 -17.55 -17.15 -14.6 -16.2 -9.3 -16.2 -6.9 -17.4 -5.95 -18.1 -6.55 -18.45 -7.3 L-18.6 -7.35 -18.55 -7.5 -18.7 -7.9 -19.9 -7.95 Q-19.9 -10.35 -19.35 -10.9 L-19.25 -10.7 -19.45 -12.55 Q-20.5 -16.85 -29.3 -18.3 -29.15 -17.5 -29.7 -16.9 L-34.95 -16.05 -37.45 -13.25 Q-40.2 -9.75 -41.3 -7.25 -43.95 -1.45 -44.0 -0.5 -43.55 1.0 -43.55 4.2 -41.45 5.15 -37.4 5.15 -34.2 5.15 -33.85 4.1 L-33.65 3.7 Q-35.3 3.1 -35.75 2.15 L-36.0 -0.25 -36.9 -1.45 -35.95 -1.6 -35.85 -2.75 -35.9 -4.2 Q-35.9 -4.8 -34.85 -5.65 L-34.85 -5.7 Q-33.25 -7.8 -26.35 -11.6 -25.75 -11.5 -25.65 -11.15 L-30.3 -8.45 -29.0 -9.1 -27.75 -8.9 Q-27.55 -9.15 -27.55 -8.0 -27.55 -7.0 -29.15 -6.75 -31.4 -6.5 -32.7 -5.1 -34.05 -3.75 -34.0 -1.0 -32.15 0.15 -29.0 3.55 -28.75 1.55 -27.0 -1.4 L-25.85 -3.1 -28.85 -6.2 Q-28.45 -7.1 -27.75 -7.1 -26.9 -7.1 -23.9 -4.65 L-22.05 -4.75 -23.15 -4.05 -15.9 2.45 -9.75 8.55 -9.25 8.2 -9.15 9.2 -8.4 10.0 Q-8.15 9.75 -7.75 9.75 L-1.9 12.5 0.0 10.0 Q0.75 10.6 0.75 11.4 M9.8 45.55 L14.4 44.55 Q17.9 43.55 19.95 43.55 22.5 43.55 23.7 44.25 L23.75 44.2 Q23.15 43.0 22.95 40.25 L22.95 39.2 18.75 40.85 Q12.15 43.25 9.6 44.65 L9.8 45.55 M9.35 43.0 Q10.2 42.4 11.45 41.75 15.05 39.85 18.75 38.7 10.15 41.15 9.25 42.3 L9.35 43.0 M10.25 47.1 Q11.45 50.55 13.95 53.0 16.0 55.1 22.0 63.65 L27.0 71.2 Q27.6 69.3 29.35 67.2 27.9 65.95 26.45 63.5 25.05 61.15 25.05 60.55 L25.2 59.6 25.85 59.5 Q27.25 59.5 32.95 63.9 34.1 63.15 35.4 62.6 33.5 61.5 32.0 59.6 L32.1 59.0 32.7 59.0 Q33.9 59.0 36.75 62.1 L40.0 61.4 33.85 55.85 Q26.25 49.2 24.05 46.65 L24.0 46.65 Q22.85 46.45 23.05 45.7 23.2 45.1 19.65 45.1 15.45 45.1 12.25 46.25 L10.25 47.1 M20.25 38.15 L19.8 38.25 22.95 37.85 22.95 37.7 20.25 38.15 M29.6 64.75 L30.25 66.2 32.15 64.5 28.45 62.65 29.6 64.75 M35.65 73.4 Q38.15 72.6 40.4 70.6 43.3 68.0 43.3 66.65 43.3 65.95 41.65 64.9 40.15 63.9 39.4 63.9 35.15 63.9 31.75 67.9 29.15 71.0 29.15 72.45 29.15 73.8 32.65 73.8 L35.45 73.45 35.65 73.4 M-81.05 -82.35 L-80.1 -82.55 Q-77.55 -82.55 -73.35 -77.9 -69.6 -73.75 -69.6 -73.1 L-69.8 -72.6 -69.3 -72.0 Q-67.7 -70.05 -67.7 -68.65 -67.7 -66.35 -69.5 -64.6 -71.0 -63.15 -73.3 -62.7 L-73.15 -62.25 -73.85 -62.4 -73.9 -62.6 -74.65 -62.55 -77.75 -62.9 -77.85 -62.95 -77.85 -62.9 -78.9 -62.95 -78.95 -63.55 -79.25 -63.8 -84.9 -68.15 -85.6 -68.65 -85.85 -68.65 -85.85 -68.85 -89.15 -70.95 Q-89.5 -71.2 -89.15 -73.0 -94.35 -77.4 -94.35 -77.95 L-94.25 -79.0 -93.3 -79.25 Q-92.3 -79.25 -85.75 -73.55 L-80.55 -68.75 -80.55 -69.2 Q-79.3 -74.5 -73.95 -74.5 L-73.35 -74.45 -81.15 -81.55 -81.05 -82.35 M-70.05 -68.85 Q-70.05 -72.3 -75.85 -72.3 -77.55 -72.3 -78.55 -68.95 -78.55 -67.15 -77.95 -66.15 L-77.15 -65.3 Q-76.45 -64.8 -75.35 -64.8 -71.9 -64.8 -70.65 -66.75 -70.0 -67.75 -70.05 -68.85 M-58.05 -43.05 Q-61.55 -46.05 -62.4 -47.55 -66.7 -44.75 -67.5 -43.3 L-62.0 -36.7 Q-59.5 -39.95 -56.5 -41.8 L-58.05 -43.05 M-60.35 -34.35 L-59.05 -36.1 -59.4 -36.1 Q-60.0 -36.1 -60.7 -34.85 L-60.35 -34.35 M-74.85 -44.45 L-74.65 -44.6 -74.7 -44.0 -74.85 -44.45 M-70.05 -48.65 L-69.85 -47.7 -70.55 -47.3 -70.7 -48.05 -70.05 -48.65 M-61.75 -32.45 L-61.8 -32.5 -61.95 -32.2 -61.75 -32.45 M-45.95 -1.55 L-43.7 -7.7 -46.65 -2.45 -45.95 -1.55 M-36.35 -29.05 L-32.4 -30.0 -32.5 -30.05 -33.65 -30.15 -35.55 -29.4 -36.35 -29.05 M-15.85 7.05 L-25.2 -2.4 Q-28.35 0.7 -27.8 4.85 -21.55 11.8 -10.7 26.35 L-10.55 26.35 -9.4 26.35 Q-10.25 25.4 -11.15 22.4 -12.15 19.3 -12.15 18.25 -12.15 16.1 -11.2 12.4 L-10.95 11.6 -15.85 7.05 M-0.9 12.9 L0.05 10.95 -0.2 11.05 -1.3 12.75 -0.9 12.9 M-2.2 14.15 L-3.35 16.05 -2.8 16.8 -1.65 14.45 -2.2 14.15 M-3.9 13.3 L-6.9 11.65 -3.8 15.45 -2.8 13.85 -3.9 13.3 M-4.0 17.3 Q-6.15 21.3 -6.2 23.65 L-3.3 17.85 -4.0 17.3 M-10.0 12.45 Q-11.4 16.1 -11.4 18.25 -11.4 21.55 -9.05 26.25 L-9.05 26.35 -8.8 26.35 Q-9.3 24.2 -9.4 21.45 -9.25 15.75 -9.6 12.8 L-10.0 12.45 M-8.75 13.5 L-7.8 26.35 -7.45 26.35 Q-6.95 21.55 -4.55 16.9 L-8.75 13.5 M-33.25 3.35 L-35.5 0.4 Q-35.3 2.3 -33.55 3.6 L-33.25 3.35" fill="#000000" fill-rule="evenodd" stroke="none"/>
    <path d="M64.95 -86.75 L74.95 -86.25 94.15 -84.8 Q95.25 -84.8 98.05 -85.85 L107.05 -86.35 Q123.0 -86.35 127.95 -82.65 134.1 -78.0 132.0 -63.5 131.25 -58.3 131.3 -48.15 L131.5 -38.25 Q131.5 -29.3 132.7 -19.15 133.9 -9.0 133.9 -5.35 L134.0 -4.55 134.35 -5.0 Q135.6 -6.4 136.6 -6.5 136.95 -6.35 136.95 -5.25 136.95 -2.15 134.95 -0.65 133.85 0.2 130.1 1.5 121.9 4.3 118.75 11.25 118.5 11.4 118.2 11.5 L118.2 11.6 116.95 12.9 Q104.7 5.85 102.75 5.45 98.75 4.6 98.0 2.2 L97.7 -2.0 Q95.95 -17.45 95.95 -18.25 87.05 -17.65 83.65 -21.1 82.3 -22.5 81.45 -26.15 L79.15 -35.75 Q78.4 -41.15 78.95 -45.2 78.15 -46.05 73.85 -47.25 68.2 -48.85 61.95 -48.85 59.7 -48.85 57.4 -46.2 L53.15 -40.4 Q46.95 -32.0 39.15 -32.0 38.05 -32.0 33.6 -35.1 L28.3 -38.6 Q21.5 -40.75 21.25 -45.35 L21.1 -51.95 Q21.0 -56.1 20.5 -58.75 20.15 -60.75 18.35 -61.25 14.7 -61.9 10.75 -63.25 L5.55 -64.05 Q2.8 -64.8 2.5 -68.45 L-0.2 -81.85 -0.35 -82.1 Q-1.15 -79.0 -1.15 -76.45 L-1.65 -76.35 -0.95 -80.25 Q-0.55 -82.4 -1.05 -83.8 L-1.65 -84.2 -1.25 -84.3 -1.3 -84.45 Q-1.15 -85.05 -0.8 -85.05 L-0.55 -84.55 Q0.8 -85.1 0.2 -85.4 L15.55 -86.25 27.6 -87.0 Q35.3 -87.5 46.75 -87.5 L64.95 -86.75 M-0.05 -83.6 L0.0 -83.65 -0.1 -83.65 -0.05 -83.6" fill="url(#gradient4)" fill-rule="evenodd" stroke="none"/>
    <path d="M-98.6 -10.55 Q-96.4 -13.15 -94.25 -13.15 -88.45 -13.15 -88.45 -8.75 -88.45 -7.0 -90.7 -4.95 -92.9 -3.0 -94.7 -3.0 -99.6 -3.0 -100.5 -7.0 -100.5 -8.3 -98.6 -10.55" fill="url(#gradient5)" fill-rule="evenodd" stroke="none"/>
    <path d="M-11.05 -53.55 Q-11.05 -50.95 -12.45 -49.05 -14.45 -46.35 -18.6 -46.35 -19.95 -46.35 -26.1 -47.75 L-26.35 -48.5 Q-20.6 -58.5 -16.25 -58.5 -11.9 -58.5 -11.05 -53.55" fill="url(#gradient6)" fill-rule="evenodd" stroke="none"/>
    <path d="M-27.65 -66.75 Q-26.85 -65.55 -26.85 -65.05 -26.85 -62.15 -30.65 -62.15 -34.95 -62.15 -34.65 -66.45 -34.65 -68.3 -30.15 -68.3 -28.75 -68.3 -27.65 -66.75" fill="url(#gradient7)" fill-rule="evenodd" stroke="none"/>
    <path d="M-92.1 -60.15 Q-92.1 -61.0 -87.65 -61.8 L-80.8 -62.55 Q-77.9 -62.55 -73.6 -61.4 L-69.1 -60.3 Q-65.35 -60.3 -60.25 -61.5 -55.0 -62.75 -47.55 -62.85 L-45.7 -62.85 Q-38.85 -63.1 -34.05 -57.3 -30.25 -52.7 -30.25 -49.05 -30.25 -46.75 -32.85 -43.6 -36.2 -39.5 -41.1 -39.5 -43.8 -39.5 -43.8 -41.5 L-43.6 -41.75 -44.05 -42.4 Q-45.35 -44.35 -47.0 -44.35 -49.85 -44.35 -55.6 -41.15 L-58.7 -44.8 Q-61.85 -48.5 -62.45 -48.5 L-67.6 -43.75 Q-67.6 -42.45 -64.25 -38.9 -60.9 -35.35 -60.9 -33.0 -60.9 -31.9 -63.0 -28.9 L-64.4 -27.15 -64.4 -26.9 Q-64.4 -25.15 -67.45 -24.2 -70.55 -23.25 -79.25 -22.3 L-88.6 -21.8 Q-94.1 -21.5 -97.65 -20.25 -102.5 -18.45 -106.95 -18.45 -111.45 -18.45 -113.2 -21.05 -114.05 -22.4 -114.05 -23.85 -114.05 -28.1 -103.4 -38.0 L-103.3 -38.1 -103.35 -38.1 Q-108.3 -40.2 -109.25 -41.75 -109.65 -42.35 -109.65 -45.25 -109.65 -49.8 -105.0 -53.7 -100.2 -57.75 -91.95 -59.55 L-92.1 -60.15" fill="url(#gradient8)" fill-rule="evenodd" stroke="none"/>
    <path d="M-94.2 -9.95 L-92.8 -10.35 Q-91.45 -10.35 -90.85 -9.4 -90.45 -8.8 -90.45 -8.3 -90.45 -7.05 -92.55 -5.85 -94.45 -4.75 -95.6 -4.75 L-95.9 -4.75 -95.75 -5.1 -96.3 -5.85 -97.15 -5.65 -97.05 -6.95 Q-97.05 -7.75 -95.6 -9.0 L-95.5 -9.05 -95.15 -8.9 Q-94.4 -9.15 -94.2 -9.9 L-94.2 -9.95 M-94.5 -5.95 L-93.75 -5.7 -92.55 -6.9 Q-92.8 -7.25 -94.5 -5.95 M-29.75 -63.8 Q-30.55 -63.2 -31.05 -63.2 L-32.7 -63.45 -32.85 -64.5 Q-32.85 -66.25 -31.05 -66.25 -29.95 -66.25 -29.05 -65.55 -28.9 -66.2 -28.9 -65.05 -28.9 -64.5 -29.75 -63.8 M-19.05 -53.6 Q-17.35 -54.5 -15.75 -54.5 -14.15 -54.5 -13.6 -53.5 L-13.35 -52.35 Q-13.35 -51.2 -15.15 -49.95 L-16.75 -49.05 -17.6 -49.95 Q-18.8 -49.95 -18.8 -49.05 L-18.7 -48.6 -19.25 -48.6 Q-20.5 -48.6 -21.15 -48.95 L-20.7 -48.95 -20.25 -49.65 Q-20.25 -51.3 -21.15 -51.3 L-21.9 -51.25 -20.65 -52.6 -20.5 -52.3 -20.3 -52.35 -19.25 -52.25 -18.8 -52.85 Q-18.85 -53.3 -19.05 -53.6" fill="#000000" fill-opacity="0.28235295" fill-rule="evenodd" stroke="none"/>
    <path d="M-95.0 -55.65 L-95.25 -55.1 -96.05 -54.95 -96.8 -55.35 -96.1 -56.25 -95.0 -55.65 M-104.85 -45.0 L-105.3 -45.05 -105.4 -46.15 Q-105.4 -49.3 -102.45 -49.8 L-104.15 -47.35 Q-105.1 -45.85 -104.85 -45.0 M-107.1 -30.8 L-105.4 -30.8 -105.3 -29.75 -105.65 -29.4 -107.15 -29.85 -107.1 -30.8 M-105.5 -24.85 L-105.75 -23.4 -106.45 -23.05 -108.8 -23.05 -108.95 -24.3 Q-108.95 -26.8 -107.4 -26.8 -106.7 -26.8 -106.05 -25.85 L-105.5 -24.85 M-96.0 -10.45 L-96.8 -10.2 Q-96.35 -11.65 -95.95 -11.9 L-93.75 -12.2 -91.25 -11.85 -91.15 -11.35 -95.0 -10.7 -95.15 -10.8 Q-95.8 -10.95 -96.0 -10.45 M-97.4 -8.55 Q-97.2 -9.15 -97.2 -8.0 L-97.25 -7.45 Q-97.7 -7.1 -99.05 -7.1 L-99.25 -7.9 -99.15 -8.65 -98.25 -8.75 -97.4 -8.55 M-94.5 -5.95 Q-92.8 -7.25 -92.55 -6.9 L-93.75 -5.7 -94.5 -5.95 M-28.9 -67.7 L-29.25 -67.1 -30.35 -67.55 -30.35 -68.3 -29.4 -68.4 -28.9 -67.7 M-33.4 -66.85 Q-32.7 -66.6 -32.7 -65.55 L-33.05 -65.25 -33.85 -65.2 Q-34.1 -65.2 -34.1 -65.9 -34.1 -66.65 -33.4 -66.85 M-35.6 -51.6 L-35.3 -50.0 -35.75 -49.4 Q-37.2 -49.8 -37.3 -50.75 -37.4 -51.95 -37.8 -52.25 -37.65 -52.65 -36.7 -52.95 -35.75 -52.2 -35.6 -51.6 M-16.75 -49.05 L-16.65 -48.85 -17.35 -48.15 -18.45 -48.15 -18.7 -48.6 -18.8 -49.05 Q-18.8 -49.95 -17.6 -49.95 L-16.75 -49.05 M-21.15 -48.95 L-22.1 -49.05 -22.1 -51.05 -21.9 -51.25 -21.15 -51.3 Q-20.25 -51.3 -20.25 -49.65 L-20.7 -48.95 -21.15 -48.95 M-19.9 -55.9 L-20.8 -56.25 Q-20.6 -57.75 -15.75 -57.9 -15.05 -57.35 -14.9 -56.85 L-19.9 -55.9 M-48.95 -55.55 Q-48.0 -55.25 -48.0 -54.25 L-48.5 -53.3 -49.75 -53.45 -49.95 -54.7 Q-49.95 -55.85 -48.95 -55.55 M-73.8 -44.85 Q-75.45 -42.9 -75.45 -42.15 -75.45 -41.25 -72.6 -39.3 L-69.45 -37.15 -69.45 -36.95 Q-76.15 -39.8 -76.15 -42.3 L-75.55 -43.5 Q-74.75 -44.55 -73.8 -44.85 M-78.9 -39.9 L-79.35 -39.5 -80.4 -39.5 -80.65 -40.4 -80.4 -43.05 -79.95 -43.05 -78.9 -39.9 M-75.25 -32.5 L-74.4 -28.2 Q-76.4 -28.95 -76.4 -32.25 -76.4 -35.3 -72.3 -34.95 -75.25 -34.5 -75.25 -32.5 M-77.7 -29.05 L-77.1 -29.0 Q-76.95 -28.95 -76.95 -28.25 L-77.0 -27.75 -77.25 -27.45 -78.3 -27.5 -78.55 -28.2 -78.3 -29.0 -77.7 -29.05" fill="#b673b7" fill-opacity="0.52156866" fill-rule="evenodd" stroke="none"/>
    <path d="M-105.15 -43.85 L-105.3 -43.4 -105.3 -43.3 Q-106.9 -44.9 -106.9 -46.95 -106.9 -49.55 -104.0 -51.45 -106.1 -48.3 -106.1 -47.05 -105.15 -45.0 -105.15 -43.85 M-107.65 -29.5 Q-107.85 -29.15 -108.45 -28.8 L-109.8 -28.8 Q-110.1 -28.9 -110.1 -29.6 L-110.05 -30.45 -109.1 -30.45 Q-108.35 -30.45 -107.75 -29.85 L-107.65 -29.5 M-108.45 -20.7 Q-108.65 -19.95 -109.4 -19.95 -110.05 -19.95 -110.95 -21.75 L-110.0 -22.1 -108.45 -20.7 M-94.3 -22.95 L-95.4 -23.4 Q-95.05 -24.2 -94.1 -23.6 L-94.3 -22.95 M-95.0 -10.7 L-94.2 -9.95 -94.2 -9.9 Q-94.4 -9.15 -95.15 -8.9 L-95.5 -9.05 Q-96.1 -9.35 -96.1 -9.9 L-96.0 -10.45 Q-95.8 -10.95 -95.15 -10.8 L-95.0 -10.7 M-95.9 -4.75 Q-96.2 -4.4 -96.9 -4.4 L-97.5 -5.1 -97.15 -5.65 -96.3 -5.85 -95.75 -5.1 -95.9 -4.75 M-32.2 -69.0 Q-31.75 -68.65 -31.65 -68.3 -31.85 -67.55 -32.9 -67.55 -33.3 -67.95 -33.3 -68.65 L-32.2 -69.0 M-20.65 -52.6 L-20.7 -53.1 Q-20.7 -53.9 -19.7 -54.15 L-19.05 -53.6 Q-18.85 -53.3 -18.8 -52.85 L-19.25 -52.25 -20.3 -52.35 -20.5 -52.3 -20.65 -52.6 M-40.6 -54.7 Q-40.6 -54.05 -40.7 -54.05 L-40.95 -54.15 -41.9 -54.6 Q-41.75 -55.2 -41.15 -55.2 -40.6 -55.85 -40.6 -54.7 M-42.1 -46.35 Q-38.7 -50.45 -37.4 -49.65 -38.1 -47.35 -40.6 -45.9 L-42.1 -46.35" fill="#ffffff" fill-rule="evenodd" stroke="none"/>
    <path d="M-90.45 -81.7 Q-88.15 -81.7 -82.9 -77.1 -77.95 -72.75 -77.95 -71.65 -80.4 -68.3 -80.55 -68.3 -81.55 -68.3 -87.2 -73.3 -92.7 -78.2 -92.7 -78.65 -92.7 -79.4 -92.15 -80.4 -91.45 -81.7 -90.45 -81.7" fill="#040404" fill-opacity="0.5921569" fill-rule="evenodd" stroke="none"/>
    <path d="M44.85 -62.85 Q41.75 -62.85 41.75 -65.45 41.75 -66.4 42.95 -67.55 44.1 -68.65 44.9 -68.65 47.75 -68.65 47.55 -65.75 47.55 -64.8 46.7 -63.85 45.85 -62.85 44.85 -62.85 M74.05 -66.85 Q74.05 -65.1 72.05 -65.1 70.65 -65.1 70.3 -66.3 70.1 -66.95 70.2 -67.65 70.2 -69.75 72.05 -69.75 74.45 -69.75 74.05 -66.85 M36.7 -50.6 L38.0 -48.95 Q37.45 -48.1 36.7 -47.7 L35.4 -48.95 36.05 -49.6 Q36.7 -50.05 36.7 -50.6 M57.7 -8.65 Q57.2 -8.1 56.05 -8.1 55.7 -8.1 54.75 -8.65 L54.6 -10.1 Q54.6 -11.1 56.3 -11.7 L57.7 -11.5 57.9 -10.05 57.7 -8.65 M94.05 -59.85 L93.75 -59.1 Q93.85 -58.75 92.75 -58.75 92.1 -58.75 91.6 -59.65 91.25 -60.3 91.25 -60.65 91.25 -61.8 92.35 -61.8 93.55 -61.3 94.05 -59.85 M87.85 -34.2 Q85.45 -34.2 84.8 -35.6 84.5 -36.35 84.65 -37.15 84.65 -40.35 88.05 -40.35 90.75 -40.35 90.3 -38.0 90.3 -37.1 89.75 -35.85 89.05 -34.2 87.85 -34.2 M110.25 -15.0 Q110.25 -13.5 108.8 -13.5 L107.15 -13.7 106.8 -15.15 Q106.8 -16.55 108.35 -16.55 110.3 -16.55 110.25 -15.0 M102.45 12.35 Q99.95 12.35 99.15 10.8 L98.8 9.2 Q98.8 7.9 100.0 6.9 101.0 6.1 101.95 6.1 104.6 6.1 104.6 9.0 L103.75 10.95 Q102.9 12.35 102.45 12.35 M84.65 33.85 Q84.65 35.9 81.7 36.25 80.05 36.25 79.65 34.25 L79.5 32.15 Q79.5 29.9 81.95 29.9 85.4 29.9 84.65 33.85 M117.55 46.2 Q117.55 47.8 116.0 47.8 112.85 47.8 112.85 44.65 112.85 43.45 114.2 42.75 115.05 42.3 115.65 42.3 117.9 42.3 117.55 46.2 M108.45 68.85 Q108.45 69.95 108.25 69.75 L106.95 70.1 105.65 68.75 105.9 67.7 106.95 67.5 108.45 68.85 M117.85 64.7 Q119.5 63.6 120.6 63.6 123.05 63.6 123.8 68.45 123.8 71.6 121.1 71.6 118.2 71.6 116.85 69.6 116.0 68.35 116.0 66.95 116.0 65.85 117.85 64.7 M99.15 50.75 Q101.0 50.75 101.4 54.5 101.4 55.2 100.8 55.95 100.15 56.75 99.45 56.75 97.1 56.75 96.25 55.3 L95.85 53.8 Q95.85 53.35 97.2 52.05 98.55 50.75 99.15 50.75 M129.9 57.0 Q129.9 61.2 126.7 61.2 123.35 61.2 122.45 59.2 L122.25 57.0 Q122.25 52.2 125.8 52.2 129.8 52.2 129.9 57.0 M42.15 23.65 L42.35 24.15 42.3 24.75 42.3 24.95 41.4 24.85 41.4 23.65 42.15 23.65 M41.55 33.8 L41.55 34.2 40.95 34.85 39.9 34.85 Q39.4 34.25 39.4 33.8 39.4 33.1 39.95 32.95 L40.5 32.85 Q41.3 33.2 41.55 33.8 M59.7 45.1 L58.85 46.05 57.35 45.95 Q57.15 45.75 57.15 44.65 57.15 43.25 58.4 43.45 59.65 44.35 59.7 45.1 M24.75 10.6 Q24.75 9.65 25.85 9.15 27.25 10.35 27.3 10.8 27.15 11.55 26.35 12.0 24.75 11.0 24.75 10.6 M9.5 19.9 L11.35 19.8 11.75 20.7 11.25 21.65 9.7 21.6 Q9.35 21.9 9.35 20.8 L9.5 19.9 M4.15 21.75 Q7.05 21.75 14.1 28.15 L14.05 28.8 14.55 30.7 Q15.75 30.7 16.45 33.45 16.45 34.75 14.65 34.85 L14.6 36.5 14.7 36.75 Q16.35 36.7 17.8 35.65 19.3 34.5 20.15 34.5 21.9 34.5 25.3 38.7 25.3 42.0 24.45 44.15 22.9 48.1 18.9 48.9 L20.8 51.8 Q31.5 68.3 31.5 69.65 31.5 72.0 29.6 72.0 28.8 72.0 27.4 70.85 L30.95 74.0 Q32.25 75.15 32.6 76.4 L33.15 76.5 33.55 77.65 Q33.55 78.2 31.65 79.4 29.65 80.7 28.35 80.7 22.85 80.7 19.55 75.5 16.4 68.95 14.3 66.15 8.5 59.5 4.95 54.6 L4.2 55.75 Q2.85 57.45 0.6 57.45 -3.3 57.45 -2.55 54.65 -2.55 52.95 -1.15 51.45 0.05 50.15 1.65 49.9 -2.05 45.35 -12.5 37.45 -24.6 28.35 -27.9 22.95 L-27.8 22.85 -29.75 20.35 -23.4 14.1 -23.8 13.05 Q-24.4 12.15 -25.7 12.15 -26.6 12.15 -32.75 17.85 -35.7 16.55 -40.95 16.25 -44.6 16.95 -47.45 14.3 -49.05 12.8 -51.55 9.3 L-53.75 7.05 -54.5 6.75 Q-57.95 6.75 -75.0 -12.25 -75.0 -13.15 -72.8 -14.5 -70.4 -16.0 -68.55 -15.35 -71.25 -20.2 -71.6 -21.3 -72.0 -22.6 -72.0 -26.6 L-71.45 -28.1 Q-71.2 -30.65 -70.6 -32.4 -73.3 -34.75 -76.2 -39.7 -76.2 -40.7 -74.9 -42.0 -73.2 -43.75 -70.65 -43.75 -70.25 -43.75 -62.8 -34.6 L-61.55 -36.65 -61.7 -36.6 Q-63.35 -36.6 -68.3 -44.0 -68.3 -45.0 -67.35 -46.45 -66.4 -48.0 -65.5 -48.0 -64.05 -48.0 -64.05 -46.55 L-65.0 -44.6 -62.8 -41.9 -61.15 -43.2 Q-58.5 -45.05 -57.75 -45.05 -56.55 -45.05 -55.45 -43.75 L-54.15 -42.1 Q-53.75 -41.75 -52.1 -41.5 -50.6 -41.3 -49.95 -40.5 -49.8 -41.05 -49.8 -39.9 L-54.75 -34.3 -47.0 -25.4 Q-39.2 -16.0 -39.15 -14.0 -37.95 -16.15 -36.05 -17.95 -32.7 -21.15 -28.7 -21.15 -23.9 -21.15 -20.45 -15.2 -17.85 -10.7 -17.85 -8.25 -17.85 -5.1 -22.6 -5.1 -23.35 -5.1 -24.85 -6.0 -24.1 -4.75 -24.1 -4.15 -24.1 -1.95 -25.55 1.25 L-25.55 1.85 -25.35 2.1 -26.4 3.55 -27.25 5.65 -27.9 5.85 Q-28.6 5.3 -28.6 4.2 L-31.15 4.5 Q-31.85 4.5 -32.6 3.4 -32.85 4.2 -33.65 4.7 L-29.55 5.15 Q-28.55 5.45 -27.4 6.25 L-27.55 7.9 Q-28.15 11.75 -24.8 11.75 -24.1 11.75 -24.1 11.45 L-24.1 11.15 -24.15 9.1 -23.4 9.85 -24.1 8.8 -23.95 7.15 Q-23.65 5.55 -22.95 4.7 L-20.7 7.3 Q-14.65 14.3 -11.15 19.5 L-10.65 19.6 Q-9.95 18.85 -9.2 16.65 -7.9 12.8 -6.55 11.85 -5.45 12.15 -5.25 12.8 L-5.25 13.75 Q-4.85 12.8 -3.75 12.8 -3.15 12.8 -2.15 13.5 -0.65 14.55 -0.8 16.25 L-1.35 20.6 -1.25 21.6 -1.15 21.9 Q1.35 21.3 2.55 21.9 L4.15 21.75 M18.7 26.9 Q18.7 26.15 19.95 25.65 20.8 26.25 20.8 27.05 L20.25 27.8 19.05 27.9 Q18.7 28.05 18.7 26.9 M0.35 26.4 L-2.35 26.55 -6.7 26.3 -7.4 27.0 -7.75 27.0 Q-6.3 28.25 -2.9 29.7 0.35 31.1 1.1 32.85 2.3 35.4 8.55 39.8 L9.25 40.6 Q9.0 36.2 4.6 32.2 1.35 29.25 0.35 26.4 M27.3 46.15 Q27.3 47.3 27.05 47.25 27.15 47.8 26.0 47.8 L24.0 47.35 Q23.75 47.4 23.75 46.25 23.75 44.55 25.65 44.55 27.15 44.55 27.3 46.15 M38.25 58.4 Q38.25 59.1 37.35 59.8 36.3 60.65 34.75 60.65 32.85 60.65 32.0 58.4 L31.5 56.0 Q31.5 55.4 32.1 54.65 32.95 53.6 34.35 53.6 36.35 53.6 38.25 58.4 M27.4 70.85 L27.2 70.65 27.4 70.85 M24.45 75.85 L24.25 76.15 Q25.4 77.4 26.35 77.4 L24.45 75.85 M-115.9 -84.3 Q-113.65 -84.3 -105.55 -76.3 L-94.35 -65.0 -83.75 -55.1 -81.05 -52.75 Q-79.35 -51.2 -79.4 -50.15 -79.5 -48.9 -78.15 -47.6 -76.8 -46.2 -76.8 -45.55 -76.8 -43.85 -78.1 -43.9 L-80.85 -44.35 -81.35 -43.75 Q-81.75 -43.2 -82.45 -43.2 -85.05 -43.2 -94.2 -50.95 -101.55 -57.2 -106.85 -62.75 L-111.65 -68.2 -112.15 -68.05 Q-113.1 -68.95 -113.3 -69.75 L-113.05 -69.9 -116.5 -74.15 Q-122.5 -81.6 -122.5 -82.4 -122.5 -84.3 -120.6 -84.3 L-117.95 -83.0 Q-116.75 -84.3 -115.9 -84.3 M-119.7 -72.0 L-119.45 -71.1 Q-119.45 -70.3 -120.55 -69.35 L-122.05 -68.5 Q-124.65 -68.5 -124.4 -70.5 -124.4 -72.75 -121.1 -72.75 -120.1 -72.75 -119.7 -72.0 M-117.8 -55.45 Q-116.15 -55.45 -115.65 -53.0 L-115.45 -50.45 Q-115.45 -48.5 -117.3 -48.5 -120.15 -48.5 -120.85 -51.2 -120.85 -55.45 -117.8 -55.45 M-124.75 -65.5 L-125.0 -64.25 -126.3 -63.9 -127.8 -65.4 -127.05 -66.0 Q-126.3 -66.2 -126.3 -67.05 -124.75 -65.8 -124.75 -65.5 M-121.8 -40.0 L-121.55 -38.15 Q-121.55 -37.7 -122.05 -36.95 L-122.85 -36.2 Q-127.2 -36.2 -126.75 -38.6 -126.75 -41.75 -124.2 -41.75 -122.45 -41.75 -121.8 -40.0 M-129.0 -26.55 L-129.6 -25.85 -131.0 -25.85 -131.1 -26.9 Q-131.1 -27.9 -130.05 -28.2 -129.3 -27.95 -129.0 -26.55 M-121.55 -12.65 Q-120.6 -12.65 -119.1 -10.85 -117.8 -9.25 -117.8 -8.9 -117.8 -8.2 -118.85 -7.1 -119.9 -6.05 -120.5 -6.05 -124.55 -6.05 -125.0 -8.85 -125.0 -9.8 -123.8 -11.2 -122.5 -12.65 -121.55 -12.65 M-78.8 -79.65 L-79.65 -78.3 -81.45 -79.45 Q-81.45 -80.35 -80.1 -81.25 -79.05 -80.65 -78.8 -79.65 M-74.45 -69.8 Q-76.85 -69.8 -76.8 -72.55 -76.8 -75.35 -73.5 -75.35 -72.0 -75.35 -71.55 -74.0 L-71.35 -72.5 Q-71.35 -71.95 -72.65 -70.85 -73.95 -69.8 -74.45 -69.8 M-60.3 -38.6 L-60.4 -38.6 -60.35 -38.45 -60.3 -38.6 M-44.1 -35.55 L-41.9 -35.75 Q-40.35 -35.75 -39.6 -34.4 -39.15 -33.55 -39.15 -32.9 -39.15 -32.25 -39.8 -31.65 -40.5 -31.05 -41.2 -31.05 L-41.85 -31.45 -41.9 -30.9 -42.85 -30.0 -43.9 -31.5 Q-43.9 -32.5 -43.0 -32.55 -44.25 -33.75 -44.25 -34.1 L-44.1 -35.55 M-64.2 -31.55 L-64.05 -30.8 -64.05 -30.9 -63.95 -31.55 -64.2 -31.55 M-46.7 -0.4 L-46.75 -1.4 -47.7 -1.8 -46.7 -0.4 M-19.15 -32.2 Q-22.85 -32.2 -21.9 -34.65 -21.9 -36.95 -20.0 -36.95 -18.6 -36.95 -18.1 -35.75 -17.85 -35.15 -17.85 -34.4 -17.85 -34.05 -18.35 -33.15 -18.9 -32.2 -19.15 -32.2 M-0.1 -24.9 Q-0.3 -24.2 -1.35 -24.2 L-1.8 -24.55 -1.8 -25.5 -0.65 -25.65 Q-0.2 -25.25 -0.1 -24.9 M-5.15 -35.75 L-3.75 -34.3 -3.95 -33.75 Q-4.25 -33.05 -5.2 -33.05 L-6.2 -33.4 -6.55 -34.45 Q-6.55 -36.05 -5.15 -35.75 M-34.85 -28.7 Q-34.7 -28.35 -34.7 -27.6 L-35.8 -27.15 Q-36.95 -27.65 -36.95 -28.25 L-36.7 -29.05 Q-36.95 -29.25 -35.8 -29.25 -35.4 -29.25 -34.85 -28.7 M-9.25 -22.55 L-10.8 -22.1 Q-12.2 -23.2 -12.2 -23.6 -12.2 -24.35 -11.55 -24.65 L-10.8 -24.9 -9.05 -23.45 -9.25 -22.55 M-34.0 0.35 L-34.95 -2.7 Q-36.05 -0.75 -36.15 0.7 L-34.0 0.35 M-35.3 7.2 L-35.2 6.85 -35.3 6.8 -35.3 7.2 M-21.3 40.05 L-21.5 41.1 -22.6 41.55 -23.9 40.1 -23.65 38.95 -22.6 38.75 -21.3 40.05 M-75.0 20.25 L-76.3 21.6 -77.95 20.25 Q-77.95 18.95 -76.3 18.95 -76.05 18.95 -75.0 20.25 M-69.3 51.45 Q-69.3 52.15 -69.95 53.25 L-70.65 53.45 Q-72.35 53.45 -72.05 51.3 -72.05 50.5 -71.4 50.2 L-70.65 49.95 Q-69.3 51.05 -69.3 51.45 M-15.85 57.95 L-16.95 58.55 Q-18.0 58.2 -18.0 57.25 -18.0 56.4 -16.95 55.95 -15.85 56.5 -15.85 57.95 M-2.3 67.35 Q-2.3 67.85 -3.05 68.85 -3.75 69.85 -4.1 69.85 -7.9 69.85 -7.2 67.75 -7.2 64.65 -4.65 64.65 -3.45 64.65 -2.3 67.35 M-130.55 13.5 Q-130.0 14.25 -130.3 14.95 -130.7 15.65 -131.55 15.65 L-132.75 15.3 -133.0 14.05 Q-133.0 12.8 -131.7 12.8 -131.05 12.8 -130.55 13.5 M-96.0 54.55 Q-96.6 54.55 -96.6 54.9 L-98.25 53.7 Q-98.25 52.75 -97.05 52.2 -95.9 53.45 -95.9 53.65 L-96.0 54.55 M-101.05 64.55 L-102.6 64.9 Q-103.35 64.9 -104.15 64.2 -103.85 62.75 -102.45 62.2 L-101.25 62.4 -100.85 63.65 -101.05 64.55 M-113.55 55.4 Q-113.25 56.15 -113.3 56.95 -113.3 57.55 -113.85 58.75 -114.55 60.2 -115.3 60.2 -119.1 60.2 -118.6 57.65 -118.6 56.6 -117.7 55.35 -116.75 54.0 -115.7 54.0 -114.1 54.0 -113.55 55.4" fill="#040404" fill-opacity="0.44313726" fill-rule="evenodd" stroke="none"/>
    <path d="M-23.4 14.1 L-23.8 13.05 Q-24.4 12.15 -25.7 12.15 -27.9 12.15 -63.0 47.7 -97.3 82.7 -97.3 83.3 L-97.2 84.0 Q-96.4 84.7 -95.15 84.7 -93.95 84.7 -91.4 83.1 -88.8 81.5 -88.45 80.45 L-90.8 81.65 Q-76.7 66.25 -58.15 48.05 L-23.4 14.1 M-17.75 4.2 Q-16.8 4.3 -16.8 2.75 -16.35 0.2 -20.75 0.2 -24.55 0.2 -26.4 3.55 -27.55 5.65 -27.55 7.9 -28.15 11.75 -24.8 11.75 -24.1 11.75 -24.1 11.45 L-24.1 11.15 Q-24.25 8.9 -23.95 7.15 -23.35 3.75 -20.95 3.75 L-17.75 4.2 M-49.35 -15.85 Q-48.55 -19.35 -46.5 -22.75 -42.35 -29.5 -36.0 -29.5 -34.05 -29.5 -32.95 -27.95 -31.85 -26.45 -30.6 -26.45 -29.4 -26.45 -29.4 -28.7 -29.4 -30.0 -31.35 -31.45 -33.95 -33.5 -38.4 -33.5 -45.45 -33.5 -50.05 -25.0 -53.35 -18.95 -53.35 -15.65 -52.0 -8.9 -49.05 -8.9 L-47.35 -9.45 -47.1 -10.9 Q-47.1 -11.5 -49.35 -15.85 M-60.15 -38.8 Q-59.75 -40.4 -57.5 -40.9 -55.35 -41.4 -55.35 -41.95 -55.35 -43.05 -55.45 -42.45 -56.4 -43.65 -57.95 -43.65 -61.4 -43.65 -63.45 -37.65 -63.45 -36.05 -63.0 -35.15 -60.85 -36.55 -60.15 -38.8 M11.5 -19.45 Q27.9 -36.4 27.9 -37.6 27.9 -39.4 25.65 -39.4 23.85 -39.4 15.25 -29.95 L4.65 -17.85 -6.35 -6.35 Q-15.4 3.25 -15.4 4.7 L-14.1 6.35 Q-2.25 -5.25 11.5 -19.45 M2.55 -66.75 Q1.95 -67.55 0.9 -67.55 -0.6 -67.55 -11.25 -60.0 -12.05 -59.5 -14.2 -59.25 L-18.0 -58.7 Q-21.9 -57.85 -22.55 -54.7 -23.4 -53.75 -23.4 -53.1 L-23.35 -52.6 -23.4 -52.65 -24.45 -52.95 Q-25.45 -52.95 -33.9 -47.3 L-33.9 -47.9 -33.05 -53.65 Q-33.0 -57.3 -36.05 -57.3 -37.8 -57.3 -39.2 -55.05 L-41.65 -51.2 -41.55 -51.4 Q-41.1 -55.9 -43.8 -55.9 -46.2 -55.9 -46.8 -54.5 L-47.0 -52.2 Q-47.0 -51.5 -46.7 -51.6 L-46.4 -51.9 Q-46.15 -52.2 -45.2 -51.9 -45.9 -49.0 -47.25 -47.3 L-48.4 -45.7 Q-48.55 -44.5 -47.65 -44.1 -50.75 -42.9 -57.15 -37.35 -66.05 -29.65 -66.3 -23.9 -76.85 -16.1 -92.75 -3.45 -90.7 -6.9 -90.7 -7.65 -90.7 -9.7 -93.3 -9.7 -95.05 -9.7 -96.45 -7.95 -97.65 -6.5 -97.65 -5.5 -98.15 -3.15 -95.65 -3.15 L-93.5 -3.95 -93.2 -3.05 -98.8 1.35 Q-117.55 16.4 -123.6 22.3 -131.15 27.75 -133.65 29.9 L-133.65 6.35 Q-132.9 7.05 -131.85 7.05 L-131.65 7.0 -128.85 7.4 Q-126.65 7.4 -104.15 -17.15 -82.1 -41.25 -82.1 -41.9 -82.1 -43.15 -97.4 -54.25 -113.3 -65.8 -117.35 -65.8 -129.75 -59.6 -133.65 -57.3 L-133.65 -87.65 130.75 -87.65 130.75 84.85 -3.05 84.85 Q17.9 64.85 20.25 61.45 L21.05 60.55 Q19.95 57.35 20.15 54.6 20.45 50.3 24.35 50.3 L27.9 51.15 Q28.95 51.45 28.95 49.55 L28.85 48.85 32.05 48.5 32.0 48.6 Q32.0 49.3 32.6 49.8 43.7 38.95 66.0 13.5 88.8 -12.6 88.8 -14.85 L88.8 -15.15 Q89.25 -16.4 89.25 -17.85 89.25 -20.8 85.2 -24.2 81.15 -27.55 81.15 -31.6 81.15 -33.15 80.15 -36.45 L78.75 -40.8 78.35 -43.25 Q78.05 -44.8 77.15 -45.8 74.65 -48.6 65.55 -48.6 L65.45 -48.6 64.35 -48.35 64.15 -47.5 31.75 -18.35 Q6.2 4.75 0.1 10.65 L-2.35 10.7 -6.25 9.9 -6.3 9.5 -8.7 9.3 -10.4 9.5 Q-14.5 9.55 -16.45 13.35 -17.75 15.85 -17.75 18.6 L-17.35 21.75 -18.55 26.85 Q-25.5 32.95 -45.35 53.9 L-64.35 74.1 Q-67.8 76.9 -69.35 79.3 L-69.8 80.05 -73.0 83.85 Q-73.0 84.55 -72.8 84.65 L-72.7 84.7 -72.8 84.85 -133.65 84.85 -133.65 73.35 -132.9 73.5 -111.3 53.35 Q-97.95 40.9 -90.55 33.2 -84.55 27.0 -65.2 8.7 -48.6 -6.95 -48.6 -7.45 -48.6 -8.6 -48.75 -7.95 -49.65 -8.65 -50.4 -8.65 -55.1 -8.65 -94.6 31.55 -101.2 38.3 -119.15 55.0 -132.3 67.65 -133.65 71.75 L-133.65 32.15 -133.55 32.15 Q-132.9 32.15 -127.75 28.0 L-126.1 26.7 -125.35 27.1 Q-79.85 -9.2 -65.7 -21.25 L-64.35 -19.95 Q-64.35 -20.3 -63.95 -20.3 L-63.4 -23.25 Q-59.4 -26.8 -59.4 -27.25 -59.4 -27.95 -59.6 -28.05 L-60.3 -28.2 -62.15 -26.9 Q-57.65 -36.8 -42.85 -42.95 L-43.2 -43.65 -44.75 -44.3 -41.9 -44.8 Q-41.2 -44.45 -40.25 -44.25 -40.6 -43.25 -40.15 -42.3 -39.55 -40.95 -37.45 -40.95 -37.1 -40.95 -30.1 -45.9 -23.5 -50.6 -23.0 -51.6 L-22.55 -51.2 Q-22.1 -49.2 -20.1 -49.2 -19.45 -49.2 -17.5 -50.1 -14.9 -51.35 -14.45 -52.95 -13.45 -55.9 -11.05 -57.6 L2.55 -66.75 M19.25 -58.25 Q19.1 -58.75 17.85 -59.2 L-4.8 -42.3 Q-24.0 -27.55 -24.0 -25.05 -24.0 -24.45 -23.65 -23.95 L-22.65 -23.6 -2.7 -40.6 Q14.5 -52.8 19.25 -58.25" fill="#040404" fill-opacity="0.5411765" fill-rule="evenodd" stroke="none"/>
  </g>
  <defs>
    <radialGradient cx="0" cy="0" gradientTransform="matrix(-0.0124, 0.1082, -0.2621, -0.0299, -29.25, 46.2)" gradientUnits="userSpaceOnUse" id="gradient0" r="819.2" spreadMethod="pad">
      <stop offset="0.0" stop-color="#394857"/>
      <stop offset="1.0" stop-color="#211a22"/>
    </radialGradient>
    <radialGradient cx="0" cy="0" gradientTransform="matrix(0.0067, 0.0, 0.0, 0.0067, 38.55, 71.3)" gradientUnits="userSpaceOnUse" id="gradient1" r="819.2" spreadMethod="pad">
      <stop offset="0.0" stop-color="#9a8d5c"/>
      <stop offset="0.9882352941176471" stop-color="#4d4d4d" stop-opacity="0.92156863"/>
    </radialGradient>
    <radialGradient cx="0" cy="0" gradientTransform="matrix(0.0985, 0.0, 0.0, 0.0985, -8.5, 29.25)" gradientUnits="userSpaceOnUse" id="gradient2" r="819.2" spreadMethod="pad">
      <stop offset="0.0" stop-color="#9a8d5c"/>
      <stop offset="0.9882352941176471" stop-color="#4d4d4d" stop-opacity="0.92156863"/>
    </radialGradient>
    <radialGradient cx="0" cy="0" gradientTransform="matrix(0.0166, 0.0, 0.0, 0.0166, -91.9, -84.8)" gradientUnits="userSpaceOnUse" id="gradient3" r="819.2" spreadMethod="pad">
      <stop offset="0.0" stop-color="#9a8d5c"/>
      <stop offset="0.9882352941176471" stop-color="#4d4d4d" stop-opacity="0.92156863"/>
    </radialGradient>
    <radialGradient cx="0" cy="0" gradientTransform="matrix(0.1025, 0.0, 0.0, 0.1025, 75.4, -81.05)" gradientUnits="userSpaceOnUse" id="gradient4" r="819.2" spreadMethod="pad">
      <stop offset="0.0" stop-color="#281b32"/>
      <stop offset="1.0" stop-color="#0d0b0f" stop-opacity="0.92156863"/>
    </radialGradient>
    <radialGradient cx="0" cy="0" gradientTransform="matrix(0.011, 0.0, 0.0, 0.011, -96.65, -11.3)" gradientUnits="userSpaceOnUse" id="gradient5" r="819.2" spreadMethod="pad">
      <stop offset="0.42745098039215684" stop-color="#000000" stop-opacity="0.0"/>
      <stop offset="0.8627450980392157" stop-color="#000000" stop-opacity="0.39215687"/>
      <stop offset="1.0" stop-color="#000000" stop-opacity="0.8117647"/>
    </radialGradient>
    <radialGradient cx="0" cy="0" gradientTransform="matrix(0.0123, 0.0, 0.0, 0.0123, -20.75, -54.2)" gradientUnits="userSpaceOnUse" id="gradient6" r="819.2" spreadMethod="pad">
      <stop offset="0.42745098039215684" stop-color="#000000" stop-opacity="0.0"/>
      <stop offset="0.8627450980392157" stop-color="#000000" stop-opacity="0.39215687"/>
      <stop offset="1.0" stop-color="#000000" stop-opacity="0.8117647"/>
    </radialGradient>
    <radialGradient cx="0" cy="0" gradientTransform="matrix(0.0073, 0.0, 0.0, 0.0073, -31.6, -66.45)" gradientUnits="userSpaceOnUse" id="gradient7" r="819.2" spreadMethod="pad">
      <stop offset="0.42745098039215684" stop-color="#000000" stop-opacity="0.0"/>
      <stop offset="0.8627450980392157" stop-color="#000000" stop-opacity="0.39215687"/>
      <stop offset="1.0" stop-color="#000000" stop-opacity="0.8117647"/>
    </radialGradient>
    <radialGradient cx="0" cy="0" gradientTransform="matrix(0.0601, 0.0, 0.0, 0.0601, -76.35, -53.7)" gradientUnits="userSpaceOnUse" id="gradient8" r="819.2" spreadMethod="pad">
      <stop offset="0.42745098039215684" stop-color="#000000" stop-opacity="0.0"/>
      <stop offset="0.8627450980392157" stop-color="#000000" stop-opacity="0.39215687"/>
      <stop offset="1.0" stop-color="#000000" stop-opacity="0.8117647"/>
    </radialGradient>
  </defs>
</svg>
