<?xml version="1.0" encoding="UTF-8" standalone="no"?>
<svg xmlns:ffdec="https://www.free-decompiler.com/flash" xmlns:xlink="http://www.w3.org/1999/xlink" ffdec:objectType="shape" height="53.0px" width="36.75px" xmlns="http://www.w3.org/2000/svg">
  <g transform="matrix(1.0, 0.0, 0.0, 1.0, 17.8, 17.85)">
    <path d="M17.5 -4.85 Q18.05 -3.75 18.95 -3.15 L15.45 2.75 Q11.45 -4.65 6.7 -8.45 L7.75 -10.25 Q11.55 -6.6 14.85 -0.5 L17.5 -4.85" fill="url(#gradient0)" fill-rule="evenodd" stroke="none"/>
    <path d="M7.2 -13.5 L5.55 -14.95 9.4 -17.85 Q13.45 -12.0 18.0 -9.9 L16.9 -8.1 14.25 -3.75 Q11.0 -9.85 7.2 -13.5" fill="url(#gradient1)" fill-rule="evenodd" stroke="none"/>
    <path d="M7.2 -13.5 Q11.0 -9.85 14.25 -3.75 L16.9 -8.1 Q17.5 -7.0 18.45 -6.45 L17.5 -4.85 14.85 -0.5 Q11.55 -6.6 7.75 -10.25 L6.1 -11.7 7.2 -13.5" fill="url(#gradient2)" fill-rule="evenodd" stroke="none"/>
    <path d="M16.9 -8.1 L18.0 -9.9 Q13.45 -12.0 9.4 -17.85 L5.55 -14.95 7.2 -13.5 6.1 -11.7 7.75 -10.25 6.7 -8.45 Q11.45 -4.65 15.45 2.75 L18.95 -3.15 Q18.05 -3.75 17.5 -4.85 L18.45 -6.45 Q17.5 -7.0 16.9 -8.1 Z" fill="none" stroke="#000000" stroke-linecap="round" stroke-linejoin="round" stroke-width="0.05"/>
    <path d="M5.85 12.0 L-5.1 12.0 -5.1 9.15 5.85 9.15 5.85 12.0" fill="url(#gradient3)" fill-rule="evenodd" stroke="none"/>
    <path d="M5.85 12.0 L-5.1 12.0 -5.1 9.15 5.85 9.15 5.85 12.0 Z" fill="none" stroke="#000000" stroke-linecap="round" stroke-linejoin="round" stroke-width="0.05"/>
    <path d="M10.1 -3.35 L9.45 -0.25 Q2.5 1.45 -7.45 -0.75 L-8.5 -3.8 Q1.9 -1.85 10.1 -3.35 M8.05 3.25 L6.3 5.85 Q-0.65 6.85 -6.25 4.8 L-6.65 2.45 Q1.7 4.2 8.05 3.25 M-9.9 -6.85 L-12.35 -10.6 -6.0 -10.45 -6.0 -13.45 -3.55 -13.45 -3.55 -10.45 6.1 -10.85 6.1 -13.2 7.85 -13.2 7.85 -11.0 10.5 -11.45 10.45 -6.9 Q1.05 -5.45 -9.9 -6.85" fill="url(#gradient4)" fill-rule="evenodd" stroke="none"/>
    <path d="M9.45 -0.25 Q8.85 1.7 8.05 3.25 1.7 4.2 -6.65 2.45 L-7.45 -0.75 Q2.5 1.45 9.45 -0.25 M-8.5 -3.8 L-9.9 -6.85 Q1.05 -5.45 10.45 -6.9 L10.1 -3.35 Q1.9 -1.85 -8.5 -3.8" fill="url(#gradient5)" fill-rule="evenodd" stroke="none"/>
    <path d="M-6.0 -10.45 L-6.0 -13.45 -3.55 -13.45 -3.55 -10.45" fill="none" stroke="#000000" stroke-linecap="round" stroke-linejoin="round" stroke-width="0.05"/>
    <path d="M10.1 -3.35 L9.45 -0.25 Q8.85 1.7 8.05 3.25 L6.3 5.85 Q-0.65 6.85 -6.25 4.8 L-6.65 2.45 -7.45 -0.75 -8.5 -3.8 -9.9 -6.85 -12.35 -10.6 -6.0 -10.45 M-3.55 -10.45 L6.1 -10.85 6.1 -13.2 7.85 -13.2 7.85 -11.0 10.5 -11.45 10.45 -6.9 10.1 -3.35" fill="none" stroke="#000000" stroke-linecap="round" stroke-linejoin="round" stroke-width="0.05"/>
    <path d="M-2.8 23.35 Q-8.25 21.55 -10.4 18.6 -7.0 14.25 -4.65 9.0 L-4.45 9.15 -0.5 9.4 -2.8 23.35 M-12.2 20.75 Q-9.35 25.1 -3.4 27.0 L-4.15 31.5 Q-12.15 29.1 -15.25 23.8 L-12.2 20.75" fill="url(#gradient6)" fill-rule="evenodd" stroke="none"/>
    <path d="M2.35 9.25 L5.9 9.25 9.15 32.35 Q5.0 31.6 0.8 35.15 L2.35 9.25" fill="url(#gradient7)" fill-rule="evenodd" stroke="none"/>
    <path d="M-15.25 23.8 Q-12.15 29.1 -4.15 31.5 L-4.65 34.4 Q-13.7 31.95 -17.8 25.95 L-15.25 23.8" fill="url(#gradient8)" fill-rule="evenodd" stroke="none"/>
    <path d="M-10.4 18.6 Q-8.25 21.55 -2.8 23.35 L-3.4 27.0 Q-9.35 25.1 -12.2 20.75 L-10.4 18.6" fill="url(#gradient9)" fill-rule="evenodd" stroke="none"/>
    <path d="M2.35 9.25 L5.9 9.25 9.15 32.35 Q5.0 31.6 0.8 35.15 L2.35 9.25" fill="none" stroke="#000000" stroke-linecap="round" stroke-linejoin="round" stroke-width="0.05"/>
    <path d="M-10.4 18.6 L-12.2 20.75 -15.25 23.8 -17.8 25.95 Q-13.7 31.95 -4.65 34.4 L-4.15 31.5 -3.4 27.0 -2.8 23.35 -0.5 9.4 -4.45 9.15 M-4.65 9.0 Q-7.0 14.25 -10.4 18.6" fill="none" stroke="#000000" stroke-linecap="round" stroke-linejoin="round" stroke-width="0.05"/>
    <path d="M11.25 -12.9 Q13.1 -12.9 13.65 -11.3 13.95 -9.5 14.25 -9.0 L15.0 -10.0 15.25 -10.0 14.85 -8.5 Q13.15 -8.9 13.0 -10.15 L12.75 -12.0 12.6 -11.75 12.5 -11.55 11.25 -11.55 11.0 -12.75 11.25 -12.9 M6.9 -6.85 L7.0 0.85 7.75 0.45 Q8.8 0.45 9.15 1.45 L8.1 0.85 Q7.15 0.85 6.95 1.65 L6.7 1.65 6.65 1.2 6.7 -6.85 6.9 -6.85 M5.6 -7.2 Q6.05 -6.2 6.05 -3.7 6.05 0.05 5.75 1.9 6.95 2.1 7.55 3.6 L7.5 3.7 6.7 2.65 Q6.35 2.3 5.7 2.25 L5.6 2.35 5.6 2.25 5.2 2.2 Q4.1 2.2 3.45 3.0 2.85 3.7 3.15 4.1 L3.1 4.2 2.85 3.6 Q2.85 1.85 5.35 1.85 L5.6 1.85 Q5.4 1.25 4.55 1.25 L3.85 1.4 3.85 1.8 3.5 1.8 3.35 1.45 Q3.35 0.75 4.35 0.75 5.15 0.75 5.35 1.05 L5.65 -3.85 5.45 -7.15 5.6 -7.2 M7.45 -7.35 L7.6 -8.1 Q7.8 -8.55 8.6 -8.55 L8.8 -8.55 9.1 -8.7 Q9.9 -8.7 10.2 -7.3 L9.85 -6.35 Q9.55 -6.45 9.3 -7.5 L9.05 -7.55 Q8.25 -7.55 8.05 -7.05 L7.9 -6.5 7.85 -6.5 7.8 -6.4 7.45 -6.4 7.45 -7.35 M1.3 -6.25 Q0.75 -6.3 0.85 -6.8 0.85 -7.8 2.1 -7.8 L3.3 -7.5 Q3.0 -8.25 2.0 -8.25 0.2 -8.25 0.2 -6.9 0.2 -6.15 1.25 -5.55 L2.3 -4.5 Q2.3 -3.55 1.15 -3.35 L1.05 -3.5 1.4 -4.2 Q1.4 -5.15 0.75 -5.15 -0.65 -5.15 -0.7 -3.65 -0.7 -2.5 0.35 -2.05 1.6 -2.0 1.55 -0.95 1.55 -0.1 0.35 0.85 L-0.05 0.75 Q1.15 -0.45 1.15 -0.85 1.15 -1.65 0.3 -1.65 L-0.3 -1.2 -0.55 -1.25 -0.6 -1.45 Q-0.6 -1.9 -0.15 -2.0 L-0.65 -2.65 -1.1 -3.7 Q-1.1 -5.3 0.35 -5.6 -0.2 -5.85 -0.2 -6.95 -0.2 -8.7 1.85 -8.7 3.8 -8.7 3.8 -6.95 L3.7 -5.9 3.35 -5.8 3.3 -5.8 3.15 -5.8 3.15 -5.85 3.1 -5.85 3.1 -5.9 3.05 -6.0 3.2 -6.5 Q3.15 -7.4 1.85 -7.4 1.1 -7.4 1.1 -6.7 1.1 -6.55 1.35 -6.55 L1.35 -6.35 1.3 -6.25 M4.25 -3.6 Q3.45 -3.6 3.45 -4.25 3.45 -4.95 4.1 -4.95 4.9 -4.95 4.9 -4.35 4.9 -3.6 4.25 -3.6 M3.9 -4.05 L4.1 -3.95 4.55 -4.35 4.0 -4.5 3.9 -4.05 M1.65 -4.7 L1.8 -4.25 1.8 -4.2 1.85 -4.55 1.65 -4.75 1.65 -4.7 M9.25 -4.15 L9.0 -4.5 9.45 -4.05 Q9.3 -3.9 9.05 -3.9 L8.6 -4.85 Q8.6 -5.65 9.2 -5.65 10.0 -5.65 10.0 -4.15 10.0 -3.65 9.25 -3.1 8.5 -2.5 8.5 -2.2 L9.25 -1.35 9.1 -1.05 Q8.4 -1.05 8.2 -1.45 L8.15 -1.85 Q8.15 -2.6 8.95 -3.25 9.7 -3.85 9.7 -4.2 9.7 -4.75 9.3 -5.3 L8.85 -4.75 9.1 -4.15 9.25 -4.15 M12.5 -12.25 Q11.4 -12.9 11.4 -12.4 11.65 -12.0 12.25 -12.0 L12.5 -12.25" fill="#99ff00" fill-rule="evenodd" stroke="none"/>
  </g>
  <defs>
    <radialGradient cx="0" cy="0" gradientTransform="matrix(-0.0124, 0.0032, 0.0058, 0.0228, 13.2, 10.45)" gradientUnits="userSpaceOnUse" id="gradient0" r="819.2" spreadMethod="pad">
      <stop offset="0.0" stop-color="#404040"/>
      <stop offset="1.0" stop-color="#000000"/>
    </radialGradient>
    <radialGradient cx="0" cy="0" gradientTransform="matrix(-0.0084, 0.0021, 0.0039, 0.0153, 12.7, -15.35)" gradientUnits="userSpaceOnUse" id="gradient1" r="819.2" spreadMethod="pad">
      <stop offset="0.0" stop-color="#382d39"/>
      <stop offset="0.6941176470588235" stop-color="#111012"/>
      <stop offset="0.9803921568627451" stop-color="#120e14"/>
    </radialGradient>
    <radialGradient cx="0" cy="0" gradientTransform="matrix(0.0173, -0.0044, 0.0044, 0.0173, 7.2, -13.05)" gradientUnits="userSpaceOnUse" id="gradient2" r="819.2" spreadMethod="pad">
      <stop offset="0.0" stop-color="#335540"/>
      <stop offset="1.0" stop-color="#18231e"/>
    </radialGradient>
    <radialGradient cx="0" cy="0" gradientTransform="matrix(0.0081, 0.0, 0.0, 0.0081, -5.25, 10.5)" gradientUnits="userSpaceOnUse" id="gradient3" r="819.2" spreadMethod="pad">
      <stop offset="0.0" stop-color="#574b31"/>
      <stop offset="1.0" stop-color="#221724"/>
    </radialGradient>
    <radialGradient cx="0" cy="0" gradientTransform="matrix(0.0214, 0.0, 0.0, 0.0214, 4.8, -7.05)" gradientUnits="userSpaceOnUse" id="gradient4" r="819.2" spreadMethod="pad">
      <stop offset="0.0" stop-color="#382d39"/>
      <stop offset="0.6941176470588235" stop-color="#111012"/>
      <stop offset="0.9803921568627451" stop-color="#120e14"/>
    </radialGradient>
    <radialGradient cx="0" cy="0" gradientTransform="matrix(0.0214, 0.0, 0.0, 0.0214, 4.8, -7.05)" gradientUnits="userSpaceOnUse" id="gradient5" r="819.2" spreadMethod="pad">
      <stop offset="0.0" stop-color="#574b31"/>
      <stop offset="1.0" stop-color="#221724"/>
    </radialGradient>
    <radialGradient cx="0" cy="0" gradientTransform="matrix(0.0198, 0.0, 0.0, 0.0198, -2.45, 19.95)" gradientUnits="userSpaceOnUse" id="gradient6" r="819.2" spreadMethod="pad">
      <stop offset="0.0" stop-color="#382d39"/>
      <stop offset="0.6941176470588235" stop-color="#111012"/>
      <stop offset="0.9803921568627451" stop-color="#120e14"/>
    </radialGradient>
    <radialGradient cx="0" cy="0" gradientTransform="matrix(0.0276, 0.0, 0.0, 0.0276, 5.25, 13.0)" gradientUnits="userSpaceOnUse" id="gradient7" r="819.2" spreadMethod="pad">
      <stop offset="0.0" stop-color="#335540"/>
      <stop offset="1.0" stop-color="#18231e"/>
    </radialGradient>
    <radialGradient cx="0" cy="0" gradientTransform="matrix(0.011, 0.0, 0.0, 0.011, -11.5, 28.65)" gradientUnits="userSpaceOnUse" id="gradient8" r="819.2" spreadMethod="pad">
      <stop offset="0.0" stop-color="#574b31"/>
      <stop offset="1.0" stop-color="#221724"/>
    </radialGradient>
    <radialGradient cx="0" cy="0" gradientTransform="matrix(0.0078, 0.0, 0.0, 0.0078, -7.9, 22.5)" gradientUnits="userSpaceOnUse" id="gradient9" r="819.2" spreadMethod="pad">
      <stop offset="0.0" stop-color="#574b31"/>
      <stop offset="1.0" stop-color="#221724"/>
    </radialGradient>
  </defs>
</svg>
