<?xml version="1.0" encoding="UTF-8" standalone="no"?>
<svg xmlns:ffdec="https://www.free-decompiler.com/flash" xmlns:xlink="http://www.w3.org/1999/xlink" ffdec:objectType="shape" height="160.3px" width="139.15px" xmlns="http://www.w3.org/2000/svg">
  <g transform="matrix(1.0, 0.0, 0.0, 1.0, 93.55, 74.55)">
    <path d="M40.2 -46.55 L40.5 -46.55 Q44.15 -46.55 45.6 -44.75 44.15 -40.6 42.45 -34.6 L42.45 -34.45 41.55 -34.3 Q38.8 -34.3 37.25 -35.9 L40.2 -46.55 M31.5 -9.5 Q34.2 -10.5 36.8 -10.5 40.15 -10.5 41.1 -7.95 L38.35 -4.5 34.6 0.65 29.85 0.8 31.5 -9.5 M28.9 6.2 L28.95 6.2 Q32.9 6.2 34.05 9.65 32.4 12.3 31.1 17.2 L29.25 18.0 29.35 16.85 Q29.35 14.9 27.0 14.85 L28.9 6.2 M22.9 19.8 L21.2 20.15 13.65 24.4 12.9 24.85 12.05 26.55 5.9 38.65 Q4.4 42.5 0.6 47.15 -3.8 47.9 -10.65 55.45 -14.2 59.35 -15.9 62.2 L-16.35 62.45 -16.45 63.15 Q-17.35 64.8 -17.55 66.05 -19.8 70.75 -19.8 75.5 -19.85 77.55 -18.05 77.85 L-18.1 79.2 Q-18.95 85.75 -23.1 85.75 -28.45 85.75 -29.85 82.5 -30.3 81.5 -30.3 78.45 L-31.35 78.1 Q-32.0 78.1 -32.75 78.7 -33.45 79.3 -34.15 79.3 -35.8 79.3 -47.1 75.3 -48.25 75.3 -52.55 77.25 -58.9 79.15 -70.4 79.15 -75.45 83.75 -79.2 83.75 -83.1 83.75 -84.55 81.05 -85.3 79.65 -85.25 78.2 L-85.25 78.15 Q-86.85 77.6 -86.7 75.5 -83.9 68.2 -81.2 62.4 -78.45 61.35 -71.05 51.45 -63.2 40.95 -63.2 39.75 L-63.2 39.65 -61.3 39.4 -61.2 39.4 Q-61.7 38.05 -61.85 36.25 -57.8 22.05 -54.25 13.65 -54.35 7.1 -53.9 2.7 -53.35 -2.7 -51.45 -4.95 L-50.2 -7.45 Q-47.5 -12.45 -45.65 -13.7 L-41.65 -16.05 -39.7 -17.45 -37.95 -19.65 -34.45 -24.8 Q-17.75 -49.0 -13.75 -49.0 L-11.95 -48.6 Q-13.35 -40.85 -14.8 -30.4 L-16.6 -22.35 Q-18.35 -15.95 -20.05 -6.75 -20.05 -4.45 -17.95 -4.45 -16.85 -4.45 -15.7 -7.0 L-14.9 -7.15 -14.8 -7.15 Q-13.95 -7.15 -13.65 -7.45 L-13.55 -7.6 Q-12.35 -8.1 -11.45 -9.05 -10.15 -10.4 -8.9 -13.75 L-8.35 -15.2 -8.1 -15.45 Q-3.25 -20.1 -1.6 -20.1 0.9 -20.1 2.85 -18.3 L3.5 -17.15 4.45 -13.5 4.25 -12.0 -0.7 -3.9 Q-9.3 9.2 -9.55 12.75 -10.45 13.35 -10.45 14.45 -10.45 15.75 -1.1 17.55 7.85 19.25 13.25 19.25 L16.2 19.1 20.3 19.15 22.3 18.8 22.9 19.8 M22.3 8.1 L22.8 7.95 22.7 8.7 22.3 8.1" fill="url(#gradient0)" fill-rule="evenodd" stroke="none"/>
    <path d="M-11.95 -48.6 Q-8.0 -70.8 -4.8 -70.8 -3.2 -70.8 -2.3 -69.6 -1.6 -71.35 1.5 -71.35 L3.45 -71.3 6.8 -71.55 9.1 -71.1 Q16.7 -70.6 24.75 -69.05 42.45 -65.75 42.45 -59.45 42.45 -57.0 41.2 -55.65 41.45 -54.75 41.3 -53.35 41.3 -51.25 40.2 -46.55 L37.25 -35.9 35.5 -30.3 Q35.25 -30.0 34.4 -29.75 L34.35 -29.85 34.25 -29.45 31.5 -9.5 29.85 0.8 28.9 6.2 27.0 14.85 Q29.35 14.9 29.35 16.85 L29.25 18.0 Q28.75 19.95 26.35 19.95 L25.1 19.85 Q24.65 20.45 24.25 20.45 23.45 20.45 22.9 19.8 L22.3 18.8 20.3 19.15 16.2 19.1 13.25 19.25 Q7.85 19.25 -1.1 17.55 -10.45 15.75 -10.45 14.45 -10.45 13.35 -9.55 12.75 -9.3 9.2 -0.7 -3.9 L4.25 -12.0 4.55 -12.55 5.7 -14.3 4.65 -16.0 Q3.85 -17.4 2.85 -18.3 0.9 -20.1 -1.6 -20.1 -3.25 -20.1 -8.1 -15.45 L-8.35 -15.2 Q-13.25 -10.5 -13.35 -7.75 L-13.55 -7.6 -13.65 -7.45 Q-13.95 -7.15 -14.8 -7.15 L-14.9 -7.15 -15.6 -7.2 -15.7 -7.0 Q-16.85 -4.45 -17.95 -4.45 -20.05 -4.45 -20.05 -6.75 -18.35 -15.95 -16.6 -22.35 L-14.8 -30.4 Q-13.35 -40.85 -11.95 -48.6 M-11.55 -18.4 L-12.0 -16.9 -11.1 -18.1 -11.55 -18.4 M22.3 8.1 L22.7 8.7 22.8 7.95 22.85 7.5 22.3 8.1" fill="url(#gradient1)" fill-rule="evenodd" stroke="none"/>
    <path d="M11.15 -62.55 L13.75 -56.3 20.0 -38.1 Q27.0 -18.05 28.7 -11.35 L30.55 -11.6 Q34.7 -11.6 36.5 -8.85 37.4 -7.45 37.45 -6.05 37.45 -1.3 30.4 -1.3 26.6 -1.3 25.8 -3.65 L25.55 -4.9 Q21.5 -5.25 18.55 -16.6 16.85 -23.0 14.45 -34.95 L9.05 -51.6 6.35 -60.05 Q4.05 -58.2 2.8 -55.3 1.65 -52.7 1.45 -49.25 L1.3 -45.65 0.5 -35.9 Q0.1 -31.6 -1.3 -28.65 L0.7 -27.3 2.95 -26.55 Q6.8 -25.1 9.1 -24.95 L9.3 -23.85 9.3 -23.35 8.4 -23.1 6.05 -23.15 Q9.7 -19.75 9.7 -17.1 9.7 -14.25 6.55 -14.25 2.3 -14.25 -3.45 -21.65 -5.85 -20.45 -5.85 -17.4 L-5.95 -16.8 Q-6.0 -16.55 -6.85 -16.55 -8.35 -16.55 -9.1 -17.35 L-9.9 -15.2 Q-6.35 -14.8 -5.95 -11.8 -6.25 -7.65 -5.7 -6.35 -3.8 -3.1 -2.85 -0.95 L-0.35 -4.9 2.1 -7.95 4.2 -9.9 4.4 -9.3 4.7 -9.35 Q6.95 -9.35 7.5 -6.9 L7.65 -4.35 7.4 -3.8 7.65 -3.5 Q7.65 -2.8 3.8 3.9 0.8 10.4 -0.25 13.35 L0.4 14.05 2.05 13.4 4.95 12.75 Q5.85 12.15 6.3 12.1 L7.35 11.9 Q8.45 11.9 9.25 12.35 L9.7 12.35 Q17.55 12.35 17.55 15.4 17.55 18.0 10.75 17.55 L9.65 17.5 Q6.7 21.3 -3.0 31.15 L-5.6 34.4 -5.2 36.5 -4.45 42.5 -5.7 43.0 Q-6.55 41.3 -7.0 38.1 L-7.2 36.4 -8.15 37.65 -7.85 43.45 Q-7.7 50.8 -7.3 53.6 L-7.7 53.9 Q-10.05 51.4 -10.05 41.05 L-10.2 40.25 Q-15.55 46.55 -17.45 46.55 -21.3 46.55 -20.6 42.9 -16.45 30.25 -13.2 23.3 L-10.15 15.45 -7.6 8.9 Q-10.2 11.8 -10.6 11.8 L-23.45 -0.45 Q-26.7 2.7 -31.05 2.75 L-31.25 3.15 Q-40.75 19.6 -40.75 22.7 -40.75 23.3 -39.05 24.3 L-39.7 25.5 Q-40.5 26.55 -41.75 26.55 -43.55 26.55 -44.75 25.0 -45.65 23.75 -45.65 22.8 -39.95 5.9 -35.7 1.95 L-35.7 1.8 Q-35.7 -2.55 -32.35 -7.4 L-30.8 -9.4 -30.75 -9.5 Q-22.7 -32.6 -18.5 -32.6 -16.0 -32.6 -15.35 -30.3 L-15.25 -28.95 -13.4 -37.35 Q-11.5 -45.05 -11.5 -46.05 -11.5 -46.75 -12.15 -47.75 -12.85 -48.75 -12.85 -49.45 -7.85 -72.8 -0.55 -72.8 1.9 -72.8 2.6 -70.85 L2.8 -68.75 0.8 -61.9 1.4 -62.65 Q2.75 -64.15 3.05 -67.4 3.3 -69.85 4.25 -70.2 L15.2 -70.8 Q28.2 -70.8 28.2 -66.2 28.2 -63.15 25.95 -63.05 L21.45 -63.25 Q25.3 -55.95 31.2 -42.45 38.55 -25.6 38.55 -24.05 38.0 -22.7 38.1 -22.3 33.0 -30.2 27.6 -44.0 L20.15 -63.35 18.3 -63.55 Q14.2 -63.55 11.15 -62.55 M32.25 13.1 Q32.5 16.1 30.8 16.1 27.1 16.1 27.5 10.2 27.5 7.7 29.5 7.7 32.4 7.7 32.25 13.1 M-51.4 23.45 Q-51.4 24.25 -53.45 30.4 -55.6 36.7 -55.7 38.25 -56.1 38.25 -56.1 38.65 L-57.25 38.5 -57.7 35.35 Q-57.7 31.95 -55.3 25.95 -52.75 19.55 -50.8 19.25 -51.4 20.55 -51.4 23.45 M-58.7 41.25 Q-58.7 42.9 -69.05 58.35 -80.15 74.95 -84.3 74.95 -85.6 74.95 -86.55 74.0 L-74.25 56.5 Q-66.5 45.95 -60.15 39.85 L-58.7 41.25 M-45.4 66.2 Q-33.55 52.4 -31.7 52.4 -29.9 52.4 -29.05 54.0 -27.9 56.1 -23.25 57.5 -15.9 59.65 -15.9 63.7 -15.9 65.0 -17.65 72.4 L-17.7 75.1 Q-17.6 76.5 -17.85 77.1 -18.7 78.75 -25.25 78.75 -36.15 83.5 -36.9 83.5 -38.5 83.5 -40.9 82.65 -44.55 81.4 -45.8 78.9 L-48.3 81.8 Q-51.0 84.45 -53.35 84.45 -57.45 84.45 -57.0 80.8 -57.0 79.75 -45.4 66.2" fill="#000000" fill-opacity="0.33333334" fill-rule="evenodd" stroke="none"/>
    <path d="M41.65 -59.65 L39.5 -47.05 40.5 -47.5 Q45.9 -47.5 44.9 -43.45 44.9 -41.3 44.1 -38.8 43.05 -35.35 41.15 -35.05 L41.0 -34.85 Q40.85 -34.8 40.85 -35.7 40.85 -36.0 42.15 -38.75 43.4 -41.55 43.4 -43.6 43.4 -45.7 41.6 -45.7 40.55 -45.7 39.75 -45.15 L39.1 -44.75 33.5 -10.75 34.35 -11.25 34.25 -11.75 Q33.9 -11.95 35.25 -11.95 40.3 -11.95 41.3 -6.95 41.3 -5.4 39.7 -3.15 37.75 -0.4 35.15 -0.4 34.55 -0.4 32.95 -0.95 32.5 -2.05 32.5 -2.9 L33.25 -2.65 Q32.8 -3.7 32.65 -5.55 L30.8 6.2 Q34.4 6.35 34.65 11.3 34.65 12.9 33.45 14.7 31.75 17.3 28.45 17.3 L27.75 17.25 27.25 19.6 26.6 19.8 27.05 17.0 25.6 16.25 25.35 15.85 Q25.8 15.5 27.25 15.45 L28.45 7.45 Q27.9 7.15 27.9 6.6 L28.6 6.45 32.6 -20.45 Q35.7 -40.65 39.3 -55.0 L39.3 -55.85 Q39.3 -58.85 38.65 -59.8 L36.9 -61.25 36.0 -55.35 Q35.0 -49.0 34.5 -47.5 L32.4 -47.6 31.85 -52.95 Q31.85 -54.85 32.9 -57.85 33.75 -60.2 34.1 -62.3 L32.25 -62.75 32.25 -63.1 26.45 -65.5 26.65 -65.75 Q20.4 -68.05 15.8 -69.35 15.7 -66.75 13.95 -54.85 L14.25 -54.85 Q18.95 -54.85 21.2 -50.9 L22.5 -46.8 Q22.5 -45.8 21.7 -44.45 20.7 -42.65 19.2 -42.65 L12.15 -42.95 11.45 -38.55 11.5 -38.55 Q12.85 -37.6 20.3 -37.6 23.5 -37.6 25.4 -41.8 26.75 -44.85 26.75 -47.15 26.75 -50.85 24.4 -54.15 21.35 -58.4 15.45 -59.6 L15.0 -59.75 15.0 -60.55 17.65 -60.65 Q22.8 -60.65 25.95 -53.95 L28.05 -47.1 Q28.05 -43.8 26.65 -41.15 23.9 -36.05 16.8 -36.05 12.45 -36.05 11.25 -37.2 L10.75 -34.05 9.2 -24.1 11.95 -24.55 Q17.7 -24.55 21.3 -18.75 23.95 -14.5 23.95 -11.6 23.95 -8.5 21.9 -4.15 18.95 2.0 14.05 2.0 L5.15 1.65 Q5.0 1.55 5.35 1.0 5.7 0.45 5.35 -0.1 L5.35 -0.4 Q6.25 0.35 7.65 0.35 17.55 0.35 20.95 -5.6 22.65 -8.6 22.4 -11.7 22.4 -15.1 19.25 -18.95 15.2 -23.85 9.2 -23.15 L9.15 -23.8 6.6 -8.6 Q10.1 -7.65 12.05 -9.1 13.55 -10.25 13.55 -12.05 13.55 -13.25 12.3 -14.5 10.75 -16.0 8.65 -15.45 L8.0 -16.65 Q8.35 -17.1 10.75 -17.1 12.5 -17.1 13.85 -14.75 14.85 -13.0 14.85 -12.25 14.85 -10.65 13.7 -8.85 12.1 -6.45 9.4 -6.45 L6.95 -6.6 6.5 -7.9 Q4.1 5.9 2.4 13.55 L2.75 13.2 2.25 15.45 2.4 15.5 Q19.0 16.5 26.75 20.15 L26.75 20.8 Q26.65 21.15 25.8 21.15 L22.5 20.85 Q20.55 22.4 16.6 23.05 12.35 27.75 7.75 36.35 2.3 46.55 -3.45 51.85 -4.7 53.0 -12.45 58.35 L-14.9 60.1 -14.3 60.8 Q-17.9 65.05 -18.35 72.3 L-18.5 78.15 Q-18.6 81.55 -19.05 83.6 -19.65 82.85 -20.25 79.7 L-20.75 75.45 Q-20.75 71.5 -19.55 66.45 -19.05 64.15 -18.4 62.6 L-22.2 65.8 Q-26.75 70.5 -31.3 80.85 L-32.4 80.85 Q-32.7 81.65 -32.7 80.25 -32.7 79.0 -28.75 72.35 -24.9 65.9 -23.65 64.65 -22.05 63.05 -14.45 58.2 -7.55 53.75 -4.9 50.4 L6.55 34.95 Q7.55 33.6 8.45 31.1 L10.05 27.05 Q11.75 23.6 15.4 22.2 16.85 20.9 18.5 20.3 L10.65 19.2 3.6 18.1 Q-3.1 20.45 -6.3 23.95 L-9.1 27.8 -9.65 28.65 Q-10.0 33.4 -10.85 37.1 L-11.45 36.95 -11.6 35.9 -11.55 31.6 Q-12.2 34.8 -14.95 40.15 -19.15 48.15 -19.75 49.85 -20.35 50.0 -20.5 49.6 -13.05 35.0 -11.55 31.0 L-11.9 31.3 -12.45 31.35 -11.5 29.15 -11.5 27.2 -11.6 27.3 Q-12.7 30.5 -13.25 31.35 -14.0 30.75 -14.0 29.4 -14.0 26.85 -12.7 23.4 -11.4 19.9 -11.4 18.3 -12.95 22.35 -14.65 29.15 -17.85 37.75 -25.9 42.5 L-26.95 41.8 Q-19.9 36.45 -16.65 27.85 -14.05 18.3 -12.3 14.1 -10.4 9.5 -4.15 0.3 3.15 -10.5 4.7 -13.35 L5.4 -13.25 5.65 -12.3 Q5.65 -9.25 -1.25 1.4 L-10.15 15.3 -10.2 15.45 -9.3 15.3 -8.95 15.7 -6.95 15.4 -5.65 15.6 Q-5.4 15.2 -4.8 15.2 L1.1 15.45 1.5 15.25 2.3 13.75 1.7 13.55 6.0 -12.6 Q5.3 -13.5 3.95 -16.5 1.6 -20.2 -2.0 -20.2 L-5.7 -18.75 Q-6.15 -12.55 -11.85 -7.8 L-13.45 -6.6 Q-8.65 -3.05 -7.15 -0.6 L-7.15 -0.4 Q-9.45 -1.95 -14.05 -6.15 -17.6 -3.85 -24.9 0.25 L-24.55 2.15 -25.5 0.6 Q-34.15 5.45 -37.6 9.65 -42.85 16.0 -41.45 25.0 L-42.3 26.0 Q-43.5 25.15 -43.5 23.75 -43.5 18.8 -40.25 11.95 -36.55 4.1 -31.55 1.2 L-26.35 -1.8 -27.0 -4.55 -26.8 -6.45 -26.35 -6.45 -25.45 -2.35 -19.95 -5.6 -20.05 -6.4 Q-20.05 -11.85 -17.8 -22.8 L-21.1 -18.6 -21.15 -18.55 -25.1 -12.65 -25.3 -12.3 Q-25.55 -12.1 -25.55 -13.0 -25.55 -14.25 -22.3 -18.8 L-22.35 -19.3 Q-19.85 -25.85 -16.7 -27.95 L-14.15 -38.8 -12.4 -50.05 -20.15 -42.5 Q-24.85 -37.95 -25.8 -34.8 -27.35 -29.4 -37.1 -18.55 -38.9 -16.55 -46.1 -10.95 -52.4 -5.6 -52.2 -2.4 L-51.45 5.55 Q-51.1 10.45 -51.95 13.75 -52.55 16.1 -55.85 21.95 -58.8 27.2 -59.1 30.35 L-59.2 34.35 -59.1 34.95 -59.2 35.75 -59.15 38.4 -59.15 38.75 -61.6 40.8 Q-68.1 51.9 -91.8 80.85 L-93.0 80.85 Q-93.2 80.65 -93.45 80.7 L-93.55 79.85 Q-93.55 78.9 -80.45 61.6 -66.95 43.8 -61.45 35.5 -61.6 31.9 -60.1 27.5 L-55.8 17.3 Q-54.1 13.25 -54.1 7.4 L-54.5 -2.2 Q-54.5 -5.4 -51.35 -8.85 -49.3 -11.1 -43.7 -15.45 -41.2 -17.45 -37.95 -21.6 L-32.95 -28.1 Q-31.2 -30.15 -29.1 -34.15 L-25.4 -40.9 Q-20.65 -48.35 -12.25 -51.05 L-11.7 -55.05 Q-9.9 -64.95 -6.75 -70.55 L-7.85 -65.75 0.5 -74.55 Q1.65 -74.1 1.8 -73.45 L-0.05 -71.7 Q0.6 -72.05 1.5 -72.25 L1.45 -72.4 2.35 -72.55 2.75 -72.5 3.65 -72.65 Q12.8 -72.65 28.25 -66.0 30.4 -65.8 34.6 -63.95 L34.95 -63.95 36.9 -63.3 Q37.0 -64.1 37.0 -62.85 L37.55 -62.6 38.1 -62.45 Q41.5 -61.55 41.85 -60.9 L41.75 -60.35 43.4 -59.2 43.4 -59.15 41.65 -59.65 M11.05 -68.25 L7.2 -69.6 Q4.45 -70.55 3.15 -70.55 L2.65 -64.0 Q2.3 -60.15 0.75 -57.5 -0.45 -57.9 -0.55 -60.1 -5.35 -33.85 -8.4 -18.35 -7.4 -19.65 -6.15 -20.25 L-6.0 -20.4 -5.85 -20.6 -5.45 -21.0 Q-3.85 -22.4 -1.6 -22.4 2.85 -22.4 5.35 -17.9 L6.4 -15.0 9.25 -33.45 10.15 -39.15 10.1 -39.2 10.15 -39.3 10.85 -43.75 Q10.45 -44.3 10.1 -45.4 10.1 -45.7 10.65 -45.95 L11.1 -45.5 Q14.25 -66.45 14.25 -68.4 14.25 -69.25 14.6 -69.7 10.2 -70.95 7.35 -71.15 10.5 -70.0 11.7 -69.05 L11.05 -68.25 M1.4 -70.25 Q0.5 -62.75 0.35 -58.85 L0.35 -58.7 Q2.7 -66.3 1.7 -70.85 L1.4 -70.8 1.4 -70.25 M13.95 -54.75 L12.35 -44.35 Q13.45 -43.5 13.95 -43.5 22.85 -43.5 21.75 -47.25 21.75 -53.35 13.95 -53.95 L13.95 -54.75 M34.6 -62.15 Q33.8 -60.65 32.4 -52.85 L33.05 -48.25 Q35.05 -49.7 35.55 -53.3 L36.0 -58.9 36.0 -61.65 35.3 -61.9 34.6 -62.15 M0.2 -7.9 Q-0.4 -8.0 -3.5 -10.15 -6.75 -12.45 -6.75 -13.2 L-6.65 -14.05 -6.25 -14.1 0.2 -8.2 0.2 -7.9 M38.7 -8.85 Q37.4 -10.2 35.05 -10.65 L35.05 -10.4 34.4 -6.6 34.2 -2.5 34.7 -2.5 Q38.8 -2.5 39.7 -6.9 39.7 -7.75 38.7 -8.85 M30.5 8.05 L30.2 9.8 29.75 9.8 29.7 7.8 29.6 7.8 28.15 15.4 Q32.3 15.35 32.65 11.15 32.65 8.95 30.5 8.05 M-8.2 -64.2 Q-10.75 -52.8 -13.4 -38.05 L-15.0 -28.8 Q-14.7 -29.4 -14.7 -28.1 -14.7 -27.6 -15.45 -26.3 L-19.0 -6.2 Q-14.65 -8.9 -13.9 -9.75 -12.15 -11.65 -9.95 -15.95 -5.35 -48.9 -0.1 -65.85 L0.7 -70.75 -1.35 -70.45 -7.55 -63.95 -8.2 -64.2 M-4.85 17.7 Q-9.55 18.0 -9.55 21.4 L-9.55 24.1 -6.15 20.6 -2.7 17.65 -4.85 17.7 M-1.55 17.6 Q-4.05 19.05 -6.2 21.25 L-9.55 24.9 -9.55 26.1 -6.25 22.25 Q-3.15 19.0 -0.25 17.5 L-0.5 17.45 -1.55 17.6 M-80.9 77.65 L-80.65 77.15 -80.9 77.95 -80.9 77.65 M-25.05 57.35 Q-29.45 55.55 -31.6 55.55 -35.4 55.55 -36.35 57.65 L-37.25 60.75 Q-37.55 60.65 -37.9 60.5 L-36.05 56.15 Q-34.9 54.6 -31.7 54.6 -29.15 54.6 -25.95 56.05 L-19.8 58.85 -20.9 59.1 -25.05 57.35 M-32.3 68.9 Q-35.55 76.6 -37.25 79.75 L-37.75 80.0 Q-30.15 59.5 -27.35 58.05 -29.15 61.35 -32.3 68.9" fill="#000000" fill-rule="evenodd" stroke="none"/>
  </g>
  <defs>
    <radialGradient cx="0" cy="0" gradientTransform="matrix(0.1185, 0.0, 0.0, 0.1185, -31.75, 0.2)" gradientUnits="userSpaceOnUse" id="gradient0" r="819.2" spreadMethod="pad">
      <stop offset="0.01568627450980392" stop-color="#fce48b"/>
      <stop offset="0.4" stop-color="#f5bf45"/>
      <stop offset="1.0" stop-color="#8795b4"/>
    </radialGradient>
    <radialGradient cx="0" cy="0" gradientTransform="matrix(0.0535, 0.0, 0.0, 0.0884, 1.5, -31.95)" gradientUnits="userSpaceOnUse" id="gradient1" r="819.2" spreadMethod="pad">
      <stop offset="0.5254901960784314" stop-color="#3c3c3c"/>
      <stop offset="1.0" stop-color="#8d8ab0"/>
    </radialGradient>
  </defs>
</svg>
