<?xml version="1.0" encoding="UTF-8" standalone="no"?>
<svg xmlns:ffdec="https://www.free-decompiler.com/flash" xmlns:xlink="http://www.w3.org/1999/xlink" ffdec:objectType="shape" height="205.3px" width="265.45px" xmlns="http://www.w3.org/2000/svg">
  <g transform="matrix(1.0, 0.0, 0.0, 1.0, 132.0, 121.95)">
    <path d="M129.95 -84.5 L129.95 78.5 -132.0 78.5 -132.0 -84.5 129.95 -84.5" fill="#ff9900" fill-rule="evenodd" stroke="none"/>
    <path d="M124.3 -40.55 L126.45 -40.55 126.45 76.55 -129.4 76.55 -129.4 -40.55 -126.75 -40.55 124.3 -40.55" fill="url(#gradient0)" fill-rule="evenodd" stroke="none"/>
    <path d="M-126.75 -40.55 L-126.75 -76.5 124.3 -76.5 124.3 -40.55 -126.75 -40.55" fill="url(#gradient1)" fill-rule="evenodd" stroke="none"/>
    <path d="M12.45 -75.7 L12.35 -76.5 Q12.35 -78.1 18.8 -81.85 25.6 -85.8 29.45 -85.8 33.2 -85.8 33.55 -81.85 L33.55 -81.6 Q39.25 -86.45 43.7 -86.45 46.25 -86.45 46.3 -83.85 L46.2 -83.75 Q49.75 -82.0 52.0 -74.95 54.25 -76.65 58.65 -77.8 64.15 -79.25 79.05 -81.6 83.1 -82.35 87.05 -84.95 89.25 -86.4 93.25 -89.5 96.2 -91.45 102.85 -93.5 108.6 -95.25 110.2 -95.25 115.0 -95.25 119.0 -80.85 119.0 -79.5 117.05 -75.9 L116.85 -75.5 110.9 -73.3 Q102.85 -69.85 102.85 -66.95 L103.6 -64.6 103.8 -64.4 Q105.35 -59.2 108.05 -45.3 108.05 -44.15 107.3 -43.1 106.65 -42.15 105.6 -41.8 L104.4 -41.65 Q103.05 -41.65 99.15 -43.35 L97.3 -44.25 Q94.85 -45.5 94.5 -46.4 L94.3 -46.9 92.15 -46.4 90.65 -46.8 90.6 -47.2 Q89.25 -46.65 87.85 -46.65 L83.8 -47.05 Q83.15 -45.95 81.85 -45.35 L57.95 -48.5 43.85 -47.7 Q41.9 -48.05 41.1 -49.3 40.6 -50.2 40.7 -51.2 40.7 -52.8 42.05 -53.95 L42.0 -55.45 Q42.0 -58.2 43.0 -60.85 44.0 -63.55 44.0 -65.35 44.0 -69.05 41.35 -74.7 L39.95 -77.7 Q35.6 -73.75 32.9 -72.05 32.65 -67.75 28.35 -67.75 L24.45 -67.95 23.0 -69.85 Q18.85 -74.8 12.45 -75.7 M84.75 -56.2 Q86.0 -56.2 87.2 -57.3 L86.9 -57.3 Q85.85 -57.3 84.75 -56.2" fill="url(#gradient2)" fill-rule="evenodd" stroke="none"/>
    <path d="M-18.3 -44.3 Q-16.65 -46.2 -11.95 -46.4 L-10.9 -46.5 Q-7.25 -53.2 -3.55 -54.95 L-1.5 -57.85 0.45 -60.3 0.3 -60.6 Q-0.3 -61.7 -0.3 -62.4 -0.3 -64.5 0.75 -65.9 L4.15 -69.7 Q5.0 -70.65 5.75 -73.5 6.75 -75.9 9.45 -75.9 L12.45 -75.7 Q18.85 -74.8 23.0 -69.85 L24.45 -67.95 Q26.5 -65.05 26.5 -63.15 18.15 -49.5 12.7 -45.25 L8.95 -41.55 Q5.2 -38.0 2.7 -36.4 L0.5 -33.75 -0.95 -32.25 -1.3 -30.55 Q-1.3 -29.6 -1.95 -28.15 -2.9 -26.15 -4.3 -26.15 -6.05 -26.15 -7.3 -27.0 -8.9 -28.1 -9.75 -30.55 L-10.15 -31.95 -10.45 -34.0 -10.5 -34.0 Q-13.45 -34.0 -15.6 -35.8 L-15.55 -35.9 Q-14.75 -37.25 -14.75 -38.6 -14.75 -40.75 -16.2 -42.55 -17.05 -43.6 -18.3 -44.3" fill="url(#gradient3)" fill-rule="evenodd" stroke="none"/>
    <path d="M113.95 -28.1 L113.95 -27.8 115.05 -8.8 115.1 -7.75 Q118.55 -7.25 121.4 -1.95 121.4 -1.0 120.55 0.9 119.65 2.75 119.65 4.65 119.65 6.05 120.75 8.45 120.75 9.85 119.7 12.05 120.85 13.0 120.85 14.85 120.85 17.3 114.25 31.05 L106.9 47.3 Q106.9 47.95 107.55 49.15 108.2 50.3 108.2 51.0 108.2 58.35 100.15 58.35 93.45 58.35 88.1 48.4 85.6 47.15 82.3 44.3 L81.8 43.85 76.45 38.4 76.45 38.1 Q76.45 36.5 76.7 35.35 L76.5 33.1 Q74.5 30.5 74.25 25.65 74.05 22.45 74.7 17.7 L75.35 12.4 74.7 6.65 68.75 9.9 Q52.7 18.4 46.65 18.4 L46.2 18.4 Q43.95 19.25 42.6 19.25 38.8 19.25 38.8 16.75 L34.2 18.25 32.45 18.2 32.0 18.4 Q29.05 19.7 26.05 19.7 L22.9 19.65 20.2 19.45 Q11.9 18.65 9.8 15.2 8.9 13.8 8.9 11.5 L8.8 8.5 Q6.85 3.2 6.05 0.25 5.5 -1.85 5.5 -2.85 19.75 -21.35 27.9 -28.15 L30.3 -31.45 Q34.35 -36.55 37.25 -38.75 36.6 -40.7 35.8 -42.1 35.8 -45.0 39.15 -46.45 L43.85 -47.7 57.95 -48.5 81.85 -45.35 83.8 -45.1 91.75 -43.25 Q93.05 -44.4 95.7 -44.4 L97.3 -44.25 99.15 -43.35 Q103.05 -41.65 104.4 -41.65 L105.6 -41.8 Q109.25 -40.45 111.2 -39.0 111.5 -34.65 112.1 -32.0 112.6 -29.45 113.95 -28.1 M38.6 -3.4 L38.5 -4.5 37.65 -3.6 37.5 -3.4 38.6 -3.4 M71.6 -6.05 L71.6 -5.35 Q71.6 -4.1 70.9 -2.6 72.4 -2.05 72.45 -0.05 L71.8 1.15 Q72.95 0.55 73.95 0.05 L73.3 -6.6 Q72.3 -6.05 71.6 -6.05" fill="url(#gradient4)" fill-rule="evenodd" stroke="none"/>
    <path d="M-18.95 35.5 Q-20.4 32.25 -20.4 27.7 L-20.4 27.3 -22.25 24.2 Q-25.15 18.25 -27.55 16.7 -34.2 12.5 -37.25 8.75 -40.6 8.4 -44.3 5.5 L-44.3 5.45 Q-43.55 4.4 -43.55 3.7 -43.55 2.75 -44.15 1.9 -45.25 0.3 -47.95 0.3 -48.7 0.3 -49.35 0.65 L-49.75 0.15 -49.7 -0.3 -49.75 -1.25 Q-49.3 -2.6 -47.75 -2.9 -44.45 0.45 -41.65 0.45 L-40.75 0.2 -39.55 1.15 -39.0 0.4 -35.6 -3.0 -35.95 -3.7 Q-36.35 -3.4 -36.6 -3.4 L-37.3 -3.45 -37.3 -3.6 Q-37.3 -4.4 -41.65 -10.9 L-41.85 -13.25 -41.8 -13.75 -43.2 -20.35 Q-41.0 -24.75 -38.85 -28.05 L-38.45 -29.05 -33.3 -33.8 -32.0 -35.0 -31.25 -35.05 -19.5 -33.65 -17.75 -33.9 -14.2 -34.2 Q-12.1 -34.2 -10.15 -31.95 L-9.75 -30.55 Q-8.9 -28.1 -7.3 -27.0 L-4.3 -18.8 Q3.75 -6.8 3.75 -3.6 L3.5 -2.35 Q4.75 -1.55 6.05 0.25 6.85 3.2 8.8 8.5 L8.9 11.5 Q8.9 13.8 9.8 15.2 11.9 18.65 20.2 19.45 L21.7 20.4 Q25.4 22.9 26.85 24.75 L27.75 26.35 Q30.15 28.55 30.35 32.1 31.9 35.75 31.9 36.35 31.9 39.7 28.9 39.7 27.05 39.7 25.05 38.9 18.9 42.05 5.7 44.1 -7.85 44.1 -13.3 41.35 -17.2 39.4 -18.95 35.5 M-1.3 34.75 Q-3.9 33.4 -4.15 34.1 L-1.3 34.75" fill="url(#gradient5)" fill-rule="evenodd" stroke="none"/>
    <path d="M116.85 -75.5 Q119.95 -76.45 122.0 -76.45 125.95 -76.45 126.0 -72.85 126.0 -71.15 122.05 -68.2 L122.4 -66.05 Q122.2 -57.4 122.3 -54.45 123.5 -41.8 123.5 -35.45 123.5 -33.3 122.1 -30.3 L121.15 -28.6 121.4 -26.45 122.25 -18.4 Q122.5 -18.9 123.3 -19.25 124.5 -17.25 126.05 -6.6 127.45 2.9 127.45 5.7 L127.15 14.7 Q128.9 15.6 128.75 18.9 128.75 21.8 126.3 22.2 L126.25 22.55 125.6 22.55 125.6 22.25 125.45 22.25 Q124.55 23.3 122.55 23.3 120.5 23.3 119.8 21.75 L119.55 20.05 Q119.55 18.85 120.4 17.85 121.2 16.85 122.45 16.75 123.05 14.5 125.1 14.35 L123.7 2.15 Q122.55 -7.2 122.25 -13.5 L122.2 -13.2 Q122.15 -12.65 120.75 -12.65 119.0 -12.65 118.55 -16.65 L118.25 -22.4 117.8 -20.1 117.15 -20.1 117.05 -21.55 Q117.05 -24.4 117.3 -26.6 115.25 -26.8 113.95 -28.1 112.6 -29.45 112.1 -32.0 111.5 -34.65 111.2 -39.0 L111.1 -39.9 109.35 -45.8 Q107.8 -51.35 107.8 -52.8 107.8 -53.45 109.2 -55.95 L106.2 -62.85 Q104.65 -63.35 103.8 -64.4 L103.6 -64.6 102.85 -66.95 Q102.85 -69.85 110.9 -73.3 L116.85 -75.5 M122.85 45.7 L121.1 45.5 Q121.6 49.9 118.5 49.9 112.95 49.9 112.95 45.4 112.95 41.35 118.1 41.35 119.6 41.35 120.5 42.05 120.9 40.25 122.85 40.25 125.25 40.25 125.7 43.3 125.7 45.7 122.85 45.7 M118.75 34.15 Q118.5 33.65 118.5 32.75 118.5 31.9 119.0 30.8 119.65 29.35 120.75 29.35 124.2 29.35 124.0 32.55 124.0 35.4 121.25 35.4 119.4 35.4 118.75 34.15 M128.75 72.9 Q127.15 75.75 126.25 75.75 123.55 75.75 122.2 67.85 L121.4 59.8 Q121.4 58.9 122.1 57.85 122.95 56.5 124.4 56.5 130.35 56.5 130.35 68.85 130.35 70.1 128.75 72.9" fill="url(#gradient6)" fill-rule="evenodd" stroke="none"/>
    <path d="M126.8 -25.0 Q126.8 -24.05 125.45 -23.4 124.7 -23.7 124.3 -24.1 124.15 -24.5 124.15 -25.7 L125.45 -26.05 Q126.3 -26.05 126.8 -25.0 M-62.0 -11.85 Q-60.15 -11.85 -59.05 -10.2 -58.3 -9.05 -58.3 -8.25 -58.3 -6.9 -59.9 -5.45 -61.7 -3.85 -64.05 -3.85 -67.35 -3.85 -67.35 -6.8 -67.35 -7.85 -66.1 -9.55 -64.45 -11.85 -62.0 -11.85 M-36.5 16.4 Q-36.5 13.85 -34.2 13.85 -32.95 13.85 -32.4 15.4 -32.15 16.15 -32.15 16.95 -32.15 19.45 -34.2 19.45 -36.7 19.45 -36.5 16.4" fill="#5b7450" fill-rule="evenodd" stroke="none"/>
    <path d="M82.3 44.3 Q86.35 49.05 86.35 50.8 L86.15 51.2 Q85.8 50.85 85.35 50.85 L84.45 54.45 Q83.15 55.0 83.15 56.85 L83.3 57.9 82.25 59.5 81.95 59.5 Q80.05 59.5 80.05 61.35 L80.45 62.3 80.05 63.0 81.8 65.0 81.45 66.8 Q81.45 68.55 83.3 69.7 L83.95 68.7 85.05 70.6 Q86.5 73.0 87.9 74.7 87.45 76.55 85.65 77.3 83.55 78.2 77.75 78.2 77.05 78.2 75.6 78.9 74.15 79.6 73.45 79.6 L63.8 78.95 58.6 77.35 56.65 77.85 Q42.35 81.5 16.55 81.5 8.15 81.5 4.0 78.9 L1.75 76.95 0.6 75.65 -0.1 75.2 -4.25 76.35 Q-7.6 77.55 -14.2 77.55 L-23.1 76.65 Q-22.55 78.65 -22.55 79.65 -22.55 83.35 -26.4 83.35 -35.2 83.35 -36.3 62.2 -36.3 58.05 -35.2 56.5 -31.2 50.75 -30.0 48.6 -28.05 43.75 -26.5 40.8 -23.65 35.3 -20.55 35.3 L-18.95 35.5 Q-17.2 39.4 -13.3 41.35 -7.85 44.1 5.7 44.1 18.9 42.05 25.05 38.9 27.05 39.7 28.9 39.7 31.9 39.7 31.9 36.35 31.9 35.75 30.35 32.1 30.15 28.55 27.75 26.35 L26.85 24.75 Q25.4 22.9 21.7 20.4 L22.9 19.65 26.05 19.7 Q29.05 19.7 32.0 18.4 L33.9 18.95 Q42.9 19.1 50.5 20.8 55.6 21.5 59.2 23.45 67.25 26.55 68.45 30.0 L69.4 31.05 76.45 38.1 76.45 38.4 81.8 43.85 82.3 44.3 M58.9 36.4 L58.3 36.15 58.95 36.9 58.9 36.4" fill="url(#gradient7)" fill-rule="evenodd" stroke="none"/>
    <path d="M86.35 51.35 L87.0 53.1 Q88.85 53.25 101.2 62.05 L109.35 66.75 Q112.2 68.55 112.2 71.15 112.2 72.45 111.25 73.9 109.9 75.9 107.55 75.9 105.8 75.9 103.45 74.85 L103.15 75.35 Q102.3 77.0 101.1 77.0 98.9 77.0 95.6 73.65 L94.9 73.7 94.65 73.7 95.7 75.4 Q95.7 76.25 95.0 77.2 94.3 78.2 93.55 78.2 90.8 78.2 87.9 74.7 86.5 73.0 85.05 70.6 L83.95 68.7 83.3 69.7 Q81.45 68.55 81.45 66.8 L81.8 65.0 81.9 64.7 81.55 63.8 80.45 62.3 80.05 61.35 Q80.05 59.5 81.95 59.5 L82.25 59.5 83.1 59.65 83.45 58.3 83.3 57.9 83.15 56.85 Q83.15 55.0 84.45 54.45 L85.35 50.85 Q85.8 50.85 86.15 51.2 L86.35 51.35" fill="url(#gradient8)" fill-rule="evenodd" stroke="none"/>
    <path d="M86.35 50.8 L86.35 51.35 86.15 51.2 86.35 50.8" fill="url(#gradient9)" fill-rule="evenodd" stroke="none"/>
    <path d="M-47.75 -2.9 L-49.05 -4.35 -51.4 -7.4 -52.85 -6.1 Q-55.15 -4.2 -56.4 -3.85 L-57.85 -5.25 Q-57.85 -6.65 -55.5 -7.95 L-53.7 -8.9 Q-55.65 -10.2 -56.8 -13.3 L-56.95 -13.3 Q-62.15 -13.3 -62.6 -22.4 -61.5 -34.9 -55.85 -34.9 L-55.3 -34.85 Q-53.3 -37.1 -50.65 -37.85 L-48.15 -41.25 Q-46.5 -43.6 -43.2 -44.0 L-41.05 -44.25 Q-38.45 -46.25 -34.2 -47.95 L-32.65 -46.3 -34.2 -45.2 -32.4 -45.5 -26.1 -45.95 Q-21.15 -45.95 -18.3 -44.3 -17.05 -43.6 -16.2 -42.55 -14.75 -40.75 -14.75 -38.6 -14.75 -37.25 -15.55 -35.9 L-15.6 -35.8 Q-16.4 -34.45 -17.75 -33.9 L-19.5 -33.65 -31.25 -35.05 -32.0 -35.0 -33.3 -33.8 -38.45 -29.05 -38.6 -28.9 -41.75 -23.95 -42.1 -23.35 -43.3 -20.75 -43.2 -20.35 -41.8 -13.75 -41.85 -13.25 Q-42.0 -12.7 -42.45 -12.1 L-42.45 -12.05 -41.75 -11.0 -41.65 -10.9 Q-37.3 -4.4 -37.3 -3.6 L-37.3 -3.45 Q-37.35 -2.6 -38.05 -1.75 -38.9 -0.75 -40.05 -0.75 -40.15 -0.15 -40.75 0.2 L-41.65 0.45 Q-44.45 0.45 -47.75 -2.9" fill="url(#gradient10)" fill-rule="evenodd" stroke="none"/>
    <path d="M-50.85 2.4 L-52.05 4.2 Q-54.5 7.7 -55.6 7.7 -60.2 7.7 -59.6 4.6 -59.6 2.5 -57.85 -0.2 -55.8 -3.5 -53.0 -3.5 -50.7 -3.5 -50.0 -2.0 L-49.75 -1.25 -49.7 -0.3 -49.75 0.15 -50.45 1.65 -50.85 2.4" fill="url(#gradient11)" fill-rule="evenodd" stroke="none"/>
    <path d="M-44.3 5.5 L-45.1 6.25 Q-46.0 6.9 -47.2 6.9 L-47.5 6.9 Q-51.45 6.8 -51.25 4.15 -51.25 3.25 -50.85 2.4 L-50.45 1.65 -50.4 1.6 -49.35 0.65 Q-48.7 0.3 -47.95 0.3 -45.25 0.3 -44.15 1.9 -43.55 2.75 -43.55 3.7 -43.55 4.4 -44.3 5.45 L-44.3 5.5 M-36.6 11.75 Q-36.05 12.8 -36.05 13.5 -36.05 14.25 -36.6 15.1 -37.35 16.25 -38.5 16.25 -41.5 16.25 -41.5 12.85 -41.5 10.1 -39.05 10.1 -37.45 10.1 -36.6 11.75" fill="#e4bd23" fill-rule="evenodd" stroke="none"/>
    <path d="M-45.1 6.25 Q-44.2 6.5 -43.8 7.4 -43.55 7.95 -43.55 8.8 -43.55 9.8 -45.25 12.4 -47.0 15.1 -47.95 15.1 -50.8 15.1 -50.15 12.55 -49.0 8.35 -47.5 6.9 L-47.2 6.9 Q-46.0 6.9 -45.1 6.25" fill="url(#gradient12)" fill-rule="evenodd" stroke="none"/>
    <path d="M47.15 -50.6 Q47.15 -49.4 46.5 -48.15 L45.55 -46.95 Q45.35 -45.1 44.0 -45.1 41.25 -45.1 40.45 -46.75 40.15 -47.3 40.15 -48.6 L40.2 -49.0 Q39.75 -49.8 39.7 -50.7 39.7 -52.1 41.1 -53.1 42.35 -54.0 43.7 -54.0 47.55 -54.0 47.15 -50.6 M49.1 -48.4 L49.05 -49.0 Q49.05 -51.4 51.6 -51.45 L52.3 -52.7 Q53.8 -54.75 56.35 -54.75 59.7 -54.75 61.25 -52.65 60.7 -52.35 60.7 -52.1 L61.1 -50.85 62.2 -50.75 62.55 -48.95 62.2 -47.3 Q62.2 -49.55 60.05 -49.55 58.4 -49.55 58.05 -48.2 L56.5 -49.25 56.75 -50.65 Q56.9 -53.1 54.2 -53.1 51.75 -53.1 51.75 -50.6 51.75 -48.1 54.2 -48.1 L55.0 -48.15 55.45 -47.25 Q56.0 -46.1 57.95 -46.1 L58.05 -46.1 58.05 -45.95 60.05 -45.35 61.15 -45.5 Q59.75 -43.85 57.45 -43.85 53.85 -43.85 52.2 -46.3 L52.1 -46.5 Q50.55 -46.55 49.8 -47.2 L49.9 -47.2 Q49.9 -47.55 50.3 -47.55 L50.15 -48.7 49.1 -48.4 M77.65 -68.5 Q77.0 -67.95 76.45 -67.95 74.95 -67.95 74.25 -69.2 73.8 -70.0 73.8 -70.65 73.8 -72.7 75.9 -72.7 78.2 -72.7 78.4 -70.1 78.4 -69.2 77.65 -68.5 M71.15 -70.5 Q69.3 -70.5 69.3 -72.35 69.3 -73.35 71.15 -74.0 L72.2 -73.85 72.45 -72.8 72.15 -71.05 Q72.5 -70.5 71.15 -70.5 M11.0 -59.15 Q13.65 -59.15 13.8 -56.35 13.8 -53.75 11.0 -53.75 7.7 -53.75 8.25 -56.55 8.25 -59.15 11.0 -59.15 M21.15 -70.65 Q21.15 -75.8 28.1 -75.8 32.3 -75.8 32.5 -71.2 32.5 -69.6 31.2 -67.65 29.5 -65.1 26.8 -65.1 23.8 -65.1 22.2 -67.85 21.35 -69.25 21.15 -70.65 M69.55 -44.55 Q67.15 -44.55 66.4 -46.35 66.1 -47.0 66.1 -48.4 66.1 -51.9 69.55 -51.9 73.05 -51.9 73.0 -48.3 73.0 -44.55 69.55 -44.55 M96.45 -65.75 Q95.4 -65.75 94.95 -66.8 94.75 -67.3 94.7 -67.85 94.7 -69.7 96.45 -69.7 98.2 -69.7 98.2 -67.85 98.2 -65.75 96.45 -65.75 M87.25 -57.55 L85.85 -57.45 Q83.9 -57.45 82.5 -59.8 L81.45 -62.2 Q81.45 -63.4 82.75 -65.4 84.4 -67.85 86.45 -67.85 91.0 -67.85 90.5 -62.05 90.5 -58.75 88.1 -57.8 L88.55 -58.5 88.1 -59.3 87.2 -59.7 Q86.35 -60.5 86.35 -59.1 86.35 -58.0 87.25 -57.55 M85.1 -63.85 L85.25 -62.45 Q87.0 -61.9 87.65 -61.9 89.0 -61.9 88.65 -62.6 L88.8 -63.8 Q88.8 -65.65 86.95 -65.65 85.1 -65.65 85.1 -63.85 M83.8 78.65 Q76.55 76.7 75.1 74.7 73.8 72.95 73.8 69.9 73.85 69.1 74.25 68.35 75.05 66.95 77.0 66.95 82.8 66.95 87.1 75.25 87.1 78.65 83.8 78.65 M-8.2 -4.45 L-5.15 -1.8 Q-2.15 1.45 -1.4 4.3 L-1.55 5.0 -2.45 5.35 -3.95 12.0 Q-5.25 17.4 -5.45 21.3 L-1.55 30.4 -0.55 32.9 4.95 39.9 4.95 40.25 Q4.65 40.8 3.3 40.8 L1.95 40.7 1.75 40.8 1.55 40.6 0.45 40.4 0.3 40.4 0.85 41.5 0.45 42.1 Q3.4 42.85 3.95 47.3 3.95 51.45 -0.55 51.45 -3.4 51.45 -4.75 49.5 -5.6 48.25 -5.6 46.95 -5.6 45.6 -4.6 44.0 -3.55 42.35 -1.9 42.0 L-1.95 40.95 Q-1.95 40.2 -1.35 39.85 -3.15 38.8 -4.85 35.7 L-4.85 35.85 Q-4.85 37.8 -6.85 37.8 -8.8 37.8 -8.8 35.95 -8.8 33.85 -6.85 33.85 -6.1 33.85 -5.65 34.15 L-7.15 30.5 Q-7.6 30.1 -7.55 29.45 L-8.9 25.3 -8.8 24.45 Q-9.15 24.25 -8.4 24.25 -9.2 23.8 -9.2 22.6 -9.2 12.9 -4.15 4.55 L-7.3 1.55 -9.45 -0.8 Q-8.0 -1.3 -8.0 -3.2 -7.95 -3.95 -8.2 -4.45 M26.85 36.35 Q26.85 37.05 26.3 37.95 25.7 38.95 25.0 38.95 22.45 38.95 21.75 37.8 L21.55 36.5 Q21.55 33.65 24.2 33.65 26.85 33.65 26.85 36.35 M35.8 41.0 Q35.8 43.2 33.65 43.2 32.4 43.2 31.9 42.15 31.6 41.55 31.6 40.95 31.6 38.95 33.65 38.95 35.4 38.95 35.8 41.0 M36.55 64.75 L37.4 64.65 Q38.7 64.65 39.4 65.4 L36.6 64.8 36.55 64.75 M47.0 67.0 L47.3 66.65 Q44.95 66.4 43.75 64.5 L44.25 64.55 45.4 63.9 45.0 62.6 43.7 61.9 Q43.25 62.05 42.95 62.25 L42.65 61.1 Q42.65 55.85 46.85 55.85 52.55 55.85 52.35 62.0 L52.35 62.2 51.25 62.25 51.25 62.45 Q49.6 62.85 49.6 64.9 L49.8 66.2 49.95 66.45 49.5 66.4 Q48.25 66.4 47.75 67.15 L47.0 67.0 M54.3 63.1 L57.95 62.8 Q62.0 62.8 63.8 66.3 64.7 68.05 64.8 69.85 L64.55 69.85 62.15 70.1 61.85 69.55 Q63.0 69.5 62.95 69.05 L63.25 68.05 Q63.0 66.95 62.45 66.45 L62.55 66.3 Q62.4 65.45 61.1 64.45 59.65 64.7 59.65 65.75 L59.7 66.6 59.65 67.3 59.8 68.35 58.95 68.25 Q57.85 68.25 56.75 69.3 55.95 68.75 54.75 68.75 L53.8 68.85 53.9 68.25 Q53.9 67.45 53.5 67.1 L54.3 66.4 Q54.85 67.95 56.35 68.1 56.75 67.4 57.05 67.4 56.0 65.2 55.3 65.2 L54.65 65.3 54.65 64.75 Q54.75 63.7 54.3 63.1 M58.35 76.5 L56.35 76.9 57.15 75.35 Q57.65 75.65 58.3 75.75 L58.35 76.5 M51.3 77.0 Q49.3 76.8 47.95 76.15 L50.7 75.15 50.7 75.25 Q50.7 76.05 51.15 76.8 L51.3 77.0 M67.7 62.7 Q69.55 62.7 69.55 64.35 L69.55 65.75 Q69.45 66.1 68.5 66.1 L66.1 65.55 Q65.85 65.75 65.85 64.4 65.85 62.7 67.7 62.7 M50.85 61.05 L51.15 60.6 49.6 59.4 49.25 59.4 49.0 60.0 Q49.0 61.35 49.25 61.05 L50.85 61.05 M59.1 57.6 L59.25 58.5 59.2 59.95 Q59.0 60.35 58.05 60.35 L55.2 59.8 Q55.05 59.8 55.05 58.4 55.05 56.65 57.2 56.65 L57.8 56.7 Q57.8 57.55 57.95 57.95 L58.9 57.95 59.1 57.6 M46.6 57.95 Q47.6 57.95 48.05 57.5 L47.15 56.4 Q46.35 56.4 46.2 56.75 L46.6 57.95 M-7.45 24.45 L-6.55 25.35 -6.9 24.45 -7.35 24.45 -7.45 24.45 M-10.2 48.3 Q-10.2 50.3 -12.1 50.3 -14.2 50.3 -13.95 48.25 L-13.75 46.5 Q-13.45 46.1 -12.1 46.1 -11.0 46.1 -10.5 47.15 -10.2 47.75 -10.2 48.3 M-13.8 69.4 L-13.5 69.9 -13.3 71.25 Q-13.3 72.05 -13.9 72.9 -14.5 73.7 -14.95 73.7 -18.75 73.7 -18.45 71.15 -18.45 70.4 -17.7 69.55 -16.95 68.8 -16.1 68.7 L-15.95 68.85 -13.8 69.4 M-22.35 74.15 L-22.7 74.85 Q-23.75 77.1 -25.85 77.1 -32.3 77.1 -32.3 72.1 -31.35 67.35 -27.4 67.35 -24.35 67.35 -22.9 69.7 -22.15 70.9 -22.0 71.9 L-22.1 71.95 Q-22.85 72.55 -22.85 73.05 -22.85 73.7 -22.35 74.15" fill="#990000" fill-opacity="0.22352941" fill-rule="evenodd" stroke="none"/>
    <path d="M49.1 -48.4 L50.15 -48.7 50.3 -47.55 Q49.9 -47.55 49.9 -47.2 L49.8 -47.2 Q48.95 -47.35 48.6 -47.7 L49.1 -48.4 M61.15 -45.5 L60.05 -45.35 58.05 -45.95 58.05 -46.1 57.95 -46.1 Q56.0 -46.1 55.45 -47.25 L55.0 -48.15 54.2 -48.1 Q51.75 -48.1 51.75 -50.6 51.75 -53.1 54.2 -53.1 56.9 -53.1 56.75 -50.65 L56.5 -49.25 58.05 -48.2 Q58.4 -49.55 60.05 -49.55 62.2 -49.55 62.2 -47.3 62.2 -45.9 61.15 -45.5 M62.2 -50.75 L61.1 -50.85 60.7 -52.1 Q60.7 -52.35 61.25 -52.65 L61.45 -52.75 Q62.2 -53.1 62.2 -53.65 L63.65 -52.25 62.7 -50.7 62.2 -50.75 M88.1 -57.8 L87.5 -57.45 87.25 -57.55 Q86.35 -58.0 86.35 -59.1 86.35 -60.5 87.2 -59.7 L88.1 -59.3 88.55 -58.5 88.1 -57.8 M85.1 -63.85 Q85.1 -65.65 86.95 -65.65 88.8 -65.65 88.8 -63.8 L88.65 -62.6 Q89.0 -61.9 87.65 -61.9 87.0 -61.9 85.25 -62.45 L85.1 -63.85 M85.25 -53.65 Q85.15 -53.1 83.8 -53.1 82.6 -53.1 82.2 -54.15 L82.05 -55.2 Q82.05 -57.05 83.8 -57.05 85.5 -57.05 85.5 -55.25 L85.25 -53.65 M45.0 20.65 L45.1 20.4 45.55 20.4 46.3 21.2 45.9 21.8 46.1 22.3 46.3 22.25 47.05 22.35 47.3 23.2 47.8 23.4 47.4 22.65 Q47.4 21.85 47.95 21.65 L48.45 21.55 50.15 22.65 50.3 23.4 49.0 24.5 48.8 24.35 Q49.1 24.95 49.05 25.85 49.05 27.55 47.9 28.15 48.4 28.45 48.45 28.9 L47.95 30.0 46.75 29.9 Q46.3 30.45 46.3 29.05 L46.4 28.45 46.3 28.45 Q44.3 28.45 43.75 27.25 L43.55 25.85 43.55 25.55 Q41.85 25.5 41.4 24.3 L41.35 22.85 Q41.35 20.25 43.7 20.25 44.45 20.25 45.0 20.65 M42.55 25.8 L42.8 26.7 42.65 27.45 42.1 27.4 Q41.45 28.25 41.45 26.85 41.45 25.95 42.25 25.95 L42.55 25.8 M44.0 30.3 L44.65 31.05 Q44.45 31.9 43.3 31.9 42.8 31.45 42.8 30.7 43.05 30.3 44.0 30.3 M41.55 34.2 L46.6 48.4 Q46.6 49.75 46.1 49.4 L46.1 49.55 Q42.4 45.55 40.55 34.5 L41.55 34.2 M47.4 44.85 L46.5 44.8 Q46.2 44.7 46.2 43.85 L46.3 42.65 47.6 42.55 Q48.3 42.9 48.6 43.75 L48.4 44.55 47.4 44.85 M-8.2 -4.45 Q-7.95 -3.95 -8.0 -3.2 -8.0 -1.3 -9.45 -0.8 L-10.75 -0.6 Q-14.05 -0.6 -13.5 -3.05 -13.5 -5.6 -10.75 -5.6 -8.75 -5.6 -8.2 -4.45 M38.5 60.55 L38.7 59.65 39.5 59.5 Q40.65 60.05 40.8 60.6 L40.0 61.65 38.8 61.5 38.5 60.55 M35.4 58.75 L35.8 58.05 37.1 58.6 35.4 58.75 M47.95 76.15 L44.75 76.45 40.65 75.5 40.15 75.45 Q31.65 75.0 27.25 77.05 L24.65 78.5 Q23.4 79.2 22.3 79.2 19.25 79.2 18.75 77.8 16.7 77.0 16.95 74.85 16.2 75.45 15.25 75.45 12.2 75.45 12.4 72.65 12.4 72.0 13.1 70.9 13.75 69.95 14.65 69.6 L14.55 69.0 Q14.55 67.2 16.25 67.2 18.0 67.2 18.0 69.85 L17.8 70.15 Q18.4 70.75 18.45 71.95 18.9 71.7 19.55 71.65 19.6 68.8 22.6 66.95 L22.9 66.8 22.3 66.4 Q22.3 65.4 22.6 65.25 L23.9 65.1 Q24.7 65.1 25.25 65.7 26.95 65.1 29.2 64.85 L29.2 64.8 29.45 63.8 30.55 63.5 Q31.4 63.5 31.65 63.85 L31.9 64.55 31.9 64.6 34.55 64.5 33.65 63.5 34.5 63.35 36.55 64.75 36.6 64.8 39.4 65.4 42.8 66.15 42.25 65.75 42.4 65.55 42.8 65.55 43.7 66.3 47.0 67.0 47.75 67.15 Q48.25 66.4 49.5 66.4 L49.95 66.45 Q50.95 66.5 51.45 66.95 L52.45 66.8 53.5 67.1 Q53.9 67.45 53.9 68.25 L53.8 68.85 54.75 68.75 Q55.95 68.75 56.75 69.3 L57.55 70.05 Q57.65 69.65 58.0 69.6 L58.5 69.55 Q59.35 69.95 59.5 70.6 L58.95 71.6 58.1 71.6 58.2 72.8 Q58.2 73.55 57.55 74.55 L57.15 75.1 57.2 75.1 57.15 75.35 56.35 76.9 Q55.4 78.15 53.9 78.15 52.1 78.15 51.3 77.0 L51.15 76.8 Q50.7 76.05 50.7 75.25 L50.7 75.15 47.95 76.15 M43.75 64.5 L42.85 64.35 Q42.4 64.15 42.4 63.25 42.4 62.65 42.95 62.25 43.25 62.05 43.7 61.9 L45.0 62.6 45.4 63.9 44.25 64.55 43.75 64.5 M52.35 62.2 L52.7 62.05 53.45 62.55 53.9 63.1 53.2 64.35 51.45 64.4 Q51.15 64.75 51.15 63.35 L51.25 62.45 51.25 62.25 52.35 62.2 M64.8 69.85 Q66.55 69.9 67.6 70.45 66.8 69.8 66.8 68.65 L66.8 67.7 67.7 67.4 Q69.15 67.4 69.15 69.4 L69.15 69.8 69.55 69.55 Q70.7 70.45 71.15 71.4 70.6 72.55 69.05 72.6 L69.05 73.25 Q69.8 73.5 70.1 74.3 L69.55 75.35 68.3 75.25 68.3 75.2 67.3 76.35 Q65.15 78.65 62.45 78.65 59.15 78.65 58.35 76.85 L58.35 76.5 58.3 75.75 58.2 74.85 Q58.2 70.9 62.15 70.1 L64.55 69.85 64.8 69.85 M21.75 65.15 Q21.6 65.55 20.65 65.55 L17.7 65.1 17.6 63.7 Q17.6 61.9 19.7 61.9 21.75 61.9 21.75 63.7 L21.75 65.15 M5.5 66.85 Q3.5 66.85 3.3 64.9 L3.5 63.65 Q3.35 63.35 4.7 63.35 6.55 63.35 8.0 65.2 6.4 66.85 5.5 66.85 M9.95 64.95 L12.1 66.4 12.0 67.2 Q11.75 67.2 11.65 67.4 L9.95 67.85 8.5 66.4 8.65 65.2 9.95 64.95 M1.5 63.1 L2.75 64.1 2.05 65.35 0.85 65.35 0.45 65.2 Q0.3 65.15 0.3 64.35 0.3 63.5 0.9 63.25 L1.5 63.1 M11.25 62.7 Q11.25 60.8 13.4 60.8 14.85 60.8 15.7 62.7 13.95 64.55 13.4 64.55 11.25 64.55 11.25 62.7 M70.5 63.8 L71.6 63.5 Q72.4 63.5 73.45 65.75 72.7 66.55 71.0 66.55 70.4 65.9 70.4 65.15 L70.5 63.8 M59.8 68.35 L59.65 67.3 59.7 66.6 59.65 65.75 Q59.65 64.7 61.1 64.45 62.4 65.45 62.55 66.3 L62.45 66.45 Q63.0 66.95 63.25 68.05 L62.95 69.05 Q63.0 69.5 61.85 69.55 L61.65 69.55 Q60.15 69.55 59.8 68.35 M50.85 61.05 L49.25 61.05 Q49.0 61.35 49.0 60.0 L49.25 59.4 49.6 59.4 51.15 60.6 50.85 61.05 M57.8 56.7 L57.8 56.5 58.75 56.4 58.95 56.25 Q59.15 56.25 59.15 57.1 L59.1 57.6 58.9 57.95 57.95 57.95 Q57.8 57.55 57.8 56.7 M58.95 60.75 Q59.95 61.2 59.95 62.2 59.5 62.2 59.5 62.55 L58.35 62.45 Q58.05 63.0 58.05 61.65 58.05 60.75 58.35 60.7 L58.95 60.75 M46.6 57.95 L46.2 56.75 Q46.35 56.4 47.15 56.4 L48.05 57.5 Q47.6 57.95 46.6 57.95 M54.3 66.4 L54.15 66.0 54.35 65.45 54.65 65.3 55.3 65.2 Q56.0 65.2 57.05 67.4 56.75 67.4 56.35 68.1 54.85 67.95 54.3 66.4 M-16.1 68.7 L-16.2 67.5 Q-16.2 65.45 -14.2 65.45 -13.0 65.45 -12.35 66.55 L-11.95 67.7 -12.2 68.85 -12.45 69.15 -13.5 69.4 -13.8 69.4 -15.95 68.85 -16.1 68.7 M-22.0 71.9 Q-21.4 71.4 -21.0 71.4 -19.5 71.4 -19.25 72.35 L-19.65 73.45 Q-20.0 74.15 -21.55 74.55 L-22.35 74.15 Q-22.85 73.7 -22.85 73.05 -22.85 72.55 -22.1 71.95 L-22.0 71.9" fill="#990000" fill-opacity="0.6901961" fill-rule="evenodd" stroke="none"/>
    <path d="M53.45 62.55 Q53.95 62.7 54.3 63.1 54.75 63.7 54.65 64.75 L54.65 65.3 54.35 65.45 54.15 66.0 54.3 66.4 53.5 67.1 52.45 66.8 51.45 66.95 Q50.95 66.5 49.95 66.45 L49.8 66.2 49.6 64.9 Q49.6 62.85 51.25 62.45 L51.15 63.35 Q51.15 64.75 51.45 64.4 L53.2 64.35 53.9 63.1 53.45 62.55 M61.85 69.55 L62.15 70.1 Q58.2 70.9 58.2 74.85 L58.3 75.75 Q57.65 75.65 57.15 75.35 L57.2 75.1 57.15 75.1 57.55 74.55 Q58.2 73.55 58.2 72.8 L58.1 71.6 58.95 71.6 59.5 70.6 Q59.35 69.95 58.5 69.55 L58.0 69.6 Q57.65 69.65 57.55 70.05 L56.75 69.3 Q57.85 68.25 58.95 68.25 L59.8 68.35 Q60.15 69.55 61.65 69.55 L61.85 69.55" fill="#990000" fill-opacity="0.42352942" fill-rule="evenodd" stroke="none"/>
    <path d="M93.8 -109.3 Q100.7 -109.3 105.05 -105.95 109.1 -105.15 112.75 -102.95 118.25 -99.7 118.25 -96.35 118.25 -93.55 114.7 -91.0 L115.85 -88.65 117.25 -84.45 117.05 -84.2 Q116.3 -85.15 115.1 -88.45 L114.2 -90.65 Q110.25 -88.05 105.6 -88.05 L103.55 -88.4 Q101.4 -87.35 98.75 -86.95 98.05 -86.2 96.55 -86.2 95.15 -86.2 93.7 -86.75 L91.85 -86.9 Q93.35 -85.4 96.35 -79.9 97.55 -77.7 98.75 -76.15 99.65 -75.95 99.75 -75.0 L99.65 -75.0 Q102.0 -72.35 104.05 -72.35 108.95 -72.35 116.1 -76.55 115.5 -74.8 112.6 -72.65 108.95 -69.95 104.9 -69.95 L103.1 -70.2 Q108.45 -58.0 113.7 -43.25 114.2 -44.3 114.95 -44.8 114.0 -40.55 113.6 -38.2 L121.4 -39.1 121.55 -38.7 Q118.1 -37.65 116.7 -37.65 L113.55 -37.85 113.35 -36.05 113.7 -32.65 113.85 -32.2 113.8 -31.65 114.5 -23.85 113.5 -12.45 113.75 -8.7 113.35 -3.3 Q116.15 -3.3 117.9 -1.85 L118.05 -3.1 Q118.4 -6.25 113.95 -7.6 L114.15 -8.5 Q114.25 -8.8 115.05 -8.8 119.0 -8.8 119.95 -5.5 119.5 -1.9 119.4 0.0 L120.2 1.95 Q120.75 3.75 120.75 8.25 L120.7 9.75 122.3 7.25 120.4 11.9 119.8 13.8 119.7 13.6 Q116.75 21.35 113.9 31.2 111.55 39.35 107.15 55.6 L106.75 55.6 106.7 55.45 106.2 56.2 Q104.35 58.5 99.65 58.5 L96.5 58.35 96.85 58.7 102.9 64.75 102.9 64.55 103.85 64.35 Q106.55 64.35 117.95 73.15 117.95 74.05 118.45 74.2 L120.0 74.25 Q120.7 74.25 121.8 73.6 122.9 72.9 123.6 72.9 L124.8 72.95 124.7 71.6 Q124.7 69.85 126.55 69.85 127.55 69.85 128.1 70.65 L128.15 70.65 128.15 70.7 Q128.65 71.45 128.75 72.9 L128.4 73.35 Q130.05 73.7 131.0 74.35 L123.65 75.0 Q123.45 75.0 123.2 75.75 122.95 76.45 121.25 76.45 118.1 75.25 116.7 75.25 L107.35 75.9 Q99.35 75.9 99.3 77.6 99.3 76.8 98.1 76.7 L96.45 76.55 Q96.25 77.3 96.25 75.95 98.0 74.9 98.0 74.25 98.0 73.4 99.75 73.2 L110.45 72.6 Q105.35 68.85 103.55 66.3 L103.15 66.3 Q101.7 66.3 95.5 61.45 89.9 57.0 88.35 54.65 L87.8 53.9 84.85 49.0 84.95 50.5 Q84.95 54.2 83.75 56.8 82.75 58.9 79.95 62.4 L88.8 74.0 Q88.8 74.45 88.3 74.55 L79.3 63.25 78.75 63.85 77.9 63.7 Q77.65 64.45 77.65 63.05 77.65 62.3 78.0 61.45 75.35 57.8 75.35 56.95 75.35 56.15 75.65 56.05 L75.9 56.0 76.85 56.15 Q76.7 56.35 76.7 57.05 76.7 57.65 78.55 60.35 L78.7 60.1 80.9 57.2 Q83.85 52.9 83.15 47.0 L78.2 42.95 78.1 42.95 Q77.35 42.95 76.7 41.7 L74.85 40.0 74.6 40.3 73.2 40.2 72.9 38.0 Q71.9 36.8 71.9 36.25 L72.15 35.45 72.2 35.45 Q70.95 32.25 68.35 29.4 61.0 21.5 45.35 21.5 39.2 21.5 38.65 19.4 L38.75 19.35 Q35.55 20.65 28.9 20.7 L24.3 21.5 24.45 21.7 24.05 21.5 22.05 21.6 19.0 21.5 Q23.9 25.0 25.9 25.9 L26.1 26.55 Q26.05 26.9 25.2 26.9 19.65 26.9 14.2 21.7 10.6 18.35 9.15 15.45 6.4 12.05 6.4 5.45 6.3 2.85 7.5 1.95 L8.85 9.3 Q9.75 13.35 11.45 15.85 L14.3 18.05 14.35 17.65 14.75 17.65 18.6 19.3 20.6 19.25 Q18.5 17.6 16.75 15.35 L12.9 9.55 12.85 9.55 12.2 8.65 11.95 8.65 Q12.6 14.0 15.4 16.15 L15.5 16.55 Q12.45 15.45 11.15 12.5 L9.65 8.1 9.65 5.05 10.1 5.05 12.85 8.95 Q12.75 7.45 12.35 6.8 L12.65 6.6 13.4 7.05 13.4 9.45 13.2 9.5 15.6 13.1 Q17.85 16.55 21.25 19.25 L26.55 18.45 Q30.1 17.55 33.65 17.55 L39.15 17.75 Q39.15 18.05 39.7 18.85 L39.1 19.2 44.0 18.8 Q50.6 14.0 62.25 9.35 58.55 12.05 52.55 15.25 47.9 17.75 45.1 18.75 L46.8 18.75 47.2 18.75 Q69.95 5.3 69.95 4.6 L68.75 -0.6 69.15 -0.6 71.4 4.8 69.3 -3.6 66.8 -12.95 63.0 -11.4 63.1 -10.65 Q65.05 -12.35 66.1 -12.5 L63.3 -9.3 63.5 -8.55 63.25 -8.25 62.85 -8.75 57.35 -2.7 Q59.2 -3.85 60.7 -3.85 L56.1 -0.8 55.85 -0.3 55.45 -0.65 51.25 3.75 50.85 3.75 Q53.8 -1.15 59.0 -6.7 L62.0 -9.7 61.25 -10.6 60.3 -10.2 56.85 -8.6 54.95 -5.3 Q49.8 3.5 46.6 6.65 48.15 3.55 54.05 -6.35 L54.8 -7.6 54.55 -7.45 53.9 -7.6 Q54.25 -8.15 55.65 -9.0 L58.45 -14.05 Q54.7 -18.6 53.45 -20.4 L53.45 -21.2 55.75 -20.8 Q55.3 -22.4 55.3 -25.95 55.3 -32.45 56.0 -37.15 L56.5 -37.15 Q56.8 -36.2 56.35 -32.45 L56.35 -20.5 57.2 -20.0 56.35 -20.2 56.35 -19.35 55.9 -20.3 54.0 -20.55 Q56.35 -16.6 58.5 -14.15 L58.95 -15.4 Q58.95 -16.05 58.35 -16.1 57.75 -16.1 57.75 -16.8 L57.95 -16.95 57.95 -17.1 59.25 -16.95 Q59.8 -16.55 59.8 -15.15 L59.25 -13.3 60.95 -11.75 62.3 -12.4 62.5 -19.35 61.65 -17.5 Q58.05 -16.75 56.5 -19.1 L56.75 -19.1 Q61.9 -19.1 62.45 -22.8 L62.55 -25.75 Q62.5 -27.0 62.75 -27.65 L62.95 -34.4 Q62.95 -35.8 64.4 -36.95 64.65 -37.65 64.65 -36.3 L63.3 -22.2 Q62.7 -16.5 62.9 -12.65 L66.4 -14.2 66.5 -14.15 64.8 -20.95 Q64.8 -21.75 64.95 -21.65 65.35 -21.45 65.45 -21.45 68.85 -13.25 71.05 -6.65 L70.1 -12.1 Q70.2 -12.75 71.4 -12.75 73.5 -12.75 73.85 -2.25 L74.05 3.9 Q75.0 8.25 75.1 11.45 76.2 2.45 77.05 -0.95 79.95 -13.45 86.95 -21.85 87.75 -22.75 87.75 -21.35 87.75 -20.45 83.2 -4.5 78.3 12.65 77.3 18.8 L81.45 11.8 Q84.05 7.6 87.65 5.05 L81.35 17.55 Q77.4 25.15 76.7 29.8 L76.0 29.75 75.9 27.15 Q75.9 25.05 80.9 16.05 L86.2 6.8 Q80.85 12.95 77.0 21.45 L76.15 21.5 Q76.0 21.5 76.0 20.65 76.0 13.65 86.95 -20.55 80.15 -12.0 77.4 -0.25 76.5 3.65 74.9 17.55 L75.85 30.1 Q76.55 36.75 78.3 39.9 L86.7 46.9 90.15 52.25 91.0 53.45 Q92.6 53.4 94.5 54.15 L102.9 53.45 102.9 52.9 103.45 52.9 103.6 53.4 105.0 53.25 Q104.1 50.35 104.9 48.7 L106.75 39.65 Q107.8 33.25 108.9 21.45 L110.75 3.5 Q111.6 -5.7 111.55 -12.65 L111.35 -12.65 111.25 -13.25 110.85 -13.2 106.3 -15.35 106.35 -14.05 105.7 -6.15 105.15 -6.05 105.05 -8.45 Q105.05 -13.45 105.75 -15.6 L104.95 -15.95 Q102.15 -17.15 102.15 -18.55 102.15 -21.25 103.6 -27.55 105.2 -34.7 106.45 -33.2 L106.15 -32.1 106.45 -32.45 107.65 -32.2 Q107.8 -32.0 106.9 -31.6 L108.9 -30.3 108.5 -29.4 112.1 -28.1 112.1 -31.0 Q111.25 -37.15 105.3 -35.5 105.8 -36.9 109.1 -36.9 110.35 -36.9 112.2 -34.75 L112.25 -34.7 Q112.35 -39.95 113.4 -42.55 106.75 -55.55 102.05 -70.55 L100.3 -71.55 101.35 -70.1 Q102.6 -68.55 102.6 -66.4 102.6 -64.65 100.8 -59.4 L98.3 -52.55 97.65 -52.85 99.45 -59.8 Q100.95 -65.65 100.95 -67.7 L99.2 -71.0 97.85 -73.75 Q96.3 -75.45 94.75 -77.9 L93.15 -80.55 93.55 -79.6 93.05 -79.5 Q92.5 -80.0 92.5 -81.1 L92.6 -81.6 Q91.2 -84.1 89.95 -86.9 L90.1 -87.15 Q88.75 -87.45 87.9 -87.9 L87.9 -88.6 91.15 -88.25 90.0 -89.2 Q86.45 -89.9 84.05 -94.1 82.6 -96.65 82.05 -99.3 82.05 -102.75 85.35 -105.85 88.95 -109.3 93.8 -109.3 M85.35 -104.0 Q83.4 -101.45 83.35 -99.0 83.8 -101.3 88.0 -103.6 93.25 -106.45 100.15 -106.45 L101.55 -106.4 Q98.2 -107.85 93.6 -107.85 88.25 -107.85 85.35 -104.0 M88.5 -102.7 Q84.45 -100.45 84.45 -98.35 84.45 -97.1 88.55 -92.35 L90.3 -90.5 91.2 -90.2 94.6 -90.2 Q94.85 -90.7 94.6 -92.8 L95.0 -92.95 95.7 -91.35 Q95.7 -89.2 91.85 -89.1 L93.15 -88.15 98.95 -88.65 99.1 -89.9 99.3 -88.75 99.3 -88.7 Q102.3 -89.4 104.55 -90.9 108.75 -93.65 108.75 -97.0 108.75 -100.65 105.6 -103.75 L104.25 -104.85 100.0 -105.3 Q93.3 -105.3 88.5 -102.7 M107.35 -103.75 Q110.45 -100.0 110.45 -96.65 110.45 -94.15 107.35 -91.1 L105.25 -89.35 Q109.85 -89.8 113.05 -91.6 L113.5 -91.85 113.05 -92.4 113.4 -92.4 113.8 -92.05 Q116.9 -94.0 116.9 -96.45 116.9 -99.7 111.05 -102.55 L106.95 -104.2 107.35 -103.75 M20.1 -106.9 L20.45 -106.45 Q19.3 -105.5 19.3 -104.15 19.3 -102.95 21.55 -100.2 24.15 -97.1 26.3 -97.1 33.85 -97.1 34.95 -106.0 34.95 -108.0 33.8 -109.55 32.4 -111.5 30.0 -111.5 23.95 -111.5 21.75 -103.95 21.75 -102.25 22.85 -101.25 25.4 -103.05 27.2 -105.25 29.55 -108.15 28.7 -109.7 L29.05 -109.75 29.2 -108.45 Q29.2 -107.3 26.7 -103.85 24.1 -100.2 22.85 -100.2 20.35 -100.2 20.35 -103.95 23.35 -112.95 28.9 -112.95 33.6 -112.95 35.55 -109.55 36.6 -107.7 36.6 -105.6 36.6 -103.0 34.5 -99.65 31.5 -94.9 26.3 -94.9 23.45 -94.9 20.1 -98.55 17.35 -101.65 17.35 -102.35 17.35 -106.0 20.1 -106.9 M56.35 -111.5 L56.5 -111.15 Q54.35 -111.15 53.1 -110.45 L52.15 -109.75 Q49.45 -109.75 48.15 -112.4 47.5 -113.75 47.4 -115.25 L47.6 -116.75 Q30.15 -116.55 25.0 -114.3 27.85 -117.9 48.25 -118.2 50.75 -121.95 60.6 -121.95 74.9 -118.85 74.9 -114.95 L74.9 -114.7 Q79.75 -113.35 81.5 -112.3 L74.85 -114.25 Q74.55 -112.15 72.4 -110.0 69.25 -106.9 64.25 -106.9 62.2 -106.9 59.85 -108.35 57.85 -109.6 57.05 -110.85 L60.1 -109.6 Q63.15 -108.35 64.45 -108.35 71.7 -108.35 73.4 -114.45 L73.4 -114.6 Q63.65 -116.8 51.8 -116.8 L48.75 -116.75 Q48.45 -116.05 48.45 -115.2 48.45 -114.15 49.5 -112.6 50.65 -110.85 51.75 -110.85 52.4 -110.85 52.75 -111.45 53.05 -112.05 53.75 -112.05 55.3 -112.05 56.35 -111.5 M52.7 -118.25 Q61.55 -118.25 71.7 -115.6 L73.3 -115.15 Q72.25 -118.85 60.0 -120.5 52.45 -120.5 49.85 -118.25 L52.7 -118.25 M75.3 -74.65 Q83.65 -72.5 84.8 -71.15 84.75 -70.7 83.8 -70.65 L55.2 -74.25 54.55 -74.0 Q72.85 -66.3 73.8 -64.2 L73.8 -63.0 72.15 -62.75 Q67.8 -62.75 58.75 -67.15 51.2 -70.8 45.65 -69.85 L47.65 -68.25 Q51.35 -65.5 52.0 -64.35 L51.7 -64.05 Q47.2 -66.3 44.55 -68.9 45.3 -67.4 45.3 -65.0 45.3 -62.6 43.8 -58.2 42.25 -53.8 42.25 -53.45 42.45 -53.6 44.55 -52.0 45.5 -51.4 44.1 -51.4 L39.5 -51.45 39.4 -51.25 Q39.25 -51.2 39.25 -52.1 39.25 -52.6 41.75 -57.35 44.25 -62.15 44.25 -65.15 44.25 -66.2 43.6 -67.65 42.85 -69.1 42.8 -70.2 L42.4 -69.95 42.9 -70.85 42.0 -72.25 Q40.8 -74.5 39.25 -78.75 L37.1 -82.6 37.15 -83.25 37.4 -82.9 37.4 -83.05 38.65 -80.75 Q38.8 -80.95 39.1 -80.95 40.4 -79.3 41.3 -76.7 42.35 -73.65 43.0 -72.6 L43.7 -71.7 Q45.65 -73.3 50.3 -74.8 56.8 -76.85 62.2 -76.85 66.8 -76.85 75.3 -74.65 M55.6 -75.1 L81.8 -72.1 82.05 -72.15 73.9 -74.2 Q65.9 -75.9 61.1 -75.9 L56.65 -75.4 55.6 -75.1 M45.45 -70.7 Q45.8 -71.15 47.6 -71.15 52.9 -71.15 60.4 -67.5 67.9 -63.9 70.4 -63.9 L72.6 -64.05 Q69.3 -66.35 61.05 -70.4 52.95 -74.35 51.6 -74.35 47.9 -74.35 45.85 -72.65 L44.15 -71.2 45.25 -70.15 45.45 -70.7 M47.65 -65.2 L50.3 -62.75 50.3 -62.45 Q49.25 -63.1 47.65 -65.2 M6.5 -75.0 Q2.65 -56.2 -4.7 -52.7 -0.9 -56.65 1.15 -64.55 3.2 -72.55 6.05 -75.55 6.5 -76.35 6.5 -75.0 M13.5 -74.45 Q20.95 -74.45 27.05 -67.3 28.15 -69.9 34.9 -76.0 L31.15 -71.1 Q28.45 -67.75 28.6 -66.3 L28.2 -65.9 28.8 -65.1 28.7 -64.35 Q29.25 -63.9 27.9 -63.9 L27.4 -64.25 Q21.3 -52.75 11.65 -45.4 10.15 -40.35 4.7 -36.35 L-1.9 -30.25 Q-5.8 -26.4 -7.8 -25.1 L-5.0 -23.5 -5.0 -22.7 -6.3 -22.4 Q-5.9 -22.25 -5.85 -21.6 L-5.9 -21.1 Q-5.6 -21.9 -4.15 -23.25 L-4.15 -23.1 Q-4.3 -22.05 -3.9 -21.45 L-5.7 -19.75 -5.95 -20.4 -6.0 -20.05 Q-6.6 -19.3 -7.9 -19.3 -8.2 -19.3 -8.2 -20.7 L-7.95 -22.25 Q-10.25 -22.5 -12.7 -24.2 L-12.85 -24.15 -13.85 -25.0 -17.0 -27.45 -17.15 -28.25 -16.25 -28.7 -16.9 -29.4 -17.0 -29.2 -17.15 -30.05 -17.1 -30.45 -18.35 -31.55 -18.35 -33.8 -17.45 -33.95 Q-17.8 -34.5 -17.8 -35.2 -17.8 -36.4 -16.65 -37.0 -16.85 -39.15 -17.6 -41.05 L-18.8 -40.75 Q-18.35 -39.55 -18.35 -38.2 L-18.6 -34.45 -19.5 -34.35 -19.35 -36.55 Q-19.15 -38.6 -19.6 -40.0 -20.5 -42.9 -24.1 -43.95 L-23.95 -43.55 -30.1 -43.25 Q-30.55 -42.65 -31.9 -42.05 L-34.0 -41.45 Q-36.45 -41.45 -37.6 -42.35 L-37.65 -42.65 -45.65 -41.9 -45.9 -41.75 -48.6 -39.0 Q-50.4 -37.15 -51.35 -36.9 L-51.4 -36.7 -51.45 -37.55 Q-51.45 -39.35 -48.75 -41.6 L-50.05 -41.5 -97.2 -39.8 -120.5 -40.15 Q-124.2 -40.45 -124.2 -40.8 L-96.45 -40.45 -49.65 -42.0 -47.95 -42.25 -47.2 -42.85 Q-42.7 -46.05 -37.75 -45.7 L-37.85 -46.4 Q-37.85 -48.75 -29.4 -49.75 -28.3 -49.75 -27.8 -48.95 L-37.45 -45.8 -37.55 -45.7 -37.15 -45.65 -33.75 -45.6 Q-34.4 -44.4 -35.45 -43.85 L-33.5 -43.85 -33.5 -43.95 Q-33.5 -46.05 -29.1 -46.05 -26.0 -46.05 -23.75 -45.25 L-23.75 -45.8 -21.75 -46.05 Q-18.4 -46.05 -16.8 -43.3 L-4.45 -54.75 Q-11.35 -44.6 -16.1 -41.8 -15.5 -40.0 -15.35 -37.4 L-15.0 -37.45 -15.05 -38.1 Q-15.05 -38.75 -14.2 -40.25 L-14.25 -39.65 Q-14.25 -38.85 -14.05 -38.8 L-13.35 -38.75 -14.65 -37.5 -13.3 -37.6 Q-11.1 -37.6 -9.0 -33.95 -7.25 -30.95 -7.25 -29.75 -7.25 -27.9 -9.05 -25.75 L-8.0 -25.2 -3.0 -30.75 Q1.6 -35.45 4.3 -37.4 8.0 -40.0 9.55 -44.45 L11.65 -50.15 Q12.2 -50.8 12.2 -49.4 L12.15 -47.8 Q13.55 -49.8 16.8 -53.65 23.0 -61.0 27.35 -64.3 18.75 -70.5 11.4 -73.55 L11.4 -74.35 13.5 -74.45 M38.5 -45.95 Q37.35 -42.75 37.05 -40.7 L37.65 -41.0 37.0 -40.25 36.95 -39.5 37.0 -38.9 37.35 -39.3 Q38.35 -40.1 40.6 -40.45 L39.35 -43.1 39.35 -45.35 41.3 -45.35 40.8 -48.45 40.95 -49.0 41.85 -49.15 Q42.9 -48.3 42.9 -46.6 L42.9 -45.4 48.45 -45.65 52.1 -45.65 52.15 -47.4 52.3 -47.85 53.45 -47.95 54.0 -45.65 54.2 -45.65 55.8 -45.35 54.55 -48.25 Q54.55 -48.6 55.3 -49.25 L57.75 -49.15 57.75 -45.0 62.95 -44.1 62.95 -44.0 57.65 -44.0 57.0 -40.05 57.2 -40.05 66.85 -39.05 Q66.65 -38.6 61.05 -38.2 L56.5 -38.5 56.2 -37.8 Q55.2 -38.15 54.45 -38.65 L41.95 -39.45 41.45 -38.5 41.1 -37.5 40.85 -37.7 Q39.95 -36.9 38.75 -36.9 L35.7 -37.25 34.25 -35.45 Q34.1 -34.6 34.5 -33.6 L34.5 -30.9 30.35 -30.0 Q30.25 -30.85 30.25 -29.45 30.25 -28.65 33.15 -26.7 33.5 -27.75 34.35 -28.6 34.5 -29.2 34.5 -27.8 34.5 -27.0 34.1 -26.6 L33.8 -26.25 Q36.75 -24.35 37.95 -23.95 L38.05 -23.55 28.6 -21.7 Q25.55 -20.95 23.2 -20.0 L23.05 -19.95 Q20.95 -19.15 19.45 -18.15 L18.7 -18.25 20.6 -19.3 19.05 -18.85 13.05 -11.5 11.0 -6.6 Q10.8 -6.4 10.6 -6.35 10.2 -6.25 10.2 -7.15 L10.5 -8.35 5.4 -2.05 6.85 0.25 6.2 0.9 Q1.5 -4.6 1.3 -5.2 L1.45 -9.45 0.3 -10.95 -1.3 -12.6 Q-1.75 -12.85 -0.4 -12.85 3.45 -12.85 3.35 -10.2 L3.0 -8.0 Q2.75 -6.7 3.05 -6.1 L4.8 -3.0 Q8.7 -8.8 13.4 -14.9 L13.25 -15.7 Q12.95 -16.9 13.15 -17.4 13.55 -18.5 16.7 -19.15 L20.45 -23.7 18.8 -26.4 22.75 -26.5 24.75 -28.8 25.0 -29.3 Q25.45 -30.05 26.25 -30.45 L31.45 -36.0 31.35 -36.95 Q31.35 -39.0 32.5 -38.65 L33.75 -38.2 35.7 -39.8 Q35.75 -40.9 36.5 -43.6 37.35 -46.9 37.95 -47.55 L39.1 -45.95 38.5 -45.95 M35.4 -37.85 L35.65 -38.5 35.65 -38.7 34.9 -37.8 35.4 -37.85 M37.25 -38.2 L39.9 -38.35 40.55 -39.55 39.1 -39.6 Q38.1 -39.6 37.0 -38.7 L37.25 -38.2 M29.6 -31.2 L28.45 -30.2 25.8 -27.0 Q25.55 -26.15 25.85 -25.15 L24.15 -25.05 22.1 -22.6 23.05 -20.4 28.4 -22.05 36.85 -23.85 33.6 -26.05 33.45 -25.85 32.9 -25.7 33.1 -26.45 32.8 -26.65 Q29.75 -28.95 29.75 -29.6 29.75 -30.8 33.95 -31.6 33.95 -33.4 33.5 -35.05 L32.65 -35.15 29.25 -31.2 29.6 -31.2 M20.65 -25.55 L21.15 -24.6 21.8 -25.35 20.65 -25.55 M39.7 -36.05 Q39.7 -34.0 35.8 -32.55 L35.5 -32.75 39.6 -36.6 Q39.7 -37.45 39.7 -36.05 M16.0 -39.8 Q22.4 -39.8 26.05 -38.8 L12.85 -39.35 Q12.85 -39.8 16.0 -39.8 M19.7 -9.9 Q17.1 -7.15 16.55 -6.05 L16.0 -6.15 Q16.8 -8.15 18.9 -10.45 19.7 -11.25 19.7 -9.9 M14.8 -2.6 L14.95 -1.9 Q14.95 -1.35 12.95 1.5 L12.35 1.65 14.15 -2.3 14.8 -2.6 M28.0 -20.0 L28.15 -19.15 Q24.65 -15.25 23.95 -15.15 24.2 -16.4 25.15 -17.9 26.25 -19.6 27.35 -19.9 L28.0 -20.0 M21.7 -20.4 L21.45 -21.75 19.7 -19.6 21.3 -19.8 21.4 -19.7 21.7 -19.85 21.7 -20.4 M71.7 -39.45 Q70.8 -37.55 67.3 -37.3 66.8 -40.05 66.25 -46.4 L67.2 -46.85 Q68.1 -44.55 68.1 -39.05 70.7 -40.35 70.4 -42.4 L70.3 -45.1 68.85 -48.5 Q69.15 -49.15 70.4 -49.15 71.6 -49.15 71.95 -42.25 L71.7 -39.45 M80.4 -42.1 L80.35 -45.95 Q80.35 -48.25 84.9 -47.95 L87.1 -47.7 Q87.5 -48.25 87.5 -46.85 87.5 -44.8 87.1 -41.7 L88.65 -41.2 Q92.5 -39.95 93.5 -39.15 94.1 -38.5 92.7 -38.5 90.85 -38.5 87.75 -39.6 L86.8 -39.9 86.2 -36.6 Q83.85 -36.6 82.75 -36.05 80.95 -37.3 80.5 -40.55 L80.45 -41.25 79.75 -42.05 80.4 -42.1 M56.2 -44.0 L54.25 -44.0 54.55 -40.2 55.4 -40.15 Q56.2 -42.0 56.2 -43.55 L56.2 -44.0 M52.25 -42.15 L52.1 -44.0 42.8 -44.0 42.35 -40.7 45.3 -40.8 52.85 -40.35 Q52.4 -41.15 52.25 -42.15 M40.7 -44.0 Q40.4 -43.7 40.4 -42.35 40.4 -41.65 40.95 -40.65 L41.0 -40.6 Q41.65 -42.4 41.5 -43.75 L41.5 -44.0 40.7 -44.0 M60.5 -11.55 L59.2 -13.15 57.7 -10.15 60.5 -11.55 M62.25 -10.9 L62.25 -11.05 62.1 -11.0 62.25 -10.9 M65.5 -5.65 Q65.1 -5.45 65.1 -6.3 65.1 -7.45 67.65 -7.45 66.9 -6.7 65.85 -6.05 L65.5 -5.65 M121.4 -75.1 Q124.0 -64.75 124.0 -49.8 L123.75 -45.1 123.65 -44.8 Q123.15 -46.85 122.0 -58.1 120.75 -70.0 120.75 -74.0 L120.85 -75.1 121.4 -75.1 M102.3 -39.05 L102.7 -39.05 102.9 -39.6 Q99.1 -40.4 94.55 -42.0 L94.6 -41.25 94.45 -40.35 Q94.25 -40.4 94.15 -40.25 L93.25 -40.2 Q93.05 -40.2 93.05 -41.0 93.05 -41.9 93.45 -41.9 L94.1 -41.8 94.35 -42.05 Q91.6 -43.0 88.55 -44.25 88.7 -44.8 90.5 -44.8 91.65 -44.8 97.15 -43.1 102.8 -41.35 104.75 -41.25 L104.9 -38.8 Q104.4 -36.05 104.25 -34.5 104.0 -34.5 103.85 -34.2 L101.2 -34.2 100.55 -34.5 102.2 -37.9 102.15 -38.2 102.3 -39.05 M107.55 -29.75 L107.95 -29.6 108.2 -30.0 105.95 -31.35 Q103.3 -21.85 103.3 -20.4 103.3 -18.85 104.65 -18.35 L107.15 -17.15 107.05 -17.3 Q105.05 -20.15 105.05 -21.15 105.05 -22.25 106.35 -25.8 L107.75 -29.2 107.3 -29.35 Q107.3 -29.7 107.55 -29.75 M112.15 -26.85 L108.3 -29.0 Q105.85 -23.6 105.85 -21.2 105.85 -19.55 108.75 -16.15 L111.05 -14.45 110.95 -16.6 Q110.95 -21.75 112.2 -25.05 L112.15 -26.85 M83.05 -44.75 L82.9 -44.0 82.9 -42.35 83.5 -42.45 85.25 -42.2 85.5 -45.1 85.5 -45.2 83.9 -45.2 Q83.1 -45.2 83.05 -44.75 M82.9 -38.05 Q84.25 -38.65 84.85 -40.4 L82.9 -40.75 82.9 -38.05 M112.65 -14.65 L112.8 -17.35 112.5 -14.85 112.65 -14.65 M118.25 -13.8 Q119.3 -11.95 120.45 -11.05 L120.45 -10.75 Q118.35 -12.1 117.9 -13.25 L117.65 -12.9 116.1 -10.45 115.7 -10.45 Q117.7 -16.5 119.1 -16.5 L125.6 -15.4 Q123.9 -14.3 122.35 -14.5 L119.8 -14.95 Q119.15 -14.95 118.25 -13.8 M105.05 -3.4 L105.6 -3.4 105.9 -0.05 105.85 2.85 105.05 2.95 Q104.9 2.2 104.9 -0.2 104.9 -2.05 105.05 -3.4 M128.9 -46.1 Q128.0 -47.05 127.3 -46.75 127.3 -47.25 128.15 -47.7 L129.3 -48.1 Q129.45 -48.85 129.45 -47.5 L128.9 -46.1 M113.4 3.75 L113.05 3.75 Q114.15 2.15 114.15 0.6 L113.25 -1.45 112.8 5.05 Q112.8 9.05 109.5 32.75 107.95 36.65 107.75 42.0 L107.7 47.15 Q109.15 41.45 112.15 31.85 116.2 19.0 119.35 12.35 L118.55 6.9 Q118.0 2.0 114.8 -0.75 L114.7 1.35 Q114.75 2.85 113.4 3.75 M105.6 11.25 Q105.6 13.35 104.4 15.65 103.85 16.55 103.85 15.15 103.85 13.6 104.5 8.65 L105.05 8.65 Q105.6 9.75 105.6 11.25 M104.9 24.3 Q104.9 25.8 104.05 28.7 103.6 29.75 103.6 28.35 L104.0 20.75 104.5 20.75 Q104.9 22.75 104.9 24.3 M104.5 32.45 Q104.9 33.1 104.9 34.9 104.9 36.5 104.05 40.25 103.6 41.3 103.6 39.9 L104.0 32.45 104.5 32.45 M104.0 42.4 Q104.4 43.7 104.4 45.55 104.4 46.95 103.6 50.9 102.85 50.0 102.85 47.5 103.45 44.1 103.45 42.4 L104.0 42.4 M103.85 55.45 Q105.15 54.85 105.15 53.8 L105.0 53.4 103.7 53.85 103.85 55.3 103.85 55.45 M102.9 54.15 Q98.45 55.6 95.4 55.6 94.1 55.6 91.85 54.5 L92.75 55.5 95.05 57.15 Q95.75 56.3 96.4 56.2 L98.2 56.2 102.9 55.75 102.9 54.15 M118.9 69.0 L119.1 67.65 120.75 67.2 Q122.55 67.2 122.55 69.0 L122.4 70.25 Q122.75 70.95 121.4 70.95 L119.0 70.4 Q118.9 70.4 118.9 69.0 M73.5 20.15 L73.45 20.1 73.5 19.65 73.05 13.5 71.8 6.55 49.35 18.85 Q61.8 19.45 69.2 26.7 74.8 32.1 75.2 37.3 L75.4 37.5 Q74.35 32.3 73.65 22.15 L73.5 20.15 M58.1 44.9 L58.4 44.9 Q60.1 44.9 62.3 52.9 63.4 56.9 64.15 61.0 L64.0 61.95 63.05 61.95 Q64.0 59.25 58.35 54.8 L50.5 48.45 Q53.35 51.4 60.7 57.8 L60.55 58.1 Q57.3 56.45 53.65 53.0 50.0 49.65 48.95 47.45 L49.05 47.05 Q51.45 47.9 54.8 51.0 58.45 54.4 60.7 55.5 L57.85 45.15 58.1 44.9 M27.85 24.1 Q28.35 24.1 28.85 24.75 L37.3 22.35 Q38.6 22.35 39.6 23.35 38.65 24.3 36.05 25.15 L33.3 25.9 32.15 25.9 Q31.8 27.75 31.8 28.3 31.8 29.25 33.1 33.55 34.4 37.85 34.4 41.75 L34.35 46.2 Q33.35 50.1 28.85 50.1 L22.5 49.7 20.75 48.85 Q18.0 48.05 1.35 48.3 -3.1 52.3 -8.8 56.15 -18.0 62.3 -23.05 62.3 L-27.8 61.85 Q-15.1 59.15 -7.1 54.0 L0.55 48.3 -8.55 48.5 Q-10.05 48.5 -15.6 46.0 L-16.75 45.35 -17.3 45.35 -17.0 45.2 Q-20.05 43.25 -21.5 39.7 L-21.5 39.3 Q-21.15 39.5 -19.3 41.95 -17.8 43.85 -15.9 45.1 L-11.45 45.15 -11.45 45.45 -15.4 45.4 -15.05 45.6 -11.55 47.0 -8.55 48.0 1.5 47.7 Q2.35 47.05 3.1 46.65 L2.05 47.65 Q17.4 47.25 20.5 48.15 L22.6 49.1 28.5 49.6 Q33.05 49.6 33.95 45.75 L33.9 41.7 Q33.9 37.3 32.6 33.5 31.25 29.65 31.25 28.1 31.25 26.65 31.9 25.9 L29.3 25.55 29.95 27.65 30.5 31.3 30.35 39.4 30.0 39.55 30.05 39.7 Q30.05 41.6 28.9 41.6 L15.7 42.15 Q14.25 42.95 12.4 44.4 11.2 45.35 10.4 45.35 L-0.85 44.3 Q7.0 43.9 10.9 41.35 14.35 39.1 25.05 39.1 27.45 39.1 28.2 38.15 L28.65 37.65 28.45 33.8 Q28.2 29.25 26.75 26.65 L26.75 24.35 Q26.5 24.1 27.85 24.1 M10.2 6.15 Q10.0 7.1 10.65 9.25 11.3 11.35 12.1 12.4 L12.2 12.65 Q11.25 9.95 11.25 7.8 11.25 6.4 10.2 6.05 L10.2 6.15 M10.0 21.2 Q10.6 22.65 11.25 27.15 11.75 30.9 13.3 33.1 11.05 31.45 10.25 27.5 L9.5 21.35 10.0 21.2 M8.35 64.05 Q9.75 64.05 20.8 68.15 33.2 72.75 35.65 75.4 L35.6 75.95 34.65 76.15 Q23.5 70.85 20.35 69.7 13.05 67.5 7.7 65.35 L7.6 64.35 8.35 64.05 M70.6 73.1 Q66.95 72.15 59.25 72.15 53.15 72.15 53.0 73.1 L53.2 73.7 Q53.25 74.0 52.3 74.0 L49.9 73.55 49.8 72.1 50.05 70.7 55.3 70.4 59.25 70.25 Q67.6 70.25 69.95 71.3 71.45 71.95 73.45 74.0 L70.6 73.1 M-44.3 -42.85 L-39.15 -43.6 -42.2 -44.05 -44.3 -42.85 M-45.5 -38.55 Q-45.5 -28.0 -50.45 -19.1 -47.65 -14.95 -42.2 -12.55 L-42.6 -13.15 Q-41.8 -13.15 -41.55 -12.1 L-41.55 -13.45 -41.15 -13.45 Q-40.0 -5.7 -32.55 0.35 -36.85 -1.7 -39.5 -6.25 -41.15 -9.05 -41.45 -11.5 L-41.55 -11.2 -43.0 -10.95 Q-44.4 -10.95 -45.75 -11.55 L-43.5 -3.95 -39.45 -0.5 -39.45 -0.4 Q-42.0 0.15 -46.6 -4.15 -50.9 -8.2 -50.9 -9.65 L-50.8 -11.1 -50.0 -11.1 Q-49.0 -8.85 -46.05 -6.1 L-45.6 -5.75 -45.8 -6.15 Q-46.8 -8.6 -46.8 -9.55 L-46.5 -11.95 -47.85 -12.9 -46.95 -11.95 -47.6 -11.2 Q-49.35 -12.3 -53.1 -18.7 -56.7 -24.95 -56.7 -26.4 -56.7 -28.05 -55.5 -29.1 L-54.35 -28.65 Q-54.2 -29.7 -54.2 -28.3 L-54.2 -28.25 -53.8 -28.25 Q-52.4 -22.45 -50.9 -19.85 L-50.9 -19.8 Q-46.2 -31.2 -46.4 -40.9 L-45.9 -40.9 Q-45.5 -40.15 -45.5 -38.55 M-55.25 -35.25 Q-53.45 -37.1 -52.2 -37.1 -53.4 -35.95 -54.75 -35.15 L-55.25 -35.25 M-55.4 -26.6 Q-55.4 -26.05 -54.4 -24.0 L-54.65 -24.7 -54.4 -27.65 -54.8 -27.45 Q-55.4 -27.3 -55.4 -26.6 M-62.45 -13.45 Q-63.5 -17.2 -64.1 -23.35 -64.1 -28.5 -62.4 -32.8 -60.1 -38.45 -56.05 -36.9 -61.7 -30.8 -61.7 -23.35 -61.7 -20.35 -59.7 -15.35 L-58.95 -13.45 -58.0 -13.45 Q-57.75 -13.6 -57.6 -13.35 -56.35 -13.25 -55.85 -11.85 -55.6 -11.1 -55.65 -10.2 -55.65 -9.15 -56.2 -7.8 L-56.8 -7.65 -56.75 -7.6 -57.7 -7.4 Q-58.95 -7.4 -60.0 -8.45 L-60.0 -7.6 Q-60.0 -6.75 -59.65 -5.8 L-56.85 -6.25 Q-56.2 -5.7 -56.2 -5.0 -56.2 -4.65 -56.95 -4.35 L-58.65 -3.75 -57.9 -2.65 -55.5 -4.9 -55.25 -4.85 -57.3 -2.55 -53.4 -5.7 Q-52.55 -5.7 -51.9 -5.15 L-53.55 -8.2 -53.4 -9.0 -52.55 -9.1 Q-51.75 -6.25 -48.3 -3.0 -44.4 0.75 -39.0 2.9 -39.3 3.8 -40.9 3.8 -45.9 3.8 -50.55 -3.05 L-50.35 -2.4 Q-49.85 -0.7 -49.8 1.15 -49.8 2.5 -50.5 4.0 -50.85 4.75 -51.35 5.3 L-50.3 6.5 -50.25 6.4 Q-49.55 7.0 -49.3 7.65 L-47.8 7.05 -48.35 8.7 -47.6 7.4 Q-45.8 4.45 -44.45 4.45 -42.6 4.45 -42.6 7.4 L-43.25 10.5 -43.7 12.05 Q-41.25 16.0 -37.2 18.25 L-37.45 16.75 -37.3 15.15 -36.5 14.5 -37.0 12.7 Q-40.2 10.8 -41.1 8.85 L-39.65 7.6 -38.2 8.9 -37.4 9.45 Q-35.9 10.4 -34.0 11.15 L-24.15 14.9 -23.95 15.3 -23.9 15.65 Q-24.05 16.0 -24.95 16.0 -30.15 16.0 -34.7 13.95 L-34.35 14.45 Q-33.65 14.75 -32.3 15.75 L-30.35 16.2 Q-26.85 16.75 -26.35 17.65 L-26.65 18.45 -26.75 18.45 -26.65 18.55 Q-25.35 18.95 -24.3 21.35 -23.2 22.9 -22.15 25.0 -20.2 28.9 -18.7 33.55 -18.35 33.05 -17.8 33.1 -17.35 33.5 -17.9 35.0 -17.9 38.6 -17.1 39.55 -15.55 41.4 -8.85 43.0 L-8.45 43.75 Q-16.95 42.8 -18.75 41.2 -19.45 40.65 -19.45 37.75 -19.45 35.6 -19.1 34.45 -20.45 30.55 -22.65 26.8 L-21.55 32.7 -21.5 32.55 Q-20.65 33.8 -20.65 35.35 -20.65 36.85 -34.7 55.75 L-34.65 55.75 -34.95 56.05 -35.3 56.55 -35.35 56.7 -34.55 55.9 -35.35 59.1 Q-35.1 63.8 -33.45 77.0 L-34.0 77.1 -34.75 75.45 Q-34.75 76.55 -34.9 77.3 L-35.85 77.3 -36.95 67.05 -37.3 68.85 -38.0 68.7 -37.3 62.8 -37.45 58.95 Q-38.15 58.0 -38.15 57.35 L-37.5 55.65 -37.4 53.35 -36.6 53.35 -36.45 53.9 Q-34.65 50.95 -30.9 45.7 L-21.85 33.15 -21.95 33.15 Q-23.35 27.6 -24.3 25.4 -25.65 22.35 -27.8 20.3 -30.0 19.25 -31.65 18.15 L-32.55 18.6 -33.1 18.45 Q-33.25 19.2 -33.25 17.85 L-32.95 17.25 -34.9 16.25 -35.4 16.3 -35.6 17.15 Q-35.6 17.85 -32.95 20.3 -33.3 21.2 -34.3 21.2 -35.65 21.2 -36.45 20.1 -38.85 19.25 -42.05 16.55 L-43.65 15.1 -44.75 15.6 -47.05 16.1 Q-50.45 16.1 -51.1 13.6 L-51.1 10.9 -51.05 9.8 Q-52.3 8.95 -53.85 6.9 L-54.35 7.3 Q-55.5 8.05 -56.55 8.05 -60.75 8.05 -61.55 5.85 L-61.55 3.2 -61.55 2.55 -61.7 2.5 Q-62.0 3.25 -62.0 1.9 L-61.5 1.15 -61.35 0.25 Q-60.9 -0.85 -59.0 -1.5 L-59.7 -2.3 -60.25 -3.15 -60.9 -3.2 -61.0 -4.05 -60.95 -4.45 -61.55 -4.35 Q-65.95 -4.35 -66.05 -10.35 L-65.8 -11.95 -63.45 -13.45 -62.45 -13.45 M-61.05 -9.95 L-61.5 -10.8 -63.7 -10.85 Q-64.0 -11.65 -64.0 -10.3 -64.0 -7.75 -61.45 -6.55 L-61.55 -7.9 Q-61.55 -9.1 -61.05 -9.95 M-43.8 -19.25 Q-42.85 -16.2 -41.0 -15.15 L-41.0 -14.8 -40.75 -14.6 Q-40.7 -14.4 -41.55 -14.4 -44.95 -14.4 -45.9 -22.9 L-47.35 -23.65 -46.3 -23.65 Q-44.4 -23.65 -42.3 -31.25 -40.8 -36.8 -40.1 -42.0 -39.55 -42.0 -39.3 -41.6 -39.95 -35.25 -40.65 -32.05 -41.8 -26.85 -45.2 -23.35 L-43.8 -19.25 M-43.65 -21.5 Q-43.9 -20.95 -43.9 -22.35 -43.9 -24.6 -38.45 -32.25 -32.75 -40.25 -29.95 -40.9 -29.35 -41.5 -29.35 -40.15 -29.35 -39.7 -33.85 -35.25 -39.25 -29.2 -43.2 -21.5 L-43.65 -21.5 M-52.35 -3.15 L-53.3 -3.8 Q-54.6 -2.55 -58.6 0.7 L-58.65 0.85 -59.5 2.3 Q-58.05 2.65 -57.95 3.1 L-59.85 2.9 -60.0 3.1 -60.0 5.1 Q-59.65 6.3 -57.7 6.3 L-56.35 6.0 -54.4 6.3 -54.15 6.3 -54.2 5.75 Q-51.55 0.1 -51.55 -0.6 L-52.35 -3.15 M-43.2 -7.25 Q-37.25 -1.95 -35.6 -0.95 L-36.0 -0.25 -41.8 -3.95 Q-43.75 -5.45 -43.75 -7.0 L-43.65 -7.25 -43.2 -7.25 M-18.05 -42.05 Q-19.85 -45.45 -23.45 -45.15 -21.0 -44.25 -19.65 -42.35 L-18.95 -41.1 -18.05 -42.05 M-14.9 -35.4 L-15.3 -35.05 -15.45 -33.75 -16.1 -32.5 -15.15 -30.75 -15.05 -30.7 -12.85 -31.15 Q-12.45 -31.15 -11.45 -29.3 L-10.55 -27.35 -10.6 -26.5 -9.65 -26.0 Q-10.3 -26.95 -10.2 -27.85 L-9.85 -29.7 Q-9.85 -30.35 -12.05 -32.75 -14.2 -35.1 -14.9 -35.4 M-29.1 -44.6 L-31.85 -44.35 -31.85 -43.9 -24.15 -44.0 -29.1 -44.6 M-35.6 -26.15 Q-34.15 -26.3 -33.85 -26.8 -32.85 -29.75 -32.3 -30.1 -31.25 -29.7 -31.25 -28.45 -31.25 -24.95 -34.3 -24.1 -37.15 -23.35 -36.8 -20.05 L-37.7 -20.05 -37.85 -22.7 -37.6 -24.8 Q-37.0 -26.0 -35.6 -26.15 M-31.0 -33.4 Q-29.25 -33.4 -28.35 -30.65 L-30.55 -29.1 Q-32.15 -29.55 -33.1 -32.15 -32.05 -33.4 -31.0 -33.4 M-23.7 -35.15 L-23.35 -34.6 -23.2 -34.15 -23.6 -33.55 -25.25 -33.6 -25.6 -35.15 -24.65 -35.4 -23.7 -35.15 M-23.35 -31.3 L-24.25 -30.75 -28.35 -33.15 -28.35 -33.95 -26.7 -34.05 Q-25.75 -34.05 -24.55 -32.9 -23.4 -31.85 -23.35 -31.3 M-26.15 -25.0 L-25.5 -25.1 Q-23.8 -25.1 -22.95 -23.9 L-23.0 -23.7 -22.55 -24.25 Q-22.05 -24.8 -19.9 -24.7 -19.45 -25.25 -19.45 -23.85 -19.45 -22.05 -20.85 -22.05 -21.5 -22.05 -23.25 -23.2 -24.3 -21.5 -27.55 -19.8 L-28.6 -19.7 -28.75 -19.75 Q-30.05 -18.35 -31.3 -18.35 -32.4 -18.35 -32.7 -19.2 L-30.75 -20.4 -31.55 -20.5 -31.1 -21.0 -31.8 -20.75 -32.1 -21.7 Q-32.1 -22.4 -30.3 -24.65 -27.95 -27.55 -24.65 -29.65 -24.25 -30.4 -24.25 -29.0 -24.25 -27.95 -26.25 -25.4 L-26.15 -25.0 M-27.8 -17.6 Q-26.65 -16.75 -25.25 -16.75 -22.05 -16.75 -20.6 -19.2 -19.2 -21.5 -18.35 -21.4 L-19.9 -18.35 Q-21.5 -16.2 -24.95 -16.2 -27.0 -16.2 -27.8 -17.2 L-27.8 -17.6 M-38.9 -22.8 Q-37.95 -21.85 -37.9 -20.45 -37.8 -18.75 -37.45 -18.1 L-37.7 -17.3 Q-38.7 -18.1 -39.9 -22.0 L-39.85 -22.6 -38.9 -22.8 M-35.7 -15.9 Q-35.4 -15.6 -35.4 -15.05 -35.4 -13.5 -36.25 -11.4 -37.15 -11.55 -37.15 -12.9 -37.15 -14.85 -35.7 -15.9 M-39.45 -16.9 Q-38.9 -16.0 -38.9 -13.85 L-39.3 -13.15 Q-40.45 -13.45 -40.45 -14.95 -40.45 -16.7 -39.45 -16.9 M-39.55 -9.2 L-39.45 -11.4 -39.0 -11.4 Q-39.65 -5.6 -25.8 2.9 -30.1 1.7 -34.85 -2.55 -39.55 -6.7 -39.55 -9.2 M-5.55 -17.85 L-4.6 -18.0 Q-2.6 -16.15 -1.4 -14.5 L-1.4 -13.95 Q-1.45 -13.7 -2.3 -13.7 L-2.7 -13.7 -2.5 -13.45 Q-2.8 -12.6 -4.15 -12.6 L-5.7 -13.05 Q-5.35 -14.05 -4.1 -14.2 -5.2 -14.95 -5.7 -16.65 L-5.55 -17.85 M-10.55 -19.3 L-10.3 -16.9 Q-10.5 -16.2 -11.75 -16.0 -13.3 -17.55 -13.3 -18.4 L-13.15 -19.3 -12.0 -19.5 -10.55 -19.3 M-18.9 -17.2 Q-19.55 -20.9 -17.3 -19.8 L-18.35 -16.65 Q-18.9 -15.85 -18.9 -17.2 M-13.85 -3.35 Q-13.85 -5.55 -12.85 -6.2 L-10.55 -9.65 Q-7.8 -12.9 -5.8 -13.45 -8.5 -10.2 -11.15 -5.25 L-11.05 -5.15 -5.8 -10.85 Q-5.3 -8.9 -10.1 -3.95 L-9.75 -3.5 Q-10.85 -2.45 -12.1 -1.85 L-12.15 -1.8 -13.45 -1.35 Q-13.85 -1.9 -13.85 -3.35 M-12.0 23.75 Q9.15 31.8 11.6 33.15 L-13.15 24.35 Q-13.15 23.75 -12.0 23.75 M-15.25 17.65 Q-14.2 17.65 -13.05 19.05 -7.4 8.25 -5.15 6.95 L-12.55 22.05 -13.6 22.05 Q-13.8 21.35 -13.6 18.85 L-15.05 18.45 -16.2 18.6 -16.75 18.45 Q-16.45 17.65 -15.25 17.65 M-30.2 21.05 L-30.1 20.55 -29.1 20.3 Q-27.95 20.3 -27.45 20.85 L-27.7 21.5 -27.7 21.6 Q-29.8 21.5 -30.2 21.05 M-49.45 10.4 L-49.25 13.55 -46.15 13.65 -44.75 13.95 -46.0 12.4 -45.2 11.85 Q-44.2 8.05 -44.2 6.2 -46.05 7.1 -47.15 9.35 L-48.65 12.8 Q-49.25 12.3 -49.25 10.9 L-49.1 10.3 -49.45 10.4 M-75.65 76.55 L-83.05 76.55 Q-81.6 75.65 -79.65 75.65 L-76.45 75.9 -75.65 76.55" fill="#000000" fill-rule="evenodd" stroke="none"/>
    <path d="M58.5 -76.3 L72.3 -75.4 Q75.75 -75.0 75.75 -72.65 75.75 -70.25 73.25 -70.25 L60.5 -70.95 61.05 -70.65 Q65.7 -67.8 69.05 -64.95 69.05 -61.7 66.8 -61.7 60.65 -61.7 50.95 -67.2 L48.95 -68.35 Q49.4 -65.4 49.5 -60.9 49.5 -59.95 48.55 -56.7 L47.5 -53.85 Q50.85 -54.15 56.35 -54.0 69.65 -54.45 71.15 -52.15 L71.95 -50.45 Q72.7 -49.6 75.75 -49.55 L72.05 -49.05 Q69.9 -47.7 68.5 -47.7 41.85 -47.7 41.85 -51.15 41.85 -52.55 43.5 -53.1 L46.2 -53.7 Q44.85 -55.2 44.85 -57.8 L45.1 -62.8 44.0 -71.5 Q42.25 -72.75 42.25 -73.2 42.25 -76.3 45.3 -76.3 49.2 -76.3 54.2 -74.2 L54.2 -74.3 Q54.2 -77.15 59.25 -76.45 L58.5 -76.3 M8.35 -65.45 L6.65 -63.1 4.75 -59.7 3.4 -57.45 Q7.8 -57.3 10.5 -53.75 L12.4 -50.05 Q12.4 -48.75 11.25 -47.45 9.85 -45.85 7.8 -45.85 4.35 -45.85 1.1 -48.95 -1.1 -51.15 -1.45 -52.3 -6.45 -45.9 -11.1 -41.75 -8.95 -39.25 -5.9 -33.75 -5.9 -31.75 -7.9 -31.75 -10.55 -31.75 -15.15 -40.75 L-15.5 -40.8 Q-16.2 -41.35 -16.2 -42.05 L-15.9 -42.55 -15.65 -43.5 Q-15.6 -43.8 -14.7 -43.85 L-14.45 -44.15 -12.1 -46.25 -11.5 -45.65 Q-9.3 -49.05 -5.05 -54.3 L-1.05 -58.85 Q4.15 -68.2 6.2 -68.3 L5.65 -69.05 Q4.3 -70.9 4.3 -71.25 4.3 -76.45 9.2 -76.45 18.0 -76.45 27.35 -62.9 27.35 -61.9 26.7 -60.5 25.8 -58.5 24.2 -58.5 16.3 -58.5 9.55 -64.65 L8.05 -66.15 7.8 -65.4 8.35 -65.45 M39.7 18.55 L39.35 18.55 37.95 18.15 Q37.65 18.35 37.65 16.95 37.65 15.75 43.15 9.6 42.25 9.4 41.95 8.65 L41.85 7.6 Q41.85 6.3 45.45 1.1 L45.55 0.95 Q45.55 0.25 47.5 -1.65 49.25 -3.9 50.3 -4.25 53.55 -7.2 54.8 -8.8 L55.8 -10.45 56.55 -11.6 55.55 -11.55 Q51.25 -8.65 41.55 -3.3 L39.35 -3.6 Q39.25 -3.5 39.25 -4.85 39.25 -5.6 45.6 -10.15 43.6 -10.35 43.0 -11.25 L42.9 -12.55 Q42.9 -13.5 49.0 -17.5 L51.5 -19.05 Q51.3 -20.65 51.35 -22.3 51.35 -30.7 51.9 -32.75 52.35 -34.55 56.0 -37.8 L56.25 -38.0 54.9 -37.85 40.55 -36.6 Q38.6 -36.6 38.15 -37.8 37.9 -38.4 38.05 -39.05 38.05 -41.6 44.5 -43.2 52.05 -45.1 66.4 -45.1 67.15 -45.1 68.85 -43.55 L71.8 -42.35 Q70.55 -40.8 65.3 -39.55 66.55 -37.45 66.0 -32.7 66.0 -28.75 65.65 -27.7 64.55 -24.6 60.05 -22.8 L60.2 -21.8 Q61.85 -21.65 62.75 -20.95 L63.8 -22.1 65.35 -20.55 64.85 -19.45 Q66.45 -19.2 66.55 -17.1 L67.7 -17.35 Q69.85 -17.35 72.65 -10.85 74.05 -21.2 77.0 -21.2 78.65 -21.2 78.65 -19.35 77.0 -4.7 77.0 -2.8 L77.0 -2.05 77.3 -0.7 Q77.8 -5.85 78.65 -10.8 80.8 -22.9 84.35 -26.75 81.35 -28.0 80.35 -28.15 81.95 -29.75 83.15 -29.75 84.8 -29.75 87.6 -28.55 L88.0 -28.6 Q89.8 -28.6 90.25 -27.3 95.5 -24.7 103.6 -19.1 L103.6 -18.7 Q104.0 -18.25 102.6 -18.25 100.85 -19.1 99.25 -19.9 L101.95 -17.75 Q107.6 -13.1 112.3 -8.0 L111.75 -6.85 Q107.7 -9.0 99.85 -15.05 L89.8 -22.5 87.55 -13.85 84.6 -3.0 83.2 10.15 83.2 10.25 Q85.95 3.6 88.55 3.6 91.2 3.6 91.2 6.45 L82.9 24.6 84.8 30.15 92.65 45.9 92.6 46.55 95.2 48.5 Q95.3 47.4 96.45 46.5 97.75 45.55 99.6 45.55 L103.15 45.8 Q103.55 42.6 105.5 34.0 L108.05 23.4 Q109.3 20.3 111.2 11.55 111.0 8.2 111.5 5.55 111.85 3.75 112.55 2.55 111.35 -2.15 111.35 -3.7 111.35 -5.15 112.5 -8.05 113.9 -11.55 115.5 -11.55 117.6 -11.55 119.8 2.2 L119.9 2.9 121.1 11.55 Q121.1 15.5 118.1 15.5 L117.45 15.45 Q109.35 52.8 106.75 52.8 105.2 52.8 104.3 52.1 L99.55 52.7 99.1 53.5 98.2 54.2 Q91.35 54.2 84.85 49.05 79.6 44.95 79.6 43.55 79.6 42.0 80.65 41.45 L78.35 40.55 Q75.65 39.55 75.65 37.5 74.85 29.55 74.85 25.85 L74.95 25.2 Q73.85 22.05 73.0 16.8 71.95 10.3 71.6 3.6 L71.7 0.65 70.95 -1.6 Q69.9 -0.85 68.25 0.0 68.25 1.95 67.0 2.55 L63.7 3.1 63.05 3.15 58.65 6.7 Q48.1 15.1 46.85 15.1 L46.8 15.1 45.7 16.0 44.75 16.15 Q44.55 16.15 44.55 15.3 L44.55 15.2 Q42.0 17.8 40.3 18.4 L40.15 18.55 39.75 18.55 39.7 18.55 M37.95 -37.4 Q36.0 -34.4 35.9 -33.7 L36.2 -32.3 Q36.2 -31.6 23.6 -16.8 12.85 -4.15 9.55 -1.95 12.2 4.95 12.4 7.6 13.25 9.55 18.5 13.95 L21.2 16.3 22.05 16.25 26.85 16.7 31.35 17.45 Q31.05 18.3 30.4 18.7 29.25 19.45 24.2 19.45 L23.35 19.45 22.75 20.65 Q22.0 21.75 21.3 21.75 14.0 21.75 9.45 10.5 L9.1 9.6 Q7.25 6.55 7.25 3.9 L7.3 3.75 6.35 -0.95 6.45 -2.05 6.45 -2.1 Q5.75 -2.65 5.75 -3.7 5.75 -5.65 21.45 -21.85 23.8 -24.2 29.2 -31.1 34.3 -36.9 37.95 -37.4 M65.35 -13.8 L66.85 -14.05 67.25 -14.05 66.55 -16.65 65.45 -14.05 65.35 -13.8 M128.75 -67.1 L128.45 -61.3 Q128.4 -60.6 127.05 -60.6 126.35 -60.6 123.9 -65.8 L122.0 -70.05 Q120.35 -69.0 117.95 -67.9 L116.95 -67.45 Q115.75 -65.6 114.45 -62.85 L112.3 -58.2 114.75 -48.2 115.0 -48.05 118.6 -46.05 122.0 -46.4 Q125.25 -46.4 126.25 -45.2 127.6 -44.85 127.6 -43.3 127.6 -40.95 124.4 -40.4 L122.0 -40.05 Q117.35 -40.05 116.05 -41.55 L115.9 -42.05 114.25 -43.25 113.25 -44.15 113.9 -42.2 114.4 -42.35 Q116.8 -42.35 117.7 -33.75 L117.45 -32.55 Q117.4 -32.0 116.05 -32.0 114.75 -32.0 113.45 -35.9 L113.45 -36.0 112.8 -35.95 Q111.85 -35.95 110.9 -36.9 L110.9 -36.85 111.2 -36.6 Q112.75 -35.25 112.75 -34.3 L112.2 -24.2 112.2 -20.0 Q111.75 -16.5 109.5 -16.5 104.7 -16.5 103.65 -21.75 103.05 -24.55 103.15 -28.85 102.75 -30.75 101.2 -32.3 L99.35 -33.8 96.25 -35.4 Q93.3 -36.65 92.35 -37.35 90.65 -38.65 90.65 -40.6 90.65 -43.35 92.95 -44.05 L92.95 -44.8 Q92.95 -46.85 95.0 -51.55 L96.3 -54.05 96.8 -58.0 97.6 -61.55 97.7 -62.7 Q96.35 -64.05 96.35 -65.65 96.35 -67.6 97.15 -69.2 98.2 -71.3 100.4 -72.0 L101.45 -72.35 101.5 -72.25 102.85 -72.35 103.3 -72.35 104.4 -72.5 105.1 -72.35 109.9 -73.7 Q110.75 -73.9 115.5 -75.95 119.7 -77.75 121.25 -77.75 123.6 -77.75 124.55 -76.3 128.45 -75.0 128.75 -67.1 M105.6 -39.4 L105.05 -42.55 104.9 -43.7 105.3 -39.6 105.6 -39.4 M91.7 -34.1 Q89.5 -34.1 85.7 -35.65 81.25 -37.55 80.35 -39.8 80.75 -40.8 81.7 -40.8 90.65 -38.25 92.95 -34.65 93.05 -34.1 91.7 -34.1 M93.05 -19.1 Q98.1 -19.1 109.2 1.85 109.2 2.75 110.95 4.8 L110.95 5.05 101.65 -6.15 91.95 -18.45 Q91.95 -19.1 93.05 -19.1 M97.3 70.1 Q102.55 75.65 102.55 77.0 102.55 80.4 98.85 80.4 96.6 80.4 90.25 74.65 L82.35 67.1 74.8 60.85 70.5 56.7 69.55 56.9 Q67.35 56.9 66.5 54.85 L66.45 54.6 Q63.35 54.15 61.05 50.6 L59.15 46.4 Q59.15 44.8 59.8 43.0 60.9 40.0 63.25 40.0 68.5 40.0 71.95 50.6 L71.95 50.85 Q74.9 50.95 91.3 64.1 L97.3 70.1 M46.1 22.6 Q51.7 22.15 51.7 25.3 39.3 36.15 34.5 37.95 L25.1 40.7 21.95 41.55 Q17.55 43.7 14.05 43.7 5.05 43.7 3.85 43.5 L-5.3 48.4 Q-17.4 59.05 -21.8 60.8 L-23.1 61.8 -24.1 63.85 -24.4 66.55 Q-25.25 69.7 -28.45 69.7 -34.5 69.7 -35.45 56.75 -35.45 49.65 -25.05 41.4 -23.55 37.15 -22.25 34.4 -21.2 32.25 -20.15 30.95 -23.2 25.95 -27.3 17.3 -31.05 15.0 -36.5 10.55 L-37.15 12.25 Q-38.4 15.25 -39.35 15.25 -42.6 15.25 -42.45 12.1 -42.45 11.25 -41.1 8.8 L-40.2 7.4 -41.5 6.3 -41.25 0.95 Q-41.4 -0.7 -40.0 -1.05 -40.6 -2.15 -40.6 -3.0 -40.6 -5.9 -38.5 -5.9 -38.05 -5.9 -34.95 -2.55 -31.75 0.95 -30.55 1.4 L-27.85 2.2 -27.95 2.05 -27.75 1.65 -26.85 1.5 Q-26.05 1.5 -24.55 3.1 L-21.8 3.8 Q-17.5 4.95 -17.5 6.65 -17.5 9.3 -19.15 9.35 -14.5 12.95 -11.5 16.3 -3.0 2.2 0.0 2.2 L0.85 2.25 Q1.8 1.7 2.8 1.65 L5.35 1.9 Q5.6 1.7 5.6 3.05 5.6 3.95 5.0 4.4 8.8 8.7 8.8 21.35 8.8 23.6 7.5 26.55 L7.45 26.65 Q10.6 27.65 14.95 30.4 L16.55 31.4 Q16.5 29.8 16.9 28.8 17.8 26.45 21.75 26.15 21.45 25.5 21.45 24.1 21.45 20.0 37.4 20.0 38.55 20.0 41.2 21.45 43.7 22.8 46.1 22.6 M5.15 29.8 Q3.95 30.65 2.5 30.65 -4.15 30.65 -8.35 28.0 L-7.05 30.15 -6.85 30.0 Q-3.4 30.0 -3.3 32.85 L-3.4 34.3 -1.45 35.7 Q3.95 31.45 5.75 31.45 L7.0 31.6 5.15 29.8 M27.05 80.05 Q27.05 82.5 24.75 82.5 22.55 82.5 -16.5 60.6 -16.5 58.35 -14.2 58.35 -8.45 58.35 10.5 69.05 13.35 70.5 19.4 74.2 27.05 78.95 27.05 80.05 M-41.65 -22.4 L-41.5 -22.4 Q-41.45 -25.75 -38.55 -29.9 -34.85 -35.3 -29.45 -34.9 L-27.8 -33.25 Q-27.8 -31.6 -29.7 -30.05 -28.85 -29.35 -28.85 -29.05 -28.85 -27.8 -30.85 -26.5 L-34.9 -23.3 -35.85 -20.75 Q-36.4 -18.8 -37.7 -17.7 L-38.1 -17.95 -37.8 -17.3 Q-35.85 -12.95 -35.85 -12.1 -35.85 -11.35 -36.5 -10.65 L-37.3 -10.0 Q-40.95 -10.0 -43.5 -20.6 -43.5 -22.4 -41.65 -22.4 M-57.75 -4.15 Q-54.1 -12.1 -51.7 -12.1 -50.65 -12.1 -50.0 -11.15 -49.55 -10.5 -49.55 -10.1 -49.55 -8.3 -51.15 -5.45 -53.05 -1.95 -55.45 -1.95 -58.15 -1.95 -57.75 -4.15 M-44.95 -0.4 Q-44.95 0.75 -46.7 3.05 -48.7 5.75 -50.6 5.75 -53.25 5.75 -52.85 3.55 -52.85 2.75 -50.5 -0.1 -48.15 -3.0 -47.4 -3.0 -45.8 -3.0 -45.2 -1.75 -44.95 -1.2 -44.95 -0.4 M-18.55 -31.9 L-19.25 -32.3 -19.25 -33.3 -17.65 -33.45 Q-17.1 -33.05 -17.05 -32.65 -17.15 -31.9 -18.55 -31.9 M-13.9 -26.65 Q-14.1 -26.0 -14.8 -25.45 -15.45 -25.0 -16.2 -24.9 L-16.2 -24.2 Q-16.2 -21.65 -17.1 -18.45 -18.45 -13.75 -20.95 -13.75 -23.35 -13.75 -28.2 -16.3 -33.0 -18.8 -33.0 -19.9 L-32.95 -20.25 Q-33.45 -21.1 -33.3 -22.05 -33.3 -23.5 -30.55 -25.85 -27.35 -28.6 -23.7 -28.6 L-23.65 -28.6 Q-23.25 -31.1 -17.9 -31.1 -15.95 -31.1 -14.9 -30.15 -14.3 -31.45 -12.35 -31.45 -9.4 -31.45 -9.6 -29.05 -9.6 -26.45 -12.35 -26.45 L-13.9 -26.65 M-22.4 -32.45 Q-23.4 -30.85 -23.95 -30.85 L-26.1 -31.35 -26.4 -32.15 Q-26.4 -33.45 -23.95 -33.45 -23.25 -33.45 -22.4 -32.45 M-4.3 -13.8 Q-4.3 -10.65 -6.85 -10.65 -11.2 -10.65 -11.2 -13.8 L-10.9 -14.75 Q-13.3 -15.3 -13.3 -17.5 -13.3 -18.55 -11.95 -20.3 -10.3 -22.4 -8.35 -22.4 -5.25 -22.4 -5.5 -19.15 L-5.9 -17.9 Q-3.95 -17.3 -4.3 -13.8 M-15.2 16.25 L-13.45 19.6 -12.3 17.6 -15.2 16.25" fill="#000000" fill-opacity="0.4627451" fill-rule="evenodd" stroke="none"/>
    <path d="M27.5 -40.05 Q27.5 -39.35 26.9 -38.45 26.1 -37.3 24.75 -37.3 24.05 -37.3 22.75 -37.95 L22.55 -39.6 Q22.55 -40.2 23.2 -41.1 24.05 -42.35 25.3 -42.35 27.2 -42.35 27.5 -40.05 M21.8 -32.55 Q20.8 -31.1 19.45 -31.1 17.5 -31.1 16.95 -32.35 16.7 -33.0 16.8 -33.75 16.8 -34.45 17.35 -35.35 18.25 -36.75 20.0 -36.75 22.45 -36.75 22.55 -34.35 22.55 -33.7 21.8 -32.55 M6.5 -24.25 L6.35 -24.75 Q6.35 -27.0 8.35 -27.0 10.35 -27.0 10.35 -24.75 L10.3 -24.1 9.45 -24.1 6.5 -24.25 M130.7 20.2 L124.85 32.1 Q116.25 49.85 116.25 58.35 116.25 63.65 106.9 63.9 L106.9 64.1 97.1 64.1 Q93.95 62.0 93.95 60.0 93.95 57.9 96.35 56.35 99.6 54.35 102.05 55.85 102.95 56.4 103.3 56.25 103.95 56.0 104.75 54.15 106.25 49.7 107.35 47.4 L113.35 34.35 119.1 20.9 Q120.1 18.7 124.05 14.0 128.3 8.9 129.7 8.9 133.75 8.9 133.4 12.9 133.4 14.55 130.7 20.2 M74.3 10.0 Q74.3 14.3 72.25 18.15 74.45 17.45 75.9 17.45 77.8 17.45 77.85 19.5 77.85 21.2 72.7 22.6 L66.35 23.75 61.35 24.6 Q57.9 24.6 55.95 23.85 L52.15 24.6 Q48.9 24.6 47.0 20.75 L45.7 16.75 Q45.7 14.45 47.85 13.2 49.45 12.25 56.1 9.4 L61.5 5.75 Q66.5 2.45 68.5 2.45 73.35 2.45 73.8 6.2 74.9 7.4 74.3 10.0 M-99.25 -33.2 Q-99.25 -32.2 -100.1 -31.2 -101.2 -30.0 -102.85 -30.0 -106.2 -30.0 -105.85 -33.3 -105.85 -36.3 -102.55 -36.3 -100.75 -36.3 -99.8 -34.75 L-99.25 -33.2 M-118.65 -23.85 Q-118.0 -23.65 -117.6 -23.2 L-117.45 -22.4 -118.15 -21.55 -119.35 -21.55 -119.9 -22.8 Q-119.9 -24.2 -118.65 -23.85 M-104.4 -10.2 Q-104.4 -10.65 -103.4 -11.3 -102.05 -11.15 -102.05 -10.0 L-102.0 -9.8 -102.85 -9.6 Q-103.5 -9.6 -104.4 -10.2 M-97.15 -0.95 Q-96.8 -0.3 -96.8 0.45 -96.8 3.05 -99.75 3.05 -102.95 3.05 -102.4 0.3 -102.4 -2.2 -99.65 -2.2 -97.85 -2.2 -97.15 -0.95 M-5.0 -29.7 Q-4.05 -29.25 -5.4 -29.25 -6.25 -29.25 -10.45 -33.75 -14.5 -38.1 -14.5 -38.5 -14.5 -39.1 -13.8 -39.65 -13.2 -40.2 -12.65 -40.2 -10.9 -40.2 -8.0 -36.2 -5.1 -32.2 -5.0 -29.7 M-71.75 9.1 Q-75.75 9.1 -76.0 5.2 -75.6 1.4 -72.25 1.4 -70.1 1.4 -68.95 3.5 -68.2 4.85 -68.2 5.75 -68.2 6.95 -69.05 7.95 -70.1 9.1 -71.75 9.1" fill="#000000" fill-opacity="0.44313726" fill-rule="evenodd" stroke="none"/>
    <path d="M10.3 -24.1 Q18.45 -23.9 18.45 -19.55 18.45 -15.55 14.05 -16.35 14.3 -16.15 14.3 -14.75 13.4 -11.0 13.4 -9.6 13.4 -7.75 11.95 -6.05 10.15 -3.95 7.25 -3.95 5.75 -3.95 -0.3 -13.2 -6.05 -22.0 -6.05 -22.6 -6.05 -26.1 -2.4 -26.1 -0.1 -26.1 2.85 -25.1 L6.5 -24.25 9.45 -24.1 10.3 -24.1 M-20.55 33.85 Q-20.55 36.75 -23.0 36.85 -24.3 40.8 -34.1 52.55 -35.05 54.55 -34.6 62.25 -34.35 66.5 -35.6 67.8 -33.3 72.4 -33.3 73.7 -33.3 75.05 -33.45 75.45 L-34.65 76.0 -35.75 74.6 -36.2 74.95 Q-35.85 75.5 -35.85 76.35 -35.85 79.85 -41.45 79.85 -61.45 79.85 -77.1 77.45 -84.0 76.4 -87.75 75.25 L-88.6 75.35 Q-89.75 75.35 -90.35 74.3 -92.5 73.25 -92.5 72.15 -92.5 70.9 -91.2 70.35 L-91.35 69.25 Q-92.3 61.1 -95.8 56.1 -97.7 53.4 -99.9 46.75 -102.15 40.05 -102.15 36.9 -102.15 34.8 -97.4 30.4 -92.2 25.5 -88.05 25.5 -86.25 25.5 -84.4 26.25 L-80.5 27.85 Q-73.9 30.15 -61.05 30.15 L-51.75 28.95 -41.1 27.75 Q-31.1 27.75 -26.9 29.6 L-26.85 29.6 Q-20.8 29.6 -20.55 33.85" fill="#000000" fill-opacity="0.4117647" fill-rule="evenodd" stroke="none"/>
    <path d="M-110.75 -67.95 L-111.55 -68.1 Q-111.75 -68.2 -111.75 -69.05 -111.75 -70.2 -107.05 -73.5 -102.0 -77.0 -99.1 -77.0 -94.7 -77.0 -93.2 -64.9 -90.3 -55.25 -90.3 -52.85 L-90.5 -51.4 -92.3 -50.7 Q-93.4 -50.7 -94.35 -51.55 L-94.8 -50.5 Q-96.8 -45.95 -99.25 -45.95 -104.15 -45.95 -104.6 -48.7 L-104.75 -51.35 Q-104.9 -53.0 -105.6 -54.0 L-107.35 -55.6 -107.45 -55.25 -107.25 -54.45 Q-107.25 -53.35 -110.65 -50.15 -114.0 -47.05 -115.0 -47.05 -122.1 -47.05 -122.1 -53.25 -122.1 -56.4 -121.25 -58.0 L-125.25 -57.75 Q-126.5 -57.75 -127.25 -58.4 L-127.35 -59.25 Q-127.35 -59.85 -123.15 -60.75 L-117.6 -61.6 Q-114.75 -61.6 -113.45 -58.8 L-111.15 -57.95 -111.1 -58.1 Q-111.65 -59.2 -111.65 -61.45 L-110.6 -64.3 -110.55 -66.05 -110.1 -66.05 -109.9 -66.05 -108.55 -69.0 -110.75 -67.95 M-89.65 -53.6 Q-89.65 -58.15 -80.7 -58.15 L-77.45 -57.6 -76.45 -57.6 Q-73.5 -57.6 -71.0 -53.0 -69.6 -50.45 -69.05 -48.3 L-67.95 -48.4 Q-65.0 -48.4 -65.0 -45.95 L-65.2 -44.55 -66.95 -43.9 Q-68.7 -43.9 -69.85 -44.8 -70.8 -45.55 -70.8 -46.4 L-70.6 -47.35 Q-71.7 -48.7 -72.45 -50.6 L-72.55 -50.9 Q-73.0 -49.95 -74.1 -49.05 -75.15 -48.25 -76.2 -48.3 -77.35 -48.4 -78.85 -47.4 -80.85 -46.25 -81.25 -46.25 -86.5 -46.25 -88.6 -49.85 -89.65 -51.65 -89.65 -53.6 M-8.35 -75.45 Q-8.35 -74.05 -9.6 -73.15 -8.1 -66.75 -5.9 -54.45 -5.9 -52.5 -6.65 -51.65 -7.6 -50.5 -10.5 -50.1 -12.1 -51.35 -12.1 -51.75 -12.1 -52.45 -10.0 -54.7 L-11.95 -65.2 -13.15 -63.55 Q-17.45 -58.05 -24.65 -57.75 -22.75 -55.3 -26.7 -53.05 -30.3 -51.0 -34.4 -51.0 -38.6 -51.0 -45.85 -53.7 -53.4 -56.5 -53.95 -59.2 L-53.1 -51.35 -53.4 -49.25 -53.4 -48.95 Q-53.45 -48.65 -54.3 -48.65 L-54.6 -48.7 -54.55 -48.1 Q-54.55 -44.65 -57.05 -44.65 -60.05 -44.65 -59.3 -48.05 -59.3 -52.45 -56.95 -52.45 L-56.7 -52.4 Q-57.95 -57.15 -58.45 -67.8 -59.05 -68.65 -59.05 -69.7 L-58.6 -70.9 Q-58.55 -74.35 -57.4 -75.3 L-55.5 -76.3 Q-55.05 -77.35 -54.3 -77.8 L-48.25 -78.85 -47.95 -78.95 -47.9 -78.9 -42.7 -79.5 -29.0 -80.55 Q-27.0 -80.55 -26.4 -80.05 L-25.8 -78.9 -25.25 -78.25 -15.2 -78.05 -13.95 -77.95 Q-13.85 -80.0 -12.1 -80.0 -11.55 -80.0 -10.75 -77.4 -8.35 -76.7 -8.35 -75.45 M-73.4 -54.5 L-73.4 -55.6 -73.55 -56.0 -74.3 -55.5 -74.15 -55.35 -73.4 -54.5 M-54.6 -65.25 L-54.0 -59.65 Q-54.0 -60.35 -53.35 -61.15 -52.7 -61.95 -52.7 -62.6 -52.7 -64.1 -54.6 -65.25" fill="url(#gradient13)" fill-rule="evenodd" stroke="none"/>
    <path d="M126.95 -40.3 L125.45 -40.45 Q121.55 -40.45 118.75 -38.4 L118.3 -39.8 Q120.85 -39.9 121.0 -42.9 121.0 -43.7 114.8 -65.75 113.7 -69.6 112.75 -77.25 L112.7 -77.55 126.95 -77.55 126.95 -40.3 M105.5 -19.95 L105.95 -20.05 106.0 -19.75 106.1 -19.4 105.5 -19.95 M92.5 -23.8 L92.65 -23.7 89.45 -23.5 88.7 -27.45 Q90.1 -25.55 92.5 -23.8" fill="url(#gradient14)" fill-rule="evenodd" stroke="none"/>
    <path d="M82.3 -77.5 L82.6 -76.8 Q80.1 -76.65 79.3 -73.7 77.85 -75.95 74.85 -75.95 L73.4 -75.55 73.4 -74.4 Q77.15 -71.15 77.35 -66.45 L76.75 -58.95 Q76.7 -55.95 78.55 -51.1 80.75 -45.45 81.15 -43.15 83.45 -29.1 83.9 -27.1 84.65 -23.85 85.55 -21.0 84.75 -20.45 84.75 -19.55 84.75 -18.2 86.85 -17.5 87.95 -14.7 89.35 -12.35 L89.35 -12.45 Q90.25 -15.1 90.25 -16.85 L90.25 -16.95 98.85 -15.8 Q100.05 -15.45 103.2 -12.55 106.95 -9.8 111.95 -9.75 114.85 -9.8 116.65 -11.1 118.25 -12.3 118.25 -13.65 118.3 -16.55 114.95 -16.55 L112.4 -16.35 112.5 -19.7 Q112.5 -24.45 103.15 -47.9 102.5 -49.35 99.1 -64.5 96.45 -76.3 93.8 -76.3 L93.3 -77.5 101.45 -77.5 Q103.0 -67.6 105.3 -57.75 110.1 -37.25 115.1 -32.2 L115.05 -31.7 115.25 -30.05 Q116.65 -29.5 117.7 -29.5 L119.0 -30.7 119.75 -31.5 Q121.45 -33.25 122.95 -33.65 L126.95 -34.75 126.95 79.25 86.6 79.25 86.7 79.1 Q87.65 77.8 87.65 76.0 87.65 72.75 80.7 64.55 75.95 58.95 71.15 54.4 64.4 47.95 55.25 41.55 42.95 32.95 37.4 32.95 32.65 32.95 32.65 35.9 L43.85 44.0 Q56.45 53.05 61.9 57.95 64.0 59.85 72.7 70.65 78.2 77.0 81.5 79.25 L65.45 79.25 64.55 77.65 Q58.35 66.7 56.65 64.85 50.5 57.85 43.7 51.95 30.25 40.25 22.1 40.3 18.15 40.25 18.15 43.5 18.15 44.55 28.35 51.65 41.05 60.45 48.15 68.1 53.95 74.2 56.6 79.25 L32.2 79.25 Q31.35 77.9 29.75 76.85 L30.0 75.3 Q30.0 71.75 23.25 67.2 21.75 66.2 9.1 59.0 5.25 56.8 -8.0 51.25 -22.85 45.0 -25.85 45.0 -29.4 45.0 -39.9 65.7 -38.6 71.45 -37.0 75.1 L-37.0 75.25 Q-36.75 76.85 -35.1 79.25 L-129.95 79.25 -129.95 -77.5 82.3 -77.5 M20.6 -3.95 Q13.8 -8.3 8.9 -8.3 7.6 -8.3 6.65 -7.3 5.75 -6.35 5.75 -5.1 5.75 -2.8 14.3 1.45 23.05 5.8 23.55 9.05 24.65 16.05 33.1 23.4 35.25 23.35 35.25 20.8 35.25 18.35 32.6 15.05 29.65 11.35 28.9 6.2 28.15 0.9 20.6 -3.95 M26.85 -23.4 Q22.3 -23.4 22.3 -19.0 22.3 -15.7 28.3 -12.75 31.4 -11.2 32.6 -9.2 L34.5 -5.85 39.7 1.9 Q43.5 7.7 44.25 7.7 47.0 7.7 47.0 0.35 44.5 -5.7 40.7 -11.55 33.15 -23.4 26.85 -23.4 M-82.7 -16.35 Q-102.5 -37.35 -107.85 -37.35 -108.45 -37.35 -109.0 -36.8 -104.65 -31.65 -94.45 -22.1 -83.05 -11.45 -78.7 -6.8 -70.1 2.95 -65.1 8.1 -57.9 15.55 -51.3 20.15 -48.95 23.65 -36.5 32.95 L-36.05 32.3 Q-37.85 28.8 -43.35 24.0 -47.85 20.05 -49.8 19.45 -60.8 7.85 -82.7 -16.35 M-91.95 -41.0 Q-92.15 -40.85 -92.15 -39.8 L-56.4 -6.6 -55.3 -6.85 -55.1 -7.15 -54.85 -8.25 Q-54.85 -9.2 -70.25 -24.75 -86.45 -41.15 -90.75 -41.15 L-91.95 -41.0 M-123.9 -30.65 Q-123.85 -30.05 -123.95 -29.65 L-89.5 4.75 Q-69.25 25.05 -63.8 28.45 L-64.2 28.5 -64.35 29.8 Q-64.35 30.65 -64.05 30.85 L-63.25 31.0 Q-61.35 30.65 -61.05 29.85 L-61.3 28.65 -62.05 28.5 Q-114.85 -31.0 -122.9 -31.0 -123.8 -31.0 -123.9 -30.65 M1.5 40.55 L2.45 40.4 3.6 40.6 Q4.3 40.15 4.3 38.15 4.3 37.7 2.75 35.35 L2.75 34.9 Q-1.3 24.35 -1.4 20.85 -1.35 15.35 -1.45 11.55 L-0.8 10.4 -0.5 9.95 Q3.9 8.2 6.65 1.3 L1.65 -7.9 Q-3.5 -17.3 -3.95 -22.25 -4.15 -24.65 -6.5 -28.35 L-10.2 -33.95 -12.35 -37.85 Q-13.5 -39.75 -14.95 -40.7 -18.65 -43.15 -30.55 -43.15 -38.7 -43.15 -43.5 -39.65 L-43.3 -38.75 -43.55 -37.9 -38.95 -35.05 Q-33.85 -31.35 -31.35 -26.25 -26.5 -16.35 -24.1 -13.25 -23.0 -11.9 -16.35 -6.75 -10.8 -2.5 -10.5 -0.3 -11.05 3.45 -10.8 6.3 -10.5 9.55 -8.8 10.9 L-9.3 13.95 -9.55 14.35 Q-11.7 18.0 -12.65 20.15 L-12.9 20.1 -13.9 20.3 -13.95 20.8 -13.35 22.25 -13.4 22.5 Q-13.4 23.95 -13.2 23.8 L-12.5 24.05 Q-11.0 27.05 -8.65 30.5 -6.85 37.0 -2.5 37.5 -0.5 40.5 1.5 40.55 M6.5 15.95 L14.55 21.45 Q20.45 25.5 22.1 25.55 23.5 25.5 23.0 24.8 22.6 22.85 17.2 18.6 11.35 14.05 7.8 14.05 L6.65 14.35 Q6.5 15.1 6.5 15.95 M44.85 11.55 L42.65 14.55 Q40.7 17.4 40.7 18.5 40.7 19.5 41.25 20.75 42.2 22.8 44.25 22.8 47.15 22.8 47.15 20.8 44.65 18.4 44.65 17.95 L44.85 11.55 M86.1 60.2 Q91.8 66.0 99.55 67.35 89.95 55.8 77.9 44.45 L75.7 42.35 Q74.9 36.35 66.55 30.85 55.25 23.35 36.85 23.4 32.0 23.35 32.0 26.1 32.0 27.5 32.35 27.45 53.45 32.0 60.8 35.55 L66.5 41.25 Q70.25 45.15 72.9 45.9 L76.05 48.7 Q75.65 49.15 75.65 50.1 L75.85 51.4 Q76.4 52.6 78.0 52.6 78.9 52.6 79.4 52.2 L86.1 60.2 M-24.65 19.2 Q-31.0 12.55 -34.2 12.55 -34.9 12.55 -35.45 13.35 L-26.55 22.75 Q-20.8 28.85 -17.25 30.7 L-17.25 30.25 Q-18.25 25.85 -24.65 19.2" fill="url(#gradient15)" fill-rule="evenodd" stroke="none"/>
    <path d="M-5.75 -12.2 L-6.75 -13.4 -6.6 -13.65 -6.2 -13.3 -5.75 -12.2 M-12.75 -9.3 L-16.55 -12.25 -15.45 -11.85 -12.75 -9.3 M-35.1 -37.65 L-33.7 -37.7 -34.25 -37.05 -35.1 -37.65" fill="url(#gradient16)" fill-rule="evenodd" stroke="none"/>
    <path d="M82.3 -77.5 L-129.95 -77.5 -129.95 79.25 -35.1 79.25 M32.2 79.25 L56.6 79.25 M65.45 79.25 L81.5 79.25 M86.6 79.25 L126.95 79.25 126.95 -34.75 M101.45 -77.5 L93.3 -77.5 M126.95 -40.3 L126.95 -77.55 112.7 -77.55" fill="none" stroke="#ffffff" stroke-linecap="round" stroke-linejoin="round" stroke-width="1.0"/>
  </g>
  <defs>
    <radialGradient cx="0" cy="0" gradientTransform="matrix(-0.0079, 0.1136, -0.1977, -0.0142, -29.55, 54.0)" gradientUnits="userSpaceOnUse" id="gradient0" r="819.2" spreadMethod="pad">
      <stop offset="0.0" stop-color="#624848"/>
      <stop offset="0.48627450980392156" stop-color="#332b3c"/>
      <stop offset="1.0" stop-color="#07070a"/>
    </radialGradient>
    <linearGradient gradientTransform="matrix(-0.0012, 0.0288, -0.1539, -0.0069, -1.2, -58.55)" gradientUnits="userSpaceOnUse" id="gradient1" spreadMethod="pad" x1="-819.2" x2="819.2">
      <stop offset="0.0" stop-color="#704f3a"/>
      <stop offset="1.0" stop-color="#3a1b1b"/>
    </linearGradient>
    <radialGradient cx="0" cy="0" gradientTransform="matrix(0.0881, 0.0, 0.0, 0.0881, 84.4, -77.05)" gradientUnits="userSpaceOnUse" id="gradient2" r="819.2" spreadMethod="pad">
      <stop offset="0.0" stop-color="#ffffff"/>
      <stop offset="0.9921568627450981" stop-color="#fbe284"/>
    </radialGradient>
    <radialGradient cx="0" cy="0" gradientTransform="matrix(0.0558, 0.0, 0.0, 0.0558, -8.45, -36.95)" gradientUnits="userSpaceOnUse" id="gradient3" r="819.2" spreadMethod="pad">
      <stop offset="0.0" stop-color="#858f56"/>
      <stop offset="1.0" stop-color="#526240"/>
    </radialGradient>
    <radialGradient cx="0" cy="0" gradientTransform="matrix(0.0818, 0.0, 0.0, 0.0818, 63.45, 4.9)" gradientUnits="userSpaceOnUse" id="gradient4" r="819.2" spreadMethod="pad">
      <stop offset="0.0" stop-color="#3f5574"/>
      <stop offset="1.0" stop-color="#3c362b"/>
    </radialGradient>
    <radialGradient cx="0" cy="0" gradientTransform="matrix(0.0674, 0.0, 0.0, 0.0674, -6.35, -1.6)" gradientUnits="userSpaceOnUse" id="gradient5" r="819.2" spreadMethod="pad">
      <stop offset="0.08627450980392157" stop-color="#fce48b"/>
      <stop offset="0.4" stop-color="#f5bf45"/>
      <stop offset="1.0" stop-color="#8795b4"/>
    </radialGradient>
    <radialGradient cx="0" cy="0" gradientTransform="matrix(0.174, 0.0, 0.0, 0.174, 127.1, 65.95)" gradientUnits="userSpaceOnUse" id="gradient6" r="819.2" spreadMethod="pad">
      <stop offset="0.0" stop-color="#858f56"/>
      <stop offset="1.0" stop-color="#526240"/>
    </radialGradient>
    <radialGradient cx="0" cy="0" gradientTransform="matrix(0.0921, 0.0, 0.0, 0.0921, 36.9, 51.15)" gradientUnits="userSpaceOnUse" id="gradient7" r="819.2" spreadMethod="pad">
      <stop offset="0.0" stop-color="#ffffff"/>
      <stop offset="0.9921568627450981" stop-color="#fbe284"/>
    </radialGradient>
    <radialGradient cx="0" cy="0" gradientTransform="matrix(0.0323, 0.0, 0.0, 0.0323, 102.3, 71.2)" gradientUnits="userSpaceOnUse" id="gradient8" r="819.2" spreadMethod="pad">
      <stop offset="0.08627450980392157" stop-color="#fce48b"/>
      <stop offset="0.4" stop-color="#f5bf45"/>
      <stop offset="1.0" stop-color="#8795b4"/>
    </radialGradient>
    <radialGradient cx="0" cy="0" gradientTransform="matrix(0.0921, 0.0, 0.0, 0.0921, 36.9, 51.15)" gradientUnits="userSpaceOnUse" id="gradient9" r="819.2" spreadMethod="pad">
      <stop offset="0.0" stop-color="#ffffff"/>
      <stop offset="0.9882352941176471" stop-color="#f4b48a"/>
    </radialGradient>
    <radialGradient cx="0" cy="0" gradientTransform="matrix(0.0364, 0.0, 0.0, 0.0364, -38.65, -23.75)" gradientUnits="userSpaceOnUse" id="gradient10" r="819.2" spreadMethod="pad">
      <stop offset="0.0" stop-color="#fdfdac"/>
      <stop offset="0.9764705882352941" stop-color="#fed945"/>
    </radialGradient>
    <radialGradient cx="0" cy="0" gradientTransform="matrix(0.0131, 0.0, 0.0, 0.0131, -55.4, -2.65)" gradientUnits="userSpaceOnUse" id="gradient11" r="819.2" spreadMethod="pad">
      <stop offset="0.0" stop-color="#858f56"/>
      <stop offset="1.0" stop-color="#526240"/>
    </radialGradient>
    <radialGradient cx="0" cy="0" gradientTransform="matrix(0.0086, 0.0, 0.0, 0.0086, -46.45, 8.45)" gradientUnits="userSpaceOnUse" id="gradient12" r="819.2" spreadMethod="pad">
      <stop offset="0.0" stop-color="#858f56"/>
      <stop offset="1.0" stop-color="#526240"/>
    </radialGradient>
    <linearGradient gradientTransform="matrix(-2.0E-4, 0.0226, -0.0742, -7.0E-4, -66.6, -62.4)" gradientUnits="userSpaceOnUse" id="gradient13" spreadMethod="pad" x1="-819.2" x2="819.2">
      <stop offset="0.0" stop-color="#000000" stop-opacity="0.32156864"/>
      <stop offset="1.0" stop-color="#000000" stop-opacity="0.0"/>
    </linearGradient>
    <radialGradient cx="0" cy="0" gradientTransform="matrix(0.1825, 0.0, 0.0, 0.1825, -1.5, -1.1)" gradientUnits="userSpaceOnUse" id="gradient14" r="819.2" spreadMethod="pad">
      <stop offset="0.0" stop-color="#522203" stop-opacity="0.48235294"/>
      <stop offset="1.0" stop-color="#000000" stop-opacity="0.88235295"/>
    </radialGradient>
    <radialGradient cx="0" cy="0" gradientTransform="matrix(0.1825, 0.0, 0.0, 0.187, -1.5, 0.8)" gradientUnits="userSpaceOnUse" id="gradient15" r="819.2" spreadMethod="pad">
      <stop offset="0.0" stop-color="#000000" stop-opacity="0.16078432"/>
      <stop offset="1.0" stop-color="#000000" stop-opacity="0.88235295"/>
    </radialGradient>
    <radialGradient cx="0" cy="0" gradientTransform="matrix(0.1825, 0.0, 0.0, 0.187, -1.5, 0.8)" gradientUnits="userSpaceOnUse" id="gradient16" r="819.2" spreadMethod="pad">
      <stop offset="0.0" stop-color="#522203" stop-opacity="0.48235294"/>
      <stop offset="1.0" stop-color="#000000" stop-opacity="0.88235295"/>
    </radialGradient>
  </defs>
</svg>
