<?xml version="1.0" encoding="UTF-8" standalone="no"?>
<svg xmlns:ffdec="https://www.free-decompiler.com/flash" xmlns:xlink="http://www.w3.org/1999/xlink" ffdec:objectType="shape" height="646.4px" width="892.6px" xmlns="http://www.w3.org/2000/svg">
  <g transform="matrix(1.0, 0.0, 0.0, 1.0, 448.7, 329.45)">
    <path d="M-448.7 -329.45 L443.9 -329.45 443.9 316.95 -448.7 316.95 -448.7 -329.45" fill="#000000" fill-rule="evenodd" stroke="none"/>
    <path d="M34.65 -7.0 Q37.15 -8.8 40.85 -8.8 44.75 -8.8 48.1 -7.15 L46.6 -2.75 Q44.55 -4.4 41.2 -4.35 38.15 -4.4 38.15 -2.1 38.15 -1.1 39.2 -0.45 40.2 0.35 43.4 1.65 46.75 2.8 48.1 4.6 49.6 6.4 49.6 8.85 49.6 12.1 47.1 14.1 44.4 16.05 40.2 16.05 L36.15 15.55 Q34.6 15.2 32.25 14.1 L34.45 9.5 Q37.0 11.65 40.2 11.65 43.55 11.65 43.55 9.2 43.55 7.85 42.55 7.05 41.5 6.05 38.65 4.95 32.25 2.3 32.25 -2.25 32.25 -5.35 34.65 -7.0 M26.05 -5.7 Q29.25 -2.6 29.25 2.15 L28.75 5.25 11.2 5.25 Q11.35 8.2 13.25 9.65 15.05 11.3 18.1 11.3 22.15 11.3 24.2 9.35 L26.35 13.6 Q23.35 16.05 17.3 16.05 11.7 16.05 8.35 12.8 5.15 9.5 5.15 3.8 5.15 -1.8 8.7 -5.35 12.4 -8.8 17.45 -8.8 22.65 -8.8 26.05 -5.7 M74.7 -1.6 L77.1 -1.45 Q81.3 -1.45 83.15 -2.75 85.0 -4.25 85.0 -7.15 84.95 -12.25 76.55 -12.2 L74.7 -12.05 74.7 -1.6 M75.75 -17.45 Q83.8 -17.45 87.5 -15.0 91.05 -12.75 91.05 -7.65 91.05 3.6 77.4 3.6 L74.7 3.45 74.7 15.55 68.8 15.55 68.8 -17.15 75.75 -17.45 M108.25 -8.8 Q111.1 -8.8 112.8 -8.0 L110.25 -3.25 Q108.75 -4.25 106.9 -4.25 104.85 -4.25 103.35 -2.4 101.85 -0.65 101.85 2.0 L101.85 15.55 95.95 15.55 95.95 -8.3 101.85 -8.3 101.85 -6.2 Q104.2 -8.8 108.25 -8.8 M135.55 -5.7 Q138.75 -2.6 138.75 2.15 L138.2 5.25 120.7 5.25 Q120.85 8.2 122.7 9.65 124.55 11.3 127.6 11.3 131.65 11.3 133.65 9.35 L135.85 13.6 Q132.8 16.05 126.75 16.05 121.2 16.05 117.85 12.8 114.6 9.5 114.65 3.8 114.65 -1.8 118.2 -5.35 121.9 -8.8 126.95 -8.8 132.15 -8.8 135.55 -5.7 M150.7 -4.35 Q147.65 -4.4 147.65 -2.1 147.65 -1.1 148.65 -0.45 149.65 0.35 152.9 1.65 156.25 2.8 157.6 4.6 159.1 6.4 159.1 8.85 159.1 12.1 156.6 14.1 153.9 16.05 149.7 16.05 L145.65 15.55 Q144.1 15.2 141.75 14.1 L143.95 9.5 Q146.45 11.65 149.7 11.65 153.05 11.65 153.05 9.2 153.05 7.85 152.05 7.05 151.0 6.05 148.15 4.95 141.75 2.3 141.75 -2.25 141.75 -5.35 144.1 -7.0 146.65 -8.8 150.35 -8.8 154.2 -8.8 157.6 -7.15 L156.1 -2.75 Q154.05 -4.4 150.7 -4.35 M198.85 -3.4 Q197.35 -2.75 196.65 -1.75 L196.65 15.55 190.8 15.55 190.8 -8.3 195.0 -8.3 196.0 -6.2 Q198.35 -8.8 203.05 -8.8 207.45 -8.8 210.0 -6.2 212.5 -3.75 212.5 0.85 L212.5 15.55 206.8 15.55 206.8 1.65 Q206.8 -1.3 205.6 -2.75 204.25 -4.25 201.55 -4.25 200.35 -4.25 198.85 -3.4 M183.05 -5.7 Q186.25 -2.6 186.25 2.15 L185.7 5.25 168.2 5.25 Q168.35 8.2 170.25 9.65 172.05 11.3 175.1 11.3 179.15 11.3 181.2 9.35 L183.35 13.6 Q180.3 16.05 174.25 16.05 168.7 16.05 165.35 12.8 162.1 9.5 162.15 3.8 162.15 -1.8 165.7 -5.35 169.4 -8.8 174.45 -8.8 179.65 -8.8 183.05 -5.7 M219.6 -8.3 L219.6 -13.2 225.3 -15.35 225.3 -8.3 232.05 -8.3 232.05 -3.9 225.3 -3.9 225.3 6.55 Q225.3 9.15 226.15 10.15 227.0 11.3 229.0 11.3 231.0 11.3 232.9 10.15 L232.9 15.4 227.15 16.05 Q223.45 16.05 221.45 13.95 219.55 11.95 219.6 8.2 L219.6 -3.9 216.7 -3.9 216.7 -8.3 219.6 -8.3 M180.5 1.15 Q179.8 -4.25 174.45 -4.25 169.55 -4.25 168.35 1.15 L180.5 1.15 M133.0 1.15 Q132.3 -4.25 126.95 -4.25 122.05 -4.25 120.85 1.15 L133.0 1.15 M23.5 1.15 Q22.8 -4.25 17.45 -4.25 12.55 -4.25 11.4 1.15 L23.5 1.15 M0.45 15.55 L-5.3 15.55 -5.3 0.5 Q-5.3 -4.25 -9.65 -4.25 -11.0 -4.25 -12.2 -3.4 -13.4 -2.75 -13.9 -1.75 L-13.9 15.55 -19.6 15.55 -19.6 -0.3 Q-19.6 -2.1 -20.6 -3.05 -21.8 -4.25 -23.8 -4.25 -25.0 -4.25 -26.2 -3.4 -27.55 -2.6 -28.05 -1.6 L-28.05 15.55 -33.95 15.55 -33.95 -8.3 -29.9 -8.3 -28.7 -6.35 Q-26.35 -8.8 -22.5 -8.8 -17.6 -8.8 -15.05 -6.2 -14.05 -7.5 -12.05 -8.15 -10.2 -8.8 -8.35 -8.8 -4.15 -8.8 -1.75 -6.5 0.4 -4.25 0.45 -0.3 L0.45 15.55 M-215.0 -17.6 L-201.35 15.55 -208.1 15.55 -210.45 8.85 -222.1 8.85 -224.45 15.55 -231.0 15.55 -217.55 -17.6 -215.0 -17.6 M-186.05 -8.8 Q-183.2 -8.8 -181.5 -8.0 L-184.0 -3.25 Q-185.55 -4.25 -187.4 -4.25 -189.4 -4.25 -190.9 -2.4 -192.45 -0.65 -192.45 2.0 L-192.45 15.55 -198.35 15.55 -198.35 -8.3 -192.45 -8.3 -192.45 -6.2 Q-190.1 -8.8 -186.05 -8.8 M-170.35 -3.4 Q-171.7 -2.6 -172.2 -1.6 L-172.2 15.55 -178.1 15.55 -178.1 -8.3 -174.1 -8.3 -172.9 -6.35 Q-170.55 -8.8 -166.65 -8.8 -161.8 -8.8 -159.25 -6.2 -158.25 -7.5 -156.2 -8.15 L-152.5 -8.8 Q-148.3 -8.8 -145.95 -6.5 -143.75 -4.25 -143.75 -0.3 L-143.75 15.55 -149.5 15.55 -149.5 0.5 Q-149.5 -4.25 -153.85 -4.25 -155.2 -4.25 -156.4 -3.4 -157.55 -2.75 -158.05 -1.75 L-158.05 15.55 -163.8 15.55 -163.8 -0.3 Q-163.8 -2.1 -164.8 -3.05 -166.0 -4.25 -168.0 -4.25 -169.2 -4.25 -170.35 -3.4 M-131.45 -2.25 Q-133.15 -0.15 -133.15 3.45 -133.15 11.45 -127.25 11.5 -124.55 11.45 -122.85 9.35 -121.35 7.4 -121.35 3.45 -121.35 -4.25 -127.25 -4.25 -129.95 -4.25 -131.45 -2.25 M-127.25 -8.8 Q-121.55 -8.8 -118.5 -5.55 -115.3 -2.3 -115.3 3.45 -115.3 9.2 -118.5 12.65 -121.7 16.05 -127.25 16.05 -132.8 16.05 -136.0 12.65 -139.05 9.2 -139.05 3.45 -139.05 -1.95 -135.85 -5.35 -132.5 -8.8 -127.25 -8.8 M-105.0 -8.3 L-105.0 -6.2 Q-102.65 -8.8 -98.6 -8.8 -95.75 -8.8 -94.05 -8.0 L-96.6 -3.25 Q-98.1 -4.25 -99.95 -4.25 -102.0 -4.25 -103.5 -2.4 -105.0 -0.65 -105.0 2.0 L-105.0 15.55 -110.9 15.55 -110.9 -8.3 -105.0 -8.3 M-87.35 -13.05 Q-82.65 -17.8 -74.85 -17.8 -69.3 -17.8 -65.45 -14.5 L-67.8 -9.75 Q-69.0 -10.75 -71.15 -11.75 -73.35 -12.55 -74.85 -12.55 -79.95 -12.55 -82.8 -9.3 -85.65 -6.0 -85.65 -0.45 -85.65 4.75 -82.8 7.9 -80.1 11.0 -75.2 11.0 -72.0 10.95 -69.8 9.2 L-69.8 2.8 -74.5 2.8 -74.5 -2.1 -63.9 -2.1 -63.9 12.45 Q-66.1 14.25 -69.45 15.25 -72.85 16.05 -76.2 16.05 -83.45 16.05 -87.65 11.5 -91.9 6.9 -91.85 -0.6 -91.9 -8.3 -87.35 -13.05 M-56.85 -3.05 L-58.0 -7.5 Q-55.0 -8.8 -50.95 -8.8 -45.2 -8.8 -42.7 -6.35 -40.0 -3.9 -40.0 3.15 L-40.0 8.2 Q-40.0 12.95 -38.15 14.25 -38.85 15.4 -39.65 15.75 L-41.7 16.05 Q-42.85 16.05 -43.85 15.05 -44.9 14.25 -45.2 13.1 -46.05 14.4 -47.9 15.25 -49.95 16.05 -51.95 16.05 -56.0 16.05 -58.35 14.1 -60.55 12.1 -60.55 8.55 -60.55 4.45 -57.35 2.15 -54.15 -0.3 -48.25 -0.3 L-45.9 0.05 Q-45.9 -4.25 -51.3 -4.25 -54.65 -4.25 -56.85 -3.05 M-47.9 3.95 Q-54.85 3.95 -54.8 8.35 -54.8 11.6 -50.95 11.65 -45.75 11.6 -45.7 6.55 L-45.7 4.3 -47.9 3.95 M-212.3 4.45 L-216.35 -7.65 -220.4 4.45 -212.3 4.45" fill="#ffffff" fill-rule="evenodd" stroke="none"/>
  </g>
</svg>
