<?xml version="1.0" encoding="UTF-8" standalone="no"?>
<svg xmlns:ffdec="https://www.free-decompiler.com/flash" xmlns:xlink="http://www.w3.org/1999/xlink" ffdec:objectType="shape" height="655.45px" width="892.6px" xmlns="http://www.w3.org/2000/svg">
  <g transform="matrix(1.0, 0.0, 0.0, 1.0, 439.75, 335.4)">
    <path d="M452.85 320.05 L-439.75 320.05 -439.75 -335.4 452.85 -335.4 452.85 320.05" fill="#000000" fill-rule="evenodd" stroke="none"/>
    <path d="M147.25 -190.05 Q148.3 -189.05 148.3 -187.5 148.3 -186.0 147.25 -184.9 146.2 -183.9 144.75 -183.85 143.25 -183.9 142.25 -184.9 141.15 -186.0 141.2 -187.5 141.15 -189.05 142.25 -190.05 143.25 -191.1 144.75 -191.1 146.2 -191.1 147.25 -190.05 M121.7 -176.0 Q120.3 -176.0 118.8 -175.2 117.3 -174.4 116.45 -173.25 L116.45 -153.85 110.25 -153.85 110.25 -180.75 114.7 -180.75 115.8 -178.2 Q118.3 -181.2 123.2 -181.2 127.9 -181.25 130.65 -178.35 133.3 -175.5 133.3 -170.35 L133.3 -153.85 127.2 -153.85 127.2 -169.4 Q127.2 -172.85 125.9 -174.4 124.6 -176.0 121.7 -176.0 M138.25 -180.75 L147.8 -180.75 147.8 -153.85 141.6 -153.85 141.6 -175.6 138.25 -175.6 138.25 -180.75 M153.3 -167.05 Q153.25 -173.4 157.1 -177.35 160.95 -181.25 167.6 -181.2 172.2 -181.2 175.6 -178.6 L172.95 -173.9 Q170.8 -176.0 167.15 -176.0 163.65 -176.0 161.65 -173.6 159.65 -171.25 159.65 -167.05 159.65 -158.65 167.5 -158.65 170.9 -158.65 173.55 -160.95 L175.8 -155.95 Q173.1 -154.3 171.15 -153.85 L166.4 -153.4 Q160.3 -153.4 156.8 -156.95 153.25 -160.65 153.3 -167.05 M100.9 -178.4 Q103.65 -175.65 103.65 -167.8 L103.65 -162.1 Q103.65 -156.75 105.8 -155.35 105.05 -154.0 104.1 -153.65 L101.95 -153.4 Q100.6 -153.4 99.6 -154.35 98.5 -155.4 98.15 -156.6 97.3 -155.15 95.25 -154.25 93.15 -153.4 90.95 -153.4 86.7 -153.4 84.25 -155.55 81.8 -157.75 81.85 -161.7 81.8 -166.35 85.25 -169.0 88.65 -171.65 94.95 -171.6 L97.5 -171.2 Q97.5 -176.0 91.65 -176.0 88.2 -176.0 85.85 -174.8 L84.55 -179.7 Q87.7 -181.25 92.05 -181.2 98.05 -181.2 100.9 -178.4 M97.6 -166.5 L95.2 -166.8 Q87.9 -166.85 87.95 -162.0 87.95 -158.4 92.05 -158.35 97.6 -158.4 97.6 -164.0 L97.6 -166.5 M62.2 -175.05 Q60.65 -174.25 60.0 -173.15 L60.0 -153.85 53.75 -153.85 53.75 -190.7 60.0 -192.25 60.0 -179.05 Q62.35 -181.25 66.5 -181.2 71.45 -181.2 74.2 -178.4 76.9 -175.65 76.9 -170.4 L76.9 -153.85 70.75 -153.85 70.75 -170.4 Q70.75 -172.9 69.25 -174.4 67.7 -175.9 65.25 -175.9 63.75 -175.9 62.2 -175.05 M44.75 -157.3 Q41.2 -153.4 35.1 -153.4 31.45 -153.4 28.8 -155.35 L27.5 -153.4 24.0 -153.4 24.0 -190.7 30.15 -192.25 30.15 -179.7 Q32.6 -181.25 35.45 -181.2 41.25 -181.25 44.8 -177.5 48.35 -173.8 48.35 -167.95 48.3 -161.2 44.75 -157.3 M30.15 -174.3 L30.15 -160.35 Q31.5 -158.7 33.75 -158.65 38.2 -158.65 40.1 -160.85 41.95 -163.0 41.95 -167.75 41.95 -175.9 34.25 -175.9 31.55 -175.9 30.15 -174.3 M16.1 -182.8 L20.35 -178.85 17.45 -176.65 Q18.95 -174.3 18.95 -171.1 18.9 -166.5 16.2 -163.75 13.5 -161.05 9.3 -161.0 L7.55 -161.15 6.55 -161.3 5.25 -160.75 Q4.05 -160.2 4.1 -159.65 4.05 -158.65 5.75 -158.65 L8.3 -159.0 11.4 -159.35 Q20.35 -159.35 20.35 -152.05 20.3 -148.0 16.75 -145.65 13.15 -143.4 8.15 -143.35 2.1 -143.4 -2.8 -147.0 L1.1 -151.85 Q4.3 -148.85 8.3 -148.85 10.9 -148.85 12.6 -149.65 14.35 -150.5 14.35 -151.85 14.35 -154.25 10.55 -154.25 L7.45 -154.0 4.4 -153.75 Q-1.95 -153.75 -1.95 -158.35 -1.95 -159.75 -0.9 -161.0 0.2 -162.3 1.6 -162.85 -2.95 -165.9 -2.95 -171.3 -2.95 -175.65 0.2 -178.4 3.25 -181.25 7.8 -181.25 11.3 -181.25 13.7 -179.9 L16.1 -182.8 M8.1 -176.15 Q6.0 -176.15 4.65 -174.8 3.35 -173.4 3.35 -171.3 3.35 -168.95 4.65 -167.5 5.9 -166.05 8.1 -166.05 10.25 -166.05 11.5 -167.45 12.65 -168.85 12.65 -171.3 12.65 -173.35 11.4 -174.7 10.1 -176.15 8.1 -176.15 M12.15 -109.75 L12.15 -71.4 6.05 -71.4 6.05 -73.0 Q5.25 -72.2 3.45 -71.55 1.6 -70.95 -0.3 -70.9 -5.8 -70.95 -8.9 -74.45 -12.1 -78.05 -12.1 -84.4 -12.1 -90.75 -8.45 -94.7 -4.85 -98.75 0.6 -98.75 3.55 -98.75 6.05 -97.5 L6.05 -108.25 12.15 -109.75 M79.65 -97.75 L77.0 -92.4 Q75.4 -93.5 73.45 -93.5 71.3 -93.5 69.65 -91.55 67.95 -89.55 68.0 -86.7 L68.0 -71.4 61.8 -71.4 61.8 -98.25 68.0 -98.25 68.0 -95.75 Q70.5 -98.75 74.8 -98.75 77.95 -98.75 79.65 -97.75 M53.7 -95.05 Q57.0 -91.35 57.0 -84.85 56.95 -78.45 53.65 -74.65 50.25 -70.95 44.4 -70.9 38.4 -70.95 35.05 -74.7 31.75 -78.55 31.75 -84.85 31.75 -91.0 35.25 -94.9 38.65 -98.75 44.4 -98.75 50.4 -98.75 53.7 -95.05 M44.4 -93.65 Q41.5 -93.65 39.85 -91.3 38.15 -89.0 38.15 -84.85 38.15 -76.05 44.4 -76.0 47.25 -76.05 48.95 -78.35 50.6 -80.65 50.6 -84.85 50.6 -93.65 44.4 -93.65 M1.95 -93.4 Q-1.75 -93.4 -3.75 -91.15 -5.7 -88.85 -5.7 -84.55 -5.7 -76.2 2.2 -76.2 3.05 -76.2 4.35 -76.7 5.6 -77.3 6.05 -77.8 L6.05 -91.85 Q4.05 -93.4 1.95 -93.4 M33.35 -25.7 L39.45 -27.25 39.45 11.1 33.35 11.1 33.35 9.5 Q32.55 10.3 30.75 11.0 28.9 11.6 27.0 11.6 21.5 11.6 18.35 8.05 15.2 4.5 15.2 -1.85 15.2 -8.25 18.8 -12.2 22.4 -16.25 27.9 -16.2 30.85 -16.2 33.35 -15.0 L33.35 -25.7 M29.2 -10.9 Q25.55 -10.9 23.55 -8.65 21.55 -6.35 21.6 -2.05 21.55 6.3 29.5 6.3 L31.65 5.8 33.35 4.7 33.35 -9.35 Q31.35 -10.9 29.2 -10.9 M47.8 -12.3 Q51.6 -16.2 57.0 -16.2 62.7 -16.25 66.2 -12.75 69.6 -9.25 69.65 -3.9 L69.15 -0.4 50.35 -0.4 Q50.5 2.8 52.55 4.6 54.5 6.35 57.85 6.35 62.05 6.35 64.25 4.15 L66.6 8.95 Q63.35 11.6 56.95 11.6 50.9 11.55 47.45 8.0 43.95 4.4 43.95 -2.0 43.95 -8.4 47.8 -12.3 M50.55 -5.1 L63.45 -5.1 Q62.85 -11.0 57.1 -11.0 51.85 -11.0 50.55 -5.1 M78.95 -15.75 L80.1 -13.2 Q82.55 -16.25 87.5 -16.2 92.15 -16.25 94.9 -13.35 97.6 -10.5 97.6 -5.35 L97.6 11.1 91.45 11.1 91.45 -4.4 Q91.45 -7.85 90.2 -9.4 88.9 -11.0 86.0 -11.0 84.6 -11.0 83.1 -10.2 81.55 -9.45 80.7 -8.3 L80.7 11.1 74.55 11.1 74.55 -15.75 78.95 -15.75 M101.15 -97.75 L98.55 -92.4 Q96.9 -93.5 94.95 -93.5 92.8 -93.5 91.15 -91.55 89.5 -89.55 89.5 -86.7 L89.5 -71.4 83.35 -71.4 83.35 -98.25 89.5 -98.25 89.5 -95.75 Q92.05 -98.75 96.35 -98.75 99.45 -98.75 101.15 -97.75 M119.85 -9.4 Q118.55 -11.0 115.65 -11.0 114.25 -11.0 112.75 -10.2 111.2 -9.45 110.35 -8.3 L110.35 11.1 104.2 11.1 104.2 -15.75 108.6 -15.75 109.75 -13.2 Q112.2 -16.25 117.15 -16.2 121.8 -16.25 124.55 -13.35 127.25 -10.5 127.25 -5.35 L127.25 11.1 121.1 11.1 121.1 -4.4 Q121.1 -7.85 119.85 -9.4 M138.65 -26.1 Q140.1 -26.1 141.15 -25.05 142.2 -24.05 142.2 -22.5 142.2 -21.0 141.15 -19.9 140.1 -18.9 138.65 -18.9 137.15 -18.9 136.15 -19.9 135.05 -21.0 135.05 -22.5 135.05 -24.05 136.15 -25.05 137.15 -26.1 138.65 -26.1 M132.1 -10.6 L132.1 -15.75 141.65 -15.75 141.65 11.1 135.45 11.1 135.45 -10.6 132.1 -10.6 M159.15 -4.55 Q162.6 -3.2 164.15 -1.2 165.65 0.75 165.65 3.6 165.65 7.3 162.95 9.5 160.25 11.6 155.55 11.6 L151.35 11.2 Q149.75 10.7 147.3 9.35 L149.5 4.4 Q152.2 6.6 155.7 6.65 159.25 6.6 159.25 4.0 159.25 2.5 158.2 1.55 157.1 0.5 154.0 -0.8 147.2 -3.65 147.2 -8.85 147.2 -12.35 149.8 -14.25 152.35 -16.25 156.45 -16.2 160.55 -16.2 164.15 -14.35 L162.4 -9.5 Q160.35 -11.25 156.8 -11.25 153.6 -11.25 153.6 -8.65 153.55 -7.65 154.6 -6.8 155.7 -6.0 159.15 -4.55 M203.85 -153.85 L197.65 -153.85 197.65 -170.4 Q197.65 -172.9 196.15 -174.4 194.6 -175.9 192.15 -175.9 190.65 -175.9 189.1 -175.05 187.55 -174.25 186.9 -173.15 L186.9 -153.85 180.65 -153.85 180.65 -190.7 186.9 -192.25 186.9 -179.05 Q189.25 -181.25 193.4 -181.2 198.35 -181.2 201.1 -178.4 203.8 -175.65 203.85 -170.4 L203.85 -153.85 M167.3 72.25 Q165.75 73.05 164.95 74.2 L164.95 93.6 158.75 93.6 158.75 66.75 163.2 66.75 164.3 69.25 Q166.8 66.25 171.7 66.25 176.4 66.25 179.15 69.15 181.1 71.25 181.65 74.6 L181.8 77.1 181.8 93.6 175.7 93.6 175.7 78.05 Q175.7 76.0 175.25 74.6 L174.4 73.05 Q173.1 71.5 170.2 71.5 168.8 71.45 167.3 72.25 M169.3 175.9 Q165.9 178.6 159.15 178.6 152.85 178.55 149.2 174.95 145.5 171.35 145.5 164.9 145.5 158.55 149.55 154.6 153.55 150.65 159.2 150.65 165.2 150.65 168.8 154.15 172.45 157.65 172.5 163.05 L171.95 166.55 152.25 166.55 Q152.45 169.75 154.55 171.55 156.6 173.3 160.1 173.3 164.5 173.3 166.8 171.1 L169.3 175.9 M108.55 55.25 L108.55 77.05 117.3 66.75 124.65 66.75 115.75 76.95 126.5 93.6 119.2 93.6 111.5 81.45 108.55 84.6 108.55 93.6 102.35 93.6 102.35 56.75 108.55 55.25 M93.1 69.15 Q95.1 71.25 95.65 74.6 L95.8 77.1 95.8 93.6 89.7 93.6 89.7 78.05 Q89.65 76.0 89.2 74.6 L88.4 73.05 Q87.1 71.5 84.2 71.5 82.8 71.45 81.3 72.25 79.75 73.05 78.9 74.2 L78.9 93.6 72.75 93.6 72.75 66.75 77.2 66.75 78.3 69.25 Q80.8 66.25 85.7 66.25 90.4 66.25 93.1 69.15 M141.2 66.25 Q146.9 66.25 150.35 69.75 152.4 71.8 153.25 74.6 153.8 76.45 153.8 78.6 L153.3 82.1 134.5 82.1 Q134.7 85.3 136.7 87.1 138.65 88.8 142.0 88.85 146.2 88.8 148.4 86.6 L150.8 91.4 Q147.55 94.05 141.15 94.05 135.1 94.05 131.6 90.5 128.1 86.85 128.15 80.45 128.15 77.2 129.15 74.6 130.1 72.1 132.0 70.2 135.8 66.25 141.2 66.25 M134.75 77.35 L147.65 77.35 Q147.5 75.75 146.95 74.6 145.45 71.45 141.25 71.5 137.45 71.45 135.75 74.6 135.1 75.75 134.75 77.35 M30.65 69.2 Q33.2 66.25 37.5 66.25 40.6 66.25 42.3 67.2 L39.65 72.6 Q38.05 71.5 36.1 71.5 33.95 71.45 32.3 73.45 L31.5 74.6 Q30.65 76.2 30.65 78.3 L30.65 93.6 24.5 93.6 24.5 66.75 30.65 66.75 30.65 69.2 M6.6 94.05 L-5.25 66.75 1.45 66.75 7.75 83.15 14.5 66.75 21.0 66.75 8.8 94.05 6.6 94.05 M47.05 67.8 Q50.2 66.25 54.55 66.25 60.55 66.25 63.4 69.05 65.15 70.8 65.8 74.6 66.15 76.8 66.15 79.65 L66.15 85.35 Q66.15 90.7 68.3 92.1 67.5 93.45 66.6 93.8 L64.45 94.05 Q63.1 94.05 62.1 93.1 61.0 92.1 60.65 90.9 59.8 92.3 57.75 93.2 55.65 94.05 53.4 94.05 49.15 94.05 46.75 91.95 44.3 89.75 44.3 85.8 44.3 81.1 47.75 78.45 51.15 75.85 57.45 75.85 L60.0 76.25 59.8 74.6 Q58.85 71.45 54.15 71.5 50.7 71.45 48.35 72.65 L47.05 67.8 M57.7 80.65 Q50.4 80.65 50.45 85.5 50.4 89.1 54.55 89.1 60.05 89.1 60.1 83.5 L60.1 80.95 57.7 80.65 M11.85 139.6 L11.85 161.5 21.05 151.15 28.75 151.15 19.45 161.35 30.7 178.05 23.0 178.05 14.95 165.9 11.85 169.1 11.85 178.05 5.4 178.05 5.4 141.15 11.85 139.6 M40.05 153.7 Q42.7 150.6 47.8 150.65 52.7 150.65 55.55 153.55 58.4 156.4 58.45 161.55 L58.45 178.05 52.0 178.05 52.0 162.5 Q52.0 159.05 50.65 157.5 49.25 155.9 46.25 155.9 44.8 155.9 43.2 156.7 41.55 157.5 40.7 158.65 L40.7 178.05 34.25 178.05 34.25 151.15 38.85 151.15 40.05 153.7 M67.2 154.55 Q70.85 150.65 76.8 150.65 83.1 150.65 86.6 154.4 90.05 158.1 90.05 164.55 90.05 171.0 86.5 174.8 82.95 178.55 76.8 178.6 70.55 178.6 67.1 174.75 63.55 170.9 63.55 164.55 63.55 158.4 67.2 154.55 M70.25 164.55 Q70.25 173.45 76.8 173.45 79.85 173.45 81.6 171.15 83.4 168.8 83.4 164.55 83.35 155.8 76.8 155.8 73.8 155.8 72.05 158.1 70.25 160.4 70.25 164.55 M102.65 143.35 L102.65 151.15 110.2 151.15 110.2 156.25 102.65 156.25 102.65 168.0 Q102.65 170.85 103.55 172.1 104.45 173.25 106.8 173.25 109.1 173.25 111.1 172.05 L111.1 177.8 Q108.85 178.6 104.75 178.6 100.6 178.55 98.4 176.3 96.2 174.0 96.2 169.85 L96.2 156.25 93.0 156.25 93.0 151.15 96.2 151.15 96.2 145.7 102.65 143.35 M152.45 161.8 L166.0 161.8 Q165.35 155.9 159.3 155.9 153.8 155.9 152.45 161.8 M124.95 156.85 Q123.35 157.65 122.65 158.75 L122.65 178.05 116.1 178.05 116.1 141.15 122.65 139.6 122.65 152.85 Q125.1 150.65 129.5 150.65 134.7 150.65 137.55 153.5 140.4 156.25 140.4 161.5 L140.4 178.05 133.95 178.05 133.95 161.5 Q133.95 159.0 132.35 157.5 130.75 156.0 128.2 156.0 126.55 156.0 124.95 156.85 M-162.7 -190.05 Q-161.75 -191.1 -160.35 -191.1 L-160.2 -191.1 Q-158.75 -191.1 -157.7 -190.05 -156.65 -189.05 -156.65 -187.5 -156.65 -186.0 -157.7 -184.9 -158.75 -183.9 -160.2 -183.85 L-160.35 -183.85 Q-161.75 -183.9 -162.7 -184.9 -163.8 -186.0 -163.8 -187.5 -163.8 -189.05 -162.7 -190.05 M-178.8 -174.0 Q-180.45 -172.05 -180.45 -169.2 L-180.45 -153.85 -186.6 -153.85 -186.6 -180.75 -180.45 -180.75 -180.45 -178.25 Q-177.9 -181.2 -173.6 -181.2 -170.5 -181.2 -168.8 -180.25 L-171.4 -174.9 Q-173.05 -176.0 -175.0 -176.0 -177.15 -176.0 -178.8 -174.0 M-166.75 -180.75 L-157.2 -180.75 -157.2 -153.85 -163.4 -153.85 -163.4 -175.6 -166.75 -175.6 -166.75 -180.75 M-191.8 -180.75 L-200.65 -170.55 -189.95 -153.85 -197.25 -153.85 -204.95 -166.05 -207.9 -162.85 -207.9 -153.85 -214.05 -153.85 -214.05 -190.7 -207.9 -192.25 -207.9 -170.4 -199.15 -180.75 -191.8 -180.75 M-165.5 -16.2 Q-162.55 -16.25 -160.35 -15.55 -158.1 -14.85 -156.65 -13.45 -153.9 -10.65 -153.85 -2.85 L-153.85 2.9 Q-153.9 8.25 -151.75 9.65 -152.5 11.0 -153.45 11.35 L-155.55 11.6 Q-156.9 11.6 -157.95 10.65 -159.0 9.6 -159.35 8.4 L-160.35 9.55 -162.25 10.7 Q-164.4 11.55 -166.6 11.6 -170.85 11.6 -173.3 9.45 -175.75 7.25 -175.7 3.3 -175.7 -1.35 -172.25 -4.0 -168.9 -6.65 -162.6 -6.65 L-160.35 -6.3 -160.05 -6.25 Q-160.05 -7.35 -160.35 -8.15 -161.4 -11.0 -165.9 -11.0 -169.35 -11.0 -171.7 -9.8 L-173.0 -14.7 Q-169.85 -16.25 -165.5 -16.2 M-10.1 -178.35 Q-7.4 -175.5 -7.4 -170.35 L-7.4 -153.85 -13.5 -153.85 -13.5 -169.4 Q-13.55 -172.85 -14.8 -174.4 -16.1 -176.0 -19.0 -176.0 -20.4 -176.0 -21.9 -175.2 -23.45 -174.4 -24.3 -173.25 L-24.3 -153.85 -30.45 -153.85 -30.45 -180.75 -26.0 -180.75 -24.9 -178.2 Q-22.4 -181.2 -17.5 -181.2 -12.8 -181.25 -10.1 -178.35 M-38.75 -153.4 Q-40.1 -153.4 -41.1 -154.35 -42.2 -155.4 -42.55 -156.6 -43.4 -155.15 -45.45 -154.25 -47.55 -153.4 -49.8 -153.4 -54.05 -153.4 -56.5 -155.55 -58.9 -157.75 -58.9 -161.7 -58.9 -166.35 -55.45 -169.0 -52.05 -171.65 -45.75 -171.6 L-43.2 -171.2 Q-43.2 -176.0 -49.05 -176.0 -52.5 -176.0 -54.85 -174.8 L-56.15 -179.7 Q-53.0 -181.25 -48.65 -181.2 -42.65 -181.2 -39.8 -178.4 -37.05 -175.65 -37.05 -167.8 L-37.05 -162.1 Q-37.05 -156.75 -34.9 -155.35 -35.7 -154.0 -36.6 -153.65 L-38.75 -153.4 M-63.7 -180.75 L-63.7 -153.85 -69.85 -153.85 -69.85 -156.1 Q-71.15 -155.0 -73.45 -154.2 -75.75 -153.4 -77.65 -153.4 -86.8 -153.4 -86.8 -163.3 L-86.8 -180.75 -80.65 -180.75 -80.65 -163.75 Q-80.65 -158.65 -76.15 -158.65 -74.05 -158.65 -72.25 -159.7 -70.45 -160.8 -69.85 -162.3 L-69.85 -180.75 -63.7 -180.75 M-43.1 -166.5 L-45.5 -166.8 Q-52.8 -166.85 -52.75 -162.0 -52.8 -158.4 -48.65 -158.35 -43.15 -158.4 -43.1 -164.0 L-43.1 -166.5 M-18.6 -107.6 Q-17.55 -106.55 -17.55 -105.0 -17.55 -103.55 -18.6 -102.45 -19.65 -101.4 -21.1 -101.4 -22.6 -101.4 -23.6 -102.45 -24.7 -103.55 -24.7 -105.0 -24.7 -106.55 -23.6 -107.6 -22.6 -108.65 -21.1 -108.65 -19.65 -108.65 -18.6 -107.6 M-101.2 -187.5 Q-101.25 -189.05 -100.15 -190.05 -99.15 -191.1 -97.65 -191.1 -96.2 -191.1 -95.1 -190.05 -94.1 -189.05 -94.1 -187.5 -94.1 -186.0 -95.1 -184.9 -96.2 -183.9 -97.65 -183.85 -99.15 -183.9 -100.15 -184.9 -101.25 -186.0 -101.2 -187.5 M-105.25 -180.75 L-94.4 -180.75 -94.4 -154.5 Q-94.4 -148.75 -97.9 -146.05 -101.5 -143.4 -108.9 -143.35 L-108.9 -148.95 Q-104.0 -148.95 -102.25 -150.15 -100.55 -151.3 -100.5 -154.4 L-100.5 -175.55 -105.25 -175.55 -105.25 -180.75 M-141.45 -175.2 Q-143.0 -174.4 -143.85 -173.25 L-143.85 -153.85 -150.0 -153.85 -150.0 -180.75 -145.55 -180.75 -144.45 -178.2 Q-141.95 -181.2 -137.05 -181.2 -132.35 -181.25 -129.65 -178.35 -126.95 -175.5 -126.95 -170.35 L-126.95 -153.85 -133.05 -153.85 -133.05 -169.4 Q-133.1 -172.85 -134.35 -174.4 -135.65 -176.0 -138.55 -176.0 -139.95 -176.0 -141.45 -175.2 M-85.45 -109.75 L-85.45 -71.4 -91.6 -71.4 -91.6 -73.0 Q-92.35 -72.2 -94.15 -71.55 -96.0 -70.95 -97.9 -70.9 -103.4 -70.95 -106.55 -74.45 -109.7 -78.05 -109.7 -84.4 -109.7 -90.75 -106.1 -94.7 -102.5 -98.75 -97.05 -98.75 -94.05 -98.75 -91.6 -97.5 L-91.6 -108.25 -85.45 -109.75 M-95.7 -93.4 Q-99.35 -93.4 -101.35 -91.15 -103.35 -88.85 -103.3 -84.55 -103.35 -76.2 -95.4 -76.2 -94.55 -76.2 -93.25 -76.7 L-91.6 -77.8 -91.6 -91.85 Q-93.55 -93.4 -95.7 -93.4 M-142.9 -15.75 L-141.75 -13.2 Q-139.3 -16.25 -134.35 -16.2 -129.7 -16.25 -126.95 -13.35 -124.25 -10.5 -124.25 -5.35 L-124.25 11.1 -130.4 11.1 -130.4 -4.4 Q-130.4 -7.85 -131.7 -9.4 -133.0 -11.0 -135.9 -11.0 -137.3 -11.0 -138.8 -10.2 -140.3 -9.45 -141.15 -8.3 L-141.15 11.1 -147.3 11.1 -147.3 -15.75 -142.9 -15.75 M-160.35 -1.6 L-162.3 -1.85 Q-169.6 -1.85 -169.6 3.0 -169.6 6.6 -165.5 6.65 -161.45 6.6 -160.35 3.6 -159.95 2.5 -159.95 1.0 L-159.95 -1.55 -160.35 -1.6 M-94.6 -27.25 L-94.6 11.1 -100.75 11.1 -100.75 9.5 Q-101.5 10.3 -103.3 11.0 -105.15 11.6 -107.05 11.6 -112.55 11.6 -115.7 8.05 -118.85 4.5 -118.85 -1.85 -118.85 -8.25 -115.25 -12.2 -111.65 -16.25 -106.2 -16.2 -103.2 -16.2 -100.75 -15.0 L-100.75 -25.7 -94.6 -27.25 M-110.5 -8.65 Q-112.5 -6.35 -112.5 -2.05 -112.5 6.3 -104.55 6.3 L-102.45 5.8 -100.75 4.7 -100.75 -9.35 Q-102.7 -10.9 -104.85 -10.9 -108.5 -10.9 -110.5 -8.65 M-82.25 -15.75 L-82.25 -13.25 Q-79.7 -16.25 -75.4 -16.2 -72.3 -16.25 -70.6 -15.25 L-73.2 -9.9 Q-74.85 -11.0 -76.8 -11.0 -78.95 -11.0 -80.6 -9.0 -82.25 -7.05 -82.25 -4.2 L-82.25 11.1 -88.4 11.1 -88.4 -15.75 -82.25 -15.75 M-29.4 -98.25 L-41.6 -70.9 -43.8 -70.9 -55.65 -98.25 -48.95 -98.25 -42.7 -81.85 -35.95 -98.25 -29.4 -98.25 M-27.65 -98.25 L-18.05 -98.25 -18.05 -71.4 -24.3 -71.4 -24.3 -93.1 -27.65 -93.1 -27.65 -98.25 M-59.1 -79.65 Q-59.1 -74.3 -56.95 -72.9 -57.75 -71.55 -58.65 -71.2 L-60.8 -70.9 Q-62.15 -70.95 -63.2 -71.9 -64.25 -72.9 -64.6 -74.1 -65.45 -72.7 -67.5 -71.8 -69.6 -70.95 -71.85 -70.9 -76.1 -70.95 -78.55 -73.05 -80.95 -75.25 -80.95 -79.2 -80.95 -83.9 -77.5 -86.55 -74.15 -89.15 -67.8 -89.15 L-65.25 -88.75 Q-65.25 -93.55 -71.1 -93.5 -74.55 -93.55 -76.95 -92.35 L-78.25 -97.2 Q-75.05 -98.75 -70.7 -98.75 -64.7 -98.75 -61.9 -95.95 -59.15 -93.15 -59.1 -85.35 L-59.1 -79.65 M-65.2 -84.05 L-67.55 -84.35 Q-74.85 -84.35 -74.85 -79.5 -74.85 -75.9 -70.7 -75.9 -65.2 -75.9 -65.2 -81.5 L-65.2 -84.05 M-64.75 -12.3 Q-60.9 -16.2 -55.55 -16.2 -49.85 -16.25 -46.35 -12.75 -42.9 -9.25 -42.9 -3.9 -42.9 -2.7 -43.4 -0.4 L-62.2 -0.4 Q-62.05 2.8 -60.0 4.6 -58.05 6.35 -54.7 6.35 -50.5 6.35 -48.3 4.15 L-45.95 8.95 Q-49.15 11.6 -55.6 11.6 -61.6 11.55 -65.1 8.0 -68.6 4.4 -68.6 -2.0 -68.6 -8.4 -64.75 -12.3 M-55.45 -11.0 Q-60.7 -11.0 -61.95 -5.1 L-49.05 -5.1 Q-49.7 -11.0 -55.45 -11.0 M-2.2 -15.75 L-12.2 11.6 -14.4 11.6 -21.6 -4.9 -28.8 11.6 -31.05 11.6 -41.0 -15.75 -34.5 -15.75 -29.25 0.3 -22.8 -15.75 -20.6 -15.75 -13.95 0.4 -8.25 -15.75 -2.2 -15.75 M-55.1 62.55 Q-56.15 63.6 -57.65 63.6 -59.1 63.6 -60.15 62.55 -61.2 61.45 -61.2 60.0 -61.2 58.45 -60.15 57.4 -59.1 56.35 -57.65 56.35 -56.15 56.35 -55.1 57.4 -54.05 58.45 -54.05 60.0 -54.05 61.45 -55.1 62.55 M-42.35 66.75 L-41.25 69.25 Q-38.75 66.25 -33.85 66.25 -29.15 66.25 -26.4 69.15 -24.45 71.25 -23.9 74.6 -23.75 75.75 -23.75 77.1 L-23.75 93.6 -29.85 93.6 -29.85 78.05 Q-29.9 76.0 -30.35 74.6 L-31.15 73.05 Q-32.45 71.5 -35.35 71.5 -36.75 71.45 -38.25 72.25 -39.8 73.05 -40.6 74.2 L-40.6 93.6 -46.8 93.6 -46.8 66.75 -42.35 66.75 M-73.0 57.4 Q-71.95 58.45 -71.95 60.0 -71.95 61.45 -73.0 62.55 -74.05 63.6 -75.5 63.6 -77.0 63.6 -78.0 62.55 -79.1 61.45 -79.05 60.0 -79.1 58.45 -78.0 57.4 -77.0 56.35 -75.5 56.35 -74.05 56.35 -73.0 57.4 M-65.25 66.75 L-54.4 66.75 -54.4 93.0 Q-54.4 98.75 -57.9 101.45 -61.5 104.1 -68.9 104.1 L-68.9 98.5 Q-64.0 98.5 -62.25 97.35 -60.5 96.15 -60.5 93.05 L-60.5 71.9 -65.25 71.9 -65.25 66.75 M-78.65 93.6 L-78.65 71.9 -82.0 71.9 -82.0 66.75 -72.45 66.75 -72.45 93.6 -78.65 93.6 M-131.2 69.05 Q-129.45 70.8 -128.8 74.6 -128.45 76.8 -128.4 79.65 L-128.4 85.35 Q-128.45 90.7 -126.3 92.1 -127.05 93.45 -127.95 93.8 L-130.1 94.05 Q-131.45 94.05 -132.5 93.1 -133.55 92.1 -133.9 90.9 -134.75 92.3 -136.8 93.2 -138.9 94.05 -141.15 94.05 -145.4 94.05 -147.85 91.95 -150.25 89.75 -150.25 85.8 -150.25 81.1 -146.8 78.45 -143.45 75.85 -137.15 75.85 L-134.6 76.25 -134.8 74.6 Q-135.7 71.45 -140.45 71.5 -143.9 71.45 -146.25 72.65 L-147.55 67.8 Q-144.4 66.25 -140.05 66.25 -134.0 66.25 -131.2 69.05 M-157.65 68.85 Q-155.6 71.0 -155.25 74.6 L-155.2 75.85 -155.2 93.6 -161.35 93.6 -161.35 76.75 Q-161.35 75.55 -161.6 74.6 -162.4 71.5 -166.0 71.5 -167.4 71.45 -168.65 72.3 -169.9 73.15 -170.45 74.25 L-170.45 93.6 -176.55 93.6 -176.55 75.8 Q-176.55 75.15 -176.7 74.6 -176.95 73.4 -177.75 72.65 -179.0 71.45 -181.15 71.5 -182.35 71.5 -183.65 72.35 -185.05 73.25 -185.65 74.3 L-185.65 93.6 -191.8 93.6 -191.8 66.75 -187.55 66.75 -186.3 69.1 Q-183.75 66.25 -179.7 66.25 -174.5 66.25 -171.85 69.15 -170.7 67.8 -168.6 67.05 -166.55 66.25 -164.5 66.25 -162.15 66.25 -160.35 67.0 -158.8 67.6 -157.65 68.85 M-134.5 80.95 L-136.85 80.65 Q-144.15 80.65 -144.15 85.5 -144.15 89.1 -140.05 89.1 -134.5 89.1 -134.5 83.5 L-134.5 80.95 M-121.8 66.75 L-115.65 66.75 -115.65 69.2 Q-113.1 66.25 -108.8 66.25 -105.7 66.25 -104.0 67.2 L-106.65 72.6 Q-108.25 71.5 -110.2 71.5 -112.35 71.45 -114.0 73.45 L-114.75 74.6 Q-115.65 76.2 -115.65 78.3 L-115.65 93.6 -121.8 93.6 -121.8 66.75 M-93.2 59.0 L-93.2 66.75 -85.95 66.75 -85.95 71.8 -93.2 71.8 -93.2 83.5 Q-93.2 86.4 -92.3 87.6 -91.4 88.8 -89.2 88.8 -87.0 88.75 -85.05 87.55 L-85.05 93.35 -91.15 94.05 Q-95.1 94.05 -97.2 91.85 -99.3 89.5 -99.3 85.35 L-99.3 71.8 -102.35 71.8 -102.35 66.75 -99.3 66.75 -99.3 61.3 -93.2 59.0 M-117.5 144.35 Q-117.5 142.85 -116.35 141.85 -115.3 140.75 -113.75 140.75 -112.2 140.75 -111.1 141.85 -110.05 142.85 -110.0 144.35 -110.05 145.9 -111.1 147.0 -112.2 148.0 -113.75 148.05 -115.3 148.0 -116.35 147.0 -117.5 145.9 -117.5 144.35 M-82.45 140.75 Q-80.95 140.75 -79.85 141.85 -78.8 142.85 -78.75 144.35 -78.8 145.9 -79.85 147.0 -80.95 148.0 -82.45 148.05 -84.05 148.0 -85.1 147.0 -86.25 145.9 -86.2 144.35 -86.25 142.85 -85.1 141.85 -84.05 140.75 -82.45 140.75 M-95.5 139.6 L-95.5 169.85 Q-95.5 174.85 -92.45 175.8 -94.0 178.6 -97.55 178.6 -101.95 178.6 -101.95 172.65 L-101.95 141.15 -95.5 139.6 M-143.45 139.6 L-143.45 152.85 Q-141.0 150.65 -136.6 150.65 -131.45 150.65 -128.55 153.5 -125.7 156.25 -125.7 161.5 L-125.7 178.05 -132.15 178.05 -132.15 161.5 Q-132.2 159.0 -133.8 157.5 -135.35 156.0 -137.95 156.0 -139.55 156.0 -141.15 156.85 -142.75 157.65 -143.45 158.75 L-143.45 178.05 -150.0 178.05 -150.0 141.15 -143.45 139.6 M-159.3 175.0 Q-162.95 178.55 -169.25 178.6 -172.3 178.55 -174.75 177.35 L-174.75 188.6 -181.2 188.6 -181.2 151.15 -174.75 151.15 -174.75 152.95 Q-172.35 150.65 -168.85 150.65 -155.7 150.65 -155.65 164.8 -155.7 171.45 -159.3 175.0 M-89.35 156.3 L-89.35 151.15 -79.3 151.15 -79.3 178.05 -85.8 178.05 -85.8 156.3 -89.35 156.3 M-120.6 156.3 L-120.6 151.15 -110.55 151.15 -110.55 178.05 -117.1 178.05 -117.1 156.3 -120.6 156.3 M-53.45 164.65 Q-53.45 159.9 -55.4 157.95 -57.35 156.0 -61.8 156.0 -64.05 156.0 -65.9 157.75 L-65.9 171.9 Q-64.15 173.25 -61.8 173.25 -57.35 173.25 -55.4 171.2 -53.45 169.1 -53.45 164.65 M-46.8 164.8 Q-46.8 171.45 -50.4 175.0 -54.1 178.55 -60.35 178.6 -63.4 178.55 -65.9 177.35 L-65.9 188.6 -72.35 188.6 -72.35 151.15 -65.9 151.15 -65.9 152.95 Q-63.5 150.65 -59.95 150.65 -46.8 150.65 -46.8 164.8 M-41.65 151.15 L-35.2 151.15 -35.2 152.95 Q-32.8 150.65 -29.3 150.65 -16.15 150.65 -16.1 164.8 -16.1 171.45 -19.7 175.0 -23.4 178.55 -29.7 178.6 -32.75 178.55 -35.2 177.35 L-35.2 188.6 -41.65 188.6 -41.65 151.15 M-35.2 157.75 L-35.2 171.9 Q-33.5 173.25 -31.1 173.25 -26.65 173.25 -24.75 171.2 -22.8 169.1 -22.75 164.65 -22.8 159.9 -24.75 157.95 -26.65 156.0 -31.1 156.0 -33.4 156.0 -35.2 157.75 M-170.65 156.0 Q-172.95 156.0 -174.75 157.75 L-174.75 171.9 Q-173.05 173.25 -170.65 173.25 -166.2 173.25 -164.3 171.2 -162.35 169.1 -162.3 164.65 -162.35 159.9 -164.3 157.95 -166.2 156.0 -170.65 156.0" fill="#ffffff" fill-rule="evenodd" stroke="none"/>
  </g>
</svg>
