<?xml version="1.0" encoding="UTF-8" standalone="no"?>
<svg xmlns:ffdec="https://www.free-decompiler.com/flash" xmlns:xlink="http://www.w3.org/1999/xlink" ffdec:objectType="shape" height="169.95px" width="291.35px" xmlns="http://www.w3.org/2000/svg">
  <g transform="matrix(1.0, 0.0, 0.0, 1.0, 141.65, 79.75)">
    <path d="M80.55 -75.25 Q81.7 -74.1 83.35 -75.25 L83.25 -74.5 Q83.05 -74.1 82.2 -74.1 79.65 -74.1 79.0 -75.65 78.75 -76.2 78.75 -78.15 L79.5 -78.3 Q80.25 -78.3 84.6 -76.85 L79.45 -77.55 Q79.6 -76.1 80.55 -75.25 M36.6 -40.8 L39.25 -31.45 39.25 -31.35 Q38.65 -31.9 37.35 -35.9 36.05 -39.85 36.05 -40.8 36.05 -41.95 36.2 -42.15 L37.4 -42.45 41.4 -42.0 77.1 -79.75 Q61.45 -62.3 41.95 -41.9 46.85 -41.0 55.45 -38.6 L56.65 -38.35 47.5 -39.75 41.25 -41.15 40.0 -39.9 39.7 -40.2 40.75 -41.25 38.15 -41.8 36.9 -41.75 Q36.6 -41.7 36.6 -40.8 M16.55 -14.05 L16.55 -13.95 14.4 -14.05 Q14.4 -14.35 14.7 -14.4 L16.55 -14.05 M10.7 -13.1 L26.45 -13.4 26.5 -12.95 10.65 -12.25 Q15.3 -8.25 20.0 -5.0 L20.25 -4.6 Q15.15 -7.85 10.25 -11.85 8.65 -8.1 4.6 -8.2 L0.55 -8.6 Q-1.9 -8.9 -3.15 -8.55 -5.3 -7.95 -6.6 -6.6 -8.2 -4.95 -8.55 -2.2 L-8.3 -2.2 Q-8.15 -1.0 -8.15 1.65 L-8.35 1.65 -7.75 3.6 -7.6 3.6 -7.35 -0.25 -7.15 1.95 Q-7.15 3.95 -7.6 5.2 L-8.15 5.35 -9.2 -0.55 Q-9.2 -2.85 -8.1 -5.15 L-7.2 -6.65 -8.15 -6.7 -8.15 -7.45 -7.0 -6.9 Q-5.55 -8.75 -3.15 -9.2 L3.1 -8.65 Q7.35 -8.25 8.65 -10.1 L9.4 -12.15 3.6 -11.85 -8.15 -12.65 -8.15 -12.15 -8.35 -12.35 -8.55 -12.65 -17.25 -13.15 Q-17.8 -11.3 -18.7 -10.75 L-19.8 -10.9 Q-19.25 -11.7 -18.65 -13.2 L-32.65 -13.4 -35.6 -13.5 -35.2 -12.75 -35.3 -12.5 -35.9 -13.5 -54.7 -14.85 Q-65.1 -14.85 -87.0 -12.0 L-108.8 -9.2 -119.9 -9.9 -131.2 -10.9 -131.55 -11.65 -121.35 -10.95 -108.9 -9.9 -99.3 -10.75 -89.55 -12.7 Q-74.85 -15.5 -54.85 -15.5 L-36.6 -14.8 Q-39.45 -20.25 -44.0 -30.85 L-47.2 -33.05 -46.85 -33.45 -44.95 -33.15 -46.25 -36.2 Q-52.7 -51.65 -58.8 -60.2 -64.0 -55.3 -67.5 -54.0 -69.85 -54.15 -69.85 -54.55 -65.2 -54.4 -57.6 -62.25 -50.6 -69.55 -50.6 -72.05 -50.6 -73.0 -51.5 -73.85 -52.2 -74.5 -52.55 -74.5 -58.4 -74.5 -65.05 -66.7 -70.8 -59.9 -70.8 -57.2 L-70.65 -56.0 -71.15 -55.8 -70.4 -55.75 Q-67.45 -55.75 -66.4 -56.55 L-64.65 -57.6 -67.65 -55.2 -70.95 -55.2 -71.15 -55.8 -71.5 -57.4 Q-71.5 -60.85 -65.25 -67.5 -58.2 -75.0 -52.0 -75.0 L-49.8 -72.25 Q-49.8 -70.1 -53.65 -65.6 -30.85 -54.7 -12.4 -35.45 L-7.4 -30.1 6.6 -29.95 -3.9 -29.6 -6.85 -29.5 -4.45 -26.9 -4.45 -27.95 -3.55 -28.05 -3.95 -26.6 -4.15 -26.65 2.25 -20.0 9.6 -13.1 9.75 -13.1 Q10.1 -13.95 10.75 -13.4 L10.7 -13.1 M2.05 -19.25 L-7.55 -29.45 Q-18.1 -29.15 -30.85 -29.25 L-38.5 -29.95 -42.95 -31.35 Q-34.8 -23.95 -19.35 -14.4 L-19.25 -14.05 Q-24.8 -17.0 -33.5 -23.3 -39.5 -27.7 -43.05 -30.15 L-36.25 -14.8 -19.95 -14.0 -18.15 -13.9 -17.1 -13.95 -17.1 -13.85 -8.9 -13.5 -9.2 -14.35 -8.8 -14.35 -8.3 -13.45 8.7 -13.1 Q5.3 -16.0 2.05 -19.25 M3.05 -7.6 Q4.5 -7.6 5.05 -6.7 5.6 -5.85 6.35 -5.9 6.05 -4.3 5.6 -3.55 4.8 -3.55 5.35 -4.3 5.2 -4.7 2.2 -5.05 L1.9 -5.2 Q1.75 -5.25 1.75 -6.1 1.75 -7.15 1.9 -7.35 L3.05 -7.6 M2.75 -5.6 L4.8 -5.75 Q3.55 -7.0 2.45 -6.05 L2.75 -5.6 M61.4 -28.1 Q56.1 -16.6 54.45 -8.3 L54.0 -8.3 Q55.35 -16.45 60.7 -28.15 L35.6 -29.7 52.55 -29.45 Q56.45 -29.35 61.25 -29.4 63.8 -34.95 67.25 -41.25 L76.4 -57.5 Q81.65 -66.75 84.05 -71.95 81.3 -65.45 76.3 -56.25 L67.55 -40.35 Q64.4 -34.55 62.0 -29.4 L63.85 -29.45 Q68.65 -29.45 72.7 -28.15 76.5 -27.0 81.1 -26.1 84.6 -25.4 88.3 -23.95 L101.85 -18.05 102.0 -17.65 Q96.3 -18.8 88.55 -23.05 82.0 -26.6 73.0 -27.25 L61.4 -28.1 M63.7 -13.95 L74.25 -12.95 82.7 -11.0 Q93.65 -8.55 108.75 -10.0 108.9 -10.7 108.9 -9.35 108.9 -8.45 102.25 -8.3 L94.6 -8.35 Q87.95 -8.35 76.35 -10.8 L61.35 -13.8 63.7 -13.95 M2.75 1.9 L3.35 3.35 2.3 3.3 2.3 1.9 2.75 1.9 M10.2 31.15 Q15.45 41.95 27.05 68.1 L27.05 68.25 11.95 38.05 9.55 33.35 7.6 40.15 5.1 47.85 7.45 54.9 5.4 49.5 Q2.5 55.2 -0.5 66.5 -2.95 75.5 -3.4 79.2 L-3.4 79.3 -5.0 79.2 Q-4.0 76.7 -0.2 63.45 2.6 53.8 5.4 49.45 L4.95 48.3 4.4 49.6 3.9 49.6 4.55 47.2 -8.15 13.1 -7.9 12.85 Q-3.5 22.45 4.7 46.6 L6.55 38.25 Q7.5 33.95 8.75 31.8 1.15 17.2 -5.6 7.6 L-5.75 7.6 -5.0 9.95 -5.5 10.1 -6.6 6.15 -6.15 6.15 Q-2.1 6.15 9.5 29.7 L9.85 30.35 Q10.15 30.0 10.55 29.8 11.25 30.35 11.25 31.65 L11.25 31.9 Q10.75 30.9 10.35 30.65 L10.2 31.15 M-56.5 -62.5 L-58.75 -60.25 -58.4 -60.25 Q-51.7 -51.1 -45.65 -36.45 L-44.2 -33.0 -40.95 -31.85 Q-38.15 -30.5 -36.9 -30.3 L-8.15 -30.1 -12.35 -34.55 Q-21.15 -43.9 -29.05 -50.05 -39.85 -58.5 -54.0 -65.2 L-56.5 -62.5 M-24.6 -6.8 L-22.85 -6.9 Q-22.2 -6.9 -20.25 -5.15 -18.2 -3.3 -17.65 -1.95 L-17.65 -1.75 -20.45 -4.1 Q-22.95 -6.3 -23.55 -6.3 L-27.6 -4.7 Q-27.25 0.2 -26.3 3.15 L-25.55 1.8 Q-24.45 0.15 -23.55 -0.1 -25.95 3.7 -25.95 4.3 L-25.95 4.5 -21.25 4.1 Q-21.1 2.95 -20.55 1.55 -19.4 -1.15 -17.65 -1.15 -15.15 -1.15 -13.35 1.9 -12.0 4.15 -11.85 6.25 L-11.85 9.65 Q-12.45 8.55 -12.8 6.5 -13.1 4.2 -13.35 3.15 -14.25 -0.65 -17.65 -0.65 -20.35 -0.65 -20.75 4.05 L-17.65 3.75 -20.75 4.45 -20.8 5.05 Q-20.8 6.45 -20.55 6.25 L-20.1 6.8 -19.8 5.75 -19.35 5.6 Q-19.25 4.8 -19.25 6.15 L-19.35 7.2 -19.8 7.6 Q-21.35 6.15 -21.35 5.05 L-21.3 4.55 -25.8 5.35 Q-25.65 6.2 -25.1 7.05 -23.85 9.15 -21.45 9.35 L-21.45 9.65 -22.95 10.1 Q-25.75 10.1 -26.45 5.45 L-30.9 6.15 Q-31.2 6.45 -32.45 5.35 L-32.45 4.95 -26.55 4.55 -26.6 4.1 -26.55 3.9 Q-27.55 2.45 -27.7 -0.05 L-28.15 -5.4 Q-26.5 -6.55 -24.6 -6.8 M-19.25 -17.45 L-19.25 -17.05 -19.5 -16.6 -19.9 -16.2 Q-20.35 -16.0 -20.35 -16.9 -20.35 -18.55 -19.35 -18.55 L-19.25 -17.45 M-12.5 -6.9 L-12.9 -2.6 Q-12.6 -2.6 -12.1 -3.4 L-11.85 -2.2 -11.85 -1.75 -13.4 -1.95 -13.4 -4.7 -12.9 -6.9 -12.5 -6.9 M-6.45 -10.15 L-7.6 -10.45 Q-6.9 -11.65 -6.15 -11.65 -6.05 -12.5 -6.05 -11.1 -6.05 -10.2 -6.45 -10.15 M-9.2 1.75 Q-10.55 1.6 -11.3 0.45 L-10.9 0.3 -9.2 1.65 -9.2 1.75 M-17.65 5.8 L-16.35 4.2 Q-16.0 3.65 -14.95 4.4 L-16.25 6.05 -17.65 5.8 M-12.9 21.3 L-29.25 21.3 -38.2 20.45 -38.3 20.45 -39.1 22.7 -38.4 28.15 -36.3 26.7 -38.3 28.7 -38.2 29.15 Q-24.95 28.45 -23.95 34.65 L-24.25 34.9 Q-24.55 33.0 -26.25 31.75 -29.4 29.55 -38.1 29.6 L-38.05 29.65 -34.45 33.6 Q-32.1 36.05 -29.45 37.4 L-29.25 36.35 -28.85 36.2 Q-28.7 36.6 -28.7 37.4 L-28.55 37.75 Q-28.6 38.05 -29.45 38.05 -31.55 38.05 -37.85 30.55 L-37.55 31.65 Q-34.45 42.25 -27.0 42.25 L-25.55 42.15 -25.55 41.45 -25.15 41.45 -25.05 42.05 Q-22.6 41.5 -21.0 39.45 -19.25 36.3 -18.25 35.65 -20.45 41.85 -25.0 42.75 L-24.75 44.6 -7.75 26.15 Q-18.95 39.3 -24.65 45.4 L-24.6 45.95 -8.8 46.6 -8.65 47.0 -21.1 47.6 -24.4 47.5 -23.3 58.6 -24.7 47.5 -26.5 47.35 -36.1 56.55 -30.15 50.5 -27.15 47.25 Q-34.35 46.5 -42.3 43.9 L-47.35 42.1 -49.15 46.05 -49.75 47.65 Q-40.85 63.1 -25.05 84.45 L-25.05 84.6 Q-38.3 68.65 -50.0 48.2 L-53.15 55.65 -47.25 63.1 Q-37.8 75.15 -37.8 75.9 -37.8 77.25 -38.05 76.7 L-38.5 77.1 Q-40.6 75.75 -40.6 74.25 -40.6 73.5 -46.75 65.25 L-48.95 66.9 -46.65 70.7 -46.65 70.95 Q-48.9 68.6 -52.1 63.25 L-54.65 58.65 -55.55 60.3 Q-59.85 70.0 -59.85 70.8 -59.85 71.65 -59.5 71.85 L-58.85 72.15 Q-58.85 73.25 -60.9 70.7 -60.9 69.4 -56.7 59.75 L-56.7 58.8 -60.9 66.45 -63.15 72.35 -63.55 72.35 -62.65 69.6 -66.65 76.7 -67.2 76.55 -60.85 64.4 -56.5 52.45 -62.45 44.65 -62.15 44.65 -56.25 51.8 -52.85 43.05 -54.9 39.25 -58.15 43.55 -57.35 46.3 -56.95 47.3 -56.15 47.55 -56.8 47.7 -56.15 49.05 -57.1 47.9 Q-57.55 48.3 -57.85 49.05 L-58.3 49.05 Q-58.3 47.7 -57.5 47.2 L-58.85 43.75 Q-58.85 42.3 -48.1 29.6 L-47.15 28.5 -41.75 14.85 -41.9 14.85 Q-42.85 13.15 -39.9 9.8 L-39.8 11.0 Q-39.8 11.9 -45.3 26.35 L-43.0 23.6 -41.05 19.25 Q-41.45 19.05 -41.9 18.8 -41.35 17.5 -40.45 17.15 L-41.35 18.0 -40.75 18.65 -39.3 15.95 -39.0 14.95 Q-38.2 12.4 -37.7 12.35 L-38.2 14.2 -37.95 13.75 -37.7 12.95 -37.7 13.35 -37.25 12.7 -37.25 11.7 -36.75 10.35 Q-36.6 10.75 -36.6 12.15 -36.6 14.05 -37.25 16.8 L-32.0 10.35 -31.95 10.1 -31.9 10.9 -37.5 17.8 -38.1 19.8 -12.95 20.9 -12.9 21.3 M-37.7 13.85 L-37.7 14.7 -37.5 14.7 -37.3 13.05 -37.7 13.85 M-39.05 17.7 L-39.15 18.05 -39.15 17.95 -39.05 17.7 M-39.8 19.2 L-39.8 18.95 -39.75 18.15 -40.15 19.05 -39.8 19.2 M-40.4 19.6 L-41.2 21.5 -39.8 19.85 -40.4 19.6 M-39.8 25.7 L-46.8 40.95 -43.8 42.6 Q-40.6 44.45 -39.0 44.85 L-25.9 45.9 -25.45 45.4 -25.55 45.4 -25.55 42.85 -26.6 42.9 Q-35.05 42.9 -38.2 31.9 L-38.75 29.6 -39.25 29.6 -38.95 28.8 -39.6 23.95 -40.3 25.7 -39.9 25.05 -39.85 24.85 -39.8 25.7 M-25.0 44.9 L-25.05 44.65 -25.1 45.0 -25.0 44.9 M-24.9 45.95 L-24.9 45.7 -25.15 45.95 -24.9 45.95 M-49.25 21.75 L-50.6 21.7 Q-51.4 21.15 -51.4 20.75 L-49.4 20.35 Q-49.25 20.75 -49.25 21.55 L-49.25 21.75 M-63.0 25.05 L-61.05 24.6 Q-61.05 25.7 -61.7 26.05 -62.65 25.85 -63.0 25.05 M-69.0 27.9 Q-73.4 27.9 -73.05 33.6 L-71.7 37.8 -72.8 36.05 Q-73.55 34.45 -73.55 33.6 -73.55 27.05 -70.15 27.05 -67.7 27.05 -66.65 28.25 -66.1 28.9 -66.1 29.6 -66.1 31.75 -68.3 33.95 L-68.8 33.8 Q-66.85 30.8 -66.85 29.6 -66.85 27.9 -69.0 27.9 M-66.85 34.65 L-61.6 42.9 -61.6 43.3 Q-63.35 42.9 -65.1 41.8 L-64.9 41.35 -62.8 42.8 -62.45 42.65 Q-66.25 36.95 -67.2 34.75 L-66.85 34.65 M-69.4 36.7 L-70.65 38.7 -71.45 38.05 Q-70.75 37.85 -69.85 36.7 L-69.4 36.7 M-41.9 26.7 Q-41.0 24.6 -39.85 20.65 L-41.9 23.2 Q-44.6 29.75 -46.15 35.75 L-41.9 26.7 M-46.05 28.3 L-49.3 36.6 -50.3 39.25 -48.35 40.2 -47.25 38.0 Q-45.9 31.15 -43.65 25.35 L-46.05 28.3 M-51.25 38.85 L-48.0 30.65 -53.8 37.9 -53.65 37.8 -53.05 38.05 -51.55 36.7 -52.4 38.35 -51.25 38.85 M-53.0 39.1 L-54.0 39.1 -53.55 38.6 -53.95 38.05 -54.55 38.8 -52.65 42.45 -52.5 42.05 -51.7 40.0 -53.0 39.1 M-53.75 41.25 Q-53.75 39.55 -54.55 39.7 L-53.75 41.25 M-51.0 45.4 L-49.95 43.3 -49.0 41.4 -50.8 40.5 -52.0 43.6 -51.0 45.4 M-52.25 44.2 L-55.55 52.7 -55.1 53.25 -51.3 45.9 -52.25 44.2 M-56.15 58.5 L-54.6 54.95 -56.2 57.9 -56.15 58.5 M-54.2 57.85 L-53.5 59.15 -54.0 57.95 -53.65 57.8 -52.5 60.9 -49.5 66.0 -49.25 66.0 Q-48.3 66.0 -46.75 65.2 L-49.4 61.7 -53.5 56.4 -54.2 57.85 M-55.8 53.35 L-57.8 58.45 -55.4 53.9 -55.8 53.35" fill="#000000" fill-rule="evenodd" stroke="none"/>
    <path d="M-129.95 0.5 L-129.95 -78.1 132.25 -78.1 132.25 0.5 -129.95 0.5" fill="url(#gradient0)" fill-rule="evenodd" stroke="none"/>
    <path d="M25.5 -28.2 Q26.45 -29.3 26.5 -33.0 26.5 -36.05 29.25 -37.3 33.25 -39.15 44.75 -39.05 45.7 -39.05 45.95 -39.35 L46.25 -39.25 46.1 -38.8 Q47.8 -36.0 48.05 -29.45 56.1 -28.85 67.3 -26.15 L75.6 -30.85 84.45 -30.55 Q83.05 -26.05 83.05 -22.25 83.05 -20.75 83.35 -19.5 L84.35 -19.55 Q84.45 -21.15 85.05 -24.1 L85.1 -24.1 97.95 -21.6 108.45 -19.8 109.25 -19.85 109.35 -19.75 105.85 -15.35 Q104.1 -13.1 103.25 -11.45 L83.9 -10.5 72.7 -11.5 51.7 -13.5 Q39.35 -17.1 36.35 -17.1 35.0 -17.1 24.55 -13.9 14.05 -10.75 12.9 -10.75 9.6 -10.75 4.65 -13.0 -0.35 -15.25 -1.0 -15.25 L-1.9 -15.05 Q-1.85 -14.85 -1.95 -14.75 L-1.75 -14.35 -1.85 -13.95 -9.65 -16.65 Q-16.7 -19.1 -22.1 -19.1 L-27.4 -17.85 Q-31.4 -16.85 -35.15 -16.65 L-36.8 -18.85 Q-38.7 -21.45 -39.15 -23.1 L-17.0 -23.65 Q-9.35 -23.85 -5.1 -23.65 L-5.05 -22.85 -4.45 -22.85 -4.3 -23.6 -3.6 -23.55 -3.55 -23.85 -4.25 -24.35 -4.15 -27.6 6.5 -28.3 Q13.8 -29.8 14.55 -27.15 L15.4 -24.75 Q23.4 -25.65 25.5 -28.2" fill="url(#gradient1)" fill-rule="evenodd" stroke="none"/>
    <path d="M2.0 -15.2 L8.9 -14.4 Q13.6 -14.4 19.9 -16.55 26.15 -18.75 38.7 -18.75 43.95 -18.75 46.6 -17.75 L51.35 -15.55 Q59.8 -12.4 89.55 -12.4 L112.2 -13.3 112.75 -13.7 Q117.35 -17.1 120.3 -18.3 122.7 -21.0 124.4 -21.0 131.1 -21.0 135.1 -15.45 136.45 -14.55 136.65 -12.8 L138.05 -9.55 Q140.25 -3.35 140.25 2.85 136.5 43.7 133.15 60.9 L134.45 60.9 Q144.8 60.9 148.15 63.6 149.7 64.85 149.7 67.5 149.7 74.2 136.4 72.9 137.2 74.5 137.2 75.25 137.2 78.65 132.75 79.7 L117.55 82.25 -24.25 90.2 -94.15 85.7 -113.3 83.45 Q-117.05 83.1 -126.8 79.1 -129.35 79.1 -131.6 80.05 -133.85 80.95 -135.55 80.95 -141.55 80.95 -141.65 75.5 -140.5 69.1 -140.55 67.1 L-141.45 53.05 Q-141.45 40.35 -134.75 -10.7 L-136.45 -15.85 Q-136.45 -18.35 -134.85 -20.6 -132.7 -23.65 -128.7 -23.65 -123.95 -23.65 -121.95 -19.85 L-120.9 -15.95 -120.9 -15.5 -119.95 -15.15 Q-113.9 -12.85 -107.7 -12.85 -105.95 -12.85 -93.8 -17.15 L-85.75 -19.8 Q-84.4 -21.55 -81.15 -21.55 L-79.9 -21.3 -78.55 -21.45 Q-76.2 -21.45 -74.7 -20.5 L-67.55 -19.7 -33.0 -18.05 Q-29.25 -21.2 -17.9 -21.2 -13.85 -21.2 -10.9 -17.9 -1.75 -17.85 0.9 -16.4 L2.0 -15.2 M40.95 74.45 Q34.55 73.65 7.05 73.45 -51.3 76.7 -58.7 74.35 -61.85 73.35 -64.95 73.35 L-94.5 75.55 -95.7 75.65 -55.25 78.55 -24.25 80.3 Q-3.75 80.3 60.2 75.55 L40.95 74.45" fill="url(#gradient2)" fill-rule="evenodd" stroke="none"/>
    <path d="M-16.0 -12.8 L-16.25 -4.95 -16.5 -1.55 -16.6 -1.15 Q-17.9 -8.85 -17.9 -15.95 L-18.4 -9.15 Q-17.8 -9.05 -17.7 -8.5 L-17.5 -7.2 -17.9 -6.9 -18.5 -7.3 -18.8 -1.4 -19.25 -1.4 -19.25 -6.9 -19.1 -8.05 -19.5 -9.05 -19.0 -9.2 -17.9 -19.9 Q-16.15 -17.45 -16.0 -12.8 M-14.6 -3.4 L-13.95 -0.85 -14.2 -0.6 -15.0 -0.6 Q-15.25 -0.7 -15.25 -1.55 L-15.15 -3.4 -14.6 -3.4 M-6.15 10.9 Q-6.3 11.65 -6.3 10.3 -6.3 6.95 -4.5 2.1 -2.75 -2.65 -1.15 -4.05 -2.6 0.2 -5.5 10.9 L-6.15 10.9 M-14.6 1.9 Q-14.75 2.65 -14.75 1.3 -14.75 -0.05 -14.5 0.3 L-14.05 0.3 Q-13.75 0.85 -13.75 1.5 L-14.6 1.9 M-11.8 4.55 Q-10.2 -1.5 -7.6 -3.4 L-11.55 10.75 Q-11.8 10.75 -12.35 11.4 -12.95 12.5 -12.95 11.1 -12.95 9.4 -12.3 6.55 L-12.65 6.65 -12.9 5.6 -12.5 5.6 -12.1 5.8 -11.8 4.55 M-12.9 4.3 L-12.95 1.5 Q-12.95 -2.75 -11.2 -1.95 -12.25 1.25 -12.5 4.3 L-12.9 4.3 M-0.1 19.5 Q-0.1 18.75 0.45 18.55 2.3 14.7 3.5 15.4 L1.4 20.4 0.2 20.45 0.05 20.45 0.0 20.3 -0.25 20.1 -0.1 19.75 -0.1 19.5 M-58.3 7.7 Q-58.85 7.45 -58.85 7.05 L-57.3 7.2 -58.3 7.7 M-55.1 21.55 Q-55.75 21.55 -56.15 20.4 L-55.75 20.4 -55.1 21.55 M-55.35 17.55 Q-54.85 17.55 -54.85 18.4 L-55.2 19.55 Q-56.15 19.55 -56.55 17.85 L-55.85 17.7 -55.35 17.55 M-45.75 16.55 Q-45.0 17.8 -42.8 23.45 -40.6 29.2 -40.6 30.0 L-40.8 30.65 -40.8 30.8 Q-42.85 28.25 -44.0 24.3 L-44.7 21.9 -44.8 22.0 Q-45.75 20.9 -45.75 19.25 L-45.45 19.25 -46.25 16.8 Q-46.2 16.55 -45.75 16.55 M-46.25 13.85 L-45.75 13.85 Q-45.4 14.3 -45.4 15.1 L-46.25 15.5 -46.25 13.85 M-41.65 20.6 L-41.9 22.2 -42.45 22.3 -43.1 18.8 -42.55 18.7 Q-41.65 19.3 -41.65 20.6 M-62.6 41.5 Q-57.85 46.25 -52.9 52.7 L-51.0 55.2 Q-49.9 55.25 -49.65 55.85 L-48.7 57.3 -48.95 57.75 -49.15 57.75 -44.55 64.05 -45.1 64.55 Q-53.85 53.0 -63.0 41.55 L-62.6 41.5 M-63.15 43.55 L-63.25 43.85 Q-64.5 43.15 -65.75 43.0 L-66.3 42.25 Q-66.05 41.8 -65.2 41.8 -64.3 41.8 -63.15 43.55 M-57.45 28.35 Q-45.0 43.5 -29.9 70.1 L-30.9 70.6 -36.8 64.35 -46.2 56.9 -45.65 56.65 Q-43.4 57.85 -41.25 59.3 L-47.2 51.7 -46.8 51.45 -40.55 58.65 -36.9 62.65 -34.75 64.65 -34.85 64.7 -34.4 65.1 Q-58.0 29.8 -58.0 29.15 -58.0 28.3 -57.7 28.3 L-57.45 28.35 M-51.3 32.75 Q-49.05 37.25 -48.7 39.5 L-48.7 39.7 Q-54.7 27.7 -55.2 26.15 L-54.7 26.05 -51.3 32.75 M-7.6 68.65 L-7.75 67.4 Q-7.75 64.85 2.8 53.85 13.2 43.05 14.7 43.2 L1.85 55.8 Q-5.4 63.5 -7.15 68.5 L-7.6 68.65 M-6.15 73.4 L-6.55 73.4 -7.6 74.9 Q-6.65 74.8 -6.6 75.1 -6.7 75.5 -8.15 75.9 -8.9 76.7 -8.9 75.35 -8.9 72.85 -4.0 68.6 -2.0 65.2 0.75 61.65 -3.2 65.2 -5.6 66.8 2.65 57.6 11.2 50.0 17.15 44.15 23.75 39.35 L20.8 42.0 Q32.9 32.7 45.55 26.45 29.9 35.65 16.15 47.4 L5.15 57.6 Q0.35 62.9 -2.7 67.45 L2.65 63.4 Q14.0 55.45 20.65 54.15 1.7 63.7 -5.5 72.1 L-6.15 73.4 M-2.85 75.45 Q-2.15 73.9 1.4 71.8 5.2 69.5 7.25 70.1 1.55 74.45 -2.3 75.9 L-2.85 75.45 M15.9 25.6 Q20.9 21.1 22.85 21.7 14.45 28.3 11.65 32.45 L11.25 32.45 Q11.0 33.0 11.0 31.6 11.0 30.0 15.9 25.6 M6.15 30.55 Q5.2 31.2 4.15 31.35 L3.15 31.1 Q2.95 30.95 2.95 30.0 2.95 28.4 5.5 27.35 6.35 27.95 6.35 29.15 L6.15 30.55 M5.5 42.65 L4.95 42.65 4.4 42.25 6.4 39.2 Q7.9 37.1 8.65 37.5 L5.5 42.65" fill="#aad9f7" fill-rule="evenodd" stroke="none"/>
    <path d="M20.35 -1.6 L20.65 -1.15 Q20.75 -1.9 20.75 -0.55 L20.65 0.3 Q20.0 0.3 20.0 0.75 L18.4 0.6 Q18.15 0.8 18.15 -0.55 L18.4 -1.55 19.45 -1.75 20.35 -1.6 M73.3 -3.25 Q76.4 -0.5 78.9 2.85 83.7 5.9 90.0 7.55 L97.85 9.05 Q99.1 7.2 100.15 7.2 102.4 7.2 102.6 9.75 L104.25 9.95 Q112.25 11.0 115.25 15.05 116.85 17.3 118.25 21.15 119.55 22.85 120.45 25.15 L121.75 27.95 Q123.5 30.15 132.3 30.15 136.5 30.15 136.5 33.75 136.5 39.65 128.9 39.65 L126.55 39.5 Q116.3 36.2 112.85 28.1 L110.0 21.7 Q107.95 18.15 104.25 15.95 L102.3 14.9 Q100.45 26.6 87.45 40.65 90.7 42.95 95.25 44.95 L104.0 48.45 Q108.2 50.1 109.0 51.25 L106.55 52.7 Q114.35 56.9 115.2 57.05 129.2 59.7 130.35 63.5 131.75 68.55 131.75 72.6 131.45 76.45 129.0 76.45 124.95 76.45 123.7 72.5 123.1 68.1 122.3 67.2 121.25 66.65 112.2 63.7 104.05 61.05 102.15 59.5 100.0 57.9 81.4 46.75 L74.1 54.25 Q68.85 60.1 68.85 63.45 68.85 64.8 70.65 67.25 72.45 69.65 72.45 70.15 72.45 70.6 71.0 71.7 69.5 72.85 68.5 72.85 63.6 72.85 61.7 68.4 L60.7 63.55 Q60.7 56.7 66.4 50.9 L75.1 43.0 74.3 42.55 Q74.3 41.4 75.8 40.7 76.9 40.15 78.0 40.15 L78.05 40.15 78.95 39.25 77.2 36.95 Q76.35 35.75 75.0 32.55 73.75 29.55 72.45 27.9 L70.9 26.5 66.1 27.05 Q62.0 27.05 59.1 25.6 58.35 27.95 57.3 32.2 53.85 39.5 48.15 46.1 30.85 66.2 20.45 72.85 L19.2 72.65 Q18.8 72.45 18.8 71.55 18.8 67.9 30.05 55.0 L42.25 41.5 47.3 34.25 Q50.25 29.6 50.9 26.45 51.45 23.75 52.65 21.2 48.95 22.1 34.95 28.2 18.35 35.4 15.95 35.4 14.15 35.4 12.95 34.35 12.85 34.9 12.85 33.55 12.85 33.1 32.7 24.9 52.75 16.55 54.75 16.55 L55.15 16.8 Q58.9 11.55 63.8 11.55 65.2 11.55 71.55 18.65 L73.65 21.05 Q75.65 21.55 75.65 23.0 L75.55 23.5 Q79.15 28.3 80.35 32.0 81.0 33.95 82.35 35.8 L82.9 35.2 Q88.75 29.0 94.1 16.9 L96.15 12.4 92.5 11.15 Q83.55 8.3 79.2 6.05 76.2 2.6 72.95 -0.25 66.65 -5.75 59.05 -5.75 51.75 -5.75 40.45 2.3 30.95 9.05 28.9 12.65 L27.7 12.5 Q27.35 12.35 27.35 11.45 27.35 10.9 29.7 7.9 32.55 4.25 36.2 1.05 47.25 -8.65 59.05 -8.65 67.2 -8.65 73.3 -3.25 M65.5 20.7 L64.35 18.8 Q62.95 19.5 61.9 20.55 L65.5 20.7 M28.35 20.75 Q29.35 20.75 29.75 21.85 29.75 22.65 28.9 23.4 L27.35 23.3 Q27.05 23.5 27.05 22.1 27.05 21.7 27.35 21.0 L28.35 20.75 M17.35 9.95 L16.15 9.9 Q15.7 10.45 15.7 9.05 15.7 8.2 16.8 7.8 17.55 8.15 17.85 8.9 L17.35 9.95 M9.55 21.7 L9.45 23.15 Q10.05 22.75 10.5 22.85 L11.6 23.1 Q11.8 23.2 11.8 24.1 11.8 26.2 9.95 26.3 L8.55 25.05 Q7.45 26.3 5.15 26.3 -0.6 26.3 -2.3 18.95 -2.3 17.35 -0.85 15.65 1.2 13.25 5.2 13.25 10.5 13.25 9.55 21.7 M13.65 14.3 Q15.05 15.5 15.1 16.15 L14.15 17.15 Q12.2 16.05 12.2 15.65 12.2 14.5 13.65 14.3 M6.25 31.05 Q3.9 31.05 4.15 29.0 4.15 26.45 6.25 26.45 8.9 26.45 8.8 29.05 L8.25 30.2 Q7.5 31.05 6.25 31.05 M16.0 42.4 Q15.25 43.55 14.4 43.55 9.9 43.55 10.55 40.45 10.55 36.95 13.65 36.95 16.95 36.95 16.7 40.4 16.7 41.3 16.0 42.4 M26.05 43.7 Q26.05 44.7 18.95 52.7 11.6 62.3 10.5 71.4 11.3 71.8 9.95 71.8 7.45 71.8 7.45 69.9 16.25 41.85 24.2 41.85 26.05 41.85 26.05 43.7 M-127.1 -10.1 Q-122.9 -10.1 -111.6 -0.5 -103.1 6.7 -96.1 14.2 L-95.15 15.15 Q-92.3 13.25 -89.15 9.7 L-83.45 2.05 -80.35 -2.45 Q-78.4 -4.8 -75.25 -6.15 -66.75 -9.75 -65.7 -10.3 -62.6 -12.0 -62.6 -13.85 -62.6 -14.45 -63.4 -16.05 -64.2 -17.65 -64.2 -18.45 -64.2 -20.4 -62.2 -20.4 -58.3 -20.4 -56.95 -16.3 L-56.4 -12.1 Q-56.4 -9.05 -58.8 -7.05 -60.35 -5.7 -64.6 -3.85 -74.7 0.6 -78.1 5.75 -80.75 10.1 -84.95 14.4 L-89.3 18.3 -86.65 19.2 Q-82.95 20.3 -73.9 22.1 L-67.3 23.55 Q-66.85 22.55 -65.9 21.45 -63.85 19.0 -61.7 19.0 -58.9 19.0 -57.2 22.8 -56.3 24.7 -56.0 26.7 -56.0 29.2 -57.9 30.2 -58.4 32.9 -63.3 32.9 -65.6 32.9 -69.1 31.3 -73.2 29.5 -75.1 29.15 L-89.0 26.85 Q-92.65 26.1 -97.7 22.45 L-98.3 22.0 -98.85 22.0 Q-101.9 22.0 -104.15 20.45 -106.15 19.1 -106.15 17.7 L-106.0 16.55 -104.55 16.15 Q-107.9 12.8 -119.15 4.0 -129.85 -4.35 -129.85 -7.35 -129.85 -10.1 -127.1 -10.1 M-47.95 -13.1 Q-47.7 -12.5 -47.7 -11.65 -47.7 -11.05 -48.1 -10.2 -48.6 -9.2 -49.25 -9.2 -53.1 -9.2 -52.45 -11.75 -52.45 -14.4 -50.1 -14.4 -48.55 -14.4 -47.95 -13.1 M-51.7 -6.8 Q-49.8 -6.8 -49.2 -5.05 L-48.95 -3.2 Q-48.95 -2.3 -49.6 -1.4 -50.4 -0.3 -51.7 -0.3 -55.2 -0.3 -54.55 -4.6 -54.55 -6.8 -51.7 -6.8 M-26.4 -7.75 Q-26.4 -11.1 -21.55 -11.1 -20.0 -11.1 -19.25 -9.8 -18.8 -9.0 -18.8 -8.35 -18.8 -7.45 -20.0 -6.15 -21.35 -4.7 -22.95 -4.7 -26.45 -4.7 -26.4 -7.75 M-11.55 -19.1 Q-10.65 -19.1 -10.45 -18.45 L-10.2 -17.25 -11.05 -16.05 -12.65 -16.2 -12.9 -17.35 Q-12.9 -18.75 -12.65 -18.8 -12.9 -19.1 -11.55 -19.1 M-13.95 -18.8 Q-17.5 -18.8 -17.5 -21.75 -17.15 -24.75 -15.25 -24.75 -12.3 -24.75 -11.95 -21.65 -11.95 -20.95 -12.5 -20.0 -13.15 -18.8 -13.95 -18.8 M-13.4 -7.9 L-13.8 -8.0 -14.05 -9.6 Q-14.05 -11.85 -12.35 -11.85 -9.65 -11.85 -10.1 -9.4 L-10.1 -9.1 Q-9.45 -8.4 -9.6 -6.7 -9.6 -4.85 -10.9 -4.85 -12.1 -4.85 -13.3 -5.35 L-13.5 -6.8 -13.4 -7.9 M-13.5 -3.0 Q-12.6 -4.45 -11.3 -4.45 -9.85 -4.45 -8.9 -3.45 -8.15 -4.05 -6.85 -4.05 -3.85 -4.05 -3.85 -1.2 -1.85 -0.75 -1.7 2.05 -1.95 5.05 -4.7 5.05 -6.6 5.05 -7.35 3.75 L-7.35 4.05 Q-7.35 9.35 -9.75 9.35 -14.4 9.35 -14.2 -0.85 -14.2 -1.85 -13.5 -3.0 M-44.8 8.35 Q-47.6 8.35 -47.7 5.75 -47.7 4.85 -46.8 4.15 -46.05 3.6 -45.35 3.6 -43.8 3.6 -43.1 4.85 -42.65 5.6 -42.65 6.25 -42.65 7.15 -43.5 7.8 -44.2 8.35 -44.8 8.35 M-49.55 12.1 Q-48.8 12.4 -48.5 13.1 L-49.05 14.55 Q-50.6 13.3 -50.6 13.05 L-50.35 12.2 -49.55 12.1 M-46.2 20.25 L-45.85 21.65 Q-45.85 23.15 -47.7 23.15 L-49.25 22.85 Q-49.55 22.85 -49.55 21.5 -49.55 20.45 -47.7 20.0 L-46.2 20.25 M-46.85 23.75 Q-45.6 23.75 -44.95 25.15 -44.55 26.0 -44.55 26.65 L-44.65 28.05 -44.8 28.4 Q-44.95 28.7 -45.75 28.7 -47.0 28.7 -48.1 28.15 L-48.4 25.4 -48.25 24.2 Q-48.25 23.75 -46.85 23.75 M-72.35 35.75 Q-72.25 35.7 -72.25 36.55 -72.25 37.95 -72.35 37.4 L-73.55 36.85 Q-72.95 35.95 -72.5 35.95 L-72.35 35.75 M-71.55 38.95 Q-68.0 36.35 -64.9 36.35 -61.75 36.35 -58.4 40.35 L-57.6 41.25 -57.4 41.6 Q-54.45 45.15 -53.1 45.15 -48.25 43.85 -46.85 43.85 -43.55 43.85 -43.55 45.75 -43.55 47.05 -46.2 48.7 -49.4 50.7 -53.75 50.7 -56.25 50.7 -60.55 46.75 L-60.9 46.75 Q-65.0 46.75 -64.65 43.1 L-64.6 42.55 -65.3 41.8 Q-67.0 41.8 -69.9 43.8 -71.7 45.0 -76.2 48.5 -83.1 53.65 -89.65 56.4 L-86.75 59.9 Q-84.35 62.9 -80.7 64.65 -75.9 67.0 -65.65 68.2 -58.3 69.1 -58.3 71.6 -58.3 72.4 -74.7 74.85 L-91.3 77.1 Q-93.05 77.1 -98.5 80.5 -103.95 83.9 -110.2 83.9 -120.15 83.9 -125.0 78.95 -126.8 77.15 -129.0 71.95 -134.75 59.25 -134.75 58.05 -134.75 56.1 -132.85 56.1 -132.0 56.1 -130.45 59.25 L-126.8 66.15 -126.25 67.0 Q-124.75 63.45 -120.95 60.2 -112.7 53.15 -97.65 52.9 -99.8 50.75 -102.1 48.95 -110.25 42.55 -118.45 42.55 -122.1 42.55 -122.35 43.3 -122.6 44.0 -122.9 44.0 L-124.6 43.7 Q-124.95 43.5 -124.95 42.1 -124.95 38.7 -118.45 38.7 -107.8 38.7 -98.1 47.05 -95.25 49.5 -92.7 52.55 -86.4 51.35 -79.95 46.2 -81.55 45.55 -81.4 43.7 -81.25 41.5 -79.1 41.5 -76.7 41.5 -75.75 42.5 L-71.55 38.95 M-50.35 55.3 Q-47.45 53.1 -44.3 53.1 -41.15 53.1 -39.0 57.5 -37.95 59.7 -37.5 62.05 -37.5 63.4 -38.45 64.8 -40.1 67.2 -43.65 67.2 -48.75 67.2 -51.4 63.4 -52.75 61.5 -53.1 59.45 -53.1 57.45 -50.35 55.3 M-67.35 53.0 Q-67.1 53.5 -67.1 54.35 -67.1 55.2 -67.8 56.0 L-68.8 56.75 Q-73.6 56.75 -72.65 54.2 -72.65 51.75 -69.9 51.75 -68.0 51.75 -67.35 53.0 M-77.4 70.6 Q-84.75 68.0 -88.85 63.4 L-93.55 57.8 -95.45 58.3 Q-100.25 59.45 -106.5 61.9 -113.35 64.6 -115.5 66.4 L-118.95 71.8 -119.9 73.4 Q-115.6 76.15 -110.2 76.15 -106.0 76.15 -100.35 72.85 -94.7 69.55 -91.3 69.55 L-82.75 70.7 -78.95 70.6 -77.4 70.6 M-102.3 25.3 Q-100.85 25.4 -100.85 26.45 L-101.25 27.25 -103.1 27.35 -103.4 25.5 -102.3 25.3 M-91.3 33.45 Q-89.7 33.45 -89.0 34.6 -88.6 35.25 -88.6 35.85 -88.6 37.5 -91.85 37.5 L-93.5 37.15 -93.6 35.75 Q-93.6 34.65 -92.5 33.95 -91.75 33.45 -91.3 33.45" fill="url(#gradient3)" fill-rule="evenodd" stroke="none"/>
    <path d="M2.9 45.85 Q5.25 47.1 4.7 52.25 4.7 54.75 -2.65 60.45 -9.15 75.35 -14.2 75.35 L-14.5 75.35 -14.2 77.6 Q-14.2 78.85 -15.15 80.0 -16.4 81.5 -18.4 81.5 -23.95 81.5 -25.35 75.65 L-25.5 73.35 Q-31.35 70.15 -43.9 48.4 L-43.45 46.65 Q-45.3 45.3 -44.95 42.0 -44.95 32.75 -38.65 19.45 -32.0 5.5 -26.4 5.5 -24.2 5.5 -23.45 7.2 L-23.15 5.75 Q-22.75 4.1 -21.9 3.05 L-22.0 0.85 Q-22.0 -1.75 -19.5 -1.75 -17.65 -1.75 -16.5 1.35 -13.7 2.05 -13.4 5.8 -13.4 7.05 -13.8 8.95 -13.15 9.2 -12.95 9.75 -12.4 11.05 -10.0 11.4 -6.05 12.05 -5.65 15.1 -2.05 17.4 0.65 29.8 2.3 37.45 3.05 45.3 L2.9 45.85 M-21.1 26.8 L-23.15 31.3 -23.1 31.3 Q-22.1 29.8 -21.55 29.8 L-21.3 29.9 -21.1 26.8" fill="url(#gradient4)" fill-rule="evenodd" stroke="none"/>
    <path d="M-82.5 -56.85 L-81.7 -57.05 Q-78.4 -55.8 -77.85 -54.85 L-78.0 -54.55 -77.8 -54.85 -75.1 -58.65 Q-73.4 -60.85 -69.6 -62.75 L-66.4 -64.8 -67.1 -65.85 -67.55 -66.8 Q-68.6 -65.45 -69.05 -65.45 -69.75 -65.45 -70.3 -65.85 L-70.75 -66.1 Q-82.15 -59.95 -84.15 -58.6 L-85.8 -58.85 Q-77.0 -64.85 -64.55 -72.05 -50.65 -80.1 -49.05 -79.6 -52.9 -75.9 -65.3 -69.05 -64.1 -68.8 -63.95 -67.85 L-64.1 -66.25 Q-58.35 -69.8 -54.85 -71.25 -53.65 -72.15 -53.65 -70.8 L-53.65 -70.65 -52.25 -71.5 Q-51.25 -71.5 -50.35 -70.95 -51.15 -69.35 -55.65 -66.7 L-54.0 -66.65 -53.45 -65.75 Q-54.9 -64.2 -64.4 -59.3 L-66.85 -59.45 -67.0 -59.25 Q-67.2 -59.2 -67.2 -60.05 L-67.15 -60.3 -67.3 -60.2 -77.25 -53.9 -78.3 -54.0 -78.7 -53.25 Q-81.6 -53.85 -82.4 -56.55 -82.3 -56.65 -82.5 -56.85 M-66.65 -56.7 Q-66.65 -57.3 -60.0 -60.6 -53.3 -63.9 -52.45 -63.65 -54.35 -61.85 -66.1 -56.15 L-66.35 -55.9 Q-66.65 -55.8 -66.65 -56.7 M-1.85 -13.95 L-1.75 -14.35 -1.75 -13.95 -1.85 -13.95" fill="#000000" fill-opacity="0.7019608" fill-rule="evenodd" stroke="none"/>
    <path d="M-33.5 -3.5 L-33.6 -4.5 Q-33.6 -10.45 -30.55 -10.45 -29.15 -10.45 -28.75 -8.1 L-28.6 -5.6 Q-28.6 -4.4 -28.85 -4.15 -29.05 -4.0 -29.5 -3.8 -29.35 -3.5 -29.45 -3.05 L-30.0 -1.3 -28.5 2.1 Q-27.65 3.9 -27.25 5.35 L-25.3 6.9 Q-23.4 8.7 -23.1 9.45 L-24.1 9.95 Q-25.9 9.25 -26.2 9.3 L-26.4 9.55 Q-26.75 9.55 -27.25 9.2 -27.45 9.8 -27.8 10.2 L-27.55 11.4 -27.55 11.7 -27.25 11.75 -27.25 11.65 -23.3 11.2 -23.3 10.9 Q-23.3 10.1 -22.15 10.1 L-16.05 10.1 Q-16.8 6.9 -17.25 -2.75 L-22.65 -2.3 Q-22.65 5.8 -21.85 9.65 L-22.4 9.95 Q-23.35 9.35 -23.7 7.45 L-23.7 -1.55 Q-23.95 -1.35 -24.25 -1.3 L-25.4 -1.3 -26.1 -2.45 Q-25.9 -2.75 -24.75 -2.2 -23.95 -2.35 -23.7 -3.0 L-23.7 -3.55 -23.55 -3.55 -23.55 -3.95 Q-23.55 -4.4 -24.3 -5.9 -26.25 -5.7 -26.15 -4.9 -26.1 -3.9 -27.15 -3.55 -26.5 -6.6 -25.3 -6.6 -23.7 -6.6 -23.1 -5.4 -22.8 -4.85 -22.8 -4.1 L-22.8 -3.65 -16.6 -4.15 Q-15.85 -4.15 -15.25 1.6 L-14.75 1.5 Q-13.95 1.5 -13.2 4.4 -12.65 6.7 -12.65 7.55 L-12.9 9.55 -13.4 9.55 -13.85 5.7 Q-14.05 3.95 -15.15 3.3 L-14.65 10.35 Q-7.85 10.35 -7.35 11.0 L-7.3 10.3 -7.9 7.6 -7.15 7.45 -6.75 8.25 -6.7 8.25 -6.55 8.65 -6.5 8.8 Q-6.15 8.1 -5.6 8.1 L-5.5 7.9 Q-5.4 7.85 -5.4 8.7 L-5.5 9.1 -6.05 9.35 Q-6.2 9.3 -6.3 9.2 -3.75 14.8 0.1 24.85 4.5 36.45 4.5 37.95 4.5 38.95 3.75 40.55 L3.9 40.55 4.95 49.4 Q4.95 54.25 -4.95 66.1 -10.1 72.3 -17.55 80.4 L-17.35 80.6 -17.65 81.05 Q-41.75 61.9 -45.65 42.9 -46.65 40.25 -46.65 37.6 -46.65 33.05 -43.4 25.05 -40.5 17.9 -37.95 16.9 -39.6 15.95 -39.95 15.4 -40.25 14.95 -40.25 13.25 -40.25 11.5 -39.35 11.25 -38.75 12.1 -38.75 14.05 -38.6 14.05 -38.6 12.85 L-37.95 12.4 -37.45 13.85 -37.3 12.8 Q-38.8 11.8 -39.2 10.25 L-39.35 6.65 -39.25 3.1 Q-38.85 1.75 -37.7 1.0 L-37.7 0.85 -37.45 0.85 Q-36.5 0.3 -35.15 0.15 L-34.3 -1.15 -32.8 -2.95 -32.95 -3.35 -33.5 -3.5 M-11.65 -3.55 Q-11.0 -2.6 -10.75 -2.6 L-8.35 -2.75 -8.05 -2.9 Q-7.9 -2.95 -7.9 -3.75 -7.9 -5.2 -10.1 -6.05 -12.35 -6.95 -12.35 -5.2 -12.35 -4.6 -11.65 -3.55 M-10.65 -6.9 Q-7.2 -6.9 -6.9 -3.55 -6.9 -3.0 -7.6 -2.35 -8.25 -1.7 -8.65 -1.7 -12.95 -1.7 -12.95 -3.0 -13.6 -6.9 -10.65 -6.9 M-1.3 -9.35 L-1.75 -8.55 -2.45 -8.65 -2.3 -10.1 -1.95 -10.1 -1.3 -9.35 M-9.6 6.35 L-11.05 6.8 Q-12.3 5.6 -12.5 4.45 L-12.55 3.1 Q-12.45 2.75 -11.55 2.75 -9.1 2.75 -9.45 5.0 L-9.6 6.35 M-11.65 4.5 Q-11.3 4.85 -11.3 3.95 -10.75 3.95 -10.75 5.2 L-10.65 5.35 Q-10.5 5.05 -10.5 3.9 L-10.65 3.6 Q-11.65 3.6 -11.65 4.5 M-14.6 11.55 L-16.35 11.55 -20.85 12.0 -25.45 12.65 -24.9 13.05 -22.85 15.1 Q-23.1 15.5 -24.25 16.15 L-23.45 16.8 Q-22.85 17.3 -22.85 18.15 L-22.9 19.2 -14.75 18.9 -10.0 18.9 Q-9.0 18.95 -8.2 19.4 L-7.35 11.0 -14.6 11.45 -14.6 11.55 M-7.05 18.2 L-7.3 20.0 -6.3 21.3 -6.15 21.7 Q-5.55 22.1 -6.9 22.1 L-7.55 22.1 -8.15 25.6 -8.25 25.75 Q-6.7 31.8 -4.7 45.3 -4.7 46.65 -5.0 48.7 -10.0 25.6 -10.0 23.65 L-9.9 22.3 -9.35 22.3 -8.7 24.2 -8.45 21.95 -9.95 21.55 -23.25 21.0 -23.4 21.7 -24.05 21.0 -25.05 21.0 -26.1 21.1 -24.65 23.0 Q-24.9 23.4 -24.65 23.75 L-26.6 23.2 -25.65 27.4 -17.95 28.1 Q-12.65 28.8 -11.85 29.15 L-11.85 29.2 -25.6 28.35 -25.7 28.7 -25.95 29.15 -26.5 28.3 -27.1 28.25 -27.15 28.35 -27.45 28.25 -31.35 28.05 -31.35 27.25 -30.9 27.25 -28.45 27.3 -29.0 25.75 Q-29.25 23.25 -29.45 22.55 -29.45 23.15 -29.9 23.55 L-30.9 23.55 -31.2 21.6 -31.55 21.4 -30.9 23.75 -31.35 24.2 Q-33.05 23.15 -33.95 20.4 L-35.05 23.2 Q-38.2 31.25 -38.75 36.35 L-39.25 36.4 Q-38.6 29.1 -34.25 19.1 L-34.5 18.0 -35.2 18.0 -36.15 16.95 -39.8 26.05 Q-40.8 27.05 -40.8 25.7 L-40.6 24.35 -41.55 26.55 Q-45.1 34.75 -45.1 37.6 -45.1 44.35 -35.85 52.2 L-27.15 59.2 Q-22.0 63.4 -18.6 66.9 2.85 42.6 2.85 38.8 L-1.9 26.2 Q-4.95 18.35 -6.45 13.2 L-7.05 18.2 M-33.9 8.65 L-34.35 10.4 -34.4 10.65 -34.2 11.0 -33.15 11.05 -33.7 9.35 -33.85 8.7 -33.9 8.65 M-31.65 12.3 L-31.7 12.8 -31.6 13.05 -31.6 12.65 -31.5 12.3 -31.65 12.3 M-33.05 12.4 L-33.6 12.2 Q-33.05 13.6 -32.65 15.6 L-31.95 14.15 -32.95 12.4 -33.05 12.4 M-31.0 15.65 L-31.7 14.6 -32.5 16.65 -31.6 21.2 -31.3 20.95 -31.6 18.35 -31.0 15.65 M-27.9 18.4 L-27.05 19.4 -25.2 19.3 -26.25 17.3 -27.8 14.15 Q-27.95 15.8 -28.4 16.95 L-27.9 18.4 M-23.2 31.2 L-18.8 31.45 -17.1 32.2 -22.1 32.5 -29.25 31.9 -23.2 31.2 M-32.3 25.75 L-34.7 36.25 -36.85 46.05 -34.75 45.45 -31.3 44.85 -31.35 43.75 -31.3 43.15 Q-33.1 43.75 -34.0 44.85 -34.65 44.85 -35.05 44.55 -33.5 43.35 -31.3 42.7 -30.85 33.05 -30.85 28.3 L-30.45 28.3 Q-30.3 29.45 -30.3 32.65 L-30.65 42.5 -26.25 41.8 -19.5 41.85 Q-16.4 41.85 -13.4 42.8 L-13.4 42.9 -19.65 42.55 -28.4 42.6 -30.65 42.95 -30.75 44.8 -26.6 44.55 Q-10.5 44.55 -7.6 49.0 -14.0 46.2 -26.5 46.2 L-30.8 46.25 -30.85 47.6 -31.2 46.25 -35.45 46.6 -37.1 47.3 -37.3 49.05 -37.7 49.05 -37.8 47.8 -38.05 47.95 Q-39.05 49.0 -39.05 47.6 -39.05 47.0 -37.9 46.45 L-37.95 44.95 Q-37.95 42.95 -35.5 34.0 L-33.05 25.0 -32.55 25.0 -32.3 25.75 M-3.8 61.9 Q2.85 54.05 2.85 45.95 L2.95 42.15 Q0.4 46.5 -6.1 54.1 -12.85 62.05 -18.2 67.35 L-18.15 67.4 -18.95 68.1 -30.4 59.25 -39.15 52.1 -42.95 47.85 Q-36.9 61.95 -18.0 80.0 -14.85 74.7 -10.6 69.6 L-3.8 61.9" fill="#000000" fill-rule="evenodd" stroke="none"/>
    <path d="M7.6 11.0 L7.6 11.3 Q6.35 10.8 4.4 9.0 2.1 6.95 0.65 6.05 L0.65 5.05 1.2 5.05 7.6 11.0 M10.9 67.05 Q7.3 68.75 6.5 69.85 L6.05 69.7 Q6.8 68.85 10.9 67.05 M0.3 68.55 Q1.4 66.0 12.75 61.6 22.0 58.0 25.4 57.3 L12.45 62.2 Q1.15 66.65 0.3 68.55 M48.15 63.35 L46.6 63.35 46.85 62.95 48.15 63.35 M-41.8 49.0 L-41.9 49.4 Q-44.0 47.7 -44.0 46.75 L-43.55 46.75 Q-41.8 48.5 -41.8 49.0 M-53.7 51.45 L-55.2 50.05 -55.1 49.8 -54.55 49.8 Q-53.95 49.8 -53.05 50.45 -51.1 50.5 -40.45 59.4 L-38.2 61.25 -33.05 63.5 -32.65 64.35 -33.75 64.65 -34.15 64.6 -25.55 71.7 -25.45 71.9 -26.4 72.05 Q-27.4 72.05 -36.8 64.45 -39.75 64.05 -45.05 62.25 -52.55 59.65 -54.7 59.3 -59.2 58.65 -63.3 57.1 L-91.6 56.2 -91.75 55.85 -83.3 54.75 -78.3 54.65 Q-60.6 54.65 -48.55 58.2 L-53.45 55.65 -52.85 55.65 Q-51.0 55.65 -43.55 58.9 L-51.15 52.55 Q-52.55 52.5 -53.7 51.45 M-55.85 49.8 Q-54.95 49.95 -54.55 51.15 -55.25 51.3 -56.15 50.05 L-55.85 49.8 M-3.4 57.3 L-1.95 57.2 -1.75 57.85 Q-3.15 57.75 -3.4 57.3 M-6.7 60.5 Q-6.4 61.45 -6.6 62.05 -7.2 62.9 -7.2 61.5 L-7.15 60.5 -6.7 60.5 M-5.05 68.85 L-4.85 70.1 Q-4.85 71.5 -5.0 70.7 L-5.0 70.95 -6.05 70.4 Q-6.15 71.15 -6.15 69.75 -6.15 68.85 -5.05 68.85 M-2.85 69.15 Q3.45 53.45 8.0 48.4 3.75 55.05 -2.1 68.5 L-0.25 69.15 -2.85 69.15 M-28.7 65.55 L-29.9 65.5 -30.15 64.55 -29.45 64.1 -28.45 64.8 -28.7 65.55 M-21.55 70.7 L-21.55 70.75 -21.2 70.95 -21.0 71.25 -20.75 71.5 Q-20.7 71.7 -21.55 71.7 -22.7 71.7 -22.9 71.35 L-23.0 71.05 -23.2 71.0 -23.15 70.75 -23.55 69.95 -23.1 69.85 -22.9 70.0 Q-22.6 69.15 -21.85 69.15 -21.55 69.55 -21.55 70.7" fill="#ffffff" fill-rule="evenodd" stroke="none"/>
    <path d="M-16.8 -2.05 Q-15.7 -2.05 -14.75 4.55 -14.35 7.5 -14.1 10.6 L-11.3 10.1 Q-9.85 10.1 -8.05 12.8 L-7.35 13.85 Q-6.65 13.4 -5.75 13.4 -1.4 13.4 3.75 36.95 3.75 38.85 2.35 41.35 0.4 44.85 -2.85 44.85 -4.9 44.85 -5.8 44.1 L-5.85 44.05 Q-6.55 43.4 -6.45 42.25 -7.25 38.5 -8.65 27.5 -10.0 21.75 -10.0 19.7 L-10.0 19.5 Q-11.8 20.2 -14.55 20.7 -13.2 21.25 -11.95 31.0 -11.25 36.15 -10.9 41.45 L-11.5 42.85 -11.7 43.2 Q-10.25 44.35 -8.65 44.85 -6.6 45.5 -6.6 46.3 L-6.7 46.95 -5.75 46.3 -4.15 47.95 Q-4.15 48.6 -9.45 54.2 -15.05 60.05 -17.35 61.35 -19.25 61.2 -19.25 60.05 -19.25 59.2 -14.4 54.05 -11.7 51.15 -9.45 49.2 -11.35 48.95 -14.1 47.55 -17.3 46.0 -24.1 46.3 L-23.85 49.45 Q-24.1 51.25 -26.6 51.25 -29.2 51.25 -32.65 49.0 L-34.85 47.25 -35.05 47.3 -35.55 47.3 -30.3 55.1 Q-20.0 70.7 -20.0 71.2 -20.0 72.05 -20.8 73.0 -21.5 73.8 -21.85 73.8 -24.4 73.8 -29.0 68.55 L-34.9 61.05 -40.95 53.75 Q-41.35 53.1 -41.35 48.5 -44.65 43.35 -44.65 41.55 -44.65 39.1 -42.1 39.1 -41.45 39.1 -38.1 43.65 L-34.05 32.75 -31.45 25.3 -29.7 21.0 Q-31.45 20.25 -30.9 18.35 -30.9 17.3 -29.6 15.65 -27.85 13.4 -24.75 12.75 L-24.65 12.75 Q-24.15 12.4 -23.7 12.4 L-23.25 12.45 -17.1 11.2 Q-18.1 8.0 -19.1 0.0 -19.1 -0.9 -18.15 -1.55 L-16.8 -2.05 M-18.45 31.65 Q-16.1 21.65 -14.95 20.75 L-20.4 21.3 Q-19.55 22.3 -19.55 23.2 -19.55 24.5 -23.3 37.5 -18.95 37.65 -16.85 38.6 -15.8 39.05 -14.7 40.2 L-15.0 38.7 Q-15.15 34.75 -15.4 33.1 L-18.15 32.9 Q-18.45 33.05 -18.45 31.65" fill="#000000" fill-opacity="0.3529412" fill-rule="evenodd" stroke="none"/>
    <path d="M93.85 -74.45 L95.05 -74.5 95.05 -74.05 93.85 -74.45 M95.05 -75.45 L95.05 -75.15 91.45 -75.25 90.8 -75.45 95.05 -75.45" fill="url(#gradient5)" fill-rule="evenodd" stroke="none"/>
    <path d="M7.75 -14.8 L22.0 -16.9 -53.7 -66.85 -53.95 -66.5 -60.85 -61.75 -61.1 -61.65 -41.95 -15.8 Q-28.15 -26.6 7.75 -14.8 M41.0 -19.05 L42.55 -17.95 Q62.5 -9.55 84.4 -12.25 L95.05 -73.9 80.55 -72.8 41.0 -19.05 M93.85 -74.45 L95.05 -74.05 95.05 -74.5 93.85 -74.45 M95.05 -75.45 L129.05 -75.45 129.05 80.7 -127.8 80.7 -127.8 -75.45 81.75 -75.0 93.45 -74.6 92.25 -74.95 104.25 -74.95 95.05 -75.15 95.05 -75.45" fill="url(#gradient6)" fill-rule="evenodd" stroke="none"/>
    <path d="M7.75 -14.8 Q-28.15 -26.6 -41.95 -15.8 L-61.1 -61.65 -60.85 -61.75 -53.95 -66.5 -53.7 -66.85 22.0 -16.9 7.75 -14.8" fill="url(#gradient7)" fill-rule="evenodd" stroke="none"/>
    <path d="M41.0 -19.05 L80.55 -72.8 95.05 -73.9 84.4 -12.25 Q62.5 -9.55 42.55 -17.95 L41.0 -19.05" fill="url(#gradient8)" fill-rule="evenodd" stroke="none"/>
  </g>
  <defs>
    <radialGradient cx="0" cy="0" gradientTransform="matrix(0.3168, 0.0, 0.0, 0.1921, -1.05, -9.5)" gradientUnits="userSpaceOnUse" id="gradient0" r="819.2" spreadMethod="pad">
      <stop offset="0.0" stop-color="#a75050"/>
      <stop offset="0.596078431372549" stop-color="#483a5f"/>
      <stop offset="1.0" stop-color="#3d2640"/>
    </radialGradient>
    <linearGradient gradientTransform="matrix(7.0E-4, 0.0186, -0.0904, 0.0036, 35.0, -23.65)" gradientUnits="userSpaceOnUse" id="gradient1" spreadMethod="pad" x1="-819.2" x2="819.2">
      <stop offset="0.0" stop-color="#000000" stop-opacity="0.33333334"/>
      <stop offset="1.0" stop-color="#000000" stop-opacity="0.7921569"/>
    </linearGradient>
    <radialGradient cx="0" cy="0" gradientTransform="matrix(-0.0143, 0.1202, -0.2078, -0.0248, -7.95, 54.85)" gradientUnits="userSpaceOnUse" id="gradient2" r="819.2" spreadMethod="pad">
      <stop offset="0.0" stop-color="#094d91"/>
      <stop offset="0.48627450980392156" stop-color="#2f346a"/>
      <stop offset="1.0" stop-color="#814755"/>
    </radialGradient>
    <linearGradient gradientTransform="matrix(0.0035, 0.0662, -0.1659, 0.0087, -0.05, 28.85)" gradientUnits="userSpaceOnUse" id="gradient3" spreadMethod="pad" x1="-819.2" x2="819.2">
      <stop offset="0.0" stop-color="#ffffff" stop-opacity="0.0"/>
      <stop offset="1.0" stop-color="#ffffff" stop-opacity="0.21176471"/>
    </linearGradient>
    <radialGradient cx="0" cy="0" gradientTransform="matrix(0.059, 0.0031, -0.0031, 0.059, -19.0, 7.9)" gradientUnits="userSpaceOnUse" id="gradient4" r="819.2" spreadMethod="pad">
      <stop offset="0.0" stop-color="#a75050"/>
      <stop offset="0.5058823529411764" stop-color="#603531"/>
      <stop offset="1.0" stop-color="#363454"/>
    </radialGradient>
    <linearGradient gradientTransform="matrix(0.1568, 0.0, 0.0, 0.0953, 0.6, 2.6)" gradientUnits="userSpaceOnUse" id="gradient5" spreadMethod="pad" x1="-819.2" x2="819.2">
      <stop offset="0.0" stop-color="#000000" stop-opacity="0.38039216"/>
      <stop offset="1.0" stop-color="#000000" stop-opacity="0.53333336"/>
    </linearGradient>
    <linearGradient gradientTransform="matrix(0.0064, -0.1045, 0.162, 0.0099, 0.65, 2.65)" gradientUnits="userSpaceOnUse" id="gradient6" spreadMethod="pad" x1="-819.2" x2="819.2">
      <stop offset="0.26666666666666666" stop-color="#000000" stop-opacity="0.17254902"/>
      <stop offset="1.0" stop-color="#000000" stop-opacity="0.6901961"/>
    </linearGradient>
    <linearGradient gradientTransform="matrix(-0.0243, -0.0429, 0.0298, -0.0169, -22.4, -38.15)" gradientUnits="userSpaceOnUse" id="gradient7" spreadMethod="pad" x1="-819.2" x2="819.2">
      <stop offset="0.0" stop-color="#fdfd93" stop-opacity="0.38039216"/>
      <stop offset="1.0" stop-color="#fdfc79" stop-opacity="0.0"/>
    </linearGradient>
    <linearGradient gradientTransform="matrix(-0.0164, -0.029, 0.0393, -0.0223, 73.25, -37.25)" gradientUnits="userSpaceOnUse" id="gradient8" spreadMethod="pad" x1="-819.2" x2="819.2">
      <stop offset="0.0" stop-color="#fdfd93" stop-opacity="0.38039216"/>
      <stop offset="1.0" stop-color="#fdfc79" stop-opacity="0.0"/>
    </linearGradient>
  </defs>
</svg>
