<?xml version="1.0" encoding="UTF-8" standalone="no"?>
<svg xmlns:ffdec="https://www.free-decompiler.com/flash" xmlns:xlink="http://www.w3.org/1999/xlink" ffdec:objectType="shape" height="204.1px" width="310.25px" xmlns="http://www.w3.org/2000/svg">
  <g transform="matrix(1.0, 0.0, 0.0, 1.0, 144.25, 86.1)">
    <path d="M127.95 -77.5 L127.95 78.5 -126.0 78.5 -126.0 -77.5 127.95 -77.5" fill="#000000" fill-rule="evenodd" stroke="none"/>
    <path d="M127.95 -77.5 L127.95 78.5 -126.0 78.5 -126.0 -77.5 127.95 -77.5 Z" fill="none" stroke="#000000" stroke-linecap="round" stroke-linejoin="round" stroke-width="1.0"/>
    <path d="M-6.7 -82.55 L130.85 -35.75 130.85 82.05 -129.7 82.05 -129.7 -82.55 -6.7 -82.55" fill="url(#gradient0)" fill-rule="evenodd" stroke="none"/>
    <path d="M-6.7 -82.55 L130.85 -82.55 130.85 -35.75 -6.7 -82.55" fill="url(#gradient1)" fill-rule="evenodd" stroke="none"/>
    <path d="M130.85 -35.75 L165.5 -24.0 M-11.0 -84.0 L-6.7 -82.55 130.85 -35.75" fill="none" stroke="#000000" stroke-linecap="round" stroke-linejoin="round" stroke-width="1.0"/>
    <path d="M57.4 -66.8 Q59.65 -66.6 60.85 -63.7 L61.0 -63.75 Q61.8 -63.4 62.25 -62.75 62.25 -61.8 61.05 -61.25 60.5 -59.85 58.4 -59.85 55.0 -61.1 53.75 -61.1 49.75 -59.75 49.5 -59.75 L46.95 -59.95 Q46.3 -58.25 41.0 -55.0 35.3 -51.45 31.65 -51.1 29.15 -49.4 25.75 -48.9 24.9 -47.95 23.0 -47.5 L17.25 -47.0 15.25 -46.0 14.9 -45.8 15.45 -45.0 Q18.55 -44.45 20.3 -40.05 L21.55 -34.9 Q21.55 -31.05 19.6 -26.5 16.6 -19.75 11.0 -19.75 L8.3 -20.0 Q7.4 -19.55 5.5 -19.3 -2.6 -18.0 -8.85 -14.5 -9.8 -13.95 -12.35 -10.9 L-17.6 -0.95 -20.35 3.6 -19.65 4.2 Q-15.55 8.1 -13.75 11.5 L-13.4 12.45 -13.0 12.8 Q-8.35 16.45 -8.35 23.5 -8.35 29.05 -10.35 35.75 -12.1 41.6 -14.9 44.4 -17.8 49.4 -26.55 53.45 -35.3 57.55 -39.5 57.55 -50.05 57.55 -59.75 47.05 -62.5 44.05 -64.6 40.85 L-66.05 40.0 -65.25 41.05 Q-70.15 37.95 -71.9 34.65 -73.25 32.15 -73.25 28.05 -73.25 22.6 -71.1 18.8 L-70.25 15.3 -70.5 15.1 Q-72.2 14.6 -71.75 13.0 L-71.4 11.35 -71.6 11.0 Q-71.6 9.1 -69.0 5.55 -66.95 2.8 -64.8 1.85 -61.4 -3.1 -57.0 -3.1 L-56.05 -2.95 Q-55.75 -3.15 -55.4 -3.3 L-49.75 -7.1 Q-46.65 -10.6 -39.85 -15.65 -32.1 -21.45 -23.6 -26.6 -20.5 -28.5 -17.6 -32.65 -14.65 -36.75 -11.75 -38.6 -8.9 -40.35 -4.6 -45.0 -1.25 -47.75 3.7 -48.45 L4.1 -48.8 4.05 -49.3 Q4.05 -51.35 7.75 -53.6 11.65 -56.0 16.0 -56.0 L19.9 -55.55 20.25 -55.75 Q25.05 -58.25 30.0 -58.25 L32.7 -58.0 34.75 -58.75 Q35.1 -58.8 38.25 -61.2 41.75 -63.5 44.0 -63.5 45.7 -63.5 46.45 -62.35 47.25 -63.65 49.5 -64.85 L49.55 -64.85 49.5 -65.5 Q49.5 -69.35 53.0 -69.35 56.8 -69.35 57.4 -66.8 M-71.2 21.1 Q-71.75 24.05 -71.75 28.15 -71.75 32.25 -70.5 34.35 L-69.35 35.8 -69.85 34.55 Q-70.65 32.3 -70.9 29.45 L-71.0 26.85 -70.8 22.65 -71.2 21.1" fill="url(#gradient2)" fill-rule="evenodd" stroke="none"/>
    <path d="M1.05 -39.3 Q2.95 -40.75 5.0 -40.75 6.85 -40.75 7.9 -39.75 9.15 -43.2 11.15 -44.65 L8.5 -44.6 Q3.1 -44.6 3.55 -48.5 3.55 -51.85 9.0 -54.0 13.95 -55.95 21.0 -56.0 22.6 -57.35 26.0 -57.35 29.1 -57.35 29.3 -53.75 29.3 -52.15 27.85 -50.75 L27.0 -50.05 Q25.85 -48.55 22.55 -47.1 20.0 -46.0 16.95 -45.35 20.55 -44.1 21.05 -38.55 21.0 -33.35 19.8 -28.6 17.5 -19.25 12.0 -19.25 10.05 -19.25 8.75 -20.25 L8.7 -20.25 Q7.2 -18.6 5.4 -18.6 4.1 -18.6 2.85 -19.55 -3.4 -17.35 -7.95 -15.0 L-10.5 -11.6 -16.25 -4.3 Q-16.4 -2.65 -16.85 -1.15 -17.85 2.0 -19.7 2.05 -20.75 0.3 -21.5 0.3 -22.75 0.3 -22.5 0.55 L-22.6 1.4 -22.9 1.05 -23.0 1.05 -23.55 1.05 -22.6 1.6 Q-21.15 5.95 -19.95 8.1 L-21.0 7.05 Q-23.75 4.55 -26.5 4.55 -27.75 4.55 -27.6 4.8 -27.55 6.45 -23.25 8.6 -18.75 10.55 -18.25 10.8 L-18.25 10.55 -18.65 9.8 -18.0 10.05 Q-17.1 10.05 -16.85 8.8 L-18.05 5.55 Q-15.0 9.05 -12.75 14.35 -9.4 22.2 -8.85 30.05 -8.85 38.2 -16.95 45.55 L-17.0 47.85 Q-22.9 57.55 -30.25 57.55 -32.35 57.55 -33.95 55.65 L-37.5 56.3 Q-52.3 56.3 -58.75 50.25 -61.85 47.35 -63.35 42.6 L-64.2 41.8 Q-66.8 39.85 -69.0 34.05 -70.6 29.8 -71.45 25.4 -71.9 24.3 -71.6 22.5 L-71.3 18.65 Q-72.4 17.85 -72.25 15.85 -72.25 10.55 -66.15 2.55 -60.35 -5.0 -53.65 -6.55 -48.05 -12.05 -41.65 -14.85 -42.75 -14.0 -42.75 -12.15 L-42.65 -11.85 -43.0 -11.85 -43.0 -10.6 -42.05 -10.25 Q-40.8 -7.0 -39.6 -5.7 -43.25 -3.35 -51.25 2.75 -53.4 4.35 -57.4 8.75 L-56.45 11.55 -52.6 7.8 Q-47.75 3.6 -42.2 1.05 -36.95 -1.35 -33.25 -1.35 L-32.7 -1.35 Q-32.1 0.05 -31.05 0.05 L-30.25 -0.25 -30.4 -1.15 -27.2 -0.5 -27.85 -1.65 Q-28.35 -3.05 -28.1 -4.55 L-27.95 -5.1 Q-27.05 -4.0 -26.5 -4.0 L-25.25 -4.35 -25.0 -5.5 -27.5 -10.85 -27.35 -11.55 -28.4 -12.6 -28.6 -13.0 -31.3 -17.55 -27.5 -17.75 -24.45 -17.5 -24.35 -18.25 Q-24.35 -19.55 -26.05 -21.4 -27.75 -23.2 -27.75 -25.0 -27.75 -27.75 -25.0 -27.75 -19.45 -27.75 -17.35 -21.9 L-16.65 -19.4 -13.25 -22.25 -11.55 -23.15 -11.1 -23.6 -7.5 -28.0 -8.1 -28.25 -8.25 -29.55 Q-8.25 -31.45 -5.75 -36.85 -2.9 -43.0 -0.75 -43.0 0.5 -43.0 0.5 -41.6 L0.25 -40.9 Q-5.1 -38.6 -5.1 -25.75 L-4.85 -24.95 -5.1 -24.0 Q-5.1 -20.1 0.75 -20.1 3.15 -20.1 4.75 -21.5 L5.5 -22.3 Q6.3 -22.7 6.3 -23.9 L6.3 -24.35 6.3 -24.85 Q6.4 -27.35 4.0 -27.35 -0.3 -27.35 -2.55 -26.6 L-1.7 -32.7 Q-1.0 -36.45 1.05 -39.3 M-40.05 -15.5 L-39.75 -15.6 -39.75 -15.55 -40.05 -15.5 M-38.6 -16.0 L-34.9 -17.0 -34.15 -16.5 Q-31.2 -10.1 -29.25 -7.0 L-33.55 -7.15 -35.8 -7.05 -35.8 -7.1 -35.75 -8.05 -36.25 -11.9 Q-36.95 -15.0 -38.4 -15.5 L-38.6 -16.0 M-9.6 -17.25 L-9.25 -17.85 Q-9.25 -18.5 -10.5 -18.75 L-11.25 -17.75 -9.6 -17.25 M-18.35 24.5 Q-17.0 24.5 -17.0 22.6 -17.0 22.05 -17.25 21.5 -17.75 20.5 -19.0 20.5 -21.0 20.5 -21.0 22.5 L-20.75 24.0 -18.35 24.5 M-35.0 14.55 Q-49.6 15.65 -49.6 27.0 -48.6 40.0 -41.65 40.0 -28.6 40.0 -24.85 26.85 -24.85 22.55 -26.1 19.4 -28.6 13.35 -35.0 14.55 M-9.4 30.0 Q-9.75 29.25 -11.0 29.25 -12.75 29.25 -12.75 30.85 L-12.6 32.25 -10.35 32.75 Q-9.25 32.75 -9.25 30.9 -9.25 30.3 -9.4 30.0 M-60.2 11.9 L-64.9 17.5 -65.45 19.05 -65.65 19.7 -66.0 23.0 Q-66.0 24.3 -64.55 27.8 -63.55 20.55 -58.65 14.15 -59.55 13.4 -60.2 11.9 M-63.85 34.0 Q-64.6 34.95 -64.6 36.0 -65.0 39.05 -61.5 39.05 -58.35 39.05 -58.35 35.85 -58.35 35.0 -58.75 34.25 -59.5 32.8 -61.5 32.8 -62.9 32.8 -63.85 34.0 M-68.25 15.55 L-67.85 15.55 Q-63.8 5.05 -57.25 -0.85 -60.45 0.65 -64.0 6.25 -67.2 11.35 -68.25 15.55" fill="#000000" fill-opacity="0.2627451" fill-rule="evenodd" stroke="none"/>
    <path d="M-19.7 2.05 Q-18.95 3.35 -18.05 5.55 L-16.85 8.8 Q-17.1 10.05 -18.0 10.05 L-18.65 9.8 -18.25 10.55 -18.25 10.8 Q-18.75 10.55 -23.25 8.6 -27.55 6.45 -27.6 4.8 -27.75 4.55 -26.5 4.55 -23.75 4.55 -21.0 7.05 L-19.95 8.1 Q-21.15 5.95 -22.6 1.6 L-22.6 1.4 -22.5 0.55 Q-22.75 0.3 -21.5 0.3 -20.75 0.3 -19.7 2.05 M-41.65 -14.85 L-40.05 -15.5 -39.75 -15.55 -39.75 -15.6 Q-39.7 -16.5 -39.5 -16.35 L-38.75 -16.35 -38.6 -16.0 -38.4 -15.5 Q-36.95 -15.0 -36.25 -11.9 L-35.75 -8.05 -35.8 -7.1 -35.8 -7.05 -35.6 -6.05 -35.75 -5.5 -35.65 -5.3 -36.5 -5.1 -36.65 -5.25 Q-37.2 -4.85 -38.05 -4.85 -38.8 -4.85 -39.6 -5.7 -40.8 -7.0 -42.05 -10.25 L-43.0 -10.6 -43.0 -11.85 -42.65 -11.85 -42.75 -12.15 Q-42.75 -14.0 -41.65 -14.85 M-34.9 -17.0 L-35.5 -18.4 -35.35 -19.05 -35.5 -19.4 -35.35 -20.25 Q-35.75 -20.5 -34.5 -20.5 -33.3 -20.5 -31.3 -17.55 L-28.6 -13.0 -28.4 -12.6 -27.35 -11.55 -27.5 -10.85 -25.0 -5.5 -25.25 -4.35 -26.5 -4.0 Q-27.05 -4.0 -27.95 -5.1 L-29.25 -7.0 Q-31.2 -10.1 -34.15 -16.5 L-34.9 -17.0 M0.25 -40.9 L0.5 -41.0 Q1.45 -40.55 1.55 -40.0 L1.05 -39.3 Q-1.0 -36.45 -1.7 -32.7 L-2.55 -26.6 Q-0.3 -27.35 4.0 -27.35 6.4 -27.35 6.3 -24.85 L6.3 -24.35 6.3 -23.9 Q6.3 -22.7 5.5 -22.3 L4.75 -21.5 Q3.15 -20.1 0.75 -20.1 -5.1 -20.1 -5.1 -24.0 L-4.85 -24.95 -5.1 -25.75 Q-5.1 -38.6 0.25 -40.9 M-30.4 -1.15 L-30.25 -0.25 -31.05 0.05 Q-32.1 0.05 -32.7 -1.35 L-32.85 -1.75 -33.75 -5.1 -33.35 -5.1 Q-32.1 -5.1 -31.1 -3.05 L-30.4 -1.15 M-9.6 -17.25 L-11.25 -17.75 -10.5 -18.75 Q-9.25 -18.5 -9.25 -17.85 L-9.6 -17.25 M-18.35 24.5 L-20.75 24.0 -21.0 22.5 Q-21.0 20.5 -19.0 20.5 -17.75 20.5 -17.25 21.5 -17.0 22.05 -17.0 22.6 -17.0 24.5 -18.35 24.5 M-9.4 30.0 Q-9.25 30.3 -9.25 30.9 -9.25 32.75 -10.35 32.75 L-12.6 32.25 -12.75 30.85 Q-12.75 29.25 -11.0 29.25 -9.75 29.25 -9.4 30.0 M-68.25 15.55 Q-67.2 11.35 -64.0 6.25 -60.45 0.65 -57.25 -0.85 -63.8 5.05 -67.85 15.55 L-68.25 15.55 M-63.85 34.0 Q-62.9 32.8 -61.5 32.8 -59.5 32.8 -58.75 34.25 -58.35 35.0 -58.35 35.85 -58.35 39.05 -61.5 39.05 -65.0 39.05 -64.6 36.0 -64.6 34.95 -63.85 34.0" fill="#ffffff" fill-opacity="0.2627451" fill-rule="evenodd" stroke="none"/>
    <path d="M65.5 -62.95 Q66.25 -62.2 66.25 -60.35 66.25 -58.1 65.2 -57.4 64.5 -56.95 61.6 -56.55 52.95 -55.3 44.5 -50.5 39.0 -47.2 34.8 -44.95 26.9 -40.75 24.0 -40.75 17.55 -40.75 17.55 -44.4 17.55 -47.4 23.15 -50.05 L35.05 -55.6 Q38.6 -57.55 45.35 -61.8 51.4 -65.0 57.25 -65.0 63.65 -65.0 65.5 -62.95" fill="#000000" fill-opacity="0.37254903" fill-rule="evenodd" stroke="none"/>
    <path d="M15.4 75.0 L-8.1 68.05 Q-52.35 58.75 -52.35 55.0 -52.35 52.5 -49.0 52.5 -42.7 52.5 -34.45 53.8 -26.25 52.9 -22.25 51.55 -18.8 50.4 -15.4 47.5 L-14.45 46.65 -11.4 41.4 -10.05 34.2 Q-9.3 30.85 -8.15 29.1 -9.35 24.7 -13.8 17.7 -19.85 8.15 -19.85 4.85 -8.05 -18.35 -2.55 -18.5 1.25 -20.35 10.25 -20.35 16.55 -20.35 18.2 -26.85 L19.3 -30.7 Q16.75 -32.95 16.75 -34.55 16.75 -36.75 19.0 -36.75 20.1 -36.75 50.05 -22.75 55.35 -20.3 68.5 -15.85 73.3 -14.0 75.9 -12.35 79.9 -12.15 79.8 -7.85 79.8 -6.3 75.8 -1.1 71.5 4.5 69.0 4.5 62.05 4.5 58.35 3.15 54.65 1.75 50.0 1.75 34.55 1.75 28.25 7.9 24.85 11.25 23.0 17.05 22.65 17.6 19.45 24.5 L21.4 26.9 27.8 34.75 Q29.35 36.25 33.1 41.15 35.9 44.85 38.5 47.15 L27.45 59.8 Q20.45 68.1 15.4 75.0 M42.15 50.5 Q46.55 55.25 47.0 61.0 L47.8 73.85 Q47.8 79.05 44.85 80.4 43.8 81.25 41.55 81.25 37.7 81.25 17.6 75.6 28.9 64.6 42.15 50.5" fill="url(#gradient3)" fill-rule="evenodd" stroke="none"/>
    <path d="M15.05 -68.5 Q15.05 -70.25 16.25 -71.9 17.95 -74.25 21.25 -74.25 26.75 -74.25 26.75 -69.35 26.75 -67.55 25.55 -66.0 23.8 -63.6 20.0 -63.6 15.5 -63.6 15.05 -68.5 M0.5 -67.75 Q-4.1 -67.75 -3.75 -72.8 -3.75 -74.35 -2.6 -75.6 -1.2 -77.25 1.5 -77.25 6.1 -77.25 6.5 -73.05 L6.45 -72.6 Q19.0 -84.25 23.05 -86.1 L-20.65 -43.2 Q-46.5 -17.65 -66.0 -1.75 L-66.35 -2.0 Q-57.35 -10.3 -24.05 -42.95 -25.1 -42.25 -26.5 -42.25 -30.2 -42.25 -30.25 -45.45 L-30.6 -46.0 -30.1 -46.95 -29.25 -48.5 Q-28.15 -49.75 -26.5 -49.75 -24.1 -49.75 -23.0 -47.9 L-22.35 -46.0 Q-22.35 -44.95 -23.2 -43.8 L-22.25 -44.75 1.5 -67.85 0.5 -67.75 M2.25 -64.25 Q3.1 -65.35 4.5 -65.35 6.9 -65.35 7.3 -62.5 6.65 -59.6 5.25 -59.6 1.0 -59.6 1.55 -62.55 1.55 -63.35 2.25 -64.25 M38.5 47.15 L48.0 36.25 Q87.6 -8.85 92.6 -8.85 93.45 -8.85 97.6 -13.6 102.45 -19.15 104.55 -20.6 69.35 21.5 42.15 50.5 28.9 64.6 17.6 75.6 L9.75 83.05 Q12.2 79.3 15.4 75.0 20.45 68.1 27.45 59.8 L38.5 47.15 M77.5 -35.9 Q77.5 -34.75 76.6 -33.85 75.65 -33.0 74.5 -33.0 72.55 -33.0 71.8 -34.4 L71.5 -35.85 Q71.5 -39.0 74.5 -39.0 77.85 -39.0 77.5 -35.9 M133.3 -50.5 Q133.2 -49.75 132.0 -49.75 L131.55 -50.1 131.55 -51.1 132.75 -51.25 133.3 -50.5 M94.5 -53.1 Q97.9 -53.1 98.05 -49.5 97.65 -45.85 95.3 -45.85 92.0 -45.85 91.05 -47.6 L90.8 -49.55 Q90.8 -53.1 94.5 -53.1 M98.55 -69.4 Q98.55 -74.25 105.0 -74.25 108.6 -74.25 109.25 -69.85 109.25 -68.85 107.55 -66.85 105.65 -64.6 104.0 -64.6 100.3 -64.6 99.05 -67.0 L98.55 -69.4 M110.55 -55.4 Q110.55 -58.85 114.0 -58.85 117.05 -58.85 117.3 -55.6 117.3 -52.25 114.0 -52.25 111.5 -52.25 110.8 -53.75 L110.55 -55.4 M117.8 -54.4 Q117.8 -57.25 120.5 -57.25 123.8 -57.25 123.55 -54.4 123.55 -52.0 120.65 -52.0 117.8 -52.0 117.8 -54.4 M118.3 -38.9 L118.95 -37.4 Q120.3 -39.85 123.5 -39.85 133.3 -39.85 133.3 -33.35 133.3 -31.25 131.55 -28.1 129.05 -23.6 125.0 -23.6 120.45 -23.6 118.8 -28.1 118.0 -30.35 118.05 -32.8 L118.05 -33.4 Q117.15 -32.25 115.5 -32.25 112.05 -32.25 110.8 -34.25 110.25 -35.15 110.25 -36.5 110.25 -40.75 114.5 -40.75 117.1 -40.75 118.3 -38.9 M119.5 -45.55 Q119.5 -48.85 122.5 -48.85 125.35 -48.85 125.5 -45.4 125.5 -44.25 124.6 -43.35 123.65 -42.5 122.5 -42.5 120.4 -42.5 119.75 -43.95 119.4 -44.7 119.5 -45.55 M99.0 31.85 Q99.0 29.0 102.0 29.0 104.8 29.0 105.0 32.0 105.0 33.15 104.05 34.05 103.15 35.0 102.0 35.0 99.9 35.0 99.25 33.5 L99.0 31.85 M109.55 45.5 Q109.55 48.05 107.0 48.05 105.2 48.05 104.55 46.75 L104.3 45.35 Q104.3 44.6 105.0 43.75 105.85 42.8 107.0 42.8 109.6 42.8 109.55 45.5 M59.0 67.55 L58.75 67.3 63.4 62.55 Q66.4 59.4 68.05 59.3 63.3 65.25 59.0 67.55 M-103.5 -52.5 Q-103.5 -54.5 -101.5 -54.5 -100.25 -54.5 -99.75 -53.5 -99.5 -53.0 -99.5 -52.35 -99.5 -50.5 -100.85 -50.5 -102.0 -50.5 -103.25 -51.0 L-103.5 -52.5 M-104.6 -60.0 Q-104.6 -59.25 -113.7 -49.25 -123.55 -38.45 -128.85 -34.25 -119.9 -48.35 -105.25 -60.75 -104.6 -61.25 -104.6 -60.0 M-104.35 -44.3 Q-104.35 -43.45 -104.85 -42.6 -105.35 -41.85 -105.75 -41.85 -108.9 -41.85 -109.35 -44.4 -109.35 -46.6 -106.5 -46.6 -105.1 -46.6 -104.6 -45.5 -104.35 -45.0 -104.35 -44.3 M-42.7 -70.95 Q-42.35 -70.85 -42.35 -70.1 -42.35 -68.3 -81.4 -31.3 L-144.25 28.55 Q-89.65 -30.2 -43.5 -71.1 L-42.7 -70.95 M-114.25 33.8 Q-112.1 33.8 -111.25 35.25 -110.85 35.95 -110.85 36.85 -110.85 37.9 -111.6 39.0 -112.35 40.05 -113.1 40.05 -118.5 40.05 -117.6 37.0 -117.6 33.8 -114.25 33.8 M-94.1 41.4 Q-93.6 42.7 -93.6 44.1 -93.6 45.35 -94.5 47.0 -95.5 48.8 -96.6 48.8 -101.3 48.8 -102.1 43.4 -102.1 38.8 -97.5 38.8 -95.1 38.8 -94.1 41.4 M-124.35 63.05 L-124.75 61.05 Q-124.75 54.3 -120.0 54.3 -118.4 54.3 -117.25 55.45 L-116.75 56.15 -116.75 56.0 Q-116.65 52.25 -113.0 52.25 -110.4 52.25 -109.35 54.05 L-108.85 56.0 Q-108.85 57.1 -109.6 58.25 L-110.25 59.05 -110.05 59.65 Q-109.5 61.3 -109.5 62.05 -109.5 64.2 -110.65 66.55 -112.4 70.25 -116.0 70.25 -119.0 70.25 -121.1 68.55 -121.8 70.55 -124.5 70.55 -128.35 70.55 -128.1 67.0 -128.1 65.95 -127.35 64.75 -126.35 63.05 -124.5 63.05 L-124.35 63.05 M-94.75 63.0 Q-92.45 63.0 -91.5 64.75 L-91.0 66.6 Q-91.0 67.35 -91.6 68.5 -92.45 70.0 -93.6 70.0 -98.8 70.0 -98.5 66.5 -98.5 65.25 -97.6 64.25 -96.55 63.0 -94.75 63.0 M-100.6 68.25 Q-101.4 70.0 -103.1 70.0 -107.6 70.0 -107.5 66.5 -107.5 65.3 -106.65 64.25 -105.6 63.0 -104.0 63.0 -102.0 63.0 -100.85 64.5 -100.1 65.5 -100.1 66.35 -100.1 67.2 -100.6 68.25 M-85.0 69.85 Q-85.0 68.0 -83.0 68.0 -81.0 68.0 -81.0 69.85 -81.0 72.25 -82.35 72.25 -85.25 72.25 -85.0 69.85 M-121.75 20.8 Q-77.05 -31.4 -16.25 -81.85 -78.2 -28.45 -121.5 21.05 L-121.75 20.8" fill="#000000" fill-opacity="0.15294118" fill-rule="evenodd" stroke="none"/>
    <path d="M55.4 -68.1 L55.75 -68.1 Q57.45 -68.1 58.85 -66.85 60.25 -67.6 61.0 -67.6 62.9 -67.6 62.55 -65.3 62.55 -64.1 60.9 -61.85 L61.0 -61.8 61.25 -61.85 63.3 -61.6 63.75 -60.8 64.1 -60.65 64.0 -61.0 64.05 -61.6 64.55 -61.75 Q66.05 -61.75 66.45 -59.75 116.75 -40.85 131.5 -34.75 L131.55 -34.35 Q132.1 -34.0 130.85 -34.0 129.05 -34.0 100.3 -45.35 79.3 -53.65 67.25 -58.0 L66.0 -57.6 Q64.0 -57.4 63.8 -58.0 L63.6 -59.3 60.55 -60.35 59.8 -60.55 Q58.65 -59.35 57.75 -59.35 L56.75 -59.6 Q56.65 -59.45 56.55 -59.5 56.3 -59.55 56.3 -60.35 56.3 -60.75 57.1 -61.5 L56.75 -61.6 56.45 -62.2 55.8 -61.6 54.55 -61.75 54.35 -62.45 51.0 -59.95 Q50.15 -58.8 49.5 -58.35 L48.95 -58.35 48.8 -58.25 48.25 -58.45 48.2 -58.45 47.3 -58.75 47.85 -59.5 Q47.95 -59.95 48.9 -60.7 L49.85 -61.6 50.3 -62.5 Q50.3 -64.55 48.8 -65.5 L48.55 -65.45 48.5 -65.0 Q48.05 -64.6 46.85 -64.6 L45.05 -63.25 44.8 -63.15 Q44.55 -63.2 44.55 -64.0 44.55 -64.55 45.2 -65.2 26.65 -72.0 9.05 -74.6 L9.0 -75.25 8.8 -75.4 9.5 -75.5 Q16.95 -75.5 28.9 -71.75 L46.5 -66.2 46.5 -66.25 Q48.35 -67.5 49.5 -67.5 51.5 -67.5 52.4 -63.25 L53.0 -63.35 54.05 -63.1 Q54.15 -63.95 56.2 -65.3 L55.75 -65.75 54.95 -66.9 Q53.95 -66.0 53.5 -65.0 L52.3 -65.1 Q52.0 -65.6 52.0 -66.05 52.0 -67.3 53.0 -67.75 50.0 -67.75 48.75 -68.25 50.5 -69.85 51.0 -69.85 54.8 -69.85 55.4 -68.1 M60.15 -65.3 L60.25 -65.15 60.3 -65.35 60.15 -65.3 M57.5 -63.1 L58.5 -62.75 59.65 -64.1 58.3 -64.25 57.75 -63.75 57.2 -63.05 57.5 -63.1 M46.3 -56.5 Q45.35 -54.35 44.0 -54.35 L42.75 -54.75 42.5 -55.5 43.65 -57.35 Q44.75 -58.85 44.75 -59.4 44.75 -61.5 42.0 -61.5 39.95 -61.5 39.5 -61.0 L41.75 -58.85 Q40.9 -58.5 40.1 -58.5 38.55 -58.5 38.0 -59.7 37.75 -60.25 37.75 -61.1 37.75 -63.5 42.75 -63.5 46.3 -63.5 47.05 -59.3 47.05 -58.15 46.3 -56.5 M6.2 -51.4 L7.75 -50.5 7.5 -49.8 8.95 -50.0 7.9 -50.95 7.0 -52.05 6.2 -51.4 M6.25 -53.8 Q6.25 -55.6 13.35 -55.35 14.0 -56.75 18.8 -56.75 L19.3 -56.7 Q19.8 -58.25 25.5 -59.0 26.85 -59.0 28.8 -55.3 28.85 -58.1 30.5 -58.1 L31.4 -58.0 32.0 -59.0 Q33.1 -60.35 35.0 -60.35 37.4 -60.35 39.6 -57.75 41.5 -55.45 41.5 -54.0 41.5 -51.6 39.0 -51.5 L38.3 -51.85 38.2 -51.65 Q38.05 -51.6 38.05 -52.4 L39.5 -54.1 Q39.5 -54.95 37.6 -56.65 35.75 -58.35 34.55 -58.6 33.0 -58.4 32.85 -57.55 34.95 -56.35 35.25 -52.55 35.25 -51.3 33.5 -49.1 L32.05 -49.6 Q32.05 -50.15 33.55 -52.6 L32.85 -54.75 32.8 -54.9 Q32.25 -55.15 31.8 -56.0 L31.45 -56.7 30.3 -56.6 Q30.05 -56.55 30.05 -55.3 30.05 -52.95 31.75 -51.75 L31.3 -50.6 30.45 -51.35 Q30.05 -50.7 28.05 -49.15 L25.5 -47.35 Q24.3 -47.75 24.3 -48.55 24.3 -49.35 25.95 -50.45 27.55 -51.6 27.55 -51.9 27.55 -52.7 26.5 -54.75 25.35 -57.0 24.5 -57.0 23.05 -57.0 21.05 -55.8 22.8 -54.1 23.5 -49.35 23.5 -47.1 21.35 -47.1 19.4 -47.1 17.5 -49.0 18.1 -49.6 20.5 -49.0 L21.3 -48.9 Q21.5 -48.9 21.5 -49.65 21.5 -50.9 20.5 -52.85 19.35 -55.1 18.05 -55.1 L17.2 -54.85 Q18.55 -53.95 19.3 -51.85 19.3 -49.6 14.8 -49.6 L14.7 -49.6 Q17.65 -48.7 18.5 -46.0 L18.4 -45.35 Q18.25 -45.05 17.75 -45.0 19.5 -43.55 20.55 -39.85 L21.5 -33.55 Q21.5 -25.5 15.5 -20.0 L14.8 -20.25 18.2 -27.4 Q19.3 -30.15 19.3 -33.55 18.4 -43.85 16.0 -43.85 11.1 -43.85 9.05 -37.0 L8.0 -29.85 Q8.0 -28.15 11.5 -20.1 L11.75 -20.1 11.75 -21.6 12.05 -21.6 12.45 -19.8 13.05 -19.85 Q13.3 -20.3 13.3 -19.05 L12.8 -18.3 12.8 -18.25 Q13.25 -17.6 12.0 -17.6 L11.55 -17.65 9.0 -17.25 1.0 -18.35 -0.7 -18.3 -4.35 -15.9 -4.25 -15.5 -4.7 -15.65 Q-15.45 -7.85 -16.7 3.2 -14.4 6.1 -12.25 10.2 -8.45 17.45 -6.75 24.85 L-7.1 25.75 Q-11.3 15.75 -14.45 10.5 -20.05 1.1 -31.0 -4.0 L-31.0 -4.25 -30.25 -4.35 Q-23.6 -4.35 -18.1 1.6 -17.45 -3.8 -14.15 -8.8 -11.0 -13.55 -5.95 -16.85 L-6.1 -17.55 Q-6.1 -20.6 2.25 -20.6 L7.15 -20.1 8.95 -19.9 Q7.2 -22.9 6.0 -29.75 6.0 -34.25 7.25 -38.4 9.25 -45.15 13.8 -45.9 L12.0 -46.35 7.0 -47.1 Q1.85 -47.1 -2.55 -44.55 L-4.3 -43.25 -8.35 -40.0 -10.7 -37.95 -10.8 -37.85 -12.65 -36.05 -11.75 -35.1 -12.0 -34.85 -12.4 -35.75 -12.7 -36.0 -15.0 -33.25 Q-17.25 -29.7 -26.55 -23.35 L-40.5 -14.1 -40.85 -14.2 Q-43.4 -12.6 -45.9 -11.1 -49.25 -7.7 -57.2 -2.25 L-64.6 3.0 Q-71.5 11.6 -71.5 22.6 L-71.45 23.65 Q-70.35 17.95 -67.5 12.45 -61.3 0.5 -49.75 -2.85 -62.7 4.0 -67.4 14.2 -69.75 19.3 -70.8 29.15 L-69.75 33.1 Q-68.15 38.0 -65.6 40.5 -65.4 26.1 -57.0 13.8 -48.35 1.05 -38.0 1.05 -22.35 1.05 -13.4 13.45 -10.45 17.55 -8.65 22.4 -7.35 26.0 -7.35 27.35 -7.35 39.45 -16.0 49.5 -24.25 59.05 -33.0 59.05 -47.65 59.05 -55.3 55.95 L-55.75 56.0 Q-56.8 56.0 -58.25 55.05 L-58.6 55.05 Q-62.85 55.05 -66.45 49.3 -68.4 46.15 -71.0 40.5 L-71.8 38.45 -72.65 36.2 Q-74.6 30.25 -74.6 25.5 -74.6 18.5 -74.15 15.35 L-74.1 15.05 -74.1 14.55 -74.0 14.55 Q-73.2 10.05 -70.9 6.45 -69.2 3.85 -66.15 1.15 -60.4 -6.25 -50.0 -11.75 -42.9 -15.45 -29.35 -26.55 -14.3 -38.9 -11.0 -41.0 L-11.5 -40.3 -9.2 -42.15 -7.6 -43.55 -7.1 -43.95 -6.25 -44.7 -5.55 -45.2 Q-0.5 -49.2 6.25 -53.6 L6.25 -53.8 M12.2 -50.05 L14.1 -49.75 13.55 -50.1 Q14.7 -51.85 17.05 -52.1 16.7 -52.55 16.85 -53.2 L13.05 -53.6 8.25 -53.5 Q8.55 -52.9 10.2 -51.7 L12.2 -50.05 M16.25 -39.6 L16.05 -39.25 13.55 -40.1 14.5 -40.85 Q15.6 -40.65 16.25 -39.6 M13.05 -31.6 L14.25 -31.85 Q13.55 -32.85 12.75 -32.1 L13.05 -31.6 M13.75 -34.0 Q15.6 -34.0 15.55 -31.0 15.75 -30.35 14.5 -30.35 L11.5 -30.85 11.3 -31.75 Q11.3 -34.0 13.75 -34.0 M-4.25 -28.6 L-4.85 -28.75 Q-4.8 -34.85 2.05 -44.1 -4.05 -33.4 -3.75 -29.25 -3.75 -28.85 -4.25 -28.6 M-17.9 21.45 L-18.1 22.0 -18.75 22.5 Q-19.65 22.2 -20.0 21.55 L-20.0 19.3 -18.1 19.05 Q-15.9 19.05 -15.1 20.75 -14.7 21.6 -14.75 22.55 L-16.5 24.05 -18.25 23.75 -16.1 21.8 Q-16.05 21.4 -16.35 21.05 -16.95 20.3 -18.85 20.3 L-19.2 20.95 Q-19.3 21.25 -18.5 21.25 -17.75 21.25 -17.9 21.45 M-15.5 13.8 Q-23.95 3.05 -38.75 3.05 -44.7 3.05 -52.6 11.35 -58.7 17.8 -60.0 21.05 -62.8 27.85 -63.45 30.3 -63.95 32.25 -64.1 35.05 L-63.75 35.05 Q-63.9 38.4 -63.0 41.65 L-62.85 41.9 Q-61.0 45.2 -58.35 48.0 -50.3 56.55 -38.55 56.55 -24.65 56.55 -16.4 46.05 -9.6 37.4 -9.6 27.1 -9.6 25.3 -10.9 21.95 -12.6 17.5 -15.5 13.8 M-39.0 12.5 L-40.75 12.55 -39.0 13.55 -39.0 12.5 M-38.0 12.1 Q-37.35 12.8 -37.35 13.3 L-37.75 14.5 -38.05 14.8 -39.0 15.05 Q-41.3 15.05 -42.0 12.85 -42.0 12.25 -41.25 11.55 L-40.5 11.0 Q-38.9 11.0 -38.0 12.1 M-23.75 47.35 Q-23.5 48.0 -23.5 48.75 -23.5 51.1 -26.0 51.5 -24.5 49.2 -24.5 48.85 L-24.6 47.75 -26.0 47.3 Q-26.0 48.05 -25.0 49.3 L-25.1 50.0 Q-27.0 49.7 -27.0 47.9 -27.0 46.05 -25.35 46.05 -24.2 46.05 -23.75 47.35 M-17.0 35.5 Q-13.25 35.5 -13.35 38.35 L-13.5 39.75 -15.0 40.05 Q-18.0 40.05 -18.0 37.25 L-17.95 35.9 Q-17.85 35.5 -17.0 35.5 M-14.6 38.3 Q-15.65 36.9 -16.85 36.75 L-17.0 37.4 Q-17.0 38.65 -16.0 39.0 -15.3 39.0 -14.6 38.3 M-70.05 7.35 Q-71.5 8.75 -72.05 12.5 -71.3 9.85 -70.05 7.35 M-52.75 29.0 L-52.85 27.5 Q-52.85 26.85 -52.5 26.55 -51.6 26.7 -50.0 28.55 -50.4 29.3 -51.3 29.3 L-52.75 29.0 M-45.85 46.55 Q-45.85 47.45 -44.85 48.05 -44.25 48.05 -44.1 47.75 -44.75 46.55 -45.85 46.55 M-46.25 44.5 Q-45.85 44.5 -44.85 45.4 -43.5 46.6 -42.85 48.3 -43.25 49.5 -44.55 49.5 -47.0 49.5 -47.35 46.6 L-47.0 44.55 -46.25 44.5" fill="#000000" fill-rule="evenodd" stroke="none"/>
    <path d="M37.85 -69.95 L10.75 -63.4 49.0 -9.0 116.5 -39.0 37.85 -69.95 M47.6 -79.5 L129.5 -79.5 129.5 -69.35 129.5 -61.95 129.5 -46.1 129.5 -22.65 129.5 81.0 110.2 81.0 2.8 -21.2 -4.0 -21.5 -20.0 0.0 -18.5 1.5 Q-3.0 24.8 -11.7 40.4 L41.4 81.0 11.7 81.0 -132.5 81.0 -132.5 -12.85 -132.5 -23.05 -132.5 -45.35 -132.5 -59.1 -65.7 -0.6 -64.5 -2.0 -51.6 -10.65 -32.35 -3.95 -32.0 -5.0 -22.0 -20.5 -7.5 -27.5 -3.0 -36.0 -2.0 -45.5 -2.2 -45.8 -12.5 -38.5 -12.7 -38.25 -53.1 -79.5 47.6 -79.5 M-12.0 -37.5 L-12.5 -37.0 -12.5 -38.0 -12.0 -37.5" fill="#000000" fill-opacity="0.56078434" fill-rule="evenodd" stroke="none"/>
    <path d="M47.6 -79.5 L129.5 -79.5 129.5 -69.35 M129.5 -61.95 L129.5 -46.1 M129.5 -22.65 L129.5 81.0 110.2 81.0 57.35 81.0 M11.7 81.0 L-132.5 81.0 -132.5 -12.85 M-132.5 -23.05 L-132.5 -45.35 M-132.5 -76.05 L-132.5 -79.5 -57.6 -79.5" fill="none" stroke="#000000" stroke-linecap="round" stroke-linejoin="round" stroke-width="1.0"/>
    <path d="M70.85 103.35 L89.5 117.5" fill="none" stroke="#666600" stroke-linecap="round" stroke-linejoin="round" stroke-width="1.0"/>
  </g>
  <defs>
    <radialGradient cx="0" cy="0" gradientTransform="matrix(0.3115, 0.0, 0.0, 0.3115, -111.0, 45.5)" gradientUnits="userSpaceOnUse" id="gradient0" r="819.2" spreadMethod="pad">
      <stop offset="0.0" stop-color="#443933"/>
      <stop offset="1.0" stop-color="#0d0b0f"/>
    </radialGradient>
    <radialGradient cx="0" cy="0" gradientTransform="matrix(0.0887, 0.0, 0.0, 0.0887, 62.05, -59.15)" gradientUnits="userSpaceOnUse" id="gradient1" r="819.2" spreadMethod="pad">
      <stop offset="0.0" stop-color="#2d1e2f"/>
      <stop offset="1.0" stop-color="#1b1e32"/>
    </radialGradient>
    <radialGradient cx="0" cy="0" gradientTransform="matrix(0.1085, 0.0, 0.0, 0.1085, -41.0, 23.5)" gradientUnits="userSpaceOnUse" id="gradient2" r="819.2" spreadMethod="pad">
      <stop offset="0.0" stop-color="#aa9955"/>
      <stop offset="0.611764705882353" stop-color="#8a644a"/>
      <stop offset="1.0" stop-color="#533e51"/>
    </radialGradient>
    <linearGradient gradientTransform="matrix(0.0502, 0.0314, -0.041, 0.0654, 21.6, 27.45)" gradientUnits="userSpaceOnUse" id="gradient3" spreadMethod="pad" x1="-819.2" x2="819.2">
      <stop offset="0.0" stop-color="#000000" stop-opacity="0.36078432"/>
      <stop offset="1.0" stop-color="#000000" stop-opacity="0.0"/>
    </linearGradient>
  </defs>
</svg>
