<?xml version="1.0" encoding="UTF-8" standalone="no"?>
<svg xmlns:ffdec="https://www.free-decompiler.com/flash" xmlns:xlink="http://www.w3.org/1999/xlink" ffdec:objectType="shape" height="186.5px" width="283.65px" xmlns="http://www.w3.org/2000/svg">
  <g transform="matrix(1.0, 0.0, 0.0, 1.0, 146.35, 90.0)">
    <path d="M136.45 -90.0 L136.45 82.6 -146.35 82.6 -146.35 -90.0 136.45 -90.0" fill="url(#gradient0)" fill-rule="evenodd" stroke="none"/>
    <path d="M-26.7 12.9 Q-27.6 11.65 -28.3 8.75 L-28.45 8.05 Q-29.25 4.5 -29.25 2.35 L-27.5 -13.35 -27.35 -16.9 Q-27.2 -19.8 -26.7 -21.75 -25.1 -27.9 -19.25 -27.9 -14.8 -27.9 -12.95 -19.85 -11.55 -10.5 -10.5 -7.85 -2.7 11.9 -1.65 11.9 L3.75 11.85 Q5.1 11.7 5.25 10.8 4.8 6.6 6.5 0.35 6.4 -3.5 7.65 -6.25 10.1 -11.5 18.65 -11.5 20.25 -11.5 21.5 -6.4 22.55 -2.2 22.55 0.75 L22.2 0.95 22.8 1.1 Q28.55 1.1 29.35 -1.4 29.85 -3.0 29.3 -8.6 29.3 -19.0 26.85 -33.75 42.3 -42.85 44.1 -42.85 45.6 -42.85 48.65 -30.8 50.3 -24.3 51.15 -19.25 52.6 -20.25 54.4 -21.15 55.25 -21.55 64.6 -26.9 70.75 -30.25 74.1 -31.4 77.1 -38.8 77.25 -45.8 77.55 -46.8 77.65 -49.8 77.8 -52.55 78.4 -54.15 80.4 -59.5 89.9 -62.25 91.8 -61.1 91.5 -60.1 90.8 -59.1 90.8 -58.6 92.35 -42.8 92.35 -40.1 L97.8 -39.6 Q100.0 -45.8 99.9 -47.9 L99.35 -54.05 Q99.35 -54.75 105.85 -58.05 112.3 -61.3 113.5 -61.3 117.65 -61.3 119.1 -56.65 L120.0 -50.75 Q120.65 -46.5 121.6 -45.3 122.95 -43.55 127.3 -42.2 131.05 -41.0 131.05 -40.05 L130.8 -38.65 130.35 -38.35 Q128.95 -41.55 127.55 -41.55 L126.9 -41.4 126.8 -40.35 Q126.8 -39.7 127.1 -38.45 119.05 -39.5 116.8 -48.1 116.15 -50.55 115.5 -54.85 114.8 -57.9 113.25 -57.9 103.9 -57.9 102.25 -46.75 L101.3 -40.45 Q100.35 -36.0 98.75 -36.0 L91.5 -36.5 Q89.15 -38.1 88.85 -41.5 L88.75 -47.1 Q88.25 -50.55 87.8 -58.05 81.45 -58.25 80.0 -51.8 79.55 -49.9 79.5 -46.7 L79.25 -43.0 Q78.65 -37.9 77.9 -35.15 L77.35 -33.45 76.65 -32.05 76.85 -32.05 77.65 -31.8 Q78.6 -32.55 80.0 -32.55 84.4 -32.55 111.25 -21.25 114.3 -19.25 115.25 -15.4 L116.65 -8.8 Q121.95 4.55 124.05 16.5 L126.35 30.65 126.8 34.1 126.15 35.3 126.25 36.5 127.15 36.85 Q129.25 53.5 129.25 66.9 L128.9 72.35 129.1 72.25 Q130.55 72.25 131.6 73.0 L131.85 73.75 Q131.85 75.1 128.35 76.35 127.95 78.85 127.5 78.85 126.3 78.85 125.5 77.2 L117.7 78.7 Q104.7 80.75 94.3 80.5 L94.3 80.8 81.65 80.4 Q79.45 80.4 78.75 79.45 L66.75 79.0 Q54.15 79.0 29.7 82.4 37.05 89.45 45.05 96.5 38.45 96.25 29.7 88.85 L23.8 83.25 -1.9 87.3 -4.7 87.25 Q-6.05 88.3 -9.3 88.3 L-28.35 87.45 Q-30.5 86.95 -32.25 85.85 L-44.3 84.0 -49.0 83.3 -49.65 84.75 Q-50.3 85.85 -50.75 85.85 -51.65 85.85 -58.6 83.45 -67.35 81.05 -77.4 81.05 -96.75 81.05 -101.05 82.35 L-105.25 82.35 -127.5 81.55 Q-132.45 81.5 -133.15 79.85 L-134.05 76.0 Q-134.25 74.45 -134.25 68.35 -134.25 48.4 -129.35 33.6 L-126.0 23.8 Q-124.65 19.35 -124.5 15.35 -125.35 13.35 -125.55 9.9 L-125.6 4.4 -125.6 4.05 -125.55 3.7 -125.5 1.1 Q-125.5 -9.05 -121.25 -28.8 -119.05 -38.65 -114.95 -44.15 -108.85 -52.2 -95.75 -57.2 L-95.75 -57.4 Q-95.8 -57.75 -94.55 -57.75 L-94.5 -57.65 -94.3 -57.75 -92.75 -57.5 Q-92.35 -57.4 -92.35 -56.15 L-92.35 -56.1 Q-89.65 -56.05 -83.55 -54.55 L-77.15 -52.85 -67.1 -52.3 -61.75 -52.9 Q-59.9 -53.0 -58.9 -51.7 -57.95 -50.4 -56.35 -45.75 -50.7 -28.75 -49.25 -25.4 -43.2 -11.85 -30.3 9.2 L-27.65 13.5 -26.5 15.4 Q-11.15 39.8 12.1 64.6 L12.25 64.5 18.65 61.05 Q19.75 60.4 20.65 59.35 25.8 50.5 30.65 38.6 L40.0 14.65 Q44.55 3.45 44.8 -9.05 44.55 -13.45 48.3 -17.0 L48.05 -17.75 Q47.25 -20.3 46.1 -25.4 L43.25 -39.75 Q29.05 -33.6 29.05 -31.55 29.05 -30.9 30.5 -23.55 31.9 -16.2 31.9 -8.75 31.9 0.95 31.4 1.95 30.25 4.35 22.8 4.35 20.4 4.35 19.4 -1.0 L18.0 -8.5 Q10.9 -7.85 9.0 -3.7 8.35 -2.3 8.2 -0.15 L8.0 3.0 7.15 9.8 Q6.8 12.3 6.35 13.05 5.8 13.85 4.2 14.0 L-0.75 14.0 Q-4.85 14.0 -11.4 -5.9 L-15.8 -19.6 Q-17.85 -25.8 -18.65 -25.8 -23.6 -25.8 -24.85 -19.75 -25.5 -16.55 -25.3 -11.9 L-26.85 2.4 Q-25.8 11.15 -25.3 12.55 L-26.0 13.6 -26.7 12.9 M76.35 -27.35 Q76.85 -27.75 75.6 -27.75 73.7 -27.75 65.4 -23.0 L53.5 -16.05 51.75 -14.9 52.0 -11.75 51.4 -11.0 Q50.55 -12.0 49.85 -13.3 48.4 -11.75 47.95 -10.05 L47.5 -4.35 Q45.0 10.7 41.8 18.55 38.8 25.95 33.0 41.6 29.45 50.05 25.25 56.8 L25.15 57.65 21.95 61.7 19.75 64.55 19.5 64.4 Q17.15 66.7 15.2 67.9 L25.5 78.3 31.0 77.4 Q45.9 73.75 61.05 73.75 L79.1 74.35 80.7 67.0 80.9 66.3 80.8 65.1 Q83.5 34.5 83.5 26.55 83.5 11.4 82.0 -3.15 80.05 -22.35 76.35 -27.35 M62.35 -0.6 L60.9 -0.6 57.65 10.25 58.15 10.85 Q61.1 9.15 62.35 5.9 L64.4 -0.05 62.35 -0.6 M68.15 -1.35 Q68.15 0.55 64.8 6.75 65.2 9.4 64.6 11.0 63.5 14.0 57.1 14.0 L54.8 13.75 Q54.55 13.0 54.55 11.4 54.55 10.45 56.75 2.8 59.15 -5.55 60.25 -5.55 65.3 -5.55 68.15 -1.35 M91.05 -24.1 L84.05 -26.6 80.35 -28.1 Q82.35 -24.05 84.75 -15.8 86.55 -9.95 87.0 0.85 88.05 23.85 88.05 34.15 88.05 37.6 86.15 53.1 L85.65 57.3 Q86.35 57.95 86.0 59.5 84.55 70.6 83.45 75.8 L88.85 76.0 Q107.6 76.0 119.85 74.15 L124.5 73.35 Q124.05 70.2 123.65 64.3 121.9 37.2 120.0 24.15 117.9 9.7 113.0 -3.5 L110.85 -11.4 Q109.65 -16.25 108.6 -17.1 105.55 -19.5 100.4 -21.1 L91.05 -24.1 M-99.05 -51.7 Q-106.8 -47.6 -108.0 -46.6 -114.35 -41.1 -115.35 -37.65 L-120.3 -19.3 Q-122.0 -12.35 -122.45 -1.0 L-122.65 3.35 Q-122.0 5.3 -121.45 8.8 -120.85 12.8 -120.65 16.8 -120.65 21.05 -122.05 25.8 L-125.2 35.05 Q-129.75 49.15 -129.75 68.4 L-129.75 73.9 -129.1 76.5 -103.15 77.55 -96.65 76.65 -73.55 76.0 Q-67.95 76.0 -61.45 77.45 L-63.65 75.25 Q-68.75 69.9 -69.2 67.55 -78.0 53.9 -86.45 17.25 -90.75 -1.55 -93.45 -20.4 -96.1 -38.75 -96.1 -49.4 L-95.95 -53.4 -99.05 -51.7 M-81.8 -23.6 Q-83.15 -30.05 -85.5 -32.15 -85.5 -34.75 -77.15 -34.9 -73.7 -34.9 -73.3 -31.25 L-73.5 -26.75 Q-72.0 -20.25 -72.0 -18.35 -72.0 -14.9 -75.3 -14.9 -79.6 -14.9 -81.05 -18.85 -81.8 -20.9 -81.8 -23.6 M18.8 78.5 Q11.05 71.4 1.0 60.1 -5.3 53.05 -13.6 41.8 L-27.0 23.5 Q-32.25 16.35 -38.55 5.15 L-48.75 -13.05 Q-52.35 -19.2 -57.15 -31.4 L-59.85 -40.35 -60.9 -45.15 Q-61.2 -46.9 -61.95 -47.4 -62.95 -48.1 -75.0 -48.4 -79.9 -49.3 -93.95 -53.5 L-91.35 -32.65 Q-87.8 -4.5 -85.25 7.1 -80.25 29.35 -77.2 39.45 -72.35 55.45 -65.55 68.3 L-61.8 72.3 Q-55.55 78.9 -52.05 79.0 -44.65 79.3 -33.2 81.1 L-12.25 82.6 Q-11.8 81.05 -9.8 81.2 L-1.55 82.0 12.75 80.4 18.9 79.4 19.65 79.3 18.8 78.5 M-75.8 -28.6 Q-76.0 -31.4 -78.3 -31.4 -79.55 -31.4 -81.55 -30.6 -79.3 -17.35 -77.55 -17.35 L-75.05 -17.5 -74.8 -17.35 Q-74.55 -17.3 -74.55 -18.1 -74.55 -18.9 -75.85 -24.9 L-75.8 -28.6 M-37.1 26.35 Q-36.95 27.0 -37.1 27.8 -37.1 32.15 -35.65 37.6 L-34.25 43.6 Q-34.25 45.25 -42.05 51.3 -44.85 51.3 -55.05 33.1 -55.05 30.8 -47.7 27.75 -41.2 25.05 -39.0 25.05 -37.45 25.05 -37.1 26.35 M-40.0 30.0 L-40.5 30.0 -45.4 32.05 Q-50.45 34.25 -51.8 35.3 -48.5 40.2 -42.25 47.25 L-37.65 44.0 Q-38.95 40.5 -40.0 30.0 M-103.8 24.2 L-103.25 25.5 -104.05 35.8 -103.35 40.9 Q-103.35 45.05 -107.05 45.05 -110.5 45.05 -111.55 38.85 L-111.85 32.5 Q-111.85 30.95 -112.8 28.15 L-113.8 25.3 Q-113.8 22.85 -110.15 22.85 -105.3 22.85 -103.8 24.2 M-110.15 27.25 Q-109.1 32.05 -108.5 41.65 -108.35 41.65 -108.35 42.05 -106.85 40.6 -106.7 35.2 L-106.5 26.85 -110.15 27.25 M112.0 20.9 Q113.65 20.9 116.5 44.15 116.5 46.05 112.6 47.25 109.6 48.15 106.75 48.15 104.1 48.15 104.05 46.55 L104.55 44.8 Q104.55 42.8 101.3 36.05 98.0 29.35 98.0 27.25 98.0 26.25 105.0 23.5 L112.0 20.9 M101.25 28.3 Q103.75 30.7 105.25 36.1 L107.4 44.15 Q111.9 44.1 112.9 43.35 113.25 43.1 113.25 41.65 L110.15 24.65 Q107.9 24.65 105.05 25.9 102.55 27.0 101.25 28.3" fill="#000000" fill-rule="evenodd" stroke="none"/>
    <path d="M130.35 -38.35 Q131.3 -36.25 132.25 -32.7 L135.35 -19.05 Q136.35 -14.4 137.3 3.3 L136.4 15.1 Q133.4 37.0 128.5 37.0 L127.15 36.85 126.25 36.5 126.15 35.3 126.8 34.1 128.7 30.25 126.35 30.65 124.05 16.5 Q121.95 4.55 116.65 -8.8 L115.25 -15.4 Q114.3 -19.25 111.25 -21.25 84.4 -32.55 80.0 -32.55 L77.35 -33.45 77.9 -35.15 Q78.65 -37.9 79.25 -43.0 L79.5 -46.7 Q79.55 -49.9 80.0 -51.8 81.45 -58.25 87.8 -58.05 88.25 -50.55 88.75 -47.1 L88.85 -41.5 Q89.15 -38.1 91.5 -36.5 L98.75 -36.0 Q100.35 -36.0 101.3 -40.45 L102.25 -46.75 Q103.9 -57.9 113.25 -57.9 114.8 -57.9 115.5 -54.85 116.15 -50.55 116.8 -48.1 119.05 -39.5 127.1 -38.45 126.8 -39.7 126.8 -40.35 L126.9 -41.4 127.55 -41.55 Q128.95 -41.55 130.35 -38.35 M-27.65 13.5 L-26.7 12.9 -26.0 13.6 -25.3 12.55 Q-25.8 11.15 -26.85 2.4 L-25.3 -11.9 Q-25.5 -16.55 -24.85 -19.75 -23.6 -25.8 -18.65 -25.8 -17.85 -25.8 -15.8 -19.6 L-11.4 -5.9 Q-4.85 14.0 -0.75 14.0 L4.2 14.0 Q5.8 13.85 6.35 13.05 6.8 12.3 7.15 9.8 L8.0 3.0 8.2 -0.15 Q8.35 -2.3 9.0 -3.7 10.9 -7.85 18.0 -8.5 L19.4 -1.0 Q20.4 4.35 22.8 4.35 30.25 4.35 31.4 1.95 31.9 0.95 31.9 -8.75 31.9 -16.2 30.5 -23.55 29.05 -30.9 29.05 -31.55 29.05 -33.6 43.25 -39.75 L46.1 -25.4 Q47.25 -20.3 48.05 -17.75 L48.3 -17.0 Q44.55 -13.45 44.8 -9.05 44.55 3.45 40.0 14.65 L30.65 38.6 Q25.8 50.5 20.65 59.35 19.75 60.4 18.65 61.05 L12.25 64.5 12.1 64.6 Q-11.15 39.8 -26.5 15.4 L-27.65 13.5" fill="url(#gradient1)" fill-rule="evenodd" stroke="none"/>
    <path d="M75.6 -27.75 L76.35 -27.35 Q80.05 -22.35 82.0 -3.15 83.5 11.4 83.5 26.55 83.5 34.5 80.8 65.1 L80.7 67.0 79.1 74.35 61.05 73.75 Q45.9 73.75 31.0 77.4 L25.5 78.3 15.2 67.9 Q17.15 66.7 19.5 64.4 L19.75 64.55 21.95 61.7 25.15 57.65 25.25 56.8 Q29.45 50.05 33.0 41.6 38.8 25.95 41.8 18.55 45.0 10.7 47.5 -4.35 L47.95 -10.05 Q48.4 -11.75 49.85 -13.3 50.55 -12.0 51.4 -11.0 L52.0 -11.75 51.75 -14.9 53.5 -16.05 65.4 -23.0 Q73.7 -27.75 75.6 -27.75 M68.15 -1.35 Q65.3 -5.55 60.25 -5.55 59.15 -5.55 56.75 2.8 54.55 10.45 54.55 11.4 54.55 13.0 54.8 13.75 L57.1 14.0 Q63.5 14.0 64.6 11.0 65.2 9.4 64.8 6.75 68.15 0.55 68.15 -1.35" fill="url(#gradient2)" fill-rule="evenodd" stroke="none"/>
    <path d="M18.9 79.4 L12.75 80.4 -1.55 82.0 -9.8 81.2 Q-11.8 81.05 -12.25 82.6 L-33.2 81.1 Q-44.65 79.3 -52.05 79.0 -55.55 78.9 -61.8 72.3 L-65.55 68.3 Q-72.35 55.45 -77.2 39.45 -80.25 29.35 -85.25 7.1 -87.8 -4.5 -91.35 -32.65 L-93.95 -53.5 Q-79.9 -49.3 -75.0 -48.4 -62.95 -48.1 -61.95 -47.4 -61.2 -46.9 -60.9 -45.15 L-59.85 -40.35 -57.15 -31.4 Q-52.35 -19.2 -48.75 -13.05 L-38.55 5.15 Q-32.25 16.35 -27.0 23.5 L-13.6 41.8 Q-5.3 53.05 1.0 60.1 11.05 71.4 18.8 78.5 L18.9 79.4 M-81.8 -23.6 Q-81.8 -20.9 -81.05 -18.85 -79.6 -14.9 -75.3 -14.9 -72.0 -14.9 -72.0 -18.35 -72.0 -20.25 -73.5 -26.75 L-73.3 -31.25 Q-73.7 -34.9 -77.15 -34.9 -85.5 -34.75 -85.5 -32.15 -83.15 -30.05 -81.8 -23.6 M-37.1 26.35 Q-37.45 25.05 -39.0 25.05 -41.2 25.05 -47.7 27.75 -55.05 30.8 -55.05 33.1 -44.85 51.3 -42.05 51.3 -34.25 45.25 -34.25 43.6 L-35.65 37.6 Q-37.1 32.15 -37.1 27.8 -36.95 27.0 -37.1 26.35" fill="url(#gradient3)" fill-rule="evenodd" stroke="none"/>
    <path d="M91.05 -24.1 L100.4 -21.1 Q105.55 -19.5 108.6 -17.1 109.65 -16.25 110.85 -11.4 L113.0 -3.5 Q117.9 9.7 120.0 24.15 121.9 37.2 123.65 64.3 124.05 70.2 124.5 73.35 L119.85 74.15 Q107.6 76.0 88.85 76.0 L83.45 75.8 Q84.55 70.6 86.0 59.5 86.35 57.95 85.65 57.3 L86.15 53.1 Q88.05 37.6 88.05 34.15 88.05 23.85 87.0 0.85 86.55 -9.95 84.75 -15.8 82.35 -24.05 80.35 -28.1 L84.05 -26.6 91.05 -24.1 M112.0 20.9 L105.0 23.5 Q98.0 26.25 98.0 27.25 98.0 29.35 101.3 36.05 104.55 42.8 104.55 44.8 L104.05 46.55 Q104.1 48.15 106.75 48.15 109.6 48.15 112.6 47.25 116.5 46.05 116.5 44.15 113.65 20.9 112.0 20.9" fill="url(#gradient4)" fill-rule="evenodd" stroke="none"/>
    <path d="M-99.05 -51.7 L-95.95 -53.4 -96.1 -49.4 Q-96.1 -38.75 -93.45 -20.4 -90.75 -1.55 -86.45 17.25 -78.0 53.9 -69.2 67.55 -68.75 69.9 -63.65 75.25 L-61.45 77.45 Q-67.95 76.0 -73.55 76.0 L-96.65 76.65 -103.15 77.55 -129.1 76.5 -129.75 73.9 -129.75 68.4 Q-129.75 49.15 -125.2 35.05 L-122.05 25.8 Q-120.65 21.05 -120.65 16.8 -120.85 12.8 -121.45 8.8 -122.0 5.3 -122.65 3.35 L-122.45 -1.0 Q-122.0 -12.35 -120.3 -19.3 L-115.35 -37.65 Q-114.35 -41.1 -108.0 -46.6 -106.8 -47.6 -99.05 -51.7 M-103.8 24.2 Q-105.3 22.85 -110.15 22.85 -113.8 22.85 -113.8 25.3 L-112.8 28.15 Q-111.85 30.95 -111.85 32.5 L-111.55 38.85 Q-110.5 45.05 -107.05 45.05 -103.35 45.05 -103.35 40.9 L-104.05 35.8 -103.25 25.5 -103.8 24.2" fill="url(#gradient5)" fill-rule="evenodd" stroke="none"/>
    <path d="M62.35 -0.6 L64.4 -0.05 62.35 5.9 Q61.1 9.15 58.15 10.85 L57.65 10.25 60.9 -0.6 62.35 -0.6 M-75.8 -28.6 L-75.85 -24.9 Q-74.55 -18.9 -74.55 -18.1 -74.55 -17.3 -74.8 -17.35 L-75.05 -17.5 -77.55 -17.35 Q-79.3 -17.35 -81.55 -30.6 -79.55 -31.4 -78.3 -31.4 -76.0 -31.4 -75.8 -28.6 M-40.0 30.0 Q-38.95 40.5 -37.65 44.0 L-42.25 47.25 Q-48.5 40.2 -51.8 35.3 -50.45 34.25 -45.4 32.05 L-40.5 30.0 -40.0 30.0 M-110.15 27.25 L-106.5 26.85 -106.7 35.2 Q-106.85 40.6 -108.35 42.05 -108.35 41.65 -108.5 41.65 -109.1 32.05 -110.15 27.25 M101.25 28.3 Q102.55 27.0 105.05 25.9 107.9 24.65 110.15 24.65 L113.25 41.65 Q113.25 43.1 112.9 43.35 111.9 44.1 107.4 44.15 L105.25 36.1 Q103.75 30.7 101.25 28.3" fill="#ffcc00" fill-rule="evenodd" stroke="none"/>
    <path d="M5.8 -17.5 L5.15 -16.5 3.6 -16.6 3.35 -17.55 Q3.35 -18.1 4.0 -18.45 4.65 -18.8 4.65 -19.3 5.8 -18.85 5.8 -17.5 M79.6 -22.3 L80.15 -25.0 Q81.2 -27.6 83.65 -27.6 86.25 -27.6 86.35 -24.85 86.35 -23.7 84.8 -21.95 83.1 -20.0 81.5 -20.0 L79.85 -20.35 79.6 -22.3 M111.25 -30.5 Q111.25 -33.1 113.25 -33.1 115.25 -33.1 115.25 -31.3 115.25 -29.8 112.75 -29.05 111.25 -30.3 111.25 -30.5 M95.35 -11.9 Q96.35 -9.5 96.35 -6.85 L96.3 -1.65 Q97.65 -1.2 98.3 -0.25 L98.5 0.1 Q98.55 0.6 97.3 0.6 L96.3 0.1 96.25 2.8 Q96.0 2.8 96.0 3.25 L95.05 3.05 95.0 -0.55 94.15 -1.0 94.05 -1.75 93.85 -1.85 94.55 -2.0 94.95 -1.95 94.4 -11.65 95.35 -11.9 M105.75 -22.95 Q105.15 -22.3 104.55 -22.3 L102.1 -22.8 101.85 -24.4 Q101.85 -26.5 103.9 -26.5 106.4 -26.5 106.4 -24.55 106.4 -23.7 105.75 -22.95 M101.25 1.4 Q100.55 1.4 99.75 0.6 100.0 -0.65 101.3 -1.5 L102.85 0.05 102.75 1.0 Q102.5 1.4 101.25 1.4 M87.8 48.05 L87.65 49.25 Q87.5 49.85 86.25 49.85 L84.55 49.25 Q84.15 48.85 84.15 47.6 L84.4 46.5 86.0 46.25 Q87.8 46.25 87.8 48.05 M120.8 54.0 Q120.8 55.85 119.65 55.85 117.95 55.85 116.9 55.3 116.65 55.35 116.65 54.1 116.65 52.05 118.5 52.05 120.8 52.05 120.8 54.0 M107.3 55.6 Q107.3 57.5 105.0 57.5 103.0 57.5 103.0 55.65 103.0 53.6 105.0 53.6 107.3 53.6 107.3 55.6 M68.55 10.3 L68.5 10.85 Q68.15 11.55 67.0 11.9 65.5 10.6 65.5 10.3 67.0 10.35 67.0 8.65 68.55 10.0 68.55 10.3 M63.35 16.25 Q65.8 16.25 65.3 18.6 65.3 19.3 64.8 20.0 L64.0 20.6 Q61.4 20.6 61.4 18.5 61.4 16.25 63.35 16.25 M49.6 11.35 Q49.6 15.05 47.0 15.05 44.8 15.05 43.75 13.4 43.1 12.35 43.1 11.35 43.1 7.75 46.5 7.75 50.3 7.75 49.6 11.35 M46.25 31.55 Q48.15 31.55 48.15 33.15 48.15 35.5 46.25 35.5 45.15 35.5 44.7 34.55 L44.5 33.4 Q44.5 31.55 46.25 31.55 M57.9 39.6 Q60.75 39.6 60.75 42.6 60.75 43.45 59.6 44.55 L58.3 45.5 Q55.25 45.5 55.25 42.55 55.25 39.6 57.9 39.6 M34.15 12.25 Q34.15 13.25 33.0 14.75 31.75 16.35 30.55 16.35 28.8 16.35 28.3 14.85 L28.15 13.25 Q28.15 9.5 31.4 9.5 34.3 9.5 34.15 12.25 M16.05 29.5 Q16.05 30.3 15.55 31.25 15.05 32.25 14.5 32.25 10.6 32.25 11.4 29.6 11.4 27.5 13.75 27.5 16.05 27.5 16.05 29.5 M32.25 36.25 Q32.5 36.25 34.15 37.65 33.4 38.8 32.25 39.6 30.5 38.3 30.5 38.0 L30.6 36.6 32.25 36.25 M27.75 45.75 Q27.75 47.0 27.5 46.85 27.85 47.5 26.6 47.5 25.35 47.5 24.4 47.0 24.1 47.1 24.1 45.85 24.1 43.9 26.0 43.9 27.75 43.9 27.75 45.75 M-99.25 -48.2 L-99.0 -47.25 Q-99.0 -45.5 -100.15 -45.5 -102.0 -45.5 -102.85 -46.0 L-103.15 -47.1 Q-103.15 -49.05 -101.05 -49.05 -99.75 -49.05 -99.25 -48.2 M-94.8 -42.75 Q-93.0 -42.75 -92.0 -40.95 -91.3 -39.75 -91.3 -38.9 L-92.25 -36.6 Q-93.5 -34.4 -95.05 -34.4 -99.1 -34.4 -99.35 -38.35 -99.35 -39.4 -98.05 -40.95 -96.55 -42.75 -94.8 -42.75 M-100.8 -27.25 Q-102.6 -27.25 -102.6 -29.5 -102.6 -31.4 -100.8 -31.4 -99.0 -31.4 -99.0 -29.4 -99.0 -27.25 -100.8 -27.25 M-109.25 -38.85 L-109.0 -38.0 -109.05 -36.65 Q-109.15 -36.25 -110.0 -36.25 -111.3 -36.25 -112.25 -36.75 L-112.35 -37.9 Q-112.35 -39.6 -110.65 -39.6 -109.65 -39.6 -109.25 -38.85 M-103.9 -16.75 Q-103.3 -16.5 -102.75 -15.65 -102.95 -14.95 -103.4 -14.5 L-105.1 -14.9 -105.2 -14.75 -105.35 -15.5 Q-105.35 -16.75 -103.9 -16.75 M-54.65 -38.9 Q-54.65 -38.25 -55.25 -37.35 -55.75 -36.6 -56.0 -36.6 -57.0 -36.6 -58.3 -37.1 L-58.5 -38.75 Q-58.5 -40.75 -56.6 -40.75 -54.65 -40.75 -54.65 -38.9 M-58.15 -19.25 Q-57.3 -18.8 -57.15 -18.15 -57.3 -17.15 -58.75 -17.0 -58.9 -16.9 -59.1 -16.85 -59.5 -16.8 -59.5 -17.6 -59.5 -18.4 -58.15 -19.25 M-31.0 -20.35 Q-31.0 -17.75 -34.5 -17.75 -37.8 -17.75 -37.25 -20.35 -37.25 -23.25 -34.75 -23.25 -32.9 -23.25 -31.8 -21.95 -31.0 -21.0 -31.0 -20.35 M-20.65 -4.8 Q-20.5 -4.4 -20.5 -3.55 -20.5 -2.7 -21.2 -1.75 -21.95 -0.75 -22.75 -0.75 -23.9 -0.75 -24.9 -1.25 L-25.15 -2.8 Q-25.15 -3.55 -24.1 -4.7 -23.05 -5.9 -22.3 -5.9 -21.0 -5.9 -20.65 -4.8 M-12.3 8.7 Q-12.05 9.1 -12.05 9.65 -12.05 10.55 -12.75 11.7 -13.55 13.0 -14.5 13.0 -17.0 13.0 -17.0 10.4 -17.0 9.5 -16.05 8.7 -15.1 7.9 -14.25 7.9 -12.85 7.9 -12.3 8.7 M-67.15 13.1 L-67.0 13.5 -67.1 14.15 Q-67.25 14.5 -68.05 14.5 -69.1 14.5 -69.85 14.0 -70.0 14.65 -70.0 13.4 -70.0 12.6 -69.6 12.5 L-68.3 12.5 Q-67.6 12.5 -67.15 13.1 M-61.15 53.0 L-61.65 54.95 Q-62.65 56.75 -64.9 56.75 -68.85 56.75 -68.75 53.0 -68.85 49.25 -64.9 49.25 -62.65 49.25 -61.65 51.05 -61.2 52.0 -61.15 53.0 M-78.5 58.55 L-79.0 59.25 -80.15 59.1 Q-80.5 59.55 -80.5 58.3 L-80.4 57.25 -79.5 57.15 Q-78.55 57.5 -78.5 58.55 M-5.0 59.8 Q-5.0 55.5 -1.5 55.5 2.1 55.5 2.3 59.25 2.3 62.75 -1.0 62.75 -5.5 62.75 -5.0 59.8 M-109.9 9.1 Q-109.9 9.95 -110.65 11.25 -111.55 12.75 -112.5 12.75 -117.6 12.75 -116.65 10.4 -116.65 9.45 -115.6 7.95 -114.25 6.0 -112.25 6.0 -110.45 6.0 -110.0 7.5 -109.75 8.25 -109.9 9.1 M-102.1 22.85 Q-102.35 24.0 -103.55 24.0 -106.25 24.0 -106.4 21.85 -106.4 20.25 -105.0 20.25 -104.55 20.25 -103.4 21.25 -102.3 22.25 -102.1 22.85 M-85.5 25.55 Q-82.45 25.55 -81.8 27.15 -81.45 28.0 -81.75 28.9 -81.75 33.25 -84.15 33.25 -88.75 33.25 -88.75 29.55 -88.75 25.55 -85.5 25.55 M-97.4 52.85 Q-95.3 54.6 -95.05 55.25 -95.8 56.0 -96.3 56.0 -98.1 56.0 -99.85 54.6 -101.45 53.25 -101.75 51.8 -100.9 51.05 -100.25 51.05 -99.55 51.05 -97.4 52.85" fill="#000000" fill-opacity="0.43137255" fill-rule="evenodd" stroke="none"/>
    <path d="M73.75 -61.4 L75.5 -59.8 Q75.3 -59.25 75.25 -58.4 75.65 -58.05 74.4 -58.05 71.75 -58.05 71.75 -60.1 L71.8 -60.9 73.75 -61.4 M33.75 -50.9 L33.25 -49.85 32.05 -50.0 31.85 -49.95 Q31.65 -50.0 31.65 -50.8 L31.8 -51.8 32.75 -51.9 Q33.45 -51.6 33.75 -50.9 M11.9 -23.1 L10.75 -23.1 Q10.35 -23.75 10.35 -24.5 10.35 -25.75 11.4 -25.3 L12.3 -24.65 12.15 -23.5 11.9 -23.1 M72.25 -45.15 L71.75 -44.15 70.25 -44.25 70.0 -46.25 71.4 -46.35 72.25 -45.15 M100.55 -65.85 L100.55 -65.05 99.75 -64.25 98.25 -64.25 98.0 -65.5 Q98.0 -66.35 99.25 -66.85 100.0 -66.55 100.55 -65.85 M-111.75 -66.4 L-112.0 -65.5 -112.0 -65.25 -112.75 -65.05 Q-113.55 -65.05 -114.8 -65.55 -114.8 -67.65 -113.25 -68.5 -111.75 -67.75 -111.75 -66.4 M-107.15 -57.4 Q-108.05 -57.4 -108.05 -57.0 -109.75 -58.2 -109.75 -58.35 -109.75 -58.75 -109.0 -59.45 -108.25 -60.15 -108.05 -59.85 -106.9 -59.4 -106.9 -58.6 L-107.15 -57.4 M-89.85 -62.75 Q-88.7 -62.05 -88.3 -61.3 -88.45 -60.75 -89.35 -59.85 L-91.5 -61.15 Q-91.5 -63.1 -89.85 -62.75 M-40.25 -58.8 Q-40.25 -58.3 -40.6 -57.75 L-42.5 -57.4 -42.85 -58.6 -42.2 -58.75 Q-41.55 -59.0 -41.55 -60.0 L-40.35 -59.35 Q-40.25 -60.05 -40.25 -58.8 M-20.75 -56.6 L-20.85 -55.8 -21.8 -55.15 Q-22.8 -55.65 -22.8 -56.6 -22.8 -57.85 -21.8 -57.65 -20.95 -57.3 -20.75 -56.6 M-40.75 -38.3 Q-39.8 -38.3 -39.05 -37.1 L-39.05 -36.35 -40.0 -36.0 Q-41.55 -36.0 -41.55 -38.15 L-40.75 -38.3 M-22.75 -43.35 L-22.8 -42.55 -23.35 -41.9 -24.9 -42.05 -25.05 -43.4 Q-25.05 -44.45 -23.85 -44.8 -22.75 -44.25 -22.75 -43.35" fill="#ffffff" fill-rule="evenodd" stroke="none"/>
    <path d="M49.0 -63.35 Q49.35 -63.55 49.35 -62.3 L49.0 -61.15 47.25 -60.65 Q46.55 -61.5 46.1 -63.25 L47.5 -63.5 49.0 -63.35 M4.25 -54.0 L4.0 -53.35 2.8 -53.5 2.55 -54.5 2.8 -55.15 3.25 -55.15 4.25 -54.0 M22.3 -63.5 Q23.5 -63.05 23.5 -61.65 L22.8 -60.65 21.25 -60.75 21.15 -62.15 Q21.15 -63.15 22.3 -63.5 M11.0 -30.5 Q10.6 -30.85 10.6 -32.75 L11.65 -32.8 Q12.15 -32.4 12.15 -31.65 L12.05 -30.85 Q11.65 -30.5 11.0 -30.5 M52.3 -45.35 Q52.3 -46.35 53.5 -46.75 54.5 -46.35 54.65 -44.9 54.2 -44.15 52.85 -44.15 52.3 -44.7 52.3 -45.35 M-81.8 -66.6 L-80.5 -66.25 -80.25 -65.85 Q-81.15 -65.85 -81.8 -66.5 L-81.8 -66.6 M-32.55 -51.0 Q-32.9 -51.25 -31.65 -51.25 -30.45 -51.25 -30.25 -50.35 -30.45 -49.6 -32.25 -49.6 -32.55 -50.0 -32.55 -51.0 M-10.35 -71.15 Q-10.6 -70.45 -11.4 -70.1 -12.4 -70.55 -12.4 -71.35 -12.4 -72.9 -11.1 -72.75 -10.35 -72.15 -10.35 -71.15 M-62.0 -62.15 Q-62.0 -63.15 -60.75 -63.5 -59.6 -63.05 -59.6 -61.65 -59.8 -61.2 -60.35 -60.65 L-61.8 -60.75 -62.0 -62.15 M-3.05 -32.15 L-4.65 -33.5 -4.5 -34.5 Q-4.85 -34.75 -3.6 -34.75 L-2.15 -33.35 -3.05 -32.15" fill="#42f954" fill-rule="evenodd" stroke="none"/>
    <path d="M131.25 80.5 L-135.4 80.5 -135.4 -78.0 131.25 -78.0 131.25 80.5" fill="url(#gradient6)" fill-rule="evenodd" stroke="none"/>
  </g>
  <defs>
    <radialGradient cx="0" cy="0" gradientTransform="matrix(0.266, 0.0, 0.0, 0.266, -7.25, 73.8)" gradientUnits="userSpaceOnUse" id="gradient0" r="819.2" spreadMethod="pad">
      <stop offset="0.0" stop-color="#54344f"/>
      <stop offset="0.611764705882353" stop-color="#302736"/>
      <stop offset="1.0" stop-color="#000000"/>
    </radialGradient>
    <linearGradient gradientTransform="matrix(-0.0035, -0.0725, 0.1007, -0.0048, 54.55, 3.05)" gradientUnits="userSpaceOnUse" id="gradient1" spreadMethod="pad" x1="-819.2" x2="819.2">
      <stop offset="0.0" stop-color="#302736" stop-opacity="0.34117648"/>
      <stop offset="1.0" stop-color="#000000" stop-opacity="0.7137255"/>
    </linearGradient>
    <radialGradient cx="0" cy="0" gradientTransform="matrix(0.1165, 0.0, 0.0, 0.1165, 51.45, 64.45)" gradientUnits="userSpaceOnUse" id="gradient2" r="819.2" spreadMethod="pad">
      <stop offset="0.0" stop-color="#745a50"/>
      <stop offset="1.0" stop-color="#523f4d"/>
    </radialGradient>
    <radialGradient cx="0" cy="0" gradientTransform="matrix(0.19, 0.0, 0.0, 0.19, -6.75, 75.4)" gradientUnits="userSpaceOnUse" id="gradient3" r="819.2" spreadMethod="pad">
      <stop offset="0.0" stop-color="#e9c26b"/>
      <stop offset="1.0" stop-color="#533535"/>
    </radialGradient>
    <radialGradient cx="0" cy="0" gradientTransform="matrix(0.1196, 0.0, 0.0, 0.1196, 95.1, 68.6)" gradientUnits="userSpaceOnUse" id="gradient4" r="819.2" spreadMethod="pad">
      <stop offset="0.0" stop-color="#506974"/>
      <stop offset="1.0" stop-color="#50384e"/>
    </radialGradient>
    <radialGradient cx="0" cy="0" gradientTransform="matrix(0.1399, 0.0, 0.0, 0.1399, -110.2, 60.3)" gradientUnits="userSpaceOnUse" id="gradient5" r="819.2" spreadMethod="pad">
      <stop offset="0.0" stop-color="#506974"/>
      <stop offset="1.0" stop-color="#50384e"/>
    </radialGradient>
    <linearGradient gradientTransform="matrix(0.0135, -0.1144, 0.1718, 0.0203, -2.15, 1.25)" gradientUnits="userSpaceOnUse" id="gradient6" spreadMethod="pad" x1="-819.2" x2="819.2">
      <stop offset="0.0" stop-color="#b18212" stop-opacity="0.6313726"/>
      <stop offset="0.7764705882352941" stop-color="#7e5b0a" stop-opacity="0.0"/>
    </linearGradient>
  </defs>
</svg>
