<?xml version="1.0" encoding="UTF-8" standalone="no"?>
<svg xmlns:ffdec="https://www.free-decompiler.com/flash" xmlns:xlink="http://www.w3.org/1999/xlink" ffdec:objectType="shape" height="507.5px" width="764.85px" xmlns="http://www.w3.org/2000/svg">
  <g transform="matrix(1.0, 0.0, 0.0, 1.0, 31.25, 20.0)">
    <path d="M720.45 458.5 L0.3 458.5 0.3 0.4 720.45 0.4 720.45 458.5" fill="url(#gradient0)" fill-rule="evenodd" stroke="none"/>
    <path d="M720.45 458.5 L0.3 458.5 0.3 0.4 720.45 0.4 720.45 458.5 Z" fill="none" stroke="#000000" stroke-linecap="round" stroke-linejoin="round" stroke-width="0.05"/>
    <path d="M-2.8 207.95 Q-4.75 220.6 -6.5 227.7 -8.45 235.45 -6.85 258.45 L-7.75 265.75 Q-10.45 283.85 -16.9 311.05 -23.8 340.0 -26.0 340.0 -29.75 340.0 -31.25 328.25 -31.25 321.0 -28.55 306.65 L-22.6 276.35 Q-14.0 229.9 -14.0 187.25 -14.0 181.25 -15.5 157.4 L-17.0 132.1 Q-17.0 128.4 -16.5 125.9 -15.55 127.75 -12.0 127.75 L-7.7 127.5 Q-5.4 136.05 -3.7 155.1 -2.2 172.45 -1.75 190.0 -1.75 193.15 -2.8 207.95" fill="url(#gradient1)" fill-rule="evenodd" stroke="none"/>
    <path d="M557.65 137.05 Q557.6 137.85 557.9 140.2 558.2 142.1 557.85 143.25 557.5 144.6 558.35 149.8 559.05 154.45 557.55 157.25 552.7 166.1 520.85 169.25 L505.85 170.25 Q496.55 170.25 493.95 161.8 493.5 160.3 492.7 155.65 492.2 152.55 491.35 152.0 481.45 146.0 477.7 142.05 473.85 137.95 473.85 133.25 473.85 128.85 475.05 126.6 476.3 124.2 479.8 122.4 482.6 120.9 489.85 118.35 L506.85 112.25 Q512.0 110.35 531.6 107.5 534.55 106.85 541.85 103.15 547.1 100.5 555.35 100.5 567.9 100.5 572.35 108.0 574.6 111.75 574.35 115.85 574.35 121.25 573.35 123.1 571.4 126.75 563.6 130.5 557.9 133.25 557.65 137.05" fill="url(#gradient2)" fill-rule="evenodd" stroke="none"/>
    <path d="M682.85 -19.5 Q686.85 -19.5 688.65 -15.75 692.3 -14.8 693.9 -9.5 694.9 -6.25 694.85 -2.75 694.85 -1.0 693.6 4.4 691.8 11.9 688.9 18.2 680.95 35.35 667.7 37.45 662.35 42.45 655.05 48.3 L649.8 52.45 Q647.85 55.35 643.9 59.6 L641.85 61.7 638.35 68.5 Q638.35 70.0 640.6 73.0 642.85 76.0 642.85 77.85 642.85 82.55 628.9 90.25 616.2 97.25 612.85 97.25 608.75 97.25 607.0 95.3 602.95 93.1 600.9 85.65 L600.15 82.4 Q598.8 81.4 598.15 79.2 L597.6 74.85 Q597.6 74.1 599.55 69.85 601.9 64.8 604.65 60.25 612.75 46.75 618.85 46.75 L619.55 46.8 Q630.45 38.2 647.6 27.75 653.15 24.35 656.65 17.0 658.95 12.15 661.15 3.3 663.55 -6.15 664.5 -8.5 666.55 -13.5 669.85 -13.5 672.4 -13.5 674.25 -12.6 678.15 -19.5 682.85 -19.5" fill="url(#gradient3)" fill-rule="evenodd" stroke="none"/>
    <path d="M-2.8 207.95 L-1.4 198.2 1.25 177.5 Q-4.5 135.85 -4.5 130.25 L-4.3 127.15 -3.15 127.05 Q-2.7 130.0 1.0 130.0 12.1 130.0 26.3 127.75 34.6 126.45 46.3 125.9 L90.9 130.45 88.7 130.85 83.65 136.7 Q75.75 147.35 75.75 156.0 75.75 160.6 79.35 164.85 L78.55 165.55 Q77.25 166.9 77.25 168.1 77.25 171.1 101.3 181.75 126.1 192.75 136.0 192.75 L138.55 192.25 138.75 194.0 138.75 194.5 Q143.5 197.95 143.5 201.25 143.5 203.7 141.75 205.75 139.4 208.5 135.0 208.5 L134.55 208.45 132.25 218.0 Q129.5 230.2 129.5 234.1 129.5 236.9 132.2 238.5 129.75 239.8 129.75 241.0 129.75 247.75 151.25 247.75 166.85 247.75 172.85 245.5 L173.35 246.45 173.5 246.4 174.8 244.9 Q178.1 241.2 180.7 238.95 179.2 237.05 179.05 233.95 178.9 231.45 179.7 228.35 L180.5 225.6 177.25 217.6 Q171.35 214.9 167.25 204.45 165.5 200.0 164.35 194.7 163.5 190.9 163.5 190.1 163.5 188.65 164.5 187.5 164.95 186.95 165.45 186.7 163.0 179.55 162.45 176.3 167.05 174.7 170.5 168.0 172.8 163.6 173.75 159.0 173.75 155.3 170.5 151.5 165.65 145.75 156.0 145.75 152.4 145.75 149.25 146.75 L147.3 144.95 Q140.25 138.0 140.25 131.35 140.25 130.9 140.4 130.4 137.75 128.4 137.75 125.1 137.75 122.8 139.3 121.0 141.2 118.75 144.5 118.75 L175.5 120.75 180.1 118.95 Q181.25 119.5 183.25 119.5 L200.3 117.45 Q200.4 118.9 200.75 119.25 L205.75 119.0 Q250.6 119.15 271.4 114.75 L273.7 114.25 274.25 114.25 Q280.8 114.25 289.6 112.9 L296.35 112.75 Q305.25 112.75 309.75 114.35 L316.4 113.3 316.75 113.25 316.8 113.2 Q319.6 114.25 323.0 114.25 L329.5 113.7 330.45 113.75 330.25 115.85 330.35 117.25 328.8 117.9 Q327.7 122.5 324.5 131.65 L323.15 135.65 Q321.35 137.15 320.2 140.1 L319.75 141.75 319.0 142.5 305.15 154.45 Q300.05 158.95 296.8 162.25 L294.0 162.0 Q292.5 162.0 272.45 167.8 L266.6 169.55 Q264.95 168.5 262.0 168.5 257.3 168.5 255.05 171.25 254.15 172.35 253.8 173.5 247.5 173.8 233.5 192.5 228.45 199.25 224.15 206.05 220.25 212.2 220.25 213.1 L220.2 214.25 Q220.2 215.5 220.75 216.5 L221.4 217.4 221.25 217.65 221.25 218.1 Q221.25 219.8 219.3 224.3 206.9 226.8 196.6 237.55 L196.35 237.65 196.4 237.8 Q194.45 239.85 192.55 242.25 L189.2 246.85 187.2 246.1 181.15 253.35 179.6 255.45 177.9 259.9 Q176.5 263.5 175.8 267.0 173.0 268.05 171.0 274.3 169.25 279.85 169.25 283.25 L169.8 286.5 169.85 286.75 Q168.75 288.95 168.75 289.85 168.75 290.8 171.0 298.15 174.0 307.85 177.75 315.95 179.8 320.35 181.95 324.0 184.35 330.55 188.0 336.25 201.6 357.3 227.75 359.5 239.5 367.6 248.2 368.0 250.35 369.9 252.75 371.8 267.15 383.35 277.0 385.2 L278.35 387.2 Q277.0 388.95 277.0 391.35 L277.9 395.3 Q279.1 399.9 280.7 403.75 285.15 414.3 291.25 415.75 294.5 420.25 298.5 420.25 307.6 420.25 316.5 416.05 L320.9 413.6 329.15 416.5 336.4 418.9 Q360.2 440.15 368.85 445.65 L368.85 448.15 Q368.25 452.2 364.85 455.0 355.15 463.0 321.0 463.0 L272.85 460.5 Q242.6 459.65 233.0 458.0 231.1 457.25 228.6 457.25 L222.8 460.4 228.25 474.25 Q227.85 475.5 226.0 476.25 L222.55 472.35 221.0 472.5 Q214.55 472.5 190.55 429.85 L179.7 410.0 168.75 396.65 160.35 385.95 154.8 381.1 147.35 374.25 147.0 374.25 Q140.1 374.25 124.5 353.9 L115.15 340.85 Q93.7 330.65 84.75 325.25 83.45 324.45 70.2 321.55 57.05 318.65 53.25 316.25 L42.65 308.3 Q36.05 303.5 32.25 303.5 30.1 303.5 21.75 312.6 13.75 321.3 13.75 322.0 13.75 323.25 15.0 328.95 L16.25 335.85 Q16.25 339.4 15.2 343.35 23.25 351.15 35.0 364.0 L42.05 372.7 Q46.9 378.1 51.25 378.5 57.8 379.2 62.8 384.15 L71.0 393.25 Q139.75 456.75 139.75 458.85 139.75 461.55 138.25 463.65 136.15 466.6 131.85 466.6 127.95 466.6 124.75 465.1 L119.0 461.5 117.6 468.05 Q115.85 472.85 112.0 472.85 107.0 472.85 100.65 468.45 L93.5 462.85 90.75 466.55 Q88.05 469.85 86.0 469.85 79.9 469.85 77.3 466.95 L75.45 464.55 Q74.3 463.15 73.0 462.5 L71.1 468.6 Q70.35 470.15 69.15 470.2 64.6 468.85 58.35 468.85 56.2 468.85 53.75 471.0 51.3 473.1 50.0 473.1 48.75 473.1 45.45 471.85 42.1 470.6 40.85 470.6 39.6 470.6 38.95 471.75 38.25 472.85 37.0 472.85 28.5 472.85 20.25 463.6 19.65 464.25 18.1 467.7 16.35 470.85 14.0 470.85 2.75 470.85 -29.5 440.0 -29.5 437.65 -26.25 434.75 -23.0 431.85 -23.0 430.0 -23.0 427.8 -17.45 421.1 -11.35 413.75 -7.0 412.75 L-12.05 406.7 Q-13.25 404.75 -13.25 401.85 -13.25 398.75 -8.6 395.1 -4.0 391.45 -4.0 389.5 -4.0 389.15 -10.35 381.5 -16.75 373.85 -16.75 370.0 -16.75 366.65 -14.35 363.35 -12.0 360.05 -12.0 358.0 -12.0 356.75 -9.25 352.0 -8.75 351.05 -8.75 346.0 -6.45 333.15 -2.25 331.5 L-2.9 322.65 -3.0 317.0 Q-3.0 302.55 -5.95 269.9 L-6.85 258.45 Q-8.45 235.45 -6.5 227.7 -4.75 220.6 -2.8 207.95 M29.9 186.25 L26.8 192.65 Q27.7 194.15 28.25 196.85 28.25 198.4 26.95 201.0 L31.05 202.25 Q29.75 203.05 29.75 205.25 37.25 214.25 43.5 214.25 46.8 214.25 47.2 211.75 L47.75 211.75 Q52.8 211.75 54.25 210.0 54.75 209.35 54.75 207.75 54.75 207.2 54.25 206.7 L57.55 207.05 Q54.6 202.1 51.35 193.0 L46.5 179.4 Q44.0 173.25 42.25 173.25 38.5 173.25 35.2 177.2 32.95 179.95 29.9 186.25 M213.55 221.85 L213.75 222.5 213.9 222.3 213.55 221.85 M194.95 227.9 L195.5 227.5 194.95 227.5 194.95 227.9" fill="url(#gradient4)" fill-rule="evenodd" stroke="none"/>
    <path d="M610.85 10.0 Q610.85 13.45 603.5 20.95 595.95 28.65 584.9 36.25 556.35 55.75 533.85 55.75 529.15 55.75 525.9 45.25 523.6 37.7 523.6 34.0 523.6 29.95 526.15 29.55 527.85 29.25 534.35 29.75 537.7 29.75 554.9 23.75 571.45 18.0 576.85 15.25 578.05 14.65 583.7 12.4 588.7 10.45 591.1 9.0 592.75 7.95 597.55 3.95 599.9 2.0 602.85 2.0 607.95 2.0 609.9 5.85 610.9 7.8 610.85 10.0 M491.25 67.5 L491.6 70.35 Q491.6 73.0 490.35 76.0 488.45 80.5 484.85 80.5 476.45 80.5 473.65 72.85 L471.35 74.5 Q459.25 83.0 448.5 83.0 428.4 83.0 422.75 79.55 421.65 78.9 419.8 76.8 418.4 75.25 416.35 74.75 L407.65 74.65 Q399.15 74.3 394.85 72.0 383.6 65.85 380.4 62.6 377.1 59.3 377.1 54.0 377.1 49.0 378.4 47.1 379.65 45.2 383.05 45.0 L392.4 45.35 407.6 46.0 419.15 44.0 Q431.55 42.0 436.85 42.0 446.25 42.0 456.1 46.0 458.25 47.15 465.35 48.1 470.5 48.75 473.0 49.45 474.6 44.75 479.85 44.75 484.7 44.75 488.0 53.75 L487.85 56.0 488.25 58.8 Q488.8 62.0 489.9 64.65 490.5 66.2 491.25 67.5 M601.9 135.85 Q607.15 143.25 608.85 144.75 L619.95 153.8 Q621.85 155.65 621.85 160.5 L620.95 168.6 Q619.75 177.2 618.15 184.5 613.25 207.0 606.85 207.0 592.75 207.0 585.15 201.55 579.35 197.4 579.35 192.5 581.0 176.7 583.85 161.05 589.6 129.75 595.85 129.75 597.6 129.75 601.9 135.85 M428.85 248.25 Q430.95 243.1 437.6 236.45 L444.3 229.55 Q447.35 225.95 447.35 223.5 447.35 222.8 445.75 219.7 L444.1 216.35 Q444.1 211.9 448.1 209.0 453.85 204.85 466.35 206.0 466.75 197.75 475.85 197.75 490.65 197.75 499.35 218.6 503.7 229.05 505.1 239.75 L500.15 251.1 499.95 251.6 Q491.65 258.3 482.85 293.0 L481.95 296.7 Q478.7 298.5 474.1 298.5 465.85 298.5 454.65 287.4 451.2 284.05 447.55 279.6 L444.35 275.75 Q442.3 274.2 441.4 269.55 440.5 264.95 438.85 263.75 L429.8 257.0 Q427.85 255.2 427.85 252.75 427.85 251.95 428.0 251.1 428.25 249.75 428.85 248.25 M537.9 268.05 Q540.4 266.75 543.85 266.75 551.2 266.75 554.4 272.8 556.0 275.85 556.1 279.1 L554.05 285.25 Q555.4 286.0 556.1 287.8 555.6 288.65 555.6 289.35 555.6 290.0 556.85 291.75 L556.85 294.25 556.0 305.65 553.25 312.7 Q547.35 330.7 547.35 349.0 L547.25 350.65 Q547.3 352.4 547.9 353.9 548.9 356.4 551.3 357.55 L551.1 359.85 550.95 361.6 Q552.75 362.5 553.9 364.3 555.0 366.05 555.1 368.0 555.1 374.25 547.1 374.25 544.0 374.25 542.15 371.25 L533.4 370.8 532.6 371.0 Q529.25 371.0 527.25 370.0 522.0 369.0 519.15 367.25 L517.8 366.25 Q520.25 365.25 521.85 363.0 523.85 360.15 523.85 357.0 523.85 345.6 532.75 312.7 L533.75 309.05 535.05 308.55 537.6 294.3 Q541.6 278.55 541.6 276.0 541.6 273.45 540.4 271.1 539.45 269.2 537.9 268.05 M586.7 287.1 Q590.15 282.0 593.4 279.4 L593.8 278.65 Q598.55 269.7 601.6 267.5 606.5 264.0 619.05 256.8 634.4 248.0 637.85 248.0 640.6 248.0 642.3 249.9 643.95 251.75 645.85 251.75 651.1 251.75 653.15 256.05 654.15 258.2 654.1 260.5 654.1 262.3 651.2 268.85 647.45 277.3 642.15 284.55 626.05 306.5 603.6 306.5 596.35 306.5 595.4 302.9 595.25 302.35 595.25 301.5 L583.85 320.75 573.9 343.7 Q567.4 358.75 563.85 358.75 L561.8 358.4 561.25 358.05 Q561.6 358.85 561.6 360.1 561.6 363.6 557.35 363.75 L554.35 363.25 Q554.1 363.1 554.1 360.6 554.1 359.3 554.45 358.4 L556.35 358.5 Q565.5 358.5 569.2 343.9 570.35 339.5 571.15 332.8 L572.1 325.5 Q572.35 324.65 580.45 308.9 587.85 294.5 587.85 289.85 L586.7 287.1 M327.3 280.95 Q321.5 305.75 316.6 305.75 311.85 305.75 307.9 298.25 L304.85 290.5 Q304.85 287.5 310.15 269.5 L310.2 269.35 Q308.3 273.25 306.85 273.25 303.75 273.25 302.45 271.25 300.2 272.5 297.85 272.5 L282.75 271.9 Q282.35 270.2 281.15 268.65 278.95 265.9 274.85 266.0 275.8 261.95 277.65 246.0 279.35 231.0 279.35 228.75 279.35 227.5 278.1 226.15 276.85 224.75 276.85 223.5 276.85 222.05 278.25 219.0 279.6 215.9 279.6 214.85 279.8 212.6 278.9 210.55 287.65 207.0 313.85 207.0 320.2 207.0 323.6 211.5 L324.6 212.9 Q322.6 217.05 320.4 224.05 315.6 239.1 315.6 242.75 L315.45 244.4 Q315.4 246.2 315.85 247.65 L316.7 249.55 315.45 254.15 Q316.6 251.6 317.55 250.55 319.35 252.2 322.7 252.25 324.75 254.4 327.5 258.4 327.1 262.0 327.1 264.85 L327.05 271.7 Q327.05 276.6 327.3 280.95 M243.85 269.1 Q237.15 298.25 231.0 298.25 228.15 298.25 227.0 295.75 219.0 295.75 210.75 283.75 208.05 279.8 205.8 275.3 204.0 271.6 204.0 271.0 204.0 266.15 212.25 247.85 220.5 229.6 220.5 223.35 220.5 222.3 217.65 219.3 214.75 216.25 214.75 215.1 214.75 212.45 216.55 210.25 218.8 207.5 223.0 207.5 235.4 207.5 245.8 216.8 248.6 219.3 250.9 222.15 247.5 225.75 247.5 227.1 247.5 228.35 248.65 230.1 249.75 231.85 249.75 233.1 L247.0 249.65 245.1 256.95 245.6 258.15 245.25 260.2 243.85 269.1 M414.75 313.4 L414.1 316.0 423.3 311.4 Q432.4 307.0 434.85 307.0 440.75 307.0 442.9 311.25 443.95 313.35 443.85 315.75 443.85 318.55 440.0 323.25 435.85 328.4 429.35 333.0 412.45 345.0 393.1 345.0 391.85 345.0 390.5 346.0 389.1 347.0 387.85 347.0 384.45 347.0 383.1 344.9 381.8 342.75 378.35 342.75 377.85 342.75 374.0 344.9 370.2 347.0 368.75 347.0 364.55 347.0 361.9 338.05 L360.1 329.0 Q360.1 327.3 372.15 318.5 380.3 312.6 385.3 310.45 394.6 314.0 408.85 314.0 L414.75 313.4 M353.1 347.5 L353.8 347.15 355.85 346.75 Q357.85 346.75 377.85 353.25 L392.75 355.75 Q396.35 356.85 396.35 360.1 396.35 364.5 390.35 364.5 377.25 364.5 365.85 360.8 352.6 356.45 352.6 349.75 352.6 349.0 353.1 347.5 M368.1 418.35 L374.8 421.3 Q385.5 425.8 390.6 426.5 403.65 428.25 407.35 429.5 411.6 430.9 411.6 433.85 411.6 436.35 409.15 438.0 406.45 439.75 401.85 439.75 388.35 439.75 374.4 434.25 L369.25 432.0 Q370.85 431.8 372.6 430.25 374.85 428.35 374.85 426.1 374.85 420.75 368.85 420.75 366.35 420.75 364.9 423.25 363.85 425.1 363.85 427.0 L364.1 428.85 Q359.85 425.65 359.85 422.25 359.85 417.55 363.85 417.05 365.5 418.05 368.1 418.35 M444.85 346.0 Q444.85 349.75 440.25 349.75 437.0 349.75 436.1 347.85 435.85 347.25 435.85 345.6 435.85 341.0 439.85 341.0 444.6 341.0 444.85 346.0 M559.1 385.25 Q558.5 384.25 558.35 383.0 L558.35 381.85 Q558.35 379.65 559.9 377.8 561.75 375.5 564.85 375.5 571.5 375.5 571.35 382.0 571.35 383.5 570.1 385.75 568.55 388.5 566.6 388.5 560.95 388.5 559.1 385.25 M35.0 189.25 Q40.25 189.25 42.25 193.5 43.3 195.6 43.25 198.0 43.25 210.0 35.5 210.0 29.85 210.0 28.75 205.85 28.4 204.5 28.55 202.85 L28.75 201.35 Q28.75 197.1 29.25 195.0 30.6 189.25 35.0 189.25 M119.95 193.5 Q118.0 192.3 116.75 190.15 L113.0 190.5 Q92.9 190.5 82.55 178.0 78.9 173.65 76.95 168.3 75.5 164.25 75.5 161.5 75.05 157.7 75.8 154.05 76.65 149.5 79.25 147.8 79.3 143.35 81.55 139.75 85.05 134.25 92.5 134.25 103.25 134.25 120.55 148.5 127.35 154.1 132.05 159.55 L133.1 160.8 Q139.35 161.25 142.5 167.25 144.2 170.5 144.5 174.0 144.5 180.45 141.55 186.0 137.4 193.75 128.9 194.85 125.3 193.65 120.0 193.5 L119.95 193.5 M159.0 212.85 Q160.25 217.8 160.0 223.0 160.0 228.8 156.55 235.75 151.45 246.0 142.0 246.0 132.05 246.0 129.05 238.5 128.1 236.15 127.95 233.3 L128.0 230.75 Q128.45 223.35 131.3 216.55 136.9 203.0 149.0 203.0 156.5 203.0 159.0 212.85 M165.8 261.05 Q172.9 240.95 186.0 240.0 189.0 242.55 189.0 243.1 189.0 245.25 182.65 255.65 175.75 266.8 174.5 272.75 173.7 276.7 172.4 289.55 170.8 300.5 167.5 300.5 161.7 300.5 160.55 295.8 160.15 294.3 160.3 292.4 L160.5 290.5 Q160.5 282.2 162.3 273.6 L166.0 274.25 Q168.65 274.25 170.8 272.05 173.0 269.85 173.0 267.1 173.1 261.0 167.0 261.0 L165.8 261.05 M47.8 342.25 Q50.65 339.25 56.0 339.25 58.55 339.25 69.55 346.45 79.95 353.25 85.0 357.75 88.9 361.25 99.55 368.3 104.5 371.6 104.5 376.1 104.5 378.75 102.55 381.0 100.3 383.5 97.0 383.5 95.0 383.5 89.75 380.75 96.3 385.95 105.5 394.3 L131.35 418.5 137.7 422.2 Q150.9 430.15 167.5 441.0 L194.15 457.7 Q216.0 472.3 216.0 477.0 216.0 479.5 215.5 479.25 215.5 480.0 213.0 480.0 204.75 480.0 185.6 468.95 193.5 477.65 193.5 480.75 193.5 482.1 192.25 484.5 190.7 487.5 188.75 487.5 181.55 487.5 157.55 464.75 L155.9 463.1 154.5 461.9 Q133.05 442.55 127.0 437.5 115.2 428.1 105.65 419.75 94.95 419.0 75.1 400.05 68.65 393.85 60.25 384.8 L50.5 374.25 Q12.25 334.0 12.25 328.1 12.25 326.0 13.5 324.0 15.35 321.0 19.0 321.0 26.45 321.0 44.8 340.45 L47.15 343.0 47.8 342.25 M13.5 364.75 L28.35 377.35 Q44.0 390.8 48.75 395.5 L63.5 411.3 Q73.35 422.0 77.25 425.5 L77.5 426.25 Q74.75 426.25 72.65 424.25 L70.25 422.25 Q67.3 422.25 54.65 410.6 L38.25 395.0 32.55 390.45 33.25 392.85 Q33.25 396.35 30.5 400.75 33.5 403.85 40.45 409.75 47.6 415.85 50.5 418.75 L50.5 419.5 Q48.75 418.6 39.05 410.25 L29.35 402.25 Q25.25 405.25 21.0 405.25 12.0 405.25 6.0 395.5 4.1 392.45 2.75 388.8 L1.75 385.75 Q1.75 382.25 3.75 379.0 6.95 373.75 14.0 373.75 L14.2 373.75 Q10.75 369.65 10.75 367.25 L11.0 365.75 11.6 364.95 13.5 364.75 M75.5 372.25 L75.85 372.3 72.15 369.9 74.6 372.3 75.5 372.25 M154.0 305.1 L154.5 302.75 155.25 302.75 Q159.25 314.85 173.75 343.6 L173.6 345.2 173.25 345.25 Q174.5 345.75 172.0 345.75 167.45 345.75 160.3 325.6 L154.0 305.1 M278.85 289.85 L279.1 288.0 281.35 287.75 Q282.35 288.5 282.85 290.0 L281.85 292.0 279.6 291.75 279.05 291.45 Q278.85 291.35 278.85 289.85 M209.0 236.1 Q209.0 238.25 206.25 238.95 203.5 239.65 203.5 240.85 203.5 243.35 202.0 243.5 198.85 243.65 197.5 241.4 196.75 240.15 196.75 238.75 196.75 236.85 198.5 235.0 200.65 232.75 204.0 232.75 209.0 232.75 209.0 236.1 M197.0 357.0 Q197.0 353.0 201.5 353.0 207.25 353.0 206.75 357.1 206.75 359.1 204.8 360.25 203.4 361.0 202.25 361.0 197.0 361.0 197.0 357.0 M226.1 350.5 Q232.65 351.75 240.55 356.05 252.0 362.35 252.0 368.0 252.0 369.3 251.05 371.0 249.9 373.0 248.5 373.0 233.25 366.25 226.75 364.25 218.15 361.65 216.7 360.85 213.75 359.2 213.75 355.75 213.8 354.2 214.75 352.8 L215.75 351.65 215.75 352.1 216.05 355.35 Q217.1 358.25 221.0 358.25 226.25 358.25 226.25 352.1 L226.1 350.5 M294.1 311.75 Q294.1 313.25 293.1 314.8 292.15 316.25 291.35 316.25 286.1 316.25 284.85 314.0 L284.6 311.5 Q284.6 306.75 288.85 306.75 294.0 306.75 294.1 311.75 M285.15 394.75 Q281.35 394.5 280.35 391.85 L280.1 388.6 Q280.1 386.7 280.75 385.45 L281.0 386.6 Q282.3 390.65 284.6 394.0 L285.15 394.75 M60.55 428.0 Q61.8 427.0 63.0 427.0 65.35 427.0 66.75 428.5 67.75 429.65 67.75 430.75 67.75 432.25 66.55 433.7 65.3 435.1 64.0 435.1 61.15 435.1 59.8 433.15 59.0 431.95 59.0 430.85 59.0 429.15 60.55 428.0 M621.6 423.0 Q621.6 426.1 618.9 428.25 616.05 430.5 611.85 430.5 605.65 430.5 603.4 426.35 602.7 425.0 602.45 423.35 L602.35 421.85 Q602.35 419.15 604.15 417.0 606.25 414.5 609.85 414.5 621.6 414.5 621.6 423.0 M577.85 408.85 Q577.85 413.75 572.35 413.75 568.6 413.75 567.35 411.55 L566.85 409.25 567.6 406.3 Q569.1 403.5 572.85 403.5 577.6 403.5 577.85 408.85 M507.9 445.15 Q513.6 453.9 513.6 457.25 513.6 462.95 506.05 467.05 497.3 471.75 481.85 471.75 L468.3 470.2 Q456.95 468.45 446.6 466.0 417.6 459.15 417.6 452.1 417.6 450.65 418.9 444.9 420.45 438.0 422.35 433.0 L423.35 427.95 Q423.95 424.6 425.55 422.65 430.35 416.75 448.85 416.75 451.5 416.75 473.6 425.25 494.15 433.1 500.85 436.25 502.5 436.95 507.9 445.15 M351.85 429.75 Q363.8 429.75 369.6 443.25 372.55 450.05 373.1 457.5 368.25 470.25 365.85 470.25 L363.7 469.9 362.1 469.0 Q360.15 454.05 353.65 443.75 L349.4 437.85 Q347.6 435.35 347.6 434.1 347.6 432.0 349.15 430.75 350.35 429.75 351.85 429.75 M668.85 179.05 Q669.65 182.2 669.6 185.6 662.85 229.5 655.85 229.5 651.3 229.5 649.65 225.45 L648.85 221.1 Q648.85 216.6 653.85 196.0 654.25 188.35 655.2 183.0 657.05 172.75 662.85 172.75 667.25 172.75 668.85 179.05" fill="#000000" fill-opacity="0.5137255" fill-rule="evenodd" stroke="none"/>
    <path d="M347.85 -12.25 Q361.25 -12.25 372.4 0.35 377.95 6.7 380.85 13.25 380.85 18.6 380.1 20.8 379.45 22.65 378.3 23.9 380.4 27.6 380.85 31.5 380.85 39.75 374.85 39.75 371.4 39.75 370.05 37.55 369.25 36.25 368.8 32.75 368.35 29.25 367.5 27.95 366.1 25.75 362.6 25.75 L358.35 26.0 358.0 25.6 Q357.6 25.55 357.6 27.1 357.6 30.25 360.25 33.9 362.85 37.55 362.85 39.85 362.85 42.1 361.1 44.75 358.8 48.25 355.1 48.25 352.9 48.25 350.2 46.75 347.55 45.25 345.6 45.25 L340.9 49.65 Q335.9 54.0 331.35 54.0 317.0 54.0 310.85 44.25 L307.35 37.55 Q305.75 34.5 303.85 34.5 L298.3 35.1 Q297.85 36.75 297.85 38.5 296.85 38.5 296.85 39.25 L296.1 38.75 295.85 39.0 Q291.6 38.45 291.6 35.0 291.6 32.55 293.4 30.55 L293.6 30.35 Q294.6 28.8 296.4 27.0 300.85 22.5 305.35 22.5 306.35 22.5 309.85 24.0 313.35 25.5 314.85 25.5 L328.6 24.75 Q323.85 19.75 322.4 17.25 320.6 14.05 320.6 9.75 320.6 8.15 321.65 5.2 323.05 1.15 325.65 -2.25 333.3 -12.25 347.85 -12.25 M488.0 53.75 Q488.65 47.95 492.6 42.55 499.6 33.0 513.85 33.0 521.2 33.0 524.4 41.05 526.0 45.05 526.1 49.25 526.1 61.6 499.85 73.0 494.45 73.0 491.25 67.5 490.5 66.2 489.9 64.65 488.8 62.0 488.25 58.8 L487.85 56.0 488.0 53.75 M559.9 108.2 Q559.6 107.75 559.6 105.85 559.6 101.75 564.35 101.75 568.6 101.75 569.1 106.0 568.0 110.25 566.35 110.25 561.15 110.25 559.9 108.2 M556.35 104.85 Q557.6 106.8 557.6 109.0 557.6 116.05 547.4 119.5 538.55 122.5 523.35 122.5 520.35 122.5 506.9 127.3 491.35 132.8 491.35 136.75 491.35 138.15 490.15 140.5 488.65 143.5 486.6 143.5 480.05 143.5 477.15 138.75 476.25 137.25 475.85 135.4 L475.6 133.85 Q475.6 117.75 511.6 107.75 529.6 102.8 547.85 101.0 553.9 101.0 556.35 104.85 M516.85 137.5 L516.6 134.75 Q516.6 133.15 517.6 131.8 519.1 129.75 522.35 129.75 528.1 129.75 528.1 135.1 528.1 140.0 522.35 140.0 517.95 140.0 516.85 137.5 M475.85 15.0 Q475.85 16.75 474.15 18.75 472.2 21.0 469.85 21.0 466.5 21.0 465.35 18.65 464.85 17.6 464.85 16.0 464.85 14.3 466.65 12.25 468.6 10.0 470.85 10.0 475.6 10.0 475.85 15.0 M442.85 15.5 Q446.35 15.5 446.35 19.0 446.35 25.0 441.75 25.0 438.7 25.0 437.85 22.75 L437.6 20.5 Q437.6 15.5 442.85 15.5 M422.85 5.75 Q428.6 5.75 428.6 10.1 428.6 13.6 424.35 13.75 420.65 13.75 419.65 11.85 419.35 11.25 419.35 9.6 419.35 8.25 420.4 7.0 421.5 5.75 422.85 5.75 M347.95 36.95 L350.1 38.25 349.0 35.1 347.95 36.95 M362.6 125.25 Q362.6 129.75 358.35 129.75 354.4 129.75 353.4 127.6 353.1 127.0 353.1 125.1 353.1 123.1 354.35 121.75 355.7 120.25 357.85 120.25 362.85 120.25 362.6 125.25 M353.15 188.0 Q352.4 186.5 352.15 184.65 L352.1 183.0 Q352.1 180.7 358.65 175.25 365.25 169.75 368.35 169.75 373.2 169.75 375.15 173.25 376.1 175.0 376.1 177.0 376.1 180.55 373.65 185.25 369.75 192.75 362.1 192.75 355.45 192.75 353.15 188.0 M325.15 174.25 Q323.8 176.5 322.35 176.5 315.35 176.5 315.35 171.0 315.35 168.9 316.9 167.25 318.5 165.5 320.85 165.5 326.35 165.5 326.35 170.85 326.35 172.25 325.15 174.25 M428.6 140.25 L427.7 142.5 Q426.85 143.9 424.85 144.0 421.85 141.4 421.85 140.85 421.85 138.0 424.85 138.0 427.1 138.0 428.6 140.25 M430.0 160.15 Q428.95 161.0 428.1 161.0 427.6 162.35 427.6 159.85 427.6 158.3 428.65 158.25 L431.1 158.75 Q430.9 159.4 430.0 160.15 M499.95 251.6 Q501.9 250.0 503.85 250.0 L506.5 251.35 Q509.65 253.1 512.15 255.1 520.05 261.55 518.35 268.25 L526.1 268.5 Q527.35 268.5 529.25 267.5 531.1 266.5 532.35 266.5 535.7 266.5 537.9 268.05 539.45 269.2 540.4 271.1 541.6 273.45 541.6 276.0 541.6 278.55 537.6 294.3 L533.75 309.05 532.75 312.7 Q523.85 345.6 523.85 357.0 523.85 360.15 521.85 363.0 520.25 365.25 517.8 366.25 515.85 367.0 513.35 367.0 506.05 367.0 502.5 361.9 499.75 355.95 498.35 354.25 491.45 345.7 490.5 345.4 L488.05 345.5 482.85 346.0 Q476.6 346.0 474.6 342.15 473.95 340.9 473.85 339.4 L473.85 338.0 Q473.85 336.2 476.3 323.15 478.9 309.1 481.95 296.7 L482.85 293.0 Q491.65 258.3 499.95 251.6 M556.1 287.8 Q557.45 285.35 562.35 281.5 570.0 275.5 576.85 275.5 581.7 275.5 586.7 287.1 L587.85 289.85 Q587.85 294.5 580.45 308.9 572.35 324.65 572.1 325.5 L571.15 332.8 Q570.35 339.5 569.2 343.9 565.5 358.5 556.35 358.5 L554.45 358.4 Q552.65 358.2 551.3 357.55 548.9 356.4 547.9 353.9 547.3 352.4 547.25 350.65 L547.35 349.0 Q547.35 330.7 553.25 312.7 L556.0 305.65 Q559.1 297.2 559.1 295.35 559.1 294.7 557.35 292.4 L556.85 291.75 Q555.6 290.0 555.6 289.35 555.6 288.65 556.1 287.8 M428.0 251.1 Q425.45 259.35 422.8 265.25 422.45 268.95 419.8 274.3 415.8 282.5 409.85 282.5 402.1 282.5 400.1 273.45 399.45 270.6 399.45 267.15 L399.6 264.1 Q399.6 263.15 401.35 258.05 403.45 251.95 406.1 246.5 414.05 230.25 421.85 230.25 424.7 230.25 426.7 231.5 L426.85 231.5 Q431.5 231.5 431.85 236.85 L428.85 248.25 Q428.25 249.75 428.0 251.1 M392.35 228.1 Q392.35 240.1 390.35 248.0 388.8 254.1 385.0 258.8 380.9 263.85 380.1 266.25 L379.35 266.25 Q380.6 263.85 380.6 261.35 380.6 260.65 379.1 258.35 377.6 256.05 377.6 255.75 377.6 252.55 380.85 239.25 384.7 223.5 387.85 223.5 393.25 223.5 392.35 228.1 M324.6 212.9 Q327.45 206.75 329.85 206.75 334.7 206.75 336.9 211.8 338.0 214.3 338.1 217.0 338.1 219.5 336.35 228.25 334.5 235.45 332.6 240.5 L332.85 240.5 Q337.7 240.5 343.6 280.6 346.9 279.25 350.85 279.25 358.45 279.25 360.4 287.6 361.4 291.8 360.85 296.25 360.85 305.55 358.4 309.0 353.85 315.25 338.85 315.25 332.05 315.25 330.4 307.85 329.9 305.5 329.95 302.65 L330.05 300.85 Q328.45 295.65 327.65 286.45 327.4 283.8 327.3 280.95 327.05 276.6 327.05 271.7 L327.1 264.85 Q327.1 262.0 327.5 258.4 L328.15 253.3 Q328.75 249.3 329.6 246.85 326.35 252.25 322.85 252.25 L322.7 252.25 Q319.35 252.2 317.55 250.55 L316.7 249.55 315.85 247.65 Q315.4 246.2 315.45 244.4 L315.6 242.75 Q315.6 239.1 320.4 224.05 322.6 217.05 324.6 212.9 M282.75 271.9 L282.85 273.25 Q282.85 275.85 279.35 279.35 L271.75 286.15 Q260.6 295.85 260.6 304.0 260.6 306.2 259.4 307.75 257.85 309.75 254.85 309.75 248.85 309.75 247.9 306.05 248.0 301.9 247.5 301.0 242.95 298.0 242.0 296.9 240.75 295.5 240.75 292.75 240.75 288.95 243.85 269.1 L245.25 260.2 245.6 258.15 247.0 249.65 249.75 233.1 Q249.75 231.85 248.65 230.1 247.5 228.35 247.5 227.1 247.5 225.75 250.9 222.15 253.45 219.45 257.9 215.5 268.35 206.25 271.35 206.25 277.0 206.25 278.85 210.4 L278.9 210.55 Q279.8 212.6 279.6 214.85 279.6 215.9 278.25 219.0 276.85 222.05 276.85 223.5 276.85 224.75 278.1 226.15 279.35 227.5 279.35 228.75 279.35 231.0 277.65 246.0 275.8 261.95 274.85 266.0 278.95 265.9 281.15 268.65 282.35 270.2 282.75 271.9 M385.3 310.45 L384.15 310.0 Q376.1 306.65 376.1 303.0 376.1 297.75 382.85 297.75 L407.35 300.0 423.6 298.25 428.5 297.5 432.85 296.75 Q438.0 296.75 438.1 302.1 438.1 304.7 427.4 309.25 420.35 312.25 414.75 313.4 L408.85 314.0 Q394.6 314.0 385.3 310.45 M363.85 417.05 Q362.45 416.25 361.65 414.95 361.0 413.8 360.85 412.45 L360.85 411.1 Q360.85 409.6 362.55 405.45 364.7 400.25 367.9 395.75 377.45 382.5 391.35 382.5 396.85 382.5 399.15 386.8 400.3 388.95 400.35 391.25 400.35 393.85 395.85 396.15 387.0 400.6 381.6 404.5 380.75 405.1 376.7 412.25 373.15 418.5 370.6 418.5 L368.1 418.35 Q365.5 418.05 363.85 417.05 M369.25 432.0 L368.85 432.0 Q365.55 432.0 364.4 429.65 L364.1 428.85 363.85 427.0 Q363.85 425.1 364.9 423.25 366.35 420.75 368.85 420.75 374.85 420.75 374.85 426.1 374.85 428.35 372.6 430.25 370.85 431.8 369.25 432.0 M456.35 356.0 L456.85 353.25 457.2 353.0 458.85 352.75 Q460.65 352.75 461.05 353.35 461.35 353.85 461.35 355.85 L461.1 357.0 459.85 358.5 456.85 358.25 Q456.35 358.5 456.35 356.0 M577.85 225.25 Q577.6 225.5 577.6 223.0 577.6 219.0 580.85 219.0 584.6 219.0 585.1 222.85 585.1 225.35 584.6 225.5 L584.5 225.9 Q584.55 226.25 583.1 226.25 579.85 226.25 577.85 225.25 M567.85 228.75 Q564.35 228.75 562.9 226.0 562.1 224.55 562.1 223.0 L562.9 220.05 Q564.35 217.25 567.85 217.25 573.25 217.25 573.85 223.0 573.25 228.75 567.85 228.75 M582.85 240.25 Q588.5 240.25 588.6 246.0 588.0 251.75 584.35 251.75 577.1 251.75 577.1 246.25 577.1 240.25 582.85 240.25 M596.0 228.95 L596.1 230.0 596.35 231.5 Q595.45 232.85 593.85 233.5 591.35 232.65 591.35 230.0 L592.2 228.95 Q592.75 228.5 594.35 228.5 595.85 228.5 596.0 228.95 M317.75 41.9 L318.7 42.95 Q320.55 44.65 323.4 45.3 L317.75 41.9 M273.1 186.1 Q273.1 187.85 271.65 189.5 270.15 191.25 268.35 191.25 261.6 191.25 261.6 185.75 261.6 184.35 262.65 182.8 264.1 180.5 266.85 180.5 273.35 180.5 273.1 186.1 M88.0 19.0 Q94.6 19.0 96.55 24.9 97.55 27.9 97.25 31.1 97.25 32.55 96.55 34.6 L97.35 36.5 Q99.15 40.95 102.5 41.5 103.1 40.9 104.3 37.65 105.0 35.75 108.0 35.75 112.25 35.75 111.25 41.1 110.0 50.25 105.0 50.25 96.35 50.25 92.25 44.25 L91.1 42.3 89.0 42.75 Q81.7 42.75 79.25 36.0 78.5 33.85 78.3 31.3 L78.25 29.0 Q78.25 28.3 78.4 27.65 76.4 26.95 71.05 22.75 L69.8 21.75 70.25 24.0 Q70.25 25.45 66.75 29.25 L65.75 30.3 Q66.5 32.8 66.5 35.0 66.5 38.35 64.0 41.75 L62.0 43.95 62.5 49.25 Q62.5 51.5 60.5 54.5 57.7 58.75 53.0 58.75 44.85 58.75 36.05 44.6 25.15 43.0 19.9 35.2 18.9 33.7 18.1 31.6 L18.0 31.75 17.95 31.85 17.05 34.0 Q12.8 42.75 2.0 42.75 -17.0 42.75 -17.0 30.85 -17.0 28.15 -15.3 26.0 -14.05 24.4 -12.25 23.85 L-12.25 23.75 -12.5 21.0 Q-17.6 20.85 -19.3 17.15 -20.2 15.2 -20.0 13.0 -20.0 9.55 -15.3 4.0 -9.55 -2.75 -2.5 -2.75 6.85 -2.75 13.7 8.5 L16.05 12.7 17.0 14.5 18.0 16.85 Q20.05 17.25 22.05 19.35 23.45 20.75 26.35 25.0 32.05 33.25 36.5 33.25 37.15 33.25 38.15 30.65 L40.3 25.0 Q43.95 16.75 50.0 16.75 55.3 16.75 59.15 19.8 61.4 18.25 64.0 18.25 L64.3 18.25 Q63.65 17.25 63.5 16.0 L63.5 14.85 Q63.5 12.5 65.05 10.75 66.95 8.5 70.5 8.5 L73.4 8.85 76.0 8.5 Q82.75 8.5 85.55 13.85 86.85 16.35 87.0 19.05 L88.0 19.0 M128.9 194.85 Q130.95 195.5 132.45 196.55 136.0 199.05 136.0 203.0 136.0 206.75 132.55 210.0 128.0 214.25 121.0 211.0 120.75 211.5 121.2 212.8 121.75 214.5 121.75 215.75 121.75 218.4 118.05 221.25 113.45 224.8 113.0 225.5 113.55 227.45 112.55 229.85 111.15 233.25 107.0 233.25 98.8 233.25 95.15 224.55 L92.7 217.85 Q91.3 214.35 89.5 213.25 78.6 206.7 78.75 202.75 78.25 195.5 78.25 193.0 78.25 191.45 78.95 190.05 80.4 187.25 84.0 187.25 L100.65 190.3 Q116.35 193.4 119.95 193.5 L120.0 193.5 Q125.3 193.65 128.9 194.85 M114.25 242.85 Q114.25 244.65 113.05 246.25 111.55 248.25 109.0 248.25 104.65 248.25 103.3 245.15 L102.75 241.75 Q102.75 240.2 103.75 238.8 105.15 236.75 108.0 236.75 113.6 236.75 114.25 242.85 M152.75 258.35 Q144.25 272.0 136.5 272.0 129.1 272.0 128.4 266.85 128.0 263.6 129.75 260.5 126.9 259.5 126.25 258.25 126.0 257.8 126.0 256.0 126.0 251.0 136.0 251.0 146.9 251.0 150.55 253.5 152.75 255.0 152.75 258.35 M162.3 273.6 Q160.65 272.85 159.8 271.3 L159.0 268.25 Q159.0 266.3 160.0 264.55 161.75 261.45 165.8 261.05 L167.0 261.0 Q173.1 261.0 173.0 267.1 173.0 269.85 170.8 272.05 168.65 274.25 166.0 274.25 L162.3 273.6 M133.55 284.25 L133.25 282.0 Q133.25 275.5 138.0 275.5 143.6 275.5 142.75 282.0 142.75 286.5 137.85 286.5 134.5 286.5 133.55 284.25 M140.8 287.25 Q144.1 281.25 149.5 281.25 155.45 281.25 157.3 285.85 158.25 288.2 158.0 290.75 156.75 305.0 148.0 305.0 141.55 305.0 139.3 300.6 138.55 299.15 138.35 297.45 L138.25 295.85 Q138.25 291.8 140.8 287.25 M56.0 221.85 Q56.0 223.1 55.0 226.0 54.0 228.85 54.0 230.1 54.0 233.35 51.05 235.0 L49.25 235.8 Q49.95 237.5 50.25 239.85 50.25 241.65 49.3 243.25 47.65 246.0 44.0 246.0 42.15 246.0 39.55 241.2 37.25 237.0 37.25 236.1 37.25 234.95 37.5 234.0 29.25 230.0 18.75 218.85 18.75 211.75 29.0 211.75 37.7 211.75 46.3 214.5 56.0 217.65 56.0 221.85 M33.5 251.25 Q32.15 252.75 30.0 252.75 24.5 252.75 24.5 247.85 24.5 243.25 30.0 243.25 35.0 243.25 34.75 247.85 34.75 249.85 33.5 251.25 M116.25 376.5 Q116.25 372.25 120.5 372.25 124.15 372.25 136.85 378.4 150.25 384.9 154.0 389.25 155.85 391.35 159.3 400.95 162.5 410.0 162.5 411.75 162.5 414.3 161.05 416.25 158.85 419.25 154.0 419.25 143.15 419.25 128.8 399.0 123.8 392.0 119.75 384.45 116.25 377.85 116.25 376.5 M194.6 268.65 Q195.25 269.15 195.25 270.75 L194.75 273.0 194.0 273.75 191.0 273.75 Q190.75 273.6 190.75 271.1 190.75 269.45 191.4 268.8 191.7 268.55 193.0 268.0 L194.6 268.65 M240.75 319.1 Q240.75 313.75 246.0 313.75 251.75 313.75 251.75 318.75 251.75 324.0 246.0 324.0 242.0 324.0 241.0 321.7 L240.75 319.1 M180.0 302.5 Q178.65 304.0 177.0 304.0 174.5 304.0 173.5 302.0 173.0 301.0 173.0 299.75 173.0 298.8 174.0 297.55 175.25 296.0 177.0 296.0 180.75 296.0 181.25 299.85 181.25 301.1 180.0 302.5 M180.0 345.5 L179.75 347.75 177.0 349.0 Q174.0 346.45 174.0 345.5 174.0 342.0 177.0 342.0 180.0 342.0 180.0 345.5 M196.25 328.25 Q196.25 329.85 194.8 331.25 193.5 332.5 192.5 332.5 187.95 332.5 186.8 330.25 L186.5 327.75 Q186.5 322.5 191.0 322.5 195.35 322.5 196.25 328.25 M226.1 350.5 L226.25 352.1 Q226.25 358.25 221.0 358.25 217.1 358.25 216.05 355.35 L215.75 352.1 215.75 351.65 Q216.0 346.75 221.0 346.75 225.25 346.75 226.1 350.5 M238.0 382.25 Q233.85 382.25 232.75 379.6 L232.5 376.6 Q232.5 370.5 238.5 370.5 244.5 370.5 244.5 375.85 244.5 378.1 242.8 380.05 240.85 382.25 238.0 382.25 M228.25 389.0 Q228.25 387.0 229.5 385.3 231.5 382.5 236.0 382.5 247.2 382.5 253.25 387.45 L254.65 388.75 254.6 387.0 Q254.6 385.15 257.85 383.75 261.1 386.3 261.1 386.85 261.1 389.35 260.6 389.5 L260.5 389.9 Q260.55 390.25 259.1 390.25 257.1 390.25 255.3 389.45 258.35 393.0 260.4 398.9 L264.65 411.95 Q266.5 416.35 269.45 419.0 L269.35 418.0 Q269.35 415.85 270.9 414.25 272.6 412.5 275.35 412.5 281.35 412.5 281.85 417.85 281.85 419.4 280.65 421.3 L279.65 422.55 303.35 424.0 Q309.85 425.3 313.35 426.5 321.45 429.15 325.85 437.0 330.3 444.9 331.2 447.75 332.1 450.65 332.1 456.85 332.1 459.15 330.9 461.05 329.0 464.0 324.85 464.0 317.95 464.0 314.15 455.2 L311.4 448.4 Q309.8 444.85 307.85 443.75 301.2 439.9 295.65 438.95 291.8 438.3 286.35 438.95 L276.95 439.65 Q271.0 439.5 264.35 437.0 260.0 435.4 255.85 432.05 252.6 429.45 251.0 427.25 247.95 423.2 247.1 417.15 L246.25 407.0 Q245.35 399.95 236.7 394.65 L230.85 391.4 Q228.25 389.9 228.25 389.0 M274.1 314.85 Q274.1 317.1 272.65 319.0 270.85 321.25 267.85 321.25 263.45 321.25 262.1 318.15 L261.6 314.75 Q261.6 312.7 262.85 311.05 264.55 308.75 267.85 308.75 274.25 308.75 274.1 314.85 M280.75 385.45 L280.15 383.25 Q274.85 382.95 272.6 377.95 271.85 376.25 271.5 374.2 L271.35 372.35 Q271.35 370.2 273.15 367.5 L273.45 367.05 Q272.1 366.15 270.15 365.6 L266.45 364.25 Q264.85 363.2 264.85 361.0 264.85 358.7 267.6 357.25 270.4 355.75 274.85 355.75 283.35 355.75 288.3 364.5 291.7 370.4 292.6 378.0 293.5 385.5 298.15 387.95 301.25 389.55 307.7 389.2 314.95 388.8 316.8 389.35 320.85 390.5 320.85 395.85 320.85 399.9 316.85 402.25 313.0 404.5 306.85 404.5 292.45 404.5 285.15 394.75 L284.6 394.0 Q282.3 390.65 281.0 386.6 L280.75 385.45 M319.85 404.75 Q323.6 404.75 324.1 409.0 323.25 413.25 321.1 413.25 316.95 413.25 315.9 411.2 315.6 410.7 315.6 408.85 315.6 407.55 316.6 406.3 317.85 404.75 319.85 404.75 M109.5 433.1 Q111.0 436.55 111.0 440.25 111.0 442.6 109.0 447.0 106.4 452.75 103.0 452.75 91.2 452.75 85.75 448.3 82.0 445.2 82.0 441.1 82.0 438.25 87.75 432.5 94.0 426.25 99.0 426.25 106.5 426.25 109.5 433.1 M111.25 457.95 L110.75 454.35 Q110.75 452.1 112.0 450.25 113.7 447.75 117.0 447.75 123.25 447.75 123.25 454.25 123.25 461.25 117.0 461.25 112.6 461.25 111.25 457.95 M33.0 426.75 Q36.25 429.25 36.25 429.85 36.25 431.4 34.65 432.6 32.95 433.8 30.5 434.0 L29.25 433.15 Q28.75 432.6 28.75 431.0 28.75 429.25 33.0 426.75 M342.35 405.0 Q342.35 406.9 341.15 408.75 339.35 411.5 335.85 411.5 331.75 411.5 330.15 408.4 L329.35 405.0 Q329.35 403.15 330.65 401.25 332.45 398.5 335.85 398.5 342.6 398.5 342.35 405.0 M339.85 432.85 Q339.85 434.3 338.9 435.55 337.75 437.0 335.85 437.0 333.7 437.0 332.4 435.55 331.35 434.4 331.35 433.25 331.35 432.0 331.9 431.05 332.95 429.0 335.85 429.0 339.35 429.0 339.85 432.85 M699.1 123.85 Q700.35 126.0 700.35 128.0 700.35 131.3 697.6 134.8 694.45 138.75 690.35 138.75 684.55 138.75 682.65 134.6 682.0 133.25 681.9 131.6 L681.85 130.1 Q681.85 128.0 684.4 124.5 687.6 120.0 691.85 120.0 696.9 120.0 699.1 123.85 M682.85 106.1 Q682.85 107.8 681.6 109.5 679.9 111.75 676.85 111.75 672.7 111.75 671.4 109.1 670.85 108.0 670.85 106.1 670.85 99.25 676.85 99.25 682.85 99.25 682.85 106.1 M652.1 142.0 Q646.85 142.0 646.85 138.0 646.85 134.1 652.85 133.5 655.6 136.45 655.6 138.1 655.6 139.45 654.4 140.75 653.2 142.0 652.1 142.0 M702.1 157.0 Q702.1 158.2 701.15 160.0 699.9 162.25 698.35 162.25 694.05 162.25 692.4 159.75 L691.6 157.1 Q691.6 151.75 698.35 151.75 701.5 151.75 702.1 157.0 M662.4 273.0 Q664.2 270.25 667.85 270.25 672.1 270.25 674.1 273.25 675.35 275.15 675.35 277.0 675.35 278.6 674.15 280.75 672.4 283.75 669.6 283.75 664.2 283.75 662.15 280.5 L661.1 277.1 Q661.1 274.9 662.4 273.0 M705.65 318.4 Q706.3 320.65 705.85 323.1 705.85 326.9 704.9 328.75 702.9 332.5 696.85 332.5 688.35 332.5 688.35 324.25 688.35 321.05 690.15 318.3 692.9 314.0 698.85 314.0 704.35 314.0 705.65 318.4 M666.85 338.0 Q666.85 339.3 665.85 341.0 664.7 343.0 663.35 343.0 658.75 343.0 657.35 340.75 656.85 339.95 656.85 338.25 656.85 333.0 661.85 333.0 667.25 333.0 666.85 338.0 M693.85 356.0 Q698.85 356.0 698.6 361.0 698.6 363.2 698.3 363.8 697.8 364.75 696.1 364.75 691.7 364.75 690.35 362.5 689.85 361.7 689.85 360.0 689.85 356.0 693.85 356.0 M704.6 380.0 Q704.6 383.75 700.85 383.75 697.1 383.75 697.1 380.25 697.1 373.5 700.85 373.5 705.25 373.5 704.6 380.0 M693.65 401.75 Q692.5 403.75 691.35 403.75 686.8 403.75 685.15 400.0 L684.35 396.0 Q684.35 391.5 688.85 391.5 694.6 391.5 694.6 399.1 694.6 400.05 693.65 401.75" fill="#000000" fill-opacity="0.15294118" fill-rule="evenodd" stroke="none"/>
    <path d="M686.75 -19.7 L688.35 -20.0 Q690.75 -20.0 692.6 8.1 692.6 21.35 684.55 30.05 679.35 35.65 666.85 42.3 653.45 49.4 649.15 53.35 641.1 60.75 641.1 71.75 641.1 75.05 643.0 79.85 L649.55 78.5 Q659.3 76.75 664.35 74.25 670.7 71.0 692.85 61.5 720.05 49.75 724.35 49.75 731.35 49.75 733.35 51.25 L733.6 52.0 Q722.55 55.1 694.1 67.7 667.65 79.5 659.85 81.0 647.8 83.35 632.65 90.8 618.2 97.85 610.85 104.5 L609.4 104.45 Q609.1 104.4 609.1 102.85 609.1 101.0 610.65 99.1 603.75 97.85 600.1 86.1 598.8 81.95 598.1 76.95 L597.6 72.6 Q597.6 66.3 599.15 62.25 600.9 57.7 605.25 53.7 612.55 46.9 639.6 33.25 653.6 26.25 657.55 13.3 L660.05 3.75 Q661.55 -1.2 664.35 -3.75 663.55 -1.15 662.6 5.6 661.65 12.1 660.45 15.75 656.5 27.85 642.6 34.75 617.0 47.55 609.15 54.2 600.1 61.85 600.1 72.5 600.1 89.15 612.55 97.3 614.05 96.0 614.6 96.0 L636.85 82.0 Q638.45 81.1 641.45 80.3 639.5 78.7 638.95 77.1 638.6 76.1 638.6 71.75 638.6 59.45 646.5 51.4 651.25 46.55 663.85 39.85 676.5 33.15 681.2 28.4 689.1 20.5 689.1 8.35 687.1 -10.0 686.85 -19.0 687.0 -19.25 686.75 -19.7 M421.35 -13.25 L422.1 -12.25 410.5 -2.65 Q403.35 3.45 403.35 7.1 403.35 10.65 398.15 22.45 L394.9 29.55 Q397.3 27.7 400.1 25.75 399.2 28.25 395.85 31.8 L389.15 38.25 Q380.45 46.6 380.85 51.5 381.3 57.25 380.75 70.3 382.0 69.75 384.1 69.75 399.3 69.75 411.25 74.05 416.95 76.1 428.65 81.1 L430.35 80.95 Q437.0 80.5 439.6 80.75 L439.6 81.5 446.75 81.0 Q445.35 63.9 445.35 51.6 L445.55 47.3 424.7 49.5 405.85 51.75 395.3 51.0 Q386.5 49.8 383.35 47.5 L383.35 46.0 385.35 45.75 392.8 47.0 400.25 48.25 Q414.2 48.25 414.95 47.05 415.6 45.9 424.85 46.0 L435.35 44.75 437.65 44.0 Q439.45 43.25 440.85 43.25 442.55 43.25 444.35 44.2 445.25 44.7 445.8 45.15 446.2 42.1 447.1 39.75 449.6 62.25 449.6 73.85 L449.4 80.75 Q452.25 80.4 452.65 80.05 L452.5 79.65 453.85 79.5 454.9 79.6 454.75 78.35 451.85 78.0 Q452.05 77.7 454.65 77.45 453.95 71.6 453.3 62.4 452.3 47.5 451.35 41.0 L452.1 40.75 Q452.7 42.35 454.25 52.75 455.85 63.4 455.85 66.25 L455.6 77.35 457.55 77.2 462.85 76.75 485.35 81.25 485.35 81.5 481.85 82.0 471.35 80.65 455.55 78.45 455.5 79.75 Q457.35 80.45 457.35 83.0 L457.1 85.25 456.85 85.9 Q456.6 86.5 455.1 86.5 L447.45 84.95 447.1 85.0 447.1 84.9 Q439.55 83.8 434.85 85.0 L422.1 85.0 421.85 84.5 Q418.5 83.95 417.45 82.7 L414.95 80.1 Q412.65 78.3 407.85 76.75 L394.05 74.75 Q383.8 73.4 380.65 72.15 L380.35 77.5 Q378.85 74.1 378.85 60.75 L378.7 50.6 Q378.85 46.25 380.25 43.4 381.9 40.1 388.45 34.6 L387.6 33.25 Q394.8 24.25 398.6 9.25 399.1 6.15 399.7 4.1 400.75 0.4 403.1 -2.75 404.7 -4.85 409.35 -8.8 414.8 -13.5 416.85 -13.5 L421.35 -13.25 M603.05 -2.25 Q603.35 -1.95 603.35 -0.1 L603.3 0.5 604.1 -0.25 Q603.8 0.7 601.4 13.45 599.9 21.4 595.6 26.75 594.1 26.75 593.35 26.0 596.5 22.3 598.7 12.0 599.6 7.6 600.85 4.7 598.6 6.95 594.45 9.6 583.5 15.65 579.35 18.25 574.75 21.15 561.55 23.95 545.8 27.0 538.6 28.75 535.2 29.6 528.15 32.55 529.1 43.35 529.1 47.85 L528.6 50.5 528.35 51.0 Q525.6 48.1 525.6 35.35 L525.6 33.65 Q517.25 37.3 504.55 43.5 490.9 50.15 484.0 53.1 L488.6 79.0 487.85 79.5 Q482.3 61.8 481.9 54.0 478.25 55.5 477.35 55.5 467.25 55.5 460.35 52.5 454.6 50.0 454.6 47.6 454.6 46.5 454.85 45.75 L455.2 45.05 456.85 44.75 Q458.2 44.75 461.15 47.5 465.5 50.25 473.6 50.25 479.65 50.25 504.65 38.15 516.8 32.25 525.7 28.65 L525.85 24.25 527.35 24.25 527.7 27.85 Q537.0 24.2 542.35 23.25 L560.2 20.3 Q570.05 18.15 576.6 13.5 L600.85 -2.5 603.05 -2.25 M607.3 9.45 Q607.85 9.75 607.85 11.35 607.85 12.8 604.7 17.6 601.75 22.1 600.85 22.75 599.85 24.35 599.85 21.85 599.85 20.0 602.35 14.85 604.75 9.8 605.85 9.0 L607.3 9.45 M573.65 41.05 Q566.6 44.95 559.8 48.0 L559.85 49.0 Q559.85 53.0 550.9 53.25 L538.75 52.75 Q535.55 52.75 530.35 55.05 526.15 56.95 525.35 57.75 L523.1 57.75 522.75 57.45 Q522.6 57.35 522.6 55.85 522.6 52.3 538.65 49.25 551.0 46.9 557.6 46.75 581.25 32.75 585.1 32.75 583.7 35.45 573.65 41.05 M520.35 60.25 Q504.75 70.95 495.35 81.75 493.85 81.5 493.35 80.75 511.1 64.4 518.85 59.5 L520.35 60.25 M492.85 77.0 L495.35 78.25 Q493.5 78.25 491.7 79.55 L488.85 81.75 487.35 81.25 Q489.55 78.65 492.85 77.0 M544.0 99.0 Q548.65 97.25 554.85 97.25 567.75 97.25 573.4 107.05 576.6 112.7 576.6 118.6 576.6 125.75 567.75 130.8 562.7 133.7 561.6 134.55 558.85 136.8 558.85 139.6 558.85 142.1 560.85 151.6 560.85 159.4 551.8 166.25 541.35 174.25 525.35 174.25 495.5 174.25 490.65 164.65 489.5 162.35 489.3 157.05 489.15 152.75 487.35 151.5 473.5 141.8 470.4 138.25 466.6 133.85 466.6 126.25 466.6 122.0 471.35 120.75 471.75 121.9 471.75 124.6 471.75 127.5 472.1 129.0 472.6 124.7 483.15 119.8 494.15 114.7 508.85 112.5 524.35 110.2 536.05 103.25 541.45 100.0 544.0 99.0 M530.25 109.05 Q517.8 115.9 507.1 115.75 495.6 115.65 483.9 121.95 472.85 127.9 472.85 132.75 472.85 134.85 476.0 137.45 L483.05 142.15 Q493.35 148.65 493.6 153.0 L493.85 158.95 Q494.35 162.25 496.6 164.25 502.6 169.5 525.85 169.5 539.35 169.5 548.85 162.55 556.85 156.7 556.85 151.25 556.85 150.0 555.85 145.65 554.85 141.25 554.85 140.0 554.85 136.5 557.7 133.5 559.55 131.55 564.0 128.7 L570.25 124.2 Q573.1 121.55 573.1 118.6 573.1 111.5 570.05 107.95 564.95 101.9 550.35 101.0 545.25 101.5 539.75 103.95 L530.25 109.05 M609.6 107.75 L605.75 117.45 Q601.85 127.25 601.85 128.75 601.85 132.3 603.5 141.15 605.1 150.0 605.1 155.0 L604.8 156.65 Q604.55 157.9 604.85 158.75 L619.35 160.25 Q622.1 161.1 626.6 166.25 630.7 169.25 641.95 171.45 651.3 173.25 656.85 173.25 L661.35 172.3 661.35 171.85 661.85 171.75 661.85 171.5 662.3 172.1 663.05 171.9 Q670.5 170.5 680.35 170.5 L706.35 176.45 706.35 175.0 706.85 174.75 706.85 174.5 707.5 176.7 724.35 180.85 Q724.35 183.15 724.05 183.85 723.55 185.0 721.85 185.0 720.3 185.0 720.05 184.45 L720.1 183.75 708.7 183.4 Q710.5 196.95 709.85 222.75 L709.55 228.55 710.85 228.75 Q712.25 228.75 714.15 226.15 716.25 223.35 717.85 223.0 L719.4 222.85 Q719.85 222.8 719.85 224.35 719.85 226.25 713.85 232.75 711.95 232.75 709.1 231.95 L708.85 232.25 708.85 231.9 700.45 228.75 Q691.3 224.75 690.35 224.75 683.7 224.75 676.35 227.3 670.0 229.5 668.6 231.25 666.6 231.0 665.35 230.25 668.3 227.8 674.6 225.25 683.3 221.75 691.35 221.75 691.95 221.75 700.45 225.25 705.8 227.45 708.55 228.3 707.65 216.55 706.95 197.35 L706.5 183.1 705.2 182.8 Q702.0 182.05 699.15 180.05 696.05 177.85 693.5 177.1 688.9 175.75 679.85 175.75 669.5 175.75 663.8 176.85 664.85 182.65 664.85 194.25 L664.75 209.1 Q664.35 215.6 662.1 226.5 661.35 226.5 661.1 225.75 662.7 211.0 662.2 196.7 L661.4 177.35 655.85 178.5 Q642.7 178.5 631.05 172.95 624.3 169.75 619.85 165.75 617.1 163.3 614.85 163.4 613.7 163.5 611.3 164.8 609.1 166.0 607.5 165.75 605.05 165.45 601.85 162.25 599.15 159.45 599.6 157.75 600.6 153.25 600.6 149.5 600.6 145.2 599.1 139.95 L598.05 136.05 592.6 163.0 587.85 201.0 Q590.45 201.1 595.85 205.15 L596.75 205.85 596.85 204.5 596.5 204.25 Q596.3 204.0 597.85 204.0 602.6 204.0 605.95 205.4 609.75 198.85 612.4 189.75 613.95 184.4 617.35 167.75 L618.1 167.75 618.25 167.55 618.35 169.25 Q618.35 176.0 612.05 194.3 L607.65 206.3 Q609.85 207.6 611.3 209.7 L614.2 214.0 Q616.1 216.2 619.1 216.75 621.1 216.75 618.6 218.05 614.95 219.9 614.6 220.25 612.7 219.15 611.45 216.8 L609.45 212.7 Q608.3 210.8 606.3 209.6 604.5 213.55 603.35 215.0 L595.35 209.05 587.6 203.1 587.35 205.0 586.1 205.0 Q585.6 204.25 585.6 201.6 585.6 188.0 589.8 158.0 594.8 122.6 600.0 119.55 602.2 113.7 608.1 104.75 L609.15 105.6 Q609.6 106.15 609.6 107.75 M341.1 94.0 Q341.1 92.7 347.4 91.6 356.85 90.0 364.6 86.5 367.4 85.25 371.7 80.15 375.1 76.1 377.35 76.75 L377.85 76.55 Q378.35 76.7 378.35 78.25 378.35 79.9 376.45 82.75 374.3 85.95 370.85 88.75 361.7 96.25 349.85 96.25 L345.05 96.1 Q343.95 100.35 338.95 106.35 L335.7 110.6 339.1 110.5 339.35 111.25 334.9 111.75 Q331.6 116.65 330.85 120.5 330.0 125.3 324.8 133.3 321.25 138.7 317.2 143.4 317.6 143.75 317.6 145.0 317.6 146.75 308.2 154.65 297.85 163.25 290.6 165.75 L273.1 169.5 Q271.55 169.85 262.35 169.75 L262.35 171.0 256.85 170.75 Q256.45 170.75 250.95 176.05 L250.45 176.6 Q249.5 178.75 238.4 191.1 L221.3 209.5 Q247.0 219.75 251.0 219.75 251.6 219.75 273.85 209.75 L274.8 210.9 277.3 210.25 278.1 205.75 278.6 208.0 278.6 210.0 Q290.5 207.85 326.85 207.25 L333.85 207.25 Q339.35 209.65 356.6 219.15 373.15 227.5 382.35 227.5 389.8 227.5 398.25 225.15 406.75 222.75 407.85 222.75 410.5 222.75 415.2 224.15 L417.2 224.8 Q417.5 223.4 418.65 222.75 419.45 222.25 420.35 222.25 L421.9 222.4 424.85 220.1 Q435.3 212.5 443.1 212.5 L443.6 212.3 Q444.1 212.45 444.1 214.0 L444.0 214.25 Q447.3 216.25 449.85 226.55 450.35 226.7 450.35 228.25 450.35 229.4 445.75 238.85 L439.85 250.75 437.5 256.1 Q440.0 257.9 441.2 261.9 442.35 265.8 442.85 271.5 L446.05 278.95 Q446.45 276.9 447.7 273.3 L451.75 261.1 Q457.6 241.6 457.6 221.75 457.6 215.0 458.35 212.75 L459.1 212.75 Q461.1 224.75 461.1 231.5 461.1 237.85 454.9 258.35 448.5 279.4 448.35 281.5 L447.4 282.0 450.55 289.05 462.85 287.0 464.05 287.1 Q467.3 273.95 470.3 257.0 473.75 237.5 476.1 225.65 475.6 230.3 475.6 235.5 475.6 243.4 467.7 274.9 L464.55 287.15 Q470.15 288.25 477.15 296.2 479.75 299.2 482.0 302.45 483.2 296.75 484.75 290.55 489.6 270.9 494.65 256.1 493.35 255.1 493.35 254.5 493.35 252.1 497.7 243.1 500.8 236.75 503.1 232.75 493.7 225.75 490.05 222.45 483.0 216.0 482.0 211.5 L481.4 210.9 Q476.9 206.5 474.1 206.5 457.5 208.6 452.6 212.0 L450.1 212.0 Q449.6 213.35 449.6 210.85 449.6 208.9 462.85 205.0 474.8 201.5 476.35 201.5 480.7 201.5 485.05 206.1 487.1 208.25 489.4 211.5 496.35 216.65 508.35 232.35 508.35 235.5 498.35 253.75 505.9 254.9 529.7 265.15 555.6 276.3 555.6 280.75 555.6 281.9 554.35 285.5 559.7 283.6 569.0 280.9 592.75 274.0 593.6 273.5 595.2 272.65 609.7 260.7 625.1 249.25 632.85 249.25 L639.55 249.05 647.5 249.4 Q656.95 250.7 657.35 257.25 659.1 258.5 656.6 258.5 L651.6 256.9 Q649.05 264.05 637.85 283.75 632.1 296.1 629.4 300.2 626.1 305.15 621.9 306.6 618.75 307.7 610.05 307.85 L588.6 308.75 Q590.0 316.85 585.2 330.15 L576.35 352.75 574.5 363.4 Q573.35 370.35 570.1 374.5 557.75 389.6 553.35 395.5 552.85 396.0 551.85 396.25 549.6 395.45 549.6 392.35 549.6 391.2 552.2 387.65 L557.25 380.8 Q554.3 383.25 549.85 383.25 540.9 383.25 538.65 380.75 537.9 380.0 537.95 379.0 L538.1 378.1 539.35 369.5 539.45 367.9 Q533.25 368.2 531.05 369.0 529.8 370.25 527.85 370.25 526.65 370.25 517.3 362.2 L506.6 353.25 Q502.9 351.25 490.2 345.45 483.75 342.55 481.05 341.05 L481.1 341.5 Q480.35 342.25 478.1 342.25 477.1 341.25 477.1 338.5 477.1 325.85 481.35 305.55 477.95 303.1 473.0 296.7 468.05 290.3 463.95 289.4 L461.2 299.25 463.35 299.0 Q466.35 299.0 467.1 306.5 467.1 308.2 465.55 309.55 463.95 311.0 461.6 311.0 459.35 311.0 458.4 308.05 L457.85 305.0 Q457.85 302.4 458.4 301.3 459.1 299.9 460.75 299.4 L463.5 289.35 462.6 289.25 Q459.65 289.25 452.2 290.8 L453.1 291.75 453.25 291.35 453.35 292.85 Q453.35 294.0 441.55 302.55 442.35 304.15 442.35 306.25 L440.4 314.0 453.1 314.75 453.35 317.35 Q453.35 319.85 452.35 328.25 453.35 328.75 450.85 328.75 L445.15 328.3 445.6 329.0 445.35 329.75 Q444.35 330.5 441.85 330.5 441.1 331.5 441.1 329.0 441.1 327.45 441.7 327.3 L441.8 327.3 440.85 326.85 Q439.0 325.9 436.8 325.6 434.4 331.5 432.6 331.5 L427.0 330.8 Q426.7 331.0 426.8 331.4 426.95 331.9 426.45 332.15 L423.15 332.75 418.85 343.5 Q410.25 343.5 408.45 343.3 405.8 343.05 405.55 341.75 L405.8 337.4 Q405.95 334.95 405.6 332.35 L400.2 331.6 Q390.3 330.15 387.85 329.25 387.35 330.6 387.35 328.1 387.35 326.35 387.65 326.1 L389.85 326.0 406.1 327.1 Q404.25 324.35 402.95 321.0 L400.3 312.65 379.35 307.5 379.35 306.0 383.85 305.25 Q386.65 305.25 389.9 306.2 L396.25 308.25 Q406.05 311.25 419.6 311.25 L447.6 291.75 446.5 291.7 Q446.1 291.6 446.1 290.1 L446.1 289.75 Q441.2 283.55 437.7 275.8 L433.9 266.05 433.65 266.9 Q432.65 268.95 430.65 269.6 L423.85 270.25 422.25 270.05 421.35 269.5 Q420.85 270.5 420.85 268.0 420.85 267.55 422.2 266.65 415.8 262.9 414.25 260.75 L414.35 261.85 414.4 262.6 Q414.15 263.2 412.5 263.6 L408.65 264.2 Q406.15 268.8 404.35 270.75 L406.65 264.35 Q400.9 264.75 390.85 264.75 L380.75 265.25 380.35 267.5 Q379.35 269.35 379.35 266.85 L379.4 265.3 372.35 265.5 Q362.7 265.5 351.6 260.95 L350.1 265.45 Q360.35 287.15 379.35 301.25 L379.35 301.5 Q359.85 288.65 349.7 266.75 348.8 269.8 348.05 273.05 346.65 279.05 344.75 288.8 L350.35 291.0 Q358.65 294.05 366.2 299.0 374.35 304.4 374.35 307.5 L374.1 309.75 Q374.35 310.5 371.85 310.5 L358.2 302.3 343.75 293.95 342.35 301.25 341.35 301.25 343.1 293.7 342.6 293.5 Q332.2 290.35 328.55 285.35 327.85 284.35 327.3 283.05 L322.45 298.85 Q320.15 307.0 319.7 313.25 L334.85 324.75 343.05 332.35 Q349.95 338.75 350.6 338.75 353.85 338.75 362.2 326.55 372.2 312.1 376.35 308.75 377.85 309.9 377.85 312.5 377.85 316.55 365.15 331.15 L351.85 346.0 Q349.9 344.3 343.95 337.65 338.95 332.1 333.85 328.5 327.75 324.05 323.65 320.5 L323.85 322.75 Q323.85 323.9 321.35 330.75 L320.1 330.5 Q320.05 329.45 320.7 327.2 L321.7 323.4 Q322.15 319.95 319.7 317.45 L317.75 317.75 Q315.3 317.75 311.85 306.25 L308.85 294.5 Q308.85 289.05 311.85 277.1 L309.85 279.0 307.8 278.6 307.35 281.25 Q306.35 281.5 306.1 280.75 L306.45 278.35 297.45 276.5 Q285.0 274.0 277.1 274.0 L274.85 274.25 274.35 280.0 273.35 280.25 Q272.85 278.75 272.85 276.85 L272.9 274.75 Q266.3 276.8 256.95 284.95 L247.4 293.6 Q242.2 298.3 239.25 300.0 L238.35 299.7 236.5 305.75 235.25 305.5 Q234.5 306.5 234.5 304.0 234.5 303.1 240.3 273.15 246.5 241.1 248.85 223.05 227.8 216.55 220.6 212.3 L219.35 224.1 221.5 223.5 222.15 223.3 Q222.75 223.45 222.75 225.0 222.75 227.95 218.7 230.1 217.65 239.3 216.65 245.15 213.6 262.4 206.5 274.45 210.35 275.65 219.45 285.8 226.9 294.1 233.25 302.75 233.0 303.5 232.0 304.0 229.7 301.8 218.95 290.4 211.0 281.95 205.1 276.7 L202.0 281.0 204.4 276.1 204.0 275.75 204.0 274.5 203.9 274.3 205.2 274.25 Q210.8 260.8 214.55 238.8 L215.75 231.4 211.75 232.55 203.7 234.45 Q199.75 235.6 199.0 237.0 L197.3 240.35 Q196.2 242.45 194.9 244.0 191.05 248.5 181.5 252.75 178.0 254.35 173.95 269.2 170.5 281.7 170.5 284.6 170.5 285.65 172.1 290.85 173.65 296.05 174.25 297.0 173.75 298.5 172.5 298.75 170.0 296.25 168.65 291.65 167.5 287.9 167.5 284.5 167.5 281.95 169.5 276.3 L172.25 268.0 Q172.0 262.6 172.05 259.5 172.1 253.8 176.0 251.5 183.15 248.0 186.3 245.8 191.65 242.15 195.25 235.0 197.15 231.15 207.45 227.6 211.35 226.25 216.85 224.75 L217.7 219.6 Q218.55 214.85 219.5 211.65 217.5 210.3 217.0 209.25 L219.5 208.75 219.75 208.85 219.75 208.1 Q219.75 206.6 230.15 194.5 237.85 185.5 244.1 179.6 244.65 178.0 248.5 173.25 L249.4 172.2 248.95 171.95 Q248.75 171.85 248.75 170.35 L249.0 168.75 252.95 168.6 Q254.65 167.25 255.85 167.25 257.15 167.25 259.45 168.2 278.75 166.5 290.9 160.3 295.95 157.7 303.3 152.4 L314.0 145.05 313.85 145.0 Q313.35 143.5 313.35 142.0 313.35 141.55 319.95 134.75 326.8 126.15 328.1 117.0 328.4 114.85 329.5 112.3 L285.2 116.05 Q225.6 120.5 168.0 120.5 L152.3 120.3 139.9 119.8 Q141.6 121.95 141.75 125.4 142.05 132.15 142.5 133.5 143.7 137.0 150.9 139.25 162.4 142.85 166.0 144.75 170.8 147.2 174.65 151.5 178.5 155.8 178.5 158.85 178.5 160.85 175.0 163.55 171.5 166.25 169.0 166.25 168.2 168.45 166.2 171.7 164.5 174.45 162.5 177.0 164.3 178.7 165.9 186.75 L169.25 203.5 Q171.45 211.2 178.45 218.3 181.45 221.4 182.55 223.25 184.25 226.2 184.25 230.1 184.25 241.05 177.55 245.5 170.5 250.25 152.5 250.25 135.8 250.25 128.8 245.05 124.75 242.05 124.75 238.6 124.75 237.15 131.15 224.55 138.0 211.15 139.0 206.75 140.9 198.0 144.05 191.3 142.25 181.05 141.95 161.0 141.75 148.7 141.1 140.1 139.1 137.8 138.0 135.0 137.75 134.35 137.25 127.7 136.9 123.25 133.5 120.75 116.8 108.75 113.1 108.75 103.5 108.75 101.1 115.75 100.15 118.45 100.0 121.75 L100.25 121.75 100.0 123.65 100.0 124.25 100.0 124.3 Q100.25 132.4 114.5 142.0 L114.5 142.5 Q107.95 139.6 104.15 135.1 101.95 132.45 99.5 127.25 L99.5 125.1 Q97.75 127.5 90.8 132.6 86.7 135.55 84.4 137.6 L95.35 147.7 Q104.75 157.1 107.0 163.0 108.85 167.85 111.1 176.75 L112.9 184.0 Q115.85 185.0 117.5 186.5 122.25 190.8 130.9 191.3 L140.25 191.5 141.0 193.0 Q140.8 194.2 140.35 194.55 139.8 195.0 138.0 195.0 119.25 195.0 115.65 192.3 L114.7 191.2 114.75 191.5 Q114.5 192.25 113.5 192.5 L112.6 188.2 111.75 187.75 Q109.25 186.75 103.0 185.75 L95.75 184.75 Q88.05 183.1 82.15 177.9 L78.3 173.95 77.75 174.75 75.25 174.5 75.2 170.0 73.75 168.0 75.15 167.9 75.0 157.6 Q75.0 146.4 76.0 143.0 77.05 139.2 81.5 136.1 L79.5 134.0 80.25 133.75 82.25 135.6 82.9 135.15 Q90.3 130.75 92.0 128.75 93.45 127.05 94.45 122.35 95.85 116.05 96.55 114.15 100.35 104.0 113.5 104.0 113.9 104.0 124.4 110.0 135.45 116.25 138.5 118.5 L139.6 119.5 262.75 115.0 327.85 110.75 330.25 110.7 Q331.95 107.2 334.95 102.9 L336.95 100.2 Q329.25 97.6 321.4 91.7 315.5 87.2 306.3 78.0 296.8 68.5 293.1 65.65 286.25 60.25 280.85 60.25 268.7 60.25 252.9 73.5 247.85 77.75 241.55 84.1 L233.75 92.0 229.8 96.2 Q227.9 98.2 224.65 99.3 216.95 101.9 185.0 104.25 182.75 104.4 170.0 111.75 157.45 119.0 153.0 119.0 148.9 119.0 137.85 110.55 L114.45 92.0 Q79.3 65.0 57.5 65.0 41.45 65.0 19.0 82.15 16.25 84.2 4.55 93.9 -1.95 99.25 -3.5 99.25 L-5.45 98.95 -6.5 98.25 -6.5 97.5 Q-3.6 96.7 3.5 91.05 16.95 80.25 18.15 79.4 39.85 63.25 57.0 63.25 71.55 63.25 87.6 71.55 99.55 77.75 114.4 89.9 L136.1 108.2 Q146.45 116.5 151.35 116.5 157.75 116.5 169.1 110.25 182.25 103.0 185.0 102.25 197.25 98.95 204.05 100.4 210.15 101.75 222.5 97.75 225.6 96.7 228.9 93.8 L233.25 89.5 Q243.65 79.1 254.4 70.65 270.5 58.0 277.85 58.0 288.15 58.0 299.1 66.5 304.5 70.7 312.35 79.5 320.05 87.9 324.1 90.75 326.0 92.1 328.55 92.85 L332.75 93.9 Q336.4 94.9 338.7 97.95 L341.2 95.25 341.1 94.0 M379.85 140.0 Q388.0 140.0 397.1 144.0 406.85 148.3 406.85 153.0 406.85 156.85 404.9 160.5 401.6 166.5 394.35 166.5 382.75 166.5 378.15 161.1 376.2 158.8 375.35 154.0 L376.1 153.75 Q376.7 157.3 379.05 160.4 382.75 165.25 389.1 165.25 397.2 165.25 399.9 164.25 405.1 162.3 405.1 155.6 405.1 149.25 397.4 146.0 389.5 142.65 375.35 143.5 L375.1 142.75 379.85 140.0 M338.35 158.25 Q338.35 159.6 337.15 161.25 335.45 163.5 332.6 163.5 L329.35 162.75 328.85 162.5 Q328.35 162.25 328.35 160.75 328.35 159.65 330.9 156.8 333.55 153.75 335.1 153.75 336.85 153.75 338.35 158.25 M335.1 155.0 L333.85 155.0 Q333.2 155.0 331.85 157.7 330.6 160.3 330.6 161.0 L331.25 161.5 Q331.85 162.0 333.35 162.0 337.1 162.0 337.1 158.1 337.1 156.55 336.25 155.75 L335.1 155.0 M434.35 220.8 L427.95 224.5 Q432.3 226.8 437.7 231.5 L439.85 230.45 Q445.85 227.8 445.85 225.25 L441.0 216.65 434.35 220.8 M422.2 228.5 L420.4 228.3 419.2 229.05 Q417.3 230.25 416.85 230.25 415.6 230.25 411.85 229.0 408.1 227.75 406.85 227.75 403.1 227.75 396.1 230.0 390.35 231.85 387.15 232.2 384.55 244.4 381.7 260.1 403.7 259.6 408.35 259.65 L412.55 248.2 Q417.5 235.65 422.1 228.75 L422.2 228.5 M422.35 229.85 Q422.35 232.7 415.6 249.0 L410.9 259.75 Q413.25 259.85 413.95 260.25 L413.85 260.0 414.1 259.25 416.35 259.0 Q417.35 259.0 421.3 261.55 L425.5 264.7 425.95 264.45 Q430.2 262.3 431.7 260.35 L430.1 256.25 Q430.1 255.45 430.25 255.1 430.55 254.5 432.1 254.5 L434.2 254.7 436.85 248.0 Q440.35 238.95 444.55 232.75 441.4 234.7 438.9 235.85 437.7 240.1 433.45 247.35 426.8 257.8 425.35 260.75 L424.1 260.75 423.75 260.45 Q423.6 260.35 423.6 258.85 423.6 258.6 429.6 248.7 433.8 241.8 435.05 236.9 L434.4 236.75 Q433.85 236.55 433.85 235.0 433.85 234.0 435.55 232.8 434.95 231.0 425.6 226.25 424.35 226.25 423.95 227.4 423.5 228.5 422.3 228.5 L422.35 229.85 M432.85 258.05 L433.0 257.6 432.35 257.0 432.85 258.05 M435.15 262.25 L434.85 263.0 435.35 263.0 435.15 262.25 M411.35 288.65 Q399.7 298.6 384.85 303.5 382.3 302.1 382.15 301.65 382.5 301.3 382.35 301.0 383.35 300.65 383.35 302.25 398.65 298.3 411.95 286.55 L421.9 277.35 Q427.55 272.3 432.1 269.75 427.6 273.4 421.2 279.55 L411.35 288.65 M385.85 232.25 Q378.65 232.25 363.55 226.2 L349.35 220.0 342.6 217.75 Q339.7 216.9 338.1 215.25 336.9 214.0 337.2 212.7 L337.25 211.35 327.85 210.8 327.85 211.5 Q327.85 213.6 322.9 239.25 L323.85 239.75 325.3 240.2 325.5 240.7 348.1 254.0 352.35 256.15 Q355.25 250.05 359.1 245.75 355.85 250.6 353.3 256.65 L355.25 257.65 Q361.15 260.5 362.85 260.5 L379.95 260.15 381.75 249.1 Q383.75 238.2 386.0 232.25 L385.85 232.25 M350.5 260.5 L347.35 259.05 349.35 263.8 350.5 260.5 M346.35 258.55 Q344.25 257.55 342.1 256.35 332.3 250.9 325.95 245.2 L329.35 275.5 Q329.85 280.1 333.9 283.2 337.0 285.55 344.05 288.55 L344.25 287.35 346.95 272.65 348.95 265.05 346.35 258.55 M326.5 280.4 Q326.05 278.55 325.85 276.25 L323.15 250.7 Q321.1 256.5 318.3 266.75 L318.35 266.75 318.85 266.55 Q319.35 266.7 319.35 268.25 319.35 269.15 316.9 271.9 312.85 287.45 312.85 293.75 312.85 296.35 314.45 300.5 L316.85 307.25 317.35 307.25 Q317.75 302.0 321.0 293.75 L326.1 280.25 326.5 280.4 M338.1 351.75 Q340.25 352.75 353.1 361.25 344.25 360.2 337.35 352.0 L338.1 351.75 M386.85 355.5 Q379.4 355.5 371.75 353.05 L364.6 350.25 364.6 349.0 365.85 348.75 Q368.75 348.75 376.85 351.5 L390.4 352.1 Q399.05 352.4 401.35 353.25 390.85 355.5 386.85 355.5 M396.85 380.0 Q404.85 380.0 412.15 402.4 415.8 413.65 417.85 425.1 417.85 428.6 416.1 429.75 413.9 431.25 406.85 431.25 385.45 431.25 372.85 424.5 361.35 418.3 361.35 409.1 361.35 408.1 364.3 403.65 367.75 398.45 372.15 393.75 385.0 380.0 396.85 380.0 M484.35 306.0 L484.25 306.0 Q481.6 320.55 481.6 332.85 L481.15 337.0 480.95 339.55 Q488.25 340.3 507.55 353.0 517.8 359.75 526.85 366.5 L540.35 364.5 540.4 364.5 Q540.8 363.6 541.35 362.8 544.2 358.5 550.25 358.25 551.5 351.1 551.95 345.55 552.35 340.45 552.35 326.6 552.35 317.15 550.6 303.95 548.3 302.55 542.7 297.85 L537.65 293.7 535.8 303.3 538.35 305.9 548.35 316.0 Q542.95 312.0 537.4 306.5 L535.55 304.6 Q531.3 325.3 523.35 359.0 L522.35 359.25 Q528.65 323.9 533.0 301.75 530.1 298.3 529.35 296.0 L530.1 295.75 Q531.1 297.75 533.25 300.35 L535.0 291.65 534.35 291.25 534.85 290.5 535.15 290.75 538.65 274.6 Q532.05 271.8 521.1 267.7 501.55 260.35 495.8 256.85 L492.4 271.6 487.3 291.75 Q485.5 299.05 484.25 305.85 L484.35 306.0 M459.85 303.6 Q459.85 306.0 462.1 308.25 L464.6 307.0 Q464.6 303.25 461.35 301.75 L460.35 302.0 459.85 303.5 459.85 303.6 M455.1 324.5 Q457.75 325.4 458.1 325.75 457.7 326.95 456.85 327.25 L454.3 325.55 454.1 324.75 455.1 324.5 M450.35 317.5 L439.75 316.45 437.45 323.8 439.15 323.7 449.35 324.75 Q449.35 320.15 450.35 317.5 M435.85 316.25 L435.1 315.0 Q435.45 314.3 437.5 314.1 439.05 306.7 440.35 303.4 L421.85 316.25 Q416.9 316.25 403.85 313.45 403.95 321.95 407.65 324.55 411.85 327.5 426.25 327.5 433.75 327.5 436.95 316.9 L437.1 316.3 435.85 316.25 M419.25 332.95 L412.85 333.0 408.15 332.65 408.25 334.5 408.1 340.5 418.35 340.25 Q418.7 335.65 419.15 333.35 L419.25 332.95 M420.35 341.75 Q422.25 340.6 433.35 339.5 L434.0 339.3 Q434.6 339.45 434.6 341.0 434.6 342.0 431.85 343.0 429.2 344.0 426.85 344.0 422.1 344.0 420.6 342.5 L420.35 341.75 M484.85 362.75 Q484.85 361.3 487.25 361.75 L490.35 362.25 490.85 359.6 Q490.85 353.25 487.1 353.25 484.85 353.25 483.4 355.9 482.35 357.8 482.35 358.85 482.35 360.1 483.6 360.8 484.85 361.5 484.85 362.75 M478.1 359.0 Q478.1 357.35 481.1 353.8 484.7 349.5 488.6 349.5 492.0 349.5 493.65 354.75 494.45 357.4 494.6 360.0 494.6 363.05 493.65 364.5 491.9 367.0 486.85 367.0 482.05 367.0 479.65 363.15 478.1 360.7 478.1 359.0 M645.1 222.25 Q647.15 222.25 654.55 225.7 661.05 228.8 662.35 229.75 L662.1 230.5 Q649.65 226.4 643.85 223.25 L644.1 222.5 643.65 222.4 645.1 222.25 M598.65 207.4 L602.35 210.75 604.0 208.5 Q601.7 207.65 598.65 207.4 M603.1 275.1 Q603.1 278.2 599.45 302.6 L611.3 302.15 Q617.45 301.75 620.2 300.55 623.0 299.35 625.05 296.1 L629.85 287.0 Q637.3 272.05 647.35 255.8 640.65 254.45 632.85 255.5 622.45 258.3 611.05 266.7 L603.0 273.25 603.1 275.1 M595.35 279.25 Q594.85 279.6 572.1 284.75 560.05 287.5 552.75 289.75 L551.75 291.95 Q553.5 300.15 554.2 305.45 555.35 314.1 555.35 326.6 555.35 333.1 553.85 343.55 552.5 352.8 552.4 358.35 558.6 358.9 560.85 364.55 562.1 367.7 561.85 371.1 L561.85 371.25 562.9 371.9 Q567.7 363.2 569.1 355.25 570.3 348.55 575.3 337.05 580.75 324.6 582.1 319.25 582.55 317.35 581.75 313.85 580.85 309.95 580.95 308.65 581.35 303.1 594.35 302.75 L598.4 302.65 Q598.65 291.25 600.3 275.45 L595.35 279.25 M537.8 292.9 L550.5 303.0 550.0 299.7 548.8 292.65 547.6 292.25 547.55 290.95 547.3 290.8 Q547.1 290.55 547.1 289.0 547.1 288.7 547.7 288.35 L547.9 286.8 547.6 284.25 547.85 281.25 548.75 281.25 548.85 280.25 Q548.85 279.05 540.35 275.35 540.1 280.5 537.8 292.9 M552.3 362.95 Q552.35 364.25 553.15 365.15 L555.15 366.8 557.5 367.5 Q556.4 363.4 552.35 362.2 L552.3 362.95 M547.1 367.75 L542.6 367.8 Q542.35 369.05 542.35 370.35 542.35 371.55 543.65 374.35 545.15 377.7 546.85 378.5 556.75 377.75 557.75 372.1 L555.65 371.05 554.65 370.55 550.85 369.4 Q547.6 367.75 547.1 367.75 M549.55 361.8 L548.6 361.75 Q545.4 361.75 543.75 364.6 L548.9 365.1 549.55 361.8 M561.1 375.05 L561.8 373.85 561.5 373.75 561.1 375.05 M583.1 390.75 Q586.75 396.1 587.15 397.55 587.35 398.2 587.35 403.5 587.35 413.0 579.2 431.05 575.85 438.45 572.7 443.9 576.8 446.35 582.5 449.15 595.35 455.4 602.35 457.25 L602.35 457.5 Q596.05 457.7 580.15 449.45 575.55 447.05 572.1 444.9 567.95 451.85 564.1 455.25 L563.35 455.25 Q567.2 450.7 571.1 444.25 563.35 439.2 562.35 435.75 L563.1 435.75 Q565.05 439.1 571.7 443.25 574.9 437.65 578.2 430.65 586.35 413.2 586.35 403.5 586.35 400.3 585.75 398.9 L582.35 391.0 583.1 390.75 M592.85 387.5 Q590.05 387.5 578.0 392.55 563.35 398.65 559.85 399.75 533.75 414.75 533.35 414.75 L530.1 414.55 526.55 417.05 515.6 424.75 501.0 433.7 Q490.15 440.25 489.85 440.25 L488.3 440.0 Q498.3 457.4 500.35 462.1 L500.35 462.35 Q497.85 459.65 491.95 448.95 L487.05 439.7 482.1 438.4 Q473.8 436.1 466.25 433.3 447.35 426.4 442.05 419.85 435.0 435.65 434.45 447.6 440.8 451.65 448.4 453.6 L459.6 455.95 Q466.5 457.4 471.35 459.25 L471.35 459.5 Q453.8 456.45 445.0 454.05 438.75 452.35 434.4 449.9 434.4 454.35 435.35 458.25 L434.35 458.25 Q433.35 453.75 433.35 451.5 L433.4 449.35 Q428.6 446.45 426.25 442.65 420.2 453.9 418.6 457.35 L416.85 457.1 Q416.35 458.5 416.35 456.0 416.35 453.15 416.5 452.6 416.85 451.1 418.5 451.1 419.2 451.1 424.85 438.55 430.25 426.45 432.35 420.5 433.45 417.35 438.55 413.75 L446.5 408.45 Q447.75 406.8 449.1 405.75 L448.3 407.25 452.1 404.75 Q455.75 402.25 482.35 390.75 L495.85 395.75 513.35 397.75 Q513.7 397.8 521.65 402.75 529.25 407.5 532.75 407.5 L542.3 402.0 Q554.05 395.7 565.85 392.25 571.1 390.75 592.35 381.25 605.1 381.25 616.4 400.5 620.35 407.25 623.2 414.85 625.6 421.35 625.6 423.75 625.6 430.5 624.35 441.75 623.6 441.75 623.6 442.5 L621.35 442.25 Q623.05 435.05 621.0 425.3 619.05 416.2 614.4 407.4 609.8 398.65 604.2 393.25 598.2 387.5 592.85 387.5 M637.35 365.25 Q637.35 375.85 640.8 384.95 646.3 399.3 658.6 401.25 652.45 397.55 648.0 386.6 644.1 377.1 644.1 370.35 644.1 357.65 649.1 347.5 658.6 328.25 682.85 328.25 705.65 328.25 715.9 345.0 722.35 355.6 722.35 368.25 722.35 372.15 720.65 378.3 718.1 387.2 713.15 394.5 698.25 416.25 666.85 416.25 641.95 416.25 631.1 393.75 624.6 380.25 624.6 364.5 624.6 357.35 628.95 346.95 633.75 335.45 641.8 325.5 662.7 299.75 691.85 299.75 695.25 299.75 717.35 311.0 717.35 314.5 713.85 314.5 712.45 314.5 703.95 312.15 L695.1 309.75 Q670.55 309.75 652.35 332.25 645.4 340.8 641.15 350.65 637.35 359.55 637.35 365.25 M642.35 366.0 L641.35 366.25 640.35 364.0 641.1 363.75 642.35 366.0 M166.0 164.25 Q166.0 163.05 169.0 160.85 L173.0 158.0 Q171.05 154.15 165.9 151.65 163.55 150.5 155.55 147.95 148.65 145.75 145.15 143.5 143.7 142.6 142.55 141.55 143.2 149.35 143.45 158.6 L144.4 190.55 145.2 189.0 Q150.5 179.0 157.75 177.0 158.95 174.75 161.25 171.3 163.95 167.25 166.05 165.1 L166.0 164.25 M37.0 126.5 Q47.3 126.5 63.5 128.25 19.5 128.25 9.5 129.25 12.1 127.85 25.0 126.75 L37.0 126.5 M39.2 192.85 Q39.25 203.15 41.5 209.0 L40.5 209.25 Q39.4 204.75 38.5 199.5 L38.5 176.75 39.25 176.75 Q39.55 181.55 39.2 192.85 M29.75 186.25 Q35.0 170.0 40.5 170.0 48.85 170.0 50.65 178.65 51.65 183.2 51.5 190.0 52.25 193.2 55.55 200.9 58.25 207.15 58.25 210.6 58.25 214.2 56.05 215.3 53.6 216.5 45.5 216.5 34.2 216.5 28.75 210.25 27.0 208.3 26.1 205.95 25.5 204.4 25.5 203.85 25.5 202.85 26.65 197.8 28.0 191.7 29.75 186.25 M34.25 184.05 Q33.1 188.95 32.5 194.1 32.5 195.35 31.5 198.6 30.5 201.85 30.5 203.1 30.5 205.75 33.15 207.7 38.3 211.45 52.0 211.25 53.75 212.5 53.75 210.0 53.75 209.3 50.75 202.05 47.55 194.35 47.0 191.25 47.4 185.65 46.85 181.7 45.8 174.25 39.5 174.25 36.6 174.25 34.25 184.05 M79.15 169.65 L85.1 174.05 Q94.6 180.55 100.0 181.5 L109.9 183.15 111.5 183.55 Q108.35 170.2 105.5 163.25 103.2 157.6 93.65 147.9 L83.65 138.25 Q81.85 139.9 81.5 140.75 78.95 146.75 78.95 156.8 L79.15 169.65 M156.5 180.4 Q151.6 182.05 147.4 191.2 147.9 204.05 148.5 210.75 L148.5 228.5 147.5 228.25 Q147.5 212.0 146.5 199.0 L146.5 193.3 Q143.85 199.7 141.5 209.25 141.05 211.1 134.95 223.75 129.25 235.6 129.25 237.75 129.25 240.55 136.0 243.0 143.0 245.5 152.0 245.5 170.5 245.5 176.25 240.5 179.5 237.7 179.5 230.35 179.5 224.75 173.9 217.8 168.0 210.5 165.9 206.0 158.05 213.25 154.85 221.95 151.45 230.95 153.5 240.0 L152.5 240.25 Q151.5 235.6 151.5 233.1 151.5 225.35 155.45 218.05 159.2 211.05 165.8 205.85 L165.25 204.5 Q163.75 200.15 162.15 191.7 L160.05 180.0 159.95 180.0 158.0 182.0 156.8 181.95 Q156.5 181.9 156.5 180.4 M142.75 261.95 Q143.5 261.95 143.5 263.5 143.5 264.55 141.4 273.45 139.5 283.5 140.5 291.0 L140.0 292.25 Q138.25 284.8 138.25 278.6 138.25 265.15 142.0 262.25 L142.75 261.95 M74.0 318.75 Q81.7 318.75 104.8 335.25 113.2 341.25 120.15 347.0 126.75 352.45 126.75 353.25 L126.25 356.25 126.1 356.55 Q134.6 362.2 152.9 380.65 175.9 403.8 188.15 420.05 L188.5 419.25 189.0 418.5 190.2 418.55 Q190.5 418.65 190.5 420.25 190.5 420.7 189.5 421.85 L190.5 423.25 Q190.5 424.5 188.0 424.5 L187.3 424.05 187.0 424.35 Q190.6 426.65 199.9 438.2 L205.95 445.9 212.5 452.6 211.65 453.8 211.7 453.9 212.0 453.75 213.6 454.0 Q214.25 454.2 214.25 455.75 L213.55 456.75 216.25 461.25 215.8 462.3 Q215.45 462.75 213.85 462.75 212.55 462.75 210.4 461.0 205.95 466.55 203.75 467.0 L202.95 465.75 202.25 465.85 Q201.75 467.25 201.75 464.75 201.75 462.1 203.45 457.95 204.1 456.35 204.8 455.25 L199.2 448.05 Q192.95 439.65 186.95 430.15 L184.55 426.5 180.4 430.0 170.25 438.0 173.2 440.35 Q182.4 443.8 186.25 446.6 L186.0 447.1 177.5 443.55 201.5 460.85 201.5 461.35 Q195.45 457.95 180.8 447.55 L173.0 441.9 167.4 439.95 Q166.35 441.3 166.25 439.55 L163.05 438.5 169.5 442.6 169.5 443.35 158.75 437.1 145.2 432.95 Q122.55 426.2 109.7 423.45 L122.2 433.95 124.75 436.0 Q139.45 448.15 149.75 461.35 L149.05 462.55 Q155.35 468.75 159.75 474.25 160.5 475.5 158.0 475.5 L136.25 457.1 134.85 455.9 122.3 445.35 119.25 442.75 109.5 434.75 109.8 434.45 92.75 419.05 Q86.85 416.9 73.55 404.4 L51.75 382.75 Q48.4 379.45 46.55 376.2 L45.75 375.5 Q43.1 375.0 33.25 364.4 24.75 355.2 19.25 348.0 17.2 345.3 13.7 333.1 L13.4 332.0 Q8.75 321.45 8.75 318.75 L9.0 317.25 Q8.25 317.05 9.55 317.05 L9.5 316.1 Q9.5 313.65 19.6 306.0 29.1 298.75 30.0 298.75 39.25 298.75 62.5 321.85 L62.5 322.6 Q63.95 321.45 66.6 320.4 70.7 318.75 74.0 318.75 M59.95 326.8 Q42.0 314.75 31.8 307.05 L27.15 311.05 Q22.45 315.05 20.95 317.6 28.25 323.6 44.5 339.15 L45.75 338.1 44.5 337.0 44.5 336.75 45.25 336.75 46.8 337.25 54.0 331.3 59.95 326.8 M45.85 340.45 L61.2 355.4 92.3 386.3 Q92.5 383.9 94.25 370.5 L95.25 370.5 Q95.65 371.15 95.75 372.3 98.2 368.0 105.35 360.85 111.35 354.85 115.5 351.8 109.15 348.3 94.55 338.75 78.65 328.35 73.0 325.15 L68.0 324.4 Q66.5 325.15 64.2 326.75 L65.5 328.0 65.25 328.75 Q66.5 329.5 64.0 329.5 L62.15 328.25 56.05 333.0 49.0 338.4 Q54.35 341.5 66.5 350.45 83.25 362.8 93.75 371.75 L93.5 373.0 Q59.1 349.1 47.4 339.5 L45.85 340.45 M62.4 323.85 L62.0 324.5 62.55 324.95 Q63.3 324.4 64.05 324.0 L62.4 323.85 M80.55 339.35 L81.0 344.0 81.0 345.55 Q81.0 346.0 79.5 346.0 L74.25 345.75 Q74.0 345.0 74.0 343.85 74.0 338.9 76.0 336.25 80.0 336.6 80.55 339.35 M76.25 338.25 Q75.75 339.0 75.75 340.5 75.75 341.75 76.5 343.25 L77.5 343.75 78.95 343.35 Q79.25 343.0 79.25 341.25 L79.1 338.9 Q78.55 337.45 76.25 338.25 M28.7 304.7 L16.95 313.1 16.0 314.0 20.2 316.95 Q22.0 313.85 25.95 310.25 28.4 308.0 30.85 306.35 L28.7 304.7 M10.65 317.0 L11.2 317.15 11.65 316.5 10.65 317.0 M12.6 317.9 L15.5 320.1 15.5 317.75 16.25 317.75 16.55 321.0 Q23.75 327.35 38.5 343.85 L39.0 343.25 Q57.15 357.8 81.5 378.65 L85.95 382.45 43.55 341.7 Q41.6 342.65 40.25 342.75 L42.6 340.75 15.4 314.6 12.3 317.7 12.4 317.8 12.5 317.75 12.6 317.9 M15.5 325.8 L15.5 325.0 15.3 324.8 15.5 325.8 M19.1 339.35 Q22.6 344.25 29.25 351.4 L43.4 366.4 43.25 365.75 Q39.0 350.1 39.0 348.1 L39.05 347.5 Q33.15 343.15 25.8 335.75 L17.2 326.7 Q18.1 335.05 19.1 339.35 M5.25 368.5 L6.25 368.5 Q12.8 379.75 22.75 391.0 L22.5 391.75 Q20.65 390.45 12.95 381.15 5.0 371.6 5.0 370.1 L5.25 368.5 M34.25 383.75 Q41.55 400.5 73.5 425.0 59.4 416.0 48.8 405.5 37.05 393.8 33.5 383.75 L34.25 383.75 M43.25 349.25 L42.75 350.0 41.5 349.2 Q42.75 354.45 44.15 362.75 45.15 366.45 46.65 369.7 53.05 373.15 69.5 387.2 86.05 401.35 100.25 415.0 L108.25 422.2 Q120.65 424.45 144.9 431.3 L152.9 433.6 Q136.2 423.55 122.55 414.15 L123.25 414.75 123.0 415.25 114.25 408.65 125.5 420.25 125.5 420.5 108.55 404.2 Q78.45 380.6 40.8 346.3 L40.85 346.5 43.25 349.25 M43.55 367.1 L43.5 366.85 43.5 367.05 43.55 367.1 M119.9 353.75 L117.65 352.9 Q116.25 355.15 109.65 361.6 101.3 369.75 95.75 373.3 95.65 377.9 93.8 386.55 99.45 380.15 111.25 369.75 116.35 365.2 118.5 360.15 L118.75 359.55 118.0 358.25 Q118.05 357.5 118.3 357.2 118.55 356.85 119.6 356.8 L119.75 356.15 118.75 355.0 119.0 354.25 118.8 354.15 119.9 354.0 119.9 353.75 M101.75 352.0 L100.2 352.15 Q100.0 352.15 100.0 350.6 100.0 348.95 101.55 348.7 103.0 348.5 103.5 349.25 103.25 350.75 101.75 352.0 M119.25 368.75 Q119.35 368.65 118.9 368.55 L120.25 368.5 Q125.6 368.5 127.75 378.25 127.75 378.6 111.75 392.25 L109.5 392.25 110.25 391.2 Q108.75 389.15 107.65 385.55 106.5 381.75 106.5 378.5 106.5 377.75 107.05 376.85 L99.6 383.0 Q95.9 386.05 93.95 388.0 L103.45 397.6 112.5 405.4 134.4 419.65 157.85 435.1 167.2 438.15 167.75 437.8 Q165.5 435.85 165.5 435.35 L165.55 434.1 Q165.8 434.75 166.0 434.75 L166.0 434.5 169.0 437.05 169.0 437.0 175.4 433.0 Q180.8 429.35 184.2 425.65 L184.15 425.6 183.5 424.5 Q183.5 424.05 183.65 423.95 L184.05 423.85 184.15 423.3 184.5 422.75 185.25 422.75 185.85 423.65 186.25 423.1 Q182.95 419.95 173.75 409.85 L162.85 398.0 134.45 371.9 127.65 367.0 Q125.9 366.45 124.55 364.65 L124.5 364.55 121.35 361.7 Q119.2 366.05 111.95 372.65 115.15 370.8 119.75 369.65 L119.25 368.75 M117.05 384.9 Q124.1 379.65 126.25 377.5 122.3 373.3 120.5 370.8 L115.05 373.85 Q108.95 377.1 107.75 379.0 109.2 387.1 110.5 390.9 112.7 388.2 117.05 384.9 M122.95 359.7 L122.9 359.85 123.1 359.85 122.95 359.7 M130.2 367.2 L130.9 367.8 131.0 367.65 130.5 367.15 130.2 367.2 M138.4 376.1 L138.5 377.35 138.2 378.0 Q141.5 379.5 146.0 384.0 140.0 397.5 136.1 397.5 131.75 397.5 126.9 395.05 L120.5 391.25 Q120.75 390.5 121.5 389.75 L123.5 390.85 Q125.8 387.8 129.55 384.05 132.5 381.1 135.0 379.1 L134.0 377.75 Q134.15 377.6 133.9 377.3 L135.25 377.25 137.05 377.55 138.25 376.75 138.4 376.1 M127.75 393.3 Q132.55 395.75 135.6 395.75 139.25 395.75 143.75 385.25 138.8 382.3 136.35 380.25 L125.2 391.85 127.75 393.3 M154.5 373.75 L155.25 373.75 168.25 383.5 168.5 384.25 Q155.95 376.7 154.5 374.0 L154.5 373.75 M316.6 212.6 Q316.6 215.85 312.9 243.2 L308.6 273.75 312.8 270.4 313.85 269.5 Q315.5 263.55 317.15 259.05 323.2 222.85 326.45 210.8 L319.75 210.75 316.4 210.95 316.45 211.0 316.6 212.6 M322.35 242.0 L320.55 251.3 Q321.7 249.2 322.85 247.8 L322.35 242.1 322.35 242.0 M316.05 211.0 L278.55 213.2 Q278.35 226.6 277.15 244.0 L275.1 270.95 Q278.4 270.0 281.35 270.0 285.65 270.0 307.0 273.85 L309.95 245.4 Q312.15 223.45 316.05 211.0 M273.35 212.25 L251.85 224.0 250.85 223.7 Q251.75 227.35 251.75 231.5 251.75 253.75 239.05 297.25 L244.3 292.35 Q250.75 286.25 255.1 282.7 264.95 274.55 272.95 271.65 273.2 261.95 274.4 242.85 275.65 223.15 276.85 213.25 274.15 213.25 273.35 212.25 M274.6 289.5 Q278.3 284.95 280.05 283.75 282.55 282.0 286.6 282.0 290.6 282.0 290.1 285.0 290.1 286.35 287.1 289.5 284.25 292.5 283.6 292.5 L276.7 291.9 274.6 289.5 M277.85 288.75 Q278.85 288.5 279.35 289.25 284.0 289.25 285.9 287.75 L287.6 285.25 Q287.25 284.5 284.85 284.5 284.0 284.5 281.35 286.15 278.9 287.7 277.85 288.75 M186.0 274.5 Q190.0 274.5 192.75 280.75 194.15 283.9 194.75 287.1 194.75 288.0 193.55 289.75 192.15 291.75 191.0 291.75 186.6 291.75 184.0 288.5 182.25 286.35 182.25 285.1 182.1 282.1 182.5 279.5 183.25 274.5 186.0 274.5 M186.75 278.0 Q185.25 281.0 185.25 283.25 185.25 283.6 186.9 285.25 188.75 287.1 190.25 287.75 191.0 289.1 191.0 286.6 191.0 285.4 189.75 282.4 188.3 278.9 186.75 278.0 M226.75 309.1 Q226.75 312.55 223.5 314.75 220.6 316.75 217.0 316.75 209.95 316.75 205.5 313.25 202.0 310.5 202.0 308.0 202.0 306.45 205.5 302.05 209.65 296.75 213.75 296.75 219.0 296.75 223.25 302.05 226.75 306.4 226.75 309.1 M221.5 311.5 Q223.0 310.3 223.0 309.25 223.0 306.25 219.5 303.3 215.35 299.75 209.25 299.75 205.75 306.0 205.75 306.35 205.75 309.05 210.5 311.25 214.4 313.0 216.85 313.0 219.6 313.0 221.5 311.5 M236.25 344.75 Q240.45 348.3 248.05 351.5 252.4 353.35 261.2 356.45 L264.0 357.55 Q260.55 356.4 255.75 355.3 245.1 352.9 242.1 351.7 235.8 349.1 235.5 344.75 L236.25 344.75 M171.25 299.75 Q180.8 299.75 183.35 314.5 184.05 318.8 184.3 325.4 184.55 331.35 184.75 332.0 186.9 338.65 201.85 348.0 216.8 357.4 229.0 359.75 243.35 362.5 259.85 370.75 277.25 379.4 279.85 386.0 L281.4 392.0 Q282.85 397.9 284.35 402.0 289.25 415.5 295.85 415.5 L305.4 414.0 317.85 412.5 Q325.45 412.5 335.8 419.0 341.35 422.5 350.1 428.5 368.35 438.15 368.35 448.6 368.35 453.3 366.3 456.75 362.5 463.05 361.1 466.6 L358.6 466.6 358.05 466.35 Q357.85 466.25 357.85 464.75 357.85 462.95 360.5 456.9 363.1 450.9 363.1 448.6 363.1 445.7 357.55 440.3 352.45 435.35 344.45 430.0 325.65 417.5 316.0 417.5 L304.05 418.9 295.85 420.25 Q285.05 420.25 279.75 406.1 277.9 401.15 276.1 389.5 275.2 382.85 255.75 373.25 239.15 365.0 227.0 362.25 204.55 356.85 193.95 348.75 185.75 342.45 183.15 332.75 182.3 329.75 181.55 324.35 180.7 318.4 180.1 315.9 177.8 306.05 170.5 299.75 L171.25 299.75 M164.25 333.75 Q170.25 350.55 206.25 375.75 L206.0 376.25 Q190.0 366.35 178.1 354.65 165.6 342.4 163.5 333.75 L164.25 333.75 M300.15 307.05 Q300.7 310.1 300.35 313.35 300.35 315.45 299.65 317.5 298.6 320.5 296.5 320.5 289.9 320.5 287.85 317.45 287.2 316.5 287.1 315.25 L287.1 314.1 287.35 313.0 287.15 312.65 Q287.3 312.25 288.85 312.25 290.05 312.25 291.55 313.65 L295.1 316.5 Q297.6 314.0 297.6 310.1 297.6 308.05 296.4 306.0 294.9 303.5 292.6 303.5 289.0 303.5 287.35 310.75 L286.1 310.5 Q285.85 310.35 285.85 307.85 285.85 305.0 288.4 303.0 290.85 301.0 294.35 301.0 299.0 301.0 300.15 307.05 M272.1 361.75 Q276.35 364.9 276.35 369.1 276.35 371.4 275.95 371.85 274.75 373.1 269.35 373.25 268.35 372.25 268.35 369.5 268.35 367.25 268.85 366.5 269.35 368.0 269.85 372.25 274.1 372.8 275.1 371.35 L275.35 369.0 Q275.35 364.7 272.1 361.75 M167.5 420.5 Q167.5 421.25 166.25 421.25 L165.6 420.8 165.5 419.0 Q165.5 414.5 169.0 414.5 171.65 414.5 172.7 415.45 L174.75 417.75 Q173.85 420.75 171.75 420.75 168.55 420.75 167.35 419.4 L166.75 418.0 167.5 420.5 M168.25 416.75 Q169.75 418.25 171.5 418.5 172.75 420.1 172.75 417.6 172.75 415.9 171.2 415.75 169.7 415.55 168.25 416.75 M143.75 399.0 Q143.15 399.0 140.55 402.2 138.15 405.2 137.5 406.5 L149.25 406.5 Q147.9 405.3 144.65 399.0 L143.75 399.0 M149.5 402.55 Q152.95 407.9 153.25 410.0 153.0 410.75 151.25 411.0 149.75 409.5 134.75 409.0 134.75 408.25 133.75 407.5 L133.5 406.0 Q135.6 405.4 139.4 401.15 142.9 397.25 145.25 397.25 146.1 397.25 149.5 402.55 M94.55 434.5 Q108.05 442.2 110.75 444.25 L110.5 445.0 Q100.3 441.4 91.95 436.15 82.85 430.45 81.25 426.0 81.5 425.5 82.25 425.5 84.0 428.4 94.55 434.5 M85.9 451.55 Q79.85 449.15 79.25 447.75 79.6 446.75 80.25 446.75 81.35 447.5 94.5 454.0 91.65 453.8 85.9 451.55 M74.25 428.5 L74.65 428.3 Q75.0 428.45 75.0 430.0 75.0 431.45 74.55 431.35 L72.25 431.0 Q71.75 430.25 71.75 428.75 L74.25 428.5 M32.3 410.25 Q34.1 412.0 34.75 413.0 L27.5 408.75 30.25 408.5 Q30.55 408.5 32.3 410.25 M513.85 404.75 Q511.4 402.9 496.8 399.3 483.6 396.0 482.35 396.0 479.0 396.0 472.05 398.5 464.7 401.1 457.3 405.2 450.3 409.05 445.3 412.95 L442.8 418.1 Q445.1 419.45 448.95 422.35 456.2 427.75 462.1 429.75 482.8 436.85 486.85 437.65 L486.85 437.5 486.95 437.7 487.6 437.75 Q489.7 437.75 510.3 424.3 520.25 417.8 527.2 414.0 524.5 413.25 522.45 411.8 517.6 407.5 513.85 404.75 M441.95 415.8 L440.6 417.05 441.2 417.3 441.95 415.8 M440.45 417.2 Q435.75 421.9 433.85 426.75 431.8 432.1 426.85 441.5 429.95 444.55 433.45 446.95 434.0 436.1 437.1 427.5 438.95 422.2 440.85 418.1 L440.45 417.2 M413.85 424.85 Q404.0 384.25 393.35 384.25 380.05 384.25 372.4 397.75 369.65 402.55 368.1 408.3 366.85 412.9 366.85 415.75 366.85 419.3 382.4 423.25 396.2 426.75 403.35 426.75 L413.6 426.5 Q413.85 427.35 413.85 424.85 M669.6 370.0 Q667.75 375.4 667.85 380.85 667.85 386.75 671.85 386.75 683.85 386.75 685.6 382.15 686.15 380.7 685.7 378.55 L685.1 376.0 Q683.1 375.25 680.6 375.25 L676.6 376.0 676.1 376.65 Q675.6 377.15 675.6 378.6 675.6 381.0 677.85 379.5 L678.35 381.0 677.55 382.05 Q677.3 382.5 675.85 382.5 674.45 382.5 672.1 381.5 672.1 378.5 673.1 376.1 675.1 371.25 680.35 371.25 687.15 371.25 688.65 374.25 688.85 374.7 688.85 378.0 688.85 383.4 686.65 386.25 682.75 391.25 671.85 391.25 666.95 391.25 664.9 387.0 663.6 384.4 663.6 381.0 663.6 372.8 666.55 366.0 671.5 354.75 682.85 354.75 693.35 354.75 702.05 364.55 705.3 368.2 707.15 372.0 708.85 375.5 708.35 376.75 L708.6 377.0 710.2 371.85 Q711.35 367.65 711.35 366.35 711.35 356.3 705.9 348.75 698.05 338.0 681.35 338.0 664.0 338.0 657.15 354.0 653.65 362.1 653.6 371.25 653.6 373.15 654.65 377.1 656.1 382.5 658.65 387.0 666.3 400.5 680.75 400.5 694.7 400.5 700.9 390.65 704.0 385.7 704.35 380.5 704.35 374.7 700.35 368.5 694.4 359.25 682.85 359.25 673.25 359.25 669.6 370.0" fill="#000000" fill-rule="evenodd" stroke="none"/>
  </g>
  <defs>
    <radialGradient cx="0" cy="0" gradientTransform="matrix(0.521, 0.0, 0.0, 0.521, 360.4, 229.45)" gradientUnits="userSpaceOnUse" id="gradient0" r="819.2" spreadMethod="pad">
      <stop offset="0.0" stop-color="#745e3f"/>
      <stop offset="1.0" stop-color="#5b2d2d"/>
    </radialGradient>
    <radialGradient cx="0" cy="0" gradientTransform="matrix(0.1357, 0.0, 0.0, 0.1357, -16.5, 230.25)" gradientUnits="userSpaceOnUse" id="gradient1" r="819.2" spreadMethod="pad">
      <stop offset="0.0" stop-color="#0fa4a3" stop-opacity="0.101960786"/>
      <stop offset="1.0" stop-color="#11cccc" stop-opacity="0.42352942"/>
    </radialGradient>
    <radialGradient cx="0" cy="0" gradientTransform="matrix(0.0881, 0.0, 0.0, 0.0881, 513.95, 150.0)" gradientUnits="userSpaceOnUse" id="gradient2" r="819.2" spreadMethod="pad">
      <stop offset="0.0" stop-color="#0fa4a3" stop-opacity="0.101960786"/>
      <stop offset="1.0" stop-color="#11cccc" stop-opacity="0.23137255"/>
    </radialGradient>
    <radialGradient cx="0" cy="0" gradientTransform="matrix(0.1526, 0.0, 0.0, 0.1526, 616.95, 85.0)" gradientUnits="userSpaceOnUse" id="gradient3" r="819.2" spreadMethod="pad">
      <stop offset="0.0" stop-color="#0fa4a3" stop-opacity="0.101960786"/>
      <stop offset="1.0" stop-color="#11cccc" stop-opacity="0.23137255"/>
    </radialGradient>
    <radialGradient cx="0" cy="0" gradientTransform="matrix(0.4918, 0.0, 0.0, 0.4918, 242.0, 441.0)" gradientUnits="userSpaceOnUse" id="gradient4" r="819.2" spreadMethod="pad">
      <stop offset="0.0" stop-color="#0fa4a3" stop-opacity="0.101960786"/>
      <stop offset="1.0" stop-color="#11cccc" stop-opacity="0.23137255"/>
    </radialGradient>
  </defs>
</svg>
