<?xml version="1.0" encoding="UTF-8" standalone="no"?>
<svg xmlns:ffdec="https://www.free-decompiler.com/flash" xmlns:xlink="http://www.w3.org/1999/xlink" ffdec:objectType="shape" height="31.0px" width="31.0px" xmlns="http://www.w3.org/2000/svg">
  <g transform="matrix(1.0, 0.0, 0.0, 1.0, 15.5, 15.5)">
    <path d="M10.6 -10.6 Q14.95 -6.25 15.0 0.0 14.95 6.2 10.6 10.6 6.2 14.95 0.0 15.0 -6.25 14.95 -10.6 10.6 -15.0 6.2 -15.0 0.0 -15.0 -6.25 -10.6 -10.6 -6.25 -15.0 0.0 -15.0 6.2 -15.0 10.6 -10.6" fill="url(#gradient0)" fill-rule="evenodd" stroke="none"/>
    <path d="M10.6 -10.6 Q14.95 -6.25 15.0 0.0 14.95 6.2 10.6 10.6 6.2 14.95 0.0 15.0 -6.25 14.95 -10.6 10.6 -15.0 6.2 -15.0 0.0 -15.0 -6.25 -10.6 -10.6 -6.25 -15.0 0.0 -15.0 6.2 -15.0 10.6 -10.6 Z" fill="none" stroke="#000000" stroke-linecap="round" stroke-linejoin="round" stroke-width="1.0"/>
    <path d="M9.25 -3.85 Q9.25 -0.25 6.45 2.3 3.65 4.85 -0.3 4.9 -4.3 4.85 -7.1 2.3 -9.9 -0.25 -9.9 -3.85 -9.9 -7.5 -7.1 -10.05 -4.3 -12.65 -0.3 -12.6 3.65 -12.65 6.45 -10.05 9.25 -7.5 9.25 -3.85" fill="url(#gradient1)" fill-rule="evenodd" stroke="none"/>
  </g>
  <defs>
    <radialGradient cx="0" cy="0" gradientTransform="matrix(0.0184, 0.0, 0.0, 0.0184, 0.0, 0.0)" gradientUnits="userSpaceOnUse" id="gradient0" r="819.2" spreadMethod="pad">
      <stop offset="0.4117647058823529" stop-color="#d13636"/>
      <stop offset="0.9725490196078431" stop-color="#6b1d1d"/>
    </radialGradient>
    <linearGradient gradientTransform="matrix(6.0E-4, 0.0107, -0.0117, 5.0E-4, -0.3, -3.9)" gradientUnits="userSpaceOnUse" id="gradient1" spreadMethod="pad" x1="-819.2" x2="819.2">
      <stop offset="0.0" stop-color="#ffffff" stop-opacity="0.7019608"/>
      <stop offset="1.0" stop-color="#ffffff" stop-opacity="0.0"/>
    </linearGradient>
  </defs>
</svg>
