<?xml version="1.0" encoding="UTF-8" standalone="no"?>
<svg xmlns:ffdec="https://www.free-decompiler.com/flash" xmlns:xlink="http://www.w3.org/1999/xlink" ffdec:objectType="shape" height="24.0px" width="10.75px" xmlns="http://www.w3.org/2000/svg">
  <g transform="matrix(1.0, 0.0, 0.0, 1.0, 5.45, 10.4)">
    <path d="M2.7 -8.75 Q1.25 -0.3 1.25 8.35 L0.2 8.35 0.15 8.35 -0.25 8.35 Q-0.55 -0.05 0.1 -8.9 L2.7 -8.75" fill="url(#gradient0)" fill-rule="evenodd" stroke="none"/>
    <path d="M1.25 8.35 L1.55 8.35 2.35 8.25 1.65 12.85 1.5 13.0 1.35 13.15 0.65 13.5 0.05 13.6 -1.6 13.35 Q-2.55 12.9 -3.55 12.4 L-3.55 12.0 -3.6 7.65 -2.3 8.0 -0.25 8.35 0.15 8.35 0.2 8.35 1.25 8.35" fill="url(#gradient1)" fill-rule="evenodd" stroke="none"/>
    <path d="M0.1 -8.9 Q-0.55 -0.05 -0.25 8.35 L-2.3 8.0 -3.6 7.65 -3.7 0.5 -4.6 -4.9 -4.3 -6.8 -5.45 -8.4 -4.95 -10.4 -3.8 -9.85 -3.85 -9.65 -1.95 -9.55 0.1 -8.9" fill="url(#gradient2)" fill-rule="evenodd" stroke="none"/>
    <path d="M4.15 -9.1 L5.3 -9.75 5.25 -7.7 4.45 -7.05 4.65 -5.5 4.05 -4.65 3.0 -0.15 2.85 4.95 2.35 8.25 1.55 8.35 1.25 8.35 Q1.25 -0.3 2.7 -8.75 L4.15 -9.15 4.15 -9.1" fill="url(#gradient3)" fill-rule="evenodd" stroke="none"/>
    <path d="M4.15 -9.1 L4.15 -9.15 M1.25 8.35 L1.55 8.35 2.35 8.25 2.85 4.95 3.0 -0.15 4.05 -4.65 4.65 -5.5 4.45 -7.05 M-0.25 8.35 L0.15 8.35 0.2 8.35 1.25 8.35 M1.65 12.85 L2.35 8.25 M-3.85 -9.65 L-3.8 -9.85 M-4.3 -6.8 L-4.6 -4.9 -3.7 0.5 -3.6 7.65 -2.3 8.0 -0.25 8.35 M-3.6 7.65 L-3.55 12.0" fill="none" stroke="#000000" stroke-linecap="round" stroke-linejoin="round" stroke-width="0.05"/>
    <path d="M4.45 -7.05 L5.25 -7.7 5.3 -9.75 4.15 -9.1 M4.15 -9.15 L2.7 -8.75 Q1.25 -0.3 1.25 8.35 M2.7 -8.75 L0.1 -8.9 Q-0.55 -0.05 -0.25 8.35 M-3.55 12.0 L-3.55 12.4 Q-2.55 12.9 -1.6 13.35 L0.05 13.6 0.65 13.5 1.35 13.15 1.5 13.0 1.65 12.85 M0.1 -8.9 L-1.95 -9.55 -3.85 -9.65 M-3.8 -9.85 L-4.95 -10.4 -5.45 -8.4 -4.3 -6.8" fill="none" stroke="#000000" stroke-linecap="round" stroke-linejoin="round" stroke-width="0.05"/>
  </g>
  <defs>
    <radialGradient cx="0" cy="0" gradientTransform="matrix(0.0115, 0.0, 0.0, 0.0115, 0.75, -0.6)" gradientUnits="userSpaceOnUse" id="gradient0" r="819.2" spreadMethod="pad">
      <stop offset="0.0" stop-color="#6a6a6a"/>
      <stop offset="0.7137254901960784" stop-color="#374040"/>
      <stop offset="1.0" stop-color="#5f4b5e"/>
    </radialGradient>
    <radialGradient cx="0" cy="0" gradientTransform="matrix(0.005, 0.0, 0.0, 0.005, -0.35, 9.9)" gradientUnits="userSpaceOnUse" id="gradient1" r="819.2" spreadMethod="pad">
      <stop offset="0.0" stop-color="#ffffff"/>
      <stop offset="0.7137254901960784" stop-color="#484848"/>
      <stop offset="1.0" stop-color="#bfbfbf"/>
    </radialGradient>
    <radialGradient cx="0" cy="0" gradientTransform="matrix(0.0157, 0.0, 0.0, 0.0157, -2.5, 2.25)" gradientUnits="userSpaceOnUse" id="gradient2" r="819.2" spreadMethod="pad">
      <stop offset="0.0" stop-color="#885995"/>
      <stop offset="0.7137254901960784" stop-color="#372d39"/>
      <stop offset="1.0" stop-color="#643e3e"/>
    </radialGradient>
    <radialGradient cx="0" cy="0" gradientTransform="matrix(0.0137, 0.0, 0.0, 0.0137, 2.6, -2.75)" gradientUnits="userSpaceOnUse" id="gradient3" r="819.2" spreadMethod="pad">
      <stop offset="0.0" stop-color="#885995"/>
      <stop offset="0.7137254901960784" stop-color="#372d39"/>
      <stop offset="1.0" stop-color="#643e3e"/>
    </radialGradient>
  </defs>
</svg>
