<?xml version="1.0" encoding="UTF-8" standalone="no"?>
<svg xmlns:ffdec="https://www.free-decompiler.com/flash" xmlns:xlink="http://www.w3.org/1999/xlink" ffdec:objectType="shape" height="33.65px" width="11.75px" xmlns="http://www.w3.org/2000/svg">
  <g transform="matrix(1.0, 0.0, 0.0, 1.0, 6.0, 30.35)">
    <path d="M-2.45 -3.35 Q-2.25 -4.55 -1.45 -5.5 -0.3 -6.7 1.3 -6.7 2.9 -6.7 4.0 -5.5 5.15 -4.25 5.15 -2.55 L5.1 -1.85 5.05 -1.6 5.05 -1.45 5.0 -1.3 5.35 1.4 4.5 1.5 4.5 1.6 4.05 3.3 Q3.2 -0.05 -2.45 -3.35" fill="url(#gradient0)" fill-rule="evenodd" stroke="none"/>
    <path d="M4.05 3.3 L4.5 1.6 4.5 1.5 5.35 1.4 5.0 -1.3" fill="none" stroke="#000000" stroke-linecap="round" stroke-linejoin="round" stroke-width="0.05"/>
    <path d="M-2.45 -3.35 Q3.2 -0.05 4.05 3.3" fill="none" stroke="#000000" stroke-linecap="round" stroke-linejoin="round" stroke-width="0.05"/>
    <path d="M5.0 -1.3 L5.05 -1.45 5.05 -1.6 5.1 -1.85 5.15 -2.55 Q5.15 -4.25 4.0 -5.5 2.9 -6.7 1.3 -6.7 -0.3 -6.7 -1.45 -5.5 -2.25 -4.55 -2.45 -3.35" fill="none" stroke="#000000" stroke-linecap="round" stroke-linejoin="round" stroke-width="0.05"/>
    <path d="M-6.0 -24.95 L-3.85 -23.25 Q0.45 -20.85 4.75 -1.9 -0.35 -17.15 -6.0 -24.95 M1.75 -23.85 L2.55 -21.25 4.4 -20.75 Q5.65 -13.05 5.75 -9.25 5.85 -5.45 4.9 -1.7 L4.85 -1.9 Q3.45 -16.3 -2.6 -30.35 L1.75 -23.85 M-6.0 -11.0 L1.15 -1.0 -6.0 -7.85 -6.0 -11.0 M-4.25 -16.75 L1.9 -2.05 -4.8 -13.2 -4.25 -16.75" fill="url(#gradient1)" fill-rule="evenodd" stroke="none"/>
  </g>
  <defs>
    <radialGradient cx="0" cy="0" gradientTransform="matrix(0.0075, 0.0, 0.0, 0.0075, 3.15, -2.5)" gradientUnits="userSpaceOnUse" id="gradient0" r="819.2" spreadMethod="pad">
      <stop offset="0.0" stop-color="#ffffff"/>
      <stop offset="0.7137254901960784" stop-color="#484848"/>
      <stop offset="1.0" stop-color="#bfbfbf"/>
    </radialGradient>
    <linearGradient gradientTransform="matrix(0.0072, 0.0, 0.0, 0.0179, -0.15, -15.7)" gradientUnits="userSpaceOnUse" id="gradient1" spreadMethod="pad" x1="-819.2" x2="819.2">
      <stop offset="0.0" stop-color="#915e91"/>
      <stop offset="1.0" stop-color="#f14141"/>
    </linearGradient>
  </defs>
</svg>
