<?xml version="1.0" encoding="UTF-8" standalone="no"?>
<svg xmlns:ffdec="https://www.free-decompiler.com/flash" xmlns:xlink="http://www.w3.org/1999/xlink" ffdec:objectType="shape" height="67.3px" width="28.5px" xmlns="http://www.w3.org/2000/svg">
  <g transform="matrix(1.0, 0.0, 0.0, 1.0, 9.3, 21.1)">
    <path d="M0.25 -16.1 L0.3 -16.2 0.3 -16.1 0.25 -16.1 M0.35 -0.35 L0.65 0.05 Q0.5 0.1 0.35 0.25 L0.35 -0.35" fill="#ffffff" fill-rule="evenodd" stroke="none"/>
    <path d="M8.1 -6.85 L7.9 -6.95 8.05 -7.1 8.1 -6.85" fill="url(#gradient0)" fill-rule="evenodd" stroke="none"/>
    <path d="M5.7 -1.1 L5.55 -1.15 5.7 -1.15 5.7 -1.1" fill="url(#gradient1)" fill-rule="evenodd" stroke="none"/>
    <path d="M0.3 -16.2 L0.25 -16.1 -0.2 -16.45 -1.9 -14.0 -3.15 -13.85 -2.65 -20.35 0.3 -16.2" fill="url(#gradient2)" fill-rule="evenodd" stroke="none"/>
    <path d="M-8.25 -11.95 L-9.3 -13.5 Q-8.3 -15.6 -7.15 -17.1 L-3.25 -13.85 -3.3 -13.85 -3.2 -13.55 -8.25 -11.95" fill="url(#gradient3)" fill-rule="evenodd" stroke="none"/>
    <path d="M-7.15 -17.1 Q-5.1 -19.8 -2.65 -20.35 L-3.15 -13.85 -3.25 -13.85 -7.15 -17.1" fill="url(#gradient4)" fill-rule="evenodd" stroke="none"/>
    <path d="M-6.4 -9.95 L-8.25 -11.95 -3.2 -13.55 -3.15 -13.45 -3.9 -8.15 -4.6 -8.55 -4.75 -8.65 -6.4 -9.95" fill="url(#gradient5)" fill-rule="evenodd" stroke="none"/>
    <path d="M-0.5 -10.0 L-0.55 -10.0 -3.85 -8.15 -3.9 -8.15 -3.15 -13.45 Q-2.45 -11.3 -0.5 -10.0" fill="url(#gradient6)" fill-rule="evenodd" stroke="none"/>
    <path d="M-0.55 -10.0 L0.55 -6.85 Q-1.85 -7.05 -3.8 -8.1 L-3.85 -8.15 -0.55 -10.0" fill="url(#gradient7)" fill-rule="evenodd" stroke="none"/>
    <path d="M2.0 -8.85 L0.55 -6.85 -0.55 -10.0 -0.5 -10.0 Q0.55 -9.3 2.0 -8.85" fill="url(#gradient8)" fill-rule="evenodd" stroke="none"/>
    <path d="M0.55 -6.85 L2.0 -8.85 3.05 -7.0 1.8 -6.8 0.55 -6.85" fill="url(#gradient9)" fill-rule="evenodd" stroke="none"/>
    <path d="M5.2 -8.45 L5.5 -7.95 Q5.05 -7.15 4.3 -7.1 L3.45 -7.35 3.4 -7.95 Q4.45 -7.75 5.2 -8.45" fill="url(#gradient10)" fill-rule="evenodd" stroke="none"/>
    <path d="M3.4 -7.95 L3.45 -7.35 3.4 -7.1 3.15 -7.05 3.05 -7.0 2.0 -8.85 3.0 -8.6 3.4 -7.95" fill="url(#gradient11)" fill-rule="evenodd" stroke="none"/>
    <path d="M5.2 -8.45 Q4.85 -9.05 5.1 -9.7 L5.3 -10.2 5.75 -8.05 5.6 -7.85 5.5 -7.95 5.2 -8.45" fill="url(#gradient12)" fill-rule="evenodd" stroke="none"/>
    <path d="M5.3 -10.2 L5.35 -10.4 6.75 -9.95 6.65 -9.6 5.75 -8.05 5.3 -10.2" fill="url(#gradient13)" fill-rule="evenodd" stroke="none"/>
    <path d="M5.45 -12.35 L7.55 -12.9 7.25 -12.25 Q7.05 -11.7 7.0 -11.0 L6.9 -10.6 6.8 -10.0 5.45 -12.15 5.45 -12.35" fill="url(#gradient14)" fill-rule="evenodd" stroke="none"/>
    <path d="M5.35 -10.4 L5.45 -12.15 6.8 -10.0 6.75 -9.95 5.35 -10.4" fill="url(#gradient15)" fill-rule="evenodd" stroke="none"/>
    <path d="M6.35 -16.55 L6.4 -16.55 7.55 -12.9 5.45 -12.35 5.35 -12.95 3.95 -13.45 3.4 -13.85 6.35 -16.55" fill="url(#gradient16)" fill-rule="evenodd" stroke="none"/>
    <path d="M6.4 -16.55 L7.55 -15.35 8.75 -14.05 Q8.0 -13.7 7.6 -12.95 L7.55 -12.9 6.4 -16.55" fill="url(#gradient17)" fill-rule="evenodd" stroke="none"/>
    <path d="M1.75 -19.8 Q3.9 -18.85 6.35 -16.55 L3.4 -13.85 3.25 -13.95 1.75 -19.8" fill="url(#gradient18)" fill-rule="evenodd" stroke="none"/>
    <path d="M1.7 -19.85 L1.75 -19.8 3.25 -13.95 0.3 -16.1 0.3 -16.2 1.7 -19.85" fill="url(#gradient19)" fill-rule="evenodd" stroke="none"/>
    <path d="M-2.65 -20.35 Q-0.6 -20.85 1.7 -19.85 L0.3 -16.2 -2.65 -20.35" fill="url(#gradient20)" fill-rule="evenodd" stroke="none"/>
    <path d="M8.85 -14.0 L8.1 -11.9 Q7.7 -12.1 7.25 -12.25 L7.55 -12.9 7.6 -12.95 Q8.0 -13.7 8.75 -14.05 L8.85 -14.0" fill="url(#gradient21)" fill-rule="evenodd" stroke="none"/>
    <path d="M9.3 -7.8 L9.5 -6.55 Q9.6 -5.35 8.25 -5.7 L8.1 -6.85 8.05 -7.1 Q7.65 -8.75 6.65 -9.6 L6.75 -9.95 6.8 -10.0 6.9 -10.6 Q8.35 -9.45 9.3 -7.8" fill="url(#gradient22)" fill-rule="evenodd" stroke="none"/>
    <path d="M4.8 17.4 L5.1 20.05 Q2.8 22.0 -0.4 20.3 L-0.55 17.55 4.8 17.4" fill="url(#gradient23)" fill-rule="evenodd" stroke="none"/>
    <path d="M0.35 0.25 L-1.3 1.35 -1.75 1.6 -2.55 1.85 -5.4 1.6 Q-5.1 -1.2 -6.9 -4.15 -7.3 -7.4 -6.4 -9.95 L-4.75 -8.65 -4.6 -8.55 -3.9 -8.15 -3.85 -8.15 -3.8 -8.1 Q-2.35 -3.85 0.35 -0.35 L0.35 0.25" fill="url(#gradient24)" fill-rule="evenodd" stroke="none"/>
    <path d="M8.25 -5.7 L8.25 -4.45 Q6.65 -2.5 6.35 -0.4 L5.7 -1.1 5.7 -1.15 Q6.0 -4.4 7.9 -6.95 L8.1 -6.85 8.25 -5.7" fill="url(#gradient25)" fill-rule="evenodd" stroke="none"/>
    <path d="M9.55 -10.7 L10.1 -9.55 10.3 -8.85 10.3 -8.45 9.3 -7.8 Q8.35 -9.45 6.9 -10.6 L7.0 -11.0 Q7.05 -11.7 7.25 -12.25 7.7 -12.1 8.1 -11.9 L8.6 -11.55 9.55 -10.7" fill="url(#gradient26)" fill-rule="evenodd" stroke="none"/>
    <path d="M4.6 15.5 L4.8 17.4 -0.55 17.55 -0.7 15.2 Q-0.3 15.4 0.05 15.55 L4.6 15.5" fill="url(#gradient27)" fill-rule="evenodd" stroke="none"/>
    <path d="M5.1 20.05 Q4.2 26.05 5.55 31.7 L7.3 42.85 4.8 36.45 3.95 46.2 2.05 39.5 0.95 42.55 Q1.25 33.2 -0.4 20.3 2.8 22.0 5.1 20.05" fill="url(#gradient28)" fill-rule="evenodd" stroke="none"/>
    <path d="M3.45 -7.35 L4.3 -7.1 Q3.75 -4.15 4.15 -1.35 2.75 -1.25 0.65 0.05 L0.35 -0.35 Q-2.35 -3.85 -3.8 -8.1 -1.85 -7.05 0.55 -6.85 L1.8 -6.8 3.05 -7.0 3.15 -7.05 3.4 -7.1 3.45 -7.35" fill="url(#gradient29)" fill-rule="evenodd" stroke="none"/>
    <path d="M5.75 -8.05 L6.65 -9.6 Q7.65 -8.75 8.05 -7.1 L7.9 -6.95 Q6.0 -4.4 5.7 -1.15 L5.55 -1.15 4.15 -1.35 Q3.75 -4.15 4.3 -7.1 5.05 -7.15 5.5 -7.95 L5.6 -7.85 5.75 -8.05" fill="url(#gradient30)" fill-rule="evenodd" stroke="none"/>
    <path d="M5.55 -1.15 Q3.1 5.4 4.5 12.55 L4.4 12.6 1.3 12.4 1.2 12.35 Q-0.65 6.0 0.35 0.25 0.5 0.1 0.65 0.05 2.75 -1.25 4.15 -1.35 L5.55 -1.15" fill="url(#gradient31)" fill-rule="evenodd" stroke="none"/>
    <path d="M4.5 12.55 Q5.75 12.25 6.3 11.25 L6.6 12.75 5.0 15.5 4.6 15.5 0.05 15.55 Q-0.3 15.4 -0.7 15.2 L-6.45 12.4 -5.9 9.8 -4.9 10.05 -0.45 11.9 1.2 12.35 1.3 12.4 4.4 12.6 4.5 12.55" fill="url(#gradient32)" fill-rule="evenodd" stroke="none"/>
    <path d="M8.6 -11.55 L12.6 -16.6 17.0 -21.1 19.2 -17.6 13.75 -15.05 9.55 -10.7 8.6 -11.55" fill="url(#gradient33)" fill-rule="evenodd" stroke="none"/>
    <path d="M7.55 -15.35 L8.0 -17.8 9.45 -19.95 11.05 -18.7 Q10.45 -17.35 9.45 -16.7 L8.85 -14.0 8.75 -14.05 7.55 -15.35" fill="url(#gradient34)" fill-rule="evenodd" stroke="none"/>
    <path d="M10.1 -9.55 L13.3 -11.25 15.7 -11.5 15.2 -9.2 13.35 -10.0 10.3 -8.85 10.1 -9.55" fill="url(#gradient35)" fill-rule="evenodd" stroke="none"/>
    <path d="M9.3 -7.8 L9.5 -6.55 M4.5 12.55 Q5.75 12.25 6.3 11.25 L6.6 12.75 5.0 15.5 4.6 15.5 0.05 15.55 Q-0.3 15.4 -0.7 15.2 L-6.45 12.4 -5.9 9.8 -4.9 10.05 -0.45 11.9 1.2 12.35 M-9.3 -13.5 Q-8.3 -15.6 -7.15 -17.1 -5.1 -19.8 -2.65 -20.35 -0.6 -20.85 1.7 -19.85 L1.75 -19.8 Q3.9 -18.85 6.35 -16.55 L6.4 -16.55 7.55 -15.35 8.75 -14.05 M6.9 -10.6 Q8.35 -9.45 9.3 -7.8 M1.3 12.4 L4.4 12.6" fill="none" stroke="#000000" stroke-linecap="round" stroke-linejoin="round" stroke-width="0.05"/>
    <path d="M8.6 -11.55 L12.6 -16.6 17.0 -21.1 19.2 -17.6 13.75 -15.05 9.55 -10.7 10.1 -9.55 13.3 -11.25 15.7 -11.5 15.2 -9.2 13.35 -10.0 10.3 -8.85 10.3 -8.45 9.3 -7.8 M9.5 -6.55 Q9.6 -5.35 8.25 -5.7 L8.25 -4.45 Q6.65 -2.5 6.35 -0.4 L5.7 -1.1 5.55 -1.15 Q3.1 5.4 4.5 12.55 L4.4 12.6 M4.6 15.5 L4.8 17.4 5.1 20.05 Q4.2 26.05 5.55 31.7 L7.3 42.85 4.8 36.45 3.95 46.2 2.05 39.5 0.95 42.55 Q1.25 33.2 -0.4 20.3 L-0.55 17.55 -0.7 15.2 M1.2 12.35 Q-0.65 6.0 0.35 0.25 L-1.3 1.35 -1.75 1.6 -2.55 1.85 -5.4 1.6 Q-5.1 -1.2 -6.9 -4.15 -7.3 -7.4 -6.4 -9.95 L-8.25 -11.95 -9.3 -13.5 M7.55 -15.35 L8.0 -17.8 9.45 -19.95 11.05 -18.7 Q10.45 -17.35 9.45 -16.7 L8.85 -14.0 8.1 -11.9 8.6 -11.55 9.55 -10.7 M0.25 -16.1 L0.3 -16.1 0.3 -16.2 -2.65 -20.35 -3.15 -13.85 -1.9 -14.0 -0.2 -16.45 0.25 -16.1 M0.3 -16.1 L3.25 -13.95 1.75 -19.8 M3.25 -13.95 L3.4 -13.85 6.35 -16.55 M3.4 -13.85 L3.95 -13.45 5.35 -12.95 5.45 -12.35 7.55 -12.9 6.4 -16.55 M7.6 -12.95 Q8.0 -13.7 8.75 -14.05 M7.55 -12.9 L7.6 -12.95 M1.7 -19.85 L0.3 -16.2 M7.25 -12.25 Q7.05 -11.7 7.0 -11.0 L6.9 -10.6 6.8 -10.0 5.45 -12.15 5.45 -12.35 M5.3 -10.2 L5.35 -10.4 5.45 -12.15 M5.2 -8.45 Q4.85 -9.05 5.1 -9.7 L5.3 -10.2 5.75 -8.05 6.65 -9.6 6.75 -9.95 5.35 -10.4 M6.75 -9.95 L6.8 -10.0 M5.5 -7.95 L5.2 -8.45 Q4.45 -7.75 3.4 -7.95 L3.45 -7.35 4.3 -7.1 Q5.05 -7.15 5.5 -7.95 L5.6 -7.85 5.75 -8.05 M8.1 -6.85 L8.05 -7.1 7.9 -6.95 Q6.0 -4.4 5.7 -1.15 L5.7 -1.1 M7.25 -12.25 Q7.7 -12.1 8.1 -11.9 M6.65 -9.6 Q7.65 -8.75 8.05 -7.1 M0.55 -6.85 L2.0 -8.85 Q0.55 -9.3 -0.5 -10.0 L-0.55 -10.0 0.55 -6.85 Q-1.85 -7.05 -3.8 -8.1 -2.35 -3.85 0.35 -0.35 L0.65 0.05 Q2.75 -1.25 4.15 -1.35 3.75 -4.15 4.3 -7.1 M3.05 -7.0 L1.8 -6.8 0.55 -6.85 M2.0 -8.85 L3.0 -8.6 3.4 -7.95 M3.45 -7.35 L3.4 -7.1 3.15 -7.05 3.05 -7.0 2.0 -8.85 M4.15 -1.35 L5.55 -1.15 M8.1 -6.85 L8.25 -5.7 M7.55 -12.9 L7.25 -12.25 M10.1 -9.55 L10.3 -8.85 M0.35 0.25 Q0.5 0.1 0.65 0.05 M1.2 12.35 L1.3 12.4 M0.35 -0.35 L0.35 0.25 M-3.15 -13.85 L-3.25 -13.85 -3.3 -13.85 -3.2 -13.55 -3.15 -13.45 Q-2.45 -11.3 -0.5 -10.0 M-3.25 -13.85 L-7.15 -17.1 M-3.9 -8.15 L-4.6 -8.55 -4.75 -8.65 -6.4 -9.95 M-3.9 -8.15 L-3.85 -8.15 -0.55 -10.0 M-3.85 -8.15 L-3.8 -8.1 M-3.2 -13.55 L-8.25 -11.95 M-3.9 -8.15 L-3.15 -13.45 M-0.4 20.3 Q2.8 22.0 5.1 20.05 M-0.55 17.55 L4.8 17.4" fill="none" stroke="#000000" stroke-linecap="round" stroke-linejoin="round" stroke-width="0.05"/>
  </g>
  <defs>
    <radialGradient cx="0" cy="0" gradientTransform="matrix(0.0065, 0.0, 0.0, 0.0065, 6.6, -2.0)" gradientUnits="userSpaceOnUse" id="gradient0" r="819.2" spreadMethod="pad">
      <stop offset="0.0" stop-color="#dcd2bc"/>
      <stop offset="0.7137254901960784" stop-color="#8a855b"/>
      <stop offset="1.0" stop-color="#a58a63"/>
    </radialGradient>
    <radialGradient cx="0" cy="0" gradientTransform="matrix(0.0084, 0.0, 0.0, 0.0084, 6.85, -2.25)" gradientUnits="userSpaceOnUse" id="gradient1" r="819.2" spreadMethod="pad">
      <stop offset="0.0" stop-color="#c18f1c"/>
      <stop offset="0.7137254901960784" stop-color="#783910"/>
      <stop offset="1.0" stop-color="#9e3f3f"/>
    </radialGradient>
    <linearGradient gradientTransform="matrix(0.0021, 0.0, 0.0, 0.004, -1.45, -17.1)" gradientUnits="userSpaceOnUse" id="gradient2" spreadMethod="pad" x1="-819.2" x2="819.2">
      <stop offset="0.0" stop-color="#777777"/>
      <stop offset="1.0" stop-color="#2f2f2f"/>
    </linearGradient>
    <linearGradient gradientTransform="matrix(0.0037, 0.0, 0.0, 0.0031, -6.25, -14.55)" gradientUnits="userSpaceOnUse" id="gradient3" spreadMethod="pad" x1="-819.2" x2="819.2">
      <stop offset="0.0" stop-color="#777777"/>
      <stop offset="1.0" stop-color="#2f2f2f"/>
    </linearGradient>
    <linearGradient gradientTransform="matrix(0.0027, 0.0, 0.0, 0.004, -4.9, -17.1)" gradientUnits="userSpaceOnUse" id="gradient4" spreadMethod="pad" x1="-819.2" x2="819.2">
      <stop offset="0.0" stop-color="#777777"/>
      <stop offset="1.0" stop-color="#2f2f2f"/>
    </linearGradient>
    <linearGradient gradientTransform="matrix(0.0031, 0.0, 0.0, 0.0033, -5.7, -10.85)" gradientUnits="userSpaceOnUse" id="gradient5" spreadMethod="pad" x1="-819.2" x2="819.2">
      <stop offset="0.0" stop-color="#777777"/>
      <stop offset="1.0" stop-color="#2f2f2f"/>
    </linearGradient>
    <linearGradient gradientTransform="matrix(0.0021, 0.0, 0.0, 0.0032, -2.2, -10.8)" gradientUnits="userSpaceOnUse" id="gradient6" spreadMethod="pad" x1="-819.2" x2="819.2">
      <stop offset="0.0" stop-color="#777777"/>
      <stop offset="1.0" stop-color="#2f2f2f"/>
    </linearGradient>
    <linearGradient gradientTransform="matrix(0.0023, 0.0014, -0.0011, 0.0017, -1.1, -8.4)" gradientUnits="userSpaceOnUse" id="gradient7" spreadMethod="pad" x1="-819.2" x2="819.2">
      <stop offset="0.0" stop-color="#777777"/>
      <stop offset="1.0" stop-color="#2f2f2f"/>
    </linearGradient>
    <linearGradient gradientTransform="matrix(0.0014, 9.0E-4, -8.0E-4, 0.0013, 0.15, -8.55)" gradientUnits="userSpaceOnUse" id="gradient8" spreadMethod="pad" x1="-819.2" x2="819.2">
      <stop offset="0.0" stop-color="#777777"/>
      <stop offset="1.0" stop-color="#2f2f2f"/>
    </linearGradient>
    <linearGradient gradientTransform="matrix(0.001, 7.0E-4, -8.0E-4, 0.0013, 2.05, -7.3)" gradientUnits="userSpaceOnUse" id="gradient9" spreadMethod="pad" x1="-819.2" x2="819.2">
      <stop offset="0.0" stop-color="#777777"/>
      <stop offset="1.0" stop-color="#2f2f2f"/>
    </linearGradient>
    <linearGradient gradientTransform="matrix(9.0E-4, 6.0E-4, -6.0E-4, 0.001, 4.4, -7.85)" gradientUnits="userSpaceOnUse" id="gradient10" spreadMethod="pad" x1="-819.2" x2="819.2">
      <stop offset="0.0" stop-color="#777777"/>
      <stop offset="1.0" stop-color="#2f2f2f"/>
    </linearGradient>
    <linearGradient gradientTransform="matrix(0.0011, 7.0E-4, -4.0E-4, 7.0E-4, 2.7, -8.0)" gradientUnits="userSpaceOnUse" id="gradient11" spreadMethod="pad" x1="-819.2" x2="819.2">
      <stop offset="0.0" stop-color="#777777"/>
      <stop offset="1.0" stop-color="#2f2f2f"/>
    </linearGradient>
    <linearGradient gradientTransform="matrix(8.0E-4, 5.0E-4, -6.0E-4, 9.0E-4, 5.45, -9.05)" gradientUnits="userSpaceOnUse" id="gradient12" spreadMethod="pad" x1="-819.2" x2="819.2">
      <stop offset="0.0" stop-color="#777777"/>
      <stop offset="1.0" stop-color="#2f2f2f"/>
    </linearGradient>
    <linearGradient gradientTransform="matrix(9.0E-4, 0.0, 0.0, 0.0014, 6.0, -9.25)" gradientUnits="userSpaceOnUse" id="gradient13" spreadMethod="pad" x1="-819.2" x2="819.2">
      <stop offset="0.0" stop-color="#777777"/>
      <stop offset="1.0" stop-color="#2f2f2f"/>
    </linearGradient>
    <linearGradient gradientTransform="matrix(0.0012, 8.0E-4, -9.0E-4, 0.0015, 6.55, -11.9)" gradientUnits="userSpaceOnUse" id="gradient14" spreadMethod="pad" x1="-819.2" x2="819.2">
      <stop offset="0.0" stop-color="#777777"/>
      <stop offset="1.0" stop-color="#2f2f2f"/>
    </linearGradient>
    <linearGradient gradientTransform="matrix(0.0012, 7.0E-4, -5.0E-4, 8.0E-4, 6.0, -10.9)" gradientUnits="userSpaceOnUse" id="gradient15" spreadMethod="pad" x1="-819.2" x2="819.2">
      <stop offset="0.0" stop-color="#777777"/>
      <stop offset="1.0" stop-color="#2f2f2f"/>
    </linearGradient>
    <linearGradient gradientTransform="matrix(0.0025, 0.0, 0.0, 0.0026, 5.45, -14.45)" gradientUnits="userSpaceOnUse" id="gradient16" spreadMethod="pad" x1="-819.2" x2="819.2">
      <stop offset="0.0" stop-color="#777777"/>
      <stop offset="1.0" stop-color="#2f2f2f"/>
    </linearGradient>
    <linearGradient gradientTransform="matrix(0.0014, 0.0, 0.0, 0.0022, 7.55, -14.75)" gradientUnits="userSpaceOnUse" id="gradient17" spreadMethod="pad" x1="-819.2" x2="819.2">
      <stop offset="0.0" stop-color="#777777"/>
      <stop offset="1.0" stop-color="#2f2f2f"/>
    </linearGradient>
    <linearGradient gradientTransform="matrix(0.0028, 0.0, 0.0, 0.0036, 4.05, -16.85)" gradientUnits="userSpaceOnUse" id="gradient18" spreadMethod="pad" x1="-819.2" x2="819.2">
      <stop offset="0.0" stop-color="#777777"/>
      <stop offset="1.0" stop-color="#2f2f2f"/>
    </linearGradient>
    <linearGradient gradientTransform="matrix(0.0018, 0.0, 0.0, 0.0036, 1.75, -16.9)" gradientUnits="userSpaceOnUse" id="gradient19" spreadMethod="pad" x1="-819.2" x2="819.2">
      <stop offset="0.0" stop-color="#777777"/>
      <stop offset="1.0" stop-color="#2f2f2f"/>
    </linearGradient>
    <linearGradient gradientTransform="matrix(0.0027, 0.0, 0.0, 0.0026, -0.5, -18.35)" gradientUnits="userSpaceOnUse" id="gradient20" spreadMethod="pad" x1="-819.2" x2="819.2">
      <stop offset="0.0" stop-color="#777777"/>
      <stop offset="1.0" stop-color="#2f2f2f"/>
    </linearGradient>
    <radialGradient cx="0" cy="0" gradientTransform="matrix(0.0025, 0.0, 0.0, 0.0025, 7.75, -12.25)" gradientUnits="userSpaceOnUse" id="gradient21" r="819.2" spreadMethod="pad">
      <stop offset="0.0" stop-color="#81419c"/>
      <stop offset="0.7137254901960784" stop-color="#543448"/>
      <stop offset="1.0" stop-color="#6d5c81"/>
    </radialGradient>
    <radialGradient cx="0" cy="0" gradientTransform="matrix(0.0037, 0.0, 0.0, 0.0037, 8.35, -8.6)" gradientUnits="userSpaceOnUse" id="gradient22" r="819.2" spreadMethod="pad">
      <stop offset="0.0" stop-color="#ffffff"/>
      <stop offset="0.7137254901960784" stop-color="#484848"/>
      <stop offset="1.0" stop-color="#bfbfbf"/>
    </radialGradient>
    <radialGradient cx="0" cy="0" gradientTransform="matrix(0.0046, 0.0, 0.0, 0.0046, 3.0, 18.75)" gradientUnits="userSpaceOnUse" id="gradient23" r="819.2" spreadMethod="pad">
      <stop offset="0.0" stop-color="#ffffff"/>
      <stop offset="0.7137254901960784" stop-color="#484848"/>
      <stop offset="1.0" stop-color="#bfbfbf"/>
    </radialGradient>
    <radialGradient cx="0" cy="0" gradientTransform="matrix(0.0134, 0.0, 0.0, 0.0134, -1.65, -0.6)" gradientUnits="userSpaceOnUse" id="gradient24" r="819.2" spreadMethod="pad">
      <stop offset="0.0" stop-color="#885995"/>
      <stop offset="0.7137254901960784" stop-color="#372d39"/>
      <stop offset="1.0" stop-color="#643e3e"/>
    </radialGradient>
    <radialGradient cx="0" cy="0" gradientTransform="matrix(0.0065, 0.0, 0.0, 0.0065, 6.6, -2.0)" gradientUnits="userSpaceOnUse" id="gradient25" r="819.2" spreadMethod="pad">
      <stop offset="0.0" stop-color="#885995"/>
      <stop offset="0.7137254901960784" stop-color="#372d39"/>
      <stop offset="1.0" stop-color="#643e3e"/>
    </radialGradient>
    <radialGradient cx="0" cy="0" gradientTransform="matrix(0.0055, 0.0, 0.0, 0.0055, 7.1, -11.6)" gradientUnits="userSpaceOnUse" id="gradient26" r="819.2" spreadMethod="pad">
      <stop offset="0.0" stop-color="#885995"/>
      <stop offset="0.7137254901960784" stop-color="#372d39"/>
      <stop offset="1.0" stop-color="#643e3e"/>
    </radialGradient>
    <radialGradient cx="0" cy="0" gradientTransform="matrix(0.0057, 0.0, 0.0, 0.0057, 3.25, 17.7)" gradientUnits="userSpaceOnUse" id="gradient27" r="819.2" spreadMethod="pad">
      <stop offset="0.0" stop-color="#885995"/>
      <stop offset="0.7137254901960784" stop-color="#372d39"/>
      <stop offset="1.0" stop-color="#643e3e"/>
    </radialGradient>
    <radialGradient cx="0" cy="0" gradientTransform="matrix(0.0175, 0.0, 0.0, 0.0175, 3.1, 34.2)" gradientUnits="userSpaceOnUse" id="gradient28" r="819.2" spreadMethod="pad">
      <stop offset="0.0" stop-color="#885995"/>
      <stop offset="0.7137254901960784" stop-color="#372d39"/>
      <stop offset="1.0" stop-color="#643e3e"/>
    </radialGradient>
    <radialGradient cx="0" cy="0" gradientTransform="matrix(0.0087, 0.0, 0.0, 0.0087, -1.75, -3.25)" gradientUnits="userSpaceOnUse" id="gradient29" r="819.2" spreadMethod="pad">
      <stop offset="0.0" stop-color="#ffffff"/>
      <stop offset="0.7137254901960784" stop-color="#484848"/>
      <stop offset="1.0" stop-color="#bfbfbf"/>
    </radialGradient>
    <radialGradient cx="0" cy="0" gradientTransform="matrix(0.0084, 0.0, 0.0, 0.0084, 6.85, -2.25)" gradientUnits="userSpaceOnUse" id="gradient30" r="819.2" spreadMethod="pad">
      <stop offset="0.0" stop-color="#ffffff"/>
      <stop offset="0.7137254901960784" stop-color="#484848"/>
      <stop offset="1.0" stop-color="#bfbfbf"/>
    </radialGradient>
    <radialGradient cx="0" cy="0" gradientTransform="matrix(0.0123, 0.0, 0.0, 0.0123, 2.0, 7.75)" gradientUnits="userSpaceOnUse" id="gradient31" r="819.2" spreadMethod="pad">
      <stop offset="0.0" stop-color="#ffffff"/>
      <stop offset="0.7137254901960784" stop-color="#484848"/>
      <stop offset="1.0" stop-color="#bfbfbf"/>
    </radialGradient>
    <radialGradient cx="0" cy="0" gradientTransform="matrix(0.0128, 0.0, 0.0, 0.0128, 3.25, 14.95)" gradientUnits="userSpaceOnUse" id="gradient32" r="819.2" spreadMethod="pad">
      <stop offset="0.0" stop-color="#ffffff"/>
      <stop offset="0.7137254901960784" stop-color="#484848"/>
      <stop offset="1.0" stop-color="#bfbfbf"/>
    </radialGradient>
    <linearGradient gradientTransform="matrix(0.0054, -0.0056, 0.0018, 0.0017, 14.0, -15.15)" gradientUnits="userSpaceOnUse" id="gradient33" spreadMethod="pad" x1="-819.2" x2="819.2">
      <stop offset="0.0" stop-color="#915e91"/>
      <stop offset="1.0" stop-color="#f14141"/>
    </linearGradient>
    <linearGradient gradientTransform="matrix(0.0014, -0.0032, 0.0013, 6.0E-4, 9.0, -17.05)" gradientUnits="userSpaceOnUse" id="gradient34" spreadMethod="pad" x1="-819.2" x2="819.2">
      <stop offset="0.0" stop-color="#915e91"/>
      <stop offset="1.0" stop-color="#f14141"/>
    </linearGradient>
    <linearGradient gradientTransform="matrix(0.0032, -0.0018, 8.0E-4, 0.0015, 13.2, -9.7)" gradientUnits="userSpaceOnUse" id="gradient35" spreadMethod="pad" x1="-819.2" x2="819.2">
      <stop offset="0.0" stop-color="#915e91"/>
      <stop offset="1.0" stop-color="#f14141"/>
    </linearGradient>
  </defs>
</svg>
