<?xml version="1.0" encoding="UTF-8" standalone="no"?>
<svg xmlns:ffdec="https://www.free-decompiler.com/flash" xmlns:xlink="http://www.w3.org/1999/xlink" ffdec:objectType="shape" height="13.3px" width="16.75px" xmlns="http://www.w3.org/2000/svg">
  <g transform="matrix(1.0, 0.0, 0.0, 1.0, 8.3, 9.65)">
    <path d="M1.65 -8.35 L0.55 -7.8 4.8 -9.65 4.7 -8.75 4.0 -7.95 5.0 -7.4 3.75 -6.45 4.3 -6.6 6.8 -6.75 7.05 -6.05 6.85 -5.75 7.1 -5.25 Q8.3 -4.25 8.45 -2.9 L8.35 -2.65 7.95 -2.3 7.7 -2.65 5.9 -3.25 7.45 -1.35 6.7 -1.65 2.0 -1.7 1.95 -1.65 0.9 -1.05 0.2 2.35 0.15 -0.4 -0.35 1.45 Q-0.85 3.55 -2.7 3.65 L-1.85 1.35 -2.55 1.3 -4.55 2.0 -4.9 1.7 -5.0 1.5 -4.95 1.45 -4.55 0.25 -7.0 -0.35 -5.25 -1.3 -6.8 -2.55 -6.6 -2.7 -5.75 -2.95 -8.3 -4.05 -6.4 -4.05 -7.15 -4.7 -6.0 -4.9 -4.2 -6.1 Q-3.25 -7.75 -0.85 -9.2 L1.65 -8.35 M0.35 -7.1 L0.5 -7.5 0.35 -7.15 0.35 -7.1" fill="url(#gradient0)" fill-rule="evenodd" stroke="none"/>
  </g>
  <defs>
    <radialGradient cx="0" cy="0" gradientTransform="matrix(0.0103, 0.0, 0.0, 0.0103, -3.5, -6.6)" gradientUnits="userSpaceOnUse" id="gradient0" r="819.2" spreadMethod="pad">
      <stop offset="0.0" stop-color="#463a20"/>
      <stop offset="1.0" stop-color="#000000"/>
    </radialGradient>
  </defs>
</svg>
