<?xml version="1.0" encoding="UTF-8" standalone="no"?>
<svg xmlns:ffdec="https://www.free-decompiler.com/flash" xmlns:xlink="http://www.w3.org/1999/xlink" ffdec:objectType="shape" height="18.35px" width="5.4px" xmlns="http://www.w3.org/2000/svg">
  <g transform="matrix(1.0, 0.0, 0.0, 1.0, 2.7, 9.15)">
    <path d="M1.45 4.85 L1.55 4.9 1.55 4.95 1.45 4.85" fill="url(#gradient0)" fill-rule="evenodd" stroke="none"/>
    <path d="M1.55 4.95 L1.55 5.0 1.5 5.05 1.45 4.85 1.55 4.95" fill="url(#gradient1)" fill-rule="evenodd" stroke="none"/>
    <path d="M2.3 -6.9 Q2.8 -4.25 2.65 -2.1 L1.85 0.8 Q0.7 3.15 1.45 4.85 L1.5 5.05 Q-0.7 6.25 -2.25 4.05 L-2.25 4.0 Q-1.7 1.55 -2.4 -1.05 L-2.3 -4.55 Q-2.15 -6.1 -0.6 -9.15 L2.3 -6.9" fill="url(#gradient2)" fill-rule="evenodd" stroke="none"/>
    <path d="M1.5 5.05 L0.7 6.85 1.0 8.4 0.1 9.2 -2.7 6.1 -2.25 4.05 Q-0.7 6.25 1.5 5.05" fill="url(#gradient3)" fill-rule="evenodd" stroke="none"/>
    <path d="M2.3 -6.9 Q2.8 -4.25 2.65 -2.1 L1.85 0.8 Q0.7 3.15 1.45 4.85 L1.55 4.95 1.55 5.0 1.5 5.05 0.7 6.85 1.0 8.4 0.1 9.2 -2.7 6.1 -2.25 4.05 -2.25 4.0 Q-1.7 1.55 -2.4 -1.05 L-2.3 -4.55 Q-2.15 -6.1 -0.6 -9.15 M1.55 4.9 L1.55 4.95" fill="none" stroke="#000000" stroke-linecap="round" stroke-linejoin="round" stroke-width="0.05"/>
    <path d="M1.55 4.95 L1.55 5.0 1.5 5.05 1.45 4.85 1.55 4.95" fill="url(#gradient4)" fill-rule="evenodd" stroke="none"/>
    <path d="M1.45 4.85 L1.55 4.9 1.55 4.95 1.45 4.85" fill="url(#gradient5)" fill-rule="evenodd" stroke="none"/>
    <path d="M-2.25 -4.85 Q-2.0 -6.35 -0.6 -9.15 L2.3 -6.9 Q2.75 -4.5 2.7 -2.55 -0.1 -2.05 -2.25 -4.85" fill="url(#gradient6)" fill-rule="evenodd" stroke="none"/>
    <path d="M2.7 -2.55 L2.65 -2.1 1.85 0.8 1.75 0.95 -2.3 -0.5 -2.4 -1.05 -2.3 -4.55 -2.25 -4.85 Q-0.1 -2.05 2.7 -2.55" fill="url(#gradient7)" fill-rule="evenodd" stroke="none"/>
    <path d="M1.15 3.25 Q1.15 4.1 1.45 4.85 L1.5 5.05 Q-0.7 6.25 -2.25 4.05 L-2.25 4.0 -2.0 1.9 1.15 3.25" fill="url(#gradient8)" fill-rule="evenodd" stroke="none"/>
    <path d="M1.5 5.05 L0.7 6.85 1.0 8.4 0.1 9.2 -2.7 6.1 -2.25 4.05 Q-0.7 6.25 1.5 5.05" fill="url(#gradient9)" fill-rule="evenodd" stroke="none"/>
    <path d="M1.75 0.95 Q1.2 2.2 1.15 3.25 L-2.0 1.9 Q-2.0 0.7 -2.3 -0.5 L1.75 0.95" fill="url(#gradient10)" fill-rule="evenodd" stroke="none"/>
    <path d="M2.7 -2.55 L2.65 -2.1 1.85 0.8 1.75 0.95 Q1.2 2.2 1.15 3.25 1.15 4.1 1.45 4.85 L1.55 4.95 1.55 5.0 1.5 5.05 0.7 6.85 1.0 8.4 0.1 9.2 -2.7 6.1 -2.25 4.05 -2.25 4.0 -2.0 1.9 Q-2.0 0.7 -2.3 -0.5 L-2.4 -1.05 -2.3 -4.55 -2.25 -4.85 Q-2.0 -6.35 -0.6 -9.15 M1.55 4.9 L1.55 4.95 M2.3 -6.9 Q2.75 -4.5 2.7 -2.55" fill="none" stroke="#000000" stroke-linecap="round" stroke-linejoin="round" stroke-width="0.05"/>
    <path d="M2.7 -2.55 Q-0.1 -2.05 -2.25 -4.85" fill="none" stroke="#000000" stroke-linecap="round" stroke-linejoin="round" stroke-width="0.05"/>
  </g>
  <defs>
    <radialGradient cx="0" cy="0" gradientTransform="matrix(0.0029, 7.0E-4, -4.0E-4, 0.0041, -0.35, 6.05)" gradientUnits="userSpaceOnUse" id="gradient0" r="819.2" spreadMethod="pad">
      <stop offset="0.0" stop-color="#6a7249"/>
      <stop offset="1.0" stop-color="#393a2c"/>
    </radialGradient>
    <radialGradient cx="0" cy="0" gradientTransform="matrix(0.0102, 0.0026, -0.0014, 0.0144, 0.6, -7.0)" gradientUnits="userSpaceOnUse" id="gradient1" r="819.2" spreadMethod="pad">
      <stop offset="0.0" stop-color="#6a7249"/>
      <stop offset="1.0" stop-color="#393a2c"/>
    </radialGradient>
    <radialGradient cx="0" cy="0" gradientTransform="matrix(0.0079, 0.0, 0.0, 0.0104, 0.0, -2.6)" gradientUnits="userSpaceOnUse" id="gradient2" r="819.2" spreadMethod="pad">
      <stop offset="0.0" stop-color="#f7c85e"/>
      <stop offset="0.6352941176470588" stop-color="#f79d44"/>
      <stop offset="1.0" stop-color="#f1ad6b"/>
    </radialGradient>
    <radialGradient cx="0" cy="0" gradientTransform="matrix(0.0047, 0.0, 0.0, 0.0062, 0.1, 8.1)" gradientUnits="userSpaceOnUse" id="gradient3" r="819.2" spreadMethod="pad">
      <stop offset="0.0" stop-color="#f7c85e"/>
      <stop offset="0.6352941176470588" stop-color="#f79d44"/>
      <stop offset="1.0" stop-color="#f1ad6b"/>
    </radialGradient>
    <radialGradient cx="0" cy="0" gradientTransform="matrix(0.0102, 0.0026, -0.0014, 0.0144, 0.6, -7.0)" gradientUnits="userSpaceOnUse" id="gradient4" r="819.2" spreadMethod="pad">
      <stop offset="0.0" stop-color="#6a7249"/>
      <stop offset="1.0" stop-color="#393a2c"/>
    </radialGradient>
    <radialGradient cx="0" cy="0" gradientTransform="matrix(0.0029, 7.0E-4, -4.0E-4, 0.0041, -0.35, 6.05)" gradientUnits="userSpaceOnUse" id="gradient5" r="819.2" spreadMethod="pad">
      <stop offset="0.0" stop-color="#6a7249"/>
      <stop offset="1.0" stop-color="#393a2c"/>
    </radialGradient>
    <linearGradient gradientTransform="matrix(0.003, 0.0, 0.0, 0.0041, 0.2, -5.8)" gradientUnits="userSpaceOnUse" id="gradient6" spreadMethod="pad" x1="-819.2" x2="819.2">
      <stop offset="0.0" stop-color="#333333"/>
      <stop offset="1.0" stop-color="#000000"/>
    </linearGradient>
    <linearGradient gradientTransform="matrix(0.0031, 0.0, 0.0, 0.0035, 0.15, -1.95)" gradientUnits="userSpaceOnUse" id="gradient7" spreadMethod="pad" x1="-819.2" x2="819.2">
      <stop offset="0.0" stop-color="#e886de"/>
      <stop offset="1.0" stop-color="#bb66ab"/>
    </linearGradient>
    <linearGradient gradientTransform="matrix(0.0023, 0.0, 0.0, 0.0022, -0.4, 3.65)" gradientUnits="userSpaceOnUse" id="gradient8" spreadMethod="pad" x1="-819.2" x2="819.2">
      <stop offset="0.0" stop-color="#e886de"/>
      <stop offset="1.0" stop-color="#bb66ab"/>
    </linearGradient>
    <linearGradient gradientTransform="matrix(0.0026, 0.0, 0.0, 0.0031, -0.6, 6.6)" gradientUnits="userSpaceOnUse" id="gradient9" spreadMethod="pad" x1="-819.2" x2="819.2">
      <stop offset="0.0" stop-color="#e886de"/>
      <stop offset="1.0" stop-color="#bb66ab"/>
    </linearGradient>
    <linearGradient gradientTransform="matrix(0.0025, 0.0, 0.0, 0.0023, -0.3, 1.35)" gradientUnits="userSpaceOnUse" id="gradient10" spreadMethod="pad" x1="-819.2" x2="819.2">
      <stop offset="0.0" stop-color="#ffffff"/>
      <stop offset="1.0" stop-color="#fb8ce6"/>
    </linearGradient>
  </defs>
</svg>
