<?xml version="1.0" encoding="UTF-8" standalone="no"?>
<svg xmlns:ffdec="https://www.free-decompiler.com/flash" xmlns:xlink="http://www.w3.org/1999/xlink" ffdec:objectType="shape" height="11.05px" width="9.0px" xmlns="http://www.w3.org/2000/svg">
  <g transform="matrix(1.0, 0.0, 0.0, 1.0, 2.55, 6.7)">
    <path d="M5.45 -2.15 L5.3 -1.7 6.45 0.1 5.75 0.95 5.6 0.9 5.25 4.35 -0.4 4.15 -1.0 0.2 -1.25 0.0 -1.4 -0.1 Q-2.6 -1.25 -2.55 -2.85 -2.6 -4.45 -1.4 -5.6 -0.2 -6.7 1.45 -6.7 3.1 -6.7 4.3 -5.6 5.5 -4.45 5.5 -2.85 L5.45 -2.15" fill="url(#gradient0)" fill-rule="evenodd" stroke="none"/>
    <path d="M5.45 -2.15 L5.5 -2.85 Q5.5 -4.45 4.3 -5.6 3.1 -6.7 1.45 -6.7 -0.2 -6.7 -1.4 -5.6 -2.6 -4.45 -2.55 -2.85 -2.6 -1.25 -1.4 -0.1 L-1.25 0.0 -1.0 0.2 -0.4 4.15 5.25 4.35 5.6 0.9 5.75 0.95 6.45 0.1 5.3 -1.7 5.45 -2.15 5.4 -1.95 5.3 -1.7" fill="none" stroke="#000000" stroke-linecap="round" stroke-linejoin="round" stroke-width="0.05"/>
    <path d="M3.3 -0.9 L2.8 -1.55 Q2.8 -2.1 3.3 -2.1 4.05 -2.1 3.9 -1.6 3.9 -0.9 3.3 -0.9" fill="#ffcc00" fill-rule="evenodd" stroke="none"/>
  </g>
  <defs>
    <radialGradient cx="0" cy="0" gradientTransform="matrix(0.0105, 0.0, 0.0, 0.0094, 5.0, -2.95)" gradientUnits="userSpaceOnUse" id="gradient0" r="819.2" spreadMethod="pad">
      <stop offset="0.0" stop-color="#808fb3"/>
      <stop offset="0.6" stop-color="#465575"/>
      <stop offset="1.0" stop-color="#1d2538"/>
    </radialGradient>
  </defs>
</svg>
