<?xml version="1.0" encoding="UTF-8" standalone="no"?>
<svg xmlns:ffdec="https://www.free-decompiler.com/flash" xmlns:xlink="http://www.w3.org/1999/xlink" ffdec:objectType="shape" height="19.65px" width="7.1px" xmlns="http://www.w3.org/2000/svg">
  <g transform="matrix(1.0, 0.0, 0.0, 1.0, 3.55, 9.8)">
    <path d="M3.55 -4.95 L3.55 -3.1 3.4 0.3 2.95 3.4 2.6 5.2 2.3 6.5 2.2 6.95 Q1.05 4.8 0.3 2.45 0.25 0.1 -3.5 -2.25 -3.65 -3.6 -3.4 -5.2 L-3.35 -5.7 Q-3.2 -7.1 -2.6 -7.9 L-2.2 -8.65 -1.8 -9.05 -1.35 -9.3 -0.5 -9.65 Q1.35 -10.15 3.3 -8.95 L3.45 -6.75 3.55 -4.95" fill="url(#gradient0)" fill-rule="evenodd" stroke="none"/>
    <path d="M2.2 6.95 Q1.6 8.65 0.45 9.85 L0.4 9.85 -0.5 9.5 Q-1.55 9.05 -1.9 8.15 -2.5 6.85 -2.6 5.5 L-2.95 2.25 Q-3.1 0.25 -3.4 -1.6 L-3.5 -2.25 Q0.25 0.1 0.3 2.45 1.05 4.8 2.2 6.95" fill="url(#gradient1)" fill-rule="evenodd" stroke="none"/>
    <path d="M3.55 -4.95 L3.55 -3.1 3.4 0.3 2.95 3.4 2.6 5.2 2.3 6.5 2.2 6.95 Q1.6 8.65 0.45 9.85 L0.4 9.85 -0.5 9.5 Q-1.55 9.05 -1.9 8.15 -2.5 6.85 -2.6 5.5 L-2.95 2.25 Q-3.1 0.25 -3.4 -1.6 L-3.5 -2.25 Q-3.65 -3.6 -3.4 -5.2" fill="none" stroke="#000000" stroke-linecap="round" stroke-linejoin="round" stroke-width="0.05"/>
  </g>
  <defs>
    <radialGradient cx="0" cy="0" gradientTransform="matrix(0.0062, -8.0E-4, 0.0016, 0.0128, 0.3, -7.9)" gradientUnits="userSpaceOnUse" id="gradient0" r="819.2" spreadMethod="pad">
      <stop offset="0.0" stop-color="#9a5c5c"/>
      <stop offset="0.6196078431372549" stop-color="#613838"/>
      <stop offset="1.0" stop-color="#402626"/>
    </radialGradient>
    <radialGradient cx="0" cy="0" gradientTransform="matrix(0.0058, -0.0013, 0.0042, 0.0186, -4.85, 0.0)" gradientUnits="userSpaceOnUse" id="gradient1" r="819.2" spreadMethod="pad">
      <stop offset="0.0" stop-color="#603939"/>
      <stop offset="0.6196078431372549" stop-color="#251616"/>
      <stop offset="1.0" stop-color="#3a2323"/>
    </radialGradient>
  </defs>
</svg>
