<?xml version="1.0" encoding="UTF-8" standalone="no"?>
<svg xmlns:ffdec="https://www.free-decompiler.com/flash" xmlns:xlink="http://www.w3.org/1999/xlink" ffdec:objectType="shape" height="30.4px" width="12.35px" xmlns="http://www.w3.org/2000/svg">
  <g transform="matrix(1.0, 0.0, 0.0, 1.0, 6.2, 15.2)">
    <path d="M3.3 -1.45 L3.0 -0.15 3.1 8.75 -0.75 8.3 -1.2 4.15 -1.65 -1.9 3.3 -1.45 M3.2 10.95 L3.3 12.85 0.15 14.95 -0.45 10.6 3.2 10.95 M6.15 -8.85 L4.65 -5.5 4.05 -4.65 4.05 -4.6 -1.8 -5.2 -1.95 -8.3 Q1.2 -7.7 6.15 -8.85" fill="url(#gradient0)" fill-rule="evenodd" stroke="none"/>
    <path d="M0.15 14.95 L-0.1 15.2 -4.9 12.5 -4.65 10.2 -0.45 10.6 0.15 14.95 M-4.45 7.9 L-3.7 0.5 -4.2 -2.45 -1.65 -1.9 -1.2 4.15 -0.75 8.3 -4.45 7.9 M-5.0 -5.95 L-6.2 -9.65 Q-3.0 -8.5 -1.95 -8.3 L-1.8 -5.2 -5.0 -5.95" fill="url(#gradient1)" fill-rule="evenodd" stroke="none"/>
    <path d="M-4.65 10.2 L-4.45 7.9 -0.75 8.3 -0.45 10.6 -4.65 10.2" fill="url(#gradient2)" fill-rule="evenodd" stroke="none"/>
    <path d="M3.1 8.75 L3.2 10.95 -0.45 10.6 -0.75 8.3 3.1 8.75" fill="url(#gradient3)" fill-rule="evenodd" stroke="none"/>
    <path d="M-2.0 -14.55 Q0.3 -13.95 2.3 -15.2 L3.85 -11.35 6.15 -8.85 Q1.2 -7.7 -1.95 -8.3 L-2.0 -14.55" fill="url(#gradient4)" fill-rule="evenodd" stroke="none"/>
    <path d="M-6.2 -9.65 L-3.1 -14.5 -3.1 -14.55 -2.75 -14.8 -2.0 -14.55 -1.95 -8.3 Q-3.0 -8.5 -6.2 -9.65" fill="url(#gradient5)" fill-rule="evenodd" stroke="none"/>
    <path d="M-4.2 -2.45 L-4.6 -4.9 -5.0 -5.95 -1.8 -5.2 4.05 -4.6 3.3 -1.45 -1.65 -1.9 -4.2 -2.45" fill="#9933ff" fill-rule="evenodd" stroke="none"/>
    <path d="M3.3 -1.45 L3.0 -0.15 3.1 8.75 3.2 10.95 3.3 12.85 M-4.9 12.5 L-4.65 10.2 -4.45 7.9 -3.7 0.5 -4.2 -2.45 -4.6 -4.9 -5.0 -5.95 -6.2 -9.65 -3.1 -14.5 -3.1 -14.55 -2.75 -14.8 M2.3 -15.2 L3.85 -11.35 6.15 -8.85 4.65 -5.5 4.05 -4.65 4.05 -4.6 3.3 -1.45 M-1.95 -8.3 Q-3.0 -8.5 -6.2 -9.65 M6.15 -8.85 Q1.2 -7.7 -1.95 -8.3" fill="none" stroke="#000000" stroke-linecap="round" stroke-linejoin="round" stroke-width="0.05"/>
    <path d="M-0.75 8.3 L3.1 8.75 M-0.75 8.3 L-4.45 7.9 M-4.65 10.2 L-0.45 10.6 3.2 10.95" fill="none" stroke="#000000" stroke-linecap="round" stroke-linejoin="round" stroke-width="0.05"/>
    <path d="M1.1 -7.2 L2.7 -6.75 2.85 -6.75 3.65 -7.55 3.8 -7.45 3.9 -8.3 4.2 -8.4 4.45 -7.75 4.65 -7.5 4.55 -6.8 4.55 -6.1 4.7 -5.7 Q3.15 -2.0 3.15 0.2 3.25 0.35 2.85 0.35 L2.85 0.9 2.85 1.4 2.9 2.9 2.75 5.55 2.6 5.55 2.35 1.85 2.25 0.75 Q1.45 -1.25 0.6 -4.3 L-0.3 -8.15 -0.3 -8.2 -0.3 -8.25 -0.05 -8.85 0.05 -8.65 1.1 -7.15 1.1 -7.2 M3.75 -7.05 L3.75 -7.1 3.55 -6.85 3.75 -6.95 3.75 -7.05 M2.85 0.3 L2.85 0.35 2.85 0.3" fill="#000000" fill-opacity="0.3019608" fill-rule="evenodd" stroke="none"/>
  </g>
  <defs>
    <radialGradient cx="0" cy="0" gradientTransform="matrix(0.006, 0.0, 0.0, 0.0248, 1.6, -8.65)" gradientUnits="userSpaceOnUse" id="gradient0" r="819.2" spreadMethod="pad">
      <stop offset="0.0" stop-color="#444444"/>
      <stop offset="1.0" stop-color="#000000"/>
    </radialGradient>
    <radialGradient cx="0" cy="0" gradientTransform="matrix(0.008, 0.0, 0.0, 0.0211, -5.75, -1.05)" gradientUnits="userSpaceOnUse" id="gradient1" r="819.2" spreadMethod="pad">
      <stop offset="0.0" stop-color="#444444"/>
      <stop offset="1.0" stop-color="#000000"/>
    </radialGradient>
    <radialGradient cx="0" cy="0" gradientTransform="matrix(0.008, 0.0, 0.0, 0.0211, -5.75, -1.05)" gradientUnits="userSpaceOnUse" id="gradient2" r="819.2" spreadMethod="pad">
      <stop offset="0.0" stop-color="#bfbfbf"/>
      <stop offset="1.0" stop-color="#777777"/>
    </radialGradient>
    <radialGradient cx="0" cy="0" gradientTransform="matrix(0.006, 0.0, 0.0, 0.0248, 1.6, -8.65)" gradientUnits="userSpaceOnUse" id="gradient3" r="819.2" spreadMethod="pad">
      <stop offset="0.0" stop-color="#bfbfbf"/>
      <stop offset="1.0" stop-color="#777777"/>
    </radialGradient>
    <radialGradient cx="0" cy="0" gradientTransform="matrix(0.006, 0.0, 0.0, 0.0248, 1.6, -8.65)" gradientUnits="userSpaceOnUse" id="gradient4" r="819.2" spreadMethod="pad">
      <stop offset="0.0" stop-color="#333333"/>
      <stop offset="0.5333333333333333" stop-color="#0d0d0d"/>
      <stop offset="0.9176470588235294" stop-color="#555555"/>
    </radialGradient>
    <radialGradient cx="0" cy="0" gradientTransform="matrix(0.008, 0.0, 0.0, 0.0211, -5.75, -1.05)" gradientUnits="userSpaceOnUse" id="gradient5" r="819.2" spreadMethod="pad">
      <stop offset="0.0" stop-color="#333333"/>
      <stop offset="0.5333333333333333" stop-color="#0d0d0d"/>
      <stop offset="0.9176470588235294" stop-color="#555555"/>
    </radialGradient>
  </defs>
</svg>
