<?xml version="1.0" encoding="UTF-8" standalone="no"?>
<svg xmlns:ffdec="https://www.free-decompiler.com/flash" xmlns:xlink="http://www.w3.org/1999/xlink" ffdec:objectType="shape" height="33.3px" width="35.75px" xmlns="http://www.w3.org/2000/svg">
  <g transform="matrix(1.0, 0.0, 0.0, 1.0, 11.45, 17.75)">
    <path d="M9.9 -8.05 Q9.5 -12.7 12.2 -14.9 11.55 -10.45 13.6 -3.2 L10.1 -7.8 9.9 -8.05" fill="url(#gradient0)" fill-rule="evenodd" stroke="none"/>
    <path d="M9.9 -8.05 Q9.5 -12.7 12.2 -14.9 11.55 -10.45 13.6 -3.2 L10.1 -7.8" fill="none" stroke="#000000" stroke-linecap="round" stroke-linejoin="round" stroke-width="0.05"/>
    <path d="M13.4 4.35 L13.05 4.25 13.1 4.15 13.4 4.35" fill="#a7c79e" fill-rule="evenodd" stroke="none"/>
    <path d="M21.65 0.25 L24.3 2.0 21.15 7.45 13.4 4.35 15.1 3.7 20.7 6.25 22.75 3.6 21.2 1.85 21.65 0.3 21.65 0.25" fill="#1a1a1a" fill-rule="evenodd" stroke="none"/>
    <path d="M3.95 6.6 L4.1 6.45 4.2 6.5 3.95 6.6" fill="#cadcc5" fill-rule="evenodd" stroke="none"/>
    <path d="M13.0 -2.65 Q11.4 -3.75 7.85 -3.6 L9.6 -4.6 13.75 -4.95 13.8 -4.85 15.8 -3.5 13.95 -2.8 13.9 -2.7 13.0 -2.65" fill="#000000" fill-rule="evenodd" stroke="none"/>
    <path d="M13.9 -2.7 L13.95 -2.8 14.1 -2.75 13.9 -2.7" fill="url(#gradient1)" fill-rule="evenodd" stroke="none"/>
    <path d="M21.55 0.25 L21.65 0.25 21.65 0.3 21.55 0.25" fill="url(#gradient2)" fill-rule="evenodd" stroke="none"/>
    <path d="M4.1 6.45 L6.15 3.2 6.45 0.8 10.45 -2.45 13.0 -2.65 13.9 -2.7 14.1 -2.75 13.95 -2.8 15.8 -3.5 21.4 0.1 21.55 0.25 21.65 0.3 21.2 1.85 22.75 3.6 20.7 6.25 15.1 3.7 13.4 4.35 13.1 4.15 13.05 4.25 12.9 4.4 9.75 8.0 8.55 9.15 Q6.8 11.55 9.2 15.55 5.4 13.55 4.2 6.55 L4.2 6.5 4.1 6.45" fill="url(#gradient3)" fill-rule="evenodd" stroke="none"/>
    <path d="M13.75 -4.95 L9.6 -4.6 7.85 -3.6 Q11.4 -3.75 13.0 -2.65 L10.45 -2.45 6.45 0.8 6.15 3.2 4.1 6.45 3.95 6.6 3.75 6.7 Q-1.75 9.25 -3.9 12.55 -4.0 6.5 -0.1 3.5 -5.4 2.75 -11.45 4.6 -9.2 1.4 -9.2 -0.05 -1.1 -3.85 -9.65 -6.15 -6.35 -9.3 -1.8 -8.1 L7.25 -8.55 Q9.75 -8.55 12.0 -7.35 L13.75 -4.95" fill="url(#gradient4)" fill-rule="evenodd" stroke="none"/>
    <path d="M13.75 -4.95 L12.0 -7.35 Q9.75 -8.55 7.25 -8.55 L-1.8 -8.1 Q-6.35 -9.3 -9.65 -6.15 -1.1 -3.85 -9.2 -0.05 -9.2 1.4 -11.45 4.6 -5.4 2.75 -0.1 3.5 -4.0 6.5 -3.9 12.55 -1.75 9.25 3.75 6.7 L3.95 6.6 M15.8 -3.5 L13.8 -4.85 13.75 -4.95 M21.65 0.25 L24.3 2.0 21.15 7.45 13.4 4.35 13.05 4.25 12.9 4.4 9.75 8.0 8.55 9.15 Q6.8 11.55 9.2 15.55 5.4 13.55 4.2 6.55 L4.2 6.5 M21.55 0.25 L21.65 0.25 M15.8 -3.5 L21.4 0.1" fill="none" stroke="#000000" stroke-linecap="round" stroke-linejoin="round" stroke-width="0.05"/>
    <path d="M7.8 -8.1 L1.7 -8.15 Q2.35 -12.95 6.75 -17.75 6.25 -12.8 7.8 -8.1" fill="url(#gradient5)" fill-rule="evenodd" stroke="none"/>
    <path d="M1.7 -8.15 Q2.35 -12.95 6.75 -17.75 6.25 -12.8 7.8 -8.1" fill="none" stroke="#000000" stroke-linecap="round" stroke-linejoin="round" stroke-width="0.05"/>
    <path d="M2.65 -3.8 L2.7 -3.65 2.7 -3.45 2.7 -3.15 2.65 -2.95 2.6 -2.85 Q2.75 -2.5 2.15 -2.05 1.6 -1.7 1.4 -1.1 L1.25 -0.75 1.75 -0.75 2.4 -0.7 2.95 -0.4 2.95 -0.15 2.85 0.2 2.6 1.0 2.45 1.75 2.45 2.0 2.7 2.3 3.45 2.45 5.2 2.75 5.3 3.15 5.45 3.7 Q5.6 4.25 6.1 4.7 L6.75 5.25 6.95 5.3 8.05 5.35 8.25 5.35 8.5 5.4 8.65 5.45 8.8 5.4 9.15 5.4 9.25 5.45 9.3 5.5 9.4 5.55 9.5 5.65 9.7 5.75 9.7 5.8 9.75 5.9 9.75 6.0 9.75 6.1 9.75 6.2 9.75 6.25 9.7 6.3 9.65 6.45 9.3 6.6 9.05 6.9 8.75 7.2 8.2 7.7 8.15 7.75 8.1 7.8 7.5 8.5 Q7.35 8.05 7.65 7.65 L7.95 7.35 8.05 7.1 8.1 6.6 5.0 6.45 4.9 6.4 3.85 6.0 2.55 5.65 0.1 5.8 Q0.4 4.95 1.2 4.1 2.0 3.2 0.6 2.25 L-1.75 0.5 -2.0 -0.1 -0.95 -1.15 0.6 -2.3 1.1 -2.6 1.6 -3.55 1.8 -4.0 1.7 -4.1 1.65 -4.25 1.65 -4.3 1.6 -4.4 1.4 -4.45 1.2 -4.55 1.15 -4.65 1.15 -4.75 1.2 -4.75 1.25 -4.8 1.3 -4.8 1.4 -4.85 Q1.75 -4.8 1.95 -4.55 2.55 -4.4 2.65 -3.85 L2.65 -3.8 M6.25 6.15 L6.1 6.2 6.35 6.15 6.25 6.15 M5.85 5.5 L5.75 5.35 5.65 5.45 5.85 5.5" fill="#000000" fill-opacity="0.15294118" fill-rule="evenodd" stroke="none"/>
    <path d="M10.95 -5.25 L13.8 -5.45 16.2 -4.15 12.7 -3.85 10.95 -5.25" fill="#66ffff" fill-rule="evenodd" stroke="none"/>
    <path d="M0.05 -9.0 L3.4 -6.8 6.95 -6.15 8.1 -9.0 13.15 -7.95 13.85 -6.05 16.35 -4.15 19.45 -1.85 17.7 -0.25 Q14.2 0.35 10.85 -1.95 8.75 -0.5 5.95 0.15 -0.25 -3.35 -6.1 -8.75 L-1.85 -9.8 0.05 -9.0 M10.95 -5.25 L12.7 -3.85 16.2 -4.15 13.8 -5.45 10.95 -5.25 M16.2 -4.15 L16.35 -4.15 16.2 -4.15" fill="url(#gradient6)" fill-rule="evenodd" stroke="none"/>
    <path d="M19.45 -1.85 L20.95 -0.75 19.15 3.15 Q14.1 1.0 10.35 0.8 9.35 4.3 11.4 8.1 L8.9 11.35 Q5.55 -0.95 -8.35 -8.25 L-6.1 -8.75 Q-0.25 -3.35 5.95 0.15 8.75 -0.5 10.85 -1.95 14.2 0.35 17.7 -0.25 L19.45 -1.85" fill="url(#gradient7)" fill-rule="evenodd" stroke="none"/>
    <path d="M0.05 -9.0 L3.4 -6.8 6.95 -6.15 8.1 -9.0 13.15 -7.95 13.85 -6.05 16.35 -4.15 19.45 -1.85 20.95 -0.75 19.15 3.15 Q14.1 1.0 10.35 0.8 9.35 4.3 11.4 8.1 L8.9 11.35 Q5.55 -0.95 -8.35 -8.25 L-6.1 -8.75 -1.85 -9.8 M16.35 -4.15 L16.2 -4.15" fill="none" stroke="#000000" stroke-linecap="round" stroke-linejoin="round" stroke-width="0.05"/>
  </g>
  <defs>
    <radialGradient cx="0" cy="0" gradientTransform="matrix(0.0114, 0.0, 0.0, 0.0114, 11.05, -11.7)" gradientUnits="userSpaceOnUse" id="gradient0" r="819.2" spreadMethod="pad">
      <stop offset="0.0" stop-color="#404040"/>
      <stop offset="1.0" stop-color="#13110f"/>
    </radialGradient>
    <radialGradient cx="0" cy="0" gradientTransform="matrix(0.0268, 0.0, 0.0, 0.0268, 3.1, 13.4)" gradientUnits="userSpaceOnUse" id="gradient1" r="819.2" spreadMethod="pad">
      <stop offset="0.0" stop-color="#a7c79e"/>
      <stop offset="1.0" stop-color="#718d69"/>
    </radialGradient>
    <radialGradient color-interpolation="linearRGB" cx="0" cy="0" gradientTransform="matrix(0.013, 0.0, 0.0, 0.013, 14.4, 7.25)" gradientUnits="userSpaceOnUse" id="gradient2" r="819.2" spreadMethod="pad">
      <stop offset="0.22745098039215686" stop-color="#ffffff"/>
      <stop offset="1.0" stop-color="#f9d8a8"/>
    </radialGradient>
    <radialGradient color-interpolation="linearRGB" cx="0" cy="0" gradientTransform="matrix(0.013, 0.0, 0.0, 0.013, 14.4, 7.25)" gradientUnits="userSpaceOnUse" id="gradient3" r="819.2" spreadMethod="pad">
      <stop offset="0.0" stop-color="#ffffff"/>
      <stop offset="0.3568627450980392" stop-color="#d0d0d0"/>
      <stop offset="1.0" stop-color="#a2a8aa"/>
    </radialGradient>
    <radialGradient cx="0" cy="0" gradientTransform="matrix(0.0268, 0.0, 0.0, 0.0268, 3.1, 13.4)" gradientUnits="userSpaceOnUse" id="gradient4" r="819.2" spreadMethod="pad">
      <stop offset="0.0" stop-color="#404040"/>
      <stop offset="1.0" stop-color="#13110f"/>
    </radialGradient>
    <radialGradient cx="0" cy="0" gradientTransform="matrix(0.0114, 0.0, 0.0, 0.0114, 5.75, -16.5)" gradientUnits="userSpaceOnUse" id="gradient5" r="819.2" spreadMethod="pad">
      <stop offset="0.0" stop-color="#404040"/>
      <stop offset="1.0" stop-color="#13110f"/>
    </radialGradient>
    <radialGradient cx="0" cy="0" gradientTransform="matrix(0.0291, 0.0, 0.0, 0.0291, 14.7, -3.85)" gradientUnits="userSpaceOnUse" id="gradient6" r="819.2" spreadMethod="pad">
      <stop offset="0.0" stop-color="#18203d"/>
      <stop offset="1.0" stop-color="#05040d"/>
    </radialGradient>
    <radialGradient cx="0" cy="0" gradientTransform="matrix(0.0291, 0.0, 0.0, 0.0291, 14.7, -3.85)" gradientUnits="userSpaceOnUse" id="gradient7" r="819.2" spreadMethod="pad">
      <stop offset="0.0" stop-color="#3a425f"/>
      <stop offset="1.0" stop-color="#0f1013"/>
    </radialGradient>
  </defs>
</svg>
