<?xml version="1.0" encoding="UTF-8" standalone="no"?>
<svg xmlns:ffdec="https://www.free-decompiler.com/flash" xmlns:xlink="http://www.w3.org/1999/xlink" ffdec:objectType="shape" height="15.6px" width="15.55px" xmlns="http://www.w3.org/2000/svg">
  <g transform="matrix(1.0, 0.0, 0.0, 1.0, 7.75, 7.8)">
    <path d="M-7.0 -6.5 L-7.75 -7.8 -6.5 -7.05 -6.25 -6.95 -7.0 -6.5" fill="url(#gradient0)" fill-rule="evenodd" stroke="none"/>
    <path d="M2.25 -6.8 L4.1 -7.7 Q1.65 -3.65 2.0 2.45 L7.8 3.9 7.4 7.8 Q2.4 6.4 -2.6 7.15 -1.7 3.25 -3.85 -0.95 L-7.0 -6.5 -6.25 -6.95 Q-1.6 -5.55 2.25 -6.8" fill="url(#gradient1)" fill-rule="evenodd" stroke="none"/>
    <path d="M2.25 -6.8 L4.1 -7.7 Q1.65 -3.65 2.0 2.45 L7.8 3.9 7.4 7.8 Q2.4 6.4 -2.6 7.15 -1.7 3.25 -3.85 -0.95 L-7.0 -6.5 -7.75 -7.8 -6.5 -7.05" fill="none" stroke="#000000" stroke-linecap="round" stroke-linejoin="round" stroke-width="0.05"/>
    <path d="M2.7 1.05 L-3.6 3.2 -6.0 -3.45 3.05 -4.75 2.7 1.05" fill="url(#gradient2)" fill-rule="evenodd" stroke="none"/>
    <path d="M2.7 1.05 L-3.6 3.2 -6.0 -3.45 3.05 -4.75 2.7 1.05 Z" fill="none" stroke="#000000" stroke-linecap="round" stroke-linejoin="round" stroke-width="0.05"/>
  </g>
  <defs>
    <radialGradient cx="0" cy="0" gradientTransform="matrix(0.0194, 0.0, 0.0, 0.0194, -0.75, -5.85)" gradientUnits="userSpaceOnUse" id="gradient0" r="819.2" spreadMethod="pad">
      <stop offset="0.0" stop-color="#f9d8a8"/>
      <stop offset="1.0" stop-color="#b9a693"/>
    </radialGradient>
    <radialGradient color-interpolation="linearRGB" cx="0" cy="0" gradientTransform="matrix(0.0178, 0.0, 0.0, 0.0178, 0.25, 6.1)" gradientUnits="userSpaceOnUse" id="gradient1" r="819.2" spreadMethod="pad">
      <stop offset="0.0" stop-color="#ffffff"/>
      <stop offset="0.3568627450980392" stop-color="#d0d0d0"/>
      <stop offset="1.0" stop-color="#a2a8aa"/>
    </radialGradient>
    <radialGradient cx="0" cy="0" gradientTransform="matrix(0.0073, 0.0, 0.0, 0.0073, -1.9, -2.5)" gradientUnits="userSpaceOnUse" id="gradient2" r="819.2" spreadMethod="pad">
      <stop offset="0.0" stop-color="#18203d"/>
      <stop offset="1.0" stop-color="#05040d"/>
    </radialGradient>
  </defs>
</svg>
