<?xml version="1.0" encoding="UTF-8" standalone="no"?>
<svg xmlns:ffdec="https://www.free-decompiler.com/flash" xmlns:xlink="http://www.w3.org/1999/xlink" ffdec:objectType="shape" height="31.1px" width="21.15px" xmlns="http://www.w3.org/2000/svg">
  <g transform="matrix(1.0, 0.0, 0.0, 1.0, 10.6, 15.55)">
    <path d="M-8.1 -1.3 L-7.35 0.2 -7.75 0.4 -8.1 -1.3" fill="#ffffff" fill-rule="evenodd" stroke="none"/>
    <path d="M-7.35 0.2 L-5.35 3.95 Q-3.85 8.05 -4.35 11.2 -3.05 11.85 -0.45 10.6 L2.5 7.75 Q0.15 11.45 -1.75 15.45 -5.6 16.05 -7.6 13.45 L-7.25 12.15 -7.15 11.35 Q-6.75 4.25 -10.6 -1.65 L-7.75 0.4 -7.35 0.2" fill="url(#gradient0)" fill-rule="evenodd" stroke="none"/>
    <path d="M10.15 -11.4 Q11.45 -5.35 8.65 -0.8 5.3 3.3 2.5 7.75 L-0.45 10.6 Q-3.05 11.85 -4.35 11.2 -3.85 8.05 -5.35 3.95 L-7.35 0.2 -8.1 -1.3 -8.2 -1.65 Q-7.8 -4.9 -6.85 -8.4 L-5.4 -12.8 -4.75 -13.75 Q3.5 -18.25 9.95 -11.6 L10.15 -11.4" fill="url(#gradient1)" fill-rule="evenodd" stroke="none"/>
    <path d="M2.5 7.75 Q5.3 3.3 8.65 -0.8 11.45 -5.35 10.15 -11.4 M-6.85 -8.4 Q-7.8 -4.9 -8.2 -1.65 L-8.1 -1.3 -7.75 0.4 -10.6 -1.65 Q-6.75 4.25 -7.15 11.35 L-7.25 12.15 -7.6 13.45 M2.5 7.75 Q0.15 11.45 -1.75 15.45" fill="none" stroke="#000000" stroke-linecap="round" stroke-linejoin="round" stroke-width="0.05"/>
    <path d="M9.2 -9.4 Q9.9 -10.15 10.05 -11.0 L10.05 -10.9 10.15 -10.9 10.2 -10.9 10.3 -10.9 10.4 -9.5 10.55 -8.0 10.4 -7.4 10.4 -6.7 10.45 -6.45 10.4 -6.2 10.35 -5.7 10.4 -5.65 10.45 -5.6 10.4 -5.0 10.1 -3.85 9.95 -3.0 8.0 0.05 7.7 0.55 6.25 2.2 Q5.65 2.9 5.45 3.65 L5.1 3.8 5.15 3.85 3.6 3.8 Q3.05 3.8 2.7 4.25 L1.5 5.85 0.9 6.75 Q0.4 7.5 0.5 8.4 L0.3 8.65 Q-0.1 7.75 0.0 6.5 L0.2 5.3 0.5 4.4 1.2 3.0 1.75 2.0 Q0.45 1.9 -0.7 2.65 L-1.15 3.2 -1.35 3.65 -1.4 3.7 -1.5 3.0 -1.3 1.95 -0.6 0.7 Q0.4 -1.3 2.75 -2.05 4.4 -2.6 5.0 -4.05 L4.9 -4.5 Q3.3 -6.25 2.25 -8.3 1.85 -8.95 2.0 -9.65 4.0 -7.55 7.0 -8.15 8.3 -8.4 9.2 -9.4 M8.35 0.65 L8.3 0.65 8.55 0.35 8.55 0.3 8.5 0.4 8.35 0.65" fill="#000000" fill-opacity="0.15294118" fill-rule="evenodd" stroke="none"/>
  </g>
  <defs>
    <radialGradient color-interpolation="linearRGB" cx="0" cy="0" gradientTransform="matrix(0.0192, 0.0, 0.0, 0.0192, -4.9, 13.0)" gradientUnits="userSpaceOnUse" id="gradient0" r="819.2" spreadMethod="pad">
      <stop offset="0.0" stop-color="#ffffff"/>
      <stop offset="0.3568627450980392" stop-color="#d0d0d0"/>
      <stop offset="1.0" stop-color="#a2a8aa"/>
    </radialGradient>
    <radialGradient cx="0" cy="0" gradientTransform="matrix(0.0269, 0.0, 0.0, 0.0269, -1.9, 2.5)" gradientUnits="userSpaceOnUse" id="gradient1" r="819.2" spreadMethod="pad">
      <stop offset="0.0" stop-color="#404040"/>
      <stop offset="1.0" stop-color="#13110f"/>
    </radialGradient>
  </defs>
</svg>
