<?xml version="1.0" encoding="UTF-8" standalone="no"?>
<svg xmlns:ffdec="https://www.free-decompiler.com/flash" xmlns:xlink="http://www.w3.org/1999/xlink" ffdec:objectType="shape" height="12.85px" width="11.25px" xmlns="http://www.w3.org/2000/svg">
  <g transform="matrix(1.0, 0.0, 0.0, 1.0, 3.8, 8.15)">
    <path d="M2.7 -2.85 L5.6 -3.0 5.6 -2.95 3.3 -1.15 4.3 1.5 1.9 0.0 -0.3 1.75 -0.35 1.7 0.35 -1.1 -1.95 -2.6 0.8 -2.75 1.55 -5.55 1.6 -5.65 1.75 -5.5 2.7 -2.85 M5.75 -6.3 Q7.45 -4.4 7.45 -1.75 7.45 0.9 5.75 2.75 4.15 4.7 1.8 4.7 -0.5 4.7 -2.2 2.75 -3.8 0.9 -3.8 -1.75 -3.8 -4.4 -2.2 -6.3 -0.5 -8.15 1.8 -8.15 4.15 -8.15 5.75 -6.3 M6.05 -1.75 Q6.05 -3.7 4.8 -5.1 3.55 -6.5 1.75 -6.5 0.0 -6.5 -1.25 -5.1 -2.5 -3.7 -2.5 -1.75 -2.5 0.2 -1.25 1.6 0.0 3.0 1.75 3.0 3.55 3.0 4.8 1.6 6.05 0.2 6.05 -1.75" fill="#000000" fill-rule="evenodd" stroke="none"/>
  </g>
</svg>
