<?xml version="1.0" encoding="UTF-8" standalone="no"?>
<svg xmlns:ffdec="https://www.free-decompiler.com/flash" xmlns:xlink="http://www.w3.org/1999/xlink" ffdec:objectType="shape" height="59.45px" width="54.1px" xmlns="http://www.w3.org/2000/svg">
  <g transform="matrix(1.0, 0.0, 0.0, 1.0, 34.85, 18.0)">
    <path d="M18.7 3.0 L19.0 1.1 18.95 3.0 19.05 1.45 19.15 3.0 18.95 3.0 18.7 3.0" fill="#cadcc5" fill-rule="evenodd" stroke="none"/>
    <path d="M19.15 3.0 Q19.4 8.55 18.9 14.2 L17.5 13.95 Q11.2 12.9 5.85 14.7 7.65 12.85 10.4 12.15 4.75 10.25 -0.35 7.2 -3.15 6.45 -5.8 6.45 L-2.0 5.1 2.25 4.95 11.1 4.2 13.35 3.15 18.7 3.0 18.95 3.05 18.95 3.0 19.15 3.0" fill="url(#gradient0)" fill-rule="evenodd" stroke="none"/>
    <path d="M-5.8 6.45 Q-10.65 6.45 -15.1 8.95 -17.55 5.85 -18.55 2.5 -19.95 -2.0 -18.7 -6.9 L-18.55 -7.25 Q-17.25 -10.05 -14.95 -12.05 -16.35 -13.05 -18.85 -12.95 -14.6 -15.4 -9.4 -14.45 L-5.95 -14.3 -3.1 -13.2 Q-1.25 -12.45 2.55 -12.15 3.2 -12.9 1.55 -14.2 4.25 -14.0 6.55 -12.35 7.6 -12.0 8.7 -12.65 L7.25 -14.55 Q10.05 -14.25 12.55 -12.25 L12.9 -12.25 16.65 -12.8 Q18.3 -6.6 18.9 1.45 L18.7 3.0 13.35 3.15 11.1 4.2 2.25 4.95 -2.0 5.1 -5.8 6.45" fill="url(#gradient1)" fill-rule="evenodd" stroke="none"/>
    <path d="M-5.8 6.45 Q-10.65 6.45 -15.1 8.95 -17.55 5.85 -18.55 2.5 -19.95 -2.0 -18.7 -6.9 L-18.55 -7.25 Q-17.25 -10.05 -14.95 -12.05 -16.35 -13.05 -18.85 -12.95 -14.6 -15.4 -9.4 -14.45 L-5.95 -14.3 -3.1 -13.2 Q-1.25 -12.45 2.55 -12.15 3.2 -12.9 1.55 -14.2 4.25 -14.0 6.55 -12.35 7.6 -12.0 8.7 -12.65 L7.25 -14.55 Q10.05 -14.25 12.55 -12.25 L12.9 -12.25 16.65 -12.8 M18.9 14.2 L17.5 13.95 Q11.2 12.9 5.85 14.7 7.65 12.85 10.4 12.15 4.75 10.25 -0.35 7.2 -3.15 6.45 -5.8 6.45" fill="none" stroke="#000000" stroke-linecap="round" stroke-linejoin="round" stroke-width="0.05"/>
    <path d="M-28.85 34.85 Q-29.05 29.15 -25.75 22.95 L-24.65 25.95 Q-22.5 16.0 -22.25 5.3 -21.5 7.45 -19.75 7.7 -19.05 2.35 -16.8 -2.65 L-17.05 1.35 Q-19.3 9.8 -17.85 15.7 L-21.1 9.45 Q-19.35 20.95 -23.85 34.2 L-25.85 28.2 Q-27.6 31.55 -28.85 34.85" fill="url(#gradient2)" fill-rule="evenodd" stroke="none"/>
    <path d="M-16.35 -9.5 L-16.8 -2.65 Q-19.05 2.35 -19.75 7.7 -21.5 7.45 -22.25 5.3 -22.5 16.0 -24.65 25.95 L-25.75 22.95 Q-29.05 29.15 -28.85 34.85 L-31.1 41.45 Q-35.7 33.05 -30.85 16.95 L-34.85 22.7 Q-34.6 12.45 -27.35 4.2 L-30.1 4.95 Q-27.6 -4.35 -16.35 -9.5" fill="url(#gradient3)" fill-rule="evenodd" stroke="none"/>
    <path d="M-16.35 -9.5 Q-27.6 -4.35 -30.1 4.95 L-27.35 4.2 Q-34.6 12.45 -34.85 22.7 L-30.85 16.95 Q-35.7 33.05 -31.1 41.45 L-28.85 34.85 Q-27.6 31.55 -25.85 28.2 L-23.85 34.2 Q-19.35 20.95 -21.1 9.45 L-17.85 15.7 Q-19.3 9.8 -17.05 1.35" fill="none" stroke="#000000" stroke-linecap="round" stroke-linejoin="round" stroke-width="0.05"/>
    <path d="M7.25 -14.55 Q10.05 -14.25 12.55 -12.25 L12.9 -12.25 14.8 -12.5 Q14.95 -11.35 13.9 -10.65 12.6 -9.75 11.0 -9.9 L10.45 -9.85 10.15 -9.7 Q9.55 -8.9 9.7 -7.85 L10.05 -5.85 10.3 -5.1 10.4 -4.85 10.45 -4.65 10.55 -4.3 Q10.85 -3.9 11.4 -3.85 L12.55 -3.45 Q11.3 -2.8 10.2 -3.8 L10.15 -3.85 Q9.65 -4.1 9.35 -4.85 L8.0 -7.85 7.55 -8.65 5.8 -10.65 5.05 -10.7 4.6 -8.95 Q4.45 -8.05 5.2 -7.35 L6.25 -6.15 6.35 -5.95 6.5 -5.65 7.0 -5.5 8.05 -4.65 6.55 -4.85 5.35 -5.2 4.8 -5.55 4.2 -5.85 3.15 -6.6 2.95 -6.75 Q1.95 -7.2 1.2 -8.1 -0.6 -10.2 -3.3 -10.35 L-4.15 -10.15 -3.9 -9.65 -3.4 -8.95 -3.0 -8.4 -2.25 -6.95 -2.2 -6.85 -2.0 -6.5 -1.85 -6.0 -1.55 -5.6 -1.4 -5.2 -1.35 -5.15 -1.1 -5.1 0.45 -4.75 0.45 -4.6 0.4 -4.5 0.3 -4.4 0.25 -4.35 Q-0.45 -4.15 -1.1 -4.35 L-1.45 -4.4 Q-1.9 -4.4 -2.2 -4.85 L-2.35 -4.85 -2.45 -5.1 -2.45 -5.25 -2.85 -5.95 -3.2 -6.9 -3.4 -7.35 -3.8 -7.85 -4.15 -8.25 Q-5.1 -9.2 -6.35 -9.7 L-9.75 -10.3 -9.75 -10.2 -9.8 -10.15 -9.9 -10.3 -11.65 -10.1 -11.65 -10.15 -11.65 -10.25 -11.6 -10.3 -11.6 -10.4 -11.55 -10.45 -11.4 -10.5 -11.35 -10.55 -11.35 -10.65 -11.3 -10.7 -11.3 -10.75 -11.25 -10.75 -11.2 -10.8 -11.15 -10.85 -11.0 -11.35 -10.8 -11.75 Q-10.65 -12.05 -10.8 -12.3 L-10.85 -12.4 -10.85 -12.6 -11.2 -13.1 -11.8 -13.9 -11.95 -14.05 -12.0 -14.15 -12.1 -14.3 -12.2 -14.35 -12.25 -14.5 -12.3 -14.6 -12.25 -14.6 -12.25 -14.7 -12.25 -14.75 -12.15 -14.8 -12.05 -14.85 -11.75 -14.7 -11.65 -14.65 -11.4 -14.7 -9.4 -14.45 -5.95 -14.3 -3.1 -13.2 Q-1.25 -12.45 2.55 -12.15 3.2 -12.9 1.55 -14.2 4.25 -14.0 6.55 -12.35 7.6 -12.0 8.7 -12.65 L7.25 -14.55 M-10.3 -14.3 L-10.3 -14.4 -10.35 -14.4 -10.35 -14.3 -10.3 -14.3" fill="#000000" fill-opacity="0.15294118" fill-rule="evenodd" stroke="none"/>
    <path d="M-10.2 -16.95 L-4.5 -16.65 -4.85 -18.0 3.5 -15.15 2.5 -17.65 12.45 -14.35 11.1 -11.9 6.35 -10.0 -2.65 -14.15 -6.4 -13.15 -10.2 -16.95" fill="url(#gradient4)" fill-rule="evenodd" stroke="none"/>
    <path d="M12.45 -14.35 L15.4 -13.4 13.15 -9.15 8.15 -5.5 -1.75 -11.25 -6.75 -9.15 -10.85 -12.4 -14.0 -18.0 -11.25 -17.0 -10.2 -16.95 -6.4 -13.15 -2.65 -14.15 6.35 -10.0 11.1 -11.9 12.45 -14.35" fill="url(#gradient5)" fill-rule="evenodd" stroke="none"/>
    <path d="M12.45 -14.35 L15.4 -13.4 13.15 -9.15 8.15 -5.5 -1.75 -11.25 -6.75 -9.15 -10.85 -12.4 -14.0 -18.0 -11.25 -17.0 -10.2 -16.95 -4.5 -16.65 -4.85 -18.0 3.5 -15.15 2.5 -17.65 12.45 -14.35 Z" fill="none" stroke="#000000" stroke-linecap="round" stroke-linejoin="round" stroke-width="0.05"/>
  </g>
  <defs>
    <radialGradient color-interpolation="linearRGB" cx="0" cy="0" gradientTransform="matrix(0.028, 0.0, 0.0, 0.028, 15.9, 12.8)" gradientUnits="userSpaceOnUse" id="gradient0" r="819.2" spreadMethod="pad">
      <stop offset="0.0" stop-color="#ffffff"/>
      <stop offset="0.3568627450980392" stop-color="#d0d0d0"/>
      <stop offset="1.0" stop-color="#a2a8aa"/>
    </radialGradient>
    <radialGradient cx="0" cy="0" gradientTransform="matrix(0.0448, 0.0, 0.0, 0.0448, 15.0, 0.55)" gradientUnits="userSpaceOnUse" id="gradient1" r="819.2" spreadMethod="pad">
      <stop offset="0.0" stop-color="#404040"/>
      <stop offset="1.0" stop-color="#13110f"/>
    </radialGradient>
    <radialGradient color-interpolation="linearRGB" cx="0" cy="0" gradientTransform="matrix(0.0331, 0.0, 0.0, 0.0331, -21.2, 9.4)" gradientUnits="userSpaceOnUse" id="gradient2" r="819.2" spreadMethod="pad">
      <stop offset="0.0" stop-color="#ffffff"/>
      <stop offset="0.3568627450980392" stop-color="#d0d0d0"/>
      <stop offset="1.0" stop-color="#a2a8aa"/>
    </radialGradient>
    <radialGradient cx="0" cy="0" gradientTransform="matrix(0.0329, 0.0, 0.0, 0.0329, -27.6, 14.75)" gradientUnits="userSpaceOnUse" id="gradient3" r="819.2" spreadMethod="pad">
      <stop offset="0.0" stop-color="#404040"/>
      <stop offset="1.0" stop-color="#13110f"/>
    </radialGradient>
    <radialGradient cx="0" cy="0" gradientTransform="matrix(0.0223, 0.0, 0.0, 0.0223, -2.85, -14.65)" gradientUnits="userSpaceOnUse" id="gradient4" r="819.2" spreadMethod="pad">
      <stop offset="0.0" stop-color="#18203d"/>
      <stop offset="1.0" stop-color="#05040d"/>
    </radialGradient>
    <radialGradient cx="0" cy="0" gradientTransform="matrix(0.0223, 0.0, 0.0, 0.0223, -2.15, -7.25)" gradientUnits="userSpaceOnUse" id="gradient5" r="819.2" spreadMethod="pad">
      <stop offset="0.0" stop-color="#3a425f"/>
      <stop offset="1.0" stop-color="#0f1013"/>
    </radialGradient>
  </defs>
</svg>
