<?xml version="1.0" encoding="UTF-8" standalone="no"?>
<svg xmlns:ffdec="https://www.free-decompiler.com/flash" xmlns:xlink="http://www.w3.org/1999/xlink" ffdec:objectType="shape" height="87.75px" width="64.6px" xmlns="http://www.w3.org/2000/svg">
  <g transform="matrix(1.0, 0.0, 0.0, 1.0, 28.55, 43.85)">
    <path d="M17.5 -42.1 L10.65 -30.45 Q6.5 -23.35 2.45 -20.1 1.95 -20.2 1.95 -21.35 2.45 -21.45 2.45 -20.85 L10.15 -33.85 Q15.9 -43.85 17.95 -43.85 18.5 -43.85 21.0 -40.25 21.0 -37.95 17.1 -27.8 15.15 -22.7 14.6 -20.0 L18.1 -17.8 Q21.9 -15.4 23.25 -15.1 L23.7 -14.35 Q23.35 -13.7 22.5 -13.3 L22.75 -13.2 Q22.75 -11.4 20.55 -10.15 L15.6 -8.2 Q8.4 -5.4 8.25 0.15 8.15 2.95 4.3 7.5 L-2.05 14.7 Q-8.1 22.7 -18.8 43.9 -20.05 42.9 -20.05 40.5 -20.05 38.4 -15.65 28.0 L-11.05 17.45 -10.55 17.9 -15.25 28.6 Q-19.55 38.75 -19.55 40.5 L-19.05 42.95 -18.9 43.15 -11.7 29.15 Q-6.95 20.2 -2.8 14.4 L3.3 7.55 Q7.3 2.9 7.0 0.15 5.8 -10.7 20.0 -12.35 L20.25 -12.6 11.7 -12.2 Q8.5 -12.2 6.85 -13.0 L3.95 -14.85 3.75 -15.6 3.85 -16.05 4.7 -16.2 14.7 -14.7 Q13.35 -15.85 12.2 -17.75 L12.25 -17.9 12.2 -18.0 12.2 -19.35 Q12.2 -21.2 15.7 -30.05 19.2 -38.9 19.2 -40.35 18.35 -41.75 17.5 -42.1 M28.5 19.95 Q28.45 20.45 27.2 20.45 22.55 20.45 16.7 15.45 11.35 10.85 11.45 8.9 L12.2 8.4 17.55 13.45 Q21.55 17.05 24.75 17.95 L21.3 14.9 Q18.75 12.4 18.75 10.65 18.8 6.7 15.8 5.1 L13.7 4.15 Q12.75 3.7 12.75 3.15 12.75 1.9 14.25 1.2 L19.95 6.15 Q21.5 7.45 21.2 8.75 L20.5 10.75 Q20.5 12.0 24.3 15.3 28.25 18.65 28.5 19.95 M-23.7 -11.95 Q-15.6 -12.55 -11.65 -13.45 -10.9 -13.05 -10.65 -12.45 L-12.05 -12.35 -12.55 -12.8 Q-14.3 -13.2 -26.3 -10.2 L-26.3 -10.1 Q-6.2 -6.4 -2.15 -5.2 L-2.05 -4.85 Q-1.55 -4.2 -2.8 -4.2 -5.9 -4.2 -14.55 -5.85 -24.05 -7.65 -28.4 -9.45 L-28.55 -10.2 Q-28.55 -11.6 -23.7 -11.95" fill="#ffffff" fill-rule="evenodd" stroke="none"/>
    <path d="M17.8 -12.35 Q17.8 -11.65 16.5 -10.5 L14.85 -10.5 Q14.5 -10.55 14.5 -11.35 14.5 -13.75 17.55 -13.35 17.8 -13.6 17.8 -12.35 M35.8 -19.35 Q36.05 -19.5 36.05 -18.25 L35.8 -17.1 Q36.25 -16.85 35.0 -16.85 L32.8 -17.1 32.3 -18.4 32.5 -19.35 34.25 -19.6 35.8 -19.35 M25.8 1.25 Q26.0 0.85 26.0 2.1 L25.8 3.05 Q26.75 3.5 25.5 3.5 23.65 3.5 22.75 3.0 22.5 3.25 22.5 2.0 L22.55 1.25 24.25 1.0 25.8 1.25 M-20.35 -23.35 Q-21.05 -22.35 -22.25 -22.35 L-23.75 -22.6 -24.1 -23.55 Q-24.1 -25.5 -22.25 -25.5 -20.7 -25.5 -20.35 -23.35 M-20.5 5.35 L-20.6 6.75 -22.5 7.05 Q-23.55 7.05 -24.35 6.05 -24.5 6.6 -24.5 5.35 -24.5 4.55 -22.0 3.5 -20.5 3.8 -20.5 5.35" fill="#ffffff" fill-rule="evenodd" stroke="none"/>
  </g>
</svg>
