<?xml version="1.0" encoding="UTF-8" standalone="no"?>
<svg xmlns:ffdec="https://www.free-decompiler.com/flash" xmlns:xlink="http://www.w3.org/1999/xlink" ffdec:objectType="shape" height="109.6px" width="105.8px" xmlns="http://www.w3.org/2000/svg">
  <g transform="matrix(1.0, 0.0, 0.0, 1.0, 55.75, 69.35)">
    <path d="M40.25 -63.4 Q40.25 -60.45 35.2 -52.75 30.0 -44.75 29.8 -43.0 29.0 -36.45 23.9 -29.6 19.0 -23.95 19.0 -23.35 22.25 -15.85 22.55 -14.35 19.75 -17.15 17.75 -21.15 16.25 -24.2 16.25 -25.05 L17.85 -25.9 Q19.85 -27.05 21.55 -28.75 27.1 -34.2 28.3 -43.85 28.45 -45.45 33.65 -53.35 38.75 -61.1 38.75 -63.15 38.75 -64.45 37.75 -65.95 36.65 -67.6 35.5 -67.6 26.75 -67.6 8.05 -39.15 8.05 -38.5 8.55 -37.85 L9.0 -36.55 Q9.0 -35.5 5.05 -33.3 L3.7 -32.55 Q4.85 -31.8 4.55 -30.05 4.55 -28.0 2.95 -27.4 0.1 -26.35 -1.5 -24.75 -2.35 -25.3 -3.3 -27.1 -4.25 -28.85 -4.25 -29.9 -4.25 -30.7 -2.95 -31.75 -1.5 -32.95 0.7 -33.05 L1.9 -34.2 Q3.95 -35.8 6.55 -36.6 L6.0 -39.05 Q6.0 -42.8 17.35 -55.75 29.25 -69.35 35.0 -69.35 40.0 -69.35 40.25 -63.4 M9.5 -0.75 Q-49.75 -0.75 -55.75 -6.75 -54.95 -7.7 -54.8 -8.7 L-53.35 -8.85 Q-44.4 -8.5 -23.0 -10.6 -16.55 -12.5 -14.5 -12.5 -13.05 -12.5 -12.5 -11.85 L-12.25 -11.25 -18.55 -10.6 -20.25 -9.85 Q-24.25 -8.75 -53.0 -7.5 L-53.85 -6.75 Q-32.55 -5.95 -26.15 -3.9 -21.3 -2.35 5.3 -2.35 9.4 -2.35 9.75 -2.85 9.25 -3.8 4.3 -5.85 L4.3 -6.5 5.6 -6.6 Q10.6 -6.6 11.25 -3.05 11.25 -2.55 10.75 -1.75 10.2 -0.75 9.5 -0.75 M50.05 27.85 Q50.05 28.8 48.5 30.55 29.5 30.55 15.9 22.05 9.35 17.55 6.25 15.55 0.95 12.2 -3.75 11.25 L-3.5 10.75 3.8 12.4 8.5 12.5 Q9.4 12.5 15.15 17.4 21.1 22.5 22.3 22.8 L44.3 28.05 47.55 28.05 Q46.7 25.4 43.15 22.85 L35.95 18.5 Q26.25 12.9 26.25 7.25 L21.5 7.3 Q16.3 7.3 17.05 3.4 17.05 2.55 17.5 1.55 18.0 0.5 18.5 0.5 22.45 0.5 22.8 4.55 26.8 5.2 28.15 6.55 28.9 7.35 29.2 9.35 29.5 11.45 30.5 12.55 32.15 14.4 36.5 15.75 42.55 17.55 46.6 21.65 50.05 25.15 50.05 27.85 M-3.85 23.5 Q-4.1 24.1 -4.1 22.85 -4.1 21.8 -3.35 21.8 -2.85 22.45 -2.85 23.0 L-3.85 23.5 M-15.75 29.4 L-17.75 31.95 Q-19.75 35.2 -19.75 39.0 L-19.6 39.5 Q-18.7 39.2 -17.75 37.9 L-16.25 35.8 -15.85 35.8 Q-16.5 36.4 -17.4 38.05 -18.2 39.45 -19.25 40.25 L-20.25 40.05 -20.25 37.05 Q-17.85 27.95 -13.85 22.3 -14.35 25.25 -15.15 26.9 -15.75 28.2 -15.75 29.4 M-13.75 34.05 L-12.0 31.05 Q-10.8 28.85 -9.85 28.8 L-13.35 34.05 -13.75 34.05" fill="#ffffff" fill-rule="evenodd" stroke="none"/>
    <path d="M32.05 -18.1 Q32.5 -18.7 35.55 -20.25 38.65 -21.85 39.5 -21.85 41.05 -21.85 41.55 -21.25 L41.75 -20.85 33.1 -17.75 32.05 -18.1 M14.0 -12.05 Q14.0 -13.5 20.5 -16.0 L21.5 -15.0 16.0 -11.0 14.0 -12.05 M34.25 0.85 Q34.25 1.6 23.75 3.3 L23.3 2.55 Q24.95 1.4 33.75 0.3 34.25 -0.35 34.25 0.85 M-26.2 -27.7 Q-22.3 -25.25 -21.6 -23.5 L-21.45 -23.3 Q-21.35 -23.1 -22.1 -23.1 -23.85 -23.1 -27.55 -25.35 -30.95 -27.4 -32.1 -28.75 L-31.9 -29.65 Q-31.8 -30.0 -31.0 -30.0 -29.85 -30.0 -26.2 -27.7 M-23.25 5.8 L-36.5 1.0 -36.6 0.25 Q-36.1 -0.25 -35.0 -0.25 -26.25 3.0 -23.25 5.55 L-23.25 5.8" fill="#ffffff" fill-rule="evenodd" stroke="none"/>
  </g>
</svg>
