<?xml version="1.0" encoding="UTF-8" standalone="no"?>
<svg xmlns:ffdec="https://www.free-decompiler.com/flash" xmlns:xlink="http://www.w3.org/1999/xlink" ffdec:objectType="shape" height="107.4px" width="124.05px" xmlns="http://www.w3.org/2000/svg">
  <g transform="matrix(1.0, 0.0, 0.0, 1.0, 63.75, 68.85)">
    <path d="M52.1 -68.8 Q52.3 -68.8 52.3 -68.05 52.3 -67.1 49.8 -65.6 L48.9 -65.65 Q48.55 -65.7 48.55 -66.5 48.55 -67.8 51.5 -68.85 L52.1 -68.8 M41.25 -58.1 L40.55 -58.25 40.25 -59.0 Q40.25 -59.9 41.5 -60.85 42.85 -61.9 44.0 -61.5 L41.25 -58.1 M38.75 -63.05 Q38.75 -61.35 30.65 -49.75 21.9 -37.2 16.55 -33.0 L16.45 -32.8 Q16.3 -32.75 16.3 -33.55 16.3 -34.8 23.5 -45.7 31.05 -57.1 35.8 -62.6 25.8 -59.05 18.2 -50.35 L12.25 -43.2 Q8.7 -39.1 5.5 -36.6 L5.45 -36.6 3.8 -35.6 Q2.55 -35.85 2.55 -36.85 2.55 -39.4 5.85 -39.8 26.7 -65.75 35.75 -65.75 37.25 -65.75 38.75 -63.05 M53.8 31.3 L53.75 32.05 52.5 32.75 50.75 31.4 Q50.75 30.5 50.9 30.35 L52.0 30.25 Q52.95 30.25 53.8 31.3 M60.25 37.0 L60.3 38.05 58.5 38.55 Q57.3 38.15 57.3 37.15 L57.5 36.05 58.5 35.8 Q59.05 35.8 60.25 37.0 M45.25 28.05 L24.55 20.05 Q21.95 18.35 10.45 16.5 0.65 14.9 -0.1 12.25 L-0.25 11.8 Q21.6 17.15 42.3 24.3 42.7 20.0 31.95 13.05 L23.2 7.7 Q18.35 4.7 16.55 3.05 16.95 1.8 18.0 1.8 27.85 1.8 46.75 26.5 46.75 27.75 46.5 27.8 L45.25 28.05 M-54.35 -5.0 Q-54.35 -9.65 -40.35 -10.95 -34.85 -11.45 -11.35 -11.75 L-11.0 -13.05 Q-11.0 -13.85 -12.15 -14.95 -13.35 -16.1 -13.35 -16.4 -13.35 -17.85 -11.75 -17.85 -8.1 -17.85 -7.5 -14.05 -7.5 -6.55 -25.95 -6.1 L-40.35 -6.2 Q-48.05 -6.25 -50.5 -5.35 L-51.0 -5.25 -16.75 0.05 -16.5 0.5 -16.3 0.75 -17.0 1.0 Q-19.6 1.0 -54.1 -4.1 -54.35 -3.75 -54.35 -5.0 M-61.1 -9.85 L-62.0 -8.75 -63.5 -8.85 -63.75 -10.0 -63.5 -11.0 -62.5 -11.25 Q-62.15 -11.25 -61.1 -9.85 M-4.5 -9.0 L-5.0 -8.0 Q-7.1 -8.4 -6.85 -10.25 L-6.0 -10.35 -4.5 -9.0 M-18.25 34.05 Q-16.3 31.0 -15.35 30.8 L-16.9 32.85 Q-17.9 34.05 -17.75 35.05 L-18.75 35.05 -18.75 31.3 Q-17.0 26.6 -15.85 26.3 -16.4 28.2 -18.25 32.0 L-18.25 34.05" fill="#ffffff" fill-rule="evenodd" stroke="none"/>
    <path d="M1.05 -4.25 Q0.25 -3.25 -0.9 -3.1 L-1.9 -2.0 Q-3.8 0.0 -5.0 0.0 L-6.25 -0.25 -6.5 -1.75 Q-6.5 -3.45 -5.6 -4.2 L-4.9 -4.6 Q-5.15 -5.3 -4.85 -6.35 -4.85 -9.75 -2.0 -9.75 1.8 -9.75 1.8 -6.3 1.8 -5.2 1.05 -4.25" fill="#ffffff" fill-rule="evenodd" stroke="none"/>
    <path d="M15.25 -11.25 L15.15 -11.05 Q15.05 -11.0 15.05 -11.8 15.05 -13.05 19.8 -14.85 24.4 -16.6 27.25 -16.6 L30.05 -16.5 Q38.0 -22.1 47.0 -22.1 59.05 -22.1 59.05 -16.35 53.2 -20.75 46.85 -20.75 41.15 -20.75 35.75 -18.65 L30.25 -16.5 Q36.25 -16.1 38.25 -13.75 L38.0 -13.25 Q29.25 -15.25 27.25 -15.25 23.65 -15.25 19.85 -13.55 16.3 -11.6 15.25 -11.25 M42.5 15.3 L41.55 15.5 Q40.55 14.55 40.5 11.75 40.4 8.4 39.9 7.15 37.75 1.7 23.25 3.05 24.15 2.2 26.45 1.5 28.6 0.8 30.0 0.8 42.55 0.8 42.55 14.75 L42.5 15.3 M-21.6 -23.75 L-21.85 -23.35 Q-25.95 -27.75 -32.85 -29.15 L-38.6 -30.15 Q-41.95 -30.8 -44.25 -31.75 L-35.5 -32.25 Q-28.4 -32.25 -21.6 -23.75 M-23.5 5.55 L-24.5 6.0 Q-26.4 6.0 -33.5 2.7 -40.55 -0.6 -43.0 -0.6 L-54.75 0.5 -55.5 0.0 -47.5 -2.25 Q-34.6 -2.25 -23.6 5.25 L-23.5 5.55" fill="#ffffff" fill-rule="evenodd" stroke="none"/>
  </g>
</svg>
