<?xml version="1.0" encoding="UTF-8" standalone="no"?>
<svg xmlns:ffdec="https://www.free-decompiler.com/flash" xmlns:xlink="http://www.w3.org/1999/xlink" ffdec:objectType="shape" height="116.5px" width="141.3px" xmlns="http://www.w3.org/2000/svg">
  <g transform="matrix(1.0, 0.0, 0.0, 1.0, 73.75, 69.75)">
    <path d="M48.5 -66.55 Q48.5 -69.75 63.25 -69.75 64.8 -69.75 67.55 -68.6 L67.5 -68.0 Q51.9 -67.05 49.0 -66.1 L48.75 -65.85 Q48.5 -65.75 48.5 -66.55 M48.0 -61.6 Q46.0 -61.6 44.1 -60.7 42.25 -59.85 41.25 -59.85 48.3 -64.25 49.5 -64.25 L51.5 -62.85 Q50.0 -60.2 48.9 -60.65 L48.0 -61.6 M34.05 -65.5 Q34.05 -64.45 29.45 -55.75 24.55 -46.4 22.05 -44.0 L21.95 -43.8 Q21.8 -43.75 21.8 -44.55 21.8 -48.25 26.65 -55.1 32.15 -62.95 32.8 -65.0 L32.55 -65.25 Q29.1 -62.55 15.3 -49.2 L2.25 -36.6 0.75 -36.85 Q-0.05 -38.75 3.05 -41.1 1.4 -38.85 1.25 -37.75 L1.25 -37.35 16.1 -52.25 Q25.7 -62.05 33.75 -67.0 L34.05 -65.5 M4.25 -0.55 L4.3 2.5 4.5 2.8 5.3 3.05 Q6.55 3.05 9.75 2.05 14.9 2.05 17.65 7.15 L19.6 11.2 Q20.75 13.45 22.05 14.3 23.65 15.4 33.65 19.8 43.75 24.25 46.8 26.3 46.2 27.55 44.85 28.55 43.8 29.3 43.4 29.3 28.85 29.3 24.3 23.5 L25.25 23.0 Q26.7 24.5 30.8 25.9 35.65 27.55 40.75 27.55 L44.3 27.05 44.5 26.8 Q24.2 18.2 20.05 15.25 19.25 14.7 16.25 8.95 13.65 4.0 11.55 4.0 7.9 4.0 6.75 4.65 L5.15 5.25 Q3.05 5.25 2.55 1.6 2.55 -3.15 4.55 -4.6 L4.25 -0.55 M51.75 30.8 L52.05 30.8 58.55 43.55 Q57.05 41.6 51.75 30.8 M59.25 36.05 L65.25 46.55 64.75 46.75 Q59.9 40.1 58.25 36.55 58.35 36.05 59.25 36.05 M-43.85 -5.75 L-35.2 -3.7 Q-30.15 -2.55 -21.85 -1.6 -22.2 -0.75 -25.75 -0.75 -31.35 -0.75 -53.35 -7.1 -51.55 -10.8 -42.65 -10.15 L-33.5 -8.75 Q-30.15 -8.75 -28.5 -7.8 -26.8 -6.85 -26.25 -6.85 -23.8 -6.85 -19.6 -8.65 L-11.5 -12.25 -8.6 -12.1 -8.25 -11.0 Q-23.75 -4.25 -24.0 -4.25 -28.3 -4.25 -29.0 -5.15 -29.75 -6.1 -33.55 -6.1 L-42.5 -5.75 -43.85 -5.75 M-62.35 -9.5 Q-62.6 -8.85 -63.4 -8.85 -68.35 -8.85 -68.35 -9.35 L-73.75 -10.85 -73.5 -11.25 Q-69.25 -11.35 -62.35 -9.5" fill="#ffffff" fill-rule="evenodd" stroke="none"/>
    <path d="M2.2 -12.1 L2.3 -11.3 Q2.3 -9.9 1.35 -8.25 1.8 -7.45 1.8 -6.3 1.8 -5.2 1.05 -4.25 0.25 -3.25 -0.9 -3.1 L-1.9 -2.0 -3.7 -0.4 Q-13.7 10.1 -17.5 13.25 L-18.2 13.2 -18.35 12.35 Q-18.35 11.85 -10.85 3.1 L-6.5 -2.0 Q-6.45 -3.5 -5.6 -4.2 L-4.9 -4.6 Q-5.15 -5.3 -4.85 -6.35 -4.85 -9.75 -2.0 -9.75 L-0.3 -9.5 1.75 -12.25 2.2 -12.1" fill="#ffffff" fill-rule="evenodd" stroke="none"/>
    <path d="M19.25 -14.35 Q21.35 -16.1 28.5 -17.0 37.15 -17.0 43.3 -11.0 48.25 -6.15 48.25 -2.35 L48.0 1.3 47.25 1.8 46.25 -2.1 Q45.45 -5.75 44.15 -8.1 39.7 -16.0 27.35 -16.0 L19.25 -14.35 M35.25 -18.85 Q39.55 -20.5 46.3 -20.5 52.05 -20.5 57.3 -16.0 61.75 -12.2 61.75 -10.0 61.75 -8.3 60.5 -5.25 60.85 -10.8 56.4 -14.8 50.15 -20.45 36.5 -18.75 L35.25 -18.85 M47.75 25.05 L47.75 25.25 Q47.1 23.95 45.9 19.95 44.8 16.15 43.5 13.95 39.15 6.75 26.25 3.55 L26.05 2.55 29.8 2.55 Q40.6 2.55 44.85 11.3 47.15 15.95 47.75 25.05 M-51.3 -25.7 L-60.0 -19.6 Q-60.15 -22.6 -52.2 -27.15 -44.6 -31.5 -41.0 -31.5 -29.95 -31.5 -27.35 -29.15 -26.55 -28.4 -26.45 -27.2 L-26.25 -25.75 -26.25 -25.35 Q-26.8 -25.75 -27.05 -26.85 -27.3 -27.95 -27.95 -28.45 -30.15 -30.35 -41.1 -30.35 -44.35 -30.35 -51.3 -25.7 M-36.5 -0.05 Q-31.0 2.7 -29.5 3.3 L-30.0 4.0 -38.6 0.85 Q-44.3 -1.35 -46.0 -1.35 -59.1 -1.35 -63.15 3.65 -64.35 5.1 -65.0 7.45 -65.65 9.7 -66.0 10.05 L-66.25 9.8 Q-65.75 6.0 -63.7 3.1 -59.75 -2.5 -49.25 -2.5 -42.6 -2.5 -36.5 -0.05" fill="#ffffff" fill-rule="evenodd" stroke="none"/>
  </g>
</svg>
