<?xml version="1.0" encoding="UTF-8" standalone="no"?>
<svg xmlns:ffdec="https://www.free-decompiler.com/flash" xmlns:xlink="http://www.w3.org/1999/xlink" ffdec:objectType="shape" height="123.6px" width="156.8px" xmlns="http://www.w3.org/2000/svg">
  <g transform="matrix(1.0, 0.0, 0.0, 1.0, 78.75, 69.85)">
    <path d="M57.3 -68.35 Q60.0 -70.25 62.5 -69.75 68.6 -69.75 72.9 -67.1 77.35 -64.4 78.05 -60.0 78.0 -59.6 77.05 -59.5 77.5 -64.05 73.2 -66.0 69.2 -67.75 59.9 -67.75 57.75 -67.75 57.3 -68.35 M52.5 -62.1 Q56.85 -62.1 59.05 -60.05 60.25 -58.95 61.25 -57.1 L61.25 -56.75 Q58.85 -58.8 49.75 -61.75 L52.5 -62.1 M30.0 -58.6 L29.75 -58.35 Q29.5 -58.25 29.5 -59.05 29.5 -59.8 29.9 -60.2 L30.55 -60.75 31.0 -61.1 Q25.8 -59.0 22.2 -55.35 20.65 -53.75 17.1 -48.75 14.3 -44.8 11.7 -42.95 7.95 -40.3 2.0 -39.5 6.5 -37.35 6.75 -36.85 L5.8 -36.35 Q3.6 -36.35 1.15 -38.2 -0.5 -39.45 -1.25 -40.6 L6.8 -40.85 17.05 -52.55 Q28.2 -64.25 33.5 -64.25 L34.75 -63.75 Q33.3 -60.2 30.0 -58.6 M45.0 26.5 Q41.85 27.55 40.0 27.55 L36.3 26.55 36.3 26.0 41.65 25.4 Q45.85 25.0 47.25 24.05 43.75 19.25 42.5 18.6 L31.6 18.25 Q29.45 18.25 18.8 11.5 7.25 4.15 4.5 3.25 4.25 3.75 4.25 2.5 4.25 1.05 5.5 1.05 20.0 8.85 23.3 10.25 26.15 11.4 27.2 12.75 L28.2 14.6 Q29.0 16.25 36.5 16.25 44.85 16.25 48.75 23.9 48.75 25.3 45.0 26.5 M58.2 43.1 L61.0 49.5 60.55 49.8 Q59.1 48.25 54.25 39.0 L54.3 38.7 55.05 38.55 Q56.05 38.55 58.2 43.1 M64.05 43.8 Q66.4 47.9 69.75 51.9 69.75 53.15 69.25 53.75 65.95 53.75 66.0 52.7 66.8 51.3 66.8 50.55 63.75 45.0 63.75 43.8 L64.05 43.8 M-78.25 -14.6 Q-76.75 -14.6 -72.8 -12.45 L-67.85 -9.85 -67.6 -9.5 -67.75 -9.1 -69.6 -8.95 Q-71.1 -8.95 -71.1 -9.75 -71.1 -10.25 -78.75 -14.5 L-78.75 -14.6 -78.25 -14.6 M-43.6 -9.35 L-39.75 -8.35 -26.45 -6.7 -22.5 -6.75 Q-19.4 -6.75 -15.8 -10.7 -13.95 -12.75 -12.0 -15.5 L-11.75 -15.5 Q-9.8 -15.5 -7.65 -10.4 -5.0 -4.0 -4.6 -3.5 L-4.75 -3.1 Q-7.7 -4.45 -8.95 -7.75 -10.75 -12.3 -11.85 -13.6 L-15.95 -9.1 Q-19.85 -5.35 -22.5 -5.35 L-47.6 -8.75 -48.6 -8.6 Q-47.05 -7.15 -43.25 -5.7 -38.65 -3.85 -35.85 -4.6 L-35.75 -3.85 -35.75 -3.6 -38.75 -3.35 Q-43.8 -3.35 -51.1 -9.25 L-51.1 -10.0 -48.5 -10.1 -43.6 -9.35" fill="#ffffff" fill-rule="evenodd" stroke="none"/>
    <path d="M9.8 -13.85 Q9.4 -13.3 9.0 -13.1 L7.85 -13.15 Q7.55 -13.2 7.55 -14.0 7.55 -15.0 9.25 -15.0 L9.8 -13.85 M5.3 -8.0 Q3.8 -5.0 3.8 -4.6 L2.9 -4.65 Q2.55 -4.7 2.55 -5.5 2.55 -6.2 3.15 -7.4 3.85 -8.9 4.75 -8.75 5.3 -9.25 5.3 -8.0 M-5.4 2.8 Q-20.4 21.75 -27.25 21.75 -30.2 21.75 -30.65 19.65 L-30.6 16.8 Q-29.95 16.0 -29.25 16.0 -28.6 16.0 -27.5 16.65 L-25.75 17.25 -7.4 1.1 Q-5.95 -1.0 -1.25 -5.75 0.65 -5.75 0.75 -4.0 0.75 -2.25 -1.65 0.15 -2.7 1.15 -3.8 1.95 L-3.85 2.05 -4.0 2.05 -5.4 2.8 M-18.25 13.75 Q-19.25 13.75 -22.5 17.5 L-22.75 17.8 Q-19.35 17.4 -18.35 15.7 L-17.9 13.75 -18.25 13.75 M-6.75 15.0 L-7.1 15.75 -8.25 15.25 -8.25 13.8 -7.25 13.8 Q-6.75 14.25 -6.75 15.0 M-28.35 17.8 L-28.0 19.0 Q-27.0 19.0 -26.6 18.55 L-26.5 18.25 -28.5 17.75 -28.35 17.8" fill="#ffffff" fill-rule="evenodd" stroke="none"/>
    <path d="M36.95 -12.15 Q36.8 -12.1 36.8 -12.9 L37.0 -13.5 36.8 -13.55 37.5 -13.6 Q41.95 -13.6 45.8 -7.55 47.75 -4.5 48.8 -1.35 L48.5 0.8 48.0 1.25 46.8 1.25 Q45.6 -8.5 37.05 -12.35 L36.95 -12.15 M62.75 -4.3 L62.5 -3.0 62.25 -2.75 Q61.6 -3.65 59.9 -9.8 58.65 -14.3 54.55 -16.85 L55.5 -17.0 Q61.1 -17.0 62.75 -4.3 M48.25 24.55 L47.8 25.25 Q46.7 23.7 45.75 21.05 L44.25 16.25 Q42.05 10.25 37.05 7.25 L37.5 6.55 Q43.05 9.8 45.55 15.35 46.25 16.9 48.25 24.55 M-57.75 -20.35 Q-55.8 -23.5 -52.0 -26.75 -45.7 -32.1 -39.0 -32.1 -37.45 -32.1 -35.25 -29.75 L-34.95 -29.55 Q-34.8 -29.35 -35.6 -29.35 L-39.35 -30.75 Q-49.5 -30.75 -57.35 -20.35 L-57.75 -20.35 M-43.6 1.95 Q-45.35 0.8 -47.75 0.8 -59.4 0.8 -62.85 3.8 -64.05 4.85 -64.55 6.5 L-65.25 9.0 -65.85 8.8 Q-66.0 9.35 -66.0 8.1 -66.0 6.55 -62.9 3.25 -59.1 -0.75 -55.0 -0.75 -42.25 -0.75 -39.85 3.5 L-40.85 4.0 -43.6 1.95" fill="#ffffff" fill-rule="evenodd" stroke="none"/>
  </g>
</svg>
