<?xml version="1.0" encoding="UTF-8" standalone="no"?>
<svg xmlns:ffdec="https://www.free-decompiler.com/flash" xmlns:xlink="http://www.w3.org/1999/xlink" ffdec:objectType="shape" height="118.4px" width="156.1px" xmlns="http://www.w3.org/2000/svg">
  <g transform="matrix(1.0, 0.0, 0.0, 1.0, 78.1, 64.35)">
    <path d="M57.0 -59.5 Q59.25 -59.5 60.6 -57.15 61.3 -55.9 61.8 -54.1 59.6 -54.75 56.5 -59.1 L56.4 -59.4 57.0 -59.5 M75.05 -64.35 Q76.5 -64.35 78.0 -58.0 L77.55 -56.85 Q76.65 -57.4 76.25 -60.0 75.8 -62.7 74.25 -64.0 74.6 -64.35 75.05 -64.35 M23.05 -52.75 Q23.05 -50.9 21.25 -50.5 L15.0 -50.25 Q13.35 -45.2 10.15 -41.3 3.75 -33.5 -4.75 -39.1 L-5.25 -39.0 -0.85 -36.5 1.55 -36.1 2.65 -36.3 4.05 -34.6 4.05 -33.5 Q4.55 -33.25 3.3 -33.25 -3.4 -33.25 -9.25 -40.85 L-9.35 -41.35 Q-9.35 -41.6 -8.55 -41.6 L0.75 -40.35 Q7.1 -40.35 9.6 -42.05 11.35 -43.25 11.7 -45.8 12.1 -48.9 12.5 -49.55 13.65 -51.25 17.6 -51.25 22.8 -51.25 21.55 -54.25 L22.05 -54.25 Q23.05 -53.35 23.05 -52.75 M57.75 45.5 Q61.35 50.65 61.55 52.55 L61.5 52.75 Q60.15 51.95 58.75 49.55 L56.8 46.0 Q57.0 45.5 57.75 45.5 M67.5 48.75 Q69.85 51.75 70.05 54.05 69.0 53.85 67.9 52.2 66.8 50.6 66.8 49.5 66.8 48.75 67.15 48.7 L67.5 48.75 M34.0 14.0 Q33.25 14.55 32.0 14.55 24.3 14.55 20.75 10.75 18.3 6.6 17.3 5.8 16.25 6.7 14.55 11.7 13.05 16.05 11.85 16.05 8.3 16.05 10.3 12.3 L7.25 5.25 7.25 4.8 Q8.35 5.9 9.35 8.3 L11.0 12.25 12.25 12.3 Q12.5 12.3 13.9 8.3 15.3 4.3 17.3 4.3 17.65 4.3 24.05 8.4 31.0 12.9 34.0 14.0 M-71.5 -10.75 L-71.35 -10.35 -71.25 -10.15 -72.05 -10.0 Q-72.7 -10.0 -75.3 -11.95 L-78.1 -14.35 -77.25 -14.5 Q-72.35 -11.6 -71.5 -10.75 M-35.5 -6.1 L-38.85 -7.25 -38.5 -7.85 -31.5 -7.1 -19.25 -6.35 Q-19.05 -6.35 -17.45 -8.7 -15.75 -11.1 -14.25 -11.5 -13.45 -10.0 -12.2 -5.25 -11.2 -1.4 -9.35 0.55 -7.6 -1.15 -6.65 -7.35 -5.9 -12.75 -2.75 -13.85 -3.45 -12.65 -5.35 -4.4 -6.85 2.05 -9.0 2.05 -12.35 2.05 -13.65 -2.75 -14.35 -5.4 -14.85 -10.0 L-16.9 -6.9 Q-18.15 -4.85 -19.0 -4.85 L-25.5 -5.05 -35.5 -6.1" fill="#ffffff" fill-rule="evenodd" stroke="none"/>
    <path d="M3.85 -10.85 Q4.25 -10.7 4.25 -9.9 4.25 -7.25 -5.0 0.55 L-5.1 0.75 Q-2.75 0.55 -2.75 2.4 -2.75 3.75 -18.85 17.5 -34.85 31.05 -35.75 31.05 -39.3 31.05 -38.6 29.85 -38.6 29.05 -30.25 21.15 L-32.1 20.5 -32.0 19.05 -26.8 17.9 -22.9 14.2 Q-4.0 -3.25 3.0 -11.1 L3.85 -10.85 M7.8 -8.5 Q7.8 -5.9 6.0 -4.1 L4.75 -4.25 Q4.55 -3.75 4.55 -5.0 5.15 -8.5 7.25 -9.25 7.8 -9.75 7.8 -8.5 M13.0 -10.5 Q12.65 -9.75 11.5 -9.75 L11.05 -10.1 Q11.95 -11.6 12.55 -11.6 L13.0 -10.5 M-6.5 2.5 Q-7.05 2.5 -12.85 8.8 L-13.0 9.0 -8.8 6.15 Q-6.15 4.25 -6.2 2.5 L-6.5 2.5 M-28.95 21.6 Q-34.2 25.35 -36.25 27.8 L-36.5 28.55 Q-30.9 27.05 -27.55 23.5 L-24.85 20.15 -27.5 22.05 -28.95 21.6" fill="#ffffff" fill-rule="evenodd" stroke="none"/>
    <path d="M45.05 -6.85 L45.75 -6.85 Q47.3 -6.85 47.55 1.1 47.55 3.25 47.25 4.0 L46.55 4.0 Q44.8 -4.35 44.8 -5.9 L45.05 -6.85 M58.8 -10.9 Q58.8 -12.6 59.55 -12.6 L61.1 -8.65 62.05 -5.3 61.75 -3.25 61.05 -3.25 Q61.0 -4.3 59.85 -7.25 58.8 -10.1 58.8 -10.9 M47.55 24.05 L46.8 24.75 Q45.8 23.55 45.2 20.45 44.5 16.6 44.05 15.55 L45.25 15.5 Q47.5 15.5 47.55 24.05 M-58.85 -22.1 Q-57.45 -23.55 -53.55 -25.7 -49.0 -28.25 -47.0 -28.0 -58.1 -21.8 -58.85 -22.1 M-51.85 1.75 L-51.75 2.05 Q-51.6 3.55 -52.45 3.1 L-54.25 2.25 Q-60.7 2.25 -63.1 4.75 -64.4 6.15 -65.5 8.55 -65.85 9.25 -65.85 8.0 -62.35 0.8 -55.5 0.8 -54.05 0.8 -51.85 1.75" fill="#ffffff" fill-rule="evenodd" stroke="none"/>
  </g>
</svg>
