<?xml version="1.0" encoding="UTF-8" standalone="no"?>
<svg xmlns:ffdec="https://www.free-decompiler.com/flash" xmlns:xlink="http://www.w3.org/1999/xlink" ffdec:objectType="shape" height="112.75px" width="159.55px" xmlns="http://www.w3.org/2000/svg">
  <g transform="matrix(1.0, 0.0, 0.0, 1.0, 78.5, 57.25)">
    <path d="M62.65 -53.6 L62.8 -52.35 62.3 -51.6 Q60.05 -51.9 60.55 -53.6 60.9 -54.25 61.75 -54.25 62.5 -54.25 62.65 -53.6 M79.3 -56.55 L79.55 -57.25 80.05 -57.25 Q81.05 -56.25 81.05 -55.0 81.0 -54.6 80.05 -54.5 L79.3 -56.55 M11.0 -39.85 Q10.5 -37.4 9.95 -36.6 9.05 -35.25 4.35 -35.25 0.65 -35.25 -2.5 -36.25 -1.05 -34.9 3.35 -33.25 L9.0 -31.0 Q8.65 -30.25 6.9 -30.25 4.2 -30.25 -0.95 -33.7 -5.4 -36.7 -6.25 -38.0 -6.25 -39.1 -5.3 -39.1 -3.7 -39.1 -1.1 -37.95 1.45 -36.85 4.1 -36.85 8.8 -36.85 9.35 -39.8 L9.65 -41.85 Q9.95 -42.75 11.0 -42.75 12.5 -42.75 13.5 -36.35 14.4 -29.15 14.75 -27.6 L14.3 -26.85 Q12.7 -29.1 12.05 -32.6 L11.25 -39.25 Q11.1 -39.25 11.0 -39.85 M21.0 9.0 L13.3 9.25 Q12.1 8.1 12.15 6.15 12.4 3.8 12.25 2.3 L11.75 1.55 5.75 7.3 5.05 7.25 Q6.0 5.6 8.0 3.25 10.8 -0.1 12.25 -0.1 13.6 -0.1 13.8 3.05 L13.75 7.25 Q20.35 7.6 21.05 8.3 L21.0 9.0 M70.3 55.5 Q68.25 54.25 68.25 53.85 L68.5 52.8 69.05 52.8 70.5 55.05 70.3 55.5 M60.55 51.3 L60.25 52.05 60.25 52.3 Q58.8 51.8 58.8 50.35 58.8 49.55 59.0 49.5 L59.75 49.5 Q60.55 50.3 60.55 51.3 M-75.35 -14.1 Q-75.65 -13.35 -76.75 -13.35 -77.1 -13.35 -78.5 -14.1 L-78.5 -14.85 -77.25 -15.1 Q-76.35 -15.1 -75.35 -14.1 M-20.6 -2.85 Q-20.1 -2.1 -18.8 -2.1 -14.75 -2.1 -13.65 -5.35 L-13.05 -7.6 Q-12.7 -8.6 -12.0 -8.6 -9.2 -8.6 -8.1 -3.4 -6.75 3.2 -5.6 4.55 -5.1 4.05 -5.1 2.75 -5.1 -0.4 -6.4 -3.85 -8.55 -9.4 -9.1 -11.5 -9.75 -11.6 -8.5 -11.6 L-4.35 -11.1 Q-4.65 -10.4 -7.75 -10.1 L-4.75 -3.3 Q-3.85 -0.7 -3.85 2.75 -3.85 4.5 -4.0 5.55 L-5.55 6.0 Q-8.2 6.0 -9.35 1.1 L-10.35 -6.75 Q-10.75 -6.75 -10.75 -7.35 L-12.95 -3.85 Q-14.6 -1.0 -17.6 -1.0 -20.7 -1.0 -21.85 -1.75 -22.5 -2.15 -23.0 -3.0 -22.55 -3.6 -21.05 -3.6 L-20.6 -2.85" fill="#ffffff" fill-rule="evenodd" stroke="none"/>
    <path d="M6.8 -16.75 L7.0 -16.35 Q5.05 -14.6 -3.3 -9.55 -7.6 -6.9 -7.75 -2.6 L-8.0 -2.25 Q-1.6 -5.0 1.05 -5.6 1.5 -6.1 1.5 -4.85 -0.9 -5.15 -4.0 -3.35 -10.3 0.25 -14.0 11.5 -15.55 16.3 -24.1 17.8 -28.6 18.6 -31.55 21.95 -34.25 25.05 -36.0 25.05 L-37.25 24.8 Q-37.6 24.4 -37.6 23.85 -37.6 23.4 -36.85 22.7 -36.1 21.95 -36.1 21.35 -36.1 19.15 -39.35 15.7 -42.6 12.2 -42.6 11.6 -13.05 0.3 -10.6 -2.6 -7.25 -7.6 -4.35 -10.95 1.1 -17.35 5.5 -17.35 L6.8 -16.75 M-14.1 3.05 Q-16.25 3.05 -24.5 6.7 -34.55 11.15 -39.25 12.5 -33.95 16.8 -33.85 21.0 -32.4 19.8 -24.7 16.85 -17.35 14.0 -16.75 13.25 -15.35 11.5 -14.75 8.4 L-13.6 3.05 -14.1 3.05" fill="#ffffff" fill-rule="evenodd" stroke="none"/>
    <path d="M8.25 -6.35 Q7.4 -4.8 5.55 -4.85 5.25 -4.35 5.25 -5.6 L5.3 -6.35 6.95 -6.65 8.25 -6.35 M2.25 -9.0 Q3.0 -7.1 3.0 -6.0 L2.6 -2.7 2.75 -2.55 3.15 -2.7 4.85 -3.6 10.25 -6.1 Q10.75 -6.8 10.75 -5.55 10.75 -4.85 5.0 -1.95 L5.25 -1.6 5.25 -1.25 5.3 -1.0 14.0 0.0 Q13.4 0.75 7.75 0.75 L7.75 1.5 Q8.55 1.75 7.3 1.75 L6.0 1.75 6.85 2.75 Q10.05 4.4 11.8 6.05 L11.75 6.5 Q6.95 4.45 4.25 2.95 L5.0 3.55 5.25 4.25 3.5 3.95 4.35 6.35 5.3 10.3 5.05 10.75 Q2.7 9.55 1.8 5.25 L0.75 5.25 0.6 3.6 Q-0.95 5.1 -3.0 5.8 -3.5 6.6 -3.5 5.35 -1.5 2.7 0.2 2.0 L0.0 1.5 -4.45 3.9 Q-3.6 4.25 -3.75 5.4 -3.75 7.25 -4.85 7.25 L-7.6 6.75 Q-7.4 5.5 -7.0 4.75 L-7.25 4.0 Q-7.25 3.4 -4.1 1.55 L-3.3 1.1 -3.4 1.05 -8.35 -0.1 -8.35 -0.8 -10.8 -0.35 -12.6 -0.75 -12.75 -2.05 Q-12.75 -3.75 -10.75 -3.75 -8.9 -3.75 -8.45 -2.95 L-7.95 -1.2 -7.1 -1.25 -6.1 -1.25 -6.25 -1.75 Q-6.25 -2.7 -5.9 -2.9 L-5.4 -3.05 -5.65 -3.2 Q-7.5 -4.35 -7.85 -5.0 L-6.75 -5.1 -3.2 -3.25 -2.75 -3.25 -0.6 -3.05 -0.5 -3.75 Q-0.7 -3.95 0.05 -4.0 L-9.6 -8.35 -9.75 -8.85 -9.0 -9.1 Q-8.35 -9.1 0.8 -4.6 L1.3 -9.0 2.25 -9.0 M0.55 -0.2 L0.55 -0.5 0.45 -0.2 0.55 -0.2 M6.75 -1.0 Q6.05 -1.25 6.05 -2.0 L8.25 -1.85 Q7.7 -1.1 6.75 -1.0" fill="#ffffff" fill-rule="evenodd" stroke="none"/>
    <path d="M47.0 -1.8 L46.25 2.5 45.05 2.8 45.0 2.25 Q45.0 -1.65 46.55 -2.35 47.0 -3.05 47.0 -1.8 M61.8 -3.0 L61.75 -2.6 Q61.15 -3.1 60.55 -4.6 60.0 -5.85 60.0 -6.3 L60.05 -7.1 60.55 -7.1 61.8 -3.0 M47.75 24.5 Q46.95 24.05 46.5 22.6 46.05 21.25 46.25 20.3 L46.55 20.3 47.75 24.5 M-54.25 -24.35 L-54.0 -24.0 -57.0 -21.95 -57.6 -21.35 -59.0 -21.35 -59.2 -21.95 -59.25 -22.0 -59.2 -22.0 -59.25 -22.1 Q-59.25 -23.6 -57.75 -23.6 L-57.4 -23.5 Q-55.95 -24.6 -55.25 -24.6 L-54.25 -24.35 M-61.75 3.05 Q-61.75 3.75 -62.8 5.25 -64.25 7.35 -66.75 8.8 -66.3 7.45 -64.75 5.2 -63.2 2.85 -62.5 2.5 -61.75 1.8 -61.75 3.05" fill="#ffffff" fill-rule="evenodd" stroke="none"/>
  </g>
</svg>
