<?xml version="1.0" encoding="UTF-8" standalone="no"?>
<svg xmlns:ffdec="https://www.free-decompiler.com/flash" xmlns:xlink="http://www.w3.org/1999/xlink" ffdec:objectType="shape" height="111.8px" width="162.75px" xmlns="http://www.w3.org/2000/svg">
  <g transform="matrix(1.0, 0.0, 0.0, 1.0, 79.0, 51.6)">
    <path d="M11.25 -28.85 Q11.0 -28.5 10.05 -28.35 9.75 -28.75 9.75 -29.5 9.75 -30.5 10.55 -30.75 11.25 -30.2 11.25 -28.85 M63.5 -48.0 L62.3 -48.0 61.95 -48.1 Q61.8 -48.15 61.8 -48.9 61.8 -50.15 63.0 -50.1 L64.05 -49.1 63.5 -48.0 M83.75 -50.85 Q83.2 -50.1 82.55 -50.1 82.25 -50.6 82.25 -51.25 82.6 -51.6 83.25 -51.6 L83.75 -50.85 M14.3 11.8 L15.0 11.55 Q16.7 11.55 17.55 12.8 L17.5 14.3 Q18.25 14.55 17.0 14.55 13.8 14.55 14.05 12.35 L14.3 11.8 M63.25 55.5 L62.5 56.25 61.0 56.05 Q60.75 56.75 60.75 55.5 60.75 54.3 62.25 54.3 L63.25 55.5 M69.8 59.35 Q69.8 58.6 69.95 58.7 L70.25 58.8 70.55 58.8 71.05 59.55 Q70.8 60.0 70.0 60.0 69.8 60.6 69.8 59.35 M-77.25 -16.55 L-77.6 -15.75 Q-78.7 -15.85 -79.0 -16.6 -78.5 -17.1 -77.75 -17.1 -77.25 -17.8 -77.25 -16.55 M-8.1 -1.0 L-9.0 0.75 Q-9.15 0.65 -9.35 0.5 L-9.35 -1.6 -8.85 -1.75 Q-8.1 -2.25 -8.1 -1.0" fill="#ffffff" fill-rule="evenodd" stroke="none"/>
    <path d="M34.5 -32.5 L34.55 -31.9 Q34.55 -31.45 31.6 -29.45 L28.0 -26.85 26.55 -27.0 Q26.3 -27.35 26.3 -27.9 26.3 -28.95 31.0 -32.25 L26.5 -36.35 Q18.15 -24.0 8.05 -12.1 3.3 -6.5 -3.95 -4.3 -8.35 -3.0 -16.3 -2.55 -23.65 -2.1 -25.95 -1.15 -29.85 0.45 -29.85 5.35 -29.85 12.8 -38.25 18.5 -37.4 18.85 -36.15 20.2 -35.15 21.3 -34.35 21.3 -34.05 21.3 -28.65 18.2 -22.9 14.9 -20.25 14.25 -15.5 12.95 -14.95 10.2 -15.15 7.0 -14.5 5.55 -14.5 -0.4 -8.6 -1.75 L-3.4 -2.55 Q-0.2 -3.1 1.5 -4.25 2.7 -3.9 3.0 -3.5 -0.5 -2.1 -6.8 -0.3 -11.55 1.95 -12.5 8.0 L-12.6 10.35 Q-12.6 11.8 -13.0 12.65 -14.2 15.2 -20.5 16.55 -23.35 17.15 -27.7 20.75 -31.7 24.05 -33.5 24.05 -37.35 24.05 -41.1 17.9 L-36.85 12.45 Q-32.6 6.7 -32.6 1.6 -32.6 -2.15 -26.3 -3.25 -15.5 -4.4 -6.5 -6.25 2.95 -8.15 8.3 -16.6 12.65 -23.5 25.5 -40.6 L34.5 -32.5" fill="#ffffff" fill-rule="evenodd" stroke="none"/>
    <path d="M3.55 -13.1 L4.0 -10.85 Q4.0 -10.4 2.25 -6.7 L0.85 -3.15 1.75 -2.5 2.0 -2.65 Q2.7 -4.55 4.55 -7.6 7.6 -12.6 7.75 -11.35 L3.95 -3.35 4.0 -3.35 5.0 -3.3 Q7.3 -5.7 11.8 -9.25 16.85 -13.25 19.55 -14.6 18.0 -12.2 13.05 -8.25 L6.95 -3.3 Q12.1 -4.55 14.75 -4.35 12.55 -3.25 7.85 -2.85 8.65 -2.45 8.3 -1.75 L7.25 0.0 Q10.5 0.0 24.05 3.3 L24.0 4.0 Q24.75 4.05 23.5 4.05 L14.75 3.25 Q9.05 2.35 6.65 0.9 L5.8 2.15 Q7.8 3.05 12.0 5.25 19.1 9.0 24.0 12.05 18.5 10.75 6.25 4.05 L9.3 8.0 9.25 8.3 Q7.6 7.65 5.3 5.25 L2.6 2.35 Q0.75 2.0 0.2 1.15 -0.05 2.2 -0.75 2.25 -0.75 3.8 -10.5 9.05 L-10.75 8.8 Q-5.8 4.45 -2.1 1.9 L-22.75 1.0 -22.85 0.3 -19.15 -0.15 -19.25 -0.9 Q-19.25 -2.15 -17.25 -2.6 -16.45 -2.6 -16.3 -1.95 L-16.25 -0.75 -16.55 -0.4 -1.5 -1.75 Q-0.15 -1.75 0.15 -0.75 L1.25 -2.1 1.0 -2.1 Q-2.0 -2.1 -8.65 -7.75 -9.75 -8.2 -11.0 -8.8 -16.9 -11.55 -17.85 -12.6 L-17.25 -12.75 Q-16.45 -12.75 -11.2 -9.95 L-11.25 -10.0 -10.75 -10.1 -0.2 -3.85 Q0.1 -5.15 1.45 -8.05 3.25 -12.05 3.25 -13.1 L3.55 -13.1 M5.3 -15.5 Q5.0 -15.25 4.5 -15.1 L3.75 -15.1 Q3.55 -15.15 3.55 -15.9 L3.75 -16.75 4.5 -16.85 Q5.3 -16.5 5.3 -15.5 M0.3 3.8 Q0.55 3.5 1.25 3.5 2.05 3.5 4.05 9.45 L7.0 18.5 6.55 18.8 Q5.35 17.0 2.75 10.75 L0.7 5.8 Q0.25 7.3 -0.75 8.5 L-1.35 8.5 Q-1.75 7.3 -1.75 6.35 -1.75 5.5 -0.85 4.8 -0.3 4.35 0.25 4.25 L0.3 3.8 M-12.25 -14.85 L-13.0 -14.25 -14.25 -14.75 -13.5 -15.75 Q-12.4 -15.55 -12.25 -14.85 M-18.25 -12.5 Q-18.35 -12.15 -19.0 -11.5 L-20.1 -11.6 -20.5 -12.55 -20.25 -13.35 -19.5 -13.5 Q-18.4 -13.1 -18.25 -12.5 M-19.1 -0.15 L-17.05 -0.35 -19.0 -0.35 -19.1 -0.15 M-15.85 -2.5 Q-15.85 -3.3 -15.55 -3.35 L-15.0 -3.35 Q-13.9 -3.0 -13.75 -2.35 -14.2 -1.7 -14.6 -1.6 L-15.55 -1.65 Q-15.85 -1.7 -15.85 -2.5" fill="#ffffff" fill-rule="evenodd" stroke="none"/>
    <path d="M62.25 -3.5 Q62.05 -3.1 61.5 -2.85 L60.5 -3.05 Q60.25 -3.2 60.25 -4.05 L60.5 -4.6 61.0 -4.75 Q62.25 -4.5 62.25 -3.5 M47.25 3.5 Q48.1 3.75 46.85 3.75 45.65 3.75 45.25 3.25 L45.3 2.3 46.0 2.25 Q47.25 2.35 47.25 3.5 M48.05 23.75 L48.25 24.05 48.15 24.6 47.25 24.8 45.75 24.5 Q45.55 25.1 45.55 23.85 45.55 23.1 46.05 23.05 L46.5 23.05 48.05 23.75 M-57.5 -23.0 L-58.0 -22.0 -59.1 -22.1 -59.3 -22.0 Q-59.5 -22.05 -59.5 -22.85 L-59.35 -23.85 -58.5 -24.0 Q-57.7 -23.7 -57.5 -23.0 M-64.25 6.25 L-64.25 7.75 -65.85 8.05 Q-66.25 7.75 -66.25 6.0 -66.75 5.75 -65.5 5.75 -64.8 5.75 -64.25 6.25" fill="#ffffff" fill-rule="evenodd" stroke="none"/>
  </g>
</svg>
