<?xml version="1.0" encoding="UTF-8" standalone="no"?>
<svg xmlns:ffdec="https://www.free-decompiler.com/flash" xmlns:xlink="http://www.w3.org/1999/xlink" ffdec:objectType="shape" height="78.4px" width="81.6px" xmlns="http://www.w3.org/2000/svg">
  <g transform="matrix(1.0, 0.0, 0.0, 1.0, 41.55, 40.85)">
    <path d="M32.05 -36.85 Q30.0 -34.15 19.25 -26.25 8.2 -18.05 6.0 -15.5 -16.05 3.75 -24.0 3.75 L-32.85 2.55 Q-35.65 2.55 -39.5 18.6 -39.5 22.25 -37.55 22.25 -33.7 22.25 -19.25 11.05 -4.05 -0.75 0.0 -1.75 L0.5 -1.0 Q-6.65 2.05 -21.6 13.85 -35.0 24.5 -37.0 24.5 -42.05 24.5 -41.5 18.75 -41.5 12.95 -38.55 7.8 -34.75 1.25 -28.25 1.25 -17.1 1.25 8.0 -19.8 20.55 -30.3 31.0 -40.85 35.75 -40.85 37.5 -34.85 L38.3 -28.65 Q38.3 -25.55 37.3 -25.1 L29.55 -24.6 Q23.8 -24.6 18.7 -17.4 L15.1 -12.5 Q13.15 -10.25 11.25 -10.25 8.35 -10.25 7.75 -10.75 7.4 -11.0 7.3 -11.6 L7.3 -12.75 Q10.75 -12.6 13.3 -14.8 14.4 -15.75 17.4 -19.65 22.9 -26.85 31.1 -26.85 35.75 -26.85 35.75 -28.6 35.75 -29.6 34.45 -32.65 33.1 -35.9 32.05 -36.85" fill="#ffffff" fill-rule="evenodd" stroke="none"/>
    <path d="M14.3 -29.5 L13.5 -29.6 Q14.05 -32.1 15.55 -32.1 15.55 -30.75 14.3 -29.5 M4.8 -3.0 Q4.5 -3.0 4.5 -2.6 L3.3 -2.75 Q3.05 -2.25 3.05 -3.5 3.05 -4.3 3.35 -4.35 L4.0 -4.35 Q4.8 -4.0 4.8 -3.0 M1.75 -9.85 Q1.8 -12.5 5.25 -17.45 8.55 -22.15 10.5 -23.0 L2.05 -9.85 1.75 -9.85 M14.75 -11.85 Q24.1 -20.6 33.05 -27.6 24.05 -18.5 14.75 -11.85 M34.0 8.0 L24.1 5.7 14.25 3.0 14.75 2.8 24.2 4.7 Q31.4 6.15 34.5 7.5 35.25 8.0 34.0 8.0 M39.8 20.95 Q40.05 21.0 40.05 21.8 L39.95 22.55 39.5 22.5 Q38.8 23.25 38.8 22.0 38.8 21.5 39.25 21.05 L39.55 21.05 39.8 20.95 M33.55 20.25 Q31.1 20.25 21.6 14.05 L10.25 6.3 10.75 6.3 Q23.0 13.75 27.0 13.75 30.85 13.75 34.75 18.4 34.75 20.25 33.55 20.25 M1.05 4.8 L0.5 6.0 -0.6 6.0 -1.1 5.0 Q-1.1 3.75 0.0 3.8 L1.05 4.8 M3.55 10.3 Q4.45 11.75 9.75 23.5 L9.75 23.75 Q7.9 21.35 6.2 17.3 L3.25 10.5 3.55 10.3 M17.25 36.8 L16.75 37.55 Q14.9 36.45 12.9 33.3 L9.75 28.25 10.05 27.8 10.75 27.8 Q11.9 27.8 17.25 36.8 M-24.25 -15.6 L-23.75 -15.6 Q-23.0 -15.6 -17.8 -12.8 -12.05 -9.65 -11.85 -9.6 -16.55 -10.4 -24.25 -15.5 L-24.25 -15.6 M-29.5 -18.0 Q-29.8 -16.85 -31.25 -16.85 L-32.25 -17.1 -32.6 -18.05 Q-32.6 -18.85 -32.0 -19.0 L-31.25 -19.1 -29.85 -19.0 -29.5 -18.0 M-29.75 -11.1 L-30.25 -10.35 -31.75 -10.75 Q-31.4 -11.85 -30.35 -11.85 L-29.75 -11.1 M-15.75 -16.85 Q-16.2 -16.2 -16.5 -16.1 L-18.0 -16.15 Q-18.35 -16.2 -18.35 -17.0 -18.35 -17.8 -17.75 -17.85 L-16.25 -17.85 -15.75 -16.85 M-16.25 -0.1 L-16.5 0.75 -22.85 0.75 -22.85 0.55 -27.0 0.0 -22.5 -0.75 -17.2 -0.85 Q-16.25 -0.85 -16.25 -0.1 M-5.85 3.8 Q-6.55 4.55 -8.0 5.0 -8.6 5.75 -8.6 4.5 -8.6 3.0 -5.75 2.05 L-5.1 2.8 -5.85 3.8 M-15.7 13.1 Q-15.6 13.05 -15.6 13.85 -15.6 14.65 -30.75 28.75 L-31.25 28.55 Q-20.6 16.65 -15.85 13.3 L-15.7 13.1 M-35.65 32.2 Q-35.5 32.25 -35.5 33.05 L-36.1 33.85 Q-36.85 34.6 -37.75 34.75 -38.1 35.25 -38.1 34.0 -38.1 33.55 -37.15 32.9 -36.25 32.25 -35.85 32.3 L-35.65 32.2" fill="#ffffff" fill-rule="evenodd" stroke="none"/>
  </g>
</svg>
