<?xml version="1.0" encoding="UTF-8" standalone="no"?>
<svg xmlns:ffdec="https://www.free-decompiler.com/flash" xmlns:xlink="http://www.w3.org/1999/xlink" ffdec:objectType="shape" height="82.8px" width="81.0px" xmlns="http://www.w3.org/2000/svg">
  <g transform="matrix(1.0, 0.0, 0.0, 1.0, 38.25, 42.25)">
    <path d="M39.05 -39.25 Q34.95 -37.05 10.25 -19.45 -11.3 -4.0 -14.5 -4.0 -15.25 -4.0 -16.75 -4.8 -18.25 -5.6 -19.0 -5.6 -23.45 -5.6 -25.1 0.5 L-26.0 0.3 -26.1 -0.55 Q-22.85 -7.35 -19.0 -7.35 -15.5 -6.1 -14.25 -6.1 -11.15 -6.1 10.1 -21.95 33.3 -39.25 40.75 -42.25 L42.55 -42.0 Q42.75 -41.75 42.75 -40.5 L39.55 -33.55 Q36.3 -26.35 36.3 -20.05 36.3 -16.6 34.3 -16.5 L27.0 -17.0 Q22.85 -17.0 20.35 -12.05 18.3 -6.6 17.3 -5.6 15.1 -3.4 12.85 -3.45 11.65 -3.5 9.3 -4.5 7.35 -5.35 6.4 -4.95 5.0 -4.3 4.0 -0.85 L4.35 2.2 Q4.25 4.05 0.35 4.05 -1.8 4.05 -2.25 1.85 -2.25 0.15 -0.35 -1.45 L2.75 -4.35 Q4.35 -6.6 6.35 -6.75 L9.95 -6.15 13.5 -6.05 Q15.55 -6.8 17.25 -10.0 19.75 -14.8 21.2 -16.4 25.15 -20.95 29.8 -19.1 L33.0 -19.1 Q32.0 -31.15 39.25 -39.0 L39.05 -39.25" fill="#ffffff" fill-rule="evenodd" stroke="none"/>
    <path d="M35.05 -28.6 Q34.55 -28.35 33.25 -26.5 32.5 -26.6 32.05 -27.0 33.9 -28.6 35.05 -28.6 M39.8 -32.85 L40.75 -33.0 Q41.05 -33.5 41.05 -32.25 L40.75 -31.5 40.05 -31.5 Q39.8 -31.85 39.8 -32.85 M15.55 -29.85 L15.25 -31.0 16.25 -31.1 Q16.75 -31.6 16.75 -30.35 16.75 -29.6 16.5 -29.7 L15.55 -29.85 M19.5 -16.85 L24.0 -20.7 Q27.1 -23.05 28.55 -23.6 L20.0 -16.6 19.5 -16.85 M10.55 -21.75 L7.5 -19.1 7.0 -19.35 9.85 -22.35 12.55 -24.6 Q12.45 -23.5 10.55 -21.75 M3.25 -5.0 L2.3 -4.6 1.4 -4.65 Q1.05 -4.7 1.05 -5.5 1.05 -6.3 1.35 -6.35 L2.0 -6.35 Q3.25 -5.95 3.25 -5.0 M41.5 24.25 Q41.75 24.3 41.75 25.1 L41.55 26.25 40.8 26.8 39.9 26.8 Q39.55 26.7 39.55 25.9 39.55 25.6 40.25 24.95 L41.25 24.3 41.5 24.25 M40.05 8.8 Q36.0 8.65 33.55 6.3 L34.05 6.25 Q35.15 6.25 40.05 8.8 M22.25 1.5 Q23.75 1.5 26.0 3.75 L26.05 4.05 Q26.6 4.5 25.35 4.5 24.45 4.5 22.95 3.25 L21.3 1.55 22.25 1.5 M24.0 14.0 L23.0 15.0 22.0 14.3 Q22.0 13.35 23.0 13.0 23.7 13.3 24.0 14.0 M28.0 15.8 Q28.15 15.8 36.75 22.75 L36.25 23.25 31.1 19.8 Q27.45 17.3 27.3 16.05 L28.0 15.8 M18.75 11.25 Q11.9 7.1 10.55 5.05 L11.0 4.55 18.75 11.05 18.75 11.25 M5.25 2.0 L4.05 2.0 Q3.8 2.6 3.8 1.35 3.8 0.25 5.05 0.25 L6.05 0.8 Q6.0 1.3 5.25 2.0 M3.05 0.3 L-1.25 3.25 -1.75 3.05 0.8 1.4 Q2.7 0.35 3.05 0.3 M1.55 8.0 L1.0 8.55 0.05 8.5 Q-0.1 9.1 -0.1 7.85 -0.1 7.05 0.45 6.85 L1.05 6.8 1.55 8.0 M3.25 9.55 Q2.9 10.3 2.05 10.5 1.8 10.05 1.8 9.3 2.95 9.2 3.25 9.55 M6.5 18.05 Q5.4 17.25 4.25 13.3 L4.55 13.3 6.75 17.8 6.5 18.05 M8.55 21.5 Q8.8 21.55 8.8 22.35 L8.75 23.0 Q8.45 23.3 7.5 23.5 L6.7 23.35 Q6.5 23.2 6.5 22.4 6.5 21.65 7.0 21.5 L7.5 21.5 8.55 21.5 M12.25 31.0 Q13.45 31.0 15.4 34.75 L18.05 40.3 18.0 40.55 Q13.55 37.05 11.3 31.5 11.5 31.0 12.25 31.0 M-21.75 -14.1 L-16.75 -11.5 Q-18.95 -12.0 -22.25 -14.0 L-21.75 -14.1 M-33.25 -17.5 Q-32.85 -18.0 -32.85 -16.75 L-32.9 -16.05 -33.25 -16.0 -33.85 -16.0 -34.1 -17.35 -33.25 -17.5 M-31.85 -9.3 Q-32.1 -9.3 -32.1 -10.05 -32.1 -11.3 -31.5 -10.75 -30.75 -10.5 -30.35 -10.1 -30.6 -9.5 -31.0 -9.35 L-31.85 -9.3 M-11.6 -9.0 L-11.75 -8.6 -13.6 -8.25 -13.85 -9.0 -13.6 -9.85 -13.0 -9.85 Q-11.9 -9.7 -11.6 -9.0 M-3.5 -4.0 Q-3.95 -3.3 -4.75 -3.1 L-5.0 -4.6 -4.35 -4.75 -3.5 -4.0 M-1.85 0.4 Q-1.85 -0.25 -1.0 -0.75 -0.25 -0.6 0.25 -0.25 L-0.5 1.25 -1.6 1.25 Q-1.85 1.65 -1.85 0.4 M-18.75 14.5 L-18.55 14.3 Q-18.35 14.2 -18.35 15.0 -18.35 15.5 -19.0 16.3 L-19.85 16.5 Q-20.1 17.1 -20.1 15.85 -20.1 15.25 -18.75 14.5 M-23.6 1.55 L-30.25 1.05 Q-29.6 0.3 -28.5 0.3 L-25.45 0.1 Q-23.35 0.05 -23.35 0.8 -23.35 2.05 -23.6 1.55 M-35.25 1.0 Q-35.35 1.55 -35.6 1.75 L-37.0 1.8 Q-37.35 2.15 -37.35 0.9 -37.35 0.15 -37.05 0.1 L-36.5 0.05 Q-35.4 0.4 -35.25 1.0 M-21.5 21.55 L-22.5 22.5 -23.65 22.45 Q-24.0 22.4 -24.0 21.6 -24.0 20.85 -23.0 20.3 -21.95 20.8 -21.5 21.55 M-38.25 34.55 Q-28.6 25.1 -26.75 24.55 -30.25 28.65 -37.85 34.55 L-38.25 34.55" fill="#ffffff" fill-rule="evenodd" stroke="none"/>
  </g>
</svg>
