<?xml version="1.0" encoding="UTF-8" standalone="no"?>
<svg xmlns:ffdec="https://www.free-decompiler.com/flash" xmlns:xlink="http://www.w3.org/1999/xlink" ffdec:objectType="shape" height="77.85px" width="76.85px" xmlns="http://www.w3.org/2000/svg">
  <g transform="matrix(1.0, 0.0, 0.0, 1.0, 36.1, 39.1)">
    <path d="M37.3 -36.25 Q32.7 -34.25 12.35 -21.75 -6.0 -10.5 -8.0 -10.5 -9.5 -10.5 -10.35 -11.1 -9.75 -12.1 -6.5 -14.25 L-5.25 -13.9 Q1.1 -17.3 17.85 -27.7 36.2 -39.1 38.25 -39.1 40.0 -39.1 39.55 -37.0 39.55 -35.1 38.1 -32.7 36.45 -29.95 36.0 -27.6 36.05 -21.05 35.05 -18.25 33.95 -15.25 25.8 -13.8 19.55 -12.7 16.4 -10.8 23.3 -16.4 32.5 -19.0 33.95 -19.35 33.7 -22.45 33.3 -26.7 33.55 -27.6 33.8 -28.65 35.3 -31.55 36.85 -34.55 37.3 -36.25 M1.0 -5.85 Q2.25 -5.85 2.9 -4.3 3.5 -2.75 5.0 -2.75 7.25 -2.75 9.5 -4.5 L14.1 -8.8 10.65 -4.2 Q7.6 -0.5 5.6 -0.5 1.6 -0.5 0.0 -4.35 L0.05 -5.1 0.15 -5.6 Q0.2 -5.85 1.0 -5.85" fill="#ffffff" fill-rule="evenodd" stroke="none"/>
    <path d="M38.05 -28.6 L38.0 -29.6 38.55 -29.75 39.5 -29.0 Q39.25 -28.6 38.05 -28.6 M33.0 -25.8 L33.5 -25.75 33.55 -25.75 34.05 -25.0 Q34.0 -24.6 33.05 -24.5 L32.95 -24.3 Q32.8 -24.25 32.8 -25.05 32.8 -25.8 33.0 -25.8 M18.55 -28.6 Q18.4 -27.5 17.0 -27.5 L16.8 -28.25 17.0 -29.25 17.55 -29.35 18.55 -28.6 M12.8 -22.05 L12.75 -21.6 12.75 -21.5 11.55 -21.5 11.3 -22.25 Q11.65 -22.6 12.25 -22.6 12.8 -23.3 12.8 -22.05 M7.0 -18.1 L8.0 -17.5 Q7.55 -17.1 6.55 -17.0 L6.3 -18.0 7.0 -18.1 M25.0 -21.85 Q25.8 -21.5 25.8 -20.5 25.5 -20.25 25.0 -20.1 L24.25 -20.1 Q24.05 -20.15 24.05 -20.9 L24.25 -21.75 25.0 -21.85 M40.6 26.65 L40.0 26.55 39.25 26.0 Q39.3 25.25 40.05 25.25 L40.4 25.15 Q40.75 25.2 40.75 26.0 L40.6 26.65 M36.25 7.75 L36.25 8.5 35.0 9.05 Q34.25 8.8 34.25 7.5 L35.0 7.25 Q35.7 7.25 36.25 7.75 M26.75 5.55 L27.0 6.0 Q27.25 6.55 26.0 6.55 25.65 6.55 24.8 6.0 L24.75 5.0 25.75 4.8 Q27.0 4.8 26.75 5.55 M27.0 15.55 L28.25 16.25 Q28.25 17.2 27.5 17.55 L26.4 17.35 Q26.05 17.15 26.05 16.35 26.05 15.6 26.55 15.55 L27.0 15.55 M32.5 21.0 L31.0 21.3 31.0 20.55 32.5 21.0 M7.05 17.8 Q6.95 18.55 6.0 18.55 L5.25 18.25 6.0 17.25 7.05 17.8 M2.0 13.0 Q2.05 12.25 2.55 12.25 L3.3 13.0 Q3.25 13.2 2.75 13.2 2.2 13.2 2.0 13.0 M14.5 35.25 Q16.3 35.25 16.25 36.9 16.25 38.75 15.05 38.75 L12.8 38.25 12.75 36.85 Q12.75 35.25 14.5 35.25 M11.75 28.5 L10.8 28.8 Q9.55 28.7 9.55 27.55 L10.5 27.05 Q11.75 27.45 11.75 28.5 M-26.5 -0.85 Q-25.45 -0.5 -25.25 0.05 L-25.6 0.75 -27.1 0.8 Q-27.35 1.15 -27.35 -0.05 L-27.1 -0.75 -26.5 -0.85 M-29.35 -10.6 L-30.1 -9.1 -31.35 -9.6 Q-30.5 -10.8 -29.35 -10.6 M-31.85 -15.6 L-32.1 -14.85 Q-33.1 -15.0 -33.1 -15.75 -32.55 -16.3 -31.85 -15.6 M-17.85 -12.6 L-18.1 -11.85 Q-19.1 -12.0 -19.1 -12.75 -18.55 -13.3 -17.85 -12.6 M-16.25 -17.75 Q-15.35 -18.25 -15.35 -17.0 -15.35 -16.25 -15.5 -16.3 L-16.0 -16.35 Q-17.05 -16.35 -17.1 -16.6 L-17.1 -17.6 -16.25 -17.75 M-5.0 4.55 L-5.75 4.0 Q-5.6 3.25 -4.85 3.25 -4.25 2.75 -4.25 4.0 -4.25 4.7 -4.4 4.65 L-5.0 4.55 M-33.25 2.5 Q-34.0 2.5 -34.0 2.8 L-35.1 2.8 -35.35 1.9 Q-35.35 1.15 -35.1 1.1 L-34.5 1.05 Q-33.25 1.45 -33.25 2.5 M-28.35 27.3 Q-28.25 27.35 -28.25 28.1 L-28.35 28.75 -29.5 29.05 -29.75 28.0 -29.75 27.3 -28.85 27.25 -28.35 27.3 M-34.8 31.6 L-34.75 32.35 -35.25 33.0 Q-35.85 33.0 -36.1 32.55 L-36.1 31.8 -34.85 31.8 -34.8 31.6" fill="#ffffff" fill-rule="evenodd" stroke="none"/>
  </g>
</svg>
