<?xml version="1.0" encoding="UTF-8" standalone="no"?>
<svg xmlns:ffdec="https://www.free-decompiler.com/flash" xmlns:xlink="http://www.w3.org/1999/xlink" ffdec:objectType="shape" height="79.85px" width="82.05px" xmlns="http://www.w3.org/2000/svg">
  <g transform="matrix(1.0, 0.0, 0.0, 1.0, 37.25, 38.1)">
    <path d="M37.5 -38.1 Q38.55 -38.1 38.55 -35.8 38.55 -29.65 36.3 -20.6 32.85 -6.75 26.5 -6.75 21.95 -6.75 19.05 -8.3 16.15 -9.85 15.3 -9.85 14.7 -9.85 11.7 -6.8 8.7 -3.75 5.0 -3.75 L1.6 -4.8 3.05 -2.1 Q1.1 -0.75 0.7 -1.1 0.5 -1.3 0.55 -1.75 -0.85 0.0 -2.25 0.0 L-4.7 -0.1 Q-6.35 2.05 -7.0 2.05 -8.7 2.05 -9.6 0.95 L-10.6 -0.75 Q-10.6 -1.45 -9.85 -1.6 -9.15 -1.05 -7.3 -0.4 L-7.5 -1.55 Q-7.5 -2.4 -6.2 -2.65 L-4.7 -5.05 -3.45 -6.6 -4.35 -9.25 Q-4.2 -9.4 -4.3 -9.7 L-3.5 -9.85 Q-2.25 -9.85 -0.8 -8.2 0.45 -8.1 4.5 -6.35 7.9 -6.35 10.85 -9.55 13.8 -12.75 15.5 -12.75 16.2 -12.75 18.65 -11.05 21.9 -9.35 26.5 -9.35 33.05 -9.35 34.75 -19.35 35.7 -24.8 36.25 -34.85 L36.3 -35.25 Q31.15 -32.75 22.8 -27.4 L10.5 -19.5 9.5 -20.1 Q13.8 -25.5 24.65 -32.05 34.65 -38.1 37.5 -38.1 M-2.35 -3.25 L-2.4 -3.45 -2.55 -3.2 -2.35 -3.25" fill="#ffffff" fill-rule="evenodd" stroke="none"/>
    <path d="M39.05 -29.25 L38.55 -29.6 38.55 -30.6 39.75 -30.75 40.3 -30.0 Q40.2 -29.25 39.05 -29.25 M20.75 -30.85 Q20.3 -30.1 19.55 -30.0 18.8 -30.85 18.8 -31.5 L20.25 -31.6 20.75 -30.85 M17.75 -27.5 L17.6 -26.8 17.0 -26.85 16.25 -27.5 Q16.3 -28.25 17.05 -28.25 17.75 -28.75 17.75 -27.5 M4.75 -0.75 L5.05 -0.75 5.75 0.0 5.3 0.75 4.5 0.55 Q4.25 1.3 4.25 0.05 4.25 -0.65 4.4 -0.7 L4.75 -0.75 M44.75 -32.5 L44.3 -31.75 43.5 -31.85 43.25 -32.6 43.3 -33.6 44.25 -33.6 44.75 -32.5 M41.75 7.5 L41.3 8.25 Q40.5 8.05 39.8 7.0 40.1 6.3 41.25 6.3 41.75 6.75 41.75 7.5 M44.8 27.55 L44.3 28.3 43.5 28.25 Q43.05 28.65 43.05 27.4 L43.3 26.5 44.25 26.5 Q44.7 26.95 44.8 27.55 M36.55 5.3 L36.3 6.05 35.5 6.0 35.25 5.0 35.3 4.45 35.75 4.8 35.75 4.75 36.55 5.3 M36.55 23.75 L36.8 23.65 Q37.05 23.7 37.05 24.5 L36.95 25.15 36.5 25.05 Q35.45 24.55 35.35 24.45 L35.3 23.8 36.55 23.75 M10.8 30.05 L10.8 29.5 12.05 29.3 12.55 30.05 Q12.35 30.4 11.65 30.4 11.0 30.4 10.8 30.05 M17.0 41.0 Q16.5 41.75 15.55 41.75 L15.05 41.3 15.05 40.3 16.25 40.25 17.0 41.0 M-30.4 -10.8 L-31.0 -10.85 -31.75 -11.5 Q-31.55 -12.25 -30.85 -12.25 -30.25 -12.75 -30.25 -11.5 -30.25 -10.75 -30.4 -10.8 M-18.0 -15.0 Q-17.2 -14.7 -17.0 -14.0 L-17.5 -13.0 -18.6 -13.1 -19.0 -14.05 -18.75 -14.85 -18.0 -15.0 M-12.75 -11.35 Q-12.75 -10.6 -12.9 -10.65 L-13.1 -10.75 Q-14.25 -10.9 -14.25 -12.0 L-13.25 -12.1 Q-12.75 -12.6 -12.75 -11.35 M-5.25 2.75 Q-5.25 1.75 -3.85 1.75 -3.35 2.05 -3.25 2.5 L-3.6 3.25 -5.25 2.75 M-33.75 0.0 L-32.75 -0.1 Q-32.25 -0.85 -32.25 0.35 L-32.6 1.25 Q-33.75 1.0 -33.75 0.0 M-24.35 22.5 Q-24.35 23.75 -24.6 23.05 -25.6 23.0 -25.6 22.25 L-24.75 22.0 -24.55 21.8 Q-24.35 21.7 -24.35 22.5 M-29.1 29.5 Q-29.45 30.25 -30.35 30.25 L-30.85 29.8 -30.85 28.8 -29.75 28.75 -29.1 29.5 M-36.0 31.1 Q-35.75 31.05 -35.75 31.85 L-36.1 32.75 Q-37.25 32.5 -37.25 31.5 L-36.25 31.3 -36.0 31.1" fill="#ffffff" fill-rule="evenodd" stroke="none"/>
  </g>
</svg>
