<?xml version="1.0" encoding="UTF-8" standalone="no"?>
<svg xmlns:ffdec="https://www.free-decompiler.com/flash" xmlns:xlink="http://www.w3.org/1999/xlink" ffdec:objectType="shape" height="80.35px" width="84.35px" xmlns="http://www.w3.org/2000/svg">
  <g transform="matrix(1.0, 0.0, 0.0, 1.0, 38.6, 37.35)">
    <path d="M37.55 -36.75 L37.75 -35.25 37.3 -34.85 37.3 -32.75 36.8 -32.1 35.55 -32.25 35.5 -35.6 32.0 -34.25 30.75 -34.75 Q31.55 -35.7 33.45 -36.6 35.05 -37.35 35.5 -37.35 36.2 -37.35 36.85 -36.7 L37.55 -36.75 M35.4 -26.6 L35.25 -26.75 35.3 -27.75 37.55 -27.6 Q37.5 -26.85 36.7 -26.35 L36.75 -25.15 36.55 -23.1 36.0 -22.85 Q35.25 -23.5 35.25 -25.35 35.25 -26.1 35.4 -26.6 M12.5 -25.6 Q12.9 -26.7 14.9 -28.6 17.15 -30.8 18.7 -30.6 L19.4 -30.6 Q21.95 -30.4 22.55 -31.1 22.0 -27.35 19.1 -27.35 L18.15 -27.55 18.1 -27.55 Q15.05 -25.7 13.5 -25.0 L12.5 -25.6 M7.5 -15.85 L13.25 -11.5 23.3 -11.85 Q23.3 -14.1 24.5 -14.1 27.35 -14.1 29.5 -12.35 L31.35 -16.7 Q32.45 -19.2 34.05 -20.25 L34.25 -19.1 Q30.5 -12.0 30.3 -11.0 29.15 -11.05 27.95 -11.85 26.8 -12.6 24.55 -12.6 25.65 -11.05 25.05 -10.5 24.15 -9.6 15.0 -9.6 12.55 -9.6 10.4 -11.25 L8.0 -13.5 7.3 -11.35 Q8.8 -8.35 8.8 -7.6 8.8 -5.75 6.35 -5.75 L2.65 -6.05 Q2.1 -6.95 0.55 -8.1 0.55 -9.25 1.6 -9.25 2.25 -9.25 3.4 -8.5 4.7 -7.65 5.55 -7.5 L6.15 -7.2 Q6.75 -7.0 6.75 -7.8 6.75 -9.05 5.55 -11.55 5.55 -12.8 6.05 -15.1 L6.4 -15.45 Q6.75 -15.85 7.5 -15.85" fill="#ffffff" fill-rule="evenodd" stroke="none"/>
    <path d="M45.75 -31.0 Q45.0 -30.6 44.05 -30.5 43.75 -30.9 43.75 -31.4 L43.8 -32.0 44.5 -32.25 Q45.75 -32.0 45.75 -31.0 M44.25 29.55 L44.25 29.75 Q43.05 29.45 43.0 28.8 43.25 28.55 43.75 28.55 44.25 29.0 44.25 29.55 M40.05 10.25 L40.55 11.0 Q40.5 11.3 39.55 11.5 39.3 12.1 39.3 10.85 L39.55 10.3 40.05 10.25 M12.75 34.55 L12.3 35.25 Q11.05 35.05 10.75 34.75 L10.8 33.8 11.5 33.75 Q12.75 33.85 12.75 34.55 M15.4 41.35 L15.55 42.15 15.25 43.0 14.55 43.0 Q14.3 42.55 14.3 41.8 14.55 41.5 15.25 41.5 L15.4 41.35 M38.55 25.8 Q38.5 26.45 38.0 26.55 37.05 26.5 36.8 26.05 L36.8 25.5 Q37.5 25.5 37.5 25.3 L38.55 25.8 M-30.6 -15.5 Q-30.6 -14.9 -31.1 -14.35 L-32.0 -14.35 Q-32.35 -14.9 -32.35 -15.85 -31.95 -16.25 -31.25 -16.25 -30.6 -16.75 -30.6 -15.5 M-15.75 -17.55 L-16.1 -16.75 Q-17.25 -16.9 -17.25 -18.0 L-16.25 -18.1 Q-15.75 -18.8 -15.75 -17.55 M-1.35 3.3 L-2.0 4.0 Q-2.6 3.75 -2.6 3.05 L-1.35 3.3 M-37.1 2.0 L-38.35 2.05 -38.6 1.25 Q-38.0 1.0 -38.0 0.8 -37.25 1.0 -36.85 1.3 L-37.1 2.0 M-30.1 31.25 Q-31.25 31.0 -31.25 30.0 L-30.25 29.8 -30.0 29.7 Q-29.75 29.75 -29.75 30.55 -29.75 31.8 -30.1 31.25 M-35.0 32.1 Q-34.75 32.05 -34.75 32.85 L-35.1 33.75 Q-36.25 33.5 -36.25 32.5 L-35.25 32.3 -35.0 32.1" fill="#ffffff" fill-rule="evenodd" stroke="none"/>
  </g>
</svg>
