<?xml version="1.0" encoding="UTF-8" standalone="no"?>
<svg xmlns:ffdec="https://www.free-decompiler.com/flash" xmlns:xlink="http://www.w3.org/1999/xlink" ffdec:objectType="shape" height="79.1px" width="85.75px" xmlns="http://www.w3.org/2000/svg">
  <g transform="matrix(1.0, 0.0, 0.0, 1.0, 42.25, 36.35)">
    <path d="M23.25 -28.5 Q22.95 -27.85 21.85 -27.75 L20.5 -27.5 16.8 -27.6 16.5 -28.35 16.55 -29.35 17.5 -29.5 20.25 -29.5 20.25 -29.6 20.55 -29.6 20.7 -29.5 21.25 -29.5 22.0 -29.75 23.0 -29.25 Q23.05 -28.85 23.25 -28.5 M36.25 -35.55 Q36.25 -34.7 35.25 -34.5 L35.05 -34.3 34.95 -34.3 34.9 -34.3 34.7 -34.3 30.55 -34.25 Q29.8 -34.6 29.8 -35.5 31.0 -35.5 31.0 -35.75 L34.0 -35.75 34.6 -35.5 35.15 -36.0 36.05 -36.1 Q36.25 -36.8 36.25 -35.55 M37.0 -26.0 L36.4 -24.1 36.55 -24.1 37.05 -23.0 36.5 -22.35 35.7 -22.45 35.55 -22.25 35.0 -22.25 34.8 -23.55 Q34.8 -24.6 35.4 -25.5 36.05 -26.6 37.0 -26.0 M6.0 -10.5 Q6.5 -10.5 10.85 -7.5 12.3 -7.5 13.95 -9.75 15.65 -12.0 16.0 -12.0 L21.45 -11.6 Q21.8 -10.3 23.0 -8.5 23.25 -7.85 22.0 -7.85 19.75 -7.85 19.55 -9.35 19.35 -10.85 18.75 -10.85 16.05 -10.85 14.3 -8.7 12.6 -6.6 11.35 -6.6 10.15 -6.6 8.2 -7.85 L6.05 -9.35 Q4.45 -7.7 3.25 -3.0 L2.6 -3.0 Q2.5 -3.05 2.5 -3.85 4.0 -10.5 6.0 -10.5 M31.05 -14.6 Q33.7 -14.05 34.8 -13.1 34.8 -14.3 35.05 -14.1 L35.55 -14.1 36.5 -13.0 35.8 -12.35 35.3 -12.45 35.25 -12.0 Q32.2 -12.75 30.75 -14.5 L30.75 -14.6 31.05 -14.6 M30.75 -17.0 L30.3 -16.25 30.25 -16.25 30.05 -15.85 Q28.7 -15.85 25.75 -17.45 22.75 -19.05 22.25 -20.1 L22.75 -20.1 Q27.05 -18.8 28.95 -17.55 29.3 -18.1 30.55 -18.1 L30.75 -17.0 M23.55 -14.6 Q24.45 -14.6 27.4 -12.4 28.75 -13.2 29.5 -13.0 28.6 -11.55 27.55 -11.2 L27.25 -11.1 27.2 -11.1 27.0 -11.1 26.95 -11.2 Q26.3 -11.5 25.1 -12.4 23.4 -13.7 23.25 -14.5 L23.25 -14.6 23.55 -14.6" fill="#ffffff" fill-rule="evenodd" stroke="none"/>
    <path d="M-30.0 -15.0 Q-30.0 -14.25 -30.2 -14.3 L-31.35 -14.5 -31.6 -15.5 -31.0 -15.6 Q-30.0 -16.25 -30.0 -15.0 M-36.0 32.5 L-36.8 32.75 -37.5 32.5 Q-37.35 32.05 -36.35 32.05 L-36.0 32.5 M-30.1 32.0 Q-30.45 32.75 -31.5 32.75 -31.85 32.3 -31.85 31.55 L-30.75 31.25 -30.1 32.0 M-40.75 2.05 Q-40.75 2.8 -41.0 2.75 L-41.85 2.55 Q-42.25 2.25 -42.25 1.5 L-41.25 1.3 Q-40.75 0.8 -40.75 2.05 M43.0 26.7 Q43.5 26.7 43.5 27.5 43.5 28.2 43.25 28.15 L42.05 28.0 41.8 27.0 42.5 26.8 43.0 26.7 M16.3 42.5 L15.05 42.75 Q14.5 42.3 14.5 41.55 L15.75 41.3 16.3 42.5 M38.8 5.25 L39.5 4.8 40.55 5.3 Q40.5 5.95 40.0 6.05 38.8 6.0 38.8 5.25 M0.75 5.35 L0.3 6.25 Q-0.75 6.0 -0.75 5.0 L0.25 4.8 Q0.75 4.1 0.75 5.35" fill="#ffffff" fill-rule="evenodd" stroke="none"/>
  </g>
</svg>
