<?xml version="1.0" encoding="UTF-8" standalone="no"?>
<svg xmlns:ffdec="https://www.free-decompiler.com/flash" xmlns:xlink="http://www.w3.org/1999/xlink" ffdec:objectType="shape" height="27.3px" width="19.8px" xmlns="http://www.w3.org/2000/svg">
  <g transform="matrix(1.0, 0.0, 0.0, 1.0, -18.25, 37.4)">
    <path d="M35.05 -37.35 Q35.3 -37.6 35.3 -36.35 L35.25 -35.6 Q34.85 -35.1 34.25 -35.1 L33.3 -35.35 Q33.05 -35.75 33.05 -36.3 33.05 -37.15 35.05 -37.35 M19.8 -28.5 Q19.8 -27.8 19.3 -27.5 18.25 -27.65 18.25 -28.75 L18.5 -29.6 19.25 -29.6 19.8 -28.5 M36.05 -23.25 L35.55 -23.6 35.55 -24.6 36.75 -24.75 37.3 -24.0 Q37.2 -23.25 36.05 -23.25 M30.75 -15.25 Q27.5 -15.6 26.55 -18.1 L27.05 -18.25 30.75 -15.6 30.75 -15.25 M26.0 -12.85 L29.8 -10.5 29.75 -10.1 Q29.2 -10.1 25.55 -12.6 L26.0 -12.85 M34.0 -11.85 Q34.0 -12.25 34.5 -12.5 L38.05 -10.1 Q35.95 -10.45 34.0 -11.85" fill="#ffffff" fill-rule="evenodd" stroke="none"/>
  </g>
</svg>
