<?xml version="1.0" encoding="UTF-8" standalone="no"?>
<svg xmlns:ffdec="https://www.free-decompiler.com/flash" xmlns:xlink="http://www.w3.org/1999/xlink" ffdec:objectType="shape" height="26.8px" width="20.05px" xmlns="http://www.w3.org/2000/svg">
  <g transform="matrix(1.0, 0.0, 0.0, 1.0, -18.75, 35.1)">
    <path d="M20.3 -28.25 L19.0 -28.35 18.9 -28.15 Q18.75 -28.1 18.75 -28.9 18.75 -30.15 19.5 -29.75 20.4 -29.55 20.75 -28.85 L20.3 -28.25 M35.05 -35.1 L34.8 -34.0 34.0 -34.85 35.05 -35.1 M31.25 -15.0 L30.0 -15.5 29.85 -16.1 30.55 -16.25 Q31.3 -16.25 31.75 -15.35 L31.25 -15.0 M28.25 -9.6 Q27.45 -9.6 26.55 -10.85 26.55 -11.1 27.0 -11.35 L28.75 -10.0 Q29.5 -9.6 28.25 -9.6 M38.8 -9.0 Q38.5 -8.6 38.0 -8.35 L37.05 -8.3 Q36.8 -8.3 36.8 -9.05 36.8 -10.3 37.05 -10.1 L37.55 -10.1 38.8 -9.0" fill="#ffffff" fill-rule="evenodd" stroke="none"/>
  </g>
</svg>
