<?xml version="1.0" encoding="UTF-8" standalone="no"?>
<svg xmlns:ffdec="https://www.free-decompiler.com/flash" xmlns:xlink="http://www.w3.org/1999/xlink" ffdec:objectType="shape" height="80.0px" width="72.1px" xmlns="http://www.w3.org/2000/svg">
  <g transform="matrix(1.0, 0.0, 0.0, 1.0, 64.0, 70.25)">
    <path d="M2.95 -21.2 Q2.95 -29.75 -5.1 -44.9 -9.15 -52.5 -13.2 -58.5 -13.2 -60.6 -11.4 -60.6 -7.1 -60.6 -2.4 -51.65 2.4 -40.95 4.15 -37.45 5.45 -34.9 6.8 -26.85 8.1 -19.05 8.1 -14.55 8.1 -12.5 -1.2 -1.1 -3.9 2.45 -9.8 5.5 -18.0 9.75 -27.75 9.75 -36.85 9.75 -50.0 3.95 -59.2 -0.1 -64.0 -3.5 L-64.0 -3.9 Q-61.1 -3.15 -51.55 1.0 -42.95 4.75 -41.1 4.85 -41.55 4.65 -41.55 3.3 -41.55 2.75 -38.05 -1.65 L-24.65 1.3 Q-13.55 1.3 -6.65 -3.55 L-6.9 -5.0 -6.75 -5.85 -10.8 -9.45 -19.25 -17.3 -19.0 -18.75 Q-18.45 -19.25 -17.1 -19.25 L-10.5 -14.85 Q-4.05 -10.45 -3.5 -10.45 -3.0 -11.6 -0.65 -12.2 L-3.3 -19.55 Q-3.3 -21.75 -1.65 -21.75 -0.55 -21.75 1.75 -14.95 2.85 -18.05 2.95 -21.2 M-14.15 -68.6 Q-14.15 -67.85 -15.25 -66.75 -17.35 -66.95 -17.35 -68.75 -17.35 -70.25 -15.7 -70.25 -14.15 -70.25 -14.15 -68.6 M-43.85 -5.25 Q-43.45 -5.2 -43.45 -3.85 -43.45 -2.45 -43.7 -2.4 L-45.2 -1.95 -47.3 -2.3 Q-47.5 -2.3 -47.5 -3.7 -47.5 -5.7 -45.5 -5.55 L-43.85 -5.25 M-36.5 -7.8 Q-35.6 -7.8 -34.3 -5.95 -35.9 -4.25 -37.6 -3.9 L-39.1 -5.4 Q-39.1 -6.25 -38.05 -7.05 -37.1 -7.8 -36.5 -7.8 M-3.5 -21.75 Q-3.5 -19.85 -4.7 -19.85 -6.45 -19.85 -7.75 -20.4 L-7.8 -21.85 Q-7.8 -23.65 -5.7 -23.65 -3.5 -23.65 -3.5 -21.75 M-27.75 6.5 L-25.05 6.15 -31.9 6.35 -27.75 6.5 M-31.9 6.05 L-35.65 5.8 -33.2 6.05 -31.9 6.05" fill="#ffffff" fill-rule="evenodd" stroke="none"/>
  </g>
</svg>
