<?xml version="1.0" encoding="UTF-8" standalone="no"?>
<svg xmlns:ffdec="https://www.free-decompiler.com/flash" xmlns:xlink="http://www.w3.org/1999/xlink" ffdec:objectType="shape" height="71.9px" width="75.85px" xmlns="http://www.w3.org/2000/svg">
  <g transform="matrix(1.0, 0.0, 0.0, 1.0, 69.7, 66.55)">
    <path d="M6.15 -24.8 Q4.4 -18.3 3.05 -16.1 3.45 -14.95 3.35 -13.15 3.35 -12.5 2.15 -10.8 L2.55 -8.7 Q-7.7 3.45 -12.85 3.45 L-14.8 3.05 Q-22.0 5.35 -30.7 5.35 -43.85 5.35 -52.25 3.2 -60.45 1.1 -60.45 -2.05 -60.45 -4.3 -58.55 -4.35 L-58.7 -5.25 Q-58.7 -8.0 -56.75 -8.0 -55.25 -8.0 -54.85 -6.5 L-54.75 -4.85 Q-54.75 -3.65 -55.65 -3.3 L-51.75 -2.85 -45.95 -1.6 Q-46.45 -2.1 -46.4 -3.15 -46.4 -4.9 -44.8 -4.9 -42.65 -4.9 -42.65 -3.15 -42.65 -2.65 -43.1 -2.0 -43.6 -1.3 -44.25 -1.15 -37.85 0.45 -35.2 0.45 L-26.65 -0.25 -23.55 -0.75 Q-22.6 -2.35 -17.65 -4.05 -10.7 -6.1 -9.1 -6.9 L-14.9 -10.3 Q-16.7 -11.5 -16.7 -13.25 -16.7 -15.35 -14.5 -15.35 -12.05 -15.35 -8.15 -13.25 -4.6 -11.35 -3.65 -10.0 L-0.8 -12.55 Q-0.8 -12.95 -1.55 -14.1 -2.35 -15.25 -2.35 -16.1 -2.5 -18.25 -0.35 -18.25 L0.7 -18.15 -0.05 -23.25 Q-1.25 -33.2 -2.15 -35.9 L-5.45 -46.7 -10.0 -52.65 -14.45 -59.45 Q-14.45 -60.3 -14.15 -60.75 -15.55 -61.2 -15.35 -62.9 -15.35 -63.8 -14.9 -64.35 L-15.0 -64.8 Q-15.0 -66.55 -12.7 -66.55 -11.3 -66.55 -10.8 -65.7 L-10.6 -64.7 -10.8 -64.0 Q-10.6 -63.5 -10.7 -62.8 -10.7 -61.75 -11.3 -61.2 -9.3 -60.65 -7.45 -58.75 -6.95 -59.25 -6.1 -59.25 -4.5 -59.25 -1.55 -52.25 0.85 -46.65 2.15 -41.85 L4.95 -32.8 Q6.15 -28.75 6.15 -24.8 M-15.9 -62.25 Q-15.9 -61.7 -16.4 -60.85 -17.05 -59.8 -17.85 -59.8 -20.75 -59.8 -20.9 -62.5 -20.9 -64.4 -18.05 -64.4 -16.5 -64.4 -16.05 -63.35 L-15.9 -62.25 M-66.7 -7.25 Q-66.45 -6.85 -66.45 -6.45 -66.45 -5.8 -67.05 -5.3 L-67.7 -4.9 Q-69.95 -4.9 -69.65 -6.7 -69.65 -8.0 -68.35 -8.0 -67.2 -8.0 -66.7 -7.25 M-35.5 -8.3 Q-35.5 -6.5 -37.45 -6.5 -39.15 -6.5 -39.15 -8.0 -39.15 -9.6 -36.75 -9.6 -35.5 -9.6 -35.5 -8.3 M-5.55 -21.9 Q-7.9 -21.9 -7.5 -24.55 -7.5 -25.95 -6.1 -25.95 -4.1 -25.95 -3.65 -23.7 -3.65 -21.9 -5.55 -21.9 M-16.15 -19.0 L-15.8 -17.05 Q-15.8 -14.4 -17.85 -14.4 -20.7 -14.4 -20.5 -18.4 -20.5 -20.9 -18.55 -20.9 -16.85 -20.9 -16.15 -19.0" fill="#ffffff" fill-rule="evenodd" stroke="none"/>
  </g>
</svg>
