<?xml version="1.0" encoding="UTF-8" standalone="no"?>
<svg xmlns:ffdec="https://www.free-decompiler.com/flash" xmlns:xlink="http://www.w3.org/1999/xlink" ffdec:objectType="shape" height="78.95px" width="76.1px" xmlns="http://www.w3.org/2000/svg">
  <g transform="matrix(1.0, 0.0, 0.0, 1.0, 71.6, 72.45)">
    <path d="M3.9 -9.1 Q3.9 -7.8 1.45 -4.6 -1.15 -1.2 -2.75 -1.2 L-4.1 -1.4 Q-6.65 -0.2 -11.95 -0.25 -10.85 0.35 -10.85 1.7 -10.85 3.1 -13.1 4.1 -15.95 5.35 -21.1 5.05 L-21.1 5.4 -25.85 5.45 Q-26.55 6.5 -28.85 6.5 -46.45 6.5 -58.9 3.45 -69.05 0.95 -70.7 -1.85 L-70.7 -3.05 Q-70.6 -3.6 -69.2 -3.6 -56.55 0.45 -52.85 0.6 L-52.15 0.55 Q-53.4 -0.1 -53.4 -1.5 -53.4 -3.85 -50.9 -3.85 -48.65 -3.85 -37.0 0.1 L-34.15 1.1 -34.3 0.0 Q-34.3 -1.8 -19.7 -3.75 -5.15 -5.65 -5.15 -7.2 L-8.35 -10.3 -8.35 -10.45 -7.8 -10.45 Q-7.15 -10.45 -2.9 -6.15 L-1.75 -7.5 Q1.35 -11.0 2.1 -11.0 3.9 -11.0 3.9 -9.1 M4.3 -37.85 Q3.95 -37.45 2.6 -37.45 1.0 -37.45 0.45 -38.35 L-0.25 -39.9 -0.85 -39.05 Q-4.0 -42.6 -9.85 -52.55 -15.4 -62.05 -15.4 -63.25 -15.4 -64.95 -13.6 -64.95 -8.3 -64.95 4.5 -39.1 L4.3 -37.85 M-24.5 -66.8 Q-24.5 -69.2 -22.3 -69.2 -20.75 -69.2 -20.25 -67.9 -20.1 -67.45 -20.1 -66.45 -20.1 -63.85 -22.3 -63.85 -24.75 -63.85 -24.5 -66.8 M-17.9 -70.7 L-18.15 -69.75 -19.55 -69.2 -21.2 -70.85 Q-21.2 -72.35 -19.55 -72.45 L-17.9 -70.7 M-71.35 -10.4 L-70.05 -10.55 Q-69.4 -10.55 -68.5 -9.9 -68.3 -10.7 -68.3 -9.35 -68.3 -8.5 -68.75 -8.1 L-69.2 -7.8 -71.35 -8.0 -71.6 -9.25 -71.35 -10.4 M-56.9 -10.2 Q-54.55 -10.2 -54.55 -8.3 -54.55 -6.25 -56.95 -6.25 L-58.95 -6.65 -59.25 -8.1 Q-59.25 -10.2 -56.9 -10.2 M-3.85 -25.6 L-4.05 -24.3 -4.3 -23.95 Q-4.45 -23.65 -5.25 -23.65 -6.6 -23.65 -7.75 -24.2 L-7.8 -25.7 -7.6 -27.05 Q-7.35 -27.5 -5.95 -27.5 -3.85 -27.5 -3.85 -25.6 M-23.15 -19.5 Q-23.15 -22.05 -20.65 -22.05 -19.0 -22.05 -18.45 -20.85 L-18.25 -19.5 Q-18.25 -17.25 -20.75 -17.25 -23.65 -17.25 -23.15 -19.5 M-38.6 -8.0 L-38.8 -9.4 Q-38.8 -11.55 -37.05 -11.55 -36.15 -11.55 -35.55 -10.45 -35.1 -9.65 -35.1 -9.25 -35.1 -8.8 -35.4 -8.0 L-37.1 -7.6 -38.6 -8.0 M-10.3 -15.4 L-8.55 -13.65 -8.9 -12.2 Q-9.25 -12.2 -9.65 -11.8 -12.1 -11.8 -12.1 -13.6 -12.1 -14.65 -10.3 -15.4" fill="#ffffff" fill-rule="evenodd" stroke="none"/>
  </g>
</svg>
