<?xml version="1.0" encoding="UTF-8" standalone="no"?>
<svg xmlns:ffdec="https://www.free-decompiler.com/flash" xmlns:xlink="http://www.w3.org/1999/xlink" ffdec:objectType="shape" height="74.15px" width="78.05px" xmlns="http://www.w3.org/2000/svg">
  <g transform="matrix(1.0, 0.0, 0.0, 1.0, 80.1, 69.85)">
    <path d="M-24.6 -66.9 Q-24.6 -67.9 -21.4 -69.75 -19.8 -69.75 -19.8 -68.45 -19.8 -67.7 -20.45 -66.75 -21.4 -65.45 -23.05 -65.45 -24.6 -65.45 -24.6 -66.9 M-15.6 -69.1 Q-15.45 -68.75 -15.45 -68.25 -15.45 -67.75 -15.6 -67.4 -15.9 -66.65 -16.8 -66.65 -16.95 -66.65 -18.05 -67.15 L-18.1 -68.25 Q-18.4 -69.85 -16.8 -69.85 -15.9 -69.85 -15.6 -69.1 M-9.65 -63.95 Q-7.6 -63.95 -3.2 -49.65 -3.2 -48.25 -4.65 -48.25 -7.5 -48.25 -12.7 -59.5 -12.7 -63.95 -9.65 -63.95 M-77.75 -16.4 Q-77.75 -15.9 -78.5 -15.05 -80.1 -14.8 -80.1 -16.2 -80.1 -17.7 -78.85 -17.7 -77.75 -17.7 -77.75 -16.4 M-74.9 -11.1 Q-74.9 -13.1 -73.15 -13.1 -72.4 -13.1 -71.8 -11.85 L-71.35 -10.5 Q-71.35 -9.05 -72.35 -9.05 -74.85 -9.05 -74.9 -11.1 M-76.7 -5.45 L-60.6 -1.15 -59.75 -3.1 Q-58.65 -5.45 -58.15 -5.45 L-54.05 -4.55 -40.15 -3.7 -30.4 -2.75 Q-21.4 -1.6 -21.4 -0.4 -21.4 2.8 -53.7 2.8 L-55.9 2.75 -56.9 3.1 Q-60.3 4.3 -63.85 4.3 -68.2 4.3 -79.0 -3.4 -79.0 -5.45 -76.7 -5.45 M-58.6 -11.75 Q-58.35 -11.2 -58.35 -10.45 -58.35 -9.05 -59.5 -9.05 -62.4 -9.05 -62.15 -11.1 -62.15 -12.9 -60.65 -12.9 -59.15 -12.9 -58.6 -11.75 M-7.0 -27.1 Q-5.0 -27.1 -5.2 -24.8 -5.2 -23.4 -6.7 -23.4 -9.35 -23.4 -8.85 -25.35 -8.85 -27.1 -7.0 -27.1 M-21.8 -23.7 Q-19.65 -23.7 -19.65 -22.25 -19.65 -20.3 -22.2 -20.3 -23.8 -20.3 -23.9 -22.2 -23.9 -23.7 -21.8 -23.7 M-34.7 -5.6 Q-34.7 -4.45 -36.3 -4.15 -38.55 -4.15 -38.2 -6.1 -38.2 -7.9 -36.6 -7.9 -35.45 -7.9 -34.95 -6.8 L-34.7 -5.6 M-20.6 -5.9 L-20.35 -4.9 Q-20.35 -3.05 -22.35 -3.05 -24.45 -3.05 -24.25 -4.9 -24.25 -6.8 -22.35 -6.8 -21.1 -6.8 -20.6 -5.9 M-11.05 -13.55 Q-11.05 -12.15 -12.55 -12.15 -14.35 -12.15 -14.35 -13.55 -14.45 -15.7 -12.85 -15.7 -12.0 -15.7 -11.45 -14.7 L-11.05 -13.55 M-10.55 -4.6 Q-7.0 -6.3 -4.3 -6.3 -2.1 -6.3 -2.05 -4.3 -2.05 -0.5 -11.8 -0.5 -14.3 -0.5 -13.85 -2.25 -13.85 -3.0 -10.55 -4.6" fill="#ffffff" fill-rule="evenodd" stroke="none"/>
  </g>
</svg>
