<?xml version="1.0" encoding="UTF-8" standalone="no"?>
<svg xmlns:ffdec="https://www.free-decompiler.com/flash" xmlns:xlink="http://www.w3.org/1999/xlink" ffdec:objectType="shape" height="81.35px" width="83.5px" xmlns="http://www.w3.org/2000/svg">
  <g transform="matrix(1.0, 0.0, 0.0, 1.0, 87.55, 78.3)">
    <path d="M-85.55 -11.3 Q-82.9 -11.3 -75.75 -7.05 -67.95 -2.4 -65.5 1.55 L-67.0 3.05 Q-69.9 3.05 -77.6 -1.75 -85.95 -7.0 -87.0 -10.85 -86.95 -11.3 -85.55 -11.3 M-85.25 -25.05 Q-85.8 -25.05 -86.2 -24.65 L-87.25 -24.65 Q-87.55 -24.7 -87.55 -25.55 -87.55 -26.4 -87.25 -26.5 L-86.65 -26.5 Q-85.9 -26.3 -85.25 -25.05 M-25.05 -78.3 Q-24.3 -78.15 -23.7 -77.25 L-23.2 -76.2 -23.55 -75.2 -24.5 -74.8 Q-26.7 -74.8 -26.7 -77.0 -26.7 -78.05 -25.05 -78.3 M-21.2 -70.3 Q-21.2 -69.85 -21.75 -69.05 -22.3 -68.3 -22.65 -68.3 -23.7 -68.3 -25.05 -68.85 L-25.3 -70.15 -25.05 -71.8 Q-24.8 -72.15 -23.4 -72.15 -21.2 -72.15 -21.2 -70.3 M-17.35 -69.05 Q-15.05 -69.05 -10.45 -62.65 L-4.05 -53.25 -4.05 -52.45 Q-4.7 -51.6 -5.5 -51.6 -6.7 -51.6 -12.9 -59.5 -18.9 -67.1 -18.9 -67.55 L-18.75 -68.8 -17.35 -69.05 M-65.9 -17.25 Q-63.1 -17.25 -61.6 -15.75 -60.5 -14.65 -60.5 -13.5 -60.5 -12.85 -61.75 -12.35 L-63.5 -11.95 Q-67.95 -11.95 -67.95 -15.3 -67.95 -17.25 -65.9 -17.25 M-79.6 -16.0 Q-78.95 -16.55 -78.4 -16.5 L-76.7 -14.75 Q-76.7 -14.15 -78.4 -12.9 -80.3 -14.45 -80.3 -14.85 -80.3 -15.45 -79.6 -16.0 M-64.75 -2.8 L-64.9 -3.75 Q-64.9 -5.15 -64.35 -6.9 -64.6 -7.2 -63.25 -7.2 -52.45 -3.05 -47.95 -2.3 L-35.15 -0.05 Q-34.8 -0.85 -33.2 -1.4 L-31.65 0.0 Q-31.65 1.35 -32.0 1.55 -33.2 1.55 -33.2 1.95 L-34.05 1.5 Q-35.9 3.05 -38.7 2.7 -40.6 2.5 -42.2 1.7 -46.15 1.7 -53.3 -0.2 L-63.8 -2.75 -64.75 -2.8 M-44.95 -7.05 Q-44.95 -8.9 -42.45 -8.9 -39.6 -8.9 -39.6 -7.15 -39.6 -5.15 -42.45 -5.15 -44.95 -5.15 -44.95 -7.05 M-5.8 -36.05 L-6.5 -35.4 -7.2 -36.35 -5.8 -36.05 M-25.3 -26.4 Q-25.05 -26.8 -25.05 -25.4 L-25.2 -24.3 -27.2 -23.95 -28.85 -25.5 Q-28.85 -27.2 -27.2 -27.2 -26.4 -27.2 -25.3 -26.4 M-22.3 -6.35 L-20.4 -4.85 Q-20.4 -3.5 -20.65 -3.85 -21.75 -3.85 -21.75 -3.35 -23.75 -4.55 -23.75 -5.0 -23.75 -6.15 -22.3 -6.35 M-9.25 -21.5 Q-10.85 -23.05 -10.85 -23.4 -10.85 -23.65 -10.05 -23.9 -9.25 -24.15 -9.25 -25.05 L-7.6 -23.35 Q-7.6 -21.75 -9.25 -21.5 M-19.8 -19.5 Q-19.8 -20.9 -18.45 -20.8 L-17.25 -19.7 -17.9 -18.45 -19.25 -18.45 -19.65 -18.65 -19.8 -19.5" fill="#ffffff" fill-rule="evenodd" stroke="none"/>
  </g>
</svg>
