<?xml version="1.0" encoding="UTF-8" standalone="no"?>
<svg xmlns:ffdec="https://www.free-decompiler.com/flash" xmlns:xlink="http://www.w3.org/1999/xlink" ffdec:objectType="shape" height="75.2px" width="86.05px" xmlns="http://www.w3.org/2000/svg">
  <g transform="matrix(1.0, 0.0, 0.0, 1.0, 91.7, 76.8)">
    <path d="M-82.65 -25.0 L-82.65 -24.45 -82.75 -24.15 -82.95 -23.9 -84.0 -24.0 -84.0 -25.2 -83.3 -25.3 Q-82.7 -25.3 -82.65 -25.0 M-90.6 -31.6 L-91.4 -31.7 -91.7 -32.25 Q-91.7 -32.9 -90.95 -33.1 -90.05 -32.75 -90.0 -32.05 L-90.6 -31.6 M-84.2 -16.65 Q-83.05 -16.65 -75.55 -6.45 -75.55 -3.7 -78.85 -3.7 -82.3 -3.7 -88.2 -13.9 -88.2 -14.4 -86.35 -15.55 L-84.2 -16.65 M-22.5 -76.8 Q-21.35 -75.9 -21.35 -75.65 -21.35 -75.05 -22.05 -74.35 -23.65 -75.3 -23.65 -75.6 -23.65 -76.3 -22.5 -76.8 M-22.3 -71.75 L-22.3 -71.15 Q-22.75 -70.6 -23.25 -70.6 L-24.2 -70.9 -24.45 -71.75 -24.35 -72.6 -23.55 -72.75 Q-23.1 -72.75 -22.3 -71.75 M-28.1 -68.15 Q-28.35 -67.55 -28.55 -67.3 L-29.7 -67.3 Q-30.05 -67.7 -30.05 -68.2 -30.05 -69.0 -28.75 -69.0 L-28.1 -68.15 M-16.8 -69.1 Q-16.4 -69.1 -6.5 -53.7 L-6.7 -52.85 -7.85 -52.35 Q-12.0 -52.35 -18.55 -67.25 -17.25 -69.1 -16.8 -69.1 M-40.7 -44.0 Q-40.1 -43.75 -39.95 -43.25 -40.1 -42.75 -40.7 -42.5 L-41.4 -42.95 Q-41.4 -43.65 -40.7 -44.0 M-74.2 -19.95 Q-73.15 -19.95 -73.15 -18.65 L-73.2 -17.8 -74.2 -17.3 Q-75.25 -18.25 -75.25 -18.65 -75.25 -19.95 -74.2 -19.95 M-76.95 -14.95 L-77.4 -14.2 -78.5 -14.3 -78.55 -15.0 -78.4 -16.3 -77.25 -16.35 -76.95 -14.95 M-63.15 -13.35 Q-62.0 -13.35 -50.4 -3.45 -50.4 -1.6 -52.1 -1.6 -53.1 -1.6 -55.75 -3.15 -58.4 -4.7 -59.05 -4.7 -63.4 -4.7 -65.1 -11.75 -65.1 -13.35 -63.15 -13.35 M-6.45 -37.8 L-5.65 -37.35 Q-5.75 -36.75 -6.8 -36.75 L-6.95 -37.2 Q-6.95 -38.2 -6.45 -37.8 M-25.5 -26.05 Q-25.5 -25.6 -26.3 -24.65 -28.0 -24.75 -28.0 -26.05 -28.0 -27.35 -26.75 -27.35 -25.5 -27.35 -25.5 -26.05 M-35.95 -31.5 L-36.75 -31.15 Q-37.55 -31.35 -37.55 -32.2 -37.55 -32.9 -36.75 -33.2 -35.7 -32.9 -35.7 -32.35 L-35.95 -31.5 M-38.8 -2.65 Q-41.9 -2.65 -41.5 -4.9 -41.5 -6.5 -39.95 -6.5 -38.7 -6.5 -38.0 -5.35 -37.55 -4.6 -37.55 -4.1 -37.55 -2.65 -38.8 -2.65 M-21.95 -6.3 Q-21.95 -7.35 -21.05 -7.35 -20.15 -7.35 -20.15 -5.45 L-21.05 -5.1 Q-21.95 -6.0 -21.95 -6.3 M-6.35 -21.35 Q-7.05 -20.3 -7.6 -20.3 -10.9 -20.3 -10.35 -22.7 -10.35 -23.3 -9.8 -24.1 -9.05 -25.2 -7.85 -25.2 -5.55 -25.2 -5.7 -22.95 -5.7 -22.35 -6.35 -21.35 M-17.6 -18.1 L-17.65 -17.2 -18.2 -16.75 Q-19.55 -16.85 -19.55 -18.15 -19.55 -18.9 -18.55 -19.1 -17.6 -18.85 -17.6 -18.1" fill="#ffffff" fill-rule="evenodd" stroke="none"/>
  </g>
</svg>
