<?xml version="1.0" encoding="UTF-8" standalone="no"?>
<svg xmlns:ffdec="https://www.free-decompiler.com/flash" xmlns:xlink="http://www.w3.org/1999/xlink" ffdec:objectType="shape" height="70.2px" width="80.25px" xmlns="http://www.w3.org/2000/svg">
  <g transform="matrix(1.0, 0.0, 0.0, 1.0, 95.75, 83.1)">
    <path d="M-93.95 -34.15 Q-92.55 -34.15 -92.25 -32.95 L-92.15 -31.45 -92.1 -31.1 Q-92.25 -30.8 -93.15 -30.8 -93.9 -30.8 -95.75 -32.2 -94.85 -34.15 -93.95 -34.15 M-87.7 -21.5 Q-86.6 -21.5 -84.05 -18.1 -81.9 -15.25 -81.05 -13.45 -81.4 -12.9 -82.9 -12.9 -86.55 -12.9 -90.3 -19.1 -90.3 -20.9 -87.7 -21.5 M-27.75 -83.1 Q-26.65 -83.1 -26.4 -82.0 -26.4 -81.15 -27.2 -80.35 L-28.85 -80.5 -29.15 -81.7 -28.85 -82.8 Q-29.15 -83.1 -27.75 -83.1 M-21.35 -68.65 L-20.1 -68.85 -19.15 -68.1 -19.3 -70.7 Q-19.65 -70.95 -18.25 -70.95 -15.5 -68.4 -15.5 -66.85 L-16.25 -65.65 Q-17.7 -66.1 -18.45 -66.7 -18.75 -66.05 -19.55 -65.65 -21.5 -66.75 -21.5 -67.2 L-21.35 -68.65 M-29.55 -69.2 L-29.55 -68.1 Q-29.65 -67.7 -30.5 -67.7 L-32.75 -67.75 Q-32.75 -68.25 -33.1 -69.3 -33.1 -70.65 -31.35 -70.7 L-29.55 -69.2 M-40.8 -43.15 L-39.6 -42.05 Q-39.8 -41.15 -40.8 -40.7 -41.8 -41.05 -42.05 -41.8 -41.85 -42.85 -40.8 -43.15 M-67.95 -16.05 L-67.7 -15.25 Q-67.7 -14.25 -69.75 -13.05 -71.35 -14.35 -71.35 -14.95 -71.35 -16.8 -69.75 -16.8 -68.5 -16.8 -67.95 -16.05 M-76.75 -21.2 L-76.7 -20.4 -77.3 -19.55 -78.65 -19.55 -79.2 -20.8 Q-79.2 -22.2 -77.85 -21.9 L-76.75 -21.2 M-32.55 -30.55 L-32.75 -29.15 -33.1 -28.85 Q-33.35 -28.6 -34.15 -28.6 -35.45 -28.6 -36.5 -29.15 L-36.75 -30.35 -36.5 -32.0 Q-36.2 -32.45 -34.85 -32.45 -32.55 -32.45 -32.55 -30.55 M-25.85 -27.25 L-25.95 -26.65 -25.95 -26.1 Q-25.9 -25.85 -26.7 -25.85 -27.7 -25.85 -28.7 -26.4 L-29.15 -28.05 Q-28.1 -29.0 -27.2 -29.0 -25.85 -29.0 -25.85 -27.25" fill="#ffffff" fill-rule="evenodd" stroke="none"/>
  </g>
</svg>
