<?xml version="1.0" encoding="UTF-8" standalone="no"?>
<svg xmlns:ffdec="https://www.free-decompiler.com/flash" xmlns:xlink="http://www.w3.org/1999/xlink" ffdec:objectType="shape" height="58.65px" width="78.05px" xmlns="http://www.w3.org/2000/svg">
  <g transform="matrix(1.0, 0.0, 0.0, 1.0, 95.7, 73.05)">
    <path d="M-93.2 -32.8 Q-93.35 -32.05 -93.9 -32.05 -95.7 -32.05 -95.7 -33.6 -95.7 -34.7 -94.55 -34.7 -93.75 -34.7 -93.2 -32.8 M-83.1 -30.75 Q-82.5 -30.75 -82.15 -29.7 L-82.75 -28.7 Q-84.35 -29.4 -84.35 -29.75 -84.35 -30.75 -83.1 -30.75 M-88.75 -26.05 L-88.95 -25.45 Q-89.2 -24.9 -89.9 -24.75 L-90.7 -25.2 Q-90.25 -26.35 -89.55 -26.8 -88.9 -26.5 -88.75 -26.05 M-87.75 -23.9 Q-86.85 -23.9 -85.55 -21.05 -84.45 -18.55 -84.45 -18.05 -84.45 -16.85 -87.05 -16.85 -88.6 -16.85 -90.0 -22.1 -90.0 -23.9 -87.75 -23.9 M-31.5 -70.8 Q-31.5 -72.35 -29.6 -72.0 -28.75 -71.8 -28.75 -70.85 -28.75 -69.2 -30.35 -69.2 -31.65 -69.2 -31.5 -70.8 M-17.65 -70.05 Q-17.65 -67.9 -19.65 -67.9 -22.7 -67.9 -22.65 -69.5 -22.65 -70.25 -19.65 -73.05 -18.45 -73.05 -17.95 -71.6 L-17.65 -70.05 M-42.55 -41.75 L-43.55 -41.35 -44.6 -42.55 -43.55 -43.65 -42.45 -42.45 -42.55 -41.75 M-70.2 -14.4 L-71.8 -14.75 -71.95 -15.8 Q-71.95 -17.4 -70.65 -17.4 -69.9 -17.4 -69.55 -16.65 L-69.3 -15.85 Q-69.3 -14.4 -70.2 -14.4 M-76.45 -21.8 L-76.5 -21.05 -77.8 -20.5 -78.95 -20.8 -79.1 -21.95 Q-79.1 -23.25 -77.75 -23.25 -76.45 -23.25 -76.45 -21.8 M-35.5 -33.4 L-35.15 -32.4 -35.3 -31.4 -36.4 -31.05 Q-38.3 -31.05 -38.0 -32.95 -38.0 -34.4 -36.75 -34.4 -36.0 -34.4 -35.5 -33.4 M-31.75 -29.4 Q-31.75 -30.4 -30.7 -30.45 L-29.6 -29.3 -29.7 -28.6 -30.7 -28.2 -31.75 -29.4" fill="#ffffff" fill-rule="evenodd" stroke="none"/>
  </g>
</svg>
