<?xml version="1.0" encoding="UTF-8" standalone="no"?>
<svg xmlns:ffdec="https://www.free-decompiler.com/flash" xmlns:xlink="http://www.w3.org/1999/xlink" ffdec:objectType="shape" height="53.35px" width="76.2px" xmlns="http://www.w3.org/2000/svg">
  <g transform="matrix(1.0, 0.0, 0.0, 1.0, 96.3, 78.1)">
    <path d="M-92.4 -33.55 Q-92.6 -31.6 -93.7 -31.6 L-96.0 -32.0 -96.3 -33.2 -96.0 -34.4 -94.5 -34.7 Q-92.8 -34.7 -92.4 -33.55 M-89.65 -26.55 L-89.1 -26.5 Q-88.15 -26.05 -88.0 -25.4 L-88.4 -24.75 -89.9 -25.05 -89.95 -24.8 -90.05 -25.6 Q-90.05 -26.45 -89.65 -26.55 M-82.25 -28.3 L-83.9 -28.45 Q-83.8 -30.65 -82.55 -31.1 -81.7 -30.65 -81.7 -29.15 L-82.25 -28.3 M-22.05 -78.1 L-20.1 -76.45 -20.4 -75.6 -20.65 -75.2 Q-22.9 -75.35 -23.15 -75.95 L-23.15 -77.3 Q-22.9 -78.1 -22.05 -78.1 M-31.6 -73.25 Q-30.75 -73.25 -29.95 -72.45 -29.8 -73.2 -29.8 -71.8 -29.8 -70.95 -30.2 -70.75 L-31.05 -70.5 -33.0 -71.9 Q-33.0 -72.9 -32.8 -73.1 L-31.6 -73.25 M-46.1 -42.55 L-45.95 -41.8 -45.95 -40.55 -48.6 -40.15 Q-49.25 -40.8 -49.25 -41.45 -49.25 -43.0 -47.05 -43.0 -46.25 -43.0 -46.1 -42.55 M-37.6 -35.75 L-37.7 -34.7 Q-38.05 -34.7 -38.05 -34.3 L-39.6 -34.4 -39.7 -35.65 Q-39.7 -36.75 -38.6 -37.05 -37.6 -36.55 -37.6 -35.75" fill="#ffffff" fill-rule="evenodd" stroke="none"/>
  </g>
</svg>
