<?xml version="1.0" encoding="UTF-8" standalone="no"?>
<svg xmlns:ffdec="https://www.free-decompiler.com/flash" xmlns:xlink="http://www.w3.org/1999/xlink" ffdec:objectType="shape" height="42.7px" width="77.5px" xmlns="http://www.w3.org/2000/svg">
  <g transform="matrix(1.0, 0.0, 0.0, 1.0, 101.5, 73.25)">
    <path d="M-97.75 -35.75 Q-98.85 -34.4 -99.35 -34.4 -100.35 -34.4 -101.5 -35.25 -100.4 -37.05 -99.35 -37.05 -98.65 -37.05 -97.75 -35.75 M-93.0 -31.6 L-93.35 -30.85 Q-93.4 -30.65 -94.2 -30.55 -95.15 -30.8 -95.15 -31.6 -95.15 -32.25 -94.2 -32.65 L-93.0 -31.6 M-24.2 -73.05 Q-24.0 -73.2 -24.0 -72.2 -24.0 -71.65 -25.0 -70.8 -26.4 -71.6 -26.4 -71.95 L-26.25 -73.05 -25.2 -73.25 -24.2 -73.05 M-45.2 -44.85 L-45.15 -44.45 -45.2 -43.7 Q-46.05 -43.7 -46.05 -43.35 L-47.35 -44.3 Q-47.35 -45.4 -46.4 -45.4 -45.95 -45.4 -45.2 -44.85" fill="#ffffff" fill-rule="evenodd" stroke="none"/>
  </g>
</svg>
