<?xml version="1.0" encoding="UTF-8" standalone="no"?>
<svg xmlns:ffdec="https://www.free-decompiler.com/flash" xmlns:xlink="http://www.w3.org/1999/xlink" ffdec:objectType="shape" height="52.85px" width="79.0px" xmlns="http://www.w3.org/2000/svg">
  <g transform="matrix(1.0, 0.0, 0.0, 1.0, 104.2, 88.1)">
    <path d="M-101.75 -36.6 Q-102.0 -35.6 -102.95 -35.25 -103.9 -35.55 -104.2 -36.35 -104.0 -37.3 -102.95 -37.7 -102.3 -37.45 -101.75 -36.6 M-25.2 -87.3 L-25.7 -86.2 -26.7 -86.35 -26.85 -86.25 Q-27.05 -86.3 -27.05 -87.15 -27.05 -88.1 -25.85 -88.1 L-25.2 -87.3 M-47.5 -46.85 L-48.5 -46.45 -49.5 -47.05 Q-49.5 -47.9 -48.5 -48.4 -47.5 -47.85 -47.5 -46.85 M-43.7 -48.4 Q-44.8 -48.45 -44.8 -49.25 L-43.45 -49.15 -43.7 -48.4" fill="#ffffff" fill-rule="evenodd" stroke="none"/>
  </g>
</svg>
