<?xml version="1.0" encoding="UTF-8" standalone="no"?>
<svg xmlns:ffdec="https://www.free-decompiler.com/flash" xmlns:xlink="http://www.w3.org/1999/xlink" ffdec:objectType="shape" height="33.3px" width="37.5px" xmlns="http://www.w3.org/2000/svg">
  <g transform="matrix(1.0, 0.0, 0.0, 1.0, 28.7, 28.45)">
    <path d="M8.65 -9.9 Q8.35 4.85 5.6 4.85 0.2 4.85 -9.1 -1.7 -9.1 -3.25 -7.35 -3.85 L-28.7 -17.85 Q-28.7 -20.55 -25.85 -20.55 -24.45 -20.55 -15.4 -15.85 -4.5 -10.2 -1.85 -9.1 -2.2 -11.2 -3.9 -15.85 -3.9 -23.4 -1.1 -23.4 0.05 -23.4 2.95 -15.2 3.75 -17.25 5.4 -17.25 9.55 -17.25 8.65 -9.9 M-10.85 -28.45 Q-8.3 -28.45 -8.25 -24.95 -8.25 -24.5 -8.8 -23.6 -9.4 -22.6 -10.0 -22.6 -14.05 -22.6 -13.3 -25.35 -13.3 -28.45 -10.85 -28.45" fill="#ffffff" fill-rule="evenodd" stroke="none"/>
  </g>
</svg>
