<?xml version="1.0" encoding="UTF-8" standalone="no"?>
<svg xmlns:ffdec="https://www.free-decompiler.com/flash" xmlns:xlink="http://www.w3.org/1999/xlink" ffdec:objectType="shape" height="80.2px" width="128.2px" xmlns="http://www.w3.org/2000/svg">
  <g transform="matrix(1.0, 0.0, 0.0, 1.0, 107.0, 81.05)">
    <path d="M21.2 -58.85 L20.9 -57.6 Q21.1 -56.9 19.7 -56.9 18.5 -56.9 17.35 -57.45 L17.1 -58.7 Q17.1 -60.75 19.3 -60.75 21.2 -60.75 21.2 -58.85 M0.45 -26.1 L2.1 -23.7 4.85 -37.45 Q7.35 -46.85 11.85 -46.85 14.9 -46.85 14.05 -43.1 7.6 -12.75 2.4 -12.75 -3.05 -12.75 -5.25 -21.75 L-5.6 -23.35 -5.75 -23.7 -6.35 -23.55 Q-8.75 -23.55 -18.8 -49.85 L-28.45 -76.2 Q-28.45 -78.95 -24.5 -78.95 L-4.2 -34.15 Q-1.75 -32.6 0.05 -27.35 L0.45 -26.1 M2.65 -45.1 Q0.75 -45.9 0.75 -47.4 0.75 -48.45 3.2 -49.7 L4.95 -48.05 Q4.95 -47.5 4.1 -46.4 L2.65 -45.1 M-104.05 -49.95 L-104.6 -48.7 -106.8 -48.4 -107.0 -49.75 Q-107.0 -51.05 -105.7 -51.45 L-104.05 -49.95 M-85.55 -42.4 L-85.8 -41.8 Q-86.0 -41.0 -87.3 -41.0 L-88.4 -41.35 Q-88.8 -42.05 -88.8 -42.6 L-88.55 -43.85 Q-87.2 -43.85 -87.2 -44.1 L-85.55 -42.4 M-98.1 -44.6 L-98.2 -44.0 Q-98.75 -43.15 -100.55 -43.15 -101.3 -43.9 -101.3 -44.6 L-100.45 -44.85 Q-99.65 -45.1 -99.65 -46.3 -98.1 -45.05 -98.1 -44.6 M-83.7 -36.05 Q-82.45 -37.05 -81.7 -37.05 -74.8 -37.05 -46.3 -25.05 -27.75 -17.25 -21.05 -12.9 -15.05 -12.8 -10.55 -4.85 -10.55 -4.5 -12.35 -2.75 -14.4 -0.85 -15.5 -0.85 L-30.8 -1.1 Q-33.9 -1.1 -35.55 -2.55 -36.55 -3.45 -36.7 -4.45 L-36.9 -5.25 Q-36.9 -7.15 -34.4 -7.55 L-32.15 -7.8 -32.05 -7.8 -27.2 -8.55 -25.0 -10.15 -52.85 -21.75 Q-55.0 -22.55 -70.65 -27.4 -85.15 -32.2 -85.15 -33.8 -85.15 -34.95 -83.7 -36.05 M-35.4 -78.7 L-35.2 -80.75 -33.75 -81.05 Q-32.6 -81.05 -32.25 -79.95 L-32.15 -78.75 -32.2 -77.55 Q-32.45 -77.55 -33.75 -76.75 -35.4 -78.2 -35.4 -78.7 M-31.35 -69.75 L-32.7 -69.2 -34.3 -70.7 Q-34.3 -71.55 -32.7 -72.45 L-31.05 -70.7 -31.35 -69.75 M-30.65 -59.35 Q-30.5 -59.0 -30.5 -58.2 L-30.8 -57.2 -32.15 -56.65 -33.75 -58.15 Q-33.75 -60.35 -32.15 -60.35 -31.0 -60.35 -30.65 -59.35 M-23.0 -51.35 L-23.2 -49.7 -25.05 -49.15 Q-27.4 -49.15 -27.05 -51.25 -27.05 -53.25 -25.05 -53.25 -23.0 -53.25 -23.0 -51.35 M-67.85 -55.55 L-68.25 -54.3 Q-68.5 -53.65 -69.75 -53.65 -70.1 -53.65 -71.5 -54.35 L-71.6 -55.55 Q-71.6 -57.45 -69.75 -57.45 -69.25 -57.45 -67.85 -55.55 M-53.65 -51.9 L-8.35 -12.95 Q-8.35 -11.85 -9.4 -11.1 -10.2 -10.55 -10.85 -10.55 -14.35 -10.55 -36.5 -29.15 -58.0 -47.2 -58.0 -47.95 -58.0 -48.8 -56.1 -50.4 -54.25 -51.9 -53.65 -51.9" fill="#ffffff" fill-rule="evenodd" stroke="none"/>
  </g>
</svg>
