<?xml version="1.0" encoding="UTF-8" standalone="no"?>
<svg xmlns:ffdec="https://www.free-decompiler.com/flash" xmlns:xlink="http://www.w3.org/1999/xlink" ffdec:objectType="shape" height="77.8px" width="144.9px" xmlns="http://www.w3.org/2000/svg">
  <g transform="matrix(1.0, 0.0, 0.0, 1.0, 118.8, 93.5)">
    <path d="M26.1 -62.35 Q25.55 -61.35 24.45 -61.05 L22.65 -62.55 Q22.65 -64.35 24.45 -64.35 25.05 -64.35 26.1 -62.35 M13.2 -45.75 Q10.5 -29.4 8.1 -29.4 5.55 -29.4 5.9 -32.55 7.2 -48.5 10.85 -48.5 13.1 -48.5 13.2 -45.75 M-100.05 -39.4 Q-100.3 -39.0 -102.05 -39.15 L-102.45 -39.35 -102.6 -40.25 Q-102.6 -41.1 -101.9 -41.35 L-101.05 -41.55 -100.1 -41.25 -99.6 -40.45 -100.05 -39.4 M-109.2 -47.85 Q-108.2 -47.85 -107.55 -46.5 L-109.0 -44.95 Q-110.55 -45.45 -110.55 -47.3 L-109.2 -47.85 M-116.6 -46.5 Q-117.95 -46.5 -118.65 -47.3 L-118.8 -48.5 Q-118.8 -50.1 -117.15 -50.1 -116.0 -50.1 -115.05 -48.05 L-116.6 -46.5 M-30.8 -91.95 L-30.9 -90.3 -32.2 -89.9 -33.3 -90.3 -33.55 -91.75 Q-33.55 -92.9 -32.15 -93.5 -30.8 -92.8 -30.8 -91.95 M-34.3 -82.7 Q-32.75 -81.35 -32.75 -80.95 L-33.0 -79.5 Q-33.75 -79.5 -33.75 -79.2 -35.8 -80.35 -35.8 -80.9 -35.8 -81.95 -34.3 -82.7 M-25.6 -78.75 Q-19.55 -78.75 -4.7 -31.65 -4.7 -31.25 -5.25 -30.25 -5.9 -29.15 -6.25 -29.15 -9.85 -29.15 -14.35 -39.3 L-19.25 -52.45 -24.0 -64.3 Q-28.05 -74.6 -28.05 -76.15 -28.05 -78.75 -25.6 -78.75 M-35.65 -72.6 L-34.7 -72.3 -34.15 -71.5 Q-34.4 -70.7 -34.85 -70.3 L-36.6 -70.3 -37.05 -70.4 -37.15 -71.25 -37.05 -72.3 -35.65 -72.6 M-75.0 -61.95 Q-74.8 -61.9 -74.8 -61.1 L-74.9 -60.5 -75.2 -60.05 -76.45 -60.2 -76.7 -61.05 -76.45 -61.95 -75.75 -61.9 -75.0 -61.95 M-63.5 -31.3 L-52.3 -26.4 -41.4 -22.9 Q-34.3 -20.4 -34.3 -18.55 -34.3 -15.7 -37.3 -15.7 -39.3 -15.7 -41.85 -17.05 -44.35 -18.45 -45.2 -18.45 -45.9 -18.45 -46.95 -17.8 -48.0 -17.15 -48.65 -17.15 -53.6 -17.15 -68.85 -24.5 -83.7 -31.7 -83.7 -33.25 -83.7 -35.8 -79.8 -35.8 -74.55 -35.8 -63.5 -31.3 M-23.75 -23.4 L-25.6 -23.15 Q-32.7 -23.15 -58.7 -48.6 -58.7 -51.05 -56.1 -51.05 -49.2 -51.05 -23.7 -25.0 L-23.75 -23.4" fill="#ffffff" fill-rule="evenodd" stroke="none"/>
  </g>
</svg>
