<?xml version="1.0" encoding="UTF-8" standalone="no"?>
<svg xmlns:ffdec="https://www.free-decompiler.com/flash" xmlns:xlink="http://www.w3.org/1999/xlink" ffdec:objectType="shape" height="64.6px" width="154.5px" xmlns="http://www.w3.org/2000/svg">
  <g transform="matrix(1.0, 0.0, 0.0, 1.0, 124.05, 84.05)">
    <path d="M30.45 -66.2 L30.3 -64.95 Q29.7 -64.55 28.8 -64.35 27.2 -65.6 27.2 -66.2 L28.0 -66.7 Q28.8 -67.05 28.8 -68.1 30.45 -66.85 30.45 -66.2 M12.25 -41.8 Q10.85 -37.5 9.2 -37.5 7.05 -37.5 7.0 -39.9 7.2 -49.55 10.85 -49.55 13.75 -49.55 13.4 -47.15 13.4 -45.25 12.25 -41.8 M-122.2 -47.4 Q-122.55 -46.5 -123.5 -46.5 -124.05 -47.0 -124.05 -47.85 L-122.9 -48.15 Q-122.35 -47.85 -122.2 -47.4 M-26.2 -77.9 Q-24.75 -79.4 -23.4 -79.4 -19.85 -79.4 -11.65 -51.15 -11.65 -48.7 -14.15 -48.7 -17.15 -48.7 -22.6 -62.15 -25.35 -68.9 -27.5 -75.8 -27.5 -76.55 -26.2 -77.9 M-33.1 -82.95 L-33.2 -82.15 -34.95 -81.7 -35.45 -81.9 Q-35.65 -81.95 -35.65 -82.75 -35.65 -84.15 -34.3 -84.05 L-33.1 -82.95 M-35.8 -74.05 Q-35.5 -73.95 -35.5 -73.05 L-35.65 -71.6 -37.05 -71.05 Q-38.4 -71.55 -38.4 -72.6 -38.4 -73.6 -37.05 -74.1 L-35.8 -74.05 M-57.75 -53.8 Q-54.35 -53.8 -32.75 -33.3 -32.75 -32.4 -33.5 -31.45 -34.2 -30.65 -34.65 -30.65 -41.55 -30.65 -60.35 -51.6 -60.35 -53.8 -57.75 -53.8 M-78.95 -61.6 Q-79.55 -60.5 -80.05 -60.35 -81.85 -60.55 -81.85 -61.7 -81.85 -63.1 -80.6 -62.8 -79.85 -62.65 -78.95 -61.6 M-64.0 -29.25 Q-53.8 -22.65 -53.8 -21.9 -53.8 -21.15 -54.35 -20.3 -54.9 -19.45 -55.3 -19.45 -60.25 -19.45 -73.1 -25.3 -85.9 -31.1 -85.9 -33.25 -85.9 -36.5 -80.05 -36.5 -75.15 -36.5 -64.0 -29.25" fill="#ffffff" fill-rule="evenodd" stroke="none"/>
  </g>
</svg>
