<?xml version="1.0" encoding="UTF-8" standalone="no"?>
<svg xmlns:ffdec="https://www.free-decompiler.com/flash" xmlns:xlink="http://www.w3.org/1999/xlink" ffdec:objectType="shape" height="59.05px" width="156.0px" xmlns="http://www.w3.org/2000/svg">
  <g transform="matrix(1.0, 0.0, 0.0, 1.0, 127.1, 81.9)">
    <path d="M28.9 -63.45 Q28.55 -62.7 27.05 -62.7 26.5 -63.1 26.5 -63.9 L26.7 -64.95 28.6 -65.1 28.9 -63.45 M13.85 -42.6 Q12.55 -40.25 12.1 -40.25 10.65 -40.25 8.9 -40.8 8.35 -44.45 8.35 -45.75 8.35 -46.65 9.45 -48.15 10.7 -49.8 11.85 -49.8 14.85 -49.8 15.15 -45.5 15.15 -44.9 13.85 -42.6 M-125.7 -47.15 Q-125.7 -46.75 -126.0 -46.3 L-126.95 -46.3 -127.1 -47.85 -126.15 -47.95 Q-125.7 -48.5 -125.7 -47.15 M-82.25 -35.95 Q-79.9 -35.95 -70.85 -30.95 -62.15 -26.1 -62.15 -25.5 -62.15 -24.7 -63.0 -23.7 -63.75 -22.85 -64.0 -22.85 -68.45 -22.85 -76.6 -26.65 -85.0 -30.6 -85.0 -33.2 -85.0 -35.95 -82.25 -35.95 M-25.05 -78.3 Q-21.75 -78.3 -15.95 -61.1 -15.95 -58.4 -18.45 -58.4 -20.25 -58.4 -24.1 -66.95 -27.6 -74.7 -27.6 -75.65 -27.6 -78.3 -25.05 -78.3 M-33.1 -81.85 L-32.55 -80.75 Q-32.9 -79.8 -33.2 -79.5 L-34.85 -79.5 -34.95 -80.75 Q-34.95 -82.15 -34.3 -81.85 L-33.1 -81.85 M-56.1 -54.45 Q-53.4 -54.45 -41.55 -40.7 -41.55 -39.85 -42.15 -39.0 -42.75 -38.25 -43.3 -38.25 -49.15 -38.25 -54.6 -44.95 -57.3 -48.3 -58.85 -51.7 -58.85 -54.45 -56.1 -54.45" fill="#ffffff" fill-rule="evenodd" stroke="none"/>
  </g>
</svg>
