<?xml version="1.0" encoding="UTF-8" standalone="no"?>
<svg xmlns:ffdec="https://www.free-decompiler.com/flash" xmlns:xlink="http://www.w3.org/1999/xlink" ffdec:objectType="shape" height="65.0px" width="101.75px" xmlns="http://www.w3.org/2000/svg">
  <g transform="matrix(1.0, 0.0, 0.0, 1.0, 86.9, 90.85)">
    <path d="M13.2 -45.65 Q8.8 -45.65 9.6 -48.05 9.6 -50.25 12.15 -50.25 14.4 -50.25 14.85 -47.95 14.05 -45.65 13.2 -45.65 M-81.7 -37.45 Q-79.65 -37.45 -75.45 -34.3 -71.5 -31.25 -71.5 -30.3 -71.5 -25.85 -74.9 -25.85 -80.85 -25.85 -86.9 -34.35 -86.9 -37.45 -81.7 -37.45 M-33.0 -90.6 Q-32.45 -91.35 -32.45 -89.95 L-32.75 -89.1 Q-34.1 -89.25 -34.1 -90.45 L-33.0 -90.6 M-25.6 -78.95 Q-21.45 -78.95 -21.65 -71.6 -21.65 -68.25 -23.2 -68.25 -26.5 -68.25 -27.75 -76.75 -27.75 -78.95 -25.6 -78.95 M-52.2 -51.25 L-49.5 -46.95 Q-49.5 -44.65 -51.75 -44.65 -55.3 -44.65 -58.85 -53.45 -58.85 -55.55 -56.65 -55.55 -55.2 -55.55 -52.2 -51.25" fill="#ffffff" fill-rule="evenodd" stroke="none"/>
  </g>
</svg>
