<?xml version="1.0" encoding="UTF-8" standalone="no"?>
<svg xmlns:ffdec="https://www.free-decompiler.com/flash" xmlns:xlink="http://www.w3.org/1999/xlink" ffdec:objectType="shape" height="49.25px" width="101.05px" xmlns="http://www.w3.org/2000/svg">
  <g transform="matrix(1.0, 0.0, 0.0, 1.0, 85.9, 80.35)">
    <path d="M15.15 -49.7 Q15.15 -47.0 12.95 -47.0 L11.1 -47.6 10.85 -49.7 Q10.85 -51.75 12.95 -51.75 14.95 -51.75 15.15 -49.7 M-81.35 -35.75 Q-80.9 -34.7 -80.9 -33.95 -80.9 -33.35 -81.75 -32.25 -82.6 -31.1 -83.1 -31.1 -84.35 -31.1 -85.2 -32.55 -85.9 -33.7 -85.9 -34.55 -85.9 -35.3 -85.35 -36.2 -84.6 -37.45 -83.35 -37.45 -82.05 -37.45 -81.35 -35.75 M-26.3 -79.5 Q-25.2 -80.35 -24.25 -80.35 -22.5 -80.35 -21.75 -78.95 -21.35 -78.2 -21.35 -77.45 -21.35 -74.65 -23.95 -74.65 -27.2 -74.65 -27.5 -77.3 -27.5 -78.55 -26.3 -79.5 M-22.3 -69.6 Q-20.55 -69.6 -19.75 -68.45 -19.3 -67.75 -19.3 -67.15 -19.3 -66.3 -20.1 -65.1 -21.2 -63.45 -22.85 -63.45 -25.9 -63.45 -25.3 -66.0 -25.3 -69.6 -22.3 -69.6 M-54.2 -53.4 L-54.5 -52.15 -54.85 -51.8 Q-55.25 -51.45 -56.1 -51.45 -56.45 -51.45 -57.85 -52.15 L-58.0 -53.4 Q-58.0 -55.3 -56.1 -55.3 -54.2 -55.3 -54.2 -53.4" fill="#ffffff" fill-rule="evenodd" stroke="none"/>
  </g>
</svg>
