<?xml version="1.0" encoding="UTF-8" standalone="no"?>
<svg xmlns:ffdec="https://www.free-decompiler.com/flash" xmlns:xlink="http://www.w3.org/1999/xlink" ffdec:objectType="shape" height="41.35px" width="96.35px" xmlns="http://www.w3.org/2000/svg">
  <g transform="matrix(1.0, 0.0, 0.0, 1.0, 81.45, 78.65)">
    <path d="M14.9 -48.05 L14.5 -47.05 13.55 -47.0 Q13.3 -47.0 13.3 -47.85 L13.4 -48.5 14.35 -48.6 Q14.9 -49.4 14.9 -48.05 M-23.15 -78.5 L-22.3 -78.65 Q-20.95 -77.9 -20.95 -76.7 L-22.3 -76.15 -23.25 -76.4 Q-23.55 -76.6 -23.55 -77.45 -23.55 -78.3 -23.15 -78.5 M-22.2 -63.55 L-23.4 -63.25 -23.55 -64.35 -22.75 -64.4 -22.2 -63.55 M-56.1 -51.75 L-56.65 -50.65 -58.4 -51.2 -58.45 -51.0 -58.55 -51.8 Q-58.55 -53.2 -57.2 -52.85 -56.25 -52.45 -56.1 -51.75 M-79.75 -38.2 Q-79.75 -37.35 -79.95 -37.3 L-80.3 -37.3 Q-81.45 -37.5 -81.45 -38.6 L-80.35 -38.8 Q-79.75 -39.6 -79.75 -38.2" fill="#ffffff" fill-rule="evenodd" stroke="none"/>
  </g>
</svg>
