<?xml version="1.0" encoding="UTF-8" standalone="no"?>
<svg xmlns:ffdec="https://www.free-decompiler.com/flash" xmlns:xlink="http://www.w3.org/1999/xlink" ffdec:objectType="shape" height="100.0px" width="100.0px" xmlns="http://www.w3.org/2000/svg">
  <g transform="matrix(1.0, 0.0, 0.0, 1.0, 50.0, 50.0)">
    <path d="M27.4 -28.25 Q19.7 -36.15 9.85 -38.7 5.15 -39.9 0.0 -39.9 -5.15 -39.9 -9.8 -38.7 -19.7 -36.15 -27.4 -28.25 -38.75 -16.55 -38.75 0.0 -38.75 16.55 -27.4 28.2 -16.05 39.9 0.0 39.9 16.05 39.9 27.4 28.2 38.75 16.55 38.75 0.0 38.75 -16.55 27.4 -28.25 M35.3 -35.35 Q50.0 -20.7 50.0 0.0 50.0 20.7 35.3 35.35 24.25 46.35 9.85 49.1 L0.0 50.0 -9.8 49.1 Q-24.35 46.4 -35.4 35.35 -50.05 20.7 -50.0 0.0 -50.05 -20.7 -35.4 -35.35 -20.7 -50.0 0.0 -50.0 20.65 -50.0 35.3 -35.35" fill="#ffffff" fill-rule="evenodd" stroke="none"/>
  </g>
</svg>
