<?xml version="1.0" encoding="UTF-8" standalone="no"?>
<svg xmlns:ffdec="https://www.free-decompiler.com/flash" xmlns:xlink="http://www.w3.org/1999/xlink" ffdec:objectType="shape" height="30.4px" width="9.25px" xmlns="http://www.w3.org/2000/svg">
  <g transform="matrix(1.0, 0.0, 0.0, 1.0, 4.6, 15.2)">
    <path d="M-3.9 -10.65 L-3.1 -14.5 -3.1 -14.55 -2.75 -14.8 Q-0.05 -13.75 2.3 -15.2 L3.85 -11.35 -1.0 -9.25 -3.9 -10.65" fill="url(#gradient0)" fill-rule="evenodd" stroke="none"/>
    <path d="M4.05 -4.65 L3.0 -0.15 2.85 4.95 Q-0.95 6.8 -3.6 4.8 L-3.7 0.5 -4.5 -4.25 -1.3 -2.3 4.05 -4.65" fill="url(#gradient1)" fill-rule="evenodd" stroke="none"/>
    <path d="M-4.5 -4.25 L-4.6 -4.9 -3.9 -10.65 -1.0 -9.25 3.85 -11.35 4.65 -5.5 4.05 -4.65 -1.3 -2.3 -4.5 -4.25" fill="url(#gradient2)" fill-rule="evenodd" stroke="none"/>
    <path d="M2.85 4.95 L1.6 13.4 -0.1 15.2 -3.55 13.15 -3.6 4.8 Q-0.95 6.8 2.85 4.95" fill="url(#gradient3)" fill-rule="evenodd" stroke="none"/>
    <path d="M4.05 -4.65 L3.0 -0.15 2.85 4.95 1.6 13.4 -0.1 15.2 -3.55 13.15 -3.6 4.8 -3.7 0.5 -4.5 -4.25 -4.6 -4.9 -3.9 -10.65 -3.1 -14.5 -3.1 -14.55 -2.75 -14.8 Q-0.05 -13.75 2.3 -15.2 L3.85 -11.35 4.65 -5.5 4.05 -4.65 -1.3 -2.3 -4.5 -4.25 M-3.9 -10.65 L-1.0 -9.25 3.85 -11.35 M-3.6 4.8 Q-0.95 6.8 2.85 4.95" fill="none" stroke="#000000" stroke-linecap="round" stroke-linejoin="round" stroke-width="0.05"/>
  </g>
  <defs>
    <radialGradient cx="0" cy="0" gradientTransform="matrix(0.0077, -2.0E-4, -2.0E-4, 0.0071, -2.05, -13.2)" gradientUnits="userSpaceOnUse" id="gradient0" r="819.2" spreadMethod="pad">
      <stop offset="0.00784313725490196" stop-color="#ffffff"/>
      <stop offset="0.2901960784313726" stop-color="#ac4a4a"/>
      <stop offset="0.5803921568627451" stop-color="#662222"/>
      <stop offset="0.6823529411764706" stop-color="#000000"/>
      <stop offset="0.7450980392156863" stop-color="#b45c5c"/>
      <stop offset="1.0" stop-color="#4b2323"/>
    </radialGradient>
    <radialGradient cx="0" cy="0" gradientTransform="matrix(0.0107, 0.0, 0.0, 0.0107, -3.0, -0.5)" gradientUnits="userSpaceOnUse" id="gradient1" r="819.2" spreadMethod="pad">
      <stop offset="0.00784313725490196" stop-color="#ffffff"/>
      <stop offset="0.2901960784313726" stop-color="#ac4a4a"/>
      <stop offset="0.5803921568627451" stop-color="#662222"/>
      <stop offset="0.6823529411764706" stop-color="#000000"/>
      <stop offset="0.7450980392156863" stop-color="#b45c5c"/>
      <stop offset="1.0" stop-color="#4b2323"/>
    </radialGradient>
    <radialGradient cx="0" cy="0" gradientTransform="matrix(0.0079, 0.0, 0.0, 0.0079, -0.75, -6.75)" gradientUnits="userSpaceOnUse" id="gradient2" r="819.2" spreadMethod="pad">
      <stop offset="0.00784313725490196" stop-color="#b59dbf"/>
      <stop offset="0.25882352941176473" stop-color="#5e5e5e"/>
      <stop offset="0.5803921568627451" stop-color="#2b2b2b"/>
      <stop offset="0.7098039215686275" stop-color="#595959"/>
    </radialGradient>
    <radialGradient cx="0" cy="0" gradientTransform="matrix(0.0087, 0.0, 0.0, 0.0087, -1.0, 11.0)" gradientUnits="userSpaceOnUse" id="gradient3" r="819.2" spreadMethod="pad">
      <stop offset="0.00784313725490196" stop-color="#b59dbf"/>
      <stop offset="0.25882352941176473" stop-color="#5e5e5e"/>
      <stop offset="0.5803921568627451" stop-color="#2b2b2b"/>
      <stop offset="0.7098039215686275" stop-color="#595959"/>
    </radialGradient>
  </defs>
</svg>
