<?xml version="1.0" encoding="UTF-8" standalone="no"?>
<svg xmlns:ffdec="https://www.free-decompiler.com/flash" xmlns:xlink="http://www.w3.org/1999/xlink" ffdec:objectType="shape" height="19.65px" width="7.1px" xmlns="http://www.w3.org/2000/svg">
  <g transform="matrix(1.0, 0.0, 0.0, 1.0, 3.55, 9.8)">
    <path d="M-3.5 4.0 L-3.55 3.6 -3.35 -0.7 Q-3.2 -2.85 -2.6 -4.1 L-2.2 -5.25 -1.8 -5.85 -0.5 -6.75 Q1.35 -7.55 3.3 -5.75 L3.45 -2.35 3.55 3.3 3.55 3.6 3.55 4.0 Q-0.2 6.9 -3.5 4.0" fill="url(#gradient0)" fill-rule="evenodd" stroke="none"/>
    <path d="M-3.5 4.0 L-3.55 3.6 -3.35 -0.7 Q-3.2 -2.85 -2.6 -4.1 L-2.2 -5.25 -1.8 -5.85 -0.5 -6.75 Q1.35 -7.55 3.3 -5.75 L3.45 -2.35 3.55 3.3 3.55 3.6 3.55 4.0" fill="none" stroke="#000000" stroke-linecap="round" stroke-linejoin="round" stroke-width="0.05"/>
    <path d="M3.55 4.0 Q-0.2 6.9 -3.5 4.0" fill="none" stroke="#000000" stroke-linecap="round" stroke-linejoin="round" stroke-width="0.05"/>
    <path d="M-3.5 -2.65 L-3.55 -2.9 -3.35 -5.7 Q-3.2 -7.1 -2.6 -7.9 L-2.2 -8.65 -1.8 -9.05 -0.5 -9.65 Q1.35 -10.15 3.3 -8.95 L3.45 -6.75 3.55 -3.1 3.55 -2.9 3.55 -2.65 Q-0.2 -0.75 -3.5 -2.65" fill="url(#gradient1)" fill-rule="evenodd" stroke="none"/>
    <path d="M2.85 4.1 L2.3 6.5 Q1.8 8.45 0.45 9.85 L-0.5 9.5 Q-1.55 9.05 -1.9 8.15 -2.5 6.85 -2.6 5.5 L-2.8 4.0 Q-0.75 5.0 2.85 4.1" fill="url(#gradient2)" fill-rule="evenodd" stroke="none"/>
    <path d="M-3.5 -2.65 L-3.55 -2.9 -3.35 -5.7 Q-3.2 -7.1 -2.6 -7.9 L-2.2 -8.65 -1.8 -9.05 -0.5 -9.65 Q1.35 -10.15 3.3 -8.95 L3.45 -6.75 3.55 -3.1 3.55 -2.9 3.55 -2.65 M2.85 4.1 L2.3 6.5 Q1.8 8.45 0.45 9.85 L-0.5 9.5 Q-1.55 9.05 -1.9 8.15 -2.5 6.85 -2.6 5.5 L-2.8 4.0" fill="none" stroke="#000000" stroke-linecap="round" stroke-linejoin="round" stroke-width="0.05"/>
    <path d="M3.55 -2.65 Q-0.2 -0.75 -3.5 -2.65 M-2.8 4.0 Q-0.75 5.0 2.85 4.1" fill="none" stroke="#000000" stroke-linecap="round" stroke-linejoin="round" stroke-width="0.05"/>
  </g>
  <defs>
    <radialGradient cx="0" cy="0" gradientTransform="matrix(0.0116, 0.0, 0.0, 0.0116, -1.75, 2.15)" gradientUnits="userSpaceOnUse" id="gradient0" r="819.2" spreadMethod="pad">
      <stop offset="0.00784313725490196" stop-color="#ffffff"/>
      <stop offset="0.2901960784313726" stop-color="#ac4a4a"/>
      <stop offset="0.5803921568627451" stop-color="#662222"/>
      <stop offset="0.6823529411764706" stop-color="#000000"/>
      <stop offset="0.7450980392156863" stop-color="#b45c5c"/>
      <stop offset="1.0" stop-color="#4b2323"/>
    </radialGradient>
    <radialGradient cx="0" cy="0" gradientTransform="matrix(0.0087, 0.0, 0.0, 0.0087, 0.25, -7.75)" gradientUnits="userSpaceOnUse" id="gradient1" r="819.2" spreadMethod="pad">
      <stop offset="0.00784313725490196" stop-color="#b59dbf"/>
      <stop offset="0.25882352941176473" stop-color="#5e5e5e"/>
      <stop offset="0.5803921568627451" stop-color="#2b2b2b"/>
      <stop offset="0.7098039215686275" stop-color="#595959"/>
    </radialGradient>
    <radialGradient cx="0" cy="0" gradientTransform="matrix(0.0057, 0.0, 0.0, 0.0057, 0.25, 5.75)" gradientUnits="userSpaceOnUse" id="gradient2" r="819.2" spreadMethod="pad">
      <stop offset="0.00784313725490196" stop-color="#b59dbf"/>
      <stop offset="0.25882352941176473" stop-color="#5e5e5e"/>
      <stop offset="0.5803921568627451" stop-color="#2b2b2b"/>
      <stop offset="0.7098039215686275" stop-color="#595959"/>
    </radialGradient>
  </defs>
</svg>
