<?xml version="1.0" encoding="UTF-8" standalone="no"?>
<svg xmlns:ffdec="https://www.free-decompiler.com/flash" xmlns:xlink="http://www.w3.org/1999/xlink" ffdec:objectType="shape" height="11.75px" width="7.9px" xmlns="http://www.w3.org/2000/svg">
  <g transform="matrix(1.0, 0.0, 0.0, 1.0, 2.55, 6.7)">
    <path d="M-2.55 -2.8 L-2.4 -2.7 -2.55 -2.55 -2.55 -2.8" fill="url(#gradient0)" fill-rule="evenodd" stroke="none"/>
    <path d="M-2.55 -2.8 Q-2.45 -4.35 -1.45 -5.5 -0.3 -6.7 1.3 -6.7 2.9 -6.7 4.0 -5.5 L4.85 -4.15 4.95 -2.2 1.0 -2.45 1.0 -1.55 5.05 -0.55 5.35 5.05 3.3 4.55 -0.6 3.7 -1.05 0.7 -1.3 0.5 -1.45 0.35 -2.3 -1.05 -2.55 -2.55 -2.4 -2.7 -2.55 -2.8" fill="url(#gradient1)" fill-rule="evenodd" stroke="none"/>
    <path d="M5.05 -0.55 L1.0 -1.55 1.0 -2.45 4.95 -2.2 5.05 -0.55" fill="#000000" fill-rule="evenodd" stroke="none"/>
    <path d="M4.85 -4.15 L4.0 -5.5 Q2.9 -6.7 1.3 -6.7 -0.3 -6.7 -1.45 -5.5 -2.45 -4.35 -2.55 -2.8 L-2.55 -2.55 -2.3 -1.05 -1.45 0.35 -1.3 0.5 -1.05 0.7 -0.6 3.7 3.3 4.55" fill="none" stroke="#000000" stroke-linecap="round" stroke-linejoin="round" stroke-width="0.05"/>
    <path d="M3.3 4.55 L5.35 5.05 5.05 -0.55 1.0 -1.55 1.0 -2.45 4.95 -2.2 4.85 -4.15 M5.05 -0.55 L4.95 -2.2" fill="none" stroke="#000000" stroke-linecap="round" stroke-linejoin="round" stroke-width="0.05"/>
  </g>
  <defs>
    <radialGradient cx="0" cy="0" gradientTransform="matrix(0.0086, 0.0, 0.0, 0.0086, 3.6, 0.45)" gradientUnits="userSpaceOnUse" id="gradient0" r="819.2" spreadMethod="pad">
      <stop offset="0.0" stop-color="#2b2b2b"/>
      <stop offset="0.6666666666666666" stop-color="#040404"/>
      <stop offset="1.0" stop-color="#404040"/>
    </radialGradient>
    <radialGradient cx="0" cy="0" gradientTransform="matrix(0.0109, 0.0, 0.0, 0.0109, 1.35, -2.9)" gradientUnits="userSpaceOnUse" id="gradient1" r="819.2" spreadMethod="pad">
      <stop offset="0.0" stop-color="#ffffff"/>
      <stop offset="0.2901960784313726" stop-color="#7b7b7b"/>
      <stop offset="0.5803921568627451" stop-color="#444444"/>
      <stop offset="0.7098039215686275" stop-color="#888888"/>
    </radialGradient>
  </defs>
</svg>
