<?xml version="1.0" encoding="UTF-8" standalone="no"?>
<svg xmlns:ffdec="https://www.free-decompiler.com/flash" xmlns:xlink="http://www.w3.org/1999/xlink" ffdec:objectType="shape" height="18.35px" width="7.05px" xmlns="http://www.w3.org/2000/svg">
  <g transform="matrix(1.0, 0.0, 0.0, 1.0, 3.55, 9.15)">
    <path d="M2.0 4.95 L2.0 5.0 1.95 5.05 2.0 4.95" fill="url(#gradient0)" fill-rule="evenodd" stroke="none"/>
    <path d="M1.9 4.85 L2.0 4.9 2.0 4.95 1.9 4.85" fill="url(#gradient1)" fill-rule="evenodd" stroke="none"/>
    <path d="M2.0 4.95 L1.95 5.05 1.9 4.85 2.0 4.95" fill="url(#gradient2)" fill-rule="evenodd" stroke="none"/>
    <path d="M3.0 -6.9 Q3.7 -4.25 3.45 -2.1 2.75 -0.55 2.4 0.8 0.9 3.15 1.9 4.85 L1.95 5.05 Q-0.9 6.25 -2.95 4.05 L-2.95 4.0 Q-2.25 1.55 -3.15 -1.05 L-3.0 -4.55 Q-2.8 -6.1 -0.75 -9.15 L3.0 -6.9" fill="url(#gradient3)" fill-rule="evenodd" stroke="none"/>
    <path d="M1.95 5.05 L0.9 6.85 1.3 8.4 0.15 9.2 -3.55 6.1 -2.95 4.05 Q-0.9 6.25 1.95 5.05" fill="url(#gradient4)" fill-rule="evenodd" stroke="none"/>
    <path d="M3.0 -6.9 Q3.7 -4.25 3.45 -2.1 2.75 -0.55 2.4 0.8 0.9 3.15 1.9 4.85 L2.0 4.95 2.0 5.0 1.95 5.05 0.9 6.85 1.3 8.4 0.15 9.2 -3.55 6.1 -2.95 4.05 -2.95 4.0 Q-2.25 1.55 -3.15 -1.05 L-3.0 -4.55 Q-2.8 -6.1 -0.75 -9.15 M2.0 4.9 L2.0 4.95 M1.95 5.05 Q-0.9 6.25 -2.95 4.05" fill="none" stroke="#000000" stroke-linecap="round" stroke-linejoin="round" stroke-width="0.05"/>
  </g>
  <defs>
    <radialGradient cx="0" cy="0" gradientTransform="matrix(0.0133, 0.0026, -0.0018, 0.0144, 0.8, -7.0)" gradientUnits="userSpaceOnUse" id="gradient0" r="819.2" spreadMethod="pad">
      <stop offset="0.0" stop-color="#262626"/>
      <stop offset="1.0" stop-color="#000000"/>
    </radialGradient>
    <radialGradient cx="0" cy="0" gradientTransform="matrix(0.0038, 7.0E-4, -5.0E-4, 0.0041, -0.45, 6.05)" gradientUnits="userSpaceOnUse" id="gradient1" r="819.2" spreadMethod="pad">
      <stop offset="0.0" stop-color="#262626"/>
      <stop offset="1.0" stop-color="#000000"/>
    </radialGradient>
    <radialGradient cx="0" cy="0" gradientTransform="matrix(0.0133, 0.0026, -0.0018, 0.0144, 0.8, -7.0)" gradientUnits="userSpaceOnUse" id="gradient2" r="819.2" spreadMethod="pad">
      <stop offset="0.0" stop-color="#403726"/>
      <stop offset="1.0" stop-color="#10100a"/>
    </radialGradient>
    <radialGradient cx="0" cy="0" gradientTransform="matrix(0.0133, 0.0026, -0.0018, 0.0144, 0.8, -7.0)" gradientUnits="userSpaceOnUse" id="gradient3" r="819.2" spreadMethod="pad">
      <stop offset="0.0" stop-color="#ffffff"/>
      <stop offset="0.2901960784313726" stop-color="#7b7b7b"/>
      <stop offset="0.5803921568627451" stop-color="#444444"/>
      <stop offset="0.7098039215686275" stop-color="#888888"/>
    </radialGradient>
    <radialGradient cx="0" cy="0" gradientTransform="matrix(0.0038, 7.0E-4, -5.0E-4, 0.0041, -0.45, 6.05)" gradientUnits="userSpaceOnUse" id="gradient4" r="819.2" spreadMethod="pad">
      <stop offset="0.0" stop-color="#ffffff"/>
      <stop offset="0.2901960784313726" stop-color="#7b7b7b"/>
      <stop offset="0.5803921568627451" stop-color="#444444"/>
      <stop offset="0.7098039215686275" stop-color="#888888"/>
    </radialGradient>
  </defs>
</svg>
