<?xml version="1.0" encoding="UTF-8" standalone="no"?>
<svg xmlns:ffdec="https://www.free-decompiler.com/flash" xmlns:xlink="http://www.w3.org/1999/xlink" ffdec:objectType="shape" height="52.15px" width="19.95px" xmlns="http://www.w3.org/2000/svg">
  <g transform="matrix(1.0, 0.0, 0.0, 1.0, 10.25, 19.85)">
    <path d="M-7.3 -11.3 L-9.8 -11.3 -9.8 -18.3 Q-0.05 -21.35 9.7 -18.3 L9.7 -11.3 7.3 -11.3 3.25 -12.45 3.25 -12.75 3.25 -12.45 -1.25 -12.7 -5.5 -11.95 -7.3 -11.3 M-5.5 -12.5 L-5.5 -11.95 -5.5 -12.5" fill="url(#gradient0)" fill-rule="evenodd" stroke="none"/>
    <path d="M7.3 24.15 L9.7 24.15 9.7 30.75 Q-0.25 33.85 -10.25 30.75 L-10.25 24.15 -7.35 24.15 -5.5 24.6 -1.75 25.1 4.05 24.85 7.3 24.15" fill="url(#gradient1)" fill-rule="evenodd" stroke="none"/>
    <path d="M-7.3 -11.3 L-5.5 -11.95 -1.25 -12.7 3.25 -12.45 7.3 -11.3 Q5.35 6.4 7.3 24.15 L4.05 24.85 -1.75 25.1 -1.25 -12.7 -1.75 25.1 -5.5 24.6 -7.35 24.15 Q-5.5 6.0 -7.3 -11.3 M3.25 -12.45 L4.05 24.85 3.25 -12.45 M-5.5 24.6 L-5.5 -11.95 -5.5 24.6" fill="url(#gradient2)" fill-rule="evenodd" stroke="none"/>
    <path d="M7.3 -11.3 L9.7 -11.3 9.7 -18.3 Q-0.05 -21.35 -9.8 -18.3 L-9.8 -11.3 -7.3 -11.3 -5.5 -11.95 -1.25 -12.7 3.25 -12.45 7.3 -11.3 Q5.35 6.4 7.3 24.15 L9.7 24.15 9.7 30.75 Q-0.25 33.85 -10.25 30.75 L-10.25 24.15 -7.35 24.15 Q-5.5 6.0 -7.3 -11.3 M-1.75 25.1 L4.05 24.85 7.3 24.15 M-5.5 24.6 L-1.75 25.1 M-5.5 24.6 L-7.35 24.15" fill="none" stroke="#000000" stroke-linecap="round" stroke-linejoin="round" stroke-width="0.05"/>
    <path d="M-5.5 -11.95 L-5.5 -12.5 M3.25 -12.75 L3.25 -12.45 4.05 24.85 M-1.25 -12.7 L-1.75 25.1 M-5.5 -11.95 L-5.5 24.6" fill="none" stroke="#5e453c" stroke-linecap="round" stroke-linejoin="round" stroke-width="0.05"/>
    <path d="M3.85 -6.8 L3.85 0.45 -3.85 0.45 -3.85 -6.8 3.85 -6.8 M3.85 11.7 L-3.85 11.7 -3.85 4.45 3.85 4.45 3.85 11.7" fill="#ffcc00" fill-rule="evenodd" stroke="none"/>
  </g>
  <defs>
    <linearGradient gradientTransform="matrix(-2.0E-4, -0.0054, 0.012, -4.0E-4, -0.1, -15.4)" gradientUnits="userSpaceOnUse" id="gradient0" spreadMethod="pad" x1="-819.2" x2="819.2">
      <stop offset="0.0" stop-color="#573131"/>
      <stop offset="1.0" stop-color="#b74040"/>
    </linearGradient>
    <linearGradient gradientTransform="matrix(-5.0E-4, -0.0056, 0.0125, -0.0011, -0.25, 27.8)" gradientUnits="userSpaceOnUse" id="gradient1" spreadMethod="pad" x1="-819.2" x2="819.2">
      <stop offset="0.0" stop-color="#573131"/>
      <stop offset="1.0" stop-color="#b74040"/>
    </linearGradient>
    <linearGradient gradientTransform="matrix(0.0061, 0.0225, -0.0138, 0.0038, -0.05, 6.4)" gradientUnits="userSpaceOnUse" id="gradient2" spreadMethod="pad" x1="-819.2" x2="819.2">
      <stop offset="0.0" stop-color="#78544b"/>
      <stop offset="1.0" stop-color="#98755f"/>
    </linearGradient>
  </defs>
</svg>
