<?xml version="1.0" encoding="UTF-8" standalone="no"?>
<svg xmlns:ffdec="https://www.free-decompiler.com/flash" xmlns:xlink="http://www.w3.org/1999/xlink" ffdec:objectType="shape" height="100.75px" width="150.85px" xmlns="http://www.w3.org/2000/svg">
  <g transform="matrix(1.0, 0.0, 0.0, 1.0, 74.05, 55.7)">
    <path d="M7.95 -55.7 Q13.9 -55.75 16.1 -54.35 L17.65 -52.75 Q18.2 -53.2 19.25 -53.6 21.15 -54.4 22.0 -54.4 26.35 -54.45 25.75 -49.05 25.7 -44.9 23.9 -44.85 20.2 -46.05 19.05 -46.0 18.55 -44.95 17.3 -44.15 14.75 -42.6 10.95 -43.9 L9.6 -43.85 Q10.5 -42.35 10.5 -41.05 L10.25 -38.9 11.2 -39.0 Q13.45 -39.05 15.7 -37.6 L17.85 -36.15 20.7 -37.1 Q23.4 -38.1 26.4 -38.1 29.45 -38.1 32.75 -37.1 L34.3 -36.6 34.7 -36.85 36.5 -37.4 37.45 -37.85 Q46.25 -33.8 46.65 -33.8 48.0 -33.8 50.35 -31.75 51.8 -30.45 52.45 -29.4 53.3 -28.5 53.3 -27.75 L53.15 -26.35 Q52.5 -26.0 51.35 -25.95 L45.6 -26.45 Q43.7 -26.45 42.85 -27.55 41.7 -25.75 38.1 -26.65 38.55 -25.25 38.6 -24.05 L37.7 -20.95 38.8 -21.65 39.75 -20.95 Q38.7 -19.85 37.15 -19.5 L36.2 -17.25 36.95 -17.5 45.15 -16.15 Q52.6 -14.7 55.15 -13.6 L60.9 -11.0 65.4 -10.8 70.75 -9.6 Q75.95 -8.3 76.8 -7.7 L76.15 -5.2 68.35 -5.7 Q67.8 -5.7 66.15 -4.1 64.4 -2.55 63.95 -2.55 60.2 -2.55 57.95 -4.2 55.1 -0.55 51.7 -0.55 46.9 -0.55 44.85 -1.7 43.5 -2.45 42.1 -3.25 41.7 -1.85 40.95 -0.8 39.6 1.0 36.5 1.15 37.15 3.7 37.2 8.3 37.2 12.65 36.9 13.35 L32.85 19.55 Q36.75 20.2 39.1 24.95 40.45 27.7 40.9 30.45 40.85 33.35 40.2 34.8 43.05 34.9 43.7 39.4 43.7 40.5 42.55 42.5 41.1 45.05 39.25 45.05 33.6 45.05 32.65 42.7 32.0 41.2 32.85 40.1 24.45 38.6 22.8 34.55 L21.4 31.4 Q20.65 30.45 19.3 29.75 15.75 31.5 6.1 31.55 -5.25 31.55 -13.1 26.2 -15.65 24.45 -17.45 22.4 -18.8 20.85 -18.75 20.55 L-18.7 20.35 -18.65 20.25 -18.85 20.3 Q-23.05 22.0 -31.65 21.45 -32.35 23.65 -36.05 25.6 L-38.55 27.25 -38.6 27.3 Q-39.4 28.0 -39.35 28.5 -39.15 28.0 -38.35 27.55 L-37.95 27.8 -39.2 30.25 Q-40.15 31.75 -41.8 31.8 -46.1 31.75 -46.75 28.35 -47.55 27.4 -47.55 26.05 -47.55 25.05 -45.25 22.9 L-42.95 20.65 Q-42.95 19.1 -51.2 8.7 -60.25 -2.65 -64.45 -2.65 -73.2 -2.65 -74.05 -6.9 L-73.9 -7.45 -73.45 -7.55 -73.25 -7.4 -73.35 -8.85 Q-73.35 -12.0 -71.6 -12.65 -69.25 -13.6 -58.75 -13.6 L-53.45 -16.95 Q-48.05 -20.4 -45.5 -20.35 L-37.95 -19.65 -37.85 -19.55 -37.05 -20.0 -37.05 -20.05 -38.4 -22.8 Q-39.75 -25.7 -39.7 -26.5 -39.75 -28.85 -38.7 -30.95 -38.05 -32.4 -37.2 -33.1 -39.4 -34.9 -38.35 -38.1 -43.2 -40.15 -44.3 -41.95 L-44.3 -42.1 Q-37.0 -52.5 -31.65 -52.45 -27.5 -52.45 -26.0 -50.2 L-25.2 -48.75 Q-24.85 -48.05 -24.4 -48.05 -23.75 -48.05 -22.3 -48.85 -20.95 -49.75 -20.6 -49.75 -14.45 -49.75 -11.6 -46.35 L-10.4 -44.4 -8.5 -45.95 Q-5.7 -47.8 -3.1 -47.8 L3.65 -47.2 Q3.1 -47.9 3.1 -48.6 3.1 -50.3 4.05 -52.4 5.4 -55.75 7.95 -55.7 M11.4 -54.2 Q5.75 -54.2 4.8 -50.8 4.2 -48.75 5.2 -46.95 L4.9 -46.7 5.05 -46.65 5.1 -46.65 5.9 -46.4 5.9 -45.7 1.75 -46.25 Q-5.8 -46.25 -8.5 -44.25 L-9.75 -42.8 -9.3 -41.5 -9.65 -40.8 -10.55 -41.5 -11.05 -42.1 -12.9 -44.7 Q-15.15 -48.05 -17.15 -48.05 -21.35 -48.05 -22.2 -47.15 -23.1 -46.25 -24.3 -46.25 -25.9 -46.25 -26.9 -48.6 -27.9 -50.95 -29.1 -50.9 -35.4 -50.9 -36.85 -47.75 L-38.35 -44.85 Q-38.95 -43.95 -39.9 -43.2 -39.15 -41.5 -37.1 -40.2 -34.25 -38.35 -30.95 -38.3 -29.75 -38.35 -27.95 -39.3 L-25.65 -40.65 -24.9 -40.65 Q-24.6 -40.6 -24.6 -39.85 -24.6 -38.75 -27.45 -34.7 -29.9 -31.25 -30.95 -30.15 -25.8 -30.05 -22.3 -32.6 -20.5 -33.9 -19.2 -35.55 -18.15 -36.25 -18.15 -35.05 -18.2 -32.35 -26.1 -26.1 -31.2 -22.15 -35.55 -19.65 L-36.35 -17.8 -37.2 -17.9 -37.05 -17.7 -37.95 -17.25 -39.25 -18.2 Q-39.85 -18.65 -41.55 -18.65 -48.75 -18.65 -52.5 -15.65 -56.35 -12.7 -62.3 -12.65 -70.55 -12.7 -72.35 -10.55 L-72.6 -10.2 -72.85 -9.55 -72.6 -7.6 -72.2 -7.65 -72.4 -8.5 -72.4 -10.1 -72.2 -10.5 Q-69.45 -6.05 -67.0 -6.05 -58.1 -6.05 -56.45 -7.75 -56.05 -8.2 -55.85 -9.2 -55.65 -10.25 -55.15 -10.7 -53.4 -6.85 -52.45 -5.7 -49.7 -2.45 -44.8 -2.4 -36.35 -2.45 -36.35 -12.6 L-35.55 -12.6 Q-34.75 -11.85 -34.2 -8.5 -33.45 -4.45 -32.6 -2.45 -29.2 5.4 -16.7 5.4 L-15.95 5.6 -15.85 4.45 -15.4 4.45 Q-15.1 5.4 -15.1 6.3 L-15.4 6.8 -15.6 6.8 -15.6 6.85 Q-15.0 10.15 -13.35 12.35 -9.8 17.3 1.05 17.3 9.35 17.3 13.05 1.95 L13.8 1.65 Q14.8 1.65 15.4 3.4 15.95 5.15 18.55 5.15 28.55 5.15 31.25 1.2 32.6 -0.85 31.95 -2.9 31.95 -4.2 32.35 -4.75 L32.2 -4.8 32.85 -4.9 33.5 -4.35 33.9 -6.75 Q34.05 -9.2 34.9 -10.25 35.6 -9.65 41.15 -6.85 44.4 -6.85 46.45 -8.1 48.5 -9.45 48.8 -9.4 49.85 -9.4 50.85 -8.55 51.8 -7.8 52.0 -7.8 55.45 -7.8 56.6 -9.75 L57.25 -10.8 54.85 -11.8 Q46.5 -14.95 41.1 -12.9 L39.9 -14.6 Q38.8 -15.95 37.65 -15.95 36.95 -15.95 35.15 -14.75 L34.55 -14.75 34.45 -15.4 33.75 -15.45 Q33.55 -15.6 33.55 -16.35 33.55 -17.25 36.15 -18.6 L36.85 -19.45 35.5 -19.35 Q31.7 -19.35 28.25 -21.85 26.2 -23.35 25.3 -24.65 L23.5 -25.05 Q23.0 -25.35 22.75 -26.2 L23.2 -26.65 Q23.7 -25.75 25.25 -25.75 L25.5 -25.75 Q33.05 -25.8 34.5 -30.05 35.1 -32.05 34.65 -34.9 L33.95 -35.2 33.5 -35.05 33.4 -34.85 33.3 -35.45 Q30.55 -36.4 28.0 -36.35 22.0 -36.35 19.4 -34.95 L17.15 -33.2 15.2 -35.6 Q13.35 -37.15 9.65 -37.75 L8.85 -37.15 8.0 -37.3 7.9 -37.1 Q7.75 -37.1 7.75 -37.8 7.75 -38.15 8.45 -39.2 9.1 -40.25 9.1 -40.8 L7.7 -45.7 11.85 -45.1 Q16.4 -45.1 17.4 -46.45 L17.85 -47.5 Q18.05 -48.15 18.55 -48.35 L22.05 -46.65 Q23.25 -46.65 24.05 -47.1 L24.1 -49.2 Q24.1 -52.8 22.55 -52.8 L19.65 -51.95 18.65 -51.5 Q18.95 -51.1 17.9 -51.05 L17.15 -50.95 Q17.0 -50.95 17.0 -51.2 15.8 -51.5 14.15 -52.6 11.8 -54.2 11.4 -54.2 M18.7 -16.45 L19.05 -18.25 20.35 -18.3 20.85 -18.9 Q21.1 -18.7 21.4 -18.65 L21.55 -17.8 Q21.5 -16.05 19.75 -14.55 17.1 -3.05 8.7 -3.0 -3.65 -3.05 -9.55 -11.9 -12.5 -16.35 -13.0 -20.8 L-12.75 -21.45 -12.85 -21.9 Q-12.9 -23.1 -12.3 -23.3 -11.1 -20.15 -8.4 -17.4 -3.0 -12.0 5.75 -11.95 12.95 -12.0 15.9 -14.0 17.0 -14.75 18.7 -16.45 M27.0 -24.25 L27.3 -24.55 26.65 -24.55 27.0 -24.25 M42.05 -28.65 L42.4 -28.55 42.35 -28.7 42.05 -28.65 M58.85 -5.45 L58.7 -5.2 58.75 -5.2 58.85 -5.45 M-26.7 -38.1 L-26.7 -38.45 -26.75 -38.45 -26.7 -38.1 M-22.7 -30.75 L-22.9 -30.65 -22.9 -30.4 -22.7 -30.75 M-35.1 -8.6 L-35.35 -8.85 -35.35 -8.75 -35.1 -8.6 M-17.25 19.45 L-17.5 19.65 -17.15 19.6 -17.25 19.45 M-39.7 28.5 L-39.8 28.8 -39.9 29.0 -39.45 28.8 -39.35 28.5 -39.7 28.5 M-46.15 26.1 L-46.15 26.15 -46.15 26.35 -45.95 26.2 -46.15 26.1" fill="#ffcc00" fill-rule="evenodd" stroke="none"/>
  </g>
</svg>
