<?xml version="1.0" encoding="UTF-8" standalone="no"?>
<svg xmlns:ffdec="https://www.free-decompiler.com/flash" xmlns:xlink="http://www.w3.org/1999/xlink" ffdec:objectType="shape" height="117.85px" width="158.9px" xmlns="http://www.w3.org/2000/svg">
  <g transform="matrix(1.0, 0.0, 0.0, 1.0, 83.6, 64.35)">
    <path d="M19.5 -64.35 Q23.8 -64.35 25.25 -63.05 L26.75 -61.75 Q28.0 -61.75 31.5 -62.85 33.9 -62.85 35.3 -60.85 36.3 -59.45 36.3 -58.25 36.3 -57.6 35.8 -56.9 35.3 -56.2 35.3 -55.6 36.3 -53.85 36.3 -52.6 36.3 -50.95 35.95 -50.4 35.1 -49.2 32.0 -48.6 L30.4 -48.65 Q30.05 -48.7 30.05 -49.5 30.05 -50.1 30.55 -50.7 31.0 -51.25 31.0 -51.9 31.0 -55.0 27.5 -55.0 L25.05 -54.85 Q24.7 -54.35 25.0 -53.6 L25.3 -52.55 Q25.25 -51.45 20.25 -51.35 L20.3 -50.05 Q20.3 -48.55 19.75 -47.8 L17.75 -45.35 19.25 -42.95 Q19.35 -42.5 19.5 -42.55 22.05 -43.5 28.5 -43.5 31.2 -43.5 34.5 -40.1 L37.85 -40.2 Q39.85 -39.75 41.75 -38.75 L47.5 -42.25 Q57.25 -42.25 57.25 -33.85 62.1 -33.2 63.85 -31.55 64.6 -30.9 64.75 -30.0 L64.75 -27.35 64.3 -26.75 63.25 -26.8 63.25 -26.75 Q55.5 -28.0 54.15 -24.85 L54.05 -24.45 54.2 -24.5 54.25 -24.5 Q54.55 -25.0 54.55 -23.75 54.55 -23.35 53.45 -21.7 L53.25 -21.35 53.15 -21.25 53.45 -21.25 Q60.8 -20.9 67.35 -15.65 L69.0 -14.3 69.3 -14.0 Q72.4 -11.1 74.35 -8.15 L75.3 -6.6 Q75.3 -5.95 74.45 -5.0 L74.55 -4.85 74.5 -4.5 Q74.95 -4.2 74.35 -4.1 L73.85 -4.1 73.8 -4.1 73.5 -3.1 Q66.15 -3.2 64.05 -4.3 L63.15 -5.4 62.6 -5.85 61.8 -5.75 Q55.1 -5.75 52.9 -7.3 L50.75 -5.1 Q47.8 -2.6 45.0 -2.6 39.7 -2.6 37.6 -3.85 L37.55 -3.9 37.2 -4.25 37.5 -3.8 Q38.8 -1.55 39.25 3.0 L38.75 5.45 38.8 6.8 Q44.45 9.75 47.95 14.4 51.3 18.75 51.3 22.4 51.3 24.85 48.8 30.65 48.8 31.25 51.05 34.55 L51.15 34.7 Q52.2 36.25 52.75 37.7 L53.25 39.65 54.0 42.1 54.05 44.85 54.05 45.7 Q53.95 47.35 53.55 48.05 L53.3 48.45 Q53.8 48.85 53.8 49.75 53.8 51.4 50.5 53.5 41.0 53.5 35.4 47.7 L33.7 45.7 Q31.05 42.15 31.05 38.5 L28.65 37.7 Q25.1 36.35 23.2 34.7 L22.55 34.05 20.25 30.6 Q19.8 31.3 17.0 32.3 12.9 33.8 7.75 33.8 -1.5 33.8 -10.5 28.75 -18.8 24.05 -19.5 19.75 -20.0 20.45 -20.05 21.7 -20.1 22.75 -20.65 23.25 -22.35 24.75 -33.6 25.5 -33.35 25.8 -33.35 26.9 L-33.55 28.25 Q-33.4 28.3 -33.35 28.7 L-33.35 29.05 Q-33.35 30.1 -35.25 32.5 -37.45 35.3 -39.6 35.3 -46.35 35.3 -49.0 30.55 L-49.8 28.7 Q-50.35 27.1 -50.35 25.3 -50.35 24.65 -49.1 22.55 -47.75 20.15 -46.5 19.3 -51.1 17.25 -51.1 11.35 L-51.1 10.9 -51.2 10.95 -53.0 11.3 Q-59.6 11.3 -61.4 5.5 -62.25 2.55 -61.85 -0.85 L-65.55 -4.3 Q-69.25 -7.7 -69.25 -10.05 -69.25 -12.85 -67.6 -15.1 -65.25 -18.35 -60.35 -18.35 -59.0 -18.35 -56.65 -19.3 L-54.5 -20.25 -46.9 -19.6 -46.0 -19.6 -46.65 -20.0 -46.7 -20.0 -46.85 -20.1 -46.35 -20.8 -46.5 -21.55 Q-46.5 -24.1 -44.5 -26.0 L-38.35 -30.75 Q-42.0 -34.4 -42.0 -36.75 -42.0 -40.8 -39.65 -43.05 L-39.6 -43.1 -39.95 -43.3 Q-42.6 -43.8 -44.15 -45.65 L-45.2 -46.25 Q-46.35 -46.95 -46.35 -48.15 -46.35 -51.5 -45.45 -52.7 L-44.7 -53.5 Q-42.95 -57.25 -39.5 -57.25 -37.9 -57.25 -37.35 -56.75 L-37.25 -56.35 -37.25 -56.3 -37.45 -56.25 -37.25 -56.25 Q-33.75 -56.1 -30.95 -54.85 L-27.75 -53.5 Q-21.8 -55.35 -20.0 -55.35 -15.4 -55.35 -11.05 -53.15 -6.7 -51.0 -6.5 -51.0 -6.05 -51.0 -2.5 -54.5 2.2 -58.0 8.5 -58.0 11.3 -58.0 12.8 -57.1 L13.2 -56.85 13.8 -57.75 13.75 -58.6 Q13.75 -60.05 15.25 -62.0 17.1 -64.35 19.5 -64.35 M15.55 -60.0 Q16.25 -60.55 16.25 -59.35 16.25 -57.95 15.6 -57.4 L13.7 -56.35 13.8 -56.05 13.75 -55.5 13.3 -54.75 Q12.5 -55.85 11.25 -55.85 2.0 -55.85 -2.1 -52.3 -3.4 -51.15 -4.05 -49.75 L-4.5 -48.5 Q-7.15 -49.15 -11.55 -51.6 -14.75 -53.35 -19.65 -53.35 -22.0 -53.35 -24.4 -52.45 -26.75 -51.6 -27.5 -51.6 -28.75 -51.6 -31.25 -53.15 -33.75 -54.75 -38.35 -54.75 L-39.05 -54.7 Q-40.4 -53.65 -42.2 -52.75 L-42.5 -52.35 -42.65 -52.55 -42.85 -52.45 -42.95 -52.4 Q-42.7 -50.65 -41.55 -49.65 -38.85 -47.35 -28.0 -48.25 -27.25 -48.0 -26.85 -47.6 -27.25 -46.75 -30.25 -43.35 -32.75 -40.45 -32.75 -39.4 -32.75 -38.5 -31.75 -37.75 -30.6 -36.85 -28.85 -36.85 -20.8 -36.85 -19.55 -37.6 -19.3 -38.65 -17.5 -39.25 -16.75 -39.1 -16.25 -38.75 -19.35 -33.95 -25.95 -29.2 -34.2 -23.25 -41.1 -23.25 L-41.65 -23.25 Q-42.4 -22.4 -42.55 -21.55 L-42.5 -21.5 -42.55 -21.45 -42.6 -21.1 -43.35 -20.25 -43.35 -20.0 Q-43.35 -19.05 -43.45 -18.95 L-44.5 -18.85 -45.85 -19.5 -45.5 -19.0 -56.5 -17.25 -61.1 -17.1 Q-64.35 -17.1 -66.15 -14.6 -65.35 -14.1 -64.7 -13.05 L-63.45 -11.3 Q-61.45 -9.4 -54.0 -9.6 -53.35 -8.85 -52.8 -6.5 L-51.7 -2.1 Q-49.9 3.55 -45.1 3.55 -41.4 3.55 -39.25 -0.1 -37.75 -2.7 -37.75 -4.75 -38.05 -5.1 -36.8 -5.1 L-35.25 -4.75 Q-34.85 1.5 -32.15 6.2 -28.5 12.55 -22.0 12.55 -15.2 12.55 -12.95 10.7 L-11.8 9.5 Q-11.25 9.05 -10.25 9.25 -9.15 12.8 -7.1 15.55 -3.1 20.8 4.0 20.8 13.9 20.8 14.05 13.1 13.05 11.1 13.05 9.85 13.05 9.15 13.95 7.85 15.0 6.4 16.0 6.05 L16.4 8.15 Q16.8 9.85 17.5 11.25 L20.4 12.65 Q23.15 14.05 24.05 14.05 30.5 14.05 33.4 9.55 34.6 6.35 35.25 1.6 35.25 0.25 34.05 -3.65 33.45 -3.6 33.0 -5.6 33.1 -6.1 34.0 -6.1 L34.2 -6.1 34.25 -6.15 34.0 -6.6 Q33.8 -7.1 33.8 -9.25 L33.85 -10.75 Q33.5 -11.65 33.3 -12.5 L40.05 -11.85 Q45.25 -11.85 46.55 -13.35 L47.15 -14.4 48.0 -14.85 58.35 -13.3 Q68.0 -11.0 73.05 -6.4 L73.05 -6.65 Q73.05 -13.5 51.75 -19.35 51.75 -18.65 51.5 -18.8 L50.5 -19.1 49.95 -19.1 Q49.8 -19.15 49.8 -19.9 L49.85 -20.1 49.8 -20.4 Q49.8 -20.95 50.15 -21.55 L49.55 -21.75 52.35 -25.85 52.0 -26.05 51.8 -25.85 Q51.3 -25.25 50.8 -25.25 46.75 -25.25 44.7 -26.45 L42.75 -28.1 41.55 -26.8 Q40.6 -25.85 39.3 -25.85 32.3 -25.85 32.0 -29.0 L29.55 -29.75 Q29.55 -30.65 30.0 -30.85 L32.2 -30.15 32.55 -30.25 32.7 -30.05 35.05 -29.85 Q37.4 -29.85 39.75 -33.0 40.7 -34.2 42.65 -33.9 44.7 -33.6 45.5 -34.5 46.3 -35.4 46.4 -38.5 46.4 -39.5 46.9 -39.9 45.9 -39.45 44.8 -38.7 42.45 -36.85 42.1 -36.85 L36.9 -37.25 37.0 -37.1 36.75 -36.35 36.5 -36.0 Q33.55 -36.95 32.4 -37.85 L32.0 -38.0 32.1 -38.15 31.35 -39.55 Q30.8 -40.6 21.5 -40.6 20.3 -40.6 18.95 -41.4 20.55 -38.55 20.55 -36.9 20.55 -33.75 19.0 -33.75 16.75 -35.45 13.75 -37.25 7.75 -40.85 -0.6 -41.35 2.6 -41.8 9.3 -46.05 L7.25 -46.35 Q9.0 -46.8 10.7 -48.6 L13.75 -52.1 Q18.05 -56.6 25.0 -56.75 L26.25 -56.85 Q31.6 -56.85 32.55 -55.05 L32.8 -51.5 32.85 -51.5 32.8 -52.05 Q32.8 -52.65 34.2 -53.45 L32.55 -55.75 33.65 -56.95 Q34.55 -57.8 34.55 -58.5 34.55 -58.95 33.75 -60.0 L32.75 -61.0 Q29.7 -61.0 28.5 -60.05 27.35 -59.1 26.5 -59.1 25.7 -59.1 24.55 -60.7 23.35 -62.35 20.9 -62.35 16.8 -62.35 15.55 -60.1 L15.55 -60.0 M23.05 -53.35 L23.05 -53.95 22.05 -53.35 23.05 -53.35 M18.25 -12.1 L20.4 -15.3 21.7 -17.05 21.55 -17.6 Q21.95 -18.35 22.75 -18.35 L23.8 -18.1 24.3 -11.9 Q24.3 -8.05 22.75 -5.0 19.8 0.8 12.3 0.8 -2.45 0.8 -7.5 -8.15 -9.2 -11.2 -9.55 -14.4 -11.6 -17.15 -11.6 -20.0 -11.6 -21.15 -11.0 -21.5 L-10.2 -21.2 Q-10.5 -21.15 -10.5 -20.35 -10.5 -18.7 -9.6 -17.0 L-9.6 -17.3 -9.35 -20.25 -8.85 -20.25 -8.35 -15.15 -6.1 -12.85 Q-0.9 -8.35 6.5 -8.35 14.95 -8.35 18.25 -12.1 M33.8 -4.85 L33.85 -4.7 33.85 -4.85 33.8 -4.85 M50.05 50.25 L50.0 49.8 48.8 50.75 48.65 50.75 50.15 50.8 50.05 50.25 M-81.5 -8.0 Q-76.0 -8.0 -74.15 -5.85 L-73.65 -5.1 -73.4 -4.35 -73.35 -3.6 Q-73.35 -3.2 -73.65 -2.7 -74.0 -2.1 -74.85 -1.4 -76.5 0.05 -78.0 0.05 L-78.4 0.05 -78.5 0.8 -78.3 0.95 -79.0 1.05 Q-81.25 1.05 -82.65 -2.35 -83.25 -3.4 -83.5 -4.85 L-83.5 -5.05 -83.6 -5.55 Q-83.6 -7.1 -82.5 -7.5 -82.05 -8.0 -81.5 -8.0 M-55.8 -55.3 Q-53.7 -55.05 -52.5 -53.4 -51.6 -52.2 -51.6 -51.35 L-51.9 -50.4 -51.75 -49.8 Q-51.75 -47.25 -54.35 -47.25 -58.95 -47.25 -60.0 -50.2 L-60.85 -51.85 Q-60.85 -52.6 -60.3 -53.3 L-60.25 -53.9 Q-60.25 -55.75 -59.0 -55.75 L-55.8 -55.3 M-74.75 -2.9 L-75.35 -2.35 -76.15 -1.7 Q-75.4 -2.0 -75.0 -2.5 L-74.75 -2.9" fill="#ffcc00" fill-rule="evenodd" stroke="none"/>
  </g>
</svg>
