<?xml version="1.0" encoding="UTF-8" standalone="no"?>
<svg xmlns:ffdec="https://www.free-decompiler.com/flash" xmlns:xlink="http://www.w3.org/1999/xlink" ffdec:objectType="shape" height="103.25px" width="140.9px" xmlns="http://www.w3.org/2000/svg">
  <g transform="matrix(1.0, 0.0, 0.0, 1.0, 68.6, 63.75)">
    <path d="M20.2 -63.0 Q21.95 -63.75 23.5 -63.75 29.1 -63.75 31.25 -60.5 L32.2 -58.25 32.3 -57.15 32.3 -56.85 Q32.2 -55.2 31.3 -53.8 30.45 -52.5 28.85 -51.4 L28.6 -51.25 Q23.25 -48.4 20.0 -45.85 L24.8 -45.75 24.85 -45.75 28.85 -45.4 Q32.35 -44.85 34.15 -43.8 L35.15 -43.05 36.0 -43.8 36.05 -43.85 Q38.15 -45.5 39.85 -45.8 L40.5 -45.85 Q42.25 -45.85 43.95 -44.7 L44.45 -44.35 44.5 -44.3 Q46.05 -43.15 47.5 -41.0 L47.6 -40.85 47.65 -40.8 49.5 -37.6 Q51.6 -33.45 52.8 -29.25 52.8 -26.55 51.5 -24.4 L47.25 -19.1 48.15 -17.95 48.2 -17.95 51.25 -14.55 51.25 -14.5 51.3 -14.5 52.05 -13.65 Q53.8 -11.65 53.8 -9.0 53.25 2.8 47.8 3.05 L47.55 3.05 47.3 3.05 Q45.05 2.95 43.4 1.65 44.35 6.1 43.05 12.5 48.8 13.85 50.75 16.55 51.8 18.0 51.8 20.65 L51.8 20.9 51.8 21.0 Q51.65 23.1 49.85 27.1 L47.4 32.05 47.8 34.4 Q47.8 35.65 47.15 37.2 L47.0 37.5 Q46.05 39.5 45.0 39.5 L42.9 38.0 41.9 37.2 36.1 32.8 36.05 32.75 31.25 29.05 Q28.25 30.3 27.0 30.3 22.9 30.3 17.75 26.45 L17.7 26.4 15.15 24.3 14.95 24.1 9.3 18.3 8.9 18.4 2.6 19.25 Q-2.4 19.25 -5.9 17.7 L-7.6 16.8 -8.9 15.9 -8.95 15.85 -9.6 15.25 -9.6 15.5 Q-9.6 18.85 -11.2 21.6 L-12.4 23.25 -12.95 23.9 Q-16.7 27.8 -23.75 27.8 -27.4 27.8 -30.15 26.9 -34.2 25.55 -36.25 22.2 L-36.4 22.0 -37.15 20.5 Q-37.9 18.8 -38.05 17.05 L-38.05 16.7 Q-41.55 16.25 -44.05 13.8 L-46.85 10.75 -49.3 11.15 -51.85 11.8 Q-57.1 11.8 -59.6 8.55 -61.15 6.6 -61.25 4.55 L-61.25 4.25 -61.25 4.05 Q-61.2 0.45 -59.5 -1.1 L-60.15 -1.25 Q-64.5 -2.55 -66.8 -6.45 -68.6 -9.5 -68.6 -12.5 -68.6 -14.15 -66.75 -16.5 L-66.35 -17.0 Q-63.3 -20.6 -58.5 -20.6 L-55.2 -20.35 -54.85 -20.3 -54.75 -20.25 -53.45 -21.8 -53.5 -22.1 Q-53.5 -24.35 -50.85 -26.35 L-47.25 -28.65 -45.0 -28.65 -44.25 -29.25 Q-41.9 -30.9 -34.5 -31.35 -36.6 -32.85 -37.05 -34.0 -37.25 -34.5 -37.25 -36.25 L-37.25 -36.55 Q-37.15 -38.5 -35.9 -41.15 L-35.55 -41.8 Q-34.15 -44.3 -32.15 -44.95 L-30.5 -45.25 -29.25 -45.2 -25.85 -46.5 Q-26.35 -47.6 -26.35 -49.65 L-26.25 -50.95 -25.65 -52.9 -24.85 -54.35 Q-22.85 -57.35 -19.25 -57.35 -15.55 -57.35 -14.1 -56.35 L-12.25 -56.35 -7.15 -55.9 Q-4.8 -56.85 -1.9 -59.25 L-1.85 -59.3 -1.4 -59.7 Q2.15 -62.75 6.5 -62.75 L6.95 -62.75 10.5 -62.45 10.65 -62.45 Q11.9 -62.2 12.6 -61.75 L14.0 -61.0 15.05 -60.75 Q15.95 -60.75 18.6 -62.25 L20.15 -63.0 20.2 -63.0 M6.9 -60.85 Q2.25 -60.25 -0.6 -57.7 -2.6 -55.05 -3.55 -54.5 -2.45 -53.7 -2.0 -52.5 -1.25 -52.0 -2.5 -52.0 L-5.6 -52.8 -7.45 -53.1 -12.4 -53.45 Q-12.95 -53.0 -14.0 -53.0 -20.1 -53.0 -19.35 -54.5 -22.95 -54.5 -24.1 -52.3 L-24.6 -50.6 -24.1 -46.55 Q-24.1 -46.1 -24.4 -45.7 L-24.75 -45.35 -24.9 -45.25 -25.05 -45.15 -25.15 -45.1 Q-25.7 -44.8 -26.5 -44.5 L-28.2 -43.95 -28.25 -43.9 -27.35 -43.75 Q-27.25 -44.5 -27.25 -43.25 -29.35 -41.25 -29.35 -40.65 L-29.2 -39.7 Q-28.7 -38.3 -26.75 -37.0 -25.95 -36.45 -25.0 -36.1 -22.2 -35.05 -18.25 -35.6 -17.75 -36.1 -17.75 -34.85 -17.75 -33.3 -22.35 -30.0 L-23.35 -29.3 Q-28.05 -26.25 -32.1 -26.25 L-35.45 -26.5 -35.5 -26.5 -36.0 -26.6 -36.05 -26.6 -43.0 -27.85 -43.05 -28.05 -44.4 -27.4 -45.25 -26.75 -45.85 -26.8 -46.55 -26.35 Q-51.15 -23.2 -51.35 -20.5 -52.0 -20.5 -52.0 -20.1 L-52.4 -20.15 -53.05 -19.4 -52.75 -18.35 -53.25 -17.85 -53.9 -18.55 -54.1 -18.35 -54.95 -18.4 -55.1 -19.25 -55.1 -19.3 -55.4 -19.35 Q-58.65 -19.35 -61.05 -18.65 L-61.0 -18.35 -59.85 -18.1 Q-60.5 -17.8 -60.5 -16.55 -60.5 -14.05 -57.4 -10.8 -55.25 -8.55 -52.65 -7.65 L-50.85 -7.2 -48.35 -7.1 Q-48.85 -5.6 -49.7 -4.1 -50.35 -3.05 -50.35 -2.25 -50.3 0.9 -48.6 2.5 -46.95 4.05 -43.6 4.05 -40.55 4.05 -39.35 2.1 -39.0 1.55 -38.8 0.85 L-38.75 0.6 Q-38.4 -0.85 -38.6 -2.35 L-38.75 -3.0 Q-38.75 -4.1 -37.75 -4.6 -36.85 -3.85 -36.85 -2.55 L-35.5 0.3 Q-30.2 10.85 -25.95 12.35 L-24.6 12.55 Q-20.5 12.55 -18.55 11.4 L-17.55 10.5 -17.15 9.1 -17.25 9.05 -17.05 8.7 -16.85 8.0 -16.7 8.0 Q-15.15 5.0 -13.75 4.5 -12.2 5.8 -7.7 8.15 -3.55 10.3 -1.1 10.85 L0.3 11.0 Q10.9 11.0 13.6 9.05 L14.75 7.65 Q15.15 7.05 16.0 7.05 17.3 7.05 18.1 8.15 L18.3 8.4 Q18.85 9.25 19.8 11.45 22.1 15.8 28.0 15.8 33.35 15.8 35.75 12.1 36.95 10.2 37.05 8.25 37.05 7.45 35.8 5.65 34.55 3.8 34.55 3.05 L34.8 2.3 35.65 2.25 Q34.6 1.55 33.85 0.25 L31.8 -3.1 Q33.9 -5.05 37.0 -6.4 39.25 -7.4 39.25 -8.05 39.25 -8.8 38.85 -9.2 L38.25 -9.75 Q38.25 -10.5 39.0 -10.75 L40.7 -9.2 Q41.15 -8.75 41.75 -8.55 L43.05 -8.35 Q49.1 -8.35 48.55 -13.0 L47.65 -14.3 Q46.75 -15.45 46.75 -16.0 L46.8 -16.7 44.55 -18.6 45.1 -19.85 44.8 -19.75 Q40.85 -19.75 37.65 -22.9 L36.3 -24.4 36.25 -24.45 34.9 -26.35 33.25 -27.25 Q32.0 -28.2 32.0 -28.8 L32.05 -29.75 32.85 -30.0 32.8 -29.35 Q32.8 -28.75 33.9 -28.1 L33.5 -29.05 33.55 -29.6 34.05 -29.75 35.1 -27.55 Q35.75 -27.25 36.05 -27.25 44.45 -27.25 45.65 -32.5 46.3 -35.3 45.35 -39.8 L45.35 -39.85 45.3 -40.0 46.25 -40.0 46.2 -40.1 Q44.75 -43.0 44.0 -43.75 L43.55 -44.0 Q39.4 -44.0 37.3 -42.3 L36.25 -41.5 36.2 -41.5 36.1 -41.4 35.3 -40.9 35.25 -40.5 Q35.55 -40.25 34.3 -40.25 32.9 -40.25 29.2 -42.3 25.85 -43.5 24.65 -43.5 21.7 -43.5 20.0 -41.7 19.15 -40.8 18.6 -39.45 18.0 -38.15 17.75 -36.35 17.75 -35.2 18.75 -31.85 18.5 -31.5 17.55 -31.35 L15.85 -34.35 15.05 -35.45 Q14.95 -35.1 14.05 -35.0 L13.3 -37.05 Q12.95 -37.3 12.55 -37.5 L12.9 -37.75 10.6 -40.6 8.6 -42.4 Q5.55 -44.65 1.6 -45.15 L1.15 -45.2 Q0.55 -45.05 0.55 -44.5 L0.45 -43.6 -0.6 -43.6 -7.85 -43.75 -7.85 -46.35 -7.65 -46.55 -7.75 -46.6 -7.55 -46.65 Q-7.15 -47.05 -6.5 -47.25 L-5.95 -47.25 0.5 -48.2 0.9 -48.2 1.15 -48.2 2.5 -48.25 Q4.65 -48.25 7.0 -47.4 9.4 -46.6 12.25 -46.6 L12.45 -46.65 Q13.2 -47.0 14.45 -49.7 15.85 -52.85 18.25 -52.85 L19.7 -52.9 19.1 -52.55 19.3 -52.25 22.5 -52.1 Q27.25 -52.1 29.9 -56.0 L29.95 -56.05 30.0 -56.1 30.55 -57.1 Q30.55 -58.1 29.0 -59.75 26.8 -62.0 23.4 -62.0 L20.7 -61.55 Q19.4 -61.15 18.3 -60.35 16.15 -58.75 15.3 -58.75 L13.35 -59.75 Q10.75 -61.1 10.3 -61.1 L7.05 -60.9 6.9 -60.85 M33.05 -47.15 L33.0 -46.6 Q32.3 -46.25 31.5 -46.0 29.75 -47.0 29.75 -47.1 29.75 -47.95 30.05 -48.15 L32.75 -48.5 Q33.05 -48.4 33.05 -47.15 M5.6 -2.55 Q12.1 -3.25 17.0 -5.95 20.45 -7.8 24.25 -10.6 L24.75 -10.25 25.05 -10.15 25.1 -10.3 25.75 -12.1 Q26.3 -11.25 26.3 -10.05 26.3 -6.15 21.45 -2.1 L20.8 -1.6 Q13.85 3.8 2.65 3.8 L2.6 3.8 Q-3.75 3.8 -10.75 -0.45 -12.3 -1.4 -13.85 -2.5 L-14.0 -2.6 -14.15 -2.7 -18.6 -6.3 -18.65 -6.35 -18.7 -6.4 -18.75 -6.45 -20.25 -8.05 Q-22.35 -10.45 -23.0 -13.25 L-22.25 -13.35 Q-20.7 -10.6 -17.25 -7.85 L-12.95 -5.15 -12.8 -5.1 -9.75 -3.9 Q-4.95 -2.35 1.1 -2.35 L5.6 -2.55 M67.05 -30.65 L67.8 -29.5 Q70.1 -29.45 69.6 -26.35 L70.25 -25.05 70.05 -23.75 Q70.25 -23.35 69.0 -23.35 L68.75 -23.35 68.3 -23.25 66.3 -23.35 65.75 -23.35 Q63.85 -23.35 63.15 -24.85 L59.5 -25.35 59.05 -25.35 Q57.1 -25.35 56.5 -27.25 L56.45 -27.4 56.25 -27.75 Q55.75 -28.65 55.7 -29.8 L55.8 -30.8 Q55.8 -31.75 56.8 -33.75 56.9 -35.3 57.8 -35.9 58.9 -36.6 62.0 -36.6 64.1 -36.6 65.35 -34.25 66.55 -33.0 67.05 -30.65 M59.25 -11.15 Q59.25 -14.0 59.75 -17.0 59.75 -18.35 63.25 -18.35 68.3 -18.35 70.75 -14.6 72.3 -12.2 72.3 -9.75 L72.3 -9.3 Q72.15 -7.75 71.05 -6.0 69.3 -3.25 66.4 -3.25 62.05 -3.25 60.25 -6.9 59.65 -8.05 59.45 -9.3 L59.25 -11.15 M62.55 -14.05 Q62.55 -12.75 63.3 -11.6 64.15 -10.25 65.6 -10.25 67.75 -10.25 68.65 -11.95 L69.4 -13.3 68.9 -14.1 Q66.9 -17.0 64.0 -16.5 L64.25 -16.35 65.55 -14.85 Q64.8 -15.3 63.7 -15.35 L63.15 -14.9 Q62.55 -14.65 62.55 -14.05 M68.5 -1.25 L71.3 -0.8 67.7 -0.8 68.5 -1.25 M-33.6 -52.0 Q-33.6 -50.05 -34.6 -48.25 -36.35 -45.25 -40.4 -45.25 -44.55 -45.25 -46.75 -48.9 -48.25 -51.35 -48.25 -53.35 -48.25 -54.95 -46.5 -56.75 -44.45 -58.85 -41.5 -58.85 -36.85 -58.85 -34.75 -55.5 L-33.6 -52.0 M-41.0 -57.0 L-41.0 -56.85 -40.6 -56.9 -41.0 -57.0 M-37.25 31.6 Q-37.25 37.25 -43.5 37.25 -49.75 37.25 -49.75 30.75 -49.75 29.15 -48.75 27.25 -47.2 24.3 -44.25 24.3 -40.05 24.3 -38.25 27.9 -37.3 29.7 -37.25 31.6" fill="#ffcc00" fill-rule="evenodd" stroke="none"/>
  </g>
</svg>
