<?xml version="1.0" encoding="UTF-8" standalone="no"?>
<svg xmlns:ffdec="https://www.free-decompiler.com/flash" xmlns:xlink="http://www.w3.org/1999/xlink" ffdec:objectType="shape" height="86.5px" width="112.55px" xmlns="http://www.w3.org/2000/svg">
  <g transform="matrix(1.0, 0.0, 0.0, 1.0, 60.75, 62.0)">
    <path d="M10.05 -56.55 L8.45 -57.5 Q5.95 -59.0 4.05 -59.0 -2.05 -59.0 -5.85 -55.0 L-8.3 -52.15 -8.45 -52.0 Q-9.8 -50.45 -11.0 -50.1 L-11.85 -50.75 Q-11.1 -52.4 -6.85 -56.45 -2.3 -60.85 -0.5 -60.85 6.4 -60.85 9.7 -58.65 L10.75 -57.55 13.1 -59.7 Q17.1 -62.8 20.5 -61.75 L22.75 -61.85 Q29.8 -61.85 37.55 -55.6 40.35 -55.05 41.3 -52.25 44.8 -48.6 44.8 -45.85 43.8 -42.8 43.8 -41.55 L46.55 -37.0 Q49.3 -32.45 49.3 -29.9 49.3 -25.9 43.8 -21.5 L49.95 -15.2 Q51.8 -13.45 51.8 -10.4 51.8 -7.25 48.45 -5.25 43.55 -2.3 41.0 0.05 L40.75 0.75 Q40.55 1.45 40.55 4.2 46.0 12.25 46.0 16.5 46.0 17.55 44.85 20.8 43.5 24.5 42.5 24.5 37.1 24.5 35.75 23.3 35.35 22.05 34.55 22.05 31.25 23.0 30.0 23.0 22.95 23.0 18.8 18.65 L16.25 15.6 Q15.05 14.25 14.0 14.25 L8.85 15.65 Q4.3 17.0 1.5 17.0 -2.75 17.0 -8.8 14.3 L-11.95 18.05 Q-15.7 21.8 -20.25 21.8 -23.45 21.8 -25.1 20.35 L-25.5 19.95 -27.0 20.8 Q-27.9 19.35 -27.5 19.05 -36.3 19.4 -39.8 13.75 -41.35 11.3 -41.65 8.2 -42.95 8.8 -46.0 8.8 -54.8 8.8 -56.35 1.65 -56.35 -1.7 -53.0 -5.35 -60.75 -14.05 -60.75 -16.8 -60.75 -25.25 -51.0 -25.25 L-49.1 -25.1 -48.0 -26.6 Q-47.8 -26.35 -47.55 -24.35 L-47.5 -24.25 -47.35 -23.85 -47.5 -23.85 -47.5 -23.6 -47.3 -23.55 Q-43.9 -23.35 -41.25 -24.85 -38.3 -26.5 -36.5 -26.5 -31.1 -26.5 -29.45 -24.9 -28.6 -24.05 -28.4 -21.35 -28.2 -18.9 -26.75 -17.85 -24.45 -16.25 -18.0 -16.25 -13.1 -16.25 -10.0 -17.6 -10.55 -21.45 -7.45 -23.45 -5.6 -24.65 -0.35 -25.9 5.1 -27.2 7.05 -28.35 10.5 -30.35 10.5 -34.1 10.5 -39.5 0.65 -42.7 L-6.15 -45.05 Q-9.25 -46.5 -9.25 -48.55 -9.25 -50.75 -8.0 -52.0 -6.45 -46.5 5.25 -43.75 12.5 -42.05 12.5 -34.0 12.5 -31.5 10.25 -28.2 7.9 -24.75 4.55 -22.75 L1.9 -22.65 -2.3 -22.8 Q-7.85 -22.55 -8.0 -18.1 -8.0 -14.0 -15.5 -14.0 -28.8 -14.0 -30.05 -19.1 -30.85 -22.45 -31.0 -22.65 -32.1 -24.25 -36.25 -24.25 -37.75 -24.25 -40.2 -22.85 L-40.9 -22.45 -41.0 -21.8 Q-41.0 -18.7 -39.55 -16.2 L-35.25 -10.0 -33.35 -9.6 -35.5 -5.8 Q-35.85 -5.05 -35.85 -3.05 -35.85 -1.05 -34.6 1.55 -32.95 5.05 -30.35 5.05 -27.55 5.05 -26.8 4.45 L-24.75 3.3 -24.55 3.2 -24.6 2.5 Q-24.6 1.25 -23.0 1.3 L-21.65 2.0 -21.35 3.0 -21.3 3.6 -21.65 3.95 Q-20.35 5.55 -17.95 6.95 -14.3 9.05 -11.1 9.05 -8.6 9.05 -5.5 7.35 L-2.8 5.75 Q-11.15 4.95 -16.2 -3.55 L-17.0 -3.85 Q-17.25 -3.15 -17.25 -4.4 -17.25 -6.1 -16.0 -6.75 -14.85 -6.65 -13.4 -5.3 L-11.8 -3.7 Q-2.35 1.05 1.55 1.05 12.35 1.05 19.5 -3.2 23.15 -5.35 25.0 -7.75 25.75 -8.25 25.75 -7.0 25.75 -6.5 20.85 -1.1 L15.05 5.0 16.3 5.55 Q22.85 5.55 27.05 3.3 29.2 2.2 30.0 1.05 30.0 0.45 29.4 -0.5 28.75 -1.4 28.75 -2.05 28.75 -4.25 35.25 -7.05 41.75 -9.85 41.75 -12.15 41.75 -13.8 36.2 -17.9 L29.25 -22.6 Q28.55 -24.1 29.9 -23.7 L32.8 -22.85 Q42.65 -22.85 44.75 -28.6 44.75 -33.65 39.2 -36.5 29.7 -40.3 21.75 -44.1 L21.75 -45.1 22.5 -45.25 26.3 -43.85 Q35.85 -43.85 39.0 -46.45 40.6 -47.8 40.25 -49.25 L39.85 -51.0 37.3 -53.5 36.1 -54.55 35.25 -54.75 35.25 -55.25 Q29.2 -60.0 22.6 -60.0 14.35 -60.0 12.85 -57.7 L12.45 -56.05 12.55 -56.0 12.3 -55.35 12.2 -55.4 Q11.7 -54.55 11.0 -54.1 L9.8 -54.25 Q9.55 -54.6 9.55 -55.15 9.55 -55.8 10.05 -56.55 M20.25 -2.1 L20.15 -2.0 20.25 -1.85 20.25 -2.1 M46.15 -26.55 L45.9 -26.6 45.9 -26.55 46.15 -26.55 M-20.75 -54.8 L-20.5 -55.25 Q-21.25 -55.35 -20.0 -55.35 -18.75 -55.35 -15.5 -50.15 L-14.45 -48.45 -6.0 -37.25 Q-6.0 -35.0 -9.75 -33.25 -15.65 -30.5 -29.0 -30.5 -35.0 -30.5 -36.9 -34.95 L-37.0 -35.25 Q-38.9 -36.25 -38.9 -38.6 L-39.0 -39.5 Q-39.0 -40.25 -38.5 -40.65 -37.85 -41.85 -36.05 -42.75 L-29.85 -44.85 Q-22.35 -47.25 -21.1 -51.9 L-20.85 -54.6 Q-21.1 -54.75 -20.75 -54.8 M-39.35 -50.1 Q-40.5 -47.75 -43.0 -47.75 -47.0 -47.75 -48.75 -52.65 -48.75 -56.25 -46.0 -56.25 -38.75 -56.25 -38.75 -52.75 -38.75 -51.45 -39.35 -50.1 M-46.35 -51.65 Q-46.35 -50.85 -45.6 -50.0 L-44.85 -49.25 Q-41.85 -49.25 -40.75 -50.9 -40.2 -51.7 -40.25 -52.55 -40.25 -54.5 -45.35 -54.5 -46.35 -54.5 -46.35 -51.65 M-49.45 -23.7 L-49.55 -23.7 -49.5 -23.25 -49.45 -23.7 M-8.0 -37.35 L-8.75 -36.7 Q-8.0 -37.05 -8.0 -37.25 L-8.0 -37.35 M-10.85 -40.65 Q-13.15 -42.75 -14.0 -44.2 L-15.95 -46.45 Q-18.35 -49.45 -19.5 -50.05 -20.15 -46.75 -21.45 -44.8 -23.35 -41.9 -28.0 -40.65 L-25.65 -39.6 Q-22.65 -38.0 -22.0 -38.0 -11.95 -38.0 -11.0 -39.25 -11.35 -40.15 -10.85 -40.65 M-0.75 6.05 L-0.75 5.8 -0.85 5.8 -0.75 6.05" fill="#ffcc00" fill-rule="evenodd" stroke="none"/>
  </g>
</svg>
