<?xml version="1.0" encoding="UTF-8" standalone="no"?>
<svg xmlns:ffdec="https://www.free-decompiler.com/flash" xmlns:xlink="http://www.w3.org/1999/xlink" ffdec:objectType="shape" height="87.5px" width="114.75px" xmlns="http://www.w3.org/2000/svg">
  <g transform="matrix(1.0, 0.0, 0.0, 1.0, 60.75, 63.0)">
    <path d="M47.0 -52.5 Q47.0 -51.05 46.05 -49.3 L46.05 -48.75 45.55 -47.3 Q45.05 -46.5 45.05 -45.9 45.05 -43.55 48.15 -40.95 L48.65 -40.5 48.7 -40.55 49.0 -40.85 49.3 -40.5 49.05 -40.2 51.25 -38.05 Q51.25 -35.7 50.05 -33.6 49.55 -32.2 48.1 -30.85 L44.85 -28.45 42.55 -26.6 Q41.05 -25.55 39.3 -24.75 43.6 -23.35 47.5 -20.5 54.0 -15.8 54.0 -13.1 54.0 -8.2 47.75 -3.4 L43.45 0.05 Q41.5 2.05 41.5 4.05 41.5 6.7 45.0 11.95 48.5 17.15 48.5 19.85 48.5 24.5 41.0 24.5 40.2 24.5 36.95 21.8 33.7 19.05 31.75 19.05 L23.5 20.0 Q20.9 20.0 19.3 16.5 L16.9 9.1 Q15.45 4.35 13.55 2.55 10.95 0.05 6.5 1.5 L4.3 1.5 Q4.05 1.5 4.05 0.8 3.75 0.45 3.75 -0.15 3.75 -4.2 4.45 -6.8 2.15 -7.95 -0.45 -10.3 L-2.75 -11.0 -2.8 -10.8 -2.85 -10.95 -2.85 -11.0 -2.85 -11.55 -2.55 -12.3 -2.75 -12.5 3.05 -20.2 3.05 -20.5 4.25 -21.8 9.0 -28.25 Q9.1 -29.8 11.1 -33.45 12.45 -35.9 12.15 -38.9 L10.5 -40.95 Q9.05 -42.35 4.9 -44.95 0.9 -47.5 -0.7 -49.1 -3.25 -51.7 -3.25 -54.75 -3.25 -57.3 -2.0 -58.5 0.3 -60.6 7.0 -60.6 8.25 -60.6 11.0 -59.6 13.25 -59.6 17.25 -61.3 21.25 -63.0 24.5 -63.0 38.4 -63.0 44.0 -58.1 47.0 -55.5 47.0 -52.5 M8.1 -58.1 L7.0 -58.75 Q0.65 -58.75 -1.1 -56.9 -1.65 -56.3 -1.7 -55.55 L-1.6 -54.8 Q-1.6 -51.55 0.95 -49.2 2.4 -47.9 6.6 -45.6 10.6 -43.45 12.25 -41.8 L12.95 -41.05 13.55 -41.0 13.7 -39.95 Q14.8 -38.0 14.8 -35.55 14.8 -32.8 14.05 -31.35 L13.05 -29.35 Q13.25 -29.3 13.25 -28.55 L11.8 -25.35 12.3 -25.35 11.9 -25.15 11.65 -25.0 Q7.35 -16.25 4.35 -13.5 10.8 -11.7 10.8 -5.85 L10.8 -4.45 10.8 -4.15 10.8 -4.0 13.3 -4.15 Q19.25 -4.45 19.8 0.0 20.35 7.5 22.3 7.5 25.3 7.5 28.55 -1.0 28.55 -2.0 24.55 -4.1 24.8 -5.4 30.15 -8.0 35.6 -10.65 36.25 -12.6 24.7 -18.85 18.85 -23.65 L16.75 -24.5 16.65 -24.3 Q16.55 -24.25 16.55 -25.05 L17.2 -25.6 17.55 -25.7 Q19.75 -26.5 27.0 -27.35 L31.3 -27.25 Q31.8 -27.35 31.8 -26.2 L33.2 -26.1 42.2 -30.2 Q46.55 -32.7 46.55 -36.15 46.55 -36.8 45.9 -37.35 40.6 -33.25 35.3 -33.25 24.9 -33.25 20.05 -36.95 17.25 -39.15 10.8 -49.1 11.1 -49.5 11.75 -49.5 L11.8 -49.5 11.05 -49.75 Q11.05 -50.35 12.25 -50.35 13.45 -50.35 15.75 -48.05 19.35 -45.75 27.0 -45.75 36.85 -45.75 40.05 -47.5 L41.7 -48.7 Q42.5 -49.25 43.75 -49.25 L43.85 -49.2 Q45.05 -51.05 45.05 -51.9 45.05 -60.75 21.05 -60.75 L13.0 -57.5 Q9.0 -57.5 8.1 -58.1 M22.45 -22.25 L22.7 -22.55 22.05 -22.5 22.45 -22.25 M27.6 -4.1 L27.75 -4.5 27.55 -4.1 27.6 -4.1 M42.8 -44.8 Q42.8 -43.1 46.55 -40.15 L44.45 -42.25 43.2 -45.45 42.8 -44.8 M48.55 -35.05 L48.3 -35.85 48.05 -33.85 Q48.55 -34.6 48.55 -35.05 M1.0 6.6 Q1.0 9.65 -5.65 13.4 L-15.0 18.5 -16.9 18.5 -19.8 19.4 Q-24.05 20.5 -27.25 20.5 -32.05 20.5 -33.65 19.05 -34.25 18.5 -35.1 15.9 -36.6 11.3 -48.75 11.3 -56.25 11.3 -56.85 3.4 -56.85 0.8 -51.85 -6.4 -51.85 -7.25 -56.3 -10.95 -60.75 -14.7 -60.75 -18.25 -60.75 -20.1 -58.4 -22.75 -55.25 -26.25 -50.5 -26.25 -43.2 -26.25 -41.5 -23.5 L-41.25 -23.75 Q-39.5 -25.35 -35.5 -25.35 -27.9 -25.35 -25.0 -21.7 -24.1 -20.55 -23.75 -19.15 L-23.6 -17.9 Q-23.6 -16.05 -26.35 -11.9 -29.1 -7.7 -29.1 -6.85 -29.1 -5.55 -28.25 -5.2 L-25.45 -4.8 Q-19.4 -4.1 -13.0 -0.35 -11.75 0.35 -11.75 1.8 -11.7 2.6 -12.0 4.3 -12.1 7.25 -6.0 7.25 L-4.3 7.15 -3.5 6.8 -3.55 7.05 -1.75 6.4 Q-0.65 5.5 -0.25 5.5 L0.8 5.75 1.0 6.6 M-47.5 -56.75 Q-43.95 -56.75 -42.75 -55.6 -42.25 -55.15 -42.25 -54.35 -42.25 -51.0 -45.85 -51.0 -47.4 -51.0 -48.25 -55.15 L-48.35 -56.4 Q-48.3 -56.75 -47.5 -56.75 M-4.75 -44.5 Q-4.0 -42.8 -3.7 -40.75 L-3.6 -38.85 Q-3.6 -36.35 -7.5 -32.85 -12.3 -28.6 -18.6 -28.6 -32.2 -28.6 -34.4 -32.75 -35.1 -34.0 -34.8 -36.05 L-34.65 -37.05 -35.6 -38.85 -34.75 -39.0 -34.1 -38.9 -33.75 -39.0 -31.1 -37.2 Q-28.8 -35.85 -27.75 -35.85 L-23.7 -36.15 -23.6 -36.35 -23.15 -36.25 Q-20.7 -36.8 -19.35 -38.05 -17.65 -39.6 -17.45 -42.85 L-17.15 -47.65 Q-16.5 -49.85 -13.5 -49.85 -9.7 -49.85 -7.3 -47.9 L-6.4 -47.1 Q-5.45 -46.0 -4.75 -44.5 M-15.35 -45.7 L-16.15 -41.05 Q-16.8 -38.0 -18.45 -36.3 -14.25 -37.75 -11.8 -40.75 -10.9 -41.85 -8.85 -46.75 -10.7 -47.85 -13.5 -47.85 -14.85 -47.85 -15.35 -45.7 M-25.0 -34.25 L-25.1 -34.25 -25.1 -34.0 -25.0 -34.25 M-27.1 -21.5 Q-29.6 -23.1 -37.4 -23.2 L-37.5 -23.0 -37.4 -23.0 Q-35.5 -23.0 -35.25 -22.35 L-37.0 -22.0 -37.5 -21.75 Q-36.15 -21.0 -35.2 -19.3 -34.35 -17.8 -34.35 -16.85 -34.35 -15.55 -36.1 -12.2 -37.85 -8.8 -37.85 -7.1 -37.85 -4.3 -28.2 2.5 L-22.0 6.4 Q-21.5 5.65 -20.85 5.3 -20.85 6.05 -21.15 6.85 L-17.8 8.35 -18.5 8.25 -17.85 8.4 -17.75 8.45 -11.05 9.95 -9.75 10.0 -8.05 9.1 Q-12.25 8.5 -13.1 6.25 -13.35 5.55 -13.4 3.5 -13.45 1.85 -14.1 1.25 -16.45 -0.95 -24.5 -2.0 -30.85 -2.85 -30.85 -6.65 -30.85 -8.1 -28.2 -12.3 -25.6 -16.45 -25.6 -18.1 -25.6 -20.55 -27.1 -21.5 M-5.15 9.75 L-4.5 9.3 -4.8 9.3 -5.1 9.65 -5.15 9.75 M-7.55 12.3 L-7.3 12.1 -7.6 12.25 -7.55 12.3" fill="#ffcc00" fill-rule="evenodd" stroke="none"/>
  </g>
</svg>
