<?xml version="1.0" encoding="UTF-8" standalone="no"?>
<svg xmlns:ffdec="https://www.free-decompiler.com/flash" xmlns:xlink="http://www.w3.org/1999/xlink" ffdec:objectType="shape" height="84.5px" width="107.75px" xmlns="http://www.w3.org/2000/svg">
  <g transform="matrix(1.0, 0.0, 0.0, 1.0, 54.25, 64.0)">
    <path d="M41.0 -56.25 Q41.4 -54.15 43.0 -53.1 49.5 -48.75 51.1 -47.15 53.5 -44.85 53.5 -41.85 53.5 -34.95 41.5 -35.5 33.5 -35.85 24.1 -33.75 16.05 -31.6 15.0 -31.6 9.75 -31.6 10.05 -36.55 10.05 -37.85 13.05 -40.9 16.05 -43.9 16.05 -45.0 16.05 -47.05 11.65 -50.35 7.25 -53.65 7.25 -56.8 7.25 -61.25 10.5 -61.25 L17.35 -60.25 Q21.3 -60.25 24.4 -62.1 27.5 -64.0 30.75 -64.0 39.5 -64.0 40.5 -59.85 L41.0 -56.25 M13.5 -53.75 L13.85 -53.7 13.8 -52.85 Q13.8 -51.4 16.05 -50.25 18.9 -48.75 24.25 -48.75 33.75 -48.75 36.65 -51.9 L38.2 -54.25 39.0 -55.15 38.6 -58.15 Q37.6 -61.75 28.75 -61.75 L26.65 -61.3 24.65 -60.25 Q20.9 -58.75 10.75 -58.75 8.75 -58.75 8.75 -56.8 8.75 -54.35 13.3 -51.45 L14.9 -50.3 16.15 -49.05 16.35 -49.3 14.95 -50.4 Q13.75 -51.5 13.05 -52.75 L13.25 -53.5 13.5 -53.75 M20.9 -43.2 Q19.7 -44.5 18.0 -45.35 L17.8 -45.45 17.8 -45.0 Q17.8 -42.85 14.8 -40.25 11.8 -37.65 11.8 -36.35 11.8 -35.75 12.3 -34.85 13.1 -33.5 14.5 -33.5 16.65 -33.5 17.8 -34.1 L20.5 -35.35 Q23.9 -36.55 32.65 -36.95 25.9 -37.65 23.4 -40.15 L20.9 -43.2 M3.3 -13.0 L4.05 -13.1 4.0 -11.6 7.25 -6.9 7.4 -6.65 7.5 -7.15 7.55 -7.75 8.05 -7.85 Q9.4 -6.5 9.05 -5.2 L8.55 -3.55 Q8.75 -2.7 10.1 -1.85 L9.6 -2.0 10.05 -1.8 12.5 -0.6 13.05 -0.3 12.5 -0.65 14.25 -0.05 Q17.55 1.0 18.95 2.5 23.35 2.35 23.75 -3.25 23.75 -4.75 21.8 -6.7 19.9 -8.55 17.75 -9.25 20.8 -12.35 23.55 -14.45 24.8 -15.6 24.8 -18.35 24.8 -20.55 24.6 -20.95 L21.0 -24.5 21.05 -24.8 13.75 -25.5 Q8.8 -25.5 6.05 -20.65 4.9 -18.65 3.3 -13.0 M4.55 -20.75 Q9.15 -27.35 16.0 -27.35 20.3 -27.35 24.2 -25.65 28.1 -24.0 29.25 -24.0 L37.25 -25.0 Q45.25 -25.0 49.35 -20.0 52.0 -16.75 52.0 -14.0 52.0 -8.8 44.75 -5.2 L39.75 -2.6 Q37.5 -1.1 37.5 0.75 37.5 2.2 38.5 4.4 39.5 6.6 39.5 8.75 39.5 11.35 37.75 13.5 34.9 17.0 28.5 17.0 18.65 17.0 18.0 11.8 17.85 10.65 18.25 7.6 L18.35 5.35 17.55 5.75 Q16.85 2.3 11.7 0.6 6.8 -1.0 6.8 -2.65 L7.05 -4.85 7.0 -6.1 Q7.0 -6.8 4.15 -8.75 1.25 -10.7 1.25 -13.6 1.25 -16.0 4.55 -20.75 M40.7 -37.2 L40.7 -37.45 40.4 -37.2 40.7 -37.2 M1.8 4.85 L0.7 6.0 0.75 6.05 Q-0.45 6.85 -3.45 9.75 -6.05 11.9 -8.25 12.2 L-9.5 13.0 Q-20.9 20.5 -22.5 20.5 -31.85 20.5 -33.4 15.45 -34.15 12.9 -33.0 10.0 -43.35 8.35 -43.35 3.4 -43.35 0.95 -38.75 -1.35 -32.8 -4.35 -22.5 -4.35 -17.25 -4.35 -15.05 -2.7 -13.65 -1.65 -12.9 1.0 -12.15 3.7 -11.1 4.65 -9.3 6.3 -4.75 6.3 -2.5 6.3 -1.35 5.7 L-1.0 5.25 -0.75 5.3 Q-0.05 4.3 0.5 4.05 L1.55 4.05 Q1.8 3.6 1.8 4.85 M-15.1 -58.45 Q-13.35 -52.75 -8.6 -52.75 -5.1 -52.75 -3.05 -54.2 L-2.45 -54.6 Q-3.35 -59.85 -10.35 -59.85 -13.3 -59.85 -15.1 -58.45 M-19.1 -54.45 Q-18.85 -56.1 -18.1 -57.5 -15.8 -61.85 -10.0 -61.85 -3.5 -61.85 -1.4 -57.45 L-0.85 -55.9 -0.45 -55.75 -0.25 -54.85 Q-0.25 -54.4 -0.6 -53.95 L-0.6 -52.9 Q-0.6 -50.65 -1.85 -48.25 -3.75 -44.6 -7.5 -44.6 -15.4 -44.6 -18.1 -48.7 -19.45 -50.8 -19.25 -53.0 L-19.1 -54.45 M-54.25 -18.55 Q-54.25 -20.5 -53.35 -22.5 -51.95 -25.75 -49.0 -25.75 -45.1 -25.75 -42.3 -24.4 -39.5 -23.1 -38.25 -23.1 -36.2 -23.1 -33.7 -23.95 -31.15 -24.85 -29.0 -24.85 -24.9 -24.85 -23.15 -22.6 -22.1 -21.3 -22.1 -19.8 -22.1 -18.05 -27.1 -11.35 -32.65 -3.85 -36.35 -3.85 -41.7 -3.85 -48.5 -11.1 -51.9 -14.75 -54.25 -18.55 M-17.5 -32.75 L-23.25 -33.35 Q-23.6 -33.6 -23.6 -35.6 -23.6 -40.5 -19.6 -40.5 -16.1 -40.5 -14.75 -35.55 -14.75 -32.75 -17.5 -32.75 M-24.6 -21.85 Q-25.5 -23.0 -26.85 -23.0 -31.55 -23.0 -33.6 -22.05 -34.9 -21.45 -36.35 -21.2 -33.9 -20.4 -33.05 -19.45 -32.35 -18.65 -32.35 -16.4 L-33.85 -9.1 -30.7 -9.5 Q-27.3 -13.1 -23.85 -19.75 -23.85 -20.85 -24.6 -21.85 M-28.8 -1.05 Q-25.9 0.6 -21.8 4.05 -14.05 10.55 -12.85 10.55 -7.85 10.55 -4.5 8.45 -9.4 8.05 -11.6 6.45 -13.05 5.35 -13.85 2.75 -14.7 0.1 -15.8 -0.75 -17.7 -2.35 -22.6 -2.35 L-28.8 -1.05" fill="#ffcc00" fill-rule="evenodd" stroke="none"/>
  </g>
</svg>
