<?xml version="1.0" encoding="UTF-8" standalone="no"?>
<svg xmlns:ffdec="https://www.free-decompiler.com/flash" xmlns:xlink="http://www.w3.org/1999/xlink" ffdec:objectType="shape" height="74.0px" width="94.8px" xmlns="http://www.w3.org/2000/svg">
  <g transform="matrix(1.0, 0.0, 0.0, 1.0, 44.0, 51.25)">
    <path d="M33.5 -49.75 Q37.55 -49.75 40.05 -48.6 L40.25 -48.55 Q41.6 -47.9 42.5 -46.85 43.75 -45.45 43.75 -43.65 43.75 -42.95 42.0 -40.3 40.25 -37.6 40.25 -37.1 40.25 -36.4 42.5 -34.15 44.75 -31.85 44.75 -30.9 44.75 -29.6 43.25 -28.15 40.95 -25.85 36.5 -25.85 32.6 -25.85 31.9 -26.8 31.15 -27.75 25.45 -27.75 24.8 -26.85 24.25 -26.85 L24.15 -26.65 Q24.05 -26.6 24.05 -27.3 L17.5 -24.85 Q13.6 -24.85 12.85 -27.25 12.45 -28.4 12.8 -29.65 12.8 -32.0 15.55 -35.45 L18.0 -38.55 18.05 -38.7 18.0 -38.75 18.2 -39.75 Q17.65 -41.95 14.05 -43.2 9.8 -44.7 9.8 -46.8 9.8 -47.4 11.45 -48.2 L11.5 -48.2 15.0 -49.6 Q19.85 -51.25 21.5 -51.25 L24.45 -50.5 Q26.75 -49.75 33.5 -49.75 M38.6 -47.1 L30.0 -47.25 Q22.15 -47.25 21.3 -49.5 L15.0 -48.35 11.55 -48.1 Q11.3 -48.05 11.3 -46.8 11.3 -46.3 15.45 -43.85 19.0 -41.7 19.5 -39.7 L22.85 -39.25 Q32.75 -39.25 36.65 -43.85 38.0 -45.4 38.6 -47.1 M24.8 -29.5 Q25.55 -31.0 25.55 -31.75 25.55 -32.5 23.65 -34.6 21.7 -36.7 19.25 -37.95 18.65 -36.6 16.8 -34.65 14.05 -31.65 14.05 -29.75 L14.05 -27.85 Q14.5 -26.35 16.75 -26.35 18.05 -26.35 21.0 -27.8 23.25 -28.9 24.65 -29.15 L24.8 -29.5 M9.65 -7.0 L13.15 -4.3 13.5 -4.0 14.0 -4.5 Q15.2 -3.1 16.05 -1.5 18.25 1.3 18.25 4.45 L19.65 8.4 Q25.75 3.95 25.75 3.45 25.75 2.35 23.8 -0.3 21.8 -2.95 21.8 -4.25 21.8 -6.0 23.9 -7.8 25.85 -9.45 26.0 -11.25 23.2 -12.05 21.8 -13.75 21.8 -15.75 15.3 -15.75 10.15 -15.75 8.05 -9.75 8.05 -8.4 9.65 -7.0 M12.05 -3.65 Q6.8 -6.1 6.8 -9.65 6.8 -17.35 19.5 -17.35 20.75 -17.35 22.65 -16.1 L24.8 -14.35 25.0 -14.2 24.55 -15.1 25.05 -15.25 26.3 -13.95 27.8 -13.85 45.25 -13.25 Q49.7 -13.0 50.6 -10.45 50.8 -9.9 50.8 -5.6 50.8 -1.55 42.8 5.05 L43.05 5.25 43.25 5.65 Q39.35 9.15 26.3 16.75 23.65 16.75 23.25 16.25 L23.9 15.7 Q19.6 14.55 18.05 9.5 L18.0 10.55 17.25 11.05 16.2 3.7 Q15.6 0.15 14.45 -2.3 L12.05 -3.65 M22.25 12.7 L22.25 12.75 22.3 12.8 22.25 12.7 M-11.25 -49.75 L-10.85 -49.7 -10.8 -49.75 -11.25 -49.75 M-44.0 -10.9 Q-33.65 -16.25 -29.0 -16.25 -21.85 -16.25 -20.15 -11.65 L-20.0 -11.75 -19.4 -11.6 Q-19.25 -11.55 -19.25 -10.8 -19.25 -10.4 -19.75 -9.75 -19.95 -7.9 -21.65 -5.5 -24.25 -1.85 -28.6 -1.85 -37.65 -1.85 -41.6 -5.85 -44.0 -8.25 -44.0 -10.9 M-3.25 -46.55 Q-3.25 -48.1 -4.95 -48.85 -6.85 -49.75 -9.9 -48.85 L-10.0 -47.25 Q-10.0 -45.0 -5.6 -45.0 L-3.25 -45.9 -3.25 -46.55 M-1.75 -46.35 L-1.75 -46.15 -1.35 -46.1 Q-1.55 -44.75 -1.85 -44.2 L-2.15 -43.8 -2.5 -42.95 Q-3.6 -40.35 -5.5 -40.35 -12.1 -40.35 -14.0 -42.85 -14.6 -43.65 -14.6 -45.65 -14.6 -47.55 -13.0 -49.25 -11.1 -51.25 -8.0 -51.25 -4.25 -51.25 -2.65 -49.0 -1.75 -47.7 -1.75 -46.35 M-4.1 -43.25 L-4.5 -43.25 -4.3 -43.0 -4.1 -43.25 M-14.75 -30.65 Q-14.75 -30.05 -15.75 -28.95 -16.8 -27.85 -17.55 -27.85 -20.35 -27.85 -19.85 -30.85 -19.85 -31.7 -19.25 -32.7 L-18.5 -33.6 Q-13.85 -33.6 -14.75 -30.65 M-32.8 -13.1 L-33.0 -12.25 Q-33.0 -11.45 -32.0 -10.35 -30.6 -8.85 -28.35 -8.85 -22.3 -8.85 -21.55 -9.65 L-21.35 -10.35 Q-21.45 -14.5 -29.0 -14.5 -30.6 -14.5 -32.0 -13.65 L-32.8 -13.1 M-34.25 -12.1 L-34.1 -12.1 -34.1 -12.2 -34.25 -12.1 M-18.25 5.85 L-20.9 7.3 -15.95 11.65 Q-13.6 13.7 -11.05 14.9 L-10.2 14.95 -8.5 13.8 -7.6 12.8 Q-10.65 10.95 -12.15 7.6 -13.6 6.05 -18.25 5.85 M-16.25 4.4 Q-14.25 4.4 -5.75 12.5 L-5.75 12.6 -4.35 12.25 Q-4.1 11.65 -4.1 12.9 -4.1 14.4 -6.25 16.35 L-6.25 16.6 Q-6.25 18.15 -8.75 20.25 -11.75 22.75 -15.6 22.75 -18.8 22.75 -35.25 8.7 -35.25 6.85 -33.85 6.4 L-28.2 5.9 Q-26.8 5.2 -23.05 4.35 L-18.25 3.4 Q-17.75 3.85 -17.75 4.35 L-17.75 4.4 -16.25 4.4 M-12.1 16.45 L-12.0 16.5 -11.95 16.5 -12.1 16.45 M-22.9 6.45 L-22.8 6.5 -22.85 6.4 -22.9 6.45" fill="#ffcc00" fill-rule="evenodd" stroke="none"/>
  </g>
</svg>
