<?xml version="1.0" encoding="UTF-8" standalone="no"?>
<svg xmlns:ffdec="https://www.free-decompiler.com/flash" xmlns:xlink="http://www.w3.org/1999/xlink" ffdec:objectType="shape" height="64.85px" width="84.75px" xmlns="http://www.w3.org/2000/svg">
  <g transform="matrix(1.0, 0.0, 0.0, 1.0, 37.5, 46.85)">
    <path d="M40.25 -41.75 Q43.55 -40.55 43.55 -39.65 39.85 -35.0 36.35 -32.45 32.05 -29.35 28.0 -29.35 25.9 -29.35 19.5 -35.6 13.5 -41.45 13.5 -42.0 13.5 -43.6 14.75 -45.0 16.3 -46.75 19.0 -46.75 L20.4 -46.5 Q27.65 -46.35 33.95 -43.95 L36.1 -43.05 36.35 -42.95 38.25 -42.45 38.25 -43.0 39.25 -43.1 Q40.1 -43.1 40.2 -42.7 L40.25 -41.75 M36.8 -40.95 L36.35 -41.15 33.05 -42.6 Q29.1 -44.2 25.8 -44.85 L24.45 -45.1 22.9 -45.1 18.0 -44.7 Q17.5 -43.55 17.5 -43.0 L17.4 -42.45 Q18.0 -41.8 20.05 -41.6 L20.25 -41.25 20.1 -40.95 22.15 -40.05 Q26.8 -38.35 31.8 -38.35 34.75 -38.35 36.35 -39.3 37.2 -39.8 37.65 -40.55 L36.8 -40.95 M14.75 -43.0 L14.5 -42.1 14.8 -41.8 14.8 -42.05 Q14.8 -42.65 14.95 -42.85 L14.75 -43.05 14.75 -43.0 M18.25 -9.25 L18.15 -9.05 Q18.05 -9.0 18.05 -9.5 L14.75 -9.75 Q11.6 -9.75 11.15 -6.15 L11.75 -6.5 Q13.7 -4.25 14.05 -4.25 19.25 -4.25 20.55 -6.45 21.25 -7.65 21.3 -9.5 L21.35 -9.7 Q20.75 -9.4 20.25 -8.75 L18.65 -9.35 18.45 -9.4 18.25 -9.25 M20.0 -11.6 L21.5 -11.35 21.75 -12.1 22.05 -12.1 Q27.85 -12.1 30.75 -3.8 L30.55 -2.6 30.75 -2.3 Q30.75 0.45 29.25 1.25 26.9 2.5 18.1 2.5 13.2 2.5 11.0 -1.25 9.9 -3.15 9.8 -5.15 9.8 -6.9 12.25 -9.1 15.05 -11.6 18.25 -11.6 L19.55 -11.45 20.0 -11.6 M36.35 -0.2 Q39.9 0.5 40.55 3.2 40.55 4.35 38.05 6.75 L36.35 8.15 Q34.4 9.5 32.55 9.5 31.0 9.5 30.0 7.85 L29.3 6.2 Q29.3 4.85 30.3 3.75 L33.25 1.15 33.3 0.9 33.25 0.9 31.25 1.15 Q32.4 -0.5 33.3 -0.5 L36.35 -0.2 M36.3 -9.35 L36.35 -9.4 Q38.05 -10.75 41.0 -10.75 47.25 -10.75 47.25 -7.85 47.25 -6.9 46.5 -5.6 45.5 -3.85 44.0 -3.85 38.4 -3.85 37.5 -6.25 37.1 -7.45 37.75 -8.85 37.75 -10.1 36.35 -9.35 L36.3 -9.35 M42.05 -39.6 L42.0 -39.6 41.8 -39.25 42.05 -39.6 M-14.6 -44.85 Q-13.0 -46.85 -12.35 -46.85 -6.35 -46.85 -6.35 -43.8 -6.35 -41.0 -10.15 -41.0 -13.2 -41.0 -13.9 -42.15 -14.3 -42.85 -14.6 -44.85 M-16.25 -32.5 L-15.0 -31.0 -15.35 -29.85 -16.3 -29.5 Q-17.6 -29.5 -18.0 -30.5 L-16.25 -32.5 M-25.0 -11.6 Q-16.15 -11.6 -17.35 -7.35 -22.75 2.0 -31.25 2.0 -36.6 2.0 -37.5 -3.6 -37.5 -5.0 -34.0 -7.95 -29.75 -11.6 -25.0 -11.6 M-26.3 -10.05 L-26.5 -8.85 Q-26.5 -7.5 -25.0 -6.7 -23.0 -5.55 -19.5 -7.1 L-18.85 -6.9 -18.6 -7.4 Q-18.6 -10.1 -25.75 -10.1 L-26.3 -10.05 M-2.55 9.85 L-3.5 9.05 Q-7.4 5.95 -14.1 5.9 L-11.65 7.85 Q-8.45 10.15 -6.85 10.15 L-2.55 9.85 M-0.1 8.3 Q0.25 8.35 0.25 9.15 L-0.75 10.15 Q0.55 11.7 0.55 13.1 0.55 15.55 -0.4 16.25 -2.8 18.0 -11.75 18.0 -17.8 18.0 -20.65 14.65 -22.5 12.45 -22.5 9.95 -22.5 7.7 -20.25 6.0 -17.9 4.25 -14.5 4.25 -8.3 4.25 -3.5 7.75 L-1.9 9.05 -1.0 8.25 -0.1 8.3" fill="#ffcc00" fill-rule="evenodd" stroke="none"/>
  </g>
</svg>
