<?xml version="1.0" encoding="UTF-8" standalone="no"?>
<svg xmlns:ffdec="https://www.free-decompiler.com/flash" xmlns:xlink="http://www.w3.org/1999/xlink" ffdec:objectType="shape" height="57.15px" width="77.2px" xmlns="http://www.w3.org/2000/svg">
  <g transform="matrix(1.0, 0.0, 0.0, 1.0, 33.15, 42.6)">
    <path d="M26.0 -42.35 Q31.35 -42.35 33.3 -39.75 34.3 -38.4 34.25 -37.0 34.25 -35.85 33.5 -34.4 32.4 -32.25 30.4 -32.25 26.35 -32.25 24.3 -36.05 23.25 -37.95 23.05 -40.0 23.05 -40.6 24.25 -41.5 25.4 -42.35 26.0 -42.35 M15.5 -9.6 Q19.35 -9.6 22.75 -4.3 22.75 -2.75 21.55 -1.5 20.1 0.05 17.5 0.05 13.3 0.05 13.25 -4.9 13.25 -9.6 15.5 -9.6 M40.5 -3.85 Q40.0 -4.55 40.0 -5.0 40.0 -5.35 41.5 -6.85 42.85 -6.15 44.05 -4.5 L44.0 -3.35 Q43.75 -2.85 42.5 -2.85 41.25 -2.85 40.5 -3.85 M31.0 7.25 Q34.75 7.25 34.75 8.5 34.75 12.55 32.3 12.55 30.15 12.55 29.5 10.55 L29.3 8.5 Q29.3 7.25 31.0 7.25 M-8.85 -41.05 L-9.0 -39.85 -10.5 -39.5 Q-11.7 -39.5 -13.1 -40.0 L-13.35 -41.5 -13.25 -42.5 -12.35 -42.6 Q-12.35 -42.25 -12.6 -42.0 L-9.25 -42.25 Q-8.85 -42.3 -8.85 -41.05 M-32.4 -6.75 Q-31.6 -8.45 -30.85 -9.1 L-32.35 -10.6 Q-31.9 -11.1 -31.25 -11.1 L-24.65 -10.35 Q-21.75 -9.65 -21.75 -8.6 -21.75 -6.35 -23.15 -4.45 -25.1 -1.85 -29.0 -1.85 -33.5 -1.85 -33.1 -5.0 L-32.4 -6.75 M-16.1 9.5 Q-16.1 7.55 -13.5 7.0 -7.2 7.0 -5.1 8.95 -4.05 9.9 -4.25 11.0 -4.25 11.85 -5.5 13.05 -7.05 14.55 -9.3 14.55 -15.75 14.55 -16.1 9.5" fill="#ffcc00" fill-rule="evenodd" stroke="none"/>
  </g>
</svg>
