<?xml version="1.0" encoding="UTF-8" standalone="no"?>
<svg xmlns:ffdec="https://www.free-decompiler.com/flash" xmlns:xlink="http://www.w3.org/1999/xlink" ffdec:objectType="shape" height="109.55px" width="163.65px" xmlns="http://www.w3.org/2000/svg">
  <g transform="matrix(1.0, 0.0, 0.0, 1.0, 82.4, 54.2)">
    <path d="M11.4 -54.2 Q11.8 -54.2 14.15 -52.6 15.8 -51.5 17.0 -51.2 17.0 -50.95 17.15 -50.95 L17.9 -51.05 18.15 -51.05 Q18.9 -51.15 18.65 -51.5 L19.65 -51.95 22.55 -52.8 Q24.1 -52.8 24.1 -49.2 L24.05 -47.1 Q23.25 -46.65 22.05 -46.65 L18.55 -48.35 Q18.05 -48.15 17.85 -47.5 L17.4 -46.45 Q16.4 -45.1 11.85 -45.1 L7.7 -45.7 9.1 -40.8 Q9.1 -40.25 8.45 -39.2 7.75 -38.15 7.75 -37.8 7.75 -37.1 7.9 -37.1 L8.0 -37.3 8.85 -37.15 9.65 -37.75 Q13.35 -37.15 15.2 -35.6 L17.15 -33.2 19.4 -34.95 Q22.0 -36.35 28.0 -36.35 30.55 -36.4 33.3 -35.45 L33.4 -34.85 33.5 -35.05 33.95 -35.2 34.65 -34.9 Q35.1 -32.05 34.5 -30.05 33.05 -25.8 25.5 -25.75 L25.25 -25.75 Q23.7 -25.75 23.2 -26.65 L22.75 -26.2 Q23.0 -25.35 23.5 -25.05 L25.3 -24.65 Q26.2 -23.35 28.25 -21.85 31.7 -19.35 35.5 -19.35 L36.85 -19.45 36.15 -18.6 Q33.55 -17.25 33.55 -16.35 33.55 -15.6 33.75 -15.45 L34.45 -15.4 34.55 -14.75 35.15 -14.75 Q36.95 -15.95 37.65 -15.95 38.8 -15.95 39.9 -14.6 L41.1 -12.9 Q46.5 -14.95 54.85 -11.8 L57.25 -10.8 56.6 -9.75 Q55.45 -7.8 52.0 -7.8 51.8 -7.8 50.85 -8.55 49.85 -9.4 48.8 -9.4 48.5 -9.45 46.45 -8.1 44.4 -6.85 41.15 -6.85 35.6 -9.65 34.9 -10.25 34.05 -9.2 33.9 -6.75 L33.5 -4.35 32.85 -4.9 32.2 -4.8 32.35 -4.75 Q31.95 -4.2 31.95 -2.9 32.6 -0.85 31.25 1.2 28.55 5.15 18.55 5.15 15.95 5.15 15.4 3.4 14.8 1.65 13.8 1.65 L13.05 1.95 Q9.35 17.3 1.05 17.3 -9.8 17.3 -13.35 12.35 -15.0 10.15 -15.6 6.85 L-15.4 6.8 -15.1 6.3 Q-15.1 5.4 -15.4 4.45 L-15.85 4.45 -15.95 5.6 -16.7 5.4 Q-29.2 5.4 -32.6 -2.45 -33.45 -4.45 -34.2 -8.5 -34.75 -11.85 -35.55 -12.6 L-36.35 -12.6 Q-36.35 -2.45 -44.8 -2.4 -49.7 -2.45 -52.45 -5.7 -53.4 -6.85 -55.15 -10.7 -55.65 -10.25 -55.85 -9.2 -56.05 -8.2 -56.45 -7.75 -58.1 -6.05 -67.0 -6.05 -69.45 -6.05 -72.2 -10.5 L-72.4 -10.1 -72.6 -10.2 -72.35 -10.55 Q-70.55 -12.7 -62.3 -12.65 -56.35 -12.7 -52.5 -15.65 -48.75 -18.65 -41.55 -18.65 -39.85 -18.65 -39.25 -18.2 L-37.95 -17.25 -37.05 -17.7 -37.2 -17.9 -36.35 -17.8 -35.55 -19.65 Q-31.2 -22.15 -26.1 -26.1 -18.2 -32.35 -18.15 -35.05 -18.15 -36.25 -19.2 -35.55 -20.5 -33.9 -22.3 -32.6 -25.8 -30.05 -30.95 -30.15 -29.9 -31.25 -27.45 -34.7 -24.6 -38.75 -24.6 -39.85 -24.6 -40.6 -24.9 -40.65 L-25.65 -40.65 -27.95 -39.3 Q-29.75 -38.35 -30.95 -38.3 -34.25 -38.35 -37.1 -40.2 -39.15 -41.5 -39.9 -43.2 -38.95 -43.95 -38.35 -44.85 L-36.85 -47.75 Q-35.4 -50.9 -29.1 -50.9 -27.9 -50.95 -26.9 -48.6 -25.9 -46.25 -24.3 -46.25 -23.1 -46.25 -22.2 -47.15 -21.35 -48.05 -17.15 -48.05 -15.15 -48.05 -12.9 -44.7 L-11.05 -42.1 -10.55 -41.5 -9.65 -40.8 -9.3 -41.5 -9.75 -42.8 -8.5 -44.25 Q-5.8 -46.25 1.75 -46.25 L5.9 -45.7 5.9 -46.4 5.1 -46.65 5.05 -46.65 5.2 -46.95 Q4.2 -48.75 4.8 -50.8 5.75 -54.2 11.4 -54.2 M32.6 -49.9 Q32.6 -47.8 31.7 -47.8 L28.0 -47.9 27.55 -51.05 27.8 -52.1 30.3 -52.3 Q33.3 -52.35 32.6 -49.9 M8.7 -3.0 Q17.1 -3.05 19.75 -14.55 21.5 -16.05 21.55 -17.8 L21.4 -18.65 Q21.1 -18.7 20.85 -18.9 L20.35 -18.3 19.05 -18.25 18.7 -16.45 Q17.0 -14.75 15.9 -14.0 12.95 -12.0 5.75 -11.95 -3.0 -12.0 -8.4 -17.4 -11.1 -20.15 -12.3 -23.3 -12.9 -23.1 -12.85 -21.9 L-12.75 -21.45 -13.0 -20.8 Q-12.5 -16.35 -9.55 -11.9 -3.65 -3.05 8.7 -3.0 M44.05 -32.4 Q44.75 -31.75 44.75 -31.25 44.75 -29.35 43.1 -29.35 41.9 -29.35 40.75 -30.85 L40.75 -33.0 41.5 -33.25 Q43.1 -33.25 44.05 -32.4 M54.75 -20.3 Q54.75 -22.95 57.45 -22.95 60.55 -22.95 60.7 -19.8 60.65 -18.2 58.0 -18.2 56.3 -18.2 55.35 -19.2 L54.75 -20.3 M78.4 -6.05 L78.35 -5.85 Q78.25 -5.85 78.25 -6.55 78.25 -8.5 79.8 -8.5 L81.25 -8.4 Q81.0 -7.0 81.2 -6.3 80.9 -5.95 80.15 -5.9 L78.4 -6.05 M31.5 33.75 Q28.85 33.75 27.45 30.5 26.55 28.35 26.55 26.5 26.55 26.0 27.45 25.25 28.25 24.55 28.5 24.55 33.25 24.55 34.55 30.1 34.55 33.75 31.5 33.75 M43.2 49.5 Q44.25 49.5 45.95 50.85 47.6 52.15 47.6 53.05 47.6 53.9 46.85 54.65 46.1 55.3 45.25 55.35 43.3 55.3 42.5 53.4 42.0 52.3 42.05 51.2 42.0 50.25 42.55 49.5 L43.2 49.5 M-46.85 -51.75 Q-44.55 -51.75 -43.1 -50.35 -42.05 -49.35 -42.0 -48.75 -42.05 -45.55 -45.5 -45.55 -49.05 -45.55 -49.7 -48.75 -49.7 -49.65 -48.7 -50.7 -47.65 -51.75 -46.85 -51.75 M-57.45 -45.55 Q-60.1 -45.55 -60.75 -47.25 -60.8 -50.35 -59.05 -50.35 -55.4 -50.35 -55.4 -48.05 -55.4 -47.3 -55.95 -46.5 -56.6 -45.55 -57.45 -45.55 M-29.6 11.85 L-29.25 13.6 Q-29.25 15.75 -31.25 18.0 -33.5 20.55 -36.55 20.55 -38.0 20.55 -39.0 19.05 -39.75 17.9 -39.75 17.0 -39.15 10.25 -34.5 10.25 -30.75 10.25 -29.6 11.85 M-78.65 10.3 Q-81.6 10.3 -82.4 8.2 L-82.4 4.95 Q-82.55 4.65 -81.4 4.7 -78.6 4.65 -77.1 5.85 -76.2 6.5 -76.2 7.15 -76.2 7.65 -77.05 8.9 -77.95 10.3 -78.65 10.3" fill="#ffffff" fill-rule="evenodd" stroke="none"/>
  </g>
</svg>
