<?xml version="1.0" encoding="UTF-8" standalone="no"?>
<svg xmlns:ffdec="https://www.free-decompiler.com/flash" xmlns:xlink="http://www.w3.org/1999/xlink" ffdec:objectType="shape" height="122.15px" width="187.85px" xmlns="http://www.w3.org/2000/svg">
  <g transform="matrix(1.0, 0.0, 0.0, 1.0, 87.6, 62.35)">
    <path d="M-68.1 -16.75 Q-67.55 -17.3 -66.85 -16.6 L-67.1 -15.85 Q-68.1 -16.0 -68.1 -16.75" fill="#ffcc00" fill-rule="evenodd" stroke="none"/>
    <path d="M18.25 -12.1 Q14.95 -8.35 6.5 -8.35 -0.9 -8.35 -6.1 -12.85 L-8.35 -15.15 -8.85 -20.25 -9.35 -20.25 -9.6 -17.3 -9.6 -17.0 Q-10.5 -18.7 -10.5 -20.35 -10.5 -21.15 -10.2 -21.2 L-11.0 -21.5 Q-11.6 -21.15 -11.6 -20.0 -11.6 -17.15 -9.55 -14.4 -9.2 -11.2 -7.5 -8.15 -2.45 0.8 12.3 0.8 19.8 0.8 22.75 -5.0 24.3 -8.05 24.3 -11.9 L23.8 -18.1 22.75 -18.35 Q21.95 -18.35 21.55 -17.6 L21.7 -17.05 20.4 -15.3 18.25 -12.1 M15.55 -60.0 L15.55 -60.1 Q16.8 -62.35 20.9 -62.35 23.35 -62.35 24.55 -60.7 25.7 -59.1 26.5 -59.1 27.35 -59.1 28.5 -60.05 29.7 -61.0 32.75 -61.0 L33.75 -60.0 Q34.55 -58.95 34.55 -58.5 34.55 -57.8 33.65 -56.95 L32.55 -55.75 34.2 -53.45 Q32.8 -52.65 32.8 -52.05 L32.85 -51.5 32.8 -51.5 32.55 -55.05 Q31.6 -56.85 26.25 -56.85 L25.0 -56.75 Q18.05 -56.6 13.75 -52.1 L10.7 -48.6 Q9.0 -46.8 7.25 -46.35 L9.3 -46.05 Q2.6 -41.8 -0.6 -41.35 7.75 -40.85 13.75 -37.25 16.75 -35.45 19.0 -33.75 20.55 -33.75 20.55 -36.9 20.55 -38.55 18.95 -41.4 20.3 -40.6 21.5 -40.6 30.8 -40.6 31.35 -39.55 L32.1 -38.15 32.1 -38.1 32.0 -38.0 32.4 -37.85 Q33.55 -36.95 36.5 -36.0 L36.75 -36.35 37.0 -37.1 36.9 -37.25 42.1 -36.85 Q42.45 -36.85 44.8 -38.7 45.9 -39.45 46.9 -39.9 46.4 -39.5 46.4 -38.5 46.3 -35.4 45.5 -34.5 44.7 -33.6 42.65 -33.9 40.7 -34.2 39.75 -33.0 37.4 -29.85 35.05 -29.85 L32.7 -30.05 32.55 -30.25 32.2 -30.15 30.0 -30.85 Q29.55 -30.65 29.55 -29.75 L32.0 -29.0 Q32.3 -25.85 39.3 -25.85 40.6 -25.85 41.55 -26.8 L42.75 -28.1 44.7 -26.45 Q46.75 -25.25 50.8 -25.25 51.3 -25.25 51.8 -25.85 L52.0 -26.05 52.35 -25.85 49.55 -21.75 50.15 -21.55 Q49.8 -20.95 49.8 -20.4 L49.85 -20.1 49.8 -19.9 Q49.8 -19.15 49.95 -19.1 L50.5 -19.1 51.5 -18.8 Q51.75 -18.65 51.75 -19.35 73.05 -13.5 73.05 -6.65 L73.05 -6.4 Q68.0 -11.0 58.35 -13.3 L48.0 -14.85 47.15 -14.4 46.55 -13.35 Q45.25 -11.85 40.05 -11.85 L33.3 -12.5 Q33.5 -11.65 33.85 -10.75 L33.8 -9.25 Q33.8 -7.1 34.0 -6.6 L34.25 -6.15 34.2 -6.1 34.0 -6.1 Q33.1 -6.1 33.0 -5.6 33.45 -3.6 34.05 -3.65 35.25 0.25 35.25 1.6 34.6 6.35 33.4 9.55 30.5 14.05 24.05 14.05 23.15 14.05 20.4 12.65 L17.5 11.25 Q16.8 9.85 16.4 8.15 L16.0 6.05 Q15.0 6.4 13.95 7.85 13.05 9.15 13.05 9.85 13.05 11.1 14.05 13.1 13.9 20.8 4.0 20.8 -3.1 20.8 -7.1 15.55 -9.15 12.8 -10.25 9.25 -11.25 9.05 -11.8 9.5 L-12.95 10.7 Q-15.2 12.55 -22.0 12.55 -28.5 12.55 -32.15 6.2 -34.85 1.5 -35.25 -4.75 L-36.8 -5.1 Q-38.05 -5.1 -37.75 -4.75 -37.75 -2.7 -39.25 -0.1 -41.4 3.55 -45.1 3.55 -49.9 3.55 -51.7 -2.1 L-52.8 -6.5 Q-53.35 -8.85 -54.0 -9.6 -61.45 -9.4 -63.45 -11.3 L-64.7 -13.05 Q-65.35 -14.1 -66.15 -14.6 -64.35 -17.1 -61.1 -17.1 L-56.5 -17.25 -45.5 -19.0 -45.85 -19.5 -44.5 -18.85 -43.45 -18.95 Q-43.35 -19.05 -43.35 -20.0 L-43.35 -20.25 -42.6 -21.1 -42.55 -21.45 -42.5 -21.5 -42.55 -21.55 Q-42.4 -22.4 -41.65 -23.25 L-41.1 -23.25 Q-34.2 -23.25 -25.95 -29.2 -19.35 -33.95 -16.25 -38.75 -16.75 -39.1 -17.5 -39.25 -19.3 -38.65 -19.55 -37.6 -20.8 -36.85 -28.85 -36.85 -30.6 -36.85 -31.75 -37.75 -32.75 -38.5 -32.75 -39.4 -32.75 -40.45 -30.25 -43.35 -27.25 -46.75 -26.85 -47.6 -27.25 -48.0 -28.0 -48.25 -38.85 -47.35 -41.55 -49.65 -42.7 -50.65 -42.95 -52.4 L-42.85 -52.45 -42.65 -52.55 -42.5 -52.35 -42.2 -52.75 Q-40.4 -53.65 -39.05 -54.7 L-38.35 -54.75 Q-33.75 -54.75 -31.25 -53.15 -28.75 -51.6 -27.5 -51.6 -26.75 -51.6 -24.4 -52.45 -22.0 -53.35 -19.65 -53.35 -14.75 -53.35 -11.55 -51.6 -7.15 -49.15 -4.5 -48.5 L-4.05 -49.75 Q-3.4 -51.15 -2.1 -52.3 2.0 -55.85 11.25 -55.85 12.5 -55.85 13.3 -54.75 L13.75 -55.5 13.8 -56.05 13.7 -56.35 15.6 -57.4 Q16.25 -57.95 16.25 -59.35 16.25 -60.55 15.55 -60.0 M49.75 -33.25 Q49.75 -36.75 52.5 -36.75 54.8 -36.75 55.25 -33.85 55.25 -33.15 54.55 -31.6 53.75 -29.75 52.8 -29.75 50.35 -29.75 49.8 -31.35 L49.75 -33.25 M73.75 -17.85 L73.25 -17.3 72.8 -16.75 71.5 -16.85 71.3 -17.3 71.25 -17.8 71.3 -19.0 72.0 -19.1 Q73.15 -19.0 73.75 -17.85 M70.25 -23.0 Q69.15 -21.25 68.5 -21.25 L67.35 -21.45 66.85 -21.6 66.7 -21.7 Q65.8 -22.15 65.75 -22.5 L66.85 -23.95 67.35 -24.25 67.5 -24.25 69.75 -24.1 70.25 -23.0 M80.5 -7.6 Q83.65 -7.6 83.75 -4.5 83.75 -2.75 82.0 -2.75 78.95 -2.75 78.3 -3.85 L78.25 -5.1 Q78.25 -5.6 79.25 -6.6 L80.5 -7.6 M92.0 1.3 Q91.6 2.05 89.5 2.05 89.0 1.45 89.0 1.0 90.5 -0.1 90.5 -0.75 L92.05 0.75 92.0 1.3 M100.05 3.5 L100.25 4.55 Q99.85 4.55 99.3 5.25 L97.25 4.0 98.15 3.65 Q99.0 3.45 99.0 2.25 L100.05 3.5 M48.8 39.85 Q49.65 41.6 49.55 43.5 49.55 44.6 48.75 46.0 47.75 47.75 46.3 47.75 40.95 47.75 39.05 44.55 38.5 43.55 38.3 42.3 L38.25 41.15 Q38.25 36.3 42.8 36.3 47.2 36.3 48.8 39.85 M33.6 24.75 Q34.55 24.25 35.0 24.25 38.3 24.25 38.05 26.35 38.05 29.55 35.1 29.55 33.5 29.55 32.75 28.05 32.3 27.1 32.3 26.35 32.3 25.45 33.6 24.75 M35.5 26.25 Q35.05 25.8 34.5 26.75 L34.55 27.3 34.8 27.5 Q35.5 26.8 35.5 26.25 M54.8 58.5 L54.3 59.25 Q53.75 59.8 53.3 59.8 51.45 59.8 50.4 58.8 L48.3 57.05 51.25 54.8 Q54.55 54.8 54.8 58.5 M-53.35 -53.25 L-53.25 -51.85 Q-53.25 -51.6 -55.25 -50.1 L-56.75 -51.55 Q-56.75 -54.5 -54.75 -54.5 -53.7 -54.5 -53.35 -53.25 M-71.25 -47.85 Q-70.5 -49.55 -67.75 -50.35 -66.4 -50.35 -66.0 -49.1 L-65.85 -47.75 Q-65.85 -46.35 -68.25 -46.35 -69.2 -46.35 -71.25 -47.85 M-75.85 -5.75 Q-75.75 -6.4 -75.75 -5.15 L-75.85 -4.35 -76.1 -4.25 -79.5 -4.25 Q-79.75 -4.15 -79.75 -5.4 -79.75 -6.65 -79.5 -6.6 L-78.0 -6.75 Q-77.0 -6.75 -75.85 -5.75 M-35.25 22.3 Q-34.25 23.55 -34.25 24.9 -34.25 28.35 -36.8 29.55 -38.4 31.05 -40.25 31.05 -44.5 31.05 -45.65 28.95 -46.1 28.2 -46.05 27.4 -46.5 26.35 -46.6 25.0 -45.8 19.8 -42.0 19.8 L-41.75 19.8 -41.25 19.3 Q-37.65 19.3 -35.9 21.55 L-35.25 22.3 M-33.0 14.25 Q-30.5 14.25 -29.6 15.25 -29.25 15.65 -29.25 16.35 -29.25 17.4 -31.0 19.25 -32.7 21.05 -33.55 21.05 -36.8 21.05 -36.25 18.1 -36.25 17.2 -35.15 15.75 -33.95 14.25 -33.0 14.25 M-44.0 43.55 Q-46.5 43.55 -46.6 41.1 -46.6 40.25 -45.1 39.55 -43.9 39.0 -43.25 39.0 -41.35 39.0 -41.35 41.0 -41.35 43.55 -44.0 43.55 M-42.75 51.75 Q-44.1 51.75 -44.75 51.25 -44.0 49.85 -43.0 49.25 -41.8 49.75 -40.75 50.8 -40.95 51.75 -42.75 51.75 M-86.75 10.45 Q-86.65 8.75 -85.5 8.75 -83.6 8.75 -82.5 10.0 L-82.15 10.5 -82.0 10.75 -81.95 10.85 -81.75 11.25 -81.85 11.75 -81.85 11.8 Q-81.85 14.0 -82.75 15.0 L-82.7 15.3 Q-82.7 16.05 -83.5 16.05 L-86.1 16.0 -86.35 15.45 Q-87.8 14.5 -87.6 11.5 -87.6 10.95 -86.75 10.45" fill="#ffffff" fill-rule="evenodd" stroke="none"/>
  </g>
</svg>
