<?xml version="1.0" encoding="UTF-8" standalone="no"?>
<svg xmlns:ffdec="https://www.free-decompiler.com/flash" xmlns:xlink="http://www.w3.org/1999/xlink" ffdec:objectType="shape" height="120.0px" width="178.6px" xmlns="http://www.w3.org/2000/svg">
  <g transform="matrix(1.0, 0.0, 0.0, 1.0, 87.35, 62.0)">
    <path d="M26.85 -55.75 L28.75 -57.1 Q29.25 -57.8 29.25 -56.55 L26.85 -55.75" fill="#ffcc00" fill-rule="evenodd" stroke="none"/>
    <path d="M6.9 -60.85 L7.05 -60.9 10.3 -61.1 Q10.75 -61.1 13.35 -59.75 L15.3 -58.75 Q16.15 -58.75 18.3 -60.35 19.4 -61.15 20.7 -61.55 L23.4 -62.0 Q26.8 -62.0 29.0 -59.75 30.55 -58.1 30.55 -57.1 L30.0 -56.1 29.95 -56.05 29.9 -56.0 Q27.25 -52.1 22.5 -52.1 L19.3 -52.25 19.1 -52.55 19.7 -52.9 18.25 -52.85 Q15.85 -52.85 14.45 -49.7 13.2 -47.0 12.45 -46.65 L12.25 -46.6 Q9.4 -46.6 7.0 -47.4 4.65 -48.25 2.5 -48.25 L1.15 -48.2 0.9 -48.2 0.5 -48.2 -5.95 -47.25 -6.5 -47.25 Q-7.15 -47.05 -7.55 -46.65 L-7.75 -46.6 -7.65 -46.55 -7.85 -46.35 -7.85 -43.75 -0.6 -43.6 0.45 -43.6 0.55 -44.5 Q0.55 -45.05 1.15 -45.2 L1.6 -45.15 Q5.55 -44.65 8.6 -42.4 L10.6 -40.6 12.9 -37.75 12.55 -37.5 Q12.95 -37.3 13.3 -37.05 L14.05 -35.0 Q14.95 -35.1 15.05 -35.45 L15.85 -34.35 17.55 -31.35 Q18.5 -31.5 18.75 -31.85 17.75 -35.2 17.75 -36.35 18.0 -38.15 18.6 -39.45 19.15 -40.8 20.0 -41.7 21.7 -43.5 24.65 -43.5 25.85 -43.5 29.2 -42.3 32.9 -40.25 34.3 -40.25 35.55 -40.25 35.25 -40.5 L35.3 -40.9 36.1 -41.4 36.2 -41.5 36.25 -41.5 37.3 -42.3 Q39.4 -44.0 43.55 -44.0 L44.0 -43.75 Q44.75 -43.0 46.2 -40.1 L46.25 -40.0 45.3 -40.0 45.35 -39.85 45.35 -39.8 Q46.3 -35.3 45.65 -32.5 44.45 -27.25 36.05 -27.25 35.75 -27.25 35.1 -27.55 L34.05 -29.75 33.55 -29.6 33.5 -29.05 33.9 -28.1 Q32.8 -28.75 32.8 -29.35 L32.85 -30.0 32.05 -29.75 32.0 -28.8 Q32.0 -28.2 33.25 -27.25 L34.9 -26.35 36.25 -24.45 36.3 -24.4 37.65 -22.9 Q40.85 -19.75 44.8 -19.75 L45.1 -19.85 44.55 -18.6 46.8 -16.7 46.75 -16.0 Q46.75 -15.45 47.65 -14.3 L48.55 -13.0 Q49.1 -8.35 43.05 -8.35 L41.75 -8.55 Q41.15 -8.75 40.7 -9.2 L39.0 -10.75 Q38.25 -10.5 38.25 -9.75 L38.85 -9.2 Q39.25 -8.8 39.25 -8.05 39.25 -7.4 37.0 -6.4 33.9 -5.05 31.8 -3.1 L33.85 0.25 Q34.6 1.55 35.65 2.25 L34.8 2.3 34.55 3.05 Q34.55 3.8 35.8 5.65 37.05 7.45 37.05 8.25 36.95 10.2 35.75 12.1 33.35 15.8 28.0 15.8 22.1 15.8 19.8 11.45 18.85 9.25 18.3 8.4 L18.1 8.15 Q17.3 7.05 16.0 7.05 15.15 7.05 14.75 7.65 L13.6 9.05 Q10.9 11.0 0.3 11.0 L-1.1 10.85 Q-3.55 10.3 -7.7 8.15 -12.2 5.8 -13.75 4.5 -15.15 5.0 -16.7 8.0 L-16.85 8.0 -17.05 8.7 -17.25 9.05 -17.15 9.1 -17.55 10.5 -18.55 11.4 Q-20.5 12.55 -24.6 12.55 L-25.95 12.35 Q-30.2 10.85 -35.5 0.3 L-36.85 -2.55 Q-36.85 -3.85 -37.75 -4.6 -38.75 -4.1 -38.75 -3.0 L-38.6 -2.35 Q-38.4 -0.85 -38.75 0.6 L-38.8 0.85 Q-39.0 1.55 -39.35 2.1 -40.55 4.05 -43.6 4.05 -46.95 4.05 -48.6 2.5 -50.3 0.9 -50.35 -2.25 -50.35 -3.05 -49.7 -4.1 -48.85 -5.6 -48.35 -7.1 L-50.85 -7.2 -52.65 -7.65 Q-55.25 -8.55 -57.4 -10.8 -60.5 -14.05 -60.5 -16.55 -60.5 -17.8 -59.85 -18.1 L-61.0 -18.35 -61.05 -18.65 Q-58.65 -19.35 -55.4 -19.35 L-55.1 -19.3 -55.1 -19.25 -54.95 -18.4 -54.1 -18.35 -53.9 -18.55 -53.25 -17.85 -52.75 -18.35 -53.05 -19.4 -52.4 -20.15 -52.0 -20.1 Q-52.0 -20.5 -51.35 -20.5 -51.15 -23.2 -46.55 -26.35 L-45.85 -26.8 -45.25 -26.75 -44.4 -27.4 -43.05 -28.05 -43.0 -27.85 -36.05 -26.6 -36.0 -26.6 -35.5 -26.5 -35.45 -26.5 -32.1 -26.25 Q-28.05 -26.25 -23.35 -29.3 L-22.35 -30.0 Q-17.75 -33.3 -17.75 -34.85 -17.75 -36.1 -18.25 -35.6 -22.2 -35.05 -25.0 -36.1 -25.95 -36.45 -26.75 -37.0 -28.7 -38.3 -29.2 -39.7 L-29.35 -40.65 Q-29.35 -41.25 -27.25 -43.25 -27.25 -44.5 -27.35 -43.75 L-28.25 -43.9 -28.2 -43.95 -26.5 -44.5 Q-25.7 -44.8 -25.15 -45.1 L-25.05 -45.15 -24.9 -45.25 -24.75 -45.35 -24.4 -45.7 Q-24.1 -46.1 -24.1 -46.55 L-24.6 -50.6 -24.1 -52.3 Q-22.95 -54.5 -19.35 -54.5 -20.1 -53.0 -14.0 -53.0 -12.95 -53.0 -12.4 -53.45 L-7.45 -53.1 -5.6 -52.8 -2.5 -52.0 Q-1.25 -52.0 -2.0 -52.5 -2.45 -53.7 -3.55 -54.5 -2.6 -55.05 -0.6 -57.7 2.25 -60.25 6.9 -60.85 M26.85 -55.75 L29.25 -56.55 Q29.25 -57.8 28.75 -57.1 L26.85 -55.75 M5.6 -2.55 L1.1 -2.35 Q-4.95 -2.35 -9.75 -3.9 L-12.8 -5.1 -12.95 -5.15 -17.25 -7.85 Q-20.7 -10.6 -22.25 -13.35 L-23.0 -13.25 Q-22.35 -10.45 -20.25 -8.05 L-18.75 -6.45 -18.7 -6.4 -18.65 -6.35 -18.6 -6.3 -14.15 -2.7 -14.0 -2.6 -13.85 -2.5 Q-12.3 -1.4 -10.75 -0.45 -3.75 3.8 2.6 3.8 L2.65 3.8 Q13.85 3.8 20.8 -1.6 L21.45 -2.1 Q26.3 -6.15 26.3 -10.05 26.3 -11.25 25.75 -12.1 L25.1 -10.3 25.05 -10.15 24.75 -10.25 24.25 -10.6 Q20.45 -7.8 17.0 -5.95 12.1 -3.25 5.6 -2.55 M64.25 -31.25 Q62.7 -29.0 60.85 -29.0 59.1 -29.0 58.5 -30.5 58.2 -31.25 58.25 -32.0 58.25 -33.75 60.5 -34.75 L64.25 -34.6 64.25 -31.25 M64.25 -16.35 L64.0 -16.5 Q66.9 -17.0 68.9 -14.1 L69.4 -13.3 68.65 -11.95 Q67.75 -10.25 65.6 -10.25 64.15 -10.25 63.3 -11.6 62.55 -12.75 62.55 -14.05 62.55 -14.65 63.15 -14.9 L63.7 -15.35 Q64.8 -15.3 65.55 -14.85 L64.25 -16.35 M67.7 -0.8 L71.3 -0.8 Q72.9 -0.1 72.55 1.8 72.55 4.0 69.05 4.0 67.6 4.0 67.05 2.8 66.8 2.25 66.8 1.5 66.8 0.8 67.25 -0.1 L67.7 -0.8 M74.3 -6.9 L75.0 -7.0 Q76.8 -7.0 77.25 -6.5 78.45 -6.5 78.9 -5.0 L79.05 -3.1 78.4 -2.6 78.0 -2.5 77.5 -2.5 Q75.45 -2.5 74.8 -4.55 L74.75 -4.7 74.75 -4.8 Q74.5 -5.7 74.5 -6.85 L74.3 -6.9 M90.55 -0.1 Q90.55 1.55 88.7 1.75 L88.45 1.8 88.4 1.8 88.05 1.8 Q87.35 1.8 86.35 1.05 85.2 0.2 84.5 0.0 L85.1 -0.8 Q86.4 -2.25 88.0 -2.25 89.7 -2.25 90.35 -0.8 L90.55 -0.1 M-35.6 -52.9 Q-35.6 -51.85 -36.6 -50.9 -37.8 -49.75 -39.75 -49.75 -44.75 -49.75 -43.75 -55.55 -43.75 -56.0 -42.65 -56.85 -41.55 -57.75 -41.0 -57.75 -37.95 -57.75 -36.5 -55.4 L-35.6 -52.9 M-57.5 -50.6 Q-55.9 -50.6 -54.85 -49.0 -54.1 -47.85 -54.1 -47.1 -54.1 -45.25 -57.0 -45.25 -60.15 -45.25 -59.6 -47.85 -59.6 -48.85 -58.85 -49.75 -58.15 -50.6 -57.5 -50.6 M-60.25 -50.35 L-60.1 -50.05 -60.25 -49.3 -60.25 -49.5 -60.25 -50.35 M-67.35 -38.55 Q-67.35 -37.6 -67.5 -36.85 L-69.6 -36.25 -70.5 -36.15 Q-70.75 -36.15 -70.75 -36.9 -70.75 -39.0 -69.5 -41.1 -67.35 -39.9 -67.35 -38.55 M-68.35 -29.35 L-69.5 -28.75 -70.35 -28.95 -70.6 -29.9 Q-70.6 -30.75 -69.75 -31.1 -68.5 -30.45 -68.5 -29.35 L-68.35 -29.35 M-40.25 43.5 L-41.0 43.75 -43.0 43.55 -43.25 42.5 Q-43.25 41.55 -42.0 40.55 L-40.25 40.8 -40.25 43.5 M-79.0 1.85 L-78.35 2.8 Q-78.35 3.9 -78.65 4.75 -79.2 6.5 -80.75 6.5 -83.8 6.5 -83.5 4.5 -83.5 3.7 -82.9 2.55 -82.05 1.0 -80.75 1.0 -79.8 1.0 -79.0 1.85 M-40.75 27.85 Q-39.75 29.3 -39.75 30.1 -39.75 30.8 -41.0 32.25 -42.3 33.75 -43.0 33.75 -47.35 33.75 -46.75 29.6 -46.75 25.75 -44.5 25.75 -42.2 25.75 -40.75 27.85 M-36.85 52.15 L-37.1 53.3 -38.75 53.8 Q-40.4 53.8 -40.25 52.15 -40.25 50.25 -39.0 50.25 -36.85 50.25 -36.85 52.15 M-85.15 17.1 L-85.0 17.0 -83.4 17.0 Q-83.0 17.05 -83.0 17.85 -83.0 20.3 -85.0 20.3 -86.15 20.3 -87.0 19.8 -87.35 19.75 -87.35 18.5 -87.35 18.05 -86.55 17.65 -86.5 17.15 -86.2 17.0 L-85.5 16.8 -85.15 17.1 M-86.5 18.55 L-86.35 18.9 -86.45 18.55 -86.5 18.55 M-82.0 30.5 L-82.4 31.1 -82.35 31.25 -82.5 31.8 -82.6 32.05 -83.15 31.95 -83.5 32.3 -84.3 30.9 -84.6 30.3 -84.45 30.25 -84.5 30.0 -84.55 29.6 -83.75 29.5 Q-82.8 29.5 -82.0 30.5 M87.75 6.5 L88.75 6.25 Q90.0 6.25 91.25 8.0 L90.3 9.75 Q88.2 9.35 87.9 8.5 L87.75 6.5 M89.8 13.45 L90.05 14.35 90.0 15.75 89.3 16.05 87.8 15.0 Q87.8 13.85 89.0 13.3 L89.8 13.45 M74.05 5.8 L74.25 6.55 Q73.8 7.0 72.8 7.25 71.45 6.5 71.25 6.0 71.35 5.25 72.25 5.25 73.5 5.25 74.05 5.8 M48.55 47.25 Q48.55 50.05 45.85 50.05 43.65 50.05 43.0 47.95 L42.8 45.75 Q42.8 42.8 44.5 42.8 48.6 42.8 48.55 47.25 M39.3 54.15 L40.05 55.3 38.8 55.55 Q38.1 55.55 38.1 56.2 L38.0 57.0 Q36.3 55.8 36.3 55.35 36.3 54.7 37.0 54.05 37.65 53.5 38.25 53.5 38.9 53.5 39.3 54.15 M54.55 56.05 L54.5 57.55 Q54.25 57.55 53.8 58.0 L51.55 58.0 Q51.3 57.75 51.3 56.5 51.3 55.25 53.5 54.8 54.55 55.1 54.55 56.05" fill="#ffffff" fill-rule="evenodd" stroke="none"/>
  </g>
</svg>
