<?xml version="1.0" encoding="UTF-8" standalone="no"?>
<svg xmlns:ffdec="https://www.free-decompiler.com/flash" xmlns:xlink="http://www.w3.org/1999/xlink" ffdec:objectType="shape" height="124.0px" width="165.75px" xmlns="http://www.w3.org/2000/svg">
  <g transform="matrix(1.0, 0.0, 0.0, 1.0, 82.25, 60.0)">
    <path d="M-46.35 -51.65 Q-46.35 -54.5 -45.35 -54.5 -40.25 -54.5 -40.25 -52.55 -40.2 -51.7 -40.75 -50.9 -41.85 -49.25 -44.85 -49.25 L-45.6 -50.0 Q-46.35 -50.85 -46.35 -51.65 M4.05 -59.0 Q5.95 -59.0 8.45 -57.5 L10.05 -56.55 Q9.55 -55.8 9.55 -55.15 9.55 -54.6 9.8 -54.25 L11.0 -54.1 Q11.7 -54.55 12.2 -55.4 L12.3 -55.35 12.55 -56.0 12.45 -56.05 12.85 -57.7 Q14.35 -60.0 22.6 -60.0 29.2 -60.0 35.25 -55.25 L35.25 -54.75 36.1 -54.55 37.3 -53.5 39.85 -51.0 40.25 -49.25 Q40.6 -47.8 39.0 -46.45 35.85 -43.85 26.3 -43.85 L22.5 -45.25 21.75 -45.1 21.75 -44.1 Q29.7 -40.3 39.2 -36.5 44.75 -33.65 44.75 -28.6 42.65 -22.85 32.8 -22.85 L29.9 -23.7 Q28.55 -24.1 29.25 -22.6 L36.2 -17.9 Q41.75 -13.8 41.75 -12.15 41.75 -9.85 35.25 -7.05 28.75 -4.25 28.75 -2.05 28.75 -1.4 29.4 -0.5 30.0 0.45 30.0 1.05 29.2 2.2 27.05 3.3 22.85 5.55 16.3 5.55 L15.05 5.0 20.85 -1.1 Q25.75 -6.5 25.75 -7.0 25.75 -8.25 25.0 -7.75 23.15 -5.35 19.5 -3.2 12.35 1.05 1.55 1.05 -2.35 1.05 -11.8 -3.7 L-13.4 -5.3 Q-14.85 -6.65 -16.0 -6.75 -17.25 -6.1 -17.25 -4.4 -17.25 -3.15 -17.0 -3.85 L-16.2 -3.55 Q-11.15 4.95 -2.8 5.75 L-5.5 7.35 Q-8.6 9.05 -11.1 9.05 -14.3 9.05 -17.95 6.95 -20.35 5.55 -21.65 3.95 L-21.3 3.6 -21.35 3.0 -21.65 2.0 -23.0 1.3 Q-24.6 1.25 -24.6 2.5 L-24.55 3.2 -24.75 3.3 -26.8 4.45 Q-27.55 5.05 -30.35 5.05 -32.95 5.05 -34.6 1.55 -35.85 -1.05 -35.85 -3.05 -35.85 -5.05 -35.5 -5.8 L-33.35 -9.6 -35.25 -10.0 -39.55 -16.2 Q-41.0 -18.7 -41.0 -21.8 L-40.9 -22.45 -40.2 -22.85 Q-37.75 -24.25 -36.25 -24.25 -32.1 -24.25 -31.0 -22.65 -30.85 -22.45 -30.05 -19.1 -28.8 -14.0 -15.5 -14.0 -8.0 -14.0 -8.0 -18.1 -7.85 -22.55 -2.3 -22.8 L1.9 -22.65 4.55 -22.75 Q7.9 -24.75 10.25 -28.2 12.5 -31.5 12.5 -34.0 12.5 -42.05 5.25 -43.75 -6.45 -46.5 -8.0 -52.0 L-8.3 -52.15 -5.85 -55.0 Q-2.05 -59.0 4.05 -59.0 M-58.0 -41.5 Q-57.4 -41.5 -56.0 -39.85 L-56.85 -38.75 Q-57.4 -38.0 -58.5 -38.0 -60.3 -38.0 -60.6 -39.5 -59.2 -41.5 -58.0 -41.5 M-69.85 -19.85 L-70.25 -18.75 -71.3 -18.35 Q-73.25 -18.35 -73.25 -20.25 -73.25 -22.25 -72.0 -22.25 -71.05 -22.25 -70.35 -21.1 -69.85 -20.3 -69.85 -19.85 M-71.35 -10.5 L-70.75 -10.5 Q-69.9 -10.5 -69.85 -10.2 L-69.85 -9.0 -70.0 -8.25 -70.6 -7.5 -71.85 -7.5 -72.1 -9.0 Q-72.1 -9.75 -71.35 -10.5 M-14.0 -44.2 Q-13.15 -42.75 -10.85 -40.65 -11.35 -40.15 -11.0 -39.25 -11.95 -38.0 -22.0 -38.0 -22.65 -38.0 -25.65 -39.6 L-28.0 -40.65 Q-23.35 -41.9 -21.45 -44.8 -20.15 -46.75 -19.5 -50.05 -18.35 -49.45 -15.95 -46.45 L-14.0 -44.2 M-38.75 47.1 Q-38.65 47.65 -38.85 48.55 L-40.5 49.25 -41.6 47.75 -41.0 46.05 -40.25 46.0 Q-38.9 46.0 -38.75 47.1 M-80.35 21.05 L-82.25 19.35 Q-80.85 17.55 -80.5 17.8 -78.75 19.1 -78.85 20.55 L-80.35 21.05 M-78.0 36.75 Q-76.5 36.75 -76.0 37.75 -75.75 38.2 -75.75 38.85 -75.75 39.45 -76.4 40.55 -77.05 41.75 -77.5 41.75 -79.55 41.75 -79.75 38.75 L-79.6 37.05 -78.0 36.75 M-77.75 28.35 Q-77.75 31.0 -80.5 31.25 L-81.75 30.75 Q-80.75 29.15 -80.75 28.5 -80.75 27.3 -78.75 26.3 -77.75 27.45 -77.75 28.35 M-37.75 60.3 L-37.75 63.0 -37.85 63.55 -40.35 64.0 -41.25 60.55 -40.5 60.25 -37.75 60.3 M83.25 11.05 L83.4 10.85 83.5 11.6 Q83.5 12.95 82.0 13.55 L81.05 13.55 Q80.8 13.45 80.8 12.65 80.8 11.4 81.5 11.0 L83.25 11.05 M68.0 8.8 L69.55 9.3 Q69.45 10.1 68.5 11.05 L67.55 11.0 Q67.3 10.85 67.3 10.0 67.3 9.25 67.65 9.0 L68.0 8.8 M77.75 23.8 L78.05 25.0 78.0 25.3 76.75 25.55 75.3 25.25 75.25 24.1 75.55 23.3 76.25 23.25 Q76.85 23.25 77.75 23.8 M74.55 18.25 Q74.55 19.85 72.5 20.55 70.8 20.45 70.8 19.35 70.8 18.4 72.5 16.8 74.55 17.9 74.55 18.25 M49.25 49.3 Q50.1 49.3 50.75 51.6 50.75 52.85 50.0 54.25 50.75 54.55 49.5 54.55 48.4 54.55 47.75 53.45 47.25 52.65 47.25 52.15 L47.45 50.9 Q47.8 49.7 48.55 49.3 L49.25 49.3 M40.0 58.75 Q41.8 59.1 42.0 59.5 L40.5 59.8 39.0 59.5 40.0 58.75 M48.75 60.45 Q49.05 60.55 49.05 61.35 L49.0 62.3 Q47.85 63.05 47.35 63.05 L46.3 62.75 45.75 61.55 Q46.0 61.0 47.5 60.3 L48.75 60.45" fill="#ffffff" fill-rule="evenodd" stroke="none"/>
  </g>
</svg>
