<?xml version="1.0" encoding="UTF-8" standalone="no"?>
<svg xmlns:ffdec="https://www.free-decompiler.com/flash" xmlns:xlink="http://www.w3.org/1999/xlink" ffdec:objectType="shape" height="93.2px" width="160.05px" xmlns="http://www.w3.org/2000/svg">
  <g transform="matrix(1.0, 0.0, 0.0, 1.0, 80.05, 46.6)">
    <path d="M-58.55 -45.75 Q-58.55 -47.0 -58.05 -46.4 L-56.9 -46.4 -56.15 -45.4 Q-56.35 -45.05 -57.05 -44.9 L-58.3 -44.9 Q-58.55 -44.95 -58.55 -45.75 M-70.4 -17.15 L-71.05 -16.4 -72.15 -16.4 Q-72.65 -16.85 -72.65 -17.5 -72.65 -18.75 -71.55 -18.5 -70.9 -18.25 -70.55 -17.9 L-70.4 -17.15 M-70.9 -4.35 L-70.7 -4.55 Q-70.55 -4.6 -70.55 -3.8 L-70.65 -3.15 -71.3 -3.1 Q-71.55 -2.4 -71.55 -3.65 L-71.4 -4.15 -70.9 -4.35 M-40.05 35.9 L-38.55 33.6 -37.55 34.1 Q-37.9 35.15 -38.65 35.9 L-40.05 35.9 M-79.55 21.6 Q-78.45 22.0 -78.15 22.6 L-78.35 23.05 -78.3 23.15 -78.45 23.3 -78.8 23.85 -79.5 23.5 Q-80.05 23.1 -80.05 22.35 -80.05 21.6 -79.8 21.55 L-79.55 21.6 M-79.9 28.95 L-79.8 28.4 -79.4 28.4 -78.3 29.15 Q-78.7 29.9 -79.65 29.9 -79.9 30.2 -79.9 28.95 M78.95 10.6 Q79.9 10.7 80.0 11.4 79.95 12.1 78.45 12.65 L77.5 12.75 Q77.25 12.75 77.25 11.95 77.25 11.45 78.1 11.45 78.95 11.4 78.95 10.6 M73.25 13.75 L73.2 14.4 Q73.95 14.6 72.7 14.6 71.45 14.6 71.45 12.85 L71.95 12.6 73.25 13.75 M75.45 20.1 L76.45 20.6 75.45 21.6 Q74.0 21.4 73.95 21.1 L75.45 20.1 M44.25 45.1 L45.2 45.1 Q45.7 45.4 45.95 46.15 L45.7 46.6 44.5 46.4 44.25 45.1 M50.25 44.4 Q50.5 44.1 51.2 44.1 L51.35 43.95 51.5 44.75 51.2 45.6 50.5 45.6 Q50.25 45.15 50.25 44.4" fill="#ffffff" fill-rule="evenodd" stroke="none"/>
  </g>
</svg>
