<?xml version="1.0" encoding="UTF-8" standalone="no"?>
<svg xmlns:ffdec="https://www.free-decompiler.com/flash" xmlns:xlink="http://www.w3.org/1999/xlink" ffdec:objectType="shape" height="72.3px" width="75.35px" xmlns="http://www.w3.org/2000/svg">
  <g transform="matrix(1.0, 0.0, 0.0, 1.0, 36.35, 61.75)">
    <path d="M-28.8 -1.05 L-22.6 -2.35 Q-17.7 -2.35 -15.8 -0.75 -14.7 0.1 -13.85 2.75 -13.05 5.35 -11.6 6.45 -9.4 8.05 -4.5 8.45 -7.85 10.55 -12.85 10.55 -14.05 10.55 -21.8 4.05 -25.9 0.6 -28.8 -1.05 M-24.6 -21.85 Q-23.85 -20.85 -23.85 -19.75 -27.3 -13.1 -30.7 -9.5 L-33.85 -9.1 -32.35 -16.4 Q-32.35 -18.65 -33.05 -19.45 -33.9 -20.4 -36.35 -21.2 -34.9 -21.45 -33.6 -22.05 -31.55 -23.0 -26.85 -23.0 -25.5 -23.0 -24.6 -21.85 M-15.1 -58.45 Q-13.3 -59.85 -10.35 -59.85 -3.35 -59.85 -2.45 -54.6 L-3.05 -54.2 Q-5.1 -52.75 -8.6 -52.75 -13.35 -52.75 -15.1 -58.45 M3.3 -13.0 Q4.9 -18.65 6.05 -20.65 8.8 -25.5 13.75 -25.5 L21.05 -24.8 21.0 -24.5 24.6 -20.95 Q24.8 -20.55 24.8 -18.35 24.8 -15.6 23.55 -14.45 20.8 -12.35 17.75 -9.25 19.9 -8.55 21.8 -6.7 23.75 -4.75 23.75 -3.25 23.35 2.35 18.95 2.5 17.55 1.0 14.25 -0.05 L12.5 -0.65 12.5 -0.6 10.05 -1.8 10.1 -1.85 Q8.75 -2.7 8.55 -3.55 L9.05 -5.2 Q9.4 -6.5 8.05 -7.85 L7.55 -7.75 7.5 -7.15 7.25 -6.9 4.0 -11.6 4.05 -13.1 3.3 -13.0 M20.9 -43.2 L23.4 -40.15 Q25.9 -37.65 32.65 -36.95 23.9 -36.55 20.5 -35.35 L17.8 -34.1 Q16.65 -33.5 14.5 -33.5 13.1 -33.5 12.3 -34.85 11.8 -35.75 11.8 -36.35 11.8 -37.65 14.8 -40.25 17.8 -42.85 17.8 -45.0 L18.0 -45.35 Q19.7 -44.5 20.9 -43.2 M13.8 -52.85 L13.85 -53.7 13.5 -53.75 13.25 -53.5 13.05 -52.75 Q13.75 -51.5 14.95 -50.4 L14.9 -50.3 13.3 -51.45 Q8.75 -54.35 8.75 -56.8 8.75 -58.75 10.75 -58.75 20.9 -58.75 24.65 -60.25 L26.65 -61.3 28.75 -61.75 Q37.6 -61.75 38.6 -58.15 L39.0 -55.15 38.2 -54.25 36.65 -51.9 Q33.75 -48.75 24.25 -48.75 18.9 -48.75 16.05 -50.25 13.8 -51.4 13.8 -52.85" fill="#ffffff" fill-rule="evenodd" stroke="none"/>
  </g>
</svg>
