<?xml version="1.0" encoding="UTF-8" standalone="no"?>
<svg xmlns:ffdec="https://www.free-decompiler.com/flash" xmlns:xlink="http://www.w3.org/1999/xlink" ffdec:objectType="shape" height="64.45px" width="71.6px" xmlns="http://www.w3.org/2000/svg">
  <g transform="matrix(1.0, 0.0, 0.0, 1.0, 33.0, 49.5)">
    <path d="M-18.25 5.85 Q-13.6 6.05 -12.15 7.6 -10.65 10.95 -7.6 12.8 L-8.5 13.8 -10.2 14.95 -11.05 14.9 Q-13.6 13.7 -15.95 11.65 L-20.9 7.3 -18.25 5.85 M-28.35 -8.85 Q-30.6 -8.85 -32.0 -10.35 -33.0 -11.45 -33.0 -12.25 L-32.8 -13.1 -32.0 -13.65 Q-30.6 -14.5 -29.0 -14.5 -21.45 -14.5 -21.35 -10.35 L-21.55 -9.65 Q-22.3 -8.85 -28.35 -8.85 M-3.25 -46.55 L-3.25 -45.9 -5.6 -45.0 Q-10.0 -45.0 -10.0 -47.25 L-9.9 -48.85 Q-6.85 -49.75 -4.95 -48.85 -3.25 -48.1 -3.25 -46.55 M13.15 -4.3 L9.65 -7.0 Q8.05 -8.4 8.05 -9.75 10.15 -15.75 15.3 -15.75 21.8 -15.75 21.8 -13.75 23.2 -12.05 26.0 -11.25 25.85 -9.45 23.9 -7.8 21.8 -6.0 21.8 -4.25 21.8 -2.95 23.8 -0.3 25.75 2.35 25.75 3.45 25.75 3.95 19.65 8.4 L18.25 4.45 Q18.25 1.3 16.05 -1.5 15.2 -3.1 14.0 -4.5 L13.5 -4.0 13.15 -4.3 M36.65 -43.85 Q32.75 -39.25 22.85 -39.25 L19.5 -39.7 Q19.0 -41.7 15.45 -43.85 11.3 -46.3 11.3 -46.8 11.3 -48.05 11.55 -48.1 L15.0 -48.35 21.3 -49.5 Q22.15 -47.25 30.0 -47.25 L38.6 -47.1 Q38.0 -45.4 36.65 -43.85 M24.8 -29.5 L24.65 -29.15 Q23.25 -28.9 21.0 -27.8 18.05 -26.35 16.75 -26.35 14.5 -26.35 14.05 -27.85 L14.05 -29.75 Q14.05 -31.65 16.8 -34.65 18.65 -36.6 19.25 -37.95 21.7 -36.7 23.65 -34.6 25.55 -32.5 25.55 -31.75 25.55 -31.0 24.8 -29.5" fill="#ffffff" fill-rule="evenodd" stroke="none"/>
  </g>
</svg>
