<?xml version="1.0" encoding="UTF-8" standalone="no"?>
<svg xmlns:ffdec="https://www.free-decompiler.com/flash" xmlns:xlink="http://www.w3.org/1999/xlink" ffdec:objectType="shape" height="55.25px" width="64.15px" xmlns="http://www.w3.org/2000/svg">
  <g transform="matrix(1.0, 0.0, 0.0, 1.0, 26.5, 45.1)">
    <path d="M-3.5 9.05 L-2.55 9.85 -6.85 10.15 Q-8.45 10.15 -11.65 7.85 L-14.1 5.9 Q-7.4 5.95 -3.5 9.05 M-18.6 -7.4 L-18.85 -6.9 -19.5 -7.1 Q-23.0 -5.55 -25.0 -6.7 -26.5 -7.5 -26.5 -8.85 L-26.3 -10.05 -25.75 -10.1 Q-18.6 -10.1 -18.6 -7.4 M11.15 -6.15 Q11.6 -9.75 14.75 -9.75 L18.05 -9.5 Q18.05 -9.0 18.15 -9.05 L18.25 -9.25 18.45 -9.4 18.65 -9.35 20.25 -8.75 Q20.75 -9.4 21.35 -9.7 L21.3 -9.5 Q21.25 -7.65 20.55 -6.45 19.25 -4.25 14.05 -4.25 13.7 -4.25 11.75 -6.5 L11.15 -6.15 M36.35 -39.3 Q34.75 -38.35 31.8 -38.35 26.8 -38.35 22.15 -40.05 L20.1 -40.95 20.25 -41.25 20.05 -41.6 Q18.0 -41.8 17.4 -42.45 L17.5 -43.0 Q17.5 -43.55 18.0 -44.7 L22.9 -45.1 24.45 -45.1 25.8 -44.85 Q29.1 -44.2 33.05 -42.6 L36.35 -41.15 36.8 -40.95 37.65 -40.55 Q37.2 -39.8 36.35 -39.3" fill="#ffffff" fill-rule="evenodd" stroke="none"/>
  </g>
</svg>
