<?xml version="1.0" encoding="UTF-8" standalone="no"?>
<svg xmlns:ffdec="https://www.free-decompiler.com/flash" xmlns:xlink="http://www.w3.org/1999/xlink" ffdec:objectType="shape" height="59.9px" width="50.65px" xmlns="http://www.w3.org/2000/svg">
  <g transform="matrix(1.0, 0.0, 0.0, 1.0, 25.5, 21.8)">
    <path d="M12.85 -19.8 Q11.4 -19.8 11.4 -20.95 11.4 -21.75 11.6 -21.8 L12.1 -21.8 12.9 -21.75 Q13.1 -21.75 13.1 -21.0 L12.85 -19.8 M2.85 -7.05 Q2.4 -6.2 1.85 -6.05 L1.35 -6.05 1.4 -7.8 2.35 -7.8 2.85 -7.05 M24.1 4.1 L25.15 4.6 24.85 5.8 23.85 5.8 23.4 4.6 24.1 4.1 M10.5 7.65 L10.65 8.45 Q10.65 9.7 9.9 10.3 L9.1 10.1 Q8.9 10.2 8.9 8.95 L9.15 7.85 10.35 7.8 10.5 7.65 M9.65 21.1 L10.15 21.85 Q9.85 22.3 9.15 22.3 L8.9 21.55 Q9.35 21.1 9.65 21.1 M0.9 31.65 Q0.9 30.15 2.1 29.6 2.95 29.85 3.35 31.3 L2.9 32.35 1.1 32.3 Q0.9 32.9 0.9 31.65 M-12.15 -18.2 L-13.25 -18.2 Q-13.65 -18.75 -13.65 -19.5 L-13.5 -20.3 -12.65 -20.3 Q-11.9 -20.2 -11.4 -19.7 -11.4 -18.85 -12.15 -18.2 M-25.5 5.55 Q-25.1 4.35 -23.75 4.35 L-23.4 5.85 -23.5 6.1 -24.75 6.3 -25.5 5.55 M-20.5 36.1 L-21.9 36.05 Q-21.9 35.2 -20.65 35.55 L-20.5 36.1 M-13.0 38.1 L-14.25 38.1 -14.4 37.55 Q-14.15 37.2 -13.15 37.55 L-13.0 38.1" fill="#ffffff" fill-rule="evenodd" stroke="none"/>
  </g>
</svg>
