<?xml version="1.0" encoding="UTF-8" standalone="no"?>
<svg xmlns:ffdec="https://www.free-decompiler.com/flash" xmlns:xlink="http://www.w3.org/1999/xlink" ffdec:objectType="shape" height="29.5px" width="13.95px" xmlns="http://www.w3.org/2000/svg">
  <g transform="matrix(1.0, 0.0, 0.0, 1.0, 7.9, 15.2)">
    <path d="M2.3 -15.2 L3.85 -11.35 4.65 -5.5 4.5 -5.35 Q2.95 3.0 6.05 13.6 -1.4 15.45 -7.9 12.45 -3.8 4.1 -4.6 -4.9 L-3.1 -14.5 -3.1 -14.55 -2.75 -14.8 -2.0 -14.55 Q0.3 -13.95 2.3 -15.2" fill="url(#gradient0)" fill-rule="evenodd" stroke="none"/>
    <path d="M2.3 -15.2 L3.85 -11.35 4.65 -5.5 4.5 -5.35 M-4.6 -4.9 L-3.1 -14.5 -3.1 -14.55 -2.75 -14.8" fill="none" stroke="#000000" stroke-linecap="round" stroke-linejoin="round" stroke-width="0.05"/>
    <path d="M4.5 -5.35 Q2.95 3.0 6.05 13.6 -1.4 15.45 -7.9 12.45 -3.8 4.1 -4.6 -4.9" fill="none" stroke="#000000" stroke-linecap="round" stroke-linejoin="round" stroke-width="0.05"/>
  </g>
  <defs>
    <linearGradient gradientTransform="matrix(-9.0E-4, -0.0179, 0.0085, -4.0E-4, -1.55, -0.25)" gradientUnits="userSpaceOnUse" id="gradient0" spreadMethod="pad" x1="-819.2" x2="819.2">
      <stop offset="0.0" stop-color="#e98bf3"/>
      <stop offset="1.0" stop-color="#ffffff"/>
    </linearGradient>
  </defs>
</svg>
