<?xml version="1.0" encoding="UTF-8" standalone="no"?>
<svg xmlns:ffdec="https://www.free-decompiler.com/flash" xmlns:xlink="http://www.w3.org/1999/xlink" ffdec:objectType="shape" height="15.4px" width="11.5px" xmlns="http://www.w3.org/2000/svg">
  <g transform="matrix(1.0, 0.0, 0.0, 1.0, 5.75, 9.95)">
    <path d="M2.0 4.95 L2.0 5.0 1.95 5.05 1.9 4.85 2.0 4.95" fill="url(#gradient0)" fill-rule="evenodd" stroke="none"/>
    <path d="M1.9 4.85 L2.0 4.9 2.0 4.95 1.9 4.85" fill="url(#gradient1)" fill-rule="evenodd" stroke="none"/>
    <path d="M3.0 -6.9 Q3.7 -4.25 3.45 -2.1 2.75 -0.55 2.4 0.8 0.9 3.15 1.9 4.85 L1.95 5.05 Q-0.9 6.25 -2.95 4.05 L-2.95 4.0 Q-2.25 1.55 -3.15 -1.05 L-3.0 -4.55 Q-2.8 -6.1 -0.75 -9.15 L3.0 -6.9" fill="url(#gradient2)" fill-rule="evenodd" stroke="none"/>
    <path d="M3.0 -6.9 Q3.7 -4.25 3.45 -2.1 2.75 -0.55 2.4 0.8 0.9 3.15 1.9 4.85 L2.0 4.95 2.0 5.0 1.95 5.05 M2.0 4.9 L2.0 4.95 M-2.95 4.05 L-2.95 4.0 Q-2.25 1.55 -3.15 -1.05 L-3.0 -4.55 Q-2.8 -6.1 -0.75 -9.15" fill="none" stroke="#000000" stroke-linecap="round" stroke-linejoin="round" stroke-width="0.05"/>
    <path d="M3.05 -7.35 L3.8 -2.15 Q3.55 0.0 5.75 3.0 0.95 0.75 -5.75 1.7 -4.3 0.55 -3.3 -4.35 L-1.1 -9.95 3.05 -7.35" fill="url(#gradient3)" fill-rule="evenodd" stroke="none"/>
    <path d="M-1.1 -9.95 L-3.3 -4.35 Q-4.3 0.55 -5.75 1.7 0.95 0.75 5.75 3.0 3.55 0.0 3.8 -2.15 L3.05 -7.35" fill="none" stroke="#000000" stroke-linecap="round" stroke-linejoin="round" stroke-width="0.05"/>
  </g>
  <defs>
    <radialGradient cx="0" cy="0" gradientTransform="matrix(0.0133, 0.0026, -0.0018, 0.0144, 0.8, -7.0)" gradientUnits="userSpaceOnUse" id="gradient0" r="819.2" spreadMethod="pad">
      <stop offset="0.0" stop-color="#6a7249"/>
      <stop offset="1.0" stop-color="#393a2c"/>
    </radialGradient>
    <radialGradient cx="0" cy="0" gradientTransform="matrix(0.0038, 7.0E-4, -5.0E-4, 0.0041, -0.45, 6.05)" gradientUnits="userSpaceOnUse" id="gradient1" r="819.2" spreadMethod="pad">
      <stop offset="0.0" stop-color="#6a7249"/>
      <stop offset="1.0" stop-color="#393a2c"/>
    </radialGradient>
    <radialGradient cx="0" cy="0" gradientTransform="matrix(0.0153, 0.0, 0.0, 0.0153, 0.75, 3.15)" gradientUnits="userSpaceOnUse" id="gradient2" r="819.2" spreadMethod="pad">
      <stop offset="0.0" stop-color="#404040"/>
      <stop offset="0.6196078431372549" stop-color="#1e1e1e"/>
      <stop offset="1.0" stop-color="#333333"/>
    </radialGradient>
    <linearGradient gradientTransform="matrix(-4.0E-4, -0.0081, 0.007, -3.0E-4, -0.3, -3.35)" gradientUnits="userSpaceOnUse" id="gradient3" spreadMethod="pad" x1="-819.2" x2="819.2">
      <stop offset="0.0" stop-color="#e98bf3"/>
      <stop offset="1.0" stop-color="#ffffff"/>
    </linearGradient>
  </defs>
</svg>
