<?xml version="1.0" encoding="UTF-8" standalone="no"?>
<svg xmlns:ffdec="https://www.free-decompiler.com/flash" xmlns:xlink="http://www.w3.org/1999/xlink" ffdec:objectType="shape" height="34.2px" width="21.4px" xmlns="http://www.w3.org/2000/svg">
  <g transform="matrix(1.0, 0.0, 0.0, 1.0, 11.3, 17.75)">
    <path d="M-5.85 -4.35 L-6.4 -5.55 -6.15 -5.6 -5.85 -4.35" fill="url(#gradient0)" fill-rule="evenodd" stroke="none"/>
    <path d="M-9.65 -7.7 L-9.9 -7.8 -9.9 -8.0 -9.65 -7.7" fill="url(#gradient1)" fill-rule="evenodd" stroke="none"/>
    <path d="M9.85 -9.4 L9.95 -9.1 9.8 -9.0 9.85 -9.4" fill="url(#gradient2)" fill-rule="evenodd" stroke="none"/>
    <path d="M5.25 -12.95 L6.65 -12.4 8.1 -11.6 10.1 -10.5 9.85 -9.4 9.8 -9.0 9.55 -8.85 7.85 -7.65 7.5 -6.95 7.75 -4.2 7.3 -3.3 7.1 -2.95 6.55 -1.7 6.55 -1.65 4.95 5.05 5.0 5.05 Q6.0 7.7 5.7 10.05 L5.8 10.05 5.95 13.05 2.15 16.45 -5.0 12.6 -4.7 8.75 -5.1 4.45 -5.1 4.4 -4.95 4.45 -4.95 4.4 Q-4.6 -0.75 -5.85 -4.35 L-6.15 -5.6 -6.2 -5.7 -6.25 -5.7 -9.65 -7.7 -9.9 -8.0 -10.35 -8.6 -11.3 -10.75 -5.4 -14.1 Q-5.4 -15.25 -7.15 -17.05 -5.8 -15.95 -2.15 -15.75 L-1.7 -14.2 -1.75 -14.1 -1.7 -14.15 -1.6 -14.05 -3.2 -10.1 Q-1.5 -11.3 -0.15 -9.1 L-1.1 -4.1 Q1.3 -0.85 3.75 8.25 L3.75 5.65 5.35 -10.15 Q4.35 -10.65 4.8 -11.75 L5.25 -12.95" fill="url(#gradient3)" fill-rule="evenodd" stroke="none"/>
    <path d="M-1.6 -14.05 L1.55 -10.1 3.75 5.65 3.75 8.25 Q1.3 -0.85 -1.1 -4.1 L-0.15 -9.1 Q-1.5 -11.3 -3.2 -10.1 L-1.6 -14.05" fill="url(#gradient4)" fill-rule="evenodd" stroke="none"/>
    <path d="M-7.15 -17.05 L-7.5 -17.4 -2.65 -17.75 Q3.0 -17.05 6.1 -14.85 L5.35 -13.15 5.25 -12.95 4.65 -13.1 -0.05 -16.4 -1.7 -14.2 -2.15 -15.75 Q-5.8 -15.95 -7.15 -17.05" fill="url(#gradient5)" fill-rule="evenodd" stroke="none"/>
    <path d="M5.25 -12.95 L6.65 -12.4 8.1 -11.6 10.1 -10.5 9.85 -9.4 9.8 -9.0 9.55 -8.85 M7.85 -7.65 L7.5 -6.95 7.75 -4.2 7.3 -3.3 7.1 -2.95 6.55 -1.7 6.55 -1.65 4.95 5.05 5.0 5.05 Q6.0 7.7 5.7 10.05 L5.8 10.05 5.95 13.05 M-5.0 12.6 L-4.7 8.75 -5.1 4.45 -5.1 4.4 -4.95 4.45 -4.95 4.4 Q-4.6 -0.75 -5.85 -4.35 L-6.15 -5.6 -6.2 -5.7 -6.25 -5.7 M-11.3 -10.75 L-5.4 -14.1 Q-5.4 -15.25 -7.15 -17.05 L-7.5 -17.4 -2.65 -17.75 Q3.0 -17.05 6.1 -14.85 L5.35 -13.15 5.25 -12.95 4.65 -13.1 -0.05 -16.4 -1.7 -14.2 -1.7 -14.15 -1.6 -14.05 1.55 -10.1 M5.35 -10.15 Q4.35 -10.65 4.8 -11.75 L5.25 -12.95 M-1.75 -14.1 L-1.7 -14.2 -2.15 -15.75 Q-5.8 -15.95 -7.15 -17.05" fill="none" stroke="#000000" stroke-linecap="round" stroke-linejoin="round" stroke-width="0.05"/>
    <path d="M-9.9 -8.0 L-10.35 -8.6 -11.3 -10.75 M1.55 -10.1 L3.75 5.65 5.35 -10.15 M3.75 5.65 L3.75 8.25 Q1.3 -0.85 -1.1 -4.1 L-0.15 -9.1 Q-1.5 -11.3 -3.2 -10.1 L-1.6 -14.05 M-9.9 -8.0 L-9.65 -7.7" fill="none" stroke="#000000" stroke-linecap="round" stroke-linejoin="round" stroke-width="0.05"/>
  </g>
  <defs>
    <radialGradient cx="0" cy="0" gradientTransform="matrix(0.0222, 0.0, 0.0, 0.0222, 2.85, -1.75)" gradientUnits="userSpaceOnUse" id="gradient0" r="819.2" spreadMethod="pad">
      <stop offset="0.0" stop-color="#6a7249"/>
      <stop offset="1.0" stop-color="#393a2c"/>
    </radialGradient>
    <radialGradient cx="0" cy="0" gradientTransform="matrix(0.0076, 0.0, 0.0, 0.0076, -6.55, -9.95)" gradientUnits="userSpaceOnUse" id="gradient1" r="819.2" spreadMethod="pad">
      <stop offset="0.0" stop-color="#c68d39"/>
      <stop offset="0.6196078431372549" stop-color="#8f532c"/>
      <stop offset="1.0" stop-color="#a94e4e"/>
    </radialGradient>
    <radialGradient cx="0" cy="0" gradientTransform="matrix(0.0065, 0.0, 0.0, 0.0065, 7.6, -9.15)" gradientUnits="userSpaceOnUse" id="gradient2" r="819.2" spreadMethod="pad">
      <stop offset="0.0" stop-color="#c68d39"/>
      <stop offset="0.6196078431372549" stop-color="#8f532c"/>
      <stop offset="1.0" stop-color="#a94e4e"/>
    </radialGradient>
    <radialGradient cx="0" cy="0" gradientTransform="matrix(0.0321, 0.0, 0.0, 0.0321, 8.15, -9.15)" gradientUnits="userSpaceOnUse" id="gradient3" r="819.2" spreadMethod="pad">
      <stop offset="0.0" stop-color="#ffffff"/>
      <stop offset="1.0" stop-color="#bfbfbf"/>
    </radialGradient>
    <radialGradient cx="0" cy="0" gradientTransform="matrix(0.0247, 0.0, 0.0, 0.0247, -1.35, -11.0)" gradientUnits="userSpaceOnUse" id="gradient4" r="819.2" spreadMethod="pad">
      <stop offset="0.0" stop-color="#c79dc8"/>
      <stop offset="1.0" stop-color="#806f88"/>
    </radialGradient>
    <radialGradient cx="0" cy="0" gradientTransform="matrix(0.0103, 0.0, 0.0, 0.0103, -2.25, -15.9)" gradientUnits="userSpaceOnUse" id="gradient5" r="819.2" spreadMethod="pad">
      <stop offset="0.0" stop-color="#c79dc8"/>
      <stop offset="1.0" stop-color="#806f88"/>
    </radialGradient>
  </defs>
</svg>
