<?xml version="1.0" encoding="UTF-8" standalone="no"?>
<svg xmlns:ffdec="https://www.free-decompiler.com/flash" xmlns:xlink="http://www.w3.org/1999/xlink" ffdec:objectType="shape" height="27.25px" width="21.0px" xmlns="http://www.w3.org/2000/svg">
  <g transform="matrix(1.0, 0.0, 0.0, 1.0, 18.65, 17.8)">
    <path d="M-4.65 -0.9 L-4.7 -1.05 -4.5 -1.15 -4.65 -0.9" fill="url(#gradient0)" fill-rule="evenodd" stroke="none"/>
    <path d="M-3.8 -2.4 L-3.35 -3.15 0.6 -0.75 0.5 0.05 -3.8 -2.4" fill="url(#gradient1)" fill-rule="evenodd" stroke="none"/>
    <path d="M-2.9 -3.7 L-1.65 -5.05 1.0 -2.65 0.8 -1.8 0.6 -0.75 -3.35 -3.15 -3.25 -3.25 -2.9 -3.7" fill="url(#gradient2)" fill-rule="evenodd" stroke="none"/>
    <path d="M0.8 -1.8 L1.75 -1.05 1.6 -0.2 0.6 -0.75 0.8 -1.8" fill="url(#gradient3)" fill-rule="evenodd" stroke="none"/>
    <path d="M1.6 -0.2 L1.5 0.65 0.5 0.05 0.6 -0.75 1.6 -0.2" fill="url(#gradient4)" fill-rule="evenodd" stroke="none"/>
    <path d="M-6.15 4.0 L-13.1 -2.0 -18.65 -3.8 -17.5 -9.8 -12.05 -6.1 -5.95 3.05 -3.75 5.45 -6.15 4.0" fill="url(#gradient5)" fill-rule="evenodd" stroke="none"/>
    <path d="M-4.7 -1.05 L-9.85 -12.4 -14.25 -15.65 -11.75 -17.8 -8.25 -14.85 -4.5 -1.15 -4.7 -1.05" fill="url(#gradient6)" fill-rule="evenodd" stroke="none"/>
    <path d="M-3.25 -3.25 L-6.0 -17.4 -4.1 -14.25 -2.9 -3.7 -3.25 -3.25" fill="url(#gradient7)" fill-rule="evenodd" stroke="none"/>
    <path d="M-5.7 7.7 L-6.55 8.2 -6.15 4.0 -3.75 5.45 -5.95 3.05 Q-5.5 0.85 -4.65 -0.9 L-4.55 -0.7 -4.5 -1.15 -3.8 -2.4 0.5 0.05 Q0.0 3.6 1.0 7.0 -3.4 6.65 -5.7 7.7" fill="url(#gradient8)" fill-rule="evenodd" stroke="none"/>
    <path d="M1.5 0.65 Q1.1 4.15 2.35 8.85 -4.0 7.35 -4.75 9.45 L-5.7 7.7 Q-3.4 6.65 1.0 7.0 0.0 3.6 0.5 0.05 L1.5 0.65" fill="url(#gradient9)" fill-rule="evenodd" stroke="none"/>
    <path d="M-2.9 -3.7 L-1.65 -5.05 1.0 -2.65 0.8 -1.8 1.75 -1.05 1.6 -0.2 1.5 0.65 Q1.1 4.15 2.35 8.85 -4.0 7.35 -4.75 9.45 L-5.7 7.7 -6.55 8.2 -6.15 4.0 -13.1 -2.0 -18.65 -3.8 -17.5 -9.8 -12.05 -6.1 -5.95 3.05 Q-5.5 0.85 -4.65 -0.9 L-4.7 -1.05 -9.85 -12.4 -14.25 -15.65 -11.75 -17.8 -8.25 -14.85 -4.5 -1.15 -3.8 -2.4 -3.35 -3.15 -3.25 -3.25 -6.0 -17.4 -4.1 -14.25 -2.9 -3.7 -3.25 -3.25 M0.8 -1.8 L0.6 -0.75 1.6 -0.2 M0.5 0.05 L1.5 0.65 M-5.7 7.7 Q-3.4 6.65 1.0 7.0 0.0 3.6 0.5 0.05 L-3.8 -2.4 M0.5 0.05 L0.6 -0.75 -3.35 -3.15 M-4.65 -0.9 L-4.5 -1.15 M-6.15 4.0 L-3.75 5.45 -5.95 3.05" fill="none" stroke="#000000" stroke-linecap="round" stroke-linejoin="round" stroke-width="0.05"/>
  </g>
  <defs>
    <linearGradient gradientTransform="matrix(-0.0011, -0.0107, 0.0049, -5.0E-4, -9.5, -9.2)" gradientUnits="userSpaceOnUse" id="gradient0" spreadMethod="pad" x1="-819.2" x2="819.2">
      <stop offset="0.0" stop-color="#34ba41"/>
      <stop offset="1.0" stop-color="#49aae9"/>
    </linearGradient>
    <radialGradient cx="0" cy="0" gradientTransform="matrix(0.0059, 0.0, 0.0, 0.0059, 0.5, -0.35)" gradientUnits="userSpaceOnUse" id="gradient1" r="819.2" spreadMethod="pad">
      <stop offset="0.0" stop-color="#c18f1c"/>
      <stop offset="0.7137254901960784" stop-color="#783910"/>
      <stop offset="1.0" stop-color="#9e3f3f"/>
    </radialGradient>
    <radialGradient cx="0" cy="0" gradientTransform="matrix(0.0035, 0.0, 0.0, 0.0035, -1.25, -2.25)" gradientUnits="userSpaceOnUse" id="gradient2" r="819.2" spreadMethod="pad">
      <stop offset="0.0" stop-color="#c18f1c"/>
      <stop offset="0.7137254901960784" stop-color="#783910"/>
      <stop offset="1.0" stop-color="#9e3f3f"/>
    </radialGradient>
    <radialGradient cx="0" cy="0" gradientTransform="matrix(0.0015, 0.0, 0.0, 0.0015, 1.0, -0.6)" gradientUnits="userSpaceOnUse" id="gradient3" r="819.2" spreadMethod="pad">
      <stop offset="0.0" stop-color="#c18f1c"/>
      <stop offset="0.7137254901960784" stop-color="#783910"/>
      <stop offset="1.0" stop-color="#9e3f3f"/>
    </radialGradient>
    <radialGradient cx="0" cy="0" gradientTransform="matrix(0.0017, 0.0, 0.0, 0.0017, 1.5, 0.25)" gradientUnits="userSpaceOnUse" id="gradient4" r="819.2" spreadMethod="pad">
      <stop offset="0.0" stop-color="#c18f1c"/>
      <stop offset="0.7137254901960784" stop-color="#783910"/>
      <stop offset="1.0" stop-color="#9e3f3f"/>
    </radialGradient>
    <linearGradient gradientTransform="matrix(-0.0077, -0.0099, 0.0032, -0.0025, -12.2, -0.9)" gradientUnits="userSpaceOnUse" id="gradient5" spreadMethod="pad" x1="-819.2" x2="819.2">
      <stop offset="0.0" stop-color="#915e91"/>
      <stop offset="1.0" stop-color="#e7fa38"/>
    </linearGradient>
    <linearGradient gradientTransform="matrix(-0.0011, -0.0107, 0.0049, -5.0E-4, -9.5, -9.2)" gradientUnits="userSpaceOnUse" id="gradient6" spreadMethod="pad" x1="-819.2" x2="819.2">
      <stop offset="0.0" stop-color="#915e91"/>
      <stop offset="1.0" stop-color="#e7fa38"/>
    </linearGradient>
    <linearGradient gradientTransform="matrix(0.0019, 0.0, 0.0, 0.0086, -4.45, -10.35)" gradientUnits="userSpaceOnUse" id="gradient7" spreadMethod="pad" x1="-819.2" x2="819.2">
      <stop offset="0.0" stop-color="#915e91"/>
      <stop offset="1.0" stop-color="#e7fa38"/>
    </linearGradient>
    <radialGradient cx="0" cy="0" gradientTransform="matrix(0.01, 0.0, 0.0, 0.01, -3.35, 0.65)" gradientUnits="userSpaceOnUse" id="gradient8" r="819.2" spreadMethod="pad">
      <stop offset="0.0" stop-color="#f88132"/>
      <stop offset="0.7137254901960784" stop-color="#820f0f"/>
      <stop offset="1.0" stop-color="#8c4994"/>
    </radialGradient>
    <radialGradient cx="0" cy="0" gradientTransform="matrix(0.0132, 0.0, 0.0, 0.0132, 1.0, 0.25)" gradientUnits="userSpaceOnUse" id="gradient9" r="819.2" spreadMethod="pad">
      <stop offset="0.0" stop-color="#ffffff"/>
      <stop offset="0.7137254901960784" stop-color="#484848"/>
      <stop offset="1.0" stop-color="#bfbfbf"/>
    </radialGradient>
  </defs>
</svg>
