<?xml version="1.0" encoding="UTF-8" standalone="no"?>
<svg xmlns:ffdec="https://www.free-decompiler.com/flash" xmlns:xlink="http://www.w3.org/1999/xlink" ffdec:objectType="shape" height="11.35px" width="7.9px" xmlns="http://www.w3.org/2000/svg">
  <g transform="matrix(1.0, 0.0, 0.0, 1.0, 2.55, 6.7)">
    <path d="M5.0 -1.3 L5.35 1.4 4.5 1.5 4.5 1.6 3.7 4.65 -0.6 3.7 -1.05 0.7 -1.3 0.5 -1.45 0.35 Q-2.55 -0.85 -2.55 -2.55 -2.55 -4.25 -1.45 -5.5 -0.3 -6.7 1.3 -6.7 2.9 -6.7 4.0 -5.5 5.15 -4.25 5.15 -2.55 L5.1 -1.85 5.05 -1.6 5.05 -1.45 5.0 -1.3" fill="url(#gradient0)" fill-rule="evenodd" stroke="none"/>
    <path d="M5.0 -1.3 L5.05 -1.45 5.05 -1.6 5.1 -1.85 5.15 -2.55 Q5.15 -4.25 4.0 -5.5 2.9 -6.7 1.3 -6.7 -0.3 -6.7 -1.45 -5.5 -2.55 -4.25 -2.55 -2.55 -2.55 -0.85 -1.45 0.35 L-1.3 0.5 -1.05 0.7 -0.6 3.7 3.7 4.65 4.5 1.6 4.5 1.5 5.35 1.4 5.0 -1.3 Z" fill="none" stroke="#000000" stroke-linecap="round" stroke-linejoin="round" stroke-width="0.05"/>
    <path d="M2.25 -1.5 L3.35 -1.65 4.2 -1.55 4.35 -1.35 3.3 -0.3 Q2.15 -0.7 2.15 -1.25 L2.25 -1.5 M3.8 2.85 L3.3 2.9 2.85 2.85 3.35 2.45 3.8 2.55 3.8 2.85 M4.6 0.5 Q5.0 0.5 5.3 1.05 4.85 1.65 3.9 1.65 L3.75 1.25 Q3.75 0.8 4.6 0.5" fill="#000000" fill-rule="evenodd" stroke="none"/>
    <path d="M0.35 -5.4 L0.0 -6.35 M1.0 -5.7 L1.4 -5.45 M1.15 -3.55 L-0.25 -3.4 -0.25 -1.95 M-0.35 -5.15 L-0.75 -3.35 -0.25 -3.4" fill="none" stroke="#3c342b" stroke-linecap="round" stroke-linejoin="round" stroke-width="0.05"/>
    <path d="M0.35 -5.4 L1.0 -5.7 M-2.1 -4.45 L-0.35 -5.15 0.35 -5.4" fill="none" stroke="#3c342b" stroke-linecap="round" stroke-linejoin="round" stroke-width="0.05"/>
  </g>
  <defs>
    <radialGradient cx="0" cy="0" gradientTransform="matrix(0.0101, 0.0, 0.0, 0.0101, 4.7, -2.65)" gradientUnits="userSpaceOnUse" id="gradient0" r="819.2" spreadMethod="pad">
      <stop offset="0.0" stop-color="#bca998"/>
      <stop offset="0.6196078431372549" stop-color="#675b43"/>
      <stop offset="1.0" stop-color="#526c46"/>
    </radialGradient>
  </defs>
</svg>
