<?xml version="1.0" encoding="UTF-8" standalone="no"?>
<svg xmlns:ffdec="https://www.free-decompiler.com/flash" xmlns:xlink="http://www.w3.org/1999/xlink" ffdec:objectType="shape" height="19.65px" width="7.1px" xmlns="http://www.w3.org/2000/svg">
  <g transform="matrix(1.0, 0.0, 0.0, 1.0, 3.55, 9.8)">
    <path d="M3.55 -4.95 L3.55 -3.2 3.55 -3.1 3.4 0.3 3.35 0.65 3.05 2.95 2.95 3.4 2.6 5.2 2.3 6.5 2.2 6.95 0.65 3.45 3.05 2.95 0.65 3.45 0.3 2.45 Q0.3 1.55 -0.25 0.65 -0.95 -0.5 -2.5 -1.6 L-3.5 -2.25 Q-3.65 -3.6 -3.4 -5.2 L-3.35 -5.7 Q-3.2 -7.1 -2.6 -7.9 L-2.2 -8.65 -1.8 -9.05 -1.35 -9.3 -0.5 -9.65 Q1.35 -10.15 3.3 -8.95 L3.45 -6.75 3.55 -4.95 M3.55 -3.2 L-2.5 -1.6 3.55 -3.2 M-0.25 0.65 L3.35 0.65 -0.25 0.65" fill="url(#gradient0)" fill-rule="evenodd" stroke="none"/>
    <path d="M2.2 6.95 Q1.6 8.65 0.45 9.85 L0.4 9.85 -0.5 9.5 Q-1.55 9.05 -1.9 8.15 -2.5 6.85 -2.6 5.5 L-2.8 4.15 -2.95 2.25 -3.1 0.65 -3.35 -1.35 -3.4 -1.6 -3.5 -2.25 -2.5 -1.6 -3.35 -1.35 -2.5 -1.6 Q-0.95 -0.5 -0.25 0.65 0.3 1.55 0.3 2.45 L0.65 3.45 2.2 6.95 M-3.1 0.65 L-0.25 0.65 -3.1 0.65 M-2.8 4.15 L0.65 3.45 -2.8 4.15" fill="url(#gradient1)" fill-rule="evenodd" stroke="none"/>
    <path d="M3.55 -4.95 L3.55 -3.2 3.55 -3.1 3.4 0.3 3.35 0.65 3.05 2.95 2.95 3.4 2.6 5.2 2.3 6.5 2.2 6.95 Q1.6 8.65 0.45 9.85 L0.4 9.85 -0.5 9.5 Q-1.55 9.05 -1.9 8.15 -2.5 6.85 -2.6 5.5 L-2.8 4.15 -2.95 2.25 -3.1 0.65 -3.35 -1.35 -3.4 -1.6 -3.5 -2.25 Q-3.65 -3.6 -3.4 -5.2" fill="none" stroke="#000000" stroke-linecap="round" stroke-linejoin="round" stroke-width="0.05"/>
    <path d="M-2.5 -1.6 L-3.35 -1.35 M-0.25 0.65 L-3.1 0.65 M0.65 3.45 L3.05 2.95 M-2.5 -1.6 L3.55 -3.2 M0.65 3.45 L-2.8 4.15 M3.35 0.65 L-0.25 0.65" fill="none" stroke="#3c342b" stroke-linecap="round" stroke-linejoin="round" stroke-width="0.05"/>
  </g>
  <defs>
    <radialGradient cx="0" cy="0" gradientTransform="matrix(0.0062, -8.0E-4, 0.0016, 0.0128, 0.3, -7.9)" gradientUnits="userSpaceOnUse" id="gradient0" r="819.2" spreadMethod="pad">
      <stop offset="0.0" stop-color="#bca998"/>
      <stop offset="0.6196078431372549" stop-color="#675b43"/>
      <stop offset="1.0" stop-color="#526c46"/>
    </radialGradient>
    <radialGradient cx="0" cy="0" gradientTransform="matrix(0.0058, -0.0013, 0.0042, 0.0186, -4.85, 0.0)" gradientUnits="userSpaceOnUse" id="gradient1" r="819.2" spreadMethod="pad">
      <stop offset="0.0" stop-color="#bca998"/>
      <stop offset="0.6196078431372549" stop-color="#675b43"/>
      <stop offset="1.0" stop-color="#526c46"/>
    </radialGradient>
  </defs>
</svg>
