<?xml version="1.0" encoding="UTF-8" standalone="no"?>
<svg xmlns:ffdec="https://www.free-decompiler.com/flash" xmlns:xlink="http://www.w3.org/1999/xlink" ffdec:objectType="shape" height="8.35px" width="9.55px" xmlns="http://www.w3.org/2000/svg">
  <g transform="matrix(1.0, 0.0, 0.0, 1.0, 2.9, 7.65)">
    <path d="M6.65 -6.25 Q6.65 -5.7 5.35 -5.75 L5.8 -5.1 5.7 -4.95 6.05 -4.15 5.75 -3.95 4.3 -4.8 3.45 -4.85 2.25 -4.95 0.7 -4.85 0.6 -4.7 Q0.3 -3.9 0.3 -2.85 0.3 -1.55 -0.15 -1.55 L-0.45 -1.8 -0.55 -1.3 -0.6 -0.8 -0.7 -0.75 Q-0.7 -0.05 -1.25 -0.05 L-1.45 -0.1 -1.35 0.4 -1.4 0.6 -1.65 0.7 Q-2.55 0.7 -2.55 -1.4 L-2.65 -1.4 -2.9 -4.6 Q-2.9 -5.7 -1.2 -6.7 0.5 -7.65 2.25 -7.65 L2.7 -7.4 2.55 -7.35 3.75 -7.35 4.7 -7.15 5.5 -6.9 Q6.65 -6.5 6.65 -6.25 M2.9 -7.25 L3.25 -7.3 2.95 -7.3 2.9 -7.25" fill="url(#gradient0)" fill-rule="evenodd" stroke="none"/>
  </g>
  <defs>
    <radialGradient cx="0" cy="0" gradientTransform="matrix(0.0069, 0.0, 0.0, 0.0069, 1.9, -3.45)" gradientUnits="userSpaceOnUse" id="gradient0" r="819.2" spreadMethod="pad">
      <stop offset="0.0" stop-color="#ffcc00"/>
      <stop offset="1.0" stop-color="#7b5e40"/>
    </radialGradient>
  </defs>
</svg>
