<?xml version="1.0" encoding="UTF-8" standalone="no"?>
<svg xmlns:ffdec="https://www.free-decompiler.com/flash" xmlns:xlink="http://www.w3.org/1999/xlink" ffdec:objectType="shape" height="10.2px" width="12.95px" xmlns="http://www.w3.org/2000/svg">
  <g transform="matrix(1.0, 0.0, 0.0, 1.0, 5.15, 9.45)">
    <path d="M6.6 -7.15 L7.25 -5.95 7.25 -5.85 7.4 -6.15 7.4 -6.35 7.55 -6.15 7.25 -5.6 7.15 -5.35 7.8 -4.4 Q7.8 -2.9 5.3 -2.9 L4.6 -3.0 4.8 -3.75 4.45 -3.8 3.5 -3.55 2.75 -3.85 Q1.85 -3.85 1.85 -3.35 L2.45 -2.75 2.45 -2.7 1.25 -2.3 1.4 -2.1 Q0.15 -1.9 0.2 -1.45 0.25 -1.05 -0.45 -0.9 L-0.45 0.05 Q-0.2 0.2 -0.2 0.4 L-0.25 0.7 -0.55 0.75 -1.8 0.55 -1.9 0.5 -3.0 -0.1 Q-4.1 -0.85 -3.9 -1.55 L-4.0 -1.9 Q-5.15 -2.95 -5.15 -3.6 L-3.5 -6.0 -2.8 -5.75 -2.65 -5.8 -2.6 -5.7 -2.15 -5.85 -2.4 -5.55 -2.35 -5.55 -1.35 -7.0 -1.3 -7.2 -1.3 -7.05 0.05 -8.4 -0.1 -8.75 Q-0.1 -9.25 0.9 -9.25 2.4 -9.25 2.7 -8.35 2.95 -8.35 4.7 -9.45 L5.05 -9.15 5.15 -9.05 6.85 -7.0 6.6 -7.15 M7.1 -5.8 L6.9 -5.55 7.1 -5.7 7.1 -5.8 M6.9 -5.55 L7.1 -5.4 7.1 -5.55 6.9 -5.55" fill="url(#gradient0)" fill-rule="evenodd" stroke="none"/>
  </g>
  <defs>
    <radialGradient cx="0" cy="0" gradientTransform="matrix(0.0087, 0.0, 0.0, 0.0087, 1.35, -4.35)" gradientUnits="userSpaceOnUse" id="gradient0" r="819.2" spreadMethod="pad">
      <stop offset="0.0" stop-color="#262626"/>
      <stop offset="1.0" stop-color="#000000"/>
    </radialGradient>
  </defs>
</svg>
