<?xml version="1.0" encoding="UTF-8" standalone="no"?>
<svg xmlns:ffdec="https://www.free-decompiler.com/flash" xmlns:xlink="http://www.w3.org/1999/xlink" ffdec:objectType="shape" height="10.5px" width="10.05px" xmlns="http://www.w3.org/2000/svg">
  <g transform="matrix(1.0, 0.0, 0.0, 1.0, 3.55, 8.85)">
    <path d="M6.0 -6.25 L5.75 -5.75 5.0 -5.7 5.5 -5.25 5.4 -5.05 Q6.55 -4.4 6.5 -3.65 5.95 -3.1 5.75 -3.1 4.1 -3.1 2.5 -3.95 L1.35 -4.45 0.1 -3.65 -0.4 -0.15 -0.45 -0.15 -0.5 0.25 -0.75 0.5 -1.0 0.5 Q-1.0 1.1 -1.15 1.6 L-1.15 1.65 Q-1.85 0.85 -1.85 0.25 L-1.8 0.05 Q-3.55 -1.45 -3.55 -4.25 L-3.5 -5.0 -3.05 -5.1 Q-3.05 -6.55 -2.25 -6.75 L-2.1 -5.55 -1.8 -6.15 -1.55 -5.75 -1.35 -5.95 Q-1.1 -7.55 -0.5 -8.4 0.0 -8.25 0.0 -7.8 L-0.05 -7.25 0.0 -7.25 -0.05 -7.1 -0.05 -6.75 0.35 -6.9 Q1.4 -8.5 3.4 -8.8 3.6 -8.95 3.6 -8.3 L2.65 -7.5 3.85 -8.0 4.35 -7.55 4.35 -7.45 5.0 -7.3 4.8 -7.0 5.5 -7.0 5.75 -6.55 6.0 -6.25" fill="url(#gradient0)" fill-rule="evenodd" stroke="none"/>
  </g>
  <defs>
    <radialGradient cx="0" cy="0" gradientTransform="matrix(0.0103, 0.0, 0.0, 0.0103, -1.05, -6.7)" gradientUnits="userSpaceOnUse" id="gradient0" r="819.2" spreadMethod="pad">
      <stop offset="0.0" stop-color="#2b2722"/>
      <stop offset="1.0" stop-color="#000000"/>
    </radialGradient>
  </defs>
</svg>
