<?xml version="1.0" encoding="UTF-8" standalone="no"?>
<svg xmlns:ffdec="https://www.free-decompiler.com/flash" xmlns:xlink="http://www.w3.org/1999/xlink" ffdec:objectType="shape" height="46.75px" width="29.3px" xmlns="http://www.w3.org/2000/svg">
  <g transform="matrix(1.0, 0.0, 0.0, 1.0, 17.95, 10.3)">
    <path d="M0.8 -5.7 L-0.4 -10.2 -0.3 -10.3 Q5.2 -5.8 10.95 -3.1 12.4 24.1 8.55 36.45 L8.45 36.4 8.15 30.75 8.3 30.85 8.3 30.75 8.3 30.7 Q10.0 17.85 9.6 6.3 L9.35 -1.75 1.05 -5.55 0.9 -5.55 0.8 -5.7" fill="url(#gradient0)" fill-rule="evenodd" stroke="none"/>
    <path d="M0.8 -5.7 L0.75 -5.65 Q-8.8 1.5 -13.9 4.1 -4.4 23.25 8.1 30.7 L8.15 30.75 8.45 36.4 Q-7.2 26.0 -17.2 4.9 L-17.95 3.3 -17.0 2.7 Q-7.8 -3.25 -0.4 -10.2 L0.8 -5.7" fill="url(#gradient1)" fill-rule="evenodd" stroke="none"/>
    <path d="M8.15 30.7 L8.3 30.7 8.3 30.75 8.15 30.7" fill="#959595" fill-rule="evenodd" stroke="none"/>
    <path d="M1.05 -5.55 L9.35 -1.75 9.6 6.3 Q10.0 17.85 8.3 30.7 L8.15 30.7 8.1 30.7 8.05 29.95 Q7.25 16.2 5.1 7.15 3.45 0.1 1.05 -5.55" fill="url(#gradient2)" fill-rule="evenodd" stroke="none"/>
    <path d="M0.75 -5.65 L0.85 -5.6 0.9 -5.55 1.05 -5.55 Q3.45 0.1 5.1 7.15 7.25 16.2 8.05 29.95 L8.1 30.7 Q-4.4 23.25 -13.9 4.1 -8.8 1.5 0.75 -5.65" fill="url(#gradient3)" fill-rule="evenodd" stroke="none"/>
    <path d="M0.8 -5.7 L0.75 -5.65 0.85 -5.6 0.9 -5.55 0.8 -5.7 M-0.4 -10.2 Q-7.8 -3.25 -17.0 2.7 L-17.95 3.3 -17.2 4.9 Q-7.2 26.0 8.45 36.4 L8.55 36.45 Q12.4 24.1 10.95 -3.1 5.2 -5.8 -0.3 -10.3 L-0.4 -10.2 M8.15 30.75 L8.1 30.7 Q-4.4 23.25 -13.9 4.1 -8.8 1.5 0.75 -5.65 M8.3 30.7 Q10.0 17.85 9.6 6.3 L9.35 -1.75 1.05 -5.55 0.9 -5.55 M8.3 30.7 L8.3 30.75 8.3 30.85 8.15 30.75" fill="none" stroke="#000000" stroke-linecap="round" stroke-linejoin="round" stroke-width="0.05"/>
    <path d="M0.85 -5.6 L0.8 -5.7 M8.15 30.75 L8.15 30.7" fill="none" stroke="#000000" stroke-linecap="round" stroke-linejoin="round" stroke-width="0.05"/>
    <path d="M0.85 -5.6 L0.9 -5.55 1.05 -5.55 9.35 -1.75 9.55 5.9 7.9 4.85 5.3 4.2 4.35 4.2 3.35 4.35 -7.6 12.55 -7.75 12.7 -7.9 12.85 -8.0 13.0 -8.15 13.15 -8.25 13.3 -8.4 13.45 -8.5 13.6 Q-11.3 9.25 -13.9 4.1 -8.8 1.5 0.75 -5.65 L0.85 -5.6" fill="url(#gradient4)" fill-rule="evenodd" stroke="none"/>
  </g>
  <defs>
    <linearGradient gradientTransform="matrix(0.0179, 0.0, 0.0, 0.0285, -3.3, 13.05)" gradientUnits="userSpaceOnUse" id="gradient0" spreadMethod="pad" x1="-819.2" x2="819.2">
      <stop offset="0.0" stop-color="#2b2b2b"/>
      <stop offset="0.5058823529411764" stop-color="#404040"/>
      <stop offset="1.0" stop-color="#090909"/>
    </linearGradient>
    <linearGradient gradientTransform="matrix(0.0179, 0.0, 0.0, 0.0285, -3.3, 13.05)" gradientUnits="userSpaceOnUse" id="gradient1" spreadMethod="pad" x1="-819.2" x2="819.2">
      <stop offset="0.0" stop-color="#444444"/>
      <stop offset="0.5058823529411764" stop-color="#666666"/>
      <stop offset="1.0" stop-color="#404040"/>
    </linearGradient>
    <radialGradient cx="0" cy="0" gradientTransform="matrix(0.0351, 0.0, 0.0, 0.0351, 7.5, 2.25)" gradientUnits="userSpaceOnUse" id="gradient2" r="819.2" spreadMethod="pad">
      <stop offset="0.0" stop-color="#59a750"/>
      <stop offset="1.0" stop-color="#36392d"/>
    </radialGradient>
    <radialGradient cx="0" cy="0" gradientTransform="matrix(0.0259, 0.0, 0.0, 0.0259, -1.75, 7.0)" gradientUnits="userSpaceOnUse" id="gradient3" r="819.2" spreadMethod="pad">
      <stop offset="0.0" stop-color="#9df04a"/>
      <stop offset="1.0" stop-color="#7b7540"/>
    </radialGradient>
    <linearGradient gradientTransform="matrix(-0.0025, -0.0097, 0.0142, -0.0036, -1.7, 3.4)" gradientUnits="userSpaceOnUse" id="gradient4" spreadMethod="pad" x1="-819.2" x2="819.2">
      <stop offset="0.0" stop-color="#1180ee" stop-opacity="0.0"/>
      <stop offset="0.9803921568627451" stop-color="#2449db"/>
    </linearGradient>
  </defs>
</svg>
