<?xml version="1.0" encoding="UTF-8" standalone="no"?>
<svg xmlns:ffdec="https://www.free-decompiler.com/flash" xmlns:xlink="http://www.w3.org/1999/xlink" ffdec:objectType="shape" height="62.5px" width="14.0px" xmlns="http://www.w3.org/2000/svg">
  <g transform="matrix(1.0, 0.0, 0.0, 1.0, 6.9, 34.05)">
    <path d="M-1.5 -12.3 L-6.9 -12.3 Q-3.45 -24.15 -4.9 -34.05 L4.85 -34.05 Q3.6 -23.15 7.1 -12.3 L1.5 -12.3 -1.5 -12.3 M3.85 -27.3 L3.85 -30.8 -3.65 -30.8 -3.65 -27.3 3.85 -27.3 M3.85 -14.8 L3.85 -18.3 -3.65 -18.3 -3.65 -14.8 3.85 -14.8" fill="url(#gradient0)" fill-rule="evenodd" stroke="none"/>
    <path d="M1.5 10.35 L1.5 28.45 -1.5 28.45 -1.5 9.1 1.5 10.35 M-1.5 -9.55 L-1.5 -12.3 1.5 -12.3 1.5 -9.55 -1.5 -9.55" fill="url(#gradient1)" fill-rule="evenodd" stroke="none"/>
    <path d="M3.85 -14.8 L-3.65 -14.8 -3.65 -18.3 3.85 -18.3 3.85 -14.8 M3.85 -27.3 L-3.65 -27.3 -3.65 -30.8 3.85 -30.8 3.85 -27.3" fill="#ffcc00" fill-rule="evenodd" stroke="none"/>
    <path d="M1.5 -9.55 L3.5 -9.55 3.35 -2.1 -3.95 -2.05 -5.0 -9.55 -1.5 -9.55 1.5 -9.55 M3.2 2.7 L3.0 10.95 1.5 10.35 -1.5 9.1 -2.5 8.7 -3.3 2.7 3.2 2.7" fill="url(#gradient2)" fill-rule="evenodd" stroke="none"/>
    <path d="M3.35 -2.1 L3.2 2.7 -3.3 2.7 -3.95 -2.05 3.35 -2.1" fill="url(#gradient3)" fill-rule="evenodd" stroke="none"/>
    <path d="M1.5 -9.55 L3.5 -9.55 3.35 -2.1 3.2 2.7 3.0 10.95 1.5 10.35 1.5 28.45 -1.5 28.45 -1.5 9.1 -2.5 8.7 -3.3 2.7 -3.95 -2.05 -5.0 -9.55 -1.5 -9.55 -1.5 -12.3 -6.9 -12.3 Q-3.45 -24.15 -4.9 -34.05 L4.85 -34.05 Q3.6 -23.15 7.1 -12.3 L1.5 -12.3 1.5 -9.55 -1.5 -9.55 M-1.5 9.1 L1.5 10.35 M-1.5 -12.3 L1.5 -12.3" fill="none" stroke="#000000" stroke-linecap="round" stroke-linejoin="round" stroke-width="0.05"/>
  </g>
  <defs>
    <linearGradient gradientTransform="matrix(0.006, 0.0, 0.0, 0.0133, -0.05, -23.2)" gradientUnits="userSpaceOnUse" id="gradient0" spreadMethod="pad" x1="-819.2" x2="819.2">
      <stop offset="0.0" stop-color="#211b1b"/>
      <stop offset="0.5529411764705883" stop-color="#404040"/>
      <stop offset="1.0" stop-color="#211b1b"/>
    </linearGradient>
    <linearGradient gradientTransform="matrix(0.0018, 0.0, 0.0, 0.0308, 0.0, 3.2)" gradientUnits="userSpaceOnUse" id="gradient1" spreadMethod="pad" x1="-819.2" x2="819.2">
      <stop offset="0.0" stop-color="#151a11"/>
      <stop offset="0.48627450980392156" stop-color="#515151"/>
      <stop offset="1.0" stop-color="#1a2318"/>
    </linearGradient>
    <linearGradient gradientTransform="matrix(0.0052, 0.0, 0.0, 0.0113, -0.75, -0.3)" gradientUnits="userSpaceOnUse" id="gradient2" spreadMethod="pad" x1="-819.2" x2="819.2">
      <stop offset="0.0" stop-color="#865e02"/>
      <stop offset="0.5058823529411764" stop-color="#fce794"/>
      <stop offset="1.0" stop-color="#7a5705"/>
    </linearGradient>
    <linearGradient gradientTransform="matrix(0.0052, 0.0, 0.0, 0.0113, -0.75, -0.3)" gradientUnits="userSpaceOnUse" id="gradient3" spreadMethod="pad" x1="-819.2" x2="819.2">
      <stop offset="0.0" stop-color="#865e02"/>
      <stop offset="0.5058823529411764" stop-color="#d6ac07"/>
      <stop offset="1.0" stop-color="#7a5705"/>
    </linearGradient>
  </defs>
</svg>
