<?xml version="1.0" encoding="UTF-8" standalone="no"?>
<svg xmlns:ffdec="https://www.free-decompiler.com/flash" xmlns:xlink="http://www.w3.org/1999/xlink" ffdec:objectType="shape" height="84.35px" width="72.55px" xmlns="http://www.w3.org/2000/svg">
  <g transform="matrix(1.0, 0.0, 0.0, 1.0, 15.6, 56.2)">
    <path d="M56.55 -56.2 L56.95 -55.8 53.35 -51.9 52.6 -51.9 56.55 -56.2" fill="url(#gradient0)" fill-rule="evenodd" stroke="none"/>
    <path d="M16.8 -16.9 L15.75 -19.75 16.35 -20.4 18.3 -18.55 18.35 -18.55 16.8 -16.9" fill="url(#gradient1)" fill-rule="evenodd" stroke="none"/>
    <path d="M18.3 -18.55 L18.9 -19.2 21.15 -16.15 20.7 -15.6 20.5 -15.85 20.45 -15.9 19.95 -16.05 19.35 -15.85 19.15 -15.3 Q19.15 -15.0 19.35 -14.8 L19.4 -14.75 19.75 -14.55 14.45 -8.7 14.1 -8.95 11.7 -11.15 11.65 -11.2 14.0 -13.8 14.15 -13.55 Q14.4 -13.3 14.75 -13.3 15.1 -13.3 15.35 -13.55 L15.6 -14.15 15.35 -14.75 15.25 -14.85 15.05 -14.95 16.8 -16.9 18.35 -18.55 18.3 -18.55 M15.25 -10.05 L15.45 -10.55 15.25 -11.05 14.75 -11.25 14.25 -11.05 14.05 -10.55 14.25 -10.05 Q14.45 -9.85 14.75 -9.85 L15.25 -10.05" fill="url(#gradient2)" fill-rule="evenodd" stroke="none"/>
    <path d="M20.45 -15.9 L19.4 -14.75 19.35 -14.8 Q19.15 -15.0 19.15 -15.3 L19.35 -15.85 19.95 -16.05 20.45 -15.9 M14.15 -13.55 L15.25 -14.85 15.35 -14.75 15.6 -14.15 15.35 -13.55 Q15.1 -13.3 14.75 -13.3 14.4 -13.3 14.15 -13.55 M15.25 -10.05 L14.75 -9.85 Q14.45 -9.85 14.25 -10.05 L14.05 -10.55 14.25 -11.05 14.75 -11.25 15.25 -11.05 15.45 -10.55 15.25 -10.05" fill="#333333" fill-rule="evenodd" stroke="none"/>
    <path d="M3.65 -0.5 L3.85 -0.75 4.65 -4.75 5.35 -5.35 11.2 0.25 7.7 3.9 3.35 -0.2 3.65 -0.5" fill="url(#gradient3)" fill-rule="evenodd" stroke="none"/>
    <path d="M-9.2 13.35 L-10.55 9.95 -0.05 -1.4 3.65 -0.5 3.35 -0.2 2.65 0.55 0.4 0.2 -8.75 10.1 -8.0 12.05 -9.2 13.35" fill="url(#gradient4)" fill-rule="evenodd" stroke="none"/>
    <path d="M15.75 -4.55 L14.3 -3.05 8.8 -8.2 9.25 -8.55 10.85 -10.3 10.35 -9.7 15.75 -4.55" fill="url(#gradient5)" fill-rule="evenodd" stroke="none"/>
    <path d="M15.55 -7.65 L17.2 -6.05 15.75 -4.55 10.35 -9.7 10.9 -10.25 10.9 -10.3 11.7 -11.15 14.1 -8.95 14.35 -8.7 14.35 -8.65 14.4 -8.7 15.55 -7.65 M14.3 -3.05 L13.55 -2.25 12.65 -1.3 7.05 -6.7 8.8 -8.2 14.3 -3.05" fill="url(#gradient6)" fill-rule="evenodd" stroke="none"/>
    <path d="M5.35 -5.35 L7.05 -6.7 12.65 -1.3 11.2 0.25 5.35 -5.35" fill="url(#gradient7)" fill-rule="evenodd" stroke="none"/>
    <path d="M14.1 -8.95 L14.45 -8.7 14.4 -8.7 14.35 -8.65 14.35 -8.7 14.1 -8.95" fill="url(#gradient8)" fill-rule="evenodd" stroke="none"/>
    <path d="M13.55 -2.25 L15.55 -0.35 19.15 3.1 20.4 4.3 17.85 6.1 17.2 5.95 11.2 0.25 12.65 -1.3 13.55 -2.25" fill="url(#gradient9)" fill-rule="evenodd" stroke="none"/>
    <path d="M15.55 -0.35 L28.6 -14.45 28.45 -8.7 22.3 -0.25 21.25 -0.65 20.1 0.55 20.55 1.6 19.15 3.1 15.55 -0.35" fill="url(#gradient10)" fill-rule="evenodd" stroke="none"/>
    <path d="M17.2 5.95 L13.6 5.3 11.45 7.5 7.7 3.9 11.2 0.25 17.2 5.95" fill="url(#gradient11)" fill-rule="evenodd" stroke="none"/>
    <path d="M10.6 8.45 L10.25 8.85 10.4 11.5 8.45 12.85 2.1 10.55 1.7 10.2 6.85 4.85 10.6 8.45" fill="url(#gradient12)" fill-rule="evenodd" stroke="none"/>
    <path d="M11.45 7.5 L10.6 8.45 6.85 4.85 7.7 3.9 11.45 7.5" fill="url(#gradient13)" fill-rule="evenodd" stroke="none"/>
    <path d="M3.35 -0.2 L7.7 3.9 6.85 4.85 4.15 2.3 2.5 0.75 2.65 0.55 3.35 -0.2" fill="url(#gradient14)" fill-rule="evenodd" stroke="none"/>
    <path d="M-10.05 14.25 L-9.2 13.35 -8.0 12.05 2.5 0.75 4.15 2.3 -8.6 15.65 -10.05 14.25" fill="url(#gradient15)" fill-rule="evenodd" stroke="none"/>
    <path d="M1.7 10.2 L-3.6 15.75 -3.5 15.6 -4.65 16.45 -5.4 18.55 -5.45 18.6 -8.6 15.65 4.15 2.3 6.85 4.85 1.7 10.2" fill="url(#gradient16)" fill-rule="evenodd" stroke="none"/>
    <path d="M-3.6 15.75 L4.25 23.75 3.15 25.25 -5.45 18.75 -5.4 18.55 -4.15 16.35 -3.6 15.75" fill="url(#gradient17)" fill-rule="evenodd" stroke="none"/>
    <path d="M-5.45 18.6 L-10.95 28.15 -15.6 21.95 -14.1 17.4 -10.75 15.05 -10.05 14.25 -8.6 15.65 -5.45 18.6" fill="url(#gradient18)" fill-rule="evenodd" stroke="none"/>
    <path d="M-4.15 16.35 L-4.4 16.55 -4.65 16.45 -3.5 15.6 -3.6 15.75 -4.15 16.35" fill="#0d0d0d" fill-rule="evenodd" stroke="none"/>
    <path d="M15.55 -8.0 L51.6 -47.5 52.35 -47.5 15.95 -7.65 15.55 -8.0" fill="url(#gradient19)" fill-rule="evenodd" stroke="none"/>
    <path d="M16.8 -16.9 L15.75 -19.75 16.35 -20.4 18.3 -18.55 18.9 -19.2 21.15 -16.15 20.7 -15.6 M19.75 -14.55 L14.45 -8.7 15.55 -7.65 17.2 -6.05 15.75 -4.55 14.3 -3.05 13.55 -2.25 15.55 -0.35 28.6 -14.45 28.45 -8.7 22.3 -0.25 21.25 -0.65 20.1 0.55 20.55 1.6 19.15 3.1 20.4 4.3 17.85 6.1 17.2 5.95 13.6 5.3 11.45 7.5 10.6 8.45 10.25 8.85 10.4 11.5 8.45 12.85 2.1 10.55 M1.7 10.2 L-3.6 15.75 4.25 23.75 3.15 25.25 -5.45 18.75 -5.4 18.55 -5.45 18.6 -10.95 28.15 -15.6 21.95 -14.1 17.4 -10.75 15.05 -10.05 14.25 -9.2 13.35 -10.55 9.95 -0.05 -1.4 3.65 -0.5 3.85 -0.75 4.65 -4.75 5.35 -5.35 7.05 -6.7 8.8 -8.2 9.25 -8.55 10.85 -10.3 M10.9 -10.3 L11.7 -11.15 11.65 -11.2 14.0 -13.8 M15.05 -14.95 L16.8 -16.9 18.35 -18.55 18.3 -18.55 M3.65 -0.5 L3.35 -0.2 2.65 0.55 0.4 0.2 -8.75 10.1 -8.0 12.05 2.5 0.75 2.65 0.55 M7.7 3.9 L11.2 0.25 12.65 -1.3 13.55 -2.25 M14.1 -8.95 L14.45 -8.7 14.4 -8.7 14.35 -8.65 14.35 -8.7 14.1 -8.95 11.7 -11.15 M15.75 -4.55 L10.35 -9.7 M8.8 -8.2 L14.3 -3.05 M7.05 -6.7 L12.65 -1.3 M6.85 4.85 L1.7 10.2 M-8.6 15.65 L-5.45 18.6 M15.55 -0.35 L19.15 3.1 M-3.6 15.75 L-3.5 15.6 -4.65 16.45 -5.4 18.55 M-8.6 15.65 L-10.05 14.25 M-8.0 12.05 L-9.2 13.35" fill="none" stroke="#000000" stroke-linecap="round" stroke-linejoin="round" stroke-width="0.05"/>
    <path d="M20.7 -15.6 L20.5 -15.85 20.45 -15.9 19.4 -14.75 19.75 -14.55 M14.0 -13.8 L14.15 -13.55 15.25 -14.85 15.05 -14.95 M15.25 -14.85 L15.35 -14.75 15.6 -14.15 15.35 -13.55 Q15.1 -13.3 14.75 -13.3 14.4 -13.3 14.15 -13.55 M19.4 -14.75 L19.35 -14.8 Q19.15 -15.0 19.15 -15.3 L19.35 -15.85 19.95 -16.05 20.45 -15.9 M15.25 -10.05 L14.75 -9.85 Q14.45 -9.85 14.25 -10.05 L14.05 -10.55 14.25 -11.05 14.75 -11.25 15.25 -11.05 15.45 -10.55 15.25 -10.05 Z" fill="none" stroke="#000000" stroke-linecap="round" stroke-linejoin="round" stroke-width="0.05"/>
  </g>
  <defs>
    <linearGradient gradientTransform="matrix(0.0244, -0.0267, 2.0E-4, 2.0E-4, 36.65, -34.1)" gradientUnits="userSpaceOnUse" id="gradient0" spreadMethod="pad" x1="-819.2" x2="819.2">
      <stop offset="0.0" stop-color="#ff0000" stop-opacity="0.7411765"/>
      <stop offset="0.803921568627451" stop-color="#ff0000" stop-opacity="0.0"/>
    </linearGradient>
    <linearGradient gradientTransform="matrix(-0.0012, -0.0011, 9.0E-4, -0.001, 16.6, -18.65)" gradientUnits="userSpaceOnUse" id="gradient1" spreadMethod="pad" x1="-819.2" x2="819.2">
      <stop offset="0.0" stop-color="#151515"/>
      <stop offset="0.5019607843137255" stop-color="#444444"/>
      <stop offset="1.0" stop-color="#111111"/>
    </linearGradient>
    <linearGradient gradientTransform="matrix(-0.0014, -0.0019, 0.0046, -0.0051, 16.0, -13.3)" gradientUnits="userSpaceOnUse" id="gradient2" spreadMethod="pad" x1="-819.2" x2="819.2">
      <stop offset="0.0" stop-color="#b3b3b3"/>
      <stop offset="0.5019607843137255" stop-color="#777777"/>
      <stop offset="1.0" stop-color="#d0d0d0"/>
    </linearGradient>
    <linearGradient gradientTransform="matrix(-0.0036, -0.0035, 0.0021, -0.0023, 6.5, -0.75)" gradientUnits="userSpaceOnUse" id="gradient3" spreadMethod="pad" x1="-819.2" x2="819.2">
      <stop offset="0.0" stop-color="#595959"/>
      <stop offset="0.5019607843137255" stop-color="#aeaeae"/>
      <stop offset="1.0" stop-color="#484848"/>
    </linearGradient>
    <linearGradient gradientTransform="matrix(-0.0015, -0.0014, 0.0078, -0.0084, -4.0, 5.3)" gradientUnits="userSpaceOnUse" id="gradient4" spreadMethod="pad" x1="-819.2" x2="819.2">
      <stop offset="0.0" stop-color="#595959"/>
      <stop offset="0.5019607843137255" stop-color="#aeaeae"/>
      <stop offset="1.0" stop-color="#484848"/>
    </linearGradient>
    <linearGradient gradientTransform="matrix(-0.0027, -0.0039, 0.0019, -0.0013, 12.3, -6.35)" gradientUnits="userSpaceOnUse" id="gradient5" spreadMethod="pad" x1="-819.2" x2="819.2">
      <stop offset="0.0" stop-color="#888888"/>
      <stop offset="0.5019607843137255" stop-color="#404040"/>
      <stop offset="1.0" stop-color="#7b7b7b"/>
    </linearGradient>
    <linearGradient gradientTransform="matrix(-0.0036, -0.0034, 0.0036, -0.0038, 11.25, -5.65)" gradientUnits="userSpaceOnUse" id="gradient6" spreadMethod="pad" x1="-819.2" x2="819.2">
      <stop offset="0.0" stop-color="#595959"/>
      <stop offset="0.5019607843137255" stop-color="#aeaeae"/>
      <stop offset="1.0" stop-color="#484848"/>
    </linearGradient>
    <linearGradient gradientTransform="matrix(-0.0039, -0.0032, 0.001, -0.0012, 9.0, -3.35)" gradientUnits="userSpaceOnUse" id="gradient7" spreadMethod="pad" x1="-819.2" x2="819.2">
      <stop offset="0.0" stop-color="#888888"/>
      <stop offset="0.5019607843137255" stop-color="#404040"/>
      <stop offset="1.0" stop-color="#7b7b7b"/>
    </linearGradient>
    <linearGradient gradientTransform="matrix(-0.0014, -0.0019, 0.0046, -0.0051, 16.0, -13.3)" gradientUnits="userSpaceOnUse" id="gradient8" spreadMethod="pad" x1="-819.2" x2="819.2">
      <stop offset="0.0" stop-color="#2b2b2b"/>
      <stop offset="0.5019607843137255" stop-color="#0d0d0d"/>
      <stop offset="1.0" stop-color="#404040"/>
    </linearGradient>
    <linearGradient gradientTransform="matrix(-0.0044, -0.0039, 0.0015, -0.0018, 15.85, 2.25)" gradientUnits="userSpaceOnUse" id="gradient9" spreadMethod="pad" x1="-819.2" x2="819.2">
      <stop offset="0.0" stop-color="#111111"/>
      <stop offset="0.5882352941176471" stop-color="#484848"/>
      <stop offset="1.0" stop-color="#111111"/>
    </linearGradient>
    <linearGradient gradientTransform="matrix(-0.0026, -0.0021, 0.0071, -0.0096, 23.35, -6.15)" gradientUnits="userSpaceOnUse" id="gradient10" spreadMethod="pad" x1="-819.2" x2="819.2">
      <stop offset="0.0" stop-color="#bbbbbb"/>
      <stop offset="0.5686274509803921" stop-color="#6a6a6a"/>
      <stop offset="0.6" stop-color="#ffffff"/>
      <stop offset="0.7372549019607844" stop-color="#959595"/>
      <stop offset="1.0" stop-color="#1a1a1a"/>
    </linearGradient>
    <linearGradient gradientTransform="matrix(-0.0037, -0.0035, 0.0021, -0.0023, 12.45, 4.85)" gradientUnits="userSpaceOnUse" id="gradient11" spreadMethod="pad" x1="-819.2" x2="819.2">
      <stop offset="0.0" stop-color="#595959"/>
      <stop offset="0.5019607843137255" stop-color="#aeaeae"/>
      <stop offset="1.0" stop-color="#484848"/>
    </linearGradient>
    <linearGradient gradientTransform="matrix(-0.0032, -0.003, 0.0031, -0.0033, 6.9, 10.0)" gradientUnits="userSpaceOnUse" id="gradient12" spreadMethod="pad" x1="-819.2" x2="819.2">
      <stop offset="0.0" stop-color="#595959"/>
      <stop offset="0.5019607843137255" stop-color="#aeaeae"/>
      <stop offset="1.0" stop-color="#484848"/>
    </linearGradient>
    <linearGradient gradientTransform="matrix(0.0028, 0.0018, -6.0E-4, 0.0012, 9.15, 6.1)" gradientUnits="userSpaceOnUse" id="gradient13" spreadMethod="pad" x1="-819.2" x2="819.2">
      <stop offset="0.0" stop-color="#111111"/>
      <stop offset="0.5882352941176471" stop-color="#484848"/>
      <stop offset="1.0" stop-color="#111111"/>
    </linearGradient>
    <linearGradient gradientTransform="matrix(0.0027, 0.0025, -5.0E-4, 6.0E-4, 5.1, 2.3)" gradientUnits="userSpaceOnUse" id="gradient14" spreadMethod="pad" x1="-819.2" x2="819.2">
      <stop offset="0.0" stop-color="#888888"/>
      <stop offset="0.5019607843137255" stop-color="#ffffff"/>
      <stop offset="1.0" stop-color="#7b7b7b"/>
    </linearGradient>
    <linearGradient gradientTransform="matrix(-0.001, -9.0E-4, 0.0078, -0.0082, -3.0, 8.2)" gradientUnits="userSpaceOnUse" id="gradient15" spreadMethod="pad" x1="-819.2" x2="819.2">
      <stop offset="0.0" stop-color="#595959"/>
      <stop offset="0.5019607843137255" stop-color="#aeaeae"/>
      <stop offset="1.0" stop-color="#484848"/>
    </linearGradient>
    <linearGradient gradientTransform="matrix(-0.0019, -0.0018, 0.0078, -0.0082, -0.7, 10.45)" gradientUnits="userSpaceOnUse" id="gradient16" spreadMethod="pad" x1="-819.2" x2="819.2">
      <stop offset="0.0" stop-color="#595959"/>
      <stop offset="0.5019607843137255" stop-color="#aeaeae"/>
      <stop offset="1.0" stop-color="#484848"/>
    </linearGradient>
    <linearGradient gradientTransform="matrix(-0.005, -0.0042, 0.0015, -0.0019, -0.15, 20.7)" gradientUnits="userSpaceOnUse" id="gradient17" spreadMethod="pad" x1="-819.2" x2="819.2">
      <stop offset="0.0" stop-color="#404040"/>
      <stop offset="0.40784313725490196" stop-color="#888888"/>
      <stop offset="1.0" stop-color="#373737"/>
    </linearGradient>
    <linearGradient gradientTransform="matrix(-0.0042, -0.0035, 0.0041, -0.0055, -11.05, 20.7)" gradientUnits="userSpaceOnUse" id="gradient18" spreadMethod="pad" x1="-819.2" x2="819.2">
      <stop offset="0.0" stop-color="#595959"/>
      <stop offset="0.5019607843137255" stop-color="#aeaeae"/>
      <stop offset="1.0" stop-color="#484848"/>
    </linearGradient>
    <linearGradient gradientTransform="matrix(0.0244, -0.0267, 2.0E-4, 2.0E-4, 35.65, -29.7)" gradientUnits="userSpaceOnUse" id="gradient19" spreadMethod="pad" x1="-819.2" x2="819.2">
      <stop offset="0.0" stop-color="#33ff00"/>
      <stop offset="1.0" stop-color="#00ff1a" stop-opacity="0.0"/>
    </linearGradient>
  </defs>
</svg>
