<?xml version="1.0" encoding="UTF-8" standalone="no"?>
<svg xmlns:ffdec="https://www.free-decompiler.com/flash" xmlns:xlink="http://www.w3.org/1999/xlink" ffdec:objectType="shape" height="60.9px" width="13.25px" xmlns="http://www.w3.org/2000/svg">
  <g transform="matrix(1.0, 0.0, 0.0, 1.0, 6.7, 34.1)">
    <path d="M2.85 -26.2 Q2.0 -24.75 1.4 -22.95 -2.75 -10.35 6.55 19.9 4.2 14.45 1.1 11.1 L-1.2 8.9 Q-3.45 -12.55 -0.05 -23.35 1.15 -27.2 3.1 -29.65 L2.85 -26.2" fill="url(#gradient0)" fill-rule="evenodd" stroke="none"/>
    <path d="M1.1 11.1 Q-0.95 17.7 1.1 26.8 L-1.65 26.3 -3.85 7.2 -1.2 8.9 1.1 11.1" fill="url(#gradient1)" fill-rule="evenodd" stroke="none"/>
    <path d="M-3.85 7.2 L-4.05 7.1 Q-5.3 6.45 -6.65 6.05 -7.4 -19.35 3.35 -34.1 L3.1 -30.2 3.1 -29.65 Q1.15 -27.2 -0.05 -23.35 -3.45 -12.55 -1.2 8.9 L-3.85 7.2" fill="url(#gradient2)" fill-rule="evenodd" stroke="none"/>
    <path d="M2.85 -26.2 Q2.0 -24.75 1.4 -22.95 -2.75 -10.35 6.55 19.9 4.2 14.45 1.1 11.1 L-1.2 8.9 -3.85 7.2 M-4.05 7.1 Q-5.3 6.45 -6.65 6.05 M3.1 -30.2 L3.1 -29.65" fill="none" stroke="#000000" stroke-linecap="round" stroke-linejoin="round" stroke-width="0.05"/>
    <path d="M1.1 11.1 Q-0.95 17.7 1.1 26.8 L-1.65 26.3 -3.85 7.2 -4.05 7.1 M-6.65 6.05 Q-7.4 -19.35 3.35 -34.1 L3.1 -30.2 M3.1 -29.65 L2.85 -26.2" fill="none" stroke="#000000" stroke-linecap="round" stroke-linejoin="round" stroke-width="0.05"/>
  </g>
  <defs>
    <radialGradient cx="0" cy="0" gradientTransform="matrix(0.0486, 0.0, 0.0, 0.0486, -0.75, -19.25)" gradientUnits="userSpaceOnUse" id="gradient0" r="819.2" spreadMethod="pad">
      <stop offset="0.0" stop-color="#777777"/>
      <stop offset="0.1607843137254902" stop-color="#ffffff"/>
      <stop offset="0.3333333333333333" stop-color="#555555"/>
      <stop offset="0.7725490196078432" stop-color="#7b7b7b"/>
      <stop offset="1.0" stop-color="#4d4d4d"/>
    </radialGradient>
    <radialGradient cx="0" cy="0" gradientTransform="matrix(0.022, 0.0, 0.0, 0.022, 0.25, 24.5)" gradientUnits="userSpaceOnUse" id="gradient1" r="819.2" spreadMethod="pad">
      <stop offset="0.0" stop-color="#3e3e39"/>
      <stop offset="0.9882352941176471" stop-color="#15130d"/>
    </radialGradient>
    <radialGradient cx="0" cy="0" gradientTransform="matrix(0.0366, 0.0, 0.0, 0.0366, -3.25, -21.0)" gradientUnits="userSpaceOnUse" id="gradient2" r="819.2" spreadMethod="pad">
      <stop offset="0.0" stop-color="#773c00"/>
      <stop offset="0.9882352941176471" stop-color="#1a0c09"/>
    </radialGradient>
  </defs>
</svg>
