<?xml version="1.0" encoding="UTF-8" standalone="no"?>
<svg xmlns:ffdec="https://www.free-decompiler.com/flash" xmlns:xlink="http://www.w3.org/1999/xlink" ffdec:objectType="shape" height="102.25px" width="22.0px" xmlns="http://www.w3.org/2000/svg">
  <g transform="matrix(1.0, 0.0, 0.0, 1.0, 10.3, 65.45)">
    <path d="M2.95 18.55 L-2.75 13.8 -2.9 13.7 -10.3 7.55 -8.45 3.85 -5.15 5.2 7.2 9.6 11.7 11.8 11.7 14.05 4.2 19.55 2.95 18.55 M2.7 10.05 L-5.15 5.2 2.7 10.05 M3.2 10.05 L7.2 9.6 3.2 10.05" fill="url(#gradient0)" fill-rule="evenodd" stroke="none"/>
    <path d="M2.95 18.55 Q-0.75 23.95 2.2 36.8 L-1.3 30.3 -2.75 13.8 2.95 18.55" fill="url(#gradient1)" fill-rule="evenodd" stroke="none"/>
    <path d="M2.95 18.55 L-2.75 13.8 M-2.9 13.7 L-10.3 7.55 -8.45 3.85 -5.15 5.2 2.7 10.05 M7.2 9.6 L11.7 11.8 11.7 14.05 4.2 19.55 2.95 18.55 M7.2 9.6 L3.2 10.05" fill="none" stroke="#000000" stroke-linecap="round" stroke-linejoin="round" stroke-width="0.05"/>
    <path d="M-2.75 13.8 L-1.3 30.3 2.2 36.8 Q-0.75 23.95 2.95 18.55 M-2.75 13.8 L-2.9 13.7 M-5.15 5.2 L7.2 9.6" fill="none" stroke="#000000" stroke-linecap="round" stroke-linejoin="round" stroke-width="0.05"/>
    <path d="M3.45 14.6 L-5.8 6.05 -4.25 -6.45 -1.5 -4.95 1.2 -17.45 -1.85 -23.7 Q3.05 -36.55 -2.7 -49.45 L0.05 -50.75 1.1 -64.95 Q8.7 -26.65 3.45 14.6" fill="url(#gradient2)" fill-rule="evenodd" stroke="none"/>
    <path d="M1.35 -65.05 Q14.4 -37.1 7.45 12.65 5.45 13.6 3.45 14.6 8.7 -26.65 1.1 -64.95 L1.35 -65.05" fill="url(#gradient3)" fill-rule="evenodd" stroke="none"/>
    <path d="M3.45 14.6 L-5.8 6.05 -4.25 -6.45 -1.5 -4.95 1.2 -17.45 -1.85 -23.7 Q3.05 -36.55 -2.7 -49.45 L0.05 -50.75 1.1 -64.95 1.15 -65.45 1.35 -65.05 Q14.4 -37.1 7.45 12.65 5.45 13.6 3.45 14.6 Z" fill="none" stroke="#000000" stroke-linecap="round" stroke-linejoin="round" stroke-width="0.05"/>
    <path d="M-1.4 -1.25 L-1.5 0.0 -2.25 0.1 Q-2.7 0.1 -3.2 -0.45 L-3.75 -1.3 -3.25 -2.2 -2.5 -2.75 Q-1.1 -2.75 -1.4 -1.25 M-1.55 4.05 Q-1.55 5.05 -3.0 5.85 -3.75 5.35 -3.75 4.8 -3.75 3.1 -2.5 3.1 -1.55 3.1 -1.55 4.05 M3.1 2.0 Q2.6 2.6 2.25 2.6 0.8 2.6 0.85 1.25 0.85 -0.15 2.5 -0.15 3.65 -0.15 3.65 0.8 3.65 1.35 3.1 2.0 M1.35 8.85 Q0.25 8.85 0.0 7.4 0.0 6.95 0.5 6.25 1.05 5.5 1.6 5.5 2.85 5.5 2.65 6.8 2.65 7.3 2.1 8.1 L1.35 8.85" fill="#ff9900" fill-rule="evenodd" stroke="none"/>
  </g>
  <defs>
    <radialGradient cx="0" cy="0" gradientTransform="matrix(0.0225, 0.0, 0.0, 0.0225, 4.25, 17.25)" gradientUnits="userSpaceOnUse" id="gradient0" r="819.2" spreadMethod="pad">
      <stop offset="0.0" stop-color="#392424"/>
      <stop offset="0.9882352941176471" stop-color="#160c0c"/>
    </radialGradient>
    <radialGradient cx="0" cy="0" gradientTransform="matrix(0.0216, 0.0, 0.0, 0.0216, 0.25, 31.25)" gradientUnits="userSpaceOnUse" id="gradient1" r="819.2" spreadMethod="pad">
      <stop offset="0.0" stop-color="#392424"/>
      <stop offset="0.9882352941176471" stop-color="#160c0c"/>
    </radialGradient>
    <radialGradient cx="0" cy="0" gradientTransform="matrix(0.0808, 0.0, 0.0, 0.0808, 0.25, 1.25)" gradientUnits="userSpaceOnUse" id="gradient2" r="819.2" spreadMethod="pad">
      <stop offset="0.0" stop-color="#8e4a19"/>
      <stop offset="0.3333333333333333" stop-color="#43392c"/>
      <stop offset="0.9882352941176471" stop-color="#111111"/>
    </radialGradient>
    <radialGradient cx="0" cy="0" gradientTransform="matrix(0.0757, 0.0, 0.0, 0.0757, 5.5, -47.25)" gradientUnits="userSpaceOnUse" id="gradient3" r="819.2" spreadMethod="pad">
      <stop offset="0.0" stop-color="#777777"/>
      <stop offset="0.1607843137254902" stop-color="#ffffff"/>
      <stop offset="0.3333333333333333" stop-color="#555555"/>
      <stop offset="0.7725490196078432" stop-color="#7b7b7b"/>
      <stop offset="1.0" stop-color="#4d4d4d"/>
    </radialGradient>
  </defs>
</svg>
