<?xml version="1.0" encoding="UTF-8" standalone="no"?>
<svg xmlns:ffdec="https://www.free-decompiler.com/flash" xmlns:xlink="http://www.w3.org/1999/xlink" ffdec:objectType="shape" height="88.5px" width="19.5px" xmlns="http://www.w3.org/2000/svg">
  <g transform="matrix(1.0, 0.0, 0.0, 1.0, 9.4, 62.55)">
    <path d="M1.5 25.95 L-1.5 25.95 -1.5 5.2 1.5 5.2 1.5 25.95" fill="url(#gradient0)" fill-rule="evenodd" stroke="none"/>
    <path d="M1.5 25.95 L-1.5 25.95 -1.5 5.2 1.5 5.2 1.5 25.95 Z" fill="none" stroke="#000000" stroke-linecap="round" stroke-linejoin="round" stroke-width="0.05"/>
    <path d="M-4.45 -42.8 L-1.85 -47.55 0.0 -62.55 3.9 -48.3 5.15 6.7 -5.1 6.7 -4.95 -2.05 -1.9 -4.8 -1.4 -39.55 -4.45 -42.8" fill="url(#gradient1)" fill-rule="evenodd" stroke="none"/>
    <path d="M-4.45 -42.8 L-1.85 -47.55 0.0 -62.55 3.9 -48.3 5.15 6.7 -5.1 6.7 -4.95 -2.05" fill="none" stroke="#000000" stroke-linecap="round" stroke-linejoin="round" stroke-width="0.05"/>
    <path d="M-4.95 -2.05 L-1.9 -4.8 -1.4 -39.55 -4.45 -42.8" fill="none" stroke="#000000" stroke-linecap="round" stroke-linejoin="round" stroke-width="0.05"/>
    <path d="M2.3 21.95 L-2.35 21.95 -2.35 13.2 2.3 13.2 2.3 21.95" fill="url(#gradient2)" fill-rule="evenodd" stroke="none"/>
    <path d="M4.6 7.7 Q0.1 10.95 -4.4 7.7 L-9.4 4.2 Q0.35 7.2 10.1 4.2 L4.6 7.7" fill="url(#gradient3)" fill-rule="evenodd" stroke="none"/>
    <path d="M4.6 7.7 Q0.1 10.95 -4.4 7.7 L-9.4 4.2 Q0.35 7.2 10.1 4.2 L4.6 7.7 M2.3 21.95 L-2.35 21.95 -2.35 13.2 2.3 13.2 2.3 21.95 Z" fill="none" stroke="#000000" stroke-linecap="round" stroke-linejoin="round" stroke-width="0.05"/>
  </g>
  <defs>
    <linearGradient gradientTransform="matrix(-4.0E-4, 0.0127, -0.0023, -1.0E-4, 0.0, 15.55)" gradientUnits="userSpaceOnUse" id="gradient0" spreadMethod="pad" x1="-819.2" x2="819.2">
      <stop offset="0.0" stop-color="#262626"/>
      <stop offset="1.0" stop-color="#595959"/>
    </linearGradient>
    <linearGradient gradientTransform="matrix(0.0063, 0.0, 0.0, 0.0423, 0.0, -27.95)" gradientUnits="userSpaceOnUse" id="gradient1" spreadMethod="pad" x1="-819.2" x2="819.2">
      <stop offset="0.0" stop-color="#999999"/>
      <stop offset="0.47843137254901963" stop-color="#5e5e5e"/>
      <stop offset="0.5058823529411764" stop-color="#e0dfe3"/>
      <stop offset="1.0" stop-color="#595959"/>
    </linearGradient>
    <linearGradient gradientTransform="matrix(0.0038, -9.0E-4, 0.0013, 0.0057, -0.05, 17.6)" gradientUnits="userSpaceOnUse" id="gradient2" spreadMethod="pad" x1="-819.2" x2="819.2">
      <stop offset="0.0" stop-color="#262626"/>
      <stop offset="1.0" stop-color="#595959"/>
    </linearGradient>
    <linearGradient gradientTransform="matrix(-1.0E-4, 0.0033, -0.0119, -4.0E-4, 0.3, 6.6)" gradientUnits="userSpaceOnUse" id="gradient3" spreadMethod="pad" x1="-819.2" x2="819.2">
      <stop offset="0.0" stop-color="#262626"/>
      <stop offset="1.0" stop-color="#595959"/>
    </linearGradient>
  </defs>
</svg>
