<?xml version="1.0" encoding="UTF-8" standalone="no"?>
<svg xmlns:ffdec="https://www.free-decompiler.com/flash" xmlns:xlink="http://www.w3.org/1999/xlink" ffdec:objectType="shape" height="87.5px" width="26.3px" xmlns="http://www.w3.org/2000/svg">
  <g transform="matrix(1.0, 0.0, 0.0, 1.0, 8.8, 57.5)">
    <path d="M11.35 8.7 Q10.0 -2.0 13.4 -10.65 12.9 -23.25 6.95 -35.8 L2.7 -38.9 -7.5 -55.25 -7.2 -55.5 1.95 -44.15 1.95 -44.5 Q4.0 -41.25 8.2 -40.75 16.75 -26.2 17.5 -10.1 10.6 -1.1 17.4 12.3 12.75 9.15 11.35 8.7" fill="url(#gradient0)" fill-rule="evenodd" stroke="none"/>
    <path d="M-7.5 -55.25 L2.7 -38.9 6.95 -35.8 Q12.9 -23.25 13.4 -10.65 10.0 -2.0 11.35 8.7 6.9 6.4 5.6 6.7 3.9 7.0 3.3 9.2 L-1.9 9.2 -1.95 4.25 Q3.5 2.9 6.9 -2.9 9.45 -31.15 0.5 -29.15 1.3 -38.6 -3.6 -37.05 -2.2 -45.8 -7.5 -55.25" fill="url(#gradient1)" fill-rule="evenodd" stroke="none"/>
    <path d="M-1.9 9.2 L3.3 9.2 3.4 9.2 3.9 9.2 Q1.4 14.65 2.3 21.3 L-1.8 21.3 -1.85 21.3 Q-0.3 14.7 -4.0 9.2 L-1.9 9.2" fill="url(#gradient2)" fill-rule="evenodd" stroke="none"/>
    <path d="M2.3 21.3 L2.1 23.95 2.05 24.25 Q1.9 26.8 3.7 30.0 L-1.7 30.0 -1.8 21.3 2.3 21.3" fill="url(#gradient3)" fill-rule="evenodd" stroke="none"/>
    <path d="M-7.2 -55.5 L-7.5 -55.25 -8.8 -57.5 -7.2 -55.5" fill="url(#gradient4)" fill-rule="evenodd" stroke="none"/>
    <path d="M-7.5 -55.25 Q-2.2 -45.8 -3.6 -37.05 1.3 -38.6 0.5 -29.15 9.45 -31.15 6.9 -2.9 3.5 2.9 -1.95 4.25 L-1.9 9.2 M5.6 6.7 Q6.9 6.4 11.35 8.7 12.75 9.15 17.4 12.3 10.6 -1.1 17.5 -10.1 16.75 -26.2 8.2 -40.75 4.0 -41.25 1.95 -44.5 M1.95 -44.15 L-7.2 -55.5 -8.8 -57.5 M2.3 21.3 L2.1 23.95 2.05 24.25 Q1.9 26.8 3.7 30.0 L-1.7 30.0 -1.8 21.3 M5.6 6.7 Q4.0 7.05 3.4 9.2" fill="none" stroke="#000000" stroke-linecap="round" stroke-linejoin="round" stroke-width="0.05"/>
    <path d="M-1.9 9.2 L3.3 9.2 3.4 9.2 3.9 9.2 Q1.4 14.65 2.3 21.3 M-7.5 -55.25 L-8.8 -57.5 M-1.8 21.3 L-1.85 21.3 Q-0.3 14.7 -4.0 9.2 L-1.9 9.2" fill="none" stroke="#000000" stroke-linecap="round" stroke-linejoin="round" stroke-width="0.05"/>
  </g>
  <defs>
    <linearGradient gradientTransform="matrix(-0.0076, -0.0427, 0.0104, -0.0019, 7.15, -21.9)" gradientUnits="userSpaceOnUse" id="gradient0" spreadMethod="pad" x1="-819.2" x2="819.2">
      <stop offset="0.0" stop-color="#7c5e3f"/>
      <stop offset="1.0" stop-color="#d3c9e0"/>
    </linearGradient>
    <linearGradient gradientTransform="matrix(0.0145, -0.0032, 0.0094, 0.0441, 3.3, -22.45)" gradientUnits="userSpaceOnUse" id="gradient1" spreadMethod="pad" x1="-819.2" x2="819.2">
      <stop offset="0.0" stop-color="#992222"/>
      <stop offset="0.49411764705882355" stop-color="#392424"/>
      <stop offset="0.5333333333333333" stop-color="#833838"/>
      <stop offset="0.7372549019607844" stop-color="#6c2d2d"/>
      <stop offset="0.803921568627451" stop-color="#b04646"/>
      <stop offset="1.0" stop-color="#e6c4c4"/>
    </linearGradient>
    <radialGradient cx="0" cy="0" gradientTransform="matrix(0.0088, 0.0, 0.0, 0.0089, -0.05, 15.2)" gradientUnits="userSpaceOnUse" id="gradient2" r="819.2" spreadMethod="pad">
      <stop offset="0.0" stop-color="#685b53"/>
      <stop offset="1.0" stop-color="#353a42"/>
    </radialGradient>
    <radialGradient cx="0" cy="0" gradientTransform="matrix(0.0197, 0.0, 0.0, 0.02, 2.25, 27.25)" gradientUnits="userSpaceOnUse" id="gradient3" r="819.2" spreadMethod="pad">
      <stop offset="0.0" stop-color="#685b53"/>
      <stop offset="1.0" stop-color="#353a42"/>
    </radialGradient>
    <linearGradient gradientTransform="matrix(0.0145, -0.0032, 0.0094, 0.0441, 3.3, -22.45)" gradientUnits="userSpaceOnUse" id="gradient4" spreadMethod="pad" x1="-819.2" x2="819.2">
      <stop offset="0.0" stop-color="#515151"/>
      <stop offset="1.0" stop-color="#d3c9e0"/>
    </linearGradient>
  </defs>
</svg>
