<?xml version="1.0" encoding="UTF-8" standalone="no"?>
<svg xmlns:ffdec="https://www.free-decompiler.com/flash" xmlns:xlink="http://www.w3.org/1999/xlink" ffdec:objectType="shape" height="57.05px" width="24.95px" xmlns="http://www.w3.org/2000/svg">
  <g transform="matrix(1.0, 0.0, 0.0, 1.0, 10.55, 30.8)">
    <path d="M-2.1 -0.8 Q-1.65 -1.75 -1.95 -3.65 L3.2 -4.6 Q1.9 3.2 1.6 11.45 L3.4 12.15 2.6 17.45 1.55 17.95 1.9 26.25 -0.45 26.25 Q0.1 17.0 -0.55 6.1 L-2.65 7.2 -4.4 0.95 -2.1 -0.8" fill="url(#gradient0)" fill-rule="evenodd" stroke="none"/>
    <path d="M-2.1 -0.8 Q-1.65 -1.75 -1.95 -3.65 L3.2 -4.6 Q1.9 3.2 1.6 11.45 M1.55 17.95 L1.9 26.25 -0.45 26.25 Q0.1 17.0 -0.55 6.1" fill="none" stroke="#000000" stroke-linecap="round" stroke-linejoin="round" stroke-width="0.05"/>
    <path d="M1.6 11.45 L3.4 12.15 2.6 17.45 1.55 17.95 M-0.55 6.1 L-2.65 7.2 -4.4 0.95 -2.1 -0.8" fill="none" stroke="#000000" stroke-linecap="round" stroke-linejoin="round" stroke-width="0.05"/>
    <path d="M-6.45 -8.0 L-6.4 -8.05 -6.05 -7.6 -6.45 -8.0 M-10.45 -17.55 L-10.55 -17.55 -10.45 -17.8 -10.45 -17.55" fill="url(#gradient1)" fill-rule="evenodd" stroke="none"/>
    <path d="M5.1 -9.6 Q5.85 -11.25 5.85 -13.25 L5.8 -13.8 Q5.7 -16.15 4.5 -18.0 L9.0 -20.9 Q10.95 -17.95 11.0 -14.1 11.0 -10.3 9.0 -7.3 L5.1 -9.6 M-2.4 -21.15 Q-4.5 -20.75 -6.05 -18.9 L-6.85 -17.8 -7.0 -17.55 -10.45 -17.55 -10.45 -17.8 Q-9.75 -20.15 -8.1 -22.05 L-7.75 -22.45 Q-6.05 -24.3 -4.0 -25.15 L-2.4 -21.15" fill="url(#gradient2)" fill-rule="evenodd" stroke="none"/>
    <path d="M4.7 -24.85 Q7.7 -24.8 7.35 -30.8 10.55 -26.9 12.3 -23.05 16.4 -14.0 12.45 -5.3 10.8 -1.7 7.7 1.85 9.55 -1.3 6.85 -4.85 L7.8 -5.75 9.0 -7.3 Q11.0 -10.3 11.0 -14.1 10.95 -17.95 9.0 -20.9 L8.15 -22.0 7.8 -22.45 Q6.35 -24.0 4.7 -24.85" fill="url(#gradient3)" fill-rule="evenodd" stroke="none"/>
    <path d="M6.85 -4.85 Q3.9 -2.3 0.0 -2.3 -4.55 -2.3 -7.75 -5.75 L-8.15 -6.25 -6.45 -8.0 -6.05 -7.6 Q-4.0 -5.25 -1.15 -5.2 1.75 -5.25 3.8 -7.6 L5.1 -9.6 9.0 -7.3 7.8 -5.75 6.85 -4.85" fill="url(#gradient4)" fill-rule="evenodd" stroke="none"/>
    <path d="M-4.0 -25.15 Q-2.15 -25.95 0.0 -25.95 2.55 -25.95 4.7 -24.85 6.35 -24.0 7.8 -22.45 L8.15 -22.0 9.0 -20.9 4.5 -18.0 3.8 -18.9 Q1.75 -21.3 -1.15 -21.3 L-2.4 -21.15 -4.0 -25.15" fill="url(#gradient5)" fill-rule="evenodd" stroke="none"/>
    <path d="M-4.0 -25.15 Q-2.15 -25.95 0.0 -25.95 2.55 -25.95 4.7 -24.85 6.35 -24.0 7.8 -22.45 L8.15 -22.0 9.0 -20.9 Q10.95 -17.95 11.0 -14.1 11.0 -10.3 9.0 -7.3 L7.8 -5.75 6.85 -4.85 Q3.9 -2.3 0.0 -2.3 -4.55 -2.3 -7.75 -5.75 L-8.15 -6.25 M-6.4 -8.05 L-6.05 -7.6 Q-4.0 -5.25 -1.15 -5.2 1.75 -5.25 3.8 -7.6 L5.1 -9.6 Q5.85 -11.25 5.85 -13.25 L5.8 -13.8 Q5.7 -16.15 4.5 -18.0 L3.8 -18.9 Q1.75 -21.3 -1.15 -21.3 L-2.4 -21.15 Q-4.5 -20.75 -6.05 -18.9 L-6.85 -17.8 -7.0 -17.55 M-10.55 -17.55 L-10.45 -17.8 Q-9.75 -20.15 -8.1 -22.05 L-7.75 -22.45 Q-6.05 -24.3 -4.0 -25.15" fill="none" stroke="#000000" stroke-linecap="round" stroke-linejoin="round" stroke-width="0.05"/>
    <path d="M4.7 -24.85 Q7.7 -24.8 7.35 -30.8 10.55 -26.9 12.3 -23.05 16.4 -14.0 12.45 -5.3 10.8 -1.7 7.7 1.85 9.55 -1.3 6.85 -4.85 M-8.15 -6.25 L-6.45 -8.0 -6.4 -8.05 M-7.0 -17.55 L-10.45 -17.55 -10.55 -17.55" fill="none" stroke="#000000" stroke-linecap="round" stroke-linejoin="round" stroke-width="0.05"/>
    <path d="M1.1 3.2 L-1.15 3.2 -1.15 0.2 1.1 0.2 1.1 3.2" fill="#ff9900" fill-rule="evenodd" stroke="none"/>
  </g>
  <defs>
    <linearGradient gradientTransform="matrix(-0.001, 0.0189, -0.0051, -3.0E-4, -0.7, 10.7)" gradientUnits="userSpaceOnUse" id="gradient0" spreadMethod="pad" x1="-819.2" x2="819.2">
      <stop offset="0.0" stop-color="#3d3629"/>
      <stop offset="1.0" stop-color="#745847"/>
    </linearGradient>
    <linearGradient gradientTransform="matrix(5.0E-4, -0.0144, 0.0132, 4.0E-4, 0.15, -14.1)" gradientUnits="userSpaceOnUse" id="gradient1" spreadMethod="pad" x1="-819.2" x2="819.2">
      <stop offset="0.0" stop-color="#3c4980"/>
      <stop offset="0.5098039215686274" stop-color="#475574"/>
      <stop offset="0.7529411764705882" stop-color="#384e61"/>
      <stop offset="0.803921568627451" stop-color="#616296"/>
      <stop offset="1.0" stop-color="#7cb564"/>
    </linearGradient>
    <linearGradient gradientTransform="matrix(6.0E-4, 0.0144, -0.013, 6.0E-4, 0.35, -14.2)" gradientUnits="userSpaceOnUse" id="gradient2" spreadMethod="pad" x1="-819.2" x2="819.2">
      <stop offset="0.0" stop-color="#726549"/>
      <stop offset="0.43137254901960786" stop-color="#534d46"/>
      <stop offset="0.7058823529411765" stop-color="#887b6f"/>
      <stop offset="1.0" stop-color="#9ea277"/>
    </linearGradient>
    <linearGradient gradientTransform="matrix(0.0076, -0.0163, 0.0085, 0.004, 8.1, -14.2)" gradientUnits="userSpaceOnUse" id="gradient3" spreadMethod="pad" x1="-819.2" x2="819.2">
      <stop offset="0.0" stop-color="#ffcc00"/>
      <stop offset="0.43137254901960786" stop-color="#4d4d4d"/>
      <stop offset="0.7058823529411765" stop-color="#7b7b7b"/>
      <stop offset="1.0" stop-color="#ffffff"/>
    </linearGradient>
    <linearGradient gradientTransform="matrix(6.0E-4, 0.0144, -0.013, 6.0E-4, 0.35, -14.2)" gradientUnits="userSpaceOnUse" id="gradient4" spreadMethod="pad" x1="-819.2" x2="819.2">
      <stop offset="0.0" stop-color="#475974"/>
      <stop offset="0.43137254901960786" stop-color="#3f535a"/>
      <stop offset="0.7058823529411765" stop-color="#928d65"/>
      <stop offset="1.0" stop-color="#ffcc00"/>
    </linearGradient>
    <linearGradient gradientTransform="matrix(6.0E-4, 0.0144, -0.013, 6.0E-4, 0.35, -14.2)" gradientUnits="userSpaceOnUse" id="gradient5" spreadMethod="pad" x1="-819.2" x2="819.2">
      <stop offset="0.0" stop-color="#b44b07"/>
      <stop offset="0.43137254901960786" stop-color="#723c05"/>
      <stop offset="0.7058823529411765" stop-color="#69808d"/>
      <stop offset="1.0" stop-color="#7cb564"/>
    </linearGradient>
  </defs>
</svg>
