<?xml version="1.0" encoding="UTF-8" standalone="no"?>
<svg xmlns:ffdec="https://www.free-decompiler.com/flash" xmlns:xlink="http://www.w3.org/1999/xlink" ffdec:objectType="shape" height="61.0px" width="17.6px" xmlns="http://www.w3.org/2000/svg">
  <g transform="matrix(1.0, 0.0, 0.0, 1.0, 8.35, 31.0)">
    <path d="M-7.45 -29.45 L-0.65 -18.05 2.2 -15.9 Q6.15 -7.15 6.5 1.65 4.2 7.65 5.15 15.15 2.15 13.55 1.3 13.75 0.15 13.95 -0.25 15.5 L-3.7 15.5 -3.75 12.0 Q-0.1 11.1 2.15 7.05 3.85 -12.65 -2.1 -11.25 -1.6 -17.85 -4.85 -16.75 -3.95 -22.85 -7.45 -29.45" fill="url(#gradient0)" fill-rule="evenodd" stroke="none"/>
    <path d="M-1.15 -21.95 Q0.25 -19.7 3.05 -19.35 8.75 -9.2 9.25 2.05 4.65 8.3 9.2 17.65 6.1 15.45 5.15 15.15 4.2 7.65 6.5 1.65 6.15 -7.15 2.2 -15.9 L-0.65 -18.05 -7.45 -29.45 -7.25 -29.6 -1.15 -21.7 -1.15 -21.95" fill="url(#gradient1)" fill-rule="evenodd" stroke="none"/>
    <path d="M-7.25 -29.6 L-7.45 -29.45 -8.35 -31.0 -7.25 -29.6" fill="url(#gradient2)" fill-rule="evenodd" stroke="none"/>
    <path d="M-0.15 15.5 L0.15 15.5 Q-1.5 19.3 -0.9 23.9 L-3.65 23.9 -3.7 23.9 Q-2.65 19.3 -5.1 15.5 L-3.7 15.5 -0.25 15.5 -0.15 15.5" fill="url(#gradient3)" fill-rule="evenodd" stroke="none"/>
    <path d="M-0.9 23.9 L-1.05 25.75 -1.05 26.0 Q-1.15 27.75 0.0 30.0 L-3.6 30.0 -3.65 23.9 -0.9 23.9" fill="url(#gradient4)" fill-rule="evenodd" stroke="none"/>
    <path d="M5.15 15.15 Q6.1 15.45 9.2 17.65 4.65 8.3 9.25 2.05 8.75 -9.2 3.05 -19.35 0.25 -19.7 -1.15 -21.95 M-1.15 -21.7 L-7.25 -29.6 -8.35 -31.0 M5.15 15.15 Q2.15 13.55 1.3 13.75 0.2 14.0 -0.15 15.5 M-0.9 23.9 L-1.05 25.75 -1.05 26.0 Q-1.15 27.75 0.0 30.0 L-3.6 30.0 -3.65 23.9 M-3.7 15.5 L-3.75 12.0 Q-0.1 11.1 2.15 7.05 3.85 -12.65 -2.1 -11.25 -1.6 -17.85 -4.85 -16.75 -3.95 -22.85 -7.45 -29.45" fill="none" stroke="#000000" stroke-linecap="round" stroke-linejoin="round" stroke-width="0.05"/>
    <path d="M-0.15 15.5 L0.15 15.5 Q-1.5 19.3 -0.9 23.9 M-3.65 23.9 L-3.7 23.9 Q-2.65 19.3 -5.1 15.5 L-3.7 15.5 -0.25 15.5 -0.15 15.5 M-7.45 -29.45 L-8.35 -31.0" fill="none" stroke="#000000" stroke-linecap="round" stroke-linejoin="round" stroke-width="0.05"/>
  </g>
  <defs>
    <linearGradient gradientTransform="matrix(0.0097, -0.0022, 0.0063, 0.0307, -0.25, -6.6)" gradientUnits="userSpaceOnUse" id="gradient0" spreadMethod="pad" x1="-819.2" x2="819.2">
      <stop offset="0.0" stop-color="#724962"/>
      <stop offset="0.49411764705882355" stop-color="#362736"/>
      <stop offset="0.5333333333333333" stop-color="#504774"/>
      <stop offset="0.7529411764705882" stop-color="#533c5e"/>
      <stop offset="0.803921568627451" stop-color="#7a6196"/>
      <stop offset="1.0" stop-color="#d3c9e0"/>
    </linearGradient>
    <linearGradient gradientTransform="matrix(-0.0051, -0.0298, 0.0069, -0.0013, 2.3, -6.2)" gradientUnits="userSpaceOnUse" id="gradient1" spreadMethod="pad" x1="-819.2" x2="819.2">
      <stop offset="0.0" stop-color="#7c5e3f"/>
      <stop offset="1.0" stop-color="#d3c9e0"/>
    </linearGradient>
    <linearGradient gradientTransform="matrix(0.0097, -0.0022, 0.0063, 0.0307, -0.25, -6.6)" gradientUnits="userSpaceOnUse" id="gradient2" spreadMethod="pad" x1="-819.2" x2="819.2">
      <stop offset="0.0" stop-color="#515151"/>
      <stop offset="1.0" stop-color="#d3c9e0"/>
    </linearGradient>
    <radialGradient cx="0" cy="0" gradientTransform="matrix(0.0059, 0.0, 0.0, 0.0062, -2.5, 19.65)" gradientUnits="userSpaceOnUse" id="gradient3" r="819.2" spreadMethod="pad">
      <stop offset="0.0" stop-color="#685b53"/>
      <stop offset="1.0" stop-color="#353a42"/>
    </radialGradient>
    <radialGradient cx="0" cy="0" gradientTransform="matrix(0.0131, 0.0, 0.0, 0.0139, -0.95, 28.05)" gradientUnits="userSpaceOnUse" id="gradient4" r="819.2" spreadMethod="pad">
      <stop offset="0.0" stop-color="#685b53"/>
      <stop offset="1.0" stop-color="#353a42"/>
    </radialGradient>
  </defs>
</svg>
