<?xml version="1.0" encoding="UTF-8" standalone="no"?>
<svg xmlns:ffdec="https://www.free-decompiler.com/flash" xmlns:xlink="http://www.w3.org/1999/xlink" ffdec:objectType="shape" height="113.0px" width="12.8px" xmlns="http://www.w3.org/2000/svg">
  <g transform="matrix(1.0, 0.0, 0.0, 1.0, 6.3, 32.55)">
    <path d="M1.6 37.3 L2.5 37.7 3.25 43.7 -2.7 43.7 -2.55 35.45 -1.15 36.1 1.6 37.3 M3.85 48.5 L4.8 55.95 1.6 55.95 -1.15 55.95 -3.0 55.95 -2.8 48.55 3.85 48.5" fill="url(#gradient0)" fill-rule="evenodd" stroke="none"/>
    <path d="M-1.15 36.1 L-1.15 17.95 -1.1 17.95 1.6 17.95 1.6 37.3 -1.15 36.1 M1.6 55.95 L1.6 58.7 -1.15 58.7 -1.15 55.95 1.6 55.95" fill="url(#gradient1)" fill-rule="evenodd" stroke="none"/>
    <path d="M3.25 43.7 L3.85 48.5 -2.8 48.55 -2.7 43.7 3.25 43.7" fill="url(#gradient2)" fill-rule="evenodd" stroke="none"/>
    <path d="M1.6 58.7 L6.5 58.7 Q3.35 70.55 4.7 80.45 L-4.25 80.45 Q-3.1 69.6 -6.3 58.7 L-1.15 58.7 1.6 58.7 M-3.3 61.2 L-3.3 64.7 3.55 64.7 3.55 61.2 -3.3 61.2 M-3.3 73.7 L-3.3 77.2 3.55 77.2 3.55 73.7 -3.3 73.7" fill="url(#gradient3)" fill-rule="evenodd" stroke="none"/>
    <path d="M-3.3 73.7 L3.55 73.7 3.55 77.2 -3.3 77.2 -3.3 73.7 M-3.3 61.2 L3.55 61.2 3.55 64.7 -3.3 64.7 -3.3 61.2" fill="#99ff00" fill-rule="evenodd" stroke="none"/>
    <path d="M-1.1 17.95 L-1.1 -32.55 1.6 -32.55 1.6 17.95 -1.1 17.95" fill="url(#gradient4)" fill-rule="evenodd" stroke="none"/>
    <path d="M-1.15 36.1 L-1.15 17.95 -1.1 17.95 -1.1 -32.55 1.6 -32.55 1.6 17.95 1.6 37.3 2.5 37.7 3.25 43.7 3.85 48.5 4.8 55.95 1.6 55.95 1.6 58.7 6.5 58.7 Q3.35 70.55 4.7 80.45 L-4.25 80.45 Q-3.1 69.6 -6.3 58.7 L-1.15 58.7 -1.15 55.95 -3.0 55.95 -2.8 48.55 -2.7 43.7 -2.55 35.45 -1.15 36.1 1.6 37.3 M-1.15 55.95 L1.6 55.95 M1.6 58.7 L-1.15 58.7" fill="none" stroke="#000000" stroke-linecap="round" stroke-linejoin="round" stroke-width="0.05"/>
  </g>
  <defs>
    <linearGradient gradientTransform="matrix(-0.0047, 0.0, 0.0, -0.0113, 0.9, 46.7)" gradientUnits="userSpaceOnUse" id="gradient0" spreadMethod="pad" x1="-819.2" x2="819.2">
      <stop offset="0.0" stop-color="#495c2c"/>
      <stop offset="0.5058823529411764" stop-color="#6d8a42"/>
      <stop offset="1.0" stop-color="#44552b"/>
    </linearGradient>
    <linearGradient gradientTransform="matrix(-0.0017, 0.0, 0.0, -0.0308, 0.2, 43.2)" gradientUnits="userSpaceOnUse" id="gradient1" spreadMethod="pad" x1="-819.2" x2="819.2">
      <stop offset="0.0" stop-color="#151a11"/>
      <stop offset="0.48627450980392156" stop-color="#4e6240"/>
      <stop offset="1.0" stop-color="#1a2318"/>
    </linearGradient>
    <linearGradient gradientTransform="matrix(-0.0047, 0.0, 0.0, -0.0113, 0.9, 46.7)" gradientUnits="userSpaceOnUse" id="gradient2" spreadMethod="pad" x1="-819.2" x2="819.2">
      <stop offset="0.0" stop-color="#495c2c"/>
      <stop offset="0.5058823529411764" stop-color="#8daf58"/>
      <stop offset="0.9725490196078431" stop-color="#65763d"/>
    </linearGradient>
    <linearGradient gradientTransform="matrix(-0.0054, 0.0, 0.0, -0.0133, 0.25, 69.6)" gradientUnits="userSpaceOnUse" id="gradient3" spreadMethod="pad" x1="-819.2" x2="819.2">
      <stop offset="0.0" stop-color="#211b1b"/>
      <stop offset="0.5529411764705883" stop-color="#404040"/>
      <stop offset="1.0" stop-color="#211b1b"/>
    </linearGradient>
    <linearGradient gradientTransform="matrix(0.0017, 0.0, 0.0, 0.0308, 0.25, -7.3)" gradientUnits="userSpaceOnUse" id="gradient4" spreadMethod="pad" x1="-819.2" x2="819.2">
      <stop offset="0.0" stop-color="#151a11"/>
      <stop offset="0.48627450980392156" stop-color="#4e6240"/>
      <stop offset="1.0" stop-color="#1a2318"/>
    </linearGradient>
  </defs>
</svg>
