<?xml version="1.0" encoding="UTF-8" standalone="no"?>
<svg xmlns:ffdec="https://www.free-decompiler.com/flash" xmlns:xlink="http://www.w3.org/1999/xlink" ffdec:objectType="shape" height="45.0px" width="12.8px" xmlns="http://www.w3.org/2000/svg">
  <g transform="matrix(1.0, 0.0, 0.0, 1.0, 6.05, 44.55)">
    <path d="M3.2 -7.8 L3.0 0.45 -2.05 -1.8 -2.75 -7.8 3.2 -7.8 M-3.35 -12.55 L-4.3 -20.05 3.45 -20.05 3.3 -12.6 -3.35 -12.55" fill="url(#gradient0)" fill-rule="evenodd" stroke="none"/>
    <path d="M6.75 -22.8 L-6.05 -22.8 Q-2.9 -34.65 -4.25 -44.55 L4.7 -44.55 Q3.55 -33.65 6.75 -22.8" fill="url(#gradient1)" fill-rule="evenodd" stroke="none"/>
    <path d="M3.3 -12.6 L3.2 -7.8 -2.75 -7.8 -3.35 -12.55 3.3 -12.6" fill="url(#gradient2)" fill-rule="evenodd" stroke="none"/>
    <path d="M3.3 -12.6 L3.2 -7.8 3.0 0.45 -2.05 -1.8 -2.75 -7.8 -3.35 -12.55 -4.3 -20.05 3.45 -20.05 3.3 -12.6 M6.75 -22.8 L-6.05 -22.8 Q-2.9 -34.65 -4.25 -44.55 L4.7 -44.55 Q3.55 -33.65 6.75 -22.8 Z" fill="none" stroke="#000000" stroke-linecap="round" stroke-linejoin="round" stroke-width="0.05"/>
    <path d="M3.75 -37.8 L-3.1 -37.8 -3.1 -41.3 3.75 -41.3 3.75 -37.8 M3.75 -25.3 L-3.1 -25.3 -3.1 -28.8 3.75 -28.8 3.75 -25.3" fill="#99ff00" fill-rule="evenodd" stroke="none"/>
  </g>
  <defs>
    <linearGradient gradientTransform="matrix(0.0047, 0.0, 0.0, 0.0113, -0.45, -10.8)" gradientUnits="userSpaceOnUse" id="gradient0" spreadMethod="pad" x1="-819.2" x2="819.2">
      <stop offset="0.0" stop-color="#495c2c"/>
      <stop offset="0.5058823529411764" stop-color="#6d8a42"/>
      <stop offset="1.0" stop-color="#44552b"/>
    </linearGradient>
    <linearGradient gradientTransform="matrix(0.0054, 0.0, 0.0, 0.0133, 0.2, -33.7)" gradientUnits="userSpaceOnUse" id="gradient1" spreadMethod="pad" x1="-819.2" x2="819.2">
      <stop offset="0.0" stop-color="#211b1b"/>
      <stop offset="0.5529411764705883" stop-color="#404040"/>
      <stop offset="1.0" stop-color="#211b1b"/>
    </linearGradient>
    <linearGradient gradientTransform="matrix(0.0047, 0.0, 0.0, 0.0113, -0.45, -10.8)" gradientUnits="userSpaceOnUse" id="gradient2" spreadMethod="pad" x1="-819.2" x2="819.2">
      <stop offset="0.0" stop-color="#495c2c"/>
      <stop offset="0.5058823529411764" stop-color="#8daf58"/>
      <stop offset="0.9725490196078431" stop-color="#65763d"/>
    </linearGradient>
  </defs>
</svg>
