<?xml version="1.0" encoding="UTF-8" standalone="no"?>
<svg xmlns:ffdec="https://www.free-decompiler.com/flash" xmlns:xlink="http://www.w3.org/1999/xlink" ffdec:objectType="shape" height="82.25px" width="14.25px" xmlns="http://www.w3.org/2000/svg">
  <g transform="matrix(1.0, 0.0, 0.0, 1.0, 8.85, 48.55)">
    <path d="M-2.55 27.15 L-2.55 8.65 2.6 7.25 -0.4 33.7 -2.55 27.15" fill="url(#gradient0)" fill-rule="evenodd" stroke="none"/>
    <path d="M-2.55 27.15 L-2.55 8.65 2.6 7.25 -0.4 33.7 -2.55 27.15 Z" fill="none" stroke="#000000" stroke-linecap="round" stroke-linejoin="round" stroke-width="0.05"/>
    <path d="M5.25 2.85 L5.3 7.0 1.55 8.15 Q0.9 7.25 -0.5 7.25 -2.9 7.25 -3.0 9.55 L-6.15 10.55 -5.75 5.75 2.45 3.6 5.25 2.85" fill="url(#gradient1)" fill-rule="evenodd" stroke="none"/>
    <path d="M2.05 -46.15 L4.55 -45.6 5.25 2.85 2.45 3.6 2.05 -46.15" fill="url(#gradient2)" fill-rule="evenodd" stroke="none"/>
    <path d="M-5.75 5.75 Q-3.8 -19.05 -3.95 -43.85 L-8.85 -48.55 2.05 -46.15 2.45 3.6 -5.75 5.75" fill="url(#gradient3)" fill-rule="evenodd" stroke="none"/>
    <path d="M5.3 7.0 L5.4 13.25 -6.8 17.6 -6.15 10.55 -3.0 9.55 -3.0 9.75 Q-2.75 12.25 -0.5 12.25 2.0 12.25 2.0 9.7 L1.55 8.15 5.3 7.0" fill="url(#gradient4)" fill-rule="evenodd" stroke="none"/>
    <path d="M1.55 8.15 L2.0 9.7 Q2.0 12.25 -0.5 12.25 -2.75 12.25 -3.0 9.75 L-3.0 9.55 Q-2.9 7.25 -0.5 7.25 0.9 7.25 1.55 8.15" fill="#ffcc00" fill-rule="evenodd" stroke="none"/>
    <path d="M2.05 -46.15 L4.55 -45.6 5.25 2.85 5.3 7.0 5.4 13.25 -6.8 17.6 -6.15 10.55 -5.75 5.75 Q-3.8 -19.05 -3.95 -43.85 L-8.85 -48.55 2.05 -46.15" fill="none" stroke="#000000" stroke-linecap="round" stroke-linejoin="round" stroke-width="0.05"/>
    <path d="M2.05 -46.15 L2.05 -46.7 M2.45 3.6 L5.25 2.85 M2.45 3.6 L-5.75 5.75" fill="none" stroke="#000000" stroke-linecap="round" stroke-linejoin="round" stroke-width="0.05"/>
  </g>
  <defs>
    <radialGradient cx="0" cy="0" gradientTransform="matrix(0.023, 0.0, 0.0, 0.023, -0.3, 25.9)" gradientUnits="userSpaceOnUse" id="gradient0" r="819.2" spreadMethod="pad">
      <stop offset="0.0" stop-color="#4d4d4d"/>
      <stop offset="1.0" stop-color="#151515"/>
    </radialGradient>
    <radialGradient cx="0" cy="0" gradientTransform="matrix(0.0187, 0.0, 0.0, 0.0187, 4.1, 6.8)" gradientUnits="userSpaceOnUse" id="gradient1" r="819.2" spreadMethod="pad">
      <stop offset="0.0" stop-color="#777777"/>
      <stop offset="1.0" stop-color="#404040"/>
    </radialGradient>
    <linearGradient gradientTransform="matrix(0.0142, -0.0042, 0.0091, 0.0312, -1.5, -23.0)" gradientUnits="userSpaceOnUse" id="gradient2" spreadMethod="pad" x1="-819.2" x2="819.2">
      <stop offset="0.0" stop-color="#f0e8e3"/>
      <stop offset="0.5176470588235295" stop-color="#b7b7b7"/>
      <stop offset="0.5411764705882353" stop-color="#848484"/>
      <stop offset="0.792156862745098" stop-color="#e1e1e1"/>
      <stop offset="1.0" stop-color="#cccccc"/>
    </linearGradient>
    <linearGradient gradientTransform="matrix(0.0142, -0.0042, 0.0091, 0.0312, -1.5, -23.0)" gradientUnits="userSpaceOnUse" id="gradient3" spreadMethod="pad" x1="-819.2" x2="819.2">
      <stop offset="0.0" stop-color="#ad8063"/>
      <stop offset="0.5176470588235295" stop-color="#666666"/>
      <stop offset="0.5411764705882353" stop-color="#484848"/>
      <stop offset="0.792156862745098" stop-color="#8a7453"/>
      <stop offset="1.0" stop-color="#785c43"/>
    </linearGradient>
    <radialGradient cx="0" cy="0" gradientTransform="matrix(0.0187, 0.0, 0.0, 0.0187, 4.1, 6.8)" gradientUnits="userSpaceOnUse" id="gradient4" r="819.2" spreadMethod="pad">
      <stop offset="0.0" stop-color="#706243"/>
      <stop offset="1.0" stop-color="#392424"/>
    </radialGradient>
  </defs>
</svg>
