<?xml version="1.0" encoding="UTF-8" standalone="no"?>
<svg xmlns:ffdec="https://www.free-decompiler.com/flash" xmlns:xlink="http://www.w3.org/1999/xlink" ffdec:objectType="shape" height="85.5px" width="17.5px" xmlns="http://www.w3.org/2000/svg">
  <g transform="matrix(1.0, 0.0, 0.0, 1.0, 8.65, 57.9)">
    <path d="M0.75 2.35 L1.5 5.35 -1.5 5.35 -1.5 1.1 0.75 2.35 M1.5 11.85 L1.5 15.4 -1.5 13.45 -1.5 11.85 1.5 11.85 M1.5 18.85 L1.5 22.75 -1.5 20.2 -1.5 16.5 1.5 18.85 M1.5 26.0 L1.5 27.6 -1.5 27.6 -1.5 23.7 1.5 26.0" fill="url(#gradient0)" fill-rule="evenodd" stroke="none"/>
    <path d="M1.5 7.85 L1.5 9.35 -1.5 9.35 -1.5 7.85 1.5 7.85 M1.5 15.4 L1.5 18.85 -1.5 16.5 -1.5 13.45 1.5 15.4 M1.5 22.75 L1.5 26.0 -1.5 23.7 -1.5 20.2 1.5 22.75" fill="url(#gradient1)" fill-rule="evenodd" stroke="none"/>
    <path d="M8.85 5.1 Q3.85 0.25 0.5 1.85 L-1.75 0.6 -6.9 -4.15 Q-2.4 -23.2 -7.0 -47.05 L2.6 -35.4 Q5.4 -15.8 8.85 5.1" fill="url(#gradient2)" fill-rule="evenodd" stroke="none"/>
    <path d="M-7.0 -47.05 L-8.65 -57.9 Q-6.0 -48.4 5.6 -36.9 L8.85 5.1 Q5.4 -15.8 2.6 -35.4 L-7.0 -47.05" fill="url(#gradient3)" fill-rule="evenodd" stroke="none"/>
    <path d="M1.5 5.35 L5.85 5.35 5.85 7.85 1.5 7.85 -1.5 7.85 -6.15 7.85 -6.15 5.35 -1.5 5.35 1.5 5.35" fill="url(#gradient4)" fill-rule="evenodd" stroke="none"/>
    <path d="M1.5 9.35 L3.1 9.35 3.1 11.85 1.5 11.85 -1.5 11.85 -3.4 11.85 -3.4 9.35 -1.5 9.35 1.5 9.35" fill="url(#gradient5)" fill-rule="evenodd" stroke="none"/>
    <path d="M8.85 5.1 Q3.85 0.25 0.5 1.85 L-1.75 0.6 -6.9 -4.15 Q-2.4 -23.2 -7.0 -47.05 L-8.65 -57.9 Q-6.0 -48.4 5.6 -36.9 L8.85 5.1 Q5.4 -15.8 2.6 -35.4 L-7.0 -47.05 M0.75 2.35 L1.5 5.35 M1.5 7.85 L1.5 9.35 M1.5 11.85 L1.5 15.4 1.5 18.85 1.5 22.75 1.5 26.0 1.5 27.6 -1.5 27.6 -1.5 23.7 -1.5 20.2 -1.5 16.5 -1.5 13.45 -1.5 11.85 M-1.5 9.35 L-1.5 7.85 M-1.5 5.35 L-1.5 1.1" fill="none" stroke="#000000" stroke-linecap="round" stroke-linejoin="round" stroke-width="0.05"/>
    <path d="M1.5 5.35 L5.85 5.35 5.85 7.85 1.5 7.85 -1.5 7.85 -6.15 7.85 -6.15 5.35 -1.5 5.35 1.5 5.35 M1.5 9.35 L3.1 9.35 3.1 11.85 1.5 11.85 -1.5 11.85 -3.4 11.85 -3.4 9.35 -1.5 9.35 1.5 9.35 Z" fill="none" stroke="#000000" stroke-linecap="round" stroke-linejoin="round" stroke-width="0.05"/>
    <path d="M1.35 -25.8 L-0.4 -26.25 -0.5 -26.75 0.55 -27.0 Q1.75 -27.0 2.0 -25.85 L1.6 -24.9 Q1.15 -24.15 0.75 -24.15 -3.05 -24.15 -2.25 -26.05 -2.25 -28.0 -0.55 -29.65 L1.1 -31.65 0.1 -33.05 -1.4 -34.3 -3.0 -34.3 Q-2.75 -32.15 -1.15 -31.75 L-1.05 -31.55 -2.0 -31.5 Q-2.9 -31.5 -3.5 -34.0 -3.5 -35.0 -3.0 -35.0 0.95 -35.0 1.75 -31.55 1.75 -30.8 0.05 -29.3 -1.65 -27.85 -1.65 -26.2 -1.65 -24.8 -1.15 -24.8 L1.3 -25.1 1.35 -25.8 M0.4 -6.05 L-0.9 -5.75 Q-1.5 -7.05 -1.5 -8.0 -1.5 -8.6 -1.0 -8.5 0.5 -7.6 0.5 -6.8 L0.4 -6.05 M0.5 -19.4 Q0.5 -20.75 -1.0 -20.75 -2.55 -20.75 -2.15 -19.65 -2.15 -19.0 -0.55 -17.1 1.0 -15.2 1.0 -13.25 1.0 -11.25 -0.95 -11.25 -2.5 -11.25 -2.6 -11.7 L-2.5 -12.9 -2.5 -14.0 Q-2.65 -14.25 -2.0 -14.25 -1.15 -14.25 -0.4 -13.25 L-0.5 -12.9 -1.55 -13.3 -1.9 -13.25 -1.4 -11.8 Q0.6 -11.8 0.4 -13.25 0.4 -15.1 -1.15 -16.7 -2.75 -18.3 -2.75 -19.65 -2.75 -21.5 -1.5 -21.5 0.5 -21.5 1.0 -20.1 1.0 -18.5 0.25 -18.25 -0.05 -18.4 -0.65 -18.9 L-0.4 -19.5 -0.25 -19.55 Q0.05 -19.35 -0.25 -19.0 L0.15 -18.75 Q0.5 -19.0 0.5 -19.4 M0.5 -2.25 L-0.05 -2.05 -0.75 -2.75 Q-0.75 -3.25 -0.25 -3.25 L0.5 -2.55 0.5 -2.25 M-3.75 -37.4 L-3.25 -37.65 -3.25 -37.9 Q-3.25 -38.55 -4.25 -38.8 -3.85 -38.3 -3.75 -37.4 M-2.65 -37.5 Q-2.8 -36.9 -3.75 -36.65 -4.8 -36.75 -4.65 -37.05 L-4.25 -37.65 Q-4.25 -38.3 -4.75 -39.15 L-4.5 -39.5 Q-2.35 -39.5 -2.65 -37.5 M-0.5 -6.4 L0.0 -6.75 Q0.0 -7.45 -0.95 -7.8 -0.65 -7.65 -0.65 -6.5 L-0.5 -6.4" fill="#33ffff" fill-rule="evenodd" stroke="none"/>
  </g>
  <defs>
    <linearGradient gradientTransform="matrix(0.0018, 0.0, 0.0, 0.0426, 0.0, -7.3)" gradientUnits="userSpaceOnUse" id="gradient0" spreadMethod="pad" x1="-819.2" x2="819.2">
      <stop offset="0.0" stop-color="#151515"/>
      <stop offset="1.0" stop-color="#3c3c3c"/>
    </linearGradient>
    <linearGradient gradientTransform="matrix(0.0018, 0.0, 0.0, 0.0426, 0.0, -7.3)" gradientUnits="userSpaceOnUse" id="gradient1" spreadMethod="pad" x1="-819.2" x2="819.2">
      <stop offset="0.0" stop-color="#333333"/>
      <stop offset="1.0" stop-color="#6a6a6a"/>
    </linearGradient>
    <linearGradient gradientTransform="matrix(-0.0034, 0.0284, -0.0092, -0.0011, -2.2, -22.9)" gradientUnits="userSpaceOnUse" id="gradient2" spreadMethod="pad" x1="-819.2" x2="819.2">
      <stop offset="0.0" stop-color="#0b0d0f"/>
      <stop offset="1.0" stop-color="#2c2b3c"/>
    </linearGradient>
    <linearGradient gradientTransform="matrix(-0.0082, -0.0315, 0.0073, -0.0019, 1.8, -26.75)" gradientUnits="userSpaceOnUse" id="gradient3" spreadMethod="pad" x1="-819.2" x2="819.2">
      <stop offset="0.0" stop-color="#ffffff"/>
      <stop offset="0.22745098039215686" stop-color="#b7b7b7"/>
      <stop offset="0.4549019607843137" stop-color="#808080"/>
      <stop offset="0.5882352941176471" stop-color="#ffffff"/>
      <stop offset="0.6196078431372549" stop-color="#3c3c3c"/>
      <stop offset="0.6941176470588235" stop-color="#ffffff"/>
      <stop offset="0.7411764705882353" stop-color="#656565"/>
      <stop offset="1.0" stop-color="#bfbfbf"/>
    </linearGradient>
    <linearGradient gradientTransform="matrix(0.0073, 0.0, 0.0, 0.0015, -0.15, 6.6)" gradientUnits="userSpaceOnUse" id="gradient4" spreadMethod="pad" x1="-819.2" x2="819.2">
      <stop offset="0.0" stop-color="#638b8b"/>
      <stop offset="0.2196078431372549" stop-color="#8891a2"/>
      <stop offset="0.5803921568627451" stop-color="#bbc8d5"/>
      <stop offset="0.7058823529411765" stop-color="#7b7b7b"/>
      <stop offset="0.7568627450980392" stop-color="#a8bac6"/>
      <stop offset="1.0" stop-color="#506585"/>
    </linearGradient>
    <linearGradient gradientTransform="matrix(0.004, 0.0, 0.0, 0.0015, -0.15, 10.6)" gradientUnits="userSpaceOnUse" id="gradient5" spreadMethod="pad" x1="-819.2" x2="819.2">
      <stop offset="0.0" stop-color="#638b8b"/>
      <stop offset="0.2196078431372549" stop-color="#8891a2"/>
      <stop offset="0.5803921568627451" stop-color="#bbc8d5"/>
      <stop offset="0.7058823529411765" stop-color="#7b7b7b"/>
      <stop offset="0.7568627450980392" stop-color="#a8bac6"/>
      <stop offset="1.0" stop-color="#506585"/>
    </linearGradient>
  </defs>
</svg>
