<?xml version="1.0" encoding="UTF-8" standalone="no"?>
<svg xmlns:ffdec="https://www.free-decompiler.com/flash" xmlns:xlink="http://www.w3.org/1999/xlink" ffdec:objectType="shape" height="63.6px" width="5.7px" xmlns="http://www.w3.org/2000/svg">
  <g transform="matrix(1.0, 0.0, 0.0, 1.0, 2.6, 36.95)">
    <path d="M-1.1 9.35 Q1.75 -12.4 -2.6 -36.95 L3.1 -33.5 2.05 9.35 -1.1 9.35" fill="url(#gradient0)" fill-rule="evenodd" stroke="none"/>
    <path d="M2.05 9.35 L1.75 14.7 -1.1 14.7 -1.1 9.35 2.05 9.35" fill="url(#gradient1)" fill-rule="evenodd" stroke="none"/>
    <path d="M1.75 14.7 L1.15 26.65 -1.1 26.65 -1.1 14.7 1.75 14.7" fill="url(#gradient2)" fill-rule="evenodd" stroke="none"/>
    <path d="M-1.1 9.35 Q1.75 -12.4 -2.6 -36.95 L3.1 -33.5 2.05 9.35 1.75 14.7 1.15 26.65 -1.1 26.65 -1.1 14.7 -1.1 9.35" fill="none" stroke="#000000" stroke-linecap="round" stroke-linejoin="round" stroke-width="0.05"/>
    <path d="M-1.1 9.35 L2.05 9.35 M1.75 14.7 L-1.1 14.7" fill="none" stroke="#000000" stroke-linecap="round" stroke-linejoin="round" stroke-width="0.05"/>
  </g>
  <defs>
    <linearGradient gradientTransform="matrix(-0.0026, -0.0283, 0.0046, -5.0E-4, 0.6, -13.85)" gradientUnits="userSpaceOnUse" id="gradient0" spreadMethod="pad" x1="-819.2" x2="819.2">
      <stop offset="0.0" stop-color="#937c5b"/>
      <stop offset="0.25098039215686274" stop-color="#9d9d9d"/>
      <stop offset="0.5803921568627451" stop-color="#bed1be"/>
      <stop offset="0.7058823529411765" stop-color="#7ca750"/>
      <stop offset="0.7568627450980392" stop-color="#b4c9a5"/>
      <stop offset="1.0" stop-color="#54874e"/>
    </linearGradient>
    <linearGradient gradientTransform="matrix(0.0019, 0.0, 0.0, 0.0106, 0.45, 17.95)" gradientUnits="userSpaceOnUse" id="gradient1" spreadMethod="pad" x1="-819.2" x2="819.2">
      <stop offset="0.0" stop-color="#512f2f"/>
      <stop offset="1.0" stop-color="#130f0f"/>
    </linearGradient>
    <linearGradient gradientTransform="matrix(0.0019, 0.0, 0.0, 0.0106, 0.45, 17.95)" gradientUnits="userSpaceOnUse" id="gradient2" spreadMethod="pad" x1="-819.2" x2="819.2">
      <stop offset="0.0" stop-color="#404040"/>
      <stop offset="1.0" stop-color="#130f0f"/>
    </linearGradient>
  </defs>
</svg>
