<?xml version="1.0" encoding="UTF-8" standalone="no"?>
<svg xmlns:ffdec="https://www.free-decompiler.com/flash" xmlns:xlink="http://www.w3.org/1999/xlink" ffdec:objectType="shape" height="72.7px" width="14.7px" xmlns="http://www.w3.org/2000/svg">
  <g transform="matrix(1.0, 0.0, 0.0, 1.0, 7.05, 46.95)">
    <path d="M1.4 25.75 L-1.75 25.6 -2.75 24.9 Q-1.15 18.0 -2.75 9.0 L2.7 9.0 Q1.4 16.9 2.7 24.9 L1.4 25.75" fill="url(#gradient0)" fill-rule="evenodd" stroke="none"/>
    <path d="M1.4 25.75 L-1.75 25.6 -2.75 24.9 Q-1.15 18.0 -2.75 9.0 L2.7 9.0 Q1.4 16.9 2.7 24.9 L1.4 25.75 Z" fill="none" stroke="#000000" stroke-linecap="round" stroke-linejoin="round" stroke-width="0.05"/>
    <path d="M4.6 -40.75 L7.25 -38.5 Q4.1 -15.5 6.1 8.4 L4.6 7.95 3.8 7.7 Q2.2 -15.15 4.6 -40.75" fill="url(#gradient1)" fill-rule="evenodd" stroke="none"/>
    <path d="M1.35 7.05 Q-1.8 6.0 -5.0 5.45 0.3 -17.35 -2.65 -46.95 L4.6 -40.75 Q2.2 -15.15 3.8 7.7 L1.35 7.05" fill="url(#gradient2)" fill-rule="evenodd" stroke="none"/>
    <path d="M6.1 8.4 L7.6 8.9 Q7.9 12.05 7.0 12.7 6.85 13.6 5.05 12.35 -0.2 8.85 -5.9 8.95 -7.45 7.1 -6.9 5.45 -2.7 6.0 1.35 7.05 L3.8 7.7 4.6 7.95 6.1 8.4" fill="url(#gradient3)" fill-rule="evenodd" stroke="none"/>
    <path d="M4.6 -40.75 L7.25 -38.5 Q4.1 -15.5 6.1 8.4 L7.6 8.9 Q7.9 12.05 7.0 12.7 6.85 13.6 5.05 12.35 -0.2 8.85 -5.9 8.95 -7.45 7.1 -6.9 5.45 -2.7 6.0 1.35 7.05 L3.8 7.7 4.6 7.95 6.1 8.4 M-5.0 5.45 Q0.3 -17.35 -2.65 -46.95 L4.6 -40.75" fill="none" stroke="#000000" stroke-linecap="round" stroke-linejoin="round" stroke-width="0.05"/>
    <path d="M4.6 -40.75 Q2.2 -15.15 3.8 7.7" fill="none" stroke="#000000" stroke-linecap="round" stroke-linejoin="round" stroke-width="0.05"/>
    <path d="M0.3 -39.0 L-0.95 -39.0 -0.95 -41.25 0.3 -41.25 0.3 -39.0 M1.3 -31.5 L1.3 -26.25 0.8 -26.25 0.8 -31.5 1.3 -31.5 M3.05 4.25 L3.05 6.25 1.3 6.25 1.3 4.25 3.05 4.25 M-1.45 2.25 L-1.45 4.25 -2.7 4.25 -2.7 2.25 -1.45 2.25" fill="#00ffff" fill-rule="evenodd" stroke="none"/>
  </g>
  <defs>
    <radialGradient cx="0" cy="0" gradientTransform="matrix(0.0087, 0.0, 0.0, 0.0161, -1.5, 19.6)" gradientUnits="userSpaceOnUse" id="gradient0" r="819.2" spreadMethod="pad">
      <stop offset="0.0" stop-color="#2b2b2b"/>
      <stop offset="1.0" stop-color="#07070a"/>
    </radialGradient>
    <radialGradient cx="0" cy="0" gradientTransform="matrix(0.0361, 0.0, 0.0, 0.0361, 4.35, -13.9)" gradientUnits="userSpaceOnUse" id="gradient1" r="819.2" spreadMethod="pad">
      <stop offset="0.0" stop-color="#aeaeae"/>
      <stop offset="1.0" stop-color="#333333"/>
    </radialGradient>
    <radialGradient cx="0" cy="0" gradientTransform="matrix(0.0606, -0.0014, 0.0014, 0.0606, 0.15, -33.25)" gradientUnits="userSpaceOnUse" id="gradient2" r="819.2" spreadMethod="pad">
      <stop offset="0.0" stop-color="#203346"/>
      <stop offset="1.0" stop-color="#1f1625"/>
    </radialGradient>
    <radialGradient cx="0" cy="0" gradientTransform="matrix(0.015, 0.0, 0.0, 0.0115, 1.05, 7.6)" gradientUnits="userSpaceOnUse" id="gradient3" r="819.2" spreadMethod="pad">
      <stop offset="0.0" stop-color="#3c3c3c"/>
      <stop offset="1.0" stop-color="#131317"/>
    </radialGradient>
  </defs>
</svg>
