<?xml version="1.0" encoding="UTF-8" standalone="no"?>
<svg xmlns:ffdec="https://www.free-decompiler.com/flash" xmlns:xlink="http://www.w3.org/1999/xlink" ffdec:objectType="shape" height="14.0px" width="7.75px" xmlns="http://www.w3.org/2000/svg">
  <g transform="matrix(1.0, 0.0, 0.0, 1.0, 3.55, 8.95)">
    <path d="M1.9 4.85 L2.0 4.95 2.0 5.0 1.95 5.05 1.9 4.85" fill="url(#gradient0)" fill-rule="evenodd" stroke="none"/>
    <path d="M2.0 4.95 L1.9 4.85 2.0 4.9 2.0 4.95" fill="url(#gradient1)" fill-rule="evenodd" stroke="none"/>
    <path d="M-1.9 -7.4 L-0.75 -8.95 3.65 -6.7 4.2 -4.3 Q0.1 -5.0 -1.9 -7.4" fill="url(#gradient2)" fill-rule="evenodd" stroke="none"/>
    <path d="M3.2 0.2 L2.95 0.9 2.7 1.3 2.1 1.35 2.05 1.35 1.9 1.35 1.4 1.35 1.0 1.35 -0.45 1.05 Q-1.75 0.65 -2.7 -0.3 L-2.9 -0.45 -3.55 -1.25 -3.5 -3.05 Q-1.8 0.0 3.2 0.2" fill="url(#gradient3)" fill-rule="evenodd" stroke="none"/>
    <path d="M4.2 -4.3 L4.2 -2.0 3.2 0.2 Q-1.8 0.0 -3.5 -3.05 L-3.35 -4.4 Q-3.2 -5.5 -1.9 -7.4 0.1 -5.0 4.2 -4.3" fill="url(#gradient4)" fill-rule="evenodd" stroke="none"/>
    <path d="M4.2 -4.3 L4.2 -2.0 3.2 0.2 2.95 0.9 2.7 1.3 M-3.55 -1.25 L-3.5 -3.05 -3.35 -4.4 Q-3.2 -5.5 -1.9 -7.4 L-0.75 -8.95 M3.65 -6.7 L4.2 -4.3" fill="none" stroke="#000000" stroke-linecap="round" stroke-linejoin="round" stroke-width="0.05"/>
    <path d="M2.7 1.3 L2.1 1.35 2.05 1.35 1.9 1.35 1.4 1.35 1.0 1.35 -0.45 1.05 Q-1.75 0.65 -2.7 -0.3 L-2.9 -0.45 -3.55 -1.25 M4.2 -4.3 Q0.1 -5.0 -1.9 -7.4 M-3.5 -3.05 Q-1.8 0.0 3.2 0.2" fill="none" stroke="#000000" stroke-linecap="round" stroke-linejoin="round" stroke-width="0.05"/>
  </g>
  <defs>
    <radialGradient cx="0" cy="0" gradientTransform="matrix(0.0133, 0.0026, -0.0018, 0.0144, 0.8, -7.0)" gradientUnits="userSpaceOnUse" id="gradient0" r="819.2" spreadMethod="pad">
      <stop offset="0.0" stop-color="#6a7249"/>
      <stop offset="1.0" stop-color="#393a2c"/>
    </radialGradient>
    <radialGradient cx="0" cy="0" gradientTransform="matrix(0.0038, 7.0E-4, -5.0E-4, 0.0041, -0.45, 6.05)" gradientUnits="userSpaceOnUse" id="gradient1" r="819.2" spreadMethod="pad">
      <stop offset="0.0" stop-color="#6a7249"/>
      <stop offset="1.0" stop-color="#393a2c"/>
    </radialGradient>
    <radialGradient cx="0" cy="0" gradientTransform="matrix(0.0057, 0.0, 0.0, 0.0057, 0.75, -7.0)" gradientUnits="userSpaceOnUse" id="gradient2" r="819.2" spreadMethod="pad">
      <stop offset="0.0" stop-color="#dcd2bc"/>
      <stop offset="0.7137254901960784" stop-color="#8a855b"/>
      <stop offset="1.0" stop-color="#a58a63"/>
    </radialGradient>
    <radialGradient cx="0" cy="0" gradientTransform="matrix(0.0062, 0.0, 0.0, 0.0062, -1.75, -0.75)" gradientUnits="userSpaceOnUse" id="gradient3" r="819.2" spreadMethod="pad">
      <stop offset="0.0" stop-color="#dcd2bc"/>
      <stop offset="0.7137254901960784" stop-color="#8a855b"/>
      <stop offset="1.0" stop-color="#a58a63"/>
    </radialGradient>
    <radialGradient cx="0" cy="0" gradientTransform="matrix(0.0067, 0.0, 0.0, 0.0067, -0.25, -4.0)" gradientUnits="userSpaceOnUse" id="gradient4" r="819.2" spreadMethod="pad">
      <stop offset="0.0" stop-color="#c18f1c"/>
      <stop offset="0.7137254901960784" stop-color="#783910"/>
      <stop offset="1.0" stop-color="#9e3f3f"/>
    </radialGradient>
  </defs>
</svg>
