<?xml version="1.0" encoding="UTF-8" standalone="no"?>
<svg xmlns:ffdec="https://www.free-decompiler.com/flash" xmlns:xlink="http://www.w3.org/1999/xlink" ffdec:objectType="shape" height="45.65px" width="12.85px" xmlns="http://www.w3.org/2000/svg">
  <g transform="matrix(1.0, 0.0, 0.0, 1.0, 2.2, 20.65)">
    <path d="M2.85 24.0 Q0.05 26.65 -2.2 22.25 -0.25 0.85 -1.35 -15.8 L2.15 -14.2 Q-1.05 0.05 2.85 24.0" fill="url(#gradient0)" fill-rule="evenodd" stroke="none"/>
    <path d="M2.85 24.0 Q0.05 26.65 -2.2 22.25 -0.25 0.85 -1.35 -15.8 L2.15 -14.2 Q-1.05 0.05 2.85 24.0 Z" fill="none" stroke="#000000" stroke-linecap="round" stroke-linejoin="round" stroke-width="0.05"/>
    <path d="M7.4 -11.85 Q6.0 -12.8 4.5 -13.0 L3.0 -13.05 3.0 -19.3 4.5 -19.4 Q5.85 -19.55 7.0 -20.05 9.3 -15.65 7.4 -11.85" fill="url(#gradient1)" fill-rule="evenodd" stroke="none"/>
    <path d="M3.0 -13.05 Q0.85 -13.0 -1.4 -12.05 L-1.4 -19.8 3.0 -19.3 3.0 -13.05" fill="url(#gradient2)" fill-rule="evenodd" stroke="none"/>
    <path d="M7.0 -20.05 L8.2 -20.65 Q12.9 -15.0 8.5 -11.0 L7.4 -11.85 Q9.3 -15.65 7.0 -20.05" fill="url(#gradient3)" fill-rule="evenodd" stroke="none"/>
    <path d="M7.0 -20.05 L8.2 -20.65 Q12.9 -15.0 8.5 -11.0 L7.4 -11.85 Q6.0 -12.8 4.5 -13.0 L3.0 -13.05 Q0.85 -13.0 -1.4 -12.05 L-1.4 -19.8 3.0 -19.3 4.5 -19.4 Q5.85 -19.55 7.0 -20.05" fill="none" stroke="#000000" stroke-linecap="round" stroke-linejoin="round" stroke-width="0.05"/>
    <path d="M7.0 -20.05 Q9.3 -15.65 7.4 -11.85" fill="none" stroke="#000000" stroke-linecap="round" stroke-linejoin="round" stroke-width="0.05"/>
  </g>
  <defs>
    <radialGradient cx="0" cy="0" gradientTransform="matrix(0.0316, 0.0, 0.0, 0.0316, 0.2, 3.5)" gradientUnits="userSpaceOnUse" id="gradient0" r="819.2" spreadMethod="pad">
      <stop offset="0.00784313725490196" stop-color="#6f503c"/>
      <stop offset="1.0" stop-color="#2f241e"/>
    </radialGradient>
    <radialGradient cx="0" cy="0" gradientTransform="matrix(0.0074, 0.0, 0.0, 0.0093, 4.65, -15.95)" gradientUnits="userSpaceOnUse" id="gradient1" r="819.2" spreadMethod="pad">
      <stop offset="0.0" stop-color="#783232"/>
      <stop offset="1.0" stop-color="#730d0d"/>
    </radialGradient>
    <radialGradient cx="0" cy="0" gradientTransform="matrix(0.0092, 0.0, 0.0, 0.0093, 5.05, -15.95)" gradientUnits="userSpaceOnUse" id="gradient2" r="819.2" spreadMethod="pad">
      <stop offset="0.0" stop-color="#783232"/>
      <stop offset="1.0" stop-color="#730d0d"/>
    </radialGradient>
    <radialGradient cx="0" cy="0" gradientTransform="matrix(0.0073, 0.0, 0.0, 0.0074, 10.35, -16.45)" gradientUnits="userSpaceOnUse" id="gradient3" r="819.2" spreadMethod="pad">
      <stop offset="0.0" stop-color="#ffffff"/>
      <stop offset="1.0" stop-color="#404040"/>
    </radialGradient>
  </defs>
</svg>
