<?xml version="1.0" encoding="UTF-8" standalone="no"?>
<svg xmlns:ffdec="https://www.free-decompiler.com/flash" xmlns:xlink="http://www.w3.org/1999/xlink" ffdec:objectType="shape" height="55.0px" width="10.55px" xmlns="http://www.w3.org/2000/svg">
  <g transform="matrix(1.0, 0.0, 0.0, 1.0, 5.3, 27.5)">
    <path d="M2.55 -6.8 L2.55 -6.6 2.35 -6.8 2.55 -6.8 M3.95 3.65 L3.95 4.0 3.5 4.0 3.95 3.65 M-0.4 4.0 L-0.5 4.2 -0.5 4.0 -0.4 4.0 M-4.0 16.15 L-3.85 16.2 -4.0 16.2 -4.0 16.15" fill="#ffffff" fill-rule="evenodd" stroke="none"/>
    <path d="M0.7 -16.5 L0.7 -16.45 5.25 -16.45 5.25 -6.8 2.55 -6.8 2.35 -6.8 -0.5 -6.8 -3.2 -6.8 -3.2 -16.45 -1.7 -16.45 -1.7 -16.5 0.7 -16.5 M2.0 -11.25 L2.0 -8.7 4.2 -8.7 4.2 -11.25 2.0 -11.25 4.2 -11.25 4.2 -8.7 2.0 -8.7 2.0 -11.25" fill="url(#gradient0)" fill-rule="evenodd" stroke="none"/>
    <path d="M-1.7 -16.5 L-1.7 -20.45 -5.3 -26.2 Q-4.65 -27.6 -2.95 -27.5 L0.7 -21.05 0.7 -16.5 -1.7 -16.5" fill="url(#gradient1)" fill-rule="evenodd" stroke="none"/>
    <path d="M2.55 -6.6 L3.95 -4.85 3.95 -2.8 3.95 3.65 3.5 4.0 3.2 4.3 2.6 4.8 2.55 4.85 2.55 9.1 -0.95 12.15 -0.95 13.8 -0.35 14.3 2.1 16.4 2.15 16.65 -0.9 18.15 2.15 16.65 2.25 16.9 2.4 17.55 2.55 26.8 Q1.3 28.2 -0.5 26.8 L-0.5 19.9 -0.5 18.4 -0.9 18.15 -3.85 16.2 -4.0 16.15 -4.0 14.95 -4.0 10.4 -0.5 7.8 -0.5 4.2 -0.4 4.0 -0.25 3.85 0.9 2.35 0.9 -3.05 0.9 -3.9 -0.5 -5.95 -0.5 -6.8 2.35 -6.8 2.55 -6.6 M3.95 -2.8 L0.9 -3.05 3.95 -2.8 M3.2 4.3 L0.9 2.35 3.2 4.3 M-0.35 14.3 L-4.0 14.95 -0.35 14.3 M-0.5 19.9 L2.25 16.9 -0.5 19.9 M2.6 4.8 L-0.25 3.85 2.6 4.8" fill="url(#gradient2)" fill-rule="evenodd" stroke="none"/>
    <path d="M0.7 -16.5 L0.7 -16.45 5.25 -16.45 5.25 -6.8 2.55 -6.8 2.55 -6.6 3.95 -4.85 3.95 -2.8 3.95 3.65 3.95 4.0 M3.5 4.0 L3.2 4.3 2.6 4.8 2.55 4.85 2.55 9.1 -0.95 12.15 -0.95 13.8 -0.35 14.3 2.1 16.4 M2.15 16.65 L2.6 16.45 2.25 16.9 -0.5 19.9 -0.5 18.4 -0.9 18.15 -1.55 18.45 M2.4 17.55 L2.55 26.8 Q1.3 28.2 -0.5 26.8 L-0.5 19.9 M-1.7 -16.5 L-1.7 -20.45 -5.3 -26.2 Q-4.65 -27.6 -2.95 -27.5 L0.7 -21.05 0.7 -16.5 -1.7 -16.5 -1.7 -16.45 -3.2 -16.45 -3.2 -6.8 -0.5 -6.8 2.35 -6.8 2.55 -6.8 M2.35 -6.8 L2.55 -6.6 M2.0 -11.25 L4.2 -11.25 4.2 -8.7 2.0 -8.7 2.0 -11.25 M0.9 -3.05 L3.95 -2.8 M-0.5 -6.8 L-0.5 -5.95 0.9 -3.9 0.9 -3.05 0.9 2.35 3.2 4.3 M-0.4 4.0 L-0.5 4.2 -0.5 7.8 -4.0 10.4 -4.0 14.95 -0.35 14.3 M-0.4 4.0 L-0.25 3.85 0.9 2.35 M-0.5 4.2 L-0.5 4.0 M-3.85 16.2 L-4.0 16.15 -4.0 16.2 M-3.85 16.2 L-0.9 18.15 2.15 16.65 M-4.0 16.15 L-4.0 14.95 M3.95 3.65 L3.5 4.0 M-0.25 3.85 L2.6 4.8" fill="none" stroke="#000000" stroke-linecap="round" stroke-linejoin="round" stroke-width="0.05"/>
  </g>
  <defs>
    <radialGradient cx="0" cy="0" gradientTransform="matrix(0.0111, 0.0, 0.0, 0.0105, 0.5, -14.15)" gradientUnits="userSpaceOnUse" id="gradient0" r="819.2" spreadMethod="pad">
      <stop offset="0.0" stop-color="#58677c"/>
      <stop offset="0.2196078431372549" stop-color="#384250"/>
      <stop offset="0.7607843137254902" stop-color="#3a3a1b"/>
      <stop offset="1.0" stop-color="#000000"/>
    </radialGradient>
    <radialGradient cx="0" cy="0" gradientTransform="matrix(0.0135, 0.0, 0.0, 0.0128, -4.45, -25.85)" gradientUnits="userSpaceOnUse" id="gradient1" r="819.2" spreadMethod="pad">
      <stop offset="0.0" stop-color="#58677c"/>
      <stop offset="0.2196078431372549" stop-color="#384250"/>
      <stop offset="0.7607843137254902" stop-color="#3a3a1b"/>
      <stop offset="1.0" stop-color="#000000"/>
    </radialGradient>
    <radialGradient cx="0" cy="0" gradientTransform="matrix(-4.0E-4, 0.0229, -0.0364, -6.0E-4, -0.65, 12.2)" gradientUnits="userSpaceOnUse" id="gradient2" r="819.2" spreadMethod="pad">
      <stop offset="0.0" stop-color="#58677c"/>
      <stop offset="0.2196078431372549" stop-color="#384250"/>
      <stop offset="0.7607843137254902" stop-color="#3a3a1b"/>
      <stop offset="1.0" stop-color="#000000"/>
    </radialGradient>
  </defs>
</svg>
