<?xml version="1.0" encoding="UTF-8" standalone="no"?>
<svg xmlns:ffdec="https://www.free-decompiler.com/flash" xmlns:xlink="http://www.w3.org/1999/xlink" ffdec:objectType="shape" height="11.1px" width="7.1px" xmlns="http://www.w3.org/2000/svg">
  <g transform="matrix(1.0, 0.0, 0.0, 1.0, 3.55, 9.8)">
    <path d="M3.55 -4.95 L3.55 -3.1 3.4 0.3 Q2.45 1.4 -0.25 1.3 -1.45 -0.95 -3.5 -2.25 -3.65 -3.6 -3.4 -5.2 L-3.35 -5.7 Q-3.2 -7.1 -2.6 -7.9 L-2.2 -8.65 -1.8 -9.05 -1.35 -9.3 -0.5 -9.65 Q1.35 -10.15 3.3 -8.95 L3.45 -6.75 3.55 -4.95" fill="url(#gradient0)" fill-rule="evenodd" stroke="none"/>
    <path d="M-0.25 1.3 Q-1.55 1.35 -3.15 0.3 L-3.4 -1.6 -3.5 -2.25 Q-1.45 -0.95 -0.25 1.3" fill="url(#gradient1)" fill-rule="evenodd" stroke="none"/>
    <path d="M3.55 -4.95 L3.55 -3.1 3.4 0.3 M-3.15 0.3 L-3.4 -1.6 -3.5 -2.25 Q-3.65 -3.6 -3.4 -5.2" fill="none" stroke="#000000" stroke-linecap="round" stroke-linejoin="round" stroke-width="0.05"/>
    <path d="M3.4 0.3 Q2.45 1.4 -0.25 1.3 -1.55 1.35 -3.15 0.3" fill="none" stroke="#000000" stroke-linecap="round" stroke-linejoin="round" stroke-width="0.05"/>
  </g>
  <defs>
    <radialGradient cx="0" cy="0" gradientTransform="matrix(0.0062, -8.0E-4, 0.0016, 0.0128, 0.3, -7.9)" gradientUnits="userSpaceOnUse" id="gradient0" r="819.2" spreadMethod="pad">
      <stop offset="0.0" stop-color="#ffffff"/>
      <stop offset="0.6196078431372549" stop-color="#aeaeae"/>
      <stop offset="1.0" stop-color="#a6a6a6"/>
    </radialGradient>
    <radialGradient cx="0" cy="0" gradientTransform="matrix(0.0058, -0.0013, 0.0042, 0.0186, -4.85, 0.0)" gradientUnits="userSpaceOnUse" id="gradient1" r="819.2" spreadMethod="pad">
      <stop offset="0.0" stop-color="#ffffff"/>
      <stop offset="0.6196078431372549" stop-color="#aeaeae"/>
      <stop offset="1.0" stop-color="#a6a6a6"/>
    </radialGradient>
  </defs>
</svg>
