<?xml version="1.0" encoding="UTF-8" standalone="no"?>
<svg xmlns:ffdec="https://www.free-decompiler.com/flash" xmlns:xlink="http://www.w3.org/1999/xlink" ffdec:objectType="shape" height="14.4px" width="10.6px" xmlns="http://www.w3.org/2000/svg">
  <g transform="matrix(1.0, 0.0, 0.0, 1.0, 5.3, 7.2)">
    <path d="M0.3 -1.2 L4.45 -1.2 4.2 0.95 1.3 0.7 0.3 -1.2" fill="#000000" fill-rule="evenodd" stroke="none"/>
    <path d="M5.1 -3.45 L5.1 -3.55 -2.7 -3.55 -2.7 -3.45 -2.9 -3.45 -2.6 -4.9 1.35 -7.2 4.65 -5.3 5.2 -3.45 5.1 -3.45" fill="url(#gradient0)" fill-rule="evenodd" stroke="none"/>
    <path d="M5.1 -1.2 L5.1 -3.45 5.2 -3.45 5.3 -3.45 5.3 -1.2 5.1 -1.2 M-2.7 -3.45 L-2.7 -1.2 0.3 -1.2 -0.5 -0.85 -2.75 -1.2 -2.8 -1.2 -2.9 -1.2 -2.9 -3.45 -2.7 -3.45" fill="url(#gradient1)" fill-rule="evenodd" stroke="none"/>
    <path d="M0.3 -1.2 L1.3 0.7 4.2 0.95 2.75 5.05 -0.25 3.25 -0.5 -0.85 0.3 -1.2" fill="url(#gradient2)" fill-rule="evenodd" stroke="none"/>
    <path d="M-0.5 -0.85 L-0.25 3.25 0.0 7.2 -5.3 5.05 -2.8 -1.1 -2.75 -1.2 -0.5 -0.85" fill="url(#gradient3)" fill-rule="evenodd" stroke="none"/>
    <path d="M-2.8 -1.1 L-2.8 -1.2 -2.75 -1.2 -2.8 -1.1" fill="#666666" fill-rule="evenodd" stroke="none"/>
    <path d="M4.45 -1.2 L0.3 -1.2 -2.7 -1.2 -2.7 -3.45 -2.7 -3.55 5.1 -3.55 5.1 -3.45 5.1 -1.2 4.45 -1.2" fill="url(#gradient4)" fill-rule="evenodd" stroke="none"/>
    <path d="M4.45 -1.2 L0.3 -1.2 1.3 0.7 4.2 0.95 4.45 -1.2 5.1 -1.2 5.3 -1.2 5.3 -3.45 5.2 -3.45 4.65 -5.3 1.35 -7.2 -2.6 -4.9 -2.9 -3.45 -2.9 -1.2 -2.8 -1.2 -2.8 -1.1 -2.75 -1.2 -2.8 -1.2 M0.3 -1.2 L-0.5 -0.85 -0.25 3.25 2.75 5.05 4.2 0.95 M-0.5 -0.85 L-2.75 -1.2 M-2.8 -1.1 L-5.3 5.05 0.0 7.2 -0.25 3.25" fill="none" stroke="#000000" stroke-linecap="round" stroke-linejoin="round" stroke-width="0.05"/>
  </g>
  <defs>
    <radialGradient cx="0" cy="0" gradientTransform="matrix(0.0077, 0.0, 0.0, 0.0076, 3.4, -4.0)" gradientUnits="userSpaceOnUse" id="gradient0" r="819.2" spreadMethod="pad">
      <stop offset="0.0" stop-color="#616161"/>
      <stop offset="1.0" stop-color="#363636"/>
    </radialGradient>
    <radialGradient cx="0" cy="0" gradientTransform="matrix(0.007, 0.0, 0.0, 0.0068, 2.7, -2.4)" gradientUnits="userSpaceOnUse" id="gradient1" r="819.2" spreadMethod="pad">
      <stop offset="0.0" stop-color="#616161"/>
      <stop offset="1.0" stop-color="#363636"/>
    </radialGradient>
    <radialGradient cx="0" cy="0" gradientTransform="matrix(0.0047, 0.0, 0.0, 0.0045, 2.0, 2.0)" gradientUnits="userSpaceOnUse" id="gradient2" r="819.2" spreadMethod="pad">
      <stop offset="0.0" stop-color="#616161"/>
      <stop offset="1.0" stop-color="#363636"/>
    </radialGradient>
    <radialGradient cx="0" cy="0" gradientTransform="matrix(0.0093, 0.0, 0.0, 0.0091, -1.8, -0.05)" gradientUnits="userSpaceOnUse" id="gradient3" r="819.2" spreadMethod="pad">
      <stop offset="0.0" stop-color="#616161"/>
      <stop offset="1.0" stop-color="#363636"/>
    </radialGradient>
    <radialGradient cx="0" cy="0" gradientTransform="matrix(0.0074, 0.0, 0.0, 0.0074, 3.25, -2.25)" gradientUnits="userSpaceOnUse" id="gradient4" r="819.2" spreadMethod="pad">
      <stop offset="0.0" stop-color="#b7b7b7"/>
      <stop offset="1.0" stop-color="#666666"/>
    </radialGradient>
  </defs>
</svg>
