<?xml version="1.0" encoding="UTF-8" standalone="no"?>
<svg xmlns:ffdec="https://www.free-decompiler.com/flash" xmlns:xlink="http://www.w3.org/1999/xlink" ffdec:objectType="shape" height="21.35px" width="20.15px" xmlns="http://www.w3.org/2000/svg">
  <g transform="matrix(1.0, 0.0, 0.0, 1.0, 17.9, 7.0)">
    <path d="M-0.7 -1.35 L2.25 -0.4 Q-3.45 5.65 -5.55 14.35 L-15.35 11.3 Q-14.15 10.25 -13.85 8.95 L-6.6 11.2 Q-4.9 4.05 -0.7 -1.35" fill="url(#gradient0)" fill-rule="evenodd" stroke="none"/>
    <path d="M-14.9 5.8 L-17.9 4.85 Q-11.5 0.4 -8.3 -7.0 L0.15 -6.7 -1.75 -4.45 Q-5.95 0.9 -7.65 8.05 L-14.9 5.8" fill="url(#gradient1)" fill-rule="evenodd" stroke="none"/>
    <path d="M-1.75 -4.45 L1.2 -3.55 -0.7 -1.35 Q-4.9 4.05 -6.6 11.2 L-13.85 8.95 -16.5 8.15 Q-15.25 7.1 -14.9 5.8 L-7.65 8.05 Q-5.95 0.9 -1.75 -4.45" fill="url(#gradient2)" fill-rule="evenodd" stroke="none"/>
    <path d="M-14.9 5.8 L-17.9 4.85 Q-11.5 0.4 -8.3 -7.0 L0.15 -6.7 -1.75 -4.45 1.2 -3.55 -0.7 -1.35 2.25 -0.4 Q-3.45 5.65 -5.55 14.35 L-15.35 11.3 Q-14.15 10.25 -13.85 8.95 L-16.5 8.15 Q-15.25 7.1 -14.9 5.8 Z" fill="none" stroke="#000000" stroke-linecap="round" stroke-linejoin="round" stroke-width="0.05"/>
    <path d="M-6.8 -4.0 Q-7.8 -4.55 -7.75 -4.7 -7.75 -6.0 -7.0 -6.0 -4.5 -6.0 -4.75 -4.55 -4.75 -3.1 -6.95 -2.25 -9.15 -1.4 -9.15 -0.05 -9.15 0.5 -8.0 1.1 -7.25 1.1 -6.25 0.5 L-6.25 0.0 -7.25 0.5 -7.55 -0.75 -7.25 -0.8 Q-5.65 -0.8 -5.65 0.2 -5.65 0.7 -6.15 1.25 L-7.0 1.75 Q-10.45 1.75 -9.75 -0.1 -9.75 -1.8 -7.5 -2.7 -5.25 -3.65 -5.25 -4.55 L-6.05 -5.4 -7.25 -4.75 -6.75 -4.25 -6.8 -4.0 M-8.5 4.5 Q-9.1 4.05 -9.75 4.0 L-10.0 3.25 Q-10.35 3.15 -9.75 3.15 -7.5 3.15 -7.9 4.35 -7.9 5.75 -9.0 5.75 -13.0 5.75 -12.0 2.5 -13.55 2.5 -14.0 3.85 L-14.4 3.85 Q-14.25 3.3 -13.4 2.65 L-12.25 2.0 Q-11.9 2.25 -11.5 3.9 -11.2 5.15 -9.4 5.15 L-8.5 4.5" fill="#00ffff" fill-rule="evenodd" stroke="none"/>
  </g>
  <defs>
    <radialGradient cx="0" cy="0" gradientTransform="matrix(0.0231, -0.0044, 0.0044, 0.0231, 3.05, 19.85)" gradientUnits="userSpaceOnUse" id="gradient0" r="819.2" spreadMethod="pad">
      <stop offset="0.0" stop-color="#404040"/>
      <stop offset="1.0" stop-color="#000000"/>
    </radialGradient>
    <radialGradient cx="0" cy="0" gradientTransform="matrix(0.0156, -0.003, 0.003, 0.0156, -12.3, -2.95)" gradientUnits="userSpaceOnUse" id="gradient1" r="819.2" spreadMethod="pad">
      <stop offset="0.0" stop-color="#382d39"/>
      <stop offset="0.6941176470588235" stop-color="#111012"/>
      <stop offset="0.9803921568627451" stop-color="#120e14"/>
    </radialGradient>
    <radialGradient cx="0" cy="0" gradientTransform="matrix(0.0187, -0.0036, 0.0036, 0.0187, -15.0, -3.45)" gradientUnits="userSpaceOnUse" id="gradient2" r="819.2" spreadMethod="pad">
      <stop offset="0.0" stop-color="#2c3a5c"/>
      <stop offset="1.0" stop-color="#1f1724"/>
    </radialGradient>
  </defs>
</svg>
