<?xml version="1.0" encoding="UTF-8" standalone="no"?>
<svg xmlns:ffdec="https://www.free-decompiler.com/flash" xmlns:xlink="http://www.w3.org/1999/xlink" ffdec:objectType="shape" height="25.9px" width="16.65px" xmlns="http://www.w3.org/2000/svg">
  <g transform="matrix(1.0, 0.0, 0.0, 1.0, 7.9, 20.25)">
    <path d="M-4.9 -4.15 Q-1.5 -5.4 -0.25 -7.65 L2.3 -8.2 2.75 -6.5 5.8 -4.65 6.9 -4.75 7.2 -5.1 8.05 -1.5 2.0 -1.85 Q-0.35 -1.55 1.95 1.35 -3.55 -1.6 -4.9 -4.15" fill="url(#gradient0)" fill-rule="evenodd" stroke="none"/>
    <path d="M2.0 3.2 Q-1.05 2.85 2.6 5.65 -5.55 1.9 -7.9 -2.65 -6.55 -2.5 -6.55 -3.25 -4.65 -0.1 2.0 3.2" fill="url(#gradient1)" fill-rule="evenodd" stroke="none"/>
    <path d="M6.6 -7.1 L6.85 -6.2 6.3 -5.65 3.95 -7.4 3.65 -8.25 Q5.45 -8.15 6.6 -7.1" fill="url(#gradient2)" fill-rule="evenodd" stroke="none"/>
    <path d="M-4.9 -4.15 Q-3.55 -1.6 1.95 1.35 -1.0 0.55 2.0 3.2 -4.65 -0.1 -6.55 -3.25 -5.05 -3.2 -4.9 -4.15" fill="url(#gradient3)" fill-rule="evenodd" stroke="none"/>
    <path d="M1.95 1.35 Q-0.35 -1.55 2.0 -1.85 M2.0 3.2 Q-1.0 0.55 1.95 1.35 M2.6 5.65 Q-1.05 2.85 2.0 3.2" fill="none" stroke="#000000" stroke-linecap="round" stroke-linejoin="round" stroke-width="0.05"/>
    <path d="M6.6 -7.1 Q5.45 -8.15 3.65 -8.25 L3.95 -7.4 6.3 -5.65 6.85 -6.2 6.6 -7.1 M7.2 -5.1 L8.75 -6.95 8.75 -20.15 8.0 -7.3 6.85 -6.2 M2.0 -1.85 L8.05 -1.5 7.2 -5.1 6.9 -4.75 5.8 -4.65 2.75 -6.5 2.3 -8.2 -0.25 -7.65 Q-1.5 -5.4 -4.9 -4.15 -5.05 -3.2 -6.55 -3.25 -6.55 -2.5 -7.9 -2.65 -5.55 1.9 2.6 5.65 M3.65 -8.25 L-0.8 -20.25 2.3 -8.2" fill="none" stroke="#000000" stroke-linecap="round" stroke-linejoin="round" stroke-width="0.05"/>
    <path d="M2.75 -6.5 L-0.8 -20.25 3.95 -7.4 6.3 -5.65 8.0 -7.3 8.75 -20.15 8.75 -6.95 6.9 -4.75 5.8 -4.65 2.75 -6.5" fill="#ff0000" fill-rule="evenodd" stroke="none"/>
  </g>
  <defs>
    <radialGradient cx="0" cy="0" gradientTransform="matrix(0.0096, 0.0, 0.0, 0.0096, 0.25, -2.4)" gradientUnits="userSpaceOnUse" id="gradient0" r="819.2" spreadMethod="pad">
      <stop offset="0.0" stop-color="#382d39"/>
      <stop offset="0.6941176470588235" stop-color="#111012"/>
      <stop offset="0.9803921568627451" stop-color="#120e14"/>
    </radialGradient>
    <radialGradient cx="0" cy="0" gradientTransform="matrix(0.0085, 0.0, 0.0, 0.0085, -3.05, 1.55)" gradientUnits="userSpaceOnUse" id="gradient1" r="819.2" spreadMethod="pad">
      <stop offset="0.0" stop-color="#382d39"/>
      <stop offset="0.6941176470588235" stop-color="#111012"/>
      <stop offset="0.9803921568627451" stop-color="#120e14"/>
    </radialGradient>
    <radialGradient cx="0" cy="0" gradientTransform="matrix(0.0042, 0.0, 0.0, 0.0042, 3.95, -7.5)" gradientUnits="userSpaceOnUse" id="gradient2" r="819.2" spreadMethod="pad">
      <stop offset="0.0" stop-color="#382d39"/>
      <stop offset="0.6941176470588235" stop-color="#111012"/>
      <stop offset="0.9803921568627451" stop-color="#120e14"/>
    </radialGradient>
    <radialGradient cx="0" cy="0" gradientTransform="matrix(0.0068, 0.0, 0.0, 0.0068, -1.65, -0.55)" gradientUnits="userSpaceOnUse" id="gradient3" r="819.2" spreadMethod="pad">
      <stop offset="0.0" stop-color="#603939"/>
      <stop offset="0.6941176470588235" stop-color="#281c1c"/>
      <stop offset="1.0" stop-color="#352020"/>
    </radialGradient>
  </defs>
</svg>
