<?xml version="1.0" encoding="UTF-8" standalone="no"?>
<svg xmlns:ffdec="https://www.free-decompiler.com/flash" xmlns:xlink="http://www.w3.org/1999/xlink" ffdec:objectType="shape" height="23.25px" width="12.9px" xmlns="http://www.w3.org/2000/svg">
  <g transform="matrix(1.0, 0.0, 0.0, 1.0, 6.2, 8.65)">
    <path d="M-4.45 7.45 Q-4.5 0.15 -6.2 -8.6 -2.1 -6.3 6.7 -8.65 4.6 -0.65 3.95 7.45 -0.25 9.45 -4.45 7.45" fill="url(#gradient0)" fill-rule="evenodd" stroke="none"/>
    <path d="M3.95 7.45 L3.65 13.2 Q-0.6 15.85 -4.75 13.45 -4.45 10.6 -4.45 7.45 -0.25 9.45 3.95 7.45" fill="url(#gradient1)" fill-rule="evenodd" stroke="none"/>
    <path d="M-4.45 7.45 Q-4.5 0.15 -6.2 -8.6 -2.1 -6.3 6.7 -8.65 4.6 -0.65 3.95 7.45 L3.65 13.2 Q-0.6 15.85 -4.75 13.45 -4.45 10.6 -4.45 7.45" fill="none" stroke="#000000" stroke-linecap="round" stroke-linejoin="round" stroke-width="0.05"/>
    <path d="M-4.45 7.45 Q-0.25 9.45 3.95 7.45" fill="none" stroke="#000000" stroke-linecap="round" stroke-linejoin="round" stroke-width="0.05"/>
    <path d="M1.85 -0.45 Q1.85 0.5 0.55 0.5 -1.0 0.5 -1.15 -1.3 -1.15 -1.85 -0.3 -3.0 L-0.5 -3.0 Q-1.95 -3.0 -1.6 -4.25 -1.6 -6.25 0.0 -6.25 2.1 -6.25 1.75 -4.75 1.75 -4.05 0.7 -2.8 L-0.4 -1.15 0.25 -0.15 Q1.0 -0.25 1.1 -0.4 L0.15 -0.9 0.15 -1.25 0.75 -1.3 Q1.85 -1.3 1.85 -0.45 M0.5 -5.55 Q-1.0 -5.55 -1.0 -4.2 -1.0 -3.75 -0.15 -3.3 L-0.15 -3.2 1.15 -4.75 Q1.15 -5.4 0.5 -5.55 M-0.65 4.25 Q-0.35 4.35 -0.95 4.35 -1.5 4.35 -1.5 3.5 -1.5 2.25 -0.75 2.25 1.05 2.25 1.25 3.75 L0.4 4.9 Q-0.5 5.65 -0.5 6.15 L-0.25 7.25 -0.25 7.35 Q0.55 7.25 0.65 6.9 0.0 6.75 -0.1 6.5 L-0.1 6.35 0.25 6.15 Q1.25 6.7 1.25 6.8 1.25 8.0 0.75 8.0 -1.15 8.0 -1.1 6.1 -1.1 5.55 -0.3 4.8 0.5 4.05 0.5 3.55 L0.4 3.25 -0.1 2.75 -0.9 2.85 Q-1.1 3.6 -0.65 4.25" fill="#000000" fill-opacity="0.8" fill-rule="evenodd" stroke="none"/>
  </g>
  <defs>
    <radialGradient cx="0" cy="0" gradientTransform="matrix(0.0254, 0.0, 0.0, 0.0254, 0.65, -5.95)" gradientUnits="userSpaceOnUse" id="gradient0" r="819.2" spreadMethod="pad">
      <stop offset="0.0" stop-color="#382d39"/>
      <stop offset="0.6941176470588235" stop-color="#111012"/>
      <stop offset="0.9803921568627451" stop-color="#120e14"/>
    </radialGradient>
    <radialGradient cx="0" cy="0" gradientTransform="matrix(0.0082, 0.0, 0.0, 0.0082, 0.0, 9.25)" gradientUnits="userSpaceOnUse" id="gradient1" r="819.2" spreadMethod="pad">
      <stop offset="0.0" stop-color="#603939"/>
      <stop offset="0.6941176470588235" stop-color="#281c1c"/>
      <stop offset="1.0" stop-color="#352020"/>
    </radialGradient>
  </defs>
</svg>
