<?xml version="1.0" encoding="UTF-8" standalone="no"?>
<svg xmlns:ffdec="https://www.free-decompiler.com/flash" xmlns:xlink="http://www.w3.org/1999/xlink" ffdec:objectType="shape" height="27.25px" width="34.3px" xmlns="http://www.w3.org/2000/svg">
  <g transform="matrix(1.0, 0.0, 0.0, 1.0, 15.95, 11.8)">
    <path d="M2.7 -0.95 Q1.05 3.4 1.05 8.1 L1.05 15.45 Q0.2 14.75 0.1 12.0 L0.2 6.0 Q-0.3 6.75 -0.15 10.2 -0.1 10.45 -0.7 10.75 -1.3 11.0 -2.4 10.3 -3.55 9.6 -2.85 4.95 -3.5 5.65 -3.85 8.65 -5.0 7.6 -5.05 6.7 -5.2 5.75 -3.65 0.25 L-3.65 0.2 Q-3.85 0.3 -6.25 4.95 -7.05 4.8 -6.8 3.4 -6.6 2.0 -4.95 -1.2 -3.35 -4.45 -3.0 -4.45 -1.85 -3.4 -1.75 -2.4 L0.75 -2.3 1.6 -2.3 1.5 -0.65 Q1.5 -0.2 2.7 -0.95" fill="url(#gradient0)" fill-rule="evenodd" stroke="none"/>
    <path d="M5.95 -2.8 L6.35 -1.9 18.35 2.15 Q1.3 0.2 -15.95 -5.7 L-3.2 -4.6 -2.3 -5.3 5.95 -2.8 M-0.2 -7.8 L0.3 -9.25 Q3.5 -11.55 7.15 -11.8 L3.85 -7.45 4.7 -5.5 -0.2 -7.8" fill="url(#gradient1)" fill-rule="evenodd" stroke="none"/>
    <path d="M4.7 -5.5 L5.95 -2.8 -2.3 -5.3 Q-0.9 -6.5 -0.2 -7.8 L4.7 -5.5" fill="url(#gradient2)" fill-rule="evenodd" stroke="none"/>
    <path d="M4.7 -5.5 L5.95 -2.8 6.35 -1.9 18.35 2.15 Q1.3 0.2 -15.95 -5.7 L-3.2 -4.6 -2.3 -5.3 Q-0.9 -6.5 -0.2 -7.8 L0.3 -9.25 Q3.5 -11.55 7.15 -11.8 L3.85 -7.45 4.7 -5.5 Z" fill="none" stroke="#000000" stroke-linecap="round" stroke-linejoin="round" stroke-width="0.05"/>
  </g>
  <defs>
    <radialGradient cx="0" cy="0" gradientTransform="matrix(0.0179, 0.0, 0.0, 0.0179, -1.35, 0.95)" gradientUnits="userSpaceOnUse" id="gradient0" r="819.2" spreadMethod="pad">
      <stop offset="0.0" stop-color="#74483f"/>
      <stop offset="1.0" stop-color="#000000"/>
    </radialGradient>
    <radialGradient cx="0" cy="0" gradientTransform="matrix(0.0221, -0.0025, 0.0025, 0.0221, 1.0, -3.5)" gradientUnits="userSpaceOnUse" id="gradient1" r="819.2" spreadMethod="pad">
      <stop offset="0.0" stop-color="#333333"/>
      <stop offset="1.0" stop-color="#000000"/>
    </radialGradient>
    <radialGradient cx="0" cy="0" gradientTransform="matrix(0.0221, -0.0025, 0.0025, 0.0221, 1.0, -3.5)" gradientUnits="userSpaceOnUse" id="gradient2" r="819.2" spreadMethod="pad">
      <stop offset="0.0" stop-color="#dba4d0"/>
      <stop offset="1.0" stop-color="#c127e9"/>
    </radialGradient>
  </defs>
</svg>
