<?xml version="1.0" encoding="UTF-8" standalone="no"?>
<svg xmlns:ffdec="https://www.free-decompiler.com/flash" xmlns:xlink="http://www.w3.org/1999/xlink" ffdec:objectType="shape" height="19.65px" width="7.35px" xmlns="http://www.w3.org/2000/svg">
  <g transform="matrix(1.0, 0.0, 0.0, 1.0, 3.8, 9.8)">
    <path d="M-3.0 -2.1 L-3.05 -1.95 -3.1 -2.0 -3.0 -2.1" fill="url(#gradient0)" fill-rule="evenodd" stroke="none"/>
    <path d="M-2.95 2.65 L-3.1 2.8 -3.4 2.75 -3.5 2.3 -3.05 1.2 Q-2.35 -0.45 -1.65 -0.9 L-0.6 -1.0 -0.95 -0.25 -2.95 2.65 M-3.5 -2.25 L-3.8 -2.8 -3.55 -3.5 -2.5 -4.8 Q-1.1 -6.2 -0.15 -6.05 -2.95 -3.5 -3.0 -2.1 L-3.1 -2.0 -3.15 -1.9 -3.45 -2.2 -3.5 -2.25" fill="#000000" fill-rule="evenodd" stroke="none"/>
    <path d="M-3.4 -5.2 L-3.35 -5.7 Q-3.2 -7.1 -2.6 -7.9 L-2.2 -8.65 -1.8 -9.05 -1.35 -9.3 -0.5 -9.65 Q1.35 -10.15 3.3 -8.95 L3.45 -6.75 3.55 -4.95 3.55 -3.1 3.4 0.3 2.95 3.4 2.6 5.2 2.3 6.5 2.2 6.95 Q1.05 4.8 0.3 2.45 0.3 1.1 -0.95 -0.25 L-0.6 -1.0 -1.65 -0.9 -3.05 -1.95 -3.0 -2.1 Q-2.95 -3.5 -0.15 -6.05 -1.1 -6.2 -2.5 -4.8 L-3.55 -3.5 -3.4 -5.2" fill="url(#gradient1)" fill-rule="evenodd" stroke="none"/>
    <path d="M2.2 6.95 Q1.6 8.65 0.45 9.85 L0.4 9.85 -0.5 9.5 Q-1.55 9.05 -1.9 8.15 -2.5 6.85 -2.6 5.5 L-2.95 2.65 -0.95 -0.25 Q0.3 1.1 0.3 2.45 1.05 4.8 2.2 6.95 M-3.05 1.2 L-3.4 -1.6 -3.5 -2.25 -3.45 -2.2 -3.15 -1.9 -3.1 -2.0 -3.05 -1.95 -1.65 -0.9 Q-2.35 -0.45 -3.05 1.2" fill="url(#gradient2)" fill-rule="evenodd" stroke="none"/>
    <path d="M3.55 -4.95 L3.55 -3.1 3.4 0.3 2.95 3.4 2.6 5.2 2.3 6.5 2.2 6.95 Q1.6 8.65 0.45 9.85 L0.4 9.85 -0.5 9.5 Q-1.55 9.05 -1.9 8.15 -2.5 6.85 -2.6 5.5 L-2.95 2.65 M-3.05 1.2 L-3.4 -1.6 -3.5 -2.25 M-3.55 -3.5 L-3.4 -5.2" fill="none" stroke="#000000" stroke-linecap="round" stroke-linejoin="round" stroke-width="0.05"/>
  </g>
  <defs>
    <radialGradient cx="0" cy="0" gradientTransform="matrix(0.0062, -8.0E-4, 0.0016, 0.0128, 0.3, -7.9)" gradientUnits="userSpaceOnUse" id="gradient0" r="819.2" spreadMethod="pad">
      <stop offset="0.0" stop-color="#79b999"/>
      <stop offset="0.49019607843137253" stop-color="#527072"/>
      <stop offset="0.6784313725490196" stop-color="#535368"/>
      <stop offset="1.0" stop-color="#262233"/>
    </radialGradient>
    <radialGradient cx="0" cy="0" gradientTransform="matrix(0.0062, -8.0E-4, 0.0016, 0.0128, 0.3, -7.9)" gradientUnits="userSpaceOnUse" id="gradient1" r="819.2" spreadMethod="pad">
      <stop offset="0.0" stop-color="#d1df53"/>
      <stop offset="0.49019607843137253" stop-color="#877e3d"/>
      <stop offset="0.6784313725490196" stop-color="#8b7830"/>
      <stop offset="1.0" stop-color="#3c291a"/>
    </radialGradient>
    <radialGradient cx="0" cy="0" gradientTransform="matrix(0.0058, -0.0013, 0.0042, 0.0186, -4.85, 0.0)" gradientUnits="userSpaceOnUse" id="gradient2" r="819.2" spreadMethod="pad">
      <stop offset="0.0" stop-color="#919d1e"/>
      <stop offset="0.49019607843137253" stop-color="#635c2e"/>
      <stop offset="0.6784313725490196" stop-color="#4b411b"/>
      <stop offset="1.0" stop-color="#3c291a"/>
    </radialGradient>
  </defs>
</svg>
