<?xml version="1.0" encoding="UTF-8" standalone="no"?>
<svg xmlns:ffdec="https://www.free-decompiler.com/flash" xmlns:xlink="http://www.w3.org/1999/xlink" ffdec:objectType="shape" height="30.4px" width="7.3px" xmlns="http://www.w3.org/2000/svg">
  <g transform="matrix(1.0, 0.0, 0.0, 1.0, 3.6, 15.2)">
    <path d="M-2.4 -14.5 L-2.4 -14.55 -2.15 -14.8 -1.6 -14.55 -1.6 -14.5 -2.4 -14.5" fill="url(#gradient0)" fill-rule="evenodd" stroke="none"/>
    <path d="M1.8 -15.2 L3.0 -11.35 3.65 -5.5 3.15 -4.65 2.35 -0.15 2.25 4.95 1.25 13.4 -0.05 15.2 -2.75 13.15 -2.9 0.5 -3.6 -4.9 -2.4 -14.5 -1.6 -14.5 -1.6 -14.55 Q0.2 -13.95 1.8 -15.2" fill="url(#gradient1)" fill-rule="evenodd" stroke="none"/>
    <path d="M1.8 -15.2 L3.0 -11.35 3.65 -5.5 3.15 -4.65 2.35 -0.15 2.25 4.95 1.25 13.4 M-2.75 13.15 L-2.9 0.5 -3.6 -4.9 -2.4 -14.5 -2.4 -14.55 -2.15 -14.8" fill="none" stroke="#000000" stroke-linecap="round" stroke-linejoin="round" stroke-width="0.05"/>
    <path d="M-2.4 -14.5 L-2.4 -14.55 -2.15 -14.8 -1.6 -14.55 -1.6 -14.5 -2.4 -14.5" fill="url(#gradient2)" fill-rule="evenodd" stroke="none"/>
    <path d="M3.5 -6.75 L3.65 -5.5 3.15 -4.65 3.05 -4.1 -3.55 -5.35 -3.4 -6.75 3.5 -6.75" fill="url(#gradient3)" fill-rule="evenodd" stroke="none"/>
    <path d="M2.8 -2.6 L2.35 -0.15 -3.05 -0.75 -3.25 -2.25 2.8 -2.6" fill="url(#gradient4)" fill-rule="evenodd" stroke="none"/>
    <path d="M2.0 6.9 L1.75 9.05 -2.8 8.35 -2.8 7.35 2.0 6.9" fill="url(#gradient5)" fill-rule="evenodd" stroke="none"/>
    <path d="M2.3 2.3 L2.25 4.1 -2.85 4.2 -2.85 2.5 2.3 2.3" fill="url(#gradient6)" fill-rule="evenodd" stroke="none"/>
    <path d="M1.45 11.6 L1.3 12.85 -2.75 12.6 -2.8 11.45 1.45 11.6" fill="url(#gradient7)" fill-rule="evenodd" stroke="none"/>
    <path d="M3.15 -9.9 L3.5 -6.75 -3.4 -6.75 -2.95 -10.1 -1.55 -9.2 Q0.15 -8.2 3.15 -9.9" fill="url(#gradient8)" fill-rule="evenodd" stroke="none"/>
    <path d="M3.05 -4.1 L2.8 -2.6 -3.25 -2.25 -3.6 -4.9 -3.55 -5.35 3.05 -4.1" fill="url(#gradient9)" fill-rule="evenodd" stroke="none"/>
    <path d="M2.35 -0.15 L2.3 2.3 -2.85 2.5 -2.9 0.5 -3.05 -0.75 2.35 -0.15" fill="url(#gradient10)" fill-rule="evenodd" stroke="none"/>
    <path d="M2.25 4.1 L2.0 6.9 -2.8 7.35 -2.85 4.2 2.25 4.1" fill="url(#gradient11)" fill-rule="evenodd" stroke="none"/>
    <path d="M1.75 9.05 L1.45 11.6 -2.8 11.45 -2.8 8.35 1.75 9.05" fill="url(#gradient12)" fill-rule="evenodd" stroke="none"/>
    <path d="M1.3 12.85 L1.25 13.4 -0.05 15.2 -2.75 13.15 -2.75 12.6 1.3 12.85" fill="url(#gradient13)" fill-rule="evenodd" stroke="none"/>
    <path d="M1.8 -15.2 L3.0 -11.35 3.15 -10.05 3.15 -9.9 3.5 -6.75 3.65 -5.5 3.15 -4.65 3.05 -4.1 2.8 -2.6 2.35 -0.15 2.3 2.3 2.25 4.1 2.0 6.9 1.75 9.05 1.45 11.6 1.3 12.85 1.25 13.4 M-2.75 13.15 L-2.75 12.6 -2.8 11.45 -2.8 8.35 -2.8 7.35 -2.85 4.2 -2.85 2.5 -2.9 0.5 -3.05 -0.75 -3.25 -2.25 -3.6 -4.9 -3.55 -5.35 -3.4 -6.75 -2.95 -10.1 -2.4 -14.5 -2.4 -14.55 -2.15 -14.8 M3.15 -9.9 Q0.15 -8.2 -1.55 -9.2 L-2.95 -10.1" fill="none" stroke="#000000" stroke-linecap="round" stroke-linejoin="round" stroke-width="0.05"/>
    <path d="M2.15 -6.75 L2.25 -6.75 2.9 -7.55 3.0 -7.45 3.05 -8.3 3.3 -8.4 3.5 -7.75 3.65 -7.5 3.55 -6.8 3.6 -6.1 3.7 -5.7 Q2.5 -2.0 2.5 0.2 L2.25 0.35 2.25 0.9 2.25 1.4 2.3 2.9 2.15 5.55 2.05 5.55 1.85 1.85 1.75 0.75 Q1.15 -1.25 0.5 -4.3 -0.25 -7.65 -0.2 -8.15 L-0.2 -8.2 -0.2 -8.25 -0.05 -8.85 0.05 -8.65 0.85 -7.15 0.9 -7.2 2.15 -6.75 M2.95 -7.05 L2.95 -7.1 2.8 -6.85 2.95 -6.95 2.95 -7.05" fill="#000000" fill-opacity="0.3019608" fill-rule="evenodd" stroke="none"/>
  </g>
  <defs>
    <radialGradient cx="0" cy="0" gradientTransform="matrix(0.0063, 0.0, 0.0, 0.0211, -4.5, -1.05)" gradientUnits="userSpaceOnUse" id="gradient0" r="819.2" spreadMethod="pad">
      <stop offset="0.0" stop-color="#171f2d"/>
      <stop offset="0.6196078431372549" stop-color="#281c27"/>
      <stop offset="1.0" stop-color="#0f0b0b"/>
    </radialGradient>
    <linearGradient gradientTransform="matrix(0.0044, 0.0, 0.0, 0.0186, 0.0, 0.0)" gradientUnits="userSpaceOnUse" id="gradient1" spreadMethod="pad" x1="-819.2" x2="819.2">
      <stop offset="0.0" stop-color="#333333"/>
      <stop offset="1.0" stop-color="#000000"/>
    </linearGradient>
    <linearGradient gradientTransform="matrix(5.0E-4, 0.0, 0.0, 2.0E-4, -2.0, -14.65)" gradientUnits="userSpaceOnUse" id="gradient2" spreadMethod="pad" x1="-819.2" x2="819.2">
      <stop offset="0.0" stop-color="#833030"/>
      <stop offset="1.0" stop-color="#373326"/>
    </linearGradient>
    <linearGradient gradientTransform="matrix(-0.0043, -6.0E-4, 2.0E-4, -0.0016, 0.1, -5.9)" gradientUnits="userSpaceOnUse" id="gradient3" spreadMethod="pad" x1="-819.2" x2="819.2">
      <stop offset="0.0" stop-color="#9b6a4a"/>
      <stop offset="1.0" stop-color="#b19d70"/>
    </linearGradient>
    <linearGradient gradientTransform="matrix(-0.0036, -5.0E-4, 2.0E-4, -0.0016, -0.35, -1.7)" gradientUnits="userSpaceOnUse" id="gradient4" spreadMethod="pad" x1="-819.2" x2="819.2">
      <stop offset="0.0" stop-color="#9b6a4a"/>
      <stop offset="1.0" stop-color="#b19d70"/>
    </linearGradient>
    <linearGradient gradientTransform="matrix(-0.0029, -4.0E-4, 2.0E-4, -0.0013, -0.45, 7.7)" gradientUnits="userSpaceOnUse" id="gradient5" spreadMethod="pad" x1="-819.2" x2="819.2">
      <stop offset="0.0" stop-color="#9b6a4a"/>
      <stop offset="1.0" stop-color="#b19d70"/>
    </linearGradient>
    <linearGradient gradientTransform="matrix(-0.0032, -4.0E-4, 2.0E-4, -0.0015, -0.3, 3.2)" gradientUnits="userSpaceOnUse" id="gradient6" spreadMethod="pad" x1="-819.2" x2="819.2">
      <stop offset="0.0" stop-color="#9b6a4a"/>
      <stop offset="1.0" stop-color="#b19d70"/>
    </linearGradient>
    <linearGradient gradientTransform="matrix(-0.0026, -4.0E-4, 1.0E-4, -9.0E-4, -0.75, 12.1)" gradientUnits="userSpaceOnUse" id="gradient7" spreadMethod="pad" x1="-819.2" x2="819.2">
      <stop offset="0.0" stop-color="#9b6a4a"/>
      <stop offset="1.0" stop-color="#b19d70"/>
    </linearGradient>
    <linearGradient gradientTransform="matrix(0.0042, 0.0, 0.0, 0.002, 0.05, -8.45)" gradientUnits="userSpaceOnUse" id="gradient8" spreadMethod="pad" x1="-819.2" x2="819.2">
      <stop offset="0.0" stop-color="#a0458e"/>
      <stop offset="1.0" stop-color="#493f44"/>
    </linearGradient>
    <linearGradient gradientTransform="matrix(0.0041, 0.0, 0.0, 0.0019, -0.3, -3.8)" gradientUnits="userSpaceOnUse" id="gradient9" spreadMethod="pad" x1="-819.2" x2="819.2">
      <stop offset="0.0" stop-color="#a0458e"/>
      <stop offset="1.0" stop-color="#493f44"/>
    </linearGradient>
    <linearGradient gradientTransform="matrix(0.0033, 0.0, 0.0, 0.002, -0.35, 0.85)" gradientUnits="userSpaceOnUse" id="gradient10" spreadMethod="pad" x1="-819.2" x2="819.2">
      <stop offset="0.0" stop-color="#a0458e"/>
      <stop offset="1.0" stop-color="#493f44"/>
    </linearGradient>
    <linearGradient gradientTransform="matrix(0.0031, 0.0, 0.0, 0.002, -0.3, 5.7)" gradientUnits="userSpaceOnUse" id="gradient11" spreadMethod="pad" x1="-819.2" x2="819.2">
      <stop offset="0.0" stop-color="#a0458e"/>
      <stop offset="1.0" stop-color="#493f44"/>
    </linearGradient>
    <linearGradient gradientTransform="matrix(0.0028, 0.0, 0.0, 0.002, -0.55, 9.95)" gradientUnits="userSpaceOnUse" id="gradient12" spreadMethod="pad" x1="-819.2" x2="819.2">
      <stop offset="0.0" stop-color="#a0458e"/>
      <stop offset="1.0" stop-color="#493f44"/>
    </linearGradient>
    <linearGradient gradientTransform="matrix(0.0025, 0.0, 0.0, 0.0016, -0.75, 13.9)" gradientUnits="userSpaceOnUse" id="gradient13" spreadMethod="pad" x1="-819.2" x2="819.2">
      <stop offset="0.0" stop-color="#a0458e"/>
      <stop offset="1.0" stop-color="#493f44"/>
    </linearGradient>
  </defs>
</svg>
