<?xml version="1.0" encoding="UTF-8" standalone="no"?>
<svg xmlns:ffdec="https://www.free-decompiler.com/flash" xmlns:xlink="http://www.w3.org/1999/xlink" ffdec:objectType="shape" height="36.5px" width="19.25px" xmlns="http://www.w3.org/2000/svg">
  <g transform="matrix(1.0, 0.0, 0.0, 1.0, 8.65, 16.4)">
    <path d="M-6.35 11.3 L-6.5 11.8 -6.45 11.8 -6.6 12.65 -6.5 11.8 -6.45 11.3 -6.35 11.3" fill="#ffffff" fill-rule="evenodd" stroke="none"/>
    <path d="M6.45 11.65 L6.35 11.05 6.45 11.4 6.45 11.65 M6.4 12.0 L6.45 11.85 6.55 12.45 6.4 12.0" fill="url(#gradient0)" fill-rule="evenodd" stroke="none"/>
    <path d="M-6.45 11.8 L4.35 12.35 6.0 11.95 6.35 11.85 6.45 11.85 6.4 12.0 5.65 13.9 Q3.45 19.35 1.9 20.1 -2.3 20.5 -6.7 13.15 L-6.6 12.65 -6.45 11.8" fill="url(#gradient1)" fill-rule="evenodd" stroke="none"/>
    <path d="M0.35 -16.2 L0.05 -16.2 4.05 -13.5 4.1 -12.05 6.55 -9.8 7.15 -7.7 7.2 -7.7 7.25 -7.55 Q8.4 -0.4 5.8 -1.6 L6.15 -1.2 7.5 -1.5 Q4.25 1.8 4.2 4.95 4.15 8.1 5.2 9.7 6.2 11.25 6.35 11.05 L6.45 11.65 6.45 11.85 6.35 11.85 6.0 11.95 4.35 12.35 -6.45 11.8 -6.5 11.8 -6.35 11.3 Q-6.45 9.95 -6.0 8.7 L-5.15 6.9 Q-4.75 6.3 -4.6 3.2 -4.45 0.05 -6.65 -5.45 L-6.8 -6.3 -6.85 -6.4 -6.9 -6.4 -8.65 -8.0 Q-8.1 -10.95 -4.35 -11.3 L-2.05 -12.45 Q-0.35 -13.5 -0.4 -16.25 L-0.05 -16.25 0.05 -16.4 0.35 -16.2" fill="url(#gradient2)" fill-rule="evenodd" stroke="none"/>
    <path d="M0.35 -16.2 L0.05 -16.4 -0.05 -16.25 M-0.4 -16.25 Q-0.35 -13.5 -2.05 -12.45 L-4.35 -11.3 Q-8.1 -10.95 -8.65 -8.0 M-6.9 -6.4 L-6.85 -6.4 -6.8 -6.3 -6.65 -5.45 Q-4.45 0.05 -4.6 3.2 -4.75 6.3 -5.15 6.9 L-6.0 8.7 Q-6.45 9.95 -6.35 11.3 L-6.5 11.8 -6.45 11.8 4.35 12.35 6.0 11.95 6.35 11.85 6.45 11.85 6.45 11.65 6.35 11.05 Q6.2 11.25 5.2 9.7 4.15 8.1 4.2 4.95 4.25 1.8 7.5 -1.5 M6.15 -1.2 L5.8 -1.6 Q8.4 -0.4 7.25 -7.55 M7.2 -7.7 L7.15 -7.7 M6.55 -9.8 L4.1 -12.05 M4.05 -13.5 L0.05 -16.2 M6.4 12.0 L6.45 11.85 M6.4 12.0 L5.65 13.9 M-6.7 13.15 L-6.6 12.65 -6.5 11.8 -6.45 11.3 M6.45 11.65 L6.45 11.4 6.35 11.05" fill="none" stroke="#000000" stroke-linecap="round" stroke-linejoin="round" stroke-width="0.05"/>
    <path d="M7.5 -1.5 L6.15 -1.2" fill="none" stroke="#000000" stroke-linecap="round" stroke-linejoin="round" stroke-width="0.05"/>
    <path d="M6.35 -8.3 Q6.35 -7.6 4.45 -7.45 L4.5 -7.3 3.5 -6.35 Q2.9 -6.35 2.7 -6.8 L2.6 -6.75 -3.1 -7.35 Q-2.85 -8.8 -2.45 -8.7 L1.05 -8.5 Q0.6 -9.35 0.45 -10.8 L0.7 -10.95 Q1.4 -10.95 2.65 -7.95 L3.2 -7.85 Q3.3 -8.1 3.65 -8.05 L4.3 -7.85 Q4.65 -7.6 4.8 -8.1 L4.95 -8.65 5.4 -8.7 Q6.45 -8.7 6.35 -8.3" fill="#000000" fill-opacity="0.23137255" fill-rule="evenodd" stroke="none"/>
    <path d="M4.0 -0.95 Q4.8 -1.2 4.2 1.3 3.6 3.8 4.6 5.65 5.55 7.5 5.55 8.05 L5.7 10.45 Q3.35 11.75 -0.3 11.15 L-0.5 6.8 Q-0.5 4.0 0.4 2.05 1.3 0.1 2.25 -0.3 L4.0 -0.95" fill="url(#gradient3)" fill-rule="evenodd" stroke="none"/>
    <path d="M-3.55 5.7 Q-2.8 5.65 -2.15 8.9 L-2.25 9.05 Q-3.3 8.55 -3.85 7.35 -4.4 6.1 -4.15 5.9 L-3.55 5.7" fill="#000000" fill-opacity="0.09019608" fill-rule="evenodd" stroke="none"/>
    <path d="M-3.55 0.4 L-3.6 0.35 -3.55 0.35 -3.55 0.4 M-4.2 -1.5 L-4.15 -1.65 -4.15 -1.55 -4.2 -1.5" fill="url(#gradient4)" fill-rule="evenodd" stroke="none"/>
    <path d="M-3.6 0.35 L-4.55 1.4 -5.4 -0.15 -4.2 -1.5 -4.15 -1.55 -3.55 0.35 -3.6 0.35" fill="url(#gradient5)" fill-rule="evenodd" stroke="none"/>
    <path d="M2.95 0.0 L2.95 0.1 2.75 0.45 2.3 0.95 Q1.15 2.05 -0.45 2.1 L-2.05 1.75 -3.2 0.9 -3.55 0.4 -3.55 0.35 -4.15 -1.55 -4.15 -1.65 -4.15 -1.85 -3.85 -3.4 -3.0 -4.5 -2.85 -4.65 Q-1.75 -5.6 -0.2 -5.6 1.3 -5.65 2.4 -4.55 L2.8 -4.05 3.15 -3.45 2.95 0.0" fill="url(#gradient6)" fill-rule="evenodd" stroke="none"/>
    <path d="M3.15 -3.6 L3.15 -3.65 3.35 -3.8 3.65 -4.3 4.0 -4.7 Q4.8 -5.65 5.65 -5.45 L6.7 -5.05 7.4 -4.3 8.5 -2.35 8.65 -1.5 Q8.65 -0.65 8.1 -0.05 7.2 0.9 6.0 0.9 4.6 0.8 3.7 0.05 L3.2 -0.4 2.95 0.0 3.15 -3.45 3.15 -3.6" fill="url(#gradient7)" fill-rule="evenodd" stroke="none"/>
    <path d="M3.15 -3.6 L3.15 -3.65 3.35 -3.8 M7.4 -4.3 L8.5 -2.35 8.65 -1.5 Q8.65 -0.65 8.1 -0.05 7.2 0.9 6.0 0.9 4.6 0.8 3.7 0.05 L3.2 -0.4 M2.75 0.45 L2.3 0.95 Q1.15 2.05 -0.45 2.1 L-2.05 1.75" fill="none" stroke="#000000" stroke-linecap="round" stroke-linejoin="round" stroke-width="0.05"/>
    <path d="M6.05 -3.05 Q6.05 -1.5 4.7 -1.5 4.0 -1.5 3.75 -1.8 3.4 -2.2 2.75 -2.25 1.65 -2.45 1.65 -3.65 1.65 -5.1 3.35 -5.1 6.05 -5.1 6.05 -3.05" fill="#000000" fill-opacity="0.2509804" fill-rule="evenodd" stroke="none"/>
    <path d="M6.35 11.05 L6.45 11.4 6.45 11.65 6.35 11.05 M6.45 11.85 L6.55 12.45 6.4 12.0 5.65 13.9 Q3.45 19.35 1.9 20.1 -2.3 20.5 -6.7 13.15 L-6.5 11.8 -6.45 11.35 -6.45 11.3 -6.35 11.3 -6.4 11.35 -6.35 11.3 -6.35 11.35 -6.4 11.35 -6.5 11.8 -6.45 11.8 4.35 12.35 6.0 11.95 6.35 11.85 6.45 11.85 6.4 12.0 6.45 11.85" fill="#ffffff" fill-rule="evenodd" stroke="none"/>
    <path d="M5.6 10.3 L6.35 11.05 6.45 11.65 6.45 11.85 6.35 11.85 6.0 11.95 4.35 12.35 -6.45 11.8 -6.5 11.8 -6.4 11.35 -6.35 11.35 Q-0.7 12.35 5.6 10.3" fill="url(#gradient8)" fill-rule="evenodd" stroke="none"/>
    <path d="M7.6 -4.5 L7.6 -5.4 Q10.7 0.9 5.6 0.9 L5.55 0.95 5.35 1.25 Q5.85 -2.5 0.45 1.1 L-0.25 2.7 -4.7 1.25 Q-4.95 -0.6 -5.7 -3.0 -4.3 -4.3 -2.4 -4.55 L-0.15 -4.85 Q5.7 -2.4 7.55 -5.4 L7.6 -4.5" fill="url(#gradient9)" fill-rule="evenodd" stroke="none"/>
    <path d="M4.2 4.95 Q4.15 6.85 4.55 8.2 -0.8 9.1 -5.55 7.55 L-5.15 6.9 -4.75 5.45 Q-0.3 6.5 4.2 4.95" fill="url(#gradient10)" fill-rule="evenodd" stroke="none"/>
    <path d="M-0.25 2.7 L0.45 1.1 Q5.85 -2.5 5.35 1.25 L4.9 2.05 4.65 2.7 Q3.75 3.7 -0.25 2.7" fill="url(#gradient11)" fill-rule="evenodd" stroke="none"/>
    <path d="M-4.7 1.25 L-0.25 2.7 Q3.75 3.7 4.65 2.7 4.2 3.8 4.2 4.95 -0.3 6.5 -4.75 5.45 L-4.6 3.2 -4.7 1.25" fill="url(#gradient12)" fill-rule="evenodd" stroke="none"/>
    <path d="M4.55 8.2 Q4.75 9.05 5.2 9.7 L5.6 10.3 Q-0.7 12.35 -6.35 11.35 L-6.35 11.3 Q-6.45 9.95 -6.0 8.7 L-5.55 7.55 Q-0.8 9.1 4.55 8.2" fill="url(#gradient13)" fill-rule="evenodd" stroke="none"/>
    <path d="M7.6 -4.5 L7.55 -5.4 7.25 -7.55 M-5.7 -3.0 Q-4.95 -0.6 -4.7 1.25 L-4.6 3.2 -4.75 5.45 -5.15 6.9 -5.55 7.55 -6.0 8.7 Q-6.45 9.95 -6.35 11.3 L-6.4 11.35 -6.5 11.8 -6.45 11.35 -6.45 11.3 M5.35 1.25 L5.55 0.95 5.6 0.9 M4.05 -13.5 L0.15 -16.35 M4.65 2.7 Q4.2 3.8 4.2 4.95 4.15 6.85 4.55 8.2 4.75 9.05 5.2 9.7 L5.6 10.3 6.35 11.05 6.45 11.4 6.45 11.65 6.45 11.85 6.35 11.85 6.0 11.95 4.35 12.35 -6.45 11.8 -6.5 11.8 -6.7 13.15 M6.4 12.0 L5.65 13.9 M6.45 11.65 L6.35 11.05 M6.4 12.0 L6.45 11.85 M5.35 1.25 L4.9 2.05 M-5.7 -3.0 L-6.65 -5.45 -6.8 -6.3" fill="none" stroke="#000000" stroke-linecap="round" stroke-linejoin="round" stroke-width="0.05"/>
    <path d="M5.6 0.9 Q10.7 0.9 7.6 -5.4 L7.6 -4.5 M7.55 -5.4 Q5.7 -2.4 -0.15 -4.85 L-2.4 -4.55 Q-4.3 -4.3 -5.7 -3.0 L-6.5 -2.85" fill="none" stroke="#000000" stroke-linecap="round" stroke-linejoin="round" stroke-width="0.05"/>
    <path d="M-6.95 19.7 L-8.65 19.5 Q-7.15 15.35 -6.95 11.5 L-5.25 11.75 -6.95 19.7" fill="url(#gradient14)" fill-rule="evenodd" stroke="none"/>
    <path d="M3.8 18.15 Q1.25 21.1 -2.1 19.55 L-2.5 11.85 0.75 11.4 3.8 18.15" fill="url(#gradient15)" fill-rule="evenodd" stroke="none"/>
    <path d="M3.8 10.35 L5.7 9.4 10.6 14.95 8.95 15.85 3.8 10.35" fill="url(#gradient16)" fill-rule="evenodd" stroke="none"/>
    <path d="M8.95 15.85 Q5.2 16.15 3.8 18.15 L0.75 11.4 3.8 10.35 8.95 15.85" fill="url(#gradient17)" fill-rule="evenodd" stroke="none"/>
    <path d="M-2.1 19.55 L-6.95 19.7 -5.25 11.75 -2.5 11.85 -2.1 19.55" fill="url(#gradient18)" fill-rule="evenodd" stroke="none"/>
    <path d="M3.8 10.35 L5.7 9.4 10.6 14.95 8.95 15.85 Q5.2 16.15 3.8 18.15 1.25 21.1 -2.1 19.55 L-6.95 19.7 -8.65 19.5 Q-7.15 15.35 -6.95 11.5 L-5.25 11.75 -2.5 11.85 0.75 11.4 3.8 10.35" fill="none" stroke="#000000" stroke-linecap="round" stroke-linejoin="round" stroke-width="0.05"/>
    <path d="M3.8 10.35 L8.95 15.85 M3.8 18.15 L0.75 11.4 M-5.25 11.75 L-6.95 19.7 M-2.5 11.85 L-2.1 19.55" fill="none" stroke="#000000" stroke-linecap="round" stroke-linejoin="round" stroke-width="0.05"/>
    <path d="M2.3 -10.95 L4.55 -10.5 5.35 5.5 2.4 8.15 2.3 -10.95" fill="url(#gradient19)" fill-rule="evenodd" stroke="none"/>
    <path d="M4.8 -10.6 L4.55 -10.5 2.3 -10.95 -2.05 -12.3 -0.9 -15.9 5.05 -13.05 5.05 -12.8 4.8 -10.6" fill="url(#gradient20)" fill-rule="evenodd" stroke="none"/>
    <path d="M4.8 -10.6 L5.05 -12.8 M5.05 -13.05 L-0.9 -15.9 -2.05 -12.3 2.3 -10.95 4.55 -10.5 5.35 5.5 2.4 8.15 2.3 -10.95" fill="none" stroke="#000000" stroke-linecap="round" stroke-linejoin="round" stroke-width="0.05"/>
  </g>
  <defs>
    <radialGradient cx="0" cy="0" gradientTransform="matrix(0.0238, 0.0, 0.0, 0.0246, 3.35, 3.55)" gradientUnits="userSpaceOnUse" id="gradient0" r="819.2" spreadMethod="pad">
      <stop offset="0.0" stop-color="#f7c85e"/>
      <stop offset="0.6352941176470588" stop-color="#f79d44"/>
      <stop offset="1.0" stop-color="#f1ad6b"/>
    </radialGradient>
    <radialGradient cx="0" cy="0" gradientTransform="matrix(0.0076, 0.0, 0.0, 0.0079, 1.15, 13.65)" gradientUnits="userSpaceOnUse" id="gradient1" r="819.2" spreadMethod="pad">
      <stop offset="0.0" stop-color="#888888"/>
      <stop offset="0.6666666666666666" stop-color="#000000"/>
      <stop offset="1.0" stop-color="#3c3c3c"/>
    </radialGradient>
    <radialGradient cx="0" cy="0" gradientTransform="matrix(0.0238, 0.0, 0.0, 0.0246, 3.35, 3.55)" gradientUnits="userSpaceOnUse" id="gradient2" r="819.2" spreadMethod="pad">
      <stop offset="0.0" stop-color="#4d4d4d"/>
      <stop offset="0.6196078431372549" stop-color="#0d0d0d"/>
      <stop offset="0.9882352941176471" stop-color="#595959"/>
    </radialGradient>
    <linearGradient gradientTransform="matrix(5.0E-4, -0.0069, 0.004, 3.0E-4, 2.75, 5.75)" gradientUnits="userSpaceOnUse" id="gradient3" spreadMethod="pad" x1="-819.2" x2="819.2">
      <stop offset="0.0" stop-color="#000000" stop-opacity="0.0"/>
      <stop offset="1.0" stop-color="#000000" stop-opacity="0.14117648"/>
    </linearGradient>
    <radialGradient cx="0" cy="0" gradientTransform="matrix(0.0024, 0.0, 0.0, 0.0024, -3.95, 0.9)" gradientUnits="userSpaceOnUse" id="gradient4" r="819.2" spreadMethod="pad">
      <stop offset="0.0" stop-color="#bbbbbb"/>
      <stop offset="0.6666666666666666" stop-color="#444444"/>
      <stop offset="1.0" stop-color="#d5d5d5"/>
    </radialGradient>
    <radialGradient cx="0" cy="0" gradientTransform="matrix(0.0024, 0.0, 0.0, 0.0024, -3.95, 0.9)" gradientUnits="userSpaceOnUse" id="gradient5" r="819.2" spreadMethod="pad">
      <stop offset="0.0" stop-color="#888888"/>
      <stop offset="0.6666666666666666" stop-color="#000000"/>
      <stop offset="1.0" stop-color="#3c3c3c"/>
    </radialGradient>
    <radialGradient cx="0" cy="0" gradientTransform="matrix(0.0085, 0.0, 0.0, 0.0085, 0.55, -4.45)" gradientUnits="userSpaceOnUse" id="gradient6" r="819.2" spreadMethod="pad">
      <stop offset="0.0" stop-color="#4d4d4d"/>
      <stop offset="0.6196078431372549" stop-color="#0d0d0d"/>
      <stop offset="0.9882352941176471" stop-color="#595959"/>
    </radialGradient>
    <radialGradient cx="0" cy="0" gradientTransform="matrix(0.0054, 0.0, 0.0, 0.0065, 5.9, -2.5)" gradientUnits="userSpaceOnUse" id="gradient7" r="819.2" spreadMethod="pad">
      <stop offset="0.0" stop-color="#4d4d4d"/>
      <stop offset="0.6196078431372549" stop-color="#0d0d0d"/>
      <stop offset="0.9882352941176471" stop-color="#595959"/>
    </radialGradient>
    <linearGradient gradientTransform="matrix(0.0079, 0.0, 0.0, 0.0014, -0.05, 11.45)" gradientUnits="userSpaceOnUse" id="gradient8" spreadMethod="pad" x1="-819.2" x2="819.2">
      <stop offset="0.0" stop-color="#f8d88f"/>
      <stop offset="1.0" stop-color="#b19d70"/>
    </linearGradient>
    <radialGradient cx="0" cy="0" gradientTransform="matrix(0.0112, 0.0, 0.0, 0.0112, -0.25, -1.9)" gradientUnits="userSpaceOnUse" id="gradient9" r="819.2" spreadMethod="pad">
      <stop offset="0.0" stop-color="#777777"/>
      <stop offset="1.0" stop-color="#0d0d0d"/>
    </radialGradient>
    <radialGradient cx="0" cy="0" gradientTransform="matrix(0.0068, 0.0, 0.0, 0.0068, -0.15, 7.95)" gradientUnits="userSpaceOnUse" id="gradient10" r="819.2" spreadMethod="pad">
      <stop offset="0.0" stop-color="#777777"/>
      <stop offset="1.0" stop-color="#0d0d0d"/>
    </radialGradient>
    <radialGradient cx="0" cy="0" gradientTransform="matrix(0.0054, 0.0, 0.0, 0.0054, 1.35, 2.3)" gradientUnits="userSpaceOnUse" id="gradient11" r="819.2" spreadMethod="pad">
      <stop offset="0.0" stop-color="#3c3c3c"/>
      <stop offset="1.0" stop-color="#000000"/>
    </radialGradient>
    <radialGradient cx="0" cy="0" gradientTransform="matrix(0.0065, 0.0, 0.0, 0.0065, -0.4, 4.45)" gradientUnits="userSpaceOnUse" id="gradient12" r="819.2" spreadMethod="pad">
      <stop offset="0.0" stop-color="#3c3c3c"/>
      <stop offset="1.0" stop-color="#000000"/>
    </radialGradient>
    <radialGradient cx="0" cy="0" gradientTransform="matrix(0.0084, 0.0, 0.0, 0.0084, 0.25, 9.7)" gradientUnits="userSpaceOnUse" id="gradient13" r="819.2" spreadMethod="pad">
      <stop offset="0.0" stop-color="#3c3c3c"/>
      <stop offset="1.0" stop-color="#000000"/>
    </radialGradient>
    <linearGradient gradientTransform="matrix(0.0011, -0.0049, 0.0011, 2.0E-4, -6.9, 15.6)" gradientUnits="userSpaceOnUse" id="gradient14" spreadMethod="pad" x1="-819.2" x2="819.2">
      <stop offset="0.0" stop-color="#a0458e"/>
      <stop offset="1.0" stop-color="#493f44"/>
    </linearGradient>
    <linearGradient gradientTransform="matrix(-0.0016, -0.0046, 0.0035, -0.0011, -0.45, 15.35)" gradientUnits="userSpaceOnUse" id="gradient15" spreadMethod="pad" x1="-819.2" x2="819.2">
      <stop offset="0.0" stop-color="#a0458e"/>
      <stop offset="1.0" stop-color="#493f44"/>
    </linearGradient>
    <linearGradient gradientTransform="matrix(-0.0034, -0.0034, 0.0011, -9.0E-4, 7.3, 12.6)" gradientUnits="userSpaceOnUse" id="gradient16" spreadMethod="pad" x1="-819.2" x2="819.2">
      <stop offset="0.0" stop-color="#a0458e"/>
      <stop offset="1.0" stop-color="#493f44"/>
    </linearGradient>
    <linearGradient gradientTransform="matrix(-0.0024, -0.0041, 0.003, -0.0016, 4.45, 13.8)" gradientUnits="userSpaceOnUse" id="gradient17" spreadMethod="pad" x1="-819.2" x2="819.2">
      <stop offset="0.0" stop-color="#ca82bc"/>
      <stop offset="1.0" stop-color="#72636b"/>
    </linearGradient>
    <linearGradient gradientTransform="matrix(6.0E-4, -0.005, 0.0029, 3.0E-4, -4.1, 15.9)" gradientUnits="userSpaceOnUse" id="gradient18" spreadMethod="pad" x1="-819.2" x2="819.2">
      <stop offset="0.0" stop-color="#ca82bc"/>
      <stop offset="1.0" stop-color="#72636b"/>
    </linearGradient>
    <radialGradient cx="0" cy="0" gradientTransform="matrix(0.0214, 0.0, 0.0, 0.0214, 3.25, -9.35)" gradientUnits="userSpaceOnUse" id="gradient19" r="819.2" spreadMethod="pad">
      <stop offset="0.0" stop-color="#8e57a8"/>
      <stop offset="1.0" stop-color="#4a3850"/>
    </radialGradient>
    <radialGradient cx="0" cy="0" gradientTransform="matrix(0.0065, 0.0, 0.0, 0.0065, 2.85, -12.05)" gradientUnits="userSpaceOnUse" id="gradient20" r="819.2" spreadMethod="pad">
      <stop offset="0.0" stop-color="#8e57a8"/>
      <stop offset="1.0" stop-color="#4a3850"/>
    </radialGradient>
  </defs>
</svg>
