<?xml version="1.0" encoding="UTF-8" standalone="no"?>
<svg xmlns:ffdec="https://www.free-decompiler.com/flash" xmlns:xlink="http://www.w3.org/1999/xlink" ffdec:objectType="shape" height="18.5px" width="5.55px" xmlns="http://www.w3.org/2000/svg">
  <g transform="matrix(1.0, 0.0, 0.0, 1.0, 2.15, 8.7)">
    <path d="M2.85 1.8 L2.85 2.05 2.55 4.05 2.25 5.6 2.05 6.15 Q1.45 8.2 0.3 9.8 L-0.55 9.4 Q-1.55 8.7 -1.75 7.6 -2.2 6.1 -2.15 4.5 L-2.15 1.1 -2.15 1.05 Q0.55 2.7 2.85 1.8" fill="url(#gradient0)" fill-rule="evenodd" stroke="none"/>
    <path d="M3.25 -5.85 L3.4 -4.25 3.35 -2.75 3.25 -1.15 2.85 1.8 Q0.55 2.7 -2.15 1.05 L-2.1 -2.3 -2.1 -2.55 -2.15 -3.05 -2.1 -4.0 -1.85 -5.6 -1.45 -6.45 -0.6 -7.65 -0.2 -8.25 -0.15 -8.3 0.3 -8.7 1.5 -8.25 1.7 -8.1 2.3 -7.55 Q3.05 -6.65 3.25 -5.85" fill="url(#gradient1)" fill-rule="evenodd" stroke="none"/>
    <path d="M3.25 -5.85 L3.4 -4.25 3.35 -2.75 3.25 -1.15 2.85 1.8 2.85 2.05 2.55 4.05 2.25 5.6 2.05 6.15 Q1.45 8.2 0.3 9.8 L-0.55 9.4 Q-1.55 8.7 -1.75 7.6 -2.2 6.1 -2.15 4.5 L-2.15 1.1 -2.15 1.05 -2.1 -2.3 -2.1 -2.55 -2.15 -3.05 -2.1 -4.0 -1.85 -5.6 M2.85 1.8 Q0.55 2.7 -2.15 1.05" fill="none" stroke="#000000" stroke-linecap="round" stroke-linejoin="round" stroke-width="0.05"/>
  </g>
  <defs>
    <linearGradient gradientTransform="matrix(0.0038, 0.0, 0.0, 0.0115, 0.25, 0.4)" gradientUnits="userSpaceOnUse" id="gradient0" spreadMethod="pad" x1="-819.2" x2="819.2">
      <stop offset="0.0" stop-color="#333333"/>
      <stop offset="1.0" stop-color="#000000"/>
    </linearGradient>
    <radialGradient cx="0" cy="0" gradientTransform="matrix(0.0102, 0.0, 0.0, 0.0102, 0.95, -6.35)" gradientUnits="userSpaceOnUse" id="gradient1" r="819.2" spreadMethod="pad">
      <stop offset="0.0" stop-color="#4d4d4d"/>
      <stop offset="0.6196078431372549" stop-color="#0d0d0d"/>
      <stop offset="0.9882352941176471" stop-color="#595959"/>
    </radialGradient>
  </defs>
</svg>
