<?xml version="1.0" encoding="UTF-8" standalone="no"?>
<svg xmlns:ffdec="https://www.free-decompiler.com/flash" xmlns:xlink="http://www.w3.org/1999/xlink" ffdec:objectType="shape" height="13.25px" width="17.85px" xmlns="http://www.w3.org/2000/svg">
  <g transform="matrix(1.0, 0.0, 0.0, 1.0, 12.5, 6.95)">
    <path d="M-9.95 -1.75 Q-7.45 -4.9 -3.2 -6.95 L-2.4 -6.4 Q-0.6 -5.55 2.65 -6.3 5.15 -2.45 5.35 0.0 1.0 2.85 0.85 6.3 -7.25 5.6 -12.5 2.7 L-11.7 0.9 -11.05 -0.2 -9.25 0.9 Q-5.9 2.5 0.1 3.0 L0.85 1.55 -3.75 0.9 Q-7.7 0.05 -9.95 -1.75" fill="url(#gradient0)" fill-rule="evenodd" stroke="none"/>
    <path d="M-11.05 -0.2 L-9.95 -1.75 Q-7.7 0.05 -3.75 0.9 L0.85 1.55 0.1 3.0 Q-5.9 2.5 -9.25 0.9 L-11.05 -0.2" fill="#b5fe45" fill-rule="evenodd" stroke="none"/>
    <path d="M-9.95 -1.75 Q-7.45 -4.9 -3.2 -6.95 L-2.4 -6.4 Q-0.6 -5.55 2.65 -6.3 5.15 -2.45 5.35 0.0 1.0 2.85 0.85 6.3 -7.25 5.6 -12.5 2.7 L-11.7 0.9 -11.05 -0.2 -9.95 -1.75 Z" fill="none" stroke="#000000" stroke-linecap="round" stroke-linejoin="round" stroke-width="0.05"/>
  </g>
  <defs>
    <radialGradient cx="0" cy="0" gradientTransform="matrix(0.0043, 0.0108, -0.0151, 0.006, -4.45, -0.55)" gradientUnits="userSpaceOnUse" id="gradient0" r="819.2" spreadMethod="pad">
      <stop offset="0.0" stop-color="#39273f"/>
      <stop offset="0.5333333333333333" stop-color="#100a0f"/>
      <stop offset="0.9176470588235294" stop-color="#413d6d"/>
    </radialGradient>
  </defs>
</svg>
