<?xml version="1.0" encoding="UTF-8" standalone="no"?>
<svg xmlns:ffdec="https://www.free-decompiler.com/flash" xmlns:xlink="http://www.w3.org/1999/xlink" ffdec:objectType="shape" height="14.25px" width="10.65px" xmlns="http://www.w3.org/2000/svg">
  <g transform="matrix(1.0, 0.0, 0.0, 1.0, 3.85, 8.35)">
    <path d="M-1.55 -2.0 Q1.6 0.45 5.15 -0.15 L5.35 1.4 4.5 1.5 4.5 1.6 3.7 4.65 -0.6 3.7 -1.05 0.7 -1.3 0.5 -1.45 0.35 -2.3 -1.05 -2.55 -2.55 -2.55 -2.8 -1.55 -2.0 -1.4 -0.95 -0.55 0.2 -1.4 -0.95 -1.55 -2.0" fill="url(#gradient0)" fill-rule="evenodd" stroke="none"/>
    <path d="M-1.55 -2.0 L-1.8 -3.35 5.9 -3.35 5.15 -0.15 Q1.6 0.45 -1.55 -2.0" fill="#000000" fill-rule="evenodd" stroke="none"/>
    <path d="M5.15 -0.15 L5.35 1.4 4.5 1.5 4.5 1.6 3.7 4.65 -0.6 3.7 -1.05 0.7 -1.3 0.5 -1.45 0.35 -2.3 -1.05 -2.55 -2.55 -2.55 -2.8" fill="none" stroke="#000000" stroke-linecap="round" stroke-linejoin="round" stroke-width="0.05"/>
    <path d="M5.15 -0.15 L5.9 -3.35 -1.8 -3.35 -1.55 -2.0 Q1.6 0.45 5.15 -0.15 M-2.55 -2.8 L-1.55 -2.0 -1.4 -0.95 -0.55 0.2" fill="none" stroke="#000000" stroke-linecap="round" stroke-linejoin="round" stroke-width="0.05"/>
    <path d="M-0.6 3.35 Q-1.4 2.25 -2.6 1.35 -3.85 0.4 -3.85 -2.5 -3.9 -5.45 -2.25 -6.9 -0.6 -8.35 1.45 -8.35 3.5 -8.35 5.2 -6.85 6.9 -5.35 6.7 -4.25 L6.45 -3.15 -0.75 -2.2 -0.6 3.35" fill="url(#gradient1)" fill-rule="evenodd" stroke="none"/>
    <path d="M-0.6 3.35 Q-1.4 2.25 -2.6 1.35 -3.85 0.4 -3.85 -2.5 -3.9 -5.45 -2.25 -6.9 -0.6 -8.35 1.45 -8.35 3.5 -8.35 5.2 -6.85 6.9 -5.35 6.7 -4.25 L6.45 -3.15" fill="none" stroke="#000000" stroke-linecap="round" stroke-linejoin="round" stroke-width="0.05"/>
    <path d="M6.45 -3.15 L-0.75 -2.2 -0.6 3.35" fill="none" stroke="#000000" stroke-linecap="round" stroke-linejoin="round" stroke-width="0.05"/>
    <path d="M5.25 5.6 L5.25 5.65 1.8 3.75 Q1.35 1.65 3.25 1.15 L4.4 1.75 4.45 1.8 6.7 3.05 6.65 3.15 6.45 3.0 Q6.15 2.9 5.85 3.25 L5.35 4.25 5.2 5.35 5.25 5.6" fill="url(#gradient2)" fill-rule="evenodd" stroke="none"/>
    <path d="M6.65 3.15 L6.8 3.55 6.65 4.65 6.15 5.6 Q5.85 6.0 5.55 5.9 L5.25 5.6 5.2 5.35 5.35 4.25 5.85 3.25 Q6.15 2.9 6.45 3.0 L6.65 3.15" fill="url(#gradient3)" fill-rule="evenodd" stroke="none"/>
    <path d="M6.65 3.15 L6.8 3.55 6.65 4.65 6.15 5.6 Q5.85 6.0 5.55 5.9 L5.25 5.6 5.25 5.65 1.8 3.75 M4.45 1.8 L6.7 3.05 6.65 3.15 6.45 3.0 Q6.15 2.9 5.85 3.25 L5.35 4.25 5.2 5.35 5.25 5.6" fill="none" stroke="#000000" stroke-linecap="round" stroke-linejoin="round" stroke-width="0.05"/>
    <path d="M4.4 1.75 L4.45 1.8" fill="none" stroke="#000000" stroke-linecap="round" stroke-linejoin="round" stroke-width="0.05"/>
  </g>
  <defs>
    <radialGradient cx="0" cy="0" gradientTransform="matrix(0.0086, 0.0, 0.0, 0.0086, 3.6, 0.45)" gradientUnits="userSpaceOnUse" id="gradient0" r="819.2" spreadMethod="pad">
      <stop offset="0.0" stop-color="#373737"/>
      <stop offset="1.0" stop-color="#000000"/>
    </radialGradient>
    <radialGradient cx="0" cy="0" gradientTransform="matrix(0.0067, 0.0, 0.0, 0.0067, 1.45, -3.25)" gradientUnits="userSpaceOnUse" id="gradient1" r="819.2" spreadMethod="pad">
      <stop offset="0.0" stop-color="#dcc592"/>
      <stop offset="1.0" stop-color="#121218"/>
    </radialGradient>
    <radialGradient cx="0" cy="0" gradientTransform="matrix(0.0041, 0.0, 0.0, 0.0041, 3.35, 3.2)" gradientUnits="userSpaceOnUse" id="gradient2" r="819.2" spreadMethod="pad">
      <stop offset="0.0" stop-color="#373737"/>
      <stop offset="1.0" stop-color="#000000"/>
    </radialGradient>
    <radialGradient cx="0" cy="0" gradientTransform="matrix(0.0028, 0.0, 0.0, 0.0028, 6.55, 4.85)" gradientUnits="userSpaceOnUse" id="gradient3" r="819.2" spreadMethod="pad">
      <stop offset="0.0" stop-color="#373737"/>
      <stop offset="1.0" stop-color="#000000"/>
    </radialGradient>
  </defs>
</svg>
