<?xml version="1.0" encoding="UTF-8" standalone="no"?>
<svg xmlns:ffdec="https://www.free-decompiler.com/flash" xmlns:xlink="http://www.w3.org/1999/xlink" ffdec:objectType="shape" height="30.4px" width="9.3px" xmlns="http://www.w3.org/2000/svg">
  <g transform="matrix(1.0, 0.0, 0.0, 1.0, 4.6, 15.2)">
    <path d="M3.3 -1.45 L3.0 -0.15 2.85 4.95 1.6 13.4 0.15 14.95 Q-0.7 9.65 -1.2 4.15 L-1.65 -1.9 3.3 -1.45 M4.3 -7.8 L4.65 -5.5 4.05 -4.65 4.05 -4.6 -1.8 -5.2 -1.95 -8.3 4.3 -7.8" fill="url(#gradient0)" fill-rule="evenodd" stroke="none"/>
    <path d="M0.15 14.95 L-0.1 15.2 -3.55 13.15 -3.7 0.5 -4.2 -2.45 -1.65 -1.9 -1.2 4.15 Q-0.7 9.65 0.15 14.95 M-4.45 -5.8 L-4.0 -8.75 -1.95 -8.3 -1.8 -5.2 -4.45 -5.8" fill="url(#gradient1)" fill-rule="evenodd" stroke="none"/>
    <path d="M-4.2 -2.45 L-4.6 -4.9 -4.45 -5.8 -1.8 -5.2 -1.65 -1.9 -4.2 -2.45" fill="url(#gradient2)" fill-rule="evenodd" stroke="none"/>
    <path d="M4.05 -4.6 L3.3 -1.45 -1.65 -1.9 -1.8 -5.2 4.05 -4.6" fill="url(#gradient3)" fill-rule="evenodd" stroke="none"/>
    <path d="M-2.0 -14.55 Q0.3 -13.95 2.3 -15.2 L3.85 -11.35 4.3 -7.8 -1.95 -8.3 -2.0 -14.55" fill="url(#gradient4)" fill-rule="evenodd" stroke="none"/>
    <path d="M-4.0 -8.75 L-3.1 -14.5 -3.1 -14.55 -2.75 -14.8 -2.0 -14.55 -1.95 -8.3 -4.0 -8.75" fill="url(#gradient5)" fill-rule="evenodd" stroke="none"/>
    <path d="M4.05 -4.6 L3.3 -1.45 3.0 -0.15 2.85 4.95 1.6 13.4 M-3.55 13.15 L-3.7 0.5 -4.2 -2.45 -4.6 -4.9 -4.45 -5.8 -4.0 -8.75 -3.1 -14.5 -3.1 -14.55 -2.75 -14.8 M2.3 -15.2 L3.85 -11.35 4.3 -7.8 4.65 -5.5 4.05 -4.65 4.05 -4.6 -1.8 -5.2 -4.45 -5.8 M-4.0 -8.75 L-1.95 -8.3 4.3 -7.8" fill="none" stroke="#000000" stroke-linecap="round" stroke-linejoin="round" stroke-width="0.05"/>
    <path d="M-1.65 -1.9 L3.3 -1.45 M-1.65 -1.9 L-4.2 -2.45" fill="none" stroke="#000000" stroke-linecap="round" stroke-linejoin="round" stroke-width="0.05"/>
    <path d="M1.1 -7.2 L2.7 -6.75 2.85 -6.75 3.65 -7.55 3.8 -7.45 3.9 -8.3 4.2 -8.4 4.45 -7.75 4.65 -7.5 4.55 -6.8 4.55 -6.1 4.7 -5.7 Q3.15 -2.0 3.15 0.2 3.25 0.35 2.85 0.35 L2.85 0.9 2.85 1.4 2.9 2.9 2.75 5.55 2.6 5.55 2.35 1.85 2.25 0.75 Q1.45 -1.25 0.6 -4.3 L-0.3 -8.15 -0.3 -8.2 -0.3 -8.25 -0.05 -8.85 0.05 -8.65 1.1 -7.15 1.1 -7.2 M3.75 -7.05 L3.75 -7.1 3.55 -6.85 3.75 -6.95 3.75 -7.05 M2.85 0.3 L2.85 0.35 2.85 0.3" fill="#000000" fill-opacity="0.3019608" fill-rule="evenodd" stroke="none"/>
  </g>
  <defs>
    <radialGradient cx="0" cy="0" gradientTransform="matrix(0.006, 0.0, 0.0, 0.0248, 1.6, -8.65)" gradientUnits="userSpaceOnUse" id="gradient0" r="819.2" spreadMethod="pad">
      <stop offset="0.0" stop-color="#444444"/>
      <stop offset="1.0" stop-color="#000000"/>
    </radialGradient>
    <radialGradient cx="0" cy="0" gradientTransform="matrix(0.008, 0.0, 0.0, 0.0211, -5.75, -1.05)" gradientUnits="userSpaceOnUse" id="gradient1" r="819.2" spreadMethod="pad">
      <stop offset="0.0" stop-color="#444444"/>
      <stop offset="1.0" stop-color="#000000"/>
    </radialGradient>
    <radialGradient cx="0" cy="0" gradientTransform="matrix(0.0043, 0.0, 0.0, 0.0043, -3.95, -4.55)" gradientUnits="userSpaceOnUse" id="gradient2" r="819.2" spreadMethod="pad">
      <stop offset="0.0" stop-color="#6f6f6f"/>
      <stop offset="1.0" stop-color="#1e1e1e"/>
    </radialGradient>
    <radialGradient cx="0" cy="0" gradientTransform="matrix(0.006, 0.0, 0.0, 0.0248, 1.6, -8.65)" gradientUnits="userSpaceOnUse" id="gradient3" r="819.2" spreadMethod="pad">
      <stop offset="0.0" stop-color="#6f6f6f"/>
      <stop offset="1.0" stop-color="#1e1e1e"/>
    </radialGradient>
    <radialGradient cx="0" cy="0" gradientTransform="matrix(0.006, 0.0, 0.0, 0.0248, 1.6, -8.65)" gradientUnits="userSpaceOnUse" id="gradient4" r="819.2" spreadMethod="pad">
      <stop offset="0.0" stop-color="#727667"/>
      <stop offset="1.0" stop-color="#1b2318"/>
    </radialGradient>
    <radialGradient cx="0" cy="0" gradientTransform="matrix(0.008, 0.0, 0.0, 0.0211, -5.75, -1.05)" gradientUnits="userSpaceOnUse" id="gradient5" r="819.2" spreadMethod="pad">
      <stop offset="0.0" stop-color="#727667"/>
      <stop offset="1.0" stop-color="#1b2318"/>
    </radialGradient>
  </defs>
</svg>
