<?xml version="1.0" encoding="UTF-8" standalone="no"?>
<svg xmlns:ffdec="https://www.free-decompiler.com/flash" xmlns:xlink="http://www.w3.org/1999/xlink" ffdec:objectType="shape" height="13.25px" width="17.85px" xmlns="http://www.w3.org/2000/svg">
  <g transform="matrix(1.0, 0.0, 0.0, 1.0, 12.5, 6.95)">
    <path d="M-11.05 -0.2 L-9.95 -1.75 Q-7.45 -4.9 -3.2 -6.95 L-2.4 -6.4 Q-0.6 -5.55 2.65 -6.3 5.15 -2.45 5.35 0.0 1.0 2.85 0.85 6.3 -7.25 5.6 -12.5 2.7 L-11.7 0.9 -11.05 -0.2" fill="url(#gradient0)" fill-rule="evenodd" stroke="none"/>
    <path d="M-11.05 -0.2 L-11.7 0.9 -12.5 2.7 Q-7.25 5.6 0.85 6.3 1.0 2.85 5.35 0.0 5.15 -2.45 2.65 -6.3 -0.6 -5.55 -2.4 -6.4 L-3.2 -6.95 Q-7.45 -4.9 -9.95 -1.75 L-11.05 -0.2 Z" fill="none" stroke="#000000" stroke-linecap="round" stroke-linejoin="round" stroke-width="0.05"/>
    <path d="M-8.35 -2.65 L-7.1 -1.5 Q-6.35 -3.1 -4.8 -4.55 L-3.0 -4.2 Q-4.85 -2.55 -5.75 -0.7 -3.95 0.2 -0.85 0.7 L-2.1 2.55 Q-4.9 1.85 -6.5 0.85 L-7.2 3.6 -8.35 2.65 Q-8.2 1.15 -7.7 -0.05 L-8.9 -1.3 -8.35 -2.65" fill="#ff0000" fill-rule="evenodd" stroke="none"/>
  </g>
  <defs>
    <radialGradient cx="0" cy="0" gradientTransform="matrix(0.0126, 0.0, 0.0, 0.0126, -3.95, -2.4)" gradientUnits="userSpaceOnUse" id="gradient0" r="819.2" spreadMethod="pad">
      <stop offset="0.0" stop-color="#ffffff"/>
      <stop offset="0.5333333333333333" stop-color="#a2b3a6"/>
      <stop offset="0.8823529411764706" stop-color="#adb7a6"/>
    </radialGradient>
  </defs>
</svg>
