<?xml version="1.0" encoding="UTF-8" standalone="no"?>
<svg xmlns:ffdec="https://www.free-decompiler.com/flash" xmlns:xlink="http://www.w3.org/1999/xlink" ffdec:objectType="shape" height="15.35px" width="14.8px" xmlns="http://www.w3.org/2000/svg">
  <g transform="matrix(1.0, 0.0, 0.0, 1.0, 5.95, 7.15)">
    <path d="M5.45 2.1 L5.75 2.3 5.85 2.5 Q6.6 4.7 8.85 6.55 L8.15 8.2 4.7 4.95 -0.55 3.3 -1.5 3.4 Q-2.65 0.6 -5.95 -1.6 -2.85 -3.9 -0.7 -6.75 L-0.7 -6.8 -0.3 -7.15 -0.5 -5.95 -0.65 -4.4 -0.65 -3.25 -0.6 -2.45 -0.6 -2.3 -0.5 -1.85 Q1.8 0.8 5.45 2.1" fill="url(#gradient0)" fill-rule="evenodd" stroke="none"/>
    <path d="M6.25 -0.15 L6.1 0.95 5.5 1.85 5.45 2.1 Q1.8 0.8 -0.5 -1.85 L-0.6 -2.3 6.25 -0.15 M-0.5 -5.95 Q1.7 -7.85 4.65 -6.5 L5.85 -4.85 6.25 -3.3 -0.65 -4.4 -0.5 -5.95" fill="#ffeb3c" fill-rule="evenodd" stroke="none"/>
    <path d="M6.25 -3.3 L6.25 -3.2 6.25 -0.15 -0.6 -2.3 -0.6 -2.45 -0.65 -3.25 -0.65 -4.4 6.25 -3.3" fill="url(#gradient1)" fill-rule="evenodd" stroke="none"/>
    <path d="M6.25 -3.2 L6.25 -0.15 6.1 0.95 5.5 1.85 5.45 2.1 5.75 2.3 5.85 2.5 Q6.6 4.7 8.85 6.55 L8.15 8.2 4.7 4.95 -0.55 3.3 -1.5 3.4 Q-2.65 0.6 -5.95 -1.6 -2.85 -3.9 -0.7 -6.75 L-0.7 -6.8 -0.3 -7.15 -0.5 -5.95 Q1.7 -7.85 4.65 -6.5 L5.85 -4.85 6.25 -3.3 M-0.65 -4.4 L-0.65 -3.25 -0.6 -2.45 M-0.6 -2.3 L-0.5 -1.85 Q1.8 0.8 5.45 2.1 M-0.5 -5.95 L-0.65 -4.4" fill="none" stroke="#000000" stroke-linecap="round" stroke-linejoin="round" stroke-width="0.05"/>
    <path d="M6.25 -3.3 L6.25 -3.2 M6.25 -3.3 L-0.65 -4.4 M-0.6 -2.45 L-0.6 -2.3 6.25 -0.15" fill="none" stroke="#000000" stroke-linecap="round" stroke-linejoin="round" stroke-width="0.05"/>
  </g>
  <defs>
    <radialGradient cx="0" cy="0" gradientTransform="matrix(0.0118, 0.0, 0.0, 0.0118, 0.55, 2.25)" gradientUnits="userSpaceOnUse" id="gradient0" r="819.2" spreadMethod="pad">
      <stop offset="0.0" stop-color="#332f37"/>
      <stop offset="0.0" stop-color="#322e36"/>
      <stop offset="0.5333333333333333" stop-color="#0f0b0b"/>
      <stop offset="0.9176470588235294" stop-color="#5f4b4b"/>
    </radialGradient>
    <linearGradient gradientTransform="matrix(0.0046, 0.0014, -5.0E-4, 0.0018, 2.95, -2.75)" gradientUnits="userSpaceOnUse" id="gradient1" spreadMethod="pad" x1="-819.2" x2="819.2">
      <stop offset="0.0" stop-color="#332f37"/>
      <stop offset="0.0" stop-color="#322e36"/>
      <stop offset="0.5333333333333333" stop-color="#0f0b0b"/>
      <stop offset="0.9176470588235294" stop-color="#5f4b4b"/>
    </linearGradient>
  </defs>
</svg>
