<?xml version="1.0" encoding="UTF-8" standalone="no"?>
<svg xmlns:ffdec="https://www.free-decompiler.com/flash" xmlns:xlink="http://www.w3.org/1999/xlink" ffdec:objectType="shape" height="34.35px" width="24.2px" xmlns="http://www.w3.org/2000/svg">
  <g transform="matrix(1.0, 0.0, 0.0, 1.0, 9.9, 17.9)">
    <path d="M7.85 -7.65 L7.5 -6.95 7.4 -7.8 7.85 -7.65 M-5.85 -4.35 L-6.4 -5.55 -6.15 -5.6 -5.85 -4.35" fill="url(#gradient0)" fill-rule="evenodd" stroke="none"/>
    <path d="M7.5 -6.95 L7.75 -4.2 7.3 -3.3 7.1 -2.95 6.55 -1.7 Q5.65 -2.35 4.65 -2.5 L3.8 -2.6 Q1.2 -2.6 -0.65 0.1 -2.5 2.85 -2.5 6.7 L-2.3 9.05 -4.7 8.75 -5.1 4.45 -4.95 4.45 -4.95 4.4 Q-4.6 -0.75 -5.85 -4.35 L-6.15 -5.6 Q-3.4 -6.7 -2.4 -9.3 -1.95 -10.55 -1.9 -12.15 L-1.9 -12.65 -1.95 -14.05 -1.75 -14.1 -0.05 -16.4 4.4 -13.1 3.35 -12.35 5.4 -11.5 7.4 -7.8 7.5 -6.95" fill="url(#gradient1)" fill-rule="evenodd" stroke="none"/>
    <path d="M4.4 -13.1 L4.65 -13.1 Q9.15 -11.95 9.95 -9.1 L7.85 -7.65 7.4 -7.8 5.4 -11.5 3.35 -12.35 4.4 -13.1" fill="url(#gradient2)" fill-rule="evenodd" stroke="none"/>
    <path d="M6.55 -1.7 L6.55 -1.65 4.95 5.05 5.0 5.05 Q6.0 7.7 5.7 10.05 L-2.3 9.05 -2.5 6.7 Q-2.5 2.85 -0.65 0.1 1.2 -2.6 3.8 -2.6 L4.65 -2.5 Q5.65 -2.35 6.55 -1.7" fill="url(#gradient3)" fill-rule="evenodd" stroke="none"/>
    <path d="M-6.15 -5.6 L-6.2 -5.7 -6.25 -5.7 -9.9 -7.8 Q-9.9 -11.6 -5.2 -13.65 L-1.95 -14.05 -1.9 -12.65 -1.9 -12.15 Q-1.95 -10.55 -2.4 -9.3 -3.4 -6.7 -6.15 -5.6" fill="url(#gradient4)" fill-rule="evenodd" stroke="none"/>
    <path d="M5.7 10.05 L5.8 10.05 5.95 13.05 2.15 16.45 -5.0 12.6 -4.7 8.75 -2.3 9.05 5.7 10.05" fill="url(#gradient5)" fill-rule="evenodd" stroke="none"/>
    <path d="M4.65 -13.1 Q9.15 -11.95 9.95 -9.1 M7.85 -7.65 L7.5 -6.95 7.75 -4.2 7.3 -3.3 7.1 -2.95 6.55 -1.7 6.55 -1.65 4.95 5.05 5.0 5.05 Q6.0 7.7 5.7 10.05 L5.8 10.05 5.95 13.05 M-5.0 12.6 L-4.7 8.75 -5.1 4.45 -5.1 4.4 -4.95 4.45 -4.95 4.4 Q-4.6 -0.75 -5.85 -4.35 L-6.15 -5.6 -6.2 -5.7 -6.25 -5.7 M-9.9 -7.8 Q-9.9 -11.6 -5.2 -13.65 L-1.95 -14.05 -1.75 -14.1 -0.05 -16.4 4.4 -13.1 3.35 -12.35 M7.4 -7.8 L7.5 -6.95 M-4.7 8.75 L-2.3 9.05 5.7 10.05" fill="none" stroke="#000000" stroke-linecap="round" stroke-linejoin="round" stroke-width="0.05"/>
    <path d="M13.9 -8.35 L14.3 -6.75 Q11.15 -3.85 6.35 -3.15 6.2 -6.6 3.6 -9.45 3.7 -11.9 5.25 -15.75 7.7 -14.85 8.8 -16.4 11.9 -13.85 13.45 -9.75 L11.05 -8.3 11.1 -8.2 11.05 -8.2 11.25 -7.55 11.35 -7.05 12.3 -7.55 13.9 -8.35" fill="url(#gradient6)" fill-rule="evenodd" stroke="none"/>
    <path d="M12.3 -7.55 L11.35 -7.05 11.25 -7.55 11.1 -8.2 11.05 -8.3 13.45 -9.75 13.55 -9.8 13.9 -8.45 12.3 -7.55" fill="#ffea33" fill-rule="evenodd" stroke="none"/>
    <path d="M13.45 -9.75 Q11.9 -13.85 8.8 -16.4 7.7 -14.85 5.25 -15.75 3.7 -11.9 3.6 -9.45 6.2 -6.6 6.35 -3.15 11.15 -3.85 14.3 -6.75 L13.9 -8.35 M11.1 -8.2 L11.05 -8.3 M13.45 -9.75 L13.55 -9.8 13.9 -8.45" fill="none" stroke="#000000" stroke-linecap="round" stroke-linejoin="round" stroke-width="0.05"/>
    <path d="M-3.65 -5.25 L-7.0 -8.6 -7.4 -13.7 -6.2 -17.9 -3.2 -17.9 1.75 -12.15 3.8 -12.45 4.9 -17.5 7.4 -17.25 8.85 -8.6 6.95 -6.7 Q5.1 -1.3 -3.65 -5.25" fill="url(#gradient7)" fill-rule="evenodd" stroke="none"/>
    <path d="M6.2 0.2 Q4.75 2.65 5.45 6.7 L1.75 7.1 Q-0.55 4.25 -4.9 3.85 L-4.9 3.7 -5.1 -0.25 -2.15 0.9 Q4.2 -1.65 6.2 0.2" fill="url(#gradient8)" fill-rule="evenodd" stroke="none"/>
    <path d="M6.95 -6.7 Q7.55 -5.2 7.8 -2.85 L7.85 -2.4 7.35 0.15 6.8 0.65 6.6 0.65 6.2 0.2 Q4.2 -1.65 -2.15 0.9 L-5.1 -0.25 -5.55 -0.35 Q-6.2 -1.85 -5.55 -3.45 L-3.65 -5.25 Q5.1 -1.3 6.95 -6.7" fill="url(#gradient9)" fill-rule="evenodd" stroke="none"/>
    <path d="M-3.65 -5.25 L-7.0 -8.6 -7.4 -13.7 -6.2 -17.9 -3.2 -17.9 1.75 -12.15 3.8 -12.45 4.9 -17.5 7.4 -17.25 8.85 -8.6 6.95 -6.7 M7.8 -2.85 L7.85 -2.4 7.35 0.15 6.8 0.65 6.6 0.65 6.2 0.2 Q4.2 -1.65 -2.15 0.9 L-5.1 -0.25 -5.55 -0.35 Q-6.2 -1.85 -5.55 -3.45 M-4.9 3.7 L-5.1 -0.25" fill="none" stroke="#000000" stroke-linecap="round" stroke-linejoin="round" stroke-width="0.05"/>
    <path d="M6.95 -6.7 Q7.55 -5.2 7.8 -2.85 M6.2 0.2 Q4.75 2.65 5.45 6.7 L1.75 7.1 Q-0.55 4.25 -4.9 3.85 L-4.9 3.7 M-5.55 -3.45 L-3.65 -5.25 Q5.1 -1.3 6.95 -6.7" fill="none" stroke="#000000" stroke-linecap="round" stroke-linejoin="round" stroke-width="0.05"/>
    <path d="M7.35 -9.4 Q7.65 -9.7 8.05 -9.7 8.45 -9.7 8.7 -9.4 L9.0 -8.55 8.7 -7.75 Q8.45 -7.4 8.05 -7.4 7.65 -7.4 7.35 -7.75 7.1 -8.05 7.1 -8.55 7.1 -9.05 7.35 -9.4 M1.55 -9.55 L2.0 -8.55 1.55 -7.55 Q1.1 -7.15 0.5 -7.15 -0.1 -7.15 -0.55 -7.55 -1.0 -7.95 -1.0 -8.55 -1.0 -9.15 -0.55 -9.55 -0.1 -9.95 0.5 -9.95 1.1 -9.95 1.55 -9.55 M3.65 -3.45 Q3.35 -3.75 3.35 -4.2 3.35 -4.65 3.65 -4.95 4.0 -5.25 4.5 -5.25 L5.3 -4.95 5.65 -4.2 Q5.65 -3.75 5.3 -3.45 5.0 -3.15 4.5 -3.15 4.0 -3.15 3.65 -3.45" fill="#999999" fill-rule="evenodd" stroke="none"/>
    <path d="M7.35 -9.4 Q7.65 -9.7 8.05 -9.7 8.45 -9.7 8.7 -9.4 L9.0 -8.55 8.7 -7.75 Q8.45 -7.4 8.05 -7.4 7.65 -7.4 7.35 -7.75 7.1 -8.05 7.1 -8.55 7.1 -9.05 7.35 -9.4 M1.55 -9.55 L2.0 -8.55 1.55 -7.55 Q1.1 -7.15 0.5 -7.15 -0.1 -7.15 -0.55 -7.55 -1.0 -7.95 -1.0 -8.55 -1.0 -9.15 -0.55 -9.55 -0.1 -9.95 0.5 -9.95 1.1 -9.95 1.55 -9.55 M3.65 -3.45 Q3.35 -3.75 3.35 -4.2 3.35 -4.65 3.65 -4.95 4.0 -5.25 4.5 -5.25 L5.3 -4.95 5.65 -4.2 Q5.65 -3.75 5.3 -3.45 5.0 -3.15 4.5 -3.15 4.0 -3.15 3.65 -3.45 Z" fill="none" stroke="#000000" stroke-linecap="round" stroke-linejoin="round" stroke-width="0.05"/>
  </g>
  <defs>
    <radialGradient cx="0" cy="0" gradientTransform="matrix(0.0222, 0.0, 0.0, 0.0222, 2.85, -1.75)" gradientUnits="userSpaceOnUse" id="gradient0" r="819.2" spreadMethod="pad">
      <stop offset="0.0" stop-color="#6a7249"/>
      <stop offset="1.0" stop-color="#393a2c"/>
    </radialGradient>
    <radialGradient cx="0" cy="0" gradientTransform="matrix(0.0098, 0.0011, -0.0018, 0.0157, 0.8, -3.65)" gradientUnits="userSpaceOnUse" id="gradient1" r="819.2" spreadMethod="pad">
      <stop offset="0.0" stop-color="#333333"/>
      <stop offset="1.0" stop-color="#000000"/>
    </radialGradient>
    <radialGradient cx="0" cy="0" gradientTransform="matrix(0.0065, 0.0, 0.0, 0.0065, 7.6, -9.15)" gradientUnits="userSpaceOnUse" id="gradient2" r="819.2" spreadMethod="pad">
      <stop offset="0.0" stop-color="#333333"/>
      <stop offset="1.0" stop-color="#000000"/>
    </radialGradient>
    <radialGradient cx="0" cy="0" gradientTransform="matrix(0.0148, 0.0, 0.0, 0.0148, 3.45, 9.45)" gradientUnits="userSpaceOnUse" id="gradient3" r="819.2" spreadMethod="pad">
      <stop offset="0.0" stop-color="#111111"/>
      <stop offset="1.0" stop-color="#000000"/>
    </radialGradient>
    <radialGradient cx="0" cy="0" gradientTransform="matrix(0.0076, 0.0, 0.0, 0.0076, -6.55, -9.95)" gradientUnits="userSpaceOnUse" id="gradient4" r="819.2" spreadMethod="pad">
      <stop offset="0.0" stop-color="#332f37"/>
      <stop offset="0.6352941176470588" stop-color="#0c0d0e"/>
      <stop offset="0.9176470588235294" stop-color="#763469"/>
    </radialGradient>
    <radialGradient cx="0" cy="0" gradientTransform="matrix(0.0117, 0.0, 0.0, 0.0117, -3.3, 13.1)" gradientUnits="userSpaceOnUse" id="gradient5" r="819.2" spreadMethod="pad">
      <stop offset="0.0" stop-color="#a79583"/>
      <stop offset="0.5333333333333333" stop-color="#52615f"/>
      <stop offset="0.9019607843137255" stop-color="#ada38d"/>
    </radialGradient>
    <radialGradient cx="0" cy="0" gradientTransform="matrix(0.01, 0.0, 0.0, 0.01, 6.0, -10.1)" gradientUnits="userSpaceOnUse" id="gradient6" r="819.2" spreadMethod="pad">
      <stop offset="0.0" stop-color="#332f37"/>
      <stop offset="0.5333333333333333" stop-color="#0f0b0b"/>
      <stop offset="0.9176470588235294" stop-color="#5f4b4b"/>
    </radialGradient>
    <radialGradient cx="0" cy="0" gradientTransform="matrix(0.0146, 0.0, 0.0, 0.0146, -2.35, -10.25)" gradientUnits="userSpaceOnUse" id="gradient7" r="819.2" spreadMethod="pad">
      <stop offset="0.0" stop-color="#332f37"/>
      <stop offset="0.5333333333333333" stop-color="#0f0b0b"/>
      <stop offset="0.9176470588235294" stop-color="#5f4b4b"/>
    </radialGradient>
    <radialGradient cx="0" cy="0" gradientTransform="matrix(0.0099, 0.0, 0.0, 0.0099, -0.8, 4.3)" gradientUnits="userSpaceOnUse" id="gradient8" r="819.2" spreadMethod="pad">
      <stop offset="0.0" stop-color="#332f37"/>
      <stop offset="0.5333333333333333" stop-color="#0f0b0b"/>
      <stop offset="0.9176470588235294" stop-color="#5f4b4b"/>
    </radialGradient>
    <radialGradient cx="0" cy="0" gradientTransform="matrix(0.0142, 0.0, 0.0, 0.0142, -2.75, -1.45)" gradientUnits="userSpaceOnUse" id="gradient9" r="819.2" spreadMethod="pad">
      <stop offset="0.0" stop-color="#a79583"/>
      <stop offset="0.5333333333333333" stop-color="#52615f"/>
      <stop offset="0.9019607843137255" stop-color="#ada38d"/>
    </radialGradient>
  </defs>
</svg>
