<?xml version="1.0" encoding="UTF-8" standalone="no"?>
<svg xmlns:ffdec="https://www.free-decompiler.com/flash" xmlns:xlink="http://www.w3.org/1999/xlink" ffdec:objectType="shape" height="7.45px" width="7.9px" xmlns="http://www.w3.org/2000/svg">
  <g transform="matrix(1.0, 0.0, 0.0, 1.0, 2.55, 2.8)">
    <path d="M5.15 -0.15 L5.35 1.4 4.5 1.5 4.5 1.6 3.7 4.65 -0.6 3.7 -1.05 0.7 -1.3 0.5 -1.45 0.35 -2.3 -1.05 -2.55 -2.55 -2.55 -2.8 Q1.05 0.55 5.15 -0.15" fill="url(#gradient0)" fill-rule="evenodd" stroke="none"/>
    <path d="M5.15 -0.15 L5.35 1.4 4.5 1.5 4.5 1.6 3.7 4.65 -0.6 3.7 -1.05 0.7 -1.3 0.5 -1.45 0.35 -2.3 -1.05 -2.55 -2.55 -2.55 -2.8" fill="none" stroke="#000000" stroke-linecap="round" stroke-linejoin="round" stroke-width="0.05"/>
    <path d="M-2.55 -2.8 Q1.05 0.55 5.15 -0.15" fill="none" stroke="#000000" stroke-linecap="round" stroke-linejoin="round" stroke-width="0.05"/>
  </g>
  <defs>
    <radialGradient cx="0" cy="0" gradientTransform="matrix(0.0086, 0.0, 0.0, 0.0086, 3.6, 0.45)" gradientUnits="userSpaceOnUse" id="gradient0" r="819.2" spreadMethod="pad">
      <stop offset="0.0" stop-color="#373737"/>
      <stop offset="1.0" stop-color="#000000"/>
    </radialGradient>
  </defs>
</svg>
