<?xml version="1.0" encoding="UTF-8" standalone="no"?>
<svg xmlns:ffdec="https://www.free-decompiler.com/flash" xmlns:xlink="http://www.w3.org/1999/xlink" ffdec:objectType="shape" height="12.8px" width="9.6px" xmlns="http://www.w3.org/2000/svg">
  <g transform="matrix(1.0, 0.0, 0.0, 1.0, 3.15, 8.15)">
    <path d="M5.0 -1.3 L5.35 1.4 4.5 1.5 4.5 1.6 3.7 4.65 -0.6 3.7 -1.05 0.7 -1.3 0.5 -1.45 0.35 Q-2.55 -0.85 -2.55 -2.55 -2.55 -4.25 -1.45 -5.5 -0.3 -6.7 1.3 -6.7 2.9 -6.7 4.0 -5.5 5.15 -4.25 5.15 -2.55 L5.1 -1.85 5.05 -1.6 5.05 -1.45 5.0 -1.3" fill="url(#gradient0)" fill-rule="evenodd" stroke="none"/>
    <path d="M5.0 -1.3 L5.05 -1.45 5.05 -1.6 5.1 -1.85 5.15 -2.55 Q5.15 -4.25 4.0 -5.5 2.9 -6.7 1.3 -6.7 -0.3 -6.7 -1.45 -5.5 -2.55 -4.25 -2.55 -2.55 -2.55 -0.85 -1.45 0.35 L-1.3 0.5 -1.05 0.7 -0.6 3.7 3.7 4.65 4.5 1.6 4.5 1.5 5.35 1.4 5.0 -1.3 Z" fill="none" stroke="#000000" stroke-linecap="round" stroke-linejoin="round" stroke-width="0.05"/>
    <path d="M2.25 -1.5 L3.35 -1.65 4.2 -1.55 4.35 -1.35 3.3 -0.3 Q2.15 -0.7 2.15 -1.25 L2.25 -1.5" fill="#000000" fill-rule="evenodd" stroke="none"/>
    <path d="M2.2 -7.05 L2.55 -7.1 3.95 -6.75 4.95 -7.05 5.25 -6.65 Q5.25 -6.2 4.5 -5.95 5.7 -5.7 6.45 -4.95 L6.15 -4.65 5.25 -4.85 Q5.15 -4.4 4.65 -4.4 L4.45 -4.55 Q3.65 -3.8 0.25 -3.75 L0.25 -3.65 0.35 -2.3 0.3 -2.25 0.3 -2.1 Q0.0 -1.65 0.0 -1.25 0.0 -0.8 -0.5 -0.75 L-0.45 0.2 -0.75 0.95 -2.25 0.15 -2.1 0.2 -2.05 -0.45 -2.15 -0.15 -2.6 -0.15 -2.7 -0.45 -2.65 -1.35 -2.7 -1.7 -2.9 -2.45 -3.15 -3.45 -3.0 -4.05 -2.9 -4.05 -3.0 -4.35 -2.75 -4.5 -3.15 -5.25 -2.85 -5.55 -2.55 -4.85 -2.4 -5.15 -2.25 -5.15 -2.15 -5.25 -2.1 -5.15 -2.05 -5.1 -1.95 -5.2 -2.25 -6.0 Q-2.25 -6.85 -1.95 -7.05 -1.65 -6.75 -1.55 -5.5 L-1.1 -5.85 -0.6 -6.3 -0.1 -6.85 Q0.95 -8.0 1.5 -8.1 L1.65 -7.9 2.7 -8.15 3.15 -8.1 3.2 -7.8 2.15 -7.05 2.2 -7.05" fill="#27241d" fill-rule="evenodd" stroke="none"/>
  </g>
  <defs>
    <radialGradient cx="0" cy="0" gradientTransform="matrix(0.0101, 0.0, 0.0, 0.0101, 4.7, -2.65)" gradientUnits="userSpaceOnUse" id="gradient0" r="819.2" spreadMethod="pad">
      <stop offset="0.0" stop-color="#ecc48a"/>
      <stop offset="0.7450980392156863" stop-color="#4d452b"/>
      <stop offset="1.0" stop-color="#282332"/>
    </radialGradient>
  </defs>
</svg>
