<?xml version="1.0" encoding="UTF-8" standalone="no"?>
<svg xmlns:ffdec="https://www.free-decompiler.com/flash" xmlns:xlink="http://www.w3.org/1999/xlink" ffdec:objectType="shape" height="32.85px" width="19.85px" xmlns="http://www.w3.org/2000/svg">
  <g transform="matrix(1.0, 0.0, 0.0, 1.0, 9.9, 16.4)">
    <path d="M7.85 -7.65 L7.5 -6.95 7.4 -7.8 7.85 -7.65 M-5.85 -4.35 L-6.4 -5.55 -6.15 -5.6 -5.85 -4.35" fill="url(#gradient0)" fill-rule="evenodd" stroke="none"/>
    <path d="M5.7 10.05 L5.8 10.05 5.95 13.05 2.15 16.45 -5.0 12.6 -4.7 8.75 -2.3 9.05 5.7 10.05" fill="url(#gradient1)" fill-rule="evenodd" stroke="none"/>
    <path d="M-6.15 -5.6 L-6.2 -5.7 -6.25 -5.7 -9.9 -7.8 Q-9.9 -11.6 -5.2 -13.65 L-1.95 -14.05 -1.9 -12.65 -1.9 -12.15 Q-1.95 -10.55 -2.4 -9.3 -3.4 -6.7 -6.15 -5.6" fill="url(#gradient2)" fill-rule="evenodd" stroke="none"/>
    <path d="M7.5 -6.95 L7.75 -4.2 7.3 -3.3 7.1 -2.95 6.55 -1.7 Q5.65 -2.35 4.65 -2.5 L3.8 -2.6 Q1.2 -2.6 -0.65 0.1 -2.5 2.85 -2.5 6.7 L-2.3 9.05 -4.7 8.75 -5.1 4.45 -4.95 4.45 -4.95 4.4 Q-4.6 -0.75 -5.85 -4.35 L-6.15 -5.6 Q-3.4 -6.7 -2.4 -9.3 -1.95 -10.55 -1.9 -12.15 L-1.9 -12.65 -1.95 -14.05 -1.75 -14.1 -0.05 -16.4 4.4 -13.1 3.35 -12.35 5.4 -11.5 7.4 -7.8 7.5 -6.95" fill="url(#gradient3)" fill-rule="evenodd" stroke="none"/>
    <path d="M6.55 -1.7 L6.55 -1.65 4.95 5.05 5.0 5.05 Q6.0 7.7 5.7 10.05 L-2.3 9.05 -2.5 6.7 Q-2.5 2.85 -0.65 0.1 1.2 -2.6 3.8 -2.6 L4.65 -2.5 Q5.65 -2.35 6.55 -1.7" fill="url(#gradient4)" fill-rule="evenodd" stroke="none"/>
    <path d="M4.4 -13.1 L4.65 -13.1 Q9.15 -11.95 9.95 -9.1 L7.85 -7.65 7.4 -7.8 5.4 -11.5 3.35 -12.35 4.4 -13.1" fill="url(#gradient5)" fill-rule="evenodd" stroke="none"/>
    <path d="M4.65 -13.1 Q9.15 -11.95 9.95 -9.1 M7.85 -7.65 L7.5 -6.95 7.75 -4.2 7.3 -3.3 7.1 -2.95 6.55 -1.7 6.55 -1.65 4.95 5.05 5.0 5.05 Q6.0 7.7 5.7 10.05 L5.8 10.05 5.95 13.05 M-5.0 12.6 L-4.7 8.75 -5.1 4.45 -5.1 4.4 -4.95 4.45 -4.95 4.4 Q-4.6 -0.75 -5.85 -4.35 L-6.15 -5.6 -6.2 -5.7 -6.25 -5.7 M-9.9 -7.8 Q-9.9 -11.6 -5.2 -13.65 L-1.95 -14.05 -1.75 -14.1 -0.05 -16.4 4.4 -13.1 3.35 -12.35 M7.4 -7.8 L7.5 -6.95 M-2.3 9.05 L5.7 10.05 M-2.3 9.05 L-4.7 8.75" fill="none" stroke="#000000" stroke-linecap="round" stroke-linejoin="round" stroke-width="0.05"/>
    <path d="M-1.25 8.0 L-5.4 7.1 -5.8 -4.05 -5.1 -2.4 Q-4.2 -7.35 -5.75 -13.1 -5.35 -14.0 -1.9 -14.0 L0.65 -8.35 5.3 -8.5 6.0 -12.3 Q7.5 -12.55 9.0 -10.45 L7.4 -7.15 7.7 -3.5 7.45 -2.3 Q5.9 -3.9 3.9 -3.9 1.45 -3.9 -0.3 -1.55 -2.0 0.8 -2.0 4.1 -2.0 6.25 -1.25 8.0" fill="url(#gradient6)" fill-rule="evenodd" stroke="none"/>
    <path d="M-1.25 8.0 Q-2.0 6.25 -2.0 4.1 -2.0 0.8 -0.3 -1.55 1.45 -3.9 3.9 -3.9 5.9 -3.9 7.45 -2.3 L5.7 4.75 6.35 7.75 -1.25 8.0" fill="url(#gradient7)" fill-rule="evenodd" stroke="none"/>
    <path d="M7.45 -2.3 L7.7 -3.5 7.4 -7.15 9.0 -10.45 Q7.5 -12.55 6.0 -12.3 L5.3 -8.5 0.65 -8.35 -1.9 -14.0 Q-5.35 -14.0 -5.75 -13.1 -4.2 -7.35 -5.1 -2.4 L-5.8 -4.05 -5.4 7.1 -1.25 8.0 6.35 7.75 5.7 4.75 7.45 -2.3 Z" fill="none" stroke="#000000" stroke-linecap="round" stroke-linejoin="round" stroke-width="0.05"/>
    <path d="M4.3 -5.9 L5.2 -3.45 4.75 -3.45 4.55 -4.0 3.65 -4.0 3.45 -3.45 2.95 -3.45 3.85 -5.9 4.3 -5.9 M4.4 -4.45 L4.1 -5.35 3.75 -4.45 4.4 -4.45 M0.5 -5.9 L0.8 -4.25 1.2 -5.9 1.75 -5.9 2.15 -4.2 2.5 -5.9 2.95 -5.9 2.4 -3.45 1.95 -3.45 1.5 -5.3 1.05 -3.45 0.55 -3.45 0.05 -5.9 0.5 -5.9 M5.95 -5.5 L5.3 -5.5 5.3 -5.9 7.1 -5.9 7.1 -5.5 6.45 -5.5 6.45 -3.45 5.95 -3.45 5.95 -5.5 M-0.2 -5.2 L-0.65 -5.2 -0.8 -5.45 -1.1 -5.55 -1.4 -5.45 -1.45 -5.3 -1.4 -5.15 -0.95 -5.0 -0.5 -4.8 -0.25 -4.55 -0.15 -4.15 -0.25 -3.8 -0.55 -3.5 -1.05 -3.45 -1.7 -3.65 -1.95 -4.25 -1.55 -4.3 -1.35 -3.95 -1.05 -3.85 -0.7 -3.95 -0.6 -4.15 -0.65 -4.3 -0.8 -4.45 -1.15 -4.55 -1.7 -4.75 -1.9 -5.25 -1.8 -5.6 -1.5 -5.85 -1.05 -5.95 -0.45 -5.75 -0.2 -5.2" fill="#ffffff" fill-rule="evenodd" stroke="none"/>
    <path d="M6.95 13.25 L6.95 10.1 6.05 10.1 6.05 8.8 7.6 8.8 7.6 13.25 6.95 13.25" fill="url(#gradient8)" fill-rule="evenodd" stroke="none"/>
    <path d="M6.05 10.1 L6.95 10.1 6.95 13.25 6.95 14.55 2.8 14.55 2.8 10.1 6.05 10.1" fill="url(#gradient9)" fill-rule="evenodd" stroke="none"/>
    <path d="M1.6 14.95 L-1.3 14.95 -1.3 9.7 1.6 9.7 1.6 14.95" fill="url(#gradient10)" fill-rule="evenodd" stroke="none"/>
    <path d="M-2.7 9.05 L-2.7 14.4 -5.75 14.4 -5.75 9.05 -2.7 9.05" fill="url(#gradient11)" fill-rule="evenodd" stroke="none"/>
    <path d="M6.95 13.25 L6.95 10.1 6.05 10.1 2.8 10.1 2.8 14.55 6.95 14.55 6.95 13.25 7.6 13.25 7.6 8.8 6.05 8.8 6.05 10.1 M1.6 14.95 L-1.3 14.95 -1.3 9.7 1.6 9.7 1.6 14.95 M-2.7 9.05 L-2.7 14.4 -5.75 14.4 -5.75 9.05 -2.7 9.05" fill="none" stroke="#000000" stroke-linecap="round" stroke-linejoin="round" stroke-width="0.05"/>
    <path d="M5.05 0.8 L5.05 6.85 1.65 6.85 1.65 0.8 5.05 0.8 M-0.7 0.55 L-0.7 5.8 -4.35 5.8 -4.35 0.55 -0.7 0.55 Z" fill="none" stroke="#000000" stroke-linecap="round" stroke-linejoin="round" stroke-width="0.05"/>
  </g>
  <defs>
    <radialGradient cx="0" cy="0" gradientTransform="matrix(0.0222, 0.0, 0.0, 0.0222, 2.85, -1.75)" gradientUnits="userSpaceOnUse" id="gradient0" r="819.2" spreadMethod="pad">
      <stop offset="0.0" stop-color="#6a7249"/>
      <stop offset="1.0" stop-color="#393a2c"/>
    </radialGradient>
    <radialGradient cx="0" cy="0" gradientTransform="matrix(0.0076, 0.0, 0.0, 0.0076, 0.4, 10.45)" gradientUnits="userSpaceOnUse" id="gradient1" r="819.2" spreadMethod="pad">
      <stop offset="0.0" stop-color="#404040"/>
      <stop offset="1.0" stop-color="#000000"/>
    </radialGradient>
    <radialGradient cx="0" cy="0" gradientTransform="matrix(0.0076, 0.0, 0.0, 0.0076, -6.55, -9.95)" gradientUnits="userSpaceOnUse" id="gradient2" r="819.2" spreadMethod="pad">
      <stop offset="0.0" stop-color="#51638c"/>
      <stop offset="1.0" stop-color="#171625"/>
    </radialGradient>
    <radialGradient cx="0" cy="0" gradientTransform="matrix(0.0098, 0.0011, -0.0018, 0.0157, 0.8, -3.65)" gradientUnits="userSpaceOnUse" id="gradient3" r="819.2" spreadMethod="pad">
      <stop offset="0.0" stop-color="#51638c"/>
      <stop offset="1.0" stop-color="#171625"/>
    </radialGradient>
    <radialGradient cx="0" cy="0" gradientTransform="matrix(0.0148, 0.0, 0.0, 0.0148, 3.45, 9.45)" gradientUnits="userSpaceOnUse" id="gradient4" r="819.2" spreadMethod="pad">
      <stop offset="0.0" stop-color="#51638c"/>
      <stop offset="1.0" stop-color="#171625"/>
    </radialGradient>
    <radialGradient cx="0" cy="0" gradientTransform="matrix(0.0065, 0.0, 0.0, 0.0065, 7.6, -9.15)" gradientUnits="userSpaceOnUse" id="gradient5" r="819.2" spreadMethod="pad">
      <stop offset="0.0" stop-color="#51638c"/>
      <stop offset="1.0" stop-color="#171625"/>
    </radialGradient>
    <radialGradient cx="0" cy="0" gradientTransform="matrix(0.0156, 0.0, 0.0, 0.0156, 1.6, -2.85)" gradientUnits="userSpaceOnUse" id="gradient6" r="819.2" spreadMethod="pad">
      <stop offset="0.0" stop-color="#333333"/>
      <stop offset="1.0" stop-color="#000000"/>
    </radialGradient>
    <radialGradient cx="0" cy="0" gradientTransform="matrix(0.0141, 0.0, 0.0, 0.0141, 4.2, 6.8)" gradientUnits="userSpaceOnUse" id="gradient7" r="819.2" spreadMethod="pad">
      <stop offset="0.0" stop-color="#262626"/>
      <stop offset="1.0" stop-color="#0d0d0d"/>
    </radialGradient>
    <radialGradient cx="0" cy="0" gradientTransform="matrix(0.0042, 0.0, 0.0, 0.0042, 6.75, 9.9)" gradientUnits="userSpaceOnUse" id="gradient8" r="819.2" spreadMethod="pad">
      <stop offset="0.0" stop-color="#262626"/>
      <stop offset="1.0" stop-color="#0d0d0d"/>
    </radialGradient>
    <radialGradient cx="0" cy="0" gradientTransform="matrix(0.0049, 0.0, 0.0, 0.0049, 4.15, 11.6)" gradientUnits="userSpaceOnUse" id="gradient9" r="819.2" spreadMethod="pad">
      <stop offset="0.0" stop-color="#262626"/>
      <stop offset="1.0" stop-color="#0d0d0d"/>
    </radialGradient>
    <radialGradient cx="0" cy="0" gradientTransform="matrix(0.0063, 0.0, 0.0, 0.0063, -0.7, 10.3)" gradientUnits="userSpaceOnUse" id="gradient10" r="819.2" spreadMethod="pad">
      <stop offset="0.0" stop-color="#262626"/>
      <stop offset="1.0" stop-color="#0d0d0d"/>
    </radialGradient>
    <radialGradient cx="0" cy="0" gradientTransform="matrix(0.0059, 0.0, 0.0, 0.0059, -4.25, 9.8)" gradientUnits="userSpaceOnUse" id="gradient11" r="819.2" spreadMethod="pad">
      <stop offset="0.0" stop-color="#262626"/>
      <stop offset="1.0" stop-color="#0d0d0d"/>
    </radialGradient>
  </defs>
</svg>
