<?xml version="1.0" encoding="UTF-8" standalone="no"?>
<svg xmlns:ffdec="https://www.free-decompiler.com/flash" xmlns:xlink="http://www.w3.org/1999/xlink" ffdec:objectType="shape" height="19.65px" width="7.15px" xmlns="http://www.w3.org/2000/svg">
  <g transform="matrix(1.0, 0.0, 0.0, 1.0, 3.55, 9.8)">
    <path d="M2.2 6.95 Q1.6 8.65 0.45 9.85 L0.4 9.85 -0.5 9.5 Q-1.55 9.05 -1.9 8.15 -2.5 6.85 -2.6 5.5 L-2.95 2.25 Q-3.1 0.25 -3.4 -1.6 L-3.5 -2.25 Q0.25 0.1 0.3 2.45 1.05 4.8 2.2 6.95" fill="url(#gradient0)" fill-rule="evenodd" stroke="none"/>
    <path d="M3.55 -4.95 L3.55 -3.1 3.4 0.3 2.95 3.4 2.6 5.2 2.3 6.5 2.2 6.95 Q1.05 4.8 0.3 2.45 0.25 0.1 -3.5 -2.25 -3.65 -3.6 -3.4 -5.2 L-3.35 -5.7 Q-3.2 -7.1 -2.6 -7.9 L-2.2 -8.65 -1.8 -9.05 -1.35 -9.3 -0.5 -9.65 Q1.35 -10.15 3.3 -8.95 L3.45 -6.75 3.55 -4.95" fill="url(#gradient1)" fill-rule="evenodd" stroke="none"/>
    <path d="M3.55 -4.95 L3.55 -3.1 3.4 0.3 2.95 3.4 2.6 5.2 2.3 6.5 2.2 6.95 Q1.6 8.65 0.45 9.85 L0.4 9.85 -0.5 9.5 Q-1.55 9.05 -1.9 8.15 -2.5 6.85 -2.6 5.5 L-2.95 2.25 Q-3.1 0.25 -3.4 -1.6 L-3.5 -2.25 Q-3.65 -3.6 -3.4 -5.2" fill="none" stroke="#000000" stroke-linecap="round" stroke-linejoin="round" stroke-width="0.05"/>
    <path d="M1.55 -4.55 Q1.7 -5.1 2.5 -5.1 3.0 -5.1 3.25 -4.65 L2.25 -4.85 Q1.75 -4.85 1.55 -4.55 M1.05 -1.75 L1.05 -1.85 Q1.25 -2.6 0.5 -2.6 0.05 -2.6 0.0 -2.1 0.0 -2.7 0.65 -2.7 1.25 -2.7 1.25 -2.2 L1.05 -1.75" fill="#4d2b2b" fill-opacity="0.2627451" fill-rule="evenodd" stroke="none"/>
    <path d="M3.25 -4.65 L3.6 -4.1 Q3.6 -3.15 2.5 -3.0 L2.4 -3.0 2.3 -3.0 2.1 -3.0 Q1.45 -3.0 1.35 -3.8 L1.55 -4.55 Q1.75 -4.85 2.25 -4.85 L3.25 -4.65 M0.35 -5.7 L0.45 -5.4 -0.2 -4.8 -0.6 -4.95 -0.65 -5.15 Q-0.65 -5.95 0.0 -5.75 L0.35 -5.7 M0.0 -2.1 Q0.05 -2.6 0.5 -2.6 1.25 -2.6 1.05 -1.85 L1.05 -1.75 0.75 -1.05 Q0.0 -1.3 0.0 -1.95 L0.0 -2.05 0.0 -2.1 M2.75 1.25 L2.7 1.5 Q2.85 1.65 2.45 1.65 1.8 1.65 1.8 1.05 1.8 0.65 2.25 0.65 2.7 0.65 2.75 1.25" fill="#5b2424" fill-rule="evenodd" stroke="none"/>
    <path d="M3.4 -6.45 L3.4 1.3 0.65 1.4 -0.55 0.4 -3.3 -0.05 -3.3 -1.85 -3.3 -2.0 Q1.55 -3.5 3.4 -6.45" fill="url(#gradient2)" fill-rule="evenodd" stroke="none"/>
    <path d="M-3.3 -1.85 L-3.3 -2.0 Q1.55 -3.5 3.4 -6.45" fill="none" stroke="#000000" stroke-linecap="round" stroke-linejoin="round" stroke-width="0.05"/>
    <path d="M3.4 -6.45 L3.4 1.3 0.65 1.4 -0.55 0.4 -3.3 -0.05 -3.3 -1.85" fill="none" stroke="#000000" stroke-linecap="round" stroke-linejoin="round" stroke-width="0.05"/>
  </g>
  <defs>
    <radialGradient cx="0" cy="0" gradientTransform="matrix(0.0058, -0.0013, 0.0042, 0.0186, -4.85, 0.0)" gradientUnits="userSpaceOnUse" id="gradient0" r="819.2" spreadMethod="pad">
      <stop offset="0.0" stop-color="#ba3434"/>
      <stop offset="0.49019607843137253" stop-color="#302b25"/>
      <stop offset="0.6784313725490196" stop-color="#261515"/>
      <stop offset="1.0" stop-color="#36251f"/>
    </radialGradient>
    <radialGradient cx="0" cy="0" gradientTransform="matrix(0.0062, -8.0E-4, 0.0016, 0.0128, 0.3, -7.9)" gradientUnits="userSpaceOnUse" id="gradient1" r="819.2" spreadMethod="pad">
      <stop offset="0.0" stop-color="#db5757"/>
      <stop offset="0.49019607843137253" stop-color="#774d4d"/>
      <stop offset="0.6784313725490196" stop-color="#784343"/>
      <stop offset="1.0" stop-color="#36251f"/>
    </radialGradient>
    <radialGradient cx="0" cy="0" gradientTransform="matrix(0.0069, 0.0, 0.0, 0.0069, 0.15, -1.8)" gradientUnits="userSpaceOnUse" id="gradient2" r="819.2" spreadMethod="pad">
      <stop offset="0.0" stop-color="#aa9f91"/>
      <stop offset="0.3803921568627451" stop-color="#a5c0bf"/>
      <stop offset="1.0" stop-color="#719b9f"/>
    </radialGradient>
  </defs>
</svg>
