<?xml version="1.0" encoding="UTF-8" standalone="no"?>
<svg xmlns:ffdec="https://www.free-decompiler.com/flash" xmlns:xlink="http://www.w3.org/1999/xlink" ffdec:objectType="shape" height="21.05px" width="12.3px" xmlns="http://www.w3.org/2000/svg">
  <g transform="matrix(1.0, 0.0, 0.0, 1.0, 5.75, 10.05)">
    <path d="M4.5 -7.25 L5.55 -6.8 6.0 -5.75 Q6.0 -5.15 5.55 -4.7 5.1 -4.25 4.5 -4.25 3.9 -4.25 3.45 -4.7 3.0 -5.15 3.0 -5.75 3.0 -6.35 3.45 -6.8 3.9 -7.25 4.5 -7.25 M3.85 -0.45 Q3.85 1.0 2.8 2.05 1.75 3.1 0.3 3.1 -1.15 3.1 -2.2 2.05 -3.25 1.0 -3.25 -0.45 -3.25 -1.9 -2.2 -2.95 -1.15 -4.0 0.3 -4.0 1.75 -4.0 2.8 -2.95 3.85 -1.9 3.85 -0.45 M2.0 10.2 Q1.25 9.45 1.25 8.35 1.25 7.25 2.0 6.45 2.8 5.7 3.9 5.7 5.0 5.7 5.75 6.45 6.55 7.25 6.55 8.35 6.55 9.45 5.75 10.2 5.0 11.0 3.9 11.0 2.8 11.0 2.0 10.2 M-2.85 -9.55 Q-2.35 -9.05 -2.35 -8.35 -2.35 -7.65 -2.85 -7.15 -3.35 -6.65 -4.05 -6.65 -4.75 -6.65 -5.25 -7.15 -5.75 -7.65 -5.75 -8.35 -5.75 -9.05 -5.25 -9.55 -4.75 -10.05 -4.05 -10.05 -3.35 -10.05 -2.85 -9.55 M-2.45 9.8 Q-2.95 10.35 -3.7 10.35 -4.45 10.35 -5.0 9.8 -5.5 9.3 -5.5 8.55 -5.5 7.8 -5.0 7.25 -4.45 6.75 -3.7 6.75 -2.95 6.75 -2.45 7.25 -1.9 7.8 -1.9 8.55 -1.9 9.3 -2.45 9.8" fill="#000000" fill-opacity="0.8" fill-rule="evenodd" stroke="none"/>
  </g>
</svg>
