<?xml version="1.0" encoding="UTF-8" standalone="no"?>
<svg xmlns:ffdec="https://www.free-decompiler.com/flash" xmlns:xlink="http://www.w3.org/1999/xlink" ffdec:objectType="shape" height="21.9px" width="11.9px" xmlns="http://www.w3.org/2000/svg">
  <g transform="matrix(1.0, 0.0, 0.0, 1.0, 5.95, 10.95)">
    <path d="M2.4 -2.45 Q2.4 -3.4 1.6 -4.1 0.85 -4.8 -0.25 -4.8 -1.35 -4.8 -2.15 -4.1 -2.9 -3.4 -2.9 -2.45 -2.9 -1.5 -2.15 -0.8 -1.35 -0.1 -0.25 -0.1 0.85 -0.1 1.6 -0.8 2.4 -1.5 2.4 -2.45 M3.15 -10.95 L2.9 -9.8 Q2.9 -8.6 3.8 -7.75 4.7 -6.95 5.95 -6.9 L5.95 1.85 4.2 1.7 Q0.7 1.7 -1.75 3.9 -4.2 6.15 -4.2 9.3 L-4.0 10.95 -5.95 10.95 -5.95 -7.15 -4.55 -6.9 Q-2.75 -6.9 -1.5 -8.3 -0.45 -9.45 -0.25 -10.95 L3.15 -10.95" fill="#000000" fill-opacity="0.9019608" fill-rule="evenodd" stroke="none"/>
  </g>
</svg>
