<?xml version="1.0" encoding="UTF-8" standalone="no"?>
<svg xmlns:ffdec="https://www.free-decompiler.com/flash" xmlns:xlink="http://www.w3.org/1999/xlink" ffdec:objectType="shape" height="57.75px" width="52.9px" xmlns="http://www.w3.org/2000/svg">
  <g transform="matrix(1.0, 0.0, 0.0, 1.0, 34.1, 31.25)">
    <path d="M5.0 -4.7 Q7.0 -2.8 7.0 0.0 7.0 2.75 5.0 4.7 2.9 6.6 0.0 6.65 -2.9 6.6 -4.95 4.7 -7.0 2.75 -7.0 0.0 -7.0 -2.8 -4.95 -4.7 -2.9 -6.65 0.0 -6.65 2.9 -6.65 5.0 -4.7" fill="#ffffff" fill-rule="evenodd" stroke="none"/>
    <path d="M0.8 -29.6 Q-2.25 -28.1 -2.25 -19.15 -2.25 -16.3 -1.5 -11.8 L-1.05 -8.95 1.65 -8.05 -0.95 -8.1 -0.75 -5.65 Q-0.75 -3.4 -1.55 -1.75 L3.25 -1.55 4.3 -2.15 2.05 -2.25 Q2.05 -2.85 5.8 -3.05 L7.5 -4.1 Q8.05 -4.6 8.05 -3.35 L8.0 -3.1 10.5 -3.1 Q12.5 -3.4 15.2 -1.55 L15.5 -1.35 16.05 -1.35 13.65 -3.6 18.8 -1.25 17.3 0.4 17.75 1.65 Q17.75 3.35 9.8 4.9 11.4 6.95 12.85 9.7 16.7 17.1 18.05 26.05 L17.8 26.5 Q14.3 23.9 5.95 14.35 L4.8 13.05 -1.0 19.5 Q-1.85 19.15 -1.85 17.85 -1.85 15.4 -0.35 14.0 L0.05 13.8 Q-0.05 14.55 -1.25 17.55 L-1.0 17.75 3.85 11.95 -0.7 6.45 -0.85 6.5 -0.25 7.45 1.55 10.8 1.5 11.05 Q0.35 10.45 -1.9 6.6 L-3.25 6.75 -3.35 6.3 -2.25 6.0 Q-3.65 6.0 -9.1 8.55 L-13.2 10.35 -33.5 21.5 Q-34.1 22.25 -34.1 21.0 -34.1 17.25 -29.15 14.5 -27.5 13.6 -19.55 10.65 -23.2 10.0 -28.5 8.35 L-28.5 8.3 -27.95 7.4 -20.65 9.8 -16.7 9.6 Q-10.4 7.05 -7.3 4.55 -4.65 2.35 -3.4 -0.35 L-14.25 -0.6 Q-14.7 -0.6 -18.5 1.6 -21.15 2.7 -24.25 3.25 L-26.5 3.55 -27.6 3.65 Q-27.85 2.8 -28.45 1.9 L-26.95 2.2 Q-16.75 1.8 -16.75 -1.85 L-5.1 -2.0 Q-10.85 -3.7 -16.15 -6.9 -21.35 -10.1 -21.35 -11.9 L-21.25 -12.5 -20.5 -12.85 Q-13.85 -12.85 -2.7 -9.45 L-3.05 -11.5 Q-3.75 -15.15 -3.75 -19.3 -3.75 -31.25 0.0 -31.25 3.1 -31.25 2.75 -27.75 2.75 -26.25 1.8 -21.15 0.9 -16.3 1.0 -15.0 -0.75 -15.3 -0.75 -17.05 L1.25 -27.75 1.05 -29.25 0.8 -29.6 M8.0 -1.25 L12.65 -1.3 6.9 -2.0 6.1 -1.35 8.0 -1.25 M-17.0 -9.5 L-9.65 -5.65 Q-3.9 -2.65 -4.0 -1.85 L-2.9 -1.8 Q-2.35 -3.6 -2.35 -5.6 L-2.5 -8.1 -7.5 -8.1 Q-9.35 -8.1 -17.1 -9.6 L-17.0 -9.5 M-2.45 -0.35 L-4.0 2.3 -4.0 2.5 0.0 0.3 -0.75 -0.25 -2.45 -0.35 M-1.5 4.0 L0.6 5.3 4.85 4.25 Q3.35 2.95 1.65 1.6 L-7.6 7.15 Q-2.85 5.25 -2.1 5.25 -1.8 5.25 -1.35 5.8 L-1.25 5.75 -2.0 4.5 -1.5 4.0 M-12.25 8.75 L-10.55 8.25 -10.25 8.0 -10.6 8.0 Q-11.65 8.0 -12.25 8.75 M-28.7 1.6 L-30.05 0.25 -18.85 -0.1 Q-22.1 1.85 -27.35 1.65 L-28.7 1.6 M-31.0 18.55 Q-21.35 13.9 -20.1 12.25 -21.5 12.5 -25.65 14.9 -29.65 17.2 -30.75 18.3 L-31.0 18.55 M16.0 1.55 L15.55 1.85 16.05 1.75 16.0 1.55 M5.8 0.05 L4.2 -0.05 3.95 0.15 Q6.35 1.15 8.5 3.4 L12.25 2.55 9.9 1.25 Q8.0 0.25 5.8 0.05 M4.55 11.1 L7.8 6.9 6.3 5.5 0.6 6.3 Q2.2 8.4 4.55 11.1 M5.5 12.2 L16.3 24.0 16.5 24.0 Q18.15 17.2 8.65 7.75 L5.5 12.2" fill="#ffffff" fill-rule="evenodd" stroke="none"/>
  </g>
</svg>
