<?xml version="1.0" encoding="UTF-8" standalone="no"?>
<svg xmlns:ffdec="https://www.free-decompiler.com/flash" xmlns:xlink="http://www.w3.org/1999/xlink" ffdec:objectType="shape" height="64.85px" width="79.6px" xmlns="http://www.w3.org/2000/svg">
  <g transform="matrix(1.0, 0.0, 0.0, 1.0, 39.05, 27.6)">
    <path d="M16.2 -0.05 Q16.2 6.85 11.5 11.75 6.75 16.6 0.0 16.65 -6.8 16.6 -11.5 11.75 -16.25 6.85 -16.25 -0.05 -16.25 -7.0 -11.5 -11.85 -6.8 -16.7 0.0 -16.7 6.75 -16.7 11.5 -11.85 16.2 -7.0 16.2 -0.05" fill="#ffffff" fill-rule="evenodd" stroke="none"/>
    <path d="M7.25 -2.75 L2.9 -4.4 7.4 -1.55 7.25 -2.75 M8.25 -1.05 Q11.2 -0.3 14.55 -0.05 L14.55 -3.0 12.55 -2.85 Q12.25 -3.35 12.25 -3.6 L14.0 -3.75 Q15.75 -3.75 15.3 -0.8 L15.4 0.0 17.5 0.05 Q19.55 0.05 21.25 -1.1 22.9 -2.25 23.5 -2.25 L23.85 -1.5 Q22.25 -1.3 20.8 -0.3 19.0 1.0 15.5 1.0 L15.35 1.0 Q15.2 1.95 14.35 2.6 13.25 3.5 11.05 3.95 12.55 2.75 14.05 1.0 L11.0 0.7 12.3 1.55 12.25 2.0 Q9.1 0.95 5.8 -0.5 2.8 -1.55 0.15 -3.25 L-0.1 -3.4 -1.9 -4.4 Q-1.55 -2.15 -1.05 -0.95 L-0.25 -1.85 Q1.1 -0.15 1.45 1.2 5.75 2.3 8.05 1.8 6.4 3.3 4.85 3.3 L1.9 2.85 1.45 3.55 1.25 4.55 1.75 5.0 1.25 4.65 0.7 6.45 2.55 9.25 0.05 10.3 Q8.05 13.05 13.0 13.05 L16.25 13.0 16.5 12.75 Q14.25 11.55 12.55 9.75 15.2 11.35 19.25 12.8 17.2 14.75 13.0 14.75 4.6 13.0 -1.8 11.3 L-2.7 12.6 12.85 19.0 Q30.35 26.25 37.8 28.3 32.85 22.55 26.75 4.45 L29.85 10.95 Q36.75 25.15 40.55 29.3 L40.55 29.95 39.6 30.05 Q37.05 30.05 26.8 26.1 L15.05 21.5 Q10.6 19.9 -2.85 12.8 -5.85 16.95 -10.9 21.8 -21.95 32.35 -27.6 33.75 L-28.5 33.75 -28.75 33.0 Q-28.75 32.45 -24.85 27.5 -33.45 32.45 -35.1 36.05 L-35.1 36.3 Q-36.0 36.5 -34.75 36.5 L-33.35 36.45 -35.25 37.25 Q-35.85 36.5 -35.85 35.85 -35.85 32.9 -27.0 27.1 L-21.65 23.4 -18.0 18.9 -9.75 9.0 Q-18.1 6.25 -20.9 3.75 -24.15 5.5 -28.6 6.25 L-32.15 9.5 -34.75 11.4 -35.25 10.15 Q-33.1 8.85 -31.05 7.15 L-30.25 6.5 -34.4 6.8 -28.65 5.05 -25.8 2.25 Q-23.55 0.0 -23.0 0.0 L-20.4 1.35 -17.5 -0.75 -18.1 -0.75 -22.65 -0.35 Q-16.8 -1.65 -15.5 -4.6 L-15.1 -6.15 -20.3 -9.85 Q-33.65 -20.2 -34.6 -27.1 -34.4 -27.6 -32.5 -27.6 -23.8 -27.6 -17.8 -23.3 -14.45 -20.85 -8.85 -13.75 L-8.65 -13.5 -3.35 -10.15 -3.35 -11.6 Q-2.4 -26.35 2.0 -26.35 7.5 -26.35 8.5 -7.0 8.6 -5.3 7.7 -1.95 L7.6 -1.45 8.25 -1.05 M6.7 -9.7 L6.2 -20.75 Q5.4 -25.5 2.25 -25.5 -1.9 -25.5 -2.6 -11.65 L-2.5 -9.65 Q2.8 -6.15 7.2 -2.85 6.8 -5.9 6.7 -9.7 M1.55 2.75 L1.5 3.25 1.8 2.8 1.55 2.75 M0.75 2.5 L-2.0 1.6 -2.1 1.7 0.1 3.5 0.75 2.5 M0.35 7.35 L-0.95 9.95 -0.9 9.95 Q1.15 9.75 1.55 9.25 L0.35 7.35 M-33.1 -26.1 Q-31.3 -20.25 -18.15 -10.2 L-15.1 -7.95 -15.3 -9.75 -15.55 -13.1 Q-25.55 -18.6 -27.5 -22.35 -28.25 -22.5 -27.0 -22.5 -23.8 -22.5 -11.95 -15.45 -16.05 -20.3 -18.15 -22.0 -23.5 -26.25 -30.25 -26.25 L-33.1 -26.1 M-22.5 -19.1 Q-14.25 -15.05 -10.75 -13.75 -17.95 -17.5 -22.6 -19.25 L-22.5 -19.1 M-13.1 -6.5 L-7.3 -2.25 -5.9 -1.2 -2.85 -0.15 -2.05 0.15 -1.85 -0.1 Q-2.7 -1.65 -3.05 -5.05 -8.1 -8.0 -13.5 -11.85 L-13.1 -6.5 M-11.25 -10.25 L-12.25 -8.0 Q-12.25 -7.0 -9.9 -5.75 L-4.85 -3.1 -5.0 -2.85 -10.6 -5.5 Q-12.75 -6.7 -12.75 -7.9 -12.75 -10.95 -11.25 -10.25 M-14.25 -2.5 L-11.0 -3.0 -9.85 -2.6 -13.25 -4.85 -14.25 -2.6 -14.25 -2.5 M-15.15 -0.5 L-18.65 2.2 -8.15 7.1 -3.4 1.65 -5.7 0.15 -10.3 -1.85 Q-13.0 -1.85 -15.15 -0.5 M-0.75 -0.25 L-0.35 0.25 -0.8 0.55 0.85 1.05 Q0.55 -0.1 -0.5 -0.6 L-0.75 -0.25 M-1.1 4.5 Q-1.1 3.85 -0.35 4.2 L-0.1 3.8 -2.5 2.25 -6.7 7.7 -3.35 9.05 -0.9 5.1 -1.1 4.5 M-8.45 9.9 L-6.55 9.95 -8.15 9.5 -8.45 9.9 M-4.35 10.75 L-8.65 10.1 -12.6 14.9 -16.25 19.35 -16.25 19.6 Q-16.25 21.9 -21.15 25.2 L-26.25 31.55 -26.5 32.0 Q-19.55 29.25 -14.2 24.75 -9.45 20.7 -7.75 17.0 L-7.4 16.3 -10.95 20.5 -15.55 25.0 -14.0 23.3 -6.15 13.45 Q-7.15 13.9 -7.85 14.65 L-10.25 17.05 -11.75 17.05 -8.6 14.4 Q-7.05 13.15 -5.55 12.65 L-5.2 12.2 -4.35 10.75 M-22.35 1.05 L-26.2 4.15 -22.05 2.3 Q-22.4 1.65 -22.35 1.05 M-38.9 1.2 L-39.05 0.8 -37.35 0.55 -32.25 0.6 -38.8 1.4 -38.9 1.2" fill="#ffffff" fill-rule="evenodd" stroke="none"/>
  </g>
</svg>
