<?xml version="1.0" encoding="UTF-8" standalone="no"?>
<svg xmlns:ffdec="https://www.free-decompiler.com/flash" xmlns:xlink="http://www.w3.org/1999/xlink" ffdec:objectType="shape" height="56.6px" width="55.65px" xmlns="http://www.w3.org/2000/svg">
  <g transform="matrix(1.0, 0.0, 0.0, 1.0, 32.85, 24.85)">
    <path d="M-0.05 -9.05 Q3.75 -9.05 6.45 -6.4 9.1 -3.75 9.1 0.0 9.1 3.75 6.45 6.4 3.75 9.05 -0.05 9.05 -3.85 9.05 -6.5 6.4 -9.2 3.75 -9.15 0.0 -9.2 -3.75 -6.5 -6.4 -3.85 -9.05 -0.05 -9.05" fill="#ffffff" fill-rule="evenodd" stroke="none"/>
    <path d="M4.55 -8.75 L5.05 -9.25 8.9 -5.6 Q11.35 -3.4 13.55 -2.7 L8.55 -5.95 17.75 -1.95 Q22.8 0.65 22.8 3.0 22.8 4.7 20.7 5.1 L16.3 5.8 11.5 6.4 11.0 7.7 Q8.35 14.55 3.1 14.55 1.05 14.55 0.35 11.4 -0.35 8.25 -0.85 8.25 -2.7 8.25 -4.6 9.9 -6.55 11.55 -8.5 11.55 L-9.25 11.5 -9.3 11.55 -13.0 15.8 Q-15.65 18.15 -20.3 23.9 -25.35 29.1 -32.75 31.75 L-32.85 31.1 Q-32.85 29.45 -20.65 14.5 L-15.9 8.65 Q-18.8 7.05 -19.15 7.05 L-25.5 8.05 Q-28.45 8.05 -30.65 6.55 L-31.3 6.1 -30.95 5.0 Q-28.15 7.2 -25.5 6.9 -21.95 6.0 -19.0 6.0 -17.9 6.0 -15.1 7.6 -6.8 -2.9 -5.0 -6.5 L-14.6 -6.2 -15.6 -4.4 Q-19.85 2.65 -30.9 4.7 L-30.55 3.4 Q-22.05 2.5 -17.1 -5.5 L-16.8 -6.0 -17.9 -5.85 -25.5 -5.1 -30.8 -5.55 -30.85 -5.9 -31.15 -6.65 -25.25 -6.0 -16.65 -6.65 -16.4 -6.7 Q-13.4 -12.2 -12.85 -18.6 -13.0 -18.85 -11.75 -18.85 -11.2 -18.85 -2.05 -9.5 7.7 0.45 10.25 2.0 9.75 2.75 8.85 2.75 4.6 2.75 -1.85 -4.65 L-11.25 -16.0 Q-12.6 -10.7 -14.2 -7.1 L-12.0 -7.35 -4.85 -7.25 Q-4.1 -7.75 -4.1 -6.5 -4.1 -4.4 -13.9 8.3 -12.25 9.1 -10.65 9.85 -8.05 8.25 -4.65 7.1 1.2 5.15 10.55 3.9 L10.9 2.6 Q11.7 0.05 13.05 -2.0 10.35 -3.35 8.15 -5.35 L4.55 -8.75 M5.85 6.3 L-2.2 6.8 -2.0 6.8 Q0.2 6.8 1.4 9.25 2.25 10.9 2.3 12.55 L2.55 13.0 Q8.35 10.7 9.8 6.5 L9.85 6.45 5.85 6.3 M21.05 2.75 L14.0 -2.4 12.35 3.65 21.05 2.75 M-4.15 -13.25 Q-7.0 -15.1 -8.3 -16.55 -10.6 -19.0 -10.6 -22.35 -10.6 -24.0 -9.0 -24.85 -7.85 -24.6 -7.75 -24.35 -9.5 -24.5 -9.5 -23.25 -9.5 -17.95 -4.15 -13.25 M-5.3 8.55 L-3.65 7.3 -4.35 7.55 Q-6.25 8.4 -8.1 10.25 L-8.0 10.25 Q-7.0 10.25 -5.3 8.55 M-14.7 9.3 L-16.65 11.8 -31.5 30.25 -31.6 30.5 Q-25.05 26.9 -21.15 21.75 -17.65 16.2 -15.45 13.7 -13.95 12.05 -11.95 10.65 L-14.7 9.3" fill="#ffffff" fill-rule="evenodd" stroke="none"/>
  </g>
</svg>
