<?xml version="1.0" encoding="UTF-8" standalone="no"?>
<svg xmlns:ffdec="https://www.free-decompiler.com/flash" xmlns:xlink="http://www.w3.org/1999/xlink" ffdec:objectType="shape" height="30.0px" width="61.95px" xmlns="http://www.w3.org/2000/svg">
  <g transform="matrix(1.0, 0.0, 0.0, 1.0, -13.9, 14.95)">
    <path d="M39.5 -10.55 L41.45 -8.15 75.85 -8.15 75.85 8.25 41.5 8.25 39.5 10.65 Q35.1 15.05 28.9 15.05 22.7 15.05 18.3 10.65 13.9 6.25 13.9 0.05 13.9 -6.15 18.3 -10.55 22.7 -14.95 28.9 -14.95 35.1 -14.95 39.5 -10.55" fill="#ffffff" fill-rule="evenodd" stroke="none"/>
    <path d="M39.5 -10.55 L41.45 -8.15 75.85 -8.15 75.85 8.25 41.5 8.25 39.5 10.65 Q35.1 15.05 28.9 15.05 22.7 15.05 18.3 10.65 13.9 6.25 13.9 0.05 13.9 -6.15 18.3 -10.55 22.7 -14.95 28.9 -14.95 35.1 -14.95 39.5 -10.55" fill="url(#gradient0)" fill-rule="evenodd" stroke="none"/>
  </g>
  <defs>
    <linearGradient gradientTransform="matrix(0.0, 0.0183, -0.1116, 0.0, 105.35, 0.05)" gradientUnits="userSpaceOnUse" id="gradient0" spreadMethod="pad" x1="-819.2" x2="819.2">
      <stop offset="0.0" stop-color="#000000" stop-opacity="0.6313726"/>
      <stop offset="0.4588235294117647" stop-color="#000000" stop-opacity="0.0"/>
      <stop offset="0.49019607843137253" stop-color="#000000" stop-opacity="0.6117647"/>
      <stop offset="1.0" stop-color="#000000" stop-opacity="0.3137255"/>
    </linearGradient>
  </defs>
</svg>
