<?xml version="1.0" encoding="UTF-8" standalone="no"?>
<svg xmlns:ffdec="https://www.free-decompiler.com/flash" xmlns:xlink="http://www.w3.org/1999/xlink" ffdec:objectType="shape" height="18.2px" width="27.3px" xmlns="http://www.w3.org/2000/svg">
  <g transform="matrix(1.0, 0.0, 0.0, 1.0, 14.85, 9.3)">
    <path d="M5.85 -6.6 L5.65 -6.55 5.8 -6.3 5.9 -6.1 Q6.4 -6.5 6.85 -6.5 L7.95 -6.15 9.7 -6.95 Q10.25 -6.95 10.65 -6.6 L11.25 -6.75 Q12.45 -6.75 12.45 -5.65 12.45 -4.7 11.2 -2.25 9.75 0.6 9.45 2.05 L9.35 1.9 9.35 1.95 Q9.15 2.25 8.35 2.25 8.15 1.95 8.15 0.7 L8.9 0.6 9.15 0.75 Q9.15 0.0 9.45 -0.95 L9.35 -1.35 9.0 -0.95 Q6.1 2.5 0.6 6.3 0.5 4.6 4.45 0.8 L0.75 2.8 0.6 2.9 0.5 2.9 0.45 2.95 Q0.3 3.05 0.3 3.25 L-0.15 3.25 -0.25 3.3 -1.5 4.7 -2.05 4.6 Q-2.3 5.05 -2.3 3.9 -2.3 3.15 -1.4 3.0 L-0.95 2.95 -0.95 2.5 Q-0.95 1.4 0.15 1.05 0.85 0.55 0.95 1.4 L1.05 1.75 3.65 -0.1 3.6 -0.5 Q3.6 -1.4 4.95 -1.4 L4.9 -0.95 5.75 -1.55 Q5.1 -1.7 4.95 -1.95 L4.95 -2.0 4.4 -1.95 3.4 -2.0 3.15 -1.8 3.7 -1.5 Q2.35 -0.6 0.2 0.3 -4.7 3.55 -14.05 8.9 L-14.85 8.55 Q-12.15 6.25 -6.7 2.45 L-14.4 4.95 Q-6.65 1.1 -2.25 -0.6 L1.65 -3.2 -0.9 -3.85 Q-0.95 -3.2 -0.95 -4.3 -0.95 -5.25 2.75 -6.2 L2.95 -6.5 3.5 -6.5 3.65 -6.45 3.9 -6.5 Q2.95 -7.25 2.95 -7.45 L3.05 -7.8 Q3.25 -8.1 3.7 -8.1 4.9 -8.1 5.85 -7.25 L5.85 -6.6 M7.7 -7.95 Q8.1 -7.65 8.15 -6.95 L7.8 -6.4 6.35 -6.8 Q7.05 -7.65 7.7 -7.95 M3.05 -8.25 Q3.6 -9.55 4.35 -9.25 L3.5 -8.1 3.05 -8.25 M-5.15 -2.85 L-4.4 -2.25 -5.4 -1.85 -5.6 -2.5 -5.15 -2.85 M-2.3 -5.75 Q-2.3 -6.9 -1.7 -6.3 -0.9 -6.3 -0.15 -5.7 L-0.95 -5.15 -2.05 -5.1 -2.3 -5.75 M-3.4 5.7 L-4.05 6.3 -4.8 6.35 -4.95 5.6 Q-4.95 4.7 -3.4 4.7 L-3.4 5.7" fill="#ffffff" fill-rule="evenodd" stroke="none"/>
  </g>
</svg>
