<?xml version="1.0" encoding="UTF-8" standalone="no"?>
<svg xmlns:ffdec="https://www.free-decompiler.com/flash" xmlns:xlink="http://www.w3.org/1999/xlink" ffdec:objectType="shape" height="15.55px" width="17.8px" xmlns="http://www.w3.org/2000/svg">
  <g transform="matrix(1.0, 0.0, 0.0, 1.0, 6.9, 8.75)">
    <path d="M6.9 -6.5 L5.25 -6.05 Q4.25 -6.45 4.25 -7.1 4.25 -8.95 6.75 -8.7 7.2 -8.65 7.2 -7.5 L6.9 -6.5 M5.25 -2.45 L5.0 -3.9 Q8.35 -7.55 10.15 -8.7 10.9 -8.5 10.9 -7.45 10.9 -5.85 6.5 -1.7 6.2 -2.3 5.25 -2.45 M4.3 -4.9 Q3.6 -5.4 2.4 -5.4 0.55 -5.4 -0.35 -3.25 -1.45 -2.9 -1.55 -1.4 -2.55 -0.3 -4.15 0.45 -3.85 2.05 -0.9 2.05 -0.35 2.8 1.15 2.9 -0.95 4.5 -1.7 4.5 -5.5 6.8 -6.9 6.8 -6.3 4.55 -6.3 1.45 -6.3 -0.35 -3.85 -0.45 L-3.95 -0.85 -4.4 -0.75 Q-5.4 -1.05 -5.4 -1.8 -5.4 -2.35 -4.4 -2.75 L-3.95 -2.65 Q-2.65 -7.05 0.45 -7.05 3.45 -7.05 4.3 -4.9 M4.4 1.15 Q5.8 1.15 6.35 0.1 L8.1 0.25 8.25 1.25 Q7.8 6.45 4.8 6.45 3.1 6.45 2.1 5.75 1.4 5.2 1.4 4.85 1.4 4.1 1.9 2.9 3.5 2.75 4.4 1.15 M-6.15 -5.7 Q-5.6 -6.65 -4.7 -5.85 -4.85 -5.35 -5.25 -5.15 L-6.15 -5.7" fill="#ffcc00" fill-rule="evenodd" stroke="none"/>
    <path d="M5.25 -2.45 L4.6 -2.5 Q4.1 -2.5 3.45 -1.95 L3.35 -1.85 3.25 -1.95 Q1.95 -3.4 0.45 -3.4 L-0.35 -3.25 Q0.55 -5.4 2.4 -5.4 3.6 -5.4 4.3 -4.9 L5.0 -3.9 5.25 -2.45 M-1.55 -1.4 L-1.6 -1.0 -1.5 -0.25 -1.6 0.35 Q-1.6 1.1 -1.35 1.15 L-0.5 1.15 Q0.45 1.7 2.15 1.7 3.45 1.7 4.0 1.1 L4.35 1.15 4.4 1.15 Q3.5 2.75 1.9 2.9 L1.65 2.9 1.15 2.9 Q-0.35 2.8 -0.9 2.05 -3.85 2.05 -4.15 0.45 -2.55 -0.3 -1.55 -1.4" fill="#ffff00" fill-rule="evenodd" stroke="none"/>
    <path d="M-0.35 -3.25 L0.45 -3.4 Q1.95 -3.4 3.25 -1.95 L3.35 -1.85 3.45 -1.95 Q4.1 -2.5 4.6 -2.5 L5.25 -2.45 Q6.2 -2.3 6.5 -1.7 L6.6 -1.35 6.35 0.1 Q5.8 1.15 4.4 1.15 L4.35 1.15 4.0 1.1 Q3.45 1.7 2.15 1.7 0.45 1.7 -0.5 1.15 L-1.35 1.15 Q-1.6 1.1 -1.6 0.35 L-1.5 -0.25 -1.6 -1.0 -1.55 -1.4 Q-1.45 -2.9 -0.35 -3.25" fill="#ffffff" fill-rule="evenodd" stroke="none"/>
  </g>
</svg>
