<?xml version="1.0" encoding="UTF-8" standalone="no"?>
<svg xmlns:ffdec="https://www.free-decompiler.com/flash" xmlns:xlink="http://www.w3.org/1999/xlink" ffdec:objectType="shape" height="28.2px" width="46.4px" xmlns="http://www.w3.org/2000/svg">
  <g transform="matrix(1.0, 0.0, 0.0, 1.0, 32.5, 13.3)">
    <path d="M9.85 -9.25 Q13.9 -5.2 13.9 0.55 13.9 6.3 9.85 10.35 5.8 14.4 0.05 14.4 -5.7 14.4 -9.75 10.35 -13.8 6.3 -13.8 0.55 -13.8 -5.2 -9.75 -9.25 -5.7 -13.3 0.05 -13.3 5.8 -13.3 9.85 -9.25" fill="url(#gradient0)" fill-rule="evenodd" stroke="none"/>
    <path d="M9.7 -8.8 Q9.7 -7.85 6.9 -5.2 L3.6 -2.0 10.15 -6.5 11.35 -5.3 Q11.35 -4.7 3.35 3.45 -5.0 12.0 -8.7 14.65 -9.05 15.3 -9.05 14.15 -9.05 13.45 -7.4 11.1 L-5.4 8.45 -5.25 8.35 Q-6.7 7.55 -7.05 6.8 L-9.35 8.8 Q-11.15 10.55 -11.7 10.55 L-13.05 10.35 Q-13.25 10.45 -13.25 9.3 L8.35 -10.15 Q9.7 -10.15 9.7 -8.8 M3.6 -2.0 L3.25 -1.8 3.5 -1.95 3.6 -2.0 3.5 -1.95 3.25 -1.8 3.6 -2.0 M11.0 4.35 L10.55 5.25 9.6 5.15 Q9.25 4.65 9.25 4.3 L9.45 3.6 10.15 3.5 Q10.8 3.75 11.0 4.35 M0.15 12.0 L-0.15 12.0 Q0.05 9.75 2.2 6.3 4.45 2.6 6.3 2.05 4.55 5.95 0.15 12.0 M-3.15 -5.4 L-3.15 -5.35 Q1.3 -7.6 5.85 -9.35 -3.05 -4.65 -14.45 2.8 L-32.5 14.65 Q-18.9 2.6 -4.45 -4.7 L-4.7 -6.3 -3.7 -6.4 Q-3.15 -5.95 -3.15 -5.4" fill="#d3f8ba" fill-rule="evenodd" stroke="none"/>
  </g>
  <defs>
    <radialGradient cx="0" cy="0" gradientTransform="matrix(0.017, 0.0, 0.0, 0.017, 0.05, 0.55)" gradientUnits="userSpaceOnUse" id="gradient0" r="819.2" spreadMethod="pad">
      <stop offset="0.4117647058823529" stop-color="#3fa748"/>
      <stop offset="1.0" stop-color="#243926"/>
    </radialGradient>
  </defs>
</svg>
