<?xml version="1.0" encoding="UTF-8" standalone="no"?>
<svg xmlns:ffdec="https://www.free-decompiler.com/flash" xmlns:xlink="http://www.w3.org/1999/xlink" ffdec:objectType="shape" height="30.5px" width="17.0px" xmlns="http://www.w3.org/2000/svg">
  <g transform="matrix(1.0, 0.0, 0.0, 1.0, 6.3, 15.3)">
    <path d="M5.5 -14.2 L5.3 -13.45 5.55 -13.5 7.05 -13.8 Q8.6 -13.8 8.6 -12.4 L8.25 -11.7 8.3 -11.5 Q8.65 -10.15 10.25 -10.7 10.7 -10.8 10.7 -9.65 10.7 -8.8 6.05 -5.9 L2.45 -3.7 4.1 -3.25 Q5.15 -3.0 5.15 -2.0 5.15 -0.6 -2.05 5.25 L0.0 8.4 Q0.0 10.4 -6.05 15.0 -6.3 15.6 -6.3 14.5 L-2.95 8.35 Q-4.6 6.75 -4.6 5.7 -4.6 4.4 -2.95 2.75 L0.3 -0.9 Q-4.7 -1.05 -4.7 -3.2 -4.7 -4.2 -1.5 -8.7 1.95 -13.65 4.35 -15.3 L5.15 -15.05 Q5.5 -14.9 5.5 -14.2 M2.55 -8.75 L1.9 -7.8 2.55 -8.5 2.65 -8.6 2.55 -8.75" fill="#000000" fill-rule="evenodd" stroke="none"/>
  </g>
</svg>
