<?xml version="1.0" encoding="UTF-8" standalone="no"?>
<svg xmlns:ffdec="https://www.free-decompiler.com/flash" xmlns:xlink="http://www.w3.org/1999/xlink" ffdec:objectType="shape" height="34.95px" width="37.5px" xmlns="http://www.w3.org/2000/svg">
  <g transform="matrix(1.0, 0.0, 0.0, 1.0, 15.65, 17.1)">
    <path d="M11.4 -7.95 Q15.95 -3.9 15.95 1.75 15.95 7.4 11.4 11.45 6.85 15.5 0.4 15.5 -6.0 15.5 -10.55 11.45 -15.1 7.4 -15.1 1.75 -15.1 -3.9 -10.55 -7.95 -6.0 -11.95 0.4 -11.95 6.85 -11.95 11.4 -7.95" fill="url(#gradient0)" fill-rule="evenodd" stroke="none"/>
    <path d="M4.75 -0.3 Q15.85 -0.1 21.85 2.25 14.45 0.55 4.1 0.45 L2.55 2.25 14.0 13.2 Q9.75 10.3 1.9 3.0 L0.55 4.6 0.15 17.75 0.15 17.85 Q-0.9 17.05 -0.9 15.75 L-0.75 6.05 -9.9 16.3 -10.35 16.4 -0.7 4.6 -0.55 0.7 -0.75 0.55 -12.8 1.6 Q-14.9 1.6 -15.55 1.05 L-15.65 0.7 -13.95 0.95 -1.4 0.0 Q-7.55 -5.55 -12.15 -8.7 L-11.9 -9.05 Q-6.35 -5.55 -0.5 -0.5 -0.05 -8.25 0.95 -11.6 L0.65 -0.15 3.05 -0.3 3.3 -0.3 3.4 -0.45 Q11.75 -10.1 20.55 -17.1 14.0 -10.95 5.0 -0.6 L4.75 -0.3 M1.8 1.5 L2.65 0.45 0.65 0.5 1.8 1.5 M0.55 3.0 L1.15 2.3 0.6 1.75 0.55 3.0" fill="#ffffff" fill-rule="evenodd" stroke="none"/>
  </g>
  <defs>
    <radialGradient cx="0" cy="0" gradientTransform="matrix(0.019, 0.0, 0.0, 0.019, 0.4, 1.75)" gradientUnits="userSpaceOnUse" id="gradient0" r="819.2" spreadMethod="pad">
      <stop offset="0.0" stop-color="#ffffff"/>
      <stop offset="0.4117647058823529" stop-color="#ffff55"/>
      <stop offset="1.0" stop-color="#451841"/>
    </radialGradient>
  </defs>
</svg>
