<?xml version="1.0" encoding="UTF-8" standalone="no"?>
<svg xmlns:ffdec="https://www.free-decompiler.com/flash" xmlns:xlink="http://www.w3.org/1999/xlink" ffdec:objectType="shape" height="32.45px" width="55.45px" xmlns="http://www.w3.org/2000/svg">
  <g transform="matrix(1.0, 0.0, 0.0, 1.0, 13.5, 20.75)">
    <path d="M13.25 -0.85 Q13.25 4.2 9.35 7.85 5.4 11.5 -0.15 11.5 -5.65 11.5 -9.6 7.85 -13.5 4.2 -13.5 -0.85 -13.5 -5.95 -9.6 -9.6 -5.65 -13.2 -0.15 -13.2 5.4 -13.2 9.35 -9.6 13.25 -5.95 13.25 -0.85" fill="url(#gradient0)" fill-rule="evenodd" stroke="none"/>
    <path d="M1.65 -11.0 L2.3 -10.9 2.45 -10.0 2.2 -9.6 1.15 -10.35 Q1.1 -11.05 1.65 -11.0 M4.35 -8.0 Q5.2 -7.9 5.2 -7.45 L4.55 -6.45 3.8 -6.45 3.6 -6.95 Q3.6 -7.35 4.35 -8.0 M3.55 -0.85 Q3.45 -0.55 3.5 -1.25 L3.5 -1.6 3.9 -1.7 4.25 -1.0 4.15 -0.85 3.55 -0.85 M6.65 3.05 L6.2 2.7 Q6.3 2.3 6.9 1.95 L7.15 2.75 6.65 3.05 M4.5 9.2 L4.0 9.1 4.0 8.7 4.85 7.75 Q5.6 7.75 6.35 8.7 L6.35 9.2 6.15 9.6 4.95 9.25 4.5 9.2 M-4.05 -4.0 L-4.15 -3.55 -4.15 -3.5 -5.15 -3.55 -5.2 -4.15 Q-5.2 -4.85 -4.95 -4.7 L-4.5 -4.7 -4.2 -4.7 -3.95 -4.4 -4.05 -4.0 M-7.75 5.85 Q-9.2 5.85 -8.85 4.55 -8.85 3.3 -8.15 3.3 -7.05 3.3 -6.8 3.9 L-6.75 4.55 Q-6.75 5.85 -7.75 5.85 M-2.15 7.65 Q-2.35 8.0 -2.3 7.3 -2.35 6.6 -1.5 6.6 L-1.05 7.3 -1.65 7.75 -2.15 7.65" fill="#ffffff" fill-rule="evenodd" stroke="none"/>
    <path d="M3.75 -20.75 Q5.15 -20.75 8.45 -18.55 9.05 -18.45 9.3 -18.15 L9.15 -18.0 10.1 -17.3 Q14.6 -14.0 14.65 -13.05 L14.55 -12.15 Q13.7 -13.0 9.95 -14.45 L8.95 -13.05 Q7.95 -13.75 7.95 -14.5 L7.95 -14.55 7.9 -14.55 Q7.1 -14.05 5.55 -14.05 5.05 -14.05 4.85 -14.35 L4.8 -14.05 Q5.9 -11.7 5.9 -10.65 5.85 -10.05 4.75 -8.95 L4.6 -8.75 4.85 -8.75 Q6.15 -8.8 6.15 -7.3 6.15 -5.7 5.05 -5.7 L4.35 -5.85 3.25 -5.6 2.45 -5.75 2.75 -7.2 Q0.05 -4.9 0.05 -1.85 0.05 2.9 -3.65 5.9 L-3.6 5.95 -2.8 5.3 -1.55 5.3 -1.5 5.85 -1.6 6.5 -0.55 6.05 0.6 6.05 0.65 6.3 2.2 6.05 Q3.75 6.05 3.75 7.75 L3.75 7.8 Q4.45 7.25 5.15 7.0 L6.5 6.75 Q8.35 6.7 9.5 9.3 8.85 11.7 6.45 11.7 L0.25 11.05 -0.6 11.7 -1.55 10.85 -1.55 10.6 -3.85 9.85 Q-6.2 9.05 -7.65 8.1 -10.2 7.7 -10.35 4.65 L-10.35 4.55 -10.45 4.15 Q-10.45 3.45 -10.0 3.3 L-9.85 2.9 Q-9.35 1.7 -9.05 1.7 L-5.15 2.3 -4.95 3.15 -5.2 5.25 -4.7 5.45 -3.0 3.6 Q-0.7 0.65 -1.05 -2.45 L-1.15 -4.6 -1.75 -4.85 -1.75 -6.15 -0.6 -7.0 Q0.05 -8.45 1.55 -9.05 L1.85 -9.2 1.55 -9.25 Q0.3 -9.35 0.6 -10.5 0.6 -12.2 2.05 -12.0 L2.85 -11.85 2.85 -10.5 2.0 -9.25 3.85 -9.75 Q4.9 -10.05 4.9 -10.7 L3.9 -14.25 2.95 -13.95 Q1.65 -13.95 1.65 -15.0 1.65 -16.4 2.75 -16.75 L2.7 -17.05 2.75 -17.35 Q1.15 -18.25 1.15 -18.9 1.15 -19.65 2.3 -20.2 L3.75 -20.75 M2.1 -18.75 L2.35 -18.05 Q2.6 -18.8 3.35 -19.45 L3.25 -19.45 Q2.2 -19.25 2.1 -18.75 M4.4 -17.9 L5.3 -18.05 5.5 -18.3 5.05 -18.4 4.35 -17.9 4.4 -17.9 M0.6 -15.9 L-0.7 -15.6 -1.5 -15.9 -1.5 -17.2 -1.05 -17.3 Q0.1 -17.3 0.6 -16.15 L0.6 -15.9 M5.65 -15.2 L5.7 -15.15 5.8 -15.25 5.65 -15.2 M8.35 -11.0 Q7.65 -11.15 7.45 -11.35 L7.95 -11.95 Q8.55 -11.85 8.55 -11.4 L8.35 -11.0 M3.55 -0.85 L4.15 -0.85 4.25 -1.0 3.9 -1.7 3.5 -1.6 3.5 -1.25 Q3.45 -0.55 3.55 -0.85 M4.35 -8.0 Q3.6 -7.35 3.6 -6.95 L3.8 -6.45 4.55 -6.45 5.2 -7.45 Q5.2 -7.9 4.35 -8.0 M1.65 -11.0 Q1.1 -11.05 1.15 -10.35 L2.2 -9.6 2.45 -10.0 2.3 -10.9 1.65 -11.0 M4.8 -1.7 Q4.8 1.05 2.7 0.7 2.2 0.35 2.2 -0.05 2.2 -2.85 3.65 -2.8 4.8 -2.85 4.8 -1.7 M12.35 -11.7 L12.55 -10.2 11.85 -9.5 11.05 -9.2 10.15 -9.45 10.1 -10.2 10.7 -10.95 Q11.4 -11.65 12.35 -11.7 M13.7 -7.35 L13.5 -6.9 12.6 -7.1 13.05 -7.75 13.7 -7.35 M39.1 -15.6 Q39.1 -18.2 41.35 -18.15 41.9 -18.2 41.95 -16.75 41.9 -14.95 40.15 -14.45 39.1 -14.65 39.1 -15.6 M6.65 3.05 L7.15 2.75 6.9 1.95 Q6.3 2.3 6.2 2.7 L6.65 3.05 M7.3 1.7 L8.1 2.85 Q8.1 3.9 6.65 3.9 L5.8 3.8 5.85 3.9 5.75 4.2 5.35 4.45 4.7 4.15 Q5.05 3.6 5.5 3.35 L5.5 3.0 Q5.45 1.65 7.3 1.7 M4.7 5.85 L5.3 6.55 5.05 6.75 4.4 6.75 4.35 5.9 4.7 5.85 M4.35 2.7 Q4.05 3.0 3.75 3.0 L3.05 2.7 3.5 2.0 Q4.0 2.0 4.4 2.45 L4.35 2.7 M3.75 7.85 L3.75 7.8 3.75 7.85 M4.95 9.25 L6.15 9.6 6.35 9.2 6.35 8.7 Q5.6 7.75 4.85 7.75 L4.0 8.7 4.0 9.1 4.5 9.2 Q3.7 9.15 4.6 9.35 L4.95 9.25 M-1.75 -9.3 L-2.4 -9.4 -2.5 -9.9 -2.15 -10.05 -1.55 -9.75 -1.75 -9.3 M-4.95 -11.3 L-5.65 -11.65 -4.95 -12.6 -4.2 -12.15 -4.95 -11.3 M-4.5 -4.7 L-4.95 -4.7 Q-5.2 -4.85 -5.2 -4.15 L-5.15 -3.55 -4.15 -3.5 -4.15 -3.55 -4.05 -4.0 -3.95 -3.25 -4.15 -2.3 -4.1 -2.15 -4.1 -2.05 -5.2 -2.15 -5.25 -2.15 Q-6.2 -2.35 -6.15 -3.3 L-4.95 -5.25 -4.5 -4.7 M-7.75 5.85 Q-6.75 5.85 -6.75 4.55 L-6.8 3.9 Q-7.05 3.3 -8.15 3.3 -8.85 3.3 -8.85 4.55 -9.2 5.85 -7.75 5.85 M-5.3 6.6 L-5.35 6.95 -3.55 7.9 -3.2 7.4 -3.25 7.4 -3.8 7.4 -4.1 6.9 -4.1 6.8 -4.5 6.55 -4.6 6.6 -5.25 6.55 -5.3 6.6 M-2.15 7.65 L-1.65 7.75 -1.05 7.3 -1.5 6.6 Q-2.35 6.6 -2.3 7.3 -2.35 8.0 -2.15 7.65" fill="url(#gradient1)" fill-rule="evenodd" stroke="none"/>
  </g>
  <defs>
    <radialGradient cx="0" cy="0" gradientTransform="matrix(0.0164, 0.0, 0.0, 0.0171, -0.15, -0.9)" gradientUnits="userSpaceOnUse" id="gradient0" r="819.2" spreadMethod="pad">
      <stop offset="0.0" stop-color="#3a5a36"/>
      <stop offset="0.4117647058823529" stop-color="#1f2013"/>
      <stop offset="1.0" stop-color="#000000"/>
    </radialGradient>
    <radialGradient cx="0" cy="0" gradientTransform="matrix(0.0636, 0.0, 0.0, 0.0697, -4.2, 8.8)" gradientUnits="userSpaceOnUse" id="gradient1" r="819.2" spreadMethod="pad">
      <stop offset="0.0" stop-color="#ff0000"/>
      <stop offset="1.0" stop-color="#990000"/>
    </radialGradient>
  </defs>
</svg>
