<?xml version="1.0" encoding="UTF-8" standalone="no"?>
<svg xmlns:ffdec="https://www.free-decompiler.com/flash" xmlns:xlink="http://www.w3.org/1999/xlink" ffdec:objectType="shape" height="22.5px" width="55.8px" xmlns="http://www.w3.org/2000/svg">
  <g transform="matrix(1.0, 0.0, 0.0, 1.0, 24.15, 10.45)">
    <path d="M9.25 -7.15 Q12.8 -3.85 12.8 0.8 12.8 5.4 9.25 8.75 5.65 12.05 0.65 12.05 -4.4 12.05 -7.95 8.75 -11.5 5.4 -11.5 0.8 -11.5 -3.85 -7.95 -7.15 -4.4 -10.45 0.65 -10.45 5.65 -10.45 9.25 -7.15" fill="url(#gradient0)" fill-rule="evenodd" stroke="none"/>
    <path d="M1.65 -4.0 Q3.25 -4.05 3.0 -3.35 3.0 -2.6 2.35 -2.55 0.35 -2.55 0.35 -3.35 0.35 -4.0 1.65 -4.0 M5.2 -2.0 L31.65 2.05 29.55 11.0 1.3 6.65 1.6 5.4 4.15 4.85 2.05 3.35 3.05 -1.0 5.2 -2.0 M2.15 7.7 L2.1 8.25 Q2.25 8.55 1.6 8.6 -0.15 8.55 0.05 7.6 0.05 6.85 1.15 6.9 2.35 6.9 2.15 7.7 M-3.85 -3.15 L-1.1 -1.8 -1.1 0.85 -3.45 1.05 -1.1 2.95 -1.1 3.8 -24.15 3.8 -24.15 -5.9 -1.1 -5.9 -1.1 -5.2 -3.7 -3.35 -3.85 -3.15 M-3.75 6.35 Q-3.75 5.6 -2.85 5.6 -1.9 5.6 -1.9 6.35 L-2.0 6.85 Q-1.9 7.1 -2.5 7.1 L-3.75 6.9 -3.75 6.35" fill="#ffffff" fill-rule="evenodd" stroke="none"/>
  </g>
  <defs>
    <radialGradient cx="0" cy="0" gradientTransform="matrix(0.0149, 0.0, 0.0, 0.0156, 0.6, 0.8)" gradientUnits="userSpaceOnUse" id="gradient0" r="819.2" spreadMethod="pad">
      <stop offset="0.0" stop-color="#d09384"/>
      <stop offset="0.396078431372549" stop-color="#8a4a4a"/>
      <stop offset="0.5215686274509804" stop-color="#613838"/>
      <stop offset="0.7529411764705882" stop-color="#2f1e1e"/>
      <stop offset="1.0" stop-color="#342121"/>
    </radialGradient>
  </defs>
</svg>
