<?xml version="1.0" encoding="UTF-8" standalone="no"?>
<svg xmlns:ffdec="https://www.free-decompiler.com/flash" xmlns:xlink="http://www.w3.org/1999/xlink" ffdec:objectType="shape" height="27.5px" width="25.4px" xmlns="http://www.w3.org/2000/svg">
  <g transform="matrix(1.0, 0.0, 0.0, 1.0, 12.6, 11.5)">
    <path d="M9.25 -7.15 Q12.8 -3.85 12.8 0.8 12.8 5.4 9.25 8.75 5.65 12.05 0.65 12.05 -4.4 12.05 -7.95 8.75 -11.5 5.4 -11.5 0.8 -11.5 -3.85 -7.95 -7.15 -4.4 -10.45 0.65 -10.45 5.65 -10.45 9.25 -7.15" fill="url(#gradient0)" fill-rule="evenodd" stroke="none"/>
    <path d="M0.65 -0.6 L-2.45 0.25 Q-4.15 0.25 -3.65 -0.75 -2.85 -9.3 -1.5 -11.5 L-0.95 -10.7 Q-0.95 -9.2 -2.15 -1.4 L1.2 -2.3 Q2.55 -2.3 2.25 -0.65 L1.8 2.75 1.8 3.2 1.55 4.5 Q0.0 14.65 -0.45 14.65 -1.5 14.65 -1.25 12.7 L-0.45 6.6 -0.2 4.85 Q-0.9 4.5 -0.75 3.6 -0.75 2.55 0.2 2.3 L0.7 -0.45 0.65 -0.6 M7.95 -8.75 L4.75 1.1 Q5.85 1.1 7.85 0.25 8.7 0.25 8.55 1.35 1.65 16.0 1.35 16.0 0.05 16.0 0.3 14.9 0.3 13.35 3.25 8.15 L6.55 2.45 6.55 2.25 4.1 2.7 3.35 2.65 3.3 1.6 4.75 -3.0 Q3.5 -3.05 3.15 -3.4 3.6 -5.2 4.6 -5.2 L5.4 -5.0 Q6.9 -9.35 7.25 -9.35 7.95 -9.35 7.95 -8.75 M11.75 -4.0 Q12.55 -4.0 12.55 -3.2 12.55 -2.5 11.5 -2.5 L10.75 -2.6 Q10.65 -3.0 10.9 -3.4 11.15 -4.0 11.75 -4.0 M10.7 0.2 Q10.65 -0.5 11.35 -0.5 12.05 -0.55 12.1 0.15 L11.6 1.05 Q10.65 0.9 10.7 0.2 M8.55 7.45 Q8.5 6.5 9.5 6.6 L10.2 7.2 9.3 8.05 8.55 7.45 M-12.2 -9.05 Q-11.25 -7.55 -10.7 -4.85 L-9.75 -0.65 Q-6.75 -3.7 -6.0 -3.7 -5.55 -3.75 -3.8 5.0 L-2.15 13.85 Q-2.15 14.95 -2.95 14.95 -3.75 14.9 -4.9 8.6 L-6.6 -1.55 -8.05 -0.15 Q-9.4 1.05 -9.9 1.05 -11.05 1.05 -12.6 -8.35 -12.6 -8.8 -12.2 -9.05 M-5.2 -7.65 L-4.25 -6.4 Q-4.25 -5.65 -4.95 -5.65 -6.55 -5.65 -6.55 -6.6 L-5.95 -7.3 Q-5.55 -7.45 -5.2 -7.65 M-6.2 6.45 L-5.45 7.6 Q-5.45 8.5 -6.4 8.5 -6.95 8.35 -6.95 7.6 -6.95 6.45 -6.2 6.45" fill="url(#gradient1)" fill-rule="evenodd" stroke="none"/>
  </g>
  <defs>
    <radialGradient cx="0" cy="0" gradientTransform="matrix(0.0149, 0.0, 0.0, 0.0156, 0.6, 0.8)" gradientUnits="userSpaceOnUse" id="gradient0" r="819.2" spreadMethod="pad">
      <stop offset="0.0" stop-color="#7e91d6"/>
      <stop offset="0.396078431372549" stop-color="#824293"/>
      <stop offset="0.5215686274509804" stop-color="#732626"/>
      <stop offset="0.7529411764705882" stop-color="#34181a"/>
      <stop offset="1.0" stop-color="#320550"/>
    </radialGradient>
    <linearGradient gradientTransform="matrix(9.0E-4, -0.0166, 0.0155, 9.0E-4, -0.55, 2.25)" gradientUnits="userSpaceOnUse" id="gradient1" spreadMethod="pad" x1="-819.2" x2="819.2">
      <stop offset="0.0" stop-color="#805c81"/>
      <stop offset="1.0" stop-color="#ffffff"/>
    </linearGradient>
  </defs>
</svg>
