<?xml version="1.0" encoding="UTF-8" standalone="no"?>
<svg xmlns:ffdec="https://www.free-decompiler.com/flash" xmlns:xlink="http://www.w3.org/1999/xlink" ffdec:objectType="shape" height="25.65px" width="31.6px" xmlns="http://www.w3.org/2000/svg">
  <g transform="matrix(1.0, 0.0, 0.0, 1.0, 19.0, 13.4)">
    <path d="M12.6 -0.65 Q12.55 4.35 8.9 7.95 5.25 11.5 0.05 11.55 -5.15 11.5 -8.8 7.95 -12.45 4.35 -12.45 -0.65 -12.45 -5.65 -8.8 -9.25 -5.15 -12.8 0.05 -12.75 5.25 -12.8 8.9 -9.25 12.55 -5.65 12.6 -0.65" fill="url(#gradient0)" fill-rule="evenodd" stroke="none"/>
    <path d="M-9.25 -3.3 L-8.1 -3.5 Q-5.9 -3.5 -5.9 -2.05 -5.9 -1.3 -7.55 -1.3 -10.3 -1.3 -9.75 -2.55 -9.75 -3.05 -9.3 -3.25 L-9.25 -3.3" fill="#ffffff" fill-rule="evenodd" stroke="none"/>
    <path d="M-15.75 -8.55 Q-11.8 -13.4 -7.3 -13.4 -4.9 -13.4 -3.6 -12.1 L-4.0 -11.6 -4.35 -11.8 Q-1.8 -8.5 -1.8 -5.25 L-2.3 -2.05 -0.35 0.95 Q1.6 3.7 1.6 5.0 L-0.2 6.8 Q-2.15 8.35 -3.3 11.0 L-3.4 11.25 -3.6 11.65 -3.75 11.65 Q-4.55 12.25 -6.45 12.25 -14.05 12.25 -17.25 4.95 -18.9 1.25 -19.0 -2.65 -19.0 -4.6 -15.75 -8.55 M-9.3 -3.25 Q-9.75 -3.05 -9.75 -2.55 -10.3 -1.3 -7.55 -1.3 -5.9 -1.3 -5.9 -2.05 -5.9 -3.5 -8.1 -3.5 L-9.25 -3.3 -9.4 -3.3 -9.3 -3.25" fill="#000000" fill-rule="evenodd" stroke="none"/>
  </g>
  <defs>
    <radialGradient cx="0" cy="0" gradientTransform="matrix(0.0246, 0.0, 0.0, 0.027, 1.6, -10.35)" gradientUnits="userSpaceOnUse" id="gradient0" r="819.2" spreadMethod="pad">
      <stop offset="0.0" stop-color="#ffffff"/>
      <stop offset="0.23921568627450981" stop-color="#919191"/>
      <stop offset="0.4470588235294118" stop-color="#3f3839"/>
      <stop offset="0.5411764705882353" stop-color="#928f7e"/>
      <stop offset="0.7529411764705882" stop-color="#34181a"/>
      <stop offset="1.0" stop-color="#555555"/>
    </radialGradient>
  </defs>
</svg>
