<?xml version="1.0" encoding="UTF-8" standalone="no"?>
<svg xmlns:ffdec="https://www.free-decompiler.com/flash" xmlns:xlink="http://www.w3.org/1999/xlink" ffdec:objectType="shape" height="46.95px" width="49.05px" xmlns="http://www.w3.org/2000/svg">
  <g transform="matrix(1.0, 0.0, 0.0, 1.0, 27.1, 28.7)">
    <path d="M21.95 -5.25 Q21.95 4.4 14.75 11.35 7.55 18.25 -2.6 18.25 -12.75 18.25 -19.9 11.35 -27.1 4.4 -27.1 -5.25 -27.1 -14.9 -19.9 -21.85 -12.75 -28.7 -2.6 -28.7 7.55 -28.7 14.75 -21.85 21.95 -14.9 21.95 -5.25" fill="url(#gradient0)" fill-rule="evenodd" stroke="none"/>
    <path d="M1.5 -12.55 L1.7 -12.55 Q3.3 -12.55 3.2 -11.25 3.2 -9.55 1.25 -9.5 0.0 -9.5 0.05 -11.1 0.05 -11.8 0.45 -12.15 0.6 -12.55 1.35 -12.55 L1.5 -12.55 M6.9 -8.3 L6.7 -9.05 Q6.7 -10.7 8.6 -10.7 10.0 -10.7 9.95 -9.35 9.95 -7.65 8.2 -7.65 7.25 -7.65 6.9 -8.3 M0.7 -2.2 Q0.7 -1.4 -0.1 -1.4 -0.95 -1.4 -0.85 -2.2 -0.85 -2.8 0.0 -2.8 0.85 -2.8 0.7 -2.2 M2.55 -5.6 Q3.35 -5.65 3.35 -4.7 3.35 -4.0 2.5 -4.0 1.5 -4.0 1.7 -4.75 1.8 -5.6 2.55 -5.6 M4.75 -6.1 Q4.7 -6.8 5.35 -6.8 5.95 -6.8 5.9 -6.15 5.9 -5.6 5.35 -5.6 5.0 -5.65 4.85 -5.8 L4.75 -6.1 M8.9 -6.15 Q11.6 -6.2 11.35 -2.8 L11.15 -1.45 11.85 -1.55 Q13.85 -1.55 13.95 0.8 13.95 2.65 11.65 2.7 10.6 2.65 10.1 2.25 L10.3 3.2 Q10.3 4.85 7.8 4.9 6.15 4.85 6.15 3.25 6.15 1.15 8.35 1.15 9.3 1.15 9.8 1.7 L9.8 1.0 9.9 -0.1 8.65 0.15 Q7.35 0.15 6.5 -0.75 5.8 -1.5 5.85 -2.2 5.8 -3.2 6.4 -4.4 7.3 -6.2 8.9 -6.15 M5.55 2.15 Q5.55 2.3 5.15 2.35 L4.75 2.15 Q4.6 1.3 5.15 1.35 5.65 1.3 5.65 1.85 L5.55 2.15 M1.2 5.6 Q-0.95 5.6 -0.95 3.3 L-1.2 3.7 -2.25 4.65 -2.25 4.7 Q-2.3 6.05 -3.8 6.05 L-4.55 5.9 -4.25 6.9 Q-4.25 10.35 -8.25 10.35 -11.35 10.35 -11.35 6.85 -11.35 6.05 -10.35 5.1 -9.1 3.9 -7.1 3.9 L-6.85 3.95 Q-7.4 3.25 -7.55 2.1 -7.6 2.85 -8.25 2.85 -9.45 2.85 -9.2 2.0 -9.2 1.2 -8.25 1.2 L-7.6 1.95 -7.6 1.7 Q-7.6 -2.1 -3.0 -2.05 -1.1 -2.1 -0.5 1.05 0.1 0.1 1.6 0.15 4.6 0.15 4.65 4.05 L4.65 4.3 5.05 4.25 Q7.8 4.25 8.2 7.6 8.2 8.55 7.1 9.85 5.75 11.45 4.0 11.5 0.75 11.45 0.4 8.7 0.35 7.4 1.4 6.05 L1.8 5.6 1.2 5.6 M-11.05 -4.1 Q-10.1 -4.1 -9.5 -3.0 L-9.1 -1.9 Q-9.1 -1.45 -9.55 -0.7 -10.2 0.35 -11.35 0.35 -13.05 0.35 -13.05 -1.9 -13.05 -4.1 -11.05 -4.1 M-5.55 -4.95 Q-6.7 -4.95 -6.55 -6.0 -6.55 -7.05 -5.55 -7.05 -4.4 -7.05 -4.45 -6.0 -4.45 -4.95 -5.55 -4.95 M-1.1 8.25 Q-1.1 9.3 -2.1 9.35 -3.1 9.3 -3.1 8.25 -3.1 7.25 -2.1 7.25 -1.15 7.25 -1.1 8.25" fill="#5ca354" fill-rule="evenodd" stroke="none"/>
  </g>
  <defs>
    <linearGradient gradientTransform="matrix(0.0019, 0.0286, -0.0299, 0.0023, -2.45, -5.15)" gradientUnits="userSpaceOnUse" id="gradient0" spreadMethod="pad" x1="-819.2" x2="819.2">
      <stop offset="0.0" stop-color="#000000"/>
      <stop offset="1.0" stop-color="#496953"/>
    </linearGradient>
  </defs>
</svg>
