<?xml version="1.0" encoding="UTF-8" standalone="no"?>
<svg xmlns:ffdec="https://www.free-decompiler.com/flash" xmlns:xlink="http://www.w3.org/1999/xlink" ffdec:objectType="shape" height="46.95px" width="49.05px" xmlns="http://www.w3.org/2000/svg">
  <g transform="matrix(1.0, 0.0, 0.0, 1.0, 27.1, 28.7)">
    <path d="M21.95 -5.25 Q21.95 4.4 14.75 11.35 7.55 18.25 -2.6 18.25 -12.75 18.25 -19.9 11.35 -27.1 4.4 -27.1 -5.25 -27.1 -14.9 -19.9 -21.85 -12.75 -28.7 -2.6 -28.7 7.55 -28.7 14.75 -21.85 21.95 -14.9 21.95 -5.25" fill="url(#gradient0)" fill-rule="evenodd" stroke="none"/>
    <path d="M-4.05 -6.65 Q-1.4 -8.0 4.85 -8.0 6.85 -8.0 11.1 12.35 11.1 13.3 10.5 14.0 L10.35 13.8 10.65 14.45 Q10.5 15.9 9.25 15.9 7.85 15.4 7.25 15.4 L2.4 16.0 Q-8.0 16.0 -8.0 14.2 -8.0 8.6 -6.9 6.4 -6.85 -3.5 -5.5 -5.45 L-5.0 -6.0 -4.05 -6.65 M-0.75 -6.25 L0.2 -6.45 -0.7 -6.3 -0.75 -6.25 M5.75 5.0 L6.5 4.55 Q7.0 4.0 7.0 3.5 6.85 2.35 6.05 2.2 L4.4 4.55 Q4.8 5.0 5.75 5.0 M-3.7 3.5 Q-4.25 3.9 -4.25 4.8 -4.9 6.0 -2.25 6.0 -0.9 6.0 -0.55 5.3 L-0.9 5.1 Q-2.9 4.15 -3.7 3.5" fill="#000000" fill-rule="evenodd" stroke="none"/>
    <path d="M-3.7 3.5 Q-2.9 4.15 -0.9 5.1 L-0.55 5.3 Q-0.9 6.0 -2.25 6.0 -4.9 6.0 -4.25 4.8 -4.25 3.9 -3.7 3.5 M5.75 5.0 Q4.8 5.0 4.4 4.55 L6.05 2.2 Q6.85 2.35 7.0 3.5 7.0 4.0 6.5 4.55 L5.75 5.0" fill="#ffcc00" fill-rule="evenodd" stroke="none"/>
  </g>
  <defs>
    <linearGradient gradientTransform="matrix(0.0019, 0.0286, -0.0299, 0.0023, -2.45, -5.15)" gradientUnits="userSpaceOnUse" id="gradient0" spreadMethod="pad" x1="-819.2" x2="819.2">
      <stop offset="0.5372549019607843" stop-color="#ff9900"/>
      <stop offset="1.0" stop-color="#ffff33"/>
    </linearGradient>
  </defs>
</svg>
