<?xml version="1.0" encoding="UTF-8" standalone="no"?>
<svg xmlns:ffdec="https://www.free-decompiler.com/flash" xmlns:xlink="http://www.w3.org/1999/xlink" ffdec:objectType="shape" height="30.05px" width="38.4px" xmlns="http://www.w3.org/2000/svg">
  <g transform="matrix(1.0, 0.0, 0.0, 1.0, 17.7, 12.2)">
    <path d="M-0.35 -12.2 Q4.85 -12.2 8.5 -8.55 12.15 -4.9 12.15 0.3 12.15 5.5 8.5 9.15 4.85 12.8 -0.35 12.8 -5.55 12.8 -9.2 9.15 -12.85 5.5 -12.85 0.3 -12.85 -4.9 -9.2 -8.55 -5.55 -12.2 -0.35 -12.2" fill="url(#gradient0)" fill-rule="evenodd" stroke="none"/>
    <path d="M5.3 -3.9 Q5.3 -4.65 6.2 -4.65 L15.65 1.8 Q16.0 1.2 16.25 1.2 17.45 1.2 17.3 2.5 L17.3 2.9 20.7 5.3 Q20.7 6.6 19.5 6.6 18.55 6.6 16.7 5.5 15.9 7.6 14.0 10.1 10.75 14.5 5.85 15.75 L6.15 16.7 Q6.15 17.85 5.1 17.85 4.55 17.85 3.8 16.1 L1.8 16.2 Q-6.9 16.2 -12.5 11.05 -15.9 16.05 -16.75 16.05 -17.8 16.05 -17.7 15.05 L-13.95 9.6 Q-17.45 5.9 -17.45 3.2 -17.45 2.4 -16.7 2.4 L-16.05 3.45 -11.1 -0.05 Q-5.05 -4.25 -4.35 -4.25 -3.45 -4.25 -3.6 -3.5 L-11.35 9.25 Q-8.9 11.6 -6.15 12.85 -6.0 11.5 -4.8 11.45 -1.35 -4.2 -0.15 -4.2 L5.15 13.4 Q8.05 12.5 10.2 10.65 8.85 7.2 5.4 -3.2 L5.55 -3.7 5.3 -3.9 M-6.9 -1.1 L-6.9 -1.2 -6.95 -1.15 -6.9 -1.1" fill="#ffffff" fill-rule="evenodd" stroke="none"/>
  </g>
  <defs>
    <radialGradient cx="0" cy="0" gradientTransform="matrix(0.0267, 0.0, 0.0, 0.0267, -0.25, -8.5)" gradientUnits="userSpaceOnUse" id="gradient0" r="819.2" spreadMethod="pad">
      <stop offset="0.0" stop-color="#ffffff"/>
      <stop offset="0.22745098039215686" stop-color="#76b54a"/>
      <stop offset="0.5529411764705883" stop-color="#45a945"/>
      <stop offset="0.9647058823529412" stop-color="#2f5932"/>
    </radialGradient>
  </defs>
</svg>
