<?xml version="1.0" encoding="UTF-8" standalone="no"?>
<svg xmlns:ffdec="https://www.free-decompiler.com/flash" xmlns:xlink="http://www.w3.org/1999/xlink" ffdec:objectType="shape" height="29.55px" width="30.75px" xmlns="http://www.w3.org/2000/svg">
  <g transform="matrix(1.0, 0.0, 0.0, 1.0, 16.35, 13.45)">
    <path d="M-0.35 -12.2 Q4.85 -12.2 8.5 -8.55 12.15 -4.9 12.15 0.3 12.15 5.5 8.5 9.15 4.85 12.8 -0.35 12.8 -5.55 12.8 -9.2 9.15 -12.85 5.5 -12.85 0.3 -12.85 -4.9 -9.2 -8.55 -5.55 -12.2 -0.35 -12.2" fill="url(#gradient0)" fill-rule="evenodd" stroke="none"/>
    <path d="M-3.6 2.3 L-3.6 14.05 -16.35 14.05 -16.35 -13.45 -3.6 -13.45 -3.6 -5.25 -3.6 2.3" fill="#000000" fill-rule="evenodd" stroke="none"/>
    <path d="M-3.6 -5.25 L0.85 -12.9 -2.1 -1.45 14.4 -8.2 14.2 3.45 -2.1 1.3 11.4 15.8 11.15 16.1 -3.6 2.3 -3.6 -5.25" fill="url(#gradient1)" fill-rule="evenodd" stroke="none"/>
  </g>
  <defs>
    <radialGradient cx="0" cy="0" gradientTransform="matrix(0.0275, 0.0, 0.0, 0.0275, -9.75, -1.75)" gradientUnits="userSpaceOnUse" id="gradient0" r="819.2" spreadMethod="pad">
      <stop offset="0.0" stop-color="#ffffff"/>
      <stop offset="0.22745098039215686" stop-color="#aa9155"/>
      <stop offset="0.3607843137254902" stop-color="#a0984e"/>
      <stop offset="0.6196078431372549" stop-color="#2e335a"/>
      <stop offset="0.7411764705882353" stop-color="#24284a"/>
      <stop offset="0.8980392156862745" stop-color="#000000"/>
    </radialGradient>
    <radialGradient cx="0" cy="0" gradientTransform="matrix(0.0266, 0.0, 0.0, 0.0266, -2.0, -1.25)" gradientUnits="userSpaceOnUse" id="gradient1" r="819.2" spreadMethod="pad">
      <stop offset="0.0" stop-color="#ffffff"/>
      <stop offset="0.1607843137254902" stop-color="#00ccff"/>
      <stop offset="1.0" stop-color="#7e39c6"/>
    </radialGradient>
  </defs>
</svg>
