<?xml version="1.0" encoding="UTF-8" standalone="no"?>
<svg xmlns:ffdec="https://www.free-decompiler.com/flash" xmlns:xlink="http://www.w3.org/1999/xlink" ffdec:objectType="shape" height="30.6px" width="25.15px" xmlns="http://www.w3.org/2000/svg">
  <g transform="matrix(1.0, 0.0, 0.0, 1.0, 13.0, 12.2)">
    <path d="M-0.35 -12.2 Q4.85 -12.2 8.5 -8.55 12.15 -4.9 12.15 0.3 12.15 5.5 8.5 9.15 4.85 12.8 -0.35 12.8 -5.55 12.8 -9.2 9.15 -12.85 5.5 -12.85 0.3 -12.85 -4.9 -9.2 -8.55 -5.55 -12.2 -0.35 -12.2" fill="url(#gradient0)" fill-rule="evenodd" stroke="none"/>
    <path d="M5.6 -7.95 L5.3 -6.75 6.35 -6.65 6.5 -6.0 Q6.5 -5.35 5.0 -5.0 4.9 -5.3 4.9 -4.65 4.9 -4.05 6.2 -3.45 L8.4 -2.25 8.4 -2.2 9.1 -1.7 Q10.1 -0.85 10.1 -0.15 10.1 0.7 9.5 1.75 L9.25 2.15 Q9.15 2.8 7.95 3.65 L7.9 3.7 8.4 4.25 4.0 4.95 Q0.9 5.65 0.35 7.0 L0.9 8.9 Q2.35 11.85 3.4 11.85 L5.0 11.15 Q6.7 11.15 6.75 13.0 6.7 14.75 5.0 14.75 3.2 14.75 1.05 11.5 -0.15 18.4 -3.5 18.4 -5.2 18.4 -5.95 17.4 -6.45 16.25 -6.9 15.85 -3.4 15.35 -2.55 13.9 -1.75 12.55 -1.75 10.65 -2.9 1.0 -10.15 1.0 -11.65 1.0 -11.65 3.0 L-11.75 3.25 Q-13.0 3.15 -13.0 1.9 -13.0 1.0 -12.25 -0.1 -11.35 -1.4 -10.0 -1.4 -3.8 -1.4 -0.7 4.5 L-0.25 5.4 0.1 5.0 Q1.25 3.85 2.95 3.35 1.9 2.4 1.4 0.65 L1.6 0.15 1.75 0.15 2.05 0.65 2.25 0.4 Q2.75 1.0 4.25 1.65 5.55 2.25 5.85 2.25 L7.6 1.95 Q8.15 1.35 8.45 1.25 L8.75 -0.05 Q8.75 -1.05 7.55 -1.35 L7.25 -1.25 5.8 -1.5 Q4.25 -1.4 3.75 -0.65 3.35 -0.35 3.35 -1.0 3.35 -2.0 4.2 -2.45 L4.1 -2.55 Q3.0 -3.65 3.0 -4.65 L3.15 -5.15 2.25 -5.05 Q-1.25 -5.05 -1.15 -7.0 -1.15 -7.85 -0.65 -8.4 L-0.3 -8.4 Q-0.7 -7.5 -0.55 -7.05 -0.3 -6.3 2.25 -6.3 3.75 -6.3 5.35 -8.75 L5.6 -7.95" fill="url(#gradient1)" fill-rule="evenodd" stroke="none"/>
  </g>
  <defs>
    <linearGradient gradientTransform="matrix(0.0153, 0.0, 0.0, 0.0153, -0.35, 0.3)" gradientUnits="userSpaceOnUse" id="gradient0" spreadMethod="pad" x1="-819.2" x2="819.2">
      <stop offset="0.0" stop-color="#0f0202"/>
      <stop offset="1.0" stop-color="#930f0f"/>
    </linearGradient>
    <radialGradient cx="0" cy="0" gradientTransform="matrix(0.0192, 0.0, 0.0, 0.0192, -1.45, 4.85)" gradientUnits="userSpaceOnUse" id="gradient1" r="819.2" spreadMethod="pad">
      <stop offset="0.0" stop-color="#ffffff"/>
      <stop offset="0.11372549019607843" stop-color="#dfb920"/>
      <stop offset="1.0" stop-color="#b54a4a"/>
    </radialGradient>
  </defs>
</svg>
