<?xml version="1.0" encoding="UTF-8" standalone="no"?>
<svg xmlns:ffdec="https://www.free-decompiler.com/flash" xmlns:xlink="http://www.w3.org/1999/xlink" ffdec:objectType="shape" height="27.35px" width="29.3px" xmlns="http://www.w3.org/2000/svg">
  <g transform="matrix(1.0, 0.0, 0.0, 1.0, 17.15, 14.55)">
    <path d="M-0.35 -12.2 Q4.85 -12.2 8.5 -8.55 12.15 -4.9 12.15 0.3 12.15 5.5 8.5 9.15 4.85 12.8 -0.35 12.8 -5.55 12.8 -9.2 9.15 -12.85 5.5 -12.85 0.3 -12.85 -4.9 -9.2 -8.55 -5.55 -12.2 -0.35 -12.2" fill="url(#gradient0)" fill-rule="evenodd" stroke="none"/>
    <path d="M-7.4 4.55 L-6.45 2.4 -3.75 -3.0 -3.25 -2.5 Q-3.25 -1.9 -4.85 2.4 L-6.2 5.9 -1.9 1.9 Q-4.25 5.65 -6.5 7.75 L-4.5 7.25 Q-3.5 7.25 -3.5 8.15 -3.5 9.1 -5.35 9.55 L-6.4 9.75 -8.25 10.0 -9.0 9.25 -8.7 8.85 -8.75 8.65 -8.7 8.55 -8.35 8.05 -8.4 7.95 -8.35 7.65 Q-9.15 7.15 -9.7 5.85 -10.4 4.35 -10.4 3.5 -10.4 2.25 -9.1 2.25 L-7.5 4.85 -7.4 4.55" fill="#ffffff" fill-rule="evenodd" stroke="none"/>
    <path d="M7.75 2.5 Q8.85 2.5 8.85 3.45 8.85 4.4 8.0 4.4 L6.9 4.15 Q6.75 4.05 6.75 3.4 6.75 2.5 7.75 2.5 M4.15 5.9 L4.1 6.4 4.75 6.25 Q6.0 6.25 6.35 8.2 6.35 9.4 5.35 9.4 3.0 9.4 3.4 7.95 3.4 7.25 3.65 6.85 L3.25 6.9 Q2.05 6.9 2.0 5.75 2.0 4.75 3.0 4.75 4.15 4.75 4.15 5.9" fill="url(#gradient1)" fill-rule="evenodd" stroke="none"/>
    <path d="M-8.7 8.55 L-8.75 8.5 Q-9.1 8.5 -9.75 9.25 -12.5 7.35 -14.1 6.05 -17.15 3.7 -17.15 2.5 -17.15 1.0 -15.75 1.0 -12.9 2.35 -11.8 2.35 L-12.05 0.3 Q-11.8 -8.75 -8.5 -8.75 -6.9 -8.75 -7.25 -6.9 L-7.65 -4.0 -7.1 -4.45 Q-6.3 -5.05 -5.85 -5.05 -4.3 -5.05 -4.25 -3.5 -4.25 -2.85 -5.0 -2.2 -5.75 -1.5 -6.45 -1.5 -7.45 -1.5 -7.8 -2.45 L-8.05 -0.1 Q-7.5 0.15 -7.5 0.75 -7.5 1.6 -8.15 1.85 L-8.15 2.2 Q-8.15 3.45 -7.4 4.55 L-7.5 4.85 -9.1 2.25 Q-10.4 2.25 -10.4 3.5 -10.4 4.35 -9.7 5.85 -9.15 7.15 -8.35 7.65 L-8.4 7.95 -8.35 8.05 -8.7 8.55 M-6.45 2.4 L-6.65 1.65 Q-6.65 0.8 -5.7 0.75 L-4.9 -1.2 Q-1.35 -9.95 1.35 -14.55 0.4 -12.4 0.4 -11.65 0.4 -10.35 -2.0 -4.5 L-3.95 3.45 -3.7 3.45 Q5.05 -7.05 9.5 -11.75 L9.75 -11.25 Q9.75 -10.75 3.9 -3.0 L-1.45 3.65 -0.15 2.9 Q2.95 1.2 4.6 0.65 L4.7 0.8 4.75 0.75 5.25 1.25 3.9 2.35 Q2.85 3.25 0.5 4.75 L-1.0 5.75 -1.05 7.0 Q-1.05 7.5 -1.55 8.15 0.6 9.15 0.6 9.25 L0.55 10.2 1.1 10.25 1.25 10.9 1.15 11.6 Q1.4 11.75 0.75 11.75 L0.35 11.75 Q0.1 12.65 -0.95 12.65 L-6.4 9.75 -5.35 9.55 Q-3.5 9.1 -3.5 8.15 -3.5 7.25 -4.5 7.25 L-6.5 7.75 Q-4.25 5.65 -1.9 1.9 L-6.2 5.9 -4.85 2.4 Q-3.25 -1.9 -3.25 -2.5 L-3.75 -3.0 -6.45 2.4 M1.3 3.75 Q0.25 4.3 -1.1 5.0 L-1.0 5.45 0.4 4.4 1.3 3.75" fill="url(#gradient2)" fill-rule="evenodd" stroke="none"/>
  </g>
  <defs>
    <linearGradient gradientTransform="matrix(0.0153, 0.0, 0.0, 0.0153, -0.35, 0.3)" gradientUnits="userSpaceOnUse" id="gradient0" spreadMethod="pad" x1="-819.2" x2="819.2">
      <stop offset="0.0" stop-color="#000000"/>
      <stop offset="1.0" stop-color="#550909"/>
    </linearGradient>
    <radialGradient cx="0" cy="0" gradientTransform="matrix(0.0319, 0.0, 0.0, 0.0319, -7.25, 8.25)" gradientUnits="userSpaceOnUse" id="gradient1" r="819.2" spreadMethod="pad">
      <stop offset="0.0" stop-color="#fcadad"/>
      <stop offset="0.34901960784313724" stop-color="#e61a1a"/>
      <stop offset="1.0" stop-color="#481e1e"/>
    </radialGradient>
    <radialGradient cx="0" cy="0" gradientTransform="matrix(0.0319, 0.0, 0.0, 0.0319, -7.25, 8.25)" gradientUnits="userSpaceOnUse" id="gradient2" r="819.2" spreadMethod="pad">
      <stop offset="0.0" stop-color="#ffd52b"/>
      <stop offset="0.34901960784313724" stop-color="#e61a1a"/>
      <stop offset="1.0" stop-color="#481e1e"/>
    </radialGradient>
  </defs>
</svg>
