<?xml version="1.0" encoding="UTF-8" standalone="no"?>
<svg xmlns:ffdec="https://www.free-decompiler.com/flash" xmlns:xlink="http://www.w3.org/1999/xlink" ffdec:objectType="shape" height="25.0px" width="26.7px" xmlns="http://www.w3.org/2000/svg">
  <g transform="matrix(1.0, 0.0, 0.0, 1.0, 12.85, 12.2)">
    <path d="M-0.35 -12.2 Q4.85 -12.2 8.5 -8.55 12.15 -4.9 12.15 0.3 12.15 5.5 8.5 9.15 4.85 12.8 -0.35 12.8 -5.55 12.8 -9.2 9.15 -12.85 5.5 -12.85 0.3 -12.85 -4.9 -9.2 -8.55 -5.55 -12.2 -0.35 -12.2" fill="url(#gradient0)" fill-rule="evenodd" stroke="none"/>
    <path d="M12.35 -2.65 Q13.7 -0.35 13.85 2.25 13.85 5.8 11.5 8.65 7.7 13.3 -0.75 11.5 L-0.8 11.5 0.35 12.0 -0.4 12.25 Q-6.45 12.25 -8.05 8.2 -8.9 6.15 -8.5 3.95 -8.5 0.85 -6.5 -2.25 -4.0 -6.2 0.7 -7.05 -0.95 -9.85 -3.3 -11.75 L-3.0 -11.8 Q0.1 -11.8 2.2 -7.25 L3.5 -7.3 Q9.65 -7.3 12.35 -2.65 M3.0 -5.05 Q3.95 -2.2 4.4 0.7 5.85 1.15 6.85 2.25 8.1 3.65 8.1 5.15 8.1 9.8 3.9 10.5 8.9 10.25 11.2 6.5 12.6 4.3 12.6 2.2 12.6 -0.25 10.95 -2.45 8.35 -6.0 2.7 -6.0 L3.0 -5.05 M1.4 -5.75 Q-4.55 -4.0 -6.45 -0.5 -7.5 1.45 -7.5 5.85 -7.5 8.2 -5.75 9.15 -3.95 10.2 0.45 10.45 -2.7 9.8 -2.75 6.8 -2.65 0.4 2.25 0.4 L3.3 0.45 Q3.0 -2.2 1.65 -5.2 L1.4 -5.75 M5.6 2.95 L4.5 2.25 4.1 4.5 4.25 5.25 Q4.25 7.5 3.0 7.5 L2.5 7.5 2.25 7.5 1.85 7.35 1.75 7.25 Q1.15 6.95 1.15 6.15 1.15 3.95 2.95 3.9 L3.35 1.9 1.9 1.75 Q-1.4 1.75 -1.75 6.8 -1.75 9.25 2.3 9.25 6.85 9.25 6.85 5.25 6.85 3.95 5.6 2.95" fill="#c87ad1" fill-rule="evenodd" stroke="none"/>
  </g>
  <defs>
    <linearGradient gradientTransform="matrix(0.0024, 0.0151, -0.0151, 0.0024, -0.35, 0.3)" gradientUnits="userSpaceOnUse" id="gradient0" spreadMethod="pad" x1="-819.2" x2="819.2">
      <stop offset="0.0" stop-color="#500d51"/>
      <stop offset="0.9882352941176471" stop-color="#8b0e0e"/>
    </linearGradient>
  </defs>
</svg>
