<?xml version="1.0" encoding="UTF-8" standalone="no"?>
<svg xmlns:ffdec="https://www.free-decompiler.com/flash" xmlns:xlink="http://www.w3.org/1999/xlink" ffdec:objectType="shape" height="28.3px" width="32.55px" xmlns="http://www.w3.org/2000/svg">
  <g transform="matrix(1.0, 0.0, 0.0, 1.0, 20.4, 15.5)">
    <path d="M-0.35 -12.2 Q4.85 -12.2 8.5 -8.55 12.15 -4.9 12.15 0.3 12.15 5.5 8.5 9.15 4.85 12.8 -0.35 12.8 -5.55 12.8 -9.2 9.15 -12.85 5.5 -12.85 0.3 -12.85 -4.9 -9.2 -8.55 -5.55 -12.2 -0.35 -12.2" fill="url(#gradient0)" fill-rule="evenodd" stroke="none"/>
    <path d="M-9.35 -14.95 L-9.2 -14.65 -9.55 -14.75 -9.35 -14.95" fill="#000000" fill-rule="evenodd" stroke="none"/>
    <path d="M-9.35 -14.95 Q-8.85 -15.5 -8.25 -15.5 -2.1 -15.5 2.85 -6.45 5.6 -1.45 6.45 1.85 L7.0 -5.55 7.0 -5.6 7.2 -5.9 7.55 -6.05 7.85 -5.9 8.0 -5.55 8.3 7.1 8.15 7.4 8.15 7.45 7.8 7.55 7.75 7.55 -5.45 6.35 -5.5 6.35 -6.3 6.5 -6.65 6.4 -6.85 6.05 -6.75 5.7 -6.4 5.5 4.35 3.55 Q-3.2 -2.5 -10.1 -2.5 -13.25 -2.5 -16.5 -1.05 L-17.5 -0.6 -18.55 1.15 -19.75 0.9 -19.75 0.35 -20.4 0.6 -19.4 -0.4 Q-14.05 -12.2 -9.2 -14.65 L-9.35 -14.95 M4.45 0.45 L4.65 0.55 4.55 0.25 4.45 0.45" fill="#ffffff" fill-rule="evenodd" stroke="none"/>
  </g>
  <defs>
    <radialGradient cx="0" cy="0" gradientTransform="matrix(0.028, 0.0, 0.0, 0.028, 7.3, 6.8)" gradientUnits="userSpaceOnUse" id="gradient0" r="819.2" spreadMethod="pad">
      <stop offset="0.0" stop-color="#0499fb"/>
      <stop offset="1.0" stop-color="#b12396"/>
    </radialGradient>
  </defs>
</svg>
