<?xml version="1.0" encoding="UTF-8" standalone="no"?>
<svg xmlns:ffdec="https://www.free-decompiler.com/flash" xmlns:xlink="http://www.w3.org/1999/xlink" ffdec:objectType="shape" height="34.2px" width="31.35px" xmlns="http://www.w3.org/2000/svg">
  <g transform="matrix(1.0, 0.0, 0.0, 1.0, 12.85, 19.9)">
    <path d="M-0.35 -12.2 Q4.85 -12.2 8.5 -8.55 12.15 -4.9 12.15 0.3 12.15 5.5 8.5 9.15 4.85 12.8 -0.35 12.8 -5.55 12.8 -9.2 9.15 -12.85 5.5 -12.85 0.3 -12.85 -4.9 -9.2 -8.55 -5.55 -12.2 -0.35 -12.2" fill="#ca5202" fill-rule="evenodd" stroke="none"/>
    <path d="M7.9 1.1 L7.5 1.0 Q7.35 1.4 7.35 0.75 L8.0 0.0 8.35 0.4 7.9 1.1" fill="#ffffff" fill-rule="evenodd" stroke="none"/>
    <path d="M-8.65 -8.95 L-8.3 -9.2 -7.1 -9.2 -7.1 -9.9 Q7.8 -18.75 10.65 -18.75 11.05 -18.75 13.6 -19.75 13.85 -20.15 13.85 -19.5 13.85 -19.05 10.85 -17.35 L11.15 -17.05 7.85 -14.6 17.0 -18.75 5.35 -13.0 Q3.8 -12.05 2.0 -11.05 L10.25 -14.25 11.0 -13.4 Q11.0 -12.85 -3.2 -6.85 L-2.6 -5.85 -0.75 -6.5 -0.3 -6.15 0.0 -6.3 -1.05 -7.75 -0.9 -7.75 0.2 -6.35 Q3.0 -7.5 4.75 -7.75 L0.55 -5.85 1.6 -4.1 Q6.35 -6.25 15.0 -9.65 L15.4 -9.3 Q12.2 -7.25 6.05 -4.3 9.8 -5.95 11.75 -6.5 L2.8 -1.85 3.15 -1.15 Q7.1 -2.8 14.35 -5.25 L14.6 -4.9 3.75 0.25 3.8 0.45 Q3.9 0.15 4.35 0.15 L4.5 0.25 Q7.8 -1.8 8.25 -1.8 L8.75 -1.5 Q8.85 -1.9 8.85 -1.25 8.85 -0.8 6.7 0.5 L7.0 1.0 4.75 2.55 5.3 3.9 5.5 3.9 Q8.25 2.45 13.75 0.4 L11.95 1.7 11.9 1.85 11.65 1.9 11.6 1.95 11.55 2.0 Q8.55 4.0 5.95 5.25 L6.65 6.55 8.55 5.65 Q16.4 2.0 18.0 1.75 L18.5 2.25 Q18.5 3.35 5.3 9.05 L7.55 13.8 3.2 13.8 -8.65 -8.95 M1.35 -4.0 L0.35 -5.8 -0.85 -5.25 Q-0.4 -4.7 0.1 -3.4 L1.35 -4.0 M0.9 -0.95 L1.1 -0.25 2.8 -1.0 2.5 -1.7 0.9 -0.95 M-1.95 -4.65 L-1.95 -4.75 -2.0 -4.7 -1.95 -4.65 M-3.2 -5.65 L-3.65 -6.65 -5.25 -6.0 -4.4 -5.2 -3.2 -5.65 M-3.35 -4.05 L-2.0 -2.4 -1.75 -2.5 -2.65 -4.4 -3.35 -4.05 M3.4 0.4 L1.5 1.3 1.65 1.95 2.25 3.15 Q2.3 2.9 3.1 2.4 L2.35 2.25 Q2.15 2.3 2.15 1.65 L3.6 0.8 3.4 0.4 M4.55 4.45 Q4.65 4.0 4.95 3.9 L4.45 2.75 Q3.15 3.5 2.55 3.65 L3.35 5.25 Q3.8 4.85 4.55 4.45 M6.35 6.7 L5.65 5.4 3.85 6.15 4.6 7.6 6.35 6.7" fill="url(#gradient0)" fill-rule="evenodd" stroke="none"/>
    <path d="M3.2 13.8 L-8.65 -8.95 -8.8 -9.2" fill="none" stroke="#ffffff" stroke-linecap="round" stroke-linejoin="round" stroke-width="1.0"/>
  </g>
  <defs>
    <linearGradient gradientTransform="matrix(0.0148, -0.008, 0.0081, 0.0151, 9.65, -3.25)" gradientUnits="userSpaceOnUse" id="gradient0" spreadMethod="pad" x1="-819.2" x2="819.2">
      <stop offset="0.0" stop-color="#ffffff"/>
      <stop offset="0.1411764705882353" stop-color="#ffe600"/>
      <stop offset="1.0" stop-color="#b54a4a"/>
    </linearGradient>
  </defs>
</svg>
