<?xml version="1.0" encoding="UTF-8" standalone="no"?>
<svg xmlns:ffdec="https://www.free-decompiler.com/flash" xmlns:xlink="http://www.w3.org/1999/xlink" ffdec:objectType="shape" height="35.55px" width="29.15px" xmlns="http://www.w3.org/2000/svg">
  <g transform="matrix(1.0, 0.0, 0.0, 1.0, 12.85, 12.2)">
    <path d="M-0.35 -12.2 Q4.85 -12.2 8.5 -8.55 12.15 -4.9 12.15 0.3 12.15 5.5 8.5 9.15 4.85 12.8 -0.35 12.8 -5.55 12.8 -9.2 9.15 -12.85 5.5 -12.85 0.3 -12.85 -4.9 -9.2 -8.55 -5.55 -12.2 -0.35 -12.2" fill="url(#gradient0)" fill-rule="evenodd" stroke="none"/>
    <path d="M15.95 -1.65 Q15.95 -0.95 14.5 -0.7 L13.65 -0.6 Q12.1 3.35 12.1 4.45 12.1 6.65 14.2 12.45 L16.3 18.75 Q16.3 20.3 5.7 21.9 L-9.3 23.35 Q-13.8 23.35 -12.6 20.5 -12.1 11.7 -11.95 6.35 L-12.3 6.6 -12.35 6.5 -11.95 6.1 -11.95 5.85 -11.55 5.75 -6.9 2.85 Q-2.45 0.5 -1.05 0.5 -0.55 0.5 -0.55 1.2 L-2.05 6.75 -2.05 6.9 1.45 6.5 2.7 6.6 2.7 7.05 Q2.7 8.25 1.55 14.55 L1.5 14.95 2.5 12.45 5.55 5.0 Q3.45 4.95 2.95 5.7 L1.7 5.6 Q1.55 5.65 1.55 5.0 1.55 2.75 6.35 0.25 11.15 -2.25 15.45 -2.25 15.95 -2.25 15.95 -1.65" fill="#000000" fill-rule="evenodd" stroke="none"/>
  </g>
  <defs>
    <radialGradient cx="0" cy="0" gradientTransform="matrix(0.0241, 0.0, 0.0, 0.0241, -0.25, 7.0)" gradientUnits="userSpaceOnUse" id="gradient0" r="819.2" spreadMethod="pad">
      <stop offset="0.0" stop-color="#d2c12d"/>
      <stop offset="1.0" stop-color="#452549"/>
    </radialGradient>
  </defs>
</svg>
