<?xml version="1.0" encoding="UTF-8" standalone="no"?>
<svg xmlns:ffdec="https://www.free-decompiler.com/flash" xmlns:xlink="http://www.w3.org/1999/xlink" ffdec:objectType="shape" height="51.35px" width="25.0px" xmlns="http://www.w3.org/2000/svg">
  <g transform="matrix(1.0, 0.0, 0.0, 1.0, 12.85, 19.95)">
    <path d="M-0.35 -12.2 Q4.85 -12.2 8.5 -8.55 12.15 -4.9 12.15 0.3 12.15 5.5 8.5 9.15 4.85 12.8 -0.35 12.8 -5.55 12.8 -9.2 9.15 -12.85 5.5 -12.85 0.3 -12.85 -4.9 -9.2 -8.55 -5.55 -12.2 -0.35 -12.2" fill="url(#gradient0)" fill-rule="evenodd" stroke="none"/>
    <path d="M4.9 -19.95 L4.9 31.4 2.0 31.4 2.0 -19.95 4.9 -19.95 M9.6 -14.7 L9.6 17.75 7.5 17.75 7.5 -14.7 9.6 -14.7 M-7.95 -14.2 L-7.95 21.45 -10.05 21.45 -10.05 -14.2 -7.95 -14.2 M-3.5 -19.95 L-3.5 29.55 -5.3 29.55 -5.3 -19.95 -3.5 -19.95" fill="#ffffff" fill-rule="evenodd" stroke="none"/>
  </g>
  <defs>
    <radialGradient cx="0" cy="0" gradientTransform="matrix(0.0241, 0.0, 0.0, 0.0241, -0.25, 7.0)" gradientUnits="userSpaceOnUse" id="gradient0" r="819.2" spreadMethod="pad">
      <stop offset="0.0" stop-color="#93936c"/>
      <stop offset="0.8549019607843137" stop-color="#632525"/>
    </radialGradient>
  </defs>
</svg>
