<?xml version="1.0" encoding="UTF-8" standalone="no"?>
<svg xmlns:ffdec="https://www.free-decompiler.com/flash" xmlns:xlink="http://www.w3.org/1999/xlink" ffdec:objectType="shape" height="32.55px" width="25.0px" xmlns="http://www.w3.org/2000/svg">
  <g transform="matrix(1.0, 0.0, 0.0, 1.0, 12.85, 19.75)">
    <path d="M-0.35 -12.2 Q4.85 -12.2 8.5 -8.55 12.15 -4.9 12.15 0.3 12.15 5.5 8.5 9.15 4.85 12.8 -0.35 12.8 -5.55 12.8 -9.2 9.15 -12.85 5.5 -12.85 0.3 -12.85 -4.9 -9.2 -8.55 -5.55 -12.2 -0.35 -12.2" fill="url(#gradient0)" fill-rule="evenodd" stroke="none"/>
    <path d="M7.0 -18.05 Q7.0 -11.05 6.0 10.25 6.1 10.55 5.5 10.55 5.2 10.55 -1.95 2.45 -9.9 -6.55 -12.6 -8.9 L-12.6 -9.5 Q-12.4 -9.8 -11.75 -9.8 -11.15 -9.8 -9.25 -8.25 L-7.5 -6.65 Q-7.5 -6.15 -3.55 -2.0 L3.75 5.9 3.85 5.9 3.65 2.7 3.7 -9.5 Q4.1 -17.8 6.15 -19.05 7.0 -18.9 7.0 -18.05 M3.8 -17.65 Q3.05 -7.65 3.05 -5.2 L3.55 0.5 3.5 1.0 2.8 1.25 Q2.3 1.25 -2.7 -3.9 -8.05 -9.45 -10.0 -12.55 L-9.4 -12.75 1.65 -1.55 Q0.75 -9.8 3.5 -18.15 L3.8 -17.65 M3.0 -19.0 Q3.0 -18.15 -0.15 -6.8 -1.45 -6.8 -3.2 -8.9 -4.85 -10.85 -5.3 -12.65 -5.0 -13.05 -4.75 -13.05 -1.4 -9.25 -0.5 -8.75 0.45 -17.55 2.3 -19.75 L3.0 -19.0" fill="#ffffff" fill-rule="evenodd" stroke="none"/>
  </g>
  <defs>
    <radialGradient cx="0" cy="0" gradientTransform="matrix(0.0182, 0.0, 0.0, 0.0182, -1.05, -1.55)" gradientUnits="userSpaceOnUse" id="gradient0" r="819.2" spreadMethod="pad">
      <stop offset="0.0" stop-color="#ff0000"/>
      <stop offset="1.0" stop-color="#3a2323"/>
    </radialGradient>
  </defs>
</svg>
