<?xml version="1.0" encoding="UTF-8" standalone="no"?>
<svg xmlns:ffdec="https://www.free-decompiler.com/flash" xmlns:xlink="http://www.w3.org/1999/xlink" ffdec:objectType="shape" height="28.5px" width="30.55px" xmlns="http://www.w3.org/2000/svg">
  <g transform="matrix(1.0, 0.0, 0.0, 1.0, 13.0, 14.5)">
    <path d="M-0.35 -12.2 Q4.85 -12.2 8.5 -8.55 12.15 -4.9 12.15 0.3 12.15 5.5 8.5 9.15 4.85 12.8 -0.35 12.8 -5.55 12.8 -9.2 9.15 -12.85 5.5 -12.85 0.3 -12.85 -4.9 -9.2 -8.55 -5.55 -12.2 -0.35 -12.2" fill="url(#gradient0)" fill-rule="evenodd" stroke="none"/>
    <path d="M1.35 -9.4 Q2.9 -11.35 5.4 -11.35 10.3 -11.35 11.25 -3.65 L11.05 -2.5 Q12.35 -3.25 14.35 -3.25 16.05 -3.25 16.95 -1.5 17.55 -0.35 17.55 0.55 17.55 1.7 16.55 3.15 15.15 5.25 12.75 5.25 9.55 5.25 9.1 0.3 L9.1 0.2 Q7.5 1.65 5.4 1.65 2.15 1.65 0.6 -1.5 -0.35 -3.5 -0.35 -5.4 -0.35 -6.25 0.05 -7.15 -0.85 -6.45 -2.25 -6.3 L-1.75 -4.3 Q-1.75 -2.95 -2.2 -1.65 L-1.4 -1.75 Q1.6 -1.75 1.5 2.0 1.5 5.25 -0.75 5.25 -4.4 5.25 -4.0 2.05 L-3.95 1.2 Q-5.2 2.25 -7.0 2.25 -11.65 2.25 -13.0 -3.55 -13.0 -4.9 -11.55 -7.25 -9.75 -10.25 -7.3 -10.25 L-5.8 -10.05 Q-5.6 -11.85 -3.9 -11.85 L-3.4 -11.75 Q-4.55 -10.45 -4.55 -9.65 L-4.55 -9.5 Q-3.6 -8.9 -2.95 -7.8 L-2.8 -7.8 Q0.05 -7.8 -0.1 -10.9 -0.1 -12.55 -3.5 -12.75 L-3.6 -13.3 Q-3.6 -14.5 -2.15 -14.5 1.5 -14.5 1.55 -11.5 L1.35 -9.4 M6.55 -1.8 Q6.55 -1.4 6.1 -1.25 L6.0 -1.1 Q9.0 -2.5 9.0 -4.55 9.0 -5.6 8.1 -6.95 6.9 -8.75 4.75 -8.75 2.65 -8.75 2.3 -4.9 2.3 -1.75 6.5 -2.1 L6.55 -1.8 M5.25 -0.75 L4.25 -0.5 5.25 -0.25 5.5 -0.75 5.25 -0.75 M14.25 -1.3 Q10.75 -1.3 11.3 2.3 11.3 3.5 12.95 3.5 14.25 3.5 15.1 2.15 15.75 1.15 15.75 0.55 L15.3 -0.5 Q14.8 -1.3 14.25 -1.3 M4.05 11.6 Q6.15 11.8 6.15 9.95 L5.4 8.25 5.1 8.25 3.6 10.5 Q3.6 11.1 4.05 11.6 M1.75 7.1 Q3.0 5.6 4.65 5.6 7.75 5.6 8.05 10.3 8.05 13.4 4.4 13.4 0.6 13.4 0.65 9.5 0.65 8.35 1.75 7.1 M-4.8 -6.9 L-5.3 -7.45 Q-6.25 -8.4 -7.3 -8.4 -8.1 -8.4 -8.5 -7.15 -8.9 -5.95 -8.55 -5.1 L-9.15 -4.85 Q-9.4 -4.85 -9.85 -5.3 L-10.4 -4.8 Q-10.4 -3.7 -9.6 -2.1 -8.5 0.05 -6.75 0.05 -4.05 0.05 -3.6 -4.4 -3.6 -5.1 -4.6 -6.6 L-4.8 -6.9 M-0.15 3.3 L-0.05 2.25 Q-0.05 0.5 -1.4 0.5 -2.1 0.5 -2.25 2.05 -2.25 3.55 -0.9 3.55 L-0.15 3.3 M-7.3 11.4 Q-4.75 11.4 -4.75 8.8 -4.75 8.1 -5.75 7.05 -7.0 5.8 -8.4 5.8 -9.4 5.8 -9.55 8.35 -9.1 11.4 -7.3 11.4 M-2.65 9.9 Q-2.65 14.0 -10.5 14.0 -12.85 14.0 -12.85 12.1 L-10.5 12.15 -9.65 12.0 Q-11.3 9.45 -11.3 7.95 -11.3 6.9 -10.65 5.65 -9.75 3.9 -8.1 3.9 -3.05 3.9 -2.65 9.9" fill="#ffffff" fill-rule="evenodd" stroke="none"/>
  </g>
  <defs>
    <radialGradient cx="0" cy="0" gradientTransform="matrix(0.0241, 0.0, 0.0, 0.0241, -0.25, 7.0)" gradientUnits="userSpaceOnUse" id="gradient0" r="819.2" spreadMethod="pad">
      <stop offset="0.00784313725490196" stop-color="#ffcc00"/>
      <stop offset="1.0" stop-color="#ff6600"/>
    </radialGradient>
  </defs>
</svg>
