<?xml version="1.0" encoding="UTF-8" standalone="no"?>
<svg xmlns:ffdec="https://www.free-decompiler.com/flash" xmlns:xlink="http://www.w3.org/1999/xlink" ffdec:objectType="shape" height="44.6px" width="24.5px" xmlns="http://www.w3.org/2000/svg">
  <g transform="matrix(1.0, 0.0, 0.0, 1.0, 12.35, 22.6)">
    <path d="M-0.35 -12.2 Q4.85 -12.2 8.5 -8.55 12.15 -4.9 12.15 0.3 12.15 5.5 8.5 9.15 4.85 12.8 -0.35 12.8 -5.55 12.8 -9.2 9.15 -11.5 6.85 -12.35 3.95 L-12.35 -3.3 Q-11.5 -6.25 -9.2 -8.55 -5.55 -12.2 -0.35 -12.2" fill="url(#gradient0)" fill-rule="evenodd" stroke="none"/>
    <path d="M4.95 -5.85 L9.5 21.25 8.85 22.0 Q6.5 15.4 2.7 -2.55 -0.85 -19.15 -0.85 -21.5 L-0.75 -22.5 0.25 -22.6 Q2.25 -22.6 4.95 -5.85 M-6.75 -17.0 Q-6.5 -17.4 -5.25 -17.4 -2.05 -17.4 0.6 17.15 0.6 18.9 -1.0 18.9 -5.0 18.9 -9.0 -11.1 -9.0 -13.45 -6.6 -13.85 L-6.75 -17.0" fill="#000000" fill-rule="evenodd" stroke="none"/>
  </g>
  <defs>
    <radialGradient cx="0" cy="0" gradientTransform="matrix(0.0241, 0.0, 0.0, 0.0241, -0.25, 7.0)" gradientUnits="userSpaceOnUse" id="gradient0" r="819.2" spreadMethod="pad">
      <stop offset="0.0" stop-color="#addabe"/>
      <stop offset="0.4470588235294118" stop-color="#455f65"/>
      <stop offset="1.0" stop-color="#222222"/>
    </radialGradient>
  </defs>
</svg>
