<?xml version="1.0" encoding="UTF-8" standalone="no"?>
<svg xmlns:ffdec="https://www.free-decompiler.com/flash" xmlns:xlink="http://www.w3.org/1999/xlink" ffdec:objectType="shape" height="28.2px" width="25.0px" xmlns="http://www.w3.org/2000/svg">
  <g transform="matrix(1.0, 0.0, 0.0, 1.0, 12.85, 15.4)">
    <path d="M-10.5 7.6 Q-12.85 4.45 -12.85 0.3 -12.85 -4.9 -9.2 -8.55 -5.55 -12.2 -0.35 -12.2 L3.0 -11.75 Q0.4 -8.15 -3.3 -2.35 L-6.3 2.55 Q-4.85 -2.45 -4.5 -4.25 -8.7 3.55 -8.95 6.25 L-10.5 7.6 M5.75 -10.65 L8.5 -8.55 Q12.15 -4.9 12.15 0.3 12.15 5.5 8.5 9.15 4.85 12.8 -0.35 12.8 -4.5 12.8 -7.65 10.5 L-6.55 9.0 Q-4.8 8.35 -1.25 6.35 L-1.75 5.6 -4.1 6.4 -2.4 4.7 Q3.35 -1.05 3.35 -1.9 3.35 -3.15 2.85 -2.75 L0.0 -1.0 0.8 -2.3 5.75 -10.65" fill="url(#gradient0)" fill-rule="evenodd" stroke="none"/>
    <path d="M3.0 -11.75 L5.75 -15.4 7.05 -13.8 Q7.05 -13.2 5.75 -10.65 L0.8 -2.3 0.0 -1.0 2.85 -2.75 Q3.35 -3.15 3.35 -1.9 3.35 -1.05 -2.4 4.7 L-4.1 6.4 -1.75 5.6 -1.25 6.35 Q-4.8 8.35 -6.55 9.0 L-7.65 10.5 -8.3 11.25 -9.25 10.25 Q-11.4 9.9 -10.8 7.85 L-10.5 7.6 -8.95 6.25 Q-8.7 3.55 -4.5 -4.25 -4.85 -2.45 -6.3 2.55 L-3.3 -2.35 Q0.4 -8.15 3.0 -11.75" fill="#000000" fill-rule="evenodd" stroke="none"/>
  </g>
  <defs>
    <radialGradient cx="0" cy="0" gradientTransform="matrix(0.017, 0.0, 0.0, 0.017, 0.55, 0.0)" gradientUnits="userSpaceOnUse" id="gradient0" r="819.2" spreadMethod="pad">
      <stop offset="0.0" stop-color="#ffffff"/>
      <stop offset="1.0" stop-color="#7b7b7b"/>
    </radialGradient>
  </defs>
</svg>
