<?xml version="1.0" encoding="UTF-8" standalone="no"?>
<svg xmlns:ffdec="https://www.free-decompiler.com/flash" xmlns:xlink="http://www.w3.org/1999/xlink" ffdec:objectType="shape" height="28.2px" width="25.0px" xmlns="http://www.w3.org/2000/svg">
  <g transform="matrix(1.0, 0.0, 0.0, 1.0, 12.85, 15.4)">
    <path d="M-12.35 -3.3 L-12.35 3.95 Q-12.85 2.2 -12.85 0.3 -12.85 -1.6 -12.35 -3.3" fill="url(#gradient0)" fill-rule="evenodd" stroke="none"/>
    <path d="M5.75 -10.65 Q4.45 -11.4 3.0 -11.75 L5.75 -15.4 7.05 -13.8 Q7.05 -13.2 5.75 -10.65 M-10.5 7.6 L-9.2 9.15 -7.65 10.5 -8.3 11.25 -9.25 10.25 Q-11.4 9.9 -10.8 7.85 L-10.5 7.6" fill="#fdcef9" fill-rule="evenodd" stroke="none"/>
    <path d="M3.0 -11.75 Q4.45 -11.4 5.75 -10.65 L8.5 -8.55 Q12.15 -4.9 12.15 0.3 12.15 5.5 8.5 9.15 4.85 12.8 -0.35 12.8 -4.5 12.8 -7.65 10.5 L-9.2 9.15 -10.5 7.6 Q-11.75 5.9 -12.35 3.95 L-12.35 -3.3 Q-11.5 -6.25 -9.2 -8.55 -5.55 -12.2 -0.35 -12.2 L3.0 -11.75" fill="url(#gradient1)" fill-rule="evenodd" stroke="none"/>
    <path d="M10.05 -8.1 Q8.05 -5.25 5.0 -4.35 L3.8 -4.25 Q7.05 -3.85 7.05 -2.3 7.05 -1.15 6.05 1.25 6.75 1.55 5.5 1.55 0.5 0.35 -1.75 -0.75 L-2.1 2.6 Q-2.35 4.2 -2.85 5.35 L-1.0 5.3 5.45 5.55 Q4.6 5.85 3.0 7.25 3.1 7.9 2.05 8.25 L3.0 8.3 3.05 8.0 3.75 8.0 3.95 8.35 6.65 8.25 Q6.25 7.65 6.55 7.0 L7.25 7.0 7.55 7.85 Q7.55 8.95 6.55 9.25 L4.05 9.5 Q4.0 12.05 2.5 12.05 -3.85 12.05 -6.3 10.2 -8.6 8.4 -10.6 8.5 L-10.6 -5.0 -10.5 -5.5 -9.75 -5.5 Q-9.35 -4.0 -9.35 -0.75 L-8.5 -1.6 -7.35 6.25 -7.25 6.25 -6.25 -0.85 -5.5 -1.6 Q-4.45 -0.45 -4.8 1.15 L-5.6 4.0 -5.5 4.25 -4.85 3.0 Q-4.35 3.4 -3.85 5.15 L-3.25 2.05 Q-2.8 -0.7 -3.6 -2.35 -4.25 -2.6 -3.0 -2.6 2.35 -0.25 5.3 -0.25 5.25 -1.5 3.95 -2.5 2.2 -3.85 1.8 -4.5 L1.75 -5.25 Q1.95 -5.8 3.75 -5.85 3.1 -6.45 2.8 -7.0 L2.8 -7.75 Q2.25 -8.1 3.5 -8.1 4.15 -8.1 5.0 -7.45 5.9 -6.85 6.5 -6.85 8.05 -8.15 10.05 -8.1 M1.5 9.55 L-1.85 9.5 -1.15 9.75 Q1.2 10.4 1.55 10.75 L2.5 9.55 1.5 9.55 M-1.35 7.25 L-3.4 7.15 -3.35 7.5 -3.2 8.1 -3.1 8.05 Q-3.1 7.65 -2.5 7.3 L-1.35 7.25" fill="url(#gradient2)" fill-rule="evenodd" stroke="none"/>
  </g>
  <defs>
    <radialGradient cx="0" cy="0" gradientTransform="matrix(0.017, 0.0, 0.0, 0.017, 0.55, 0.0)" gradientUnits="userSpaceOnUse" id="gradient0" r="819.2" spreadMethod="pad">
      <stop offset="0.0" stop-color="#b81da9"/>
      <stop offset="1.0" stop-color="#34212f"/>
    </radialGradient>
    <radialGradient cx="0" cy="0" gradientTransform="matrix(0.0241, 0.0, 0.0, 0.0241, -0.25, 7.0)" gradientUnits="userSpaceOnUse" id="gradient1" r="819.2" spreadMethod="pad">
      <stop offset="0.0" stop-color="#5e503c"/>
      <stop offset="0.4470588235294118" stop-color="#4b3834"/>
      <stop offset="1.0" stop-color="#1e1e1e"/>
    </radialGradient>
    <radialGradient cx="0" cy="0" gradientTransform="matrix(0.0176, 0.0, 0.0, 0.0176, -7.0, 6.0)" gradientUnits="userSpaceOnUse" id="gradient2" r="819.2" spreadMethod="pad">
      <stop offset="0.0" stop-color="#ffffff"/>
      <stop offset="1.0" stop-color="#ffcc00"/>
    </radialGradient>
  </defs>
</svg>
