<?xml version="1.0" encoding="UTF-8" standalone="no"?>
<svg xmlns:ffdec="https://www.free-decompiler.com/flash" xmlns:xlink="http://www.w3.org/1999/xlink" ffdec:objectType="shape" height="27.4px" width="25.0px" xmlns="http://www.w3.org/2000/svg">
  <g transform="matrix(1.0, 0.0, 0.0, 1.0, 12.85, 14.6)">
    <path d="M-12.35 -3.3 Q-11.5 -6.25 -9.2 -8.55 -5.55 -12.2 -0.35 -12.2 L3.0 -11.75 Q4.45 -11.4 5.75 -10.65 L8.5 -8.55 Q12.15 -4.9 12.15 0.3 12.15 5.5 8.5 9.15 4.85 12.8 -0.35 12.8 -4.5 12.8 -7.65 10.5 L-8.85 9.5 -9.05 9.3 -9.2 9.15 -9.3 9.05 -9.95 8.35 -10.2 8.0 -10.5 7.6 -10.9 7.1 -11.8 5.4 -11.9 5.15 -12.0 4.9 -12.05 4.75 -12.1 4.65 -12.2 4.35 -12.25 4.2 -12.35 3.95 -12.35 -3.3" fill="url(#gradient0)" fill-rule="evenodd" stroke="none"/>
    <path d="M-10.2 8.0 L-10.9 7.1 -10.5 7.6 -10.2 8.0 M-12.35 3.95 Q-12.85 2.2 -12.85 0.3 -12.85 -1.6 -12.35 -3.3 L-12.35 3.95" fill="url(#gradient1)" fill-rule="evenodd" stroke="none"/>
    <path d="M7.05 -8.6 L6.85 -9.25 6.25 -9.5 6.05 -9.4 6.05 -9.75 Q6.05 -10.85 4.5 -12.1 3.55 -11.6 3.35 -10.55 2.95 -10.5 3.3 -10.35 L3.3 -7.85 3.55 -7.5 4.0 -7.6 4.05 -7.35 4.25 -7.35 4.35 -7.25 Q4.35 -6.8 4.6 -6.8 L6.0 -6.85 6.6 -7.4 7.05 -7.9 Q6.85 -5.85 5.5 -5.85 1.9 -5.85 1.8 -10.5 1.8 -13.1 3.0 -13.1 6.8 -13.1 7.05 -8.6 M7.0 -8.05 L7.05 -8.25 7.05 -8.0 7.0 -8.05 M1.85 -3.5 L2.0 -4.75 3.75 -5.0 Q5.3 -5.0 5.8 -3.4 L5.8 -5.35 6.5 -5.6 Q9.7 -5.6 9.05 -2.5 9.25 -1.85 8.0 -1.85 6.95 -1.85 6.05 -2.25 L6.05 -1.6 Q6.05 0.55 5.0 0.55 L4.5 0.55 5.05 1.4 5.0 2.25 Q5.6 2.5 5.0 2.55 L5.05 3.35 5.05 3.9 Q2.0 6.25 -2.1 10.05 -1.85 10.5 -1.0 10.55 L-0.45 10.25 0.25 10.8 -1.5 11.05 Q-3.75 11.05 -5.2 10.3 -7.9 9.7 -9.0 7.8 L-9.55 6.2 -9.1 5.35 -9.1 5.55 -7.9 6.9 -7.7 7.15 -7.45 7.45 -7.5 7.15 Q-6.15 7.9 -4.0 8.05 L-3.0 9.55 Q-2.0 9.55 -1.35 8.5 L-1.0 7.85 Q2.15 7.15 3.65 4.0 3.8 4.35 3.8 3.6 L4.05 2.9 Q4.05 1.25 3.25 -0.35 L2.05 -2.0 3.4 -2.05 3.3 -1.4 Q3.3 -0.6 3.55 -0.45 L4.5 -0.35 Q5.0 -0.6 5.05 -1.0 4.9 -1.0 5.05 -2.1 4.75 -2.5 4.05 -2.6 L4.05 -2.85 Q4.0 -3.4 3.25 -4.0 L1.85 -3.5 M4.4 7.0 L3.85 8.0 3.1 7.95 4.4 7.0 M-8.45 -1.3 L-8.25 -1.6 -8.5 -0.95 -8.45 -1.3 M-8.15 -1.75 L-6.55 -3.15 Q-5.9 -4.4 -4.85 -4.55 L-6.35 -2.05 -7.5 -2.1 Q-7.8 -1.9 -8.15 -1.75 M-3.45 -4.5 L-2.1 -4.2 -2.05 -3.6 -2.5 -3.6 -4.15 -3.3 -3.45 -4.5 M-1.1 -3.75 L-0.6 -3.4 -1.6 -3.55 -1.1 -3.75 M0.6 -2.95 L1.25 -3.0 1.35 -3.0 1.3 -2.75 2.0 -2.05 Q1.4 -2.6 0.6 -2.95 M8.5 -3.1 L8.55 -4.6 Q8.25 -5.0 7.5 -5.1 L6.8 -4.5 7.55 -3.0 8.5 -3.1 M-7.4 2.3 L-6.75 3.4 -6.75 3.55 -8.05 3.5 -7.4 2.3 M-8.55 -0.4 L-8.6 0.25 -8.1 1.15 -9.6 4.3 Q-8.9 1.7 -8.55 -0.4 M-3.5 9.05 Q-4.55 8.7 -5.45 8.15 L-4.15 9.25 -3.5 9.05" fill="#ff9900" fill-rule="evenodd" stroke="none"/>
    <path d="M7.05 -7.9 L6.6 -7.4 7.0 -8.05 7.05 -8.0 7.05 -7.9 M4.35 -7.25 L4.25 -7.35 4.05 -7.6 4.3 -7.65 4.3 -7.55 4.35 -7.25 M3.35 -10.55 Q3.55 -11.6 4.5 -12.1 6.05 -10.85 6.05 -9.75 L6.05 -9.4 5.75 -9.2 5.55 -9.9 Q5.25 -10.6 4.0 -10.6 L3.35 -10.55 M-8.25 -1.6 L-8.15 -1.75 Q-7.8 -1.9 -7.5 -2.1 L-6.35 -2.05 -8.1 1.15 -8.6 0.25 -8.55 -0.4 -8.5 -0.95 -8.25 -1.6 M-0.6 -3.4 L0.6 -2.95 Q1.4 -2.6 2.0 -2.05 L2.0 -2.0 2.05 -2.0 3.25 -0.35 Q4.05 1.25 4.05 2.9 L3.8 3.6 Q3.8 4.35 3.65 4.0 2.15 7.15 -1.0 7.85 L-1.35 8.5 Q-2.0 9.55 -3.0 9.55 L-4.0 8.05 Q-6.15 7.9 -7.5 7.15 L-7.9 6.9 -9.1 5.55 -9.1 5.35 -8.05 3.5 -6.75 3.55 -6.75 3.4 -7.4 2.3 -7.0 1.65 Q-6.6 4.2 -3.05 4.5 -2.55 5.0 -2.05 5.0 L-0.85 4.35 0.05 3.55 1.05 2.3 Q1.05 1.5 0.55 0.95 0.4 0.15 -0.75 -1.0 -2.35 -2.6 -4.5 -2.6 L-4.55 -2.6 -4.15 -3.3 -2.5 -3.6 -2.05 -3.6 Q-2.0 -3.15 -1.85 -3.5 L-1.6 -3.55 -0.6 -3.4 M4.05 -2.6 Q4.75 -2.5 5.05 -2.1 4.9 -1.0 5.05 -1.0 5.0 -0.6 4.5 -0.35 L3.55 -0.45 Q3.3 -0.6 3.3 -1.4 L3.4 -2.05 4.0 -2.1 4.05 -2.6 M-4.5 -1.1 L-4.1 -1.1 Q-4.1 -0.3 -5.85 0.75 L-4.5 -1.1" fill="#ffcc00" fill-rule="evenodd" stroke="none"/>
    <path d="M6.05 -9.4 L6.25 -9.5 6.85 -9.25 7.05 -8.6 7.05 -8.5 7.05 -8.35 7.05 -8.25 7.0 -8.05 6.6 -7.4 6.0 -6.85 4.6 -6.8 Q4.35 -6.8 4.35 -7.25 L4.3 -7.55 4.3 -7.65 Q6.0 -8.05 6.05 -8.6 L5.75 -9.2 6.05 -9.4 M0.55 0.95 Q1.05 1.5 1.05 2.3 L0.05 3.55 Q0.55 2.7 0.55 1.15 L0.55 0.95 M-0.85 4.35 L-2.05 5.0 Q-2.55 5.0 -3.05 4.5 L-2.0 4.55 -0.85 4.35" fill="#fedf67" fill-rule="evenodd" stroke="none"/>
    <path d="M4.0 -7.6 L3.55 -7.5 3.3 -7.85 3.3 -10.35 Q2.95 -10.5 3.35 -10.55 L4.0 -10.6 Q5.25 -10.6 5.55 -9.9 L5.75 -9.2 6.05 -8.6 Q6.0 -8.05 4.3 -7.65 L4.05 -7.6 4.0 -7.6 M1.35 -3.0 L1.85 -3.5 3.25 -4.0 Q4.0 -3.4 4.05 -2.85 L4.05 -2.6 4.0 -2.1 3.4 -2.05 2.05 -2.0 2.0 -2.0 2.0 -2.05 1.3 -2.75 1.35 -3.0 M8.5 -3.1 L7.55 -3.0 6.8 -4.5 7.5 -5.1 Q8.25 -5.0 8.55 -4.6 L8.5 -3.1 M0.55 0.95 L0.55 1.15 Q0.55 2.7 0.05 3.55 L-0.85 4.35 -2.0 4.55 -3.05 4.5 Q-6.6 4.2 -7.0 1.65 L-4.55 -2.6 -4.5 -2.6 Q-2.35 -2.6 -0.75 -1.0 0.4 0.15 0.55 0.95 M-4.5 -1.1 L-5.85 0.75 Q-4.1 -0.3 -4.1 -1.1 L-4.5 -1.1" fill="#ffffff" fill-rule="evenodd" stroke="none"/>
    <path d="M5.05 3.9 Q9.5 0.35 11.55 -0.1 8.55 3.8 4.4 7.0 L3.1 7.95 3.85 8.0 6.05 8.3 0.5 11.0 0.25 10.8 -0.45 10.25 -1.0 10.55 Q-1.85 10.5 -2.1 10.05 2.0 6.25 5.05 3.9 M-9.55 6.2 L-10.0 7.0 -10.6 6.75 -10.5 6.5 -10.85 6.5 -11.1 4.35 Q-11.1 2.65 -10.35 -0.4 -9.5 -3.7 -8.75 -4.0 -8.35 -4.65 -8.35 -3.4 L-8.45 -1.3 -8.5 -0.95 -8.55 -0.4 -8.5 -0.95 -8.55 -0.4 Q-8.9 1.7 -9.6 4.3 L-8.1 1.15 -6.35 -2.05 -4.85 -4.55 -4.7 -4.8 Q-0.65 -11.3 2.55 -14.6 L-3.45 -4.5 -4.15 -3.3 -4.55 -2.6 -7.0 1.65 -7.4 2.3 -8.05 3.5 -9.1 5.35 -9.55 6.2 M-2.1 -4.2 L-2.1 -4.25 Q-2.1 -4.85 -1.35 -5.6 -0.5 -6.45 0.55 -6.1 L-0.05 -4.8 Q-0.5 -4.1 -1.1 -3.75 L-1.6 -3.55 -1.85 -3.5 Q-2.0 -3.15 -2.05 -3.6 L-2.1 -4.2" fill="#fdcf1c" fill-rule="evenodd" stroke="none"/>
  </g>
  <defs>
    <radialGradient cx="0" cy="0" gradientTransform="matrix(0.0241, 0.0, 0.0, 0.0241, -0.25, 7.0)" gradientUnits="userSpaceOnUse" id="gradient0" r="819.2" spreadMethod="pad">
      <stop offset="0.0" stop-color="#533c5e"/>
      <stop offset="0.4470588235294118" stop-color="#6b1414"/>
      <stop offset="1.0" stop-color="#281314"/>
    </radialGradient>
    <radialGradient cx="0" cy="0" gradientTransform="matrix(0.0275, 0.0, 0.0, 0.0275, -9.75, -1.75)" gradientUnits="userSpaceOnUse" id="gradient1" r="819.2" spreadMethod="pad">
      <stop offset="0.0" stop-color="#533c5e"/>
      <stop offset="0.4470588235294118" stop-color="#6b1414"/>
      <stop offset="1.0" stop-color="#281314"/>
    </radialGradient>
  </defs>
</svg>
