<?xml version="1.0" encoding="UTF-8" standalone="no"?>
<svg xmlns:ffdec="https://www.free-decompiler.com/flash" xmlns:xlink="http://www.w3.org/1999/xlink" ffdec:objectType="shape" height="30.7px" width="28.3px" xmlns="http://www.w3.org/2000/svg">
  <g transform="matrix(1.0, 0.0, 0.0, 1.0, 16.15, 17.0)">
    <path d="M-0.35 -12.2 Q4.85 -12.2 8.5 -8.55 12.15 -4.9 12.15 0.3 12.15 5.5 8.5 9.15 4.85 12.8 -0.35 12.8 -5.55 12.8 -9.2 9.15 -12.85 5.5 -12.85 0.3 -12.85 -4.9 -9.2 -8.55 -5.55 -12.2 -0.35 -12.2" fill="url(#gradient0)" fill-rule="evenodd" stroke="none"/>
    <path d="M5.55 -8.75 Q5.55 -8.15 4.5 -7.0 3.8 -7.25 3.8 -8.15 3.8 -9.45 4.5 -9.6 L5.3 -9.6 Q5.55 -9.55 5.55 -8.75 M0.45 -4.3 Q-1.1 -7.8 -1.1 -8.6 L-1.0 -9.35 -0.25 -9.5 Q1.2 -7.8 3.65 -2.9 L4.85 -0.5 4.8 -1.0 Q4.8 -4.55 6.25 -6.0 6.6 -5.3 7.55 -0.45 8.55 4.7 8.55 6.35 L9.3 5.2 Q9.5 4.45 9.15 3.05 8.8 1.25 8.8 0.5 8.8 -0.55 10.25 -1.0 L10.55 2.15 Q10.55 10.7 3.5 13.5 2.8 14.1 2.8 12.85 L5.0 10.25 5.3 9.8 0.75 10.0 Q0.3 10.1 0.3 8.85 L0.35 8.55 -0.5 8.55 Q-3.1 8.0 -4.7 7.1 L-5.6 7.25 -5.6 6.5 Q-5.6 5.75 -5.0 5.3 -4.3 6.45 -1.35 6.65 L2.7 7.0 2.8 6.95 2.55 6.4 1.0 5.6 Q-2.55 3.25 -5.6 1.55 -5.6 0.8 -3.6 0.75 L-9.1 -3.35 -8.85 -4.5 -8.2 -4.3 -12.6 -8.0 Q-13.25 -8.1 -12.0 -8.1 -10.25 -8.1 -2.45 -0.85 L-13.1 -11.25 Q-13.1 -12.2 -12.45 -12.45 L-16.1 -16.5 -16.0 -16.85 Q-16.5 -17.0 -15.25 -17.0 -13.4 -17.0 -11.3 -15.9 L-10.75 -16.0 Q-9.9 -16.0 -7.8 -13.45 -4.05 -10.3 0.4 -4.25 L0.45 -4.3 M2.95 8.65 L2.8 8.65 2.55 8.75 2.95 8.65 M-9.0 1.3 Q-7.3 2.35 -7.35 3.3 -7.5 3.3 -8.5 4.0 -9.6 3.55 -9.6 2.15 L-9.5 1.55 -9.0 1.3" fill="#ffffff" fill-rule="evenodd" stroke="none"/>
  </g>
  <defs>
    <linearGradient gradientTransform="matrix(0.0024, 0.0151, -0.0151, 0.0024, -0.35, 0.3)" gradientUnits="userSpaceOnUse" id="gradient0" spreadMethod="pad" x1="-819.2" x2="819.2">
      <stop offset="0.0" stop-color="#55e7f7"/>
      <stop offset="0.9882352941176471" stop-color="#394260"/>
    </linearGradient>
  </defs>
</svg>
