<?xml version="1.0" encoding="UTF-8" standalone="no"?>
<svg xmlns:ffdec="https://www.free-decompiler.com/flash" xmlns:xlink="http://www.w3.org/1999/xlink" ffdec:objectType="shape" height="29.05px" width="25.4px" xmlns="http://www.w3.org/2000/svg">
  <g transform="matrix(1.0, 0.0, 0.0, 1.0, 12.85, 15.0)">
    <path d="M-0.35 -12.2 Q4.85 -12.2 8.5 -8.55 12.15 -4.9 12.15 0.3 12.15 5.5 8.5 9.15 4.85 12.8 -0.35 12.8 -5.55 12.8 -9.2 9.15 -12.85 5.5 -12.85 0.3 -12.85 -4.9 -9.2 -8.55 -5.55 -12.2 -0.35 -12.2" fill="url(#gradient0)" fill-rule="evenodd" stroke="none"/>
    <path d="M3.65 -9.3 Q8.0 -8.45 10.5 -4.95 12.2 -2.6 12.55 -0.15 12.55 2.5 9.75 7.5 6.05 14.05 1.0 14.05 L-3.6 14.0 Q-4.1 13.25 -4.1 12.5 L-2.6 12.75 Q4.75 12.75 6.8 10.75 7.95 9.6 8.25 7.5 L8.05 7.25 6.8 8.1 6.35 6.55 Q7.35 5.5 7.85 4.0 L8.2 1.65 9.05 1.05 Q9.05 -0.15 8.75 0.3 L8.15 0.0 7.85 -2.5 7.5 -2.5 6.55 -0.5 5.5 -0.6 4.8 -0.5 4.8 0.05 Q5.0 0.4 6.0 0.8 L5.85 1.1 3.7 1.25 Q4.55 0.0 4.55 -1.15 L4.7 -1.7 5.1 -2.25 5.45 -2.7 5.85 -3.2 7.05 -3.75 6.6 -4.3 7.05 -5.25 7.0 -5.9 8.3 -4.6 8.75 -4.75 Q7.05 -7.1 5.55 -7.25 L5.75 -7.1 6.8 -6.1 6.0 -6.1 5.35 -5.65 4.05 -6.7 3.25 -7.05 3.65 -9.3 M5.9 8.7 L5.2 9.1 Q2.7 10.55 -2.75 10.55 L-5.3 10.35 -4.2 8.9 -1.75 9.05 Q2.55 9.05 5.0 7.6 L5.9 8.7 M-6.1 10.2 Q-11.6 8.85 -11.6 2.4 -11.6 -4.5 -7.55 -7.45 -6.2 -6.5 -5.0 -5.55 -6.5 -4.2 -8.25 -1.85 -8.25 -1.25 -6.5 3.0 L-6.0 3.0 -6.1 1.4 -4.25 1.55 -4.15 1.55 -4.0 1.75 -3.2 1.5 -3.35 1.65 -4.55 3.55 -5.25 3.55 -6.0 4.3 -5.4 5.55 -5.6 6.5 -5.8 6.85 -7.25 5.05 -8.6 5.75 Q-8.35 7.65 -6.05 8.5 L-6.1 10.2 M-6.35 -8.2 Q-3.65 -9.6 0.5 -9.6 L1.95 -9.55 1.9 -9.25 1.6 -7.45 -1.0 -7.6 Q-2.35 -7.6 -4.0 -6.4 L-4.5 -6.8 -6.35 -8.2 M1.15 -5.5 L0.6 -4.05 0.0 -4.1 -0.95 -4.0 -2.55 -5.25 0.0 -5.6 1.15 -5.5 M2.9 -5.0 L3.6 -4.6 4.05 -4.25 3.65 -3.8 2.85 -3.3 2.55 -3.45 2.9 -5.0 M9.05 -3.35 L9.55 2.15 Q9.55 3.3 7.8 5.55 L8.0 5.75 Q9.85 3.85 10.2 2.75 L10.3 0.35 10.35 -1.7 Q10.2 -3.15 9.05 -3.35 M5.15 2.65 L5.0 2.95 4.85 2.75 5.15 2.65 M3.3 4.65 L3.35 4.7 3.7 5.4 Q1.6 8.55 -1.0 8.55 L-3.65 8.1 -3.05 7.25 -2.85 7.25 Q-0.05 7.25 2.25 5.55 L3.3 4.65 M-0.3 6.2 L1.05 2.8 1.5 3.15 3.1 4.45 2.1 5.55 Q1.0 6.55 -0.3 6.2 M-8.85 -4.65 L-9.1 -3.1 -9.0 -3.0 -6.55 -5.75 -7.0 -5.75 Q-8.45 -5.75 -8.85 -4.65 M-6.1 0.55 L-6.1 -0.05 Q-6.1 -3.4 -3.85 -4.7 L-2.45 -3.6 Q-3.2 -2.95 -4.0 -2.35 L-4.15 -2.1 Q-5.2 -2.1 -4.6 -2.0 L-4.6 -1.3 -4.85 -0.15 -4.85 -0.1 -6.1 0.55 M-1.85 5.4 L-1.7 5.15 -1.6 5.55 -1.85 5.4 M-10.25 5.0 Q-9.35 5.0 -7.75 3.8 -9.35 -0.8 -9.75 -1.35 -10.35 0.55 -10.35 2.3 L-10.25 5.0" fill="#b789c2" fill-opacity="0.52156866" fill-rule="evenodd" stroke="none"/>
    <path d="M1.95 -9.55 Q2.6 -13.8 3.75 -15.0 L4.05 -13.85 Q4.05 -12.15 3.65 -9.3 L3.25 -7.05 2.9 -5.0 2.55 -3.45 2.45 -2.85 2.85 -3.3 3.65 -3.8 4.05 -4.25 5.35 -5.65 6.0 -6.1 6.8 -6.1 7.0 -5.9 7.05 -5.25 6.6 -4.3 5.85 -3.2 5.45 -2.7 5.1 -2.25 4.7 -1.7 4.55 -1.15 Q4.55 0.0 3.7 1.25 L5.85 1.1 6.8 1.05 6.0 0.8 Q5.0 0.4 4.8 0.05 L4.8 -0.5 5.5 -0.6 6.55 -0.5 8.15 0.0 8.75 0.3 Q9.05 -0.15 9.05 1.05 L8.2 1.65 7.35 1.9 5.15 2.65 4.85 2.75 5.0 2.95 5.05 3.0 5.05 3.2 Q5.7 4.5 6.35 6.55 L6.8 8.1 7.05 9.05 6.75 9.5 5.9 8.7 5.0 7.6 3.7 5.4 3.35 4.7 3.3 4.65 3.1 4.45 1.5 3.15 1.05 2.8 -0.3 6.2 -1.0 7.0 -1.6 5.55 -1.7 5.15 -1.85 5.4 -3.05 7.25 -3.65 8.1 -4.2 8.9 -5.3 10.35 -5.5 10.5 -6.1 10.25 -6.1 10.2 -6.05 8.5 -5.8 6.85 -5.6 6.5 -5.4 5.55 -4.55 3.55 -3.35 1.65 -3.2 1.5 -3.2 1.45 -4.15 1.55 -4.25 1.55 -6.1 1.4 -6.6 1.05 -6.1 0.55 -4.85 -0.1 -3.75 -0.5 -4.6 -1.3 -4.6 -2.0 Q-5.2 -2.1 -4.15 -2.1 L-4.0 -2.1 -0.65 -1.4 -0.5 -1.4 -0.25 -1.6 -2.45 -3.6 -3.85 -4.7 -5.0 -5.55 Q-6.2 -6.5 -7.55 -7.45 L-9.6 -8.85 -9.35 -10.0 -6.35 -8.2 -4.5 -6.8 -4.0 -6.4 -2.55 -5.25 -0.95 -4.0 0.05 -3.25 0.6 -4.05 1.15 -5.5 1.6 -7.45 1.9 -9.25 1.95 -9.55 M3.0 0.05 L2.35 0.2 2.85 0.55 3.0 0.05 M1.8 2.0 L1.85 1.75 Q1.3 1.65 1.8 2.0" fill="#000000" fill-rule="evenodd" stroke="none"/>
  </g>
  <defs>
    <linearGradient gradientTransform="matrix(0.0024, 0.0151, -0.0151, 0.0024, -0.35, 0.3)" gradientUnits="userSpaceOnUse" id="gradient0" spreadMethod="pad" x1="-819.2" x2="819.2">
      <stop offset="0.0" stop-color="#2f2439"/>
      <stop offset="0.9882352941176471" stop-color="#543762"/>
    </linearGradient>
  </defs>
</svg>
