<?xml version="1.0" encoding="UTF-8" standalone="no"?>
<svg xmlns:ffdec="https://www.free-decompiler.com/flash" xmlns:xlink="http://www.w3.org/1999/xlink" ffdec:objectType="shape" height="25.0px" width="25.65px" xmlns="http://www.w3.org/2000/svg">
  <g transform="matrix(1.0, 0.0, 0.0, 1.0, 12.85, 12.2)">
    <path d="M10.9 -5.3 L9.25 -7.15 Q5.65 -10.45 0.65 -10.45 -4.4 -10.45 -7.95 -7.15 -11.5 -3.85 -11.5 0.8 -11.5 5.4 -7.95 8.75 -4.4 12.05 0.65 12.05 4.4 12.05 7.35 10.2 4.05 12.8 -0.35 12.8 -5.55 12.8 -9.2 9.15 -12.85 5.5 -12.85 0.3 -12.85 -4.9 -9.2 -8.55 -5.55 -12.2 -0.35 -12.2 4.85 -12.2 8.5 -8.55 10.0 -7.05 10.9 -5.3" fill="url(#gradient0)" fill-rule="evenodd" stroke="none"/>
    <path d="M7.35 10.2 Q4.4 12.05 0.65 12.05 -4.4 12.05 -7.95 8.75 -11.5 5.4 -11.5 0.8 -11.5 -3.85 -7.95 -7.15 -4.4 -10.45 0.65 -10.45 5.65 -10.45 9.25 -7.15 L10.9 -5.3 Q12.8 -2.6 12.8 0.8 12.8 5.4 9.25 8.75 L7.35 10.2" fill="url(#gradient1)" fill-rule="evenodd" stroke="none"/>
    <path d="M1.4 -5.25 L-1.95 -2.85 -2.0 -2.15 Q-1.05 -1.1 1.45 -0.3 L5.75 -0.5 5.95 -0.15 6.1 -0.5 Q4.65 -1.5 2.3 -4.2 L1.4 -5.25 M7.0 -1.75 Q8.05 -2.9 10.0 -4.1 L11.05 -4.0 11.15 -3.8 12.0 -4.6 Q12.25 -4.4 12.45 -4.45 L12.55 -3.65 11.5 -2.8 11.55 -2.5 10.55 -2.15 7.75 -0.1 7.55 0.65 8.2 0.15 9.35 -0.5 Q11.6 -0.5 12.05 2.05 L12.0 3.25 11.0 3.5 Q9.3 3.5 4.15 1.55 L0.65 1.4 -2.4 1.05 Q-3.35 6.05 -6.0 6.05 L-7.9 5.8 -8.0 6.75 -8.5 7.0 Q-9.05 6.75 -9.1 5.55 L-9.4 5.45 -12.1 4.55 -12.1 3.8 Q-12.55 3.5 -11.3 3.5 L-9.05 4.45 -8.6 1.8 Q-8.0 -1.1 -7.5 -1.1 L-2.95 -0.75 -2.9 -1.35 -5.6 -2.55 -2.75 -4.4 -3.1 -11.0 Q-3.75 -11.1 -2.5 -11.1 -1.7 -11.1 1.6 -7.05 4.75 -8.85 5.55 -8.6 5.05 -7.85 2.5 -6.0 6.0 -1.75 6.75 -1.75 L7.0 -1.75 M-2.1 -0.65 L-0.95 -0.55 -2.1 -1.0 -2.1 -0.65 M-1.9 -4.95 L0.45 -6.4 -1.85 -9.25 -1.9 -4.95 M-7.8 4.75 L-7.35 4.75 Q-4.25 4.75 -3.25 0.85 L-5.85 0.25 Q-7.25 1.4 -7.65 3.35 L-7.8 4.75 M-2.35 7.3 L-3.0 8.8 -3.85 9.0 -4.1 8.0 Q-4.1 7.25 -3.8 7.0 L-3.5 6.8 -2.35 7.3" fill="#95c8fb" fill-rule="evenodd" stroke="none"/>
  </g>
  <defs>
    <radialGradient cx="0" cy="0" gradientTransform="matrix(0.0275, 0.0, 0.0, 0.0275, -9.75, -1.75)" gradientUnits="userSpaceOnUse" id="gradient0" r="819.2" spreadMethod="pad">
      <stop offset="0.0" stop-color="#ffffff"/>
      <stop offset="0.22745098039215686" stop-color="#5ea26a"/>
      <stop offset="0.3607843137254902" stop-color="#629b53"/>
      <stop offset="0.6039215686274509" stop-color="#523c36"/>
      <stop offset="0.7411764705882353" stop-color="#3f3037"/>
      <stop offset="0.8980392156862745" stop-color="#000000"/>
    </radialGradient>
    <radialGradient cx="0" cy="0" gradientTransform="matrix(0.0149, 0.0, 0.0, 0.0156, 0.6, 0.8)" gradientUnits="userSpaceOnUse" id="gradient1" r="819.2" spreadMethod="pad">
      <stop offset="0.0" stop-color="#9cb8a4"/>
      <stop offset="0.4" stop-color="#407c95"/>
      <stop offset="0.5215686274509804" stop-color="#444059"/>
      <stop offset="0.7529411764705882" stop-color="#1e232f"/>
      <stop offset="1.0" stop-color="#223322"/>
    </radialGradient>
  </defs>
</svg>
