<?xml version="1.0" encoding="UTF-8" standalone="no"?>
<svg xmlns:ffdec="https://www.free-decompiler.com/flash" xmlns:xlink="http://www.w3.org/1999/xlink" ffdec:objectType="shape" height="22.5px" width="24.3px" xmlns="http://www.w3.org/2000/svg">
  <g transform="matrix(1.0, 0.0, 0.0, 1.0, 12.0, 11.25)">
    <path d="M0.0 11.25 Q-4.95 11.2 -8.45 7.95 -11.7 4.9 -12.0 0.75 L-12.0 0.0 -12.0 -0.75 Q-11.75 -4.9 -8.45 -7.95 -4.95 -11.2 0.0 -11.25 L0.0 11.25" fill="url(#gradient0)" fill-rule="evenodd" stroke="none"/>
    <path d="M0.0 -11.25 L0.15 -11.25 Q5.15 -11.25 8.75 -7.95 L10.4 -6.1 Q12.05 -3.7 12.25 -0.75 L12.3 0.0 12.25 0.75 Q12.0 4.9 8.75 7.95 L6.85 9.4 Q3.9 11.25 0.15 11.25 L0.0 11.25 0.0 -11.25" fill="url(#gradient1)" fill-rule="evenodd" stroke="none"/>
  </g>
  <defs>
    <radialGradient cx="0" cy="0" gradientTransform="matrix(0.0149, 0.0, 0.0, 0.0156, 0.1, 0.0)" gradientUnits="userSpaceOnUse" id="gradient0" r="819.2" spreadMethod="pad">
      <stop offset="0.0" stop-color="#ece2df"/>
      <stop offset="0.9568627450980393" stop-color="#92524b"/>
    </radialGradient>
    <radialGradient cx="0" cy="0" gradientTransform="matrix(0.0149, 0.0, 0.0, 0.0156, 0.1, 0.0)" gradientUnits="userSpaceOnUse" id="gradient1" r="819.2" spreadMethod="pad">
      <stop offset="0.0" stop-color="#734040"/>
      <stop offset="1.0" stop-color="#0f0b0b"/>
    </radialGradient>
  </defs>
</svg>
