<?xml version="1.0" encoding="UTF-8" standalone="no"?>
<svg xmlns:ffdec="https://www.free-decompiler.com/flash" xmlns:xlink="http://www.w3.org/1999/xlink" ffdec:objectType="shape" height="21.0px" width="21.0px" xmlns="http://www.w3.org/2000/svg">
  <g transform="matrix(1.0, 0.0, 0.0, 1.0, 10.5, 10.5)">
    <path d="M10.4 1.9 L10.3 2.2 10.3 2.3 10.25 2.55 9.35 4.85 9.2 5.2 7.55 7.35 7.45 7.4 7.35 7.5 5.95 8.7 Q3.35 10.5 0.0 10.5 -3.15 10.5 -5.6 8.9 L-5.9 8.7 -7.3 7.5 -7.4 7.4 -7.45 7.35 -7.5 7.3 -7.55 7.25 -9.25 4.95 -9.35 4.75 -9.45 4.55 -10.3 1.95 -10.35 1.7 -10.5 0.0 -10.5 -0.15 Q-10.45 -4.35 -7.5 -7.35 L-7.4 -7.45 -7.3 -7.55 Q-4.3 -10.55 0.0 -10.5 4.3 -10.55 7.35 -7.55 L7.45 -7.45 7.55 -7.35 Q10.45 -4.35 10.5 -0.15 L10.5 0.0 10.4 1.8 10.4 1.9 M0.0 -9.5 Q-3.95 -9.55 -6.7 -6.75 -9.5 -3.95 -9.5 0.0 L-9.35 1.55 Q-9.15 3.0 -8.45 4.3 L-6.7 6.7 -5.25 7.95 Q-2.95 9.5 0.0 9.5 2.95 9.5 5.3 7.95 L6.75 6.7 8.4 4.55 Q9.05 3.4 9.35 2.1 L9.35 2.05 9.4 1.7 9.4 1.65 9.5 0.0 Q9.5 -3.95 6.75 -6.75 3.95 -9.55 0.0 -9.5" fill="#000000" fill-rule="evenodd" stroke="none"/>
  </g>
</svg>
