<?xml version="1.0" encoding="UTF-8" standalone="no"?>
<svg xmlns:ffdec="https://www.free-decompiler.com/flash" xmlns:xlink="http://www.w3.org/1999/xlink" ffdec:objectType="shape" height="22.5px" width="22.5px" xmlns="http://www.w3.org/2000/svg">
  <g transform="matrix(1.0, 0.0, 0.0, 1.0, 11.25, 11.25)">
    <path d="M8.0 -7.95 L8.1 -7.85 Q11.2 -4.65 11.25 -0.15 L11.25 0.0 11.15 1.85 11.1 2.15 11.05 2.3 11.05 2.45 11.0 2.7 10.05 5.25 9.85 5.55 8.05 7.85 8.0 7.95 7.9 8.05 6.4 9.3 Q3.6 11.25 0.0 11.25 -3.4 11.25 -6.05 9.5 -6.2 9.35 -6.35 9.3 L-7.8 8.05 -7.9 7.95 -8.0 7.85 -8.1 7.7 Q-9.2 6.6 -9.9 5.3 L-10.0 5.15 -10.0 5.05 -9.9 5.05 -10.0 5.0 -10.05 4.95 -10.1 4.9 Q-10.8 3.6 -11.05 2.1 L-11.1 1.75 -11.25 0.0 -11.25 -0.15 Q-11.2 -4.65 -8.0 -7.85 L-7.9 -7.95 -7.8 -8.05 Q-4.6 -11.3 0.0 -11.25 4.6 -11.3 7.9 -8.05 L8.0 -7.95" fill="#0033cc" fill-rule="evenodd" stroke="none"/>
  </g>
</svg>
