<?xml version="1.0" encoding="UTF-8" standalone="no"?>
<svg xmlns:ffdec="https://www.free-decompiler.com/flash" xmlns:xlink="http://www.w3.org/1999/xlink" ffdec:objectType="shape" height="633.85px" width="856.6px" xmlns="http://www.w3.org/2000/svg">
  <g transform="matrix(1.0, 0.0, 0.0, 1.0, 30.5, 31.35)">
    <path d="M802.85 578.15 L-6.55 578.15 -6.55 2.2 802.85 2.2 802.85 578.15" fill="url(#gradient0)" fill-rule="evenodd" stroke="none"/>
    <path d="M716.65 -15.65 Q711.5 -6.35 705.1 2.0 L695.25 13.95 Q690.35 19.8 688.4 23.65 685.85 28.75 685.85 34.65 685.85 39.85 687.35 48.3 688.05 52.45 689.05 56.4 695.7 51.6 702.1 47.35 L700.0 41.8 Q697.4 34.05 697.4 31.35 697.4 12.8 709.65 -3.45 726.1 -25.3 759.0 -30.8 L768.9 -31.35 Q804.4 -31.35 818.45 -6.9 826.1 6.45 826.1 23.9 826.1 30.85 823.25 45.45 819.55 64.85 813.2 81.1 L810.1 88.6 Q813.35 90.15 814.75 93.45 816.15 96.65 815.65 100.35 815.65 112.75 802.45 112.75 798.75 112.75 796.1 111.75 781.45 129.25 761.75 129.25 750.65 129.25 740.8 127.65 737.6 132.75 735.1 138.95 727.9 156.7 727.9 178.2 727.9 183.85 729.4 191.1 731.7 202.1 736.75 210.95 751.6 237.05 785.4 237.05 L788.05 237.0 Q791.95 233.75 796.1 233.75 L800.8 234.15 Q805.7 231.7 808.2 227.3 811.05 222.4 810.4 216.95 810.4 211.8 807.65 203.5 804.55 194.05 799.5 185.9 785.9 164.15 766.7 164.15 758.9 164.15 754.1 171.1 750.75 175.9 750.75 178.45 750.75 181.85 753.0 184.35 755.8 187.55 761.2 187.55 L766.15 185.9 Q764.2 186.3 761.2 184.8 758.35 183.35 757.9 182.05 761.6 173.25 766.7 173.25 775.85 173.25 777.65 179.15 778.6 182.1 777.7 185.6 777.7 190.6 774.35 194.7 770.3 199.65 763.4 199.65 750.45 199.65 744.5 189.25 742.6 185.95 741.7 182.0 741.1 179.55 741.1 178.45 741.1 170.65 748.3 163.05 756.05 154.8 765.6 154.8 794.85 154.8 808.8 186.95 813.4 197.6 815.7 210.6 817.3 219.45 817.3 224.65 817.6 230.5 813.75 236.0 L811.25 238.95 Q815.5 242.55 818.35 248.7 821.85 256.25 822.25 264.25 L822.55 268.55 Q822.55 271.85 821.2 274.2 817.1 281.3 800.5 281.3 787.05 281.3 781.6 268.4 779.9 264.35 779.15 259.4 778.8 256.75 778.8 254.9 778.8 250.85 780.65 246.85 742.55 245.1 728.0 214.9 720.5 199.4 720.5 178.75 720.5 176.25 720.8 173.2 L718.35 178.7 Q705.4 205.4 676.2 205.4 665.35 205.4 656.15 202.55 652.95 209.85 649.9 217.4 652.55 218.6 653.95 221.2 655.3 223.65 655.3 226.6 655.3 229.95 652.95 232.2 650.75 234.3 647.9 234.3 L643.65 233.8 Q630.35 270.35 620.4 312.95 L617.9 312.95 Q617.9 310.55 616.8 304.9 615.7 299.25 615.7 296.45 615.7 276.2 633.7 232.85 L635.85 227.75 Q635.25 226.35 635.25 224.95 635.25 221.65 637.45 219.25 638.75 217.85 640.5 217.15 644.4 208.45 648.7 199.65 632.75 192.05 622.6 174.45 617.0 164.75 613.85 153.1 L611.85 143.25 Q611.85 132.45 615.35 124.55 609.7 129.35 604.6 134.05 604.1 136.25 601.95 138.3 599.55 140.5 598.1 140.5 L597.7 140.5 586.85 151.5 584.85 151.25 583.7 151.4 Q583.0 151.3 583.0 147.95 583.0 146.2 590.15 138.9 L589.05 138.3 588.5 137.4 Q587.95 136.9 587.95 133.65 587.95 125.4 595.35 125.4 599.55 125.4 602.0 127.5 L606.5 123.35 Q619.25 111.7 633.25 99.95 628.8 98.5 627.55 96.0 627.0 94.85 627.0 91.0 626.75 88.4 627.55 86.1 629.2 81.65 634.7 81.65 640.25 81.65 641.85 85.6 642.4 86.95 642.4 90.2 L642.3 92.45 Q651.85 84.6 661.95 76.7 L672.6 68.55 Q670.75 63.0 669.5 57.15 666.6 60.65 661.3 63.3 652.5 67.65 643.5 67.65 621.3 67.65 608.05 41.75 603.9 33.65 601.15 23.9 L599.2 15.65 Q599.2 5.35 606.9 -3.6 617.3 -15.65 636.9 -15.65 658.25 -15.65 667.4 0.8 669.85 5.25 671.1 9.8 672.2 6.2 673.6 2.85 684.45 -23.35 706.75 -23.35 709.35 -23.35 711.9 -20.85 L716.65 -15.65 M640.2 7.4 Q645.7 7.4 649.9 13.3 L652.95 18.2 Q654.7 21.1 655.85 22.25 656.4 21.7 657.65 21.3 658.6 20.45 658.6 17.05 658.6 12.35 653.0 6.35 646.25 -0.8 637.45 -0.8 621.7 -0.8 616.35 7.45 614.65 10.1 614.2 13.35 614.05 14.25 614.05 16.5 614.05 19.05 615.55 24.2 617.5 31.1 620.95 36.85 631.15 53.9 649.55 53.9 658.9 53.9 662.65 47.25 L665.2 41.6 Q666.05 39.75 667.0 38.5 L666.95 37.9 666.85 33.55 666.9 32.25 Q661.55 42.35 656.95 42.35 635.55 42.35 629.2 34.7 627.15 32.25 626.9 29.25 L627.0 26.4 Q627.0 19.2 629.8 14.0 633.3 7.4 640.2 7.4 M599.75 22.55 Q599.75 28.05 599.2 26.1 L595.85 26.45 Q595.35 26.45 595.35 23.1 595.35 19.65 596.6 19.5 597.3 19.45 598.65 20.05 599.75 17.05 599.75 22.55 M570.9 72.05 Q570.9 75.25 568.2 77.85 565.35 80.55 561.55 80.55 L554.95 79.45 Q554.1 78.35 554.1 72.85 554.1 62.15 561.55 62.15 568.6 62.15 570.45 66.8 570.9 67.95 570.9 72.05 M643.5 107.8 Q667.6 107.8 677.85 128.1 680.55 133.45 681.95 138.95 691.15 123.75 700.25 110.45 686.45 99.35 677.9 81.7 L676.55 78.75 671.25 82.35 Q651.45 95.95 635.05 108.6 L643.5 107.8 M622.6 144.35 Q622.6 147.25 626.05 154.85 630.25 164.05 636.4 172.05 644.7 182.8 654.2 188.6 659.75 177.7 665.9 166.65 L665.2 166.65 Q654.85 166.65 650.65 157.55 648.45 152.8 648.45 147.65 647.4 143.25 648.45 141.1 650.3 137.2 660.8 137.2 666.6 137.2 669.6 148.2 669.6 151.6 668.0 152.95 666.05 154.0 665.2 154.8 673.45 151.95 673.45 148.75 673.45 146.9 671.95 142.45 670.15 137.15 667.5 132.5 660.05 119.35 650.65 119.35 631.0 119.35 624.85 131.45 622.95 135.25 622.55 140.0 622.4 142.4 622.6 144.35 M578.05 187.8 Q578.05 182.55 580.75 178.8 584.0 174.35 589.85 174.35 600.05 174.35 604.2 183.75 606.3 188.5 606.35 193.6 L606.1 196.3 Q605.7 199.2 604.75 201.65 601.9 209.25 595.35 209.25 585.55 209.25 580.85 198.55 579.35 195.15 578.55 191.15 L578.05 187.8 M398.35 93.4 L400.65 96.5 Q399.4 99.6 398.4 101.15 396.7 103.85 392.7 105.6 L387.95 101.45 Q386.1 99.6 386.1 98.15 386.1 95.05 388.25 93.2 390.15 91.55 392.7 91.55 396.25 91.55 398.35 93.4 M268.65 73.4 Q267.9 70.65 267.95 67.15 L268.1 63.8 Q268.1 58.65 271.95 52.3 276.25 45.1 281.3 45.1 293.05 45.1 297.0 55.25 299.0 60.35 298.65 66.0 298.65 82.2 279.65 82.2 270.85 82.2 268.65 73.4 M98.5 191.0 Q99.0 192.7 99.0 196.9 98.75 196.9 98.25 198.3 97.1 199.65 93.75 199.65 90.45 199.65 89.3 198.9 L86.05 196.9 85.5 195.85 Q84.95 195.2 84.95 191.95 84.95 188.8 85.1 188.65 L86.05 187.0 Q86.4 187.0 87.35 186.45 88.3 185.9 91.55 185.9 96.95 185.9 98.5 191.0 M2.45 322.55 Q2.45 325.75 2.25 326.3 1.8 327.55 1.65 328.35 L0.05 329.2 Q-1.15 330.0 -4.4 330.0 -13.05 330.0 -15.75 325.75 -16.75 324.15 -16.75 320.9 -16.75 317.45 -14.55 315.1 -12.0 312.4 -7.4 312.4 -0.5 312.4 1.65 317.2 2.45 319.0 2.45 322.55 M36.3 355.0 Q36.3 358.2 35.95 359.15 L35.2 361.6 33.05 362.3 Q31.3 363.0 28.05 363.0 L21.15 361.6 20.6 360.15 Q20.05 359.1 20.05 355.85 20.05 352.75 22.3 350.15 24.8 347.3 28.3 347.3 33.15 347.3 35.2 350.85 36.3 352.8 36.3 355.0 M17.85 392.25 Q20.9 399.8 21.7 407.8 21.7 422.1 10.7 422.1 -4.6 422.1 -10.7 413.85 -14.0 409.4 -14.0 403.95 -14.0 393.15 -12.35 387.85 -9.1 377.3 0.8 377.3 11.85 377.3 17.85 392.25 M120.95 382.3 Q132.05 365.5 143.85 351.1 172.35 316.3 199.35 301.95 L200.75 301.55 Q202.1 301.8 202.1 305.25 202.1 307.5 197.5 313.1 L184.95 327.05 Q160.25 353.7 143.8 375.5 L157.0 374.55 Q190.5 374.55 211.3 393.55 220.9 391.25 229.9 391.6 L231.3 391.2 Q232.65 391.45 232.65 394.9 L226.85 395.95 Q221.4 396.75 215.95 398.25 222.4 405.35 227.45 414.55 234.7 427.75 238.1 444.05 240.35 454.6 240.35 461.7 240.35 466.5 237.65 474.25 234.35 483.6 228.85 491.45 213.7 513.15 189.75 513.15 167.05 513.15 154.1 496.5 L154.25 497.2 Q153.7 500.5 150.4 503.25 L143.8 502.7 Q143.8 502.35 143.0 501.65 142.15 501.0 142.15 497.75 142.15 496.2 145.2 494.9 148.2 493.6 148.2 491.4 151.05 493.1 152.4 494.15 150.5 491.35 148.8 488.15 147.25 485.25 146.0 482.1 145.85 485.9 142.25 489.25 137.85 493.35 130.9 493.35 119.85 493.35 113.95 483.8 L113.85 483.6 101.25 500.3 Q90.7 514.4 83.7 524.95 L78.6 532.9 80.55 540.7 Q84.0 546.55 88.25 551.95 113.85 584.45 153.15 584.1 L154.25 585.75 Q154.25 587.15 151.1 588.85 147.6 590.7 143.8 590.7 108.0 590.7 84.25 562.2 85.35 571.3 85.5 577.75 85.5 586.45 79.55 593.2 71.35 602.5 55.0 602.5 19.85 602.5 5.35 590.7 -4.1 583.05 -4.1 570.9 -4.1 568.75 -8.2 563.05 L-17.3 550.55 Q-30.5 530.85 -30.5 512.85 -30.5 496.7 -23.85 482.7 -14.0 462.0 6.3 462.0 26.65 462.0 42.1 472.5 50.9 434.55 64.4 397.9 80.75 353.55 99.25 324.55 120.7 291.0 142.15 282.95 96.95 334.25 71.3 397.15 74.95 390.5 80.55 390.5 89.05 390.5 93.3 398.05 L95.1 401.9 Q98.9 397.65 103.05 394.05 111.4 386.85 120.95 382.3 M134.5 388.15 Q119.1 409.75 106.0 433.0 107.8 434.9 107.8 438.35 107.8 440.75 105.55 443.35 103.2 446.05 100.65 446.05 L98.9 446.05 Q82.8 476.45 70.5 509.55 72.65 514.4 74.55 519.8 L75.6 522.75 Q90.25 497.25 110.0 472.55 L110.0 472.15 Q110.0 459.35 122.7 457.4 135.05 443.3 147.4 432.0 153.85 420.7 166.15 416.45 L169.7 413.85 Q184.85 403.1 198.8 397.55 181.6 385.0 157.0 385.0 145.0 385.0 134.5 388.15 M270.35 206.8 Q272.5 210.45 272.5 213.1 271.7 215.15 270.85 216.2 269.35 218.05 265.9 218.05 261.2 218.05 258.6 213.7 256.85 210.8 256.85 208.7 256.85 205.55 257.0 205.4 L257.95 203.75 Q258.3 203.75 259.4 202.95 260.45 202.1 263.7 202.1 267.65 202.1 270.35 206.8 M268.65 461.0 L268.1 458.4 Q268.1 452.75 271.45 448.9 274.9 444.95 280.2 444.95 292.55 444.95 295.4 453.85 296.3 456.75 296.2 460.6 L295.9 465.0 Q295.9 468.55 292.9 471.6 289.65 474.9 285.15 474.9 275.7 474.9 270.95 466.65 269.5 464.05 268.65 461.0 M262.9 493.35 Q262.9 497.3 259.05 501.6 254.6 506.55 248.6 506.55 243.05 506.55 241.45 500.55 240.95 498.6 240.85 496.2 L240.9 493.9 Q240.9 480.95 253.0 480.95 259.55 480.95 261.85 487.05 263.05 490.1 262.9 493.35 M204.5 402.25 Q193.85 406.7 183.35 413.85 188.95 414.05 205.65 427.4 222.05 440.55 227.7 448.8 L228.8 448.25 Q225.95 430.9 215.7 415.5 210.65 407.95 204.5 402.25 M207.0 433.4 Q192.6 422.55 173.95 420.8 165.4 427.6 157.0 436.15 L152.5 440.7 Q150.75 450.1 150.95 459.5 150.95 462.6 152.15 468.0 154.0 476.05 157.65 482.65 168.65 502.7 191.95 502.7 210.4 502.7 221.25 485.15 227.0 475.85 229.35 464.45 L229.35 463.35 226.6 466.4 Q225.2 468.05 223.85 468.85 220.1 471.05 209.25 471.05 189.5 471.05 183.25 462.0 181.3 459.15 180.95 455.75 L180.95 452.9 Q180.95 449.35 183.75 447.15 185.8 445.5 187.55 445.5 L197.45 446.05 Q197.45 446.9 198.4 449.35 199.35 451.85 199.35 452.65 195.7 454.3 190.3 454.3 191.8 456.25 191.0 459.6 191.4 462.0 199.35 462.0 L220.8 461.45 Q220.8 461.1 221.65 460.8 222.45 460.55 222.45 457.3 222.45 451.75 218.4 445.4 214.25 438.9 207.0 433.4 M212.55 529.35 Q218.2 523.6 224.65 523.6 234.95 523.6 243.1 537.65 247.15 544.65 249.15 551.65 249.15 557.55 246.45 560.6 242.15 565.4 230.7 565.4 216.55 565.4 210.4 553.45 208.45 549.65 207.55 545.1 207.05 542.4 207.05 540.9 207.05 534.95 212.55 529.35 M177.65 544.2 L178.2 545.65 Q178.75 546.75 178.75 550.0 L178.2 554.1 176.15 554.95 Q174.05 555.75 170.75 555.75 167.2 555.75 165.6 554.7 L163.35 552.45 Q164.6 545.75 171.05 543.1 L177.65 544.2 M196.35 565.95 Q196.35 562.6 197.5 560.95 199.45 558.25 204.85 558.25 211.45 558.25 211.45 564.3 211.45 571.3 202.65 573.65 L197.55 569.05 Q196.35 567.8 196.35 565.95 M293.15 527.7 Q293.15 520.75 300.9 514.85 309.6 508.2 322.85 508.2 333.35 508.2 336.95 519.25 338.8 524.75 338.5 530.45 338.5 536.25 334.75 540.4 329.3 546.4 317.35 546.4 311.35 546.4 306.75 544.75 309.05 551.0 309.1 557.7 309.1 572.05 297.5 577.0 289.95 580.25 272.5 580.25 263.2 580.25 258.55 569.3 257.1 565.75 256.3 561.55 255.75 558.8 255.75 557.7 255.75 554.85 257.7 550.55 259.95 545.65 263.7 541.5 273.55 530.45 287.9 530.45 L293.7 531.2 Q293.15 529.4 293.15 527.7 M107.85 403.25 Q91.75 417.75 81.2 443.85 75.1 459.05 71.5 476.8 81.75 451.25 95.55 425.2 101.6 413.8 107.85 403.25 M134.8 459.05 Q138.85 461.5 141.75 467.15 141.05 463.6 141.05 461.7 140.7 456.95 141.15 452.3 L134.8 459.05 M71.25 397.3 L71.25 397.35 71.2 397.4 71.25 397.35 71.25 397.3 71.3 397.15 71.25 397.3 M63.2 418.6 Q54.1 444.9 47.4 476.55 53.95 482.15 59.5 489.9 L60.9 481.15 Q65.05 457.15 73.4 437.3 76.65 429.5 80.5 422.65 73.3 422.6 70.15 415.0 68.45 410.8 68.45 406.7 68.45 404.95 68.95 403.05 65.9 410.75 63.2 418.6 M48.45 435.15 Q45.8 438.35 40.95 438.35 L34.65 436.7 Q34.1 437.25 34.1 431.75 34.1 430.6 35.9 428.45 38.5 425.35 43.45 422.65 50.6 428.2 50.6 429.25 50.6 432.6 48.45 435.15 M4.1 471.6 Q-9.9 471.6 -16.75 489.7 -21.15 501.35 -21.15 512.6 -21.15 516.7 -19.85 523.8 -17.95 533.8 -14.45 542.05 -4.05 566.5 16.75 566.5 35.05 566.5 42.4 555.75 44.75 552.35 45.7 548.15 L46.2 544.2 Q46.2 538.05 41.8 529.35 40.45 526.65 38.95 524.65 36.9 539.2 35.2 554.65 L33.55 554.65 Q32.45 542.0 32.45 536.5 32.45 529.1 33.5 519.7 31.4 518.65 29.15 518.65 20.15 518.65 17.3 525.1 15.85 528.35 16.2 532.1 16.2 535.7 18.6 541.3 21.4 547.75 25.55 551.9 L25.7 553.3 Q25.15 554.65 21.7 554.65 13.45 554.65 10.7 543.55 9.85 540.05 9.65 535.75 L9.6 531.85 Q9.6 526.25 9.75 524.75 10.15 520.75 11.85 518.15 16.25 511.5 31.6 511.5 L34.5 511.8 Q36.15 499.95 39.2 485.4 24.45 471.6 4.1 471.6 M52.5 536.55 Q54.75 526.0 58.35 514.1 52.35 500.3 44.5 490.95 42.35 502.35 40.5 514.45 45.8 518.35 49.55 527.55 51.35 531.95 52.5 536.55 M63.85 528.5 Q56.75 549.7 51.15 572.0 L48.95 572.0 Q48.4 575.0 48.4 569.5 48.4 565.4 48.75 560.95 L48.25 561.6 Q37.0 576.25 6.85 576.95 11.75 581.85 18.8 584.3 29.2 587.95 47.0 587.95 59.95 587.95 66.3 583.6 58.35 584.2 56.3 579.75 55.55 578.1 55.55 572.0 55.55 561.3 66.85 538.85 L63.85 528.5 M69.25 549.7 Q62.15 564.35 62.15 573.65 62.15 577.55 63.1 579.35 63.85 580.75 66.55 583.0 L66.55 583.4 Q69.2 581.5 70.65 578.75 72.15 575.85 72.1 572.3 L71.75 568.95 Q71.05 559.2 69.25 549.7 M153.15 564.0 L159.2 559.35 160.65 559.75 Q162.15 560.3 162.5 561.0 164.55 560.55 160.0 562.75 153.4 565.95 152.05 567.6 L142.7 567.6 Q147.75 567.4 153.15 564.0 M137.2 554.4 Q137.2 559.9 136.1 559.9 L135.1 560.75 Q133.7 561.55 130.35 561.55 L123.75 559.9 122.95 558.15 Q122.1 556.8 122.1 553.55 122.1 550.4 122.25 550.25 L123.2 548.6 125.05 548.05 Q126.55 547.5 129.8 547.5 135.15 547.5 136.7 550.65 137.2 551.7 137.2 554.4 M601.45 493.3 Q602.85 497.35 602.5 501.85 602.5 509.0 593.15 511.5 585.9 511.5 582.9 503.7 581.95 501.2 581.55 498.15 L581.35 495.25 Q581.35 490.4 582.9 488.15 584.9 485.35 589.85 485.35 598.65 485.35 601.45 493.3 M537.0 437.3 Q538.15 439.45 538.15 441.35 L537.6 445.5 537.35 445.65 537.5 446.05 Q537.35 446.6 534.05 446.6 L530.4 446.45 527.15 445.5 526.6 444.45 Q526.05 443.8 526.05 440.55 526.05 439.55 529.1 437.4 532.1 435.3 532.1 432.85 535.35 434.3 537.0 437.3 M775.9 18.55 Q776.95 19.9 777.65 21.55 779.4 25.65 778.8 30.25 L778.8 31.6 Q781.95 30.55 784.9 30.05 L783.85 26.1 Q781.45 19.35 776.65 18.15 L775.9 18.55 M776.65 42.4 Q772.25 53.25 760.3 53.35 750.55 62.9 741.45 72.75 748.05 75.6 755.7 75.6 772.95 75.6 781.0 57.2 785.05 48.0 785.65 38.2 785.65 34.05 785.0 30.55 L778.65 36.15 778.1 37.65 Q777.55 40.2 776.65 42.4 M796.05 48.2 Q793.8 57.6 790.0 65.55 778.7 89.35 759.0 89.35 744.1 89.35 732.2 83.1 724.55 91.85 717.45 100.8 731.55 110.0 751.3 110.0 L753.5 109.95 Q759.55 106.1 767.1 101.9 777.65 96.0 787.0 92.05 794.15 82.95 799.5 69.35 804.65 56.15 807.45 40.15 809.3 29.35 809.3 24.2 809.3 -15.65 767.5 -15.65 736.45 -15.65 721.45 5.8 716.55 12.75 713.95 21.2 712.25 26.9 712.25 29.7 712.25 32.7 714.45 39.2 L726.85 31.55 Q734.75 26.9 741.75 23.3 745.3 15.55 756.05 13.9 762.1 4.95 772.2 4.95 787.45 4.95 793.95 19.5 797.75 28.05 797.75 38.2 797.75 41.15 796.05 48.2 M741.3 38.1 L719.6 51.05 720.35 52.4 720.75 52.25 Q732.8 52.25 735.65 61.85 L736.2 64.2 Q743.3 56.45 749.9 50.5 746.0 47.85 743.35 42.9 742.15 40.65 741.3 38.1 M692.7 68.05 Q693.9 71.1 695.25 74.0 701.5 87.25 710.7 95.6 715.85 88.55 721.0 82.15 710.05 81.55 705.1 76.65 701.8 73.4 701.8 69.3 701.8 66.6 709.0 60.7 L707.65 58.5 Q700.05 63.25 692.7 68.05 M726.25 143.55 L726.25 143.95 Q729.2 132.95 732.3 128.15 L733.65 126.25 Q728.25 125.0 723.3 123.25 724.15 125.55 724.75 128.4 726.35 135.7 726.25 143.55 M706.6 115.05 Q694.1 132.05 683.35 149.85 683.1 155.0 679.55 159.8 677.65 162.35 675.15 164.0 L671.6 170.5 Q666.05 180.9 660.9 192.0 668.95 195.25 677.85 195.25 701.2 195.25 711.75 169.95 715.1 161.85 716.75 152.1 717.75 146.05 717.75 143.0 717.75 130.85 708.4 117.7 L708.75 116.4 706.6 115.05 M760.8 109.05 Q766.55 107.85 771.75 105.1 765.9 106.5 760.8 109.05 M762.3 296.45 Q762.3 301.45 761.9 302.35 761.1 304.15 757.35 304.15 750.65 304.15 745.5 301.95 744.95 301.65 744.95 296.15 744.95 292.7 747.8 290.7 750.2 289.0 753.5 289.0 762.3 289.0 762.3 296.45 M792.65 250.8 Q792.25 251.05 792.25 254.9 792.25 265.9 808.75 267.0 809.3 269.5 809.3 264.0 809.3 260.05 806.05 255.75 802.3 250.8 797.2 250.8 793.2 250.45 792.65 250.8 M715.05 261.5 Q716.3 264.7 715.55 268.4 715.55 273.7 713.35 279.15 710.25 286.8 704.55 286.8 697.75 286.8 691.85 280.2 686.95 274.8 686.95 271.95 686.95 266.3 691.85 260.8 696.85 255.2 702.35 255.2 712.5 255.2 715.05 261.5" fill="#000000" fill-opacity="0.39215687" fill-rule="evenodd" stroke="none"/>
  </g>
  <defs>
    <radialGradient cx="0" cy="0" gradientTransform="matrix(0.6063, 0.0, 0.0, 0.6063, 398.15, 290.2)" gradientUnits="userSpaceOnUse" id="gradient0" r="819.2" spreadMethod="pad">
      <stop offset="0.0" stop-color="#673232"/>
      <stop offset="1.0" stop-color="#241717"/>
    </radialGradient>
  </defs>
</svg>
