<?xml version="1.0" encoding="UTF-8" standalone="no"?>
<svg xmlns:ffdec="https://www.free-decompiler.com/flash" xmlns:xlink="http://www.w3.org/1999/xlink" ffdec:objectType="shape" height="46.1px" width="172.45px" xmlns="http://www.w3.org/2000/svg">
  <g transform="matrix(1.0, 0.0, 0.0, 1.0, 103.4, 24.0)">
    <path d="M10.7 -0.2 L15.65 -0.2 16.0 -0.05 16.15 0.3 16.15 7.35 16.1 7.6 15.95 7.75 Q14.9 8.6 13.25 9.1 L9.95 9.55 Q6.3 9.55 4.25 7.2 2.1 4.85 2.1 1.0 2.1 -2.85 4.4 -5.3 6.75 -7.7 10.6 -7.7 13.35 -7.7 15.35 -6.0 L15.5 -5.75 15.45 -5.4 14.25 -3.15 14.05 -2.95 13.75 -2.9 13.5 -3.0 12.1 -3.85 12.15 -3.8 10.5 -4.2 Q8.45 -4.2 7.25 -2.8 6.0 -1.4 6.0 1.05 6.0 3.4 7.25 4.8 8.4 6.1 10.4 6.1 11.55 6.1 12.35 5.55 L12.35 3.2 10.7 3.2 10.35 3.05 10.2 2.7 10.2 0.3 10.35 -0.05 10.7 -0.2 M18.2 -2.7 Q19.7 -3.4 21.7 -3.4 24.55 -3.4 25.9 -2.05 27.25 -0.75 27.25 2.8 L27.25 5.3 Q27.25 7.25 27.95 7.75 L28.2 8.05 28.15 8.4 27.15 9.4 27.1 9.4 26.0 9.5 Q25.25 9.5 24.7 9.0 L24.25 8.55 23.3 9.1 23.3 9.15 21.2 9.5 Q19.15 9.5 17.95 8.5 16.7 7.4 16.7 5.45 16.7 3.2 18.4 1.9 20.0 0.7 22.95 0.7 L23.45 0.75 Q23.05 -0.15 21.5 -0.15 L19.2 0.3 18.9 0.35 18.65 0.25 18.5 0.0 17.95 -2.1 17.95 -2.45 18.2 -2.7 M29.3 -3.05 L29.65 -3.2 31.5 -3.2 31.75 -3.1 31.95 -2.95 32.2 -2.5 Q33.3 -3.4 34.95 -3.4 37.1 -3.4 38.4 -2.35 38.9 -2.8 39.65 -3.05 L41.6 -3.4 Q43.75 -3.4 44.95 -2.15 46.15 -0.9 46.15 1.2 L46.15 8.8 46.0 9.15 45.65 9.3 42.95 9.3 42.6 9.15 42.45 8.8 42.45 1.6 Q42.45 -0.1 40.95 -0.15 L40.1 0.15 40.05 0.15 Q39.65 0.35 39.5 0.65 L39.5 8.8 39.35 9.15 39.0 9.3 36.3 9.3 35.95 9.15 35.8 8.8 35.8 1.15 35.5 0.25 Q35.05 -0.15 34.3 -0.15 L33.45 0.15 33.5 0.15 Q33.05 0.4 32.85 0.7 L32.85 8.8 32.7 9.15 32.35 9.3 29.65 9.3 29.3 9.15 29.15 8.8 29.15 -2.7 29.3 -3.05 M61.35 -2.5 Q62.6 -3.4 64.5 -3.4 66.4 -3.4 68.1 -2.55 L68.35 -2.25 68.35 -1.9 67.6 0.15 67.4 0.4 67.1 0.45 66.8 0.35 Q66.0 -0.3 64.65 -0.3 63.8 -0.3 63.75 0.35 L64.0 0.75 65.9 1.65 Q67.5 2.3 68.25 3.25 69.05 4.15 69.05 5.6 69.05 7.45 67.65 8.5 66.35 9.5 64.1 9.5 L62.15 9.35 62.1 9.35 60.25 8.5 60.05 8.2 60.05 7.85 61.0 5.7 61.2 5.5 61.5 5.4 Q61.65 5.4 61.8 5.55 62.85 6.4 64.15 6.4 65.2 6.4 65.25 5.75 L64.95 5.1 64.9 5.05 Q64.5 4.65 63.25 4.2 L63.2 4.15 Q59.9 2.75 59.95 0.25 59.95 -1.5 61.3 -2.5 L61.35 -2.5 M53.5 -3.4 Q56.2 -3.4 57.9 -1.8 59.55 -0.15 59.55 2.4 L59.3 4.0 59.1 4.25 58.8 4.35 51.2 4.35 Q51.35 5.15 51.9 5.65 52.6 6.25 53.9 6.25 55.5 6.25 56.35 5.45 L56.65 5.3 56.95 5.35 57.15 5.6 58.15 7.65 58.2 7.95 58.05 8.25 Q56.5 9.5 53.5 9.5 50.6 9.5 49.0 7.85 47.3 6.2 47.3 3.15 47.3 0.25 49.15 -1.6 50.95 -3.4 53.5 -3.4 M55.75 1.35 Q55.3 -0.15 53.55 -0.15 51.95 -0.15 51.4 1.35 L55.75 1.35 M23.6 3.85 L23.05 3.75 Q20.45 3.75 20.4 5.35 20.45 6.4 21.7 6.4 23.6 6.4 23.6 4.45 L23.6 3.85 M-101.4 -19.9 L-101.55 -21.25 Q-99.7 -23.25 -97.75 -21.5 L-97.65 -21.25 Q-96.95 -18.8 -95.75 -16.8 -95.7 -16.7 -95.5 -16.7 L-95.5 -17.05 -94.4 -17.3 -94.05 -17.35 -94.05 -17.75 Q-92.15 -18.15 -92.45 -16.35 L-92.65 -16.3 -92.75 -16.05 -93.0 -16.0 -93.05 -15.8 -94.05 -15.6 Q-93.3 -13.25 -91.55 -11.85 L-91.2 -11.75 Q-88.65 -13.15 -85.9 -12.1 L-85.9 -12.45 Q-84.9 -13.55 -84.3 -15.2 L-84.1 -15.3 -84.1 -15.45 Q-85.6 -15.15 -85.9 -17.35 L-83.45 -17.25 -83.4 -17.05 Q-81.15 -17.95 -80.6 -20.6 L-80.6 -20.9 -80.6 -21.25 -80.6 -21.95 -80.6 -22.35 Q-78.1 -23.05 -77.05 -20.85 L-77.0 -20.55 -77.05 -20.25 -77.35 -19.85 -77.4 -19.6 Q-79.05 -18.35 -79.85 -16.3 L-79.85 -15.6 -79.85 -15.3 -79.55 -15.2 Q-76.2 -12.5 -80.2 -13.5 L-80.25 -13.2 -81.65 -11.0 -81.7 -10.7 -82.0 -10.35 Q-81.7 -9.75 -80.55 -9.95 L-80.2 -9.95 -76.3 -9.8 -76.3 -9.65 -76.25 -9.25 Q-76.0 -7.4 -76.65 -6.45 L-76.65 -6.1 Q-76.75 1.1 -79.15 5.9 L-79.15 6.25 -79.15 6.6 -79.15 12.55 -79.15 12.95 Q-76.7 15.85 -76.65 21.4 L-76.65 21.75 Q-78.15 22.5 -79.15 21.05 L-79.35 20.95 -80.35 19.4 -80.6 19.3 -80.6 19.1 Q-82.4 16.55 -84.5 14.35 -84.7 14.3 -84.7 14.45 L-86.95 16.45 -87.0 16.65 Q-87.9 16.95 -88.4 17.5 L-88.45 17.7 Q-89.85 18.5 -90.5 16.8 L-90.85 16.75 Q-92.0 16.15 -92.65 15.05 L-92.9 14.95 Q-93.8 13.8 -95.15 14.7 L-95.25 15.0 -97.3 19.65 -97.55 19.7 Q-98.6 21.15 -100.5 21.75 L-100.55 21.9 Q-101.45 22.35 -101.55 21.75 L-101.75 21.7 -101.9 18.6 -101.55 18.6 -101.55 18.2 -101.55 17.5 Q-100.4 16.05 -99.65 14.05 L-99.4 14.0 -99.4 13.6 -99.4 13.3 Q-98.9 12.95 -98.75 12.2 L-98.7 11.85 -98.7 11.55 -98.7 7.25 -98.8 7.0 Q-99.45 5.6 -99.75 3.75 L-99.95 3.7 Q-100.95 0.5 -101.2 -3.3 L-101.4 -3.3 -101.55 -6.1 -101.55 -6.45 -101.55 -9.65 -101.55 -9.95 -98.0 -9.95 -97.65 -9.95 -97.4 -10.05 Q-96.35 -11.3 -98.0 -13.5 L-98.3 -13.45 -98.7 -13.15 -98.75 -12.95 Q-100.8 -12.25 -100.5 -14.2 -99.9 -14.3 -99.65 -14.8 L-99.4 -14.9 -98.7 -15.2 -98.35 -15.3 -98.4 -15.6 Q-99.1 -18.45 -101.2 -19.85 L-101.4 -19.9 M-60.95 -7.3 L-54.6 8.65 -54.6 8.95 -54.8 9.2 -55.1 9.3 -58.2 9.3 -58.45 9.2 -58.65 9.0 -59.7 6.1 -64.35 6.1 -65.35 9.0 -65.55 9.2 -65.85 9.3 -68.95 9.3 -69.25 9.2 -69.4 8.95 -69.4 8.65 -63.1 -7.3 -62.9 -7.55 -62.65 -7.65 -61.45 -7.65 -61.15 -7.55 -60.95 -7.3 M-50.9 -3.2 L-50.55 -3.05 -50.4 -2.7 Q-49.35 -3.4 -47.9 -3.4 L-45.55 -2.95 -45.3 -2.65 -45.35 -2.25 -46.5 0.05 -46.7 0.25 -46.95 0.3 -47.2 0.25 Q-47.8 -0.15 -48.55 -0.15 -49.25 -0.15 -49.8 0.5 -50.4 1.2 -50.4 2.25 L-50.4 8.8 -50.55 9.15 -50.9 9.3 -53.6 9.3 -53.95 9.15 -54.1 8.8 -54.1 -2.7 -53.95 -3.05 -53.6 -3.2 -50.9 -3.2 M-42.35 -3.2 L-42.1 -3.1 -41.9 -2.95 -41.65 -2.5 Q-40.55 -3.4 -38.9 -3.4 -36.75 -3.4 -35.45 -2.35 L-34.2 -3.05 -32.25 -3.4 Q-30.1 -3.4 -28.9 -2.15 -27.7 -0.9 -27.7 1.2 L-27.7 8.8 -27.85 9.15 -28.2 9.3 -30.9 9.3 -31.25 9.15 -31.4 8.8 -31.4 1.6 Q-31.4 -0.1 -32.9 -0.15 L-33.75 0.15 -33.8 0.15 -34.35 0.65 -34.35 8.8 -34.5 9.15 -34.85 9.3 -37.55 9.3 -37.9 9.15 -38.05 8.8 -38.05 1.15 Q-38.05 0.55 -38.35 0.25 -38.8 -0.15 -39.55 -0.15 L-40.4 0.15 -40.35 0.15 -41.0 0.7 -41.0 8.8 -41.15 9.15 -41.5 9.3 -44.2 9.3 -44.55 9.15 -44.7 8.8 -44.7 -2.7 -44.55 -3.05 -44.2 -3.2 -42.35 -3.2 M-20.5 -3.4 Q-17.65 -3.4 -16.05 -1.7 L-16.05 -1.65 Q-14.5 0.05 -14.5 3.0 -14.5 5.95 -16.05 7.75 -17.7 9.5 -20.5 9.5 -23.4 9.5 -24.95 7.75 -26.55 5.95 -26.55 3.0 -26.55 0.2 -24.9 -1.55 L-24.9 -1.6 Q-23.25 -3.4 -20.5 -3.4 M-12.85 -3.2 L-10.15 -3.2 -9.8 -3.05 -9.65 -2.7 Q-8.6 -3.4 -7.15 -3.4 L-4.8 -2.95 -4.55 -2.65 -4.6 -2.25 -5.75 0.05 -5.95 0.25 -6.2 0.3 -6.45 0.25 Q-7.05 -0.15 -7.8 -0.15 -8.5 -0.15 -9.05 0.5 -9.65 1.2 -9.65 2.25 L-9.65 8.8 -9.8 9.15 -10.15 9.3 -12.85 9.3 -13.2 9.15 -13.35 8.8 -13.35 -2.7 -13.2 -3.05 -12.85 -3.2 M-18.3 3.0 Q-18.3 -0.2 -20.5 -0.25 -21.55 -0.25 -22.1 0.55 -22.75 1.45 -22.75 3.0 -22.75 6.25 -20.5 6.3 -19.5 6.3 -18.9 5.55 L-18.9 5.6 Q-18.3 4.65 -18.3 3.0 M-60.85 2.95 L-62.05 -0.75 -63.25 2.95 -60.85 2.95 M-69.55 14.1 L-69.55 14.35 -71.0 14.1 -69.55 14.1" fill="#000000" fill-rule="evenodd" stroke="none"/>
    <path d="M-78.85 -21.35 L-78.9 -21.65 Q-79.7 -22.9 -81.7 -22.75 L-81.7 -22.4 -82.1 -22.4 -82.1 -22.75 -82.1 -23.45 Q-79.5 -23.8 -78.7 -22.1 L-78.5 -22.05 -78.55 -21.75 -78.85 -21.35" fill="#818181" fill-rule="evenodd" stroke="none"/>
    <path d="M-78.5 -22.05 L-78.7 -22.1 Q-79.5 -23.8 -82.1 -23.45 L-82.1 -23.85 Q-79.6 -24.55 -78.55 -22.35 L-78.5 -22.05" fill="#525252" fill-opacity="0.9529412" fill-rule="evenodd" stroke="none"/>
    <path d="M-99.5 -22.75 L-99.5 -22.95 Q-101.25 -23.1 -102.35 -22.4 L-102.35 -21.7 -102.35 -21.35 -102.7 -21.35 -102.9 -21.4 -103.05 -22.75 Q-101.2 -24.75 -99.25 -23.0 L-99.15 -22.75 -99.5 -22.75" fill="#595959" fill-opacity="0.92156863" fill-rule="evenodd" stroke="none"/>
    <path d="M-99.5 -22.75 L-99.15 -22.75 Q-98.45 -20.3 -97.25 -18.3 -97.2 -18.2 -97.0 -18.2 L-97.05 -18.0 Q-97.75 -17.85 -98.05 -17.5 L-98.35 -17.35 Q-98.85 -16.8 -99.85 -16.8 L-99.9 -17.1 Q-100.6 -19.95 -102.7 -21.35 L-102.35 -21.35 Q-101.25 -22.25 -99.55 -22.6 L-99.5 -22.75" fill="#404040" fill-opacity="0.9647059" fill-rule="evenodd" stroke="none"/>
    <path d="M-102.35 -21.35 L-102.35 -21.7 -102.35 -22.4 Q-101.25 -23.1 -99.5 -22.95 L-99.5 -22.75 -99.55 -22.6 Q-101.25 -22.25 -102.35 -21.35" fill="#a2a2a2" fill-rule="evenodd" stroke="none"/>
    <path d="M-99.5 -15.0 L-99.8 -14.95 -100.2 -14.65 -100.55 -14.75 Q-101.15 -15.0 -101.25 -15.7 L-101.0 -16.1 -100.9 -16.4 -100.2 -16.7 -99.85 -16.8 Q-98.85 -16.8 -98.35 -17.35 L-98.05 -17.5 -97.9 -16.5 Q-97.9 -16.4 -97.7 -16.4 L-97.8 -16.2 -99.15 -15.7 -99.15 -15.35 -99.15 -15.0 -99.5 -15.0" fill="#656565" fill-opacity="0.972549" fill-rule="evenodd" stroke="none"/>
    <path d="M-94.85 -17.5 L-95.2 -17.5 -95.95 -17.5 -95.95 -17.1 -95.95 -16.8 -96.3 -16.8 Q-97.0 -16.8 -97.35 -16.4 L-97.7 -16.4 Q-97.9 -16.4 -97.9 -16.5 L-98.05 -17.5 Q-97.75 -17.85 -97.05 -18.0 L-97.0 -18.2 -97.0 -18.55 -95.9 -18.8 -95.55 -18.85 Q-95.65 -17.9 -94.9 -17.65 L-94.85 -17.5" fill="#848383" fill-opacity="0.99215686" fill-rule="evenodd" stroke="none"/>
    <path d="M-103.05 -7.6 L-103.05 -7.95 -103.05 -11.15 -99.15 -11.3 -99.15 -11.45 -98.9 -11.55 Q-97.85 -12.8 -99.5 -15.0 L-99.15 -15.0 Q-98.25 -12.0 -95.95 -12.2 L-95.55 -12.2 -95.3 -12.25 Q-93.6 -14.0 -95.95 -16.8 L-95.95 -17.1 -95.95 -17.5 -95.2 -17.5 -94.85 -17.5 -94.5 -17.5 -94.55 -17.3 -95.55 -17.1 Q-94.8 -14.75 -93.05 -13.35 L-92.7 -13.25 Q-90.15 -14.65 -87.4 -13.6 L-87.2 -12.6 -87.05 -12.5 Q-86.15 -12.8 -85.85 -12.25 L-85.6 -12.2 Q-83.95 -11.1 -83.3 -12.8 L-83.15 -12.9 -83.15 -12.5 -83.2 -12.2 -83.5 -11.85 Q-83.2 -11.25 -82.05 -11.45 L-81.7 -11.45 Q-80.55 -10.85 -78.5 -11.1 L-78.15 -11.15 -78.15 -8.3 -78.15 -7.95 -78.15 -7.6 Q-78.25 -0.4 -80.65 4.4 L-80.65 4.75 -80.65 5.1 -81.0 5.1 -81.0 4.75 -81.0 4.4 -81.0 4.0 -81.0 3.7 Q-80.4 3.05 -80.3 1.95 L-80.3 1.55 Q-79.55 0.55 -79.6 -1.25 L-79.6 -1.6 -79.35 -2.0 Q-78.75 -6.3 -78.5 -10.75 -86.0 -10.7 -90.6 -13.6 L-90.9 -13.5 Q-92.7 -12.25 -95.2 -11.85 L-95.2 -11.45 -95.55 -11.45 -99.85 -10.75 -100.2 -10.75 -102.7 -10.75 -102.5 -7.95 -102.35 -7.95 -102.15 -4.1 -102.0 -4.1 Q-102.0 -1.4 -101.35 0.5 L-101.25 0.85 -101.25 1.95 -101.25 2.25 -101.45 2.2 Q-102.45 -1.0 -102.7 -4.8 L-102.65 -5.15 Q-102.45 -6.85 -103.05 -7.6" fill="#414040" fill-opacity="0.9098039" fill-rule="evenodd" stroke="none"/>
    <path d="M-95.55 -18.85 L-95.55 -19.25 Q-93.65 -19.65 -93.95 -17.85 L-94.15 -17.8 -94.2 -18.15 Q-94.35 -19.1 -95.55 -18.85" fill="#4e4e4e" fill-opacity="0.8509804" fill-rule="evenodd" stroke="none"/>
    <path d="M-95.55 -12.2 L-95.95 -12.2 Q-98.25 -12.0 -99.15 -15.0 L-99.15 -15.35 -99.15 -15.7 -97.8 -16.2 -97.7 -16.4 -97.35 -16.4 Q-96.9 -14.05 -95.65 -12.5 L-95.55 -12.2 M-102.35 19.9 L-102.35 19.55 -102.35 19.15 Q-99.75 15.05 -97.6 10.45 L-97.35 10.35 Q-95.75 11.5 -96.95 12.9 L-97.0 13.2 -97.1 13.5 Q-98.4 15.3 -99.15 17.8 L-99.4 17.9 Q-100.45 19.15 -102.0 19.9 L-102.35 19.9" fill="#b1b0b1" fill-rule="evenodd" stroke="none"/>
    <path d="M-100.2 -14.65 L-100.25 -14.45 Q-102.3 -13.75 -102.0 -15.7 -101.4 -15.8 -101.15 -16.3 L-100.9 -16.4 -101.0 -16.1 -101.25 -15.7 Q-101.15 -15.0 -100.55 -14.75 L-100.2 -14.65" fill="#4e4f4f" fill-opacity="0.9490196" fill-rule="evenodd" stroke="none"/>
    <path d="M-95.95 -16.8 Q-93.6 -14.0 -95.3 -12.25 L-95.55 -12.2 -95.65 -12.5 Q-96.9 -14.05 -97.35 -16.4 -97.0 -16.8 -96.3 -16.8 L-95.95 -16.8" fill="#e1e1e1" fill-rule="evenodd" stroke="none"/>
    <path d="M-91.65 -10.05 L-92.0 -10.15 Q-93.4 -11.0 -95.2 -11.45 L-95.2 -11.85 Q-92.7 -12.25 -90.9 -13.5 L-90.6 -13.6 Q-86.0 -10.7 -78.5 -10.75 -78.75 -6.3 -79.35 -2.0 L-79.6 -1.6 -79.6 -1.8 Q-81.45 -2.3 -81.0 -5.15 L-81.0 -5.5 -81.0 -7.95 -81.0 -8.15 -84.2 -8.3 -84.55 -8.4 Q-88.4 -9.8 -91.65 -10.05" fill="#727476" fill-rule="evenodd" stroke="none"/>
    <path d="M-102.35 -7.95 L-102.35 -8.3 -102.35 -10.45 -99.85 -10.6 -99.85 -10.75 -95.55 -11.45 -95.2 -11.45 Q-93.4 -11.0 -92.0 -10.15 L-91.65 -10.05 -91.75 -9.85 Q-93.8 -8.8 -96.3 -8.3 L-96.65 -8.3 -100.2 -8.3 -100.2 -7.95 -100.2 -7.6 -100.2 -7.25 -100.2 -6.9 -100.2 -6.55 Q-100.1 -3.85 -102.0 -5.5 L-102.0 -4.4 -102.0 -4.1 -102.15 -4.1 -102.35 -7.95" fill="#999b9d" fill-rule="evenodd" stroke="none"/>
    <path d="M-100.2 -7.6 L-100.2 -7.95 -100.2 -8.3 -96.65 -8.3 -96.3 -8.3 -96.3 -8.15 -100.2 -7.6" fill="#cfcecf" fill-rule="evenodd" stroke="none"/>
    <path d="M-100.2 -6.9 L-100.2 -7.25 -100.2 -7.6 -96.3 -8.15 -96.3 -8.3 Q-93.8 -8.8 -91.75 -9.85 L-91.65 -10.05 Q-88.4 -9.8 -84.55 -8.4 L-84.2 -8.3 Q-83.2 -7.7 -81.35 -7.9 L-81.0 -7.95 -81.0 -5.5 -81.0 -5.15 -81.2 -5.15 Q-81.1 -2.55 -81.7 -0.9 L-81.7 -0.2 -81.7 0.15 Q-84.1 8.75 -90.6 12.85 L-90.65 12.6 Q-99.7 7.35 -100.2 -6.9 M-97.7 -5.85 L-98.05 -5.85 -97.9 -3.05 -97.7 -3.05 Q-97.05 6.5 -90.95 10.3 L-90.6 10.35 Q-84.6 7.0 -83.5 -1.6 L-83.5 -1.95 Q-82.85 -2.95 -83.1 -4.8 L-83.15 -5.15 -83.15 -5.35 Q-87.25 -6.2 -90.6 -7.6 L-90.9 -7.5 Q-93.45 -5.75 -97.7 -5.85" fill="#eff0f0" fill-rule="evenodd" stroke="none"/>
    <path d="M-99.85 -10.75 L-99.85 -10.6 -102.35 -10.45 -102.35 -8.3 -102.35 -7.95 -102.5 -7.95 -102.7 -10.75 -100.2 -10.75 -99.85 -10.75" fill="#7c7b7c" fill-rule="evenodd" stroke="none"/>
    <path d="M-103.05 -11.15 L-103.05 -11.45 -99.5 -11.45 -99.15 -11.45 -99.15 -11.3 -103.05 -11.15" fill="#151515" fill-opacity="0.33333334" fill-rule="evenodd" stroke="none"/>
    <path d="M-103.05 -7.6 Q-102.45 -6.85 -102.65 -5.15 L-102.7 -4.8 -102.9 -4.8 -103.05 -7.6" fill="#232323" fill-opacity="0.5568628" fill-rule="evenodd" stroke="none"/>
    <path d="M-102.0 -4.1 L-102.0 -4.4 -102.0 -5.5 Q-100.1 -3.85 -100.2 -6.55 L-100.2 -6.9 Q-99.7 7.35 -90.65 12.6 L-90.6 12.85 Q-84.1 8.75 -81.7 0.15 -80.75 0.35 -80.35 1.25 L-80.3 1.55 -80.3 1.95 Q-80.4 3.05 -81.0 3.7 L-81.0 4.0 -81.0 4.4 -81.2 4.45 Q-82.55 8.35 -85.25 10.75 L-85.25 11.05 -85.35 11.3 -88.45 14.25 -88.7 14.35 Q-89.35 15.2 -90.25 15.65 L-90.25 16.0 -90.6 15.9 -92.0 14.95 -92.1 14.7 -93.45 13.55 -93.55 13.3 Q-99.0 8.75 -101.25 0.85 L-101.35 0.5 Q-102.0 -1.4 -102.0 -4.1" fill="#b1b2b5" fill-rule="evenodd" stroke="none"/>
    <path d="M-97.7 -3.05 L-97.9 -3.05 -98.05 -5.85 -97.7 -5.85 -97.7 -3.35 -97.7 -3.05" fill="#868b9e" fill-rule="evenodd" stroke="none"/>
    <path d="M-82.1 -22.4 L-81.7 -22.4 Q-80.05 -22.35 -79.15 -21.45 L-78.85 -21.35 -78.9 -21.1 Q-80.55 -19.85 -81.35 -17.8 L-81.35 -17.1 -81.35 -16.8 -81.7 -16.8 -82.1 -16.8 -82.4 -16.8 Q-83.8 -17.5 -84.9 -18.55 -82.65 -19.45 -82.1 -22.1 L-82.1 -22.4" fill="#414141" fill-opacity="0.96862745" fill-rule="evenodd" stroke="none"/>
    <path d="M-83.85 -16.05 L-83.9 -16.25 -85.6 -16.4 -85.6 -16.8 -85.6 -16.95 Q-87.1 -16.65 -87.4 -18.85 L-84.95 -18.75 -84.9 -18.55 Q-83.8 -17.5 -82.4 -16.8 L-82.1 -16.8 Q-80.4 -15.95 -82.0 -15.2 L-82.1 -15.0 -82.45 -15.0 -82.45 -15.3 Q-82.85 -16.05 -83.85 -16.05" fill="#808080" fill-opacity="0.9764706" fill-rule="evenodd" stroke="none"/>
    <path d="M-87.05 -12.5 L-87.05 -12.9 -87.05 -13.6 Q-86.2 -14.7 -85.65 -16.05 L-85.6 -16.4 -83.9 -16.25 -83.85 -16.05 -83.9 -15.75 Q-84.6 -14.0 -85.6 -12.5 L-85.6 -12.2 -85.85 -12.25 Q-86.15 -12.8 -87.05 -12.5" fill="#e4e4e5" fill-rule="evenodd" stroke="none"/>
    <path d="M-85.6 -12.2 L-85.6 -12.5 Q-84.6 -14.0 -83.9 -15.75 L-83.85 -16.05 Q-82.85 -16.05 -82.45 -15.3 L-82.45 -15.0 -82.45 -14.65 Q-82.65 -13.95 -83.15 -13.6 L-83.15 -13.25 -83.15 -12.9 -83.3 -12.8 Q-83.95 -11.1 -85.6 -12.2" fill="#afafaf" fill-rule="evenodd" stroke="none"/>
    <path d="M-87.05 -12.5 L-87.2 -12.6 -87.4 -13.6 -87.4 -13.95 Q-86.4 -15.05 -85.8 -16.7 L-85.6 -16.8 -85.6 -16.4 -85.65 -16.05 Q-86.2 -14.7 -87.05 -13.6 L-87.05 -12.9 -87.05 -12.5" fill="#545252" fill-opacity="0.9529412" fill-rule="evenodd" stroke="none"/>
    <path d="M-81.35 -16.8 L-81.05 -16.7 Q-77.7 -14.0 -81.7 -15.0 L-82.1 -15.0 -82.0 -15.2 Q-80.4 -15.95 -82.1 -16.8 L-81.7 -16.8 -81.35 -16.8" fill="#565656" fill-opacity="0.972549" fill-rule="evenodd" stroke="none"/>
    <path d="M-81.7 -15.0 L-81.75 -14.7 -83.15 -12.5 -83.15 -12.9 -83.15 -13.25 -83.15 -13.6 Q-82.65 -13.95 -82.45 -14.65 L-82.45 -15.0 -82.1 -15.0 -81.7 -15.0" fill="#3e3e3e" fill-opacity="0.8627451" fill-rule="evenodd" stroke="none"/>
    <path d="M-94.5 -17.5 L-94.85 -17.5 -94.9 -17.65 Q-95.65 -17.9 -95.55 -18.85 -94.35 -19.1 -94.2 -18.15 L-94.15 -17.8 -94.25 -17.55 -94.5 -17.5" fill="#a5a4a4" fill-rule="evenodd" stroke="none"/>
    <path d="M-81.0 -7.95 L-81.35 -7.9 Q-83.2 -7.7 -84.2 -8.3 L-81.0 -8.15 -81.0 -7.95" fill="#aeacae" fill-rule="evenodd" stroke="none"/>
    <path d="M-83.15 -5.15 L-83.1 -4.8 Q-82.85 -2.95 -83.5 -1.95 L-83.5 -2.35 -83.5 -5.15 -83.15 -5.15" fill="#6e7486" fill-rule="evenodd" stroke="none"/>
    <path d="M-79.6 -1.6 L-79.6 -1.25 Q-79.55 0.55 -80.3 1.55 L-80.35 1.25 Q-80.75 0.35 -81.7 0.15 L-81.7 -0.2 -81.7 -0.9 Q-81.1 -2.55 -81.2 -5.15 L-81.0 -5.15 Q-81.45 -2.3 -79.6 -1.8 L-79.6 -1.6" fill="#969799" fill-rule="evenodd" stroke="none"/>
    <path d="M-81.7 -22.4 L-81.7 -22.75 Q-79.7 -22.9 -78.9 -21.65 L-78.85 -21.35 -79.15 -21.45 Q-80.05 -22.35 -81.7 -22.4" fill="#b4b4b3" fill-rule="evenodd" stroke="none"/>
    <path d="M-81.7 -11.45 L-77.8 -11.3 -77.8 -11.15 -78.15 -11.15 -78.5 -11.1 Q-80.55 -10.85 -81.7 -11.45" fill="#131313" fill-opacity="0.30980393" fill-rule="evenodd" stroke="none"/>
    <path d="M-77.8 -11.15 L-77.75 -10.75 Q-77.5 -8.9 -78.15 -7.95 L-78.15 -8.3 -78.15 -11.15 -77.8 -11.15" fill="#191919" fill-opacity="0.4" fill-rule="evenodd" stroke="none"/>
    <path d="M-80.65 11.45 Q-78.2 14.35 -78.15 19.9 L-78.15 20.25 Q-79.65 21.0 -80.65 19.55 L-80.3 19.55 -78.55 19.7 -78.5 19.55 -78.5 19.15 -78.5 16.35 -78.7 16.3 -81.0 11.8 -81.0 11.45 -80.65 11.45" fill="#40403f" fill-opacity="0.8862745" fill-rule="evenodd" stroke="none"/>
    <path d="M-81.0 11.8 L-78.7 16.3 -78.5 16.35 -78.5 19.15 -78.5 19.55 -78.7 19.45 -83.85 10.35 -83.85 10.05 Q-82.05 8.15 -81.2 11.75 L-81.0 11.8" fill="#e2e2e2" fill-rule="evenodd" stroke="none"/>
    <path d="M-81.85 17.9 L-82.1 17.8 -82.1 17.6 -82.1 17.45 Q-83.35 14.75 -84.9 12.5 L-84.9 12.1 -84.9 11.45 Q-84.15 11.35 -84.05 10.4 L-83.85 10.35 -78.7 19.45 -78.5 19.55 -78.55 19.7 -80.3 19.55 Q-80.9 18.5 -81.85 17.9" fill="#b1b1b1" fill-rule="evenodd" stroke="none"/>
    <path d="M-81.0 4.4 L-81.0 4.75 -81.0 5.1 -81.0 5.75 -81.0 6.15 -81.2 6.2 Q-81.45 7.45 -82.45 7.9 L-81.2 10.3 -81.0 10.35 -81.0 11.05 -81.0 11.45 -81.0 11.8 -81.2 11.75 Q-82.05 8.15 -83.85 10.05 L-83.85 10.35 -84.05 10.4 Q-84.15 11.35 -84.9 11.45 L-85.0 11.15 -85.25 11.05 -85.25 10.75 Q-82.55 8.35 -81.2 4.45 L-81.0 4.4" fill="#5d5b5b" fill-rule="evenodd" stroke="none"/>
    <path d="M-80.65 5.1 L-80.65 11.05 -80.65 11.45 -81.0 11.45 -81.0 11.05 -81.0 10.35 -81.0 10.05 -81.0 6.15 -81.0 5.75 -81.0 5.1 -80.65 5.1" fill="#3a3a3a" fill-opacity="0.26666668" fill-rule="evenodd" stroke="none"/>
    <path d="M-81.0 6.15 L-81.0 10.05 -81.0 10.35 -81.2 10.3 -82.45 7.9 Q-81.45 7.45 -81.2 6.2 L-81.0 6.15" fill="#f7f7f7" fill-rule="evenodd" stroke="none"/>
    <path d="M-101.25 2.25 L-101.25 1.95 -101.25 0.85 Q-99.0 8.75 -93.55 13.3 L-93.45 13.55 -93.8 13.55 -94.15 13.55 -94.4 13.45 Q-95.3 12.3 -96.65 13.2 L-97.0 13.2 -96.95 12.9 Q-95.75 11.5 -97.35 10.35 L-97.45 10.15 Q-99.55 8.65 -100.9 12.85 L-100.9 12.5 -100.9 12.1 -100.9 11.8 Q-100.4 11.45 -100.25 10.7 L-100.2 10.35 -100.0 10.3 Q-98.2 7.75 -100.2 5.75 L-100.3 5.5 Q-100.95 4.1 -101.25 2.25" fill="#575656" fill-opacity="0.96862745" fill-rule="evenodd" stroke="none"/>
    <path d="M-92.0 15.3 L-92.35 15.25 Q-93.5 14.65 -94.15 13.55 L-93.8 13.55 -93.45 13.55 -92.1 14.7 -92.0 14.95 -92.0 15.3" fill="#424242" fill-opacity="0.8980392" fill-rule="evenodd" stroke="none"/>
    <path d="M-89.9 16.0 L-89.95 16.2 Q-91.35 17.0 -92.0 15.3 L-92.0 14.95 -90.6 15.9 -90.25 16.0 -89.9 16.0" fill="#3c3c3c" fill-opacity="0.9137255" fill-rule="evenodd" stroke="none"/>
    <path d="M-86.0 12.85 Q-86.2 12.8 -86.2 12.95 L-88.45 14.95 -88.45 14.6 -88.45 14.25 -85.35 11.3 -85.25 11.05 -85.0 11.15 -84.9 11.45 -84.9 12.1 -84.9 12.5 -85.1 12.4 Q-85.4 11.9 -86.0 12.5 L-86.0 12.85" fill="#414141" fill-opacity="0.9647059" fill-rule="evenodd" stroke="none"/>
    <path d="M-88.45 14.95 L-88.5 15.15 Q-89.4 15.45 -89.9 16.0 L-90.25 16.0 -90.25 15.65 Q-89.35 15.2 -88.7 14.35 L-88.45 14.25 -88.45 14.6 -88.45 14.95" fill="#484848" fill-opacity="0.95686275" fill-rule="evenodd" stroke="none"/>
    <path d="M-80.65 19.55 L-80.85 19.45 -81.85 17.9 Q-80.9 18.5 -80.3 19.55 L-80.65 19.55 M-82.1 17.6 Q-83.9 15.05 -86.0 12.85 L-86.0 12.5 Q-85.4 11.9 -85.1 12.4 L-84.9 12.5 Q-83.35 14.75 -82.1 17.45 L-82.1 17.6" fill="#4e4d4d" fill-opacity="0.9019608" fill-rule="evenodd" stroke="none"/>
    <path d="M-96.65 13.2 L-96.75 13.5 Q-97.9 15.65 -98.8 18.15 L-99.05 18.2 Q-100.1 19.65 -102.0 20.25 L-102.0 19.9 Q-100.45 19.15 -99.4 17.9 L-99.15 17.8 Q-98.4 15.3 -97.1 13.5 L-97.0 13.2 -96.65 13.2" fill="#3f3f3e" fill-opacity="0.8862745" fill-rule="evenodd" stroke="none"/>
    <path d="M-100.9 12.85 Q-99.55 8.65 -97.45 10.15 L-97.35 10.35 -97.6 10.45 Q-99.75 15.05 -102.35 19.15 L-102.35 19.55 -102.35 19.9 -102.5 19.85 -102.7 17.4 -102.7 17.1 -102.7 16.35 Q-101.65 14.95 -101.0 13.15 L-100.9 12.85" fill="#e5e5e5" fill-rule="evenodd" stroke="none"/>
    <path d="M-100.2 10.35 L-100.2 10.05 -100.2 5.75 Q-98.2 7.75 -100.0 10.3 L-100.2 10.35" fill="#f2f1f1" fill-rule="evenodd" stroke="none"/>
    <path d="M-103.05 17.1 L-103.05 16.7 -103.05 16.0 Q-101.9 14.55 -101.15 12.55 L-100.9 12.5 -100.9 12.85 -101.0 13.15 Q-101.65 14.95 -102.7 16.35 L-102.7 17.1 -102.7 17.4 -103.05 17.4 -103.05 17.1" fill="#4f4d4d" fill-opacity="0.9529412" fill-rule="evenodd" stroke="none"/>
    <path d="M-102.0 20.25 L-102.05 20.4 Q-102.95 20.85 -103.05 20.25 L-103.05 19.9 -103.05 17.4 -102.7 17.4 -102.5 19.85 -102.35 19.9 -102.0 19.9 -102.0 20.25" fill="#585656" fill-opacity="0.98039216" fill-rule="evenodd" stroke="none"/>
    <path d="M-103.05 20.25 L-103.25 20.2 -103.4 17.1 -103.05 17.1 -103.05 17.4 -103.05 19.9 -103.05 20.25" fill="#242424" fill-opacity="0.57254905" fill-rule="evenodd" stroke="none"/>
    <path d="M-71.7 12.6 L-71.7 12.8 -72.5 12.6 -71.7 12.6" fill="url(#gradient0)" fill-rule="evenodd" stroke="none"/>
    <path d="M-97.7 -3.05 L-97.7 -3.35 -97.7 -5.85 Q-93.45 -5.75 -90.9 -7.5 L-90.6 -7.6 Q-87.25 -6.2 -83.15 -5.35 L-83.15 -5.15 -83.5 -5.15 -83.5 -2.35 -83.5 -1.95 -83.5 -1.6 Q-84.6 7.0 -90.6 10.35 L-90.95 10.3 Q-97.05 6.5 -97.7 -3.05" fill="#603c06" fill-rule="evenodd" stroke="none"/>
    <path d="M2.9 -6.8 Q5.25 -9.2 9.1 -9.2 11.85 -9.2 13.85 -7.5 L14.0 -7.25 13.95 -6.9 12.75 -4.65 12.55 -4.45 12.25 -4.4 12.0 -4.5 10.6 -5.35 10.65 -5.3 9.0 -5.7 Q6.95 -5.7 5.75 -4.3 4.5 -2.9 4.5 -0.45 4.5 1.9 5.75 3.3 6.9 4.6 8.9 4.6 10.05 4.6 10.85 4.05 L10.85 1.7 9.2 1.7 8.85 1.55 8.7 1.2 8.7 -1.2 8.85 -1.55 9.2 -1.7 14.15 -1.7 14.5 -1.55 14.65 -1.2 14.65 5.85 14.6 6.1 14.45 6.25 Q13.4 7.1 11.75 7.6 L8.45 8.05 Q4.8 8.05 2.75 5.7 0.6 3.35 0.6 -0.5 0.6 -4.35 2.9 -6.8 M16.45 -3.6 L16.45 -3.95 16.7 -4.2 Q18.2 -4.9 20.2 -4.9 23.05 -4.9 24.4 -3.55 25.75 -2.25 25.75 1.3 L25.75 3.8 Q25.75 5.75 26.45 6.25 L26.7 6.55 26.65 6.9 25.65 7.9 25.6 7.9 24.5 8.0 Q23.75 8.0 23.2 7.5 L22.75 7.05 21.8 7.6 21.8 7.65 19.7 8.0 Q17.65 8.0 16.45 7.0 15.2 5.9 15.2 3.95 15.2 1.7 16.9 0.4 18.5 -0.8 21.45 -0.8 L21.95 -0.75 Q21.55 -1.65 20.0 -1.65 L17.7 -1.2 17.4 -1.15 Q17.25 -1.15 17.15 -1.25 L17.0 -1.5 16.45 -3.6 M27.8 -4.55 L28.15 -4.7 30.0 -4.7 30.25 -4.6 30.45 -4.45 30.7 -4.0 Q31.8 -4.9 33.45 -4.9 35.6 -4.9 36.9 -3.85 L38.15 -4.55 40.1 -4.9 Q42.25 -4.9 43.45 -3.65 44.65 -2.4 44.65 -0.3 L44.65 7.3 44.5 7.65 44.15 7.8 41.45 7.8 41.1 7.65 40.95 7.3 40.95 0.1 Q40.95 -1.6 39.45 -1.65 L38.6 -1.35 38.55 -1.35 Q38.15 -1.15 38.0 -0.85 L38.0 7.3 37.85 7.65 37.5 7.8 34.8 7.8 34.45 7.65 34.3 7.3 34.3 -0.35 34.0 -1.25 Q33.55 -1.65 32.8 -1.65 L31.95 -1.35 32.0 -1.35 31.35 -0.8 31.35 7.3 31.2 7.65 30.85 7.8 28.15 7.8 27.8 7.65 27.65 7.3 27.65 -4.2 27.8 -4.55 M56.4 -3.3 Q58.05 -1.65 58.05 0.9 L57.8 2.5 57.6 2.75 57.3 2.85 49.7 2.85 Q49.85 3.65 50.4 4.15 51.1 4.75 52.4 4.75 54.0 4.75 54.85 3.95 L55.15 3.8 55.45 3.85 55.65 4.1 56.65 6.15 56.7 6.45 56.55 6.75 Q55.0 8.0 52.0 8.0 49.1 8.0 47.5 6.35 45.8 4.7 45.8 1.65 45.8 -1.25 47.65 -3.1 49.45 -4.9 52.0 -4.9 54.7 -4.9 56.4 -3.3 M52.05 -1.65 Q50.45 -1.65 49.9 -0.15 L54.25 -0.15 Q53.8 -1.65 52.05 -1.65 M59.85 -4.0 Q61.1 -4.9 63.0 -4.9 64.9 -4.9 66.6 -4.05 L66.85 -3.75 66.85 -3.4 66.1 -1.35 65.9 -1.1 65.6 -1.05 65.3 -1.15 Q64.5 -1.8 63.15 -1.8 62.3 -1.8 62.25 -1.15 L62.5 -0.75 64.4 0.15 Q66.0 0.8 66.75 1.75 67.55 2.65 67.55 4.1 67.55 5.95 66.15 7.0 64.85 8.0 62.6 8.0 L60.65 7.85 60.6 7.85 58.75 7.0 58.55 6.7 58.55 6.35 59.5 4.2 59.7 4.0 60.0 3.9 Q60.15 3.9 60.3 4.05 61.35 4.9 62.65 4.9 63.7 4.9 63.75 4.25 L63.45 3.6 63.4 3.55 Q63.0 3.15 61.75 2.7 L61.7 2.65 Q58.4 1.25 58.45 -1.25 58.45 -3.0 59.8 -4.0 L59.85 -4.0 M22.1 2.35 L21.55 2.25 Q18.95 2.25 18.9 3.85 18.95 4.9 20.2 4.9 22.1 4.9 22.1 2.95 L22.1 2.35 M-62.95 -9.15 L-62.65 -9.05 -62.45 -8.8 -56.1 7.15 -56.1 7.45 -56.3 7.7 -56.6 7.8 -59.7 7.8 -59.95 7.7 -60.15 7.5 -61.2 4.6 -65.85 4.6 -66.85 7.5 -67.05 7.7 -67.35 7.8 -70.45 7.8 -70.75 7.7 -70.9 7.45 -70.9 7.15 -64.6 -8.8 -64.4 -9.05 -64.15 -9.15 -62.95 -9.15 M-52.4 -4.7 L-52.05 -4.55 -51.9 -4.2 Q-50.85 -4.9 -49.4 -4.9 L-47.05 -4.45 -46.8 -4.15 -46.85 -3.75 -48.0 -1.45 -48.2 -1.25 -48.45 -1.2 -48.7 -1.25 Q-49.3 -1.65 -50.05 -1.65 -50.75 -1.65 -51.3 -1.0 -51.9 -0.3 -51.9 0.75 L-51.9 7.3 -52.05 7.65 -52.4 7.8 -55.1 7.8 -55.45 7.65 -55.6 7.3 -55.6 -4.2 -55.45 -4.55 -55.1 -4.7 -52.4 -4.7 M-46.05 -4.55 L-45.7 -4.7 -43.85 -4.7 -43.6 -4.6 -43.4 -4.45 -43.15 -4.0 Q-42.05 -4.9 -40.4 -4.9 -38.25 -4.9 -36.95 -3.85 -36.45 -4.3 -35.7 -4.55 L-33.75 -4.9 Q-31.6 -4.9 -30.4 -3.65 -29.2 -2.4 -29.2 -0.3 L-29.2 7.3 -29.35 7.65 Q-29.5 7.8 -29.7 7.8 L-32.4 7.8 -32.75 7.65 -32.9 7.3 -32.9 0.1 Q-32.9 -1.6 -34.4 -1.65 L-35.25 -1.35 -35.3 -1.35 -35.85 -0.85 -35.85 7.3 -36.0 7.65 -36.35 7.8 -39.05 7.8 -39.4 7.65 -39.55 7.3 -39.55 -0.35 Q-39.55 -0.95 -39.85 -1.25 -40.3 -1.65 -41.05 -1.65 L-41.9 -1.35 -41.85 -1.35 -42.5 -0.8 -42.5 7.3 -42.65 7.65 -43.0 7.8 -45.7 7.8 -46.05 7.65 -46.2 7.3 -46.2 -4.2 -46.05 -4.55 M-23.6 -0.95 Q-24.25 -0.05 -24.25 1.5 -24.25 4.75 -22.0 4.8 -21.0 4.8 -20.4 4.05 L-20.4 4.1 Q-19.8 3.15 -19.8 1.5 -19.8 -1.7 -22.0 -1.75 -23.05 -1.75 -23.6 -0.95 M-26.4 -3.1 Q-24.75 -4.9 -22.0 -4.9 -19.15 -4.9 -17.55 -3.2 L-17.55 -3.15 Q-16.0 -1.45 -16.0 1.5 -16.0 4.45 -17.55 6.25 -19.2 8.0 -22.0 8.0 -24.9 8.0 -26.45 6.25 -28.05 4.45 -28.05 1.5 -28.05 -1.3 -26.4 -3.05 L-26.4 -3.1 M-11.3 -4.55 L-11.15 -4.2 Q-10.1 -4.9 -8.65 -4.9 L-6.3 -4.45 -6.05 -4.15 -6.1 -3.75 -7.25 -1.45 -7.45 -1.25 -7.7 -1.2 -7.95 -1.25 Q-8.55 -1.65 -9.3 -1.65 -10.0 -1.65 -10.55 -1.0 -11.15 -0.3 -11.15 0.75 L-11.15 7.3 -11.3 7.65 -11.65 7.8 -14.35 7.8 -14.7 7.65 -14.85 7.3 -14.85 -4.2 -14.7 -4.55 -14.35 -4.7 -11.65 -4.7 -11.3 -4.55 M-62.35 1.45 L-63.55 -2.25 -64.75 1.45 -62.35 1.45 M-71.7 12.8 L-71.7 12.6 -71.05 12.6 -71.05 12.85 -71.7 12.8" fill="url(#gradient1)" fill-rule="evenodd" stroke="none"/>
  </g>
  <defs>
    <linearGradient gradientTransform="matrix(0.0, 0.0135, -0.0855, 0.0, -2.45, 1.8)" gradientUnits="userSpaceOnUse" id="gradient0" spreadMethod="pad" x1="-819.2" x2="819.2">
      <stop offset="0.0" stop-color="#4b6d3d"/>
      <stop offset="1.0" stop-color="#83d161"/>
    </linearGradient>
    <linearGradient gradientTransform="matrix(0.0, 0.0135, -0.0855, 0.0, -2.45, 1.8)" gradientUnits="userSpaceOnUse" id="gradient1" spreadMethod="pad" x1="-819.2" x2="819.2">
      <stop offset="0.0" stop-color="#e6a000"/>
      <stop offset="1.0" stop-color="#fde935"/>
    </linearGradient>
  </defs>
</svg>
