<?xml version="1.0" encoding="UTF-8" standalone="no"?>
<svg xmlns:ffdec="https://www.free-decompiler.com/flash" xmlns:xlink="http://www.w3.org/1999/xlink" ffdec:objectType="shape" height="589.85px" width="976.9px" xmlns="http://www.w3.org/2000/svg">
  <g transform="matrix(1.0, 0.0, 0.0, 1.0, 49.2, 12.75)">
    <path d="M805.4 574.3 L0.35 574.3 0.35 0.55 805.4 0.55 805.4 574.3" fill="url(#gradient0)" fill-rule="evenodd" stroke="none"/>
    <path d="M68.05 -12.75 Q51.9 15.8 31.3 63.6 3.8 127.25 -1.65 138.7 -2.75 139.0 -2.85 138.15 -0.3 130.3 -0.65 128.55 -1.65 127.1 -1.65 123.85 -1.65 116.3 16.45 72.3 26.75 47.35 37.25 23.65 L37.25 23.1 Q23.6 47.1 8.25 70.7 -11.85 101.6 -16.2 101.6 -22.55 101.6 -22.0 96.25 -22.0 91.0 -5.8 65.85 2.3 53.25 10.55 41.35 19.0 27.4 29.05 9.75 35.85 -1.8 39.45 -5.5 43.45 -9.6 49.75 -10.85 L68.05 -12.75 M309.8 -0.2 Q310.85 1.9 310.75 4.25 310.75 4.9 287.55 37.9 256.3 82.25 228.85 125.25 133.45 274.45 70.5 423.05 L70.8 423.5 Q95.8 381.85 110.7 359.85 137.85 319.8 150.4 319.8 156.05 319.8 156.75 326.0 126.8 371.85 105.0 404.2 L108.45 403.8 Q118.65 403.8 123.15 412.1 L124.0 413.9 Q184.15 414.7 210.2 468.2 218.9 486.1 222.8 508.1 225.2 521.7 225.2 531.55 219.3 574.45 212.0 574.45 L193.05 574.2 Q198.95 565.15 203.45 553.45 208.55 540.05 208.55 530.85 208.55 522.5 205.85 509.95 201.95 491.7 194.1 476.85 172.5 436.1 128.4 433.0 128.35 435.65 127.1 438.1 124.9 442.2 119.9 442.2 114.4 442.2 112.4 437.7 111.75 436.25 111.6 434.5 L111.5 433.15 Q86.3 435.7 71.35 452.65 L64.75 461.6 Q62.6 465.1 60.75 469.0 51.95 487.75 51.95 509.0 51.95 529.25 61.65 545.9 75.1 568.9 103.25 574.45 L101.65 574.75 Q81.55 578.45 69.6 576.3 58.9 574.35 53.1 567.25 49.2 562.5 45.3 551.55 40.7 538.45 37.8 533.35 34.8 528.1 34.45 510.65 L34.65 492.8 Q34.65 487.55 37.6 478.5 36.4 477.3 35.65 475.7 34.8 473.85 34.65 471.6 L34.65 469.55 Q34.65 441.0 86.6 338.45 113.0 286.3 143.65 231.95 127.1 257.45 96.95 308.25 L45.35 395.7 Q16.45 444.35 0.9 467.7 -19.05 497.6 -24.45 497.6 -29.3 497.6 -30.5 495.35 L-30.8 492.8 Q-30.8 487.15 28.1 388.35 L115.5 242.8 Q120.7 234.0 132.25 216.9 125.1 215.0 122.3 207.5 120.7 203.2 120.7 195.9 120.7 180.4 138.45 180.4 147.1 180.4 151.95 188.1 L152.4 187.45 Q181.15 146.05 211.8 104.35 291.65 -4.4 302.05 -4.4 307.75 -4.4 309.8 -0.2 M580.8 20.25 Q584.9 37.0 587.4 42.45 597.05 64.2 609.65 79.3 L624.75 97.6 Q633.85 108.25 642.05 116.0 650.9 124.35 661.55 131.8 668.65 125.8 676.65 120.3 L671.25 109.0 Q654.6 72.25 654.6 56.9 654.6 55.15 656.45 42.45 658.25 29.75 659.3 24.2 L660.1 24.2 Q660.4 33.1 659.0 52.35 659.0 55.85 669.85 85.1 677.65 106.1 682.25 116.5 713.4 96.15 749.75 86.4 783.95 77.2 810.2 80.4 L810.4 80.4 Q880.7 93.75 907.9 125.8 919.2 139.15 923.95 156.6 927.7 170.55 927.7 189.45 927.7 202.75 917.5 230.25 905.65 262.05 887.55 290.1 865.4 324.55 839.15 344.25 824.95 354.85 810.2 360.7 792.2 367.8 773.3 367.8 L766.1 367.65 766.1 380.75 Q766.5 379.1 767.45 377.55 770.0 373.55 775.5 373.55 780.55 373.55 782.65 377.55 783.7 379.6 783.75 381.7 783.75 385.1 781.55 388.3 779.85 390.8 777.4 391.75 L777.4 391.85 775.8 424.85 778.25 427.4 Q788.1 437.75 792.4 444.4 804.15 462.35 808.9 480.15 L810.2 485.7 811.35 492.15 Q812.9 502.7 812.9 515.2 812.9 548.05 787.25 562.7 L790.2 574.2 790.45 574.45 Q788.7 574.05 787.15 573.2 L787.45 574.45 786.85 574.75 Q774.65 580.65 769.95 569.75 753.0 574.45 729.4 574.45 676.85 574.45 649.2 550.8 L649.05 551.1 Q645.65 557.8 639.1 557.8 625.3 557.8 620.55 545.6 618.45 540.15 618.45 531.55 618.3 530.35 618.45 529.0 618.65 526.4 619.85 524.3 622.1 520.4 627.4 518.85 L627.1 518.0 Q623.25 506.35 623.25 494.7 623.25 475.1 632.5 454.3 640.85 435.6 655.2 419.1 666.05 406.55 677.9 398.05 668.85 391.2 659.9 381.85 650.3 371.85 639.3 356.55 640.45 360.65 640.45 364.9 L640.5 368.35 Q640.4 372.1 639.6 375.1 637.25 384.7 629.3 384.7 619.6 384.7 613.25 375.35 L611.25 371.95 608.3 376.75 Q601.1 376.75 599.4 370.85 598.85 368.95 598.9 366.6 L599.05 364.2 Q599.05 362.85 601.0 356.6 603.45 348.85 606.65 342.1 612.75 329.1 619.4 324.45 614.95 313.2 610.55 293.6 604.15 265.35 604.15 248.7 604.15 206.5 626.9 170.9 636.85 155.3 650.65 141.75 642.65 135.7 635.25 128.5 L613.8 106.25 Q594.95 87.6 582.3 62.05 569.5 36.1 569.5 15.8 569.5 12.0 571.15 8.95 573.25 5.05 576.95 5.05 L580.8 20.25 M562.4 140.7 L562.2 138.6 Q562.2 135.15 568.25 129.95 574.45 124.55 579.15 124.55 584.4 124.55 586.95 130.1 588.25 132.9 588.5 135.95 588.5 139.4 585.5 144.2 581.55 150.4 575.85 150.4 567.2 150.4 563.85 144.75 562.8 142.95 562.4 140.7 M626.55 135.3 Q626.55 139.8 621.5 139.8 618.1 139.8 617.15 137.7 616.8 137.0 616.8 135.3 616.8 133.8 617.65 132.4 618.95 130.35 621.6 130.35 626.7 130.35 626.55 135.3 M591.1 194.15 Q599.2 194.15 601.0 203.6 601.0 205.8 599.6 208.6 597.65 212.55 594.4 212.55 582.45 212.55 582.45 203.35 582.45 200.05 584.1 197.55 586.35 194.15 591.1 194.15 M587.55 261.2 Q590.25 267.4 590.8 273.9 590.8 280.9 588.1 287.9 583.8 299.05 574.75 299.05 566.75 299.05 561.95 292.0 561.4 296.5 559.75 300.15 556.0 308.25 547.5 308.25 538.7 308.25 535.05 296.85 533.85 293.2 533.35 288.75 533.05 286.25 533.05 284.6 533.05 279.25 535.85 274.7 540.2 267.7 549.7 267.7 553.15 267.7 555.7 269.65 L555.6 267.15 Q555.6 262.55 558.1 257.45 562.35 248.85 571.55 248.85 582.25 248.85 587.55 261.2 M626.3 248.6 Q626.3 280.05 637.4 309.25 645.65 330.85 659.0 348.75 661.85 342.65 670.7 342.65 677.85 342.65 680.35 348.7 681.6 351.7 681.45 355.0 681.45 359.0 679.55 362.85 677.9 366.05 675.35 367.5 686.8 378.65 699.8 386.4 705.25 384.7 710.05 384.7 721.35 384.7 736.55 392.35 732.3 369.1 731.2 360.9 719.15 356.55 708.6 349.5 686.2 334.55 671.3 308.1 666.1 298.85 662.0 288.65 L661.3 290.15 Q659.9 292.6 658.2 292.6 652.85 292.6 651.2 289.3 650.7 288.25 650.65 286.95 L650.65 285.7 Q650.65 278.85 656.55 278.85 L658.5 279.05 Q656.1 271.75 654.2 264.05 650.1 247.2 650.1 237.7 650.1 219.4 652.1 200.8 654.5 178.2 659.0 164.85 L659.0 164.3 Q643.65 179.85 634.45 205.65 626.3 228.5 626.3 248.6 M628.4 343.85 L631.25 344.85 629.45 342.15 628.4 343.85 M598.8 325.6 Q593.3 325.6 591.4 321.5 590.8 320.25 590.6 318.7 L590.55 317.35 Q590.55 314.6 592.15 312.4 594.5 309.2 599.35 309.2 607.2 309.2 608.0 317.05 608.0 320.5 605.8 322.9 603.3 325.6 598.8 325.6 M169.3 26.1 Q158.95 38.35 158.95 42.45 158.95 43.9 127.05 86.95 90.15 136.8 75.2 161.15 63.6 180.05 39.8 220.85 31.9 233.9 24.7 244.9 33.0 232.85 38.6 225.5 L65.3 189.8 Q81.5 168.2 93.5 153.85 127.7 112.85 164.55 86.6 L166.45 87.1 Q167.3 87.45 167.3 89.2 167.3 90.9 156.7 103.7 L129.45 135.9 Q81.75 192.15 52.8 231.95 43.9 244.25 -2.75 316.45 -38.65 372.05 -43.0 372.05 -48.0 372.05 -49.1 369.9 L-49.2 367.4 Q-49.2 358.55 -10.15 297.75 5.05 274.05 16.45 257.05 8.6 268.2 1.65 276.65 37.25 198.75 74.3 141.4 122.3 67.05 181.5 12.2 174.6 19.75 169.3 26.1 M224.1 168.15 Q223.35 165.3 223.55 161.8 L223.85 158.65 Q223.85 146.0 236.6 146.0 245.3 146.0 249.75 155.15 L250.45 156.7 Q254.0 153.45 259.6 153.45 270.45 153.45 276.4 164.5 279.4 170.05 280.2 175.85 280.2 181.5 277.45 187.0 273.05 195.8 263.55 195.8 252.3 195.8 247.45 184.0 245.95 180.3 245.25 175.85 L245.25 175.6 Q241.85 177.2 237.15 177.2 226.5 177.2 224.1 168.15 M62.95 93.75 Q62.95 95.4 59.8 100.1 56.65 104.85 56.65 109.3 56.65 110.6 46.85 131.45 35.5 155.6 33.65 160.05 L33.35 160.85 33.65 160.85 Q39.95 160.85 43.9 169.1 45.9 173.25 46.6 177.65 46.6 180.55 44.7 183.45 42.05 187.55 36.95 187.55 29.15 187.55 25.0 183.45 L22.95 189.05 19.25 198.3 Q22.0 202.4 22.0 205.25 22.0 209.85 19.25 213.45 14.9 219.15 4.8 219.15 -4.4 219.15 -9.45 210.95 -12.75 205.6 -12.75 201.95 -12.75 198.0 -10.25 193.75 -6.45 187.25 1.1 187.25 4.35 187.25 7.25 188.2 8.55 182.1 10.85 174.6 16.0 157.85 24.15 140.3 32.75 121.75 41.75 108.9 51.75 94.55 59.95 90.75 L62.95 93.75 M77.7 110.8 Q79.05 113.35 79.05 115.75 79.05 118.0 77.35 120.7 74.75 124.85 69.7 124.85 63.85 124.85 61.6 120.4 60.9 118.95 60.6 117.25 L60.5 115.6 Q60.5 113.0 62.1 110.35 64.6 106.25 69.7 106.25 75.25 106.25 77.7 110.8 M161.15 139.25 Q162.3 141.9 162.25 144.75 162.25 147.8 160.65 150.15 158.4 153.45 153.7 153.45 146.7 153.45 144.75 149.4 144.15 148.1 144.1 146.55 L144.2 145.05 Q144.2 141.1 145.85 138.2 148.2 134.05 153.15 134.05 158.9 134.05 161.15 139.25 M123.45 225.5 Q123.45 228.75 121.3 231.7 118.25 235.8 112.3 235.8 106.05 235.8 103.5 230.8 102.15 228.15 102.15 225.2 102.15 222.1 103.5 219.45 106.05 214.5 112.3 214.5 118.95 214.5 121.85 219.85 123.3 222.55 123.45 225.5 M93.5 244.2 L93.3 245.85 92.15 249.15 Q89.65 253.8 83.85 253.8 77.3 253.8 74.65 248.55 73.8 246.85 73.45 244.8 L73.25 242.95 Q73.25 240.4 74.9 237.75 77.5 233.6 82.75 233.6 91.95 233.6 93.5 244.2 M49.25 338.65 Q50.3 340.55 50.3 342.5 50.3 344.6 48.55 347.05 46.6 349.8 44.4 349.8 38.45 349.8 36.15 346.25 35.45 345.1 35.2 343.75 L35.05 342.5 Q35.05 340.2 36.45 338.1 38.45 335.05 42.45 335.05 47.25 335.05 49.25 338.65 M18.15 341.0 Q18.15 342.85 16.25 346.8 14.0 351.45 11.65 351.45 5.15 351.45 3.1 347.1 2.3 345.35 2.3 342.1 2.3 333.95 10.3 333.95 17.85 333.95 18.15 341.0 M159.5 329.9 Q165.85 322.05 172.85 314.15 L170.05 314.6 Q164.2 314.6 162.9 311.25 162.5 310.2 162.6 308.85 L162.8 307.55 Q162.8 305.15 164.0 303.2 165.9 300.15 170.05 300.15 174.75 300.15 176.7 303.7 177.75 305.6 177.75 307.55 L177.6 308.9 182.1 304.0 Q202.0 282.65 214.45 273.8 L212.4 274.15 Q206.2 274.15 204.15 270.75 203.5 269.65 203.35 268.3 L203.35 267.0 Q203.35 264.4 205.0 262.5 207.05 260.15 210.9 260.15 216.0 260.15 217.8 263.5 218.7 265.2 218.6 267.15 218.6 269.1 217.2 271.25 L216.25 272.55 Q223.85 267.4 228.35 267.4 233.75 267.4 236.1 271.3 237.45 273.5 237.45 275.55 237.45 280.0 217.0 297.3 206.65 306.05 195.35 314.85 L172.8 336.65 Q156.9 352.0 155.9 352.0 150.9 352.0 149.9 347.75 L149.85 343.2 Q149.85 341.8 159.5 329.9 M150.15 383.75 Q150.15 389.1 144.35 389.1 140.1 389.1 139.0 386.7 138.7 386.1 138.7 384.0 138.7 378.65 144.35 378.65 150.55 378.65 150.15 383.75 M250.25 228.8 Q250.25 232.9 247.2 236.65 243.1 241.7 235.5 241.7 225.75 241.7 220.85 232.8 217.8 227.3 217.8 223.0 217.8 217.9 220.0 213.1 223.75 205.0 232.2 205.0 244.0 205.0 248.3 216.75 250.45 222.65 250.25 228.8 M220.25 235.4 Q220.25 239.5 217.55 243.25 213.7 248.6 206.1 248.6 195.0 248.6 189.55 238.25 186.15 231.9 186.15 226.7 186.15 222.8 188.15 218.65 191.65 211.3 199.5 211.3 210.0 211.3 216.15 223.2 219.25 229.15 220.25 235.4 M185.6 252.45 Q185.6 246.65 191.4 246.65 197.45 246.65 198.1 253.0 198.1 254.2 197.05 256.3 195.6 259.15 193.6 259.15 187.9 259.15 186.2 255.95 185.65 254.95 185.55 253.65 L185.6 252.45 M174.2 289.3 Q174.2 290.95 172.85 292.65 171.6 294.25 170.6 294.25 165.25 294.25 164.05 291.8 163.7 291.0 163.75 290.0 L163.9 289.0 Q163.9 287.25 165.05 285.75 166.45 283.8 168.95 283.8 174.6 283.8 174.2 289.3 M232.8 332.3 L232.2 328.45 Q232.2 323.3 234.95 319.55 239.4 313.5 249.7 313.5 257.45 313.5 262.5 324.25 265.05 329.65 266.05 335.2 266.05 340.95 261.8 345.45 256.4 351.15 246.4 351.15 239.15 351.15 234.95 340.05 233.65 336.5 232.8 332.3 M225.2 355.3 Q225.2 357.9 223.6 360.1 221.25 363.4 216.4 363.4 210.55 363.4 208.55 359.7 207.95 358.5 207.8 357.05 L207.75 355.7 Q207.75 352.8 209.7 350.35 212.15 347.3 216.4 347.3 221.5 347.3 223.85 351.2 225.05 353.15 225.2 355.3 M216.15 381.05 L215.3 377.3 Q215.3 375.2 216.7 373.15 218.7 370.25 222.45 370.25 227.55 370.25 229.5 373.95 230.5 375.85 230.45 377.95 230.45 380.75 228.35 382.55 226.8 383.9 224.45 384.3 225.2 385.1 225.75 386.15 227.1 388.5 227.15 391.15 227.15 394.8 224.95 397.8 222.1 401.6 216.95 401.6 210.8 401.6 208.25 396.65 206.9 394.0 206.9 391.3 206.9 388.2 209.1 385.25 211.8 381.65 216.35 381.45 L216.15 381.05 M284.1 312.65 Q281.45 317.6 277.3 317.6 268.6 317.6 265.25 312.4 263.55 309.8 263.55 306.6 263.55 303.3 265.5 300.15 268.5 295.2 274.85 295.2 285.45 295.2 286.0 306.45 286.0 309.0 284.1 312.65 M180.1 403.3 Q179.15 404.5 175.85 404.5 170.05 404.5 170.05 400.25 170.05 398.3 171.75 396.95 173.15 395.85 174.45 395.85 181.2 395.85 180.65 400.4 180.65 402.55 180.1 403.3 M231.1 458.0 Q237.15 458.0 239.65 462.8 240.95 465.25 241.0 467.9 241.0 470.7 239.1 473.55 236.35 477.65 231.1 477.65 224.3 477.65 222.15 472.85 221.5 471.35 221.35 469.45 L221.35 467.75 Q221.35 464.45 223.55 461.6 226.3 458.0 231.1 458.0 M235.7 527.95 Q235.25 525.6 235.25 524.7 235.25 519.6 237.75 516.2 241.45 511.2 249.7 511.2 259.25 511.2 263.05 521.0 264.95 525.9 264.95 530.85 264.95 534.15 262.5 538.15 258.6 544.5 250.8 544.5 242.0 544.5 237.75 534.75 236.4 531.65 235.7 527.95 M177.2 539.95 L175.95 545.7 Q174.4 552.05 172.55 557.5 166.85 574.45 161.4 574.45 L132.95 574.2 Q154.2 568.95 163.6 553.25 170.05 542.5 170.05 529.2 170.05 512.95 162.3 497.9 147.85 469.95 112.85 469.95 94.0 469.95 82.8 484.3 78.65 489.6 76.3 495.95 74.35 501.25 74.35 505.0 74.35 521.55 79.05 534.85 88.5 561.65 113.4 561.65 123.25 561.65 128.1 554.95 129.65 552.8 130.45 550.25 L131.0 547.9 Q131.0 543.65 126.2 538.5 120.4 532.25 112.6 532.25 109.85 532.25 109.05 535.45 108.75 536.5 108.75 539.1 108.75 542.75 109.6 544.55 110.95 547.3 114.95 548.9 L114.95 549.15 Q110.7 549.7 108.55 544.95 107.1 541.7 107.1 538.15 107.1 530.05 113.4 530.05 128.8 530.05 134.6 548.6 134.6 552.8 130.55 558.35 125.15 565.8 116.6 565.8 84.75 565.8 73.85 536.0 70.4 526.5 69.45 514.9 L69.15 504.2 Q69.15 498.7 72.55 492.0 75.9 485.35 81.7 479.55 95.2 465.95 111.2 465.95 153.55 465.95 169.55 502.0 177.6 520.15 177.2 539.95 M154.25 402.5 Q155.3 404.5 155.35 406.7 155.35 409.25 153.7 411.65 151.4 414.95 147.1 414.95 141.8 414.95 139.85 410.85 L139.0 406.7 Q139.0 404.4 140.7 401.95 143.0 398.6 147.1 398.6 152.2 398.6 154.25 402.5 M96.45 416.75 L96.1 417.3 96.5 417.2 96.45 416.75 M20.05 521.25 Q20.05 523.55 18.15 525.7 16.0 528.1 13.05 528.1 8.3 528.1 6.75 524.7 L6.15 520.95 Q6.15 518.9 7.6 517.0 9.55 514.5 13.05 514.5 20.2 514.5 20.05 521.25 M13.85 550.95 Q13.85 553.7 11.95 557.9 9.3 563.6 5.35 563.6 -4.05 563.6 -7.25 557.6 -8.3 555.65 -8.55 553.25 L-8.65 550.95 Q-8.65 547.25 -7.2 544.5 -4.8 539.8 1.1 539.8 9.05 539.8 12.2 545.25 13.85 547.95 13.85 550.95 M30.25 562.5 Q29.75 561.5 29.65 560.15 L29.7 558.9 Q29.7 556.75 30.75 554.95 32.4 552.2 35.85 552.2 42.9 552.2 42.2 558.8 42.2 561.05 40.85 563.35 39.35 565.8 37.5 565.8 31.9 565.8 30.25 562.5 M562.9 537.95 L562.75 535.8 Q562.75 532.8 564.7 528.95 568.0 522.6 574.75 522.6 582.05 522.6 585.5 530.6 587.25 534.6 587.5 538.7 587.5 541.3 586.3 543.7 584.0 548.35 578.05 548.35 568.1 548.35 564.45 542.25 563.3 540.3 562.9 537.95 M546.7 511.75 Q546.7 520.95 544.0 525.4 539.45 532.9 525.1 537.45 L525.5 538.3 Q525.9 539.0 525.9 540.65 525.9 545.6 519.75 545.6 512.05 545.6 505.05 530.95 502.8 526.3 500.95 520.8 499.5 516.55 499.5 516.0 499.5 509.65 502.3 504.05 507.25 494.0 519.2 494.0 534.0 494.0 541.25 500.35 546.7 505.1 546.7 511.75 M615.2 543.05 Q616.1 544.65 616.0 546.55 616.0 549.3 613.85 551.1 611.7 552.85 608.55 552.85 603.95 552.85 602.5 549.7 L601.95 546.25 Q601.95 543.75 604.05 541.75 606.15 539.8 608.55 539.8 613.5 539.8 615.2 543.05 M600.45 511.2 Q600.45 516.15 594.8 516.15 590.65 516.15 589.75 514.05 589.6 513.75 589.6 511.6 589.6 506.55 594.95 506.55 600.05 506.55 600.45 511.2 M402.45 536.9 Q408.95 536.9 412.25 542.0 414.4 545.35 414.4 548.6 414.4 551.5 412.45 554.35 409.75 558.35 404.65 558.35 396.35 558.35 393.25 553.3 391.7 550.8 391.7 547.5 391.7 544.45 393.25 541.75 396.0 536.9 402.45 536.9 M478.5 508.95 Q480.0 511.65 480.15 514.65 480.15 517.85 477.95 520.85 475.1 524.8 470.1 524.8 463.0 524.8 460.2 519.45 459.35 517.8 459.0 515.7 L458.8 513.8 Q458.8 510.5 460.75 507.6 463.5 503.5 469.0 503.5 475.55 503.5 478.5 508.95 M439.0 513.7 Q439.0 529.5 424.15 529.5 414.2 529.5 409.45 519.2 407.95 515.95 407.2 512.1 L406.7 508.85 Q406.7 502.75 409.45 497.9 413.9 490.05 424.15 490.05 435.7 490.05 438.5 501.45 439.9 507.25 439.0 513.7 M810.2 140.65 Q806.0 133.95 800.55 128.1 781.65 107.9 757.45 107.9 742.25 107.9 720.4 119.05 705.45 126.7 695.05 134.85 L692.55 137.0 695.3 141.7 Q702.75 153.5 711.95 158.4 716.55 160.85 722.7 163.55 724.05 160.4 725.85 157.6 734.15 144.9 748.25 144.9 758.7 144.9 765.25 152.35 785.75 154.75 803.65 177.0 L805.5 174.75 Q808.25 171.25 810.2 167.3 812.0 163.65 813.2 159.6 814.8 154.0 814.8 149.7 814.8 148.35 811.25 142.35 L810.2 140.65 M814.4 124.65 Q820.25 131.55 823.95 138.1 827.6 144.6 827.6 148.05 827.6 153.85 824.95 162.5 821.65 173.2 815.8 182.05 L811.5 187.95 Q815.65 194.35 819.65 201.95 828.8 219.25 835.15 238.9 840.4 255.25 840.4 261.25 L840.4 278.7 Q839.55 292.45 834.7 302.6 827.15 318.4 810.2 326.0 794.75 332.85 771.5 332.85 724.75 332.85 700.95 295.5 692.85 282.8 688.55 267.3 685.4 256.05 685.4 249.25 685.4 244.25 687.8 232.15 691.4 214.05 698.05 198.95 704.05 185.3 711.8 175.65 693.65 167.1 679.5 159.5 L678.7 161.8 Q669.6 189.1 668.95 193.25 668.45 196.3 668.6 201.7 L668.9 216.7 Q668.9 225.95 671.45 240.8 675.5 264.45 684.15 283.8 710.65 343.2 770.25 343.2 790.7 343.2 810.2 332.55 817.85 328.35 825.35 322.55 847.6 305.35 866.8 275.3 882.45 250.85 892.9 223.45 902.0 199.7 902.0 189.05 902.0 156.6 884.85 137.85 863.0 114.0 810.2 104.8 L798.3 102.95 786.35 103.5 Q798.05 107.15 810.2 120.0 L814.4 124.65 M738.1 65.55 Q733.4 78.35 728.3 78.35 721.15 78.35 719.05 73.3 718.3 71.55 718.3 67.5 718.3 64.35 720.0 61.1 722.75 55.8 728.6 55.8 733.9 55.8 736.5 60.55 737.85 62.9 738.1 65.55 M685.1 146.2 Q691.1 149.35 697.5 152.35 693.85 149.75 688.45 141.4 686.55 143.65 685.1 146.2 M741.85 189.05 L741.25 188.8 741.1 188.9 740.65 189.35 740.75 189.4 741.85 189.05 M794.6 201.6 Q784.35 206.65 771.65 206.65 753.6 206.65 741.55 201.6 733.1 207.2 726.15 216.7 719.95 225.15 716.2 235.15 713.05 243.65 713.05 249.0 713.05 254.15 715.45 262.1 718.85 273.15 725.3 282.2 744.25 308.65 782.5 308.65 794.3 308.65 801.05 290.4 803.2 284.6 804.5 277.7 805.45 272.85 805.45 271.55 805.45 267.5 804.1 262.7 L803.0 265.25 Q800.25 270.3 794.0 270.7 L794.9 272.15 Q796.65 275.5 796.8 279.1 796.8 284.3 793.45 290.7 788.4 300.4 778.8 300.4 762.0 300.4 752.0 284.9 750.25 282.15 748.85 279.15 746.95 280.75 743.85 280.75 738.6 280.75 737.0 277.5 L736.45 273.9 Q736.45 271.4 737.85 269.3 739.8 266.3 743.85 266.3 L744.85 266.35 744.7 264.4 Q744.7 254.35 750.8 245.55 760.95 230.85 784.3 230.85 801.7 230.85 810.2 250.9 L810.75 252.2 Q815.0 262.9 815.65 273.9 815.65 277.45 812.45 288.55 L810.2 296.05 808.5 300.95 808.75 301.25 810.2 299.0 Q813.3 293.25 817.5 278.3 822.35 261.15 822.35 256.95 822.35 245.05 820.7 238.55 819.7 234.5 817.1 231.3 814.95 228.7 810.2 224.7 L808.5 223.3 Q804.75 220.3 801.9 214.45 L797.05 204.75 794.6 201.6 M782.2 240.45 Q765.7 240.45 758.35 252.15 754.15 258.8 754.15 264.8 754.15 267.2 755.6 271.45 757.3 276.45 760.0 280.75 767.35 292.6 777.7 292.6 784.3 292.6 787.2 286.2 788.1 284.2 788.55 281.75 L788.8 279.5 Q788.8 278.1 787.45 275.8 786.05 273.45 784.95 273.45 778.7 273.45 777.9 275.5 777.45 276.6 778.25 278.55 L778.25 279.1 Q779.05 278.85 779.9 276.35 780.45 277.2 780.45 280.05 780.45 282.95 779.9 284.6 779.7 284.6 779.1 285.3 778.45 286.0 776.85 286.0 772.0 286.0 770.8 281.9 L770.55 277.45 Q770.55 265.5 783.2 265.5 L784.35 265.55 783.35 263.6 Q782.35 261.35 781.85 258.65 L781.55 256.3 Q781.55 254.15 784.3 250.55 787.9 245.85 792.95 245.85 L795.6 246.25 Q790.1 240.45 782.2 240.45 M741.4 222.45 Q740.55 228.8 735.05 228.8 731.25 228.8 729.7 225.8 728.85 224.15 728.85 222.45 728.85 220.4 729.95 218.35 731.6 215.3 735.05 215.3 741.4 215.3 741.4 222.45 M671.25 321.2 Q671.25 323.9 669.7 326.15 667.5 329.3 663.15 329.3 657.55 329.3 655.75 325.15 655.15 323.8 655.05 322.15 L655.05 320.65 Q655.05 318.05 656.55 315.75 658.75 312.4 663.15 312.4 668.15 312.4 670.2 316.65 671.2 318.8 671.25 321.2 M715.55 364.35 L715.25 366.4 Q713.6 367.25 712.25 367.5 708.95 365.0 708.95 364.1 708.95 362.4 710.55 361.55 711.35 361.1 712.25 360.9 715.55 363.75 715.55 364.35 M766.2 387.1 Q766.4 401.45 767.0 415.45 L774.1 423.05 775.65 392.2 774.4 392.25 Q768.2 392.25 766.4 387.75 L766.2 387.1 M742.75 364.35 Q747.0 377.0 752.5 401.4 L753.6 401.35 Q755.35 402.05 755.8 403.55 L755.2 403.65 759.35 407.1 Q759.2 398.65 759.5 390.05 760.0 376.6 761.55 367.35 751.8 366.5 742.75 364.35 M789.4 376.45 Q792.05 373.7 796.25 373.7 801.95 373.7 804.4 378.4 805.65 380.8 805.75 383.35 805.75 386.65 803.85 389.15 801.45 392.25 796.8 392.25 789.7 392.25 787.75 387.2 787.15 385.65 787.15 381.4 787.15 378.8 789.4 376.45 M810.2 427.75 Q805.3 433.8 796.8 433.8 786.2 433.8 782.15 426.0 780.85 423.5 780.4 420.5 L780.15 417.85 Q780.15 412.55 783.8 407.55 788.85 400.5 798.45 400.5 806.05 400.5 810.2 405.2 L812.35 408.35 Q814.45 412.25 814.55 416.45 814.55 421.6 811.0 426.7 L810.2 427.75 M732.2 440.55 Q730.1 441.9 727.5 441.9 722.45 441.9 720.7 438.65 L719.95 435.3 Q719.95 432.45 721.75 430.5 723.8 428.3 727.5 428.3 734.8 428.3 735.05 435.3 735.05 438.8 732.2 440.55 M751.55 472.85 Q742.15 465.7 728.75 465.7 712.75 465.7 699.8 485.9 695.5 492.6 692.35 500.3 689.8 506.45 689.8 507.9 689.8 515.4 696.45 522.6 705.1 531.95 719.95 531.95 731.5 531.95 736.95 525.1 740.3 520.9 740.3 517.0 740.3 513.4 736.95 508.8 L735.8 507.35 735.6 507.35 Q732.0 507.35 729.9 503.4 L726.8 502.95 Q723.2 502.95 721.7 507.2 720.95 509.35 720.9 511.75 720.9 513.45 723.05 515.85 725.25 518.35 728.6 520.3 728.35 520.65 728.35 522.1 728.05 523.45 726.4 523.45 719.15 523.45 716.1 517.55 715.1 515.7 714.7 513.4 L714.45 511.35 Q714.45 506.6 717.2 502.0 720.65 496.2 726.4 496.2 L728.15 496.25 Q728.35 495.0 729.15 494.0 730.5 492.35 732.85 492.35 738.1 492.35 738.9 498.7 L738.9 500.35 Q741.6 502.55 743.6 506.0 747.15 512.1 747.15 517.1 747.15 524.3 741.1 530.65 733.2 539.0 718.7 539.0 696.65 539.0 686.55 525.7 680.05 517.15 680.05 507.2 680.05 504.5 683.15 496.8 686.9 487.35 692.3 479.05 697.45 471.2 703.1 465.95 L702.35 465.95 Q694.95 465.95 691.8 460.2 690.8 458.35 690.35 456.2 L690.1 454.4 Q690.1 450.6 693.15 446.35 697.3 440.55 704.55 440.55 710.75 440.55 713.9 447.15 715.45 450.45 715.8 453.75 715.8 455.75 714.65 458.0 721.3 454.95 728.6 454.95 739.45 454.95 749.0 458.75 L743.4 429.0 Q732.05 420.45 718.3 420.45 689.15 420.45 673.45 441.1 668.25 447.9 665.3 456.1 L664.0 460.0 664.8 461.15 Q666.15 463.5 666.15 465.4 666.15 467.95 664.0 471.1 L663.6 471.65 Q664.15 476.45 665.3 482.45 668.35 497.95 674.25 510.65 691.7 548.05 727.35 548.05 744.95 548.05 756.15 537.35 751.65 535.55 749.7 531.45 748.25 528.5 748.25 521.95 748.25 517.35 751.4 512.6 753.95 508.85 757.8 507.05 L757.25 504.05 756.8 504.05 Q753.5 504.05 752.4 502.0 751.95 501.15 751.95 499.65 751.95 497.65 752.95 496.0 753.85 494.45 755.4 494.0 L751.55 472.85 M650.35 503.5 L651.8 512.5 Q653.35 518.55 657.35 521.5 L657.9 521.95 Q656.65 519.4 653.75 511.4 651.3 504.5 650.35 503.35 L650.35 503.5" fill="#000000" fill-opacity="0.3019608" fill-rule="evenodd" stroke="none"/>
  </g>
  <defs>
    <linearGradient gradientTransform="matrix(-0.0149, -0.3694, 0.5047, -0.0204, 402.85, 287.4)" gradientUnits="userSpaceOnUse" id="gradient0" spreadMethod="pad" x1="-819.2" x2="819.2">
      <stop offset="0.0" stop-color="#353825"/>
      <stop offset="1.0" stop-color="#000000"/>
    </linearGradient>
  </defs>
</svg>
