<?xml version="1.0" encoding="UTF-8" standalone="no"?>
<svg xmlns:ffdec="https://www.free-decompiler.com/flash" xmlns:xlink="http://www.w3.org/1999/xlink" ffdec:objectType="shape" height="490.1px" width="444.15px" xmlns="http://www.w3.org/2000/svg">
  <g transform="matrix(1.0, 0.0, 0.0, 1.0, -30.8, -44.7)">
    <path d="M325.05 132.85 Q324.0 135.1 322.4 135.1 318.6 135.1 317.55 133.25 317.2 132.7 317.2 131.2 317.2 130.15 318.4 128.25 319.95 125.7 322.0 125.7 326.2 125.7 325.9 130.1 325.9 131.15 325.05 132.85 M357.2 159.1 Q354.1 170.25 350.1 174.8 L350.1 175.65 Q350.1 179.05 340.65 196.65 L340.65 196.8 Q345.1 194.75 347.4 194.75 351.85 194.75 354.6 197.25 L355.55 197.25 Q360.0 197.25 362.6 199.3 362.6 197.05 364.05 194.95 365.95 192.25 369.5 192.25 373.7 192.25 375.55 195.75 376.5 197.55 376.6 199.55 376.6 200.95 375.3 203.2 373.65 206.2 371.2 206.2 367.9 206.2 365.9 205.15 366.55 208.35 366.0 211.55 366.0 214.9 363.45 217.55 360.55 220.35 356.0 220.35 354.35 220.35 352.9 219.8 352.65 221.65 351.35 223.5 355.3 224.65 357.0 227.85 359.15 228.9 359.5 232.05 359.5 233.6 358.5 235.15 357.8 236.2 356.95 236.75 L350.7 249.95 Q351.35 253.5 350.1 257.9 354.25 252.95 359.7 252.95 363.2 252.95 365.65 254.8 L366.35 253.75 364.65 252.1 364.1 250.15 364.05 249.1 Q364.05 247.5 365.35 245.8 366.9 243.75 369.5 243.75 373.05 243.75 374.7 246.2 375.4 247.25 375.65 248.35 L376.15 248.35 Q385.1 248.35 388.6 255.05 389.85 257.4 390.3 260.15 L396.9 256.85 403.15 253.75 403.85 252.35 Q405.65 249.55 409.75 249.55 L411.55 249.7 Q418.9 246.2 422.2 245.0 L413.35 250.2 Q415.4 251.1 416.45 253.15 417.45 255.0 417.45 256.85 417.45 259.3 415.9 261.25 413.85 263.8 409.75 263.8 405.15 263.8 403.5 260.4 402.6 258.75 402.6 256.65 L402.65 255.8 397.35 258.35 390.45 261.7 390.5 263.25 Q390.5 268.25 385.8 271.65 380.8 275.25 372.85 275.25 367.35 275.25 364.6 272.45 360.7 276.6 360.7 276.9 360.7 277.45 362.0 280.0 363.2 282.55 363.2 283.75 363.2 286.45 361.45 289.2 360.05 291.45 356.3 295.45 359.25 299.0 360.15 300.5 361.35 302.4 361.35 304.3 361.35 308.15 357.05 312.95 351.25 318.55 348.25 321.9 L347.8 322.3 Q348.85 322.0 352.35 318.1 356.35 314.45 360.5 314.45 366.4 314.45 368.75 319.05 369.9 321.4 369.95 323.95 369.95 325.9 367.95 329.8 369.4 330.5 373.3 333.5 376.0 332.3 379.3 332.3 380.4 332.3 382.85 333.2 385.2 334.05 386.3 334.05 L388.7 332.4 387.85 331.45 Q387.25 330.35 387.25 328.9 387.25 327.5 388.45 326.15 389.8 324.7 391.65 324.7 394.55 324.7 395.4 327.2 L398.6 324.7 400.35 323.35 400.15 321.25 Q400.15 320.35 401.0 319.4 401.95 318.35 403.2 318.35 405.0 318.35 405.95 319.1 406.95 318.35 407.85 317.75 406.15 317.3 405.45 316.1 405.1 315.45 405.1 314.05 405.1 312.65 405.95 311.55 406.95 310.1 408.9 310.1 411.65 310.1 412.8 312.0 413.4 312.85 413.4 313.75 L416.3 312.0 417.7 312.35 Q418.3 312.65 418.3 313.95 L389.85 338.25 389.85 338.35 390.15 338.85 Q391.05 340.75 391.25 342.75 L391.45 343.7 392.45 343.55 Q396.4 343.55 396.6 347.7 396.6 348.85 395.75 350.1 394.6 351.75 392.45 351.75 390.65 351.75 389.6 350.8 L389.05 351.75 Q386.95 355.15 383.6 356.7 L381.6 359.3 381.55 359.75 Q381.75 359.6 384.5 358.4 386.4 357.5 387.6 357.5 392.25 357.5 393.1 361.7 L394.75 363.4 Q396.35 362.85 398.25 362.85 401.65 362.85 403.6 364.95 404.1 361.75 405.95 358.55 409.8 352.0 417.9 352.0 425.95 352.0 428.75 358.8 430.15 362.25 429.95 366.15 429.95 370.9 428.2 374.7 425.05 381.55 417.15 381.9 L417.15 382.95 Q417.15 386.3 414.9 389.45 415.5 391.15 415.5 393.6 415.5 395.0 414.3 397.2 L412.95 399.05 413.85 400.15 Q415.2 402.15 415.2 404.25 415.2 410.0 403.05 418.75 408.15 421.4 410.3 428.05 412.2 433.7 411.55 439.7 L411.55 442.25 411.55 443.85 411.65 446.25 411.45 448.1 Q413.4 449.6 414.45 452.3 415.75 455.35 415.65 458.65 415.65 462.55 413.85 465.8 411.25 470.5 405.55 470.5 399.3 470.5 396.2 464.95 395.4 463.5 394.9 461.75 386.4 461.2 380.8 448.95 379.05 444.95 377.8 440.25 L375.9 441.75 Q365.65 449.95 360.5 449.95 357.3 449.95 353.5 447.35 350.25 444.65 349.85 444.65 349.35 444.65 334.6 453.6 327.0 458.2 322.6 460.35 323.3 462.85 323.0 465.2 323.0 469.05 320.1 473.5 316.15 479.5 309.65 479.5 306.6 479.5 304.4 478.15 L286.75 495.85 Q284.8 495.85 283.85 495.0 L283.85 496.65 Q283.85 500.6 281.3 504.75 277.65 510.6 271.15 510.6 264.7 510.6 261.95 504.75 261.05 502.85 260.7 500.6 L260.45 498.65 Q260.45 495.3 263.4 491.6 267.15 486.85 273.2 486.85 280.4 486.85 282.85 491.7 L282.9 491.8 Q283.45 490.8 286.75 486.65 L292.45 479.8 291.5 479.5 Q291.05 479.1 291.05 477.05 291.05 476.1 291.85 475.15 292.8 474.15 294.05 474.15 295.9 474.15 296.85 474.85 L299.85 471.65 Q299.0 469.2 299.0 466.6 299.0 462.6 302.1 458.55 304.0 456.05 306.5 454.75 L305.85 452.85 305.45 450.8 Q283.85 464.95 278.55 464.95 272.5 464.95 268.55 460.75 265.05 457.15 265.4 453.7 L265.25 452.65 238.95 471.0 239.2 473.9 Q239.2 478.9 226.5 489.4 L215.95 497.7 Q209.95 502.35 207.55 504.7 200.35 512.0 192.25 518.35 177.25 529.95 168.65 529.95 L164.15 532.4 Q160.0 534.8 158.75 534.8 151.6 534.8 149.65 528.35 148.65 524.85 149.15 521.25 L149.4 520.8 144.1 521.6 Q138.05 521.6 135.55 516.65 134.8 515.05 134.45 513.2 L134.3 511.65 Q134.3 506.4 139.55 502.45 131.8 499.65 131.8 492.6 131.8 489.35 133.45 487.5 L141.0 480.55 141.2 480.3 Q137.9 479.65 137.9 477.15 137.9 476.55 141.65 473.4 L141.65 472.85 Q141.65 469.55 147.5 462.1 152.95 455.1 156.8 452.65 L156.8 452.2 147.0 460.5 Q138.3 467.15 133.25 467.15 L131.75 467.15 131.55 467.45 Q129.6 470.9 126.85 470.9 118.65 470.9 114.75 464.55 113.5 462.45 112.85 460.05 L112.45 457.8 Q112.45 455.65 115.95 451.0 120.2 445.5 124.4 445.5 129.3 445.5 131.7 452.3 136.65 446.8 145.7 438.05 160.7 423.5 166.5 418.6 161.45 416.55 157.7 414.6 154.55 416.6 150.15 416.6 L146.4 416.3 Q137.6 415.45 132.4 408.45 128.5 403.25 128.5 398.45 128.5 397.6 129.95 394.45 131.7 390.75 134.0 387.45 136.2 384.25 138.35 382.1 L139.0 380.65 Q136.3 380.05 135.25 377.85 134.8 376.85 134.7 375.65 L134.7 374.7 Q134.7 373.0 135.9 371.1 137.8 368.2 141.65 368.2 L142.3 368.25 Q139.95 367.25 138.55 365.2 136.85 362.8 136.85 359.85 136.85 353.8 139.6 349.2 L141.25 346.75 Q141.55 345.0 142.65 343.4 L144.35 341.8 146.9 336.95 Q142.45 335.8 141.0 333.7 140.15 332.55 140.15 330.35 140.15 329.55 147.5 317.1 L153.45 307.25 Q147.3 310.4 140.8 310.4 139.2 310.4 136.45 308.85 L133.9 307.3 Q133.05 307.3 122.4 310.75 111.7 314.2 108.85 314.2 102.65 314.2 99.95 308.75 99.0 307.05 98.5 304.7 L98.0 302.35 Q97.3 300.3 95.55 298.35 L94.4 299.05 Q96.5 299.85 96.3 302.75 94.8 307.5 92.85 307.5 89.05 307.5 87.9 305.5 L87.55 303.6 Q83.05 306.4 77.45 309.95 L77.45 310.0 77.05 310.15 76.0 310.8 Q50.15 326.8 43.0 330.25 L42.55 330.05 Q42.4 329.95 42.4 328.7 42.4 326.55 68.0 310.6 L71.9 308.2 71.9 308.15 71.95 306.9 72.35 306.25 74.75 305.85 75.6 306.0 Q84.9 300.3 92.65 295.8 90.6 294.3 89.65 292.85 89.4 294.2 88.45 295.45 86.95 297.5 84.3 297.5 80.6 297.5 79.3 294.8 L78.65 291.75 Q78.65 290.0 79.95 288.45 81.5 286.45 84.3 286.45 87.8 286.45 89.05 289.05 90.9 280.8 112.2 261.6 L119.0 255.5 Q119.75 253.25 122.4 249.95 118.45 247.15 117.3 245.65 116.6 244.7 116.35 243.2 L113.7 243.35 Q110.5 243.35 107.5 241.6 L106.75 244.15 Q103.95 251.65 95.75 251.65 87.0 251.65 83.45 244.75 82.35 242.55 81.85 239.85 81.55 238.35 81.55 237.35 81.55 233.35 84.45 229.4 88.45 223.95 95.75 223.95 L98.45 224.2 99.75 221.85 Q103.6 216.1 111.25 216.1 111.8 216.1 114.35 217.2 116.85 218.3 117.4 218.3 L119.95 216.95 Q122.2 215.65 124.4 215.65 128.0 215.65 130.25 217.9 L131.7 219.5 131.9 219.65 132.85 218.6 Q138.05 212.8 142.5 208.65 140.5 201.5 137.15 198.55 L136.75 198.2 Q135.35 204.75 131.0 204.75 124.85 204.75 122.85 201.25 122.2 200.15 122.1 198.8 L122.1 197.55 Q122.1 195.55 123.4 193.5 124.9 191.05 127.75 190.55 L127.65 190.2 Q127.65 187.95 128.9 186.0 129.6 185.0 130.5 184.25 L127.65 184.5 Q120.25 184.5 117.6 178.1 116.4 175.15 116.4 170.8 116.4 159.1 128.5 159.1 136.05 159.1 138.75 165.0 L139.4 166.75 Q141.7 159.65 143.5 154.9 131.1 148.75 128.4 146.95 126.35 145.6 125.55 144.15 124.8 142.7 124.8 140.15 124.8 137.6 126.3 135.35 128.55 131.8 133.7 131.65 132.95 129.75 132.65 127.55 L132.4 125.4 Q132.4 121.35 135.15 117.05 139.35 110.3 148.1 110.3 154.0 110.3 155.95 115.3 156.85 117.5 156.85 119.95 163.15 109.3 170.85 107.3 173.35 105.15 175.25 105.15 L176.05 105.2 186.55 92.2 Q189.2 88.95 191.6 86.45 L191.65 86.35 Q194.25 82.35 198.1 80.4 L198.15 80.4 Q200.0 76.65 205.2 76.65 L210.1 77.5 215.0 78.4 220.1 77.1 Q224.8 75.85 227.7 75.85 240.45 75.85 251.15 78.2 252.55 75.9 252.55 74.75 252.55 74.25 251.0 70.5 249.45 66.75 249.45 64.95 249.45 62.65 250.9 60.6 252.85 57.95 256.45 57.95 258.55 57.95 267.7 64.25 277.55 70.95 280.25 75.2 L284.85 83.1 Q288.75 75.85 296.55 75.85 303.65 75.85 307.25 81.3 309.1 84.05 309.45 87.1 309.45 94.5 307.15 98.45 305.0 101.95 301.0 103.7 303.3 107.3 305.55 112.05 L306.35 111.9 Q310.05 111.9 311.5 114.05 L311.3 113.4 Q311.3 112.0 312.35 110.9 313.5 109.85 315.05 109.85 317.5 109.85 318.4 112.05 L318.8 111.75 Q320.95 113.8 320.95 114.35 320.95 115.35 320.45 115.9 319.95 116.45 317.95 117.45 L315.9 117.15 315.65 117.05 315.4 117.05 Q313.45 117.05 312.2 115.3 L312.0 114.95 312.35 117.15 Q312.35 119.0 311.15 120.55 L309.85 121.7 312.0 127.3 Q318.0 143.6 321.85 159.95 L322.3 161.9 322.4 162.35 322.4 162.65 322.4 163.05 Q322.4 166.4 316.95 176.75 L318.15 178.7 Q324.75 172.95 325.85 172.15 L331.85 167.75 331.9 165.65 Q331.9 161.2 335.1 156.2 339.6 149.3 347.4 149.3 352.7 149.3 355.5 154.15 356.85 156.6 357.2 159.1 M363.05 167.45 Q365.1 164.4 369.5 164.4 373.8 164.4 375.3 168.0 376.05 169.85 375.9 171.9 375.9 174.05 374.3 176.4 372.2 179.55 368.75 179.55 363.85 179.55 362.2 176.1 361.7 174.95 361.6 173.65 L361.55 172.4 Q361.55 169.65 363.05 167.45 M409.35 239.05 Q410.7 237.75 412.2 237.75 415.85 237.75 416.3 241.85 415.4 246.65 413.4 246.65 409.35 246.65 408.35 244.3 408.0 243.6 408.0 242.65 L408.05 241.75 Q408.05 240.3 409.35 239.05 M427.85 267.3 Q428.85 267.8 429.5 269.0 428.8 270.15 427.85 270.6 L426.15 269.6 Q426.15 267.95 427.85 267.3 M442.1 262.55 Q442.1 263.8 441.7 263.7 L440.3 263.35 Q439.6 262.85 439.6 261.6 L441.25 261.4 441.65 261.2 Q442.1 261.25 442.1 262.55 M418.1 279.75 Q418.1 281.35 417.15 282.55 415.95 283.9 413.85 283.9 410.95 283.9 409.95 281.95 409.5 281.15 409.5 279.8 409.5 278.2 410.55 276.85 411.8 275.25 413.85 275.25 417.8 275.25 418.1 279.75 M392.45 218.15 Q392.45 219.85 391.25 221.85 389.4 224.7 385.95 224.7 380.55 224.7 378.45 221.05 377.75 219.85 377.5 218.45 L377.35 217.3 Q377.35 214.95 378.85 212.95 380.8 210.35 384.35 210.35 389.1 210.35 391.25 214.15 392.35 216.0 392.45 218.15 M365.95 231.45 Q365.0 232.7 364.25 232.7 360.25 232.7 359.3 230.85 L359.1 228.8 Q359.1 227.5 359.95 226.4 361.05 224.95 363.0 224.95 367.05 224.95 366.85 228.95 366.85 230.15 365.95 231.45 M395.2 244.15 Q395.2 244.6 395.95 247.05 394.95 247.65 393.3 247.9 L391.95 247.5 Q391.5 247.25 391.5 245.9 391.5 244.6 392.65 244.3 L395.2 244.15 M358.9 242.7 Q361.8 242.7 362.15 245.9 362.15 246.8 361.35 248.1 360.5 249.35 359.95 249.35 357.5 249.35 356.3 247.85 355.55 246.95 355.55 246.0 355.55 244.55 356.8 243.55 357.9 242.7 358.9 242.7 M404.35 270.4 Q405.3 272.5 405.15 274.85 405.15 277.8 403.6 279.95 401.45 283.1 396.6 283.1 392.1 283.1 390.15 278.75 389.5 277.35 389.2 275.7 L389.05 274.1 Q389.05 271.95 390.3 269.85 392.45 266.1 397.4 266.1 402.55 266.1 404.35 270.4 M380.7 283.85 Q380.7 280.0 384.7 280.0 389.2 280.0 388.85 283.85 388.85 287.25 384.6 287.25 381.55 287.25 380.8 285.65 L380.7 283.85 M400.3 292.1 Q405.3 292.1 405.5 296.85 405.5 298.6 404.45 299.95 403.05 301.65 400.7 301.65 397.1 301.65 395.75 299.4 395.2 298.3 395.2 296.85 395.2 292.1 400.3 292.1 M386.8 315.8 Q386.8 320.4 381.7 320.4 378.5 320.4 377.45 317.95 L377.0 315.45 Q377.0 314.1 377.6 313.0 378.8 310.8 381.85 310.8 385.35 310.8 386.4 313.15 386.95 314.4 386.8 315.8 M409.5 345.85 L409.4 346.3 Q409.3 346.75 408.05 346.75 406.4 346.75 405.1 346.1 404.75 345.95 404.75 343.9 404.75 342.95 405.1 341.75 L405.55 341.45 Q406.0 341.1 407.25 341.1 409.75 341.1 409.75 344.0 L409.5 345.85 M422.2 336.95 Q421.8 336.4 421.8 334.75 L423.25 334.5 423.6 334.35 Q423.9 334.45 423.9 335.7 L423.8 336.9 423.25 336.95 422.2 336.95 M422.2 386.2 Q422.2 382.35 426.6 382.35 431.1 382.35 430.8 386.4 430.8 387.6 429.85 388.85 428.95 390.15 428.2 390.15 423.6 390.15 422.45 388.25 422.1 387.7 422.1 386.9 L422.2 386.2 M442.7 370.35 Q442.7 365.9 446.6 365.9 450.55 365.9 451.15 370.7 451.15 372.05 450.4 373.15 449.45 374.5 447.9 374.5 443.95 374.5 442.95 372.45 L442.7 370.35 M458.35 391.75 Q459.75 393.95 459.75 396.1 459.75 398.75 457.45 401.55 454.45 405.3 449.1 405.3 443.65 405.3 441.65 401.8 441.05 400.6 440.8 399.2 L440.7 398.0 Q440.7 395.0 442.1 392.4 444.45 387.8 449.95 387.8 455.8 387.8 458.35 391.75 M313.35 104.35 Q313.35 98.85 318.8 98.85 322.25 98.85 323.45 101.55 324.1 102.95 324.05 104.5 324.05 110.3 318.8 110.3 315.0 110.3 313.8 107.45 L313.35 104.35 M133.45 95.95 Q137.6 95.95 139.15 99.1 140.0 100.75 140.0 102.55 140.0 103.9 138.7 106.2 137.15 109.1 135.15 109.1 129.6 109.1 127.65 105.75 127.05 104.75 126.9 103.5 L126.85 102.45 Q126.85 100.35 128.35 98.45 130.25 95.95 133.45 95.95 M120.7 130.15 Q120.7 131.95 119.5 133.9 117.6 136.75 113.7 136.75 109.8 136.75 108.25 133.7 107.4 132.1 107.4 130.25 107.4 128.15 108.85 126.35 110.7 124.05 113.7 124.05 117.85 124.05 119.7 126.95 120.6 128.45 120.7 130.15 M99.0 179.3 Q100.05 177.7 102.2 177.7 105.35 177.7 105.8 181.2 105.35 184.7 102.2 184.7 100.05 184.7 99.0 183.1 98.3 182.1 98.3 181.2 98.3 180.35 99.0 179.3 M105.35 193.65 L105.35 192.55 Q105.35 190.45 107.05 188.55 109.2 186.05 112.85 186.05 116.4 186.05 117.85 188.8 118.65 190.3 118.65 191.75 118.65 193.4 117.25 195.8 115.55 198.7 113.5 198.7 107.75 198.7 106.0 195.75 105.45 194.8 105.35 193.65 M134.25 182.95 L134.8 182.9 134.9 182.55 134.25 182.95 M70.3 214.8 Q69.7 213.65 69.7 212.35 69.75 211.1 70.3 209.95 71.45 207.65 74.35 207.65 79.95 207.65 79.7 212.25 79.7 214.25 78.3 215.65 76.75 217.1 74.35 217.1 71.45 217.1 70.3 214.8 M62.35 307.1 L61.2 307.95 Q58.0 307.55 58.0 304.9 58.0 303.65 59.2 303.0 60.45 302.65 60.4 302.5 62.85 304.45 62.85 305.15 62.85 306.4 62.35 307.1 M56.05 315.0 L56.3 316.6 Q56.3 317.15 55.5 318.15 54.45 319.35 53.05 319.85 L51.05 318.05 Q50.6 317.6 50.6 316.95 50.6 315.2 53.5 314.05 L55.75 314.45 56.05 315.0 M68.85 329.65 Q64.5 329.65 64.5 326.3 64.5 322.5 67.8 322.5 71.55 322.5 71.65 326.2 71.65 327.35 70.9 328.4 70.1 329.65 68.85 329.65 M131.0 341.9 Q135.45 341.9 137.3 345.7 138.25 347.6 138.3 349.6 138.3 352.2 137.15 354.2 134.8 358.15 128.65 358.15 124.55 358.15 123.35 355.1 122.95 354.15 122.9 353.0 L122.9 351.85 Q122.9 348.65 124.15 346.1 126.2 341.9 131.0 341.9 M82.0 313.95 Q82.0 312.65 83.0 311.25 84.4 309.35 86.75 309.35 90.8 309.35 91.35 314.05 90.45 318.8 87.9 318.8 83.65 318.8 82.4 316.5 82.0 315.7 81.95 314.85 L82.0 313.95 M117.8 364.7 Q117.8 359.15 122.75 359.15 125.65 359.15 127.25 362.0 128.05 363.4 128.3 364.8 128.3 366.1 127.5 367.6 126.3 369.85 123.95 369.85 119.55 369.85 118.25 367.35 117.85 366.6 117.8 365.65 L117.8 364.7 M97.25 385.35 L97.15 384.0 Q97.15 381.65 99.15 379.05 101.65 375.7 105.55 375.7 110.15 375.7 111.85 379.35 112.75 381.15 112.7 383.2 112.7 385.2 110.8 388.0 108.35 391.75 104.7 391.75 99.95 391.75 98.05 388.0 97.5 386.8 97.25 385.35 M144.4 368.85 L145.65 369.75 145.95 369.2 146.05 369.05 144.4 368.85 M295.65 492.9 Q296.55 492.1 296.55 491.4 299.0 492.5 299.0 494.45 L298.6 495.5 298.2 496.0 Q295.65 496.0 294.4 494.3 294.55 493.9 295.65 492.9 M303.4 487.9 Q303.4 486.5 304.25 485.45 305.25 483.95 307.2 483.95 311.3 483.95 311.15 488.1 311.15 489.3 310.1 490.55 309.1 491.8 308.4 491.8 304.5 491.8 303.55 489.95 L303.4 487.9 M236.35 489.4 Q238.75 486.45 242.9 486.45 250.25 486.45 251.3 494.45 251.3 496.9 249.45 499.3 246.9 502.65 242.5 502.65 237.5 502.65 235.45 498.55 234.85 497.25 234.55 495.7 L234.45 494.3 Q234.45 491.7 236.35 489.4 M101.45 443.45 Q105.65 443.45 105.8 447.8 105.8 449.3 104.55 450.55 103.3 452.0 101.45 452.0 98.55 452.0 97.6 449.9 97.15 449.0 97.15 447.55 97.15 446.05 98.1 444.9 99.2 443.45 101.45 443.45 M104.55 466.6 Q103.15 469.05 101.2 469.05 94.1 469.05 94.1 463.25 94.1 461.5 95.55 459.7 97.25 457.6 99.75 457.6 105.0 457.6 105.8 463.15 105.8 464.65 104.55 466.6 M85.1 467.85 Q90.05 467.85 89.95 472.3 89.95 473.45 88.9 475.0 87.8 476.8 86.35 476.8 82.55 476.8 81.15 474.75 80.55 473.8 80.55 472.4 80.55 470.7 81.85 469.3 83.15 467.85 85.1 467.85 M439.1 441.75 Q440.1 443.6 440.3 445.5 440.3 451.2 432.8 451.2 428.95 451.2 427.8 447.8 L427.45 444.35 Q427.45 442.2 429.05 440.4 430.9 438.25 433.5 438.25 437.25 438.25 439.1 441.75 M430.3 461.05 Q431.8 459.05 434.35 459.05 439.6 459.05 440.3 464.95 440.3 466.55 439.3 468.0 437.9 470.05 435.2 470.05 432.1 470.05 430.35 467.25 429.15 465.3 429.15 464.1 429.15 462.55 430.3 461.05 M409.55 476.1 L409.5 474.85 Q409.5 472.85 410.8 470.95 412.65 468.0 416.3 468.0 420.25 468.0 422.0 471.2 422.95 472.75 423.05 474.5 423.05 482.0 416.25 482.0 411.7 482.0 410.2 478.55 409.7 477.4 409.55 476.1 M441.65 475.95 Q447.05 475.95 446.85 480.65 446.85 482.0 445.65 483.45 444.4 485.0 442.95 485.0 437.25 485.0 437.25 480.55 437.25 478.85 438.55 477.45 439.85 475.95 441.65 475.95 M445.0 468.95 Q445.0 467.05 445.85 465.55 447.1 463.25 449.95 463.25 453.2 463.25 454.3 466.05 454.85 467.4 454.8 468.95 454.8 470.4 454.0 471.8 452.75 474.0 449.95 474.0 446.15 474.0 445.2 471.65 L445.0 468.95 M453.95 487.8 Q453.95 485.4 456.85 485.4 L459.3 485.75 459.65 486.4 Q459.95 486.8 459.95 488.0 459.95 490.35 456.85 490.35 L454.35 489.95 Q453.95 489.85 453.95 487.8 M468.55 487.05 Q469.9 485.75 471.2 485.75 475.0 485.75 474.95 489.95 474.95 491.1 474.35 492.4 473.55 494.05 472.5 494.05 467.25 494.05 467.25 489.5 467.25 488.35 468.55 487.05 M336.75 486.35 Q337.7 487.85 337.75 489.5 337.75 491.35 336.4 493.3 334.55 495.75 331.6 495.75 326.4 495.75 324.75 492.8 324.2 491.85 324.05 490.75 L324.05 489.6 Q324.05 487.85 324.9 486.25 326.45 483.3 330.25 483.3 334.85 483.3 336.75 486.35" fill="#000000" fill-opacity="0.39215687" fill-rule="evenodd" stroke="none"/>
    <path d="M345.6 145.85 Q342.5 157.05 338.5 161.55 L338.55 162.4 Q338.55 165.8 329.1 183.4 L329.1 183.6 Q333.55 181.55 335.8 181.55 340.3 181.55 343.05 184.05 L344.0 184.0 Q348.4 184.0 351.05 186.1 L351.05 186.05 Q351.05 183.75 352.45 181.75 354.35 179.05 358.0 179.05 362.1 179.05 363.95 182.55 364.9 184.25 365.0 186.3 365.0 187.75 363.7 189.95 362.05 192.95 359.6 192.95 356.35 192.95 354.3 191.9 355.0 195.1 354.4 198.35 354.4 201.7 351.85 204.25 348.95 207.15 344.4 207.15 L341.35 206.6 Q341.1 208.45 339.85 210.25 343.75 211.45 345.4 214.55 347.55 215.65 347.9 218.85 347.9 220.35 346.9 221.95 L345.35 223.5 339.1 236.75 Q339.85 240.3 338.55 244.65 342.75 239.7 348.15 239.7 351.65 239.7 354.1 241.55 L354.75 240.55 Q353.7 239.85 353.1 238.85 352.65 238.0 352.55 236.9 L352.45 235.9 Q352.45 234.25 353.75 232.6 355.3 230.5 358.0 230.5 361.45 230.5 363.1 233.0 363.85 234.05 364.05 235.15 L364.55 235.05 Q373.55 235.05 377.05 241.85 378.25 244.15 378.7 246.95 L385.35 243.6 391.55 240.55 392.3 239.15 Q394.15 236.3 398.15 236.3 L400.0 236.45 Q407.35 232.95 410.7 231.8 L401.75 236.95 Q403.85 237.9 404.9 239.9 405.9 241.75 405.95 243.65 405.95 246.1 404.35 248.0 402.25 250.55 398.15 250.55 393.6 250.55 391.9 247.15 391.0 245.55 391.0 243.45 L391.05 242.55 385.85 245.15 378.85 248.45 378.95 250.05 Q378.95 255.0 374.2 258.45 369.25 262.05 361.25 262.05 355.75 262.05 353.05 259.2 349.2 263.4 349.2 263.7 349.2 264.25 350.4 266.8 351.65 269.35 351.65 270.5 351.65 273.15 349.85 276.0 348.45 278.2 344.75 282.2 347.7 285.75 348.65 287.25 349.75 289.2 349.75 291.05 349.75 294.95 345.5 299.7 339.7 305.3 336.65 308.65 L336.25 309.1 Q337.25 308.75 340.8 304.9 344.8 301.25 348.95 301.25 354.8 301.25 357.15 305.85 358.3 308.15 358.4 310.7 358.4 312.65 356.35 316.6 357.8 317.25 361.7 320.25 364.4 319.05 367.8 319.05 368.85 319.05 371.25 319.95 373.7 320.85 374.7 320.85 L377.1 319.2 376.25 318.15 Q375.65 317.1 375.65 315.65 375.65 314.2 376.85 312.95 378.2 311.45 380.05 311.45 382.95 311.45 383.85 313.95 L387.0 311.5 388.8 310.15 Q388.55 309.55 388.55 308.05 388.55 307.15 389.4 306.2 390.35 305.15 391.65 305.15 393.45 305.15 394.35 305.85 L396.25 304.45 Q394.6 304.05 393.9 302.85 393.5 302.2 393.5 300.8 393.5 299.45 394.35 298.35 395.4 296.85 397.3 296.85 400.05 296.85 401.2 298.75 401.8 299.65 401.9 300.55 L404.75 298.75 406.1 299.15 Q406.7 299.4 406.7 300.7 406.7 301.15 378.3 324.95 L378.3 325.15 378.55 325.65 Q379.5 327.5 379.65 329.55 L379.9 330.5 380.9 330.35 Q384.85 330.35 385.0 334.5 385.0 335.65 384.2 336.85 383.05 338.5 380.9 338.5 379.05 338.5 378.05 337.6 L377.5 338.55 Q375.35 341.9 372.1 343.45 L370.0 346.1 369.95 346.45 372.9 345.15 Q374.8 344.3 376.05 344.3 380.65 344.3 381.55 348.5 382.45 349.2 383.15 350.15 384.8 349.6 386.65 349.6 390.05 349.6 392.1 351.75 392.5 348.55 394.35 345.35 398.2 338.75 406.35 338.75 414.35 338.75 417.15 345.5 418.6 349.0 418.4 352.9 418.4 357.7 416.7 361.45 413.45 368.35 405.55 368.7 L405.55 369.75 Q405.55 373.1 403.35 376.25 403.95 377.95 403.95 380.4 403.95 381.8 402.7 384.0 L401.45 385.85 402.25 386.95 Q403.6 388.95 403.6 391.05 403.6 396.8 391.45 405.5 396.6 408.15 398.75 414.85 400.6 420.45 400.05 426.5 L400.0 429.05 400.05 430.65 400.05 432.95 399.95 434.9 Q401.8 436.4 402.95 439.05 404.15 442.1 404.05 445.4 404.05 449.35 402.25 452.5 399.65 457.25 394.0 457.25 387.75 457.25 384.65 451.7 383.85 450.25 383.35 448.55 374.85 448.0 369.3 435.7 367.45 431.7 366.25 427.05 L364.35 428.55 Q354.1 436.7 348.95 436.7 345.75 436.7 341.9 434.1 L338.35 431.45 Q337.75 431.45 323.05 440.4 L311.05 447.15 Q311.75 449.6 311.4 452.0 311.4 455.8 308.55 460.25 304.55 466.3 298.1 466.3 295.0 466.3 292.8 464.9 L275.15 482.6 Q273.25 482.6 272.25 481.75 L272.25 483.45 Q272.25 487.4 269.7 491.55 266.1 497.35 259.55 497.35 253.15 497.35 250.4 491.5 249.5 489.6 249.1 487.4 L248.85 485.4 Q248.85 482.05 251.8 478.4 255.55 473.65 261.65 473.65 268.8 473.65 271.25 478.4 L271.3 478.6 275.15 473.4 280.9 466.6 279.9 466.3 Q279.5 465.85 279.5 463.75 279.5 462.85 280.3 461.9 281.25 460.9 282.5 460.9 284.35 460.9 285.3 461.65 L288.25 458.45 Q287.45 455.9 287.45 453.35 287.45 449.4 290.55 445.35 292.45 442.85 294.95 441.55 L294.25 439.6 293.9 437.55 Q272.25 451.7 267.05 451.7 260.9 451.7 256.95 447.55 253.5 443.95 253.85 440.45 L253.65 439.4 227.35 457.8 227.6 460.7 Q227.6 465.65 214.9 476.2 L204.35 484.45 Q198.35 489.15 195.95 491.45 188.75 498.75 180.65 505.1 165.65 516.7 157.15 516.7 156.85 516.7 152.6 519.15 148.4 521.6 147.15 521.6 140.05 521.6 138.1 515.05 137.1 511.6 137.6 508.0 L137.8 507.6 132.5 508.35 Q126.45 508.35 123.95 503.35 123.2 501.85 122.9 500.0 L122.7 498.4 Q122.7 493.2 128.0 489.25 120.25 486.4 120.25 479.4 120.25 476.1 121.9 474.25 L129.4 467.3 129.6 467.05 Q126.35 466.45 126.35 463.9 126.35 463.25 130.05 460.15 L130.05 459.65 Q130.05 456.3 135.9 448.85 141.35 441.9 145.2 439.4 L145.2 439.0 Q143.8 440.05 135.4 447.3 126.7 453.95 121.65 453.95 L120.15 453.9 120.05 454.2 Q118.05 457.7 115.3 457.7 107.05 457.7 103.15 451.3 101.95 449.25 101.25 446.8 100.9 445.2 100.9 444.55 100.9 442.45 104.45 437.75 108.6 432.3 112.8 432.3 117.7 432.3 120.1 439.05 125.1 433.6 134.15 424.8 149.1 410.25 154.9 405.35 149.85 403.3 146.1 401.35 143.0 403.35 138.65 403.35 L134.8 403.1 Q126.0 402.2 120.8 395.25 116.9 389.95 116.9 385.25 116.9 384.35 118.45 381.25 120.15 377.5 122.45 374.2 124.6 371.05 126.8 368.9 L127.4 367.45 Q124.7 366.85 123.65 364.55 123.2 363.65 123.15 362.45 L123.15 361.45 Q123.15 359.75 124.35 357.9 126.2 355.0 130.05 355.0 L130.8 355.0 Q128.35 354.05 126.95 352.0 125.3 349.55 125.3 346.6 125.3 340.55 128.0 336.0 L129.75 333.5 Q129.95 331.75 131.05 330.2 131.8 329.2 132.75 328.55 L135.3 323.75 Q130.85 322.55 129.4 320.5 128.55 319.35 128.55 317.1 128.55 316.3 135.9 303.9 L141.85 294.0 Q135.75 297.2 129.25 297.2 127.65 297.2 124.9 295.6 L122.3 294.05 Q121.5 294.05 110.8 297.55 100.1 301.0 97.25 301.0 91.15 301.0 88.35 295.5 87.45 293.8 86.9 291.5 L86.4 289.1 Q85.75 287.05 83.95 285.1 L82.85 285.85 Q84.9 286.65 84.8 289.55 83.2 294.3 81.25 294.3 77.5 294.3 76.3 292.2 L76.0 290.4 65.85 296.75 65.45 296.95 64.4 297.6 Q38.55 313.6 31.4 317.0 L31.0 316.8 Q30.8 316.75 30.8 315.45 30.8 313.25 56.45 297.4 L60.4 295.0 60.4 294.9 60.4 293.65 60.8 293.05 63.15 292.6 64.0 292.8 Q73.3 287.05 81.05 282.55 79.0 281.0 78.05 279.6 77.8 281.0 76.95 282.25 75.35 284.25 72.7 284.25 69.1 284.25 67.75 281.5 L67.05 278.55 Q67.05 276.75 68.35 275.15 69.9 273.15 72.7 273.15 76.2 273.15 77.5 275.85 79.3 267.55 100.6 248.35 L107.4 242.3 Q108.2 239.95 110.8 236.75 106.85 233.9 105.75 232.4 105.0 231.45 104.8 230.0 L102.1 230.1 Q98.95 230.1 95.9 228.4 L95.2 230.95 Q92.35 238.45 84.15 238.45 75.45 238.45 71.85 231.55 70.75 229.35 70.25 226.65 69.95 225.15 69.95 224.1 69.95 220.1 72.85 216.2 76.85 210.7 84.15 210.7 L86.85 211.0 Q87.4 209.85 88.2 208.65 92.1 202.8 99.65 202.8 100.25 202.8 102.75 203.95 L105.85 205.1 108.35 203.75 Q110.65 202.45 112.8 202.45 116.4 202.45 118.65 204.7 L120.1 206.3 120.3 206.45 121.25 205.35 Q126.45 199.55 130.9 195.4 128.9 188.3 125.55 185.35 L125.15 185.0 Q123.75 191.55 119.45 191.55 113.25 191.55 111.25 188.05 110.7 186.95 110.5 185.55 L110.5 184.25 Q110.5 182.25 111.8 180.25 113.3 177.8 116.15 177.35 L116.1 177.0 Q116.1 174.7 117.35 172.75 118.05 171.75 119.0 171.05 L116.1 171.3 Q108.7 171.3 106.05 164.9 104.85 161.95 104.85 157.55 104.85 145.85 116.9 145.85 124.45 145.85 127.15 151.75 L127.9 153.55 Q130.1 146.4 131.9 141.7 119.55 135.55 116.8 133.7 114.75 132.4 113.95 130.95 113.2 129.5 113.2 126.95 113.2 124.35 114.7 122.1 117.0 118.6 122.1 118.45 121.4 116.55 121.05 114.35 L120.8 112.2 Q120.8 108.1 123.55 103.8 127.8 97.05 136.55 97.05 142.45 97.05 144.4 102.05 145.35 104.3 145.25 106.75 151.55 96.05 159.25 94.05 161.75 91.9 163.65 91.9 L164.5 92.0 174.95 78.95 180.05 73.2 180.1 73.1 Q182.65 69.1 186.5 67.2 L186.55 67.15 Q188.45 63.4 193.6 63.4 194.7 63.4 198.5 64.3 L203.4 65.15 208.55 63.85 Q213.3 62.65 216.2 62.65 228.9 62.65 239.55 64.95 240.95 62.7 240.95 61.55 240.95 61.05 239.4 57.3 237.85 53.5 237.85 51.75 L237.85 51.55 Q237.9 49.3 239.3 47.4 241.25 44.7 244.85 44.7 247.0 44.7 256.15 51.0 L257.0 51.55 Q266.1 57.85 268.65 61.95 L273.25 69.85 Q277.15 62.65 284.95 62.65 292.05 62.65 295.65 68.05 297.5 70.8 297.9 73.8 297.9 81.3 295.55 85.25 293.5 88.7 289.4 90.5 291.7 94.05 294.0 98.8 L294.75 98.7 Q298.45 98.7 299.9 100.8 L299.75 100.15 Q299.75 98.8 300.8 97.7 301.9 96.65 303.45 96.65 305.9 96.65 306.8 98.8 L307.2 98.55 Q309.35 100.6 309.35 101.1 309.35 102.1 308.85 102.65 308.35 103.25 306.35 104.2 L304.35 103.95 304.15 103.8 303.8 103.8 Q301.85 103.8 300.6 102.05 L300.4 101.75 Q300.8 102.65 300.8 103.9 300.8 105.8 299.55 107.35 L298.3 108.45 300.4 114.05 Q306.4 130.35 310.25 146.7 L310.7 148.65 310.8 149.05 310.8 149.4 310.8 149.8 Q310.8 153.2 305.4 163.55 L306.6 165.45 314.25 158.9 Q317.6 156.2 320.3 154.45 L320.35 152.45 Q320.35 148.0 323.5 143.0 328.0 136.05 335.8 136.05 341.1 136.05 343.9 140.95 345.3 143.4 345.6 145.85 M123.35 169.3 L122.65 169.75 123.2 169.7 123.35 169.3 M134.1 356.55 L134.35 356.0 134.45 355.75 132.8 355.6 134.1 356.55" fill="url(#gradient0)" fill-rule="evenodd" stroke="none"/>
    <path d="M364.35 158.65 Q364.35 160.8 362.7 163.2 360.6 166.35 357.15 166.35 352.25 166.35 350.65 162.85 350.15 161.75 350.0 160.4 L349.95 159.2 Q349.95 156.4 351.45 154.25 353.6 151.15 358.0 151.15 362.2 151.15 363.7 154.8 364.45 156.65 364.35 158.65 M430.5 249.35 Q430.5 250.55 430.1 250.5 L428.75 250.15 Q428.0 249.6 428.0 248.4 L429.65 248.2 430.05 248.0 Q430.5 248.05 430.5 249.35 M416.25 257.4 Q415.2 256.95 414.6 256.35 414.6 254.75 416.25 254.05 417.25 254.55 417.9 255.75 417.25 256.95 416.25 257.4 M405.55 269.25 Q404.45 270.7 402.25 270.7 399.35 270.7 398.35 268.75 397.9 267.95 397.9 266.6 397.9 265.0 399.0 263.6 400.25 262.05 402.25 262.05 406.2 262.05 406.5 266.5 406.5 268.1 405.55 269.25 M379.65 208.6 Q377.8 211.5 374.35 211.5 368.95 211.5 366.85 207.85 366.2 206.65 365.95 205.25 L365.85 204.05 Q365.85 201.75 367.35 199.75 369.25 197.15 372.75 197.15 377.55 197.15 379.7 200.85 380.75 202.75 380.9 204.9 380.9 206.65 379.65 208.6 M384.45 233.85 Q383.4 234.45 381.7 234.7 L380.4 234.3 Q379.95 234.0 379.95 232.7 379.95 231.35 381.1 231.1 L383.6 230.95 384.45 233.85 M400.6 224.5 Q404.25 224.5 404.75 228.65 403.85 233.4 401.9 233.4 397.75 233.4 396.75 231.1 396.4 230.4 396.4 229.45 L396.5 228.55 Q396.5 227.05 397.75 225.75 399.1 224.5 400.6 224.5 M347.5 215.5 Q347.5 214.25 348.35 213.2 349.45 211.7 351.4 211.7 355.5 211.7 355.25 215.75 355.25 216.9 354.35 218.2 353.5 219.4 352.65 219.4 348.75 219.4 347.75 217.6 L347.5 215.5 M350.6 232.7 Q350.6 233.6 349.75 234.85 348.95 236.05 348.35 236.05 345.9 236.05 344.75 234.65 344.0 233.75 344.0 232.8 344.0 231.35 345.25 230.3 346.3 229.5 347.3 229.5 350.2 229.5 350.6 232.7 M392.75 257.15 Q393.7 259.3 393.6 261.6 393.6 264.6 392.1 266.75 389.85 269.9 385.0 269.9 380.5 269.9 378.55 265.55 377.95 264.15 377.6 262.4 L377.5 260.9 Q377.5 258.7 378.7 256.55 380.9 252.85 385.85 252.85 390.95 252.85 392.75 257.15 M377.25 270.6 Q377.25 274.0 373.05 274.0 369.95 274.0 369.3 272.45 L369.15 270.6 Q369.15 266.8 373.15 266.8 377.6 266.8 377.25 270.6 M383.6 283.65 Q383.6 278.9 388.75 278.9 393.7 278.9 393.9 283.65 393.9 285.4 392.85 286.75 391.45 288.45 389.2 288.45 385.5 288.45 384.2 286.15 383.6 285.1 383.6 283.65 M375.2 302.5 Q375.2 307.2 370.15 307.2 366.9 307.2 365.85 304.7 L365.4 302.25 Q365.4 300.9 366.05 299.75 367.25 297.55 370.25 297.55 373.75 297.55 374.85 299.95 375.35 301.15 375.2 302.5 M397.8 333.1 Q397.7 333.55 396.5 333.55 394.8 333.55 393.5 332.8 393.2 332.7 393.2 330.65 393.2 329.75 393.5 328.55 L394.0 328.2 Q394.4 327.85 395.65 327.85 398.15 327.85 398.15 330.75 L397.9 332.65 397.8 333.1 M412.0 321.15 Q412.3 321.25 412.3 322.5 L412.25 323.7 411.7 323.75 410.7 323.75 Q410.25 323.15 410.25 321.55 L411.7 321.25 412.0 321.15 M436.3 361.25 Q432.35 361.25 431.35 359.15 L431.1 357.1 Q431.1 352.65 435.0 352.65 438.95 352.65 439.6 357.45 439.6 358.8 438.8 359.95 437.85 361.25 436.3 361.25 M416.7 376.9 Q412.0 376.9 410.9 375.05 410.5 374.45 410.55 373.7 L410.7 372.95 Q410.7 369.1 415.0 369.1 419.55 369.1 419.2 373.15 419.2 374.4 418.3 375.65 417.35 376.9 416.7 376.9 M430.5 379.15 Q432.85 374.6 438.35 374.6 444.2 374.6 446.75 378.55 448.15 380.7 448.15 382.85 448.15 385.55 445.9 388.3 442.85 392.1 437.55 392.1 432.05 392.1 430.05 388.5 429.45 387.35 429.25 386.0 L429.15 384.75 Q429.15 381.8 430.5 379.15 M301.8 91.1 Q301.8 85.55 307.2 85.55 310.65 85.55 311.85 88.35 312.55 89.7 312.5 91.25 312.5 97.05 307.2 97.05 303.4 97.05 302.3 94.2 L301.8 91.1 M306.8 115.0 Q308.35 112.5 310.4 112.5 314.65 112.5 314.3 116.8 314.3 117.95 313.5 119.6 312.45 121.9 310.8 121.9 307.0 121.9 305.95 120.05 305.65 119.45 305.65 117.95 305.65 116.95 306.8 115.0 M115.3 90.25 L115.3 89.2 Q115.3 87.1 116.75 85.2 118.65 82.75 121.9 82.75 126.0 82.75 127.55 85.9 128.4 87.5 128.4 89.3 128.4 90.7 127.1 93.0 125.55 95.8 123.55 95.8 118.05 95.8 116.1 92.55 115.55 91.5 115.3 90.25 M62.8 194.45 Q68.35 194.45 68.15 199.0 68.15 201.05 66.75 202.4 65.2 203.8 62.8 203.8 59.95 203.8 58.75 201.6 58.1 200.35 58.1 199.1 58.15 197.9 58.75 196.75 59.95 194.45 62.8 194.45 M109.2 116.95 Q109.2 118.75 107.9 120.65 106.0 123.5 102.1 123.5 98.2 123.5 96.65 120.45 95.85 118.85 95.85 117.05 95.85 114.95 97.25 113.1 99.1 110.8 102.1 110.8 106.3 110.8 108.1 113.75 109.0 115.25 109.2 116.95 M94.2 168.0 Q93.8 171.45 90.7 171.45 88.45 171.45 87.4 169.85 86.75 168.85 86.75 168.0 86.75 167.1 87.4 166.1 88.45 164.45 90.7 164.45 93.8 164.45 94.2 168.0 M95.5 175.3 Q97.6 172.85 101.25 172.85 104.85 172.85 106.3 175.6 107.05 177.05 107.05 178.55 107.05 180.15 105.65 182.55 103.95 185.45 101.95 185.45 96.15 185.45 94.4 182.55 93.85 181.6 93.75 180.45 L93.8 179.3 Q93.8 177.25 95.5 175.3 M48.8 289.3 Q51.25 291.25 51.25 291.9 51.25 293.2 50.75 293.85 L49.65 294.65 Q46.4 294.35 46.4 291.7 46.4 290.4 47.7 289.8 48.85 289.45 48.8 289.3 M76.3 305.55 Q72.1 305.55 70.8 303.25 70.45 302.5 70.35 301.6 L70.4 300.7 Q70.4 299.4 71.4 298.0 72.8 296.15 75.2 296.15 79.2 296.15 79.85 300.8 78.9 305.55 76.3 305.55 M44.2 301.25 L44.45 301.75 Q44.8 302.2 44.8 303.35 44.8 303.95 43.9 304.9 42.85 306.1 41.45 306.6 L39.45 304.8 Q39.0 304.35 39.0 303.7 39.0 301.95 41.9 300.8 L44.2 301.25 M57.25 316.4 Q52.9 316.4 52.9 313.1 52.9 309.25 56.2 309.25 59.95 309.25 60.05 313.0 60.05 314.1 59.35 315.15 58.55 316.4 57.25 316.4 M125.55 341.0 Q123.2 344.9 117.15 344.9 112.95 344.9 111.75 341.9 111.35 340.9 111.3 339.75 L111.35 338.6 Q111.35 335.4 112.6 332.8 114.65 328.7 119.45 328.7 123.9 328.7 125.7 332.45 126.7 334.35 126.7 336.4 126.7 338.95 125.55 341.0 M112.4 356.6 Q108.0 356.6 106.65 354.15 106.3 353.4 106.25 352.35 L106.3 351.45 Q106.3 345.95 111.25 345.95 114.1 345.95 115.65 348.75 116.5 350.15 116.7 351.55 116.7 352.8 115.9 354.4 114.7 356.6 112.4 356.6 M87.55 365.85 Q90.05 362.5 93.95 362.5 98.55 362.5 100.25 366.1 101.15 367.9 101.1 369.9 101.1 372.0 99.2 374.8 96.8 378.55 93.15 378.55 88.35 378.55 86.5 374.75 85.95 373.6 85.65 372.1 L85.55 370.75 Q85.55 368.4 87.55 365.85 M296.85 478.6 Q292.95 478.6 292.0 476.75 L291.8 474.65 Q291.8 473.3 292.65 472.2 293.7 470.75 295.6 470.75 299.75 470.75 299.55 474.85 299.55 476.05 298.5 477.35 297.5 478.6 296.85 478.6 M284.95 478.15 Q287.45 479.3 287.45 481.25 L287.05 482.3 286.65 482.75 Q284.15 482.75 282.8 481.05 282.95 480.7 284.05 479.65 284.95 478.85 284.95 478.15 M313.35 473.0 Q314.9 470.05 318.65 470.05 323.3 470.05 325.2 473.05 326.2 474.6 326.2 476.3 326.2 478.15 324.8 480.05 322.95 482.5 320.0 482.5 314.8 482.5 313.15 479.55 312.6 478.65 312.5 477.45 L312.5 476.4 Q312.5 474.6 313.35 473.0 M223.9 485.35 Q223.25 484.05 222.95 482.45 L222.85 481.05 Q222.85 478.4 224.75 476.15 227.15 473.2 231.35 473.2 238.7 473.2 239.75 481.25 239.75 483.65 237.85 486.1 235.35 489.4 230.95 489.4 225.9 489.4 223.9 485.35 M92.95 437.35 Q91.7 438.75 89.85 438.75 86.95 438.75 86.0 436.7 85.55 435.75 85.55 434.35 85.55 432.8 86.5 431.7 87.7 430.2 89.85 430.2 94.1 430.2 94.2 434.55 94.2 436.1 92.95 437.35 M82.5 450.05 Q82.5 448.25 83.95 446.45 85.65 444.35 88.2 444.35 93.4 444.35 94.2 449.95 94.2 451.4 92.95 453.4 91.6 455.85 89.65 455.85 82.5 455.85 82.5 450.05 M73.55 454.6 Q78.5 454.6 78.4 459.05 78.4 460.25 77.4 461.75 76.2 463.6 74.75 463.6 70.95 463.6 69.65 461.55 68.95 460.55 68.95 459.15 68.95 457.4 70.25 456.1 71.6 454.6 73.55 454.6 M427.55 428.55 Q428.5 430.35 428.75 432.3 428.75 437.95 421.2 437.95 417.35 437.95 416.2 434.55 L415.85 431.15 Q415.85 428.95 417.45 427.1 419.3 425.0 421.95 425.0 425.65 425.0 427.55 428.55 M442.7 452.8 Q443.25 454.15 443.2 455.75 443.2 457.15 442.45 458.55 441.15 460.8 438.35 460.8 434.55 460.8 433.65 458.45 L433.4 455.75 Q433.4 453.8 434.25 452.3 435.5 450.05 438.35 450.05 441.65 450.05 442.7 452.8 M427.8 454.8 Q426.4 456.85 423.6 456.85 420.55 456.85 418.75 454.0 417.6 452.1 417.6 450.9 417.6 449.35 418.75 447.8 420.25 445.85 422.75 445.85 428.0 445.85 428.75 451.7 428.75 453.3 427.8 454.8 M434.05 470.2 Q432.8 471.75 431.35 471.75 425.65 471.75 425.65 467.3 425.65 465.6 426.95 464.2 428.3 462.75 430.05 462.75 435.45 462.75 435.3 467.45 435.3 468.8 434.05 470.2 M411.45 461.3 Q411.45 468.75 404.65 468.75 400.15 468.75 398.6 465.35 398.1 464.15 398.0 462.9 L397.9 461.65 Q397.9 459.65 399.2 457.7 401.05 454.8 404.75 454.8 408.65 454.8 410.45 457.9 411.35 459.55 411.45 461.3 M442.75 476.7 Q442.35 476.6 442.35 474.5 442.35 472.2 445.25 472.2 L447.75 472.55 448.1 473.15 Q448.4 473.6 448.4 474.75 448.4 477.15 445.25 477.15 L442.75 476.7 M463.35 476.7 Q463.35 477.85 462.75 479.2 462.0 480.8 460.9 480.8 455.75 480.8 455.75 476.3 455.75 475.1 457.0 473.85 458.3 472.55 459.65 472.55 463.5 472.55 463.35 476.7" fill="url(#gradient1)" fill-rule="evenodd" stroke="none"/>
    <path d="M328.7 85.65 Q327.9 86.85 327.0 86.85 325.25 86.85 323.25 86.0 322.85 85.55 322.85 83.5 322.85 80.25 326.0 80.25 329.3 80.25 329.3 83.75 329.3 84.55 328.7 85.65 M338.7 105.7 Q338.7 106.95 337.7 108.8 336.45 111.05 334.8 111.05 329.55 111.05 327.9 108.35 327.35 107.5 327.25 106.5 L327.25 105.55 Q327.25 103.55 328.5 102.1 330.05 100.4 332.9 100.4 336.75 100.4 338.1 102.9 338.7 104.05 338.7 105.7 M280.95 78.05 Q288.8 78.05 292.1 83.35 293.9 86.3 293.9 89.55 293.9 93.45 292.2 96.85 289.9 101.65 285.1 102.1 L285.3 104.05 Q285.3 105.8 284.45 107.35 287.25 106.3 290.75 106.3 294.9 106.3 297.65 108.6 L297.65 108.45 Q297.65 104.7 300.15 101.45 303.45 97.05 309.65 97.05 318.25 97.05 321.55 104.7 323.25 108.45 323.25 113.3 323.25 116.7 321.25 120.65 319.8 123.4 317.85 124.8 318.45 125.9 318.45 127.7 318.45 129.4 317.45 131.1 315.95 133.55 312.85 133.55 309.3 133.55 308.2 131.1 L307.8 128.55 308.85 125.55 308.95 125.45 Q305.4 124.55 302.85 122.15 L302.85 122.3 Q302.85 126.8 300.8 131.6 L300.0 133.25 Q302.1 135.3 303.5 138.1 305.5 142.35 305.5 150.4 305.5 151.8 304.7 154.75 303.55 158.75 301.7 162.1 L300.45 164.05 Q302.85 165.2 304.55 167.45 304.7 165.2 306.2 163.2 308.25 160.45 312.1 160.45 316.65 160.45 318.9 163.6 320.35 165.75 320.35 168.0 320.35 170.15 318.9 172.3 316.6 175.65 312.1 175.65 309.4 175.65 307.65 174.35 L308.15 177.9 Q308.15 182.2 306.25 186.3 307.25 188.65 307.2 191.35 307.2 194.45 304.95 197.6 301.6 202.2 294.9 202.2 289.2 202.2 287.45 197.35 286.9 195.85 286.8 194.0 L286.85 192.4 286.9 191.7 Q284.4 189.4 282.8 185.3 L281.8 182.2 Q277.95 185.05 272.65 185.05 266.75 185.05 264.9 180.35 264.35 178.85 264.25 177.05 L264.3 175.4 Q264.3 171.9 266.35 168.4 L266.9 167.55 Q264.45 166.65 260.55 161.45 L257.15 161.9 Q252.35 161.9 249.95 160.5 247.5 159.0 246.3 159.0 243.7 159.0 239.05 160.55 234.35 162.1 231.05 162.1 217.85 162.1 208.45 148.25 L207.5 146.8 206.3 148.55 Q201.15 156.55 193.15 156.55 189.5 156.55 186.55 154.6 186.25 159.55 184.25 164.4 180.05 174.2 170.3 174.2 165.9 174.2 162.65 172.15 L162.5 172.8 Q160.25 182.3 156.6 185.8 158.15 191.45 158.15 197.45 158.15 198.55 157.25 200.5 156.3 202.55 156.3 203.55 156.3 204.75 158.85 207.9 161.35 211.0 161.35 213.05 161.35 216.4 158.15 217.7 157.0 219.85 155.25 219.85 150.15 219.85 147.8 216.6 146.95 215.5 146.55 214.3 L146.4 213.8 Q144.55 211.45 142.55 208.05 140.55 207.55 138.8 206.45 L137.35 206.55 Q130.45 206.55 127.6 199.75 126.7 197.65 126.35 195.0 L126.1 192.7 Q126.1 189.7 127.6 186.95 128.95 184.45 131.3 183.35 L129.5 178.65 126.0 179.05 Q114.05 179.05 107.1 168.0 L105.5 165.1 Q103.3 167.8 100.5 167.8 95.25 167.8 93.35 163.85 L93.2 163.5 Q89.0 162.35 89.0 158.15 89.0 156.0 90.25 154.45 91.85 152.45 95.2 152.45 L97.75 152.8 99.75 152.6 103.0 153.15 Q104.35 149.4 109.2 145.25 112.4 142.5 115.55 141.05 L115.45 139.65 Q115.45 131.1 124.4 131.1 130.55 131.1 134.6 140.1 L135.25 141.55 136.3 140.65 135.45 139.0 Q133.9 135.75 133.05 131.8 L132.5 128.4 Q132.5 124.6 134.4 121.05 137.75 114.75 145.65 114.75 153.5 114.75 157.75 119.7 159.75 115.35 162.55 111.4 164.3 108.85 166.2 106.8 160.4 103.4 158.95 101.45 158.1 100.15 157.15 95.55 156.3 91.5 156.3 90.05 156.3 84.45 160.9 79.35 167.35 72.25 179.65 72.25 187.0 72.25 190.7 77.95 195.3 73.7 201.75 73.7 212.05 73.7 217.2 83.1 223.45 79.85 230.1 79.85 239.4 79.85 243.1 91.6 244.55 96.3 244.8 101.35 252.0 94.0 265.35 94.0 271.1 94.0 274.75 97.65 L275.2 97.45 273.6 94.8 Q271.15 90.0 271.15 86.85 271.15 84.4 272.8 81.9 275.45 78.05 280.95 78.05 M108.75 78.55 Q112.4 78.55 112.0 82.4 112.0 85.85 108.75 85.85 105.95 85.85 105.45 84.25 L105.45 82.4 105.65 80.25 Q106.35 78.55 108.75 78.55 M78.75 150.8 Q78.75 149.15 80.0 147.8 81.5 146.05 84.15 146.05 88.3 146.05 88.9 150.75 88.9 152.4 87.7 153.85 86.3 155.5 84.15 155.5 80.6 155.5 79.4 153.2 L78.75 150.8 M138.15 110.85 Q136.2 114.75 132.5 114.75 127.75 114.75 126.45 109.85 126.0 108.35 126.0 106.4 L126.1 104.75 Q126.1 102.35 128.0 100.85 129.8 99.35 132.15 99.35 136.6 99.35 138.5 102.5 139.4 104.05 139.4 105.85 139.4 108.2 138.15 110.85 M112.45 99.9 Q112.45 97.05 115.3 97.05 118.05 97.05 119.0 100.6 119.0 101.55 118.45 102.45 117.6 103.7 116.1 103.7 113.25 103.7 112.6 101.9 L112.45 99.9 M114.15 190.3 L114.25 189.2 Q114.25 187.45 115.3 185.85 116.9 183.4 120.25 183.4 123.95 183.4 125.55 186.3 126.4 187.8 126.5 189.3 125.6 195.25 121.65 195.25 116.15 195.25 114.65 192.35 114.2 191.4 114.15 190.3 M125.2 212.5 Q125.2 214.5 123.6 216.2 121.8 218.05 119.45 218.05 115.25 218.05 113.45 214.9 112.45 213.25 112.45 211.5 112.45 209.85 113.3 208.2 114.85 205.35 118.6 205.35 122.45 205.35 124.15 208.85 125.1 210.6 125.2 212.5" fill="url(#gradient2)" fill-rule="evenodd" stroke="none"/>
    <path d="M173.75 230.25 Q174.35 231.3 174.4 232.35 174.4 233.6 173.6 234.45 L173.6 236.05 Q174.25 238.85 176.7 241.05 L179.4 243.8 180.85 246.6 181.0 246.8 181.05 246.5 181.75 246.3 Q182.2 246.3 182.75 246.7 L183.0 246.7 Q185.0 246.7 186.4 253.75 187.95 258.15 189.65 265.1 191.95 274.5 193.6 284.05 193.6 285.7 192.45 285.7 L192.05 285.65 192.1 285.75 192.6 287.8 Q192.25 287.8 192.0 288.45 L190.35 285.0 190.35 288.2 189.95 288.9 Q188.2 286.65 186.4 280.25 184.8 278.8 184.35 276.35 184.25 272.9 183.8 271.55 181.85 264.6 180.6 262.05 L173.95 249.65 Q170.3 249.05 166.95 245.5 163.35 241.7 163.35 238.85 163.35 235.95 164.2 233.2 165.75 228.1 169.45 228.1 L170.75 228.2 Q171.1 227.9 171.5 227.9 172.85 227.9 173.3 229.6 L173.75 230.25 M231.35 259.15 Q233.05 259.15 233.55 260.8 L233.7 261.95 Q233.7 263.0 232.8 265.3 232.8 266.75 234.65 267.95 236.55 269.05 236.55 270.95 236.55 271.9 235.85 272.9 234.95 274.05 233.4 274.05 232.0 276.5 226.0 276.5 223.35 276.5 222.55 274.55 222.15 273.8 222.15 272.45 222.15 270.75 225.2 265.3 226.95 262.2 228.55 260.65 229.25 259.6 230.35 259.35 L231.35 259.15 M177.85 336.0 Q186.65 336.0 208.55 356.85 224.8 372.35 237.9 388.35 L237.2 388.5 Q236.05 388.7 235.0 388.5 231.4 388.0 227.5 383.9 L220.8 375.7 207.25 362.85 175.85 337.35 Q175.85 336.0 177.85 336.0 M183.0 351.75 Q186.7 351.75 195.35 359.35 201.25 364.45 205.8 369.65 L205.7 369.95 Q206.05 370.35 205.05 370.35 188.9 356.4 182.25 352.75 L182.25 352.0 183.0 351.75 M192.15 370.5 Q192.1 371.3 192.85 373.05 192.85 375.65 190.5 382.0 188.15 388.3 188.2 391.65 188.2 403.15 187.2 409.75 184.55 427.05 183.5 432.25 180.7 446.05 178.0 446.05 175.15 446.05 174.55 443.9 L174.55 441.6 178.65 407.35 173.1 416.7 Q169.4 422.6 166.6 422.6 163.25 422.6 162.1 420.65 161.65 419.9 161.65 418.55 161.65 416.7 176.4 391.75 L183.8 376.55 Q189.0 365.95 191.15 365.95 192.65 365.95 192.9 367.7 192.9 368.7 192.15 370.5 M293.6 385.25 Q295.55 384.0 296.25 384.0 299.35 384.0 299.95 386.4 300.4 388.0 299.85 389.55 L301.8 389.2 Q305.95 389.2 306.2 393.5 306.2 395.05 304.85 396.7 L301.75 400.3 301.55 400.5 303.4 399.1 Q304.5 398.2 306.35 398.2 309.3 398.2 310.25 400.65 310.75 401.9 310.65 403.15 310.65 405.75 306.7 410.15 301.25 416.3 300.4 417.6 297.05 423.05 296.85 424.65 L297.0 427.9 Q296.6 430.7 294.05 430.7 292.5 430.7 290.3 428.35 288.15 426.05 288.15 424.25 L282.25 429.65 Q277.05 434.05 273.95 434.05 271.9 434.05 270.5 432.2 269.35 430.8 269.5 429.95 L265.25 434.25 Q263.15 435.9 259.6 435.9 255.95 435.9 255.3 433.45 L254.9 431.3 Q254.65 430.05 254.05 429.45 253.45 430.8 252.75 430.8 250.95 430.8 250.6 429.65 L250.6 428.35 Q250.6 425.75 257.15 416.6 261.25 410.9 265.05 406.4 269.8 400.95 276.95 394.2 286.15 385.65 288.75 385.65 L289.9 386.0 Q290.5 386.4 291.05 386.4 291.65 386.4 293.6 385.25" fill="#000000" fill-opacity="0.48235294" fill-rule="evenodd" stroke="none"/>
    <path d="M176.95 97.5 L169.85 117.55 Q162.3 138.6 160.65 147.9 L163.3 139.0 Q165.2 131.9 166.45 128.4 170.75 115.9 176.05 115.9 178.85 115.9 178.85 118.75 178.85 120.3 177.45 123.5 L174.55 130.45 Q171.1 138.8 170.45 145.6 L176.95 138.8 Q185.2 130.4 194.85 121.3 L201.4 115.15 200.0 114.7 Q199.65 114.6 199.65 113.3 199.65 110.9 215.55 101.65 218.05 100.15 220.35 98.95 224.15 96.25 225.55 96.2 233.4 92.3 236.6 92.3 237.85 92.3 238.0 92.65 L238.25 93.3 238.35 93.05 238.45 94.25 Q238.45 95.25 228.05 101.15 L227.8 101.6 Q230.15 101.55 231.45 102.75 232.35 103.6 232.35 104.6 L228.9 109.25 Q229.75 108.6 230.95 108.6 L232.45 109.7 Q233.05 108.35 235.35 107.35 L237.7 106.55 Q237.7 105.35 238.45 104.4 239.35 103.4 240.75 103.4 241.8 103.4 250.15 107.05 246.75 104.3 246.75 101.45 246.75 100.3 247.75 99.35 248.7 98.55 249.7 98.55 250.15 98.55 253.95 101.15 L263.1 108.0 Q276.6 119.05 280.95 127.8 280.4 128.0 279.05 129.0 L279.0 129.5 Q278.9 130.1 277.65 130.1 L277.5 130.1 275.15 130.45 Q274.45 130.45 265.45 124.25 256.5 117.95 253.05 117.95 251.2 117.95 244.3 112.5 L241.75 110.4 240.0 111.4 236.9 113.15 240.2 115.75 Q250.0 123.3 253.05 124.9 264.7 130.9 273.75 134.1 276.0 135.1 276.55 136.3 277.0 137.4 277.0 140.9 277.0 141.15 278.55 143.05 280.1 145.0 280.1 145.55 L280.0 146.6 Q283.65 143.5 285.4 143.5 288.15 143.5 288.15 146.2 280.5 155.9 275.65 161.15 L275.6 161.25 275.7 161.15 Q283.05 152.75 287.9 152.75 290.5 152.75 290.5 155.2 L280.3 167.45 Q282.85 168.6 284.45 171.0 285.85 173.0 286.3 175.15 290.6 175.25 290.6 177.8 290.6 178.65 288.65 180.5 L287.65 181.4 287.7 181.95 287.45 183.45 Q289.3 184.15 291.0 185.5 291.05 182.15 294.05 182.15 296.95 182.15 297.15 185.15 L297.85 184.15 Q301.35 178.85 303.05 178.05 L305.35 180.25 Q305.35 183.6 303.5 187.6 302.5 189.9 301.25 191.25 300.75 192.9 299.6 192.9 L298.55 192.85 297.3 192.95 295.95 192.85 295.95 193.05 Q295.95 194.15 295.2 195.25 294.15 196.9 292.0 196.9 L290.95 196.75 288.25 201.3 288.55 201.3 Q291.65 201.3 291.85 204.4 L291.45 208.1 Q291.45 209.1 290.65 209.95 289.8 210.9 288.55 210.9 288.05 210.9 287.35 210.4 286.65 209.85 286.2 209.85 L282.3 210.4 280.0 210.9 272.6 210.7 Q270.95 210.35 270.95 208.65 270.95 205.65 278.15 203.25 282.2 202.0 285.4 201.55 283.0 200.1 281.2 195.25 280.05 192.35 279.6 190.3 275.9 191.3 267.8 195.35 L257.55 200.8 257.05 200.8 260.5 206.5 263.1 210.75 Q264.0 210.05 264.9 210.05 267.9 210.05 269.2 212.1 L269.5 212.05 Q282.5 218.05 283.15 218.05 284.5 218.05 286.7 215.85 288.9 213.65 291.6 213.65 293.0 213.65 293.95 214.15 295.65 210.05 302.45 210.05 306.15 210.05 307.45 212.1 308.2 213.2 308.15 214.35 308.15 215.35 307.6 216.4 308.2 217.45 308.4 219.75 L307.4 224.25 Q308.05 224.5 308.05 225.45 308.05 227.4 302.8 238.5 302.25 240.75 301.7 245.05 L301.25 246.95 301.8 248.1 Q302.85 250.15 302.85 251.8 302.85 255.9 302.45 257.65 L300.75 264.85 Q300.45 266.3 298.45 267.95 296.1 269.75 295.55 270.85 L295.45 271.0 Q296.1 271.95 296.1 273.5 295.4 279.0 293.55 281.7 L293.5 282.35 Q292.55 293.15 290.25 297.05 290.5 298.0 290.35 299.2 290.35 301.7 287.65 306.9 288.15 308.15 287.8 310.4 287.8 314.55 283.8 320.05 284.8 321.0 285.3 322.0 286.2 321.05 287.1 321.05 290.05 321.05 290.25 324.35 290.35 326.05 289.8 327.75 L290.6 328.75 Q291.45 329.8 291.6 330.85 291.75 331.8 291.2 333.6 291.2 334.05 292.7 335.8 L290.05 345.4 288.85 349.15 Q291.05 349.4 291.25 352.1 L290.55 354.55 Q289.75 356.45 289.75 356.95 L285.0 370.4 285.0 371.35 285.5 374.5 Q285.85 376.95 285.85 380.6 285.85 382.05 285.0 383.1 284.0 384.45 282.15 384.45 280.45 384.45 279.25 382.6 L278.45 383.05 Q276.85 383.05 276.15 381.8 275.85 381.1 275.85 380.4 275.85 379.55 276.95 375.45 274.55 376.1 272.05 380.6 271.25 382.0 268.4 388.35 L259.3 388.35 254.95 393.0 Q242.95 405.75 238.4 411.25 235.05 415.25 226.8 428.05 L219.15 439.8 Q216.95 439.8 216.95 438.2 216.95 435.55 225.4 422.1 L234.0 408.95 Q240.55 401.0 250.25 391.3 260.3 381.35 262.95 380.65 L266.1 375.2 Q253.4 375.05 242.0 372.5 L236.4 371.05 Q239.4 374.5 239.4 375.55 239.25 378.6 236.25 378.6 233.85 378.6 203.8 351.6 200.6 348.65 194.8 344.45 L185.9 337.85 Q176.3 330.3 176.3 324.5 L174.25 320.5 Q174.25 319.4 174.8 318.35 175.8 316.4 178.2 316.3 L177.6 315.4 Q175.45 313.6 173.3 310.05 L172.75 309.55 172.85 309.15 Q170.5 304.95 168.2 298.55 166.1 292.85 164.4 285.85 L163.0 280.0 163.2 278.7 Q160.4 281.0 157.55 281.0 155.1 281.0 152.5 276.6 L150.45 272.0 Q150.45 270.05 151.0 267.8 151.85 264.05 153.8 264.05 L155.0 264.35 Q155.5 261.05 155.3 260.1 155.0 258.3 153.15 255.1 L150.15 250.15 144.1 238.3 Q140.65 231.25 140.65 230.65 140.65 228.95 141.7 228.65 L145.1 228.65 148.1 227.4 Q152.35 227.4 157.85 245.6 160.65 254.75 162.55 263.9 L162.45 267.6 161.85 268.65 162.0 268.75 162.55 267.7 162.65 267.25 Q163.2 266.45 164.95 266.45 167.95 266.45 167.45 269.7 167.45 274.05 164.55 277.35 L165.75 277.2 Q169.15 277.2 171.45 284.55 172.75 288.55 174.25 295.85 175.75 301.0 179.85 307.95 L181.75 311.1 Q191.2 317.0 206.65 336.15 L206.2 337.2 206.2 337.3 Q215.95 345.9 225.2 354.65 224.05 353.15 224.05 352.1 224.05 350.8 225.2 350.8 226.7 350.8 229.15 352.15 L229.25 352.15 Q248.05 361.8 250.4 361.8 254.8 361.8 257.9 360.4 L258.85 356.85 Q260.4 350.85 260.4 346.55 260.4 341.7 258.05 334.9 255.7 329.0 255.7 328.25 L255.9 327.35 255.8 327.25 Q253.7 326.65 252.15 325.4 249.55 323.4 249.55 320.95 249.55 319.7 250.5 318.7 251.3 317.85 252.4 317.65 253.4 315.65 259.6 313.05 267.8 309.65 269.25 306.7 270.05 303.9 270.8 301.8 L268.6 301.95 264.4 301.5 262.5 301.45 263.7 301.7 Q259.5 301.7 253.45 300.55 L249.95 299.9 248.75 300.4 Q245.7 301.45 241.95 301.45 L240.2 301.3 239.5 301.75 Q236.05 304.15 235.6 304.15 L235.0 304.05 227.15 312.4 Q223.75 312.4 222.85 310.6 L222.7 308.7 Q222.7 306.65 227.7 303.25 232.85 299.85 236.25 299.55 L236.65 299.85 237.45 299.3 239.35 297.85 239.55 297.7 242.2 295.5 Q242.4 294.2 244.55 291.9 247.0 289.25 249.0 289.25 249.9 289.25 254.1 291.25 258.35 293.3 260.1 293.3 L261.4 292.25 262.25 291.75 259.25 291.35 Q255.65 291.35 254.6 287.55 L254.15 283.55 254.2 282.95 252.6 278.8 251.1 271.4 Q251.1 268.2 255.1 268.2 254.8 267.25 255.65 266.2 256.65 265.1 258.4 265.1 259.8 265.1 260.55 265.75 262.3 263.1 264.45 262.75 L264.35 262.4 264.35 259.75 264.35 258.45 Q261.25 254.1 260.1 241.05 L259.6 229.9 258.25 230.75 Q257.65 231.35 255.0 231.5 L250.25 232.75 Q250.05 234.25 249.45 235.5 247.3 240.25 246.55 242.65 246.4 243.0 245.55 249.6 L245.1 252.1 Q246.15 254.55 246.15 255.85 L245.5 256.85 244.7 257.4 Q243.3 257.4 239.75 255.05 L236.35 252.6 238.8 248.0 Q238.5 246.5 238.45 244.25 L238.5 237.75 Q238.5 235.55 237.95 233.05 235.15 234.75 231.05 236.2 221.2 239.65 213.3 239.65 205.0 239.65 197.35 234.0 194.1 233.85 189.85 229.4 L185.4 224.05 179.8 218.85 178.1 216.9 Q174.1 216.6 170.05 213.95 165.75 211.25 165.75 209.5 165.75 208.15 166.55 207.15 167.5 205.75 169.45 205.75 179.75 205.75 182.85 207.9 187.95 206.4 207.15 206.4 210.6 206.4 212.3 208.4 213.3 209.6 213.3 211.0 213.3 212.85 212.1 214.25 210.5 216.0 207.25 216.15 196.8 216.5 194.1 217.35 L198.8 220.05 Q206.45 224.05 213.15 224.05 225.1 224.05 231.15 218.3 L232.65 216.8 230.2 214.0 Q230.2 212.85 231.05 211.7 232.15 210.05 234.15 210.05 240.9 210.05 244.7 214.05 245.7 215.15 246.3 216.15 L246.55 215.0 Q245.55 212.55 245.55 211.95 245.55 211.25 246.8 209.65 L248.05 207.65 Q248.05 206.1 247.0 204.95 245.9 203.75 245.9 202.15 245.9 200.6 247.05 199.3 L247.25 199.1 246.55 198.25 Q242.1 196.75 229.4 191.9 211.1 184.95 206.55 184.95 202.05 184.95 198.15 186.7 194.2 188.5 193.15 188.5 L191.2 188.1 Q184.35 195.0 183.65 195.0 181.05 195.0 180.3 193.4 L180.1 191.7 Q180.1 190.45 185.4 184.15 191.0 177.6 194.45 177.25 L194.55 177.2 Q201.25 171.7 207.15 171.7 209.45 171.7 220.15 175.35 230.85 179.0 232.1 179.0 239.05 179.0 244.1 176.9 247.6 175.4 251.25 172.25 L256.95 167.5 Q257.95 166.95 259.05 166.5 L258.5 166.3 Q256.0 167.8 249.3 167.55 L249.3 168.0 237.85 168.0 Q218.3 162.75 217.55 162.75 L214.5 162.85 Q214.05 164.05 212.7 164.8 L207.25 166.25 Q196.05 168.2 190.3 171.05 184.75 173.9 178.95 177.85 173.6 181.55 171.05 184.05 169.0 187.75 166.0 193.9 L163.9 198.0 Q164.6 205.35 166.2 214.55 166.2 218.15 162.85 218.15 161.85 218.15 161.05 217.55 L161.6 219.75 Q161.6 220.5 161.0 221.3 L160.7 221.7 160.65 221.95 Q160.0 222.7 158.05 222.75 L158.35 223.65 Q158.35 224.65 157.55 225.7 154.8 224.5 152.2 219.1 149.75 214.15 149.75 210.85 148.9 208.4 148.8 206.95 L148.95 206.95 147.65 205.45 Q144.95 203.0 144.2 200.75 L144.05 201.35 Q143.8 202.0 142.55 202.0 139.85 202.0 138.7 200.35 L137.7 198.35 136.85 200.75 Q136.95 201.35 134.9 201.35 132.5 201.35 128.8 187.25 L125.6 173.1 125.65 171.9 125.85 171.4 Q126.3 170.9 127.55 170.9 128.9 170.9 129.95 172.5 L129.6 168.55 Q129.35 168.4 128.8 168.55 L126.85 168.8 Q124.85 168.8 124.0 167.15 123.55 166.3 123.55 165.3 123.55 160.05 129.4 146.8 L135.2 134.25 131.45 130.3 Q127.8 126.5 127.8 125.3 127.8 122.3 131.3 122.3 135.85 122.3 151.25 137.4 151.25 139.45 150.85 139.9 150.15 140.7 148.1 140.7 147.1 140.7 146.15 139.7 145.25 138.75 144.2 138.75 139.3 138.75 138.6 142.8 138.25 144.9 138.85 147.75 138.85 150.8 136.75 161.05 134.6 171.35 134.6 175.95 134.45 176.55 132.4 176.55 L131.5 176.3 131.9 177.9 Q132.75 181.9 133.5 189.05 L133.5 189.3 Q134.6 179.1 135.45 172.65 137.15 160.45 139.05 160.45 142.15 160.45 142.25 170.75 142.3 176.4 141.75 187.6 143.65 177.15 145.05 171.45 147.6 161.05 150.5 161.05 L152.2 161.35 152.6 161.65 153.8 153.4 Q154.0 151.95 153.5 148.95 152.95 145.55 152.95 144.85 152.95 143.15 162.5 119.0 172.35 94.0 174.4 94.0 177.3 94.0 176.95 97.5 M227.75 110.75 Q213.15 129.85 210.45 129.85 208.4 129.85 207.75 128.35 L207.55 126.65 Q207.55 124.45 208.95 123.05 L212.45 119.0 Q203.65 125.0 194.55 134.8 L185.75 145.0 Q184.1 148.55 183.85 151.8 L186.55 151.2 Q191.2 146.4 195.05 143.85 192.0 141.65 192.0 139.75 192.0 137.25 194.85 137.25 195.95 137.25 217.7 145.45 L216.1 144.4 Q211.65 141.25 211.65 140.15 211.65 137.65 214.1 137.65 218.0 137.65 234.0 146.6 236.05 147.7 241.5 149.75 L240.85 149.25 Q236.15 145.55 236.15 145.1 236.15 141.25 240.75 141.25 241.3 141.25 253.85 144.6 L263.15 147.1 Q258.9 145.8 253.95 143.8 238.7 137.7 238.7 135.2 238.7 133.9 239.75 132.75 240.85 131.45 242.4 131.45 L247.85 132.45 254.9 133.55 Q227.6 118.9 227.6 111.5 L227.75 110.75 M176.45 153.55 L176.15 152.8 174.95 154.4 Q174.2 155.65 172.75 156.1 L171.25 155.6 170.9 155.15 170.95 155.3 172.0 160.1 172.75 159.0 172.35 158.05 Q172.35 156.25 175.7 154.6 L176.45 153.55 M170.65 153.9 L170.65 153.8 Q170.65 153.1 172.5 150.3 L170.3 149.9 170.65 153.9 M165.45 159.95 Q165.45 164.35 164.4 173.25 L164.3 173.8 Q165.9 170.55 168.05 166.8 L169.6 164.1 Q168.35 163.2 166.9 160.75 164.75 157.25 164.65 155.3 L163.8 157.35 Q165.55 157.75 165.45 159.95 M171.25 174.45 L171.3 174.35 171.25 174.35 171.25 174.45 M199.3 148.85 L203.85 148.2 200.95 146.95 199.3 148.85 M239.05 156.5 L238.75 157.05 238.25 157.65 242.65 158.5 244.1 158.15 239.05 156.5 M276.5 149.95 Q272.75 149.85 267.5 148.4 L271.15 149.7 274.95 151.6 276.5 149.95 M294.65 189.4 L294.9 189.0 294.45 189.1 294.65 189.4 M156.2 169.85 L157.0 165.9 Q154.45 165.65 153.4 164.55 153.3 166.4 152.4 171.4 153.3 169.85 156.2 169.85 M151.95 174.9 L152.0 173.8 151.25 177.8 Q151.85 176.6 151.95 174.9 M302.55 220.2 L302.75 220.9 303.0 220.1 302.55 220.2 M287.1 240.7 Q281.35 240.7 279.6 245.0 278.75 247.1 279.0 249.35 279.0 255.05 283.9 260.8 L284.7 258.15 289.0 242.1 Q288.15 240.7 287.1 240.7 M247.7 225.95 Q248.3 225.3 249.0 224.9 L248.05 224.25 247.7 225.95 M270.7 271.65 Q267.9 271.65 267.65 278.0 L267.5 280.7 270.55 282.8 279.3 288.75 280.7 285.65 279.3 281.65 Q278.25 278.55 277.05 276.5 L272.1 271.9 270.7 271.65 M277.55 357.4 L278.25 351.15 Q277.0 355.1 275.7 359.85 L277.55 357.4" fill="url(#gradient3)" fill-rule="evenodd" stroke="none"/>
    <path d="M206.95 172.15 Q207.5 171.55 208.85 171.45 L208.6 167.15 Q208.6 165.35 208.95 164.1 L209.35 164.1 Q211.05 164.1 211.45 170.05 L211.55 171.7 214.35 172.3 214.15 173.0 211.65 173.25 212.0 177.7 213.75 177.55 214.3 177.6 214.45 178.2 Q214.45 178.65 213.3 179.1 L212.35 179.35 Q213.05 181.55 214.6 184.25 L215.1 184.2 216.8 184.5 215.45 185.65 216.25 186.95 Q217.9 189.5 218.45 191.8 L220.1 191.7 220.3 191.65 220.45 192.3 Q220.45 193.2 218.7 193.6 L218.7 193.9 Q218.7 194.9 217.55 199.25 218.7 199.75 219.35 200.6 L219.35 201.2 Q219.65 201.5 218.65 201.5 L217.05 201.2 216.95 201.65 Q215.1 208.4 214.1 210.35 213.3 210.9 213.3 209.85 L215.85 200.7 215.6 200.6 213.15 199.25 213.15 198.75 214.35 198.7 216.3 198.85 Q216.85 195.95 216.85 194.3 L216.85 193.8 215.75 193.8 Q214.35 193.8 213.6 193.2 214.05 192.4 216.4 192.0 L215.55 190.25 213.45 186.15 210.85 186.3 Q209.75 186.3 209.35 185.65 210.4 185.0 212.65 184.6 211.45 182.05 210.6 179.5 207.5 179.45 206.95 178.85 L206.8 178.55 210.1 177.9 Q209.4 175.35 209.0 172.75 L206.95 172.15 M293.75 220.8 L294.55 223.2 Q295.5 222.85 296.25 222.85 296.95 222.85 297.35 223.7 L295.15 225.0 296.45 229.35 296.15 229.7 Q295.2 228.5 294.55 225.45 L289.65 228.8 290.6 231.1 290.6 231.35 289.3 229.05 Q286.1 231.55 283.3 234.4 L284.85 236.75 284.8 237.15 Q283.65 236.65 282.65 235.15 L278.95 239.25 278.0 240.7 278.9 242.2 279.9 243.45 279.65 243.35 279.9 243.65 281.25 245.6 281.45 244.95 Q282.95 242.1 284.85 241.25 L285.0 241.2 285.25 241.9 Q283.9 245.75 282.4 247.6 L286.1 254.55 Q287.4 252.9 288.4 252.35 288.25 254.25 286.9 256.2 L287.8 258.1 290.8 264.35 Q292.3 261.8 293.25 261.55 L293.8 261.6 294.05 262.3 Q294.05 263.2 292.35 265.85 L291.85 266.65 Q294.6 273.05 294.6 275.6 L294.5 276.55 294.05 277.05 Q292.3 273.85 290.65 269.2 L290.35 268.45 289.15 269.4 Q288.85 269.95 288.85 268.9 288.85 268.2 289.7 266.45 L287.85 261.15 286.25 257.0 284.9 258.4 284.25 258.45 Q284.0 258.45 284.0 257.85 284.0 257.4 285.5 255.35 283.7 251.55 281.5 248.45 280.5 249.2 279.5 249.25 L280.5 247.1 278.25 244.35 276.65 242.55 273.4 247.05 275.0 249.15 Q273.6 249.1 272.5 248.25 L267.1 255.1 Q267.05 255.7 267.05 254.7 267.05 254.3 270.25 249.4 L271.6 247.4 Q270.05 245.65 269.25 245.3 L269.5 244.65 270.1 244.6 Q271.0 244.6 272.5 246.1 L275.85 241.4 273.95 238.7 273.85 238.75 273.2 238.6 Q272.95 239.2 272.95 238.15 L273.05 237.8 273.15 237.45 Q271.25 234.35 269.65 230.6 L267.4 231.95 267.1 231.0 268.7 228.55 268.6 228.2 266.2 222.25 264.0 224.5 263.3 224.4 Q263.0 224.75 263.0 223.7 263.0 222.6 265.4 220.2 L265.25 219.75 Q263.2 214.8 261.45 211.5 L262.3 211.35 Q262.95 211.35 266.8 218.85 268.75 217.05 270.2 216.1 L270.6 215.9 Q270.95 215.85 270.95 216.45 270.95 217.25 267.7 220.7 L269.45 224.2 270.45 226.25 Q273.0 223.55 275.35 223.65 L272.1 228.0 271.6 228.65 274.75 234.95 274.9 234.8 Q277.15 231.45 279.0 231.0 L275.65 236.65 277.3 239.55 278.0 238.5 281.85 233.85 280.5 231.55 280.75 231.25 281.05 231.25 282.45 233.2 Q285.65 229.45 288.4 227.05 L287.2 224.5 287.6 224.4 288.75 226.7 Q291.75 224.15 294.1 223.35 L293.5 220.8 293.75 220.8 M211.85 222.05 L212.65 229.6 Q214.45 229.95 215.95 231.0 L215.95 231.35 Q216.3 231.65 215.25 231.65 L212.85 231.4 212.9 234.55 212.7 238.7 213.75 239.35 213.0 239.75 212.65 239.75 212.4 244.6 Q213.85 244.95 214.55 245.8 L214.55 246.3 Q215.1 246.45 214.1 246.45 L212.35 246.15 212.0 251.65 214.55 251.2 Q215.6 251.2 216.2 252.05 L213.3 253.3 211.9 253.3 211.65 257.35 211.65 258.85 Q214.15 258.95 214.55 259.45 L212.45 259.95 211.7 259.95 212.1 265.55 213.8 265.85 Q215.0 266.2 215.1 266.5 214.6 267.15 213.75 267.15 L212.2 267.15 212.55 271.95 213.0 272.05 212.6 272.55 213.15 279.0 213.9 278.95 214.25 278.9 Q214.55 278.95 214.55 279.65 214.55 280.35 213.3 280.5 L213.6 284.6 213.5 286.95 213.05 287.0 212.15 280.5 211.0 280.45 210.85 279.8 Q211.35 279.4 212.0 279.25 L211.4 273.45 211.35 272.8 Q209.95 272.7 207.9 271.9 L207.9 271.3 208.4 271.2 211.2 271.6 210.7 267.05 208.9 266.7 208.9 265.75 210.6 265.6 210.15 259.85 208.6 259.5 Q208.9 259.1 210.05 258.9 L210.05 257.45 210.15 253.3 209.95 253.3 209.35 252.45 Q209.6 252.0 210.25 251.85 L210.55 245.9 208.75 245.6 Q208.6 246.15 208.6 245.15 L208.7 244.65 210.25 244.35 210.65 244.35 210.95 239.95 210.95 239.4 Q209.4 239.1 208.95 238.5 209.65 237.9 210.45 237.9 L210.95 237.95 210.95 231.3 208.75 231.25 Q208.5 230.75 208.5 230.0 208.95 229.55 210.95 229.5 L211.0 222.1 211.85 222.05" fill="#000000" fill-opacity="0.43137255" fill-rule="evenodd" stroke="none"/>
    <path d="M340.5 393.5 Q343.1 393.5 344.45 396.4 344.45 398.4 343.25 400.05 341.95 401.8 340.15 401.8 348.25 405.8 360.6 410.1 L383.9 417.6 383.5 418.5 Q383.25 419.0 382.5 419.0 366.2 419.0 336.3 402.1 323.85 395.05 314.7 387.95 312.35 386.2 310.55 384.55 314.4 389.3 315.05 392.1 L315.0 392.65 Q314.9 393.0 314.15 393.0 312.55 393.0 308.25 389.95 303.95 386.95 302.7 386.95 300.6 386.95 294.65 394.45 L286.15 405.5 285.7 405.45 Q287.9 401.1 294.4 393.2 301.1 385.0 302.7 385.0 L303.4 385.15 Q300.3 381.9 296.95 370.9 L295.05 368.45 295.9 367.3 Q294.25 361.7 292.65 354.5 288.6 336.35 287.3 325.1 L285.75 331.3 Q280.05 354.6 276.7 364.55 L276.85 364.4 276.9 365.15 Q276.9 366.5 270.6 367.9 L270.15 368.05 Q256.15 387.9 248.2 400.7 238.5 416.05 232.0 429.25 L235.35 428.25 Q243.1 426.1 251.2 424.75 253.15 420.15 261.55 408.5 271.7 394.5 274.15 392.55 L274.25 393.35 265.75 405.35 Q257.65 416.6 253.05 424.4 L258.55 423.55 261.25 423.4 Q266.9 423.4 270.5 425.4 273.15 426.9 273.15 428.1 L273.05 428.8 Q273.6 428.95 272.5 428.95 272.05 428.95 269.2 427.35 266.3 425.8 261.15 425.8 L251.8 426.5 251.3 427.45 250.7 427.4 250.65 426.8 250.65 426.7 Q242.95 427.95 234.2 431.0 L230.5 432.3 227.75 438.35 Q227.15 439.0 227.2 437.7 227.15 436.05 228.2 433.2 219.35 436.8 216.6 440.1 L218.55 439.75 217.4 440.8 Q216.75 441.45 215.45 441.2 L215.35 440.3 Q215.3 434.75 229.55 429.95 234.5 419.1 249.9 396.5 255.5 388.15 265.4 373.95 L269.25 368.25 Q260.9 369.85 246.9 369.85 243.9 369.85 240.9 368.7 L240.2 368.8 239.05 367.8 237.45 366.35 Q204.1 337.4 188.0 326.05 L187.9 326.9 187.6 325.75 Q184.3 323.45 181.8 321.9 178.0 319.7 175.5 316.9 194.5 372.05 194.5 396.7 L194.05 399.45 193.6 399.55 189.55 373.8 Q187.0 358.1 183.85 347.7 L182.65 344.15 181.75 341.25 182.3 344.3 Q183.95 353.6 184.7 363.05 186.45 383.75 186.45 392.8 L185.95 401.55 184.3 419.75 Q181.35 445.9 177.0 445.95 L175.9 445.55 Q175.65 446.05 175.65 444.85 180.75 433.7 182.3 418.5 L184.05 403.65 Q184.45 400.45 184.45 392.7 184.45 384.25 183.8 375.1 182.1 384.0 166.85 401.2 150.7 419.5 140.5 424.8 138.9 424.55 139.0 423.55 L147.9 415.95 Q158.15 407.25 163.0 400.95 165.1 398.25 171.45 387.6 176.8 378.5 177.45 378.5 178.45 378.5 178.45 379.7 L181.6 376.05 Q182.3 375.2 182.3 372.75 L182.25 371.85 181.25 371.8 Q181.5 370.9 182.3 370.15 L182.6 370.15 183.5 370.35 182.75 362.3 Q180.85 344.8 177.8 332.8 L178.6 332.65 178.9 332.75 178.85 332.55 172.05 311.9 171.35 310.05 Q170.55 308.1 169.7 304.35 167.5 297.45 167.4 296.3 L164.5 286.85 162.35 280.95 162.2 280.7 162.1 281.15 Q161.0 283.6 160.3 283.6 155.6 283.6 151.45 278.25 148.1 274.0 146.85 269.35 143.7 260.2 142.5 255.25 139.75 244.7 132.55 238.5 129.3 235.7 128.35 234.25 126.55 231.5 126.6 227.15 126.55 223.5 127.3 219.75 128.45 213.2 131.2 213.2 132.75 213.2 137.55 214.35 142.75 215.25 147.6 214.35 L147.9 214.45 148.1 215.35 Q148.05 217.2 140.5 217.2 L132.5 215.85 Q130.3 215.85 129.4 221.35 128.9 224.15 128.8 227.05 128.8 229.7 129.3 230.75 129.6 231.45 130.9 232.35 135.4 235.35 139.5 240.8 141.6 243.6 142.9 247.25 L144.75 254.1 Q151.9 280.1 159.4 280.1 L161.1 278.2 159.3 275.05 159.4 274.5 Q159.65 274.05 160.3 274.05 163.45 274.05 166.4 283.15 L170.5 297.35 Q171.15 299.2 172.0 303.2 172.75 306.9 173.55 309.0 176.2 315.6 185.0 320.75 L185.65 321.15 185.65 321.55 Q186.4 322.7 188.55 322.8 L188.5 322.95 Q196.4 328.4 215.1 343.2 233.2 357.5 238.8 363.5 L239.0 363.5 243.55 364.9 Q247.95 366.2 250.55 366.25 L271.55 364.65 272.5 362.55 Q273.7 362.55 273.85 362.85 L272.7 364.45 274.35 364.25 273.85 363.3 273.95 362.85 280.35 333.3 Q282.4 323.9 285.3 315.3 286.35 312.0 287.35 309.65 L287.15 308.2 Q287.15 306.9 288.25 302.8 289.1 299.8 289.7 298.8 L290.25 296.75 Q291.55 291.4 291.55 286.05 L293.45 267.95 Q293.7 264.05 296.0 250.05 297.8 238.5 297.85 231.8 297.85 226.6 294.45 220.0 292.9 216.95 292.05 214.8 L292.55 213.55 292.55 213.4 292.35 213.0 292.25 213.45 Q291.55 215.75 287.65 217.7 282.9 220.1 277.65 220.1 276.6 220.1 272.65 218.35 268.15 216.4 266.6 214.65 L266.6 213.75 267.55 213.5 268.05 212.6 Q268.4 212.1 269.2 211.7 268.25 212.0 267.6 212.35 L263.3 213.4 261.25 214.65 261.3 214.8 261.35 215.15 Q261.65 216.2 261.65 218.95 L261.35 222.2 Q261.15 223.5 260.5 223.5 259.95 223.5 259.6 222.95 L259.55 222.85 259.5 222.75 259.5 222.95 Q260.1 228.1 261.35 235.4 L262.45 241.6 263.75 248.45 Q267.6 250.3 272.05 260.7 272.05 262.5 266.7 268.3 L265.95 268.2 Q265.75 268.1 265.75 267.3 265.75 267.0 266.05 266.45 265.75 266.65 265.4 266.95 264.15 267.75 261.35 268.3 L260.85 268.45 260.85 268.65 Q260.85 269.6 259.05 273.1 257.15 276.8 256.5 276.85 253.7 276.8 252.05 272.55 L250.4 269.45 244.65 269.55 Q242.2 269.5 240.45 268.1 L239.25 266.8 239.2 266.55 239.25 266.2 Q239.95 264.5 248.65 262.85 250.25 264.5 249.35 265.7 251.1 265.75 253.1 264.8 L253.25 264.0 254.35 263.85 254.8 263.9 256.85 262.4 Q259.95 259.9 261.35 259.2 261.95 258.9 262.3 258.9 L263.4 259.1 261.35 249.4 261.35 249.35 261.05 248.75 261.25 248.5 Q258.0 232.1 257.75 221.85 257.25 221.25 257.0 220.1 L256.9 217.75 Q256.9 214.45 257.3 213.35 L257.9 212.2 Q258.25 209.0 259.85 209.0 L263.2 209.15 275.65 204.4 Q279.75 202.7 286.4 198.65 L292.35 195.0 290.6 191.55 Q289.4 189.4 288.7 187.3 L287.45 189.6 Q287.2 190.3 287.2 189.05 287.2 188.15 288.05 186.0 L288.15 185.65 Q287.45 183.05 287.45 180.75 287.45 179.85 287.75 179.5 288.05 179.1 288.55 179.1 L289.75 181.95 Q293.25 174.55 301.35 159.95 L301.4 159.6 Q301.95 159.1 302.55 158.7 296.85 171.55 290.6 183.7 L296.6 197.55 296.6 197.7 296.7 198.35 296.6 198.55 296.1 201.05 Q295.2 204.25 292.65 207.9 293.55 208.3 293.55 209.0 L293.25 209.25 294.1 210.5 294.25 209.15 Q294.75 206.0 296.4 201.15 L296.4 201.1 297.85 196.85 Q300.65 188.8 303.4 183.15 297.3 190.4 296.7 192.75 295.75 192.5 295.7 191.35 L295.0 191.35 294.75 187.6 Q294.75 184.65 298.9 171.35 301.6 162.75 303.05 158.75 L303.5 157.45 303.65 157.15 302.6 158.15 302.4 158.45 301.35 159.55 301.25 159.7 301.1 159.9 301.25 159.75 Q298.55 162.9 289.65 175.85 L287.35 179.2 Q281.75 187.1 280.8 187.1 L279.0 187.05 Q279.75 181.15 283.85 173.1 L286.0 169.0 293.1 157.5 293.1 157.05 Q293.1 156.25 294.95 153.05 285.4 162.45 279.1 172.25 L282.85 171.15 283.4 171.15 283.55 171.9 283.3 172.8 282.35 173.5 Q281.25 174.15 280.3 174.15 L279.0 173.8 278.8 172.75 278.35 173.4 275.9 177.6 Q275.55 177.6 275.45 177.2 283.4 161.75 296.35 150.7 L297.4 148.9 Q301.55 142.1 302.95 140.7 L303.2 140.6 Q303.4 140.6 303.4 141.45 303.4 142.1 299.85 148.55 L294.25 157.95 293.5 157.85 288.05 166.65 Q281.0 178.2 279.85 185.8 L279.75 186.15 Q279.85 186.0 280.0 185.95 284.8 181.75 291.2 172.0 294.2 167.4 296.95 164.15 L297.05 164.05 297.0 164.05 296.65 163.95 Q296.4 163.7 296.4 163.0 296.4 161.5 300.55 157.2 304.55 153.1 306.15 152.55 307.2 152.9 307.2 153.9 L302.45 168.25 Q297.9 181.95 296.25 189.7 297.4 187.55 301.0 183.05 305.55 177.3 307.0 175.95 L307.7 176.15 307.8 177.05 302.5 191.05 Q297.45 204.1 295.65 211.0 L298.85 209.85 Q301.7 209.0 304.7 208.35 307.7 208.35 310.5 224.7 L307.1 235.65 Q303.45 246.5 302.95 250.15 302.6 252.45 302.85 256.5 L302.95 262.8 Q302.45 270.05 295.65 275.0 L295.55 274.9 295.55 275.0 295.05 278.8 Q294.4 283.4 294.65 292.7 294.25 299.45 291.65 304.35 L291.45 305.3 291.45 306.4 290.15 313.0 Q292.2 339.45 293.65 348.9 295.25 359.3 298.0 368.35 L311.15 379.7 Q327.0 393.5 331.3 396.65 333.85 398.5 337.5 400.45 L337.25 399.95 337.15 397.9 Q337.25 396.7 337.7 395.65 338.6 393.5 340.5 393.5 M324.9 381.65 Q325.15 381.8 325.2 382.55 L324.2 385.35 323.05 385.25 322.95 383.35 Q322.95 382.4 324.3 381.55 L324.9 381.65 M243.35 97.05 Q241.5 98.1 239.65 98.6 L239.2 98.45 240.75 96.7 Q241.6 95.65 242.95 95.2 L243.0 95.1 242.9 95.1 Q236.55 96.4 228.55 99.35 L222.6 103.55 225.55 100.4 Q217.7 103.4 208.4 107.8 201.05 111.2 195.0 114.35 L194.1 115.3 193.5 115.2 193.35 115.3 193.15 115.35 194.25 117.65 Q194.9 118.05 193.85 118.05 191.75 118.0 190.4 116.95 182.7 121.3 177.4 125.25 L176.65 125.3 Q176.35 125.3 176.35 124.5 176.35 121.65 188.85 114.95 188.2 113.6 188.0 111.7 187.5 107.85 188.55 103.05 L182.35 109.4 172.7 123.6 Q163.1 137.6 156.75 148.25 L163.15 168.5 Q164.55 162.2 168.7 150.9 174.35 135.75 176.75 131.75 L169.2 153.55 Q165.85 163.6 163.95 171.15 L167.4 182.45 166.95 182.65 Q165.55 179.2 163.5 173.15 L163.0 175.15 162.75 175.15 Q162.45 174.4 162.45 173.65 L162.65 170.85 157.25 154.15 155.8 149.8 Q153.5 153.65 151.7 157.05 L153.35 163.5 156.75 176.6 156.95 176.35 157.0 177.6 Q159.4 186.4 161.1 191.8 L163.6 196.55 163.5 196.85 163.45 196.85 161.85 194.15 162.85 197.05 162.95 197.15 162.75 197.55 Q160.2 193.0 158.05 187.4 L156.9 185.45 156.9 185.4 156.85 185.35 156.85 185.45 Q156.85 188.5 158.95 199.75 160.9 210.05 161.55 212.0 160.1 210.4 158.35 203.1 L157.65 199.95 Q155.65 190.5 155.65 186.5 L155.7 183.15 152.35 177.0 Q150.9 182.9 151.9 184.55 152.1 185.35 150.85 186.05 L150.55 184.8 Q150.55 181.55 152.1 176.55 L147.65 167.8 Q139.65 151.25 136.7 138.7 L137.05 138.7 Q140.35 151.15 148.45 167.55 L152.45 175.4 Q152.9 173.9 153.5 172.35 L153.35 171.75 150.6 158.7 150.4 158.75 150.5 158.35 147.55 146.5 147.3 145.55 147.3 146.6 147.1 146.75 Q146.2 143.55 146.2 142.3 L146.3 141.9 146.85 141.9 Q147.65 141.9 151.5 156.3 L155.4 148.5 151.75 136.45 Q150.6 135.55 150.55 132.3 L150.6 132.1 150.3 130.3 150.4 129.75 150.75 129.75 150.95 125.35 150.85 125.1 150.8 125.3 149.95 129.65 148.15 137.45 149.15 137.8 149.3 138.95 Q149.95 139.25 148.8 139.25 L147.7 139.2 147.45 140.25 Q147.3 140.25 147.1 140.7 L145.45 139.4 145.5 138.7 Q140.8 137.15 135.35 131.3 129.0 124.7 128.15 121.3 L128.95 121.0 Q129.35 121.0 136.1 124.8 143.25 128.85 147.05 131.65 L152.4 110.55 Q153.65 110.45 153.5 115.65 L152.95 123.05 152.95 133.65 154.25 131.25 155.2 131.25 Q155.15 136.5 153.0 136.8 L156.3 146.85 Q164.65 130.8 174.55 117.15 167.15 124.25 160.8 128.9 L159.4 130.9 158.4 130.8 Q158.1 130.2 158.1 129.8 158.1 128.8 160.8 124.7 163.6 120.5 164.7 120.05 L165.4 120.15 Q165.6 120.3 165.6 121.0 L164.5 123.3 168.45 119.35 168.3 116.5 Q168.3 114.75 171.8 106.45 174.55 99.65 175.75 97.4 L175.85 97.05 175.65 97.25 Q171.3 102.3 166.1 111.85 160.5 122.25 156.8 126.85 156.35 127.65 156.35 126.4 156.3 123.45 167.95 106.35 178.9 90.0 183.0 85.9 L183.8 86.15 184.05 86.85 Q184.05 87.45 182.15 90.7 L177.75 98.15 Q171.65 109.1 170.3 117.6 L171.3 116.65 Q186.5 101.85 192.45 95.1 193.5 95.65 193.5 96.5 L191.75 100.85 Q189.95 105.35 189.95 108.2 189.95 110.2 191.45 112.5 L191.95 113.25 195.35 111.55 195.55 111.3 195.55 111.25 Q197.85 107.8 203.8 101.6 L205.3 100.05 207.7 97.6 209.25 96.1 Q220.2 85.35 223.4 80.95 L224.05 81.1 Q224.25 81.15 224.25 81.95 224.25 83.95 209.2 98.8 207.55 101.25 199.85 109.35 L206.6 106.2 209.6 104.85 209.6 104.2 Q209.6 102.0 220.2 92.1 229.65 83.2 232.85 81.1 L233.6 81.35 233.7 81.15 233.85 81.9 228.15 88.6 Q221.6 95.9 218.0 101.15 L229.0 96.75 Q238.85 86.5 240.05 86.5 241.0 86.5 241.25 87.4 L233.15 95.25 Q240.3 92.65 242.5 92.7 245.35 92.65 245.35 94.8 245.35 95.8 243.35 97.05 M253.7 87.9 Q252.75 87.75 252.45 87.4 252.45 85.55 253.55 85.45 254.05 86.1 254.15 86.85 L253.7 87.9 M257.4 94.45 L258.1 94.3 259.2 94.4 Q259.4 94.4 259.4 95.2 L259.3 95.8 Q258.55 96.2 258.55 96.3 L257.55 96.25 Q257.25 96.2 257.25 95.45 L257.4 94.45 M207.2 112.55 L208.2 114.05 Q210.2 113.15 212.7 112.2 L221.6 108.8 221.65 108.8 229.95 106.05 Q235.0 104.55 242.9 102.9 253.6 100.55 258.55 100.6 L260.05 100.85 Q267.5 99.5 278.9 99.5 289.2 99.5 292.45 102.0 L292.45 102.75 Q292.75 103.05 291.65 103.05 L278.75 102.05 262.5 102.6 261.45 102.95 Q259.4 103.2 256.95 104.55 L256.6 104.7 256.95 104.7 267.25 105.0 Q269.5 105.35 274.65 106.85 L275.1 107.7 Q274.5 109.15 271.9 109.2 L264.5 109.2 263.4 109.55 264.35 109.65 267.6 109.65 Q270.25 109.75 271.7 111.05 L271.95 111.75 Q271.9 112.75 269.1 113.5 265.9 114.3 265.3 115.25 L266.55 116.1 Q267.5 115.15 271.9 115.05 L277.55 115.05 285.15 118.45 282.75 118.2 Q282.2 117.8 281.55 117.65 L268.15 117.15 Q269.3 118.0 269.5 118.55 269.3 119.35 268.55 119.35 265.55 119.35 264.25 117.3 263.4 116.15 263.4 115.05 263.4 114.6 264.0 113.85 264.75 112.7 266.1 112.3 L266.1 112.15 258.45 111.5 256.4 109.95 Q257.15 108.0 260.7 107.7 L270.6 107.3 Q265.25 106.05 260.65 106.05 257.1 106.05 253.7 107.05 L252.45 107.0 Q252.1 106.9 252.1 106.2 252.05 105.85 252.15 105.55 L250.7 105.85 Q250.5 106.45 250.5 105.25 250.5 104.45 251.2 103.85 238.25 105.75 228.5 108.85 L224.35 110.25 233.95 115.95 Q241.35 120.4 248.05 123.1 L261.25 127.7 Q271.15 131.3 271.15 132.65 L272.25 133.85 Q273.4 134.8 273.4 135.25 273.4 136.95 272.45 137.4 L266.45 137.8 266.75 138.75 Q266.75 139.95 257.25 140.45 246.9 140.4 230.6 138.3 L229.6 138.2 230.45 138.55 Q233.1 139.65 235.95 141.4 239.2 142.7 245.8 142.8 249.55 142.8 253.6 144.3 257.65 145.8 257.65 147.2 257.65 148.0 257.25 148.05 L253.7 148.25 244.7 146.85 245.25 147.7 244.7 147.4 244.6 148.95 266.85 162.6 Q267.9 159.2 271.1 153.9 276.0 145.65 278.55 145.55 271.65 156.95 268.1 163.4 L271.75 165.6 Q272.5 163.15 274.45 160.25 277.2 156.1 280.35 154.35 L280.7 154.3 Q280.95 154.35 281.0 155.15 L277.4 159.0 Q274.0 162.55 273.2 166.5 L273.85 166.9 Q273.7 167.85 272.75 167.85 265.1 167.85 244.4 158.25 L244.15 158.15 244.25 158.3 244.25 158.55 Q245.05 158.75 244.15 158.8 L243.2 158.15 241.95 157.15 241.85 157.35 240.15 156.55 240.25 156.3 Q229.65 151.2 222.25 146.5 L223.45 149.0 Q226.45 154.6 230.15 158.45 L229.7 159.2 Q223.8 155.85 219.45 150.7 L212.9 141.8 213.05 141.6 212.2 140.6 Q199.95 138.1 195.9 136.8 L196.4 136.2 210.95 138.5 210.5 137.2 210.65 136.8 211.2 136.8 214.15 138.95 229.2 140.85 229.2 140.45 Q216.2 135.05 213.25 132.15 213.4 130.9 214.5 130.9 217.45 130.9 225.4 134.5 236.9 138.05 256.95 138.05 L261.4 137.6 262.55 137.5 261.45 137.25 Q257.15 136.45 249.45 134.35 L235.55 130.4 Q225.1 126.85 216.85 121.5 213.65 119.4 211.45 117.4 219.25 123.95 237.45 129.8 246.85 132.85 256.85 135.0 265.35 136.8 268.3 136.8 L272.7 136.6 272.75 135.45 Q272.75 132.75 262.5 129.25 259.6 128.2 249.25 125.35 244.8 124.05 234.4 118.2 226.2 113.55 222.9 110.8 217.1 112.85 210.0 116.1 L199.85 120.7 199.1 120.85 Q198.85 120.8 198.85 120.05 198.85 118.05 208.15 114.05 L207.2 112.55 M234.05 117.15 Q243.6 122.35 247.8 123.5 241.8 121.15 234.3 116.65 226.45 111.9 223.8 110.45 L223.45 110.6 Q226.0 112.7 234.05 117.15 M217.35 100.15 Q217.35 98.55 221.15 93.7 219.05 95.25 215.45 99.1 L210.15 104.6 217.65 101.35 Q217.35 101.05 217.35 100.15 M218.05 141.8 L218.75 142.35 218.55 141.9 218.05 141.8 M213.25 141.45 L219.4 148.85 Q223.35 153.8 226.3 156.0 222.1 149.2 220.1 145.1 L214.45 141.05 212.8 140.7 213.1 141.55 213.25 141.45 M220.9 143.9 Q230.1 150.45 232.95 151.7 L238.1 153.75 238.3 152.75 239.0 152.65 241.15 154.25 241.6 153.2 242.75 150.35 Q238.4 147.55 234.75 145.0 L227.3 143.6 219.95 142.2 220.9 143.9 M177.65 145.0 Q178.3 143.6 181.0 139.65 184.6 134.3 185.65 133.65 L185.95 133.5 Q186.2 133.55 186.2 134.3 186.2 135.55 183.3 139.95 L182.55 141.05 Q179.25 146.75 175.8 154.8 L168.35 171.55 168.05 171.55 Q172.1 160.0 174.7 154.15 176.9 148.85 179.35 144.85 L177.6 146.25 Q177.4 146.9 177.4 145.65 L177.65 145.0 M177.4 144.9 L172.5 154.75 171.8 154.75 Q171.55 155.25 171.55 154.05 171.55 151.15 175.3 143.6 179.05 136.15 180.35 136.2 L180.6 136.05 Q180.8 136.0 180.8 136.75 180.8 137.9 177.4 144.9 M192.0 134.8 Q192.0 135.3 189.85 138.05 L182.65 150.4 Q176.4 162.1 173.75 171.55 L173.3 171.7 Q173.05 172.15 173.05 170.9 173.05 165.45 183.1 148.15 L186.9 141.7 187.5 140.7 186.45 141.45 185.3 140.0 Q185.3 139.45 186.55 139.45 L188.2 136.95 Q189.95 134.25 191.15 133.8 L191.75 134.0 Q193.85 130.8 195.2 129.3 L192.0 134.4 192.0 134.8 M186.55 161.15 L186.7 160.8 187.0 162.9 Q195.8 146.1 204.5 140.7 196.75 148.4 187.0 164.2 L186.55 164.1 186.55 161.15 M179.4 168.25 L179.9 163.4 180.25 163.4 179.9 166.75 180.05 167.15 180.2 166.85 Q183.35 158.65 189.65 149.05 196.05 139.2 198.75 138.7 194.25 144.25 188.6 153.9 L179.9 168.35 179.4 168.25 M199.3 197.05 L199.4 197.05 200.55 196.7 201.85 196.9 Q201.85 197.25 202.2 198.0 203.1 198.4 204.15 199.1 L212.1 203.6 Q221.6 208.15 233.95 209.55 236.5 208.1 243.35 208.1 247.8 208.1 247.8 212.5 248.7 214.85 248.75 218.25 248.45 225.2 247.15 226.35 244.9 222.35 244.9 218.45 L244.9 217.85 240.35 213.95 238.25 214.25 234.75 213.55 232.6 213.5 236.6 216.7 Q235.9 218.45 233.3 220.0 231.05 221.2 228.65 221.55 219.9 224.7 210.45 224.7 208.45 224.7 200.3 221.75 192.45 218.8 192.45 218.6 192.45 216.5 202.1 214.25 209.9 212.35 216.2 212.05 L211.2 211.4 Q199.25 209.65 192.05 207.45 187.5 210.05 184.65 210.05 L183.25 210.05 181.25 210.3 179.15 210.3 Q178.75 210.4 178.75 209.4 L178.85 208.9 178.85 208.85 179.05 208.55 Q179.05 208.3 181.1 207.3 L187.5 202.5 Q189.9 200.95 192.6 200.0 192.95 199.6 193.75 199.6 L193.9 199.6 193.95 199.6 Q196.8 198.15 198.6 197.35 198.85 197.05 199.3 197.05 M289.65 132.3 L289.0 132.95 Q288.25 132.85 288.05 132.55 L288.05 131.9 288.55 131.75 289.65 132.3 M290.85 139.55 Q289.0 139.65 287.9 139.05 288.85 141.55 291.5 146.5 L291.55 146.6 291.55 146.55 291.65 146.4 Q293.65 144.25 296.25 142.65 L296.5 142.6 Q296.7 142.65 296.7 143.4 296.7 144.15 292.6 148.55 L292.65 148.7 292.1 149.75 291.7 149.5 289.65 151.7 Q289.3 152.35 289.3 151.1 289.3 149.85 290.2 148.4 283.9 143.85 281.9 141.55 L281.9 140.55 282.85 140.25 Q284.05 140.25 285.4 141.6 286.9 143.05 287.6 143.3 288.05 143.9 288.1 142.65 288.1 141.65 287.25 139.95 286.35 138.15 286.4 137.4 286.35 136.55 286.7 136.45 L287.8 136.1 Q286.7 134.35 279.75 129.35 273.25 124.7 272.25 122.1 L272.4 121.7 Q272.5 121.55 273.15 121.55 277.4 121.5 284.6 129.9 288.25 134.05 291.0 138.25 L290.85 139.55 M247.35 109.0 Q249.05 109.0 249.0 113.0 249.0 114.3 245.9 114.55 245.05 114.25 245.1 113.15 245.05 110.85 245.15 110.55 245.55 109.0 247.35 109.0 M243.1 146.5 L239.65 145.9 243.65 148.35 244.25 147.2 243.1 146.5 M256.05 196.75 Q256.05 197.65 255.45 200.25 254.9 202.9 254.9 204.0 L254.3 204.5 253.75 204.25 Q254.05 200.35 254.65 196.4 L255.7 196.3 255.9 196.15 256.05 196.75 M247.5 196.1 Q248.55 198.4 248.55 200.35 L248.3 206.2 247.95 206.35 Q247.35 204.6 247.15 202.0 L246.55 198.05 246.55 196.2 247.5 196.1 M244.25 151.25 L242.75 155.4 249.6 157.85 Q259.75 161.45 264.95 163.7 253.15 157.0 244.25 151.25 M287.05 184.65 L287.45 185.8 287.15 186.55 Q285.7 185.3 285.7 184.95 L285.75 184.35 285.95 184.65 285.95 184.55 287.05 184.65 M293.25 197.55 L293.6 197.35 293.55 197.25 293.25 197.55 M140.45 132.95 Q143.5 135.15 146.0 136.45 L146.85 132.85 146.2 132.85 Q144.25 132.85 140.1 130.7 L134.3 127.3 Q135.25 129.3 140.45 132.95 M136.3 133.65 Q137.3 133.6 139.25 139.95 L139.0 140.25 Q137.85 139.85 137.15 138.7 L136.6 137.8 135.0 134.3 Q135.4 133.6 136.3 133.65 M131.55 139.65 L132.3 139.55 Q134.0 139.55 136.35 148.25 L136.1 149.75 Q134.8 148.55 133.7 145.45 132.4 141.85 131.4 140.45 L131.55 139.65 M132.4 152.0 L133.2 151.45 133.65 151.5 133.75 152.35 Q133.75 154.15 133.15 155.55 135.35 163.35 143.9 179.25 152.85 196.1 157.85 203.2 L157.85 203.25 Q152.25 199.0 142.2 179.35 134.7 164.65 132.65 156.3 131.65 157.75 129.8 158.75 L130.25 159.4 Q130.6 159.9 130.6 160.6 130.6 161.25 130.2 161.0 129.7 160.75 129.7 161.4 129.7 164.6 133.3 175.95 L137.25 188.65 136.55 189.1 Q134.85 187.15 130.95 179.65 L130.8 179.65 133.5 188.85 Q131.1 183.6 128.4 176.65 125.55 169.5 125.6 168.45 L125.6 167.75 126.6 167.15 Q132.0 178.2 134.6 182.65 L130.5 170.2 Q128.25 162.7 128.0 157.35 129.7 156.0 131.2 153.55 L131.95 152.45 131.85 150.9 Q131.85 148.3 133.05 148.05 132.3 149.85 132.3 151.0 L132.4 152.0 M128.9 183.25 L129.7 183.15 132.9 189.1 Q135.95 195.15 139.0 202.55 L138.55 203.5 Q136.75 201.15 132.75 192.95 128.8 184.9 128.8 183.85 L128.9 183.25 M155.8 180.9 L153.5 172.5 152.6 175.75 155.75 181.7 155.8 180.9 M153.9 203.55 L157.85 213.3 160.55 220.75 160.1 221.05 Q152.9 206.0 152.95 205.1 L153.2 203.55 153.9 203.55 M147.3 205.55 Q148.35 205.55 153.65 219.3 158.75 232.5 158.75 233.2 L158.3 233.45 Q154.9 228.8 151.9 220.1 148.4 209.9 146.3 206.1 146.7 205.55 147.3 205.55 M138.55 226.85 Q139.75 226.7 147.8 226.7 L147.45 228.15 Q147.45 228.85 151.1 234.55 152.5 237.1 153.5 239.6 L153.9 239.4 154.25 239.3 Q154.45 239.4 154.45 240.2 L154.05 241.05 Q155.15 244.35 155.45 247.5 155.9 252.25 160.8 266.75 L160.65 268.6 Q160.0 270.05 157.65 270.1 155.95 270.1 152.75 261.6 150.15 254.9 148.75 248.9 148.1 246.5 142.45 238.45 137.25 231.25 137.25 227.9 137.25 226.9 138.55 226.85 M148.95 232.45 Q147.05 229.7 139.7 229.15 140.8 231.65 145.5 238.6 149.9 245.15 151.0 248.15 153.25 253.9 157.65 267.45 L158.65 267.45 Q158.85 268.0 158.85 266.75 154.65 252.95 153.7 247.5 L153.05 242.95 153.0 242.55 Q152.1 243.8 152.1 245.65 L151.85 246.4 Q150.55 245.0 150.55 243.6 150.55 243.2 151.6 241.6 L152.45 240.45 151.1 237.8 150.0 235.05 148.95 232.45 M285.95 206.5 Q282.85 206.6 275.95 209.1 L278.45 208.65 283.4 209.05 Q288.15 209.25 290.3 210.05 L289.4 208.8 Q288.9 207.65 288.4 207.2 L290.25 207.15 Q290.55 206.1 291.45 204.4 L290.35 203.75 288.75 204.9 288.3 205.75 288.15 205.2 285.95 206.5 M288.75 213.05 L287.1 213.05 Q284.9 213.2 284.05 212.6 283.0 211.9 277.0 211.9 L271.55 213.4 270.75 213.85 Q273.7 214.7 277.2 217.2 284.7 217.2 287.8 214.15 L288.75 213.05 M308.1 224.5 Q304.75 210.55 303.9 210.55 L295.4 213.3 Q297.65 219.1 300.5 231.9 300.5 235.65 298.85 250.6 L296.4 269.35 297.0 268.75 Q299.6 266.2 299.75 260.25 299.8 252.85 300.5 248.45 301.3 243.85 304.8 234.0 L308.1 224.5 M244.95 214.55 L245.1 214.7 245.2 214.05 244.95 214.55 M260.05 210.85 L260.05 210.9 260.2 210.85 260.05 210.85 M266.6 265.45 L267.7 263.75 Q269.65 261.15 269.65 260.65 269.65 258.75 264.5 252.95 L265.9 261.05 Q265.9 261.45 264.15 263.0 267.05 262.8 266.65 265.05 L266.6 265.45 M252.0 290.95 Q253.35 291.65 254.15 292.35 L255.1 292.2 Q256.15 292.2 258.75 293.15 260.7 293.15 262.2 291.75 263.75 290.4 265.15 290.4 266.05 290.4 270.8 292.95 L275.2 295.45 275.6 295.25 277.0 296.35 Q277.0 299.85 271.25 300.8 L257.75 301.45 241.6 302.6 Q232.7 304.2 228.1 308.55 L227.3 308.05 227.7 307.15 227.3 306.9 Q229.65 304.25 238.25 297.05 247.15 289.55 248.3 289.55 249.3 289.55 252.0 290.95 M255.65 294.6 L255.4 294.5 Q255.1 294.9 254.2 294.9 L248.3 291.75 238.4 299.5 235.6 301.8 Q244.35 298.95 261.9 298.95 268.35 298.95 272.15 297.2 L273.25 296.65 269.6 294.9 265.35 292.55 Q264.7 292.55 262.85 293.9 261.0 295.25 259.6 295.25 L255.65 294.6 M223.7 214.85 Q212.8 214.85 205.7 216.35 L199.7 218.05 198.85 218.35 203.85 220.15 209.05 221.75 224.6 220.7 Q226.6 220.3 229.9 218.75 229.05 217.6 226.8 216.2 224.7 214.85 223.7 214.85 M194.55 205.95 Q194.35 206.1 194.1 206.2 L194.85 206.35 194.55 205.95 M172.55 234.75 L173.2 229.6 173.75 229.6 Q174.0 231.1 173.6 234.85 173.6 238.35 174.9 239.95 176.35 241.8 182.85 246.2 L182.85 246.5 182.55 247.05 Q175.95 244.15 173.9 240.9 172.55 238.85 172.55 234.75 M231.15 261.05 Q231.9 259.3 232.8 259.25 L233.4 259.35 Q233.6 259.4 233.6 260.2 233.6 260.95 232.45 264.0 232.4 265.3 233.35 266.55 L235.1 269.35 234.55 270.25 Q230.45 268.05 230.45 264.0 230.45 262.6 231.15 261.05 M170.05 383.5 Q168.8 383.05 168.55 382.55 169.0 381.35 170.05 380.9 L170.75 381.05 Q171.0 381.1 171.0 381.9 L170.95 382.6 170.05 383.5 M270.15 314.8 L270.35 315.1 270.5 314.9 270.5 315.5 Q270.5 316.45 264.15 319.2 257.35 322.05 253.85 322.05 251.6 322.05 250.1 319.95 249.05 318.45 249.05 317.65 L249.15 317.25 249.1 317.05 249.8 316.95 Q250.4 316.95 251.5 318.4 252.6 319.85 253.4 319.85 254.65 319.85 260.1 317.25 267.5 314.6 269.5 314.6 270.1 314.6 270.15 314.8 M311.25 389.35 L300.15 375.1 Q302.1 380.55 304.45 385.5 L306.65 386.65 311.25 389.35 M321.95 400.7 Q321.9 399.0 323.6 398.4 L324.6 398.55 324.75 399.85 Q324.7 401.9 323.2 401.95 L322.3 401.65 Q321.9 401.1 321.95 400.7 M158.95 401.05 Q157.35 401.0 156.95 400.0 L156.95 398.85 Q156.95 394.65 159.4 394.65 161.25 394.6 161.35 397.65 161.35 398.6 160.75 399.7 160.05 401.0 158.95 401.05" fill="#070a07" fill-rule="evenodd" stroke="none"/>
  </g>
  <defs>
    <radialGradient cx="0" cy="0" gradientTransform="matrix(0.4395, 0.08, -0.073, 0.401, 242.2, 308.55)" gradientUnits="userSpaceOnUse" id="gradient0" r="819.2" spreadMethod="pad">
      <stop offset="0.0" stop-color="#a9a94e"/>
      <stop offset="0.3803921568627451" stop-color="#223322"/>
      <stop offset="0.8196078431372549" stop-color="#223325"/>
      <stop offset="1.0" stop-color="#313546"/>
    </radialGradient>
    <radialGradient cx="0" cy="0" gradientTransform="matrix(0.4586, 0.0, 0.0, 0.4586, 226.85, 187.75)" gradientUnits="userSpaceOnUse" id="gradient1" r="819.2" spreadMethod="pad">
      <stop offset="0.0" stop-color="#a9a94e"/>
      <stop offset="0.3803921568627451" stop-color="#223322"/>
      <stop offset="0.8196078431372549" stop-color="#223325"/>
      <stop offset="1.0" stop-color="#313546"/>
    </radialGradient>
    <radialGradient cx="0" cy="0" gradientTransform="matrix(0.1789, 0.0, 0.0, 0.1789, 235.0, 163.95)" gradientUnits="userSpaceOnUse" id="gradient2" r="819.2" spreadMethod="pad">
      <stop offset="0.0" stop-color="#4e4732"/>
      <stop offset="0.6901960784313725" stop-color="#1e282f"/>
      <stop offset="1.0" stop-color="#0a0e10"/>
    </radialGradient>
    <radialGradient cx="0" cy="0" gradientTransform="matrix(0.1228, 0.0, 0.0, 0.2166, 238.6, 231.3)" gradientUnits="userSpaceOnUse" id="gradient3" r="819.2" spreadMethod="pad">
      <stop offset="0.0" stop-color="#000000" stop-opacity="0.5803922"/>
      <stop offset="1.0" stop-color="#000000" stop-opacity="0.0627451"/>
    </radialGradient>
  </defs>
</svg>
