<?xml version="1.0" encoding="UTF-8" standalone="no"?>
<svg xmlns:ffdec="https://www.free-decompiler.com/flash" xmlns:xlink="http://www.w3.org/1999/xlink" ffdec:objectType="shape" height="13.05px" width="119.55px" xmlns="http://www.w3.org/2000/svg">
  <g transform="matrix(1.0, 0.0, 0.0, 1.0, 59.75, 6.5)">
    <path d="M38.55 -4.95 L38.55 -2.95 38.55 -4.95 44.2 -6.5 Q52.2 -6.5 53.6 -5.55 54.75 -4.8 57.6 -4.95 L59.8 -4.95 58.55 -3.55 Q54.45 0.5 44.5 0.5 41.35 -1.75 38.55 -2.95 L35.9 -3.95 36.9 -4.55 38.55 -4.95 M-26.75 -2.6 Q-25.4 -2.6 -22.55 -0.8 -19.6 1.05 -18.5 2.6 -22.9 4.65 -25.5 5.2 -32.05 6.55 -46.2 6.55 -47.05 6.55 -53.1 4.45 L-59.75 2.05 -58.65 1.65 -50.65 -0.6 Q-41.25 -2.6 -26.75 -2.6" fill="#ffffff" fill-rule="evenodd" stroke="none"/>
  </g>
</svg>
