<?xml version="1.0" encoding="UTF-8" standalone="no"?>
<svg xmlns:ffdec="https://www.free-decompiler.com/flash" xmlns:xlink="http://www.w3.org/1999/xlink" ffdec:objectType="shape" height="10.7px" width="31.2px" xmlns="http://www.w3.org/2000/svg">
  <g transform="matrix(1.0, 0.0, 0.0, 1.0, 15.35, 5.65)">
    <path d="M2.15 -2.2 L3.65 -1.7 5.75 -1.0 6.95 0.05 6.95 0.1 Q7.35 0.75 7.4 1.75 7.4 2.7 6.85 3.5 6.35 4.3 5.4 4.7 L3.25 5.05 Q1.35 5.05 0.3 4.15 -0.8 3.25 -0.95 1.5 L-0.85 1.15 -0.55 1.0 1.25 0.8 1.55 0.9 1.75 1.2 Q1.85 1.9 2.25 2.25 2.6 2.55 3.3 2.55 L4.3 2.3 4.6 1.8 4.5 1.5 4.05 1.3 2.6 0.9 Q1.0 0.45 0.35 -0.15 -0.7 -1.0 -0.65 -2.3 -0.7 -3.15 -0.2 -3.85 0.3 -4.6 1.2 -4.95 L3.15 -5.3 Q5.05 -5.3 6.05 -4.45 7.05 -3.6 7.1 -2.1 L7.0 -1.75 6.7 -1.6 4.85 -1.55 Q4.65 -1.55 4.5 -1.65 4.35 -1.75 4.35 -1.95 L4.0 -2.6 4.0 -2.65 3.15 -2.85 2.15 -2.6 2.05 -2.45 2.15 -2.25 2.15 -2.2 M7.85 -2.3 Q7.8 -3.15 8.3 -3.85 8.75 -4.6 9.65 -4.95 L9.7 -4.95 11.65 -5.3 Q13.55 -5.3 14.55 -4.45 15.55 -3.6 15.6 -2.1 L15.5 -1.75 15.15 -1.6 13.35 -1.55 13.0 -1.65 Q12.85 -1.75 12.85 -1.95 L12.5 -2.6 12.5 -2.65 11.65 -2.85 10.65 -2.6 10.55 -2.45 10.65 -2.25 10.65 -2.2 Q10.95 -2.0 12.15 -1.7 L14.25 -1.0 Q15.0 -0.65 15.45 0.05 L15.45 0.1 Q15.85 0.75 15.85 1.75 15.85 2.7 15.35 3.5 14.85 4.3 13.9 4.7 L11.75 5.05 Q9.8 5.05 8.75 4.15 7.7 3.25 7.5 1.5 L7.65 1.15 Q7.75 1.0 7.95 1.0 L9.7 0.8 10.05 0.9 10.2 1.2 Q10.35 1.9 10.75 2.25 L11.75 2.55 12.8 2.3 13.1 1.8 13.0 1.5 13.0 1.55 12.55 1.3 11.1 0.9 Q9.45 0.45 8.85 -0.15 7.8 -1.0 7.85 -2.3 M-11.0 -4.8 L-9.8 -0.35 -8.6 -4.8 -8.45 -5.1 -8.15 -5.15 -5.4 -5.15 -5.05 -5.05 -4.95 -4.7 -4.95 4.45 -5.05 4.75 -5.4 4.9 -7.1 4.9 -7.45 4.75 -7.6 4.45 -7.6 1.05 -8.5 4.55 -8.65 4.8 -8.95 4.9 -10.7 4.9 -11.0 4.8 -11.15 4.55 -12.05 1.1 -12.05 4.45 -12.15 4.75 -12.5 4.9 -14.2 4.9 -14.55 4.75 -14.7 4.45 -14.7 -4.7 -14.55 -5.05 -14.2 -5.15 -11.45 -5.15 -11.2 -5.1 -11.0 -4.8 M-1.45 -5.05 L-1.3 -4.7 -1.3 4.45 -1.45 4.75 -1.8 4.9 -3.65 4.9 -3.95 4.75 -4.1 4.45 -4.1 -4.7 -3.95 -5.05 -3.65 -5.15 -1.8 -5.15 -1.45 -5.05" fill="#000000" fill-rule="evenodd" stroke="none"/>
    <path d="M2.5 -5.65 Q4.4 -5.65 5.4 -4.8 6.4 -3.95 6.5 -2.45 L6.35 -2.1 6.05 -1.95 4.2 -1.9 3.9 -2.0 3.7 -2.3 3.35 -3.0 2.5 -3.2 1.5 -2.95 1.4 -2.8 1.55 -2.6 Q1.85 -2.35 3.0 -2.05 L5.15 -1.35 5.1 -1.4 6.3 -0.3 Q6.7 0.4 6.75 1.4 6.75 2.35 6.2 3.15 L6.25 3.15 Q5.7 3.95 4.8 4.35 L2.6 4.7 Q0.7 4.7 -0.35 3.8 -1.45 2.85 -1.6 1.15 L-1.5 0.8 Q-1.4 0.65 -1.2 0.65 L0.6 0.45 0.9 0.55 1.1 0.85 Q1.2 1.55 1.6 1.9 L2.65 2.2 3.7 1.95 3.95 1.45 3.9 1.15 3.9 1.2 Q3.75 1.05 3.45 0.95 L2.0 0.55 Q0.35 0.1 -0.3 -0.5 -1.3 -1.35 -1.3 -2.65 -1.3 -3.5 -0.8 -4.2 L0.55 -5.35 2.5 -5.65 M9.05 -5.35 L11.0 -5.65 Q12.9 -5.65 13.9 -4.8 14.9 -3.95 15.0 -2.45 L14.85 -2.1 14.55 -1.95 12.7 -1.9 12.35 -2.0 Q12.2 -2.1 12.2 -2.3 L11.85 -3.0 11.0 -3.2 10.0 -2.95 9.9 -2.8 10.0 -2.6 Q10.3 -2.35 11.5 -2.05 L13.6 -1.35 13.6 -1.4 14.8 -0.3 Q15.2 0.4 15.25 1.4 15.25 2.35 14.7 3.15 14.2 3.95 13.25 4.35 L11.1 4.7 Q9.2 4.7 8.15 3.8 7.05 2.85 6.9 1.15 L7.0 0.8 Q7.1 0.65 7.3 0.65 L9.1 0.45 9.4 0.55 9.6 0.85 Q9.7 1.55 10.1 1.9 10.45 2.2 11.15 2.2 L12.15 1.95 12.45 1.45 12.4 1.2 12.35 1.15 11.9 0.95 10.45 0.55 Q8.85 0.1 8.2 -0.5 7.15 -1.35 7.2 -2.65 7.2 -3.5 7.7 -4.2 8.15 -4.95 9.05 -5.35 M-14.85 -5.55 L-12.1 -5.55 -11.8 -5.45 -11.65 -5.15 -10.45 -0.7 -9.25 -5.15 -9.1 -5.45 -8.8 -5.55 -6.05 -5.55 -5.7 -5.4 -5.55 -5.05 -5.55 4.05 -5.7 4.4 -6.05 4.55 -7.75 4.55 -8.1 4.4 -8.25 4.05 -8.25 0.7 -9.1 4.2 -9.3 4.45 -9.55 4.55 -11.35 4.55 -11.65 4.45 -11.8 4.2 -12.65 0.75 -12.65 4.05 -12.8 4.4 -13.15 4.55 -14.85 4.55 -15.2 4.4 -15.35 4.05 -15.35 -5.05 -15.2 -5.4 -14.85 -5.55 M-2.45 -5.55 L-2.1 -5.4 -1.95 -5.05 -1.95 4.05 -2.1 4.4 -2.45 4.55 -4.25 4.55 -4.6 4.4 -4.75 4.05 -4.75 -5.05 -4.6 -5.4 -4.25 -5.55 -2.45 -5.55" fill="#000000" fill-rule="evenodd" stroke="none"/>
  </g>
</svg>
