<?xml version="1.0" encoding="UTF-8" standalone="no"?>
<svg xmlns:ffdec="https://www.free-decompiler.com/flash" xmlns:xlink="http://www.w3.org/1999/xlink" ffdec:objectType="shape" height="67.9px" width="519.95px" xmlns="http://www.w3.org/2000/svg">
  <g transform="matrix(1.0, 0.0, 0.0, 1.0, 274.85, 41.1)">
    <path d="M1.4 -33.4 L1.4 24.85 Q1.4 26.25 -0.15 26.25 L-2.05 26.25 Q-2.65 26.1 -3.1 25.65 L-42.0 -27.75 -42.0 19.2 -35.8 19.9 Q-34.3 19.9 -34.3 21.25 L-34.3 24.1 Q-34.3 25.5 -35.75 25.5 L-55.3 25.5 Q-56.75 25.5 -56.75 24.1 L-56.75 21.25 Q-56.75 19.9 -55.3 19.9 L-48.6 19.2 -48.6 -33.35 -56.25 -34.1 Q-57.55 -34.1 -57.55 -35.5 L-57.55 -38.3 Q-57.55 -39.7 -56.15 -39.7 L-39.55 -39.7 Q-38.8 -39.55 -38.45 -39.2 L-5.2 6.65 -5.2 -33.4 -11.75 -34.1 Q-13.05 -34.1 -13.05 -35.5 L-13.05 -38.3 Q-13.05 -39.7 -11.65 -39.7 L7.95 -39.7 Q9.4 -39.7 9.4 -38.3 L9.4 -35.5 Q9.4 -34.1 8.05 -34.1 L1.4 -33.4 M63.5 -34.1 Q62.2 -34.1 62.2 -35.5 L62.2 -38.3 Q62.2 -39.7 63.6 -39.7 L80.2 -39.7 Q80.95 -39.55 81.3 -39.2 L114.55 6.65 114.55 -33.4 108.0 -34.1 Q106.7 -34.1 106.7 -35.5 L106.7 -38.3 Q106.7 -39.7 108.1 -39.7 L127.7 -39.7 Q129.15 -39.7 129.15 -38.3 L129.15 -35.5 Q129.15 -34.1 127.8 -34.1 L121.15 -33.4 121.15 24.85 Q121.15 26.25 119.6 26.25 L117.7 26.25 116.65 25.65 77.75 -27.75 77.75 19.2 83.95 19.9 Q85.45 19.9 85.45 21.25 L85.45 24.1 Q85.45 25.5 84.0 25.5 L64.45 25.5 Q63.0 25.5 63.0 24.1 L63.0 21.25 Q63.0 19.9 64.45 19.9 L71.15 19.2 71.15 -33.35 63.5 -34.1 M182.3 -34.5 Q181.0 -34.5 181.0 -35.85 L181.0 -38.3 Q181.0 -39.7 182.4 -39.7 L207.45 -39.7 Q208.95 -39.7 208.95 -38.3 L208.95 -35.85 Q208.95 -34.5 207.45 -34.5 L201.45 -33.95 215.4 -7.75 230.0 -33.95 224.1 -34.5 Q222.8 -34.5 222.8 -35.85 L222.8 -38.3 Q222.8 -39.7 224.2 -39.7 L243.65 -39.7 Q245.1 -39.7 245.1 -38.3 L245.1 -35.85 Q245.1 -34.5 243.75 -34.5 L236.9 -33.8 218.35 -1.95 218.45 -2.0 218.45 19.55 225.8 20.2 Q227.35 20.2 227.35 21.65 L227.35 24.1 Q227.35 25.5 225.9 25.5 L200.75 25.5 Q199.35 25.5 199.35 24.1 L199.35 21.65 Q199.35 20.2 200.8 20.2 L208.25 19.55 208.25 -1.5 208.25 -1.7 190.15 -33.7 182.3 -34.5 M-253.2 -41.1 Q-247.7 -41.1 -241.8 -39.75 L-238.3 -38.8 Q-237.2 -38.6 -237.2 -37.5 L-237.2 -23.25 Q-237.2 -21.85 -238.6 -21.85 L-242.3 -21.85 Q-243.7 -21.85 -243.7 -22.95 L-245.55 -33.4 Q-249.4 -35.0 -253.8 -35.0 -258.3 -35.0 -261.45 -32.6 -264.85 -30.1 -264.85 -25.85 -264.85 -21.6 -261.8 -18.75 -259.7 -16.75 -254.7 -14.5 L-248.6 -11.65 Q-241.2 -8.3 -237.85 -4.8 -233.5 -0.2 -233.5 6.5 -233.5 16.45 -241.15 22.0 -247.85 26.8 -258.0 26.8 -263.15 26.8 -269.75 25.35 L-273.25 24.3 Q-274.3 23.85 -274.3 22.95 L-274.3 8.75 Q-274.3 7.35 -272.9 7.35 L-268.9 7.35 Q-267.6 7.75 -267.6 8.6 L-265.8 18.85 -265.65 19.05 Q-262.75 20.5 -257.1 20.5 -251.6 20.5 -247.9 17.95 -243.9 15.15 -243.9 10.1 -243.9 2.95 -253.65 -1.6 L-259.85 -4.5 Q-266.75 -7.75 -270.25 -11.15 -274.85 -15.8 -274.85 -22.1 -274.85 -28.4 -271.05 -33.25 -267.35 -37.9 -261.3 -39.9 -257.45 -41.1 -253.2 -41.1 M-167.4 -9.25 Q-167.4 -1.5 -164.85 5.0 -161.95 12.25 -156.45 16.5 -150.95 20.7 -143.95 20.7 -133.8 20.7 -128.4 12.6 -123.6 5.45 -123.6 -5.45 -123.6 -17.6 -129.65 -26.05 -136.0 -35.0 -146.3 -35.0 -156.35 -35.0 -162.15 -27.1 -167.4 -19.85 -167.4 -9.25 M-169.25 -31.3 Q-159.85 -41.1 -145.15 -41.1 -130.5 -41.1 -121.45 -31.45 -112.6 -22.05 -112.6 -7.3 -112.6 7.25 -121.2 15.35 -130.65 26.8 -145.15 26.8 -159.75 26.8 -169.1 17.25 -178.5 7.65 -178.5 -7.0 -178.5 -21.7 -169.25 -31.3" fill="url(#gradient0)" fill-rule="evenodd" stroke="none"/>
  </g>
  <defs>
    <linearGradient gradientTransform="matrix(-6.0E-4, 0.0446, -0.3172, -0.0042, -15.2, -6.6)" gradientUnits="userSpaceOnUse" id="gradient0" spreadMethod="pad" x1="-819.2" x2="819.2">
      <stop offset="0.2549019607843137" stop-color="#fdf7c6"/>
      <stop offset="0.9882352941176471" stop-color="#ffffff"/>
    </linearGradient>
  </defs>
</svg>
