<?xml version="1.0" encoding="UTF-8" standalone="no"?>
<svg xmlns:ffdec="https://www.free-decompiler.com/flash" xmlns:xlink="http://www.w3.org/1999/xlink" ffdec:objectType="shape" height="20.0px" width="62.8px" xmlns="http://www.w3.org/2000/svg">
  <g transform="matrix(1.0, 0.0, 0.0, 1.0, 31.4, 10.0)">
    <path d="M2.7 -3.7 Q3.4 -3.1 6.25 -2.4 9.1 -1.75 10.5 -1.0 11.85 -0.3 12.65 0.95 13.4 2.2 13.4 4.0 13.4 5.7 12.45 7.15 11.55 8.6 9.85 9.3 8.15 10.0 5.65 10.0 2.0 10.0 0.0 8.3 -1.95 6.6 -2.3 3.35 L1.45 3.0 Q1.8 4.9 2.85 5.8 3.9 6.7 5.7 6.7 7.6 6.7 8.55 5.9 9.5 5.1 9.5 4.05 9.5 3.35 9.1 2.85 8.7 2.4 7.7 2.05 L4.55 1.2 Q1.4 0.4 0.15 -0.75 -1.65 -2.3 -1.65 -4.6 -1.65 -6.1 -0.8 -7.35 0.05 -8.65 1.65 -9.35 3.2 -10.0 5.45 -10.0 9.05 -10.0 10.9 -8.4 12.75 -6.8 12.85 -4.15 L8.95 -4.0 Q8.7 -5.45 7.85 -6.1 7.05 -6.8 5.4 -6.8 3.7 -6.8 2.7 -6.1 2.1 -5.65 2.1 -4.9 2.1 -4.2 2.7 -3.7 M16.35 -4.6 Q16.35 -6.1 17.2 -7.35 18.05 -8.65 19.65 -9.35 L23.45 -10.0 Q27.05 -10.0 28.9 -8.4 30.75 -6.8 30.85 -4.15 L26.95 -4.0 Q26.7 -5.45 25.85 -6.1 25.05 -6.8 23.4 -6.8 21.7 -6.8 20.7 -6.1 20.1 -5.65 20.1 -4.9 20.1 -4.2 20.7 -3.7 21.4 -3.1 24.25 -2.4 27.1 -1.75 28.5 -1.0 29.85 -0.3 30.65 0.95 31.4 2.2 31.4 4.0 31.4 5.7 30.45 7.15 29.55 8.6 27.85 9.3 26.15 10.0 23.65 10.0 20.0 10.0 18.0 8.3 16.05 6.6 15.7 3.35 L19.45 3.0 Q19.8 4.9 20.85 5.8 21.9 6.7 23.7 6.7 25.6 6.7 26.55 5.9 27.5 5.1 27.5 4.05 27.5 3.35 27.1 2.85 26.7 2.4 25.7 2.05 L22.55 1.2 Q19.4 0.4 18.15 -0.75 16.35 -2.3 16.35 -4.6 M-25.55 -9.7 L-22.05 3.5 -18.55 -9.7 -12.7 -9.7 -12.7 9.65 -16.35 9.65 -16.35 -5.55 -20.2 9.65 -23.95 9.65 -27.75 -5.55 -27.75 9.65 -31.4 9.65 -31.4 -9.7 -25.55 -9.7 M-5.05 -9.7 L-5.05 9.65 -8.95 9.65 -8.95 -9.7 -5.05 -9.7" fill="#663366" fill-rule="evenodd" stroke="none"/>
  </g>
</svg>
