<?xml version="1.0" encoding="UTF-8" standalone="no"?>
<svg xmlns:ffdec="https://www.free-decompiler.com/flash" xmlns:xlink="http://www.w3.org/1999/xlink" ffdec:objectType="shape" height="49.35px" width="46.5px" xmlns="http://www.w3.org/2000/svg">
  <g transform="matrix(1.0, 0.0, 0.0, 1.0, 23.25, 24.7)">
    <path d="M21.25 -5.45 Q21.25 1.7 15.0 6.75 9.85 10.95 2.95 11.65 0.95 16.0 -4.75 22.65 -2.1 17.6 -2.5 11.7 -9.7 11.05 -15.05 6.75 -21.25 1.7 -21.25 -5.45 -21.25 -12.6 -15.05 -17.65 -8.8 -22.7 0.0 -22.7 8.8 -22.7 15.0 -17.65 21.25 -12.6 21.25 -5.45" fill="url(#gradient0)" fill-rule="evenodd" stroke="none"/>
    <path d="M16.25 -19.2 Q23.3 -13.5 23.25 -5.45 23.3 2.6 16.25 8.3 11.1 12.5 4.25 13.5 2.05 17.75 -3.25 23.95 L-3.2 23.95 Q-3.7 24.55 -4.45 24.65 L-4.5 24.65 Q-5.25 24.75 -5.85 24.3 L-5.85 24.35 -6.7 23.2 -6.7 23.15 Q-6.85 22.4 -6.5 21.7 -4.5 17.85 -4.45 13.5 -11.15 12.45 -16.3 8.3 -23.3 2.6 -23.25 -5.45 -23.3 -13.5 -16.3 -19.2 -9.55 -24.7 0.0 -24.7 9.55 -24.7 16.25 -19.2 M21.25 -5.45 Q21.25 -12.6 15.0 -17.65 8.8 -22.7 0.0 -22.7 -8.8 -22.7 -15.05 -17.65 -21.25 -12.6 -21.25 -5.45 -21.25 1.7 -15.05 6.75 -9.7 11.05 -2.5 11.7 -2.1 17.6 -4.75 22.65 0.95 16.0 2.95 11.65 9.85 10.95 15.0 6.75 21.25 1.7 21.25 -5.45" fill="#000000" fill-rule="evenodd" stroke="none"/>
  </g>
  <defs>
    <radialGradient cx="0" cy="0" gradientTransform="matrix(0.0476, 0.0, 0.0, 0.0476, 0.5, -16.0)" gradientUnits="userSpaceOnUse" id="gradient0" r="819.2" spreadMethod="pad">
      <stop offset="0.0" stop-color="#555555"/>
      <stop offset="1.0" stop-color="#000000"/>
    </radialGradient>
  </defs>
</svg>
