<?xml version="1.0" encoding="UTF-8" standalone="no"?>
<svg xmlns:ffdec="https://www.free-decompiler.com/flash" xmlns:xlink="http://www.w3.org/1999/xlink" ffdec:objectType="shape" height="9.45px" width="29.6px" xmlns="http://www.w3.org/2000/svg">
  <g transform="matrix(1.0, 0.0, 0.0, 1.0, 14.85, 5.2)">
    <path d="M1.25 -2.2 Q1.55 -1.95 2.9 -1.6 L4.9 -0.95 5.9 -0.05 Q6.25 0.55 6.25 1.4 6.25 2.2 5.85 2.9 L4.6 3.9 2.6 4.25 Q0.9 4.25 -0.05 3.45 -1.0 2.65 -1.15 1.1 L0.65 0.95 Q0.8 1.8 1.3 2.25 1.75 2.65 2.65 2.7 3.5 2.7 4.0 2.3 L4.45 1.45 4.25 0.85 3.6 0.5 2.1 0.1 Q0.6 -0.3 0.0 -0.85 -0.85 -1.55 -0.8 -2.65 -0.85 -3.35 -0.4 -3.95 L0.75 -4.9 2.5 -5.2 Q4.2 -5.2 5.1 -4.45 5.95 -3.7 6.0 -2.45 L4.2 -2.35 3.65 -3.35 Q3.3 -3.7 2.5 -3.7 1.7 -3.7 1.25 -3.35 0.95 -3.15 0.95 -2.8 0.95 -2.45 1.25 -2.2 M9.2 -4.9 L11.0 -5.2 Q12.7 -5.2 13.6 -4.45 14.45 -3.7 14.5 -2.45 L12.65 -2.35 12.15 -3.35 11.0 -3.7 9.7 -3.35 Q9.4 -3.15 9.45 -2.8 9.4 -2.45 9.7 -2.2 10.05 -1.95 11.4 -1.6 L13.4 -0.95 14.4 -0.05 Q14.75 0.55 14.75 1.4 L14.3 2.9 Q13.9 3.55 13.1 3.9 L11.1 4.25 Q9.35 4.25 8.45 3.45 7.5 2.65 7.35 1.1 L9.15 0.95 Q9.3 1.8 9.8 2.25 10.25 2.65 11.15 2.7 12.0 2.7 12.5 2.3 12.9 1.9 12.9 1.45 L12.75 0.85 12.1 0.5 10.6 0.1 Q9.1 -0.3 8.5 -0.85 7.65 -1.55 7.65 -2.65 7.65 -3.35 8.05 -3.95 L9.2 -4.9 M-2.45 -5.05 L-2.45 4.05 -4.25 4.05 -4.25 -5.05 -2.45 -5.05 M-6.05 -5.05 L-6.05 4.05 -7.75 4.05 -7.75 -3.1 -9.55 4.05 -11.35 4.05 -13.15 -3.1 -13.15 4.05 -14.85 4.05 -14.85 -5.05 -12.1 -5.05 -10.45 1.15 -8.8 -5.05 -6.05 -5.05" fill="url(#gradient0)" fill-rule="evenodd" stroke="none"/>
  </g>
  <defs>
    <linearGradient gradientTransform="matrix(0.0, 0.0058, -0.0181, 0.0, -0.05, -0.5)" gradientUnits="userSpaceOnUse" id="gradient0" spreadMethod="pad" x1="-819.2" x2="819.2">
      <stop offset="0.0" stop-color="#ffffff" stop-opacity="0.0"/>
      <stop offset="1.0" stop-color="#ffffff" stop-opacity="0.49019608"/>
    </linearGradient>
  </defs>
</svg>
