<?xml version="1.0" encoding="UTF-8" standalone="no"?>
<svg xmlns:ffdec="https://www.free-decompiler.com/flash" xmlns:xlink="http://www.w3.org/1999/xlink" ffdec:objectType="shape" height="30.7px" width="38.4px" xmlns="http://www.w3.org/2000/svg">
  <g transform="matrix(1.0, 0.0, 0.0, 1.0, 15.8, 11.4)">
    <path d="M3.35 -9.95 L3.35 -10.55 5.7 -10.55 5.7 -10.4 5.7 -4.1 5.7 -3.2 3.55 -3.2 3.35 -3.2 3.35 -9.95" fill="url(#gradient0)" fill-rule="evenodd" stroke="none"/>
    <path d="M3.35 -3.2 L3.55 -3.2 3.4 -3.1 3.35 -3.2 M-6.55 -0.2 L-6.55 -0.25 -6.5 -0.25 -6.5 -0.2 -6.55 -0.2" fill="url(#gradient1)" fill-rule="evenodd" stroke="none"/>
    <path d="M3.35 -3.2 L3.4 -3.1 Q1.1 -2.05 -1.0 -0.6 L-5.75 -0.2 -6.5 -0.2 -6.5 -0.25 -6.5 -7.25 -7.7 -7.25 3.35 -9.95 3.35 -3.2 M-11.7 -0.6 L-13.25 -0.6 Q-12.6 -2.85 -13.0 -5.6 L-9.1 -6.85 -9.1 -0.25 -6.55 -0.25 -6.55 -0.2 -9.2 -0.05 -11.7 -0.6" fill="url(#gradient2)" fill-rule="evenodd" stroke="none"/>
    <path d="M12.35 -4.3 L14.2 6.15 14.9 16.05 8.7 16.05 -4.55 16.1 -13.1 16.15 Q-12.8 13.45 -12.75 10.7 -9.2 9.95 -6.15 8.2 -6.8 4.0 -6.55 -0.2 L-6.5 -0.2 -5.75 -0.2 -1.0 -0.6 Q1.1 -2.05 3.4 -3.1 L3.55 -3.2 5.7 -3.2 5.7 -4.1 7.7 -4.8 Q9.05 -4.25 10.45 -4.15 L12.0 -4.25 12.35 -4.3 M2.45 3.05 L4.0 10.15 7.8 10.6 8.7 16.05 7.8 10.6 4.0 10.15 2.45 3.05 M6.1 0.65 Q6.2 5.95 7.8 10.6 6.2 5.95 6.1 0.65 M-5.4 4.75 L-5.5 2.5 -5.4 4.75 M-4.9 8.85 L-5.2 6.0 -4.9 8.85 M-5.65 1.5 L-5.75 -0.2 -5.65 1.5 M-4.75 13.55 L-4.55 16.1 -4.75 13.55 M-4.75 12.55 L-5.0 10.0 -4.75 12.55" fill="url(#gradient3)" fill-rule="evenodd" stroke="none"/>
    <path d="M5.7 -10.4 L10.45 -11.15 10.45 -4.3 10.45 -4.15 Q9.05 -4.25 7.7 -4.8 L5.7 -4.1 5.7 -10.4" fill="url(#gradient4)" fill-rule="evenodd" stroke="none"/>
    <path d="M10.45 -11.15 L10.45 -11.4 12.0 -11.4 12.0 -9.4 12.0 -4.3 10.45 -4.3 10.45 -11.15" fill="url(#gradient5)" fill-rule="evenodd" stroke="none"/>
    <path d="M10.45 -4.15 L10.45 -4.3 12.0 -4.3 12.0 -4.25 10.45 -4.15" fill="url(#gradient6)" fill-rule="evenodd" stroke="none"/>
    <path d="M12.0 -9.4 Q12.65 -7.5 12.5 -5.35 L12.35 -4.3 12.0 -4.25 12.0 -4.3 12.0 -9.4" fill="url(#gradient7)" fill-rule="evenodd" stroke="none"/>
    <path d="M-6.55 -0.25 L-9.1 -0.25 -9.1 -6.85 -9.1 -7.25 -7.7 -7.25 -6.5 -7.25 -6.5 -0.25 -6.55 -0.25" fill="url(#gradient8)" fill-rule="evenodd" stroke="none"/>
    <path d="M-9.2 -0.05 L-6.55 -0.2 Q-6.8 4.0 -6.15 8.2 -9.2 9.95 -12.75 10.7 -13.0 9.15 -12.5 7.75 L-12.1 7.65 Q-10.05 7.45 -8.0 6.25 -9.05 2.75 -9.2 -0.05" fill="url(#gradient9)" fill-rule="evenodd" stroke="none"/>
    <path d="M-11.7 -0.6 L-9.2 -0.05 Q-9.05 2.75 -8.0 6.25 -10.05 7.45 -12.1 7.65 -11.55 3.5 -11.7 -0.6" fill="url(#gradient10)" fill-rule="evenodd" stroke="none"/>
    <path d="M3.35 -9.95 L3.35 -10.55 5.7 -10.55 5.7 -10.4 10.45 -11.15 10.45 -11.4 12.0 -11.4 12.0 -9.4 Q12.65 -7.5 12.5 -5.35 L12.4 -4.3 12.35 -4.3 14.2 6.15 14.9 16.05 22.6 16.0 M3.55 -3.2 L3.35 -3.2 3.35 -9.95 -7.7 -7.25 -9.1 -7.25 -9.1 -6.85 -13.0 -5.6 Q-12.6 -2.85 -13.25 -0.6 L-11.7 -0.6 -9.2 -0.05 -6.55 -0.2 Q-6.8 4.0 -6.15 8.2 -9.2 9.95 -12.75 10.7 -12.8 13.45 -13.1 16.15 L-15.8 16.15 M3.4 -3.1 L3.55 -3.2 5.7 -3.2 5.7 -4.1 5.7 -10.4 M5.7 -4.1 L7.7 -4.8 Q9.05 -4.25 10.45 -4.15 L12.0 -4.25 12.35 -4.3 12.5 -5.35 M10.45 -4.3 L10.45 -11.15 M12.0 -4.3 L10.45 -4.3 M12.0 -4.3 L12.0 -9.4 M14.9 16.05 L15.1 18.6 M8.7 16.05 L7.8 10.6 4.0 10.15 2.45 3.05 M14.9 16.05 L8.7 16.05 -4.55 16.1 -13.1 16.15 -13.55 19.3 M7.8 10.6 Q6.2 5.95 6.1 0.65 M-6.55 -0.25 L-9.1 -0.25 -9.1 -6.85 M-6.5 -0.25 L-6.5 -7.25 -7.7 -7.25 M-6.5 -0.25 L-6.55 -0.25 M-6.5 -0.2 L-6.55 -0.2 M-5.75 -0.2 L-6.5 -0.2 M3.4 -3.1 Q1.1 -2.05 -1.0 -0.6 L-5.75 -0.2 -5.65 1.5 M-5.2 6.0 L-4.9 8.85 M-5.5 2.5 L-5.4 4.75 M-12.1 7.65 L-12.5 7.75 Q-13.0 9.15 -12.75 10.7 M-4.55 16.1 L-4.75 13.55 M-9.2 -0.05 Q-9.05 2.75 -8.0 6.25 -10.05 7.45 -12.1 7.65 -11.55 3.5 -11.7 -0.6 M-5.0 10.0 L-4.75 12.55" fill="none" stroke="#000000" stroke-linecap="round" stroke-linejoin="round" stroke-width="0.05"/>
  </g>
  <defs>
    <radialGradient cx="0" cy="0" gradientTransform="matrix(0.008, 0.0, 0.0, 0.008, 4.5, -9.65)" gradientUnits="userSpaceOnUse" id="gradient0" r="819.2" spreadMethod="pad">
      <stop offset="0.0" stop-color="#556077"/>
      <stop offset="1.0" stop-color="#1f2425"/>
    </radialGradient>
    <radialGradient cx="0" cy="0" gradientTransform="matrix(0.0168, 0.0, 0.0, 0.0168, -2.15, -7.55)" gradientUnits="userSpaceOnUse" id="gradient1" r="819.2" spreadMethod="pad">
      <stop offset="0.0" stop-color="#52567a"/>
      <stop offset="1.0" stop-color="#1f2425"/>
    </radialGradient>
    <radialGradient cx="0" cy="0" gradientTransform="matrix(0.0168, 0.0, 0.0, 0.0168, -2.15, -7.55)" gradientUnits="userSpaceOnUse" id="gradient2" r="819.2" spreadMethod="pad">
      <stop offset="0.0" stop-color="#666666"/>
      <stop offset="1.0" stop-color="#1f2425"/>
    </radialGradient>
    <radialGradient cx="0" cy="0" gradientTransform="matrix(0.0255, 0.0, 0.0, 0.0255, 6.8, 9.95)" gradientUnits="userSpaceOnUse" id="gradient3" r="819.2" spreadMethod="pad">
      <stop offset="0.0" stop-color="#556077"/>
      <stop offset="1.0" stop-color="#1f2425"/>
    </radialGradient>
    <radialGradient cx="0" cy="0" gradientTransform="matrix(0.0088, 0.0, 0.0, 0.0088, 8.85, -10.55)" gradientUnits="userSpaceOnUse" id="gradient4" r="819.2" spreadMethod="pad">
      <stop offset="0.0" stop-color="#666666"/>
      <stop offset="1.0" stop-color="#1f2425"/>
    </radialGradient>
    <radialGradient cx="0" cy="0" gradientTransform="matrix(0.0078, 0.0, 0.0, 0.0078, 11.0, -10.6)" gradientUnits="userSpaceOnUse" id="gradient5" r="819.2" spreadMethod="pad">
      <stop offset="0.0" stop-color="#556077"/>
      <stop offset="1.0" stop-color="#1f2425"/>
    </radialGradient>
    <radialGradient cx="0" cy="0" gradientTransform="matrix(0.0088, 0.0, 0.0, 0.0088, 8.85, -10.55)" gradientUnits="userSpaceOnUse" id="gradient6" r="819.2" spreadMethod="pad">
      <stop offset="0.0" stop-color="#52567a"/>
      <stop offset="1.0" stop-color="#1f2425"/>
    </radialGradient>
    <radialGradient cx="0" cy="0" gradientTransform="matrix(0.0237, 0.0, 0.0, 0.0237, 3.5, -8.95)" gradientUnits="userSpaceOnUse" id="gradient7" r="819.2" spreadMethod="pad">
      <stop offset="0.0" stop-color="#666666"/>
      <stop offset="1.0" stop-color="#1f2425"/>
    </radialGradient>
    <radialGradient cx="0" cy="0" gradientTransform="matrix(0.0076, 0.0, 0.0, 0.0076, -7.05, -6.1)" gradientUnits="userSpaceOnUse" id="gradient8" r="819.2" spreadMethod="pad">
      <stop offset="0.0" stop-color="#556077"/>
      <stop offset="1.0" stop-color="#1f2425"/>
    </radialGradient>
    <radialGradient cx="0" cy="0" gradientTransform="matrix(0.0121, 0.0, 0.0, 0.0121, -13.35, 3.5)" gradientUnits="userSpaceOnUse" id="gradient9" r="819.2" spreadMethod="pad">
      <stop offset="0.0" stop-color="#222433"/>
      <stop offset="1.0" stop-color="#424e4f"/>
    </radialGradient>
    <radialGradient cx="0" cy="0" gradientTransform="matrix(0.0076, 0.0, 0.0, 0.0076, -9.7, 5.9)" gradientUnits="userSpaceOnUse" id="gradient10" r="819.2" spreadMethod="pad">
      <stop offset="0.0" stop-color="#252738"/>
      <stop offset="1.0" stop-color="#1f2425"/>
    </radialGradient>
  </defs>
</svg>
