<?xml version="1.0" encoding="UTF-8" standalone="no"?>
<svg xmlns:ffdec="https://www.free-decompiler.com/flash" xmlns:xlink="http://www.w3.org/1999/xlink" ffdec:objectType="shape" height="22.6px" width="21.4px" xmlns="http://www.w3.org/2000/svg">
  <g transform="matrix(1.0, 0.0, 0.0, 1.0, 11.0, 10.85)">
    <path d="M-10.55 1.15 L-11.0 0.3 Q-10.05 -4.55 -7.9 -9.05 -6.8 -10.15 -4.85 -10.85 L-4.6 -10.8 -3.5 -10.85 -4.9 -9.5 -2.5 -10.85 -2.0 -10.85 -1.05 -10.85 -0.3 -10.8 -2.05 -9.1 0.85 -10.75 3.5 -10.45 1.8 -8.45 4.5 -10.3 9.3 -9.1 9.3 -4.9 Q7.9 -4.5 7.45 -3.7 5.6 -0.7 5.3 2.75 9.25 3.4 9.9 4.85 11.5 7.8 7.85 9.85 L0.95 9.5 -3.35 8.75 -5.8 6.7 Q-8.9 3.9 -10.55 1.15 M-0.65 -4.4 L-1.05 -4.4 Q-4.95 -4.85 -6.85 -6.3 -9.45 -3.5 -9.2 -0.7 -7.0 2.5 -3.05 3.75 -2.65 0.3 -1.05 -3.45 L-0.65 -4.4" fill="url(#gradient0)" fill-rule="evenodd" stroke="none"/>
    <path d="M-0.65 -4.4 L-1.05 -3.45 Q-2.65 0.3 -3.05 3.75 -7.0 2.5 -9.2 -0.7 -9.45 -3.5 -6.85 -6.3 -4.95 -4.85 -1.05 -4.4 L-0.65 -4.4" fill="url(#gradient1)" fill-rule="evenodd" stroke="none"/>
    <path d="M0.95 9.5 L-1.1 11.65 Q-7.85 12.45 -10.1 6.7 L-10.45 5.7 -10.55 1.15 Q-8.9 3.9 -5.8 6.7 L-3.35 8.75 0.95 9.5" fill="url(#gradient2)" fill-rule="evenodd" stroke="none"/>
    <path d="M-10.55 1.15 L-11.0 0.3 Q-10.05 -4.55 -7.9 -9.05 -6.8 -10.15 -4.85 -10.85 L-4.6 -10.8 -3.5 -10.85 -4.9 -9.5 -2.5 -10.85 -2.0 -10.85 -1.05 -10.85 -0.3 -10.8 -2.05 -9.1 0.85 -10.75 3.5 -10.45 1.8 -8.45 4.5 -10.3 9.3 -9.1 9.3 -4.9 Q7.9 -4.5 7.45 -3.7 5.6 -0.7 5.3 2.75 9.25 3.4 9.9 4.85 11.5 7.8 7.85 9.85 L0.95 9.5 -1.1 11.65 Q-7.85 12.45 -10.1 6.7 L-10.45 5.7 -10.55 1.15 Q-8.9 3.9 -5.8 6.7 L-3.35 8.75 0.95 9.5 M-0.65 -4.4 L-1.05 -4.4 Q-4.95 -4.85 -6.85 -6.3 -9.45 -3.5 -9.2 -0.7 -7.0 2.5 -3.05 3.75 -2.65 0.3 -1.05 -3.45 L-0.65 -4.4 Z" fill="none" stroke="#000000" stroke-linecap="round" stroke-linejoin="round" stroke-width="0.05"/>
  </g>
  <defs>
    <radialGradient cx="0" cy="0" gradientTransform="matrix(0.0198, 0.0, 0.0, 0.0198, 3.3, -5.0)" gradientUnits="userSpaceOnUse" id="gradient0" r="819.2" spreadMethod="pad">
      <stop offset="0.0" stop-color="#2b2722"/>
      <stop offset="1.0" stop-color="#000000"/>
    </radialGradient>
    <radialGradient cx="0" cy="0" fx="-73.60000000000001" fy="0" gradientTransform="matrix(0.0076, 0.0, 0.0, 0.0076, -4.65, -2.35)" gradientUnits="userSpaceOnUse" id="gradient1" r="819.2" spreadMethod="pad">
      <stop offset="0.0" stop-color="#0e0d0c"/>
      <stop offset="1.0" stop-color="#000000"/>
    </radialGradient>
    <radialGradient cx="0" cy="0" gradientTransform="matrix(0.0146, 0.0, 0.0, 0.0146, -10.0, 5.0)" gradientUnits="userSpaceOnUse" id="gradient2" r="819.2" spreadMethod="pad">
      <stop offset="0.0" stop-color="#464039"/>
      <stop offset="1.0" stop-color="#27231d"/>
    </radialGradient>
  </defs>
</svg>
