<?xml version="1.0" encoding="UTF-8" standalone="no"?>
<svg xmlns:ffdec="https://www.free-decompiler.com/flash" xmlns:xlink="http://www.w3.org/1999/xlink" ffdec:objectType="shape" height="27.45px" width="25.45px" xmlns="http://www.w3.org/2000/svg">
  <g transform="matrix(1.0, 0.0, 0.0, 1.0, 12.3, 14.2)">
    <path d="M1.05 -5.8 L1.15 -6.4 Q1.4 -6.25 1.7 -6.05 L1.05 -5.8" fill="#262626" fill-rule="evenodd" stroke="none"/>
    <path d="M0.7 -4.85 L0.8 -5.0 0.85 -5.0 0.7 -4.85 M4.6 -2.05 L4.45 -1.9 4.55 -2.05 4.6 -2.05" fill="url(#gradient0)" fill-rule="evenodd" stroke="none"/>
    <path d="M13.1 -12.55 L13.15 -12.55 11.7 -0.75 11.95 1.2 Q7.05 7.6 -1.3 9.9 -1.35 7.15 -2.65 5.25 L-2.95 4.65 -2.15 3.9 -0.65 2.6 2.15 0.15 4.45 -1.9 4.6 -2.05 5.75 -3.05 6.35 -3.6 6.95 -8.1 7.2 -9.8 8.05 -9.65 13.1 -12.55" fill="url(#gradient1)" fill-rule="evenodd" stroke="none"/>
    <path d="M6.95 -8.1 L6.35 -3.6 5.75 -3.05 1.7 -6.05 6.95 -8.1" fill="url(#gradient2)" fill-rule="evenodd" stroke="none"/>
    <path d="M1.25 -8.25 L1.1 -9.9 3.05 -9.0 1.25 -8.25" fill="url(#gradient3)" fill-rule="evenodd" stroke="none"/>
    <path d="M-3.0 -2.0 L0.7 -4.85 0.85 -5.0 4.55 -2.05 4.45 -1.9 -3.0 -2.0" fill="url(#gradient4)" fill-rule="evenodd" stroke="none"/>
    <path d="M2.15 0.15 L-0.65 2.6 -3.15 0.0 2.15 0.15" fill="url(#gradient5)" fill-rule="evenodd" stroke="none"/>
    <path d="M-10.1 2.55 L-6.05 0.05 -2.15 3.9 -2.95 4.65 Q-4.9 1.6 -10.1 2.55" fill="url(#gradient6)" fill-rule="evenodd" stroke="none"/>
    <path d="M0.7 -12.45 L9.65 -14.1 Q12.9 -14.6 13.1 -12.55 L8.05 -9.65 7.2 -9.8 5.65 -10.15 Q2.6 -10.95 0.7 -12.45" fill="url(#gradient7)" fill-rule="evenodd" stroke="none"/>
    <path d="M11.95 1.2 L12.15 3.3 Q8.2 8.55 -0.55 12.5 L-1.45 12.9 -2.05 13.0 Q-12.8 14.15 -12.3 9.95 L-11.85 5.75 Q-11.3 4.15 -10.1 2.55 -4.9 1.6 -2.95 4.65 L-2.65 5.25 Q-1.35 7.15 -1.3 9.9 7.05 7.6 11.95 1.2" fill="url(#gradient8)" fill-rule="evenodd" stroke="none"/>
    <path d="M-6.05 0.05 L-4.25 -1.15 -3.0 -2.0 4.45 -1.9 2.15 0.15 -3.15 0.0 -0.65 2.6 -2.15 3.9 -6.05 0.05" fill="url(#gradient9)" fill-rule="evenodd" stroke="none"/>
    <path d="M0.8 -5.0 L1.05 -5.8 1.7 -6.05 5.75 -3.05 4.6 -2.05 4.55 -2.05 0.85 -5.0 0.8 -5.0" fill="url(#gradient10)" fill-rule="evenodd" stroke="none"/>
    <path d="M1.15 -6.4 L1.25 -8.25 3.05 -9.0 1.1 -9.9 0.65 -12.45 0.7 -12.45 Q2.6 -10.95 5.65 -10.15 L7.2 -9.8 6.95 -8.1 1.7 -6.05 Q1.4 -6.25 1.15 -6.4" fill="url(#gradient11)" fill-rule="evenodd" stroke="none"/>
    <path d="M13.15 -12.55 L13.15 -12.6 13.1 -12.55 8.05 -9.65 7.2 -9.8 6.95 -8.1 6.35 -3.6 5.75 -3.05 4.6 -2.05 4.45 -1.9 2.15 0.15 -0.65 2.6 -2.15 3.9 -2.95 4.65 -2.65 5.25 Q-1.35 7.15 -1.3 9.9 7.05 7.6 11.95 1.2 L12.15 3.3 M13.15 -12.55 L11.7 -0.75 11.95 1.2 M-11.85 5.75 Q-11.3 4.15 -10.1 2.55 L-6.05 0.05 -4.25 -1.15 -3.0 -2.0 0.7 -4.85 0.8 -5.0 1.05 -5.8 1.15 -6.4 1.25 -8.25 1.1 -9.9 0.65 -12.45 0.7 -12.45 9.65 -14.1 Q12.9 -14.6 13.1 -12.55 M0.7 -12.45 Q2.6 -10.95 5.65 -10.15 L7.2 -9.8 M-10.1 2.55 Q-4.9 1.6 -2.95 4.65" fill="none" stroke="#000000" stroke-linecap="round" stroke-linejoin="round" stroke-width="0.05"/>
    <path d="M12.15 3.3 Q8.2 8.55 -0.55 12.5 L-1.45 12.9 -2.05 13.0 Q-12.8 14.15 -12.3 9.95 L-11.85 5.75" fill="none" stroke="#000000" stroke-linecap="round" stroke-linejoin="round" stroke-width="0.05"/>
  </g>
  <defs>
    <radialGradient cx="0" cy="0" gradientTransform="matrix(0.0057, 0.0, 0.0, 0.0057, 0.0, -3.0)" gradientUnits="userSpaceOnUse" id="gradient0" r="819.2" spreadMethod="pad">
      <stop offset="0.0" stop-color="#262626"/>
      <stop offset="1.0" stop-color="#000000"/>
    </radialGradient>
    <radialGradient cx="0" cy="0" gradientTransform="matrix(0.0191, 0.0, 0.0, 0.0191, 9.65, -0.25)" gradientUnits="userSpaceOnUse" id="gradient1" r="819.2" spreadMethod="pad">
      <stop offset="0.0" stop-color="#4e3c29"/>
      <stop offset="0.9725490196078431" stop-color="#201a13"/>
    </radialGradient>
    <radialGradient cx="0" cy="0" gradientTransform="matrix(0.0052, 0.0, 0.0, 0.0052, 5.95, -5.8)" gradientUnits="userSpaceOnUse" id="gradient2" r="819.2" spreadMethod="pad">
      <stop offset="0.0" stop-color="#4e3c29"/>
      <stop offset="0.9725490196078431" stop-color="#201a13"/>
    </radialGradient>
    <radialGradient cx="0" cy="0" gradientTransform="matrix(0.0019, 0.0, 0.0, 0.0019, 1.5, -9.0)" gradientUnits="userSpaceOnUse" id="gradient3" r="819.2" spreadMethod="pad">
      <stop offset="0.0" stop-color="#4e3c29"/>
      <stop offset="0.9725490196078431" stop-color="#201a13"/>
    </radialGradient>
    <radialGradient cx="0" cy="0" gradientTransform="matrix(0.0057, 0.0, 0.0, 0.0057, 0.0, -3.0)" gradientUnits="userSpaceOnUse" id="gradient4" r="819.2" spreadMethod="pad">
      <stop offset="0.0" stop-color="#4e3c29"/>
      <stop offset="0.9725490196078431" stop-color="#201a13"/>
    </radialGradient>
    <radialGradient cx="0" cy="0" gradientTransform="matrix(0.004, 0.0, 0.0, 0.004, -0.05, 1.2)" gradientUnits="userSpaceOnUse" id="gradient5" r="819.2" spreadMethod="pad">
      <stop offset="0.0" stop-color="#4e3c29"/>
      <stop offset="0.9725490196078431" stop-color="#201a13"/>
    </radialGradient>
    <radialGradient cx="0" cy="0" gradientTransform="matrix(0.0074, 0.0, 0.0, 0.0074, -7.9, 2.05)" gradientUnits="userSpaceOnUse" id="gradient6" r="819.2" spreadMethod="pad">
      <stop offset="0.0" stop-color="#4e3c29"/>
      <stop offset="0.9725490196078431" stop-color="#201a13"/>
    </radialGradient>
    <radialGradient cx="0" cy="0" gradientTransform="matrix(0.0081, 0.0, 0.0, 0.0081, 5.95, -7.6)" gradientUnits="userSpaceOnUse" id="gradient7" r="819.2" spreadMethod="pad">
      <stop offset="0.0" stop-color="#4e3c29"/>
      <stop offset="0.9725490196078431" stop-color="#201a13"/>
    </radialGradient>
    <radialGradient cx="0" cy="0" gradientTransform="matrix(0.0236, 0.0, 0.0, 0.0236, -3.35, 15.25)" gradientUnits="userSpaceOnUse" id="gradient8" r="819.2" spreadMethod="pad">
      <stop offset="0.0" stop-color="#3c3c3c"/>
      <stop offset="0.9725490196078431" stop-color="#201a13"/>
    </radialGradient>
    <radialGradient cx="0" cy="0" gradientTransform="matrix(0.0106, 0.0, 0.0, 0.0106, -3.7, 1.05)" gradientUnits="userSpaceOnUse" id="gradient9" r="819.2" spreadMethod="pad">
      <stop offset="0.0" stop-color="#1a1a1a"/>
      <stop offset="1.0" stop-color="#000000"/>
    </radialGradient>
    <radialGradient cx="0" cy="0" gradientTransform="matrix(0.0055, 0.0, 0.0, 0.0055, 1.65, -4.85)" gradientUnits="userSpaceOnUse" id="gradient10" r="819.2" spreadMethod="pad">
      <stop offset="0.0" stop-color="#1a1a1a"/>
      <stop offset="1.0" stop-color="#000000"/>
    </radialGradient>
    <radialGradient cx="0" cy="0" gradientTransform="matrix(0.0069, 0.0, 0.0, 0.0069, 3.1, -7.35)" gradientUnits="userSpaceOnUse" id="gradient11" r="819.2" spreadMethod="pad">
      <stop offset="0.0" stop-color="#1a1a1a"/>
      <stop offset="1.0" stop-color="#000000"/>
    </radialGradient>
  </defs>
</svg>
