<?xml version="1.0" encoding="UTF-8" standalone="no"?>
<svg xmlns:ffdec="https://www.free-decompiler.com/flash" xmlns:xlink="http://www.w3.org/1999/xlink" ffdec:objectType="shape" height="31.0px" width="20.85px" xmlns="http://www.w3.org/2000/svg">
  <g transform="matrix(1.0, 0.0, 0.0, 1.0, 9.5, 14.75)">
    <path d="M3.3 -5.0 L7.35 -5.9 3.4 -4.5 -1.55 -2.35 -2.65 11.95 -2.5 12.0 -2.55 12.05 -2.6 12.0 -2.6 12.25 -2.65 12.25 -2.6 12.3 -2.65 12.3 Q-4.45 12.75 -5.8 13.75 L-5.4 10.95 -3.35 -2.55 -5.3 -4.95 Q-3.6 -3.7 3.3 -5.0" fill="url(#gradient0)" fill-rule="evenodd" stroke="none"/>
    <path d="M-6.65 -4.15 L-6.65 -3.65 -6.75 -3.75 -6.65 -4.15" fill="url(#gradient1)" fill-rule="evenodd" stroke="none"/>
    <path d="M-2.6 12.3 L-2.65 12.25 -2.6 12.25 -2.6 12.3" fill="url(#gradient2)" fill-rule="evenodd" stroke="none"/>
    <path d="M-5.4 10.95 L-5.8 13.75 -5.95 15.95 Q-8.7 12.7 -9.5 9.8 L-8.45 4.7 Q-8.9 8.6 -5.4 10.95 M-2.65 12.3 L-2.6 12.3 -2.6 12.25 -2.6 12.0 -2.55 12.05 -2.5 12.05 -1.85 11.8 Q5.25 9.25 8.45 4.75 L7.1 10.85 Q3.9 14.6 -3.3 16.25 L-2.65 12.3" fill="url(#gradient3)" fill-rule="evenodd" stroke="none"/>
    <path d="M8.45 4.75 Q10.2 3.05 10.05 1.65 L11.35 5.55 7.1 10.85 8.45 4.75" fill="url(#gradient4)" fill-rule="evenodd" stroke="none"/>
    <path d="M3.4 -4.5 Q6.85 -0.45 8.45 4.75 5.25 9.25 -1.85 11.8 L-2.5 12.05 -2.55 12.05 -2.5 12.0 -2.45 11.95 -2.65 11.95 -1.55 -2.35 3.4 -4.5 M0.9 -14.75 Q4.9 -9.75 3.3 -5.0 -3.6 -3.7 -5.3 -4.95 L-3.35 -2.55 -5.4 10.95 Q-8.9 8.6 -8.45 4.7 L-6.65 -3.65 -6.65 -4.15 -6.0 -7.4 -5.85 -7.85 Q-3.15 -14.8 0.9 -14.75" fill="url(#gradient5)" fill-rule="evenodd" stroke="none"/>
    <path d="M3.4 -4.5 L7.35 -5.9 3.3 -5.0 Q4.9 -9.75 0.9 -14.75 4.05 -14.75 7.95 -10.55 L10.05 1.65 Q10.2 3.05 8.45 4.75 6.85 -0.45 3.4 -4.5" fill="url(#gradient6)" fill-rule="evenodd" stroke="none"/>
    <path d="M3.3 -5.0 L7.35 -5.9 3.4 -4.5 -1.55 -2.35 -2.65 11.95 M10.05 1.65 L7.95 -10.55 Q4.05 -14.75 0.9 -14.75 -3.15 -14.8 -5.85 -7.85 L-6.0 -7.4 -6.65 -4.15 -6.65 -3.65 -8.45 4.7 -9.5 9.8 Q-8.7 12.7 -5.95 15.95 L-5.8 13.75 Q-4.45 12.75 -2.65 12.3 L-2.6 12.3 -2.65 12.25 M3.3 -5.0 Q-3.6 -3.7 -5.3 -4.95 L-3.35 -2.55 -5.4 10.95 -5.8 13.75 M-2.6 12.25 L-2.6 12.0 M10.05 1.65 L11.35 5.55 7.1 10.85 Q3.9 14.6 -3.3 16.25 L-2.65 12.3 M-6.75 -3.75 L-6.65 -4.15 M-2.6 12.25 L-2.6 12.3" fill="none" stroke="#000000" stroke-linecap="round" stroke-linejoin="round" stroke-width="0.05"/>
    <path d="M8.45 4.75 Q10.2 3.05 10.05 1.65 M8.45 4.75 Q5.25 9.25 -1.85 11.8 L-2.5 12.05 -2.55 12.05 M-8.45 4.7 Q-8.9 8.6 -5.4 10.95" fill="none" stroke="#000000" stroke-linecap="round" stroke-linejoin="round" stroke-width="0.05"/>
  </g>
  <defs>
    <radialGradient cx="0" cy="0" gradientTransform="matrix(0.0199, -0.004, 0.004, 0.0199, -2.45, 7.55)" gradientUnits="userSpaceOnUse" id="gradient0" r="819.2" spreadMethod="pad">
      <stop offset="0.0" stop-color="#111111"/>
      <stop offset="1.0" stop-color="#000000"/>
    </radialGradient>
    <radialGradient cx="0" cy="0" gradientTransform="matrix(0.0278, -0.0056, 0.0056, 0.0278, -0.55, -7.15)" gradientUnits="userSpaceOnUse" id="gradient1" r="819.2" spreadMethod="pad">
      <stop offset="0.0" stop-color="#b3b3b3"/>
      <stop offset="1.0" stop-color="#444444"/>
    </radialGradient>
    <radialGradient cx="0" cy="0" fx="-44.800000000000004" fy="0" gradientTransform="matrix(0.0106, -0.0021, 0.0042, 0.021, -2.85, 2.5)" gradientUnits="userSpaceOnUse" id="gradient2" r="819.2" spreadMethod="pad">
      <stop offset="0.0" stop-color="#805555"/>
      <stop offset="1.0" stop-color="#523636"/>
    </radialGradient>
    <radialGradient cx="0" cy="0" fx="-44.800000000000004" fy="0" gradientTransform="matrix(0.0106, -0.0021, 0.0042, 0.021, -2.85, 2.5)" gradientUnits="userSpaceOnUse" id="gradient3" r="819.2" spreadMethod="pad">
      <stop offset="0.0" stop-color="#676c6d"/>
      <stop offset="1.0" stop-color="#281c1c"/>
    </radialGradient>
    <radialGradient cx="0" cy="0" gradientTransform="matrix(0.0263, -0.0052, 0.0052, 0.0263, 4.4, -10.95)" gradientUnits="userSpaceOnUse" id="gradient4" r="819.2" spreadMethod="pad">
      <stop offset="0.0" stop-color="#1e1a22"/>
      <stop offset="1.0" stop-color="#0d0c0e"/>
    </radialGradient>
    <radialGradient cx="0" cy="0" gradientTransform="matrix(0.0278, -0.0056, 0.0056, 0.0278, -0.55, -7.15)" gradientUnits="userSpaceOnUse" id="gradient5" r="819.2" spreadMethod="pad">
      <stop offset="0.0" stop-color="#595467"/>
      <stop offset="1.0" stop-color="#1b1010"/>
    </radialGradient>
    <radialGradient cx="0" cy="0" gradientTransform="matrix(0.0158, -0.0032, 0.0052, 0.0263, 2.9, -4.75)" gradientUnits="userSpaceOnUse" id="gradient6" r="819.2" spreadMethod="pad">
      <stop offset="0.0" stop-color="#38313e"/>
      <stop offset="0.9725490196078431" stop-color="#2c2121"/>
    </radialGradient>
  </defs>
</svg>
